<?xml version="1.0" encoding="utf-8" standalone="no"?>
<!DOCTYPE svg PUBLIC "-//W3C//DTD SVG 1.1//EN"
  "http://www.w3.org/Graphics/SVG/1.1/DTD/svg11.dtd">
<svg height="288pt" version="1.1" viewBox="0 0 432 288" width="432pt" xmlns="http://www.w3.org/2000/svg" xmlns:xlink="http://www.w3.org/1999/xlink">
 <metadata>
  <rdf:RDF xmlns:cc="http://creativecommons.org/ns#" xmlns:dc="http://purl.org/dc/elements/1.1/" xmlns:rdf="http://www.w3.org/1999/02/22-rdf-syntax-ns#">
   <cc:Work>
    <dc:type rdf:resource="http://purl.org/dc/dcmitype/StillImage"/>
    <dc:date>2022-08-02T11:36:51.874695</dc:date>
    <dc:format>image/svg+xml</dc:format>
    <dc:creator>
     <cc:Agent>
      <dc:title>Matplotlib v3.4.3, https://matplotlib.org/</dc:title>
     </cc:Agent>
    </dc:creator>
   </cc:Work>
  </rdf:RDF>
 </metadata>
 <defs>
  <style type="text/css">*{stroke-linecap:butt;stroke-linejoin:round;}</style>
 </defs>
 <g id="figure_1">
  <g id="patch_1">
   <path d="M 0 288 
L 432 288 
L 432 0 
L 0 0 
z
" style="fill:none;"/>
  </g>
  <g id="axes_1">
   <g id="patch_2">
    <path d="M 54 252 
L 388.8 252 
L 388.8 34.56 
L 54 34.56 
z
" style="fill:#ffffff;"/>
   </g>
   <g id="PolyCollection_1">
    <defs>
     <path d="M 69.218182 -170.015913 
L 69.218182 -122.860362 
L 71.985124 -125.71552 
L 74.752066 -127.872965 
L 77.519008 -129.213872 
L 80.28595 -129.643901 
L 83.052893 -129.1042 
L 85.819835 -127.58357 
L 88.586777 -125.12891 
L 91.353719 -121.848249 
L 94.120661 -117.90162 
L 96.887603 -113.481299 
L 99.654545 -108.789095 
L 102.421488 -104.018057 
L 105.18843 -99.341125 
L 107.955372 -94.905497 
L 110.722314 -90.83047 
L 113.489256 -87.207121 
L 116.256198 -84.09892 
L 119.02314 -81.542853 
L 121.790083 -79.550904 
L 124.557025 -78.111941 
L 127.323967 -77.194096 
L 130.090909 -76.7478 
L 132.857851 -76.709484 
L 135.624793 -77.005859 
L 138.391736 -77.558518 
L 141.158678 -78.288552 
L 143.92562 -79.120841 
L 146.692562 -79.987774 
L 149.459504 -80.832257 
L 152.226446 -81.609937 
L 154.993388 -82.290629 
L 157.760331 -82.858874 
L 160.527273 -83.313515 
L 163.294215 -83.666087 
L 166.061157 -83.937834 
L 168.828099 -84.155278 
L 171.595041 -84.344463 
L 174.361983 -84.524262 
L 177.128926 -84.699509 
L 179.895868 -84.855282 
L 182.66281 -84.954444 
L 185.429752 -84.941132 
L 188.196694 -84.751929 
L 190.963636 -84.332567 
L 193.730579 -83.653128 
L 196.497521 -82.714299 
L 199.264463 -81.543248 
L 202.031405 -80.183893 
L 204.798347 -78.687111 
L 207.565289 -77.103547 
L 210.332231 -75.479195 
L 213.099174 -73.852992 
L 215.866116 -72.255744 
L 218.633058 -70.709971 
L 221.4 -69.230454 
L 224.166942 -67.825345 
L 226.933884 -66.497683 
L 229.700826 -65.247146 
L 232.467769 -64.071778 
L 235.234711 -62.969478 
L 238.001653 -61.939 
L 240.768595 -60.980309 
L 243.535537 -60.094236 
L 246.302479 -59.281454 
L 249.069421 -58.54097 
L 251.836364 -57.868369 
L 254.603306 -57.254156 
L 257.370248 -56.682588 
L 260.13719 -56.1314 
L 262.904132 -55.572871 
L 265.671074 -54.976695 
L 268.438017 -54.315051 
L 271.204959 -53.570013 
L 273.971901 -52.742647 
L 276.738843 -51.861756 
L 279.505785 -50.988831 
L 282.272727 -50.21588 
L 285.039669 -49.655533 
L 287.806612 -49.426699 
L 290.573554 -49.640905 
L 293.340496 -50.393247 
L 296.107438 -51.759329 
L 298.87438 -53.797576 
L 301.641322 -56.554976 
L 304.408264 -60.073081 
L 307.175207 -64.390311 
L 309.942149 -69.537785 
L 312.709091 -75.529196 
L 315.476033 -82.348301 
L 318.242975 -89.938108 
L 321.009917 -98.194158 
L 323.77686 -106.962365 
L 326.543802 -116.040813 
L 329.310744 -125.184796 
L 332.077686 -134.115056 
L 334.844628 -142.530188 
L 337.61157 -150.125036 
L 340.378512 -156.615722 
L 343.145455 -161.767609 
L 345.912397 -165.41768 
L 348.679339 -167.483887 
L 351.446281 -167.96148 
L 354.213223 -166.912275 
L 356.980165 -164.452345 
L 359.747107 -160.740288 
L 362.51405 -155.966072 
L 365.280992 -150.340036 
L 368.047934 -144.082023 
L 370.814876 -137.410974 
L 373.581818 -130.535503 
L 373.581818 -194.967328 
L 373.581818 -194.967328 
L 370.814876 -198.9782 
L 368.047934 -202.439438 
L 365.280992 -205.185266 
L 362.51405 -207.06187 
L 359.747107 -207.936718 
L 356.980165 -207.707497 
L 354.213223 -206.309855 
L 351.446281 -203.722885 
L 348.679339 -199.970999 
L 345.912397 -195.120663 
L 343.145455 -189.271183 
L 340.378512 -182.541273 
L 337.61157 -175.056999 
L 334.844628 -166.947517 
L 332.077686 -158.34962 
L 329.310744 -149.414894 
L 326.543802 -140.3125 
L 323.77686 -131.225439 
L 321.009917 -122.342503 
L 318.242975 -113.848988 
L 315.476033 -105.918205 
L 312.709091 -98.7043 
L 309.942149 -92.335895 
L 307.175207 -86.90973 
L 304.408264 -82.48422 
L 301.641322 -79.074497 
L 298.87438 -76.652057 
L 296.107438 -75.151542 
L 293.340496 -74.484217 
L 290.573554 -74.554525 
L 287.806612 -75.275132 
L 285.039669 -76.576873 
L 282.272727 -78.411493 
L 279.505785 -80.74658 
L 276.738843 -83.554254 
L 273.971901 -86.797852 
L 271.204959 -90.422085 
L 268.438017 -94.350304 
L 265.671074 -98.48859 
L 262.904132 -102.7336 
L 260.13719 -106.980887 
L 257.370248 -111.131754 
L 254.603306 -115.097994 
L 251.836364 -118.804624 
L 249.069421 -122.190936 
L 246.302479 -125.210237 
L 243.535537 -127.828648 
L 240.768595 -130.023319 
L 238.001653 -131.780414 
L 235.234711 -133.093207 
L 232.467769 -133.960576 
L 229.700826 -134.386109 
L 226.933884 -134.377907 
L 224.166942 -133.949084 
L 221.4 -133.11881 
L 218.633058 -131.913693 
L 215.866116 -130.369239 
L 213.099174 -128.531106 
L 210.332231 -126.455905 
L 207.565289 -124.211324 
L 204.798347 -121.875362 
L 202.031405 -119.534375 
L 199.264463 -117.279504 
L 196.497521 -115.200778 
L 193.730579 -113.378194 
L 190.963636 -111.870009 
L 188.196694 -110.701052 
L 185.429752 -109.856777 
L 182.66281 -109.287996 
L 179.895868 -108.925097 
L 177.128926 -108.694471 
L 174.361983 -108.530268 
L 171.595041 -108.379456 
L 168.828099 -108.201923 
L 166.061157 -107.968273 
L 163.294215 -107.65728 
L 160.527273 -107.254085 
L 157.760331 -106.749599 
L 154.993388 -106.141116 
L 152.226446 -105.433861 
L 149.459504 -104.64297 
L 146.692562 -103.795318 
L 143.92562 -102.930669 
L 141.158678 -102.101775 
L 138.391736 -101.37323 
L 135.624793 -100.819085 
L 132.857851 -100.51932 
L 130.090909 -100.555354 
L 127.323967 -101.00482 
L 124.557025 -101.935874 
L 121.790083 -103.401398 
L 119.02314 -105.43358 
L 116.256198 -108.039489 
L 113.489256 -111.198317 
L 110.722314 -114.860929 
L 107.955372 -118.952194 
L 105.18843 -123.376217 
L 102.421488 -128.024222 
L 99.654545 -132.784271 
L 96.887603 -137.551353 
L 94.120661 -142.235381 
L 91.353719 -146.76401 
L 88.586777 -151.078045 
L 85.819835 -155.121081 
L 83.052893 -158.829903 
L 80.28595 -162.132697 
L 77.519008 -164.956172 
L 74.752066 -167.2367 
L 71.985124 -168.929868 
L 69.218182 -170.015913 
z
" id="m010cf28bfd" style="stroke:#add8e6;stroke-opacity:0.2;"/>
    </defs>
    <g clip-path="url(#pa90d23e02f)">
     <use style="fill:#add8e6;fill-opacity:0.2;stroke:#add8e6;stroke-opacity:0.2;" x="0" xlink:href="#m010cf28bfd" y="288"/>
    </g>
   </g>
   <g id="PathCollection_1">
    <defs>
     <path d="M 0 0.612372 
C 0.162403 0.612372 0.318176 0.547849 0.433013 0.433013 
C 0.547849 0.318176 0.612372 0.162403 0.612372 0 
C 0.612372 -0.162403 0.547849 -0.318176 0.433013 -0.433013 
C 0.318176 -0.547849 0.162403 -0.612372 0 -0.612372 
C -0.162403 -0.612372 -0.318176 -0.547849 -0.433013 -0.433013 
C -0.547849 -0.318176 -0.612372 -0.162403 -0.612372 0 
C -0.612372 0.162403 -0.547849 0.318176 -0.433013 0.433013 
C -0.318176 0.547849 -0.162403 0.612372 0 0.612372 
z
" id="m62a3f22455" style="stroke:#ff0000;stroke-width:8;"/>
    </defs>
    <g clip-path="url(#pa90d23e02f)">
     <use style="fill:#ff0000;stroke:#ff0000;stroke-width:8;" x="246.302479" xlink:href="#m62a3f22455" y="232.431448"/>
    </g>
   </g>
   <g id="matplotlib.axis_1">
    <g id="xtick_1">
     <g id="line2d_1">
      <defs>
       <path d="M 0 0 
L 0 3.5 
" id="mb3559db8f1" style="stroke:#000000;stroke-width:0.8;"/>
      </defs>
      <g>
       <use style="stroke:#000000;stroke-width:0.8;" x="69.218182" xlink:href="#mb3559db8f1" y="252"/>
      </g>
     </g>
     <g id="text_1">
      <!-- 0 -->
      <g transform="translate(66.036932 266.598437)scale(0.1 -0.1)">
       <defs>
        <path d="M 2034 4250 
Q 1547 4250 1301 3770 
Q 1056 3291 1056 2328 
Q 1056 1369 1301 889 
Q 1547 409 2034 409 
Q 2525 409 2770 889 
Q 3016 1369 3016 2328 
Q 3016 3291 2770 3770 
Q 2525 4250 2034 4250 
z
M 2034 4750 
Q 2819 4750 3233 4129 
Q 3647 3509 3647 2328 
Q 3647 1150 3233 529 
Q 2819 -91 2034 -91 
Q 1250 -91 836 529 
Q 422 1150 422 2328 
Q 422 3509 836 4129 
Q 1250 4750 2034 4750 
z
" id="DejaVuSans-30" transform="scale(0.015625)"/>
       </defs>
       <use xlink:href="#DejaVuSans-30"/>
      </g>
     </g>
    </g>
    <g id="xtick_2">
     <g id="line2d_2">
      <g>
       <use style="stroke:#000000;stroke-width:0.8;" x="124.557025" xlink:href="#mb3559db8f1" y="252"/>
      </g>
     </g>
     <g id="text_2">
      <!-- 2 -->
      <g transform="translate(121.375775 266.598437)scale(0.1 -0.1)">
       <defs>
        <path d="M 1228 531 
L 3431 531 
L 3431 0 
L 469 0 
L 469 531 
Q 828 903 1448 1529 
Q 2069 2156 2228 2338 
Q 2531 2678 2651 2914 
Q 2772 3150 2772 3378 
Q 2772 3750 2511 3984 
Q 2250 4219 1831 4219 
Q 1534 4219 1204 4116 
Q 875 4013 500 3803 
L 500 4441 
Q 881 4594 1212 4672 
Q 1544 4750 1819 4750 
Q 2544 4750 2975 4387 
Q 3406 4025 3406 3419 
Q 3406 3131 3298 2873 
Q 3191 2616 2906 2266 
Q 2828 2175 2409 1742 
Q 1991 1309 1228 531 
z
" id="DejaVuSans-32" transform="scale(0.015625)"/>
       </defs>
       <use xlink:href="#DejaVuSans-32"/>
      </g>
     </g>
    </g>
    <g id="xtick_3">
     <g id="line2d_3">
      <g>
       <use style="stroke:#000000;stroke-width:0.8;" x="179.895868" xlink:href="#mb3559db8f1" y="252"/>
      </g>
     </g>
     <g id="text_3">
      <!-- 4 -->
      <g transform="translate(176.714618 266.598437)scale(0.1 -0.1)">
       <defs>
        <path d="M 2419 4116 
L 825 1625 
L 2419 1625 
L 2419 4116 
z
M 2253 4666 
L 3047 4666 
L 3047 1625 
L 3713 1625 
L 3713 1100 
L 3047 1100 
L 3047 0 
L 2419 0 
L 2419 1100 
L 313 1100 
L 313 1709 
L 2253 4666 
z
" id="DejaVuSans-34" transform="scale(0.015625)"/>
       </defs>
       <use xlink:href="#DejaVuSans-34"/>
      </g>
     </g>
    </g>
    <g id="xtick_4">
     <g id="line2d_4">
      <g>
       <use style="stroke:#000000;stroke-width:0.8;" x="235.234711" xlink:href="#mb3559db8f1" y="252"/>
      </g>
     </g>
     <g id="text_4">
      <!-- 6 -->
      <g transform="translate(232.053461 266.598437)scale(0.1 -0.1)">
       <defs>
        <path d="M 2113 2584 
Q 1688 2584 1439 2293 
Q 1191 2003 1191 1497 
Q 1191 994 1439 701 
Q 1688 409 2113 409 
Q 2538 409 2786 701 
Q 3034 994 3034 1497 
Q 3034 2003 2786 2293 
Q 2538 2584 2113 2584 
z
M 3366 4563 
L 3366 3988 
Q 3128 4100 2886 4159 
Q 2644 4219 2406 4219 
Q 1781 4219 1451 3797 
Q 1122 3375 1075 2522 
Q 1259 2794 1537 2939 
Q 1816 3084 2150 3084 
Q 2853 3084 3261 2657 
Q 3669 2231 3669 1497 
Q 3669 778 3244 343 
Q 2819 -91 2113 -91 
Q 1303 -91 875 529 
Q 447 1150 447 2328 
Q 447 3434 972 4092 
Q 1497 4750 2381 4750 
Q 2619 4750 2861 4703 
Q 3103 4656 3366 4563 
z
" id="DejaVuSans-36" transform="scale(0.015625)"/>
       </defs>
       <use xlink:href="#DejaVuSans-36"/>
      </g>
     </g>
    </g>
    <g id="xtick_5">
     <g id="line2d_5">
      <g>
       <use style="stroke:#000000;stroke-width:0.8;" x="290.573554" xlink:href="#mb3559db8f1" y="252"/>
      </g>
     </g>
     <g id="text_5">
      <!-- 8 -->
      <g transform="translate(287.392304 266.598437)scale(0.1 -0.1)">
       <defs>
        <path d="M 2034 2216 
Q 1584 2216 1326 1975 
Q 1069 1734 1069 1313 
Q 1069 891 1326 650 
Q 1584 409 2034 409 
Q 2484 409 2743 651 
Q 3003 894 3003 1313 
Q 3003 1734 2745 1975 
Q 2488 2216 2034 2216 
z
M 1403 2484 
Q 997 2584 770 2862 
Q 544 3141 544 3541 
Q 544 4100 942 4425 
Q 1341 4750 2034 4750 
Q 2731 4750 3128 4425 
Q 3525 4100 3525 3541 
Q 3525 3141 3298 2862 
Q 3072 2584 2669 2484 
Q 3125 2378 3379 2068 
Q 3634 1759 3634 1313 
Q 3634 634 3220 271 
Q 2806 -91 2034 -91 
Q 1263 -91 848 271 
Q 434 634 434 1313 
Q 434 1759 690 2068 
Q 947 2378 1403 2484 
z
M 1172 3481 
Q 1172 3119 1398 2916 
Q 1625 2713 2034 2713 
Q 2441 2713 2670 2916 
Q 2900 3119 2900 3481 
Q 2900 3844 2670 4047 
Q 2441 4250 2034 4250 
Q 1625 4250 1398 4047 
Q 1172 3844 1172 3481 
z
" id="DejaVuSans-38" transform="scale(0.015625)"/>
       </defs>
       <use xlink:href="#DejaVuSans-38"/>
      </g>
     </g>
    </g>
    <g id="xtick_6">
     <g id="line2d_6">
      <g>
       <use style="stroke:#000000;stroke-width:0.8;" x="345.912397" xlink:href="#mb3559db8f1" y="252"/>
      </g>
     </g>
     <g id="text_6">
      <!-- 10 -->
      <g transform="translate(339.549897 266.598437)scale(0.1 -0.1)">
       <defs>
        <path d="M 794 531 
L 1825 531 
L 1825 4091 
L 703 3866 
L 703 4441 
L 1819 4666 
L 2450 4666 
L 2450 531 
L 3481 531 
L 3481 0 
L 794 0 
L 794 531 
z
" id="DejaVuSans-31" transform="scale(0.015625)"/>
       </defs>
       <use xlink:href="#DejaVuSans-31"/>
       <use x="63.623047" xlink:href="#DejaVuSans-30"/>
      </g>
     </g>
    </g>
    <g id="text_7">
     <!-- x -->
     <g transform="translate(217.84875 281.79625)scale(0.12 -0.12)">
      <defs>
       <path d="M 3513 3500 
L 2247 1797 
L 3578 0 
L 2900 0 
L 1881 1375 
L 863 0 
L 184 0 
L 1544 1831 
L 300 3500 
L 978 3500 
L 1906 2253 
L 2834 3500 
L 3513 3500 
z
" id="DejaVuSans-78" transform="scale(0.015625)"/>
      </defs>
      <use xlink:href="#DejaVuSans-78"/>
     </g>
    </g>
   </g>
   <g id="matplotlib.axis_2">
    <g id="ytick_1">
     <g id="line2d_7">
      <defs>
       <path d="M 0 0 
L -3.5 0 
" id="mfb5fa1aa9a" style="stroke:#000000;stroke-width:0.8;"/>
      </defs>
      <g>
       <use style="stroke:#000000;stroke-width:0.8;" x="54" xlink:href="#mfb5fa1aa9a" y="252"/>
      </g>
     </g>
     <g id="text_8">
      <!-- 3 -->
      <g transform="translate(40.6375 255.799219)scale(0.1 -0.1)">
       <defs>
        <path d="M 2597 2516 
Q 3050 2419 3304 2112 
Q 3559 1806 3559 1356 
Q 3559 666 3084 287 
Q 2609 -91 1734 -91 
Q 1441 -91 1130 -33 
Q 819 25 488 141 
L 488 750 
Q 750 597 1062 519 
Q 1375 441 1716 441 
Q 2309 441 2620 675 
Q 2931 909 2931 1356 
Q 2931 1769 2642 2001 
Q 2353 2234 1838 2234 
L 1294 2234 
L 1294 2753 
L 1863 2753 
Q 2328 2753 2575 2939 
Q 2822 3125 2822 3475 
Q 2822 3834 2567 4026 
Q 2313 4219 1838 4219 
Q 1578 4219 1281 4162 
Q 984 4106 628 3988 
L 628 4550 
Q 988 4650 1302 4700 
Q 1616 4750 1894 4750 
Q 2613 4750 3031 4423 
Q 3450 4097 3450 3541 
Q 3450 3153 3228 2886 
Q 3006 2619 2597 2516 
z
" id="DejaVuSans-33" transform="scale(0.015625)"/>
       </defs>
       <use xlink:href="#DejaVuSans-33"/>
      </g>
     </g>
    </g>
    <g id="ytick_2">
     <g id="line2d_8">
      <g>
       <use style="stroke:#000000;stroke-width:0.8;" x="54" xlink:href="#mfb5fa1aa9a" y="215.76"/>
      </g>
     </g>
     <g id="text_9">
      <!-- 4 -->
      <g transform="translate(40.6375 219.559219)scale(0.1 -0.1)">
       <use xlink:href="#DejaVuSans-34"/>
      </g>
     </g>
    </g>
    <g id="ytick_3">
     <g id="line2d_9">
      <g>
       <use style="stroke:#000000;stroke-width:0.8;" x="54" xlink:href="#mfb5fa1aa9a" y="179.52"/>
      </g>
     </g>
     <g id="text_10">
      <!-- 5 -->
      <g transform="translate(40.6375 183.319219)scale(0.1 -0.1)">
       <defs>
        <path d="M 691 4666 
L 3169 4666 
L 3169 4134 
L 1269 4134 
L 1269 2991 
Q 1406 3038 1543 3061 
Q 1681 3084 1819 3084 
Q 2600 3084 3056 2656 
Q 3513 2228 3513 1497 
Q 3513 744 3044 326 
Q 2575 -91 1722 -91 
Q 1428 -91 1123 -41 
Q 819 9 494 109 
L 494 744 
Q 775 591 1075 516 
Q 1375 441 1709 441 
Q 2250 441 2565 725 
Q 2881 1009 2881 1497 
Q 2881 1984 2565 2268 
Q 2250 2553 1709 2553 
Q 1456 2553 1204 2497 
Q 953 2441 691 2322 
L 691 4666 
z
" id="DejaVuSans-35" transform="scale(0.015625)"/>
       </defs>
       <use xlink:href="#DejaVuSans-35"/>
      </g>
     </g>
    </g>
    <g id="ytick_4">
     <g id="line2d_10">
      <g>
       <use style="stroke:#000000;stroke-width:0.8;" x="54" xlink:href="#mfb5fa1aa9a" y="143.28"/>
      </g>
     </g>
     <g id="text_11">
      <!-- 6 -->
      <g transform="translate(40.6375 147.079219)scale(0.1 -0.1)">
       <use xlink:href="#DejaVuSans-36"/>
      </g>
     </g>
    </g>
    <g id="ytick_5">
     <g id="line2d_11">
      <g>
       <use style="stroke:#000000;stroke-width:0.8;" x="54" xlink:href="#mfb5fa1aa9a" y="107.04"/>
      </g>
     </g>
     <g id="text_12">
      <!-- 7 -->
      <g transform="translate(40.6375 110.839219)scale(0.1 -0.1)">
       <defs>
        <path d="M 525 4666 
L 3525 4666 
L 3525 4397 
L 1831 0 
L 1172 0 
L 2766 4134 
L 525 4134 
L 525 4666 
z
" id="DejaVuSans-37" transform="scale(0.015625)"/>
       </defs>
       <use xlink:href="#DejaVuSans-37"/>
      </g>
     </g>
    </g>
    <g id="ytick_6">
     <g id="line2d_12">
      <g>
       <use style="stroke:#000000;stroke-width:0.8;" x="54" xlink:href="#mfb5fa1aa9a" y="70.8"/>
      </g>
     </g>
     <g id="text_13">
      <!-- 8 -->
      <g transform="translate(40.6375 74.599219)scale(0.1 -0.1)">
       <use xlink:href="#DejaVuSans-38"/>
      </g>
     </g>
    </g>
    <g id="ytick_7">
     <g id="line2d_13">
      <g>
       <use style="stroke:#000000;stroke-width:0.8;" x="54" xlink:href="#mfb5fa1aa9a" y="34.56"/>
      </g>
     </g>
     <g id="text_14">
      <!-- 9 -->
      <g transform="translate(40.6375 38.359219)scale(0.1 -0.1)">
       <defs>
        <path d="M 703 97 
L 703 672 
Q 941 559 1184 500 
Q 1428 441 1663 441 
Q 2288 441 2617 861 
Q 2947 1281 2994 2138 
Q 2813 1869 2534 1725 
Q 2256 1581 1919 1581 
Q 1219 1581 811 2004 
Q 403 2428 403 3163 
Q 403 3881 828 4315 
Q 1253 4750 1959 4750 
Q 2769 4750 3195 4129 
Q 3622 3509 3622 2328 
Q 3622 1225 3098 567 
Q 2575 -91 1691 -91 
Q 1453 -91 1209 -44 
Q 966 3 703 97 
z
M 1959 2075 
Q 2384 2075 2632 2365 
Q 2881 2656 2881 3163 
Q 2881 3666 2632 3958 
Q 2384 4250 1959 4250 
Q 1534 4250 1286 3958 
Q 1038 3666 1038 3163 
Q 1038 2656 1286 2365 
Q 1534 2075 1959 2075 
z
" id="DejaVuSans-39" transform="scale(0.015625)"/>
       </defs>
       <use xlink:href="#DejaVuSans-39"/>
      </g>
     </g>
    </g>
    <g id="text_15">
     <!-- y -->
     <g transform="translate(34.141875 146.83125)rotate(-90)scale(0.12 -0.12)">
      <defs>
       <path d="M 2059 -325 
Q 1816 -950 1584 -1140 
Q 1353 -1331 966 -1331 
L 506 -1331 
L 506 -850 
L 844 -850 
Q 1081 -850 1212 -737 
Q 1344 -625 1503 -206 
L 1606 56 
L 191 3500 
L 800 3500 
L 1894 763 
L 2988 3500 
L 3597 3500 
L 2059 -325 
z
" id="DejaVuSans-79" transform="scale(0.015625)"/>
      </defs>
      <use xlink:href="#DejaVuSans-79"/>
     </g>
    </g>
   </g>
   <g id="line2d_14">
    <path clip-path="url(#pa90d23e02f)" d="M 69.218182 70.8 
L 71.985124 85.083949 
L 74.752066 98.25467 
L 77.519008 110.364828 
L 80.28595 121.465955 
L 83.052893 131.608455 
L 85.819835 140.841599 
L 88.586777 149.213528 
L 91.353719 156.771253 
L 94.120661 163.560654 
L 96.887603 169.62648 
L 99.654545 175.012349 
L 102.421488 179.76075 
L 105.18843 183.913038 
L 107.955372 187.509441 
L 110.722314 190.589055 
L 113.489256 193.189844 
L 116.256198 195.348643 
L 119.02314 197.101155 
L 121.790083 198.481953 
L 124.557025 199.52448 
L 127.323967 200.261047 
L 130.090909 200.722835 
L 132.857851 200.939895 
L 135.624793 200.941145 
L 138.391736 200.754375 
L 141.158678 200.406243 
L 143.92562 199.922276 
L 146.692562 199.326871 
L 149.459504 198.643294 
L 152.226446 197.89368 
L 154.993388 197.099035 
L 157.760331 196.279231 
L 160.527273 195.453014 
L 163.294215 194.637994 
L 166.061157 193.850655 
L 168.828099 193.106347 
L 171.595041 192.419291 
L 174.361983 191.802577 
L 177.128926 191.268164 
L 179.895868 190.82688 
L 182.66281 190.488424 
L 185.429752 190.261362 
L 188.196694 190.153131 
L 190.963636 190.170037 
L 193.730579 190.317255 
L 196.497521 190.598829 
L 199.264463 191.017673 
L 202.031405 191.575569 
L 204.798347 192.273171 
L 207.565289 193.11 
L 210.332231 194.084446 
L 213.099174 195.193771 
L 215.866116 196.434103 
L 218.633058 197.800442 
L 221.4 199.286655 
L 224.166942 200.88548 
L 226.933884 202.588525 
L 229.700826 204.386264 
L 232.467769 206.268045 
L 235.234711 208.22208 
L 238.001653 210.235455 
L 240.768595 212.294122 
L 243.535537 214.382905 
L 246.302479 216.485496 
L 249.069421 218.584455 
L 251.836364 220.661214 
L 254.603306 222.696071 
L 257.370248 224.668198 
L 260.13719 226.555631 
L 262.904132 228.33528 
L 265.671074 229.982921 
L 268.438017 231.4732 
L 271.204959 232.779634 
L 273.971901 233.874607 
L 276.738843 234.729375 
L 279.505785 235.31406 
L 282.272727 235.597656 
L 285.039669 235.548026 
L 287.806612 235.1319 
L 290.573554 234.31488 
L 293.340496 233.061436 
L 296.107438 231.334908 
L 298.87438 229.097505 
L 301.641322 226.310305 
L 304.408264 222.933255 
L 307.175207 218.925173 
L 309.942149 214.243744 
L 312.709091 208.845524 
L 315.476033 202.685938 
L 318.242975 195.71928 
L 321.009917 187.898713 
L 323.77686 179.176271 
L 326.543802 169.502854 
L 329.310744 158.828236 
L 332.077686 147.101055 
L 334.844628 134.268823 
L 337.61157 120.277918 
L 340.378512 105.073589 
L 343.145455 88.599954 
L 345.912397 70.8 
L 348.679339 51.615584 
L 351.446281 30.987432 
L 354.213223 8.855138 
L 355.363895 -1 
" style="fill:none;stroke:#0000ff;stroke-linecap:square;stroke-width:2;"/>
   </g>
   <g id="line2d_15">
    <path clip-path="url(#pa90d23e02f)" d="M 69.218182 165.139638 
L 71.985124 162.28448 
L 74.752066 160.127035 
L 77.519008 158.786128 
L 80.28595 158.356099 
L 83.052893 158.8958 
L 85.819835 160.41643 
L 88.586777 162.87109 
L 91.353719 166.151751 
L 94.120661 170.09838 
L 96.887603 174.518701 
L 99.654545 179.210905 
L 102.421488 183.981943 
L 105.18843 188.658875 
L 107.955372 193.094503 
L 110.722314 197.16953 
L 113.489256 200.792879 
L 116.256198 203.90108 
L 119.02314 206.457147 
L 121.790083 208.449096 
L 124.557025 209.888059 
L 127.323967 210.805904 
L 130.090909 211.2522 
L 132.857851 211.290516 
L 135.624793 210.994141 
L 138.391736 210.441482 
L 141.158678 209.711448 
L 143.92562 208.879159 
L 146.692562 208.012226 
L 149.459504 207.167743 
L 152.226446 206.390063 
L 154.993388 205.709371 
L 157.760331 205.141126 
L 160.527273 204.686485 
L 163.294215 204.333913 
L 166.061157 204.062166 
L 168.828099 203.844722 
L 171.595041 203.655537 
L 174.361983 203.475738 
L 177.128926 203.300491 
L 179.895868 203.144718 
L 182.66281 203.045556 
L 185.429752 203.058868 
L 188.196694 203.248071 
L 190.963636 203.667433 
L 193.730579 204.346872 
L 196.497521 205.285701 
L 199.264463 206.456752 
L 202.031405 207.816107 
L 204.798347 209.312889 
L 207.565289 210.896453 
L 210.332231 212.520805 
L 213.099174 214.147008 
L 215.866116 215.744256 
L 218.633058 217.290029 
L 221.4 218.769546 
L 224.166942 220.174655 
L 226.933884 221.502317 
L 229.700826 222.752854 
L 232.467769 223.928222 
L 235.234711 225.030522 
L 238.001653 226.061 
L 240.768595 227.019691 
L 243.535537 227.905764 
L 246.302479 228.718546 
L 249.069421 229.45903 
L 251.836364 230.131631 
L 254.603306 230.745844 
L 257.370248 231.317412 
L 260.13719 231.8686 
L 262.904132 232.427129 
L 265.671074 233.023305 
L 268.438017 233.684949 
L 271.204959 234.429987 
L 273.971901 235.257353 
L 276.738843 236.138244 
L 279.505785 237.011169 
L 282.272727 237.78412 
L 285.039669 238.344467 
L 287.806612 238.573301 
L 290.573554 238.359095 
L 293.340496 237.606753 
L 296.107438 236.240671 
L 298.87438 234.202424 
L 301.641322 231.445024 
L 304.408264 227.926919 
L 307.175207 223.609689 
L 309.942149 218.462215 
L 312.709091 212.470804 
L 315.476033 205.651699 
L 318.242975 198.061892 
L 321.009917 189.805842 
L 323.77686 181.037635 
L 326.543802 171.959187 
L 329.310744 162.815204 
L 332.077686 153.884944 
L 334.844628 145.469812 
L 337.61157 137.874964 
L 340.378512 131.384278 
L 343.145455 126.232391 
L 345.912397 122.58232 
L 348.679339 120.516113 
L 351.446281 120.03852 
L 354.213223 121.087725 
L 356.980165 123.547655 
L 359.747107 127.259712 
L 362.51405 132.033928 
L 365.280992 137.659964 
L 368.047934 143.917977 
L 370.814876 150.589026 
L 373.581818 157.464497 
" style="fill:none;stroke:#008000;stroke-dasharray:3.7,1.6;stroke-dashoffset:0;"/>
   </g>
   <g id="line2d_16">
    <path clip-path="url(#pa90d23e02f)" d="M 69.218182 117.984087 
L 71.985124 119.070132 
L 74.752066 120.7633 
L 77.519008 123.043828 
L 80.28595 125.867303 
L 83.052893 129.170097 
L 85.819835 132.878919 
L 88.586777 136.921955 
L 91.353719 141.23599 
L 94.120661 145.764619 
L 96.887603 150.448647 
L 99.654545 155.215729 
L 102.421488 159.975778 
L 105.18843 164.623783 
L 107.955372 169.047806 
L 110.722314 173.139071 
L 113.489256 176.801683 
L 116.256198 179.960511 
L 119.02314 182.56642 
L 121.790083 184.598602 
L 124.557025 186.064126 
L 127.323967 186.99518 
L 130.090909 187.444646 
L 132.857851 187.48068 
L 135.624793 187.180915 
L 138.391736 186.62677 
L 141.158678 185.898225 
L 143.92562 185.069331 
L 146.692562 184.204682 
L 149.459504 183.35703 
L 152.226446 182.566139 
L 154.993388 181.858884 
L 157.760331 181.250401 
L 160.527273 180.745915 
L 163.294215 180.34272 
L 166.061157 180.031727 
L 168.828099 179.798077 
L 171.595041 179.620544 
L 174.361983 179.469732 
L 177.128926 179.305529 
L 179.895868 179.074903 
L 182.66281 178.712004 
L 185.429752 178.143223 
L 188.196694 177.298948 
L 190.963636 176.129991 
L 193.730579 174.621806 
L 196.497521 172.799222 
L 199.264463 170.720496 
L 202.031405 168.465625 
L 204.798347 166.124638 
L 207.565289 163.788676 
L 210.332231 161.544095 
L 213.099174 159.468894 
L 215.866116 157.630761 
L 218.633058 156.086307 
L 221.4 154.88119 
L 224.166942 154.050916 
L 226.933884 153.622093 
L 229.700826 153.613891 
L 232.467769 154.039424 
L 235.234711 154.906793 
L 238.001653 156.219586 
L 240.768595 157.976681 
L 243.535537 160.171352 
L 246.302479 162.789763 
L 249.069421 165.809064 
L 251.836364 169.195376 
L 254.603306 172.902006 
L 257.370248 176.868246 
L 260.13719 181.019113 
L 262.904132 185.2664 
L 265.671074 189.51141 
L 268.438017 193.649696 
L 271.204959 197.577915 
L 273.971901 201.202148 
L 276.738843 204.445746 
L 279.505785 207.25342 
L 282.272727 209.588507 
L 285.039669 211.423127 
L 287.806612 212.724868 
L 290.573554 213.445475 
L 293.340496 213.515783 
L 296.107438 212.848458 
L 298.87438 211.347943 
L 301.641322 208.925503 
L 304.408264 205.51578 
L 307.175207 201.09027 
L 309.942149 195.664105 
L 312.709091 189.2957 
L 315.476033 182.081795 
L 318.242975 174.151012 
L 321.009917 165.657497 
L 323.77686 156.774561 
L 326.543802 147.6875 
L 329.310744 138.585106 
L 332.077686 129.65038 
L 334.844628 121.052483 
L 337.61157 112.943001 
L 340.378512 105.458727 
L 343.145455 98.728817 
L 345.912397 92.879337 
L 348.679339 88.029001 
L 351.446281 84.277115 
L 354.213223 81.690145 
L 356.980165 80.292503 
L 359.747107 80.063282 
L 362.51405 80.93813 
L 365.280992 82.814734 
L 368.047934 85.560562 
L 370.814876 89.0218 
L 373.581818 93.032672 
" style="fill:none;stroke:#008000;stroke-dasharray:3.7,1.6;stroke-dashoffset:0;"/>
   </g>
   <g id="line2d_17">
    <path clip-path="url(#pa90d23e02f)" d="M 69.218182 251.997781 
L 71.985124 251.999672 
L 74.752066 251.999965 
L 77.519008 251.999997 
L 80.28595 252 
L 83.052893 252 
L 85.819835 252 
L 88.586777 252 
L 91.353719 252 
L 94.120661 252 
L 96.887603 252 
L 99.654545 252 
L 102.421488 251.999998 
L 105.18843 251.999982 
L 107.955372 251.999886 
L 110.722314 251.999448 
L 113.489256 251.997971 
L 116.256198 251.994218 
L 119.02314 251.986906 
L 121.790083 251.975862 
L 124.557025 251.962923 
L 127.323967 251.951476 
L 130.090909 251.94473 
L 132.857851 251.944066 
L 135.624793 251.948665 
L 138.391736 251.956386 
L 141.158678 251.964978 
L 143.92562 251.972857 
L 146.692562 251.979274 
L 149.459504 251.984101 
L 152.226446 251.98754 
L 154.993388 251.989896 
L 157.760331 251.991463 
L 160.527273 251.992487 
L 163.294215 251.99316 
L 166.061157 251.993637 
L 168.828099 251.994037 
L 171.595041 251.994434 
L 174.361983 251.994832 
L 177.128926 251.995154 
L 179.895868 251.995235 
L 182.66281 251.994775 
L 185.429752 251.993156 
L 188.196694 251.988797 
L 190.963636 251.977358 
L 193.730579 251.947461 
L 196.497521 251.873155 
L 199.264463 251.706644 
L 202.031405 251.380366 
L 204.798347 250.823958 
L 207.565289 249.988398 
L 210.332231 248.862764 
L 213.099174 247.476156 
L 215.866116 245.88776 
L 218.633058 244.172315 
L 221.4 242.406886 
L 224.166942 240.661757 
L 226.933884 238.995883 
L 229.700826 237.456044 
L 232.467769 236.07838 
L 235.234711 234.890975 
L 238.001653 233.916329 
L 240.768595 233.172866 
L 243.535537 232.674974 
L 246.302479 232.431448 
L 249.069421 232.44256 
L 251.836364 232.696317 
L 254.603306 233.164688 
L 257.370248 233.800703 
L 260.13719 234.537274 
L 262.904132 235.28844 
L 265.671074 235.95351 
L 268.438017 236.424644 
L 271.204959 236.599031 
L 273.971901 236.398317 
L 276.738843 235.798822 
L 279.505785 234.872043 
L 282.272727 233.822029 
L 285.039669 232.990858 
L 287.806612 232.804519 
L 290.573554 233.655814 
L 293.340496 235.750405 
L 296.107438 238.964207 
L 298.87438 242.787147 
L 301.641322 246.449368 
L 304.408264 249.254752 
L 307.175207 250.931499 
L 309.942149 251.688096 
L 312.709091 251.935568 
L 315.476033 251.991241 
L 318.242975 251.999283 
L 321.009917 251.999968 
L 323.77686 251.999999 
L 326.543802 252 
L 329.310744 252 
L 332.077686 252 
L 334.844628 252 
L 337.61157 252 
L 340.378512 252 
L 343.145455 252 
L 345.912397 252 
L 348.679339 252 
L 351.446281 252 
L 354.213223 252 
L 356.980165 252 
L 359.747107 251.999999 
L 362.51405 251.999987 
L 365.280992 251.999834 
L 368.047934 251.998673 
L 370.814876 251.992737 
L 373.581818 251.97076 
" style="fill:none;stroke:#bfbf00;stroke-dasharray:7.4,3.2;stroke-dashoffset:0;stroke-width:2;"/>
   </g>
   <g id="patch_3">
    <path d="M 54 252 
L 54 34.56 
" style="fill:none;stroke:#000000;stroke-linecap:square;stroke-linejoin:miter;stroke-width:0.8;"/>
   </g>
   <g id="patch_4">
    <path d="M 388.8 252 
L 388.8 34.56 
" style="fill:none;stroke:#000000;stroke-linecap:square;stroke-linejoin:miter;stroke-width:0.8;"/>
   </g>
   <g id="patch_5">
    <path d="M 54 252 
L 388.8 252 
" style="fill:none;stroke:#000000;stroke-linecap:square;stroke-linejoin:miter;stroke-width:0.8;"/>
   </g>
   <g id="patch_6">
    <path d="M 54 34.56 
L 388.8 34.56 
" style="fill:none;stroke:#000000;stroke-linecap:square;stroke-linejoin:miter;stroke-width:0.8;"/>
   </g>
   <g id="text_16">
    <!-- Method : EI -->
    <g transform="translate(71.985124 244.752)scale(0.12 -0.12)">
     <defs>
      <path d="M 628 4666 
L 1569 4666 
L 2759 1491 
L 3956 4666 
L 4897 4666 
L 4897 0 
L 4281 0 
L 4281 4097 
L 3078 897 
L 2444 897 
L 1241 4097 
L 1241 0 
L 628 0 
L 628 4666 
z
" id="DejaVuSans-4d" transform="scale(0.015625)"/>
      <path d="M 3597 1894 
L 3597 1613 
L 953 1613 
Q 991 1019 1311 708 
Q 1631 397 2203 397 
Q 2534 397 2845 478 
Q 3156 559 3463 722 
L 3463 178 
Q 3153 47 2828 -22 
Q 2503 -91 2169 -91 
Q 1331 -91 842 396 
Q 353 884 353 1716 
Q 353 2575 817 3079 
Q 1281 3584 2069 3584 
Q 2775 3584 3186 3129 
Q 3597 2675 3597 1894 
z
M 3022 2063 
Q 3016 2534 2758 2815 
Q 2500 3097 2075 3097 
Q 1594 3097 1305 2825 
Q 1016 2553 972 2059 
L 3022 2063 
z
" id="DejaVuSans-65" transform="scale(0.015625)"/>
      <path d="M 1172 4494 
L 1172 3500 
L 2356 3500 
L 2356 3053 
L 1172 3053 
L 1172 1153 
Q 1172 725 1289 603 
Q 1406 481 1766 481 
L 2356 481 
L 2356 0 
L 1766 0 
Q 1100 0 847 248 
Q 594 497 594 1153 
L 594 3053 
L 172 3053 
L 172 3500 
L 594 3500 
L 594 4494 
L 1172 4494 
z
" id="DejaVuSans-74" transform="scale(0.015625)"/>
      <path d="M 3513 2113 
L 3513 0 
L 2938 0 
L 2938 2094 
Q 2938 2591 2744 2837 
Q 2550 3084 2163 3084 
Q 1697 3084 1428 2787 
Q 1159 2491 1159 1978 
L 1159 0 
L 581 0 
L 581 4863 
L 1159 4863 
L 1159 2956 
Q 1366 3272 1645 3428 
Q 1925 3584 2291 3584 
Q 2894 3584 3203 3211 
Q 3513 2838 3513 2113 
z
" id="DejaVuSans-68" transform="scale(0.015625)"/>
      <path d="M 1959 3097 
Q 1497 3097 1228 2736 
Q 959 2375 959 1747 
Q 959 1119 1226 758 
Q 1494 397 1959 397 
Q 2419 397 2687 759 
Q 2956 1122 2956 1747 
Q 2956 2369 2687 2733 
Q 2419 3097 1959 3097 
z
M 1959 3584 
Q 2709 3584 3137 3096 
Q 3566 2609 3566 1747 
Q 3566 888 3137 398 
Q 2709 -91 1959 -91 
Q 1206 -91 779 398 
Q 353 888 353 1747 
Q 353 2609 779 3096 
Q 1206 3584 1959 3584 
z
" id="DejaVuSans-6f" transform="scale(0.015625)"/>
      <path d="M 2906 2969 
L 2906 4863 
L 3481 4863 
L 3481 0 
L 2906 0 
L 2906 525 
Q 2725 213 2448 61 
Q 2172 -91 1784 -91 
Q 1150 -91 751 415 
Q 353 922 353 1747 
Q 353 2572 751 3078 
Q 1150 3584 1784 3584 
Q 2172 3584 2448 3432 
Q 2725 3281 2906 2969 
z
M 947 1747 
Q 947 1113 1208 752 
Q 1469 391 1925 391 
Q 2381 391 2643 752 
Q 2906 1113 2906 1747 
Q 2906 2381 2643 2742 
Q 2381 3103 1925 3103 
Q 1469 3103 1208 2742 
Q 947 2381 947 1747 
z
" id="DejaVuSans-64" transform="scale(0.015625)"/>
      <path id="DejaVuSans-20" transform="scale(0.015625)"/>
      <path d="M 750 794 
L 1409 794 
L 1409 0 
L 750 0 
L 750 794 
z
M 750 3309 
L 1409 3309 
L 1409 2516 
L 750 2516 
L 750 3309 
z
" id="DejaVuSans-3a" transform="scale(0.015625)"/>
      <path d="M 628 4666 
L 3578 4666 
L 3578 4134 
L 1259 4134 
L 1259 2753 
L 3481 2753 
L 3481 2222 
L 1259 2222 
L 1259 531 
L 3634 531 
L 3634 0 
L 628 0 
L 628 4666 
z
" id="DejaVuSans-45" transform="scale(0.015625)"/>
      <path d="M 628 4666 
L 1259 4666 
L 1259 0 
L 628 0 
L 628 4666 
z
" id="DejaVuSans-49" transform="scale(0.015625)"/>
     </defs>
     <use xlink:href="#DejaVuSans-4d"/>
     <use x="86.279297" xlink:href="#DejaVuSans-65"/>
     <use x="147.802734" xlink:href="#DejaVuSans-74"/>
     <use x="187.011719" xlink:href="#DejaVuSans-68"/>
     <use x="250.390625" xlink:href="#DejaVuSans-6f"/>
     <use x="311.572266" xlink:href="#DejaVuSans-64"/>
     <use x="375.048828" xlink:href="#DejaVuSans-20"/>
     <use x="406.835938" xlink:href="#DejaVuSans-3a"/>
     <use x="440.527344" xlink:href="#DejaVuSans-20"/>
     <use x="472.314453" xlink:href="#DejaVuSans-45"/>
     <use x="535.498047" xlink:href="#DejaVuSans-49"/>
    </g>
   </g>
   <g id="text_17">
    <!-- Iter=3 -->
    <g transform="translate(71.985124 226.632)scale(0.12 -0.12)">
     <defs>
      <path d="M 2631 2963 
Q 2534 3019 2420 3045 
Q 2306 3072 2169 3072 
Q 1681 3072 1420 2755 
Q 1159 2438 1159 1844 
L 1159 0 
L 581 0 
L 581 3500 
L 1159 3500 
L 1159 2956 
Q 1341 3275 1631 3429 
Q 1922 3584 2338 3584 
Q 2397 3584 2469 3576 
Q 2541 3569 2628 3553 
L 2631 2963 
z
" id="DejaVuSans-72" transform="scale(0.015625)"/>
      <path d="M 678 2906 
L 4684 2906 
L 4684 2381 
L 678 2381 
L 678 2906 
z
M 678 1631 
L 4684 1631 
L 4684 1100 
L 678 1100 
L 678 1631 
z
" id="DejaVuSans-3d" transform="scale(0.015625)"/>
     </defs>
     <use xlink:href="#DejaVuSans-49"/>
     <use x="29.492188" xlink:href="#DejaVuSans-74"/>
     <use x="68.701172" xlink:href="#DejaVuSans-65"/>
     <use x="130.224609" xlink:href="#DejaVuSans-72"/>
     <use x="171.337891" xlink:href="#DejaVuSans-3d"/>
     <use x="255.126953" xlink:href="#DejaVuSans-33"/>
    </g>
   </g>
   <g id="legend_1">
    <g id="patch_7">
     <path d="M 144.327812 140.235625 
L 298.472188 140.235625 
Q 300.672188 140.235625 300.672188 138.035625 
L 300.672188 42.26 
Q 300.672188 40.06 298.472188 40.06 
L 144.327812 40.06 
Q 142.127813 40.06 142.127813 42.26 
L 142.127813 138.035625 
Q 142.127813 140.235625 144.327812 140.235625 
z
" style="fill:#ffffff;opacity:0.8;stroke:#cccccc;stroke-linejoin:miter;"/>
    </g>
    <g id="line2d_18">
     <path d="M 146.527813 48.968281 
L 168.527813 48.968281 
" style="fill:none;stroke:#0000ff;stroke-linecap:square;stroke-width:2;"/>
    </g>
    <g id="line2d_19"/>
    <g id="text_18">
     <!-- ture function -->
     <g transform="translate(177.327813 52.818281)scale(0.11 -0.11)">
      <defs>
       <path d="M 544 1381 
L 544 3500 
L 1119 3500 
L 1119 1403 
Q 1119 906 1312 657 
Q 1506 409 1894 409 
Q 2359 409 2629 706 
Q 2900 1003 2900 1516 
L 2900 3500 
L 3475 3500 
L 3475 0 
L 2900 0 
L 2900 538 
Q 2691 219 2414 64 
Q 2138 -91 1772 -91 
Q 1169 -91 856 284 
Q 544 659 544 1381 
z
M 1991 3584 
L 1991 3584 
z
" id="DejaVuSans-75" transform="scale(0.015625)"/>
       <path d="M 2375 4863 
L 2375 4384 
L 1825 4384 
Q 1516 4384 1395 4259 
Q 1275 4134 1275 3809 
L 1275 3500 
L 2222 3500 
L 2222 3053 
L 1275 3053 
L 1275 0 
L 697 0 
L 697 3053 
L 147 3053 
L 147 3500 
L 697 3500 
L 697 3744 
Q 697 4328 969 4595 
Q 1241 4863 1831 4863 
L 2375 4863 
z
" id="DejaVuSans-66" transform="scale(0.015625)"/>
       <path d="M 3513 2113 
L 3513 0 
L 2938 0 
L 2938 2094 
Q 2938 2591 2744 2837 
Q 2550 3084 2163 3084 
Q 1697 3084 1428 2787 
Q 1159 2491 1159 1978 
L 1159 0 
L 581 0 
L 581 3500 
L 1159 3500 
L 1159 2956 
Q 1366 3272 1645 3428 
Q 1925 3584 2291 3584 
Q 2894 3584 3203 3211 
Q 3513 2838 3513 2113 
z
" id="DejaVuSans-6e" transform="scale(0.015625)"/>
       <path d="M 3122 3366 
L 3122 2828 
Q 2878 2963 2633 3030 
Q 2388 3097 2138 3097 
Q 1578 3097 1268 2742 
Q 959 2388 959 1747 
Q 959 1106 1268 751 
Q 1578 397 2138 397 
Q 2388 397 2633 464 
Q 2878 531 3122 666 
L 3122 134 
Q 2881 22 2623 -34 
Q 2366 -91 2075 -91 
Q 1284 -91 818 406 
Q 353 903 353 1747 
Q 353 2603 823 3093 
Q 1294 3584 2113 3584 
Q 2378 3584 2631 3529 
Q 2884 3475 3122 3366 
z
" id="DejaVuSans-63" transform="scale(0.015625)"/>
       <path d="M 603 3500 
L 1178 3500 
L 1178 0 
L 603 0 
L 603 3500 
z
M 603 4863 
L 1178 4863 
L 1178 4134 
L 603 4134 
L 603 4863 
z
" id="DejaVuSans-69" transform="scale(0.015625)"/>
      </defs>
      <use xlink:href="#DejaVuSans-74"/>
      <use x="39.208984" xlink:href="#DejaVuSans-75"/>
      <use x="102.587891" xlink:href="#DejaVuSans-72"/>
      <use x="141.451172" xlink:href="#DejaVuSans-65"/>
      <use x="202.974609" xlink:href="#DejaVuSans-20"/>
      <use x="234.761719" xlink:href="#DejaVuSans-66"/>
      <use x="269.966797" xlink:href="#DejaVuSans-75"/>
      <use x="333.345703" xlink:href="#DejaVuSans-6e"/>
      <use x="396.724609" xlink:href="#DejaVuSans-63"/>
      <use x="451.705078" xlink:href="#DejaVuSans-74"/>
      <use x="490.914062" xlink:href="#DejaVuSans-69"/>
      <use x="518.697266" xlink:href="#DejaVuSans-6f"/>
      <use x="579.878906" xlink:href="#DejaVuSans-6e"/>
     </g>
    </g>
    <g id="line2d_20">
     <path d="M 146.527813 65.114219 
L 168.527813 65.114219 
" style="fill:none;stroke:#000000;stroke-dasharray:7.4,3.2;stroke-dashoffset:0;stroke-width:2;"/>
    </g>
    <g id="line2d_21"/>
    <g id="text_19">
     <!-- predicted function -->
     <g transform="translate(177.327813 68.964219)scale(0.11 -0.11)">
      <defs>
       <path d="M 1159 525 
L 1159 -1331 
L 581 -1331 
L 581 3500 
L 1159 3500 
L 1159 2969 
Q 1341 3281 1617 3432 
Q 1894 3584 2278 3584 
Q 2916 3584 3314 3078 
Q 3713 2572 3713 1747 
Q 3713 922 3314 415 
Q 2916 -91 2278 -91 
Q 1894 -91 1617 61 
Q 1341 213 1159 525 
z
M 3116 1747 
Q 3116 2381 2855 2742 
Q 2594 3103 2138 3103 
Q 1681 3103 1420 2742 
Q 1159 2381 1159 1747 
Q 1159 1113 1420 752 
Q 1681 391 2138 391 
Q 2594 391 2855 752 
Q 3116 1113 3116 1747 
z
" id="DejaVuSans-70" transform="scale(0.015625)"/>
      </defs>
      <use xlink:href="#DejaVuSans-70"/>
      <use x="63.476562" xlink:href="#DejaVuSans-72"/>
      <use x="102.339844" xlink:href="#DejaVuSans-65"/>
      <use x="163.863281" xlink:href="#DejaVuSans-64"/>
      <use x="227.339844" xlink:href="#DejaVuSans-69"/>
      <use x="255.123047" xlink:href="#DejaVuSans-63"/>
      <use x="310.103516" xlink:href="#DejaVuSans-74"/>
      <use x="349.3125" xlink:href="#DejaVuSans-65"/>
      <use x="410.835938" xlink:href="#DejaVuSans-64"/>
      <use x="474.3125" xlink:href="#DejaVuSans-20"/>
      <use x="506.099609" xlink:href="#DejaVuSans-66"/>
      <use x="541.304688" xlink:href="#DejaVuSans-75"/>
      <use x="604.683594" xlink:href="#DejaVuSans-6e"/>
      <use x="668.0625" xlink:href="#DejaVuSans-63"/>
      <use x="723.042969" xlink:href="#DejaVuSans-74"/>
      <use x="762.251953" xlink:href="#DejaVuSans-69"/>
      <use x="790.035156" xlink:href="#DejaVuSans-6f"/>
      <use x="851.216797" xlink:href="#DejaVuSans-6e"/>
     </g>
    </g>
    <g id="line2d_22">
     <path d="M 146.527813 81.260156 
L 168.527813 81.260156 
" style="fill:none;stroke:#008000;stroke-dasharray:3.7,1.6;stroke-dashoffset:0;"/>
    </g>
    <g id="line2d_23"/>
    <g id="text_20">
     <!--  ± Sn(x) -->
     <g transform="translate(177.327813 85.110156)scale(0.11 -0.11)">
      <defs>
       <path d="M 2944 4013 
L 2944 2803 
L 4684 2803 
L 4684 2272 
L 2944 2272 
L 2944 1063 
L 2419 1063 
L 2419 2272 
L 678 2272 
L 678 2803 
L 2419 2803 
L 2419 4013 
L 2944 4013 
z
M 678 531 
L 4684 531 
L 4684 0 
L 678 0 
L 678 531 
z
" id="DejaVuSans-b1" transform="scale(0.015625)"/>
       <path d="M 3425 4513 
L 3425 3897 
Q 3066 4069 2747 4153 
Q 2428 4238 2131 4238 
Q 1616 4238 1336 4038 
Q 1056 3838 1056 3469 
Q 1056 3159 1242 3001 
Q 1428 2844 1947 2747 
L 2328 2669 
Q 3034 2534 3370 2195 
Q 3706 1856 3706 1288 
Q 3706 609 3251 259 
Q 2797 -91 1919 -91 
Q 1588 -91 1214 -16 
Q 841 59 441 206 
L 441 856 
Q 825 641 1194 531 
Q 1563 422 1919 422 
Q 2459 422 2753 634 
Q 3047 847 3047 1241 
Q 3047 1584 2836 1778 
Q 2625 1972 2144 2069 
L 1759 2144 
Q 1053 2284 737 2584 
Q 422 2884 422 3419 
Q 422 4038 858 4394 
Q 1294 4750 2059 4750 
Q 2388 4750 2728 4690 
Q 3069 4631 3425 4513 
z
" id="DejaVuSans-53" transform="scale(0.015625)"/>
       <path d="M 1984 4856 
Q 1566 4138 1362 3434 
Q 1159 2731 1159 2009 
Q 1159 1288 1364 580 
Q 1569 -128 1984 -844 
L 1484 -844 
Q 1016 -109 783 600 
Q 550 1309 550 2009 
Q 550 2706 781 3412 
Q 1013 4119 1484 4856 
L 1984 4856 
z
" id="DejaVuSans-28" transform="scale(0.015625)"/>
       <path d="M 513 4856 
L 1013 4856 
Q 1481 4119 1714 3412 
Q 1947 2706 1947 2009 
Q 1947 1309 1714 600 
Q 1481 -109 1013 -844 
L 513 -844 
Q 928 -128 1133 580 
Q 1338 1288 1338 2009 
Q 1338 2731 1133 3434 
Q 928 4138 513 4856 
z
" id="DejaVuSans-29" transform="scale(0.015625)"/>
      </defs>
      <use xlink:href="#DejaVuSans-20"/>
      <use x="31.787109" xlink:href="#DejaVuSans-b1"/>
      <use x="115.576172" xlink:href="#DejaVuSans-20"/>
      <use x="147.363281" xlink:href="#DejaVuSans-53"/>
      <use x="210.839844" xlink:href="#DejaVuSans-6e"/>
      <use x="274.21875" xlink:href="#DejaVuSans-28"/>
      <use x="313.232422" xlink:href="#DejaVuSans-78"/>
      <use x="372.412109" xlink:href="#DejaVuSans-29"/>
     </g>
    </g>
    <g id="line2d_24">
     <path d="M 146.527813 97.406094 
L 168.527813 97.406094 
" style="fill:none;stroke:#bfbf00;stroke-dasharray:7.4,3.2;stroke-dashoffset:0;stroke-width:2;"/>
    </g>
    <g id="line2d_25"/>
    <g id="text_21">
     <!-- EI(x) -->
     <g transform="translate(177.327813 101.256094)scale(0.11 -0.11)">
      <use xlink:href="#DejaVuSans-45"/>
      <use x="63.183594" xlink:href="#DejaVuSans-49"/>
      <use x="92.675781" xlink:href="#DejaVuSans-28"/>
      <use x="131.689453" xlink:href="#DejaVuSans-78"/>
      <use x="190.869141" xlink:href="#DejaVuSans-29"/>
     </g>
    </g>
    <g id="PathCollection_2">
     <defs>
      <path d="M 0 3.535534 
C 0.937635 3.535534 1.836992 3.163008 2.5 2.5 
C 3.163008 1.836992 3.535534 0.937635 3.535534 0 
C 3.535534 -0.937635 3.163008 -1.836992 2.5 -2.5 
C 1.836992 -3.163008 0.937635 -3.535534 0 -3.535534 
C -0.937635 -3.535534 -1.836992 -3.163008 -2.5 -2.5 
C -3.163008 -1.836992 -3.535534 -0.937635 -3.535534 0 
C -3.535534 0.937635 -3.163008 1.836992 -2.5 2.5 
C -1.836992 3.163008 -0.937635 3.535534 0 3.535534 
z
" id="mb3b80b8695" style="stroke:#000000;"/>
     </defs>
     <g>
      <use style="fill:#ff0000;stroke:#000000;" x="157.527813" xlink:href="#mb3b80b8695" y="114.514531"/>
     </g>
    </g>
    <g id="text_22">
     <!-- training data -->
     <g transform="translate(177.327813 117.402031)scale(0.11 -0.11)">
      <defs>
       <path d="M 2194 1759 
Q 1497 1759 1228 1600 
Q 959 1441 959 1056 
Q 959 750 1161 570 
Q 1363 391 1709 391 
Q 2188 391 2477 730 
Q 2766 1069 2766 1631 
L 2766 1759 
L 2194 1759 
z
M 3341 1997 
L 3341 0 
L 2766 0 
L 2766 531 
Q 2569 213 2275 61 
Q 1981 -91 1556 -91 
Q 1019 -91 701 211 
Q 384 513 384 1019 
Q 384 1609 779 1909 
Q 1175 2209 1959 2209 
L 2766 2209 
L 2766 2266 
Q 2766 2663 2505 2880 
Q 2244 3097 1772 3097 
Q 1472 3097 1187 3025 
Q 903 2953 641 2809 
L 641 3341 
Q 956 3463 1253 3523 
Q 1550 3584 1831 3584 
Q 2591 3584 2966 3190 
Q 3341 2797 3341 1997 
z
" id="DejaVuSans-61" transform="scale(0.015625)"/>
       <path d="M 2906 1791 
Q 2906 2416 2648 2759 
Q 2391 3103 1925 3103 
Q 1463 3103 1205 2759 
Q 947 2416 947 1791 
Q 947 1169 1205 825 
Q 1463 481 1925 481 
Q 2391 481 2648 825 
Q 2906 1169 2906 1791 
z
M 3481 434 
Q 3481 -459 3084 -895 
Q 2688 -1331 1869 -1331 
Q 1566 -1331 1297 -1286 
Q 1028 -1241 775 -1147 
L 775 -588 
Q 1028 -725 1275 -790 
Q 1522 -856 1778 -856 
Q 2344 -856 2625 -561 
Q 2906 -266 2906 331 
L 2906 616 
Q 2728 306 2450 153 
Q 2172 0 1784 0 
Q 1141 0 747 490 
Q 353 981 353 1791 
Q 353 2603 747 3093 
Q 1141 3584 1784 3584 
Q 2172 3584 2450 3431 
Q 2728 3278 2906 2969 
L 2906 3500 
L 3481 3500 
L 3481 434 
z
" id="DejaVuSans-67" transform="scale(0.015625)"/>
      </defs>
      <use xlink:href="#DejaVuSans-74"/>
      <use x="39.208984" xlink:href="#DejaVuSans-72"/>
      <use x="80.322266" xlink:href="#DejaVuSans-61"/>
      <use x="141.601562" xlink:href="#DejaVuSans-69"/>
      <use x="169.384766" xlink:href="#DejaVuSans-6e"/>
      <use x="232.763672" xlink:href="#DejaVuSans-69"/>
      <use x="260.546875" xlink:href="#DejaVuSans-6e"/>
      <use x="323.925781" xlink:href="#DejaVuSans-67"/>
      <use x="387.402344" xlink:href="#DejaVuSans-20"/>
      <use x="419.189453" xlink:href="#DejaVuSans-64"/>
      <use x="482.666016" xlink:href="#DejaVuSans-61"/>
      <use x="543.945312" xlink:href="#DejaVuSans-74"/>
      <use x="583.154297" xlink:href="#DejaVuSans-61"/>
     </g>
    </g>
    <g id="PathCollection_3">
     <g>
      <use style="fill:#ff0000;stroke:#ff0000;stroke-width:8;" x="157.527813" xlink:href="#m62a3f22455" y="130.660469"/>
     </g>
    </g>
    <g id="text_23">
     <!-- recommended datum -->
     <g transform="translate(177.327813 133.547969)scale(0.11 -0.11)">
      <defs>
       <path d="M 3328 2828 
Q 3544 3216 3844 3400 
Q 4144 3584 4550 3584 
Q 5097 3584 5394 3201 
Q 5691 2819 5691 2113 
L 5691 0 
L 5113 0 
L 5113 2094 
Q 5113 2597 4934 2840 
Q 4756 3084 4391 3084 
Q 3944 3084 3684 2787 
Q 3425 2491 3425 1978 
L 3425 0 
L 2847 0 
L 2847 2094 
Q 2847 2600 2669 2842 
Q 2491 3084 2119 3084 
Q 1678 3084 1418 2786 
Q 1159 2488 1159 1978 
L 1159 0 
L 581 0 
L 581 3500 
L 1159 3500 
L 1159 2956 
Q 1356 3278 1631 3431 
Q 1906 3584 2284 3584 
Q 2666 3584 2933 3390 
Q 3200 3197 3328 2828 
z
" id="DejaVuSans-6d" transform="scale(0.015625)"/>
      </defs>
      <use xlink:href="#DejaVuSans-72"/>
      <use x="38.863281" xlink:href="#DejaVuSans-65"/>
      <use x="100.386719" xlink:href="#DejaVuSans-63"/>
      <use x="155.367188" xlink:href="#DejaVuSans-6f"/>
      <use x="216.548828" xlink:href="#DejaVuSans-6d"/>
      <use x="313.960938" xlink:href="#DejaVuSans-6d"/>
      <use x="411.373047" xlink:href="#DejaVuSans-65"/>
      <use x="472.896484" xlink:href="#DejaVuSans-6e"/>
      <use x="536.275391" xlink:href="#DejaVuSans-64"/>
      <use x="599.751953" xlink:href="#DejaVuSans-65"/>
      <use x="661.275391" xlink:href="#DejaVuSans-64"/>
      <use x="724.751953" xlink:href="#DejaVuSans-20"/>
      <use x="756.539062" xlink:href="#DejaVuSans-64"/>
      <use x="820.015625" xlink:href="#DejaVuSans-61"/>
      <use x="881.294922" xlink:href="#DejaVuSans-74"/>
      <use x="920.503906" xlink:href="#DejaVuSans-75"/>
      <use x="983.882812" xlink:href="#DejaVuSans-6d"/>
     </g>
    </g>
   </g>
   <g id="line2d_26">
    <path clip-path="url(#pa90d23e02f)" d="M 69.218182 141.561862 
L 71.985124 140.677306 
L 74.752066 140.445168 
L 77.519008 140.914978 
L 80.28595 142.111701 
L 83.052893 144.032948 
L 85.819835 146.647674 
L 88.586777 149.896523 
L 91.353719 153.69387 
L 94.120661 157.931499 
L 96.887603 162.483674 
L 99.654545 167.213317 
L 102.421488 171.978861 
L 105.18843 176.641329 
L 107.955372 181.071155 
L 110.722314 185.154301 
L 113.489256 188.797281 
L 116.256198 191.930795 
L 119.02314 194.511784 
L 121.790083 196.523849 
L 124.557025 197.976092 
L 127.323967 198.900542 
L 130.090909 199.348423 
L 132.857851 199.385598 
L 135.624793 199.087528 
L 138.391736 198.534126 
L 141.158678 197.804836 
L 143.92562 196.974245 
L 146.692562 196.108454 
L 149.459504 195.262387 
L 152.226446 194.478101 
L 154.993388 193.784128 
L 157.760331 193.195764 
L 160.527273 192.7162 
L 163.294215 192.338316 
L 166.061157 192.046946 
L 168.828099 191.8214 
L 171.595041 191.638041 
L 174.361983 191.472735 
L 177.128926 191.30301 
L 179.895868 191.10981 
L 182.66281 190.87878 
L 185.429752 190.601046 
L 188.196694 190.273509 
L 190.963636 189.898712 
L 193.730579 189.484339 
L 196.497521 189.042461 
L 199.264463 188.588624 
L 202.031405 188.140866 
L 204.798347 187.718764 
L 207.565289 187.342565 
L 210.332231 187.03245 
L 213.099174 186.807951 
L 215.866116 186.687509 
L 218.633058 186.688168 
L 221.4 186.825368 
L 224.166942 187.112785 
L 226.933884 187.562205 
L 229.700826 188.183373 
L 232.467769 188.983823 
L 235.234711 189.968658 
L 238.001653 191.140293 
L 240.768595 192.498186 
L 243.535537 194.038558 
L 246.302479 195.754155 
L 249.069421 197.634047 
L 251.836364 199.663503 
L 254.603306 201.823925 
L 257.370248 204.092829 
L 260.13719 206.443856 
L 262.904132 208.846765 
L 265.671074 211.267357 
L 268.438017 213.667322 
L 271.204959 216.003951 
L 273.971901 218.22975 
L 276.738843 220.291995 
L 279.505785 222.132295 
L 282.272727 223.686314 
L 285.039669 224.883797 
L 287.806612 225.649084 
L 290.573554 225.902285 
L 293.340496 225.561268 
L 296.107438 224.544565 
L 298.87438 222.775183 
L 301.641322 220.185263 
L 304.408264 216.721349 
L 307.175207 212.349979 
L 309.942149 207.06316 
L 312.709091 200.883252 
L 315.476033 193.866747 
L 318.242975 186.106452 
L 321.009917 177.73167 
L 323.77686 168.906098 
L 326.543802 159.823344 
L 329.310744 150.700155 
L 332.077686 141.767662 
L 334.844628 133.261147 
L 337.61157 125.408983 
L 340.378512 118.421502 
L 343.145455 112.480604 
L 345.912397 107.730828 
L 348.679339 104.272557 
L 351.446281 102.157817 
L 354.213223 101.388935 
L 356.980165 101.920079 
L 359.747107 103.661497 
L 362.51405 106.486029 
L 365.280992 110.237349 
L 368.047934 114.73927 
L 370.814876 119.805413 
L 373.581818 125.248584 
" style="fill:none;stroke:#000000;stroke-dasharray:7.4,3.2;stroke-dashoffset:0;stroke-width:2;"/>
   </g>
   <g id="PathCollection_4">
    <g clip-path="url(#pa90d23e02f)">
     <use style="fill:#ff0000;stroke:#000000;" x="83.052893" xlink:href="#mb3b80b8695" y="129.399309"/>
     <use style="fill:#ff0000;stroke:#000000;" x="96.887603" xlink:href="#mb3b80b8695" y="162.429541"/>
     <use style="fill:#ff0000;stroke:#000000;" x="110.722314" xlink:href="#mb3b80b8695" y="193.170209"/>
     <use style="fill:#ff0000;stroke:#000000;" x="124.557025" xlink:href="#mb3b80b8695" y="199.248575"/>
     <use style="fill:#ff0000;stroke:#000000;" x="138.391736" xlink:href="#mb3b80b8695" y="199.347548"/>
     <use style="fill:#ff0000;stroke:#000000;" x="152.226446" xlink:href="#mb3b80b8695" y="191.611971"/>
     <use style="fill:#ff0000;stroke:#000000;" x="166.061157" xlink:href="#mb3b80b8695" y="193.66847"/>
     <use style="fill:#ff0000;stroke:#000000;" x="179.895868" xlink:href="#mb3b80b8695" y="193.283098"/>
     <use style="fill:#ff0000;stroke:#000000;" x="193.730579" xlink:href="#mb3b80b8695" y="188.924027"/>
     <use style="fill:#ff0000;stroke:#000000;" x="318.242975" xlink:href="#mb3b80b8695" y="199.289596"/>
     <use style="fill:#ff0000;stroke:#000000;" x="332.077686" xlink:href="#mb3b80b8695" y="145.37007"/>
     <use style="fill:#ff0000;stroke:#000000;" x="345.912397" xlink:href="#mb3b80b8695" y="78.407322"/>
     <use style="fill:#ff0000;stroke:#000000;" x="301.641322" xlink:href="#mb3b80b8695" y="209.239805"/>
     <use style="fill:#ff0000;stroke:#000000;" x="298.87438" xlink:href="#mb3b80b8695" y="234.398997"/>
     <use style="fill:#ff0000;stroke:#000000;" x="276.738843" xlink:href="#mb3b80b8695" y="225.228618"/>
    </g>
   </g>
  </g>
 </g>
 <defs>
  <clipPath id="pa90d23e02f">
   <rect height="217.44" width="334.8" x="54" y="34.56"/>
  </clipPath>
 </defs>
</svg>
