<?xml version="1.0" encoding="utf-8" standalone="no"?>
<!DOCTYPE svg PUBLIC "-//W3C//DTD SVG 1.1//EN"
  "http://www.w3.org/Graphics/SVG/1.1/DTD/svg11.dtd">
<svg height="288pt" version="1.1" viewBox="0 0 432 288" width="432pt" xmlns="http://www.w3.org/2000/svg" xmlns:xlink="http://www.w3.org/1999/xlink">
 <metadata>
  <rdf:RDF xmlns:cc="http://creativecommons.org/ns#" xmlns:dc="http://purl.org/dc/elements/1.1/" xmlns:rdf="http://www.w3.org/1999/02/22-rdf-syntax-ns#">
   <cc:Work>
    <dc:type rdf:resource="http://purl.org/dc/dcmitype/StillImage"/>
    <dc:date>2022-08-02T10:12:04.996384</dc:date>
    <dc:format>image/svg+xml</dc:format>
    <dc:creator>
     <cc:Agent>
      <dc:title>Matplotlib v3.4.3, https://matplotlib.org/</dc:title>
     </cc:Agent>
    </dc:creator>
   </cc:Work>
  </rdf:RDF>
 </metadata>
 <defs>
  <style type="text/css">*{stroke-linecap:butt;stroke-linejoin:round;}</style>
 </defs>
 <g id="figure_1">
  <g id="patch_1">
   <path d="M 0 288 
L 432 288 
L 432 0 
L 0 0 
z
" style="fill:none;"/>
  </g>
  <g id="axes_1">
   <g id="patch_2">
    <path d="M 54 252 
L 388.8 252 
L 388.8 34.56 
L 54 34.56 
z
" style="fill:#ffffff;"/>
   </g>
   <g id="PolyCollection_1">
    <defs>
     <path d="M 69.218182 -175.826529 
L 69.218182 -134.527675 
L 71.985124 -138.626041 
L 74.752066 -141.712125 
L 77.519008 -143.549536 
L 80.28595 -143.944105 
L 83.052893 -142.775677 
L 85.819835 -140.045592 
L 88.586777 -135.917393 
L 91.353719 -130.698388 
L 94.120661 -124.758051 
L 96.887603 -118.450239 
L 99.654545 -112.079402 
L 102.421488 -105.897135 
L 105.18843 -100.108065 
L 107.955372 -94.875584 
L 110.722314 -90.324799 
L 113.489256 -86.542344 
L 116.256198 -83.574178 
L 119.02314 -81.423726 
L 121.790083 -80.052802 
L 124.557025 -79.386532 
L 127.323967 -79.32181 
L 130.090909 -79.737728 
L 132.857851 -80.506185 
L 135.624793 -81.501294 
L 138.391736 -82.606889 
L 141.158678 -83.722055 
L 143.92562 -84.764892 
L 146.692562 -85.674718 
L 149.459504 -86.412742 
L 152.226446 -86.96111 
L 154.993388 -87.320387 
L 157.760331 -87.505919 
L 160.527273 -87.543982 
L 163.294215 -87.468884 
L 166.061157 -87.321838 
L 168.828099 -87.151332 
L 171.595041 -87.0132 
L 174.361983 -86.9676 
L 177.128926 -87.070534 
L 179.895868 -87.359157 
L 182.66281 -87.831986 
L 185.429752 -88.427708 
L 188.196694 -89.013353 
L 190.963636 -89.404186 
L 193.730579 -89.430206 
L 196.497521 -89.010088 
L 199.264463 -88.166217 
L 202.031405 -86.985038 
L 204.798347 -85.574811 
L 207.565289 -84.042597 
L 210.332231 -82.48446 
L 213.099174 -80.980918 
L 215.866116 -79.594364 
L 218.633058 -78.367763 
L 221.4 -77.324698 
L 224.166942 -76.470814 
L 226.933884 -75.796469 
L 229.700826 -75.280205 
L 232.467769 -74.892551 
L 235.234711 -74.599653 
L 238.001653 -74.366318 
L 240.768595 -74.158246 
L 243.535537 -73.943403 
L 246.302479 -73.692687 
L 249.069421 -73.380157 
L 251.836364 -72.983137 
L 254.603306 -72.48246 
L 257.370248 -71.863001 
L 260.13719 -71.114508 
L 262.904132 -70.232593 
L 265.671074 -69.219693 
L 268.438017 -68.085784 
L 271.204959 -66.8487 
L 273.971901 -65.534049 
L 276.738843 -64.174807 
L 279.505785 -62.810789 
L 282.272727 -61.488224 
L 285.039669 -60.259566 
L 287.806612 -59.183549 
L 290.573554 -58.32527 
L 293.340496 -57.755886 
L 296.107438 -57.551579 
L 298.87438 -57.792311 
L 301.641322 -58.563645 
L 304.408264 -59.969467 
L 307.175207 -62.161007 
L 309.942149 -65.360118 
L 312.709091 -69.82763 
L 315.476033 -75.776992 
L 318.242975 -83.300541 
L 321.009917 -92.346882 
L 323.77686 -102.734551 
L 326.543802 -114.178293 
L 329.310744 -126.314232 
L 332.077686 -138.717661 
L 334.844628 -150.912413 
L 337.61157 -162.376013 
L 340.378512 -172.552477 
L 343.145455 -180.894795 
L 345.912397 -186.950736 
L 348.679339 -190.452765 
L 351.446281 -191.344631 
L 354.213223 -189.74493 
L 356.980165 -185.897954 
L 359.747107 -180.13556 
L 362.51405 -172.846714 
L 365.280992 -164.449156 
L 368.047934 -155.362134 
L 370.814876 -145.981665 
L 373.581818 -136.660242 
L 373.581818 -199.675995 
L 373.581818 -199.675995 
L 370.814876 -205.649471 
L 368.047934 -211.11148 
L 365.280992 -215.760171 
L 362.51405 -219.297868 
L 359.747107 -221.4531 
L 356.980165 -222.003575 
L 354.213223 -220.798008 
L 351.446281 -217.773656 
L 348.679339 -212.963814 
L 345.912397 -206.485517 
L 343.145455 -198.500961 
L 340.378512 -189.174692 
L 337.61157 -178.676986 
L 334.844628 -167.235568 
L 332.077686 -155.171663 
L 329.310744 -142.885782 
L 326.543802 -130.812046 
L 323.77686 -119.368304 
L 321.009917 -108.918432 
L 318.242975 -99.754543 
L 315.476033 -92.100147 
L 312.709091 -86.128603 
L 309.942149 -81.982333 
L 307.175207 -79.767172 
L 304.408264 -79.504248 
L 301.641322 -81.074694 
L 298.87438 -84.221336 
L 296.107438 -88.604657 
L 293.340496 -93.861506 
L 290.573554 -99.642809 
L 287.806612 -105.6347 
L 285.039669 -111.570573 
L 282.272727 -117.237552 
L 279.505785 -122.47855 
L 276.738843 -127.190453 
L 273.971901 -131.319061 
L 271.204959 -134.851613 
L 268.438017 -137.807863 
L 265.671074 -140.230677 
L 262.904132 -142.177041 
L 260.13719 -143.710136 
L 257.370248 -144.892891 
L 254.603306 -145.783144 
L 251.836364 -146.430297 
L 249.069421 -146.873188 
L 246.302479 -147.138859 
L 243.535537 -147.241941 
L 240.768595 -147.184501 
L 238.001653 -146.956353 
L 235.234711 -146.535985 
L 232.467769 -145.892307 
L 229.700826 -144.987443 
L 226.933884 -143.78065 
L 224.166942 -142.233295 
L 221.4 -140.31461 
L 218.633058 -138.007748 
L 215.866116 -135.31554 
L 213.099174 -132.265349 
L 210.332231 -128.912428 
L 207.565289 -125.341449 
L 204.798347 -121.666006 
L 202.031405 -118.025974 
L 199.264463 -114.581913 
L 196.497521 -111.503109 
L 193.730579 -108.941348 
L 190.963636 -106.984532 
L 188.196694 -105.612223 
L 185.429752 -104.705602 
L 182.66281 -104.116509 
L 179.895868 -103.729742 
L 177.128926 -103.479914 
L 174.361983 -103.338173 
L 171.595041 -103.291429 
L 168.828099 -103.324937 
L 166.061157 -103.411891 
L 163.294215 -103.51086 
L 160.527273 -103.569939 
L 157.760331 -103.53476 
L 154.993388 -103.357045 
L 152.226446 -103.001408 
L 149.459504 -102.449659 
L 146.692562 -101.703056 
L 143.92562 -100.7833 
L 141.158678 -99.732887 
L 138.391736 -98.614923 
L 135.624793 -97.512126 
L 132.857851 -96.524593 
L 130.090909 -95.766065 
L 127.323967 -95.358727 
L 124.557025 -95.42683 
L 121.790083 -96.08946 
L 119.02314 -97.452566 
L 116.256198 -99.600136 
L 113.489256 -102.58432 
L 110.722314 -106.414852 
L 107.955372 -111.04919 
L 105.18843 -116.386295 
L 102.421488 -122.267709 
L 99.654545 -128.488782 
L 96.887603 -134.820824 
L 94.120661 -141.042574 
L 91.353719 -146.976282 
L 88.586777 -152.516263 
L 85.819835 -157.625937 
L 83.052893 -162.286819 
L 80.28595 -166.437126 
L 77.519008 -169.965231 
L 74.752066 -172.753061 
L 71.985124 -174.717237 
L 69.218182 -175.826529 
z
" id="m0d8ef1ef92" style="stroke:#add8e6;stroke-opacity:0.2;"/>
    </defs>
    <g clip-path="url(#p9efe327890)">
     <use style="fill:#add8e6;fill-opacity:0.2;stroke:#add8e6;stroke-opacity:0.2;" x="0" xlink:href="#m0d8ef1ef92" y="288"/>
    </g>
   </g>
   <g id="PathCollection_1">
    <defs>
     <path d="M 0 0.612372 
C 0.162403 0.612372 0.318176 0.547849 0.433013 0.433013 
C 0.547849 0.318176 0.612372 0.162403 0.612372 0 
C 0.612372 -0.162403 0.547849 -0.318176 0.433013 -0.433013 
C 0.318176 -0.547849 0.162403 -0.612372 0 -0.612372 
C -0.162403 -0.612372 -0.318176 -0.547849 -0.433013 -0.433013 
C -0.547849 -0.318176 -0.612372 -0.162403 -0.612372 0 
C -0.612372 0.162403 -0.547849 0.318176 -0.433013 0.433013 
C -0.318176 0.547849 -0.162403 0.612372 0 0.612372 
z
" id="m18fee93958" style="stroke:#ff0000;stroke-width:8;"/>
    </defs>
    <g clip-path="url(#p9efe327890)">
     <use style="fill:#ff0000;stroke:#ff0000;stroke-width:8;" x="296.107438" xlink:href="#m18fee93958" y="212.203493"/>
    </g>
   </g>
   <g id="matplotlib.axis_1">
    <g id="xtick_1">
     <g id="line2d_1">
      <defs>
       <path d="M 0 0 
L 0 3.5 
" id="mec687115ed" style="stroke:#000000;stroke-width:0.8;"/>
      </defs>
      <g>
       <use style="stroke:#000000;stroke-width:0.8;" x="69.218182" xlink:href="#mec687115ed" y="252"/>
      </g>
     </g>
     <g id="text_1">
      <!-- 0 -->
      <g transform="translate(66.036932 266.598437)scale(0.1 -0.1)">
       <defs>
        <path d="M 2034 4250 
Q 1547 4250 1301 3770 
Q 1056 3291 1056 2328 
Q 1056 1369 1301 889 
Q 1547 409 2034 409 
Q 2525 409 2770 889 
Q 3016 1369 3016 2328 
Q 3016 3291 2770 3770 
Q 2525 4250 2034 4250 
z
M 2034 4750 
Q 2819 4750 3233 4129 
Q 3647 3509 3647 2328 
Q 3647 1150 3233 529 
Q 2819 -91 2034 -91 
Q 1250 -91 836 529 
Q 422 1150 422 2328 
Q 422 3509 836 4129 
Q 1250 4750 2034 4750 
z
" id="DejaVuSans-30" transform="scale(0.015625)"/>
       </defs>
       <use xlink:href="#DejaVuSans-30"/>
      </g>
     </g>
    </g>
    <g id="xtick_2">
     <g id="line2d_2">
      <g>
       <use style="stroke:#000000;stroke-width:0.8;" x="124.557025" xlink:href="#mec687115ed" y="252"/>
      </g>
     </g>
     <g id="text_2">
      <!-- 2 -->
      <g transform="translate(121.375775 266.598437)scale(0.1 -0.1)">
       <defs>
        <path d="M 1228 531 
L 3431 531 
L 3431 0 
L 469 0 
L 469 531 
Q 828 903 1448 1529 
Q 2069 2156 2228 2338 
Q 2531 2678 2651 2914 
Q 2772 3150 2772 3378 
Q 2772 3750 2511 3984 
Q 2250 4219 1831 4219 
Q 1534 4219 1204 4116 
Q 875 4013 500 3803 
L 500 4441 
Q 881 4594 1212 4672 
Q 1544 4750 1819 4750 
Q 2544 4750 2975 4387 
Q 3406 4025 3406 3419 
Q 3406 3131 3298 2873 
Q 3191 2616 2906 2266 
Q 2828 2175 2409 1742 
Q 1991 1309 1228 531 
z
" id="DejaVuSans-32" transform="scale(0.015625)"/>
       </defs>
       <use xlink:href="#DejaVuSans-32"/>
      </g>
     </g>
    </g>
    <g id="xtick_3">
     <g id="line2d_3">
      <g>
       <use style="stroke:#000000;stroke-width:0.8;" x="179.895868" xlink:href="#mec687115ed" y="252"/>
      </g>
     </g>
     <g id="text_3">
      <!-- 4 -->
      <g transform="translate(176.714618 266.598437)scale(0.1 -0.1)">
       <defs>
        <path d="M 2419 4116 
L 825 1625 
L 2419 1625 
L 2419 4116 
z
M 2253 4666 
L 3047 4666 
L 3047 1625 
L 3713 1625 
L 3713 1100 
L 3047 1100 
L 3047 0 
L 2419 0 
L 2419 1100 
L 313 1100 
L 313 1709 
L 2253 4666 
z
" id="DejaVuSans-34" transform="scale(0.015625)"/>
       </defs>
       <use xlink:href="#DejaVuSans-34"/>
      </g>
     </g>
    </g>
    <g id="xtick_4">
     <g id="line2d_4">
      <g>
       <use style="stroke:#000000;stroke-width:0.8;" x="235.234711" xlink:href="#mec687115ed" y="252"/>
      </g>
     </g>
     <g id="text_4">
      <!-- 6 -->
      <g transform="translate(232.053461 266.598437)scale(0.1 -0.1)">
       <defs>
        <path d="M 2113 2584 
Q 1688 2584 1439 2293 
Q 1191 2003 1191 1497 
Q 1191 994 1439 701 
Q 1688 409 2113 409 
Q 2538 409 2786 701 
Q 3034 994 3034 1497 
Q 3034 2003 2786 2293 
Q 2538 2584 2113 2584 
z
M 3366 4563 
L 3366 3988 
Q 3128 4100 2886 4159 
Q 2644 4219 2406 4219 
Q 1781 4219 1451 3797 
Q 1122 3375 1075 2522 
Q 1259 2794 1537 2939 
Q 1816 3084 2150 3084 
Q 2853 3084 3261 2657 
Q 3669 2231 3669 1497 
Q 3669 778 3244 343 
Q 2819 -91 2113 -91 
Q 1303 -91 875 529 
Q 447 1150 447 2328 
Q 447 3434 972 4092 
Q 1497 4750 2381 4750 
Q 2619 4750 2861 4703 
Q 3103 4656 3366 4563 
z
" id="DejaVuSans-36" transform="scale(0.015625)"/>
       </defs>
       <use xlink:href="#DejaVuSans-36"/>
      </g>
     </g>
    </g>
    <g id="xtick_5">
     <g id="line2d_5">
      <g>
       <use style="stroke:#000000;stroke-width:0.8;" x="290.573554" xlink:href="#mec687115ed" y="252"/>
      </g>
     </g>
     <g id="text_5">
      <!-- 8 -->
      <g transform="translate(287.392304 266.598437)scale(0.1 -0.1)">
       <defs>
        <path d="M 2034 2216 
Q 1584 2216 1326 1975 
Q 1069 1734 1069 1313 
Q 1069 891 1326 650 
Q 1584 409 2034 409 
Q 2484 409 2743 651 
Q 3003 894 3003 1313 
Q 3003 1734 2745 1975 
Q 2488 2216 2034 2216 
z
M 1403 2484 
Q 997 2584 770 2862 
Q 544 3141 544 3541 
Q 544 4100 942 4425 
Q 1341 4750 2034 4750 
Q 2731 4750 3128 4425 
Q 3525 4100 3525 3541 
Q 3525 3141 3298 2862 
Q 3072 2584 2669 2484 
Q 3125 2378 3379 2068 
Q 3634 1759 3634 1313 
Q 3634 634 3220 271 
Q 2806 -91 2034 -91 
Q 1263 -91 848 271 
Q 434 634 434 1313 
Q 434 1759 690 2068 
Q 947 2378 1403 2484 
z
M 1172 3481 
Q 1172 3119 1398 2916 
Q 1625 2713 2034 2713 
Q 2441 2713 2670 2916 
Q 2900 3119 2900 3481 
Q 2900 3844 2670 4047 
Q 2441 4250 2034 4250 
Q 1625 4250 1398 4047 
Q 1172 3844 1172 3481 
z
" id="DejaVuSans-38" transform="scale(0.015625)"/>
       </defs>
       <use xlink:href="#DejaVuSans-38"/>
      </g>
     </g>
    </g>
    <g id="xtick_6">
     <g id="line2d_6">
      <g>
       <use style="stroke:#000000;stroke-width:0.8;" x="345.912397" xlink:href="#mec687115ed" y="252"/>
      </g>
     </g>
     <g id="text_6">
      <!-- 10 -->
      <g transform="translate(339.549897 266.598437)scale(0.1 -0.1)">
       <defs>
        <path d="M 794 531 
L 1825 531 
L 1825 4091 
L 703 3866 
L 703 4441 
L 1819 4666 
L 2450 4666 
L 2450 531 
L 3481 531 
L 3481 0 
L 794 0 
L 794 531 
z
" id="DejaVuSans-31" transform="scale(0.015625)"/>
       </defs>
       <use xlink:href="#DejaVuSans-31"/>
       <use x="63.623047" xlink:href="#DejaVuSans-30"/>
      </g>
     </g>
    </g>
    <g id="text_7">
     <!-- x -->
     <g transform="translate(217.84875 281.79625)scale(0.12 -0.12)">
      <defs>
       <path d="M 3513 3500 
L 2247 1797 
L 3578 0 
L 2900 0 
L 1881 1375 
L 863 0 
L 184 0 
L 1544 1831 
L 300 3500 
L 978 3500 
L 1906 2253 
L 2834 3500 
L 3513 3500 
z
" id="DejaVuSans-78" transform="scale(0.015625)"/>
      </defs>
      <use xlink:href="#DejaVuSans-78"/>
     </g>
    </g>
   </g>
   <g id="matplotlib.axis_2">
    <g id="ytick_1">
     <g id="line2d_7">
      <defs>
       <path d="M 0 0 
L -3.5 0 
" id="meb73151fa5" style="stroke:#000000;stroke-width:0.8;"/>
      </defs>
      <g>
       <use style="stroke:#000000;stroke-width:0.8;" x="54" xlink:href="#meb73151fa5" y="252"/>
      </g>
     </g>
     <g id="text_8">
      <!-- 3 -->
      <g transform="translate(40.6375 255.799219)scale(0.1 -0.1)">
       <defs>
        <path d="M 2597 2516 
Q 3050 2419 3304 2112 
Q 3559 1806 3559 1356 
Q 3559 666 3084 287 
Q 2609 -91 1734 -91 
Q 1441 -91 1130 -33 
Q 819 25 488 141 
L 488 750 
Q 750 597 1062 519 
Q 1375 441 1716 441 
Q 2309 441 2620 675 
Q 2931 909 2931 1356 
Q 2931 1769 2642 2001 
Q 2353 2234 1838 2234 
L 1294 2234 
L 1294 2753 
L 1863 2753 
Q 2328 2753 2575 2939 
Q 2822 3125 2822 3475 
Q 2822 3834 2567 4026 
Q 2313 4219 1838 4219 
Q 1578 4219 1281 4162 
Q 984 4106 628 3988 
L 628 4550 
Q 988 4650 1302 4700 
Q 1616 4750 1894 4750 
Q 2613 4750 3031 4423 
Q 3450 4097 3450 3541 
Q 3450 3153 3228 2886 
Q 3006 2619 2597 2516 
z
" id="DejaVuSans-33" transform="scale(0.015625)"/>
       </defs>
       <use xlink:href="#DejaVuSans-33"/>
      </g>
     </g>
    </g>
    <g id="ytick_2">
     <g id="line2d_8">
      <g>
       <use style="stroke:#000000;stroke-width:0.8;" x="54" xlink:href="#meb73151fa5" y="215.76"/>
      </g>
     </g>
     <g id="text_9">
      <!-- 4 -->
      <g transform="translate(40.6375 219.559219)scale(0.1 -0.1)">
       <use xlink:href="#DejaVuSans-34"/>
      </g>
     </g>
    </g>
    <g id="ytick_3">
     <g id="line2d_9">
      <g>
       <use style="stroke:#000000;stroke-width:0.8;" x="54" xlink:href="#meb73151fa5" y="179.52"/>
      </g>
     </g>
     <g id="text_10">
      <!-- 5 -->
      <g transform="translate(40.6375 183.319219)scale(0.1 -0.1)">
       <defs>
        <path d="M 691 4666 
L 3169 4666 
L 3169 4134 
L 1269 4134 
L 1269 2991 
Q 1406 3038 1543 3061 
Q 1681 3084 1819 3084 
Q 2600 3084 3056 2656 
Q 3513 2228 3513 1497 
Q 3513 744 3044 326 
Q 2575 -91 1722 -91 
Q 1428 -91 1123 -41 
Q 819 9 494 109 
L 494 744 
Q 775 591 1075 516 
Q 1375 441 1709 441 
Q 2250 441 2565 725 
Q 2881 1009 2881 1497 
Q 2881 1984 2565 2268 
Q 2250 2553 1709 2553 
Q 1456 2553 1204 2497 
Q 953 2441 691 2322 
L 691 4666 
z
" id="DejaVuSans-35" transform="scale(0.015625)"/>
       </defs>
       <use xlink:href="#DejaVuSans-35"/>
      </g>
     </g>
    </g>
    <g id="ytick_4">
     <g id="line2d_10">
      <g>
       <use style="stroke:#000000;stroke-width:0.8;" x="54" xlink:href="#meb73151fa5" y="143.28"/>
      </g>
     </g>
     <g id="text_11">
      <!-- 6 -->
      <g transform="translate(40.6375 147.079219)scale(0.1 -0.1)">
       <use xlink:href="#DejaVuSans-36"/>
      </g>
     </g>
    </g>
    <g id="ytick_5">
     <g id="line2d_11">
      <g>
       <use style="stroke:#000000;stroke-width:0.8;" x="54" xlink:href="#meb73151fa5" y="107.04"/>
      </g>
     </g>
     <g id="text_12">
      <!-- 7 -->
      <g transform="translate(40.6375 110.839219)scale(0.1 -0.1)">
       <defs>
        <path d="M 525 4666 
L 3525 4666 
L 3525 4397 
L 1831 0 
L 1172 0 
L 2766 4134 
L 525 4134 
L 525 4666 
z
" id="DejaVuSans-37" transform="scale(0.015625)"/>
       </defs>
       <use xlink:href="#DejaVuSans-37"/>
      </g>
     </g>
    </g>
    <g id="ytick_6">
     <g id="line2d_12">
      <g>
       <use style="stroke:#000000;stroke-width:0.8;" x="54" xlink:href="#meb73151fa5" y="70.8"/>
      </g>
     </g>
     <g id="text_13">
      <!-- 8 -->
      <g transform="translate(40.6375 74.599219)scale(0.1 -0.1)">
       <use xlink:href="#DejaVuSans-38"/>
      </g>
     </g>
    </g>
    <g id="ytick_7">
     <g id="line2d_13">
      <g>
       <use style="stroke:#000000;stroke-width:0.8;" x="54" xlink:href="#meb73151fa5" y="34.56"/>
      </g>
     </g>
     <g id="text_14">
      <!-- 9 -->
      <g transform="translate(40.6375 38.359219)scale(0.1 -0.1)">
       <defs>
        <path d="M 703 97 
L 703 672 
Q 941 559 1184 500 
Q 1428 441 1663 441 
Q 2288 441 2617 861 
Q 2947 1281 2994 2138 
Q 2813 1869 2534 1725 
Q 2256 1581 1919 1581 
Q 1219 1581 811 2004 
Q 403 2428 403 3163 
Q 403 3881 828 4315 
Q 1253 4750 1959 4750 
Q 2769 4750 3195 4129 
Q 3622 3509 3622 2328 
Q 3622 1225 3098 567 
Q 2575 -91 1691 -91 
Q 1453 -91 1209 -44 
Q 966 3 703 97 
z
M 1959 2075 
Q 2384 2075 2632 2365 
Q 2881 2656 2881 3163 
Q 2881 3666 2632 3958 
Q 2384 4250 1959 4250 
Q 1534 4250 1286 3958 
Q 1038 3666 1038 3163 
Q 1038 2656 1286 2365 
Q 1534 2075 1959 2075 
z
" id="DejaVuSans-39" transform="scale(0.015625)"/>
       </defs>
       <use xlink:href="#DejaVuSans-39"/>
      </g>
     </g>
    </g>
    <g id="text_15">
     <!-- y -->
     <g transform="translate(34.141875 146.83125)rotate(-90)scale(0.12 -0.12)">
      <defs>
       <path d="M 2059 -325 
Q 1816 -950 1584 -1140 
Q 1353 -1331 966 -1331 
L 506 -1331 
L 506 -850 
L 844 -850 
Q 1081 -850 1212 -737 
Q 1344 -625 1503 -206 
L 1606 56 
L 191 3500 
L 800 3500 
L 1894 763 
L 2988 3500 
L 3597 3500 
L 2059 -325 
z
" id="DejaVuSans-79" transform="scale(0.015625)"/>
      </defs>
      <use xlink:href="#DejaVuSans-79"/>
     </g>
    </g>
   </g>
   <g id="line2d_14">
    <path clip-path="url(#p9efe327890)" d="M 69.218182 70.8 
L 71.985124 85.083949 
L 74.752066 98.25467 
L 77.519008 110.364828 
L 80.28595 121.465955 
L 83.052893 131.608455 
L 85.819835 140.841599 
L 88.586777 149.213528 
L 91.353719 156.771253 
L 94.120661 163.560654 
L 96.887603 169.62648 
L 99.654545 175.012349 
L 102.421488 179.76075 
L 105.18843 183.913038 
L 107.955372 187.509441 
L 110.722314 190.589055 
L 113.489256 193.189844 
L 116.256198 195.348643 
L 119.02314 197.101155 
L 121.790083 198.481953 
L 124.557025 199.52448 
L 127.323967 200.261047 
L 130.090909 200.722835 
L 132.857851 200.939895 
L 135.624793 200.941145 
L 138.391736 200.754375 
L 141.158678 200.406243 
L 143.92562 199.922276 
L 146.692562 199.326871 
L 149.459504 198.643294 
L 152.226446 197.89368 
L 154.993388 197.099035 
L 157.760331 196.279231 
L 160.527273 195.453014 
L 163.294215 194.637994 
L 166.061157 193.850655 
L 168.828099 193.106347 
L 171.595041 192.419291 
L 174.361983 191.802577 
L 177.128926 191.268164 
L 179.895868 190.82688 
L 182.66281 190.488424 
L 185.429752 190.261362 
L 188.196694 190.153131 
L 190.963636 190.170037 
L 193.730579 190.317255 
L 196.497521 190.598829 
L 199.264463 191.017673 
L 202.031405 191.575569 
L 204.798347 192.273171 
L 207.565289 193.11 
L 210.332231 194.084446 
L 213.099174 195.193771 
L 215.866116 196.434103 
L 218.633058 197.800442 
L 221.4 199.286655 
L 224.166942 200.88548 
L 226.933884 202.588525 
L 229.700826 204.386264 
L 232.467769 206.268045 
L 235.234711 208.22208 
L 238.001653 210.235455 
L 240.768595 212.294122 
L 243.535537 214.382905 
L 246.302479 216.485496 
L 249.069421 218.584455 
L 251.836364 220.661214 
L 254.603306 222.696071 
L 257.370248 224.668198 
L 260.13719 226.555631 
L 262.904132 228.33528 
L 265.671074 229.982921 
L 268.438017 231.4732 
L 271.204959 232.779634 
L 273.971901 233.874607 
L 276.738843 234.729375 
L 279.505785 235.31406 
L 282.272727 235.597656 
L 285.039669 235.548026 
L 287.806612 235.1319 
L 290.573554 234.31488 
L 293.340496 233.061436 
L 296.107438 231.334908 
L 298.87438 229.097505 
L 301.641322 226.310305 
L 304.408264 222.933255 
L 307.175207 218.925173 
L 309.942149 214.243744 
L 312.709091 208.845524 
L 315.476033 202.685938 
L 318.242975 195.71928 
L 321.009917 187.898713 
L 323.77686 179.176271 
L 326.543802 169.502854 
L 329.310744 158.828236 
L 332.077686 147.101055 
L 334.844628 134.268823 
L 337.61157 120.277918 
L 340.378512 105.073589 
L 343.145455 88.599954 
L 345.912397 70.8 
L 348.679339 51.615584 
L 351.446281 30.987432 
L 354.213223 8.855138 
L 355.363895 -1 
" style="fill:none;stroke:#0000ff;stroke-linecap:square;stroke-width:2;"/>
   </g>
   <g id="line2d_15">
    <path clip-path="url(#p9efe327890)" d="M 69.218182 153.472325 
L 71.985124 149.373959 
L 74.752066 146.287875 
L 77.519008 144.450464 
L 80.28595 144.055895 
L 83.052893 145.224323 
L 85.819835 147.954408 
L 88.586777 152.082607 
L 91.353719 157.301612 
L 94.120661 163.241949 
L 96.887603 169.549761 
L 99.654545 175.920598 
L 102.421488 182.102865 
L 105.18843 187.891935 
L 107.955372 193.124416 
L 110.722314 197.675201 
L 113.489256 201.457656 
L 116.256198 204.425822 
L 119.02314 206.576274 
L 121.790083 207.947198 
L 124.557025 208.613468 
L 127.323967 208.67819 
L 130.090909 208.262272 
L 132.857851 207.493815 
L 135.624793 206.498706 
L 138.391736 205.393111 
L 141.158678 204.277945 
L 143.92562 203.235108 
L 146.692562 202.325282 
L 149.459504 201.587258 
L 152.226446 201.03889 
L 154.993388 200.679613 
L 157.760331 200.494081 
L 160.527273 200.456018 
L 163.294215 200.531116 
L 166.061157 200.678162 
L 168.828099 200.848668 
L 171.595041 200.9868 
L 174.361983 201.0324 
L 177.128926 200.929466 
L 179.895868 200.640843 
L 182.66281 200.168014 
L 185.429752 199.572292 
L 188.196694 198.986647 
L 190.963636 198.595814 
L 193.730579 198.569794 
L 196.497521 198.989912 
L 199.264463 199.833783 
L 202.031405 201.014962 
L 204.798347 202.425189 
L 207.565289 203.957403 
L 210.332231 205.51554 
L 213.099174 207.019082 
L 215.866116 208.405636 
L 218.633058 209.632237 
L 221.4 210.675302 
L 224.166942 211.529186 
L 226.933884 212.203531 
L 229.700826 212.719795 
L 232.467769 213.107449 
L 235.234711 213.400347 
L 238.001653 213.633682 
L 240.768595 213.841754 
L 243.535537 214.056597 
L 246.302479 214.307313 
L 249.069421 214.619843 
L 251.836364 215.016863 
L 254.603306 215.51754 
L 257.370248 216.136999 
L 260.13719 216.885492 
L 262.904132 217.767407 
L 265.671074 218.780307 
L 268.438017 219.914216 
L 271.204959 221.1513 
L 273.971901 222.465951 
L 276.738843 223.825193 
L 279.505785 225.189211 
L 282.272727 226.511776 
L 285.039669 227.740434 
L 287.806612 228.816451 
L 290.573554 229.67473 
L 293.340496 230.244114 
L 296.107438 230.448421 
L 298.87438 230.207689 
L 301.641322 229.436355 
L 304.408264 228.030533 
L 307.175207 225.838993 
L 309.942149 222.639882 
L 312.709091 218.17237 
L 315.476033 212.223008 
L 318.242975 204.699459 
L 321.009917 195.653118 
L 323.77686 185.265449 
L 326.543802 173.821707 
L 329.310744 161.685768 
L 332.077686 149.282339 
L 334.844628 137.087587 
L 337.61157 125.623987 
L 340.378512 115.447523 
L 343.145455 107.105205 
L 345.912397 101.049264 
L 348.679339 97.547235 
L 351.446281 96.655369 
L 354.213223 98.25507 
L 356.980165 102.102046 
L 359.747107 107.86444 
L 362.51405 115.153286 
L 365.280992 123.550844 
L 368.047934 132.637866 
L 370.814876 142.018335 
L 373.581818 151.339758 
" style="fill:none;stroke:#008000;stroke-dasharray:3.7,1.6;stroke-dashoffset:0;"/>
   </g>
   <g id="line2d_16">
    <path clip-path="url(#p9efe327890)" d="M 69.218182 112.173471 
L 71.985124 113.282763 
L 74.752066 115.246939 
L 77.519008 118.034769 
L 80.28595 121.562874 
L 83.052893 125.713181 
L 85.819835 130.374063 
L 88.586777 135.483737 
L 91.353719 141.023718 
L 94.120661 146.957426 
L 96.887603 153.179176 
L 99.654545 159.511218 
L 102.421488 165.732291 
L 105.18843 171.613705 
L 107.955372 176.95081 
L 110.722314 181.585148 
L 113.489256 185.41568 
L 116.256198 188.399864 
L 119.02314 190.547434 
L 121.790083 191.91054 
L 124.557025 192.57317 
L 127.323967 192.641273 
L 130.090909 192.233935 
L 132.857851 191.475407 
L 135.624793 190.487874 
L 138.391736 189.385077 
L 141.158678 188.267113 
L 143.92562 187.2167 
L 146.692562 186.296944 
L 149.459504 185.550341 
L 152.226446 184.998592 
L 154.993388 184.642955 
L 157.760331 184.46524 
L 160.527273 184.430061 
L 163.294215 184.48914 
L 166.061157 184.588109 
L 168.828099 184.675063 
L 171.595041 184.708571 
L 174.361983 184.661827 
L 177.128926 184.520086 
L 179.895868 184.270258 
L 182.66281 183.883491 
L 185.429752 183.294398 
L 188.196694 182.387777 
L 190.963636 181.015468 
L 193.730579 179.058652 
L 196.497521 176.496891 
L 199.264463 173.418087 
L 202.031405 169.974026 
L 204.798347 166.333994 
L 207.565289 162.658551 
L 210.332231 159.087572 
L 213.099174 155.734651 
L 215.866116 152.68446 
L 218.633058 149.992252 
L 221.4 147.68539 
L 224.166942 145.766705 
L 226.933884 144.21935 
L 229.700826 143.012557 
L 232.467769 142.107693 
L 235.234711 141.464015 
L 238.001653 141.043647 
L 240.768595 140.815499 
L 243.535537 140.758059 
L 246.302479 140.861141 
L 249.069421 141.126812 
L 251.836364 141.569703 
L 254.603306 142.216856 
L 257.370248 143.107109 
L 260.13719 144.289864 
L 262.904132 145.822959 
L 265.671074 147.769323 
L 268.438017 150.192137 
L 271.204959 153.148387 
L 273.971901 156.680939 
L 276.738843 160.809547 
L 279.505785 165.52145 
L 282.272727 170.762448 
L 285.039669 176.429427 
L 287.806612 182.3653 
L 290.573554 188.357191 
L 293.340496 194.138494 
L 296.107438 199.395343 
L 298.87438 203.778664 
L 301.641322 206.925306 
L 304.408264 208.495752 
L 307.175207 208.232828 
L 309.942149 206.017667 
L 312.709091 201.871397 
L 315.476033 195.899853 
L 318.242975 188.245457 
L 321.009917 179.081568 
L 323.77686 168.631696 
L 326.543802 157.187954 
L 329.310744 145.114218 
L 332.077686 132.828337 
L 334.844628 120.764432 
L 337.61157 109.323014 
L 340.378512 98.825308 
L 343.145455 89.499039 
L 345.912397 81.514483 
L 348.679339 75.036186 
L 351.446281 70.226344 
L 354.213223 67.201992 
L 356.980165 65.996425 
L 359.747107 66.5469 
L 362.51405 68.702132 
L 365.280992 72.239829 
L 368.047934 76.88852 
L 370.814876 82.350529 
L 373.581818 88.324005 
" style="fill:none;stroke:#008000;stroke-dasharray:3.7,1.6;stroke-dashoffset:0;"/>
   </g>
   <g id="line2d_17">
    <path clip-path="url(#p9efe327890)" d="M 69.218182 251.999461 
L 71.985124 251.999985 
L 74.752066 252 
L 77.519008 252 
L 80.28595 252 
L 83.052893 252 
L 85.819835 252 
L 88.586777 252 
L 91.353719 252 
L 94.120661 252 
L 96.887603 252 
L 99.654545 252 
L 102.421488 252 
L 105.18843 251.999994 
L 107.955372 251.999869 
L 110.722314 251.998485 
L 113.489256 251.990285 
L 116.256198 251.96285 
L 119.02314 251.908196 
L 121.790083 251.841503 
L 124.557025 251.795254 
L 127.323967 251.790423 
L 130.090909 251.821583 
L 132.857851 251.868078 
L 135.624793 251.91169 
L 138.391736 251.944236 
L 141.158678 251.965427 
L 143.92562 251.978165 
L 146.692562 251.98552 
L 149.459504 251.989701 
L 152.226446 251.992056 
L 154.993388 251.993338 
L 157.760331 251.993945 
L 160.527273 251.994068 
L 163.294215 251.993781 
L 166.061157 251.993109 
L 168.828099 251.992113 
L 171.595041 251.991015 
L 174.361983 251.990293 
L 177.128926 251.990529 
L 179.895868 251.99192 
L 182.66281 251.993892 
L 185.429752 251.995447 
L 188.196694 251.995748 
L 190.963636 251.993386 
L 193.730579 251.981779 
L 196.497521 251.932259 
L 199.264463 251.757087 
L 202.031405 251.291529 
L 204.798347 250.35983 
L 207.565289 248.880313 
L 210.332231 246.90745 
L 213.099174 244.598051 
L 215.866116 242.150267 
L 218.633058 239.752161 
L 221.4 237.550845 
L 224.166942 235.640137 
L 226.933884 234.061286 
L 229.700826 232.811474 
L 232.467769 231.855881 
L 235.234711 231.140162 
L 238.001653 230.601297 
L 240.768595 230.175715 
L 243.535537 229.804486 
L 246.302479 229.435983 
L 249.069421 229.026795 
L 251.836364 228.541717 
L 254.603306 227.953552 
L 257.370248 227.243167 
L 260.13719 226.399943 
L 262.904132 225.422459 
L 265.671074 224.319026 
L 268.438017 223.107589 
L 271.204959 221.81454 
L 273.971901 220.472234 
L 276.738843 219.115358 
L 279.505785 217.776865 
L 282.272727 216.484851 
L 285.039669 215.262654 
L 287.806612 214.13583 
L 290.573554 213.152028 
L 293.340496 212.423379 
L 296.107438 212.203493 
L 298.87438 212.999463 
L 301.641322 215.652747 
L 304.408264 221.148084 
L 307.175207 229.767171 
L 309.942149 239.792133 
L 312.709091 247.66151 
L 315.476033 251.217114 
L 318.242975 251.949073 
L 321.009917 251.999228 
L 323.77686 251.999998 
L 326.543802 252 
L 329.310744 252 
L 332.077686 252 
L 334.844628 252 
L 337.61157 252 
L 340.378512 252 
L 343.145455 252 
L 345.912397 252 
L 348.679339 252 
L 351.446281 252 
L 354.213223 252 
L 356.980165 252 
L 359.747107 252 
L 362.51405 251.999999 
L 365.280992 251.999952 
L 368.047934 251.998912 
L 370.814876 251.988988 
L 373.581818 251.937027 
" style="fill:none;stroke:#bfbf00;stroke-dasharray:7.4,3.2;stroke-dashoffset:0;stroke-width:2;"/>
   </g>
   <g id="patch_3">
    <path d="M 54 252 
L 54 34.56 
" style="fill:none;stroke:#000000;stroke-linecap:square;stroke-linejoin:miter;stroke-width:0.8;"/>
   </g>
   <g id="patch_4">
    <path d="M 388.8 252 
L 388.8 34.56 
" style="fill:none;stroke:#000000;stroke-linecap:square;stroke-linejoin:miter;stroke-width:0.8;"/>
   </g>
   <g id="patch_5">
    <path d="M 54 252 
L 388.8 252 
" style="fill:none;stroke:#000000;stroke-linecap:square;stroke-linejoin:miter;stroke-width:0.8;"/>
   </g>
   <g id="patch_6">
    <path d="M 54 34.56 
L 388.8 34.56 
" style="fill:none;stroke:#000000;stroke-linecap:square;stroke-linejoin:miter;stroke-width:0.8;"/>
   </g>
   <g id="text_16">
    <!-- Method : EI -->
    <g transform="translate(71.985124 244.752)scale(0.12 -0.12)">
     <defs>
      <path d="M 628 4666 
L 1569 4666 
L 2759 1491 
L 3956 4666 
L 4897 4666 
L 4897 0 
L 4281 0 
L 4281 4097 
L 3078 897 
L 2444 897 
L 1241 4097 
L 1241 0 
L 628 0 
L 628 4666 
z
" id="DejaVuSans-4d" transform="scale(0.015625)"/>
      <path d="M 3597 1894 
L 3597 1613 
L 953 1613 
Q 991 1019 1311 708 
Q 1631 397 2203 397 
Q 2534 397 2845 478 
Q 3156 559 3463 722 
L 3463 178 
Q 3153 47 2828 -22 
Q 2503 -91 2169 -91 
Q 1331 -91 842 396 
Q 353 884 353 1716 
Q 353 2575 817 3079 
Q 1281 3584 2069 3584 
Q 2775 3584 3186 3129 
Q 3597 2675 3597 1894 
z
M 3022 2063 
Q 3016 2534 2758 2815 
Q 2500 3097 2075 3097 
Q 1594 3097 1305 2825 
Q 1016 2553 972 2059 
L 3022 2063 
z
" id="DejaVuSans-65" transform="scale(0.015625)"/>
      <path d="M 1172 4494 
L 1172 3500 
L 2356 3500 
L 2356 3053 
L 1172 3053 
L 1172 1153 
Q 1172 725 1289 603 
Q 1406 481 1766 481 
L 2356 481 
L 2356 0 
L 1766 0 
Q 1100 0 847 248 
Q 594 497 594 1153 
L 594 3053 
L 172 3053 
L 172 3500 
L 594 3500 
L 594 4494 
L 1172 4494 
z
" id="DejaVuSans-74" transform="scale(0.015625)"/>
      <path d="M 3513 2113 
L 3513 0 
L 2938 0 
L 2938 2094 
Q 2938 2591 2744 2837 
Q 2550 3084 2163 3084 
Q 1697 3084 1428 2787 
Q 1159 2491 1159 1978 
L 1159 0 
L 581 0 
L 581 4863 
L 1159 4863 
L 1159 2956 
Q 1366 3272 1645 3428 
Q 1925 3584 2291 3584 
Q 2894 3584 3203 3211 
Q 3513 2838 3513 2113 
z
" id="DejaVuSans-68" transform="scale(0.015625)"/>
      <path d="M 1959 3097 
Q 1497 3097 1228 2736 
Q 959 2375 959 1747 
Q 959 1119 1226 758 
Q 1494 397 1959 397 
Q 2419 397 2687 759 
Q 2956 1122 2956 1747 
Q 2956 2369 2687 2733 
Q 2419 3097 1959 3097 
z
M 1959 3584 
Q 2709 3584 3137 3096 
Q 3566 2609 3566 1747 
Q 3566 888 3137 398 
Q 2709 -91 1959 -91 
Q 1206 -91 779 398 
Q 353 888 353 1747 
Q 353 2609 779 3096 
Q 1206 3584 1959 3584 
z
" id="DejaVuSans-6f" transform="scale(0.015625)"/>
      <path d="M 2906 2969 
L 2906 4863 
L 3481 4863 
L 3481 0 
L 2906 0 
L 2906 525 
Q 2725 213 2448 61 
Q 2172 -91 1784 -91 
Q 1150 -91 751 415 
Q 353 922 353 1747 
Q 353 2572 751 3078 
Q 1150 3584 1784 3584 
Q 2172 3584 2448 3432 
Q 2725 3281 2906 2969 
z
M 947 1747 
Q 947 1113 1208 752 
Q 1469 391 1925 391 
Q 2381 391 2643 752 
Q 2906 1113 2906 1747 
Q 2906 2381 2643 2742 
Q 2381 3103 1925 3103 
Q 1469 3103 1208 2742 
Q 947 2381 947 1747 
z
" id="DejaVuSans-64" transform="scale(0.015625)"/>
      <path id="DejaVuSans-20" transform="scale(0.015625)"/>
      <path d="M 750 794 
L 1409 794 
L 1409 0 
L 750 0 
L 750 794 
z
M 750 3309 
L 1409 3309 
L 1409 2516 
L 750 2516 
L 750 3309 
z
" id="DejaVuSans-3a" transform="scale(0.015625)"/>
      <path d="M 628 4666 
L 3578 4666 
L 3578 4134 
L 1259 4134 
L 1259 2753 
L 3481 2753 
L 3481 2222 
L 1259 2222 
L 1259 531 
L 3634 531 
L 3634 0 
L 628 0 
L 628 4666 
z
" id="DejaVuSans-45" transform="scale(0.015625)"/>
      <path d="M 628 4666 
L 1259 4666 
L 1259 0 
L 628 0 
L 628 4666 
z
" id="DejaVuSans-49" transform="scale(0.015625)"/>
     </defs>
     <use xlink:href="#DejaVuSans-4d"/>
     <use x="86.279297" xlink:href="#DejaVuSans-65"/>
     <use x="147.802734" xlink:href="#DejaVuSans-74"/>
     <use x="187.011719" xlink:href="#DejaVuSans-68"/>
     <use x="250.390625" xlink:href="#DejaVuSans-6f"/>
     <use x="311.572266" xlink:href="#DejaVuSans-64"/>
     <use x="375.048828" xlink:href="#DejaVuSans-20"/>
     <use x="406.835938" xlink:href="#DejaVuSans-3a"/>
     <use x="440.527344" xlink:href="#DejaVuSans-20"/>
     <use x="472.314453" xlink:href="#DejaVuSans-45"/>
     <use x="535.498047" xlink:href="#DejaVuSans-49"/>
    </g>
   </g>
   <g id="text_17">
    <!-- Iter=1 -->
    <g transform="translate(71.985124 226.632)scale(0.12 -0.12)">
     <defs>
      <path d="M 2631 2963 
Q 2534 3019 2420 3045 
Q 2306 3072 2169 3072 
Q 1681 3072 1420 2755 
Q 1159 2438 1159 1844 
L 1159 0 
L 581 0 
L 581 3500 
L 1159 3500 
L 1159 2956 
Q 1341 3275 1631 3429 
Q 1922 3584 2338 3584 
Q 2397 3584 2469 3576 
Q 2541 3569 2628 3553 
L 2631 2963 
z
" id="DejaVuSans-72" transform="scale(0.015625)"/>
      <path d="M 678 2906 
L 4684 2906 
L 4684 2381 
L 678 2381 
L 678 2906 
z
M 678 1631 
L 4684 1631 
L 4684 1100 
L 678 1100 
L 678 1631 
z
" id="DejaVuSans-3d" transform="scale(0.015625)"/>
     </defs>
     <use xlink:href="#DejaVuSans-49"/>
     <use x="29.492188" xlink:href="#DejaVuSans-74"/>
     <use x="68.701172" xlink:href="#DejaVuSans-65"/>
     <use x="130.224609" xlink:href="#DejaVuSans-72"/>
     <use x="171.337891" xlink:href="#DejaVuSans-3d"/>
     <use x="255.126953" xlink:href="#DejaVuSans-31"/>
    </g>
   </g>
   <g id="legend_1">
    <g id="patch_7">
     <path d="M 144.327812 140.235625 
L 298.472188 140.235625 
Q 300.672188 140.235625 300.672188 138.035625 
L 300.672188 42.26 
Q 300.672188 40.06 298.472188 40.06 
L 144.327812 40.06 
Q 142.127813 40.06 142.127813 42.26 
L 142.127813 138.035625 
Q 142.127813 140.235625 144.327812 140.235625 
z
" style="fill:#ffffff;opacity:0.8;stroke:#cccccc;stroke-linejoin:miter;"/>
    </g>
    <g id="line2d_18">
     <path d="M 146.527813 48.968281 
L 168.527813 48.968281 
" style="fill:none;stroke:#0000ff;stroke-linecap:square;stroke-width:2;"/>
    </g>
    <g id="line2d_19"/>
    <g id="text_18">
     <!-- ture function -->
     <g transform="translate(177.327813 52.818281)scale(0.11 -0.11)">
      <defs>
       <path d="M 544 1381 
L 544 3500 
L 1119 3500 
L 1119 1403 
Q 1119 906 1312 657 
Q 1506 409 1894 409 
Q 2359 409 2629 706 
Q 2900 1003 2900 1516 
L 2900 3500 
L 3475 3500 
L 3475 0 
L 2900 0 
L 2900 538 
Q 2691 219 2414 64 
Q 2138 -91 1772 -91 
Q 1169 -91 856 284 
Q 544 659 544 1381 
z
M 1991 3584 
L 1991 3584 
z
" id="DejaVuSans-75" transform="scale(0.015625)"/>
       <path d="M 2375 4863 
L 2375 4384 
L 1825 4384 
Q 1516 4384 1395 4259 
Q 1275 4134 1275 3809 
L 1275 3500 
L 2222 3500 
L 2222 3053 
L 1275 3053 
L 1275 0 
L 697 0 
L 697 3053 
L 147 3053 
L 147 3500 
L 697 3500 
L 697 3744 
Q 697 4328 969 4595 
Q 1241 4863 1831 4863 
L 2375 4863 
z
" id="DejaVuSans-66" transform="scale(0.015625)"/>
       <path d="M 3513 2113 
L 3513 0 
L 2938 0 
L 2938 2094 
Q 2938 2591 2744 2837 
Q 2550 3084 2163 3084 
Q 1697 3084 1428 2787 
Q 1159 2491 1159 1978 
L 1159 0 
L 581 0 
L 581 3500 
L 1159 3500 
L 1159 2956 
Q 1366 3272 1645 3428 
Q 1925 3584 2291 3584 
Q 2894 3584 3203 3211 
Q 3513 2838 3513 2113 
z
" id="DejaVuSans-6e" transform="scale(0.015625)"/>
       <path d="M 3122 3366 
L 3122 2828 
Q 2878 2963 2633 3030 
Q 2388 3097 2138 3097 
Q 1578 3097 1268 2742 
Q 959 2388 959 1747 
Q 959 1106 1268 751 
Q 1578 397 2138 397 
Q 2388 397 2633 464 
Q 2878 531 3122 666 
L 3122 134 
Q 2881 22 2623 -34 
Q 2366 -91 2075 -91 
Q 1284 -91 818 406 
Q 353 903 353 1747 
Q 353 2603 823 3093 
Q 1294 3584 2113 3584 
Q 2378 3584 2631 3529 
Q 2884 3475 3122 3366 
z
" id="DejaVuSans-63" transform="scale(0.015625)"/>
       <path d="M 603 3500 
L 1178 3500 
L 1178 0 
L 603 0 
L 603 3500 
z
M 603 4863 
L 1178 4863 
L 1178 4134 
L 603 4134 
L 603 4863 
z
" id="DejaVuSans-69" transform="scale(0.015625)"/>
      </defs>
      <use xlink:href="#DejaVuSans-74"/>
      <use x="39.208984" xlink:href="#DejaVuSans-75"/>
      <use x="102.587891" xlink:href="#DejaVuSans-72"/>
      <use x="141.451172" xlink:href="#DejaVuSans-65"/>
      <use x="202.974609" xlink:href="#DejaVuSans-20"/>
      <use x="234.761719" xlink:href="#DejaVuSans-66"/>
      <use x="269.966797" xlink:href="#DejaVuSans-75"/>
      <use x="333.345703" xlink:href="#DejaVuSans-6e"/>
      <use x="396.724609" xlink:href="#DejaVuSans-63"/>
      <use x="451.705078" xlink:href="#DejaVuSans-74"/>
      <use x="490.914062" xlink:href="#DejaVuSans-69"/>
      <use x="518.697266" xlink:href="#DejaVuSans-6f"/>
      <use x="579.878906" xlink:href="#DejaVuSans-6e"/>
     </g>
    </g>
    <g id="line2d_20">
     <path d="M 146.527813 65.114219 
L 168.527813 65.114219 
" style="fill:none;stroke:#000000;stroke-dasharray:7.4,3.2;stroke-dashoffset:0;stroke-width:2;"/>
    </g>
    <g id="line2d_21"/>
    <g id="text_19">
     <!-- predicted function -->
     <g transform="translate(177.327813 68.964219)scale(0.11 -0.11)">
      <defs>
       <path d="M 1159 525 
L 1159 -1331 
L 581 -1331 
L 581 3500 
L 1159 3500 
L 1159 2969 
Q 1341 3281 1617 3432 
Q 1894 3584 2278 3584 
Q 2916 3584 3314 3078 
Q 3713 2572 3713 1747 
Q 3713 922 3314 415 
Q 2916 -91 2278 -91 
Q 1894 -91 1617 61 
Q 1341 213 1159 525 
z
M 3116 1747 
Q 3116 2381 2855 2742 
Q 2594 3103 2138 3103 
Q 1681 3103 1420 2742 
Q 1159 2381 1159 1747 
Q 1159 1113 1420 752 
Q 1681 391 2138 391 
Q 2594 391 2855 752 
Q 3116 1113 3116 1747 
z
" id="DejaVuSans-70" transform="scale(0.015625)"/>
      </defs>
      <use xlink:href="#DejaVuSans-70"/>
      <use x="63.476562" xlink:href="#DejaVuSans-72"/>
      <use x="102.339844" xlink:href="#DejaVuSans-65"/>
      <use x="163.863281" xlink:href="#DejaVuSans-64"/>
      <use x="227.339844" xlink:href="#DejaVuSans-69"/>
      <use x="255.123047" xlink:href="#DejaVuSans-63"/>
      <use x="310.103516" xlink:href="#DejaVuSans-74"/>
      <use x="349.3125" xlink:href="#DejaVuSans-65"/>
      <use x="410.835938" xlink:href="#DejaVuSans-64"/>
      <use x="474.3125" xlink:href="#DejaVuSans-20"/>
      <use x="506.099609" xlink:href="#DejaVuSans-66"/>
      <use x="541.304688" xlink:href="#DejaVuSans-75"/>
      <use x="604.683594" xlink:href="#DejaVuSans-6e"/>
      <use x="668.0625" xlink:href="#DejaVuSans-63"/>
      <use x="723.042969" xlink:href="#DejaVuSans-74"/>
      <use x="762.251953" xlink:href="#DejaVuSans-69"/>
      <use x="790.035156" xlink:href="#DejaVuSans-6f"/>
      <use x="851.216797" xlink:href="#DejaVuSans-6e"/>
     </g>
    </g>
    <g id="line2d_22">
     <path d="M 146.527813 81.260156 
L 168.527813 81.260156 
" style="fill:none;stroke:#008000;stroke-dasharray:3.7,1.6;stroke-dashoffset:0;"/>
    </g>
    <g id="line2d_23"/>
    <g id="text_20">
     <!--  ± Sn(x) -->
     <g transform="translate(177.327813 85.110156)scale(0.11 -0.11)">
      <defs>
       <path d="M 2944 4013 
L 2944 2803 
L 4684 2803 
L 4684 2272 
L 2944 2272 
L 2944 1063 
L 2419 1063 
L 2419 2272 
L 678 2272 
L 678 2803 
L 2419 2803 
L 2419 4013 
L 2944 4013 
z
M 678 531 
L 4684 531 
L 4684 0 
L 678 0 
L 678 531 
z
" id="DejaVuSans-b1" transform="scale(0.015625)"/>
       <path d="M 3425 4513 
L 3425 3897 
Q 3066 4069 2747 4153 
Q 2428 4238 2131 4238 
Q 1616 4238 1336 4038 
Q 1056 3838 1056 3469 
Q 1056 3159 1242 3001 
Q 1428 2844 1947 2747 
L 2328 2669 
Q 3034 2534 3370 2195 
Q 3706 1856 3706 1288 
Q 3706 609 3251 259 
Q 2797 -91 1919 -91 
Q 1588 -91 1214 -16 
Q 841 59 441 206 
L 441 856 
Q 825 641 1194 531 
Q 1563 422 1919 422 
Q 2459 422 2753 634 
Q 3047 847 3047 1241 
Q 3047 1584 2836 1778 
Q 2625 1972 2144 2069 
L 1759 2144 
Q 1053 2284 737 2584 
Q 422 2884 422 3419 
Q 422 4038 858 4394 
Q 1294 4750 2059 4750 
Q 2388 4750 2728 4690 
Q 3069 4631 3425 4513 
z
" id="DejaVuSans-53" transform="scale(0.015625)"/>
       <path d="M 1984 4856 
Q 1566 4138 1362 3434 
Q 1159 2731 1159 2009 
Q 1159 1288 1364 580 
Q 1569 -128 1984 -844 
L 1484 -844 
Q 1016 -109 783 600 
Q 550 1309 550 2009 
Q 550 2706 781 3412 
Q 1013 4119 1484 4856 
L 1984 4856 
z
" id="DejaVuSans-28" transform="scale(0.015625)"/>
       <path d="M 513 4856 
L 1013 4856 
Q 1481 4119 1714 3412 
Q 1947 2706 1947 2009 
Q 1947 1309 1714 600 
Q 1481 -109 1013 -844 
L 513 -844 
Q 928 -128 1133 580 
Q 1338 1288 1338 2009 
Q 1338 2731 1133 3434 
Q 928 4138 513 4856 
z
" id="DejaVuSans-29" transform="scale(0.015625)"/>
      </defs>
      <use xlink:href="#DejaVuSans-20"/>
      <use x="31.787109" xlink:href="#DejaVuSans-b1"/>
      <use x="115.576172" xlink:href="#DejaVuSans-20"/>
      <use x="147.363281" xlink:href="#DejaVuSans-53"/>
      <use x="210.839844" xlink:href="#DejaVuSans-6e"/>
      <use x="274.21875" xlink:href="#DejaVuSans-28"/>
      <use x="313.232422" xlink:href="#DejaVuSans-78"/>
      <use x="372.412109" xlink:href="#DejaVuSans-29"/>
     </g>
    </g>
    <g id="line2d_24">
     <path d="M 146.527813 97.406094 
L 168.527813 97.406094 
" style="fill:none;stroke:#bfbf00;stroke-dasharray:7.4,3.2;stroke-dashoffset:0;stroke-width:2;"/>
    </g>
    <g id="line2d_25"/>
    <g id="text_21">
     <!-- EI(x) -->
     <g transform="translate(177.327813 101.256094)scale(0.11 -0.11)">
      <use xlink:href="#DejaVuSans-45"/>
      <use x="63.183594" xlink:href="#DejaVuSans-49"/>
      <use x="92.675781" xlink:href="#DejaVuSans-28"/>
      <use x="131.689453" xlink:href="#DejaVuSans-78"/>
      <use x="190.869141" xlink:href="#DejaVuSans-29"/>
     </g>
    </g>
    <g id="PathCollection_2">
     <defs>
      <path d="M 0 3.535534 
C 0.937635 3.535534 1.836992 3.163008 2.5 2.5 
C 3.163008 1.836992 3.535534 0.937635 3.535534 0 
C 3.535534 -0.937635 3.163008 -1.836992 2.5 -2.5 
C 1.836992 -3.163008 0.937635 -3.535534 0 -3.535534 
C -0.937635 -3.535534 -1.836992 -3.163008 -2.5 -2.5 
C -3.163008 -1.836992 -3.535534 -0.937635 -3.535534 0 
C -3.535534 0.937635 -3.163008 1.836992 -2.5 2.5 
C -1.836992 3.163008 -0.937635 3.535534 0 3.535534 
z
" id="m54562b9852" style="stroke:#000000;"/>
     </defs>
     <g>
      <use style="fill:#ff0000;stroke:#000000;" x="157.527813" xlink:href="#m54562b9852" y="114.514531"/>
     </g>
    </g>
    <g id="text_22">
     <!-- training data -->
     <g transform="translate(177.327813 117.402031)scale(0.11 -0.11)">
      <defs>
       <path d="M 2194 1759 
Q 1497 1759 1228 1600 
Q 959 1441 959 1056 
Q 959 750 1161 570 
Q 1363 391 1709 391 
Q 2188 391 2477 730 
Q 2766 1069 2766 1631 
L 2766 1759 
L 2194 1759 
z
M 3341 1997 
L 3341 0 
L 2766 0 
L 2766 531 
Q 2569 213 2275 61 
Q 1981 -91 1556 -91 
Q 1019 -91 701 211 
Q 384 513 384 1019 
Q 384 1609 779 1909 
Q 1175 2209 1959 2209 
L 2766 2209 
L 2766 2266 
Q 2766 2663 2505 2880 
Q 2244 3097 1772 3097 
Q 1472 3097 1187 3025 
Q 903 2953 641 2809 
L 641 3341 
Q 956 3463 1253 3523 
Q 1550 3584 1831 3584 
Q 2591 3584 2966 3190 
Q 3341 2797 3341 1997 
z
" id="DejaVuSans-61" transform="scale(0.015625)"/>
       <path d="M 2906 1791 
Q 2906 2416 2648 2759 
Q 2391 3103 1925 3103 
Q 1463 3103 1205 2759 
Q 947 2416 947 1791 
Q 947 1169 1205 825 
Q 1463 481 1925 481 
Q 2391 481 2648 825 
Q 2906 1169 2906 1791 
z
M 3481 434 
Q 3481 -459 3084 -895 
Q 2688 -1331 1869 -1331 
Q 1566 -1331 1297 -1286 
Q 1028 -1241 775 -1147 
L 775 -588 
Q 1028 -725 1275 -790 
Q 1522 -856 1778 -856 
Q 2344 -856 2625 -561 
Q 2906 -266 2906 331 
L 2906 616 
Q 2728 306 2450 153 
Q 2172 0 1784 0 
Q 1141 0 747 490 
Q 353 981 353 1791 
Q 353 2603 747 3093 
Q 1141 3584 1784 3584 
Q 2172 3584 2450 3431 
Q 2728 3278 2906 2969 
L 2906 3500 
L 3481 3500 
L 3481 434 
z
" id="DejaVuSans-67" transform="scale(0.015625)"/>
      </defs>
      <use xlink:href="#DejaVuSans-74"/>
      <use x="39.208984" xlink:href="#DejaVuSans-72"/>
      <use x="80.322266" xlink:href="#DejaVuSans-61"/>
      <use x="141.601562" xlink:href="#DejaVuSans-69"/>
      <use x="169.384766" xlink:href="#DejaVuSans-6e"/>
      <use x="232.763672" xlink:href="#DejaVuSans-69"/>
      <use x="260.546875" xlink:href="#DejaVuSans-6e"/>
      <use x="323.925781" xlink:href="#DejaVuSans-67"/>
      <use x="387.402344" xlink:href="#DejaVuSans-20"/>
      <use x="419.189453" xlink:href="#DejaVuSans-64"/>
      <use x="482.666016" xlink:href="#DejaVuSans-61"/>
      <use x="543.945312" xlink:href="#DejaVuSans-74"/>
      <use x="583.154297" xlink:href="#DejaVuSans-61"/>
     </g>
    </g>
    <g id="PathCollection_3">
     <g>
      <use style="fill:#ff0000;stroke:#ff0000;stroke-width:8;" x="157.527813" xlink:href="#m18fee93958" y="130.660469"/>
     </g>
    </g>
    <g id="text_23">
     <!-- recommended datum -->
     <g transform="translate(177.327813 133.547969)scale(0.11 -0.11)">
      <defs>
       <path d="M 3328 2828 
Q 3544 3216 3844 3400 
Q 4144 3584 4550 3584 
Q 5097 3584 5394 3201 
Q 5691 2819 5691 2113 
L 5691 0 
L 5113 0 
L 5113 2094 
Q 5113 2597 4934 2840 
Q 4756 3084 4391 3084 
Q 3944 3084 3684 2787 
Q 3425 2491 3425 1978 
L 3425 0 
L 2847 0 
L 2847 2094 
Q 2847 2600 2669 2842 
Q 2491 3084 2119 3084 
Q 1678 3084 1418 2786 
Q 1159 2488 1159 1978 
L 1159 0 
L 581 0 
L 581 3500 
L 1159 3500 
L 1159 2956 
Q 1356 3278 1631 3431 
Q 1906 3584 2284 3584 
Q 2666 3584 2933 3390 
Q 3200 3197 3328 2828 
z
" id="DejaVuSans-6d" transform="scale(0.015625)"/>
      </defs>
      <use xlink:href="#DejaVuSans-72"/>
      <use x="38.863281" xlink:href="#DejaVuSans-65"/>
      <use x="100.386719" xlink:href="#DejaVuSans-63"/>
      <use x="155.367188" xlink:href="#DejaVuSans-6f"/>
      <use x="216.548828" xlink:href="#DejaVuSans-6d"/>
      <use x="313.960938" xlink:href="#DejaVuSans-6d"/>
      <use x="411.373047" xlink:href="#DejaVuSans-65"/>
      <use x="472.896484" xlink:href="#DejaVuSans-6e"/>
      <use x="536.275391" xlink:href="#DejaVuSans-64"/>
      <use x="599.751953" xlink:href="#DejaVuSans-65"/>
      <use x="661.275391" xlink:href="#DejaVuSans-64"/>
      <use x="724.751953" xlink:href="#DejaVuSans-20"/>
      <use x="756.539062" xlink:href="#DejaVuSans-64"/>
      <use x="820.015625" xlink:href="#DejaVuSans-61"/>
      <use x="881.294922" xlink:href="#DejaVuSans-74"/>
      <use x="920.503906" xlink:href="#DejaVuSans-75"/>
      <use x="983.882812" xlink:href="#DejaVuSans-6d"/>
     </g>
    </g>
   </g>
   <g id="line2d_26">
    <path clip-path="url(#p9efe327890)" d="M 69.218182 132.822898 
L 71.985124 131.328361 
L 74.752066 130.767407 
L 77.519008 131.242617 
L 80.28595 132.809385 
L 83.052893 135.468752 
L 85.819835 139.164235 
L 88.586777 143.783172 
L 91.353719 149.162665 
L 94.120661 155.099688 
L 96.887603 161.364469 
L 99.654545 167.715908 
L 102.421488 173.917578 
L 105.18843 179.75282 
L 107.955372 185.037613 
L 110.722314 189.630174 
L 113.489256 193.436668 
L 116.256198 196.412843 
L 119.02314 198.561854 
L 121.790083 199.928869 
L 124.557025 200.593319 
L 127.323967 200.659732 
L 130.090909 200.248104 
L 132.857851 199.484611 
L 135.624793 198.49329 
L 138.391736 197.389094 
L 141.158678 196.272529 
L 143.92562 195.225904 
L 146.692562 194.311113 
L 149.459504 193.568799 
L 152.226446 193.018741 
L 154.993388 192.661284 
L 157.760331 192.479661 
L 160.527273 192.44304 
L 163.294215 192.510128 
L 166.061157 192.633135 
L 168.828099 192.761865 
L 171.595041 192.847686 
L 174.361983 192.847113 
L 177.128926 192.724776 
L 179.895868 192.45555 
L 182.66281 192.025752 
L 185.429752 191.433345 
L 188.196694 190.687212 
L 190.963636 189.805641 
L 193.730579 188.814223 
L 196.497521 187.743402 
L 199.264463 186.625935 
L 202.031405 185.494494 
L 204.798347 184.379592 
L 207.565289 183.307977 
L 210.332231 182.301556 
L 213.099174 181.376867 
L 215.866116 180.545048 
L 218.633058 179.812245 
L 221.4 179.180346 
L 224.166942 178.647945 
L 226.933884 178.21144 
L 229.700826 177.866176 
L 232.467769 177.607571 
L 235.234711 177.432181 
L 238.001653 177.338664 
L 240.768595 177.328627 
L 243.535537 177.407328 
L 246.302479 177.584227 
L 249.069421 177.873327 
L 251.836364 178.293283 
L 254.603306 178.867198 
L 257.370248 179.622054 
L 260.13719 180.587678 
L 262.904132 181.795183 
L 265.671074 183.274815 
L 268.438017 185.053177 
L 271.204959 187.149843 
L 273.971901 189.573445 
L 276.738843 192.31737 
L 279.505785 195.355331 
L 282.272727 198.637112 
L 285.039669 202.084931 
L 287.806612 205.590875 
L 290.573554 209.01596 
L 293.340496 212.191304 
L 296.107438 214.921882 
L 298.87438 216.993177 
L 301.641322 218.18083 
L 304.408264 218.263143 
L 307.175207 217.03591 
L 309.942149 214.328775 
L 312.709091 210.021884 
L 315.476033 204.06143 
L 318.242975 196.472458 
L 321.009917 187.367343 
L 323.77686 176.948572 
L 326.543802 165.50483 
L 329.310744 153.399993 
L 332.077686 141.055338 
L 334.844628 128.926009 
L 337.61157 117.4735 
L 340.378512 107.136416 
L 343.145455 98.302122 
L 345.912397 91.281873 
L 348.679339 86.291711 
L 351.446281 83.440857 
L 354.213223 82.728531 
L 356.980165 84.049235 
L 359.747107 87.20567 
L 362.51405 91.927709 
L 365.280992 97.895337 
L 368.047934 104.763193 
L 370.814876 112.184432 
L 373.581818 119.831882 
" style="fill:none;stroke:#000000;stroke-dasharray:7.4,3.2;stroke-dashoffset:0;stroke-width:2;"/>
   </g>
   <g id="PathCollection_4">
    <g clip-path="url(#p9efe327890)">
     <use style="fill:#ff0000;stroke:#000000;" x="83.052893" xlink:href="#m54562b9852" y="129.399309"/>
     <use style="fill:#ff0000;stroke:#000000;" x="96.887603" xlink:href="#m54562b9852" y="162.429541"/>
     <use style="fill:#ff0000;stroke:#000000;" x="110.722314" xlink:href="#m54562b9852" y="193.170209"/>
     <use style="fill:#ff0000;stroke:#000000;" x="124.557025" xlink:href="#m54562b9852" y="199.248575"/>
     <use style="fill:#ff0000;stroke:#000000;" x="138.391736" xlink:href="#m54562b9852" y="199.347548"/>
     <use style="fill:#ff0000;stroke:#000000;" x="152.226446" xlink:href="#m54562b9852" y="191.611971"/>
     <use style="fill:#ff0000;stroke:#000000;" x="166.061157" xlink:href="#m54562b9852" y="193.66847"/>
     <use style="fill:#ff0000;stroke:#000000;" x="179.895868" xlink:href="#m54562b9852" y="193.283098"/>
     <use style="fill:#ff0000;stroke:#000000;" x="193.730579" xlink:href="#m54562b9852" y="188.924027"/>
     <use style="fill:#ff0000;stroke:#000000;" x="318.242975" xlink:href="#m54562b9852" y="199.289596"/>
     <use style="fill:#ff0000;stroke:#000000;" x="332.077686" xlink:href="#m54562b9852" y="145.37007"/>
     <use style="fill:#ff0000;stroke:#000000;" x="345.912397" xlink:href="#m54562b9852" y="78.407322"/>
     <use style="fill:#ff0000;stroke:#000000;" x="304.408264" xlink:href="#m54562b9852" y="220.010367"/>
    </g>
   </g>
  </g>
 </g>
 <defs>
  <clipPath id="p9efe327890">
   <rect height="217.44" width="334.8" x="54" y="34.56"/>
  </clipPath>
 </defs>
</svg>
