<?xml version="1.0" encoding="utf-8" standalone="no"?>
<!DOCTYPE svg PUBLIC "-//W3C//DTD SVG 1.1//EN"
  "http://www.w3.org/Graphics/SVG/1.1/DTD/svg11.dtd">
<svg height="288pt" version="1.1" viewBox="0 0 432 288" width="432pt" xmlns="http://www.w3.org/2000/svg" xmlns:xlink="http://www.w3.org/1999/xlink">
 <metadata>
  <rdf:RDF xmlns:cc="http://creativecommons.org/ns#" xmlns:dc="http://purl.org/dc/elements/1.1/" xmlns:rdf="http://www.w3.org/1999/02/22-rdf-syntax-ns#">
   <cc:Work>
    <dc:type rdf:resource="http://purl.org/dc/dcmitype/StillImage"/>
    <dc:date>2022-08-02T11:36:54.228136</dc:date>
    <dc:format>image/svg+xml</dc:format>
    <dc:creator>
     <cc:Agent>
      <dc:title>Matplotlib v3.4.3, https://matplotlib.org/</dc:title>
     </cc:Agent>
    </dc:creator>
   </cc:Work>
  </rdf:RDF>
 </metadata>
 <defs>
  <style type="text/css">*{stroke-linecap:butt;stroke-linejoin:round;}</style>
 </defs>
 <g id="figure_1">
  <g id="patch_1">
   <path d="M 0 288 
L 432 288 
L 432 0 
L 0 0 
z
" style="fill:none;"/>
  </g>
  <g id="axes_1">
   <g id="patch_2">
    <path d="M 54 252 
L 388.8 252 
L 388.8 34.56 
L 54 34.56 
z
" style="fill:#ffffff;"/>
   </g>
   <g id="PolyCollection_1">
    <defs>
     <path d="M 69.218182 -168.13897 
L 69.218182 -121.917281 
L 71.985124 -124.204742 
L 74.752066 -125.855206 
L 77.519008 -126.797216 
L 80.28595 -126.977883 
L 83.052893 -126.368496 
L 85.819835 -124.970679 
L 88.586777 -122.821969 
L 91.353719 -119.99844 
L 94.120661 -116.611692 
L 96.887603 -112.799495 
L 99.654545 -108.712554 
L 102.421488 -104.501428 
L 105.18843 -100.30649 
L 107.955372 -96.251672 
L 110.722314 -92.441261 
L 113.489256 -88.958719 
L 116.256198 -85.866727 
L 119.02314 -83.207945 
L 121.790083 -81.006206 
L 124.557025 -79.267981 
L 127.323967 -77.984016 
L 130.090909 -77.131129 
L 132.857851 -76.674174 
L 135.624793 -76.568242 
L 138.391736 -76.761116 
L 141.158678 -77.195985 
L 143.92562 -77.814352 
L 146.692562 -78.558992 
L 149.459504 -79.376774 
L 152.226446 -80.221105 
L 154.993388 -81.053717 
L 157.760331 -81.845573 
L 160.527273 -82.576688 
L 163.294215 -83.234805 
L 166.061157 -83.812989 
L 168.828099 -84.306366 
L 171.595041 -84.708408 
L 174.361983 -85.007367 
L 177.128926 -85.183754 
L 179.895868 -85.210014 
L 182.66281 -85.053497 
L 185.429752 -84.682991 
L 188.196694 -84.077323 
L 190.963636 -83.232777 
L 193.730579 -82.166241 
L 196.497521 -80.913227 
L 199.264463 -79.522485 
L 202.031405 -78.049679 
L 204.798347 -76.551761 
L 207.565289 -75.082563 
L 210.332231 -73.689451 
L 213.099174 -72.410735 
L 215.866116 -71.273614 
L 218.633058 -70.292558 
L 221.4 -69.468133 
L 224.166942 -68.786359 
L 226.933884 -68.218739 
L 229.700826 -67.723146 
L 232.467769 -67.245834 
L 235.234711 -66.724898 
L 238.001653 -66.095522 
L 240.768595 -65.297141 
L 243.535537 -64.282034 
L 246.302479 -63.023866 
L 249.069421 -61.523676 
L 251.836364 -59.810908 
L 254.603306 -57.938777 
L 257.370248 -55.975651 
L 260.13719 -53.995494 
L 262.904132 -52.069977 
L 265.671074 -50.263348 
L 268.438017 -48.629956 
L 271.204959 -47.213707 
L 273.971901 -46.048813 
L 276.738843 -45.161499 
L 279.505785 -44.572843 
L 282.272727 -44.303325 
L 285.039669 -44.379525 
L 287.806612 -44.841956 
L 290.573554 -45.750547 
L 293.340496 -47.183276 
L 296.107438 -49.226688 
L 298.87438 -51.962189 
L 301.641322 -55.453682 
L 304.408264 -59.739536 
L 307.175207 -64.828778 
L 309.942149 -70.700089 
L 312.709091 -77.302258 
L 315.476033 -84.555245 
L 318.242975 -92.35149 
L 321.009917 -100.557342 
L 323.77686 -109.014703 
L 326.543802 -117.543181 
L 329.310744 -125.943284 
L 332.077686 -134.001547 
L 334.844628 -141.498735 
L 337.61157 -148.221931 
L 340.378512 -153.979734 
L 343.145455 -158.617378 
L 345.912397 -162.027348 
L 348.679339 -164.152871 
L 351.446281 -164.985205 
L 354.213223 -164.557673 
L 356.980165 -162.938969 
L 359.747107 -160.226806 
L 362.51405 -156.54195 
L 365.280992 -152.022416 
L 368.047934 -146.817655 
L 370.814876 -141.082801 
L 373.581818 -134.973094 
L 373.581818 -198.126495 
L 373.581818 -198.126495 
L 370.814876 -201.232166 
L 368.047934 -203.719667 
L 365.280992 -205.478962 
L 362.51405 -206.413909 
L 359.747107 -206.447232 
L 356.980165 -205.524951 
L 354.213223 -203.619842 
L 351.446281 -200.73342 
L 348.679339 -196.895796 
L 345.912397 -192.162799 
L 343.145455 -186.610146 
L 340.378512 -180.325633 
L 337.61157 -173.401934 
L 334.844628 -165.933187 
L 332.077686 -158.016644 
L 329.310744 -149.757261 
L 326.543802 -141.271367 
L 323.77686 -132.686839 
L 321.009917 -124.139613 
L 318.242975 -115.767898 
L 315.476033 -107.705736 
L 312.709091 -100.077174 
L 309.942149 -92.991846 
L 307.175207 -86.542382 
L 304.408264 -80.803736 
L 301.641322 -75.834241 
L 298.87438 -71.677777 
L 296.107438 -68.365967 
L 293.340496 -65.91875 
L 290.573554 -64.341568 
L 287.806612 -63.61874 
L 285.039669 -63.705727 
L 282.272727 -64.525566 
L 279.505785 -65.973162 
L 276.738843 -67.925973 
L 273.971901 -70.256489 
L 271.204959 -72.842889 
L 268.438017 -75.576848 
L 265.671074 -78.368892 
L 262.904132 -81.151908 
L 260.13719 -83.882989 
L 257.370248 -86.543371 
L 254.603306 -89.135853 
L 251.836364 -91.679098 
L 249.069421 -94.198772 
L 246.302479 -96.716738 
L 243.535537 -99.240996 
L 240.768595 -101.759511 
L 238.001653 -104.239727 
L 235.234711 -106.633108 
L 232.467769 -108.882391 
L 229.700826 -110.929081 
L 226.933884 -112.71974 
L 224.166942 -114.210574 
L 221.4 -115.370443 
L 218.633058 -116.182582 
L 215.866116 -116.645315 
L 213.099174 -116.771963 
L 210.332231 -116.590076 
L 207.565289 -116.140083 
L 204.798347 -115.473384 
L 202.031405 -114.649894 
L 199.264463 -113.734924 
L 196.497521 -112.795205 
L 193.730579 -111.893793 
L 190.963636 -111.083781 
L 188.196694 -110.401407 
L 185.429752 -109.860297 
L 182.66281 -109.449411 
L 179.895868 -109.136479 
L 177.128926 -108.876162 
L 174.361983 -108.619848 
L 171.595041 -108.323868 
L 168.828099 -107.95455 
L 166.061157 -107.490318 
L 163.294215 -106.921773 
L 160.527273 -106.250754 
L 157.760331 -105.489049 
L 154.993388 -104.657167 
L 152.226446 -103.78333 
L 149.459504 -102.902738 
L 146.692562 -102.056987 
L 143.92562 -101.293486 
L 141.158678 -100.664619 
L 138.391736 -100.226467 
L 135.624793 -100.036919 
L 132.857851 -100.153141 
L 130.090909 -100.628467 
L 127.323967 -101.508912 
L 124.557025 -102.829606 
L 121.790083 -104.611524 
L 119.02314 -106.858934 
L 116.256198 -109.557934 
L 113.489256 -112.676382 
L 110.722314 -116.165392 
L 107.955372 -119.962368 
L 105.18843 -123.995412 
L 102.421488 -128.188651 
L 99.654545 -132.467742 
L 96.887603 -136.764425 
L 94.120661 -141.018634 
L 91.353719 -145.177041 
L 88.586777 -149.188246 
L 85.819835 -152.997076 
L 83.052893 -156.541631 
L 80.28595 -159.755198 
L 77.519008 -162.572104 
L 74.752066 -164.934716 
L 71.985124 -166.799191 
L 69.218182 -168.13897 
z
" id="med4feaa766" style="stroke:#add8e6;stroke-opacity:0.2;"/>
    </defs>
    <g clip-path="url(#p66b14f88a2)">
     <use style="fill:#add8e6;fill-opacity:0.2;stroke:#add8e6;stroke-opacity:0.2;" x="0" xlink:href="#med4feaa766" y="288"/>
    </g>
   </g>
   <g id="PathCollection_1">
    <defs>
     <path d="M 0 0.612372 
C 0.162403 0.612372 0.318176 0.547849 0.433013 0.433013 
C 0.547849 0.318176 0.612372 0.162403 0.612372 0 
C 0.612372 -0.162403 0.547849 -0.318176 0.433013 -0.433013 
C 0.318176 -0.547849 0.162403 -0.612372 0 -0.612372 
C -0.162403 -0.612372 -0.318176 -0.547849 -0.433013 -0.433013 
C -0.547849 -0.318176 -0.612372 -0.162403 -0.612372 0 
C -0.612372 0.162403 -0.547849 0.318176 -0.433013 0.433013 
C -0.318176 0.547849 -0.162403 0.612372 0 0.612372 
z
" id="m53dcc80469" style="stroke:#ff0000;stroke-width:8;"/>
    </defs>
    <g clip-path="url(#p66b14f88a2)">
     <use style="fill:#ff0000;stroke:#ff0000;stroke-width:8;" x="276.738843" xlink:href="#m53dcc80469" y="249.517406"/>
    </g>
   </g>
   <g id="matplotlib.axis_1">
    <g id="xtick_1">
     <g id="line2d_1">
      <defs>
       <path d="M 0 0 
L 0 3.5 
" id="m84ba342ee9" style="stroke:#000000;stroke-width:0.8;"/>
      </defs>
      <g>
       <use style="stroke:#000000;stroke-width:0.8;" x="69.218182" xlink:href="#m84ba342ee9" y="252"/>
      </g>
     </g>
     <g id="text_1">
      <!-- 0 -->
      <g transform="translate(66.036932 266.598437)scale(0.1 -0.1)">
       <defs>
        <path d="M 2034 4250 
Q 1547 4250 1301 3770 
Q 1056 3291 1056 2328 
Q 1056 1369 1301 889 
Q 1547 409 2034 409 
Q 2525 409 2770 889 
Q 3016 1369 3016 2328 
Q 3016 3291 2770 3770 
Q 2525 4250 2034 4250 
z
M 2034 4750 
Q 2819 4750 3233 4129 
Q 3647 3509 3647 2328 
Q 3647 1150 3233 529 
Q 2819 -91 2034 -91 
Q 1250 -91 836 529 
Q 422 1150 422 2328 
Q 422 3509 836 4129 
Q 1250 4750 2034 4750 
z
" id="DejaVuSans-30" transform="scale(0.015625)"/>
       </defs>
       <use xlink:href="#DejaVuSans-30"/>
      </g>
     </g>
    </g>
    <g id="xtick_2">
     <g id="line2d_2">
      <g>
       <use style="stroke:#000000;stroke-width:0.8;" x="124.557025" xlink:href="#m84ba342ee9" y="252"/>
      </g>
     </g>
     <g id="text_2">
      <!-- 2 -->
      <g transform="translate(121.375775 266.598437)scale(0.1 -0.1)">
       <defs>
        <path d="M 1228 531 
L 3431 531 
L 3431 0 
L 469 0 
L 469 531 
Q 828 903 1448 1529 
Q 2069 2156 2228 2338 
Q 2531 2678 2651 2914 
Q 2772 3150 2772 3378 
Q 2772 3750 2511 3984 
Q 2250 4219 1831 4219 
Q 1534 4219 1204 4116 
Q 875 4013 500 3803 
L 500 4441 
Q 881 4594 1212 4672 
Q 1544 4750 1819 4750 
Q 2544 4750 2975 4387 
Q 3406 4025 3406 3419 
Q 3406 3131 3298 2873 
Q 3191 2616 2906 2266 
Q 2828 2175 2409 1742 
Q 1991 1309 1228 531 
z
" id="DejaVuSans-32" transform="scale(0.015625)"/>
       </defs>
       <use xlink:href="#DejaVuSans-32"/>
      </g>
     </g>
    </g>
    <g id="xtick_3">
     <g id="line2d_3">
      <g>
       <use style="stroke:#000000;stroke-width:0.8;" x="179.895868" xlink:href="#m84ba342ee9" y="252"/>
      </g>
     </g>
     <g id="text_3">
      <!-- 4 -->
      <g transform="translate(176.714618 266.598437)scale(0.1 -0.1)">
       <defs>
        <path d="M 2419 4116 
L 825 1625 
L 2419 1625 
L 2419 4116 
z
M 2253 4666 
L 3047 4666 
L 3047 1625 
L 3713 1625 
L 3713 1100 
L 3047 1100 
L 3047 0 
L 2419 0 
L 2419 1100 
L 313 1100 
L 313 1709 
L 2253 4666 
z
" id="DejaVuSans-34" transform="scale(0.015625)"/>
       </defs>
       <use xlink:href="#DejaVuSans-34"/>
      </g>
     </g>
    </g>
    <g id="xtick_4">
     <g id="line2d_4">
      <g>
       <use style="stroke:#000000;stroke-width:0.8;" x="235.234711" xlink:href="#m84ba342ee9" y="252"/>
      </g>
     </g>
     <g id="text_4">
      <!-- 6 -->
      <g transform="translate(232.053461 266.598437)scale(0.1 -0.1)">
       <defs>
        <path d="M 2113 2584 
Q 1688 2584 1439 2293 
Q 1191 2003 1191 1497 
Q 1191 994 1439 701 
Q 1688 409 2113 409 
Q 2538 409 2786 701 
Q 3034 994 3034 1497 
Q 3034 2003 2786 2293 
Q 2538 2584 2113 2584 
z
M 3366 4563 
L 3366 3988 
Q 3128 4100 2886 4159 
Q 2644 4219 2406 4219 
Q 1781 4219 1451 3797 
Q 1122 3375 1075 2522 
Q 1259 2794 1537 2939 
Q 1816 3084 2150 3084 
Q 2853 3084 3261 2657 
Q 3669 2231 3669 1497 
Q 3669 778 3244 343 
Q 2819 -91 2113 -91 
Q 1303 -91 875 529 
Q 447 1150 447 2328 
Q 447 3434 972 4092 
Q 1497 4750 2381 4750 
Q 2619 4750 2861 4703 
Q 3103 4656 3366 4563 
z
" id="DejaVuSans-36" transform="scale(0.015625)"/>
       </defs>
       <use xlink:href="#DejaVuSans-36"/>
      </g>
     </g>
    </g>
    <g id="xtick_5">
     <g id="line2d_5">
      <g>
       <use style="stroke:#000000;stroke-width:0.8;" x="290.573554" xlink:href="#m84ba342ee9" y="252"/>
      </g>
     </g>
     <g id="text_5">
      <!-- 8 -->
      <g transform="translate(287.392304 266.598437)scale(0.1 -0.1)">
       <defs>
        <path d="M 2034 2216 
Q 1584 2216 1326 1975 
Q 1069 1734 1069 1313 
Q 1069 891 1326 650 
Q 1584 409 2034 409 
Q 2484 409 2743 651 
Q 3003 894 3003 1313 
Q 3003 1734 2745 1975 
Q 2488 2216 2034 2216 
z
M 1403 2484 
Q 997 2584 770 2862 
Q 544 3141 544 3541 
Q 544 4100 942 4425 
Q 1341 4750 2034 4750 
Q 2731 4750 3128 4425 
Q 3525 4100 3525 3541 
Q 3525 3141 3298 2862 
Q 3072 2584 2669 2484 
Q 3125 2378 3379 2068 
Q 3634 1759 3634 1313 
Q 3634 634 3220 271 
Q 2806 -91 2034 -91 
Q 1263 -91 848 271 
Q 434 634 434 1313 
Q 434 1759 690 2068 
Q 947 2378 1403 2484 
z
M 1172 3481 
Q 1172 3119 1398 2916 
Q 1625 2713 2034 2713 
Q 2441 2713 2670 2916 
Q 2900 3119 2900 3481 
Q 2900 3844 2670 4047 
Q 2441 4250 2034 4250 
Q 1625 4250 1398 4047 
Q 1172 3844 1172 3481 
z
" id="DejaVuSans-38" transform="scale(0.015625)"/>
       </defs>
       <use xlink:href="#DejaVuSans-38"/>
      </g>
     </g>
    </g>
    <g id="xtick_6">
     <g id="line2d_6">
      <g>
       <use style="stroke:#000000;stroke-width:0.8;" x="345.912397" xlink:href="#m84ba342ee9" y="252"/>
      </g>
     </g>
     <g id="text_6">
      <!-- 10 -->
      <g transform="translate(339.549897 266.598437)scale(0.1 -0.1)">
       <defs>
        <path d="M 794 531 
L 1825 531 
L 1825 4091 
L 703 3866 
L 703 4441 
L 1819 4666 
L 2450 4666 
L 2450 531 
L 3481 531 
L 3481 0 
L 794 0 
L 794 531 
z
" id="DejaVuSans-31" transform="scale(0.015625)"/>
       </defs>
       <use xlink:href="#DejaVuSans-31"/>
       <use x="63.623047" xlink:href="#DejaVuSans-30"/>
      </g>
     </g>
    </g>
    <g id="text_7">
     <!-- x -->
     <g transform="translate(217.84875 281.79625)scale(0.12 -0.12)">
      <defs>
       <path d="M 3513 3500 
L 2247 1797 
L 3578 0 
L 2900 0 
L 1881 1375 
L 863 0 
L 184 0 
L 1544 1831 
L 300 3500 
L 978 3500 
L 1906 2253 
L 2834 3500 
L 3513 3500 
z
" id="DejaVuSans-78" transform="scale(0.015625)"/>
      </defs>
      <use xlink:href="#DejaVuSans-78"/>
     </g>
    </g>
   </g>
   <g id="matplotlib.axis_2">
    <g id="ytick_1">
     <g id="line2d_7">
      <defs>
       <path d="M 0 0 
L -3.5 0 
" id="m37fdf7f357" style="stroke:#000000;stroke-width:0.8;"/>
      </defs>
      <g>
       <use style="stroke:#000000;stroke-width:0.8;" x="54" xlink:href="#m37fdf7f357" y="252"/>
      </g>
     </g>
     <g id="text_8">
      <!-- 3 -->
      <g transform="translate(40.6375 255.799219)scale(0.1 -0.1)">
       <defs>
        <path d="M 2597 2516 
Q 3050 2419 3304 2112 
Q 3559 1806 3559 1356 
Q 3559 666 3084 287 
Q 2609 -91 1734 -91 
Q 1441 -91 1130 -33 
Q 819 25 488 141 
L 488 750 
Q 750 597 1062 519 
Q 1375 441 1716 441 
Q 2309 441 2620 675 
Q 2931 909 2931 1356 
Q 2931 1769 2642 2001 
Q 2353 2234 1838 2234 
L 1294 2234 
L 1294 2753 
L 1863 2753 
Q 2328 2753 2575 2939 
Q 2822 3125 2822 3475 
Q 2822 3834 2567 4026 
Q 2313 4219 1838 4219 
Q 1578 4219 1281 4162 
Q 984 4106 628 3988 
L 628 4550 
Q 988 4650 1302 4700 
Q 1616 4750 1894 4750 
Q 2613 4750 3031 4423 
Q 3450 4097 3450 3541 
Q 3450 3153 3228 2886 
Q 3006 2619 2597 2516 
z
" id="DejaVuSans-33" transform="scale(0.015625)"/>
       </defs>
       <use xlink:href="#DejaVuSans-33"/>
      </g>
     </g>
    </g>
    <g id="ytick_2">
     <g id="line2d_8">
      <g>
       <use style="stroke:#000000;stroke-width:0.8;" x="54" xlink:href="#m37fdf7f357" y="215.76"/>
      </g>
     </g>
     <g id="text_9">
      <!-- 4 -->
      <g transform="translate(40.6375 219.559219)scale(0.1 -0.1)">
       <use xlink:href="#DejaVuSans-34"/>
      </g>
     </g>
    </g>
    <g id="ytick_3">
     <g id="line2d_9">
      <g>
       <use style="stroke:#000000;stroke-width:0.8;" x="54" xlink:href="#m37fdf7f357" y="179.52"/>
      </g>
     </g>
     <g id="text_10">
      <!-- 5 -->
      <g transform="translate(40.6375 183.319219)scale(0.1 -0.1)">
       <defs>
        <path d="M 691 4666 
L 3169 4666 
L 3169 4134 
L 1269 4134 
L 1269 2991 
Q 1406 3038 1543 3061 
Q 1681 3084 1819 3084 
Q 2600 3084 3056 2656 
Q 3513 2228 3513 1497 
Q 3513 744 3044 326 
Q 2575 -91 1722 -91 
Q 1428 -91 1123 -41 
Q 819 9 494 109 
L 494 744 
Q 775 591 1075 516 
Q 1375 441 1709 441 
Q 2250 441 2565 725 
Q 2881 1009 2881 1497 
Q 2881 1984 2565 2268 
Q 2250 2553 1709 2553 
Q 1456 2553 1204 2497 
Q 953 2441 691 2322 
L 691 4666 
z
" id="DejaVuSans-35" transform="scale(0.015625)"/>
       </defs>
       <use xlink:href="#DejaVuSans-35"/>
      </g>
     </g>
    </g>
    <g id="ytick_4">
     <g id="line2d_10">
      <g>
       <use style="stroke:#000000;stroke-width:0.8;" x="54" xlink:href="#m37fdf7f357" y="143.28"/>
      </g>
     </g>
     <g id="text_11">
      <!-- 6 -->
      <g transform="translate(40.6375 147.079219)scale(0.1 -0.1)">
       <use xlink:href="#DejaVuSans-36"/>
      </g>
     </g>
    </g>
    <g id="ytick_5">
     <g id="line2d_11">
      <g>
       <use style="stroke:#000000;stroke-width:0.8;" x="54" xlink:href="#m37fdf7f357" y="107.04"/>
      </g>
     </g>
     <g id="text_12">
      <!-- 7 -->
      <g transform="translate(40.6375 110.839219)scale(0.1 -0.1)">
       <defs>
        <path d="M 525 4666 
L 3525 4666 
L 3525 4397 
L 1831 0 
L 1172 0 
L 2766 4134 
L 525 4134 
L 525 4666 
z
" id="DejaVuSans-37" transform="scale(0.015625)"/>
       </defs>
       <use xlink:href="#DejaVuSans-37"/>
      </g>
     </g>
    </g>
    <g id="ytick_6">
     <g id="line2d_12">
      <g>
       <use style="stroke:#000000;stroke-width:0.8;" x="54" xlink:href="#m37fdf7f357" y="70.8"/>
      </g>
     </g>
     <g id="text_13">
      <!-- 8 -->
      <g transform="translate(40.6375 74.599219)scale(0.1 -0.1)">
       <use xlink:href="#DejaVuSans-38"/>
      </g>
     </g>
    </g>
    <g id="ytick_7">
     <g id="line2d_13">
      <g>
       <use style="stroke:#000000;stroke-width:0.8;" x="54" xlink:href="#m37fdf7f357" y="34.56"/>
      </g>
     </g>
     <g id="text_14">
      <!-- 9 -->
      <g transform="translate(40.6375 38.359219)scale(0.1 -0.1)">
       <defs>
        <path d="M 703 97 
L 703 672 
Q 941 559 1184 500 
Q 1428 441 1663 441 
Q 2288 441 2617 861 
Q 2947 1281 2994 2138 
Q 2813 1869 2534 1725 
Q 2256 1581 1919 1581 
Q 1219 1581 811 2004 
Q 403 2428 403 3163 
Q 403 3881 828 4315 
Q 1253 4750 1959 4750 
Q 2769 4750 3195 4129 
Q 3622 3509 3622 2328 
Q 3622 1225 3098 567 
Q 2575 -91 1691 -91 
Q 1453 -91 1209 -44 
Q 966 3 703 97 
z
M 1959 2075 
Q 2384 2075 2632 2365 
Q 2881 2656 2881 3163 
Q 2881 3666 2632 3958 
Q 2384 4250 1959 4250 
Q 1534 4250 1286 3958 
Q 1038 3666 1038 3163 
Q 1038 2656 1286 2365 
Q 1534 2075 1959 2075 
z
" id="DejaVuSans-39" transform="scale(0.015625)"/>
       </defs>
       <use xlink:href="#DejaVuSans-39"/>
      </g>
     </g>
    </g>
    <g id="text_15">
     <!-- y -->
     <g transform="translate(34.141875 146.83125)rotate(-90)scale(0.12 -0.12)">
      <defs>
       <path d="M 2059 -325 
Q 1816 -950 1584 -1140 
Q 1353 -1331 966 -1331 
L 506 -1331 
L 506 -850 
L 844 -850 
Q 1081 -850 1212 -737 
Q 1344 -625 1503 -206 
L 1606 56 
L 191 3500 
L 800 3500 
L 1894 763 
L 2988 3500 
L 3597 3500 
L 2059 -325 
z
" id="DejaVuSans-79" transform="scale(0.015625)"/>
      </defs>
      <use xlink:href="#DejaVuSans-79"/>
     </g>
    </g>
   </g>
   <g id="line2d_14">
    <path clip-path="url(#p66b14f88a2)" d="M 69.218182 70.8 
L 71.985124 85.083949 
L 74.752066 98.25467 
L 77.519008 110.364828 
L 80.28595 121.465955 
L 83.052893 131.608455 
L 85.819835 140.841599 
L 88.586777 149.213528 
L 91.353719 156.771253 
L 94.120661 163.560654 
L 96.887603 169.62648 
L 99.654545 175.012349 
L 102.421488 179.76075 
L 105.18843 183.913038 
L 107.955372 187.509441 
L 110.722314 190.589055 
L 113.489256 193.189844 
L 116.256198 195.348643 
L 119.02314 197.101155 
L 121.790083 198.481953 
L 124.557025 199.52448 
L 127.323967 200.261047 
L 130.090909 200.722835 
L 132.857851 200.939895 
L 135.624793 200.941145 
L 138.391736 200.754375 
L 141.158678 200.406243 
L 143.92562 199.922276 
L 146.692562 199.326871 
L 149.459504 198.643294 
L 152.226446 197.89368 
L 154.993388 197.099035 
L 157.760331 196.279231 
L 160.527273 195.453014 
L 163.294215 194.637994 
L 166.061157 193.850655 
L 168.828099 193.106347 
L 171.595041 192.419291 
L 174.361983 191.802577 
L 177.128926 191.268164 
L 179.895868 190.82688 
L 182.66281 190.488424 
L 185.429752 190.261362 
L 188.196694 190.153131 
L 190.963636 190.170037 
L 193.730579 190.317255 
L 196.497521 190.598829 
L 199.264463 191.017673 
L 202.031405 191.575569 
L 204.798347 192.273171 
L 207.565289 193.11 
L 210.332231 194.084446 
L 213.099174 195.193771 
L 215.866116 196.434103 
L 218.633058 197.800442 
L 221.4 199.286655 
L 224.166942 200.88548 
L 226.933884 202.588525 
L 229.700826 204.386264 
L 232.467769 206.268045 
L 235.234711 208.22208 
L 238.001653 210.235455 
L 240.768595 212.294122 
L 243.535537 214.382905 
L 246.302479 216.485496 
L 249.069421 218.584455 
L 251.836364 220.661214 
L 254.603306 222.696071 
L 257.370248 224.668198 
L 260.13719 226.555631 
L 262.904132 228.33528 
L 265.671074 229.982921 
L 268.438017 231.4732 
L 271.204959 232.779634 
L 273.971901 233.874607 
L 276.738843 234.729375 
L 279.505785 235.31406 
L 282.272727 235.597656 
L 285.039669 235.548026 
L 287.806612 235.1319 
L 290.573554 234.31488 
L 293.340496 233.061436 
L 296.107438 231.334908 
L 298.87438 229.097505 
L 301.641322 226.310305 
L 304.408264 222.933255 
L 307.175207 218.925173 
L 309.942149 214.243744 
L 312.709091 208.845524 
L 315.476033 202.685938 
L 318.242975 195.71928 
L 321.009917 187.898713 
L 323.77686 179.176271 
L 326.543802 169.502854 
L 329.310744 158.828236 
L 332.077686 147.101055 
L 334.844628 134.268823 
L 337.61157 120.277918 
L 340.378512 105.073589 
L 343.145455 88.599954 
L 345.912397 70.8 
L 348.679339 51.615584 
L 351.446281 30.987432 
L 354.213223 8.855138 
L 355.363895 -1 
" style="fill:none;stroke:#0000ff;stroke-linecap:square;stroke-width:2;"/>
   </g>
   <g id="line2d_15">
    <path clip-path="url(#p66b14f88a2)" d="M 69.218182 166.082719 
L 71.985124 163.795258 
L 74.752066 162.144794 
L 77.519008 161.202784 
L 80.28595 161.022117 
L 83.052893 161.631504 
L 85.819835 163.029321 
L 88.586777 165.178031 
L 91.353719 168.00156 
L 94.120661 171.388308 
L 96.887603 175.200505 
L 99.654545 179.287446 
L 102.421488 183.498572 
L 105.18843 187.69351 
L 107.955372 191.748328 
L 110.722314 195.558739 
L 113.489256 199.041281 
L 116.256198 202.133273 
L 119.02314 204.792055 
L 121.790083 206.993794 
L 124.557025 208.732019 
L 127.323967 210.015984 
L 130.090909 210.868871 
L 132.857851 211.325826 
L 135.624793 211.431758 
L 138.391736 211.238884 
L 141.158678 210.804015 
L 143.92562 210.185648 
L 146.692562 209.441008 
L 149.459504 208.623226 
L 152.226446 207.778895 
L 154.993388 206.946283 
L 157.760331 206.154427 
L 160.527273 205.423312 
L 163.294215 204.765195 
L 166.061157 204.187011 
L 168.828099 203.693634 
L 171.595041 203.291592 
L 174.361983 202.992633 
L 177.128926 202.816246 
L 179.895868 202.789986 
L 182.66281 202.946503 
L 185.429752 203.317009 
L 188.196694 203.922677 
L 190.963636 204.767223 
L 193.730579 205.833759 
L 196.497521 207.086773 
L 199.264463 208.477515 
L 202.031405 209.950321 
L 204.798347 211.448239 
L 207.565289 212.917437 
L 210.332231 214.310549 
L 213.099174 215.589265 
L 215.866116 216.726386 
L 218.633058 217.707442 
L 221.4 218.531867 
L 224.166942 219.213641 
L 226.933884 219.781261 
L 229.700826 220.276854 
L 232.467769 220.754166 
L 235.234711 221.275102 
L 238.001653 221.904478 
L 240.768595 222.702859 
L 243.535537 223.717966 
L 246.302479 224.976134 
L 249.069421 226.476324 
L 251.836364 228.189092 
L 254.603306 230.061223 
L 257.370248 232.024349 
L 260.13719 234.004506 
L 262.904132 235.930023 
L 265.671074 237.736652 
L 268.438017 239.370044 
L 271.204959 240.786293 
L 273.971901 241.951187 
L 276.738843 242.838501 
L 279.505785 243.427157 
L 282.272727 243.696675 
L 285.039669 243.620475 
L 287.806612 243.158044 
L 290.573554 242.249453 
L 293.340496 240.816724 
L 296.107438 238.773312 
L 298.87438 236.037811 
L 301.641322 232.546318 
L 304.408264 228.260464 
L 307.175207 223.171222 
L 309.942149 217.299911 
L 312.709091 210.697742 
L 315.476033 203.444755 
L 318.242975 195.64851 
L 321.009917 187.442658 
L 323.77686 178.985297 
L 326.543802 170.456819 
L 329.310744 162.056716 
L 332.077686 153.998453 
L 334.844628 146.501265 
L 337.61157 139.778069 
L 340.378512 134.020266 
L 343.145455 129.382622 
L 345.912397 125.972652 
L 348.679339 123.847129 
L 351.446281 123.014795 
L 354.213223 123.442327 
L 356.980165 125.061031 
L 359.747107 127.773194 
L 362.51405 131.45805 
L 365.280992 135.977584 
L 368.047934 141.182345 
L 370.814876 146.917199 
L 373.581818 153.026906 
" style="fill:none;stroke:#008000;stroke-dasharray:3.7,1.6;stroke-dashoffset:0;"/>
   </g>
   <g id="line2d_16">
    <path clip-path="url(#p66b14f88a2)" d="M 69.218182 119.86103 
L 71.985124 121.200809 
L 74.752066 123.065284 
L 77.519008 125.427896 
L 80.28595 128.244802 
L 83.052893 131.458369 
L 85.819835 135.002924 
L 88.586777 138.811754 
L 91.353719 142.822959 
L 94.120661 146.981366 
L 96.887603 151.235575 
L 99.654545 155.532258 
L 102.421488 159.811349 
L 105.18843 164.004588 
L 107.955372 168.037632 
L 110.722314 171.834608 
L 113.489256 175.323618 
L 116.256198 178.442066 
L 119.02314 181.141066 
L 121.790083 183.388476 
L 124.557025 185.170394 
L 127.323967 186.491088 
L 130.090909 187.371533 
L 132.857851 187.846859 
L 135.624793 187.963081 
L 138.391736 187.773533 
L 141.158678 187.335381 
L 143.92562 186.706514 
L 146.692562 185.943013 
L 149.459504 185.097262 
L 152.226446 184.21667 
L 154.993388 183.342833 
L 157.760331 182.510951 
L 160.527273 181.749246 
L 163.294215 181.078227 
L 166.061157 180.509682 
L 168.828099 180.04545 
L 171.595041 179.676132 
L 174.361983 179.380152 
L 177.128926 179.123838 
L 179.895868 178.863521 
L 182.66281 178.550589 
L 185.429752 178.139703 
L 188.196694 177.598593 
L 190.963636 176.916219 
L 193.730579 176.106207 
L 196.497521 175.204795 
L 199.264463 174.265076 
L 202.031405 173.350106 
L 204.798347 172.526616 
L 207.565289 171.859917 
L 210.332231 171.409924 
L 213.099174 171.228037 
L 215.866116 171.354685 
L 218.633058 171.817418 
L 221.4 172.629557 
L 224.166942 173.789426 
L 226.933884 175.28026 
L 229.700826 177.070919 
L 232.467769 179.117609 
L 235.234711 181.366892 
L 238.001653 183.760273 
L 240.768595 186.240489 
L 243.535537 188.759004 
L 246.302479 191.283262 
L 249.069421 193.801228 
L 251.836364 196.320902 
L 254.603306 198.864147 
L 257.370248 201.456629 
L 260.13719 204.117011 
L 262.904132 206.848092 
L 265.671074 209.631108 
L 268.438017 212.423152 
L 271.204959 215.157111 
L 273.971901 217.743511 
L 276.738843 220.074027 
L 279.505785 222.026838 
L 282.272727 223.474434 
L 285.039669 224.294273 
L 287.806612 224.38126 
L 290.573554 223.658432 
L 293.340496 222.08125 
L 296.107438 219.634033 
L 298.87438 216.322223 
L 301.641322 212.165759 
L 304.408264 207.196264 
L 307.175207 201.457618 
L 309.942149 195.008154 
L 312.709091 187.922826 
L 315.476033 180.294264 
L 318.242975 172.232102 
L 321.009917 163.860387 
L 323.77686 155.313161 
L 326.543802 146.728633 
L 329.310744 138.242739 
L 332.077686 129.983356 
L 334.844628 122.066813 
L 337.61157 114.598066 
L 340.378512 107.674367 
L 343.145455 101.389854 
L 345.912397 95.837201 
L 348.679339 91.104204 
L 351.446281 87.26658 
L 354.213223 84.380158 
L 356.980165 82.475049 
L 359.747107 81.552768 
L 362.51405 81.586091 
L 365.280992 82.521038 
L 368.047934 84.280333 
L 370.814876 86.767834 
L 373.581818 89.873505 
" style="fill:none;stroke:#008000;stroke-dasharray:3.7,1.6;stroke-dashoffset:0;"/>
   </g>
   <g id="line2d_17">
    <path clip-path="url(#p66b14f88a2)" d="M 69.218182 251.999916 
L 71.985124 251.999991 
L 74.752066 251.999999 
L 77.519008 252 
L 80.28595 252 
L 83.052893 252 
L 85.819835 252 
L 88.586777 252 
L 91.353719 252 
L 94.120661 252 
L 96.887603 252 
L 99.654545 252 
L 102.421488 252 
L 105.18843 252 
L 107.955372 252 
L 110.722314 252 
L 113.489256 251.999999 
L 116.256198 251.999995 
L 119.02314 251.999984 
L 121.790083 251.999959 
L 124.557025 251.999918 
L 127.323967 251.999865 
L 130.090909 251.999814 
L 132.857851 251.999779 
L 135.624793 251.999771 
L 138.391736 251.999789 
L 141.158678 251.999822 
L 143.92562 251.999861 
L 146.692562 251.999896 
L 149.459504 251.999924 
L 152.226446 251.999945 
L 154.993388 251.99996 
L 157.760331 251.999971 
L 160.527273 251.999978 
L 163.294215 251.999983 
L 166.061157 251.999987 
L 168.828099 251.99999 
L 171.595041 251.999992 
L 174.361983 251.999993 
L 177.128926 251.999993 
L 179.895868 251.999991 
L 182.66281 251.999986 
L 185.429752 251.999969 
L 188.196694 251.999908 
L 190.963636 251.999675 
L 193.730579 251.998785 
L 196.497521 251.995698 
L 199.264463 251.986593 
L 202.031405 251.964432 
L 204.798347 251.920092 
L 207.565289 251.846395 
L 210.332231 251.743149 
L 213.099174 251.61989 
L 215.866116 251.494357 
L 218.633058 251.387397 
L 221.4 251.31666 
L 224.166942 251.291587 
L 226.933884 251.311305 
L 229.700826 251.36581 
L 232.467769 251.439643 
L 235.234711 251.516491 
L 238.001653 251.582904 
L 240.768595 251.629848 
L 243.535537 251.651918 
L 246.302479 251.645057 
L 249.069421 251.604134 
L 251.836364 251.521621 
L 254.603306 251.388345 
L 257.370248 251.196792 
L 260.13719 250.946219 
L 262.904132 250.647419 
L 265.671074 250.324536 
L 268.438017 250.012588 
L 271.204959 249.751365 
L 273.971901 249.577579 
L 276.738843 249.517406 
L 279.505785 249.581281 
L 282.272727 249.762593 
L 285.039669 250.041038 
L 287.806612 250.388575 
L 290.573554 250.772816 
L 293.340496 251.155249 
L 296.107438 251.491367 
L 298.87438 251.742646 
L 301.641322 251.895504 
L 304.408264 251.967673 
L 307.175207 251.992812 
L 309.942149 251.998923 
L 312.709091 251.999899 
L 315.476033 251.999994 
L 318.242975 252 
L 321.009917 252 
L 323.77686 252 
L 326.543802 252 
L 329.310744 252 
L 332.077686 252 
L 334.844628 252 
L 337.61157 252 
L 340.378512 252 
L 343.145455 252 
L 345.912397 252 
L 348.679339 252 
L 351.446281 252 
L 354.213223 252 
L 356.980165 252 
L 359.747107 252 
L 362.51405 252 
L 365.280992 251.999997 
L 368.047934 251.999961 
L 370.814876 251.999702 
L 373.581818 251.998351 
" style="fill:none;stroke:#bfbf00;stroke-dasharray:7.4,3.2;stroke-dashoffset:0;stroke-width:2;"/>
   </g>
   <g id="patch_3">
    <path d="M 54 252 
L 54 34.56 
" style="fill:none;stroke:#000000;stroke-linecap:square;stroke-linejoin:miter;stroke-width:0.8;"/>
   </g>
   <g id="patch_4">
    <path d="M 388.8 252 
L 388.8 34.56 
" style="fill:none;stroke:#000000;stroke-linecap:square;stroke-linejoin:miter;stroke-width:0.8;"/>
   </g>
   <g id="patch_5">
    <path d="M 54 252 
L 388.8 252 
" style="fill:none;stroke:#000000;stroke-linecap:square;stroke-linejoin:miter;stroke-width:0.8;"/>
   </g>
   <g id="patch_6">
    <path d="M 54 34.56 
L 388.8 34.56 
" style="fill:none;stroke:#000000;stroke-linecap:square;stroke-linejoin:miter;stroke-width:0.8;"/>
   </g>
   <g id="text_16">
    <!-- Method : EI -->
    <g transform="translate(71.985124 244.752)scale(0.12 -0.12)">
     <defs>
      <path d="M 628 4666 
L 1569 4666 
L 2759 1491 
L 3956 4666 
L 4897 4666 
L 4897 0 
L 4281 0 
L 4281 4097 
L 3078 897 
L 2444 897 
L 1241 4097 
L 1241 0 
L 628 0 
L 628 4666 
z
" id="DejaVuSans-4d" transform="scale(0.015625)"/>
      <path d="M 3597 1894 
L 3597 1613 
L 953 1613 
Q 991 1019 1311 708 
Q 1631 397 2203 397 
Q 2534 397 2845 478 
Q 3156 559 3463 722 
L 3463 178 
Q 3153 47 2828 -22 
Q 2503 -91 2169 -91 
Q 1331 -91 842 396 
Q 353 884 353 1716 
Q 353 2575 817 3079 
Q 1281 3584 2069 3584 
Q 2775 3584 3186 3129 
Q 3597 2675 3597 1894 
z
M 3022 2063 
Q 3016 2534 2758 2815 
Q 2500 3097 2075 3097 
Q 1594 3097 1305 2825 
Q 1016 2553 972 2059 
L 3022 2063 
z
" id="DejaVuSans-65" transform="scale(0.015625)"/>
      <path d="M 1172 4494 
L 1172 3500 
L 2356 3500 
L 2356 3053 
L 1172 3053 
L 1172 1153 
Q 1172 725 1289 603 
Q 1406 481 1766 481 
L 2356 481 
L 2356 0 
L 1766 0 
Q 1100 0 847 248 
Q 594 497 594 1153 
L 594 3053 
L 172 3053 
L 172 3500 
L 594 3500 
L 594 4494 
L 1172 4494 
z
" id="DejaVuSans-74" transform="scale(0.015625)"/>
      <path d="M 3513 2113 
L 3513 0 
L 2938 0 
L 2938 2094 
Q 2938 2591 2744 2837 
Q 2550 3084 2163 3084 
Q 1697 3084 1428 2787 
Q 1159 2491 1159 1978 
L 1159 0 
L 581 0 
L 581 4863 
L 1159 4863 
L 1159 2956 
Q 1366 3272 1645 3428 
Q 1925 3584 2291 3584 
Q 2894 3584 3203 3211 
Q 3513 2838 3513 2113 
z
" id="DejaVuSans-68" transform="scale(0.015625)"/>
      <path d="M 1959 3097 
Q 1497 3097 1228 2736 
Q 959 2375 959 1747 
Q 959 1119 1226 758 
Q 1494 397 1959 397 
Q 2419 397 2687 759 
Q 2956 1122 2956 1747 
Q 2956 2369 2687 2733 
Q 2419 3097 1959 3097 
z
M 1959 3584 
Q 2709 3584 3137 3096 
Q 3566 2609 3566 1747 
Q 3566 888 3137 398 
Q 2709 -91 1959 -91 
Q 1206 -91 779 398 
Q 353 888 353 1747 
Q 353 2609 779 3096 
Q 1206 3584 1959 3584 
z
" id="DejaVuSans-6f" transform="scale(0.015625)"/>
      <path d="M 2906 2969 
L 2906 4863 
L 3481 4863 
L 3481 0 
L 2906 0 
L 2906 525 
Q 2725 213 2448 61 
Q 2172 -91 1784 -91 
Q 1150 -91 751 415 
Q 353 922 353 1747 
Q 353 2572 751 3078 
Q 1150 3584 1784 3584 
Q 2172 3584 2448 3432 
Q 2725 3281 2906 2969 
z
M 947 1747 
Q 947 1113 1208 752 
Q 1469 391 1925 391 
Q 2381 391 2643 752 
Q 2906 1113 2906 1747 
Q 2906 2381 2643 2742 
Q 2381 3103 1925 3103 
Q 1469 3103 1208 2742 
Q 947 2381 947 1747 
z
" id="DejaVuSans-64" transform="scale(0.015625)"/>
      <path id="DejaVuSans-20" transform="scale(0.015625)"/>
      <path d="M 750 794 
L 1409 794 
L 1409 0 
L 750 0 
L 750 794 
z
M 750 3309 
L 1409 3309 
L 1409 2516 
L 750 2516 
L 750 3309 
z
" id="DejaVuSans-3a" transform="scale(0.015625)"/>
      <path d="M 628 4666 
L 3578 4666 
L 3578 4134 
L 1259 4134 
L 1259 2753 
L 3481 2753 
L 3481 2222 
L 1259 2222 
L 1259 531 
L 3634 531 
L 3634 0 
L 628 0 
L 628 4666 
z
" id="DejaVuSans-45" transform="scale(0.015625)"/>
      <path d="M 628 4666 
L 1259 4666 
L 1259 0 
L 628 0 
L 628 4666 
z
" id="DejaVuSans-49" transform="scale(0.015625)"/>
     </defs>
     <use xlink:href="#DejaVuSans-4d"/>
     <use x="86.279297" xlink:href="#DejaVuSans-65"/>
     <use x="147.802734" xlink:href="#DejaVuSans-74"/>
     <use x="187.011719" xlink:href="#DejaVuSans-68"/>
     <use x="250.390625" xlink:href="#DejaVuSans-6f"/>
     <use x="311.572266" xlink:href="#DejaVuSans-64"/>
     <use x="375.048828" xlink:href="#DejaVuSans-20"/>
     <use x="406.835938" xlink:href="#DejaVuSans-3a"/>
     <use x="440.527344" xlink:href="#DejaVuSans-20"/>
     <use x="472.314453" xlink:href="#DejaVuSans-45"/>
     <use x="535.498047" xlink:href="#DejaVuSans-49"/>
    </g>
   </g>
   <g id="text_17">
    <!-- Iter=6 -->
    <g transform="translate(71.985124 226.632)scale(0.12 -0.12)">
     <defs>
      <path d="M 2631 2963 
Q 2534 3019 2420 3045 
Q 2306 3072 2169 3072 
Q 1681 3072 1420 2755 
Q 1159 2438 1159 1844 
L 1159 0 
L 581 0 
L 581 3500 
L 1159 3500 
L 1159 2956 
Q 1341 3275 1631 3429 
Q 1922 3584 2338 3584 
Q 2397 3584 2469 3576 
Q 2541 3569 2628 3553 
L 2631 2963 
z
" id="DejaVuSans-72" transform="scale(0.015625)"/>
      <path d="M 678 2906 
L 4684 2906 
L 4684 2381 
L 678 2381 
L 678 2906 
z
M 678 1631 
L 4684 1631 
L 4684 1100 
L 678 1100 
L 678 1631 
z
" id="DejaVuSans-3d" transform="scale(0.015625)"/>
     </defs>
     <use xlink:href="#DejaVuSans-49"/>
     <use x="29.492188" xlink:href="#DejaVuSans-74"/>
     <use x="68.701172" xlink:href="#DejaVuSans-65"/>
     <use x="130.224609" xlink:href="#DejaVuSans-72"/>
     <use x="171.337891" xlink:href="#DejaVuSans-3d"/>
     <use x="255.126953" xlink:href="#DejaVuSans-36"/>
    </g>
   </g>
   <g id="legend_1">
    <g id="patch_7">
     <path d="M 144.327812 140.235625 
L 298.472188 140.235625 
Q 300.672188 140.235625 300.672188 138.035625 
L 300.672188 42.26 
Q 300.672188 40.06 298.472188 40.06 
L 144.327812 40.06 
Q 142.127813 40.06 142.127813 42.26 
L 142.127813 138.035625 
Q 142.127813 140.235625 144.327812 140.235625 
z
" style="fill:#ffffff;opacity:0.8;stroke:#cccccc;stroke-linejoin:miter;"/>
    </g>
    <g id="line2d_18">
     <path d="M 146.527813 48.968281 
L 168.527813 48.968281 
" style="fill:none;stroke:#0000ff;stroke-linecap:square;stroke-width:2;"/>
    </g>
    <g id="line2d_19"/>
    <g id="text_18">
     <!-- ture function -->
     <g transform="translate(177.327813 52.818281)scale(0.11 -0.11)">
      <defs>
       <path d="M 544 1381 
L 544 3500 
L 1119 3500 
L 1119 1403 
Q 1119 906 1312 657 
Q 1506 409 1894 409 
Q 2359 409 2629 706 
Q 2900 1003 2900 1516 
L 2900 3500 
L 3475 3500 
L 3475 0 
L 2900 0 
L 2900 538 
Q 2691 219 2414 64 
Q 2138 -91 1772 -91 
Q 1169 -91 856 284 
Q 544 659 544 1381 
z
M 1991 3584 
L 1991 3584 
z
" id="DejaVuSans-75" transform="scale(0.015625)"/>
       <path d="M 2375 4863 
L 2375 4384 
L 1825 4384 
Q 1516 4384 1395 4259 
Q 1275 4134 1275 3809 
L 1275 3500 
L 2222 3500 
L 2222 3053 
L 1275 3053 
L 1275 0 
L 697 0 
L 697 3053 
L 147 3053 
L 147 3500 
L 697 3500 
L 697 3744 
Q 697 4328 969 4595 
Q 1241 4863 1831 4863 
L 2375 4863 
z
" id="DejaVuSans-66" transform="scale(0.015625)"/>
       <path d="M 3513 2113 
L 3513 0 
L 2938 0 
L 2938 2094 
Q 2938 2591 2744 2837 
Q 2550 3084 2163 3084 
Q 1697 3084 1428 2787 
Q 1159 2491 1159 1978 
L 1159 0 
L 581 0 
L 581 3500 
L 1159 3500 
L 1159 2956 
Q 1366 3272 1645 3428 
Q 1925 3584 2291 3584 
Q 2894 3584 3203 3211 
Q 3513 2838 3513 2113 
z
" id="DejaVuSans-6e" transform="scale(0.015625)"/>
       <path d="M 3122 3366 
L 3122 2828 
Q 2878 2963 2633 3030 
Q 2388 3097 2138 3097 
Q 1578 3097 1268 2742 
Q 959 2388 959 1747 
Q 959 1106 1268 751 
Q 1578 397 2138 397 
Q 2388 397 2633 464 
Q 2878 531 3122 666 
L 3122 134 
Q 2881 22 2623 -34 
Q 2366 -91 2075 -91 
Q 1284 -91 818 406 
Q 353 903 353 1747 
Q 353 2603 823 3093 
Q 1294 3584 2113 3584 
Q 2378 3584 2631 3529 
Q 2884 3475 3122 3366 
z
" id="DejaVuSans-63" transform="scale(0.015625)"/>
       <path d="M 603 3500 
L 1178 3500 
L 1178 0 
L 603 0 
L 603 3500 
z
M 603 4863 
L 1178 4863 
L 1178 4134 
L 603 4134 
L 603 4863 
z
" id="DejaVuSans-69" transform="scale(0.015625)"/>
      </defs>
      <use xlink:href="#DejaVuSans-74"/>
      <use x="39.208984" xlink:href="#DejaVuSans-75"/>
      <use x="102.587891" xlink:href="#DejaVuSans-72"/>
      <use x="141.451172" xlink:href="#DejaVuSans-65"/>
      <use x="202.974609" xlink:href="#DejaVuSans-20"/>
      <use x="234.761719" xlink:href="#DejaVuSans-66"/>
      <use x="269.966797" xlink:href="#DejaVuSans-75"/>
      <use x="333.345703" xlink:href="#DejaVuSans-6e"/>
      <use x="396.724609" xlink:href="#DejaVuSans-63"/>
      <use x="451.705078" xlink:href="#DejaVuSans-74"/>
      <use x="490.914062" xlink:href="#DejaVuSans-69"/>
      <use x="518.697266" xlink:href="#DejaVuSans-6f"/>
      <use x="579.878906" xlink:href="#DejaVuSans-6e"/>
     </g>
    </g>
    <g id="line2d_20">
     <path d="M 146.527813 65.114219 
L 168.527813 65.114219 
" style="fill:none;stroke:#000000;stroke-dasharray:7.4,3.2;stroke-dashoffset:0;stroke-width:2;"/>
    </g>
    <g id="line2d_21"/>
    <g id="text_19">
     <!-- predicted function -->
     <g transform="translate(177.327813 68.964219)scale(0.11 -0.11)">
      <defs>
       <path d="M 1159 525 
L 1159 -1331 
L 581 -1331 
L 581 3500 
L 1159 3500 
L 1159 2969 
Q 1341 3281 1617 3432 
Q 1894 3584 2278 3584 
Q 2916 3584 3314 3078 
Q 3713 2572 3713 1747 
Q 3713 922 3314 415 
Q 2916 -91 2278 -91 
Q 1894 -91 1617 61 
Q 1341 213 1159 525 
z
M 3116 1747 
Q 3116 2381 2855 2742 
Q 2594 3103 2138 3103 
Q 1681 3103 1420 2742 
Q 1159 2381 1159 1747 
Q 1159 1113 1420 752 
Q 1681 391 2138 391 
Q 2594 391 2855 752 
Q 3116 1113 3116 1747 
z
" id="DejaVuSans-70" transform="scale(0.015625)"/>
      </defs>
      <use xlink:href="#DejaVuSans-70"/>
      <use x="63.476562" xlink:href="#DejaVuSans-72"/>
      <use x="102.339844" xlink:href="#DejaVuSans-65"/>
      <use x="163.863281" xlink:href="#DejaVuSans-64"/>
      <use x="227.339844" xlink:href="#DejaVuSans-69"/>
      <use x="255.123047" xlink:href="#DejaVuSans-63"/>
      <use x="310.103516" xlink:href="#DejaVuSans-74"/>
      <use x="349.3125" xlink:href="#DejaVuSans-65"/>
      <use x="410.835938" xlink:href="#DejaVuSans-64"/>
      <use x="474.3125" xlink:href="#DejaVuSans-20"/>
      <use x="506.099609" xlink:href="#DejaVuSans-66"/>
      <use x="541.304688" xlink:href="#DejaVuSans-75"/>
      <use x="604.683594" xlink:href="#DejaVuSans-6e"/>
      <use x="668.0625" xlink:href="#DejaVuSans-63"/>
      <use x="723.042969" xlink:href="#DejaVuSans-74"/>
      <use x="762.251953" xlink:href="#DejaVuSans-69"/>
      <use x="790.035156" xlink:href="#DejaVuSans-6f"/>
      <use x="851.216797" xlink:href="#DejaVuSans-6e"/>
     </g>
    </g>
    <g id="line2d_22">
     <path d="M 146.527813 81.260156 
L 168.527813 81.260156 
" style="fill:none;stroke:#008000;stroke-dasharray:3.7,1.6;stroke-dashoffset:0;"/>
    </g>
    <g id="line2d_23"/>
    <g id="text_20">
     <!--  ± Sn(x) -->
     <g transform="translate(177.327813 85.110156)scale(0.11 -0.11)">
      <defs>
       <path d="M 2944 4013 
L 2944 2803 
L 4684 2803 
L 4684 2272 
L 2944 2272 
L 2944 1063 
L 2419 1063 
L 2419 2272 
L 678 2272 
L 678 2803 
L 2419 2803 
L 2419 4013 
L 2944 4013 
z
M 678 531 
L 4684 531 
L 4684 0 
L 678 0 
L 678 531 
z
" id="DejaVuSans-b1" transform="scale(0.015625)"/>
       <path d="M 3425 4513 
L 3425 3897 
Q 3066 4069 2747 4153 
Q 2428 4238 2131 4238 
Q 1616 4238 1336 4038 
Q 1056 3838 1056 3469 
Q 1056 3159 1242 3001 
Q 1428 2844 1947 2747 
L 2328 2669 
Q 3034 2534 3370 2195 
Q 3706 1856 3706 1288 
Q 3706 609 3251 259 
Q 2797 -91 1919 -91 
Q 1588 -91 1214 -16 
Q 841 59 441 206 
L 441 856 
Q 825 641 1194 531 
Q 1563 422 1919 422 
Q 2459 422 2753 634 
Q 3047 847 3047 1241 
Q 3047 1584 2836 1778 
Q 2625 1972 2144 2069 
L 1759 2144 
Q 1053 2284 737 2584 
Q 422 2884 422 3419 
Q 422 4038 858 4394 
Q 1294 4750 2059 4750 
Q 2388 4750 2728 4690 
Q 3069 4631 3425 4513 
z
" id="DejaVuSans-53" transform="scale(0.015625)"/>
       <path d="M 1984 4856 
Q 1566 4138 1362 3434 
Q 1159 2731 1159 2009 
Q 1159 1288 1364 580 
Q 1569 -128 1984 -844 
L 1484 -844 
Q 1016 -109 783 600 
Q 550 1309 550 2009 
Q 550 2706 781 3412 
Q 1013 4119 1484 4856 
L 1984 4856 
z
" id="DejaVuSans-28" transform="scale(0.015625)"/>
       <path d="M 513 4856 
L 1013 4856 
Q 1481 4119 1714 3412 
Q 1947 2706 1947 2009 
Q 1947 1309 1714 600 
Q 1481 -109 1013 -844 
L 513 -844 
Q 928 -128 1133 580 
Q 1338 1288 1338 2009 
Q 1338 2731 1133 3434 
Q 928 4138 513 4856 
z
" id="DejaVuSans-29" transform="scale(0.015625)"/>
      </defs>
      <use xlink:href="#DejaVuSans-20"/>
      <use x="31.787109" xlink:href="#DejaVuSans-b1"/>
      <use x="115.576172" xlink:href="#DejaVuSans-20"/>
      <use x="147.363281" xlink:href="#DejaVuSans-53"/>
      <use x="210.839844" xlink:href="#DejaVuSans-6e"/>
      <use x="274.21875" xlink:href="#DejaVuSans-28"/>
      <use x="313.232422" xlink:href="#DejaVuSans-78"/>
      <use x="372.412109" xlink:href="#DejaVuSans-29"/>
     </g>
    </g>
    <g id="line2d_24">
     <path d="M 146.527813 97.406094 
L 168.527813 97.406094 
" style="fill:none;stroke:#bfbf00;stroke-dasharray:7.4,3.2;stroke-dashoffset:0;stroke-width:2;"/>
    </g>
    <g id="line2d_25"/>
    <g id="text_21">
     <!-- EI(x) -->
     <g transform="translate(177.327813 101.256094)scale(0.11 -0.11)">
      <use xlink:href="#DejaVuSans-45"/>
      <use x="63.183594" xlink:href="#DejaVuSans-49"/>
      <use x="92.675781" xlink:href="#DejaVuSans-28"/>
      <use x="131.689453" xlink:href="#DejaVuSans-78"/>
      <use x="190.869141" xlink:href="#DejaVuSans-29"/>
     </g>
    </g>
    <g id="PathCollection_2">
     <defs>
      <path d="M 0 3.535534 
C 0.937635 3.535534 1.836992 3.163008 2.5 2.5 
C 3.163008 1.836992 3.535534 0.937635 3.535534 0 
C 3.535534 -0.937635 3.163008 -1.836992 2.5 -2.5 
C 1.836992 -3.163008 0.937635 -3.535534 0 -3.535534 
C -0.937635 -3.535534 -1.836992 -3.163008 -2.5 -2.5 
C -3.163008 -1.836992 -3.535534 -0.937635 -3.535534 0 
C -3.535534 0.937635 -3.163008 1.836992 -2.5 2.5 
C -1.836992 3.163008 -0.937635 3.535534 0 3.535534 
z
" id="m04e7f2f145" style="stroke:#000000;"/>
     </defs>
     <g>
      <use style="fill:#ff0000;stroke:#000000;" x="157.527813" xlink:href="#m04e7f2f145" y="114.514531"/>
     </g>
    </g>
    <g id="text_22">
     <!-- training data -->
     <g transform="translate(177.327813 117.402031)scale(0.11 -0.11)">
      <defs>
       <path d="M 2194 1759 
Q 1497 1759 1228 1600 
Q 959 1441 959 1056 
Q 959 750 1161 570 
Q 1363 391 1709 391 
Q 2188 391 2477 730 
Q 2766 1069 2766 1631 
L 2766 1759 
L 2194 1759 
z
M 3341 1997 
L 3341 0 
L 2766 0 
L 2766 531 
Q 2569 213 2275 61 
Q 1981 -91 1556 -91 
Q 1019 -91 701 211 
Q 384 513 384 1019 
Q 384 1609 779 1909 
Q 1175 2209 1959 2209 
L 2766 2209 
L 2766 2266 
Q 2766 2663 2505 2880 
Q 2244 3097 1772 3097 
Q 1472 3097 1187 3025 
Q 903 2953 641 2809 
L 641 3341 
Q 956 3463 1253 3523 
Q 1550 3584 1831 3584 
Q 2591 3584 2966 3190 
Q 3341 2797 3341 1997 
z
" id="DejaVuSans-61" transform="scale(0.015625)"/>
       <path d="M 2906 1791 
Q 2906 2416 2648 2759 
Q 2391 3103 1925 3103 
Q 1463 3103 1205 2759 
Q 947 2416 947 1791 
Q 947 1169 1205 825 
Q 1463 481 1925 481 
Q 2391 481 2648 825 
Q 2906 1169 2906 1791 
z
M 3481 434 
Q 3481 -459 3084 -895 
Q 2688 -1331 1869 -1331 
Q 1566 -1331 1297 -1286 
Q 1028 -1241 775 -1147 
L 775 -588 
Q 1028 -725 1275 -790 
Q 1522 -856 1778 -856 
Q 2344 -856 2625 -561 
Q 2906 -266 2906 331 
L 2906 616 
Q 2728 306 2450 153 
Q 2172 0 1784 0 
Q 1141 0 747 490 
Q 353 981 353 1791 
Q 353 2603 747 3093 
Q 1141 3584 1784 3584 
Q 2172 3584 2450 3431 
Q 2728 3278 2906 2969 
L 2906 3500 
L 3481 3500 
L 3481 434 
z
" id="DejaVuSans-67" transform="scale(0.015625)"/>
      </defs>
      <use xlink:href="#DejaVuSans-74"/>
      <use x="39.208984" xlink:href="#DejaVuSans-72"/>
      <use x="80.322266" xlink:href="#DejaVuSans-61"/>
      <use x="141.601562" xlink:href="#DejaVuSans-69"/>
      <use x="169.384766" xlink:href="#DejaVuSans-6e"/>
      <use x="232.763672" xlink:href="#DejaVuSans-69"/>
      <use x="260.546875" xlink:href="#DejaVuSans-6e"/>
      <use x="323.925781" xlink:href="#DejaVuSans-67"/>
      <use x="387.402344" xlink:href="#DejaVuSans-20"/>
      <use x="419.189453" xlink:href="#DejaVuSans-64"/>
      <use x="482.666016" xlink:href="#DejaVuSans-61"/>
      <use x="543.945312" xlink:href="#DejaVuSans-74"/>
      <use x="583.154297" xlink:href="#DejaVuSans-61"/>
     </g>
    </g>
    <g id="PathCollection_3">
     <g>
      <use style="fill:#ff0000;stroke:#ff0000;stroke-width:8;" x="157.527813" xlink:href="#m53dcc80469" y="130.660469"/>
     </g>
    </g>
    <g id="text_23">
     <!-- recommended datum -->
     <g transform="translate(177.327813 133.547969)scale(0.11 -0.11)">
      <defs>
       <path d="M 3328 2828 
Q 3544 3216 3844 3400 
Q 4144 3584 4550 3584 
Q 5097 3584 5394 3201 
Q 5691 2819 5691 2113 
L 5691 0 
L 5113 0 
L 5113 2094 
Q 5113 2597 4934 2840 
Q 4756 3084 4391 3084 
Q 3944 3084 3684 2787 
Q 3425 2491 3425 1978 
L 3425 0 
L 2847 0 
L 2847 2094 
Q 2847 2600 2669 2842 
Q 2491 3084 2119 3084 
Q 1678 3084 1418 2786 
Q 1159 2488 1159 1978 
L 1159 0 
L 581 0 
L 581 3500 
L 1159 3500 
L 1159 2956 
Q 1356 3278 1631 3431 
Q 1906 3584 2284 3584 
Q 2666 3584 2933 3390 
Q 3200 3197 3328 2828 
z
" id="DejaVuSans-6d" transform="scale(0.015625)"/>
      </defs>
      <use xlink:href="#DejaVuSans-72"/>
      <use x="38.863281" xlink:href="#DejaVuSans-65"/>
      <use x="100.386719" xlink:href="#DejaVuSans-63"/>
      <use x="155.367188" xlink:href="#DejaVuSans-6f"/>
      <use x="216.548828" xlink:href="#DejaVuSans-6d"/>
      <use x="313.960938" xlink:href="#DejaVuSans-6d"/>
      <use x="411.373047" xlink:href="#DejaVuSans-65"/>
      <use x="472.896484" xlink:href="#DejaVuSans-6e"/>
      <use x="536.275391" xlink:href="#DejaVuSans-64"/>
      <use x="599.751953" xlink:href="#DejaVuSans-65"/>
      <use x="661.275391" xlink:href="#DejaVuSans-64"/>
      <use x="724.751953" xlink:href="#DejaVuSans-20"/>
      <use x="756.539062" xlink:href="#DejaVuSans-64"/>
      <use x="820.015625" xlink:href="#DejaVuSans-61"/>
      <use x="881.294922" xlink:href="#DejaVuSans-74"/>
      <use x="920.503906" xlink:href="#DejaVuSans-75"/>
      <use x="983.882812" xlink:href="#DejaVuSans-6d"/>
     </g>
    </g>
   </g>
   <g id="line2d_26">
    <path clip-path="url(#p66b14f88a2)" d="M 69.218182 142.971875 
L 71.985124 142.498034 
L 74.752066 142.605039 
L 77.519008 143.31534 
L 80.28595 144.63346 
L 83.052893 146.544936 
L 85.819835 149.016123 
L 88.586777 151.994893 
L 91.353719 155.412259 
L 94.120661 159.184837 
L 96.887603 163.21804 
L 99.654545 167.409852 
L 102.421488 171.654961 
L 105.18843 175.849049 
L 107.955372 179.89298 
L 110.722314 183.696674 
L 113.489256 187.182449 
L 116.256198 190.287669 
L 119.02314 192.96656 
L 121.790083 195.191135 
L 124.557025 196.951207 
L 127.323967 198.253536 
L 130.090909 199.120202 
L 132.857851 199.586342 
L 135.624793 199.697419 
L 138.391736 199.506209 
L 141.158678 199.069698 
L 143.92562 198.446081 
L 146.692562 197.692011 
L 149.459504 196.860244 
L 152.226446 195.997782 
L 154.993388 195.144558 
L 157.760331 194.332689 
L 160.527273 193.586279 
L 163.294215 192.921711 
L 166.061157 192.348347 
L 168.828099 191.869542 
L 171.595041 191.483862 
L 174.361983 191.186392 
L 177.128926 190.970042 
L 179.895868 190.826753 
L 182.66281 190.748546 
L 185.429752 190.728356 
L 188.196694 190.760635 
L 190.963636 190.841721 
L 193.730579 190.969983 
L 196.497521 191.145784 
L 199.264463 191.371295 
L 202.031405 191.650214 
L 204.798347 191.987428 
L 207.565289 192.388677 
L 210.332231 192.860236 
L 213.099174 193.408651 
L 215.866116 194.040535 
L 218.633058 194.76243 
L 221.4 195.580712 
L 224.166942 196.501533 
L 226.933884 197.53076 
L 229.700826 198.673886 
L 232.467769 199.935888 
L 235.234711 201.320997 
L 238.001653 202.832376 
L 240.768595 204.471674 
L 243.535537 206.238485 
L 246.302479 208.129698 
L 249.069421 210.138776 
L 251.836364 212.254997 
L 254.603306 214.462685 
L 257.370248 216.740489 
L 260.13719 219.060758 
L 262.904132 221.389058 
L 265.671074 223.68388 
L 268.438017 225.896598 
L 271.204959 227.971702 
L 273.971901 229.847349 
L 276.738843 231.456264 
L 279.505785 232.726998 
L 282.272727 233.585554 
L 285.039669 233.957374 
L 287.806612 233.769652 
L 290.573554 232.953943 
L 293.340496 231.448987 
L 296.107438 229.203673 
L 298.87438 226.180017 
L 301.641322 222.356038 
L 304.408264 217.728364 
L 307.175207 212.31442 
L 309.942149 206.154032 
L 312.709091 199.310284 
L 315.476033 191.86951 
L 318.242975 183.940306 
L 321.009917 175.651522 
L 323.77686 167.149229 
L 326.543802 158.592726 
L 329.310744 150.149728 
L 332.077686 141.990904 
L 334.844628 134.284039 
L 337.61157 127.188068 
L 340.378512 120.847317 
L 343.145455 115.386238 
L 345.912397 110.904926 
L 348.679339 107.475666 
L 351.446281 105.140687 
L 354.213223 103.911242 
L 356.980165 103.76804 
L 359.747107 104.662981 
L 362.51405 106.52207 
L 365.280992 109.249311 
L 368.047934 112.731339 
L 370.814876 116.842516 
L 373.581818 121.450206 
" style="fill:none;stroke:#000000;stroke-dasharray:7.4,3.2;stroke-dashoffset:0;stroke-width:2;"/>
   </g>
   <g id="PathCollection_4">
    <g clip-path="url(#p66b14f88a2)">
     <use style="fill:#ff0000;stroke:#000000;" x="83.052893" xlink:href="#m04e7f2f145" y="129.399309"/>
     <use style="fill:#ff0000;stroke:#000000;" x="96.887603" xlink:href="#m04e7f2f145" y="162.429541"/>
     <use style="fill:#ff0000;stroke:#000000;" x="110.722314" xlink:href="#m04e7f2f145" y="193.170209"/>
     <use style="fill:#ff0000;stroke:#000000;" x="124.557025" xlink:href="#m04e7f2f145" y="199.248575"/>
     <use style="fill:#ff0000;stroke:#000000;" x="138.391736" xlink:href="#m04e7f2f145" y="199.347548"/>
     <use style="fill:#ff0000;stroke:#000000;" x="152.226446" xlink:href="#m04e7f2f145" y="191.611971"/>
     <use style="fill:#ff0000;stroke:#000000;" x="166.061157" xlink:href="#m04e7f2f145" y="193.66847"/>
     <use style="fill:#ff0000;stroke:#000000;" x="179.895868" xlink:href="#m04e7f2f145" y="193.283098"/>
     <use style="fill:#ff0000;stroke:#000000;" x="193.730579" xlink:href="#m04e7f2f145" y="188.924027"/>
     <use style="fill:#ff0000;stroke:#000000;" x="318.242975" xlink:href="#m04e7f2f145" y="199.289596"/>
     <use style="fill:#ff0000;stroke:#000000;" x="332.077686" xlink:href="#m04e7f2f145" y="145.37007"/>
     <use style="fill:#ff0000;stroke:#000000;" x="345.912397" xlink:href="#m04e7f2f145" y="78.407322"/>
     <use style="fill:#ff0000;stroke:#000000;" x="301.641322" xlink:href="#m04e7f2f145" y="209.239805"/>
     <use style="fill:#ff0000;stroke:#000000;" x="298.87438" xlink:href="#m04e7f2f145" y="234.398997"/>
     <use style="fill:#ff0000;stroke:#000000;" x="276.738843" xlink:href="#m04e7f2f145" y="225.228618"/>
     <use style="fill:#ff0000;stroke:#000000;" x="246.302479" xlink:href="#m04e7f2f145" y="209.817943"/>
     <use style="fill:#ff0000;stroke:#000000;" x="285.039669" xlink:href="#m04e7f2f145" y="232.692338"/>
     <use style="fill:#ff0000;stroke:#000000;" x="285.039669" xlink:href="#m04e7f2f145" y="249.973215"/>
    </g>
   </g>
  </g>
 </g>
 <defs>
  <clipPath id="p66b14f88a2">
   <rect height="217.44" width="334.8" x="54" y="34.56"/>
  </clipPath>
 </defs>
</svg>
