<?xml version="1.0" encoding="utf-8" standalone="no"?>
<!DOCTYPE svg PUBLIC "-//W3C//DTD SVG 1.1//EN"
  "http://www.w3.org/Graphics/SVG/1.1/DTD/svg11.dtd">
<svg height="288pt" version="1.1" viewBox="0 0 432 288" width="432pt" xmlns="http://www.w3.org/2000/svg" xmlns:xlink="http://www.w3.org/1999/xlink">
 <metadata>
  <rdf:RDF xmlns:cc="http://creativecommons.org/ns#" xmlns:dc="http://purl.org/dc/elements/1.1/" xmlns:rdf="http://www.w3.org/1999/02/22-rdf-syntax-ns#">
   <cc:Work>
    <dc:type rdf:resource="http://purl.org/dc/dcmitype/StillImage"/>
    <dc:date>2022-08-02T11:36:50.236876</dc:date>
    <dc:format>image/svg+xml</dc:format>
    <dc:creator>
     <cc:Agent>
      <dc:title>Matplotlib v3.4.3, https://matplotlib.org/</dc:title>
     </cc:Agent>
    </dc:creator>
   </cc:Work>
  </rdf:RDF>
 </metadata>
 <defs>
  <style type="text/css">*{stroke-linecap:butt;stroke-linejoin:round;}</style>
 </defs>
 <g id="figure_1">
  <g id="patch_1">
   <path d="M 0 288 
L 432 288 
L 432 0 
L 0 0 
z
" style="fill:none;"/>
  </g>
  <g id="axes_1">
   <g id="patch_2">
    <path d="M 54 252 
L 388.8 252 
L 388.8 34.56 
L 54 34.56 
z
" style="fill:#ffffff;"/>
   </g>
   <g id="PolyCollection_1">
    <defs>
     <path d="M 69.218182 -170.362643 
L 69.218182 -121.741718 
L 71.985124 -125.704849 
L 74.752066 -128.94655 
L 77.519008 -131.232921 
L 80.28595 -132.361653 
L 83.052893 -132.191239 
L 85.819835 -130.674111 
L 88.586777 -127.881451 
L 91.353719 -124.000115 
L 94.120661 -119.295925 
L 96.887603 -114.063366 
L 99.654545 -108.586308 
L 102.421488 -103.117412 
L 105.18843 -97.870783 
L 107.955372 -93.020764 
L 110.722314 -88.702584 
L 113.489256 -85.013028 
L 116.256198 -82.010756 
L 119.02314 -79.716793 
L 121.790083 -78.11613 
L 124.557025 -77.161232 
L 127.323967 -76.77768 
L 130.090909 -76.87154 
L 132.857851 -77.337587 
L 135.624793 -78.067461 
L 138.391736 -78.956965 
L 141.158678 -79.911986 
L 143.92562 -80.852797 
L 146.692562 -81.716687 
L 149.459504 -82.45902 
L 152.226446 -83.05294 
L 154.993388 -83.488109 
L 157.760331 -83.768946 
L 160.527273 -83.912888 
L 163.294215 -83.948941 
L 166.061157 -83.916344 
L 168.828099 -83.862564 
L 171.595041 -83.839392 
L 174.361983 -83.896053 
L 177.128926 -84.06894 
L 179.895868 -84.368834 
L 182.66281 -84.768288 
L 185.429752 -85.194535 
L 188.196694 -85.536289 
L 190.963636 -85.671124 
L 193.730579 -85.506897 
L 196.497521 -85.013401 
L 199.264463 -84.224669 
L 202.031405 -83.217622 
L 204.798347 -82.086164 
L 207.565289 -80.922136 
L 210.332231 -79.804278 
L 213.099174 -78.792761 
L 215.866116 -77.927239 
L 218.633058 -77.227313 
L 221.4 -76.694773 
L 224.166942 -76.317113 
L 226.933884 -76.071736 
L 229.700826 -75.930262 
L 232.467769 -75.862392 
L 235.234711 -75.838887 
L 238.001653 -75.833476 
L 240.768595 -75.823678 
L 243.535537 -75.790767 
L 246.302479 -75.719202 
L 249.069421 -75.595915 
L 251.836364 -75.409761 
L 254.603306 -75.151369 
L 257.370248 -74.813442 
L 260.13719 -74.391432 
L 262.904132 -73.884382 
L 265.671074 -73.295654 
L 268.438017 -72.633288 
L 271.204959 -71.909817 
L 273.971901 -71.141532 
L 276.738843 -70.347347 
L 279.505785 -69.547598 
L 282.272727 -68.763127 
L 285.039669 -68.015028 
L 287.806612 -67.325359 
L 290.573554 -66.719101 
L 293.340496 -66.227927 
L 296.107438 -65.897027 
L 298.87438 -65.796942 
L 301.641322 -66.040979 
L 304.408264 -66.801692 
L 307.175207 -68.309697 
L 309.942149 -70.82071 
L 312.709091 -74.559816 
L 315.476033 -79.66982 
L 318.242975 -86.182283 
L 321.009917 -94.0119 
L 323.77686 -102.966145 
L 326.543802 -112.761716 
L 329.310744 -123.041749 
L 332.077686 -133.390985 
L 334.844628 -143.350045 
L 337.61157 -152.43405 
L 340.378512 -160.163675 
L 343.145455 -166.114232 
L 345.912397 -169.975048 
L 348.679339 -171.594523 
L 351.446281 -170.989615 
L 354.213223 -168.32308 
L 356.980165 -163.86682 
L 359.747107 -157.964495 
L 362.51405 -150.997391 
L 365.280992 -143.353998 
L 368.047934 -135.403783 
L 370.814876 -127.476228 
L 373.581818 -119.846049 
L 373.581818 -185.30294 
L 373.581818 -185.30294 
L 370.814876 -190.539405 
L 368.047934 -195.552333 
L 365.280992 -200.078553 
L 362.51405 -203.84451 
L 359.747107 -206.586299 
L 356.980165 -208.071546 
L 354.213223 -208.120653 
L 351.446281 -206.624054 
L 348.679339 -203.551047 
L 345.912397 -198.945813 
L 343.145455 -192.910535 
L 340.378512 -185.585989 
L 337.61157 -177.146963 
L 334.844628 -167.816763 
L 332.077686 -157.882336 
L 329.310744 -147.689743 
L 326.543802 -137.61751 
L 323.77686 -128.039044 
L 321.009917 -119.2874 
L 318.242975 -111.631817 
L 315.476033 -105.269954 
L 312.709091 -100.334121 
L 309.942149 -96.904962 
L 307.175207 -95.022235 
L 304.408264 -94.681667 
L 301.641322 -95.815074 
L 298.87438 -98.268742 
L 296.107438 -101.803664 
L 293.340496 -106.123979 
L 290.573554 -110.917654 
L 287.806612 -115.89167 
L 285.039669 -120.794998 
L 282.272727 -125.430376 
L 279.505785 -129.657771 
L 276.738843 -133.391947 
L 273.971901 -136.595995 
L 271.204959 -139.272323 
L 268.438017 -141.452466 
L 265.671074 -143.186903 
L 262.904132 -144.535842 
L 260.13719 -145.561629 
L 257.370248 -146.32309 
L 254.603306 -146.871787 
L 251.836364 -147.249903 
L 249.069421 -147.489321 
L 246.302479 -147.611427 
L 243.535537 -147.627233 
L 240.768595 -147.537582 
L 238.001653 -147.333366 
L 235.234711 -146.995876 
L 232.467769 -146.497555 
L 229.700826 -145.803475 
L 226.933884 -144.87386 
L 224.166942 -143.667805 
L 221.4 -142.148169 
L 218.633058 -140.287351 
L 215.866116 -138.073423 
L 213.099174 -135.515958 
L 210.332231 -132.6508 
L 207.565289 -129.543061 
L 204.798347 -126.2877 
L 202.031405 -123.006918 
L 199.264463 -119.843201 
L 196.497521 -116.945955 
L 193.730579 -114.449358 
L 190.963636 -112.442748 
L 188.196694 -110.945194 
L 185.429752 -109.90367 
L 182.66281 -109.220905 
L 179.895868 -108.793701 
L 177.128926 -108.538297 
L 174.361983 -108.396516 
L 171.595041 -108.32962 
L 168.828099 -108.308273 
L 166.061157 -108.303933 
L 163.294215 -108.284109 
L 160.527273 -108.212002 
L 157.760331 -108.049734 
L 154.993388 -107.763576 
L 152.226446 -107.329492 
L 149.459504 -106.737757 
L 146.692562 -105.996073 
L 143.92562 -105.131123 
L 141.158678 -104.188758 
L 138.391736 -103.233032 
L 135.624793 -102.344233 
L 132.857851 -101.615914 
L 130.090909 -101.150926 
L 127.323967 -101.056417 
L 124.557025 -101.437784 
L 121.790083 -102.391598 
L 119.02314 -103.997581 
L 116.256198 -106.30987 
L 113.489256 -109.348196 
L 110.722314 -113.090173 
L 107.955372 -117.466473 
L 105.18843 -122.361012 
L 102.421488 -127.617875 
L 99.654545 -133.055665 
L 96.887603 -138.488233 
L 94.120661 -143.748542 
L 91.353719 -148.70925 
L 88.586777 -153.290356 
L 85.819835 -157.445734 
L 83.052893 -161.1337 
L 80.28595 -164.294207 
L 77.519008 -166.851452 
L 74.752066 -168.735846 
L 71.985124 -169.906385 
L 69.218182 -170.362643 
z
" id="mf5dd48b64d" style="stroke:#add8e6;stroke-opacity:0.2;"/>
    </defs>
    <g clip-path="url(#p1d4142ff89)">
     <use style="fill:#add8e6;fill-opacity:0.2;stroke:#add8e6;stroke-opacity:0.2;" x="0" xlink:href="#mf5dd48b64d" y="288"/>
    </g>
   </g>
   <g id="PathCollection_1">
    <defs>
     <path d="M 0 0.612372 
C 0.162403 0.612372 0.318176 0.547849 0.433013 0.433013 
C 0.547849 0.318176 0.612372 0.162403 0.612372 0 
C 0.612372 -0.162403 0.547849 -0.318176 0.433013 -0.433013 
C 0.318176 -0.547849 0.162403 -0.612372 0 -0.612372 
C -0.162403 -0.612372 -0.318176 -0.547849 -0.433013 -0.433013 
C -0.547849 -0.318176 -0.612372 -0.162403 -0.612372 0 
C -0.612372 0.162403 -0.547849 0.318176 -0.433013 0.433013 
C -0.318176 0.547849 -0.162403 0.612372 0 0.612372 
z
" id="m4ff51c330d" style="stroke:#ff0000;stroke-width:8;"/>
    </defs>
    <g clip-path="url(#p1d4142ff89)">
     <use style="fill:#ff0000;stroke:#ff0000;stroke-width:8;" x="298.87438" xlink:href="#m4ff51c330d" y="202.279966"/>
    </g>
   </g>
   <g id="matplotlib.axis_1">
    <g id="xtick_1">
     <g id="line2d_1">
      <defs>
       <path d="M 0 0 
L 0 3.5 
" id="mca4cb3a0ad" style="stroke:#000000;stroke-width:0.8;"/>
      </defs>
      <g>
       <use style="stroke:#000000;stroke-width:0.8;" x="69.218182" xlink:href="#mca4cb3a0ad" y="252"/>
      </g>
     </g>
     <g id="text_1">
      <!-- 0 -->
      <g transform="translate(66.036932 266.598437)scale(0.1 -0.1)">
       <defs>
        <path d="M 2034 4250 
Q 1547 4250 1301 3770 
Q 1056 3291 1056 2328 
Q 1056 1369 1301 889 
Q 1547 409 2034 409 
Q 2525 409 2770 889 
Q 3016 1369 3016 2328 
Q 3016 3291 2770 3770 
Q 2525 4250 2034 4250 
z
M 2034 4750 
Q 2819 4750 3233 4129 
Q 3647 3509 3647 2328 
Q 3647 1150 3233 529 
Q 2819 -91 2034 -91 
Q 1250 -91 836 529 
Q 422 1150 422 2328 
Q 422 3509 836 4129 
Q 1250 4750 2034 4750 
z
" id="DejaVuSans-30" transform="scale(0.015625)"/>
       </defs>
       <use xlink:href="#DejaVuSans-30"/>
      </g>
     </g>
    </g>
    <g id="xtick_2">
     <g id="line2d_2">
      <g>
       <use style="stroke:#000000;stroke-width:0.8;" x="124.557025" xlink:href="#mca4cb3a0ad" y="252"/>
      </g>
     </g>
     <g id="text_2">
      <!-- 2 -->
      <g transform="translate(121.375775 266.598437)scale(0.1 -0.1)">
       <defs>
        <path d="M 1228 531 
L 3431 531 
L 3431 0 
L 469 0 
L 469 531 
Q 828 903 1448 1529 
Q 2069 2156 2228 2338 
Q 2531 2678 2651 2914 
Q 2772 3150 2772 3378 
Q 2772 3750 2511 3984 
Q 2250 4219 1831 4219 
Q 1534 4219 1204 4116 
Q 875 4013 500 3803 
L 500 4441 
Q 881 4594 1212 4672 
Q 1544 4750 1819 4750 
Q 2544 4750 2975 4387 
Q 3406 4025 3406 3419 
Q 3406 3131 3298 2873 
Q 3191 2616 2906 2266 
Q 2828 2175 2409 1742 
Q 1991 1309 1228 531 
z
" id="DejaVuSans-32" transform="scale(0.015625)"/>
       </defs>
       <use xlink:href="#DejaVuSans-32"/>
      </g>
     </g>
    </g>
    <g id="xtick_3">
     <g id="line2d_3">
      <g>
       <use style="stroke:#000000;stroke-width:0.8;" x="179.895868" xlink:href="#mca4cb3a0ad" y="252"/>
      </g>
     </g>
     <g id="text_3">
      <!-- 4 -->
      <g transform="translate(176.714618 266.598437)scale(0.1 -0.1)">
       <defs>
        <path d="M 2419 4116 
L 825 1625 
L 2419 1625 
L 2419 4116 
z
M 2253 4666 
L 3047 4666 
L 3047 1625 
L 3713 1625 
L 3713 1100 
L 3047 1100 
L 3047 0 
L 2419 0 
L 2419 1100 
L 313 1100 
L 313 1709 
L 2253 4666 
z
" id="DejaVuSans-34" transform="scale(0.015625)"/>
       </defs>
       <use xlink:href="#DejaVuSans-34"/>
      </g>
     </g>
    </g>
    <g id="xtick_4">
     <g id="line2d_4">
      <g>
       <use style="stroke:#000000;stroke-width:0.8;" x="235.234711" xlink:href="#mca4cb3a0ad" y="252"/>
      </g>
     </g>
     <g id="text_4">
      <!-- 6 -->
      <g transform="translate(232.053461 266.598437)scale(0.1 -0.1)">
       <defs>
        <path d="M 2113 2584 
Q 1688 2584 1439 2293 
Q 1191 2003 1191 1497 
Q 1191 994 1439 701 
Q 1688 409 2113 409 
Q 2538 409 2786 701 
Q 3034 994 3034 1497 
Q 3034 2003 2786 2293 
Q 2538 2584 2113 2584 
z
M 3366 4563 
L 3366 3988 
Q 3128 4100 2886 4159 
Q 2644 4219 2406 4219 
Q 1781 4219 1451 3797 
Q 1122 3375 1075 2522 
Q 1259 2794 1537 2939 
Q 1816 3084 2150 3084 
Q 2853 3084 3261 2657 
Q 3669 2231 3669 1497 
Q 3669 778 3244 343 
Q 2819 -91 2113 -91 
Q 1303 -91 875 529 
Q 447 1150 447 2328 
Q 447 3434 972 4092 
Q 1497 4750 2381 4750 
Q 2619 4750 2861 4703 
Q 3103 4656 3366 4563 
z
" id="DejaVuSans-36" transform="scale(0.015625)"/>
       </defs>
       <use xlink:href="#DejaVuSans-36"/>
      </g>
     </g>
    </g>
    <g id="xtick_5">
     <g id="line2d_5">
      <g>
       <use style="stroke:#000000;stroke-width:0.8;" x="290.573554" xlink:href="#mca4cb3a0ad" y="252"/>
      </g>
     </g>
     <g id="text_5">
      <!-- 8 -->
      <g transform="translate(287.392304 266.598437)scale(0.1 -0.1)">
       <defs>
        <path d="M 2034 2216 
Q 1584 2216 1326 1975 
Q 1069 1734 1069 1313 
Q 1069 891 1326 650 
Q 1584 409 2034 409 
Q 2484 409 2743 651 
Q 3003 894 3003 1313 
Q 3003 1734 2745 1975 
Q 2488 2216 2034 2216 
z
M 1403 2484 
Q 997 2584 770 2862 
Q 544 3141 544 3541 
Q 544 4100 942 4425 
Q 1341 4750 2034 4750 
Q 2731 4750 3128 4425 
Q 3525 4100 3525 3541 
Q 3525 3141 3298 2862 
Q 3072 2584 2669 2484 
Q 3125 2378 3379 2068 
Q 3634 1759 3634 1313 
Q 3634 634 3220 271 
Q 2806 -91 2034 -91 
Q 1263 -91 848 271 
Q 434 634 434 1313 
Q 434 1759 690 2068 
Q 947 2378 1403 2484 
z
M 1172 3481 
Q 1172 3119 1398 2916 
Q 1625 2713 2034 2713 
Q 2441 2713 2670 2916 
Q 2900 3119 2900 3481 
Q 2900 3844 2670 4047 
Q 2441 4250 2034 4250 
Q 1625 4250 1398 4047 
Q 1172 3844 1172 3481 
z
" id="DejaVuSans-38" transform="scale(0.015625)"/>
       </defs>
       <use xlink:href="#DejaVuSans-38"/>
      </g>
     </g>
    </g>
    <g id="xtick_6">
     <g id="line2d_6">
      <g>
       <use style="stroke:#000000;stroke-width:0.8;" x="345.912397" xlink:href="#mca4cb3a0ad" y="252"/>
      </g>
     </g>
     <g id="text_6">
      <!-- 10 -->
      <g transform="translate(339.549897 266.598437)scale(0.1 -0.1)">
       <defs>
        <path d="M 794 531 
L 1825 531 
L 1825 4091 
L 703 3866 
L 703 4441 
L 1819 4666 
L 2450 4666 
L 2450 531 
L 3481 531 
L 3481 0 
L 794 0 
L 794 531 
z
" id="DejaVuSans-31" transform="scale(0.015625)"/>
       </defs>
       <use xlink:href="#DejaVuSans-31"/>
       <use x="63.623047" xlink:href="#DejaVuSans-30"/>
      </g>
     </g>
    </g>
    <g id="text_7">
     <!-- x -->
     <g transform="translate(217.84875 281.79625)scale(0.12 -0.12)">
      <defs>
       <path d="M 3513 3500 
L 2247 1797 
L 3578 0 
L 2900 0 
L 1881 1375 
L 863 0 
L 184 0 
L 1544 1831 
L 300 3500 
L 978 3500 
L 1906 2253 
L 2834 3500 
L 3513 3500 
z
" id="DejaVuSans-78" transform="scale(0.015625)"/>
      </defs>
      <use xlink:href="#DejaVuSans-78"/>
     </g>
    </g>
   </g>
   <g id="matplotlib.axis_2">
    <g id="ytick_1">
     <g id="line2d_7">
      <defs>
       <path d="M 0 0 
L -3.5 0 
" id="m9f2af1fe68" style="stroke:#000000;stroke-width:0.8;"/>
      </defs>
      <g>
       <use style="stroke:#000000;stroke-width:0.8;" x="54" xlink:href="#m9f2af1fe68" y="252"/>
      </g>
     </g>
     <g id="text_8">
      <!-- 3 -->
      <g transform="translate(40.6375 255.799219)scale(0.1 -0.1)">
       <defs>
        <path d="M 2597 2516 
Q 3050 2419 3304 2112 
Q 3559 1806 3559 1356 
Q 3559 666 3084 287 
Q 2609 -91 1734 -91 
Q 1441 -91 1130 -33 
Q 819 25 488 141 
L 488 750 
Q 750 597 1062 519 
Q 1375 441 1716 441 
Q 2309 441 2620 675 
Q 2931 909 2931 1356 
Q 2931 1769 2642 2001 
Q 2353 2234 1838 2234 
L 1294 2234 
L 1294 2753 
L 1863 2753 
Q 2328 2753 2575 2939 
Q 2822 3125 2822 3475 
Q 2822 3834 2567 4026 
Q 2313 4219 1838 4219 
Q 1578 4219 1281 4162 
Q 984 4106 628 3988 
L 628 4550 
Q 988 4650 1302 4700 
Q 1616 4750 1894 4750 
Q 2613 4750 3031 4423 
Q 3450 4097 3450 3541 
Q 3450 3153 3228 2886 
Q 3006 2619 2597 2516 
z
" id="DejaVuSans-33" transform="scale(0.015625)"/>
       </defs>
       <use xlink:href="#DejaVuSans-33"/>
      </g>
     </g>
    </g>
    <g id="ytick_2">
     <g id="line2d_8">
      <g>
       <use style="stroke:#000000;stroke-width:0.8;" x="54" xlink:href="#m9f2af1fe68" y="215.76"/>
      </g>
     </g>
     <g id="text_9">
      <!-- 4 -->
      <g transform="translate(40.6375 219.559219)scale(0.1 -0.1)">
       <use xlink:href="#DejaVuSans-34"/>
      </g>
     </g>
    </g>
    <g id="ytick_3">
     <g id="line2d_9">
      <g>
       <use style="stroke:#000000;stroke-width:0.8;" x="54" xlink:href="#m9f2af1fe68" y="179.52"/>
      </g>
     </g>
     <g id="text_10">
      <!-- 5 -->
      <g transform="translate(40.6375 183.319219)scale(0.1 -0.1)">
       <defs>
        <path d="M 691 4666 
L 3169 4666 
L 3169 4134 
L 1269 4134 
L 1269 2991 
Q 1406 3038 1543 3061 
Q 1681 3084 1819 3084 
Q 2600 3084 3056 2656 
Q 3513 2228 3513 1497 
Q 3513 744 3044 326 
Q 2575 -91 1722 -91 
Q 1428 -91 1123 -41 
Q 819 9 494 109 
L 494 744 
Q 775 591 1075 516 
Q 1375 441 1709 441 
Q 2250 441 2565 725 
Q 2881 1009 2881 1497 
Q 2881 1984 2565 2268 
Q 2250 2553 1709 2553 
Q 1456 2553 1204 2497 
Q 953 2441 691 2322 
L 691 4666 
z
" id="DejaVuSans-35" transform="scale(0.015625)"/>
       </defs>
       <use xlink:href="#DejaVuSans-35"/>
      </g>
     </g>
    </g>
    <g id="ytick_4">
     <g id="line2d_10">
      <g>
       <use style="stroke:#000000;stroke-width:0.8;" x="54" xlink:href="#m9f2af1fe68" y="143.28"/>
      </g>
     </g>
     <g id="text_11">
      <!-- 6 -->
      <g transform="translate(40.6375 147.079219)scale(0.1 -0.1)">
       <use xlink:href="#DejaVuSans-36"/>
      </g>
     </g>
    </g>
    <g id="ytick_5">
     <g id="line2d_11">
      <g>
       <use style="stroke:#000000;stroke-width:0.8;" x="54" xlink:href="#m9f2af1fe68" y="107.04"/>
      </g>
     </g>
     <g id="text_12">
      <!-- 7 -->
      <g transform="translate(40.6375 110.839219)scale(0.1 -0.1)">
       <defs>
        <path d="M 525 4666 
L 3525 4666 
L 3525 4397 
L 1831 0 
L 1172 0 
L 2766 4134 
L 525 4134 
L 525 4666 
z
" id="DejaVuSans-37" transform="scale(0.015625)"/>
       </defs>
       <use xlink:href="#DejaVuSans-37"/>
      </g>
     </g>
    </g>
    <g id="ytick_6">
     <g id="line2d_12">
      <g>
       <use style="stroke:#000000;stroke-width:0.8;" x="54" xlink:href="#m9f2af1fe68" y="70.8"/>
      </g>
     </g>
     <g id="text_13">
      <!-- 8 -->
      <g transform="translate(40.6375 74.599219)scale(0.1 -0.1)">
       <use xlink:href="#DejaVuSans-38"/>
      </g>
     </g>
    </g>
    <g id="ytick_7">
     <g id="line2d_13">
      <g>
       <use style="stroke:#000000;stroke-width:0.8;" x="54" xlink:href="#m9f2af1fe68" y="34.56"/>
      </g>
     </g>
     <g id="text_14">
      <!-- 9 -->
      <g transform="translate(40.6375 38.359219)scale(0.1 -0.1)">
       <defs>
        <path d="M 703 97 
L 703 672 
Q 941 559 1184 500 
Q 1428 441 1663 441 
Q 2288 441 2617 861 
Q 2947 1281 2994 2138 
Q 2813 1869 2534 1725 
Q 2256 1581 1919 1581 
Q 1219 1581 811 2004 
Q 403 2428 403 3163 
Q 403 3881 828 4315 
Q 1253 4750 1959 4750 
Q 2769 4750 3195 4129 
Q 3622 3509 3622 2328 
Q 3622 1225 3098 567 
Q 2575 -91 1691 -91 
Q 1453 -91 1209 -44 
Q 966 3 703 97 
z
M 1959 2075 
Q 2384 2075 2632 2365 
Q 2881 2656 2881 3163 
Q 2881 3666 2632 3958 
Q 2384 4250 1959 4250 
Q 1534 4250 1286 3958 
Q 1038 3666 1038 3163 
Q 1038 2656 1286 2365 
Q 1534 2075 1959 2075 
z
" id="DejaVuSans-39" transform="scale(0.015625)"/>
       </defs>
       <use xlink:href="#DejaVuSans-39"/>
      </g>
     </g>
    </g>
    <g id="text_15">
     <!-- y -->
     <g transform="translate(34.141875 146.83125)rotate(-90)scale(0.12 -0.12)">
      <defs>
       <path d="M 2059 -325 
Q 1816 -950 1584 -1140 
Q 1353 -1331 966 -1331 
L 506 -1331 
L 506 -850 
L 844 -850 
Q 1081 -850 1212 -737 
Q 1344 -625 1503 -206 
L 1606 56 
L 191 3500 
L 800 3500 
L 1894 763 
L 2988 3500 
L 3597 3500 
L 2059 -325 
z
" id="DejaVuSans-79" transform="scale(0.015625)"/>
      </defs>
      <use xlink:href="#DejaVuSans-79"/>
     </g>
    </g>
   </g>
   <g id="line2d_14">
    <path clip-path="url(#p1d4142ff89)" d="M 69.218182 70.8 
L 71.985124 85.083949 
L 74.752066 98.25467 
L 77.519008 110.364828 
L 80.28595 121.465955 
L 83.052893 131.608455 
L 85.819835 140.841599 
L 88.586777 149.213528 
L 91.353719 156.771253 
L 94.120661 163.560654 
L 96.887603 169.62648 
L 99.654545 175.012349 
L 102.421488 179.76075 
L 105.18843 183.913038 
L 107.955372 187.509441 
L 110.722314 190.589055 
L 113.489256 193.189844 
L 116.256198 195.348643 
L 119.02314 197.101155 
L 121.790083 198.481953 
L 124.557025 199.52448 
L 127.323967 200.261047 
L 130.090909 200.722835 
L 132.857851 200.939895 
L 135.624793 200.941145 
L 138.391736 200.754375 
L 141.158678 200.406243 
L 143.92562 199.922276 
L 146.692562 199.326871 
L 149.459504 198.643294 
L 152.226446 197.89368 
L 154.993388 197.099035 
L 157.760331 196.279231 
L 160.527273 195.453014 
L 163.294215 194.637994 
L 166.061157 193.850655 
L 168.828099 193.106347 
L 171.595041 192.419291 
L 174.361983 191.802577 
L 177.128926 191.268164 
L 179.895868 190.82688 
L 182.66281 190.488424 
L 185.429752 190.261362 
L 188.196694 190.153131 
L 190.963636 190.170037 
L 193.730579 190.317255 
L 196.497521 190.598829 
L 199.264463 191.017673 
L 202.031405 191.575569 
L 204.798347 192.273171 
L 207.565289 193.11 
L 210.332231 194.084446 
L 213.099174 195.193771 
L 215.866116 196.434103 
L 218.633058 197.800442 
L 221.4 199.286655 
L 224.166942 200.88548 
L 226.933884 202.588525 
L 229.700826 204.386264 
L 232.467769 206.268045 
L 235.234711 208.22208 
L 238.001653 210.235455 
L 240.768595 212.294122 
L 243.535537 214.382905 
L 246.302479 216.485496 
L 249.069421 218.584455 
L 251.836364 220.661214 
L 254.603306 222.696071 
L 257.370248 224.668198 
L 260.13719 226.555631 
L 262.904132 228.33528 
L 265.671074 229.982921 
L 268.438017 231.4732 
L 271.204959 232.779634 
L 273.971901 233.874607 
L 276.738843 234.729375 
L 279.505785 235.31406 
L 282.272727 235.597656 
L 285.039669 235.548026 
L 287.806612 235.1319 
L 290.573554 234.31488 
L 293.340496 233.061436 
L 296.107438 231.334908 
L 298.87438 229.097505 
L 301.641322 226.310305 
L 304.408264 222.933255 
L 307.175207 218.925173 
L 309.942149 214.243744 
L 312.709091 208.845524 
L 315.476033 202.685938 
L 318.242975 195.71928 
L 321.009917 187.898713 
L 323.77686 179.176271 
L 326.543802 169.502854 
L 329.310744 158.828236 
L 332.077686 147.101055 
L 334.844628 134.268823 
L 337.61157 120.277918 
L 340.378512 105.073589 
L 343.145455 88.599954 
L 345.912397 70.8 
L 348.679339 51.615584 
L 351.446281 30.987432 
L 354.213223 8.855138 
L 355.363895 -1 
" style="fill:none;stroke:#0000ff;stroke-linecap:square;stroke-width:2;"/>
   </g>
   <g id="line2d_15">
    <path clip-path="url(#p1d4142ff89)" d="M 69.218182 166.258282 
L 71.985124 162.295151 
L 74.752066 159.05345 
L 77.519008 156.767079 
L 80.28595 155.638347 
L 83.052893 155.808761 
L 85.819835 157.325889 
L 88.586777 160.118549 
L 91.353719 163.999885 
L 94.120661 168.704075 
L 96.887603 173.936634 
L 99.654545 179.413692 
L 102.421488 184.882588 
L 105.18843 190.129217 
L 107.955372 194.979236 
L 110.722314 199.297416 
L 113.489256 202.986972 
L 116.256198 205.989244 
L 119.02314 208.283207 
L 121.790083 209.88387 
L 124.557025 210.838768 
L 127.323967 211.22232 
L 130.090909 211.12846 
L 132.857851 210.662413 
L 135.624793 209.932539 
L 138.391736 209.043035 
L 141.158678 208.088014 
L 143.92562 207.147203 
L 146.692562 206.283313 
L 149.459504 205.54098 
L 152.226446 204.94706 
L 154.993388 204.511891 
L 157.760331 204.231054 
L 160.527273 204.087112 
L 163.294215 204.051059 
L 166.061157 204.083656 
L 168.828099 204.137436 
L 171.595041 204.160608 
L 174.361983 204.103947 
L 177.128926 203.93106 
L 179.895868 203.631166 
L 182.66281 203.231712 
L 185.429752 202.805465 
L 188.196694 202.463711 
L 190.963636 202.328876 
L 193.730579 202.493103 
L 196.497521 202.986599 
L 199.264463 203.775331 
L 202.031405 204.782378 
L 204.798347 205.913836 
L 207.565289 207.077864 
L 210.332231 208.195722 
L 213.099174 209.207239 
L 215.866116 210.072761 
L 218.633058 210.772687 
L 221.4 211.305227 
L 224.166942 211.682887 
L 226.933884 211.928264 
L 229.700826 212.069738 
L 232.467769 212.137608 
L 235.234711 212.161113 
L 238.001653 212.166524 
L 240.768595 212.176322 
L 243.535537 212.209233 
L 246.302479 212.280798 
L 249.069421 212.404085 
L 251.836364 212.590239 
L 254.603306 212.848631 
L 257.370248 213.186558 
L 260.13719 213.608568 
L 262.904132 214.115618 
L 265.671074 214.704346 
L 268.438017 215.366712 
L 271.204959 216.090183 
L 273.971901 216.858468 
L 276.738843 217.652653 
L 279.505785 218.452402 
L 282.272727 219.236873 
L 285.039669 219.984972 
L 287.806612 220.674641 
L 290.573554 221.280899 
L 293.340496 221.772073 
L 296.107438 222.102973 
L 298.87438 222.203058 
L 301.641322 221.959021 
L 304.408264 221.198308 
L 307.175207 219.690303 
L 309.942149 217.17929 
L 312.709091 213.440184 
L 315.476033 208.33018 
L 318.242975 201.817717 
L 321.009917 193.9881 
L 323.77686 185.033855 
L 326.543802 175.238284 
L 329.310744 164.958251 
L 332.077686 154.609015 
L 334.844628 144.649955 
L 337.61157 135.56595 
L 340.378512 127.836325 
L 343.145455 121.885768 
L 345.912397 118.024952 
L 348.679339 116.405477 
L 351.446281 117.010385 
L 354.213223 119.67692 
L 356.980165 124.13318 
L 359.747107 130.035505 
L 362.51405 137.002609 
L 365.280992 144.646002 
L 368.047934 152.596217 
L 370.814876 160.523772 
L 373.581818 168.153951 
" style="fill:none;stroke:#008000;stroke-dasharray:3.7,1.6;stroke-dashoffset:0;"/>
   </g>
   <g id="line2d_16">
    <path clip-path="url(#p1d4142ff89)" d="M 69.218182 117.637357 
L 71.985124 118.093615 
L 74.752066 119.264154 
L 77.519008 121.148548 
L 80.28595 123.705793 
L 83.052893 126.8663 
L 85.819835 130.554266 
L 88.586777 134.709644 
L 91.353719 139.29075 
L 94.120661 144.251458 
L 96.887603 149.511767 
L 99.654545 154.944335 
L 102.421488 160.382125 
L 105.18843 165.638988 
L 107.955372 170.533527 
L 110.722314 174.909827 
L 113.489256 178.651804 
L 116.256198 181.69013 
L 119.02314 184.002419 
L 121.790083 185.608402 
L 124.557025 186.562216 
L 127.323967 186.943583 
L 130.090909 186.849074 
L 132.857851 186.384086 
L 135.624793 185.655767 
L 138.391736 184.766968 
L 141.158678 183.811242 
L 143.92562 182.868877 
L 146.692562 182.003927 
L 149.459504 181.262243 
L 152.226446 180.670508 
L 154.993388 180.236424 
L 157.760331 179.950266 
L 160.527273 179.787998 
L 163.294215 179.715891 
L 166.061157 179.696067 
L 168.828099 179.691727 
L 171.595041 179.67038 
L 174.361983 179.603484 
L 177.128926 179.461703 
L 179.895868 179.206299 
L 182.66281 178.779095 
L 185.429752 178.09633 
L 188.196694 177.054806 
L 190.963636 175.557252 
L 193.730579 173.550642 
L 196.497521 171.054045 
L 199.264463 168.156799 
L 202.031405 164.993082 
L 204.798347 161.7123 
L 207.565289 158.456939 
L 210.332231 155.3492 
L 213.099174 152.484042 
L 215.866116 149.926577 
L 218.633058 147.712649 
L 221.4 145.851831 
L 224.166942 144.332195 
L 226.933884 143.12614 
L 229.700826 142.196525 
L 232.467769 141.502445 
L 235.234711 141.004124 
L 238.001653 140.666634 
L 240.768595 140.462418 
L 243.535537 140.372767 
L 246.302479 140.388573 
L 249.069421 140.510679 
L 251.836364 140.750097 
L 254.603306 141.128213 
L 257.370248 141.67691 
L 260.13719 142.438371 
L 262.904132 143.464158 
L 265.671074 144.813097 
L 268.438017 146.547534 
L 271.204959 148.727677 
L 273.971901 151.404005 
L 276.738843 154.608053 
L 279.505785 158.342229 
L 282.272727 162.569624 
L 285.039669 167.205002 
L 287.806612 172.10833 
L 290.573554 177.082346 
L 293.340496 181.876021 
L 296.107438 186.196336 
L 298.87438 189.731258 
L 301.641322 192.184926 
L 304.408264 193.318333 
L 307.175207 192.977765 
L 309.942149 191.095038 
L 312.709091 187.665879 
L 315.476033 182.730046 
L 318.242975 176.368183 
L 321.009917 168.7126 
L 323.77686 159.960956 
L 326.543802 150.38249 
L 329.310744 140.310257 
L 332.077686 130.117664 
L 334.844628 120.183237 
L 337.61157 110.853037 
L 340.378512 102.414011 
L 343.145455 95.089465 
L 345.912397 89.054187 
L 348.679339 84.448953 
L 351.446281 81.375946 
L 354.213223 79.879347 
L 356.980165 79.928454 
L 359.747107 81.413701 
L 362.51405 84.15549 
L 365.280992 87.921447 
L 368.047934 92.447667 
L 370.814876 97.460595 
L 373.581818 102.69706 
" style="fill:none;stroke:#008000;stroke-dasharray:3.7,1.6;stroke-dashoffset:0;"/>
   </g>
   <g id="line2d_17">
    <path clip-path="url(#p1d4142ff89)" d="M 69.218182 251.794101 
L 71.985124 251.945889 
L 74.752066 251.989368 
L 77.519008 251.998388 
L 80.28595 251.999779 
L 83.052893 251.999961 
L 85.819835 251.999986 
L 88.586777 251.999986 
L 91.353719 251.999962 
L 94.120661 251.999794 
L 96.887603 251.998592 
L 99.654545 251.990854 
L 102.421488 251.951214 
L 105.18843 251.796967 
L 107.955372 251.34364 
L 110.722314 250.325455 
L 113.489256 248.545492 
L 116.256198 246.075744 
L 119.02314 243.314068 
L 121.790083 240.823469 
L 124.557025 239.084098 
L 127.323967 238.327685 
L 130.090909 238.515426 
L 132.857851 239.419584 
L 135.624793 240.739048 
L 138.391736 242.195488 
L 141.158678 243.586176 
L 143.92562 244.794795 
L 146.692562 245.775583 
L 149.459504 246.528154 
L 152.226446 247.074866 
L 154.993388 247.44561 
L 157.760331 247.670145 
L 160.527273 247.77627 
L 163.294215 247.791887 
L 166.061157 247.74906 
L 168.828099 247.687539 
L 171.595041 247.654243 
L 174.361983 247.695097 
L 177.128926 247.838443 
L 179.895868 248.075112 
L 182.66281 248.346085 
L 185.429752 248.547577 
L 188.196694 248.5509 
L 190.963636 248.220422 
L 193.730579 247.421438 
L 196.497521 246.036974 
L 199.264463 244.008895 
L 202.031405 241.378154 
L 204.798347 238.28821 
L 207.565289 234.949937 
L 210.332231 231.592572 
L 213.099174 228.422023 
L 215.866116 225.594764 
L 218.633058 223.206995 
L 221.4 221.295675 
L 224.166942 219.847532 
L 226.933884 218.812398 
L 229.700826 218.117748 
L 232.467769 217.681952 
L 235.234711 217.424663 
L 238.001653 217.273586 
L 240.768595 217.167783 
L 243.535537 217.058218 
L 246.302479 216.906611 
L 249.069421 216.683663 
L 251.836364 216.367547 
L 254.603306 215.94319 
L 257.370248 215.402518 
L 260.13719 214.745417 
L 262.904132 213.980874 
L 265.671074 213.12753 
L 268.438017 212.212861 
L 271.204959 211.270353 
L 273.971901 210.334412 
L 276.738843 209.433306 
L 279.505785 208.581061 
L 282.272727 207.769954 
L 285.039669 206.966217 
L 287.806612 206.113289 
L 290.573554 205.150504 
L 293.340496 204.061054 
L 296.107438 202.967804 
L 298.87438 202.279966 
L 301.641322 202.819859 
L 304.408264 205.734042 
L 307.175207 211.988993 
L 309.942149 221.550494 
L 312.709091 232.76458 
L 315.476033 242.702378 
L 318.242975 248.923925 
L 321.009917 251.394301 
L 323.77686 251.938964 
L 326.543802 251.997227 
L 329.310744 251.999946 
L 332.077686 252 
L 334.844628 252 
L 337.61157 252 
L 340.378512 252 
L 343.145455 252 
L 345.912397 252 
L 348.679339 252 
L 351.446281 252 
L 354.213223 251.999999 
L 356.980165 251.999974 
L 359.747107 251.999463 
L 362.51405 251.994052 
L 365.280992 251.960685 
L 368.047934 251.827564 
L 370.814876 251.450768 
L 373.581818 250.635366 
" style="fill:none;stroke:#bfbf00;stroke-dasharray:7.4,3.2;stroke-dashoffset:0;stroke-width:2;"/>
   </g>
   <g id="patch_3">
    <path d="M 54 252 
L 54 34.56 
" style="fill:none;stroke:#000000;stroke-linecap:square;stroke-linejoin:miter;stroke-width:0.8;"/>
   </g>
   <g id="patch_4">
    <path d="M 388.8 252 
L 388.8 34.56 
" style="fill:none;stroke:#000000;stroke-linecap:square;stroke-linejoin:miter;stroke-width:0.8;"/>
   </g>
   <g id="patch_5">
    <path d="M 54 252 
L 388.8 252 
" style="fill:none;stroke:#000000;stroke-linecap:square;stroke-linejoin:miter;stroke-width:0.8;"/>
   </g>
   <g id="patch_6">
    <path d="M 54 34.56 
L 388.8 34.56 
" style="fill:none;stroke:#000000;stroke-linecap:square;stroke-linejoin:miter;stroke-width:0.8;"/>
   </g>
   <g id="text_16">
    <!-- Method : EI -->
    <g transform="translate(71.985124 244.752)scale(0.12 -0.12)">
     <defs>
      <path d="M 628 4666 
L 1569 4666 
L 2759 1491 
L 3956 4666 
L 4897 4666 
L 4897 0 
L 4281 0 
L 4281 4097 
L 3078 897 
L 2444 897 
L 1241 4097 
L 1241 0 
L 628 0 
L 628 4666 
z
" id="DejaVuSans-4d" transform="scale(0.015625)"/>
      <path d="M 3597 1894 
L 3597 1613 
L 953 1613 
Q 991 1019 1311 708 
Q 1631 397 2203 397 
Q 2534 397 2845 478 
Q 3156 559 3463 722 
L 3463 178 
Q 3153 47 2828 -22 
Q 2503 -91 2169 -91 
Q 1331 -91 842 396 
Q 353 884 353 1716 
Q 353 2575 817 3079 
Q 1281 3584 2069 3584 
Q 2775 3584 3186 3129 
Q 3597 2675 3597 1894 
z
M 3022 2063 
Q 3016 2534 2758 2815 
Q 2500 3097 2075 3097 
Q 1594 3097 1305 2825 
Q 1016 2553 972 2059 
L 3022 2063 
z
" id="DejaVuSans-65" transform="scale(0.015625)"/>
      <path d="M 1172 4494 
L 1172 3500 
L 2356 3500 
L 2356 3053 
L 1172 3053 
L 1172 1153 
Q 1172 725 1289 603 
Q 1406 481 1766 481 
L 2356 481 
L 2356 0 
L 1766 0 
Q 1100 0 847 248 
Q 594 497 594 1153 
L 594 3053 
L 172 3053 
L 172 3500 
L 594 3500 
L 594 4494 
L 1172 4494 
z
" id="DejaVuSans-74" transform="scale(0.015625)"/>
      <path d="M 3513 2113 
L 3513 0 
L 2938 0 
L 2938 2094 
Q 2938 2591 2744 2837 
Q 2550 3084 2163 3084 
Q 1697 3084 1428 2787 
Q 1159 2491 1159 1978 
L 1159 0 
L 581 0 
L 581 4863 
L 1159 4863 
L 1159 2956 
Q 1366 3272 1645 3428 
Q 1925 3584 2291 3584 
Q 2894 3584 3203 3211 
Q 3513 2838 3513 2113 
z
" id="DejaVuSans-68" transform="scale(0.015625)"/>
      <path d="M 1959 3097 
Q 1497 3097 1228 2736 
Q 959 2375 959 1747 
Q 959 1119 1226 758 
Q 1494 397 1959 397 
Q 2419 397 2687 759 
Q 2956 1122 2956 1747 
Q 2956 2369 2687 2733 
Q 2419 3097 1959 3097 
z
M 1959 3584 
Q 2709 3584 3137 3096 
Q 3566 2609 3566 1747 
Q 3566 888 3137 398 
Q 2709 -91 1959 -91 
Q 1206 -91 779 398 
Q 353 888 353 1747 
Q 353 2609 779 3096 
Q 1206 3584 1959 3584 
z
" id="DejaVuSans-6f" transform="scale(0.015625)"/>
      <path d="M 2906 2969 
L 2906 4863 
L 3481 4863 
L 3481 0 
L 2906 0 
L 2906 525 
Q 2725 213 2448 61 
Q 2172 -91 1784 -91 
Q 1150 -91 751 415 
Q 353 922 353 1747 
Q 353 2572 751 3078 
Q 1150 3584 1784 3584 
Q 2172 3584 2448 3432 
Q 2725 3281 2906 2969 
z
M 947 1747 
Q 947 1113 1208 752 
Q 1469 391 1925 391 
Q 2381 391 2643 752 
Q 2906 1113 2906 1747 
Q 2906 2381 2643 2742 
Q 2381 3103 1925 3103 
Q 1469 3103 1208 2742 
Q 947 2381 947 1747 
z
" id="DejaVuSans-64" transform="scale(0.015625)"/>
      <path id="DejaVuSans-20" transform="scale(0.015625)"/>
      <path d="M 750 794 
L 1409 794 
L 1409 0 
L 750 0 
L 750 794 
z
M 750 3309 
L 1409 3309 
L 1409 2516 
L 750 2516 
L 750 3309 
z
" id="DejaVuSans-3a" transform="scale(0.015625)"/>
      <path d="M 628 4666 
L 3578 4666 
L 3578 4134 
L 1259 4134 
L 1259 2753 
L 3481 2753 
L 3481 2222 
L 1259 2222 
L 1259 531 
L 3634 531 
L 3634 0 
L 628 0 
L 628 4666 
z
" id="DejaVuSans-45" transform="scale(0.015625)"/>
      <path d="M 628 4666 
L 1259 4666 
L 1259 0 
L 628 0 
L 628 4666 
z
" id="DejaVuSans-49" transform="scale(0.015625)"/>
     </defs>
     <use xlink:href="#DejaVuSans-4d"/>
     <use x="86.279297" xlink:href="#DejaVuSans-65"/>
     <use x="147.802734" xlink:href="#DejaVuSans-74"/>
     <use x="187.011719" xlink:href="#DejaVuSans-68"/>
     <use x="250.390625" xlink:href="#DejaVuSans-6f"/>
     <use x="311.572266" xlink:href="#DejaVuSans-64"/>
     <use x="375.048828" xlink:href="#DejaVuSans-20"/>
     <use x="406.835938" xlink:href="#DejaVuSans-3a"/>
     <use x="440.527344" xlink:href="#DejaVuSans-20"/>
     <use x="472.314453" xlink:href="#DejaVuSans-45"/>
     <use x="535.498047" xlink:href="#DejaVuSans-49"/>
    </g>
   </g>
   <g id="text_17">
    <!-- Iter=1 -->
    <g transform="translate(71.985124 226.632)scale(0.12 -0.12)">
     <defs>
      <path d="M 2631 2963 
Q 2534 3019 2420 3045 
Q 2306 3072 2169 3072 
Q 1681 3072 1420 2755 
Q 1159 2438 1159 1844 
L 1159 0 
L 581 0 
L 581 3500 
L 1159 3500 
L 1159 2956 
Q 1341 3275 1631 3429 
Q 1922 3584 2338 3584 
Q 2397 3584 2469 3576 
Q 2541 3569 2628 3553 
L 2631 2963 
z
" id="DejaVuSans-72" transform="scale(0.015625)"/>
      <path d="M 678 2906 
L 4684 2906 
L 4684 2381 
L 678 2381 
L 678 2906 
z
M 678 1631 
L 4684 1631 
L 4684 1100 
L 678 1100 
L 678 1631 
z
" id="DejaVuSans-3d" transform="scale(0.015625)"/>
     </defs>
     <use xlink:href="#DejaVuSans-49"/>
     <use x="29.492188" xlink:href="#DejaVuSans-74"/>
     <use x="68.701172" xlink:href="#DejaVuSans-65"/>
     <use x="130.224609" xlink:href="#DejaVuSans-72"/>
     <use x="171.337891" xlink:href="#DejaVuSans-3d"/>
     <use x="255.126953" xlink:href="#DejaVuSans-31"/>
    </g>
   </g>
   <g id="legend_1">
    <g id="patch_7">
     <path d="M 144.327812 140.235625 
L 298.472188 140.235625 
Q 300.672188 140.235625 300.672188 138.035625 
L 300.672188 42.26 
Q 300.672188 40.06 298.472188 40.06 
L 144.327812 40.06 
Q 142.127813 40.06 142.127813 42.26 
L 142.127813 138.035625 
Q 142.127813 140.235625 144.327812 140.235625 
z
" style="fill:#ffffff;opacity:0.8;stroke:#cccccc;stroke-linejoin:miter;"/>
    </g>
    <g id="line2d_18">
     <path d="M 146.527813 48.968281 
L 168.527813 48.968281 
" style="fill:none;stroke:#0000ff;stroke-linecap:square;stroke-width:2;"/>
    </g>
    <g id="line2d_19"/>
    <g id="text_18">
     <!-- ture function -->
     <g transform="translate(177.327813 52.818281)scale(0.11 -0.11)">
      <defs>
       <path d="M 544 1381 
L 544 3500 
L 1119 3500 
L 1119 1403 
Q 1119 906 1312 657 
Q 1506 409 1894 409 
Q 2359 409 2629 706 
Q 2900 1003 2900 1516 
L 2900 3500 
L 3475 3500 
L 3475 0 
L 2900 0 
L 2900 538 
Q 2691 219 2414 64 
Q 2138 -91 1772 -91 
Q 1169 -91 856 284 
Q 544 659 544 1381 
z
M 1991 3584 
L 1991 3584 
z
" id="DejaVuSans-75" transform="scale(0.015625)"/>
       <path d="M 2375 4863 
L 2375 4384 
L 1825 4384 
Q 1516 4384 1395 4259 
Q 1275 4134 1275 3809 
L 1275 3500 
L 2222 3500 
L 2222 3053 
L 1275 3053 
L 1275 0 
L 697 0 
L 697 3053 
L 147 3053 
L 147 3500 
L 697 3500 
L 697 3744 
Q 697 4328 969 4595 
Q 1241 4863 1831 4863 
L 2375 4863 
z
" id="DejaVuSans-66" transform="scale(0.015625)"/>
       <path d="M 3513 2113 
L 3513 0 
L 2938 0 
L 2938 2094 
Q 2938 2591 2744 2837 
Q 2550 3084 2163 3084 
Q 1697 3084 1428 2787 
Q 1159 2491 1159 1978 
L 1159 0 
L 581 0 
L 581 3500 
L 1159 3500 
L 1159 2956 
Q 1366 3272 1645 3428 
Q 1925 3584 2291 3584 
Q 2894 3584 3203 3211 
Q 3513 2838 3513 2113 
z
" id="DejaVuSans-6e" transform="scale(0.015625)"/>
       <path d="M 3122 3366 
L 3122 2828 
Q 2878 2963 2633 3030 
Q 2388 3097 2138 3097 
Q 1578 3097 1268 2742 
Q 959 2388 959 1747 
Q 959 1106 1268 751 
Q 1578 397 2138 397 
Q 2388 397 2633 464 
Q 2878 531 3122 666 
L 3122 134 
Q 2881 22 2623 -34 
Q 2366 -91 2075 -91 
Q 1284 -91 818 406 
Q 353 903 353 1747 
Q 353 2603 823 3093 
Q 1294 3584 2113 3584 
Q 2378 3584 2631 3529 
Q 2884 3475 3122 3366 
z
" id="DejaVuSans-63" transform="scale(0.015625)"/>
       <path d="M 603 3500 
L 1178 3500 
L 1178 0 
L 603 0 
L 603 3500 
z
M 603 4863 
L 1178 4863 
L 1178 4134 
L 603 4134 
L 603 4863 
z
" id="DejaVuSans-69" transform="scale(0.015625)"/>
      </defs>
      <use xlink:href="#DejaVuSans-74"/>
      <use x="39.208984" xlink:href="#DejaVuSans-75"/>
      <use x="102.587891" xlink:href="#DejaVuSans-72"/>
      <use x="141.451172" xlink:href="#DejaVuSans-65"/>
      <use x="202.974609" xlink:href="#DejaVuSans-20"/>
      <use x="234.761719" xlink:href="#DejaVuSans-66"/>
      <use x="269.966797" xlink:href="#DejaVuSans-75"/>
      <use x="333.345703" xlink:href="#DejaVuSans-6e"/>
      <use x="396.724609" xlink:href="#DejaVuSans-63"/>
      <use x="451.705078" xlink:href="#DejaVuSans-74"/>
      <use x="490.914062" xlink:href="#DejaVuSans-69"/>
      <use x="518.697266" xlink:href="#DejaVuSans-6f"/>
      <use x="579.878906" xlink:href="#DejaVuSans-6e"/>
     </g>
    </g>
    <g id="line2d_20">
     <path d="M 146.527813 65.114219 
L 168.527813 65.114219 
" style="fill:none;stroke:#000000;stroke-dasharray:7.4,3.2;stroke-dashoffset:0;stroke-width:2;"/>
    </g>
    <g id="line2d_21"/>
    <g id="text_19">
     <!-- predicted function -->
     <g transform="translate(177.327813 68.964219)scale(0.11 -0.11)">
      <defs>
       <path d="M 1159 525 
L 1159 -1331 
L 581 -1331 
L 581 3500 
L 1159 3500 
L 1159 2969 
Q 1341 3281 1617 3432 
Q 1894 3584 2278 3584 
Q 2916 3584 3314 3078 
Q 3713 2572 3713 1747 
Q 3713 922 3314 415 
Q 2916 -91 2278 -91 
Q 1894 -91 1617 61 
Q 1341 213 1159 525 
z
M 3116 1747 
Q 3116 2381 2855 2742 
Q 2594 3103 2138 3103 
Q 1681 3103 1420 2742 
Q 1159 2381 1159 1747 
Q 1159 1113 1420 752 
Q 1681 391 2138 391 
Q 2594 391 2855 752 
Q 3116 1113 3116 1747 
z
" id="DejaVuSans-70" transform="scale(0.015625)"/>
      </defs>
      <use xlink:href="#DejaVuSans-70"/>
      <use x="63.476562" xlink:href="#DejaVuSans-72"/>
      <use x="102.339844" xlink:href="#DejaVuSans-65"/>
      <use x="163.863281" xlink:href="#DejaVuSans-64"/>
      <use x="227.339844" xlink:href="#DejaVuSans-69"/>
      <use x="255.123047" xlink:href="#DejaVuSans-63"/>
      <use x="310.103516" xlink:href="#DejaVuSans-74"/>
      <use x="349.3125" xlink:href="#DejaVuSans-65"/>
      <use x="410.835938" xlink:href="#DejaVuSans-64"/>
      <use x="474.3125" xlink:href="#DejaVuSans-20"/>
      <use x="506.099609" xlink:href="#DejaVuSans-66"/>
      <use x="541.304688" xlink:href="#DejaVuSans-75"/>
      <use x="604.683594" xlink:href="#DejaVuSans-6e"/>
      <use x="668.0625" xlink:href="#DejaVuSans-63"/>
      <use x="723.042969" xlink:href="#DejaVuSans-74"/>
      <use x="762.251953" xlink:href="#DejaVuSans-69"/>
      <use x="790.035156" xlink:href="#DejaVuSans-6f"/>
      <use x="851.216797" xlink:href="#DejaVuSans-6e"/>
     </g>
    </g>
    <g id="line2d_22">
     <path d="M 146.527813 81.260156 
L 168.527813 81.260156 
" style="fill:none;stroke:#008000;stroke-dasharray:3.7,1.6;stroke-dashoffset:0;"/>
    </g>
    <g id="line2d_23"/>
    <g id="text_20">
     <!--  ± Sn(x) -->
     <g transform="translate(177.327813 85.110156)scale(0.11 -0.11)">
      <defs>
       <path d="M 2944 4013 
L 2944 2803 
L 4684 2803 
L 4684 2272 
L 2944 2272 
L 2944 1063 
L 2419 1063 
L 2419 2272 
L 678 2272 
L 678 2803 
L 2419 2803 
L 2419 4013 
L 2944 4013 
z
M 678 531 
L 4684 531 
L 4684 0 
L 678 0 
L 678 531 
z
" id="DejaVuSans-b1" transform="scale(0.015625)"/>
       <path d="M 3425 4513 
L 3425 3897 
Q 3066 4069 2747 4153 
Q 2428 4238 2131 4238 
Q 1616 4238 1336 4038 
Q 1056 3838 1056 3469 
Q 1056 3159 1242 3001 
Q 1428 2844 1947 2747 
L 2328 2669 
Q 3034 2534 3370 2195 
Q 3706 1856 3706 1288 
Q 3706 609 3251 259 
Q 2797 -91 1919 -91 
Q 1588 -91 1214 -16 
Q 841 59 441 206 
L 441 856 
Q 825 641 1194 531 
Q 1563 422 1919 422 
Q 2459 422 2753 634 
Q 3047 847 3047 1241 
Q 3047 1584 2836 1778 
Q 2625 1972 2144 2069 
L 1759 2144 
Q 1053 2284 737 2584 
Q 422 2884 422 3419 
Q 422 4038 858 4394 
Q 1294 4750 2059 4750 
Q 2388 4750 2728 4690 
Q 3069 4631 3425 4513 
z
" id="DejaVuSans-53" transform="scale(0.015625)"/>
       <path d="M 1984 4856 
Q 1566 4138 1362 3434 
Q 1159 2731 1159 2009 
Q 1159 1288 1364 580 
Q 1569 -128 1984 -844 
L 1484 -844 
Q 1016 -109 783 600 
Q 550 1309 550 2009 
Q 550 2706 781 3412 
Q 1013 4119 1484 4856 
L 1984 4856 
z
" id="DejaVuSans-28" transform="scale(0.015625)"/>
       <path d="M 513 4856 
L 1013 4856 
Q 1481 4119 1714 3412 
Q 1947 2706 1947 2009 
Q 1947 1309 1714 600 
Q 1481 -109 1013 -844 
L 513 -844 
Q 928 -128 1133 580 
Q 1338 1288 1338 2009 
Q 1338 2731 1133 3434 
Q 928 4138 513 4856 
z
" id="DejaVuSans-29" transform="scale(0.015625)"/>
      </defs>
      <use xlink:href="#DejaVuSans-20"/>
      <use x="31.787109" xlink:href="#DejaVuSans-b1"/>
      <use x="115.576172" xlink:href="#DejaVuSans-20"/>
      <use x="147.363281" xlink:href="#DejaVuSans-53"/>
      <use x="210.839844" xlink:href="#DejaVuSans-6e"/>
      <use x="274.21875" xlink:href="#DejaVuSans-28"/>
      <use x="313.232422" xlink:href="#DejaVuSans-78"/>
      <use x="372.412109" xlink:href="#DejaVuSans-29"/>
     </g>
    </g>
    <g id="line2d_24">
     <path d="M 146.527813 97.406094 
L 168.527813 97.406094 
" style="fill:none;stroke:#bfbf00;stroke-dasharray:7.4,3.2;stroke-dashoffset:0;stroke-width:2;"/>
    </g>
    <g id="line2d_25"/>
    <g id="text_21">
     <!-- EI(x) -->
     <g transform="translate(177.327813 101.256094)scale(0.11 -0.11)">
      <use xlink:href="#DejaVuSans-45"/>
      <use x="63.183594" xlink:href="#DejaVuSans-49"/>
      <use x="92.675781" xlink:href="#DejaVuSans-28"/>
      <use x="131.689453" xlink:href="#DejaVuSans-78"/>
      <use x="190.869141" xlink:href="#DejaVuSans-29"/>
     </g>
    </g>
    <g id="PathCollection_2">
     <defs>
      <path d="M 0 3.535534 
C 0.937635 3.535534 1.836992 3.163008 2.5 2.5 
C 3.163008 1.836992 3.535534 0.937635 3.535534 0 
C 3.535534 -0.937635 3.163008 -1.836992 2.5 -2.5 
C 1.836992 -3.163008 0.937635 -3.535534 0 -3.535534 
C -0.937635 -3.535534 -1.836992 -3.163008 -2.5 -2.5 
C -3.163008 -1.836992 -3.535534 -0.937635 -3.535534 0 
C -3.535534 0.937635 -3.163008 1.836992 -2.5 2.5 
C -1.836992 3.163008 -0.937635 3.535534 0 3.535534 
z
" id="m13cb64edf0" style="stroke:#000000;"/>
     </defs>
     <g>
      <use style="fill:#ff0000;stroke:#000000;" x="157.527813" xlink:href="#m13cb64edf0" y="114.514531"/>
     </g>
    </g>
    <g id="text_22">
     <!-- training data -->
     <g transform="translate(177.327813 117.402031)scale(0.11 -0.11)">
      <defs>
       <path d="M 2194 1759 
Q 1497 1759 1228 1600 
Q 959 1441 959 1056 
Q 959 750 1161 570 
Q 1363 391 1709 391 
Q 2188 391 2477 730 
Q 2766 1069 2766 1631 
L 2766 1759 
L 2194 1759 
z
M 3341 1997 
L 3341 0 
L 2766 0 
L 2766 531 
Q 2569 213 2275 61 
Q 1981 -91 1556 -91 
Q 1019 -91 701 211 
Q 384 513 384 1019 
Q 384 1609 779 1909 
Q 1175 2209 1959 2209 
L 2766 2209 
L 2766 2266 
Q 2766 2663 2505 2880 
Q 2244 3097 1772 3097 
Q 1472 3097 1187 3025 
Q 903 2953 641 2809 
L 641 3341 
Q 956 3463 1253 3523 
Q 1550 3584 1831 3584 
Q 2591 3584 2966 3190 
Q 3341 2797 3341 1997 
z
" id="DejaVuSans-61" transform="scale(0.015625)"/>
       <path d="M 2906 1791 
Q 2906 2416 2648 2759 
Q 2391 3103 1925 3103 
Q 1463 3103 1205 2759 
Q 947 2416 947 1791 
Q 947 1169 1205 825 
Q 1463 481 1925 481 
Q 2391 481 2648 825 
Q 2906 1169 2906 1791 
z
M 3481 434 
Q 3481 -459 3084 -895 
Q 2688 -1331 1869 -1331 
Q 1566 -1331 1297 -1286 
Q 1028 -1241 775 -1147 
L 775 -588 
Q 1028 -725 1275 -790 
Q 1522 -856 1778 -856 
Q 2344 -856 2625 -561 
Q 2906 -266 2906 331 
L 2906 616 
Q 2728 306 2450 153 
Q 2172 0 1784 0 
Q 1141 0 747 490 
Q 353 981 353 1791 
Q 353 2603 747 3093 
Q 1141 3584 1784 3584 
Q 2172 3584 2450 3431 
Q 2728 3278 2906 2969 
L 2906 3500 
L 3481 3500 
L 3481 434 
z
" id="DejaVuSans-67" transform="scale(0.015625)"/>
      </defs>
      <use xlink:href="#DejaVuSans-74"/>
      <use x="39.208984" xlink:href="#DejaVuSans-72"/>
      <use x="80.322266" xlink:href="#DejaVuSans-61"/>
      <use x="141.601562" xlink:href="#DejaVuSans-69"/>
      <use x="169.384766" xlink:href="#DejaVuSans-6e"/>
      <use x="232.763672" xlink:href="#DejaVuSans-69"/>
      <use x="260.546875" xlink:href="#DejaVuSans-6e"/>
      <use x="323.925781" xlink:href="#DejaVuSans-67"/>
      <use x="387.402344" xlink:href="#DejaVuSans-20"/>
      <use x="419.189453" xlink:href="#DejaVuSans-64"/>
      <use x="482.666016" xlink:href="#DejaVuSans-61"/>
      <use x="543.945312" xlink:href="#DejaVuSans-74"/>
      <use x="583.154297" xlink:href="#DejaVuSans-61"/>
     </g>
    </g>
    <g id="PathCollection_3">
     <g>
      <use style="fill:#ff0000;stroke:#ff0000;stroke-width:8;" x="157.527813" xlink:href="#m4ff51c330d" y="130.660469"/>
     </g>
    </g>
    <g id="text_23">
     <!-- recommended datum -->
     <g transform="translate(177.327813 133.547969)scale(0.11 -0.11)">
      <defs>
       <path d="M 3328 2828 
Q 3544 3216 3844 3400 
Q 4144 3584 4550 3584 
Q 5097 3584 5394 3201 
Q 5691 2819 5691 2113 
L 5691 0 
L 5113 0 
L 5113 2094 
Q 5113 2597 4934 2840 
Q 4756 3084 4391 3084 
Q 3944 3084 3684 2787 
Q 3425 2491 3425 1978 
L 3425 0 
L 2847 0 
L 2847 2094 
Q 2847 2600 2669 2842 
Q 2491 3084 2119 3084 
Q 1678 3084 1418 2786 
Q 1159 2488 1159 1978 
L 1159 0 
L 581 0 
L 581 3500 
L 1159 3500 
L 1159 2956 
Q 1356 3278 1631 3431 
Q 1906 3584 2284 3584 
Q 2666 3584 2933 3390 
Q 3200 3197 3328 2828 
z
" id="DejaVuSans-6d" transform="scale(0.015625)"/>
      </defs>
      <use xlink:href="#DejaVuSans-72"/>
      <use x="38.863281" xlink:href="#DejaVuSans-65"/>
      <use x="100.386719" xlink:href="#DejaVuSans-63"/>
      <use x="155.367188" xlink:href="#DejaVuSans-6f"/>
      <use x="216.548828" xlink:href="#DejaVuSans-6d"/>
      <use x="313.960938" xlink:href="#DejaVuSans-6d"/>
      <use x="411.373047" xlink:href="#DejaVuSans-65"/>
      <use x="472.896484" xlink:href="#DejaVuSans-6e"/>
      <use x="536.275391" xlink:href="#DejaVuSans-64"/>
      <use x="599.751953" xlink:href="#DejaVuSans-65"/>
      <use x="661.275391" xlink:href="#DejaVuSans-64"/>
      <use x="724.751953" xlink:href="#DejaVuSans-20"/>
      <use x="756.539062" xlink:href="#DejaVuSans-64"/>
      <use x="820.015625" xlink:href="#DejaVuSans-61"/>
      <use x="881.294922" xlink:href="#DejaVuSans-74"/>
      <use x="920.503906" xlink:href="#DejaVuSans-75"/>
      <use x="983.882812" xlink:href="#DejaVuSans-6d"/>
     </g>
    </g>
   </g>
   <g id="line2d_26">
    <path clip-path="url(#p1d4142ff89)" d="M 69.218182 141.94782 
L 71.985124 140.194383 
L 74.752066 139.158802 
L 77.519008 138.957813 
L 80.28595 139.67207 
L 83.052893 141.33753 
L 85.819835 143.940077 
L 88.586777 147.414096 
L 91.353719 151.645317 
L 94.120661 156.477767 
L 96.887603 161.724201 
L 99.654545 167.179014 
L 102.421488 172.632356 
L 105.18843 177.884103 
L 107.955372 182.756381 
L 110.722314 187.103622 
L 113.489256 190.819388 
L 116.256198 193.839687 
L 119.02314 196.142813 
L 121.790083 197.746136 
L 124.557025 198.700492 
L 127.323967 199.082951 
L 130.090909 198.988767 
L 132.857851 198.52325 
L 135.624793 197.794153 
L 138.391736 196.905001 
L 141.158678 195.949628 
L 143.92562 195.00804 
L 146.692562 194.14362 
L 149.459504 193.401612 
L 152.226446 192.808784 
L 154.993388 192.374158 
L 157.760331 192.09066 
L 160.527273 191.937555 
L 163.294215 191.883475 
L 166.061157 191.889861 
L 168.828099 191.914582 
L 171.595041 191.915494 
L 174.361983 191.853715 
L 177.128926 191.696382 
L 179.895868 191.418733 
L 182.66281 191.005404 
L 185.429752 190.450897 
L 188.196694 189.759259 
L 190.963636 188.943064 
L 193.730579 188.021873 
L 196.497521 187.020322 
L 199.264463 185.966065 
L 202.031405 184.88773 
L 204.798347 183.813068 
L 207.565289 182.767402 
L 210.332231 181.772461 
L 213.099174 180.84564 
L 215.866116 179.999669 
L 218.633058 179.242668 
L 221.4 178.578529 
L 224.166942 178.007541 
L 226.933884 177.527202 
L 229.700826 177.133131 
L 232.467769 176.820027 
L 235.234711 176.582618 
L 238.001653 176.416579 
L 240.768595 176.31937 
L 243.535537 176.291 
L 246.302479 176.334685 
L 249.069421 176.457382 
L 251.836364 176.670168 
L 254.603306 176.988422 
L 257.370248 177.431734 
L 260.13719 178.023469 
L 262.904132 178.789888 
L 265.671074 179.758721 
L 268.438017 180.957123 
L 271.204959 182.40893 
L 273.971901 184.131237 
L 276.738843 186.130353 
L 279.505785 188.397315 
L 282.272727 190.903248 
L 285.039669 193.594987 
L 287.806612 196.391486 
L 290.573554 199.181622 
L 293.340496 201.824047 
L 296.107438 204.149654 
L 298.87438 205.967158 
L 301.641322 207.071974 
L 304.408264 207.25832 
L 307.175207 206.334034 
L 309.942149 204.137164 
L 312.709091 200.553031 
L 315.476033 195.530113 
L 318.242975 189.09295 
L 321.009917 181.35035 
L 323.77686 172.497405 
L 326.543802 162.810387 
L 329.310744 152.634254 
L 332.077686 142.36334 
L 334.844628 132.416596 
L 337.61157 123.209493 
L 340.378512 115.125168 
L 343.145455 108.487617 
L 345.912397 103.53957 
L 348.679339 100.427215 
L 351.446281 99.193165 
L 354.213223 99.778133 
L 356.980165 102.030817 
L 359.747107 105.724603 
L 362.51405 110.579049 
L 365.280992 116.283725 
L 368.047934 122.521942 
L 370.814876 128.992183 
L 373.581818 135.425505 
" style="fill:none;stroke:#000000;stroke-dasharray:7.4,3.2;stroke-dashoffset:0;stroke-width:2;"/>
   </g>
   <g id="PathCollection_4">
    <g clip-path="url(#p1d4142ff89)">
     <use style="fill:#ff0000;stroke:#000000;" x="83.052893" xlink:href="#m13cb64edf0" y="129.399309"/>
     <use style="fill:#ff0000;stroke:#000000;" x="96.887603" xlink:href="#m13cb64edf0" y="162.429541"/>
     <use style="fill:#ff0000;stroke:#000000;" x="110.722314" xlink:href="#m13cb64edf0" y="193.170209"/>
     <use style="fill:#ff0000;stroke:#000000;" x="124.557025" xlink:href="#m13cb64edf0" y="199.248575"/>
     <use style="fill:#ff0000;stroke:#000000;" x="138.391736" xlink:href="#m13cb64edf0" y="199.347548"/>
     <use style="fill:#ff0000;stroke:#000000;" x="152.226446" xlink:href="#m13cb64edf0" y="191.611971"/>
     <use style="fill:#ff0000;stroke:#000000;" x="166.061157" xlink:href="#m13cb64edf0" y="193.66847"/>
     <use style="fill:#ff0000;stroke:#000000;" x="179.895868" xlink:href="#m13cb64edf0" y="193.283098"/>
     <use style="fill:#ff0000;stroke:#000000;" x="193.730579" xlink:href="#m13cb64edf0" y="188.924027"/>
     <use style="fill:#ff0000;stroke:#000000;" x="318.242975" xlink:href="#m13cb64edf0" y="199.289596"/>
     <use style="fill:#ff0000;stroke:#000000;" x="332.077686" xlink:href="#m13cb64edf0" y="145.37007"/>
     <use style="fill:#ff0000;stroke:#000000;" x="345.912397" xlink:href="#m13cb64edf0" y="78.407322"/>
     <use style="fill:#ff0000;stroke:#000000;" x="301.641322" xlink:href="#m13cb64edf0" y="209.239805"/>
    </g>
   </g>
  </g>
 </g>
 <defs>
  <clipPath id="p1d4142ff89">
   <rect height="217.44" width="334.8" x="54" y="34.56"/>
  </clipPath>
 </defs>
</svg>
