<?xml version="1.0" encoding="utf-8" standalone="no"?>
<!DOCTYPE svg PUBLIC "-//W3C//DTD SVG 1.1//EN"
  "http://www.w3.org/Graphics/SVG/1.1/DTD/svg11.dtd">
<svg height="288pt" version="1.1" viewBox="0 0 432 288" width="432pt" xmlns="http://www.w3.org/2000/svg" xmlns:xlink="http://www.w3.org/1999/xlink">
 <metadata>
  <rdf:RDF xmlns:cc="http://creativecommons.org/ns#" xmlns:dc="http://purl.org/dc/elements/1.1/" xmlns:rdf="http://www.w3.org/1999/02/22-rdf-syntax-ns#">
   <cc:Work>
    <dc:type rdf:resource="http://purl.org/dc/dcmitype/StillImage"/>
    <dc:date>2022-08-02T11:36:52.660689</dc:date>
    <dc:format>image/svg+xml</dc:format>
    <dc:creator>
     <cc:Agent>
      <dc:title>Matplotlib v3.4.3, https://matplotlib.org/</dc:title>
     </cc:Agent>
    </dc:creator>
   </cc:Work>
  </rdf:RDF>
 </metadata>
 <defs>
  <style type="text/css">*{stroke-linecap:butt;stroke-linejoin:round;}</style>
 </defs>
 <g id="figure_1">
  <g id="patch_1">
   <path d="M 0 288 
L 432 288 
L 432 0 
L 0 0 
z
" style="fill:none;"/>
  </g>
  <g id="axes_1">
   <g id="patch_2">
    <path d="M 54 252 
L 388.8 252 
L 388.8 34.56 
L 54 34.56 
z
" style="fill:#ffffff;"/>
   </g>
   <g id="PolyCollection_1">
    <defs>
     <path d="M 69.218182 -169.068794 
L 69.218182 -123.37283 
L 71.985124 -126.026073 
L 74.752066 -127.994976 
L 77.519008 -129.175684 
L 80.28595 -129.487418 
L 83.052893 -128.881652 
L 85.819835 -127.352207 
L 88.586777 -124.943988 
L 91.353719 -121.755904 
L 94.120661 -117.933828 
L 96.887603 -113.654256 
L 99.654545 -109.104503 
L 102.421488 -104.465838 
L 105.18843 -99.902371 
L 107.955372 -95.555094 
L 110.722314 -91.539329 
L 113.489256 -87.944095 
L 116.256198 -84.832544 
L 119.02314 -82.243009 
L 121.790083 -80.190482 
L 124.557025 -78.668461 
L 127.323967 -77.651187 
L 130.090909 -77.09634 
L 132.857851 -76.948239 
L 135.624793 -77.141486 
L 138.391736 -77.60492 
L 141.158678 -78.265675 
L 143.92562 -79.053089 
L 146.692562 -79.902262 
L 149.459504 -80.757078 
L 152.226446 -81.572574 
L 154.993388 -82.316501 
L 157.760331 -82.969943 
L 160.527273 -83.526802 
L 163.294215 -83.991986 
L 166.061157 -84.378211 
L 168.828099 -84.701498 
L 171.595041 -84.975638 
L 174.361983 -85.206196 
L 177.128926 -85.384953 
L 179.895868 -85.486263 
L 182.66281 -85.467344 
L 185.429752 -85.274476 
L 188.196694 -84.855271 
L 190.963636 -84.173402 
L 193.730579 -83.219415 
L 196.497521 -82.013079 
L 199.264463 -80.59813 
L 202.031405 -79.033768 
L 204.798347 -77.386628 
L 207.565289 -75.72462 
L 210.332231 -74.112427 
L 213.099174 -72.608033 
L 215.866116 -71.259785 
L 218.633058 -70.103751 
L 221.4 -69.161328 
L 224.166942 -68.437157 
L 226.933884 -67.917489 
L 229.700826 -67.569222 
L 232.467769 -67.339957 
L 235.234711 -67.15971 
L 238.001653 -66.945319 
L 240.768595 -66.608928 
L 243.535537 -66.071433 
L 246.302479 -65.279357 
L 249.069421 -64.219273 
L 251.836364 -62.921688 
L 254.603306 -61.450767 
L 257.370248 -59.88527 
L 260.13719 -58.300309 
L 262.904132 -56.756247 
L 265.671074 -55.295522 
L 268.438017 -53.945193 
L 271.204959 -52.72263 
L 273.971901 -51.642338 
L 276.738843 -50.722502 
L 279.505785 -49.990142 
L 282.272727 -49.484122 
L 285.039669 -49.255606 
L 287.806612 -49.366108 
L 290.573554 -49.883845 
L 293.340496 -50.879537 
L 296.107438 -52.422829 
L 298.87438 -54.580109 
L 301.641322 -57.41352 
L 304.408264 -60.979791 
L 307.175207 -65.327025 
L 309.942149 -70.488365 
L 312.709091 -76.473266 
L 315.476033 -83.258421 
L 318.242975 -90.780489 
L 321.009917 -98.931849 
L 323.77686 -107.55963 
L 326.543802 -116.467744 
L 329.310744 -125.421659 
L 332.077686 -134.156146 
L 334.844628 -142.387069 
L 337.61157 -149.82871 
L 340.378512 -156.21678 
L 343.145455 -161.333304 
L 345.912397 -165.025859 
L 348.679339 -167.215163 
L 351.446281 -167.891551 
L 354.213223 -167.105551 
L 356.980165 -164.957222 
L 359.747107 -161.586058 
L 362.51405 -157.161419 
L 365.280992 -151.873093 
L 368.047934 -145.921886 
L 370.814876 -139.510485 
L 373.581818 -132.835001 
L 373.581818 -195.318435 
L 373.581818 -195.318435 
L 370.814876 -199.161734 
L 368.047934 -202.429875 
L 365.280992 -204.969587 
L 362.51405 -206.640377 
L 359.747107 -207.322761 
L 356.980165 -206.926082 
L 354.213223 -205.395208 
L 351.446281 -202.715197 
L 348.679339 -198.912771 
L 345.912397 -194.053277 
L 343.145455 -188.232472 
L 340.378512 -181.564586 
L 337.61157 -174.171381 
L 334.844628 -166.177827 
L 332.077686 -157.715665 
L 329.310744 -148.929906 
L 326.543802 -139.981942 
L 323.77686 -131.046782 
L 321.009917 -122.30584 
L 318.242975 -113.937916 
L 315.476033 -106.110389 
L 312.709091 -98.97149 
L 309.942149 -92.643751 
L 307.175207 -87.218337 
L 304.408264 -82.750253 
L 301.641322 -79.255102 
L 298.87438 -76.708821 
L 296.107438 -75.05165 
L 293.340496 -74.196178 
L 290.573554 -74.037624 
L 287.806612 -74.463746 
L 285.039669 -75.362451 
L 282.272727 -76.626501 
L 279.505785 -78.155808 
L 276.738843 -79.858432 
L 273.971901 -81.651446 
L 271.204959 -83.462528 
L 268.438017 -85.232631 
L 265.671074 -86.919627 
L 262.904132 -88.502414 
L 260.13719 -89.984705 
L 257.370248 -91.397327 
L 254.603306 -92.797298 
L 251.836364 -94.261291 
L 249.069421 -95.871477 
L 246.302479 -97.694674 
L 243.535537 -99.761199 
L 240.768595 -102.053141 
L 238.001653 -104.507397 
L 235.234711 -107.029914 
L 232.467769 -109.512945 
L 229.700826 -111.849421 
L 226.933884 -113.942787 
L 224.166942 -115.71307 
L 221.4 -117.100441 
L 218.633058 -118.067151 
L 215.866116 -118.598336 
L 213.099174 -118.701895 
L 210.332231 -118.407543 
L 207.565289 -117.765051 
L 204.798347 -116.841681 
L 202.031405 -115.718719 
L 199.264463 -114.486873 
L 196.497521 -113.240106 
L 193.730579 -112.067364 
L 190.963636 -111.042139 
L 188.196694 -110.211456 
L 185.429752 -109.588202 
L 182.66281 -109.151386 
L 179.895868 -108.855406 
L 177.128926 -108.643972 
L 174.361983 -108.462462 
L 171.595041 -108.265188 
L 168.828099 -108.017767 
L 166.061157 -107.696485 
L 163.294215 -107.286553 
L 160.527273 -106.780459 
L 157.760331 -106.177049 
L 154.993388 -105.48151 
L 152.226446 -104.706172 
L 149.459504 -103.871791 
L 146.692562 -103.008881 
L 143.92562 -102.158615 
L 141.158678 -101.372919 
L 138.391736 -100.713507 
L 135.624793 -100.249761 
L 132.857851 -100.055515 
L 130.090909 -100.204892 
L 127.323967 -100.767424 
L 124.557025 -101.802785 
L 121.790083 -103.35553 
L 119.02314 -105.450354 
L 116.256198 -108.088441 
L 113.489256 -111.245491 
L 110.722314 -114.871897 
L 107.955372 -118.895377 
L 105.18843 -123.226056 
L 102.421488 -127.763659 
L 99.654545 -132.406037 
L 96.887603 -137.057625 
L 94.120661 -141.635679 
L 91.353719 -146.07176 
L 88.586777 -150.307065 
L 85.819835 -154.283637 
L 83.052893 -157.937146 
L 80.28595 -161.196562 
L 77.519008 -163.990987 
L 74.752066 -166.259376 
L 71.985124 -167.958735 
L 69.218182 -169.068794 
z
" id="meff89f8b88" style="stroke:#add8e6;stroke-opacity:0.2;"/>
    </defs>
    <g clip-path="url(#pb4c41ed080)">
     <use style="fill:#add8e6;fill-opacity:0.2;stroke:#add8e6;stroke-opacity:0.2;" x="0" xlink:href="#meff89f8b88" y="288"/>
    </g>
   </g>
   <g id="PathCollection_1">
    <defs>
     <path d="M 0 0.612372 
C 0.162403 0.612372 0.318176 0.547849 0.433013 0.433013 
C 0.547849 0.318176 0.612372 0.162403 0.612372 0 
C 0.612372 -0.162403 0.547849 -0.318176 0.433013 -0.433013 
C 0.318176 -0.547849 0.162403 -0.612372 0 -0.612372 
C -0.162403 -0.612372 -0.318176 -0.547849 -0.433013 -0.433013 
C -0.547849 -0.318176 -0.612372 -0.162403 -0.612372 0 
C -0.612372 0.162403 -0.547849 0.318176 -0.433013 0.433013 
C -0.318176 0.547849 -0.162403 0.612372 0 0.612372 
z
" id="m8afe84d094" style="stroke:#ff0000;stroke-width:8;"/>
    </defs>
    <g clip-path="url(#pb4c41ed080)">
     <use style="fill:#ff0000;stroke:#ff0000;stroke-width:8;" x="285.039669" xlink:href="#m8afe84d094" y="232.288213"/>
    </g>
   </g>
   <g id="matplotlib.axis_1">
    <g id="xtick_1">
     <g id="line2d_1">
      <defs>
       <path d="M 0 0 
L 0 3.5 
" id="m1ceff1320c" style="stroke:#000000;stroke-width:0.8;"/>
      </defs>
      <g>
       <use style="stroke:#000000;stroke-width:0.8;" x="69.218182" xlink:href="#m1ceff1320c" y="252"/>
      </g>
     </g>
     <g id="text_1">
      <!-- 0 -->
      <g transform="translate(66.036932 266.598437)scale(0.1 -0.1)">
       <defs>
        <path d="M 2034 4250 
Q 1547 4250 1301 3770 
Q 1056 3291 1056 2328 
Q 1056 1369 1301 889 
Q 1547 409 2034 409 
Q 2525 409 2770 889 
Q 3016 1369 3016 2328 
Q 3016 3291 2770 3770 
Q 2525 4250 2034 4250 
z
M 2034 4750 
Q 2819 4750 3233 4129 
Q 3647 3509 3647 2328 
Q 3647 1150 3233 529 
Q 2819 -91 2034 -91 
Q 1250 -91 836 529 
Q 422 1150 422 2328 
Q 422 3509 836 4129 
Q 1250 4750 2034 4750 
z
" id="DejaVuSans-30" transform="scale(0.015625)"/>
       </defs>
       <use xlink:href="#DejaVuSans-30"/>
      </g>
     </g>
    </g>
    <g id="xtick_2">
     <g id="line2d_2">
      <g>
       <use style="stroke:#000000;stroke-width:0.8;" x="124.557025" xlink:href="#m1ceff1320c" y="252"/>
      </g>
     </g>
     <g id="text_2">
      <!-- 2 -->
      <g transform="translate(121.375775 266.598437)scale(0.1 -0.1)">
       <defs>
        <path d="M 1228 531 
L 3431 531 
L 3431 0 
L 469 0 
L 469 531 
Q 828 903 1448 1529 
Q 2069 2156 2228 2338 
Q 2531 2678 2651 2914 
Q 2772 3150 2772 3378 
Q 2772 3750 2511 3984 
Q 2250 4219 1831 4219 
Q 1534 4219 1204 4116 
Q 875 4013 500 3803 
L 500 4441 
Q 881 4594 1212 4672 
Q 1544 4750 1819 4750 
Q 2544 4750 2975 4387 
Q 3406 4025 3406 3419 
Q 3406 3131 3298 2873 
Q 3191 2616 2906 2266 
Q 2828 2175 2409 1742 
Q 1991 1309 1228 531 
z
" id="DejaVuSans-32" transform="scale(0.015625)"/>
       </defs>
       <use xlink:href="#DejaVuSans-32"/>
      </g>
     </g>
    </g>
    <g id="xtick_3">
     <g id="line2d_3">
      <g>
       <use style="stroke:#000000;stroke-width:0.8;" x="179.895868" xlink:href="#m1ceff1320c" y="252"/>
      </g>
     </g>
     <g id="text_3">
      <!-- 4 -->
      <g transform="translate(176.714618 266.598437)scale(0.1 -0.1)">
       <defs>
        <path d="M 2419 4116 
L 825 1625 
L 2419 1625 
L 2419 4116 
z
M 2253 4666 
L 3047 4666 
L 3047 1625 
L 3713 1625 
L 3713 1100 
L 3047 1100 
L 3047 0 
L 2419 0 
L 2419 1100 
L 313 1100 
L 313 1709 
L 2253 4666 
z
" id="DejaVuSans-34" transform="scale(0.015625)"/>
       </defs>
       <use xlink:href="#DejaVuSans-34"/>
      </g>
     </g>
    </g>
    <g id="xtick_4">
     <g id="line2d_4">
      <g>
       <use style="stroke:#000000;stroke-width:0.8;" x="235.234711" xlink:href="#m1ceff1320c" y="252"/>
      </g>
     </g>
     <g id="text_4">
      <!-- 6 -->
      <g transform="translate(232.053461 266.598437)scale(0.1 -0.1)">
       <defs>
        <path d="M 2113 2584 
Q 1688 2584 1439 2293 
Q 1191 2003 1191 1497 
Q 1191 994 1439 701 
Q 1688 409 2113 409 
Q 2538 409 2786 701 
Q 3034 994 3034 1497 
Q 3034 2003 2786 2293 
Q 2538 2584 2113 2584 
z
M 3366 4563 
L 3366 3988 
Q 3128 4100 2886 4159 
Q 2644 4219 2406 4219 
Q 1781 4219 1451 3797 
Q 1122 3375 1075 2522 
Q 1259 2794 1537 2939 
Q 1816 3084 2150 3084 
Q 2853 3084 3261 2657 
Q 3669 2231 3669 1497 
Q 3669 778 3244 343 
Q 2819 -91 2113 -91 
Q 1303 -91 875 529 
Q 447 1150 447 2328 
Q 447 3434 972 4092 
Q 1497 4750 2381 4750 
Q 2619 4750 2861 4703 
Q 3103 4656 3366 4563 
z
" id="DejaVuSans-36" transform="scale(0.015625)"/>
       </defs>
       <use xlink:href="#DejaVuSans-36"/>
      </g>
     </g>
    </g>
    <g id="xtick_5">
     <g id="line2d_5">
      <g>
       <use style="stroke:#000000;stroke-width:0.8;" x="290.573554" xlink:href="#m1ceff1320c" y="252"/>
      </g>
     </g>
     <g id="text_5">
      <!-- 8 -->
      <g transform="translate(287.392304 266.598437)scale(0.1 -0.1)">
       <defs>
        <path d="M 2034 2216 
Q 1584 2216 1326 1975 
Q 1069 1734 1069 1313 
Q 1069 891 1326 650 
Q 1584 409 2034 409 
Q 2484 409 2743 651 
Q 3003 894 3003 1313 
Q 3003 1734 2745 1975 
Q 2488 2216 2034 2216 
z
M 1403 2484 
Q 997 2584 770 2862 
Q 544 3141 544 3541 
Q 544 4100 942 4425 
Q 1341 4750 2034 4750 
Q 2731 4750 3128 4425 
Q 3525 4100 3525 3541 
Q 3525 3141 3298 2862 
Q 3072 2584 2669 2484 
Q 3125 2378 3379 2068 
Q 3634 1759 3634 1313 
Q 3634 634 3220 271 
Q 2806 -91 2034 -91 
Q 1263 -91 848 271 
Q 434 634 434 1313 
Q 434 1759 690 2068 
Q 947 2378 1403 2484 
z
M 1172 3481 
Q 1172 3119 1398 2916 
Q 1625 2713 2034 2713 
Q 2441 2713 2670 2916 
Q 2900 3119 2900 3481 
Q 2900 3844 2670 4047 
Q 2441 4250 2034 4250 
Q 1625 4250 1398 4047 
Q 1172 3844 1172 3481 
z
" id="DejaVuSans-38" transform="scale(0.015625)"/>
       </defs>
       <use xlink:href="#DejaVuSans-38"/>
      </g>
     </g>
    </g>
    <g id="xtick_6">
     <g id="line2d_6">
      <g>
       <use style="stroke:#000000;stroke-width:0.8;" x="345.912397" xlink:href="#m1ceff1320c" y="252"/>
      </g>
     </g>
     <g id="text_6">
      <!-- 10 -->
      <g transform="translate(339.549897 266.598437)scale(0.1 -0.1)">
       <defs>
        <path d="M 794 531 
L 1825 531 
L 1825 4091 
L 703 3866 
L 703 4441 
L 1819 4666 
L 2450 4666 
L 2450 531 
L 3481 531 
L 3481 0 
L 794 0 
L 794 531 
z
" id="DejaVuSans-31" transform="scale(0.015625)"/>
       </defs>
       <use xlink:href="#DejaVuSans-31"/>
       <use x="63.623047" xlink:href="#DejaVuSans-30"/>
      </g>
     </g>
    </g>
    <g id="text_7">
     <!-- x -->
     <g transform="translate(217.84875 281.79625)scale(0.12 -0.12)">
      <defs>
       <path d="M 3513 3500 
L 2247 1797 
L 3578 0 
L 2900 0 
L 1881 1375 
L 863 0 
L 184 0 
L 1544 1831 
L 300 3500 
L 978 3500 
L 1906 2253 
L 2834 3500 
L 3513 3500 
z
" id="DejaVuSans-78" transform="scale(0.015625)"/>
      </defs>
      <use xlink:href="#DejaVuSans-78"/>
     </g>
    </g>
   </g>
   <g id="matplotlib.axis_2">
    <g id="ytick_1">
     <g id="line2d_7">
      <defs>
       <path d="M 0 0 
L -3.5 0 
" id="m4cfa4b8c9a" style="stroke:#000000;stroke-width:0.8;"/>
      </defs>
      <g>
       <use style="stroke:#000000;stroke-width:0.8;" x="54" xlink:href="#m4cfa4b8c9a" y="252"/>
      </g>
     </g>
     <g id="text_8">
      <!-- 3 -->
      <g transform="translate(40.6375 255.799219)scale(0.1 -0.1)">
       <defs>
        <path d="M 2597 2516 
Q 3050 2419 3304 2112 
Q 3559 1806 3559 1356 
Q 3559 666 3084 287 
Q 2609 -91 1734 -91 
Q 1441 -91 1130 -33 
Q 819 25 488 141 
L 488 750 
Q 750 597 1062 519 
Q 1375 441 1716 441 
Q 2309 441 2620 675 
Q 2931 909 2931 1356 
Q 2931 1769 2642 2001 
Q 2353 2234 1838 2234 
L 1294 2234 
L 1294 2753 
L 1863 2753 
Q 2328 2753 2575 2939 
Q 2822 3125 2822 3475 
Q 2822 3834 2567 4026 
Q 2313 4219 1838 4219 
Q 1578 4219 1281 4162 
Q 984 4106 628 3988 
L 628 4550 
Q 988 4650 1302 4700 
Q 1616 4750 1894 4750 
Q 2613 4750 3031 4423 
Q 3450 4097 3450 3541 
Q 3450 3153 3228 2886 
Q 3006 2619 2597 2516 
z
" id="DejaVuSans-33" transform="scale(0.015625)"/>
       </defs>
       <use xlink:href="#DejaVuSans-33"/>
      </g>
     </g>
    </g>
    <g id="ytick_2">
     <g id="line2d_8">
      <g>
       <use style="stroke:#000000;stroke-width:0.8;" x="54" xlink:href="#m4cfa4b8c9a" y="215.76"/>
      </g>
     </g>
     <g id="text_9">
      <!-- 4 -->
      <g transform="translate(40.6375 219.559219)scale(0.1 -0.1)">
       <use xlink:href="#DejaVuSans-34"/>
      </g>
     </g>
    </g>
    <g id="ytick_3">
     <g id="line2d_9">
      <g>
       <use style="stroke:#000000;stroke-width:0.8;" x="54" xlink:href="#m4cfa4b8c9a" y="179.52"/>
      </g>
     </g>
     <g id="text_10">
      <!-- 5 -->
      <g transform="translate(40.6375 183.319219)scale(0.1 -0.1)">
       <defs>
        <path d="M 691 4666 
L 3169 4666 
L 3169 4134 
L 1269 4134 
L 1269 2991 
Q 1406 3038 1543 3061 
Q 1681 3084 1819 3084 
Q 2600 3084 3056 2656 
Q 3513 2228 3513 1497 
Q 3513 744 3044 326 
Q 2575 -91 1722 -91 
Q 1428 -91 1123 -41 
Q 819 9 494 109 
L 494 744 
Q 775 591 1075 516 
Q 1375 441 1709 441 
Q 2250 441 2565 725 
Q 2881 1009 2881 1497 
Q 2881 1984 2565 2268 
Q 2250 2553 1709 2553 
Q 1456 2553 1204 2497 
Q 953 2441 691 2322 
L 691 4666 
z
" id="DejaVuSans-35" transform="scale(0.015625)"/>
       </defs>
       <use xlink:href="#DejaVuSans-35"/>
      </g>
     </g>
    </g>
    <g id="ytick_4">
     <g id="line2d_10">
      <g>
       <use style="stroke:#000000;stroke-width:0.8;" x="54" xlink:href="#m4cfa4b8c9a" y="143.28"/>
      </g>
     </g>
     <g id="text_11">
      <!-- 6 -->
      <g transform="translate(40.6375 147.079219)scale(0.1 -0.1)">
       <use xlink:href="#DejaVuSans-36"/>
      </g>
     </g>
    </g>
    <g id="ytick_5">
     <g id="line2d_11">
      <g>
       <use style="stroke:#000000;stroke-width:0.8;" x="54" xlink:href="#m4cfa4b8c9a" y="107.04"/>
      </g>
     </g>
     <g id="text_12">
      <!-- 7 -->
      <g transform="translate(40.6375 110.839219)scale(0.1 -0.1)">
       <defs>
        <path d="M 525 4666 
L 3525 4666 
L 3525 4397 
L 1831 0 
L 1172 0 
L 2766 4134 
L 525 4134 
L 525 4666 
z
" id="DejaVuSans-37" transform="scale(0.015625)"/>
       </defs>
       <use xlink:href="#DejaVuSans-37"/>
      </g>
     </g>
    </g>
    <g id="ytick_6">
     <g id="line2d_12">
      <g>
       <use style="stroke:#000000;stroke-width:0.8;" x="54" xlink:href="#m4cfa4b8c9a" y="70.8"/>
      </g>
     </g>
     <g id="text_13">
      <!-- 8 -->
      <g transform="translate(40.6375 74.599219)scale(0.1 -0.1)">
       <use xlink:href="#DejaVuSans-38"/>
      </g>
     </g>
    </g>
    <g id="ytick_7">
     <g id="line2d_13">
      <g>
       <use style="stroke:#000000;stroke-width:0.8;" x="54" xlink:href="#m4cfa4b8c9a" y="34.56"/>
      </g>
     </g>
     <g id="text_14">
      <!-- 9 -->
      <g transform="translate(40.6375 38.359219)scale(0.1 -0.1)">
       <defs>
        <path d="M 703 97 
L 703 672 
Q 941 559 1184 500 
Q 1428 441 1663 441 
Q 2288 441 2617 861 
Q 2947 1281 2994 2138 
Q 2813 1869 2534 1725 
Q 2256 1581 1919 1581 
Q 1219 1581 811 2004 
Q 403 2428 403 3163 
Q 403 3881 828 4315 
Q 1253 4750 1959 4750 
Q 2769 4750 3195 4129 
Q 3622 3509 3622 2328 
Q 3622 1225 3098 567 
Q 2575 -91 1691 -91 
Q 1453 -91 1209 -44 
Q 966 3 703 97 
z
M 1959 2075 
Q 2384 2075 2632 2365 
Q 2881 2656 2881 3163 
Q 2881 3666 2632 3958 
Q 2384 4250 1959 4250 
Q 1534 4250 1286 3958 
Q 1038 3666 1038 3163 
Q 1038 2656 1286 2365 
Q 1534 2075 1959 2075 
z
" id="DejaVuSans-39" transform="scale(0.015625)"/>
       </defs>
       <use xlink:href="#DejaVuSans-39"/>
      </g>
     </g>
    </g>
    <g id="text_15">
     <!-- y -->
     <g transform="translate(34.141875 146.83125)rotate(-90)scale(0.12 -0.12)">
      <defs>
       <path d="M 2059 -325 
Q 1816 -950 1584 -1140 
Q 1353 -1331 966 -1331 
L 506 -1331 
L 506 -850 
L 844 -850 
Q 1081 -850 1212 -737 
Q 1344 -625 1503 -206 
L 1606 56 
L 191 3500 
L 800 3500 
L 1894 763 
L 2988 3500 
L 3597 3500 
L 2059 -325 
z
" id="DejaVuSans-79" transform="scale(0.015625)"/>
      </defs>
      <use xlink:href="#DejaVuSans-79"/>
     </g>
    </g>
   </g>
   <g id="line2d_14">
    <path clip-path="url(#pb4c41ed080)" d="M 69.218182 70.8 
L 71.985124 85.083949 
L 74.752066 98.25467 
L 77.519008 110.364828 
L 80.28595 121.465955 
L 83.052893 131.608455 
L 85.819835 140.841599 
L 88.586777 149.213528 
L 91.353719 156.771253 
L 94.120661 163.560654 
L 96.887603 169.62648 
L 99.654545 175.012349 
L 102.421488 179.76075 
L 105.18843 183.913038 
L 107.955372 187.509441 
L 110.722314 190.589055 
L 113.489256 193.189844 
L 116.256198 195.348643 
L 119.02314 197.101155 
L 121.790083 198.481953 
L 124.557025 199.52448 
L 127.323967 200.261047 
L 130.090909 200.722835 
L 132.857851 200.939895 
L 135.624793 200.941145 
L 138.391736 200.754375 
L 141.158678 200.406243 
L 143.92562 199.922276 
L 146.692562 199.326871 
L 149.459504 198.643294 
L 152.226446 197.89368 
L 154.993388 197.099035 
L 157.760331 196.279231 
L 160.527273 195.453014 
L 163.294215 194.637994 
L 166.061157 193.850655 
L 168.828099 193.106347 
L 171.595041 192.419291 
L 174.361983 191.802577 
L 177.128926 191.268164 
L 179.895868 190.82688 
L 182.66281 190.488424 
L 185.429752 190.261362 
L 188.196694 190.153131 
L 190.963636 190.170037 
L 193.730579 190.317255 
L 196.497521 190.598829 
L 199.264463 191.017673 
L 202.031405 191.575569 
L 204.798347 192.273171 
L 207.565289 193.11 
L 210.332231 194.084446 
L 213.099174 195.193771 
L 215.866116 196.434103 
L 218.633058 197.800442 
L 221.4 199.286655 
L 224.166942 200.88548 
L 226.933884 202.588525 
L 229.700826 204.386264 
L 232.467769 206.268045 
L 235.234711 208.22208 
L 238.001653 210.235455 
L 240.768595 212.294122 
L 243.535537 214.382905 
L 246.302479 216.485496 
L 249.069421 218.584455 
L 251.836364 220.661214 
L 254.603306 222.696071 
L 257.370248 224.668198 
L 260.13719 226.555631 
L 262.904132 228.33528 
L 265.671074 229.982921 
L 268.438017 231.4732 
L 271.204959 232.779634 
L 273.971901 233.874607 
L 276.738843 234.729375 
L 279.505785 235.31406 
L 282.272727 235.597656 
L 285.039669 235.548026 
L 287.806612 235.1319 
L 290.573554 234.31488 
L 293.340496 233.061436 
L 296.107438 231.334908 
L 298.87438 229.097505 
L 301.641322 226.310305 
L 304.408264 222.933255 
L 307.175207 218.925173 
L 309.942149 214.243744 
L 312.709091 208.845524 
L 315.476033 202.685938 
L 318.242975 195.71928 
L 321.009917 187.898713 
L 323.77686 179.176271 
L 326.543802 169.502854 
L 329.310744 158.828236 
L 332.077686 147.101055 
L 334.844628 134.268823 
L 337.61157 120.277918 
L 340.378512 105.073589 
L 343.145455 88.599954 
L 345.912397 70.8 
L 348.679339 51.615584 
L 351.446281 30.987432 
L 354.213223 8.855138 
L 355.363895 -1 
" style="fill:none;stroke:#0000ff;stroke-linecap:square;stroke-width:2;"/>
   </g>
   <g id="line2d_15">
    <path clip-path="url(#pb4c41ed080)" d="M 69.218182 164.62717 
L 71.985124 161.973927 
L 74.752066 160.005024 
L 77.519008 158.824316 
L 80.28595 158.512582 
L 83.052893 159.118348 
L 85.819835 160.647793 
L 88.586777 163.056012 
L 91.353719 166.244096 
L 94.120661 170.066172 
L 96.887603 174.345744 
L 99.654545 178.895497 
L 102.421488 183.534162 
L 105.18843 188.097629 
L 107.955372 192.444906 
L 110.722314 196.460671 
L 113.489256 200.055905 
L 116.256198 203.167456 
L 119.02314 205.756991 
L 121.790083 207.809518 
L 124.557025 209.331539 
L 127.323967 210.348813 
L 130.090909 210.90366 
L 132.857851 211.051761 
L 135.624793 210.858514 
L 138.391736 210.39508 
L 141.158678 209.734325 
L 143.92562 208.946911 
L 146.692562 208.097738 
L 149.459504 207.242922 
L 152.226446 206.427426 
L 154.993388 205.683499 
L 157.760331 205.030057 
L 160.527273 204.473198 
L 163.294215 204.008014 
L 166.061157 203.621789 
L 168.828099 203.298502 
L 171.595041 203.024362 
L 174.361983 202.793804 
L 177.128926 202.615047 
L 179.895868 202.513737 
L 182.66281 202.532656 
L 185.429752 202.725524 
L 188.196694 203.144729 
L 190.963636 203.826598 
L 193.730579 204.780585 
L 196.497521 205.986921 
L 199.264463 207.40187 
L 202.031405 208.966232 
L 204.798347 210.613372 
L 207.565289 212.27538 
L 210.332231 213.887573 
L 213.099174 215.391967 
L 215.866116 216.740215 
L 218.633058 217.896249 
L 221.4 218.838672 
L 224.166942 219.562843 
L 226.933884 220.082511 
L 229.700826 220.430778 
L 232.467769 220.660043 
L 235.234711 220.84029 
L 238.001653 221.054681 
L 240.768595 221.391072 
L 243.535537 221.928567 
L 246.302479 222.720643 
L 249.069421 223.780727 
L 251.836364 225.078312 
L 254.603306 226.549233 
L 257.370248 228.11473 
L 260.13719 229.699691 
L 262.904132 231.243753 
L 265.671074 232.704478 
L 268.438017 234.054807 
L 271.204959 235.27737 
L 273.971901 236.357662 
L 276.738843 237.277498 
L 279.505785 238.009858 
L 282.272727 238.515878 
L 285.039669 238.744394 
L 287.806612 238.633892 
L 290.573554 238.116155 
L 293.340496 237.120463 
L 296.107438 235.577171 
L 298.87438 233.419891 
L 301.641322 230.58648 
L 304.408264 227.020209 
L 307.175207 222.672975 
L 309.942149 217.511635 
L 312.709091 211.526734 
L 315.476033 204.741579 
L 318.242975 197.219511 
L 321.009917 189.068151 
L 323.77686 180.44037 
L 326.543802 171.532256 
L 329.310744 162.578341 
L 332.077686 153.843854 
L 334.844628 145.612931 
L 337.61157 138.17129 
L 340.378512 131.78322 
L 343.145455 126.666696 
L 345.912397 122.974141 
L 348.679339 120.784837 
L 351.446281 120.108449 
L 354.213223 120.894449 
L 356.980165 123.042778 
L 359.747107 126.413942 
L 362.51405 130.838581 
L 365.280992 136.126907 
L 368.047934 142.078114 
L 370.814876 148.489515 
L 373.581818 155.164999 
" style="fill:none;stroke:#008000;stroke-dasharray:3.7,1.6;stroke-dashoffset:0;"/>
   </g>
   <g id="line2d_16">
    <path clip-path="url(#pb4c41ed080)" d="M 69.218182 118.931206 
L 71.985124 120.041265 
L 74.752066 121.740624 
L 77.519008 124.009013 
L 80.28595 126.803438 
L 83.052893 130.062854 
L 85.819835 133.716363 
L 88.586777 137.692935 
L 91.353719 141.92824 
L 94.120661 146.364321 
L 96.887603 150.942375 
L 99.654545 155.593963 
L 102.421488 160.236341 
L 105.18843 164.773944 
L 107.955372 169.104623 
L 110.722314 173.128103 
L 113.489256 176.754509 
L 116.256198 179.911559 
L 119.02314 182.549646 
L 121.790083 184.64447 
L 124.557025 186.197215 
L 127.323967 187.232576 
L 130.090909 187.795108 
L 132.857851 187.944485 
L 135.624793 187.750239 
L 138.391736 187.286493 
L 141.158678 186.627081 
L 143.92562 185.841385 
L 146.692562 184.991119 
L 149.459504 184.128209 
L 152.226446 183.293828 
L 154.993388 182.51849 
L 157.760331 181.822951 
L 160.527273 181.219541 
L 163.294215 180.713447 
L 166.061157 180.303515 
L 168.828099 179.982233 
L 171.595041 179.734812 
L 174.361983 179.537538 
L 177.128926 179.356028 
L 179.895868 179.144594 
L 182.66281 178.848614 
L 185.429752 178.411798 
L 188.196694 177.788544 
L 190.963636 176.957861 
L 193.730579 175.932636 
L 196.497521 174.759894 
L 199.264463 173.513127 
L 202.031405 172.281281 
L 204.798347 171.158319 
L 207.565289 170.234949 
L 210.332231 169.592457 
L 213.099174 169.298105 
L 215.866116 169.401664 
L 218.633058 169.932849 
L 221.4 170.899559 
L 224.166942 172.28693 
L 226.933884 174.057213 
L 229.700826 176.150579 
L 232.467769 178.487055 
L 235.234711 180.970086 
L 238.001653 183.492603 
L 240.768595 185.946859 
L 243.535537 188.238801 
L 246.302479 190.305326 
L 249.069421 192.128523 
L 251.836364 193.738709 
L 254.603306 195.202702 
L 257.370248 196.602673 
L 260.13719 198.015295 
L 262.904132 199.497586 
L 265.671074 201.080373 
L 268.438017 202.767369 
L 271.204959 204.537472 
L 273.971901 206.348554 
L 276.738843 208.141568 
L 279.505785 209.844192 
L 282.272727 211.373499 
L 285.039669 212.637549 
L 287.806612 213.536254 
L 290.573554 213.962376 
L 293.340496 213.803822 
L 296.107438 212.94835 
L 298.87438 211.291179 
L 301.641322 208.744898 
L 304.408264 205.249747 
L 307.175207 200.781663 
L 309.942149 195.356249 
L 312.709091 189.02851 
L 315.476033 181.889611 
L 318.242975 174.062084 
L 321.009917 165.69416 
L 323.77686 156.953218 
L 326.543802 148.018058 
L 329.310744 139.070094 
L 332.077686 130.284335 
L 334.844628 121.822173 
L 337.61157 113.828619 
L 340.378512 106.435414 
L 343.145455 99.767528 
L 345.912397 93.946723 
L 348.679339 89.087229 
L 351.446281 85.284803 
L 354.213223 82.604792 
L 356.980165 81.073918 
L 359.747107 80.677239 
L 362.51405 81.359623 
L 365.280992 83.030413 
L 368.047934 85.570125 
L 370.814876 88.838266 
L 373.581818 92.681565 
" style="fill:none;stroke:#008000;stroke-dasharray:3.7,1.6;stroke-dashoffset:0;"/>
   </g>
   <g id="line2d_17">
    <path clip-path="url(#pb4c41ed080)" d="M 69.218182 251.998715 
L 71.985124 251.999818 
L 74.752066 251.999982 
L 77.519008 251.999999 
L 80.28595 252 
L 83.052893 252 
L 85.819835 252 
L 88.586777 252 
L 91.353719 252 
L 94.120661 252 
L 96.887603 252 
L 99.654545 252 
L 102.421488 251.999999 
L 105.18843 251.999993 
L 107.955372 251.999949 
L 110.722314 251.999735 
L 113.489256 251.998952 
L 116.256198 251.996804 
L 119.02314 251.992307 
L 121.790083 251.985014 
L 124.557025 251.975805 
L 127.323967 251.966893 
L 130.090909 251.960789 
L 132.857851 251.958978 
L 135.624793 251.961335 
L 138.391736 251.966507 
L 141.158678 251.972793 
L 143.92562 251.978845 
L 146.692562 251.983928 
L 149.459504 251.987834 
L 152.226446 251.990665 
L 154.993388 251.992644 
L 157.760331 251.994005 
L 160.527273 251.994944 
L 163.294215 251.995614 
L 166.061157 251.996124 
L 168.828099 251.996545 
L 171.595041 251.996909 
L 174.361983 251.997204 
L 177.128926 251.997374 
L 179.895868 251.997314 
L 182.66281 251.996813 
L 185.429752 251.995349 
L 188.196694 251.99149 
L 190.963636 251.981253 
L 193.730579 251.954414 
L 196.497521 251.888795 
L 199.264463 251.746595 
L 202.031405 251.480404 
L 204.798347 251.051455 
L 207.565289 250.451162 
L 210.332231 249.713013 
L 213.099174 248.909061 
L 215.866116 248.134297 
L 218.633058 247.485917 
L 221.4 247.043556 
L 224.166942 246.854251 
L 226.933884 246.924111 
L 229.700826 247.217586 
L 232.467769 247.664547 
L 235.234711 248.174153 
L 238.001653 248.652447 
L 240.768595 249.018056 
L 243.535537 249.209468 
L 246.302479 249.181197 
L 249.069421 248.894362 
L 251.836364 248.313301 
L 254.603306 247.415434 
L 257.370248 246.207889 
L 260.13719 244.735569 
L 262.904132 243.072495 
L 265.671074 241.302692 
L 268.438017 239.503343 
L 271.204959 237.738981 
L 273.971901 236.068589 
L 276.738843 234.562474 
L 279.505785 233.3228 
L 282.272727 232.499179 
L 285.039669 232.288213 
L 287.806612 232.90474 
L 290.573554 234.515802 
L 293.340496 237.140994 
L 296.107438 240.550535 
L 298.87438 244.233347 
L 301.641322 247.52502 
L 304.408264 249.899447 
L 307.175207 251.233847 
L 309.942149 251.794236 
L 312.709091 251.961794 
L 315.476033 251.995451 
L 318.242975 251.999682 
L 321.009917 251.999988 
L 323.77686 252 
L 326.543802 252 
L 329.310744 252 
L 332.077686 252 
L 334.844628 252 
L 337.61157 252 
L 340.378512 252 
L 343.145455 252 
L 345.912397 252 
L 348.679339 252 
L 351.446281 252 
L 354.213223 252 
L 356.980165 252 
L 359.747107 252 
L 362.51405 251.999995 
L 365.280992 251.999933 
L 368.047934 251.999403 
L 370.814876 251.996402 
L 373.581818 251.984187 
" style="fill:none;stroke:#bfbf00;stroke-dasharray:7.4,3.2;stroke-dashoffset:0;stroke-width:2;"/>
   </g>
   <g id="patch_3">
    <path d="M 54 252 
L 54 34.56 
" style="fill:none;stroke:#000000;stroke-linecap:square;stroke-linejoin:miter;stroke-width:0.8;"/>
   </g>
   <g id="patch_4">
    <path d="M 388.8 252 
L 388.8 34.56 
" style="fill:none;stroke:#000000;stroke-linecap:square;stroke-linejoin:miter;stroke-width:0.8;"/>
   </g>
   <g id="patch_5">
    <path d="M 54 252 
L 388.8 252 
" style="fill:none;stroke:#000000;stroke-linecap:square;stroke-linejoin:miter;stroke-width:0.8;"/>
   </g>
   <g id="patch_6">
    <path d="M 54 34.56 
L 388.8 34.56 
" style="fill:none;stroke:#000000;stroke-linecap:square;stroke-linejoin:miter;stroke-width:0.8;"/>
   </g>
   <g id="text_16">
    <!-- Method : EI -->
    <g transform="translate(71.985124 244.752)scale(0.12 -0.12)">
     <defs>
      <path d="M 628 4666 
L 1569 4666 
L 2759 1491 
L 3956 4666 
L 4897 4666 
L 4897 0 
L 4281 0 
L 4281 4097 
L 3078 897 
L 2444 897 
L 1241 4097 
L 1241 0 
L 628 0 
L 628 4666 
z
" id="DejaVuSans-4d" transform="scale(0.015625)"/>
      <path d="M 3597 1894 
L 3597 1613 
L 953 1613 
Q 991 1019 1311 708 
Q 1631 397 2203 397 
Q 2534 397 2845 478 
Q 3156 559 3463 722 
L 3463 178 
Q 3153 47 2828 -22 
Q 2503 -91 2169 -91 
Q 1331 -91 842 396 
Q 353 884 353 1716 
Q 353 2575 817 3079 
Q 1281 3584 2069 3584 
Q 2775 3584 3186 3129 
Q 3597 2675 3597 1894 
z
M 3022 2063 
Q 3016 2534 2758 2815 
Q 2500 3097 2075 3097 
Q 1594 3097 1305 2825 
Q 1016 2553 972 2059 
L 3022 2063 
z
" id="DejaVuSans-65" transform="scale(0.015625)"/>
      <path d="M 1172 4494 
L 1172 3500 
L 2356 3500 
L 2356 3053 
L 1172 3053 
L 1172 1153 
Q 1172 725 1289 603 
Q 1406 481 1766 481 
L 2356 481 
L 2356 0 
L 1766 0 
Q 1100 0 847 248 
Q 594 497 594 1153 
L 594 3053 
L 172 3053 
L 172 3500 
L 594 3500 
L 594 4494 
L 1172 4494 
z
" id="DejaVuSans-74" transform="scale(0.015625)"/>
      <path d="M 3513 2113 
L 3513 0 
L 2938 0 
L 2938 2094 
Q 2938 2591 2744 2837 
Q 2550 3084 2163 3084 
Q 1697 3084 1428 2787 
Q 1159 2491 1159 1978 
L 1159 0 
L 581 0 
L 581 4863 
L 1159 4863 
L 1159 2956 
Q 1366 3272 1645 3428 
Q 1925 3584 2291 3584 
Q 2894 3584 3203 3211 
Q 3513 2838 3513 2113 
z
" id="DejaVuSans-68" transform="scale(0.015625)"/>
      <path d="M 1959 3097 
Q 1497 3097 1228 2736 
Q 959 2375 959 1747 
Q 959 1119 1226 758 
Q 1494 397 1959 397 
Q 2419 397 2687 759 
Q 2956 1122 2956 1747 
Q 2956 2369 2687 2733 
Q 2419 3097 1959 3097 
z
M 1959 3584 
Q 2709 3584 3137 3096 
Q 3566 2609 3566 1747 
Q 3566 888 3137 398 
Q 2709 -91 1959 -91 
Q 1206 -91 779 398 
Q 353 888 353 1747 
Q 353 2609 779 3096 
Q 1206 3584 1959 3584 
z
" id="DejaVuSans-6f" transform="scale(0.015625)"/>
      <path d="M 2906 2969 
L 2906 4863 
L 3481 4863 
L 3481 0 
L 2906 0 
L 2906 525 
Q 2725 213 2448 61 
Q 2172 -91 1784 -91 
Q 1150 -91 751 415 
Q 353 922 353 1747 
Q 353 2572 751 3078 
Q 1150 3584 1784 3584 
Q 2172 3584 2448 3432 
Q 2725 3281 2906 2969 
z
M 947 1747 
Q 947 1113 1208 752 
Q 1469 391 1925 391 
Q 2381 391 2643 752 
Q 2906 1113 2906 1747 
Q 2906 2381 2643 2742 
Q 2381 3103 1925 3103 
Q 1469 3103 1208 2742 
Q 947 2381 947 1747 
z
" id="DejaVuSans-64" transform="scale(0.015625)"/>
      <path id="DejaVuSans-20" transform="scale(0.015625)"/>
      <path d="M 750 794 
L 1409 794 
L 1409 0 
L 750 0 
L 750 794 
z
M 750 3309 
L 1409 3309 
L 1409 2516 
L 750 2516 
L 750 3309 
z
" id="DejaVuSans-3a" transform="scale(0.015625)"/>
      <path d="M 628 4666 
L 3578 4666 
L 3578 4134 
L 1259 4134 
L 1259 2753 
L 3481 2753 
L 3481 2222 
L 1259 2222 
L 1259 531 
L 3634 531 
L 3634 0 
L 628 0 
L 628 4666 
z
" id="DejaVuSans-45" transform="scale(0.015625)"/>
      <path d="M 628 4666 
L 1259 4666 
L 1259 0 
L 628 0 
L 628 4666 
z
" id="DejaVuSans-49" transform="scale(0.015625)"/>
     </defs>
     <use xlink:href="#DejaVuSans-4d"/>
     <use x="86.279297" xlink:href="#DejaVuSans-65"/>
     <use x="147.802734" xlink:href="#DejaVuSans-74"/>
     <use x="187.011719" xlink:href="#DejaVuSans-68"/>
     <use x="250.390625" xlink:href="#DejaVuSans-6f"/>
     <use x="311.572266" xlink:href="#DejaVuSans-64"/>
     <use x="375.048828" xlink:href="#DejaVuSans-20"/>
     <use x="406.835938" xlink:href="#DejaVuSans-3a"/>
     <use x="440.527344" xlink:href="#DejaVuSans-20"/>
     <use x="472.314453" xlink:href="#DejaVuSans-45"/>
     <use x="535.498047" xlink:href="#DejaVuSans-49"/>
    </g>
   </g>
   <g id="text_17">
    <!-- Iter=4 -->
    <g transform="translate(71.985124 226.632)scale(0.12 -0.12)">
     <defs>
      <path d="M 2631 2963 
Q 2534 3019 2420 3045 
Q 2306 3072 2169 3072 
Q 1681 3072 1420 2755 
Q 1159 2438 1159 1844 
L 1159 0 
L 581 0 
L 581 3500 
L 1159 3500 
L 1159 2956 
Q 1341 3275 1631 3429 
Q 1922 3584 2338 3584 
Q 2397 3584 2469 3576 
Q 2541 3569 2628 3553 
L 2631 2963 
z
" id="DejaVuSans-72" transform="scale(0.015625)"/>
      <path d="M 678 2906 
L 4684 2906 
L 4684 2381 
L 678 2381 
L 678 2906 
z
M 678 1631 
L 4684 1631 
L 4684 1100 
L 678 1100 
L 678 1631 
z
" id="DejaVuSans-3d" transform="scale(0.015625)"/>
     </defs>
     <use xlink:href="#DejaVuSans-49"/>
     <use x="29.492188" xlink:href="#DejaVuSans-74"/>
     <use x="68.701172" xlink:href="#DejaVuSans-65"/>
     <use x="130.224609" xlink:href="#DejaVuSans-72"/>
     <use x="171.337891" xlink:href="#DejaVuSans-3d"/>
     <use x="255.126953" xlink:href="#DejaVuSans-34"/>
    </g>
   </g>
   <g id="legend_1">
    <g id="patch_7">
     <path d="M 144.327812 140.235625 
L 298.472188 140.235625 
Q 300.672188 140.235625 300.672188 138.035625 
L 300.672188 42.26 
Q 300.672188 40.06 298.472188 40.06 
L 144.327812 40.06 
Q 142.127813 40.06 142.127813 42.26 
L 142.127813 138.035625 
Q 142.127813 140.235625 144.327812 140.235625 
z
" style="fill:#ffffff;opacity:0.8;stroke:#cccccc;stroke-linejoin:miter;"/>
    </g>
    <g id="line2d_18">
     <path d="M 146.527813 48.968281 
L 168.527813 48.968281 
" style="fill:none;stroke:#0000ff;stroke-linecap:square;stroke-width:2;"/>
    </g>
    <g id="line2d_19"/>
    <g id="text_18">
     <!-- ture function -->
     <g transform="translate(177.327813 52.818281)scale(0.11 -0.11)">
      <defs>
       <path d="M 544 1381 
L 544 3500 
L 1119 3500 
L 1119 1403 
Q 1119 906 1312 657 
Q 1506 409 1894 409 
Q 2359 409 2629 706 
Q 2900 1003 2900 1516 
L 2900 3500 
L 3475 3500 
L 3475 0 
L 2900 0 
L 2900 538 
Q 2691 219 2414 64 
Q 2138 -91 1772 -91 
Q 1169 -91 856 284 
Q 544 659 544 1381 
z
M 1991 3584 
L 1991 3584 
z
" id="DejaVuSans-75" transform="scale(0.015625)"/>
       <path d="M 2375 4863 
L 2375 4384 
L 1825 4384 
Q 1516 4384 1395 4259 
Q 1275 4134 1275 3809 
L 1275 3500 
L 2222 3500 
L 2222 3053 
L 1275 3053 
L 1275 0 
L 697 0 
L 697 3053 
L 147 3053 
L 147 3500 
L 697 3500 
L 697 3744 
Q 697 4328 969 4595 
Q 1241 4863 1831 4863 
L 2375 4863 
z
" id="DejaVuSans-66" transform="scale(0.015625)"/>
       <path d="M 3513 2113 
L 3513 0 
L 2938 0 
L 2938 2094 
Q 2938 2591 2744 2837 
Q 2550 3084 2163 3084 
Q 1697 3084 1428 2787 
Q 1159 2491 1159 1978 
L 1159 0 
L 581 0 
L 581 3500 
L 1159 3500 
L 1159 2956 
Q 1366 3272 1645 3428 
Q 1925 3584 2291 3584 
Q 2894 3584 3203 3211 
Q 3513 2838 3513 2113 
z
" id="DejaVuSans-6e" transform="scale(0.015625)"/>
       <path d="M 3122 3366 
L 3122 2828 
Q 2878 2963 2633 3030 
Q 2388 3097 2138 3097 
Q 1578 3097 1268 2742 
Q 959 2388 959 1747 
Q 959 1106 1268 751 
Q 1578 397 2138 397 
Q 2388 397 2633 464 
Q 2878 531 3122 666 
L 3122 134 
Q 2881 22 2623 -34 
Q 2366 -91 2075 -91 
Q 1284 -91 818 406 
Q 353 903 353 1747 
Q 353 2603 823 3093 
Q 1294 3584 2113 3584 
Q 2378 3584 2631 3529 
Q 2884 3475 3122 3366 
z
" id="DejaVuSans-63" transform="scale(0.015625)"/>
       <path d="M 603 3500 
L 1178 3500 
L 1178 0 
L 603 0 
L 603 3500 
z
M 603 4863 
L 1178 4863 
L 1178 4134 
L 603 4134 
L 603 4863 
z
" id="DejaVuSans-69" transform="scale(0.015625)"/>
      </defs>
      <use xlink:href="#DejaVuSans-74"/>
      <use x="39.208984" xlink:href="#DejaVuSans-75"/>
      <use x="102.587891" xlink:href="#DejaVuSans-72"/>
      <use x="141.451172" xlink:href="#DejaVuSans-65"/>
      <use x="202.974609" xlink:href="#DejaVuSans-20"/>
      <use x="234.761719" xlink:href="#DejaVuSans-66"/>
      <use x="269.966797" xlink:href="#DejaVuSans-75"/>
      <use x="333.345703" xlink:href="#DejaVuSans-6e"/>
      <use x="396.724609" xlink:href="#DejaVuSans-63"/>
      <use x="451.705078" xlink:href="#DejaVuSans-74"/>
      <use x="490.914062" xlink:href="#DejaVuSans-69"/>
      <use x="518.697266" xlink:href="#DejaVuSans-6f"/>
      <use x="579.878906" xlink:href="#DejaVuSans-6e"/>
     </g>
    </g>
    <g id="line2d_20">
     <path d="M 146.527813 65.114219 
L 168.527813 65.114219 
" style="fill:none;stroke:#000000;stroke-dasharray:7.4,3.2;stroke-dashoffset:0;stroke-width:2;"/>
    </g>
    <g id="line2d_21"/>
    <g id="text_19">
     <!-- predicted function -->
     <g transform="translate(177.327813 68.964219)scale(0.11 -0.11)">
      <defs>
       <path d="M 1159 525 
L 1159 -1331 
L 581 -1331 
L 581 3500 
L 1159 3500 
L 1159 2969 
Q 1341 3281 1617 3432 
Q 1894 3584 2278 3584 
Q 2916 3584 3314 3078 
Q 3713 2572 3713 1747 
Q 3713 922 3314 415 
Q 2916 -91 2278 -91 
Q 1894 -91 1617 61 
Q 1341 213 1159 525 
z
M 3116 1747 
Q 3116 2381 2855 2742 
Q 2594 3103 2138 3103 
Q 1681 3103 1420 2742 
Q 1159 2381 1159 1747 
Q 1159 1113 1420 752 
Q 1681 391 2138 391 
Q 2594 391 2855 752 
Q 3116 1113 3116 1747 
z
" id="DejaVuSans-70" transform="scale(0.015625)"/>
      </defs>
      <use xlink:href="#DejaVuSans-70"/>
      <use x="63.476562" xlink:href="#DejaVuSans-72"/>
      <use x="102.339844" xlink:href="#DejaVuSans-65"/>
      <use x="163.863281" xlink:href="#DejaVuSans-64"/>
      <use x="227.339844" xlink:href="#DejaVuSans-69"/>
      <use x="255.123047" xlink:href="#DejaVuSans-63"/>
      <use x="310.103516" xlink:href="#DejaVuSans-74"/>
      <use x="349.3125" xlink:href="#DejaVuSans-65"/>
      <use x="410.835938" xlink:href="#DejaVuSans-64"/>
      <use x="474.3125" xlink:href="#DejaVuSans-20"/>
      <use x="506.099609" xlink:href="#DejaVuSans-66"/>
      <use x="541.304688" xlink:href="#DejaVuSans-75"/>
      <use x="604.683594" xlink:href="#DejaVuSans-6e"/>
      <use x="668.0625" xlink:href="#DejaVuSans-63"/>
      <use x="723.042969" xlink:href="#DejaVuSans-74"/>
      <use x="762.251953" xlink:href="#DejaVuSans-69"/>
      <use x="790.035156" xlink:href="#DejaVuSans-6f"/>
      <use x="851.216797" xlink:href="#DejaVuSans-6e"/>
     </g>
    </g>
    <g id="line2d_22">
     <path d="M 146.527813 81.260156 
L 168.527813 81.260156 
" style="fill:none;stroke:#008000;stroke-dasharray:3.7,1.6;stroke-dashoffset:0;"/>
    </g>
    <g id="line2d_23"/>
    <g id="text_20">
     <!--  ± Sn(x) -->
     <g transform="translate(177.327813 85.110156)scale(0.11 -0.11)">
      <defs>
       <path d="M 2944 4013 
L 2944 2803 
L 4684 2803 
L 4684 2272 
L 2944 2272 
L 2944 1063 
L 2419 1063 
L 2419 2272 
L 678 2272 
L 678 2803 
L 2419 2803 
L 2419 4013 
L 2944 4013 
z
M 678 531 
L 4684 531 
L 4684 0 
L 678 0 
L 678 531 
z
" id="DejaVuSans-b1" transform="scale(0.015625)"/>
       <path d="M 3425 4513 
L 3425 3897 
Q 3066 4069 2747 4153 
Q 2428 4238 2131 4238 
Q 1616 4238 1336 4038 
Q 1056 3838 1056 3469 
Q 1056 3159 1242 3001 
Q 1428 2844 1947 2747 
L 2328 2669 
Q 3034 2534 3370 2195 
Q 3706 1856 3706 1288 
Q 3706 609 3251 259 
Q 2797 -91 1919 -91 
Q 1588 -91 1214 -16 
Q 841 59 441 206 
L 441 856 
Q 825 641 1194 531 
Q 1563 422 1919 422 
Q 2459 422 2753 634 
Q 3047 847 3047 1241 
Q 3047 1584 2836 1778 
Q 2625 1972 2144 2069 
L 1759 2144 
Q 1053 2284 737 2584 
Q 422 2884 422 3419 
Q 422 4038 858 4394 
Q 1294 4750 2059 4750 
Q 2388 4750 2728 4690 
Q 3069 4631 3425 4513 
z
" id="DejaVuSans-53" transform="scale(0.015625)"/>
       <path d="M 1984 4856 
Q 1566 4138 1362 3434 
Q 1159 2731 1159 2009 
Q 1159 1288 1364 580 
Q 1569 -128 1984 -844 
L 1484 -844 
Q 1016 -109 783 600 
Q 550 1309 550 2009 
Q 550 2706 781 3412 
Q 1013 4119 1484 4856 
L 1984 4856 
z
" id="DejaVuSans-28" transform="scale(0.015625)"/>
       <path d="M 513 4856 
L 1013 4856 
Q 1481 4119 1714 3412 
Q 1947 2706 1947 2009 
Q 1947 1309 1714 600 
Q 1481 -109 1013 -844 
L 513 -844 
Q 928 -128 1133 580 
Q 1338 1288 1338 2009 
Q 1338 2731 1133 3434 
Q 928 4138 513 4856 
z
" id="DejaVuSans-29" transform="scale(0.015625)"/>
      </defs>
      <use xlink:href="#DejaVuSans-20"/>
      <use x="31.787109" xlink:href="#DejaVuSans-b1"/>
      <use x="115.576172" xlink:href="#DejaVuSans-20"/>
      <use x="147.363281" xlink:href="#DejaVuSans-53"/>
      <use x="210.839844" xlink:href="#DejaVuSans-6e"/>
      <use x="274.21875" xlink:href="#DejaVuSans-28"/>
      <use x="313.232422" xlink:href="#DejaVuSans-78"/>
      <use x="372.412109" xlink:href="#DejaVuSans-29"/>
     </g>
    </g>
    <g id="line2d_24">
     <path d="M 146.527813 97.406094 
L 168.527813 97.406094 
" style="fill:none;stroke:#bfbf00;stroke-dasharray:7.4,3.2;stroke-dashoffset:0;stroke-width:2;"/>
    </g>
    <g id="line2d_25"/>
    <g id="text_21">
     <!-- EI(x) -->
     <g transform="translate(177.327813 101.256094)scale(0.11 -0.11)">
      <use xlink:href="#DejaVuSans-45"/>
      <use x="63.183594" xlink:href="#DejaVuSans-49"/>
      <use x="92.675781" xlink:href="#DejaVuSans-28"/>
      <use x="131.689453" xlink:href="#DejaVuSans-78"/>
      <use x="190.869141" xlink:href="#DejaVuSans-29"/>
     </g>
    </g>
    <g id="PathCollection_2">
     <defs>
      <path d="M 0 3.535534 
C 0.937635 3.535534 1.836992 3.163008 2.5 2.5 
C 3.163008 1.836992 3.535534 0.937635 3.535534 0 
C 3.535534 -0.937635 3.163008 -1.836992 2.5 -2.5 
C 1.836992 -3.163008 0.937635 -3.535534 0 -3.535534 
C -0.937635 -3.535534 -1.836992 -3.163008 -2.5 -2.5 
C -3.163008 -1.836992 -3.535534 -0.937635 -3.535534 0 
C -3.535534 0.937635 -3.163008 1.836992 -2.5 2.5 
C -1.836992 3.163008 -0.937635 3.535534 0 3.535534 
z
" id="mc289eeddc7" style="stroke:#000000;"/>
     </defs>
     <g>
      <use style="fill:#ff0000;stroke:#000000;" x="157.527813" xlink:href="#mc289eeddc7" y="114.514531"/>
     </g>
    </g>
    <g id="text_22">
     <!-- training data -->
     <g transform="translate(177.327813 117.402031)scale(0.11 -0.11)">
      <defs>
       <path d="M 2194 1759 
Q 1497 1759 1228 1600 
Q 959 1441 959 1056 
Q 959 750 1161 570 
Q 1363 391 1709 391 
Q 2188 391 2477 730 
Q 2766 1069 2766 1631 
L 2766 1759 
L 2194 1759 
z
M 3341 1997 
L 3341 0 
L 2766 0 
L 2766 531 
Q 2569 213 2275 61 
Q 1981 -91 1556 -91 
Q 1019 -91 701 211 
Q 384 513 384 1019 
Q 384 1609 779 1909 
Q 1175 2209 1959 2209 
L 2766 2209 
L 2766 2266 
Q 2766 2663 2505 2880 
Q 2244 3097 1772 3097 
Q 1472 3097 1187 3025 
Q 903 2953 641 2809 
L 641 3341 
Q 956 3463 1253 3523 
Q 1550 3584 1831 3584 
Q 2591 3584 2966 3190 
Q 3341 2797 3341 1997 
z
" id="DejaVuSans-61" transform="scale(0.015625)"/>
       <path d="M 2906 1791 
Q 2906 2416 2648 2759 
Q 2391 3103 1925 3103 
Q 1463 3103 1205 2759 
Q 947 2416 947 1791 
Q 947 1169 1205 825 
Q 1463 481 1925 481 
Q 2391 481 2648 825 
Q 2906 1169 2906 1791 
z
M 3481 434 
Q 3481 -459 3084 -895 
Q 2688 -1331 1869 -1331 
Q 1566 -1331 1297 -1286 
Q 1028 -1241 775 -1147 
L 775 -588 
Q 1028 -725 1275 -790 
Q 1522 -856 1778 -856 
Q 2344 -856 2625 -561 
Q 2906 -266 2906 331 
L 2906 616 
Q 2728 306 2450 153 
Q 2172 0 1784 0 
Q 1141 0 747 490 
Q 353 981 353 1791 
Q 353 2603 747 3093 
Q 1141 3584 1784 3584 
Q 2172 3584 2450 3431 
Q 2728 3278 2906 2969 
L 2906 3500 
L 3481 3500 
L 3481 434 
z
" id="DejaVuSans-67" transform="scale(0.015625)"/>
      </defs>
      <use xlink:href="#DejaVuSans-74"/>
      <use x="39.208984" xlink:href="#DejaVuSans-72"/>
      <use x="80.322266" xlink:href="#DejaVuSans-61"/>
      <use x="141.601562" xlink:href="#DejaVuSans-69"/>
      <use x="169.384766" xlink:href="#DejaVuSans-6e"/>
      <use x="232.763672" xlink:href="#DejaVuSans-69"/>
      <use x="260.546875" xlink:href="#DejaVuSans-6e"/>
      <use x="323.925781" xlink:href="#DejaVuSans-67"/>
      <use x="387.402344" xlink:href="#DejaVuSans-20"/>
      <use x="419.189453" xlink:href="#DejaVuSans-64"/>
      <use x="482.666016" xlink:href="#DejaVuSans-61"/>
      <use x="543.945312" xlink:href="#DejaVuSans-74"/>
      <use x="583.154297" xlink:href="#DejaVuSans-61"/>
     </g>
    </g>
    <g id="PathCollection_3">
     <g>
      <use style="fill:#ff0000;stroke:#ff0000;stroke-width:8;" x="157.527813" xlink:href="#m8afe84d094" y="130.660469"/>
     </g>
    </g>
    <g id="text_23">
     <!-- recommended datum -->
     <g transform="translate(177.327813 133.547969)scale(0.11 -0.11)">
      <defs>
       <path d="M 3328 2828 
Q 3544 3216 3844 3400 
Q 4144 3584 4550 3584 
Q 5097 3584 5394 3201 
Q 5691 2819 5691 2113 
L 5691 0 
L 5113 0 
L 5113 2094 
Q 5113 2597 4934 2840 
Q 4756 3084 4391 3084 
Q 3944 3084 3684 2787 
Q 3425 2491 3425 1978 
L 3425 0 
L 2847 0 
L 2847 2094 
Q 2847 2600 2669 2842 
Q 2491 3084 2119 3084 
Q 1678 3084 1418 2786 
Q 1159 2488 1159 1978 
L 1159 0 
L 581 0 
L 581 3500 
L 1159 3500 
L 1159 2956 
Q 1356 3278 1631 3431 
Q 1906 3584 2284 3584 
Q 2666 3584 2933 3390 
Q 3200 3197 3328 2828 
z
" id="DejaVuSans-6d" transform="scale(0.015625)"/>
      </defs>
      <use xlink:href="#DejaVuSans-72"/>
      <use x="38.863281" xlink:href="#DejaVuSans-65"/>
      <use x="100.386719" xlink:href="#DejaVuSans-63"/>
      <use x="155.367188" xlink:href="#DejaVuSans-6f"/>
      <use x="216.548828" xlink:href="#DejaVuSans-6d"/>
      <use x="313.960938" xlink:href="#DejaVuSans-6d"/>
      <use x="411.373047" xlink:href="#DejaVuSans-65"/>
      <use x="472.896484" xlink:href="#DejaVuSans-6e"/>
      <use x="536.275391" xlink:href="#DejaVuSans-64"/>
      <use x="599.751953" xlink:href="#DejaVuSans-65"/>
      <use x="661.275391" xlink:href="#DejaVuSans-64"/>
      <use x="724.751953" xlink:href="#DejaVuSans-20"/>
      <use x="756.539062" xlink:href="#DejaVuSans-64"/>
      <use x="820.015625" xlink:href="#DejaVuSans-61"/>
      <use x="881.294922" xlink:href="#DejaVuSans-74"/>
      <use x="920.503906" xlink:href="#DejaVuSans-75"/>
      <use x="983.882812" xlink:href="#DejaVuSans-6d"/>
     </g>
    </g>
   </g>
   <g id="line2d_26">
    <path clip-path="url(#pb4c41ed080)" d="M 69.218182 141.779188 
L 71.985124 141.007596 
L 74.752066 140.872824 
L 77.519008 141.416665 
L 80.28595 142.65801 
L 83.052893 144.590601 
L 85.819835 147.182078 
L 88.586777 150.374473 
L 91.353719 154.086168 
L 94.120661 158.215246 
L 96.887603 162.644059 
L 99.654545 167.24473 
L 102.421488 171.885251 
L 105.18843 176.435787 
L 107.955372 180.774765 
L 110.722314 184.794387 
L 113.489256 188.405207 
L 116.256198 191.539507 
L 119.02314 194.153319 
L 121.790083 196.226994 
L 124.557025 197.764377 
L 127.323967 198.790695 
L 130.090909 199.349384 
L 132.857851 199.498123 
L 135.624793 199.304377 
L 138.391736 198.840786 
L 141.158678 198.180703 
L 143.92562 197.394148 
L 146.692562 196.544428 
L 149.459504 195.685565 
L 152.226446 194.860627 
L 154.993388 194.100995 
L 157.760331 193.426504 
L 160.527273 192.846369 
L 163.294215 192.36073 
L 166.061157 191.962652 
L 168.828099 191.640368 
L 171.595041 191.379587 
L 174.361983 191.165671 
L 177.128926 190.985537 
L 179.895868 190.829165 
L 182.66281 190.690635 
L 185.429752 190.568661 
L 188.196694 190.466636 
L 190.963636 190.392229 
L 193.730579 190.35661 
L 196.497521 190.373407 
L 199.264463 190.457498 
L 202.031405 190.623757 
L 204.798347 190.885845 
L 207.565289 191.255164 
L 210.332231 191.740015 
L 213.099174 192.345036 
L 215.866116 193.07094 
L 218.633058 193.914549 
L 221.4 194.869115 
L 224.166942 195.924887 
L 226.933884 197.069862 
L 229.700826 198.290678 
L 232.467769 199.573549 
L 235.234711 200.905188 
L 238.001653 202.273642 
L 240.768595 203.668966 
L 243.535537 205.083684 
L 246.302479 206.512985 
L 249.069421 207.954625 
L 251.836364 209.408511 
L 254.603306 210.875967 
L 257.370248 212.358701 
L 260.13719 213.857493 
L 262.904132 215.370669 
L 265.671074 216.892426 
L 268.438017 218.411088 
L 271.204959 219.907421 
L 273.971901 221.353108 
L 276.738843 222.709533 
L 279.505785 223.927025 
L 282.272727 224.944688 
L 285.039669 225.690971 
L 287.806612 226.085073 
L 290.573554 226.039265 
L 293.340496 225.462142 
L 296.107438 224.262761 
L 298.87438 222.355535 
L 301.641322 219.665689 
L 304.408264 216.134978 
L 307.175207 211.727319 
L 309.942149 206.433942 
L 312.709091 200.277622 
L 315.476033 193.315595 
L 318.242975 185.640797 
L 321.009917 177.381155 
L 323.77686 168.696794 
L 326.543802 159.775157 
L 329.310744 150.824217 
L 332.077686 142.064094 
L 334.844628 133.717552 
L 337.61157 125.999954 
L 340.378512 119.109317 
L 343.145455 113.217112 
L 345.912397 108.460432 
L 348.679339 104.936033 
L 351.446281 102.696626 
L 354.213223 101.74962 
L 356.980165 102.058348 
L 359.747107 103.54559 
L 362.51405 106.099102 
L 365.280992 109.57866 
L 368.047934 113.82412 
L 370.814876 118.66389 
L 373.581818 123.923282 
" style="fill:none;stroke:#000000;stroke-dasharray:7.4,3.2;stroke-dashoffset:0;stroke-width:2;"/>
   </g>
   <g id="PathCollection_4">
    <g clip-path="url(#pb4c41ed080)">
     <use style="fill:#ff0000;stroke:#000000;" x="83.052893" xlink:href="#mc289eeddc7" y="129.399309"/>
     <use style="fill:#ff0000;stroke:#000000;" x="96.887603" xlink:href="#mc289eeddc7" y="162.429541"/>
     <use style="fill:#ff0000;stroke:#000000;" x="110.722314" xlink:href="#mc289eeddc7" y="193.170209"/>
     <use style="fill:#ff0000;stroke:#000000;" x="124.557025" xlink:href="#mc289eeddc7" y="199.248575"/>
     <use style="fill:#ff0000;stroke:#000000;" x="138.391736" xlink:href="#mc289eeddc7" y="199.347548"/>
     <use style="fill:#ff0000;stroke:#000000;" x="152.226446" xlink:href="#mc289eeddc7" y="191.611971"/>
     <use style="fill:#ff0000;stroke:#000000;" x="166.061157" xlink:href="#mc289eeddc7" y="193.66847"/>
     <use style="fill:#ff0000;stroke:#000000;" x="179.895868" xlink:href="#mc289eeddc7" y="193.283098"/>
     <use style="fill:#ff0000;stroke:#000000;" x="193.730579" xlink:href="#mc289eeddc7" y="188.924027"/>
     <use style="fill:#ff0000;stroke:#000000;" x="318.242975" xlink:href="#mc289eeddc7" y="199.289596"/>
     <use style="fill:#ff0000;stroke:#000000;" x="332.077686" xlink:href="#mc289eeddc7" y="145.37007"/>
     <use style="fill:#ff0000;stroke:#000000;" x="345.912397" xlink:href="#mc289eeddc7" y="78.407322"/>
     <use style="fill:#ff0000;stroke:#000000;" x="301.641322" xlink:href="#mc289eeddc7" y="209.239805"/>
     <use style="fill:#ff0000;stroke:#000000;" x="298.87438" xlink:href="#mc289eeddc7" y="234.398997"/>
     <use style="fill:#ff0000;stroke:#000000;" x="276.738843" xlink:href="#mc289eeddc7" y="225.228618"/>
     <use style="fill:#ff0000;stroke:#000000;" x="246.302479" xlink:href="#mc289eeddc7" y="209.817943"/>
    </g>
   </g>
  </g>
 </g>
 <defs>
  <clipPath id="pb4c41ed080">
   <rect height="217.44" width="334.8" x="54" y="34.56"/>
  </clipPath>
 </defs>
</svg>
