<?xml version="1.0" encoding="utf-8" standalone="no"?>
<!DOCTYPE svg PUBLIC "-//W3C//DTD SVG 1.1//EN"
  "http://www.w3.org/Graphics/SVG/1.1/DTD/svg11.dtd">
<svg height="288pt" version="1.1" viewBox="0 0 432 288" width="432pt" xmlns="http://www.w3.org/2000/svg" xmlns:xlink="http://www.w3.org/1999/xlink">
 <metadata>
  <rdf:RDF xmlns:cc="http://creativecommons.org/ns#" xmlns:dc="http://purl.org/dc/elements/1.1/" xmlns:rdf="http://www.w3.org/1999/02/22-rdf-syntax-ns#">
   <cc:Work>
    <dc:type rdf:resource="http://purl.org/dc/dcmitype/StillImage"/>
    <dc:date>2022-08-01T21:34:29.704926</dc:date>
    <dc:format>image/svg+xml</dc:format>
    <dc:creator>
     <cc:Agent>
      <dc:title>Matplotlib v3.4.3, https://matplotlib.org/</dc:title>
     </cc:Agent>
    </dc:creator>
   </cc:Work>
  </rdf:RDF>
 </metadata>
 <defs>
  <style type="text/css">*{stroke-linecap:butt;stroke-linejoin:round;}</style>
 </defs>
 <g id="figure_1">
  <g id="patch_1">
   <path d="M 0 288 
L 432 288 
L 432 0 
L 0 0 
z
" style="fill:none;"/>
  </g>
  <g id="axes_1">
   <g id="patch_2">
    <path d="M 54 252 
L 388.8 252 
L 388.8 34.56 
L 54 34.56 
z
" style="fill:#ffffff;"/>
   </g>
   <g id="PolyCollection_1">
    <defs>
     <path d="M 69.218182 -166.291401 
L 69.218182 -113.49674 
L 71.985124 -116.588365 
L 74.752066 -119.152424 
L 77.519008 -121.025469 
L 80.28595 -122.065575 
L 83.052893 -122.169436 
L 85.819835 -121.289636 
L 88.586777 -119.447502 
L 91.353719 -116.735462 
L 94.120661 -113.305641 
L 96.887603 -109.348112 
L 99.654545 -105.066839 
L 102.421488 -100.660111 
L 105.18843 -96.307766 
L 107.955372 -92.164185 
L 110.722314 -88.355054 
L 113.489256 -84.976283 
L 116.256198 -82.094087 
L 119.02314 -79.7458 
L 121.790083 -77.941336 
L 124.557025 -76.665416 
L 127.323967 -75.880694 
L 130.090909 -75.531822 
L 132.857851 -75.550287 
L 135.624793 -75.859709 
L 138.391736 -76.381165 
L 141.158678 -77.038114 
L 143.92562 -77.760589 
L 146.692562 -78.488442 
L 149.459504 -79.173598 
L 152.226446 -79.781385 
L 154.993388 -80.291089 
L 157.760331 -80.69585 
L 160.527273 -81.0019 
L 163.294215 -81.227022 
L 166.061157 -81.397954 
L 168.828099 -81.54645 
L 171.595041 -81.703859 
L 174.361983 -81.894471 
L 177.128926 -82.128361 
L 179.895868 -82.395207 
L 182.66281 -82.661352 
L 185.429752 -82.872805 
L 188.196694 -82.965964 
L 190.963636 -82.884452 
L 193.730579 -82.595849 
L 196.497521 -82.100653 
L 199.264463 -81.430197 
L 202.031405 -80.636691 
L 204.798347 -79.781111 
L 207.565289 -78.922988 
L 210.332231 -78.113433 
L 213.099174 -77.391177 
L 215.866116 -76.780978 
L 218.633058 -76.293778 
L 221.4 -75.928129 
L 224.166942 -75.672479 
L 226.933884 -75.507895 
L 229.700826 -75.41087 
L 232.467769 -75.355872 
L 235.234711 -75.317397 
L 238.001653 -75.271419 
L 240.768595 -75.19624 
L 243.535537 -75.072875 
L 246.302479 -74.885173 
L 249.069421 -74.619895 
L 251.836364 -74.266911 
L 254.603306 -73.819606 
L 257.370248 -73.275466 
L 260.13719 -72.636721 
L 262.904132 -71.910859 
L 265.671074 -71.110812 
L 268.438017 -70.254685 
L 271.204959 -69.364977 
L 273.971901 -68.46738 
L 276.738843 -67.589343 
L 279.505785 -66.758712 
L 282.272727 -66.002806 
L 285.039669 -65.348373 
L 287.806612 -64.822977 
L 290.573554 -64.458418 
L 293.340496 -64.296748 
L 296.107438 -64.398687 
L 298.87438 -64.852411 
L 301.641322 -65.777962 
L 304.408264 -67.321438 
L 307.175207 -69.636498 
L 309.942149 -72.857453 
L 312.709091 -77.072598 
L 315.476033 -82.305107 
L 318.242975 -88.504203 
L 321.009917 -95.545544 
L 323.77686 -103.238127 
L 326.543802 -111.334933 
L 329.310744 -119.545305 
L 332.077686 -127.548444 
L 334.844628 -135.008962 
L 337.61157 -141.596493 
L 340.378512 -147.010592 
L 343.145455 -151.00893 
L 345.912397 -153.432511 
L 348.679339 -154.220333 
L 351.446281 -153.409778 
L 354.213223 -151.124878 
L 356.980165 -147.557578 
L 359.747107 -142.946439 
L 362.51405 -137.555456 
L 365.280992 -131.654456 
L 368.047934 -125.502024 
L 370.814876 -119.331744 
L 373.581818 -113.342274 
L 373.581818 -179.716657 
L 373.581818 -179.716657 
L 370.814876 -183.732615 
L 368.047934 -187.532984 
L 365.280992 -190.930352 
L 362.51405 -193.733111 
L 359.747107 -195.758256 
L 356.980165 -196.844827 
L 354.213223 -196.86651 
L 351.446281 -195.741664 
L 348.679339 -193.438977 
L 345.912397 -189.977505 
L 343.145455 -185.421458 
L 340.378512 -179.872564 
L 337.61157 -173.464407 
L 334.844628 -166.361183 
L 332.077686 -158.758471 
L 329.310744 -150.880589 
L 326.543802 -142.971018 
L 323.77686 -135.276923 
L 321.009917 -128.031991 
L 318.242975 -121.442139 
L 315.476033 -115.676985 
L 312.709091 -110.867598 
L 309.942149 -107.10881 
L 307.175207 -104.462827 
L 304.408264 -102.960286 
L 301.641322 -102.596114 
L 298.87438 -103.321077 
L 296.107438 -105.034521 
L 293.340496 -107.585279 
L 290.573554 -110.783674 
L 287.806612 -114.421153 
L 285.039669 -118.291097 
L 282.272727 -122.20586 
L 279.505785 -126.00805 
L 276.738843 -129.576201 
L 273.971901 -132.825842 
L 271.204959 -135.707132 
L 268.438017 -138.200173 
L 265.671074 -140.308973 
L 262.904132 -142.054923 
L 260.13719 -143.470452 
L 257.370248 -144.593399 
L 254.603306 -145.462371 
L 251.836364 -146.11322 
L 249.069421 -146.57655 
L 246.302479 -146.876098 
L 243.535537 -147.027793 
L 240.768595 -147.039299 
L 238.001653 -146.909969 
L 235.234711 -146.63121 
L 232.467769 -146.187332 
L 229.700826 -145.557039 
L 226.933884 -144.715628 
L 224.166942 -143.637972 
L 221.4 -142.302167 
L 218.633058 -140.693624 
L 215.866116 -138.809268 
L 213.099174 -136.66138 
L 210.332231 -134.280607 
L 207.565289 -131.717648 
L 204.798347 -129.043105 
L 202.031405 -126.344998 
L 199.264463 -123.723315 
L 196.497521 -121.281015 
L 193.730579 -119.111351 
L 190.963636 -117.283024 
L 188.196694 -115.827406 
L 185.429752 -114.733799 
L 182.66281 -113.95615 
L 179.895868 -113.428175 
L 177.128926 -113.079471 
L 174.361983 -112.846539 
L 171.595041 -112.677215 
L 168.828099 -112.530294 
L 166.061157 -112.372974 
L 163.294215 -112.178206 
L 160.527273 -111.923165 
L 157.760331 -111.589273 
L 154.993388 -111.163633 
L 152.226446 -110.641354 
L 149.459504 -110.028085 
L 146.692562 -109.342124 
L 143.92562 -108.615641 
L 141.158678 -107.894765 
L 138.391736 -107.238476 
L 135.624793 -106.716361 
L 132.857851 -106.405339 
L 130.090909 -106.385503 
L 127.323967 -106.735181 
L 124.557025 -107.525385 
L 121.790083 -108.813879 
L 119.02314 -110.639223 
L 116.256198 -113.015353 
L 113.489256 -115.927468 
L 110.722314 -119.330074 
L 107.955372 -123.148029 
L 105.18843 -127.281122 
L 102.421488 -131.612178 
L 99.654545 -136.01795 
L 96.887603 -140.38108 
L 94.120661 -144.600439 
L 91.353719 -148.596456 
L 88.586777 -152.308944 
L 85.819835 -155.688208 
L 83.052893 -158.684937 
L 80.28595 -161.245937 
L 77.519008 -163.318587 
L 74.752066 -164.860731 
L 71.985124 -165.850359 
L 69.218182 -166.291401 
z
" id="md2b65b60d0" style="stroke:#add8e6;stroke-opacity:0.2;"/>
    </defs>
    <g clip-path="url(#p24146b0391)">
     <use style="fill:#add8e6;fill-opacity:0.2;stroke:#add8e6;stroke-opacity:0.2;" x="0" xlink:href="#md2b65b60d0" y="288"/>
    </g>
   </g>
   <g id="PathCollection_1">
    <defs>
     <path d="M 0 0.612372 
C 0.162403 0.612372 0.318176 0.547849 0.433013 0.433013 
C 0.547849 0.318176 0.612372 0.162403 0.612372 0 
C 0.612372 -0.162403 0.547849 -0.318176 0.433013 -0.433013 
C 0.318176 -0.547849 0.162403 -0.612372 0 -0.612372 
C -0.162403 -0.612372 -0.318176 -0.547849 -0.433013 -0.433013 
C -0.547849 -0.318176 -0.612372 -0.162403 -0.612372 0 
C -0.612372 0.162403 -0.547849 0.318176 -0.433013 0.433013 
C -0.318176 0.547849 -0.162403 0.612372 0 0.612372 
z
" id="m4f01554e68" style="stroke:#ff0000;stroke-width:8;"/>
    </defs>
    <g clip-path="url(#p24146b0391)">
     <use style="fill:#ff0000;stroke:#ff0000;stroke-width:8;" x="293.340496" xlink:href="#m4f01554e68" y="201.496816"/>
    </g>
   </g>
   <g id="matplotlib.axis_1">
    <g id="xtick_1">
     <g id="line2d_1">
      <defs>
       <path d="M 0 0 
L 0 3.5 
" id="mc0fa74495f" style="stroke:#000000;stroke-width:0.8;"/>
      </defs>
      <g>
       <use style="stroke:#000000;stroke-width:0.8;" x="69.218182" xlink:href="#mc0fa74495f" y="252"/>
      </g>
     </g>
     <g id="text_1">
      <!-- 0 -->
      <g transform="translate(66.036932 266.598437)scale(0.1 -0.1)">
       <defs>
        <path d="M 2034 4250 
Q 1547 4250 1301 3770 
Q 1056 3291 1056 2328 
Q 1056 1369 1301 889 
Q 1547 409 2034 409 
Q 2525 409 2770 889 
Q 3016 1369 3016 2328 
Q 3016 3291 2770 3770 
Q 2525 4250 2034 4250 
z
M 2034 4750 
Q 2819 4750 3233 4129 
Q 3647 3509 3647 2328 
Q 3647 1150 3233 529 
Q 2819 -91 2034 -91 
Q 1250 -91 836 529 
Q 422 1150 422 2328 
Q 422 3509 836 4129 
Q 1250 4750 2034 4750 
z
" id="DejaVuSans-30" transform="scale(0.015625)"/>
       </defs>
       <use xlink:href="#DejaVuSans-30"/>
      </g>
     </g>
    </g>
    <g id="xtick_2">
     <g id="line2d_2">
      <g>
       <use style="stroke:#000000;stroke-width:0.8;" x="124.557025" xlink:href="#mc0fa74495f" y="252"/>
      </g>
     </g>
     <g id="text_2">
      <!-- 2 -->
      <g transform="translate(121.375775 266.598437)scale(0.1 -0.1)">
       <defs>
        <path d="M 1228 531 
L 3431 531 
L 3431 0 
L 469 0 
L 469 531 
Q 828 903 1448 1529 
Q 2069 2156 2228 2338 
Q 2531 2678 2651 2914 
Q 2772 3150 2772 3378 
Q 2772 3750 2511 3984 
Q 2250 4219 1831 4219 
Q 1534 4219 1204 4116 
Q 875 4013 500 3803 
L 500 4441 
Q 881 4594 1212 4672 
Q 1544 4750 1819 4750 
Q 2544 4750 2975 4387 
Q 3406 4025 3406 3419 
Q 3406 3131 3298 2873 
Q 3191 2616 2906 2266 
Q 2828 2175 2409 1742 
Q 1991 1309 1228 531 
z
" id="DejaVuSans-32" transform="scale(0.015625)"/>
       </defs>
       <use xlink:href="#DejaVuSans-32"/>
      </g>
     </g>
    </g>
    <g id="xtick_3">
     <g id="line2d_3">
      <g>
       <use style="stroke:#000000;stroke-width:0.8;" x="179.895868" xlink:href="#mc0fa74495f" y="252"/>
      </g>
     </g>
     <g id="text_3">
      <!-- 4 -->
      <g transform="translate(176.714618 266.598437)scale(0.1 -0.1)">
       <defs>
        <path d="M 2419 4116 
L 825 1625 
L 2419 1625 
L 2419 4116 
z
M 2253 4666 
L 3047 4666 
L 3047 1625 
L 3713 1625 
L 3713 1100 
L 3047 1100 
L 3047 0 
L 2419 0 
L 2419 1100 
L 313 1100 
L 313 1709 
L 2253 4666 
z
" id="DejaVuSans-34" transform="scale(0.015625)"/>
       </defs>
       <use xlink:href="#DejaVuSans-34"/>
      </g>
     </g>
    </g>
    <g id="xtick_4">
     <g id="line2d_4">
      <g>
       <use style="stroke:#000000;stroke-width:0.8;" x="235.234711" xlink:href="#mc0fa74495f" y="252"/>
      </g>
     </g>
     <g id="text_4">
      <!-- 6 -->
      <g transform="translate(232.053461 266.598437)scale(0.1 -0.1)">
       <defs>
        <path d="M 2113 2584 
Q 1688 2584 1439 2293 
Q 1191 2003 1191 1497 
Q 1191 994 1439 701 
Q 1688 409 2113 409 
Q 2538 409 2786 701 
Q 3034 994 3034 1497 
Q 3034 2003 2786 2293 
Q 2538 2584 2113 2584 
z
M 3366 4563 
L 3366 3988 
Q 3128 4100 2886 4159 
Q 2644 4219 2406 4219 
Q 1781 4219 1451 3797 
Q 1122 3375 1075 2522 
Q 1259 2794 1537 2939 
Q 1816 3084 2150 3084 
Q 2853 3084 3261 2657 
Q 3669 2231 3669 1497 
Q 3669 778 3244 343 
Q 2819 -91 2113 -91 
Q 1303 -91 875 529 
Q 447 1150 447 2328 
Q 447 3434 972 4092 
Q 1497 4750 2381 4750 
Q 2619 4750 2861 4703 
Q 3103 4656 3366 4563 
z
" id="DejaVuSans-36" transform="scale(0.015625)"/>
       </defs>
       <use xlink:href="#DejaVuSans-36"/>
      </g>
     </g>
    </g>
    <g id="xtick_5">
     <g id="line2d_5">
      <g>
       <use style="stroke:#000000;stroke-width:0.8;" x="290.573554" xlink:href="#mc0fa74495f" y="252"/>
      </g>
     </g>
     <g id="text_5">
      <!-- 8 -->
      <g transform="translate(287.392304 266.598437)scale(0.1 -0.1)">
       <defs>
        <path d="M 2034 2216 
Q 1584 2216 1326 1975 
Q 1069 1734 1069 1313 
Q 1069 891 1326 650 
Q 1584 409 2034 409 
Q 2484 409 2743 651 
Q 3003 894 3003 1313 
Q 3003 1734 2745 1975 
Q 2488 2216 2034 2216 
z
M 1403 2484 
Q 997 2584 770 2862 
Q 544 3141 544 3541 
Q 544 4100 942 4425 
Q 1341 4750 2034 4750 
Q 2731 4750 3128 4425 
Q 3525 4100 3525 3541 
Q 3525 3141 3298 2862 
Q 3072 2584 2669 2484 
Q 3125 2378 3379 2068 
Q 3634 1759 3634 1313 
Q 3634 634 3220 271 
Q 2806 -91 2034 -91 
Q 1263 -91 848 271 
Q 434 634 434 1313 
Q 434 1759 690 2068 
Q 947 2378 1403 2484 
z
M 1172 3481 
Q 1172 3119 1398 2916 
Q 1625 2713 2034 2713 
Q 2441 2713 2670 2916 
Q 2900 3119 2900 3481 
Q 2900 3844 2670 4047 
Q 2441 4250 2034 4250 
Q 1625 4250 1398 4047 
Q 1172 3844 1172 3481 
z
" id="DejaVuSans-38" transform="scale(0.015625)"/>
       </defs>
       <use xlink:href="#DejaVuSans-38"/>
      </g>
     </g>
    </g>
    <g id="xtick_6">
     <g id="line2d_6">
      <g>
       <use style="stroke:#000000;stroke-width:0.8;" x="345.912397" xlink:href="#mc0fa74495f" y="252"/>
      </g>
     </g>
     <g id="text_6">
      <!-- 10 -->
      <g transform="translate(339.549897 266.598437)scale(0.1 -0.1)">
       <defs>
        <path d="M 794 531 
L 1825 531 
L 1825 4091 
L 703 3866 
L 703 4441 
L 1819 4666 
L 2450 4666 
L 2450 531 
L 3481 531 
L 3481 0 
L 794 0 
L 794 531 
z
" id="DejaVuSans-31" transform="scale(0.015625)"/>
       </defs>
       <use xlink:href="#DejaVuSans-31"/>
       <use x="63.623047" xlink:href="#DejaVuSans-30"/>
      </g>
     </g>
    </g>
    <g id="text_7">
     <!-- x -->
     <g transform="translate(217.84875 281.79625)scale(0.12 -0.12)">
      <defs>
       <path d="M 3513 3500 
L 2247 1797 
L 3578 0 
L 2900 0 
L 1881 1375 
L 863 0 
L 184 0 
L 1544 1831 
L 300 3500 
L 978 3500 
L 1906 2253 
L 2834 3500 
L 3513 3500 
z
" id="DejaVuSans-78" transform="scale(0.015625)"/>
      </defs>
      <use xlink:href="#DejaVuSans-78"/>
     </g>
    </g>
   </g>
   <g id="matplotlib.axis_2">
    <g id="ytick_1">
     <g id="line2d_7">
      <defs>
       <path d="M 0 0 
L -3.5 0 
" id="mf7f8fa419b" style="stroke:#000000;stroke-width:0.8;"/>
      </defs>
      <g>
       <use style="stroke:#000000;stroke-width:0.8;" x="54" xlink:href="#mf7f8fa419b" y="252"/>
      </g>
     </g>
     <g id="text_8">
      <!-- 3 -->
      <g transform="translate(40.6375 255.799219)scale(0.1 -0.1)">
       <defs>
        <path d="M 2597 2516 
Q 3050 2419 3304 2112 
Q 3559 1806 3559 1356 
Q 3559 666 3084 287 
Q 2609 -91 1734 -91 
Q 1441 -91 1130 -33 
Q 819 25 488 141 
L 488 750 
Q 750 597 1062 519 
Q 1375 441 1716 441 
Q 2309 441 2620 675 
Q 2931 909 2931 1356 
Q 2931 1769 2642 2001 
Q 2353 2234 1838 2234 
L 1294 2234 
L 1294 2753 
L 1863 2753 
Q 2328 2753 2575 2939 
Q 2822 3125 2822 3475 
Q 2822 3834 2567 4026 
Q 2313 4219 1838 4219 
Q 1578 4219 1281 4162 
Q 984 4106 628 3988 
L 628 4550 
Q 988 4650 1302 4700 
Q 1616 4750 1894 4750 
Q 2613 4750 3031 4423 
Q 3450 4097 3450 3541 
Q 3450 3153 3228 2886 
Q 3006 2619 2597 2516 
z
" id="DejaVuSans-33" transform="scale(0.015625)"/>
       </defs>
       <use xlink:href="#DejaVuSans-33"/>
      </g>
     </g>
    </g>
    <g id="ytick_2">
     <g id="line2d_8">
      <g>
       <use style="stroke:#000000;stroke-width:0.8;" x="54" xlink:href="#mf7f8fa419b" y="215.76"/>
      </g>
     </g>
     <g id="text_9">
      <!-- 4 -->
      <g transform="translate(40.6375 219.559219)scale(0.1 -0.1)">
       <use xlink:href="#DejaVuSans-34"/>
      </g>
     </g>
    </g>
    <g id="ytick_3">
     <g id="line2d_9">
      <g>
       <use style="stroke:#000000;stroke-width:0.8;" x="54" xlink:href="#mf7f8fa419b" y="179.52"/>
      </g>
     </g>
     <g id="text_10">
      <!-- 5 -->
      <g transform="translate(40.6375 183.319219)scale(0.1 -0.1)">
       <defs>
        <path d="M 691 4666 
L 3169 4666 
L 3169 4134 
L 1269 4134 
L 1269 2991 
Q 1406 3038 1543 3061 
Q 1681 3084 1819 3084 
Q 2600 3084 3056 2656 
Q 3513 2228 3513 1497 
Q 3513 744 3044 326 
Q 2575 -91 1722 -91 
Q 1428 -91 1123 -41 
Q 819 9 494 109 
L 494 744 
Q 775 591 1075 516 
Q 1375 441 1709 441 
Q 2250 441 2565 725 
Q 2881 1009 2881 1497 
Q 2881 1984 2565 2268 
Q 2250 2553 1709 2553 
Q 1456 2553 1204 2497 
Q 953 2441 691 2322 
L 691 4666 
z
" id="DejaVuSans-35" transform="scale(0.015625)"/>
       </defs>
       <use xlink:href="#DejaVuSans-35"/>
      </g>
     </g>
    </g>
    <g id="ytick_4">
     <g id="line2d_10">
      <g>
       <use style="stroke:#000000;stroke-width:0.8;" x="54" xlink:href="#mf7f8fa419b" y="143.28"/>
      </g>
     </g>
     <g id="text_11">
      <!-- 6 -->
      <g transform="translate(40.6375 147.079219)scale(0.1 -0.1)">
       <use xlink:href="#DejaVuSans-36"/>
      </g>
     </g>
    </g>
    <g id="ytick_5">
     <g id="line2d_11">
      <g>
       <use style="stroke:#000000;stroke-width:0.8;" x="54" xlink:href="#mf7f8fa419b" y="107.04"/>
      </g>
     </g>
     <g id="text_12">
      <!-- 7 -->
      <g transform="translate(40.6375 110.839219)scale(0.1 -0.1)">
       <defs>
        <path d="M 525 4666 
L 3525 4666 
L 3525 4397 
L 1831 0 
L 1172 0 
L 2766 4134 
L 525 4134 
L 525 4666 
z
" id="DejaVuSans-37" transform="scale(0.015625)"/>
       </defs>
       <use xlink:href="#DejaVuSans-37"/>
      </g>
     </g>
    </g>
    <g id="ytick_6">
     <g id="line2d_12">
      <g>
       <use style="stroke:#000000;stroke-width:0.8;" x="54" xlink:href="#mf7f8fa419b" y="70.8"/>
      </g>
     </g>
     <g id="text_13">
      <!-- 8 -->
      <g transform="translate(40.6375 74.599219)scale(0.1 -0.1)">
       <use xlink:href="#DejaVuSans-38"/>
      </g>
     </g>
    </g>
    <g id="ytick_7">
     <g id="line2d_13">
      <g>
       <use style="stroke:#000000;stroke-width:0.8;" x="54" xlink:href="#mf7f8fa419b" y="34.56"/>
      </g>
     </g>
     <g id="text_14">
      <!-- 9 -->
      <g transform="translate(40.6375 38.359219)scale(0.1 -0.1)">
       <defs>
        <path d="M 703 97 
L 703 672 
Q 941 559 1184 500 
Q 1428 441 1663 441 
Q 2288 441 2617 861 
Q 2947 1281 2994 2138 
Q 2813 1869 2534 1725 
Q 2256 1581 1919 1581 
Q 1219 1581 811 2004 
Q 403 2428 403 3163 
Q 403 3881 828 4315 
Q 1253 4750 1959 4750 
Q 2769 4750 3195 4129 
Q 3622 3509 3622 2328 
Q 3622 1225 3098 567 
Q 2575 -91 1691 -91 
Q 1453 -91 1209 -44 
Q 966 3 703 97 
z
M 1959 2075 
Q 2384 2075 2632 2365 
Q 2881 2656 2881 3163 
Q 2881 3666 2632 3958 
Q 2384 4250 1959 4250 
Q 1534 4250 1286 3958 
Q 1038 3666 1038 3163 
Q 1038 2656 1286 2365 
Q 1534 2075 1959 2075 
z
" id="DejaVuSans-39" transform="scale(0.015625)"/>
       </defs>
       <use xlink:href="#DejaVuSans-39"/>
      </g>
     </g>
    </g>
    <g id="text_15">
     <!-- y -->
     <g transform="translate(34.141875 146.83125)rotate(-90)scale(0.12 -0.12)">
      <defs>
       <path d="M 2059 -325 
Q 1816 -950 1584 -1140 
Q 1353 -1331 966 -1331 
L 506 -1331 
L 506 -850 
L 844 -850 
Q 1081 -850 1212 -737 
Q 1344 -625 1503 -206 
L 1606 56 
L 191 3500 
L 800 3500 
L 1894 763 
L 2988 3500 
L 3597 3500 
L 2059 -325 
z
" id="DejaVuSans-79" transform="scale(0.015625)"/>
      </defs>
      <use xlink:href="#DejaVuSans-79"/>
     </g>
    </g>
   </g>
   <g id="line2d_14">
    <path clip-path="url(#p24146b0391)" d="M 69.218182 70.8 
L 71.985124 85.083949 
L 74.752066 98.25467 
L 77.519008 110.364828 
L 80.28595 121.465955 
L 83.052893 131.608455 
L 85.819835 140.841599 
L 88.586777 149.213528 
L 91.353719 156.771253 
L 94.120661 163.560654 
L 96.887603 169.62648 
L 99.654545 175.012349 
L 102.421488 179.76075 
L 105.18843 183.913038 
L 107.955372 187.509441 
L 110.722314 190.589055 
L 113.489256 193.189844 
L 116.256198 195.348643 
L 119.02314 197.101155 
L 121.790083 198.481953 
L 124.557025 199.52448 
L 127.323967 200.261047 
L 130.090909 200.722835 
L 132.857851 200.939895 
L 135.624793 200.941145 
L 138.391736 200.754375 
L 141.158678 200.406243 
L 143.92562 199.922276 
L 146.692562 199.326871 
L 149.459504 198.643294 
L 152.226446 197.89368 
L 154.993388 197.099035 
L 157.760331 196.279231 
L 160.527273 195.453014 
L 163.294215 194.637994 
L 166.061157 193.850655 
L 168.828099 193.106347 
L 171.595041 192.419291 
L 174.361983 191.802577 
L 177.128926 191.268164 
L 179.895868 190.82688 
L 182.66281 190.488424 
L 185.429752 190.261362 
L 188.196694 190.153131 
L 190.963636 190.170037 
L 193.730579 190.317255 
L 196.497521 190.598829 
L 199.264463 191.017673 
L 202.031405 191.575569 
L 204.798347 192.273171 
L 207.565289 193.11 
L 210.332231 194.084446 
L 213.099174 195.193771 
L 215.866116 196.434103 
L 218.633058 197.800442 
L 221.4 199.286655 
L 224.166942 200.88548 
L 226.933884 202.588525 
L 229.700826 204.386264 
L 232.467769 206.268045 
L 235.234711 208.22208 
L 238.001653 210.235455 
L 240.768595 212.294122 
L 243.535537 214.382905 
L 246.302479 216.485496 
L 249.069421 218.584455 
L 251.836364 220.661214 
L 254.603306 222.696071 
L 257.370248 224.668198 
L 260.13719 226.555631 
L 262.904132 228.33528 
L 265.671074 229.982921 
L 268.438017 231.4732 
L 271.204959 232.779634 
L 273.971901 233.874607 
L 276.738843 234.729375 
L 279.505785 235.31406 
L 282.272727 235.597656 
L 285.039669 235.548026 
L 287.806612 235.1319 
L 290.573554 234.31488 
L 293.340496 233.061436 
L 296.107438 231.334908 
L 298.87438 229.097505 
L 301.641322 226.310305 
L 304.408264 222.933255 
L 307.175207 218.925173 
L 309.942149 214.243744 
L 312.709091 208.845524 
L 315.476033 202.685938 
L 318.242975 195.71928 
L 321.009917 187.898713 
L 323.77686 179.176271 
L 326.543802 169.502854 
L 329.310744 158.828236 
L 332.077686 147.101055 
L 334.844628 134.268823 
L 337.61157 120.277918 
L 340.378512 105.073589 
L 343.145455 88.599954 
L 345.912397 70.8 
L 348.679339 51.615584 
L 351.446281 30.987432 
L 354.213223 8.855138 
L 355.363895 -1 
" style="fill:none;stroke:#0000ff;stroke-linecap:square;stroke-width:2;"/>
   </g>
   <g id="line2d_15">
    <path clip-path="url(#p24146b0391)" d="M 69.218182 174.50326 
L 71.985124 171.411635 
L 74.752066 168.847576 
L 77.519008 166.974531 
L 80.28595 165.934425 
L 83.052893 165.830564 
L 85.819835 166.710364 
L 88.586777 168.552498 
L 91.353719 171.264538 
L 94.120661 174.694359 
L 96.887603 178.651888 
L 99.654545 182.933161 
L 102.421488 187.339889 
L 105.18843 191.692234 
L 107.955372 195.835815 
L 110.722314 199.644946 
L 113.489256 203.023717 
L 116.256198 205.905913 
L 119.02314 208.2542 
L 121.790083 210.058664 
L 124.557025 211.334584 
L 127.323967 212.119306 
L 130.090909 212.468178 
L 132.857851 212.449713 
L 135.624793 212.140291 
L 138.391736 211.618835 
L 141.158678 210.961886 
L 143.92562 210.239411 
L 146.692562 209.511558 
L 149.459504 208.826402 
L 152.226446 208.218615 
L 154.993388 207.708911 
L 157.760331 207.30415 
L 160.527273 206.9981 
L 163.294215 206.772978 
L 166.061157 206.602046 
L 168.828099 206.45355 
L 171.595041 206.296141 
L 174.361983 206.105529 
L 177.128926 205.871639 
L 179.895868 205.604793 
L 182.66281 205.338648 
L 185.429752 205.127195 
L 188.196694 205.034036 
L 190.963636 205.115548 
L 193.730579 205.404151 
L 196.497521 205.899347 
L 199.264463 206.569803 
L 202.031405 207.363309 
L 204.798347 208.218889 
L 207.565289 209.077012 
L 210.332231 209.886567 
L 213.099174 210.608823 
L 215.866116 211.219022 
L 218.633058 211.706222 
L 221.4 212.071871 
L 224.166942 212.327521 
L 226.933884 212.492105 
L 229.700826 212.58913 
L 232.467769 212.644128 
L 235.234711 212.682603 
L 238.001653 212.728581 
L 240.768595 212.80376 
L 243.535537 212.927125 
L 246.302479 213.114827 
L 249.069421 213.380105 
L 251.836364 213.733089 
L 254.603306 214.180394 
L 257.370248 214.724534 
L 260.13719 215.363279 
L 262.904132 216.089141 
L 265.671074 216.889188 
L 268.438017 217.745315 
L 271.204959 218.635023 
L 273.971901 219.53262 
L 276.738843 220.410657 
L 279.505785 221.241288 
L 282.272727 221.997194 
L 285.039669 222.651627 
L 287.806612 223.177023 
L 290.573554 223.541582 
L 293.340496 223.703252 
L 296.107438 223.601313 
L 298.87438 223.147589 
L 301.641322 222.222038 
L 304.408264 220.678562 
L 307.175207 218.363502 
L 309.942149 215.142547 
L 312.709091 210.927402 
L 315.476033 205.694893 
L 318.242975 199.495797 
L 321.009917 192.454456 
L 323.77686 184.761873 
L 326.543802 176.665067 
L 329.310744 168.454695 
L 332.077686 160.451556 
L 334.844628 152.991038 
L 337.61157 146.403507 
L 340.378512 140.989408 
L 343.145455 136.99107 
L 345.912397 134.567489 
L 348.679339 133.779667 
L 351.446281 134.590222 
L 354.213223 136.875122 
L 356.980165 140.442422 
L 359.747107 145.053561 
L 362.51405 150.444544 
L 365.280992 156.345544 
L 368.047934 162.497976 
L 370.814876 168.668256 
L 373.581818 174.657726 
" style="fill:none;stroke:#008000;stroke-dasharray:3.7,1.6;stroke-dashoffset:0;"/>
   </g>
   <g id="line2d_16">
    <path clip-path="url(#p24146b0391)" d="M 69.218182 121.708599 
L 71.985124 122.149641 
L 74.752066 123.139269 
L 77.519008 124.681413 
L 80.28595 126.754063 
L 83.052893 129.315063 
L 85.819835 132.311792 
L 88.586777 135.691056 
L 91.353719 139.403544 
L 94.120661 143.399561 
L 96.887603 147.61892 
L 99.654545 151.98205 
L 102.421488 156.387822 
L 105.18843 160.718878 
L 107.955372 164.851971 
L 110.722314 168.669926 
L 113.489256 172.072532 
L 116.256198 174.984647 
L 119.02314 177.360777 
L 121.790083 179.186121 
L 124.557025 180.474615 
L 127.323967 181.264819 
L 130.090909 181.614497 
L 132.857851 181.594661 
L 135.624793 181.283639 
L 138.391736 180.761524 
L 141.158678 180.105235 
L 143.92562 179.384359 
L 146.692562 178.657876 
L 149.459504 177.971915 
L 152.226446 177.358646 
L 154.993388 176.836367 
L 157.760331 176.410727 
L 160.527273 176.076835 
L 163.294215 175.821794 
L 166.061157 175.627026 
L 168.828099 175.469706 
L 171.595041 175.322785 
L 174.361983 175.153461 
L 177.128926 174.920529 
L 179.895868 174.571825 
L 182.66281 174.04385 
L 185.429752 173.266201 
L 188.196694 172.172594 
L 190.963636 170.716976 
L 193.730579 168.888649 
L 196.497521 166.718985 
L 199.264463 164.276685 
L 202.031405 161.655002 
L 204.798347 158.956895 
L 207.565289 156.282352 
L 210.332231 153.719393 
L 213.099174 151.33862 
L 215.866116 149.190732 
L 218.633058 147.306376 
L 221.4 145.697833 
L 224.166942 144.362028 
L 226.933884 143.284372 
L 229.700826 142.442961 
L 232.467769 141.812668 
L 235.234711 141.36879 
L 238.001653 141.090031 
L 240.768595 140.960701 
L 243.535537 140.972207 
L 246.302479 141.123902 
L 249.069421 141.42345 
L 251.836364 141.88678 
L 254.603306 142.537629 
L 257.370248 143.406601 
L 260.13719 144.529548 
L 262.904132 145.945077 
L 265.671074 147.691027 
L 268.438017 149.799827 
L 271.204959 152.292868 
L 273.971901 155.174158 
L 276.738843 158.423799 
L 279.505785 161.99195 
L 282.272727 165.79414 
L 285.039669 169.708903 
L 287.806612 173.578847 
L 290.573554 177.216326 
L 293.340496 180.414721 
L 296.107438 182.965479 
L 298.87438 184.678923 
L 301.641322 185.403886 
L 304.408264 185.039714 
L 307.175207 183.537173 
L 309.942149 180.89119 
L 312.709091 177.132402 
L 315.476033 172.323015 
L 318.242975 166.557861 
L 321.009917 159.968009 
L 323.77686 152.723077 
L 326.543802 145.028982 
L 329.310744 137.119411 
L 332.077686 129.241529 
L 334.844628 121.638817 
L 337.61157 114.535593 
L 340.378512 108.127436 
L 343.145455 102.578542 
L 345.912397 98.022495 
L 348.679339 94.561023 
L 351.446281 92.258336 
L 354.213223 91.13349 
L 356.980165 91.155173 
L 359.747107 92.241744 
L 362.51405 94.266889 
L 365.280992 97.069648 
L 368.047934 100.467016 
L 370.814876 104.267385 
L 373.581818 108.283343 
" style="fill:none;stroke:#008000;stroke-dasharray:3.7,1.6;stroke-dashoffset:0;"/>
   </g>
   <g id="line2d_17">
    <path clip-path="url(#p24146b0391)" d="M 69.218182 251.202423 
L 71.985124 251.625896 
L 74.752066 251.839617 
L 77.519008 251.934717 
L 80.28595 251.972769 
L 83.052893 251.986914 
L 85.819835 251.991702 
L 88.586777 251.992295 
L 91.353719 251.989305 
L 94.120661 251.97936 
L 96.887603 251.95121 
L 99.654545 251.875575 
L 102.421488 251.688706 
L 105.18843 251.278478 
L 107.955372 250.493131 
L 110.722314 249.189669 
L 113.489256 247.311603 
L 116.256198 244.952968 
L 119.02314 242.362574 
L 121.790083 239.878415 
L 124.557025 237.826088 
L 127.323967 236.430885 
L 130.090909 235.776023 
L 132.857851 235.810678 
L 135.624793 236.391188 
L 138.391736 237.332975 
L 141.158678 238.455305 
L 143.92562 239.609748 
L 146.692562 240.691497 
L 149.459504 241.637957 
L 152.226446 242.42069 
L 154.993388 243.035882 
L 157.760331 243.496408 
L 160.527273 243.82651 
L 163.294215 244.058559 
L 166.061157 244.230415 
L 168.828099 244.381562 
L 171.595041 244.546564 
L 174.361983 244.745741 
L 177.128926 244.974996 
L 179.895868 245.198637 
L 182.66281 245.349165 
L 185.429752 245.335463 
L 188.196694 245.056743 
L 190.963636 244.418212 
L 193.730579 243.347266 
L 196.497521 241.810813 
L 199.264463 239.829971 
L 202.031405 237.483975 
L 204.798347 234.898943 
L 207.565289 232.225527 
L 210.332231 229.613924 
L 213.099174 227.193171 
L 215.866116 225.057973 
L 218.633058 223.263313 
L 221.4 221.825537 
L 224.166942 220.728014 
L 226.933884 219.929374 
L 229.700826 219.372561 
L 232.467769 218.993239 
L 235.234711 218.726607 
L 238.001653 218.512177 
L 240.768595 218.296543 
L 243.535537 218.034544 
L 246.302479 217.689405 
L 249.069421 217.232489 
L 251.836364 216.643144 
L 254.603306 215.908924 
L 257.370248 215.026193 
L 260.13719 214.000869 
L 262.904132 212.848883 
L 265.671074 211.595866 
L 268.438017 210.275632 
L 271.204959 208.927266 
L 273.971901 207.59106 
L 276.738843 206.304029 
L 279.505785 205.096465 
L 282.272727 203.991758 
L 285.039669 203.012687 
L 287.806612 202.198176 
L 290.573554 201.634076 
L 293.340496 201.496816 
L 296.107438 202.095351 
L 298.87438 203.874603 
L 301.641322 207.328755 
L 304.408264 212.797211 
L 307.175207 220.191378 
L 309.942149 228.789952 
L 312.709091 237.28927 
L 315.476033 244.242149 
L 318.242975 248.763626 
L 321.009917 250.986904 
L 323.77686 251.772066 
L 326.543802 251.963621 
L 329.310744 251.995693 
L 332.077686 251.999568 
L 334.844628 251.999953 
L 337.61157 251.999993 
L 340.378512 251.999998 
L 343.145455 251.999998 
L 345.912397 251.999996 
L 348.679339 251.999983 
L 351.446281 251.999905 
L 354.213223 251.999399 
L 356.980165 251.996527 
L 359.747107 251.983271 
L 362.51405 251.93494 
L 365.280992 251.795019 
L 368.047934 251.466229 
L 370.814876 250.821693 
L 373.581818 249.738527 
" style="fill:none;stroke:#bfbf00;stroke-dasharray:7.4,3.2;stroke-dashoffset:0;stroke-width:2;"/>
   </g>
   <g id="patch_3">
    <path d="M 54 252 
L 54 34.56 
" style="fill:none;stroke:#000000;stroke-linecap:square;stroke-linejoin:miter;stroke-width:0.8;"/>
   </g>
   <g id="patch_4">
    <path d="M 388.8 252 
L 388.8 34.56 
" style="fill:none;stroke:#000000;stroke-linecap:square;stroke-linejoin:miter;stroke-width:0.8;"/>
   </g>
   <g id="patch_5">
    <path d="M 54 252 
L 388.8 252 
" style="fill:none;stroke:#000000;stroke-linecap:square;stroke-linejoin:miter;stroke-width:0.8;"/>
   </g>
   <g id="patch_6">
    <path d="M 54 34.56 
L 388.8 34.56 
" style="fill:none;stroke:#000000;stroke-linecap:square;stroke-linejoin:miter;stroke-width:0.8;"/>
   </g>
   <g id="text_16">
    <!-- Method : EI -->
    <g transform="translate(71.985124 244.752)scale(0.12 -0.12)">
     <defs>
      <path d="M 628 4666 
L 1569 4666 
L 2759 1491 
L 3956 4666 
L 4897 4666 
L 4897 0 
L 4281 0 
L 4281 4097 
L 3078 897 
L 2444 897 
L 1241 4097 
L 1241 0 
L 628 0 
L 628 4666 
z
" id="DejaVuSans-4d" transform="scale(0.015625)"/>
      <path d="M 3597 1894 
L 3597 1613 
L 953 1613 
Q 991 1019 1311 708 
Q 1631 397 2203 397 
Q 2534 397 2845 478 
Q 3156 559 3463 722 
L 3463 178 
Q 3153 47 2828 -22 
Q 2503 -91 2169 -91 
Q 1331 -91 842 396 
Q 353 884 353 1716 
Q 353 2575 817 3079 
Q 1281 3584 2069 3584 
Q 2775 3584 3186 3129 
Q 3597 2675 3597 1894 
z
M 3022 2063 
Q 3016 2534 2758 2815 
Q 2500 3097 2075 3097 
Q 1594 3097 1305 2825 
Q 1016 2553 972 2059 
L 3022 2063 
z
" id="DejaVuSans-65" transform="scale(0.015625)"/>
      <path d="M 1172 4494 
L 1172 3500 
L 2356 3500 
L 2356 3053 
L 1172 3053 
L 1172 1153 
Q 1172 725 1289 603 
Q 1406 481 1766 481 
L 2356 481 
L 2356 0 
L 1766 0 
Q 1100 0 847 248 
Q 594 497 594 1153 
L 594 3053 
L 172 3053 
L 172 3500 
L 594 3500 
L 594 4494 
L 1172 4494 
z
" id="DejaVuSans-74" transform="scale(0.015625)"/>
      <path d="M 3513 2113 
L 3513 0 
L 2938 0 
L 2938 2094 
Q 2938 2591 2744 2837 
Q 2550 3084 2163 3084 
Q 1697 3084 1428 2787 
Q 1159 2491 1159 1978 
L 1159 0 
L 581 0 
L 581 4863 
L 1159 4863 
L 1159 2956 
Q 1366 3272 1645 3428 
Q 1925 3584 2291 3584 
Q 2894 3584 3203 3211 
Q 3513 2838 3513 2113 
z
" id="DejaVuSans-68" transform="scale(0.015625)"/>
      <path d="M 1959 3097 
Q 1497 3097 1228 2736 
Q 959 2375 959 1747 
Q 959 1119 1226 758 
Q 1494 397 1959 397 
Q 2419 397 2687 759 
Q 2956 1122 2956 1747 
Q 2956 2369 2687 2733 
Q 2419 3097 1959 3097 
z
M 1959 3584 
Q 2709 3584 3137 3096 
Q 3566 2609 3566 1747 
Q 3566 888 3137 398 
Q 2709 -91 1959 -91 
Q 1206 -91 779 398 
Q 353 888 353 1747 
Q 353 2609 779 3096 
Q 1206 3584 1959 3584 
z
" id="DejaVuSans-6f" transform="scale(0.015625)"/>
      <path d="M 2906 2969 
L 2906 4863 
L 3481 4863 
L 3481 0 
L 2906 0 
L 2906 525 
Q 2725 213 2448 61 
Q 2172 -91 1784 -91 
Q 1150 -91 751 415 
Q 353 922 353 1747 
Q 353 2572 751 3078 
Q 1150 3584 1784 3584 
Q 2172 3584 2448 3432 
Q 2725 3281 2906 2969 
z
M 947 1747 
Q 947 1113 1208 752 
Q 1469 391 1925 391 
Q 2381 391 2643 752 
Q 2906 1113 2906 1747 
Q 2906 2381 2643 2742 
Q 2381 3103 1925 3103 
Q 1469 3103 1208 2742 
Q 947 2381 947 1747 
z
" id="DejaVuSans-64" transform="scale(0.015625)"/>
      <path id="DejaVuSans-20" transform="scale(0.015625)"/>
      <path d="M 750 794 
L 1409 794 
L 1409 0 
L 750 0 
L 750 794 
z
M 750 3309 
L 1409 3309 
L 1409 2516 
L 750 2516 
L 750 3309 
z
" id="DejaVuSans-3a" transform="scale(0.015625)"/>
      <path d="M 628 4666 
L 3578 4666 
L 3578 4134 
L 1259 4134 
L 1259 2753 
L 3481 2753 
L 3481 2222 
L 1259 2222 
L 1259 531 
L 3634 531 
L 3634 0 
L 628 0 
L 628 4666 
z
" id="DejaVuSans-45" transform="scale(0.015625)"/>
      <path d="M 628 4666 
L 1259 4666 
L 1259 0 
L 628 0 
L 628 4666 
z
" id="DejaVuSans-49" transform="scale(0.015625)"/>
     </defs>
     <use xlink:href="#DejaVuSans-4d"/>
     <use x="86.279297" xlink:href="#DejaVuSans-65"/>
     <use x="147.802734" xlink:href="#DejaVuSans-74"/>
     <use x="187.011719" xlink:href="#DejaVuSans-68"/>
     <use x="250.390625" xlink:href="#DejaVuSans-6f"/>
     <use x="311.572266" xlink:href="#DejaVuSans-64"/>
     <use x="375.048828" xlink:href="#DejaVuSans-20"/>
     <use x="406.835938" xlink:href="#DejaVuSans-3a"/>
     <use x="440.527344" xlink:href="#DejaVuSans-20"/>
     <use x="472.314453" xlink:href="#DejaVuSans-45"/>
     <use x="535.498047" xlink:href="#DejaVuSans-49"/>
    </g>
   </g>
   <g id="text_17">
    <!-- Iter=1 -->
    <g transform="translate(71.985124 226.632)scale(0.12 -0.12)">
     <defs>
      <path d="M 2631 2963 
Q 2534 3019 2420 3045 
Q 2306 3072 2169 3072 
Q 1681 3072 1420 2755 
Q 1159 2438 1159 1844 
L 1159 0 
L 581 0 
L 581 3500 
L 1159 3500 
L 1159 2956 
Q 1341 3275 1631 3429 
Q 1922 3584 2338 3584 
Q 2397 3584 2469 3576 
Q 2541 3569 2628 3553 
L 2631 2963 
z
" id="DejaVuSans-72" transform="scale(0.015625)"/>
      <path d="M 678 2906 
L 4684 2906 
L 4684 2381 
L 678 2381 
L 678 2906 
z
M 678 1631 
L 4684 1631 
L 4684 1100 
L 678 1100 
L 678 1631 
z
" id="DejaVuSans-3d" transform="scale(0.015625)"/>
     </defs>
     <use xlink:href="#DejaVuSans-49"/>
     <use x="29.492188" xlink:href="#DejaVuSans-74"/>
     <use x="68.701172" xlink:href="#DejaVuSans-65"/>
     <use x="130.224609" xlink:href="#DejaVuSans-72"/>
     <use x="171.337891" xlink:href="#DejaVuSans-3d"/>
     <use x="255.126953" xlink:href="#DejaVuSans-31"/>
    </g>
   </g>
   <g id="legend_1">
    <g id="patch_7">
     <path d="M 144.327812 140.235625 
L 298.472188 140.235625 
Q 300.672188 140.235625 300.672188 138.035625 
L 300.672188 42.26 
Q 300.672188 40.06 298.472188 40.06 
L 144.327812 40.06 
Q 142.127813 40.06 142.127813 42.26 
L 142.127813 138.035625 
Q 142.127813 140.235625 144.327812 140.235625 
z
" style="fill:#ffffff;opacity:0.8;stroke:#cccccc;stroke-linejoin:miter;"/>
    </g>
    <g id="line2d_18">
     <path d="M 146.527813 48.968281 
L 168.527813 48.968281 
" style="fill:none;stroke:#0000ff;stroke-linecap:square;stroke-width:2;"/>
    </g>
    <g id="line2d_19"/>
    <g id="text_18">
     <!-- ture function -->
     <g transform="translate(177.327813 52.818281)scale(0.11 -0.11)">
      <defs>
       <path d="M 544 1381 
L 544 3500 
L 1119 3500 
L 1119 1403 
Q 1119 906 1312 657 
Q 1506 409 1894 409 
Q 2359 409 2629 706 
Q 2900 1003 2900 1516 
L 2900 3500 
L 3475 3500 
L 3475 0 
L 2900 0 
L 2900 538 
Q 2691 219 2414 64 
Q 2138 -91 1772 -91 
Q 1169 -91 856 284 
Q 544 659 544 1381 
z
M 1991 3584 
L 1991 3584 
z
" id="DejaVuSans-75" transform="scale(0.015625)"/>
       <path d="M 2375 4863 
L 2375 4384 
L 1825 4384 
Q 1516 4384 1395 4259 
Q 1275 4134 1275 3809 
L 1275 3500 
L 2222 3500 
L 2222 3053 
L 1275 3053 
L 1275 0 
L 697 0 
L 697 3053 
L 147 3053 
L 147 3500 
L 697 3500 
L 697 3744 
Q 697 4328 969 4595 
Q 1241 4863 1831 4863 
L 2375 4863 
z
" id="DejaVuSans-66" transform="scale(0.015625)"/>
       <path d="M 3513 2113 
L 3513 0 
L 2938 0 
L 2938 2094 
Q 2938 2591 2744 2837 
Q 2550 3084 2163 3084 
Q 1697 3084 1428 2787 
Q 1159 2491 1159 1978 
L 1159 0 
L 581 0 
L 581 3500 
L 1159 3500 
L 1159 2956 
Q 1366 3272 1645 3428 
Q 1925 3584 2291 3584 
Q 2894 3584 3203 3211 
Q 3513 2838 3513 2113 
z
" id="DejaVuSans-6e" transform="scale(0.015625)"/>
       <path d="M 3122 3366 
L 3122 2828 
Q 2878 2963 2633 3030 
Q 2388 3097 2138 3097 
Q 1578 3097 1268 2742 
Q 959 2388 959 1747 
Q 959 1106 1268 751 
Q 1578 397 2138 397 
Q 2388 397 2633 464 
Q 2878 531 3122 666 
L 3122 134 
Q 2881 22 2623 -34 
Q 2366 -91 2075 -91 
Q 1284 -91 818 406 
Q 353 903 353 1747 
Q 353 2603 823 3093 
Q 1294 3584 2113 3584 
Q 2378 3584 2631 3529 
Q 2884 3475 3122 3366 
z
" id="DejaVuSans-63" transform="scale(0.015625)"/>
       <path d="M 603 3500 
L 1178 3500 
L 1178 0 
L 603 0 
L 603 3500 
z
M 603 4863 
L 1178 4863 
L 1178 4134 
L 603 4134 
L 603 4863 
z
" id="DejaVuSans-69" transform="scale(0.015625)"/>
      </defs>
      <use xlink:href="#DejaVuSans-74"/>
      <use x="39.208984" xlink:href="#DejaVuSans-75"/>
      <use x="102.587891" xlink:href="#DejaVuSans-72"/>
      <use x="141.451172" xlink:href="#DejaVuSans-65"/>
      <use x="202.974609" xlink:href="#DejaVuSans-20"/>
      <use x="234.761719" xlink:href="#DejaVuSans-66"/>
      <use x="269.966797" xlink:href="#DejaVuSans-75"/>
      <use x="333.345703" xlink:href="#DejaVuSans-6e"/>
      <use x="396.724609" xlink:href="#DejaVuSans-63"/>
      <use x="451.705078" xlink:href="#DejaVuSans-74"/>
      <use x="490.914062" xlink:href="#DejaVuSans-69"/>
      <use x="518.697266" xlink:href="#DejaVuSans-6f"/>
      <use x="579.878906" xlink:href="#DejaVuSans-6e"/>
     </g>
    </g>
    <g id="line2d_20">
     <path d="M 146.527813 65.114219 
L 168.527813 65.114219 
" style="fill:none;stroke:#000000;stroke-dasharray:7.4,3.2;stroke-dashoffset:0;stroke-width:2;"/>
    </g>
    <g id="line2d_21"/>
    <g id="text_19">
     <!-- predicted function -->
     <g transform="translate(177.327813 68.964219)scale(0.11 -0.11)">
      <defs>
       <path d="M 1159 525 
L 1159 -1331 
L 581 -1331 
L 581 3500 
L 1159 3500 
L 1159 2969 
Q 1341 3281 1617 3432 
Q 1894 3584 2278 3584 
Q 2916 3584 3314 3078 
Q 3713 2572 3713 1747 
Q 3713 922 3314 415 
Q 2916 -91 2278 -91 
Q 1894 -91 1617 61 
Q 1341 213 1159 525 
z
M 3116 1747 
Q 3116 2381 2855 2742 
Q 2594 3103 2138 3103 
Q 1681 3103 1420 2742 
Q 1159 2381 1159 1747 
Q 1159 1113 1420 752 
Q 1681 391 2138 391 
Q 2594 391 2855 752 
Q 3116 1113 3116 1747 
z
" id="DejaVuSans-70" transform="scale(0.015625)"/>
      </defs>
      <use xlink:href="#DejaVuSans-70"/>
      <use x="63.476562" xlink:href="#DejaVuSans-72"/>
      <use x="102.339844" xlink:href="#DejaVuSans-65"/>
      <use x="163.863281" xlink:href="#DejaVuSans-64"/>
      <use x="227.339844" xlink:href="#DejaVuSans-69"/>
      <use x="255.123047" xlink:href="#DejaVuSans-63"/>
      <use x="310.103516" xlink:href="#DejaVuSans-74"/>
      <use x="349.3125" xlink:href="#DejaVuSans-65"/>
      <use x="410.835938" xlink:href="#DejaVuSans-64"/>
      <use x="474.3125" xlink:href="#DejaVuSans-20"/>
      <use x="506.099609" xlink:href="#DejaVuSans-66"/>
      <use x="541.304688" xlink:href="#DejaVuSans-75"/>
      <use x="604.683594" xlink:href="#DejaVuSans-6e"/>
      <use x="668.0625" xlink:href="#DejaVuSans-63"/>
      <use x="723.042969" xlink:href="#DejaVuSans-74"/>
      <use x="762.251953" xlink:href="#DejaVuSans-69"/>
      <use x="790.035156" xlink:href="#DejaVuSans-6f"/>
      <use x="851.216797" xlink:href="#DejaVuSans-6e"/>
     </g>
    </g>
    <g id="line2d_22">
     <path d="M 146.527813 81.260156 
L 168.527813 81.260156 
" style="fill:none;stroke:#008000;stroke-dasharray:3.7,1.6;stroke-dashoffset:0;"/>
    </g>
    <g id="line2d_23"/>
    <g id="text_20">
     <!--  ± Sn(x) -->
     <g transform="translate(177.327813 85.110156)scale(0.11 -0.11)">
      <defs>
       <path d="M 2944 4013 
L 2944 2803 
L 4684 2803 
L 4684 2272 
L 2944 2272 
L 2944 1063 
L 2419 1063 
L 2419 2272 
L 678 2272 
L 678 2803 
L 2419 2803 
L 2419 4013 
L 2944 4013 
z
M 678 531 
L 4684 531 
L 4684 0 
L 678 0 
L 678 531 
z
" id="DejaVuSans-b1" transform="scale(0.015625)"/>
       <path d="M 3425 4513 
L 3425 3897 
Q 3066 4069 2747 4153 
Q 2428 4238 2131 4238 
Q 1616 4238 1336 4038 
Q 1056 3838 1056 3469 
Q 1056 3159 1242 3001 
Q 1428 2844 1947 2747 
L 2328 2669 
Q 3034 2534 3370 2195 
Q 3706 1856 3706 1288 
Q 3706 609 3251 259 
Q 2797 -91 1919 -91 
Q 1588 -91 1214 -16 
Q 841 59 441 206 
L 441 856 
Q 825 641 1194 531 
Q 1563 422 1919 422 
Q 2459 422 2753 634 
Q 3047 847 3047 1241 
Q 3047 1584 2836 1778 
Q 2625 1972 2144 2069 
L 1759 2144 
Q 1053 2284 737 2584 
Q 422 2884 422 3419 
Q 422 4038 858 4394 
Q 1294 4750 2059 4750 
Q 2388 4750 2728 4690 
Q 3069 4631 3425 4513 
z
" id="DejaVuSans-53" transform="scale(0.015625)"/>
       <path d="M 1984 4856 
Q 1566 4138 1362 3434 
Q 1159 2731 1159 2009 
Q 1159 1288 1364 580 
Q 1569 -128 1984 -844 
L 1484 -844 
Q 1016 -109 783 600 
Q 550 1309 550 2009 
Q 550 2706 781 3412 
Q 1013 4119 1484 4856 
L 1984 4856 
z
" id="DejaVuSans-28" transform="scale(0.015625)"/>
       <path d="M 513 4856 
L 1013 4856 
Q 1481 4119 1714 3412 
Q 1947 2706 1947 2009 
Q 1947 1309 1714 600 
Q 1481 -109 1013 -844 
L 513 -844 
Q 928 -128 1133 580 
Q 1338 1288 1338 2009 
Q 1338 2731 1133 3434 
Q 928 4138 513 4856 
z
" id="DejaVuSans-29" transform="scale(0.015625)"/>
      </defs>
      <use xlink:href="#DejaVuSans-20"/>
      <use x="31.787109" xlink:href="#DejaVuSans-b1"/>
      <use x="115.576172" xlink:href="#DejaVuSans-20"/>
      <use x="147.363281" xlink:href="#DejaVuSans-53"/>
      <use x="210.839844" xlink:href="#DejaVuSans-6e"/>
      <use x="274.21875" xlink:href="#DejaVuSans-28"/>
      <use x="313.232422" xlink:href="#DejaVuSans-78"/>
      <use x="372.412109" xlink:href="#DejaVuSans-29"/>
     </g>
    </g>
    <g id="line2d_24">
     <path d="M 146.527813 97.406094 
L 168.527813 97.406094 
" style="fill:none;stroke:#bfbf00;stroke-dasharray:7.4,3.2;stroke-dashoffset:0;stroke-width:2;"/>
    </g>
    <g id="line2d_25"/>
    <g id="text_21">
     <!-- EI(x) -->
     <g transform="translate(177.327813 101.256094)scale(0.11 -0.11)">
      <use xlink:href="#DejaVuSans-45"/>
      <use x="63.183594" xlink:href="#DejaVuSans-49"/>
      <use x="92.675781" xlink:href="#DejaVuSans-28"/>
      <use x="131.689453" xlink:href="#DejaVuSans-78"/>
      <use x="190.869141" xlink:href="#DejaVuSans-29"/>
     </g>
    </g>
    <g id="PathCollection_2">
     <defs>
      <path d="M 0 3.535534 
C 0.937635 3.535534 1.836992 3.163008 2.5 2.5 
C 3.163008 1.836992 3.535534 0.937635 3.535534 0 
C 3.535534 -0.937635 3.163008 -1.836992 2.5 -2.5 
C 1.836992 -3.163008 0.937635 -3.535534 0 -3.535534 
C -0.937635 -3.535534 -1.836992 -3.163008 -2.5 -2.5 
C -3.163008 -1.836992 -3.535534 -0.937635 -3.535534 0 
C -3.535534 0.937635 -3.163008 1.836992 -2.5 2.5 
C -1.836992 3.163008 -0.937635 3.535534 0 3.535534 
z
" id="ma3e7aa6bd9" style="stroke:#000000;"/>
     </defs>
     <g>
      <use style="fill:#ff0000;stroke:#000000;" x="157.527813" xlink:href="#ma3e7aa6bd9" y="114.514531"/>
     </g>
    </g>
    <g id="text_22">
     <!-- training data -->
     <g transform="translate(177.327813 117.402031)scale(0.11 -0.11)">
      <defs>
       <path d="M 2194 1759 
Q 1497 1759 1228 1600 
Q 959 1441 959 1056 
Q 959 750 1161 570 
Q 1363 391 1709 391 
Q 2188 391 2477 730 
Q 2766 1069 2766 1631 
L 2766 1759 
L 2194 1759 
z
M 3341 1997 
L 3341 0 
L 2766 0 
L 2766 531 
Q 2569 213 2275 61 
Q 1981 -91 1556 -91 
Q 1019 -91 701 211 
Q 384 513 384 1019 
Q 384 1609 779 1909 
Q 1175 2209 1959 2209 
L 2766 2209 
L 2766 2266 
Q 2766 2663 2505 2880 
Q 2244 3097 1772 3097 
Q 1472 3097 1187 3025 
Q 903 2953 641 2809 
L 641 3341 
Q 956 3463 1253 3523 
Q 1550 3584 1831 3584 
Q 2591 3584 2966 3190 
Q 3341 2797 3341 1997 
z
" id="DejaVuSans-61" transform="scale(0.015625)"/>
       <path d="M 2906 1791 
Q 2906 2416 2648 2759 
Q 2391 3103 1925 3103 
Q 1463 3103 1205 2759 
Q 947 2416 947 1791 
Q 947 1169 1205 825 
Q 1463 481 1925 481 
Q 2391 481 2648 825 
Q 2906 1169 2906 1791 
z
M 3481 434 
Q 3481 -459 3084 -895 
Q 2688 -1331 1869 -1331 
Q 1566 -1331 1297 -1286 
Q 1028 -1241 775 -1147 
L 775 -588 
Q 1028 -725 1275 -790 
Q 1522 -856 1778 -856 
Q 2344 -856 2625 -561 
Q 2906 -266 2906 331 
L 2906 616 
Q 2728 306 2450 153 
Q 2172 0 1784 0 
Q 1141 0 747 490 
Q 353 981 353 1791 
Q 353 2603 747 3093 
Q 1141 3584 1784 3584 
Q 2172 3584 2450 3431 
Q 2728 3278 2906 2969 
L 2906 3500 
L 3481 3500 
L 3481 434 
z
" id="DejaVuSans-67" transform="scale(0.015625)"/>
      </defs>
      <use xlink:href="#DejaVuSans-74"/>
      <use x="39.208984" xlink:href="#DejaVuSans-72"/>
      <use x="80.322266" xlink:href="#DejaVuSans-61"/>
      <use x="141.601562" xlink:href="#DejaVuSans-69"/>
      <use x="169.384766" xlink:href="#DejaVuSans-6e"/>
      <use x="232.763672" xlink:href="#DejaVuSans-69"/>
      <use x="260.546875" xlink:href="#DejaVuSans-6e"/>
      <use x="323.925781" xlink:href="#DejaVuSans-67"/>
      <use x="387.402344" xlink:href="#DejaVuSans-20"/>
      <use x="419.189453" xlink:href="#DejaVuSans-64"/>
      <use x="482.666016" xlink:href="#DejaVuSans-61"/>
      <use x="543.945312" xlink:href="#DejaVuSans-74"/>
      <use x="583.154297" xlink:href="#DejaVuSans-61"/>
     </g>
    </g>
    <g id="PathCollection_3">
     <g>
      <use style="fill:#ff0000;stroke:#ff0000;stroke-width:8;" x="157.527813" xlink:href="#m4f01554e68" y="130.660469"/>
     </g>
    </g>
    <g id="text_23">
     <!-- recommended datum -->
     <g transform="translate(177.327813 133.547969)scale(0.11 -0.11)">
      <defs>
       <path d="M 3328 2828 
Q 3544 3216 3844 3400 
Q 4144 3584 4550 3584 
Q 5097 3584 5394 3201 
Q 5691 2819 5691 2113 
L 5691 0 
L 5113 0 
L 5113 2094 
Q 5113 2597 4934 2840 
Q 4756 3084 4391 3084 
Q 3944 3084 3684 2787 
Q 3425 2491 3425 1978 
L 3425 0 
L 2847 0 
L 2847 2094 
Q 2847 2600 2669 2842 
Q 2491 3084 2119 3084 
Q 1678 3084 1418 2786 
Q 1159 2488 1159 1978 
L 1159 0 
L 581 0 
L 581 3500 
L 1159 3500 
L 1159 2956 
Q 1356 3278 1631 3431 
Q 1906 3584 2284 3584 
Q 2666 3584 2933 3390 
Q 3200 3197 3328 2828 
z
" id="DejaVuSans-6d" transform="scale(0.015625)"/>
      </defs>
      <use xlink:href="#DejaVuSans-72"/>
      <use x="38.863281" xlink:href="#DejaVuSans-65"/>
      <use x="100.386719" xlink:href="#DejaVuSans-63"/>
      <use x="155.367188" xlink:href="#DejaVuSans-6f"/>
      <use x="216.548828" xlink:href="#DejaVuSans-6d"/>
      <use x="313.960938" xlink:href="#DejaVuSans-6d"/>
      <use x="411.373047" xlink:href="#DejaVuSans-65"/>
      <use x="472.896484" xlink:href="#DejaVuSans-6e"/>
      <use x="536.275391" xlink:href="#DejaVuSans-64"/>
      <use x="599.751953" xlink:href="#DejaVuSans-65"/>
      <use x="661.275391" xlink:href="#DejaVuSans-64"/>
      <use x="724.751953" xlink:href="#DejaVuSans-20"/>
      <use x="756.539062" xlink:href="#DejaVuSans-64"/>
      <use x="820.015625" xlink:href="#DejaVuSans-61"/>
      <use x="881.294922" xlink:href="#DejaVuSans-74"/>
      <use x="920.503906" xlink:href="#DejaVuSans-75"/>
      <use x="983.882812" xlink:href="#DejaVuSans-6d"/>
     </g>
    </g>
   </g>
   <g id="line2d_26">
    <path clip-path="url(#p24146b0391)" d="M 69.218182 148.105929 
L 71.985124 146.780638 
L 74.752066 145.993422 
L 77.519008 145.827972 
L 80.28595 146.344244 
L 83.052893 147.572813 
L 85.819835 149.511078 
L 88.586777 152.121777 
L 91.353719 155.334041 
L 94.120661 159.04696 
L 96.887603 163.135404 
L 99.654545 167.457606 
L 102.421488 171.863855 
L 105.18843 176.205556 
L 107.955372 180.343893 
L 110.722314 184.157436 
L 113.489256 187.548125 
L 116.256198 190.44528 
L 119.02314 192.807489 
L 121.790083 194.622392 
L 124.557025 195.9046 
L 127.323967 196.692063 
L 130.090909 197.041338 
L 132.857851 197.022187 
L 135.624793 196.711965 
L 138.391736 196.190179 
L 141.158678 195.533561 
L 143.92562 194.811885 
L 146.692562 194.084717 
L 149.459504 193.399158 
L 152.226446 192.788631 
L 154.993388 192.272639 
L 157.760331 191.857438 
L 160.527273 191.537468 
L 163.294215 191.297386 
L 166.061157 191.114536 
L 168.828099 190.961628 
L 171.595041 190.809463 
L 174.361983 190.629495 
L 177.128926 190.396084 
L 179.895868 190.088309 
L 182.66281 189.691249 
L 185.429752 189.196698 
L 188.196694 188.603315 
L 190.963636 187.916262 
L 193.730579 187.1464 
L 196.497521 186.309166 
L 199.264463 185.423244 
L 202.031405 184.509155 
L 204.798347 183.587892 
L 207.565289 182.679682 
L 210.332231 181.80298 
L 213.099174 180.973722 
L 215.866116 180.204877 
L 218.633058 179.506299 
L 221.4 178.884852 
L 224.166942 178.344774 
L 226.933884 177.888239 
L 229.700826 177.516046 
L 232.467769 177.228398 
L 235.234711 177.025697 
L 238.001653 176.909306 
L 240.768595 176.882231 
L 243.535537 176.949666 
L 246.302479 177.119365 
L 249.069421 177.401778 
L 251.836364 177.809934 
L 254.603306 178.359012 
L 257.370248 179.065568 
L 260.13719 179.946413 
L 262.904132 181.017109 
L 265.671074 182.290107 
L 268.438017 183.772571 
L 271.204959 185.463945 
L 273.971901 187.353389 
L 276.738843 189.417228 
L 279.505785 191.616619 
L 282.272727 193.895667 
L 285.039669 196.180265 
L 287.806612 198.377935 
L 290.573554 200.378954 
L 293.340496 202.058987 
L 296.107438 203.283396 
L 298.87438 203.913256 
L 301.641322 203.812962 
L 304.408264 202.859138 
L 307.175207 200.950338 
L 309.942149 198.016869 
L 312.709091 194.029902 
L 315.476033 189.008954 
L 318.242975 183.026829 
L 321.009917 176.211233 
L 323.77686 168.742475 
L 326.543802 160.847025 
L 329.310744 152.787053 
L 332.077686 144.846543 
L 334.844628 137.314928 
L 337.61157 130.46955 
L 340.378512 124.558422 
L 343.145455 119.784806 
L 345.912397 116.294992 
L 348.679339 114.170345 
L 351.446281 113.424279 
L 354.213223 114.004306 
L 356.980165 115.798797 
L 359.747107 118.647653 
L 362.51405 122.355717 
L 365.280992 126.707596 
L 368.047934 131.482496 
L 370.814876 136.467821 
L 373.581818 141.470534 
" style="fill:none;stroke:#000000;stroke-dasharray:7.4,3.2;stroke-dashoffset:0;stroke-width:2;"/>
   </g>
   <g id="PathCollection_4">
    <g clip-path="url(#p24146b0391)">
     <use style="fill:#ff0000;stroke:#000000;" x="83.052893" xlink:href="#ma3e7aa6bd9" y="129.399309"/>
     <use style="fill:#ff0000;stroke:#000000;" x="96.887603" xlink:href="#ma3e7aa6bd9" y="162.429541"/>
     <use style="fill:#ff0000;stroke:#000000;" x="110.722314" xlink:href="#ma3e7aa6bd9" y="193.170209"/>
     <use style="fill:#ff0000;stroke:#000000;" x="124.557025" xlink:href="#ma3e7aa6bd9" y="199.248575"/>
     <use style="fill:#ff0000;stroke:#000000;" x="138.391736" xlink:href="#ma3e7aa6bd9" y="199.347548"/>
     <use style="fill:#ff0000;stroke:#000000;" x="152.226446" xlink:href="#ma3e7aa6bd9" y="191.611971"/>
     <use style="fill:#ff0000;stroke:#000000;" x="166.061157" xlink:href="#ma3e7aa6bd9" y="193.66847"/>
     <use style="fill:#ff0000;stroke:#000000;" x="179.895868" xlink:href="#ma3e7aa6bd9" y="193.283098"/>
     <use style="fill:#ff0000;stroke:#000000;" x="193.730579" xlink:href="#ma3e7aa6bd9" y="188.924027"/>
     <use style="fill:#ff0000;stroke:#000000;" x="318.242975" xlink:href="#ma3e7aa6bd9" y="199.289596"/>
     <use style="fill:#ff0000;stroke:#000000;" x="332.077686" xlink:href="#ma3e7aa6bd9" y="145.37007"/>
     <use style="fill:#ff0000;stroke:#000000;" x="345.912397" xlink:href="#ma3e7aa6bd9" y="78.407322"/>
     <use style="fill:#ff0000;stroke:#000000;" x="298.87438" xlink:href="#ma3e7aa6bd9" y="210.535717"/>
    </g>
   </g>
  </g>
 </g>
 <defs>
  <clipPath id="p24146b0391">
   <rect height="217.44" width="334.8" x="54" y="34.56"/>
  </clipPath>
 </defs>
</svg>
