<?xml version="1.0" encoding="utf-8" standalone="no"?>
<!DOCTYPE svg PUBLIC "-//W3C//DTD SVG 1.1//EN"
  "http://www.w3.org/Graphics/SVG/1.1/DTD/svg11.dtd">
<svg height="288pt" version="1.1" viewBox="0 0 432 288" width="432pt" xmlns="http://www.w3.org/2000/svg" xmlns:xlink="http://www.w3.org/1999/xlink">
 <metadata>
  <rdf:RDF xmlns:cc="http://creativecommons.org/ns#" xmlns:dc="http://purl.org/dc/elements/1.1/" xmlns:rdf="http://www.w3.org/1999/02/22-rdf-syntax-ns#">
   <cc:Work>
    <dc:type rdf:resource="http://purl.org/dc/dcmitype/StillImage"/>
    <dc:date>2022-08-02T11:36:51.090458</dc:date>
    <dc:format>image/svg+xml</dc:format>
    <dc:creator>
     <cc:Agent>
      <dc:title>Matplotlib v3.4.3, https://matplotlib.org/</dc:title>
     </cc:Agent>
    </dc:creator>
   </cc:Work>
  </rdf:RDF>
 </metadata>
 <defs>
  <style type="text/css">*{stroke-linecap:butt;stroke-linejoin:round;}</style>
 </defs>
 <g id="figure_1">
  <g id="patch_1">
   <path d="M 0 288 
L 432 288 
L 432 0 
L 0 0 
z
" style="fill:none;"/>
  </g>
  <g id="axes_1">
   <g id="patch_2">
    <path d="M 54 252 
L 388.8 252 
L 388.8 34.56 
L 54 34.56 
z
" style="fill:#ffffff;"/>
   </g>
   <g id="PolyCollection_1">
    <defs>
     <path d="M 69.218182 -170.482686 
L 69.218182 -121.50719 
L 71.985124 -125.057283 
L 74.752066 -127.879725 
L 77.519008 -129.797745 
L 80.28595 -130.663655 
L 83.052893 -130.377891 
L 85.819835 -128.91038 
L 88.586777 -126.317795 
L 91.353719 -122.745286 
L 94.120661 -118.406182 
L 96.887603 -113.5477 
L 99.654545 -108.41848 
L 102.421488 -103.247349 
L 105.18843 -98.232973 
L 107.955372 -93.54018 
L 110.722314 -89.299371 
L 113.489256 -85.607055 
L 116.256198 -82.526653 
L 119.02314 -80.089417 
L 121.790083 -78.29571 
L 124.557025 -77.117137 
L 127.323967 -76.499954 
L 130.090909 -76.369937 
L 132.857851 -76.638477 
L 135.624793 -77.209389 
L 138.391736 -77.985729 
L 141.158678 -78.875936 
L 143.92562 -79.798781 
L 146.692562 -80.686837 
L 149.459504 -81.488458 
L 152.226446 -82.168493 
L 154.993388 -82.708095 
L 157.760331 -83.103996 
L 160.527273 -83.367427 
L 163.294215 -83.522614 
L 166.061157 -83.604409 
L 168.828099 -83.654499 
L 171.595041 -83.715674 
L 174.361983 -83.82406 
L 177.128926 -83.99982 
L 179.895868 -84.237642 
L 182.66281 -84.499652 
L 185.429752 -84.715047 
L 188.196694 -84.791445 
L 190.963636 -84.639011 
L 193.730579 -84.198568 
L 196.497521 -83.458293 
L 199.264463 -82.451182 
L 202.031405 -81.239741 
L 204.798347 -79.899042 
L 207.565289 -78.504107 
L 210.332231 -77.12211 
L 213.099174 -75.80799 
L 215.866116 -74.60221 
L 218.633058 -73.529996 
L 221.4 -72.601705 
L 224.166942 -71.814132 
L 226.933884 -71.152526 
L 229.700826 -70.593078 
L 232.467769 -70.105618 
L 235.234711 -69.656279 
L 238.001653 -69.209939 
L 240.768595 -68.732362 
L 243.535537 -68.192009 
L 246.302479 -67.561608 
L 249.069421 -66.819558 
L 251.836364 -65.951245 
L 254.603306 -64.950286 
L 257.370248 -63.819621 
L 260.13719 -62.572323 
L 262.904132 -61.231935 
L 265.671074 -59.832187 
L 268.438017 -58.415984 
L 271.204959 -57.033672 
L 273.971901 -55.740656 
L 276.738843 -54.594547 
L 279.505785 -53.652009 
L 282.272727 -52.965439 
L 285.039669 -52.579513 
L 287.806612 -52.527555 
L 290.573554 -52.827885 
L 293.340496 -53.481478 
L 296.107438 -54.475803 
L 298.87438 -55.805256 
L 301.641322 -57.516023 
L 304.408264 -59.751769 
L 307.175207 -62.743054 
L 309.942149 -66.729944 
L 312.709091 -71.881778 
L 315.476033 -78.259874 
L 318.242975 -85.815678 
L 321.009917 -94.404015 
L 323.77686 -103.800275 
L 326.543802 -113.717504 
L 329.310744 -123.821964 
L 332.077686 -133.746992 
L 334.844628 -143.10674 
L 337.61157 -151.513595 
L 340.378512 -158.603839 
L 343.145455 -164.071988 
L 345.912397 -167.705279 
L 348.679339 -169.404535 
L 351.446281 -169.184657 
L 354.213223 -167.159815 
L 356.980165 -163.522441 
L 359.747107 -158.521497 
L 362.51405 -152.441647 
L 365.280992 -145.583574 
L 368.047934 -138.2459 
L 370.814876 -130.709414 
L 373.581818 -123.224413 
L 373.581818 -189.767606 
L 373.581818 -189.767606 
L 370.814876 -194.536459 
L 368.047934 -198.907975 
L 365.280992 -202.665625 
L 362.51405 -205.596284 
L 359.747107 -207.504255 
L 356.980165 -208.225462 
L 354.213223 -207.640351 
L 351.446281 -205.683654 
L 348.679339 -202.348776 
L 345.912397 -197.684661 
L 343.145455 -191.784823 
L 340.378512 -184.772852 
L 337.61157 -176.793219 
L 334.844628 -168.013148 
L 332.077686 -158.630352 
L 329.310744 -148.875132 
L 326.543802 -139.001017 
L 323.77686 -129.26727 
L 321.009917 -119.920473 
L 318.242975 -111.181302 
L 315.476033 -103.239675 
L 312.709091 -96.259 
L 309.942149 -90.388232 
L 307.175207 -85.777161 
L 304.408264 -82.582695 
L 301.641322 -80.944384 
L 298.87438 -80.920113 
L 296.107438 -82.426193 
L 293.340496 -85.24446 
L 290.573554 -89.084686 
L 287.806612 -93.64441 
L 285.039669 -98.642076 
L 282.272727 -103.831015 
L 279.505785 -109.004703 
L 276.738843 -113.998253 
L 273.971901 -118.687705 
L 271.204959 -122.987549 
L 268.438017 -126.846759 
L 265.671074 -130.243655 
L 262.904132 -133.18006 
L 260.13719 -135.675195 
L 257.370248 -137.759779 
L 254.603306 -139.470644 
L 251.836364 -140.846129 
L 249.069421 -141.922324 
L 246.302479 -142.730184 
L 243.535537 -143.293472 
L 240.768595 -143.627457 
L 238.001653 -143.738358 
L 235.234711 -143.623555 
L 232.467769 -143.272605 
L 229.700826 -142.669127 
L 226.933884 -141.79353 
L 224.166942 -140.626497 
L 221.4 -139.153021 
L 218.633058 -137.366687 
L 215.866116 -135.273825 
L 213.099174 -132.897125 
L 210.332231 -130.278323 
L 207.565289 -127.479586 
L 204.798347 -124.583258 
L 202.031405 -121.689517 
L 199.264463 -118.911192 
L 196.497521 -116.364456 
L 193.730579 -114.154048 
L 190.963636 -112.353594 
L 188.196694 -110.987223 
L 185.429752 -110.023821 
L 182.66281 -109.390716 
L 179.895868 -108.99927 
L 177.128926 -108.767297 
L 174.361983 -108.629809 
L 171.595041 -108.539333 
L 168.828099 -108.460909 
L 166.061157 -108.366089 
L 163.294215 -108.228415 
L 160.527273 -108.021475 
L 157.760331 -107.719699 
L 154.993388 -107.30133 
L 152.226446 -106.752604 
L 149.459504 -106.072009 
L 146.692562 -105.273711 
L 143.92562 -104.389558 
L 141.158678 -103.469466 
L 138.391736 -102.58022 
L 135.624793 -101.802919 
L 132.857851 -101.229255 
L 130.090909 -100.95681 
L 127.323967 -101.083505 
L 124.557025 -101.701248 
L 121.790083 -102.888945 
L 119.02314 -104.70512 
L 116.256198 -107.180701 
L 113.489256 -110.312856 
L 110.722314 -114.061051 
L 107.955372 -118.34659 
L 105.18843 -123.056633 
L 102.421488 -128.053099 
L 99.654545 -133.185958 
L 96.887603 -138.309328 
L 94.120661 -143.297246 
L 91.353719 -148.05406 
L 88.586777 -152.513573 
L 85.819835 -156.624963 
L 83.052893 -160.333371 
L 80.28595 -163.569818 
L 77.519008 -166.257755 
L 74.752066 -168.329504 
L 71.985124 -169.741505 
L 69.218182 -170.482686 
z
" id="ma99812ba43" style="stroke:#add8e6;stroke-opacity:0.2;"/>
    </defs>
    <g clip-path="url(#p0477940e7f)">
     <use style="fill:#add8e6;fill-opacity:0.2;stroke:#add8e6;stroke-opacity:0.2;" x="0" xlink:href="#ma99812ba43" y="288"/>
    </g>
   </g>
   <g id="PathCollection_1">
    <defs>
     <path d="M 0 0.612372 
C 0.162403 0.612372 0.318176 0.547849 0.433013 0.433013 
C 0.547849 0.318176 0.612372 0.162403 0.612372 0 
C 0.612372 -0.162403 0.547849 -0.318176 0.433013 -0.433013 
C 0.318176 -0.547849 0.162403 -0.612372 0 -0.612372 
C -0.162403 -0.612372 -0.318176 -0.547849 -0.433013 -0.433013 
C -0.547849 -0.318176 -0.612372 -0.162403 -0.612372 0 
C -0.612372 0.162403 -0.547849 0.318176 -0.433013 0.433013 
C -0.318176 0.547849 -0.162403 0.612372 0 0.612372 
z
" id="mb3a316368c" style="stroke:#ff0000;stroke-width:8;"/>
    </defs>
    <g clip-path="url(#p0477940e7f)">
     <use style="fill:#ff0000;stroke:#ff0000;stroke-width:8;" x="276.738843" xlink:href="#mb3a316368c" y="228.790309"/>
    </g>
   </g>
   <g id="matplotlib.axis_1">
    <g id="xtick_1">
     <g id="line2d_1">
      <defs>
       <path d="M 0 0 
L 0 3.5 
" id="m29ab707d47" style="stroke:#000000;stroke-width:0.8;"/>
      </defs>
      <g>
       <use style="stroke:#000000;stroke-width:0.8;" x="69.218182" xlink:href="#m29ab707d47" y="252"/>
      </g>
     </g>
     <g id="text_1">
      <!-- 0 -->
      <g transform="translate(66.036932 266.598437)scale(0.1 -0.1)">
       <defs>
        <path d="M 2034 4250 
Q 1547 4250 1301 3770 
Q 1056 3291 1056 2328 
Q 1056 1369 1301 889 
Q 1547 409 2034 409 
Q 2525 409 2770 889 
Q 3016 1369 3016 2328 
Q 3016 3291 2770 3770 
Q 2525 4250 2034 4250 
z
M 2034 4750 
Q 2819 4750 3233 4129 
Q 3647 3509 3647 2328 
Q 3647 1150 3233 529 
Q 2819 -91 2034 -91 
Q 1250 -91 836 529 
Q 422 1150 422 2328 
Q 422 3509 836 4129 
Q 1250 4750 2034 4750 
z
" id="DejaVuSans-30" transform="scale(0.015625)"/>
       </defs>
       <use xlink:href="#DejaVuSans-30"/>
      </g>
     </g>
    </g>
    <g id="xtick_2">
     <g id="line2d_2">
      <g>
       <use style="stroke:#000000;stroke-width:0.8;" x="124.557025" xlink:href="#m29ab707d47" y="252"/>
      </g>
     </g>
     <g id="text_2">
      <!-- 2 -->
      <g transform="translate(121.375775 266.598437)scale(0.1 -0.1)">
       <defs>
        <path d="M 1228 531 
L 3431 531 
L 3431 0 
L 469 0 
L 469 531 
Q 828 903 1448 1529 
Q 2069 2156 2228 2338 
Q 2531 2678 2651 2914 
Q 2772 3150 2772 3378 
Q 2772 3750 2511 3984 
Q 2250 4219 1831 4219 
Q 1534 4219 1204 4116 
Q 875 4013 500 3803 
L 500 4441 
Q 881 4594 1212 4672 
Q 1544 4750 1819 4750 
Q 2544 4750 2975 4387 
Q 3406 4025 3406 3419 
Q 3406 3131 3298 2873 
Q 3191 2616 2906 2266 
Q 2828 2175 2409 1742 
Q 1991 1309 1228 531 
z
" id="DejaVuSans-32" transform="scale(0.015625)"/>
       </defs>
       <use xlink:href="#DejaVuSans-32"/>
      </g>
     </g>
    </g>
    <g id="xtick_3">
     <g id="line2d_3">
      <g>
       <use style="stroke:#000000;stroke-width:0.8;" x="179.895868" xlink:href="#m29ab707d47" y="252"/>
      </g>
     </g>
     <g id="text_3">
      <!-- 4 -->
      <g transform="translate(176.714618 266.598437)scale(0.1 -0.1)">
       <defs>
        <path d="M 2419 4116 
L 825 1625 
L 2419 1625 
L 2419 4116 
z
M 2253 4666 
L 3047 4666 
L 3047 1625 
L 3713 1625 
L 3713 1100 
L 3047 1100 
L 3047 0 
L 2419 0 
L 2419 1100 
L 313 1100 
L 313 1709 
L 2253 4666 
z
" id="DejaVuSans-34" transform="scale(0.015625)"/>
       </defs>
       <use xlink:href="#DejaVuSans-34"/>
      </g>
     </g>
    </g>
    <g id="xtick_4">
     <g id="line2d_4">
      <g>
       <use style="stroke:#000000;stroke-width:0.8;" x="235.234711" xlink:href="#m29ab707d47" y="252"/>
      </g>
     </g>
     <g id="text_4">
      <!-- 6 -->
      <g transform="translate(232.053461 266.598437)scale(0.1 -0.1)">
       <defs>
        <path d="M 2113 2584 
Q 1688 2584 1439 2293 
Q 1191 2003 1191 1497 
Q 1191 994 1439 701 
Q 1688 409 2113 409 
Q 2538 409 2786 701 
Q 3034 994 3034 1497 
Q 3034 2003 2786 2293 
Q 2538 2584 2113 2584 
z
M 3366 4563 
L 3366 3988 
Q 3128 4100 2886 4159 
Q 2644 4219 2406 4219 
Q 1781 4219 1451 3797 
Q 1122 3375 1075 2522 
Q 1259 2794 1537 2939 
Q 1816 3084 2150 3084 
Q 2853 3084 3261 2657 
Q 3669 2231 3669 1497 
Q 3669 778 3244 343 
Q 2819 -91 2113 -91 
Q 1303 -91 875 529 
Q 447 1150 447 2328 
Q 447 3434 972 4092 
Q 1497 4750 2381 4750 
Q 2619 4750 2861 4703 
Q 3103 4656 3366 4563 
z
" id="DejaVuSans-36" transform="scale(0.015625)"/>
       </defs>
       <use xlink:href="#DejaVuSans-36"/>
      </g>
     </g>
    </g>
    <g id="xtick_5">
     <g id="line2d_5">
      <g>
       <use style="stroke:#000000;stroke-width:0.8;" x="290.573554" xlink:href="#m29ab707d47" y="252"/>
      </g>
     </g>
     <g id="text_5">
      <!-- 8 -->
      <g transform="translate(287.392304 266.598437)scale(0.1 -0.1)">
       <defs>
        <path d="M 2034 2216 
Q 1584 2216 1326 1975 
Q 1069 1734 1069 1313 
Q 1069 891 1326 650 
Q 1584 409 2034 409 
Q 2484 409 2743 651 
Q 3003 894 3003 1313 
Q 3003 1734 2745 1975 
Q 2488 2216 2034 2216 
z
M 1403 2484 
Q 997 2584 770 2862 
Q 544 3141 544 3541 
Q 544 4100 942 4425 
Q 1341 4750 2034 4750 
Q 2731 4750 3128 4425 
Q 3525 4100 3525 3541 
Q 3525 3141 3298 2862 
Q 3072 2584 2669 2484 
Q 3125 2378 3379 2068 
Q 3634 1759 3634 1313 
Q 3634 634 3220 271 
Q 2806 -91 2034 -91 
Q 1263 -91 848 271 
Q 434 634 434 1313 
Q 434 1759 690 2068 
Q 947 2378 1403 2484 
z
M 1172 3481 
Q 1172 3119 1398 2916 
Q 1625 2713 2034 2713 
Q 2441 2713 2670 2916 
Q 2900 3119 2900 3481 
Q 2900 3844 2670 4047 
Q 2441 4250 2034 4250 
Q 1625 4250 1398 4047 
Q 1172 3844 1172 3481 
z
" id="DejaVuSans-38" transform="scale(0.015625)"/>
       </defs>
       <use xlink:href="#DejaVuSans-38"/>
      </g>
     </g>
    </g>
    <g id="xtick_6">
     <g id="line2d_6">
      <g>
       <use style="stroke:#000000;stroke-width:0.8;" x="345.912397" xlink:href="#m29ab707d47" y="252"/>
      </g>
     </g>
     <g id="text_6">
      <!-- 10 -->
      <g transform="translate(339.549897 266.598437)scale(0.1 -0.1)">
       <defs>
        <path d="M 794 531 
L 1825 531 
L 1825 4091 
L 703 3866 
L 703 4441 
L 1819 4666 
L 2450 4666 
L 2450 531 
L 3481 531 
L 3481 0 
L 794 0 
L 794 531 
z
" id="DejaVuSans-31" transform="scale(0.015625)"/>
       </defs>
       <use xlink:href="#DejaVuSans-31"/>
       <use x="63.623047" xlink:href="#DejaVuSans-30"/>
      </g>
     </g>
    </g>
    <g id="text_7">
     <!-- x -->
     <g transform="translate(217.84875 281.79625)scale(0.12 -0.12)">
      <defs>
       <path d="M 3513 3500 
L 2247 1797 
L 3578 0 
L 2900 0 
L 1881 1375 
L 863 0 
L 184 0 
L 1544 1831 
L 300 3500 
L 978 3500 
L 1906 2253 
L 2834 3500 
L 3513 3500 
z
" id="DejaVuSans-78" transform="scale(0.015625)"/>
      </defs>
      <use xlink:href="#DejaVuSans-78"/>
     </g>
    </g>
   </g>
   <g id="matplotlib.axis_2">
    <g id="ytick_1">
     <g id="line2d_7">
      <defs>
       <path d="M 0 0 
L -3.5 0 
" id="m2d9a327916" style="stroke:#000000;stroke-width:0.8;"/>
      </defs>
      <g>
       <use style="stroke:#000000;stroke-width:0.8;" x="54" xlink:href="#m2d9a327916" y="252"/>
      </g>
     </g>
     <g id="text_8">
      <!-- 3 -->
      <g transform="translate(40.6375 255.799219)scale(0.1 -0.1)">
       <defs>
        <path d="M 2597 2516 
Q 3050 2419 3304 2112 
Q 3559 1806 3559 1356 
Q 3559 666 3084 287 
Q 2609 -91 1734 -91 
Q 1441 -91 1130 -33 
Q 819 25 488 141 
L 488 750 
Q 750 597 1062 519 
Q 1375 441 1716 441 
Q 2309 441 2620 675 
Q 2931 909 2931 1356 
Q 2931 1769 2642 2001 
Q 2353 2234 1838 2234 
L 1294 2234 
L 1294 2753 
L 1863 2753 
Q 2328 2753 2575 2939 
Q 2822 3125 2822 3475 
Q 2822 3834 2567 4026 
Q 2313 4219 1838 4219 
Q 1578 4219 1281 4162 
Q 984 4106 628 3988 
L 628 4550 
Q 988 4650 1302 4700 
Q 1616 4750 1894 4750 
Q 2613 4750 3031 4423 
Q 3450 4097 3450 3541 
Q 3450 3153 3228 2886 
Q 3006 2619 2597 2516 
z
" id="DejaVuSans-33" transform="scale(0.015625)"/>
       </defs>
       <use xlink:href="#DejaVuSans-33"/>
      </g>
     </g>
    </g>
    <g id="ytick_2">
     <g id="line2d_8">
      <g>
       <use style="stroke:#000000;stroke-width:0.8;" x="54" xlink:href="#m2d9a327916" y="215.76"/>
      </g>
     </g>
     <g id="text_9">
      <!-- 4 -->
      <g transform="translate(40.6375 219.559219)scale(0.1 -0.1)">
       <use xlink:href="#DejaVuSans-34"/>
      </g>
     </g>
    </g>
    <g id="ytick_3">
     <g id="line2d_9">
      <g>
       <use style="stroke:#000000;stroke-width:0.8;" x="54" xlink:href="#m2d9a327916" y="179.52"/>
      </g>
     </g>
     <g id="text_10">
      <!-- 5 -->
      <g transform="translate(40.6375 183.319219)scale(0.1 -0.1)">
       <defs>
        <path d="M 691 4666 
L 3169 4666 
L 3169 4134 
L 1269 4134 
L 1269 2991 
Q 1406 3038 1543 3061 
Q 1681 3084 1819 3084 
Q 2600 3084 3056 2656 
Q 3513 2228 3513 1497 
Q 3513 744 3044 326 
Q 2575 -91 1722 -91 
Q 1428 -91 1123 -41 
Q 819 9 494 109 
L 494 744 
Q 775 591 1075 516 
Q 1375 441 1709 441 
Q 2250 441 2565 725 
Q 2881 1009 2881 1497 
Q 2881 1984 2565 2268 
Q 2250 2553 1709 2553 
Q 1456 2553 1204 2497 
Q 953 2441 691 2322 
L 691 4666 
z
" id="DejaVuSans-35" transform="scale(0.015625)"/>
       </defs>
       <use xlink:href="#DejaVuSans-35"/>
      </g>
     </g>
    </g>
    <g id="ytick_4">
     <g id="line2d_10">
      <g>
       <use style="stroke:#000000;stroke-width:0.8;" x="54" xlink:href="#m2d9a327916" y="143.28"/>
      </g>
     </g>
     <g id="text_11">
      <!-- 6 -->
      <g transform="translate(40.6375 147.079219)scale(0.1 -0.1)">
       <use xlink:href="#DejaVuSans-36"/>
      </g>
     </g>
    </g>
    <g id="ytick_5">
     <g id="line2d_11">
      <g>
       <use style="stroke:#000000;stroke-width:0.8;" x="54" xlink:href="#m2d9a327916" y="107.04"/>
      </g>
     </g>
     <g id="text_12">
      <!-- 7 -->
      <g transform="translate(40.6375 110.839219)scale(0.1 -0.1)">
       <defs>
        <path d="M 525 4666 
L 3525 4666 
L 3525 4397 
L 1831 0 
L 1172 0 
L 2766 4134 
L 525 4134 
L 525 4666 
z
" id="DejaVuSans-37" transform="scale(0.015625)"/>
       </defs>
       <use xlink:href="#DejaVuSans-37"/>
      </g>
     </g>
    </g>
    <g id="ytick_6">
     <g id="line2d_12">
      <g>
       <use style="stroke:#000000;stroke-width:0.8;" x="54" xlink:href="#m2d9a327916" y="70.8"/>
      </g>
     </g>
     <g id="text_13">
      <!-- 8 -->
      <g transform="translate(40.6375 74.599219)scale(0.1 -0.1)">
       <use xlink:href="#DejaVuSans-38"/>
      </g>
     </g>
    </g>
    <g id="ytick_7">
     <g id="line2d_13">
      <g>
       <use style="stroke:#000000;stroke-width:0.8;" x="54" xlink:href="#m2d9a327916" y="34.56"/>
      </g>
     </g>
     <g id="text_14">
      <!-- 9 -->
      <g transform="translate(40.6375 38.359219)scale(0.1 -0.1)">
       <defs>
        <path d="M 703 97 
L 703 672 
Q 941 559 1184 500 
Q 1428 441 1663 441 
Q 2288 441 2617 861 
Q 2947 1281 2994 2138 
Q 2813 1869 2534 1725 
Q 2256 1581 1919 1581 
Q 1219 1581 811 2004 
Q 403 2428 403 3163 
Q 403 3881 828 4315 
Q 1253 4750 1959 4750 
Q 2769 4750 3195 4129 
Q 3622 3509 3622 2328 
Q 3622 1225 3098 567 
Q 2575 -91 1691 -91 
Q 1453 -91 1209 -44 
Q 966 3 703 97 
z
M 1959 2075 
Q 2384 2075 2632 2365 
Q 2881 2656 2881 3163 
Q 2881 3666 2632 3958 
Q 2384 4250 1959 4250 
Q 1534 4250 1286 3958 
Q 1038 3666 1038 3163 
Q 1038 2656 1286 2365 
Q 1534 2075 1959 2075 
z
" id="DejaVuSans-39" transform="scale(0.015625)"/>
       </defs>
       <use xlink:href="#DejaVuSans-39"/>
      </g>
     </g>
    </g>
    <g id="text_15">
     <!-- y -->
     <g transform="translate(34.141875 146.83125)rotate(-90)scale(0.12 -0.12)">
      <defs>
       <path d="M 2059 -325 
Q 1816 -950 1584 -1140 
Q 1353 -1331 966 -1331 
L 506 -1331 
L 506 -850 
L 844 -850 
Q 1081 -850 1212 -737 
Q 1344 -625 1503 -206 
L 1606 56 
L 191 3500 
L 800 3500 
L 1894 763 
L 2988 3500 
L 3597 3500 
L 2059 -325 
z
" id="DejaVuSans-79" transform="scale(0.015625)"/>
      </defs>
      <use xlink:href="#DejaVuSans-79"/>
     </g>
    </g>
   </g>
   <g id="line2d_14">
    <path clip-path="url(#p0477940e7f)" d="M 69.218182 70.8 
L 71.985124 85.083949 
L 74.752066 98.25467 
L 77.519008 110.364828 
L 80.28595 121.465955 
L 83.052893 131.608455 
L 85.819835 140.841599 
L 88.586777 149.213528 
L 91.353719 156.771253 
L 94.120661 163.560654 
L 96.887603 169.62648 
L 99.654545 175.012349 
L 102.421488 179.76075 
L 105.18843 183.913038 
L 107.955372 187.509441 
L 110.722314 190.589055 
L 113.489256 193.189844 
L 116.256198 195.348643 
L 119.02314 197.101155 
L 121.790083 198.481953 
L 124.557025 199.52448 
L 127.323967 200.261047 
L 130.090909 200.722835 
L 132.857851 200.939895 
L 135.624793 200.941145 
L 138.391736 200.754375 
L 141.158678 200.406243 
L 143.92562 199.922276 
L 146.692562 199.326871 
L 149.459504 198.643294 
L 152.226446 197.89368 
L 154.993388 197.099035 
L 157.760331 196.279231 
L 160.527273 195.453014 
L 163.294215 194.637994 
L 166.061157 193.850655 
L 168.828099 193.106347 
L 171.595041 192.419291 
L 174.361983 191.802577 
L 177.128926 191.268164 
L 179.895868 190.82688 
L 182.66281 190.488424 
L 185.429752 190.261362 
L 188.196694 190.153131 
L 190.963636 190.170037 
L 193.730579 190.317255 
L 196.497521 190.598829 
L 199.264463 191.017673 
L 202.031405 191.575569 
L 204.798347 192.273171 
L 207.565289 193.11 
L 210.332231 194.084446 
L 213.099174 195.193771 
L 215.866116 196.434103 
L 218.633058 197.800442 
L 221.4 199.286655 
L 224.166942 200.88548 
L 226.933884 202.588525 
L 229.700826 204.386264 
L 232.467769 206.268045 
L 235.234711 208.22208 
L 238.001653 210.235455 
L 240.768595 212.294122 
L 243.535537 214.382905 
L 246.302479 216.485496 
L 249.069421 218.584455 
L 251.836364 220.661214 
L 254.603306 222.696071 
L 257.370248 224.668198 
L 260.13719 226.555631 
L 262.904132 228.33528 
L 265.671074 229.982921 
L 268.438017 231.4732 
L 271.204959 232.779634 
L 273.971901 233.874607 
L 276.738843 234.729375 
L 279.505785 235.31406 
L 282.272727 235.597656 
L 285.039669 235.548026 
L 287.806612 235.1319 
L 290.573554 234.31488 
L 293.340496 233.061436 
L 296.107438 231.334908 
L 298.87438 229.097505 
L 301.641322 226.310305 
L 304.408264 222.933255 
L 307.175207 218.925173 
L 309.942149 214.243744 
L 312.709091 208.845524 
L 315.476033 202.685938 
L 318.242975 195.71928 
L 321.009917 187.898713 
L 323.77686 179.176271 
L 326.543802 169.502854 
L 329.310744 158.828236 
L 332.077686 147.101055 
L 334.844628 134.268823 
L 337.61157 120.277918 
L 340.378512 105.073589 
L 343.145455 88.599954 
L 345.912397 70.8 
L 348.679339 51.615584 
L 351.446281 30.987432 
L 354.213223 8.855138 
L 355.363895 -1 
" style="fill:none;stroke:#0000ff;stroke-linecap:square;stroke-width:2;"/>
   </g>
   <g id="line2d_15">
    <path clip-path="url(#p0477940e7f)" d="M 69.218182 166.49281 
L 71.985124 162.942717 
L 74.752066 160.120275 
L 77.519008 158.202255 
L 80.28595 157.336345 
L 83.052893 157.622109 
L 85.819835 159.08962 
L 88.586777 161.682205 
L 91.353719 165.254714 
L 94.120661 169.593818 
L 96.887603 174.4523 
L 99.654545 179.58152 
L 102.421488 184.752651 
L 105.18843 189.767027 
L 107.955372 194.45982 
L 110.722314 198.700629 
L 113.489256 202.392945 
L 116.256198 205.473347 
L 119.02314 207.910583 
L 121.790083 209.70429 
L 124.557025 210.882863 
L 127.323967 211.500046 
L 130.090909 211.630063 
L 132.857851 211.361523 
L 135.624793 210.790611 
L 138.391736 210.014271 
L 141.158678 209.124064 
L 143.92562 208.201219 
L 146.692562 207.313163 
L 149.459504 206.511542 
L 152.226446 205.831507 
L 154.993388 205.291905 
L 157.760331 204.896004 
L 160.527273 204.632573 
L 163.294215 204.477386 
L 166.061157 204.395591 
L 168.828099 204.345501 
L 171.595041 204.284326 
L 174.361983 204.17594 
L 177.128926 204.00018 
L 179.895868 203.762358 
L 182.66281 203.500348 
L 185.429752 203.284953 
L 188.196694 203.208555 
L 190.963636 203.360989 
L 193.730579 203.801432 
L 196.497521 204.541707 
L 199.264463 205.548818 
L 202.031405 206.760259 
L 204.798347 208.100958 
L 207.565289 209.495893 
L 210.332231 210.87789 
L 213.099174 212.19201 
L 215.866116 213.39779 
L 218.633058 214.470004 
L 221.4 215.398295 
L 224.166942 216.185868 
L 226.933884 216.847474 
L 229.700826 217.406922 
L 232.467769 217.894382 
L 235.234711 218.343721 
L 238.001653 218.790061 
L 240.768595 219.267638 
L 243.535537 219.807991 
L 246.302479 220.438392 
L 249.069421 221.180442 
L 251.836364 222.048755 
L 254.603306 223.049714 
L 257.370248 224.180379 
L 260.13719 225.427677 
L 262.904132 226.768065 
L 265.671074 228.167813 
L 268.438017 229.584016 
L 271.204959 230.966328 
L 273.971901 232.259344 
L 276.738843 233.405453 
L 279.505785 234.347991 
L 282.272727 235.034561 
L 285.039669 235.420487 
L 287.806612 235.472445 
L 290.573554 235.172115 
L 293.340496 234.518522 
L 296.107438 233.524197 
L 298.87438 232.194744 
L 301.641322 230.483977 
L 304.408264 228.248231 
L 307.175207 225.256946 
L 309.942149 221.270056 
L 312.709091 216.118222 
L 315.476033 209.740126 
L 318.242975 202.184322 
L 321.009917 193.595985 
L 323.77686 184.199725 
L 326.543802 174.282496 
L 329.310744 164.178036 
L 332.077686 154.253008 
L 334.844628 144.89326 
L 337.61157 136.486405 
L 340.378512 129.396161 
L 343.145455 123.928012 
L 345.912397 120.294721 
L 348.679339 118.595465 
L 351.446281 118.815343 
L 354.213223 120.840185 
L 356.980165 124.477559 
L 359.747107 129.478503 
L 362.51405 135.558353 
L 365.280992 142.416426 
L 368.047934 149.7541 
L 370.814876 157.290586 
L 373.581818 164.775587 
" style="fill:none;stroke:#008000;stroke-dasharray:3.7,1.6;stroke-dashoffset:0;"/>
   </g>
   <g id="line2d_16">
    <path clip-path="url(#p0477940e7f)" d="M 69.218182 117.517314 
L 71.985124 118.258495 
L 74.752066 119.670496 
L 77.519008 121.742245 
L 80.28595 124.430182 
L 83.052893 127.666629 
L 85.819835 131.375037 
L 88.586777 135.486427 
L 91.353719 139.94594 
L 94.120661 144.702754 
L 96.887603 149.690672 
L 99.654545 154.814042 
L 102.421488 159.946901 
L 105.18843 164.943367 
L 107.955372 169.65341 
L 110.722314 173.938949 
L 113.489256 177.687144 
L 116.256198 180.819299 
L 119.02314 183.29488 
L 121.790083 185.111055 
L 124.557025 186.298752 
L 127.323967 186.916495 
L 130.090909 187.04319 
L 132.857851 186.770745 
L 135.624793 186.197081 
L 138.391736 185.41978 
L 141.158678 184.530534 
L 143.92562 183.610442 
L 146.692562 182.726289 
L 149.459504 181.927991 
L 152.226446 181.247396 
L 154.993388 180.69867 
L 157.760331 180.280301 
L 160.527273 179.978525 
L 163.294215 179.771585 
L 166.061157 179.633911 
L 168.828099 179.539091 
L 171.595041 179.460667 
L 174.361983 179.370191 
L 177.128926 179.232703 
L 179.895868 179.00073 
L 182.66281 178.609284 
L 185.429752 177.976179 
L 188.196694 177.012777 
L 190.963636 175.646406 
L 193.730579 173.845952 
L 196.497521 171.635544 
L 199.264463 169.088808 
L 202.031405 166.310483 
L 204.798347 163.416742 
L 207.565289 160.520414 
L 210.332231 157.721677 
L 213.099174 155.102875 
L 215.866116 152.726175 
L 218.633058 150.633313 
L 221.4 148.846979 
L 224.166942 147.373503 
L 226.933884 146.20647 
L 229.700826 145.330873 
L 232.467769 144.727395 
L 235.234711 144.376445 
L 238.001653 144.261642 
L 240.768595 144.372543 
L 243.535537 144.706528 
L 246.302479 145.269816 
L 249.069421 146.077676 
L 251.836364 147.153871 
L 254.603306 148.529356 
L 257.370248 150.240221 
L 260.13719 152.324805 
L 262.904132 154.81994 
L 265.671074 157.756345 
L 268.438017 161.153241 
L 271.204959 165.012451 
L 273.971901 169.312295 
L 276.738843 174.001747 
L 279.505785 178.995297 
L 282.272727 184.168985 
L 285.039669 189.357924 
L 287.806612 194.35559 
L 290.573554 198.915314 
L 293.340496 202.75554 
L 296.107438 205.573807 
L 298.87438 207.079887 
L 301.641322 207.055616 
L 304.408264 205.417305 
L 307.175207 202.222839 
L 309.942149 197.611768 
L 312.709091 191.741 
L 315.476033 184.760325 
L 318.242975 176.818698 
L 321.009917 168.079527 
L 323.77686 158.73273 
L 326.543802 148.998983 
L 329.310744 139.124868 
L 332.077686 129.369648 
L 334.844628 119.986852 
L 337.61157 111.206781 
L 340.378512 103.227148 
L 343.145455 96.215177 
L 345.912397 90.315339 
L 348.679339 85.651224 
L 351.446281 82.316346 
L 354.213223 80.359649 
L 356.980165 79.774538 
L 359.747107 80.495745 
L 362.51405 82.403716 
L 365.280992 85.334375 
L 368.047934 89.092025 
L 370.814876 93.463541 
L 373.581818 98.232394 
" style="fill:none;stroke:#008000;stroke-dasharray:3.7,1.6;stroke-dashoffset:0;"/>
   </g>
   <g id="line2d_17">
    <path clip-path="url(#p0477940e7f)" d="M 69.218182 251.995327 
L 71.985124 251.999349 
L 74.752066 251.999941 
L 77.519008 251.999996 
L 80.28595 252 
L 83.052893 252 
L 85.819835 252 
L 88.586777 252 
L 91.353719 252 
L 94.120661 252 
L 96.887603 252 
L 99.654545 251.999999 
L 102.421488 251.999993 
L 105.18843 251.999946 
L 107.955372 251.999673 
L 110.722314 251.998526 
L 113.489256 251.994988 
L 116.256198 251.986865 
L 119.02314 251.9728 
L 121.790083 251.954359 
L 124.557025 251.936363 
L 127.323967 251.924401 
L 130.090909 251.921549 
L 132.857851 251.927098 
L 135.624793 251.937812 
L 138.391736 251.950093 
L 141.158678 251.961414 
L 143.92562 251.97061 
L 146.692562 251.977502 
L 149.459504 251.982395 
L 152.226446 251.985726 
L 154.993388 251.987895 
L 157.760331 251.989213 
L 160.527273 251.989913 
L 163.294215 251.990184 
L 166.061157 251.990205 
L 168.828099 251.990175 
L 171.595041 251.990292 
L 174.361983 251.990689 
L 177.128926 251.991337 
L 179.895868 251.99199 
L 182.66281 251.992205 
L 185.429752 251.991287 
L 188.196694 251.987797 
L 190.963636 251.977871 
L 193.730579 251.950845 
L 196.497521 251.880816 
L 199.264463 251.717938 
L 202.031405 251.39177 
L 204.798347 250.834765 
L 207.565289 250.013434 
L 210.332231 248.945344 
L 213.099174 247.693676 
L 215.866116 246.34718 
L 218.633058 244.997498 
L 221.4 243.721685 
L 224.166942 242.572507 
L 226.933884 241.575838 
L 229.700826 240.73312 
L 232.467769 240.026687 
L 235.234711 239.426071 
L 238.001653 238.893981 
L 240.768595 238.391241 
L 243.535537 237.880473 
L 246.302479 237.328687 
L 249.069421 236.709173 
L 251.836364 236.003114 
L 254.603306 235.201277 
L 257.370248 234.305963 
L 260.13719 233.33313 
L 262.904132 232.314401 
L 265.671074 231.298438 
L 268.438017 230.351104 
L 271.204959 229.553901 
L 273.971901 229.000358 
L 276.738843 228.790309 
L 279.505785 229.022131 
L 282.272727 229.782821 
L 285.039669 231.135108 
L 287.806612 233.099577 
L 290.573554 235.629188 
L 293.340496 238.577538 
L 296.107438 241.679547 
L 298.87438 244.594073 
L 301.641322 247.043141 
L 304.408264 248.939552 
L 307.175207 250.329974 
L 309.942149 251.255482 
L 312.709091 251.755591 
L 315.476033 251.94775 
L 318.242975 251.993679 
L 321.009917 251.999628 
L 323.77686 251.999991 
L 326.543802 252 
L 329.310744 252 
L 332.077686 252 
L 334.844628 252 
L 337.61157 252 
L 340.378512 252 
L 343.145455 252 
L 345.912397 252 
L 348.679339 252 
L 351.446281 252 
L 354.213223 252 
L 356.980165 252 
L 359.747107 251.999997 
L 362.51405 251.999938 
L 365.280992 251.999258 
L 368.047934 251.994628 
L 370.814876 251.974032 
L 373.581818 251.908662 
" style="fill:none;stroke:#bfbf00;stroke-dasharray:7.4,3.2;stroke-dashoffset:0;stroke-width:2;"/>
   </g>
   <g id="patch_3">
    <path d="M 54 252 
L 54 34.56 
" style="fill:none;stroke:#000000;stroke-linecap:square;stroke-linejoin:miter;stroke-width:0.8;"/>
   </g>
   <g id="patch_4">
    <path d="M 388.8 252 
L 388.8 34.56 
" style="fill:none;stroke:#000000;stroke-linecap:square;stroke-linejoin:miter;stroke-width:0.8;"/>
   </g>
   <g id="patch_5">
    <path d="M 54 252 
L 388.8 252 
" style="fill:none;stroke:#000000;stroke-linecap:square;stroke-linejoin:miter;stroke-width:0.8;"/>
   </g>
   <g id="patch_6">
    <path d="M 54 34.56 
L 388.8 34.56 
" style="fill:none;stroke:#000000;stroke-linecap:square;stroke-linejoin:miter;stroke-width:0.8;"/>
   </g>
   <g id="text_16">
    <!-- Method : EI -->
    <g transform="translate(71.985124 244.752)scale(0.12 -0.12)">
     <defs>
      <path d="M 628 4666 
L 1569 4666 
L 2759 1491 
L 3956 4666 
L 4897 4666 
L 4897 0 
L 4281 0 
L 4281 4097 
L 3078 897 
L 2444 897 
L 1241 4097 
L 1241 0 
L 628 0 
L 628 4666 
z
" id="DejaVuSans-4d" transform="scale(0.015625)"/>
      <path d="M 3597 1894 
L 3597 1613 
L 953 1613 
Q 991 1019 1311 708 
Q 1631 397 2203 397 
Q 2534 397 2845 478 
Q 3156 559 3463 722 
L 3463 178 
Q 3153 47 2828 -22 
Q 2503 -91 2169 -91 
Q 1331 -91 842 396 
Q 353 884 353 1716 
Q 353 2575 817 3079 
Q 1281 3584 2069 3584 
Q 2775 3584 3186 3129 
Q 3597 2675 3597 1894 
z
M 3022 2063 
Q 3016 2534 2758 2815 
Q 2500 3097 2075 3097 
Q 1594 3097 1305 2825 
Q 1016 2553 972 2059 
L 3022 2063 
z
" id="DejaVuSans-65" transform="scale(0.015625)"/>
      <path d="M 1172 4494 
L 1172 3500 
L 2356 3500 
L 2356 3053 
L 1172 3053 
L 1172 1153 
Q 1172 725 1289 603 
Q 1406 481 1766 481 
L 2356 481 
L 2356 0 
L 1766 0 
Q 1100 0 847 248 
Q 594 497 594 1153 
L 594 3053 
L 172 3053 
L 172 3500 
L 594 3500 
L 594 4494 
L 1172 4494 
z
" id="DejaVuSans-74" transform="scale(0.015625)"/>
      <path d="M 3513 2113 
L 3513 0 
L 2938 0 
L 2938 2094 
Q 2938 2591 2744 2837 
Q 2550 3084 2163 3084 
Q 1697 3084 1428 2787 
Q 1159 2491 1159 1978 
L 1159 0 
L 581 0 
L 581 4863 
L 1159 4863 
L 1159 2956 
Q 1366 3272 1645 3428 
Q 1925 3584 2291 3584 
Q 2894 3584 3203 3211 
Q 3513 2838 3513 2113 
z
" id="DejaVuSans-68" transform="scale(0.015625)"/>
      <path d="M 1959 3097 
Q 1497 3097 1228 2736 
Q 959 2375 959 1747 
Q 959 1119 1226 758 
Q 1494 397 1959 397 
Q 2419 397 2687 759 
Q 2956 1122 2956 1747 
Q 2956 2369 2687 2733 
Q 2419 3097 1959 3097 
z
M 1959 3584 
Q 2709 3584 3137 3096 
Q 3566 2609 3566 1747 
Q 3566 888 3137 398 
Q 2709 -91 1959 -91 
Q 1206 -91 779 398 
Q 353 888 353 1747 
Q 353 2609 779 3096 
Q 1206 3584 1959 3584 
z
" id="DejaVuSans-6f" transform="scale(0.015625)"/>
      <path d="M 2906 2969 
L 2906 4863 
L 3481 4863 
L 3481 0 
L 2906 0 
L 2906 525 
Q 2725 213 2448 61 
Q 2172 -91 1784 -91 
Q 1150 -91 751 415 
Q 353 922 353 1747 
Q 353 2572 751 3078 
Q 1150 3584 1784 3584 
Q 2172 3584 2448 3432 
Q 2725 3281 2906 2969 
z
M 947 1747 
Q 947 1113 1208 752 
Q 1469 391 1925 391 
Q 2381 391 2643 752 
Q 2906 1113 2906 1747 
Q 2906 2381 2643 2742 
Q 2381 3103 1925 3103 
Q 1469 3103 1208 2742 
Q 947 2381 947 1747 
z
" id="DejaVuSans-64" transform="scale(0.015625)"/>
      <path id="DejaVuSans-20" transform="scale(0.015625)"/>
      <path d="M 750 794 
L 1409 794 
L 1409 0 
L 750 0 
L 750 794 
z
M 750 3309 
L 1409 3309 
L 1409 2516 
L 750 2516 
L 750 3309 
z
" id="DejaVuSans-3a" transform="scale(0.015625)"/>
      <path d="M 628 4666 
L 3578 4666 
L 3578 4134 
L 1259 4134 
L 1259 2753 
L 3481 2753 
L 3481 2222 
L 1259 2222 
L 1259 531 
L 3634 531 
L 3634 0 
L 628 0 
L 628 4666 
z
" id="DejaVuSans-45" transform="scale(0.015625)"/>
      <path d="M 628 4666 
L 1259 4666 
L 1259 0 
L 628 0 
L 628 4666 
z
" id="DejaVuSans-49" transform="scale(0.015625)"/>
     </defs>
     <use xlink:href="#DejaVuSans-4d"/>
     <use x="86.279297" xlink:href="#DejaVuSans-65"/>
     <use x="147.802734" xlink:href="#DejaVuSans-74"/>
     <use x="187.011719" xlink:href="#DejaVuSans-68"/>
     <use x="250.390625" xlink:href="#DejaVuSans-6f"/>
     <use x="311.572266" xlink:href="#DejaVuSans-64"/>
     <use x="375.048828" xlink:href="#DejaVuSans-20"/>
     <use x="406.835938" xlink:href="#DejaVuSans-3a"/>
     <use x="440.527344" xlink:href="#DejaVuSans-20"/>
     <use x="472.314453" xlink:href="#DejaVuSans-45"/>
     <use x="535.498047" xlink:href="#DejaVuSans-49"/>
    </g>
   </g>
   <g id="text_17">
    <!-- Iter=2 -->
    <g transform="translate(71.985124 226.632)scale(0.12 -0.12)">
     <defs>
      <path d="M 2631 2963 
Q 2534 3019 2420 3045 
Q 2306 3072 2169 3072 
Q 1681 3072 1420 2755 
Q 1159 2438 1159 1844 
L 1159 0 
L 581 0 
L 581 3500 
L 1159 3500 
L 1159 2956 
Q 1341 3275 1631 3429 
Q 1922 3584 2338 3584 
Q 2397 3584 2469 3576 
Q 2541 3569 2628 3553 
L 2631 2963 
z
" id="DejaVuSans-72" transform="scale(0.015625)"/>
      <path d="M 678 2906 
L 4684 2906 
L 4684 2381 
L 678 2381 
L 678 2906 
z
M 678 1631 
L 4684 1631 
L 4684 1100 
L 678 1100 
L 678 1631 
z
" id="DejaVuSans-3d" transform="scale(0.015625)"/>
     </defs>
     <use xlink:href="#DejaVuSans-49"/>
     <use x="29.492188" xlink:href="#DejaVuSans-74"/>
     <use x="68.701172" xlink:href="#DejaVuSans-65"/>
     <use x="130.224609" xlink:href="#DejaVuSans-72"/>
     <use x="171.337891" xlink:href="#DejaVuSans-3d"/>
     <use x="255.126953" xlink:href="#DejaVuSans-32"/>
    </g>
   </g>
   <g id="legend_1">
    <g id="patch_7">
     <path d="M 144.327812 140.235625 
L 298.472188 140.235625 
Q 300.672188 140.235625 300.672188 138.035625 
L 300.672188 42.26 
Q 300.672188 40.06 298.472188 40.06 
L 144.327812 40.06 
Q 142.127813 40.06 142.127813 42.26 
L 142.127813 138.035625 
Q 142.127813 140.235625 144.327812 140.235625 
z
" style="fill:#ffffff;opacity:0.8;stroke:#cccccc;stroke-linejoin:miter;"/>
    </g>
    <g id="line2d_18">
     <path d="M 146.527813 48.968281 
L 168.527813 48.968281 
" style="fill:none;stroke:#0000ff;stroke-linecap:square;stroke-width:2;"/>
    </g>
    <g id="line2d_19"/>
    <g id="text_18">
     <!-- ture function -->
     <g transform="translate(177.327813 52.818281)scale(0.11 -0.11)">
      <defs>
       <path d="M 544 1381 
L 544 3500 
L 1119 3500 
L 1119 1403 
Q 1119 906 1312 657 
Q 1506 409 1894 409 
Q 2359 409 2629 706 
Q 2900 1003 2900 1516 
L 2900 3500 
L 3475 3500 
L 3475 0 
L 2900 0 
L 2900 538 
Q 2691 219 2414 64 
Q 2138 -91 1772 -91 
Q 1169 -91 856 284 
Q 544 659 544 1381 
z
M 1991 3584 
L 1991 3584 
z
" id="DejaVuSans-75" transform="scale(0.015625)"/>
       <path d="M 2375 4863 
L 2375 4384 
L 1825 4384 
Q 1516 4384 1395 4259 
Q 1275 4134 1275 3809 
L 1275 3500 
L 2222 3500 
L 2222 3053 
L 1275 3053 
L 1275 0 
L 697 0 
L 697 3053 
L 147 3053 
L 147 3500 
L 697 3500 
L 697 3744 
Q 697 4328 969 4595 
Q 1241 4863 1831 4863 
L 2375 4863 
z
" id="DejaVuSans-66" transform="scale(0.015625)"/>
       <path d="M 3513 2113 
L 3513 0 
L 2938 0 
L 2938 2094 
Q 2938 2591 2744 2837 
Q 2550 3084 2163 3084 
Q 1697 3084 1428 2787 
Q 1159 2491 1159 1978 
L 1159 0 
L 581 0 
L 581 3500 
L 1159 3500 
L 1159 2956 
Q 1366 3272 1645 3428 
Q 1925 3584 2291 3584 
Q 2894 3584 3203 3211 
Q 3513 2838 3513 2113 
z
" id="DejaVuSans-6e" transform="scale(0.015625)"/>
       <path d="M 3122 3366 
L 3122 2828 
Q 2878 2963 2633 3030 
Q 2388 3097 2138 3097 
Q 1578 3097 1268 2742 
Q 959 2388 959 1747 
Q 959 1106 1268 751 
Q 1578 397 2138 397 
Q 2388 397 2633 464 
Q 2878 531 3122 666 
L 3122 134 
Q 2881 22 2623 -34 
Q 2366 -91 2075 -91 
Q 1284 -91 818 406 
Q 353 903 353 1747 
Q 353 2603 823 3093 
Q 1294 3584 2113 3584 
Q 2378 3584 2631 3529 
Q 2884 3475 3122 3366 
z
" id="DejaVuSans-63" transform="scale(0.015625)"/>
       <path d="M 603 3500 
L 1178 3500 
L 1178 0 
L 603 0 
L 603 3500 
z
M 603 4863 
L 1178 4863 
L 1178 4134 
L 603 4134 
L 603 4863 
z
" id="DejaVuSans-69" transform="scale(0.015625)"/>
      </defs>
      <use xlink:href="#DejaVuSans-74"/>
      <use x="39.208984" xlink:href="#DejaVuSans-75"/>
      <use x="102.587891" xlink:href="#DejaVuSans-72"/>
      <use x="141.451172" xlink:href="#DejaVuSans-65"/>
      <use x="202.974609" xlink:href="#DejaVuSans-20"/>
      <use x="234.761719" xlink:href="#DejaVuSans-66"/>
      <use x="269.966797" xlink:href="#DejaVuSans-75"/>
      <use x="333.345703" xlink:href="#DejaVuSans-6e"/>
      <use x="396.724609" xlink:href="#DejaVuSans-63"/>
      <use x="451.705078" xlink:href="#DejaVuSans-74"/>
      <use x="490.914062" xlink:href="#DejaVuSans-69"/>
      <use x="518.697266" xlink:href="#DejaVuSans-6f"/>
      <use x="579.878906" xlink:href="#DejaVuSans-6e"/>
     </g>
    </g>
    <g id="line2d_20">
     <path d="M 146.527813 65.114219 
L 168.527813 65.114219 
" style="fill:none;stroke:#000000;stroke-dasharray:7.4,3.2;stroke-dashoffset:0;stroke-width:2;"/>
    </g>
    <g id="line2d_21"/>
    <g id="text_19">
     <!-- predicted function -->
     <g transform="translate(177.327813 68.964219)scale(0.11 -0.11)">
      <defs>
       <path d="M 1159 525 
L 1159 -1331 
L 581 -1331 
L 581 3500 
L 1159 3500 
L 1159 2969 
Q 1341 3281 1617 3432 
Q 1894 3584 2278 3584 
Q 2916 3584 3314 3078 
Q 3713 2572 3713 1747 
Q 3713 922 3314 415 
Q 2916 -91 2278 -91 
Q 1894 -91 1617 61 
Q 1341 213 1159 525 
z
M 3116 1747 
Q 3116 2381 2855 2742 
Q 2594 3103 2138 3103 
Q 1681 3103 1420 2742 
Q 1159 2381 1159 1747 
Q 1159 1113 1420 752 
Q 1681 391 2138 391 
Q 2594 391 2855 752 
Q 3116 1113 3116 1747 
z
" id="DejaVuSans-70" transform="scale(0.015625)"/>
      </defs>
      <use xlink:href="#DejaVuSans-70"/>
      <use x="63.476562" xlink:href="#DejaVuSans-72"/>
      <use x="102.339844" xlink:href="#DejaVuSans-65"/>
      <use x="163.863281" xlink:href="#DejaVuSans-64"/>
      <use x="227.339844" xlink:href="#DejaVuSans-69"/>
      <use x="255.123047" xlink:href="#DejaVuSans-63"/>
      <use x="310.103516" xlink:href="#DejaVuSans-74"/>
      <use x="349.3125" xlink:href="#DejaVuSans-65"/>
      <use x="410.835938" xlink:href="#DejaVuSans-64"/>
      <use x="474.3125" xlink:href="#DejaVuSans-20"/>
      <use x="506.099609" xlink:href="#DejaVuSans-66"/>
      <use x="541.304688" xlink:href="#DejaVuSans-75"/>
      <use x="604.683594" xlink:href="#DejaVuSans-6e"/>
      <use x="668.0625" xlink:href="#DejaVuSans-63"/>
      <use x="723.042969" xlink:href="#DejaVuSans-74"/>
      <use x="762.251953" xlink:href="#DejaVuSans-69"/>
      <use x="790.035156" xlink:href="#DejaVuSans-6f"/>
      <use x="851.216797" xlink:href="#DejaVuSans-6e"/>
     </g>
    </g>
    <g id="line2d_22">
     <path d="M 146.527813 81.260156 
L 168.527813 81.260156 
" style="fill:none;stroke:#008000;stroke-dasharray:3.7,1.6;stroke-dashoffset:0;"/>
    </g>
    <g id="line2d_23"/>
    <g id="text_20">
     <!--  ± Sn(x) -->
     <g transform="translate(177.327813 85.110156)scale(0.11 -0.11)">
      <defs>
       <path d="M 2944 4013 
L 2944 2803 
L 4684 2803 
L 4684 2272 
L 2944 2272 
L 2944 1063 
L 2419 1063 
L 2419 2272 
L 678 2272 
L 678 2803 
L 2419 2803 
L 2419 4013 
L 2944 4013 
z
M 678 531 
L 4684 531 
L 4684 0 
L 678 0 
L 678 531 
z
" id="DejaVuSans-b1" transform="scale(0.015625)"/>
       <path d="M 3425 4513 
L 3425 3897 
Q 3066 4069 2747 4153 
Q 2428 4238 2131 4238 
Q 1616 4238 1336 4038 
Q 1056 3838 1056 3469 
Q 1056 3159 1242 3001 
Q 1428 2844 1947 2747 
L 2328 2669 
Q 3034 2534 3370 2195 
Q 3706 1856 3706 1288 
Q 3706 609 3251 259 
Q 2797 -91 1919 -91 
Q 1588 -91 1214 -16 
Q 841 59 441 206 
L 441 856 
Q 825 641 1194 531 
Q 1563 422 1919 422 
Q 2459 422 2753 634 
Q 3047 847 3047 1241 
Q 3047 1584 2836 1778 
Q 2625 1972 2144 2069 
L 1759 2144 
Q 1053 2284 737 2584 
Q 422 2884 422 3419 
Q 422 4038 858 4394 
Q 1294 4750 2059 4750 
Q 2388 4750 2728 4690 
Q 3069 4631 3425 4513 
z
" id="DejaVuSans-53" transform="scale(0.015625)"/>
       <path d="M 1984 4856 
Q 1566 4138 1362 3434 
Q 1159 2731 1159 2009 
Q 1159 1288 1364 580 
Q 1569 -128 1984 -844 
L 1484 -844 
Q 1016 -109 783 600 
Q 550 1309 550 2009 
Q 550 2706 781 3412 
Q 1013 4119 1484 4856 
L 1984 4856 
z
" id="DejaVuSans-28" transform="scale(0.015625)"/>
       <path d="M 513 4856 
L 1013 4856 
Q 1481 4119 1714 3412 
Q 1947 2706 1947 2009 
Q 1947 1309 1714 600 
Q 1481 -109 1013 -844 
L 513 -844 
Q 928 -128 1133 580 
Q 1338 1288 1338 2009 
Q 1338 2731 1133 3434 
Q 928 4138 513 4856 
z
" id="DejaVuSans-29" transform="scale(0.015625)"/>
      </defs>
      <use xlink:href="#DejaVuSans-20"/>
      <use x="31.787109" xlink:href="#DejaVuSans-b1"/>
      <use x="115.576172" xlink:href="#DejaVuSans-20"/>
      <use x="147.363281" xlink:href="#DejaVuSans-53"/>
      <use x="210.839844" xlink:href="#DejaVuSans-6e"/>
      <use x="274.21875" xlink:href="#DejaVuSans-28"/>
      <use x="313.232422" xlink:href="#DejaVuSans-78"/>
      <use x="372.412109" xlink:href="#DejaVuSans-29"/>
     </g>
    </g>
    <g id="line2d_24">
     <path d="M 146.527813 97.406094 
L 168.527813 97.406094 
" style="fill:none;stroke:#bfbf00;stroke-dasharray:7.4,3.2;stroke-dashoffset:0;stroke-width:2;"/>
    </g>
    <g id="line2d_25"/>
    <g id="text_21">
     <!-- EI(x) -->
     <g transform="translate(177.327813 101.256094)scale(0.11 -0.11)">
      <use xlink:href="#DejaVuSans-45"/>
      <use x="63.183594" xlink:href="#DejaVuSans-49"/>
      <use x="92.675781" xlink:href="#DejaVuSans-28"/>
      <use x="131.689453" xlink:href="#DejaVuSans-78"/>
      <use x="190.869141" xlink:href="#DejaVuSans-29"/>
     </g>
    </g>
    <g id="PathCollection_2">
     <defs>
      <path d="M 0 3.535534 
C 0.937635 3.535534 1.836992 3.163008 2.5 2.5 
C 3.163008 1.836992 3.535534 0.937635 3.535534 0 
C 3.535534 -0.937635 3.163008 -1.836992 2.5 -2.5 
C 1.836992 -3.163008 0.937635 -3.535534 0 -3.535534 
C -0.937635 -3.535534 -1.836992 -3.163008 -2.5 -2.5 
C -3.163008 -1.836992 -3.535534 -0.937635 -3.535534 0 
C -3.535534 0.937635 -3.163008 1.836992 -2.5 2.5 
C -1.836992 3.163008 -0.937635 3.535534 0 3.535534 
z
" id="mcc881a74fe" style="stroke:#000000;"/>
     </defs>
     <g>
      <use style="fill:#ff0000;stroke:#000000;" x="157.527813" xlink:href="#mcc881a74fe" y="114.514531"/>
     </g>
    </g>
    <g id="text_22">
     <!-- training data -->
     <g transform="translate(177.327813 117.402031)scale(0.11 -0.11)">
      <defs>
       <path d="M 2194 1759 
Q 1497 1759 1228 1600 
Q 959 1441 959 1056 
Q 959 750 1161 570 
Q 1363 391 1709 391 
Q 2188 391 2477 730 
Q 2766 1069 2766 1631 
L 2766 1759 
L 2194 1759 
z
M 3341 1997 
L 3341 0 
L 2766 0 
L 2766 531 
Q 2569 213 2275 61 
Q 1981 -91 1556 -91 
Q 1019 -91 701 211 
Q 384 513 384 1019 
Q 384 1609 779 1909 
Q 1175 2209 1959 2209 
L 2766 2209 
L 2766 2266 
Q 2766 2663 2505 2880 
Q 2244 3097 1772 3097 
Q 1472 3097 1187 3025 
Q 903 2953 641 2809 
L 641 3341 
Q 956 3463 1253 3523 
Q 1550 3584 1831 3584 
Q 2591 3584 2966 3190 
Q 3341 2797 3341 1997 
z
" id="DejaVuSans-61" transform="scale(0.015625)"/>
       <path d="M 2906 1791 
Q 2906 2416 2648 2759 
Q 2391 3103 1925 3103 
Q 1463 3103 1205 2759 
Q 947 2416 947 1791 
Q 947 1169 1205 825 
Q 1463 481 1925 481 
Q 2391 481 2648 825 
Q 2906 1169 2906 1791 
z
M 3481 434 
Q 3481 -459 3084 -895 
Q 2688 -1331 1869 -1331 
Q 1566 -1331 1297 -1286 
Q 1028 -1241 775 -1147 
L 775 -588 
Q 1028 -725 1275 -790 
Q 1522 -856 1778 -856 
Q 2344 -856 2625 -561 
Q 2906 -266 2906 331 
L 2906 616 
Q 2728 306 2450 153 
Q 2172 0 1784 0 
Q 1141 0 747 490 
Q 353 981 353 1791 
Q 353 2603 747 3093 
Q 1141 3584 1784 3584 
Q 2172 3584 2450 3431 
Q 2728 3278 2906 2969 
L 2906 3500 
L 3481 3500 
L 3481 434 
z
" id="DejaVuSans-67" transform="scale(0.015625)"/>
      </defs>
      <use xlink:href="#DejaVuSans-74"/>
      <use x="39.208984" xlink:href="#DejaVuSans-72"/>
      <use x="80.322266" xlink:href="#DejaVuSans-61"/>
      <use x="141.601562" xlink:href="#DejaVuSans-69"/>
      <use x="169.384766" xlink:href="#DejaVuSans-6e"/>
      <use x="232.763672" xlink:href="#DejaVuSans-69"/>
      <use x="260.546875" xlink:href="#DejaVuSans-6e"/>
      <use x="323.925781" xlink:href="#DejaVuSans-67"/>
      <use x="387.402344" xlink:href="#DejaVuSans-20"/>
      <use x="419.189453" xlink:href="#DejaVuSans-64"/>
      <use x="482.666016" xlink:href="#DejaVuSans-61"/>
      <use x="543.945312" xlink:href="#DejaVuSans-74"/>
      <use x="583.154297" xlink:href="#DejaVuSans-61"/>
     </g>
    </g>
    <g id="PathCollection_3">
     <g>
      <use style="fill:#ff0000;stroke:#ff0000;stroke-width:8;" x="157.527813" xlink:href="#mb3a316368c" y="130.660469"/>
     </g>
    </g>
    <g id="text_23">
     <!-- recommended datum -->
     <g transform="translate(177.327813 133.547969)scale(0.11 -0.11)">
      <defs>
       <path d="M 3328 2828 
Q 3544 3216 3844 3400 
Q 4144 3584 4550 3584 
Q 5097 3584 5394 3201 
Q 5691 2819 5691 2113 
L 5691 0 
L 5113 0 
L 5113 2094 
Q 5113 2597 4934 2840 
Q 4756 3084 4391 3084 
Q 3944 3084 3684 2787 
Q 3425 2491 3425 1978 
L 3425 0 
L 2847 0 
L 2847 2094 
Q 2847 2600 2669 2842 
Q 2491 3084 2119 3084 
Q 1678 3084 1418 2786 
Q 1159 2488 1159 1978 
L 1159 0 
L 581 0 
L 581 3500 
L 1159 3500 
L 1159 2956 
Q 1356 3278 1631 3431 
Q 1906 3584 2284 3584 
Q 2666 3584 2933 3390 
Q 3200 3197 3328 2828 
z
" id="DejaVuSans-6d" transform="scale(0.015625)"/>
      </defs>
      <use xlink:href="#DejaVuSans-72"/>
      <use x="38.863281" xlink:href="#DejaVuSans-65"/>
      <use x="100.386719" xlink:href="#DejaVuSans-63"/>
      <use x="155.367188" xlink:href="#DejaVuSans-6f"/>
      <use x="216.548828" xlink:href="#DejaVuSans-6d"/>
      <use x="313.960938" xlink:href="#DejaVuSans-6d"/>
      <use x="411.373047" xlink:href="#DejaVuSans-65"/>
      <use x="472.896484" xlink:href="#DejaVuSans-6e"/>
      <use x="536.275391" xlink:href="#DejaVuSans-64"/>
      <use x="599.751953" xlink:href="#DejaVuSans-65"/>
      <use x="661.275391" xlink:href="#DejaVuSans-64"/>
      <use x="724.751953" xlink:href="#DejaVuSans-20"/>
      <use x="756.539062" xlink:href="#DejaVuSans-64"/>
      <use x="820.015625" xlink:href="#DejaVuSans-61"/>
      <use x="881.294922" xlink:href="#DejaVuSans-74"/>
      <use x="920.503906" xlink:href="#DejaVuSans-75"/>
      <use x="983.882812" xlink:href="#DejaVuSans-6d"/>
     </g>
    </g>
   </g>
   <g id="line2d_26">
    <path clip-path="url(#p0477940e7f)" d="M 69.218182 142.005062 
L 71.985124 140.600606 
L 74.752066 139.895385 
L 77.519008 139.97225 
L 80.28595 140.883263 
L 83.052893 142.644369 
L 85.819835 145.232328 
L 88.586777 148.584316 
L 91.353719 152.600327 
L 94.120661 157.148286 
L 96.887603 162.071486 
L 99.654545 167.197781 
L 102.421488 172.349776 
L 105.18843 177.355197 
L 107.955372 182.056615 
L 110.722314 186.319789 
L 113.489256 190.040045 
L 116.256198 193.146323 
L 119.02314 195.602732 
L 121.790083 197.407672 
L 124.557025 198.590808 
L 127.323967 199.20827 
L 130.090909 199.336626 
L 132.857851 199.066134 
L 135.624793 198.493846 
L 138.391736 197.717026 
L 141.158678 196.827299 
L 143.92562 195.90583 
L 146.692562 195.019726 
L 149.459504 194.219766 
L 152.226446 193.539451 
L 154.993388 192.995287 
L 157.760331 192.588153 
L 160.527273 192.305549 
L 163.294215 192.124486 
L 166.061157 192.014751 
L 168.828099 191.942296 
L 171.595041 191.872497 
L 174.361983 191.773065 
L 177.128926 191.616442 
L 179.895868 191.381544 
L 182.66281 191.054816 
L 185.429752 190.630566 
L 188.196694 190.110666 
L 190.963636 189.503697 
L 193.730579 188.823692 
L 196.497521 188.088625 
L 199.264463 187.318813 
L 202.031405 186.535371 
L 204.798347 185.75885 
L 207.565289 185.008153 
L 210.332231 184.299783 
L 213.099174 183.647442 
L 215.866116 183.061982 
L 218.633058 182.551658 
L 221.4 182.122637 
L 224.166942 181.779685 
L 226.933884 181.526972 
L 229.700826 181.368898 
L 232.467769 181.310889 
L 235.234711 181.360083 
L 238.001653 181.525851 
L 240.768595 181.820091 
L 243.535537 182.25726 
L 246.302479 182.854104 
L 249.069421 183.629059 
L 251.836364 184.601313 
L 254.603306 185.789535 
L 257.370248 187.2103 
L 260.13719 188.876241 
L 262.904132 190.794003 
L 265.671074 192.962079 
L 268.438017 195.368628 
L 271.204959 197.989389 
L 273.971901 200.78582 
L 276.738843 203.7036 
L 279.505785 206.671644 
L 282.272727 209.601773 
L 285.039669 212.389205 
L 287.806612 214.914017 
L 290.573554 217.043715 
L 293.340496 218.637031 
L 296.107438 219.549002 
L 298.87438 219.637316 
L 301.641322 218.769796 
L 304.408264 216.832768 
L 307.175207 213.739892 
L 309.942149 209.440912 
L 312.709091 203.929611 
L 315.476033 197.250225 
L 318.242975 189.50151 
L 321.009917 180.837756 
L 323.77686 171.466228 
L 326.543802 161.640739 
L 329.310744 151.651452 
L 332.077686 141.811328 
L 334.844628 132.440056 
L 337.61157 123.846593 
L 340.378512 116.311654 
L 343.145455 110.071594 
L 345.912397 105.30503 
L 348.679339 102.123345 
L 351.446281 100.565844 
L 354.213223 100.599917 
L 356.980165 102.126049 
L 359.747107 104.987124 
L 362.51405 108.981035 
L 365.280992 113.875401 
L 368.047934 119.423063 
L 370.814876 125.377064 
L 373.581818 131.50399 
" style="fill:none;stroke:#000000;stroke-dasharray:7.4,3.2;stroke-dashoffset:0;stroke-width:2;"/>
   </g>
   <g id="PathCollection_4">
    <g clip-path="url(#p0477940e7f)">
     <use style="fill:#ff0000;stroke:#000000;" x="83.052893" xlink:href="#mcc881a74fe" y="129.399309"/>
     <use style="fill:#ff0000;stroke:#000000;" x="96.887603" xlink:href="#mcc881a74fe" y="162.429541"/>
     <use style="fill:#ff0000;stroke:#000000;" x="110.722314" xlink:href="#mcc881a74fe" y="193.170209"/>
     <use style="fill:#ff0000;stroke:#000000;" x="124.557025" xlink:href="#mcc881a74fe" y="199.248575"/>
     <use style="fill:#ff0000;stroke:#000000;" x="138.391736" xlink:href="#mcc881a74fe" y="199.347548"/>
     <use style="fill:#ff0000;stroke:#000000;" x="152.226446" xlink:href="#mcc881a74fe" y="191.611971"/>
     <use style="fill:#ff0000;stroke:#000000;" x="166.061157" xlink:href="#mcc881a74fe" y="193.66847"/>
     <use style="fill:#ff0000;stroke:#000000;" x="179.895868" xlink:href="#mcc881a74fe" y="193.283098"/>
     <use style="fill:#ff0000;stroke:#000000;" x="193.730579" xlink:href="#mcc881a74fe" y="188.924027"/>
     <use style="fill:#ff0000;stroke:#000000;" x="318.242975" xlink:href="#mcc881a74fe" y="199.289596"/>
     <use style="fill:#ff0000;stroke:#000000;" x="332.077686" xlink:href="#mcc881a74fe" y="145.37007"/>
     <use style="fill:#ff0000;stroke:#000000;" x="345.912397" xlink:href="#mcc881a74fe" y="78.407322"/>
     <use style="fill:#ff0000;stroke:#000000;" x="301.641322" xlink:href="#mcc881a74fe" y="209.239805"/>
     <use style="fill:#ff0000;stroke:#000000;" x="298.87438" xlink:href="#mcc881a74fe" y="234.398997"/>
    </g>
   </g>
  </g>
 </g>
 <defs>
  <clipPath id="p0477940e7f">
   <rect height="217.44" width="334.8" x="54" y="34.56"/>
  </clipPath>
 </defs>
</svg>
