<?xml version="1.0" encoding="utf-8" standalone="no"?>
<!DOCTYPE svg PUBLIC "-//W3C//DTD SVG 1.1//EN"
  "http://www.w3.org/Graphics/SVG/1.1/DTD/svg11.dtd">
<svg height="288pt" version="1.1" viewBox="0 0 432 288" width="432pt" xmlns="http://www.w3.org/2000/svg" xmlns:xlink="http://www.w3.org/1999/xlink">
 <metadata>
  <rdf:RDF xmlns:cc="http://creativecommons.org/ns#" xmlns:dc="http://purl.org/dc/elements/1.1/" xmlns:rdf="http://www.w3.org/1999/02/22-rdf-syntax-ns#">
   <cc:Work>
    <dc:type rdf:resource="http://purl.org/dc/dcmitype/StillImage"/>
    <dc:date>2022-08-02T11:36:53.448106</dc:date>
    <dc:format>image/svg+xml</dc:format>
    <dc:creator>
     <cc:Agent>
      <dc:title>Matplotlib v3.4.3, https://matplotlib.org/</dc:title>
     </cc:Agent>
    </dc:creator>
   </cc:Work>
  </rdf:RDF>
 </metadata>
 <defs>
  <style type="text/css">*{stroke-linecap:butt;stroke-linejoin:round;}</style>
 </defs>
 <g id="figure_1">
  <g id="patch_1">
   <path d="M 0 288 
L 432 288 
L 432 0 
L 0 0 
z
" style="fill:none;"/>
  </g>
  <g id="axes_1">
   <g id="patch_2">
    <path d="M 54 252 
L 388.8 252 
L 388.8 34.56 
L 54 34.56 
z
" style="fill:#ffffff;"/>
   </g>
   <g id="PolyCollection_1">
    <defs>
     <path d="M 69.218182 -168.462301 
L 69.218182 -122.831764 
L 71.985124 -125.355372 
L 74.752066 -127.209673 
L 77.519008 -128.304191 
L 80.28595 -128.569864 
L 83.052893 -127.966655 
L 85.819835 -126.491894 
L 88.586777 -124.187626 
L 91.353719 -121.143452 
L 94.120661 -117.491339 
L 96.887603 -113.392318 
L 99.654545 -109.019392 
L 102.421488 -104.542079 
L 105.18843 -100.115598 
L 107.955372 -95.874687 
L 110.722314 -91.930749 
L 113.489256 -88.370981 
L 116.256198 -85.258667 
L 119.02314 -82.634143 
L 121.790083 -80.516204 
L 124.557025 -78.903826 
L 127.323967 -77.778175 
L 130.090909 -77.104905 
L 132.857851 -76.8368 
L 135.624793 -76.916755 
L 138.391736 -77.281061 
L 141.158678 -77.862882 
L 143.92562 -78.595776 
L 146.692562 -79.417074 
L 149.459504 -80.270925 
L 152.226446 -81.110821 
L 154.993388 -81.901368 
L 157.760331 -82.619101 
L 160.527273 -83.252122 
L 163.294215 -83.798441 
L 166.061157 -84.263004 
L 168.828099 -84.653577 
L 171.595041 -84.975827 
L 174.361983 -85.228214 
L 177.128926 -85.397605 
L 179.895868 -85.457002 
L 182.66281 -85.367082 
L 185.429752 -85.082836 
L 188.196694 -84.564634 
L 190.963636 -83.790042 
L 193.730579 -82.761264 
L 196.497521 -81.505451 
L 199.264463 -80.06929 
L 202.031405 -78.511449 
L 204.798347 -76.895622 
L 207.565289 -75.285128 
L 210.332231 -73.738876 
L 213.099174 -72.308199 
L 215.866116 -71.034191 
L 218.633058 -69.945386 
L 221.4 -69.055745 
L 224.166942 -68.363058 
L 226.933884 -67.847891 
L 229.700826 -67.473338 
L 232.467769 -67.185919 
L 235.234711 -66.918202 
L 238.001653 -66.593916 
L 240.768595 -66.136344 
L 243.535537 -65.480075 
L 246.302479 -64.584187 
L 249.069421 -63.442401 
L 251.836364 -62.085001 
L 254.603306 -60.570766 
L 257.370248 -58.972596 
L 260.13719 -57.363145 
L 262.904132 -55.804914 
L 265.671074 -54.345846 
L 268.438017 -53.019313 
L 271.204959 -51.846888 
L 273.971901 -50.842652 
L 276.738843 -50.01827 
L 279.505785 -49.38842 
L 282.272727 -48.976262 
L 285.039669 -48.818426 
L 287.806612 -48.968523 
L 290.573554 -49.49777 
L 293.340496 -50.491607 
L 296.107438 -52.042558 
L 298.87438 -54.241031 
L 301.641322 -57.1663 
L 304.408264 -60.87915 
L 307.175207 -65.416466 
L 309.942149 -70.787377 
L 312.709091 -76.970397 
L 315.476033 -83.911254 
L 318.242975 -91.521413 
L 321.009917 -99.677414 
L 323.77686 -108.221293 
L 326.543802 -116.962324 
L 329.310744 -125.680508 
L 332.077686 -134.132576 
L 334.844628 -142.061754 
L 337.61157 -149.21256 
L 340.378512 -155.350395 
L 343.145455 -160.282307 
L 345.912397 -163.872728 
L 348.679339 -166.049614 
L 351.446281 -166.801576 
L 354.213223 -166.170143 
L 356.980165 -164.240874 
L 359.747107 -161.134867 
L 362.51405 -157.000726 
L 365.280992 -152.00667 
L 368.047934 -146.332648 
L 370.814876 -140.162595 
L 373.581818 -133.677136 
L 373.581818 -196.079472 
L 373.581818 -196.079472 
L 370.814876 -199.676297 
L 368.047934 -202.67431 
L 365.280992 -204.936953 
L 362.51405 -206.34138 
L 359.747107 -206.785358 
L 356.980165 -206.193667 
L 354.213223 -204.523387 
L 351.446281 -201.767337 
L 348.679339 -197.954718 
L 345.912397 -193.147987 
L 343.145455 -187.435547 
L 340.378512 -180.921598 
L 337.61157 -173.716934 
L 334.844628 -165.935159 
L 332.077686 -157.695488 
L 329.310744 -149.128391 
L 326.543802 -140.378765 
L 323.77686 -131.604059 
L 321.009917 -122.968078 
L 318.242975 -114.632632 
L 315.476033 -106.749034 
L 312.709091 -99.450747 
L 309.942149 -92.847913 
L 307.175207 -87.024094 
L 304.408264 -82.035318 
L 301.641322 -77.911243 
L 298.87438 -74.657945 
L 296.107438 -72.261439 
L 293.340496 -70.69079 
L 290.573554 -69.899766 
L 287.806612 -69.826813 
L 285.039669 -70.394324 
L 282.272727 -71.509082 
L 279.505785 -73.065322 
L 276.738843 -74.950497 
L 273.971901 -77.052586 
L 271.204959 -79.267558 
L 268.438017 -81.50609 
L 265.671074 -83.699171 
L 262.904132 -85.802439 
L 260.13719 -87.799035 
L 257.370248 -89.700401 
L 254.603306 -91.543952 
L 251.836364 -93.386197 
L 249.069421 -95.290364 
L 246.302479 -97.309695 
L 243.535537 -99.471009 
L 240.768595 -101.764907 
L 238.001653 -104.146398 
L 235.234711 -106.544194 
L 232.467769 -108.873527 
L 229.700826 -111.047951 
L 226.933884 -112.988205 
L 224.166942 -114.628105 
L 221.4 -115.918173 
L 218.633058 -116.827673 
L 215.866116 -117.345487 
L 213.099174 -117.480078 
L 210.332231 -117.258663 
L 207.565289 -116.725663 
L 204.798347 -115.940434 
L 202.031405 -114.974233 
L 199.264463 -113.906242 
L 196.497521 -112.818339 
L 193.730579 -111.788178 
L 190.963636 -110.880538 
L 188.196694 -110.13802 
L 185.429752 -109.574016 
L 182.66281 -109.171694 
L 179.895868 -108.890604 
L 177.128926 -108.678267 
L 174.361983 -108.481747 
L 171.595041 -108.255581 
L 168.828099 -107.965397 
L 166.061157 -107.588407 
L 163.294215 -107.112364 
L 160.527273 -106.53412 
L 157.760331 -105.858459 
L 154.993388 -105.097492 
L 152.226446 -104.270643 
L 149.459504 -103.405065 
L 146.692562 -102.536196 
L 143.92562 -101.708105 
L 141.158678 -100.97327 
L 138.391736 -100.391543 
L 135.624793 -100.028156 
L 132.857851 -99.950764 
L 130.090909 -100.225657 
L 127.323967 -100.913351 
L 124.557025 -102.063907 
L 121.790083 -103.712394 
L 119.02314 -105.874987 
L 116.256198 -108.546214 
L 113.489256 -111.697824 
L 110.722314 -115.279603 
L 107.955372 -119.222295 
L 105.18843 -123.442503 
L 102.421488 -127.849205 
L 99.654545 -132.351084 
L 96.887603 -136.863369 
L 94.120661 -141.312315 
L 91.353719 -145.635333 
L 88.586777 -149.77613 
L 85.819835 -153.677195 
L 83.052893 -157.274524 
L 80.28595 -160.498418 
L 77.519008 -163.279997 
L 74.752066 -165.559752 
L 71.985124 -167.294656 
L 69.218182 -168.462301 
z
" id="mabad7d8f76" style="stroke:#add8e6;stroke-opacity:0.2;"/>
    </defs>
    <g clip-path="url(#p08f3bfbb2e)">
     <use style="fill:#add8e6;fill-opacity:0.2;stroke:#add8e6;stroke-opacity:0.2;" x="0" xlink:href="#mabad7d8f76" y="288"/>
    </g>
   </g>
   <g id="PathCollection_1">
    <defs>
     <path d="M 0 0.612372 
C 0.162403 0.612372 0.318176 0.547849 0.433013 0.433013 
C 0.547849 0.318176 0.612372 0.162403 0.612372 0 
C 0.612372 -0.162403 0.547849 -0.318176 0.433013 -0.433013 
C 0.318176 -0.547849 0.162403 -0.612372 0 -0.612372 
C -0.162403 -0.612372 -0.318176 -0.547849 -0.433013 -0.433013 
C -0.547849 -0.318176 -0.612372 -0.162403 -0.612372 0 
C -0.612372 0.162403 -0.547849 0.318176 -0.433013 0.433013 
C -0.318176 0.547849 -0.162403 0.612372 0 0.612372 
z
" id="mc53b1f6f95" style="stroke:#ff0000;stroke-width:8;"/>
    </defs>
    <g clip-path="url(#p08f3bfbb2e)">
     <use style="fill:#ff0000;stroke:#ff0000;stroke-width:8;" x="285.039669" xlink:href="#mc53b1f6f95" y="232.487789"/>
    </g>
   </g>
   <g id="matplotlib.axis_1">
    <g id="xtick_1">
     <g id="line2d_1">
      <defs>
       <path d="M 0 0 
L 0 3.5 
" id="m33ca94eb7a" style="stroke:#000000;stroke-width:0.8;"/>
      </defs>
      <g>
       <use style="stroke:#000000;stroke-width:0.8;" x="69.218182" xlink:href="#m33ca94eb7a" y="252"/>
      </g>
     </g>
     <g id="text_1">
      <!-- 0 -->
      <g transform="translate(66.036932 266.598437)scale(0.1 -0.1)">
       <defs>
        <path d="M 2034 4250 
Q 1547 4250 1301 3770 
Q 1056 3291 1056 2328 
Q 1056 1369 1301 889 
Q 1547 409 2034 409 
Q 2525 409 2770 889 
Q 3016 1369 3016 2328 
Q 3016 3291 2770 3770 
Q 2525 4250 2034 4250 
z
M 2034 4750 
Q 2819 4750 3233 4129 
Q 3647 3509 3647 2328 
Q 3647 1150 3233 529 
Q 2819 -91 2034 -91 
Q 1250 -91 836 529 
Q 422 1150 422 2328 
Q 422 3509 836 4129 
Q 1250 4750 2034 4750 
z
" id="DejaVuSans-30" transform="scale(0.015625)"/>
       </defs>
       <use xlink:href="#DejaVuSans-30"/>
      </g>
     </g>
    </g>
    <g id="xtick_2">
     <g id="line2d_2">
      <g>
       <use style="stroke:#000000;stroke-width:0.8;" x="124.557025" xlink:href="#m33ca94eb7a" y="252"/>
      </g>
     </g>
     <g id="text_2">
      <!-- 2 -->
      <g transform="translate(121.375775 266.598437)scale(0.1 -0.1)">
       <defs>
        <path d="M 1228 531 
L 3431 531 
L 3431 0 
L 469 0 
L 469 531 
Q 828 903 1448 1529 
Q 2069 2156 2228 2338 
Q 2531 2678 2651 2914 
Q 2772 3150 2772 3378 
Q 2772 3750 2511 3984 
Q 2250 4219 1831 4219 
Q 1534 4219 1204 4116 
Q 875 4013 500 3803 
L 500 4441 
Q 881 4594 1212 4672 
Q 1544 4750 1819 4750 
Q 2544 4750 2975 4387 
Q 3406 4025 3406 3419 
Q 3406 3131 3298 2873 
Q 3191 2616 2906 2266 
Q 2828 2175 2409 1742 
Q 1991 1309 1228 531 
z
" id="DejaVuSans-32" transform="scale(0.015625)"/>
       </defs>
       <use xlink:href="#DejaVuSans-32"/>
      </g>
     </g>
    </g>
    <g id="xtick_3">
     <g id="line2d_3">
      <g>
       <use style="stroke:#000000;stroke-width:0.8;" x="179.895868" xlink:href="#m33ca94eb7a" y="252"/>
      </g>
     </g>
     <g id="text_3">
      <!-- 4 -->
      <g transform="translate(176.714618 266.598437)scale(0.1 -0.1)">
       <defs>
        <path d="M 2419 4116 
L 825 1625 
L 2419 1625 
L 2419 4116 
z
M 2253 4666 
L 3047 4666 
L 3047 1625 
L 3713 1625 
L 3713 1100 
L 3047 1100 
L 3047 0 
L 2419 0 
L 2419 1100 
L 313 1100 
L 313 1709 
L 2253 4666 
z
" id="DejaVuSans-34" transform="scale(0.015625)"/>
       </defs>
       <use xlink:href="#DejaVuSans-34"/>
      </g>
     </g>
    </g>
    <g id="xtick_4">
     <g id="line2d_4">
      <g>
       <use style="stroke:#000000;stroke-width:0.8;" x="235.234711" xlink:href="#m33ca94eb7a" y="252"/>
      </g>
     </g>
     <g id="text_4">
      <!-- 6 -->
      <g transform="translate(232.053461 266.598437)scale(0.1 -0.1)">
       <defs>
        <path d="M 2113 2584 
Q 1688 2584 1439 2293 
Q 1191 2003 1191 1497 
Q 1191 994 1439 701 
Q 1688 409 2113 409 
Q 2538 409 2786 701 
Q 3034 994 3034 1497 
Q 3034 2003 2786 2293 
Q 2538 2584 2113 2584 
z
M 3366 4563 
L 3366 3988 
Q 3128 4100 2886 4159 
Q 2644 4219 2406 4219 
Q 1781 4219 1451 3797 
Q 1122 3375 1075 2522 
Q 1259 2794 1537 2939 
Q 1816 3084 2150 3084 
Q 2853 3084 3261 2657 
Q 3669 2231 3669 1497 
Q 3669 778 3244 343 
Q 2819 -91 2113 -91 
Q 1303 -91 875 529 
Q 447 1150 447 2328 
Q 447 3434 972 4092 
Q 1497 4750 2381 4750 
Q 2619 4750 2861 4703 
Q 3103 4656 3366 4563 
z
" id="DejaVuSans-36" transform="scale(0.015625)"/>
       </defs>
       <use xlink:href="#DejaVuSans-36"/>
      </g>
     </g>
    </g>
    <g id="xtick_5">
     <g id="line2d_5">
      <g>
       <use style="stroke:#000000;stroke-width:0.8;" x="290.573554" xlink:href="#m33ca94eb7a" y="252"/>
      </g>
     </g>
     <g id="text_5">
      <!-- 8 -->
      <g transform="translate(287.392304 266.598437)scale(0.1 -0.1)">
       <defs>
        <path d="M 2034 2216 
Q 1584 2216 1326 1975 
Q 1069 1734 1069 1313 
Q 1069 891 1326 650 
Q 1584 409 2034 409 
Q 2484 409 2743 651 
Q 3003 894 3003 1313 
Q 3003 1734 2745 1975 
Q 2488 2216 2034 2216 
z
M 1403 2484 
Q 997 2584 770 2862 
Q 544 3141 544 3541 
Q 544 4100 942 4425 
Q 1341 4750 2034 4750 
Q 2731 4750 3128 4425 
Q 3525 4100 3525 3541 
Q 3525 3141 3298 2862 
Q 3072 2584 2669 2484 
Q 3125 2378 3379 2068 
Q 3634 1759 3634 1313 
Q 3634 634 3220 271 
Q 2806 -91 2034 -91 
Q 1263 -91 848 271 
Q 434 634 434 1313 
Q 434 1759 690 2068 
Q 947 2378 1403 2484 
z
M 1172 3481 
Q 1172 3119 1398 2916 
Q 1625 2713 2034 2713 
Q 2441 2713 2670 2916 
Q 2900 3119 2900 3481 
Q 2900 3844 2670 4047 
Q 2441 4250 2034 4250 
Q 1625 4250 1398 4047 
Q 1172 3844 1172 3481 
z
" id="DejaVuSans-38" transform="scale(0.015625)"/>
       </defs>
       <use xlink:href="#DejaVuSans-38"/>
      </g>
     </g>
    </g>
    <g id="xtick_6">
     <g id="line2d_6">
      <g>
       <use style="stroke:#000000;stroke-width:0.8;" x="345.912397" xlink:href="#m33ca94eb7a" y="252"/>
      </g>
     </g>
     <g id="text_6">
      <!-- 10 -->
      <g transform="translate(339.549897 266.598437)scale(0.1 -0.1)">
       <defs>
        <path d="M 794 531 
L 1825 531 
L 1825 4091 
L 703 3866 
L 703 4441 
L 1819 4666 
L 2450 4666 
L 2450 531 
L 3481 531 
L 3481 0 
L 794 0 
L 794 531 
z
" id="DejaVuSans-31" transform="scale(0.015625)"/>
       </defs>
       <use xlink:href="#DejaVuSans-31"/>
       <use x="63.623047" xlink:href="#DejaVuSans-30"/>
      </g>
     </g>
    </g>
    <g id="text_7">
     <!-- x -->
     <g transform="translate(217.84875 281.79625)scale(0.12 -0.12)">
      <defs>
       <path d="M 3513 3500 
L 2247 1797 
L 3578 0 
L 2900 0 
L 1881 1375 
L 863 0 
L 184 0 
L 1544 1831 
L 300 3500 
L 978 3500 
L 1906 2253 
L 2834 3500 
L 3513 3500 
z
" id="DejaVuSans-78" transform="scale(0.015625)"/>
      </defs>
      <use xlink:href="#DejaVuSans-78"/>
     </g>
    </g>
   </g>
   <g id="matplotlib.axis_2">
    <g id="ytick_1">
     <g id="line2d_7">
      <defs>
       <path d="M 0 0 
L -3.5 0 
" id="m3fff7ea33d" style="stroke:#000000;stroke-width:0.8;"/>
      </defs>
      <g>
       <use style="stroke:#000000;stroke-width:0.8;" x="54" xlink:href="#m3fff7ea33d" y="252"/>
      </g>
     </g>
     <g id="text_8">
      <!-- 3 -->
      <g transform="translate(40.6375 255.799219)scale(0.1 -0.1)">
       <defs>
        <path d="M 2597 2516 
Q 3050 2419 3304 2112 
Q 3559 1806 3559 1356 
Q 3559 666 3084 287 
Q 2609 -91 1734 -91 
Q 1441 -91 1130 -33 
Q 819 25 488 141 
L 488 750 
Q 750 597 1062 519 
Q 1375 441 1716 441 
Q 2309 441 2620 675 
Q 2931 909 2931 1356 
Q 2931 1769 2642 2001 
Q 2353 2234 1838 2234 
L 1294 2234 
L 1294 2753 
L 1863 2753 
Q 2328 2753 2575 2939 
Q 2822 3125 2822 3475 
Q 2822 3834 2567 4026 
Q 2313 4219 1838 4219 
Q 1578 4219 1281 4162 
Q 984 4106 628 3988 
L 628 4550 
Q 988 4650 1302 4700 
Q 1616 4750 1894 4750 
Q 2613 4750 3031 4423 
Q 3450 4097 3450 3541 
Q 3450 3153 3228 2886 
Q 3006 2619 2597 2516 
z
" id="DejaVuSans-33" transform="scale(0.015625)"/>
       </defs>
       <use xlink:href="#DejaVuSans-33"/>
      </g>
     </g>
    </g>
    <g id="ytick_2">
     <g id="line2d_8">
      <g>
       <use style="stroke:#000000;stroke-width:0.8;" x="54" xlink:href="#m3fff7ea33d" y="215.76"/>
      </g>
     </g>
     <g id="text_9">
      <!-- 4 -->
      <g transform="translate(40.6375 219.559219)scale(0.1 -0.1)">
       <use xlink:href="#DejaVuSans-34"/>
      </g>
     </g>
    </g>
    <g id="ytick_3">
     <g id="line2d_9">
      <g>
       <use style="stroke:#000000;stroke-width:0.8;" x="54" xlink:href="#m3fff7ea33d" y="179.52"/>
      </g>
     </g>
     <g id="text_10">
      <!-- 5 -->
      <g transform="translate(40.6375 183.319219)scale(0.1 -0.1)">
       <defs>
        <path d="M 691 4666 
L 3169 4666 
L 3169 4134 
L 1269 4134 
L 1269 2991 
Q 1406 3038 1543 3061 
Q 1681 3084 1819 3084 
Q 2600 3084 3056 2656 
Q 3513 2228 3513 1497 
Q 3513 744 3044 326 
Q 2575 -91 1722 -91 
Q 1428 -91 1123 -41 
Q 819 9 494 109 
L 494 744 
Q 775 591 1075 516 
Q 1375 441 1709 441 
Q 2250 441 2565 725 
Q 2881 1009 2881 1497 
Q 2881 1984 2565 2268 
Q 2250 2553 1709 2553 
Q 1456 2553 1204 2497 
Q 953 2441 691 2322 
L 691 4666 
z
" id="DejaVuSans-35" transform="scale(0.015625)"/>
       </defs>
       <use xlink:href="#DejaVuSans-35"/>
      </g>
     </g>
    </g>
    <g id="ytick_4">
     <g id="line2d_10">
      <g>
       <use style="stroke:#000000;stroke-width:0.8;" x="54" xlink:href="#m3fff7ea33d" y="143.28"/>
      </g>
     </g>
     <g id="text_11">
      <!-- 6 -->
      <g transform="translate(40.6375 147.079219)scale(0.1 -0.1)">
       <use xlink:href="#DejaVuSans-36"/>
      </g>
     </g>
    </g>
    <g id="ytick_5">
     <g id="line2d_11">
      <g>
       <use style="stroke:#000000;stroke-width:0.8;" x="54" xlink:href="#m3fff7ea33d" y="107.04"/>
      </g>
     </g>
     <g id="text_12">
      <!-- 7 -->
      <g transform="translate(40.6375 110.839219)scale(0.1 -0.1)">
       <defs>
        <path d="M 525 4666 
L 3525 4666 
L 3525 4397 
L 1831 0 
L 1172 0 
L 2766 4134 
L 525 4134 
L 525 4666 
z
" id="DejaVuSans-37" transform="scale(0.015625)"/>
       </defs>
       <use xlink:href="#DejaVuSans-37"/>
      </g>
     </g>
    </g>
    <g id="ytick_6">
     <g id="line2d_12">
      <g>
       <use style="stroke:#000000;stroke-width:0.8;" x="54" xlink:href="#m3fff7ea33d" y="70.8"/>
      </g>
     </g>
     <g id="text_13">
      <!-- 8 -->
      <g transform="translate(40.6375 74.599219)scale(0.1 -0.1)">
       <use xlink:href="#DejaVuSans-38"/>
      </g>
     </g>
    </g>
    <g id="ytick_7">
     <g id="line2d_13">
      <g>
       <use style="stroke:#000000;stroke-width:0.8;" x="54" xlink:href="#m3fff7ea33d" y="34.56"/>
      </g>
     </g>
     <g id="text_14">
      <!-- 9 -->
      <g transform="translate(40.6375 38.359219)scale(0.1 -0.1)">
       <defs>
        <path d="M 703 97 
L 703 672 
Q 941 559 1184 500 
Q 1428 441 1663 441 
Q 2288 441 2617 861 
Q 2947 1281 2994 2138 
Q 2813 1869 2534 1725 
Q 2256 1581 1919 1581 
Q 1219 1581 811 2004 
Q 403 2428 403 3163 
Q 403 3881 828 4315 
Q 1253 4750 1959 4750 
Q 2769 4750 3195 4129 
Q 3622 3509 3622 2328 
Q 3622 1225 3098 567 
Q 2575 -91 1691 -91 
Q 1453 -91 1209 -44 
Q 966 3 703 97 
z
M 1959 2075 
Q 2384 2075 2632 2365 
Q 2881 2656 2881 3163 
Q 2881 3666 2632 3958 
Q 2384 4250 1959 4250 
Q 1534 4250 1286 3958 
Q 1038 3666 1038 3163 
Q 1038 2656 1286 2365 
Q 1534 2075 1959 2075 
z
" id="DejaVuSans-39" transform="scale(0.015625)"/>
       </defs>
       <use xlink:href="#DejaVuSans-39"/>
      </g>
     </g>
    </g>
    <g id="text_15">
     <!-- y -->
     <g transform="translate(34.141875 146.83125)rotate(-90)scale(0.12 -0.12)">
      <defs>
       <path d="M 2059 -325 
Q 1816 -950 1584 -1140 
Q 1353 -1331 966 -1331 
L 506 -1331 
L 506 -850 
L 844 -850 
Q 1081 -850 1212 -737 
Q 1344 -625 1503 -206 
L 1606 56 
L 191 3500 
L 800 3500 
L 1894 763 
L 2988 3500 
L 3597 3500 
L 2059 -325 
z
" id="DejaVuSans-79" transform="scale(0.015625)"/>
      </defs>
      <use xlink:href="#DejaVuSans-79"/>
     </g>
    </g>
   </g>
   <g id="line2d_14">
    <path clip-path="url(#p08f3bfbb2e)" d="M 69.218182 70.8 
L 71.985124 85.083949 
L 74.752066 98.25467 
L 77.519008 110.364828 
L 80.28595 121.465955 
L 83.052893 131.608455 
L 85.819835 140.841599 
L 88.586777 149.213528 
L 91.353719 156.771253 
L 94.120661 163.560654 
L 96.887603 169.62648 
L 99.654545 175.012349 
L 102.421488 179.76075 
L 105.18843 183.913038 
L 107.955372 187.509441 
L 110.722314 190.589055 
L 113.489256 193.189844 
L 116.256198 195.348643 
L 119.02314 197.101155 
L 121.790083 198.481953 
L 124.557025 199.52448 
L 127.323967 200.261047 
L 130.090909 200.722835 
L 132.857851 200.939895 
L 135.624793 200.941145 
L 138.391736 200.754375 
L 141.158678 200.406243 
L 143.92562 199.922276 
L 146.692562 199.326871 
L 149.459504 198.643294 
L 152.226446 197.89368 
L 154.993388 197.099035 
L 157.760331 196.279231 
L 160.527273 195.453014 
L 163.294215 194.637994 
L 166.061157 193.850655 
L 168.828099 193.106347 
L 171.595041 192.419291 
L 174.361983 191.802577 
L 177.128926 191.268164 
L 179.895868 190.82688 
L 182.66281 190.488424 
L 185.429752 190.261362 
L 188.196694 190.153131 
L 190.963636 190.170037 
L 193.730579 190.317255 
L 196.497521 190.598829 
L 199.264463 191.017673 
L 202.031405 191.575569 
L 204.798347 192.273171 
L 207.565289 193.11 
L 210.332231 194.084446 
L 213.099174 195.193771 
L 215.866116 196.434103 
L 218.633058 197.800442 
L 221.4 199.286655 
L 224.166942 200.88548 
L 226.933884 202.588525 
L 229.700826 204.386264 
L 232.467769 206.268045 
L 235.234711 208.22208 
L 238.001653 210.235455 
L 240.768595 212.294122 
L 243.535537 214.382905 
L 246.302479 216.485496 
L 249.069421 218.584455 
L 251.836364 220.661214 
L 254.603306 222.696071 
L 257.370248 224.668198 
L 260.13719 226.555631 
L 262.904132 228.33528 
L 265.671074 229.982921 
L 268.438017 231.4732 
L 271.204959 232.779634 
L 273.971901 233.874607 
L 276.738843 234.729375 
L 279.505785 235.31406 
L 282.272727 235.597656 
L 285.039669 235.548026 
L 287.806612 235.1319 
L 290.573554 234.31488 
L 293.340496 233.061436 
L 296.107438 231.334908 
L 298.87438 229.097505 
L 301.641322 226.310305 
L 304.408264 222.933255 
L 307.175207 218.925173 
L 309.942149 214.243744 
L 312.709091 208.845524 
L 315.476033 202.685938 
L 318.242975 195.71928 
L 321.009917 187.898713 
L 323.77686 179.176271 
L 326.543802 169.502854 
L 329.310744 158.828236 
L 332.077686 147.101055 
L 334.844628 134.268823 
L 337.61157 120.277918 
L 340.378512 105.073589 
L 343.145455 88.599954 
L 345.912397 70.8 
L 348.679339 51.615584 
L 351.446281 30.987432 
L 354.213223 8.855138 
L 355.363895 -1 
" style="fill:none;stroke:#0000ff;stroke-linecap:square;stroke-width:2;"/>
   </g>
   <g id="line2d_15">
    <path clip-path="url(#p08f3bfbb2e)" d="M 69.218182 165.168236 
L 71.985124 162.644628 
L 74.752066 160.790327 
L 77.519008 159.695809 
L 80.28595 159.430136 
L 83.052893 160.033345 
L 85.819835 161.508106 
L 88.586777 163.812374 
L 91.353719 166.856548 
L 94.120661 170.508661 
L 96.887603 174.607682 
L 99.654545 178.980608 
L 102.421488 183.457921 
L 105.18843 187.884402 
L 107.955372 192.125313 
L 110.722314 196.069251 
L 113.489256 199.629019 
L 116.256198 202.741333 
L 119.02314 205.365857 
L 121.790083 207.483796 
L 124.557025 209.096174 
L 127.323967 210.221825 
L 130.090909 210.895095 
L 132.857851 211.1632 
L 135.624793 211.083245 
L 138.391736 210.718939 
L 141.158678 210.137118 
L 143.92562 209.404224 
L 146.692562 208.582926 
L 149.459504 207.729075 
L 152.226446 206.889179 
L 154.993388 206.098632 
L 157.760331 205.380899 
L 160.527273 204.747878 
L 163.294215 204.201559 
L 166.061157 203.736996 
L 168.828099 203.346423 
L 171.595041 203.024173 
L 174.361983 202.771786 
L 177.128926 202.602395 
L 179.895868 202.542998 
L 182.66281 202.632918 
L 185.429752 202.917164 
L 188.196694 203.435366 
L 190.963636 204.209958 
L 193.730579 205.238736 
L 196.497521 206.494549 
L 199.264463 207.93071 
L 202.031405 209.488551 
L 204.798347 211.104378 
L 207.565289 212.714872 
L 210.332231 214.261124 
L 213.099174 215.691801 
L 215.866116 216.965809 
L 218.633058 218.054614 
L 221.4 218.944255 
L 224.166942 219.636942 
L 226.933884 220.152109 
L 229.700826 220.526662 
L 232.467769 220.814081 
L 235.234711 221.081798 
L 238.001653 221.406084 
L 240.768595 221.863656 
L 243.535537 222.519925 
L 246.302479 223.415813 
L 249.069421 224.557599 
L 251.836364 225.914999 
L 254.603306 227.429234 
L 257.370248 229.027404 
L 260.13719 230.636855 
L 262.904132 232.195086 
L 265.671074 233.654154 
L 268.438017 234.980687 
L 271.204959 236.153112 
L 273.971901 237.157348 
L 276.738843 237.98173 
L 279.505785 238.61158 
L 282.272727 239.023738 
L 285.039669 239.181574 
L 287.806612 239.031477 
L 290.573554 238.50223 
L 293.340496 237.508393 
L 296.107438 235.957442 
L 298.87438 233.758969 
L 301.641322 230.8337 
L 304.408264 227.12085 
L 307.175207 222.583534 
L 309.942149 217.212623 
L 312.709091 211.029603 
L 315.476033 204.088746 
L 318.242975 196.478587 
L 321.009917 188.322586 
L 323.77686 179.778707 
L 326.543802 171.037676 
L 329.310744 162.319492 
L 332.077686 153.867424 
L 334.844628 145.938246 
L 337.61157 138.78744 
L 340.378512 132.649605 
L 343.145455 127.717693 
L 345.912397 124.127272 
L 348.679339 121.950386 
L 351.446281 121.198424 
L 354.213223 121.829857 
L 356.980165 123.759126 
L 359.747107 126.865133 
L 362.51405 130.999274 
L 365.280992 135.99333 
L 368.047934 141.667352 
L 370.814876 147.837405 
L 373.581818 154.322864 
" style="fill:none;stroke:#008000;stroke-dasharray:3.7,1.6;stroke-dashoffset:0;"/>
   </g>
   <g id="line2d_16">
    <path clip-path="url(#p08f3bfbb2e)" d="M 69.218182 119.537699 
L 71.985124 120.705344 
L 74.752066 122.440248 
L 77.519008 124.720003 
L 80.28595 127.501582 
L 83.052893 130.725476 
L 85.819835 134.322805 
L 88.586777 138.22387 
L 91.353719 142.364667 
L 94.120661 146.687685 
L 96.887603 151.136631 
L 99.654545 155.648916 
L 102.421488 160.150795 
L 105.18843 164.557497 
L 107.955372 168.777705 
L 110.722314 172.720397 
L 113.489256 176.302176 
L 116.256198 179.453786 
L 119.02314 182.125013 
L 121.790083 184.287606 
L 124.557025 185.936093 
L 127.323967 187.086649 
L 130.090909 187.774343 
L 132.857851 188.049236 
L 135.624793 187.971844 
L 138.391736 187.608457 
L 141.158678 187.02673 
L 143.92562 186.291895 
L 146.692562 185.463804 
L 149.459504 184.594935 
L 152.226446 183.729357 
L 154.993388 182.902508 
L 157.760331 182.141541 
L 160.527273 181.46588 
L 163.294215 180.887636 
L 166.061157 180.411593 
L 168.828099 180.034603 
L 171.595041 179.744419 
L 174.361983 179.518253 
L 177.128926 179.321733 
L 179.895868 179.109396 
L 182.66281 178.828306 
L 185.429752 178.425984 
L 188.196694 177.86198 
L 190.963636 177.119462 
L 193.730579 176.211822 
L 196.497521 175.181661 
L 199.264463 174.093758 
L 202.031405 173.025767 
L 204.798347 172.059566 
L 207.565289 171.274337 
L 210.332231 170.741337 
L 213.099174 170.519922 
L 215.866116 170.654513 
L 218.633058 171.172327 
L 221.4 172.081827 
L 224.166942 173.371895 
L 226.933884 175.011795 
L 229.700826 176.952049 
L 232.467769 179.126473 
L 235.234711 181.455806 
L 238.001653 183.853602 
L 240.768595 186.235093 
L 243.535537 188.528991 
L 246.302479 190.690305 
L 249.069421 192.709636 
L 251.836364 194.613803 
L 254.603306 196.456048 
L 257.370248 198.299599 
L 260.13719 200.200965 
L 262.904132 202.197561 
L 265.671074 204.300829 
L 268.438017 206.49391 
L 271.204959 208.732442 
L 273.971901 210.947414 
L 276.738843 213.049503 
L 279.505785 214.934678 
L 282.272727 216.490918 
L 285.039669 217.605676 
L 287.806612 218.173187 
L 290.573554 218.100234 
L 293.340496 217.30921 
L 296.107438 215.738561 
L 298.87438 213.342055 
L 301.641322 210.088757 
L 304.408264 205.964682 
L 307.175207 200.975906 
L 309.942149 195.152087 
L 312.709091 188.549253 
L 315.476033 181.250966 
L 318.242975 173.367368 
L 321.009917 165.031922 
L 323.77686 156.395941 
L 326.543802 147.621235 
L 329.310744 138.871609 
L 332.077686 130.304512 
L 334.844628 122.064841 
L 337.61157 114.283066 
L 340.378512 107.078402 
L 343.145455 100.564453 
L 345.912397 94.852013 
L 348.679339 90.045282 
L 351.446281 86.232663 
L 354.213223 83.476613 
L 356.980165 81.806333 
L 359.747107 81.214642 
L 362.51405 81.65862 
L 365.280992 83.063047 
L 368.047934 85.32569 
L 370.814876 88.323703 
L 373.581818 91.920528 
" style="fill:none;stroke:#008000;stroke-dasharray:3.7,1.6;stroke-dashoffset:0;"/>
   </g>
   <g id="line2d_17">
    <path clip-path="url(#p08f3bfbb2e)" d="M 69.218182 251.998601 
L 71.985124 251.999787 
L 74.752066 251.999976 
L 77.519008 251.999998 
L 80.28595 252 
L 83.052893 252 
L 85.819835 252 
L 88.586777 252 
L 91.353719 252 
L 94.120661 252 
L 96.887603 252 
L 99.654545 252 
L 102.421488 251.999999 
L 105.18843 251.999993 
L 107.955372 251.999956 
L 110.722314 251.999771 
L 113.489256 251.999094 
L 116.256198 251.99721 
L 119.02314 251.993162 
L 121.790083 251.986356 
L 124.557025 251.977326 
L 127.323967 251.967956 
L 130.090909 251.960721 
L 132.857851 251.957451 
L 135.624793 251.958519 
L 138.391736 251.962937 
L 141.158678 251.96908 
L 143.92562 251.975449 
L 146.692562 251.981084 
L 149.459504 251.985593 
L 152.226446 251.988971 
L 154.993388 251.991406 
L 157.760331 251.993132 
L 160.527273 251.994362 
L 163.294215 251.995262 
L 166.061157 251.995949 
L 168.828099 251.996494 
L 171.595041 251.996925 
L 174.361983 251.99723 
L 177.128926 251.997355 
L 179.895868 251.997192 
L 182.66281 251.99649 
L 185.429752 251.99461 
L 188.196694 251.989812 
L 190.963636 251.977455 
L 193.730579 251.946309 
L 196.497521 251.873562 
L 199.264463 251.72281 
L 202.031405 251.451358 
L 204.798347 251.027389 
L 207.565289 250.448247 
L 210.332231 249.749113 
L 213.099174 248.998116 
L 215.866116 248.281391 
L 218.633058 247.684341 
L 221.4 247.274446 
L 224.166942 247.088875 
L 226.933884 247.128469 
L 229.700826 247.358595 
L 232.467769 247.71646 
L 235.234711 248.123341 
L 238.001653 248.498619 
L 240.768595 248.77117 
L 243.535537 248.883983 
L 246.302479 248.791351 
L 249.069421 248.45339 
L 251.836364 247.835791 
L 254.603306 246.918948 
L 257.370248 245.711431 
L 260.13719 244.256874 
L 262.904132 242.62768 
L 265.671074 240.908842 
L 268.438017 239.18104 
L 271.204959 237.511095 
L 273.971901 235.95379 
L 276.738843 234.565539 
L 279.505785 233.427427 
L 282.272727 232.670464 
L 285.039669 232.487789 
L 287.806612 233.110837 
L 290.573554 234.730989 
L 293.340496 237.376381 
L 296.107438 240.799156 
L 298.87438 244.46268 
L 301.641322 247.699996 
L 304.408264 250.008405 
L 307.175207 251.2888 
L 309.942149 251.81563 
L 312.709091 251.967605 
L 315.476033 251.996425 
L 318.242975 251.999771 
L 321.009917 251.999992 
L 323.77686 252 
L 326.543802 252 
L 329.310744 252 
L 332.077686 252 
L 334.844628 252 
L 337.61157 252 
L 340.378512 252 
L 343.145455 252 
L 345.912397 252 
L 348.679339 252 
L 351.446281 252 
L 354.213223 252 
L 356.980165 252 
L 359.747107 252 
L 362.51405 251.999995 
L 365.280992 251.999938 
L 368.047934 251.999469 
L 370.814876 251.996829 
L 373.581818 251.986019 
" style="fill:none;stroke:#bfbf00;stroke-dasharray:7.4,3.2;stroke-dashoffset:0;stroke-width:2;"/>
   </g>
   <g id="patch_3">
    <path d="M 54 252 
L 54 34.56 
" style="fill:none;stroke:#000000;stroke-linecap:square;stroke-linejoin:miter;stroke-width:0.8;"/>
   </g>
   <g id="patch_4">
    <path d="M 388.8 252 
L 388.8 34.56 
" style="fill:none;stroke:#000000;stroke-linecap:square;stroke-linejoin:miter;stroke-width:0.8;"/>
   </g>
   <g id="patch_5">
    <path d="M 54 252 
L 388.8 252 
" style="fill:none;stroke:#000000;stroke-linecap:square;stroke-linejoin:miter;stroke-width:0.8;"/>
   </g>
   <g id="patch_6">
    <path d="M 54 34.56 
L 388.8 34.56 
" style="fill:none;stroke:#000000;stroke-linecap:square;stroke-linejoin:miter;stroke-width:0.8;"/>
   </g>
   <g id="text_16">
    <!-- Method : EI -->
    <g transform="translate(71.985124 244.752)scale(0.12 -0.12)">
     <defs>
      <path d="M 628 4666 
L 1569 4666 
L 2759 1491 
L 3956 4666 
L 4897 4666 
L 4897 0 
L 4281 0 
L 4281 4097 
L 3078 897 
L 2444 897 
L 1241 4097 
L 1241 0 
L 628 0 
L 628 4666 
z
" id="DejaVuSans-4d" transform="scale(0.015625)"/>
      <path d="M 3597 1894 
L 3597 1613 
L 953 1613 
Q 991 1019 1311 708 
Q 1631 397 2203 397 
Q 2534 397 2845 478 
Q 3156 559 3463 722 
L 3463 178 
Q 3153 47 2828 -22 
Q 2503 -91 2169 -91 
Q 1331 -91 842 396 
Q 353 884 353 1716 
Q 353 2575 817 3079 
Q 1281 3584 2069 3584 
Q 2775 3584 3186 3129 
Q 3597 2675 3597 1894 
z
M 3022 2063 
Q 3016 2534 2758 2815 
Q 2500 3097 2075 3097 
Q 1594 3097 1305 2825 
Q 1016 2553 972 2059 
L 3022 2063 
z
" id="DejaVuSans-65" transform="scale(0.015625)"/>
      <path d="M 1172 4494 
L 1172 3500 
L 2356 3500 
L 2356 3053 
L 1172 3053 
L 1172 1153 
Q 1172 725 1289 603 
Q 1406 481 1766 481 
L 2356 481 
L 2356 0 
L 1766 0 
Q 1100 0 847 248 
Q 594 497 594 1153 
L 594 3053 
L 172 3053 
L 172 3500 
L 594 3500 
L 594 4494 
L 1172 4494 
z
" id="DejaVuSans-74" transform="scale(0.015625)"/>
      <path d="M 3513 2113 
L 3513 0 
L 2938 0 
L 2938 2094 
Q 2938 2591 2744 2837 
Q 2550 3084 2163 3084 
Q 1697 3084 1428 2787 
Q 1159 2491 1159 1978 
L 1159 0 
L 581 0 
L 581 4863 
L 1159 4863 
L 1159 2956 
Q 1366 3272 1645 3428 
Q 1925 3584 2291 3584 
Q 2894 3584 3203 3211 
Q 3513 2838 3513 2113 
z
" id="DejaVuSans-68" transform="scale(0.015625)"/>
      <path d="M 1959 3097 
Q 1497 3097 1228 2736 
Q 959 2375 959 1747 
Q 959 1119 1226 758 
Q 1494 397 1959 397 
Q 2419 397 2687 759 
Q 2956 1122 2956 1747 
Q 2956 2369 2687 2733 
Q 2419 3097 1959 3097 
z
M 1959 3584 
Q 2709 3584 3137 3096 
Q 3566 2609 3566 1747 
Q 3566 888 3137 398 
Q 2709 -91 1959 -91 
Q 1206 -91 779 398 
Q 353 888 353 1747 
Q 353 2609 779 3096 
Q 1206 3584 1959 3584 
z
" id="DejaVuSans-6f" transform="scale(0.015625)"/>
      <path d="M 2906 2969 
L 2906 4863 
L 3481 4863 
L 3481 0 
L 2906 0 
L 2906 525 
Q 2725 213 2448 61 
Q 2172 -91 1784 -91 
Q 1150 -91 751 415 
Q 353 922 353 1747 
Q 353 2572 751 3078 
Q 1150 3584 1784 3584 
Q 2172 3584 2448 3432 
Q 2725 3281 2906 2969 
z
M 947 1747 
Q 947 1113 1208 752 
Q 1469 391 1925 391 
Q 2381 391 2643 752 
Q 2906 1113 2906 1747 
Q 2906 2381 2643 2742 
Q 2381 3103 1925 3103 
Q 1469 3103 1208 2742 
Q 947 2381 947 1747 
z
" id="DejaVuSans-64" transform="scale(0.015625)"/>
      <path id="DejaVuSans-20" transform="scale(0.015625)"/>
      <path d="M 750 794 
L 1409 794 
L 1409 0 
L 750 0 
L 750 794 
z
M 750 3309 
L 1409 3309 
L 1409 2516 
L 750 2516 
L 750 3309 
z
" id="DejaVuSans-3a" transform="scale(0.015625)"/>
      <path d="M 628 4666 
L 3578 4666 
L 3578 4134 
L 1259 4134 
L 1259 2753 
L 3481 2753 
L 3481 2222 
L 1259 2222 
L 1259 531 
L 3634 531 
L 3634 0 
L 628 0 
L 628 4666 
z
" id="DejaVuSans-45" transform="scale(0.015625)"/>
      <path d="M 628 4666 
L 1259 4666 
L 1259 0 
L 628 0 
L 628 4666 
z
" id="DejaVuSans-49" transform="scale(0.015625)"/>
     </defs>
     <use xlink:href="#DejaVuSans-4d"/>
     <use x="86.279297" xlink:href="#DejaVuSans-65"/>
     <use x="147.802734" xlink:href="#DejaVuSans-74"/>
     <use x="187.011719" xlink:href="#DejaVuSans-68"/>
     <use x="250.390625" xlink:href="#DejaVuSans-6f"/>
     <use x="311.572266" xlink:href="#DejaVuSans-64"/>
     <use x="375.048828" xlink:href="#DejaVuSans-20"/>
     <use x="406.835938" xlink:href="#DejaVuSans-3a"/>
     <use x="440.527344" xlink:href="#DejaVuSans-20"/>
     <use x="472.314453" xlink:href="#DejaVuSans-45"/>
     <use x="535.498047" xlink:href="#DejaVuSans-49"/>
    </g>
   </g>
   <g id="text_17">
    <!-- Iter=5 -->
    <g transform="translate(71.985124 226.632)scale(0.12 -0.12)">
     <defs>
      <path d="M 2631 2963 
Q 2534 3019 2420 3045 
Q 2306 3072 2169 3072 
Q 1681 3072 1420 2755 
Q 1159 2438 1159 1844 
L 1159 0 
L 581 0 
L 581 3500 
L 1159 3500 
L 1159 2956 
Q 1341 3275 1631 3429 
Q 1922 3584 2338 3584 
Q 2397 3584 2469 3576 
Q 2541 3569 2628 3553 
L 2631 2963 
z
" id="DejaVuSans-72" transform="scale(0.015625)"/>
      <path d="M 678 2906 
L 4684 2906 
L 4684 2381 
L 678 2381 
L 678 2906 
z
M 678 1631 
L 4684 1631 
L 4684 1100 
L 678 1100 
L 678 1631 
z
" id="DejaVuSans-3d" transform="scale(0.015625)"/>
     </defs>
     <use xlink:href="#DejaVuSans-49"/>
     <use x="29.492188" xlink:href="#DejaVuSans-74"/>
     <use x="68.701172" xlink:href="#DejaVuSans-65"/>
     <use x="130.224609" xlink:href="#DejaVuSans-72"/>
     <use x="171.337891" xlink:href="#DejaVuSans-3d"/>
     <use x="255.126953" xlink:href="#DejaVuSans-35"/>
    </g>
   </g>
   <g id="legend_1">
    <g id="patch_7">
     <path d="M 144.327812 140.235625 
L 298.472188 140.235625 
Q 300.672188 140.235625 300.672188 138.035625 
L 300.672188 42.26 
Q 300.672188 40.06 298.472188 40.06 
L 144.327812 40.06 
Q 142.127813 40.06 142.127813 42.26 
L 142.127813 138.035625 
Q 142.127813 140.235625 144.327812 140.235625 
z
" style="fill:#ffffff;opacity:0.8;stroke:#cccccc;stroke-linejoin:miter;"/>
    </g>
    <g id="line2d_18">
     <path d="M 146.527813 48.968281 
L 168.527813 48.968281 
" style="fill:none;stroke:#0000ff;stroke-linecap:square;stroke-width:2;"/>
    </g>
    <g id="line2d_19"/>
    <g id="text_18">
     <!-- ture function -->
     <g transform="translate(177.327813 52.818281)scale(0.11 -0.11)">
      <defs>
       <path d="M 544 1381 
L 544 3500 
L 1119 3500 
L 1119 1403 
Q 1119 906 1312 657 
Q 1506 409 1894 409 
Q 2359 409 2629 706 
Q 2900 1003 2900 1516 
L 2900 3500 
L 3475 3500 
L 3475 0 
L 2900 0 
L 2900 538 
Q 2691 219 2414 64 
Q 2138 -91 1772 -91 
Q 1169 -91 856 284 
Q 544 659 544 1381 
z
M 1991 3584 
L 1991 3584 
z
" id="DejaVuSans-75" transform="scale(0.015625)"/>
       <path d="M 2375 4863 
L 2375 4384 
L 1825 4384 
Q 1516 4384 1395 4259 
Q 1275 4134 1275 3809 
L 1275 3500 
L 2222 3500 
L 2222 3053 
L 1275 3053 
L 1275 0 
L 697 0 
L 697 3053 
L 147 3053 
L 147 3500 
L 697 3500 
L 697 3744 
Q 697 4328 969 4595 
Q 1241 4863 1831 4863 
L 2375 4863 
z
" id="DejaVuSans-66" transform="scale(0.015625)"/>
       <path d="M 3513 2113 
L 3513 0 
L 2938 0 
L 2938 2094 
Q 2938 2591 2744 2837 
Q 2550 3084 2163 3084 
Q 1697 3084 1428 2787 
Q 1159 2491 1159 1978 
L 1159 0 
L 581 0 
L 581 3500 
L 1159 3500 
L 1159 2956 
Q 1366 3272 1645 3428 
Q 1925 3584 2291 3584 
Q 2894 3584 3203 3211 
Q 3513 2838 3513 2113 
z
" id="DejaVuSans-6e" transform="scale(0.015625)"/>
       <path d="M 3122 3366 
L 3122 2828 
Q 2878 2963 2633 3030 
Q 2388 3097 2138 3097 
Q 1578 3097 1268 2742 
Q 959 2388 959 1747 
Q 959 1106 1268 751 
Q 1578 397 2138 397 
Q 2388 397 2633 464 
Q 2878 531 3122 666 
L 3122 134 
Q 2881 22 2623 -34 
Q 2366 -91 2075 -91 
Q 1284 -91 818 406 
Q 353 903 353 1747 
Q 353 2603 823 3093 
Q 1294 3584 2113 3584 
Q 2378 3584 2631 3529 
Q 2884 3475 3122 3366 
z
" id="DejaVuSans-63" transform="scale(0.015625)"/>
       <path d="M 603 3500 
L 1178 3500 
L 1178 0 
L 603 0 
L 603 3500 
z
M 603 4863 
L 1178 4863 
L 1178 4134 
L 603 4134 
L 603 4863 
z
" id="DejaVuSans-69" transform="scale(0.015625)"/>
      </defs>
      <use xlink:href="#DejaVuSans-74"/>
      <use x="39.208984" xlink:href="#DejaVuSans-75"/>
      <use x="102.587891" xlink:href="#DejaVuSans-72"/>
      <use x="141.451172" xlink:href="#DejaVuSans-65"/>
      <use x="202.974609" xlink:href="#DejaVuSans-20"/>
      <use x="234.761719" xlink:href="#DejaVuSans-66"/>
      <use x="269.966797" xlink:href="#DejaVuSans-75"/>
      <use x="333.345703" xlink:href="#DejaVuSans-6e"/>
      <use x="396.724609" xlink:href="#DejaVuSans-63"/>
      <use x="451.705078" xlink:href="#DejaVuSans-74"/>
      <use x="490.914062" xlink:href="#DejaVuSans-69"/>
      <use x="518.697266" xlink:href="#DejaVuSans-6f"/>
      <use x="579.878906" xlink:href="#DejaVuSans-6e"/>
     </g>
    </g>
    <g id="line2d_20">
     <path d="M 146.527813 65.114219 
L 168.527813 65.114219 
" style="fill:none;stroke:#000000;stroke-dasharray:7.4,3.2;stroke-dashoffset:0;stroke-width:2;"/>
    </g>
    <g id="line2d_21"/>
    <g id="text_19">
     <!-- predicted function -->
     <g transform="translate(177.327813 68.964219)scale(0.11 -0.11)">
      <defs>
       <path d="M 1159 525 
L 1159 -1331 
L 581 -1331 
L 581 3500 
L 1159 3500 
L 1159 2969 
Q 1341 3281 1617 3432 
Q 1894 3584 2278 3584 
Q 2916 3584 3314 3078 
Q 3713 2572 3713 1747 
Q 3713 922 3314 415 
Q 2916 -91 2278 -91 
Q 1894 -91 1617 61 
Q 1341 213 1159 525 
z
M 3116 1747 
Q 3116 2381 2855 2742 
Q 2594 3103 2138 3103 
Q 1681 3103 1420 2742 
Q 1159 2381 1159 1747 
Q 1159 1113 1420 752 
Q 1681 391 2138 391 
Q 2594 391 2855 752 
Q 3116 1113 3116 1747 
z
" id="DejaVuSans-70" transform="scale(0.015625)"/>
      </defs>
      <use xlink:href="#DejaVuSans-70"/>
      <use x="63.476562" xlink:href="#DejaVuSans-72"/>
      <use x="102.339844" xlink:href="#DejaVuSans-65"/>
      <use x="163.863281" xlink:href="#DejaVuSans-64"/>
      <use x="227.339844" xlink:href="#DejaVuSans-69"/>
      <use x="255.123047" xlink:href="#DejaVuSans-63"/>
      <use x="310.103516" xlink:href="#DejaVuSans-74"/>
      <use x="349.3125" xlink:href="#DejaVuSans-65"/>
      <use x="410.835938" xlink:href="#DejaVuSans-64"/>
      <use x="474.3125" xlink:href="#DejaVuSans-20"/>
      <use x="506.099609" xlink:href="#DejaVuSans-66"/>
      <use x="541.304688" xlink:href="#DejaVuSans-75"/>
      <use x="604.683594" xlink:href="#DejaVuSans-6e"/>
      <use x="668.0625" xlink:href="#DejaVuSans-63"/>
      <use x="723.042969" xlink:href="#DejaVuSans-74"/>
      <use x="762.251953" xlink:href="#DejaVuSans-69"/>
      <use x="790.035156" xlink:href="#DejaVuSans-6f"/>
      <use x="851.216797" xlink:href="#DejaVuSans-6e"/>
     </g>
    </g>
    <g id="line2d_22">
     <path d="M 146.527813 81.260156 
L 168.527813 81.260156 
" style="fill:none;stroke:#008000;stroke-dasharray:3.7,1.6;stroke-dashoffset:0;"/>
    </g>
    <g id="line2d_23"/>
    <g id="text_20">
     <!--  ± Sn(x) -->
     <g transform="translate(177.327813 85.110156)scale(0.11 -0.11)">
      <defs>
       <path d="M 2944 4013 
L 2944 2803 
L 4684 2803 
L 4684 2272 
L 2944 2272 
L 2944 1063 
L 2419 1063 
L 2419 2272 
L 678 2272 
L 678 2803 
L 2419 2803 
L 2419 4013 
L 2944 4013 
z
M 678 531 
L 4684 531 
L 4684 0 
L 678 0 
L 678 531 
z
" id="DejaVuSans-b1" transform="scale(0.015625)"/>
       <path d="M 3425 4513 
L 3425 3897 
Q 3066 4069 2747 4153 
Q 2428 4238 2131 4238 
Q 1616 4238 1336 4038 
Q 1056 3838 1056 3469 
Q 1056 3159 1242 3001 
Q 1428 2844 1947 2747 
L 2328 2669 
Q 3034 2534 3370 2195 
Q 3706 1856 3706 1288 
Q 3706 609 3251 259 
Q 2797 -91 1919 -91 
Q 1588 -91 1214 -16 
Q 841 59 441 206 
L 441 856 
Q 825 641 1194 531 
Q 1563 422 1919 422 
Q 2459 422 2753 634 
Q 3047 847 3047 1241 
Q 3047 1584 2836 1778 
Q 2625 1972 2144 2069 
L 1759 2144 
Q 1053 2284 737 2584 
Q 422 2884 422 3419 
Q 422 4038 858 4394 
Q 1294 4750 2059 4750 
Q 2388 4750 2728 4690 
Q 3069 4631 3425 4513 
z
" id="DejaVuSans-53" transform="scale(0.015625)"/>
       <path d="M 1984 4856 
Q 1566 4138 1362 3434 
Q 1159 2731 1159 2009 
Q 1159 1288 1364 580 
Q 1569 -128 1984 -844 
L 1484 -844 
Q 1016 -109 783 600 
Q 550 1309 550 2009 
Q 550 2706 781 3412 
Q 1013 4119 1484 4856 
L 1984 4856 
z
" id="DejaVuSans-28" transform="scale(0.015625)"/>
       <path d="M 513 4856 
L 1013 4856 
Q 1481 4119 1714 3412 
Q 1947 2706 1947 2009 
Q 1947 1309 1714 600 
Q 1481 -109 1013 -844 
L 513 -844 
Q 928 -128 1133 580 
Q 1338 1288 1338 2009 
Q 1338 2731 1133 3434 
Q 928 4138 513 4856 
z
" id="DejaVuSans-29" transform="scale(0.015625)"/>
      </defs>
      <use xlink:href="#DejaVuSans-20"/>
      <use x="31.787109" xlink:href="#DejaVuSans-b1"/>
      <use x="115.576172" xlink:href="#DejaVuSans-20"/>
      <use x="147.363281" xlink:href="#DejaVuSans-53"/>
      <use x="210.839844" xlink:href="#DejaVuSans-6e"/>
      <use x="274.21875" xlink:href="#DejaVuSans-28"/>
      <use x="313.232422" xlink:href="#DejaVuSans-78"/>
      <use x="372.412109" xlink:href="#DejaVuSans-29"/>
     </g>
    </g>
    <g id="line2d_24">
     <path d="M 146.527813 97.406094 
L 168.527813 97.406094 
" style="fill:none;stroke:#bfbf00;stroke-dasharray:7.4,3.2;stroke-dashoffset:0;stroke-width:2;"/>
    </g>
    <g id="line2d_25"/>
    <g id="text_21">
     <!-- EI(x) -->
     <g transform="translate(177.327813 101.256094)scale(0.11 -0.11)">
      <use xlink:href="#DejaVuSans-45"/>
      <use x="63.183594" xlink:href="#DejaVuSans-49"/>
      <use x="92.675781" xlink:href="#DejaVuSans-28"/>
      <use x="131.689453" xlink:href="#DejaVuSans-78"/>
      <use x="190.869141" xlink:href="#DejaVuSans-29"/>
     </g>
    </g>
    <g id="PathCollection_2">
     <defs>
      <path d="M 0 3.535534 
C 0.937635 3.535534 1.836992 3.163008 2.5 2.5 
C 3.163008 1.836992 3.535534 0.937635 3.535534 0 
C 3.535534 -0.937635 3.163008 -1.836992 2.5 -2.5 
C 1.836992 -3.163008 0.937635 -3.535534 0 -3.535534 
C -0.937635 -3.535534 -1.836992 -3.163008 -2.5 -2.5 
C -3.163008 -1.836992 -3.535534 -0.937635 -3.535534 0 
C -3.535534 0.937635 -3.163008 1.836992 -2.5 2.5 
C -1.836992 3.163008 -0.937635 3.535534 0 3.535534 
z
" id="m3385cb50d8" style="stroke:#000000;"/>
     </defs>
     <g>
      <use style="fill:#ff0000;stroke:#000000;" x="157.527813" xlink:href="#m3385cb50d8" y="114.514531"/>
     </g>
    </g>
    <g id="text_22">
     <!-- training data -->
     <g transform="translate(177.327813 117.402031)scale(0.11 -0.11)">
      <defs>
       <path d="M 2194 1759 
Q 1497 1759 1228 1600 
Q 959 1441 959 1056 
Q 959 750 1161 570 
Q 1363 391 1709 391 
Q 2188 391 2477 730 
Q 2766 1069 2766 1631 
L 2766 1759 
L 2194 1759 
z
M 3341 1997 
L 3341 0 
L 2766 0 
L 2766 531 
Q 2569 213 2275 61 
Q 1981 -91 1556 -91 
Q 1019 -91 701 211 
Q 384 513 384 1019 
Q 384 1609 779 1909 
Q 1175 2209 1959 2209 
L 2766 2209 
L 2766 2266 
Q 2766 2663 2505 2880 
Q 2244 3097 1772 3097 
Q 1472 3097 1187 3025 
Q 903 2953 641 2809 
L 641 3341 
Q 956 3463 1253 3523 
Q 1550 3584 1831 3584 
Q 2591 3584 2966 3190 
Q 3341 2797 3341 1997 
z
" id="DejaVuSans-61" transform="scale(0.015625)"/>
       <path d="M 2906 1791 
Q 2906 2416 2648 2759 
Q 2391 3103 1925 3103 
Q 1463 3103 1205 2759 
Q 947 2416 947 1791 
Q 947 1169 1205 825 
Q 1463 481 1925 481 
Q 2391 481 2648 825 
Q 2906 1169 2906 1791 
z
M 3481 434 
Q 3481 -459 3084 -895 
Q 2688 -1331 1869 -1331 
Q 1566 -1331 1297 -1286 
Q 1028 -1241 775 -1147 
L 775 -588 
Q 1028 -725 1275 -790 
Q 1522 -856 1778 -856 
Q 2344 -856 2625 -561 
Q 2906 -266 2906 331 
L 2906 616 
Q 2728 306 2450 153 
Q 2172 0 1784 0 
Q 1141 0 747 490 
Q 353 981 353 1791 
Q 353 2603 747 3093 
Q 1141 3584 1784 3584 
Q 2172 3584 2450 3431 
Q 2728 3278 2906 2969 
L 2906 3500 
L 3481 3500 
L 3481 434 
z
" id="DejaVuSans-67" transform="scale(0.015625)"/>
      </defs>
      <use xlink:href="#DejaVuSans-74"/>
      <use x="39.208984" xlink:href="#DejaVuSans-72"/>
      <use x="80.322266" xlink:href="#DejaVuSans-61"/>
      <use x="141.601562" xlink:href="#DejaVuSans-69"/>
      <use x="169.384766" xlink:href="#DejaVuSans-6e"/>
      <use x="232.763672" xlink:href="#DejaVuSans-69"/>
      <use x="260.546875" xlink:href="#DejaVuSans-6e"/>
      <use x="323.925781" xlink:href="#DejaVuSans-67"/>
      <use x="387.402344" xlink:href="#DejaVuSans-20"/>
      <use x="419.189453" xlink:href="#DejaVuSans-64"/>
      <use x="482.666016" xlink:href="#DejaVuSans-61"/>
      <use x="543.945312" xlink:href="#DejaVuSans-74"/>
      <use x="583.154297" xlink:href="#DejaVuSans-61"/>
     </g>
    </g>
    <g id="PathCollection_3">
     <g>
      <use style="fill:#ff0000;stroke:#ff0000;stroke-width:8;" x="157.527813" xlink:href="#mc53b1f6f95" y="130.660469"/>
     </g>
    </g>
    <g id="text_23">
     <!-- recommended datum -->
     <g transform="translate(177.327813 133.547969)scale(0.11 -0.11)">
      <defs>
       <path d="M 3328 2828 
Q 3544 3216 3844 3400 
Q 4144 3584 4550 3584 
Q 5097 3584 5394 3201 
Q 5691 2819 5691 2113 
L 5691 0 
L 5113 0 
L 5113 2094 
Q 5113 2597 4934 2840 
Q 4756 3084 4391 3084 
Q 3944 3084 3684 2787 
Q 3425 2491 3425 1978 
L 3425 0 
L 2847 0 
L 2847 2094 
Q 2847 2600 2669 2842 
Q 2491 3084 2119 3084 
Q 1678 3084 1418 2786 
Q 1159 2488 1159 1978 
L 1159 0 
L 581 0 
L 581 3500 
L 1159 3500 
L 1159 2956 
Q 1356 3278 1631 3431 
Q 1906 3584 2284 3584 
Q 2666 3584 2933 3390 
Q 3200 3197 3328 2828 
z
" id="DejaVuSans-6d" transform="scale(0.015625)"/>
      </defs>
      <use xlink:href="#DejaVuSans-72"/>
      <use x="38.863281" xlink:href="#DejaVuSans-65"/>
      <use x="100.386719" xlink:href="#DejaVuSans-63"/>
      <use x="155.367188" xlink:href="#DejaVuSans-6f"/>
      <use x="216.548828" xlink:href="#DejaVuSans-6d"/>
      <use x="313.960938" xlink:href="#DejaVuSans-6d"/>
      <use x="411.373047" xlink:href="#DejaVuSans-65"/>
      <use x="472.896484" xlink:href="#DejaVuSans-6e"/>
      <use x="536.275391" xlink:href="#DejaVuSans-64"/>
      <use x="599.751953" xlink:href="#DejaVuSans-65"/>
      <use x="661.275391" xlink:href="#DejaVuSans-64"/>
      <use x="724.751953" xlink:href="#DejaVuSans-20"/>
      <use x="756.539062" xlink:href="#DejaVuSans-64"/>
      <use x="820.015625" xlink:href="#DejaVuSans-61"/>
      <use x="881.294922" xlink:href="#DejaVuSans-74"/>
      <use x="920.503906" xlink:href="#DejaVuSans-75"/>
      <use x="983.882812" xlink:href="#DejaVuSans-6d"/>
     </g>
    </g>
   </g>
   <g id="line2d_26">
    <path clip-path="url(#p08f3bfbb2e)" d="M 69.218182 142.352968 
L 71.985124 141.674986 
L 74.752066 141.615288 
L 77.519008 142.207906 
L 80.28595 143.465859 
L 83.052893 145.37941 
L 85.819835 147.915456 
L 88.586777 151.018122 
L 91.353719 154.610607 
L 94.120661 158.598173 
L 96.887603 162.872156 
L 99.654545 167.314762 
L 102.421488 171.804358 
L 105.18843 176.22095 
L 107.955372 180.451509 
L 110.722314 184.394824 
L 113.489256 187.965598 
L 116.256198 191.097559 
L 119.02314 193.745435 
L 121.790083 195.885701 
L 124.557025 197.516134 
L 127.323967 198.654237 
L 130.090909 199.334719 
L 132.857851 199.606218 
L 135.624793 199.527545 
L 138.391736 199.163698 
L 141.158678 198.581924 
L 143.92562 197.848059 
L 146.692562 197.023365 
L 149.459504 196.162005 
L 152.226446 195.309268 
L 154.993388 194.50057 
L 157.760331 193.76122 
L 160.527273 193.106879 
L 163.294215 192.544598 
L 166.061157 192.074295 
L 168.828099 191.690513 
L 171.595041 191.384296 
L 174.361983 191.14502 
L 177.128926 190.962064 
L 179.895868 190.826197 
L 182.66281 190.730612 
L 185.429752 190.671574 
L 188.196694 190.648673 
L 190.963636 190.66471 
L 193.730579 190.725279 
L 196.497521 190.838105 
L 199.264463 191.012234 
L 202.031405 191.257159 
L 204.798347 191.581972 
L 207.565289 191.994605 
L 210.332231 192.501231 
L 213.099174 193.105862 
L 215.866116 193.810161 
L 218.633058 194.613471 
L 221.4 195.513041 
L 224.166942 196.504419 
L 226.933884 197.581952 
L 229.700826 198.739355 
L 232.467769 199.970277 
L 235.234711 201.268802 
L 238.001653 202.629843 
L 240.768595 204.049374 
L 243.535537 205.524458 
L 246.302479 207.053059 
L 249.069421 208.633618 
L 251.836364 210.264401 
L 254.603306 211.942641 
L 257.370248 213.663501 
L 260.13719 215.41891 
L 262.904132 217.196324 
L 265.671074 218.977491 
L 268.438017 220.737298 
L 271.204959 222.442777 
L 273.971901 224.052381 
L 276.738843 225.515617 
L 279.505785 226.773129 
L 282.272727 227.757328 
L 285.039669 228.393625 
L 287.806612 228.602332 
L 290.573554 228.301232 
L 293.340496 227.408802 
L 296.107438 225.848001 
L 298.87438 223.550512 
L 301.641322 220.461228 
L 304.408264 216.542766 
L 307.175207 211.77972 
L 309.942149 206.182355 
L 312.709091 199.789428 
L 315.476033 192.669856 
L 318.242975 184.922978 
L 321.009917 176.677254 
L 323.77686 168.087324 
L 326.543802 159.329456 
L 329.310744 150.595551 
L 332.077686 142.085968 
L 334.844628 134.001544 
L 337.61157 126.535253 
L 340.378512 119.864003 
L 343.145455 114.141073 
L 345.912397 109.489642 
L 348.679339 105.997834 
L 351.446281 103.715544 
L 354.213223 102.653235 
L 356.980165 102.782729 
L 359.747107 104.039887 
L 362.51405 106.328947 
L 365.280992 109.528188 
L 368.047934 113.496521 
L 370.814876 118.080554 
L 373.581818 123.121696 
" style="fill:none;stroke:#000000;stroke-dasharray:7.4,3.2;stroke-dashoffset:0;stroke-width:2;"/>
   </g>
   <g id="PathCollection_4">
    <g clip-path="url(#p08f3bfbb2e)">
     <use style="fill:#ff0000;stroke:#000000;" x="83.052893" xlink:href="#m3385cb50d8" y="129.399309"/>
     <use style="fill:#ff0000;stroke:#000000;" x="96.887603" xlink:href="#m3385cb50d8" y="162.429541"/>
     <use style="fill:#ff0000;stroke:#000000;" x="110.722314" xlink:href="#m3385cb50d8" y="193.170209"/>
     <use style="fill:#ff0000;stroke:#000000;" x="124.557025" xlink:href="#m3385cb50d8" y="199.248575"/>
     <use style="fill:#ff0000;stroke:#000000;" x="138.391736" xlink:href="#m3385cb50d8" y="199.347548"/>
     <use style="fill:#ff0000;stroke:#000000;" x="152.226446" xlink:href="#m3385cb50d8" y="191.611971"/>
     <use style="fill:#ff0000;stroke:#000000;" x="166.061157" xlink:href="#m3385cb50d8" y="193.66847"/>
     <use style="fill:#ff0000;stroke:#000000;" x="179.895868" xlink:href="#m3385cb50d8" y="193.283098"/>
     <use style="fill:#ff0000;stroke:#000000;" x="193.730579" xlink:href="#m3385cb50d8" y="188.924027"/>
     <use style="fill:#ff0000;stroke:#000000;" x="318.242975" xlink:href="#m3385cb50d8" y="199.289596"/>
     <use style="fill:#ff0000;stroke:#000000;" x="332.077686" xlink:href="#m3385cb50d8" y="145.37007"/>
     <use style="fill:#ff0000;stroke:#000000;" x="345.912397" xlink:href="#m3385cb50d8" y="78.407322"/>
     <use style="fill:#ff0000;stroke:#000000;" x="301.641322" xlink:href="#m3385cb50d8" y="209.239805"/>
     <use style="fill:#ff0000;stroke:#000000;" x="298.87438" xlink:href="#m3385cb50d8" y="234.398997"/>
     <use style="fill:#ff0000;stroke:#000000;" x="276.738843" xlink:href="#m3385cb50d8" y="225.228618"/>
     <use style="fill:#ff0000;stroke:#000000;" x="246.302479" xlink:href="#m3385cb50d8" y="209.817943"/>
     <use style="fill:#ff0000;stroke:#000000;" x="285.039669" xlink:href="#m3385cb50d8" y="232.692338"/>
    </g>
   </g>
  </g>
 </g>
 <defs>
  <clipPath id="p08f3bfbb2e">
   <rect height="217.44" width="334.8" x="54" y="34.56"/>
  </clipPath>
 </defs>
</svg>
