<?xml version="1.0" encoding="utf-8" standalone="no"?>
<!DOCTYPE svg PUBLIC "-//W3C//DTD SVG 1.1//EN"
  "http://www.w3.org/Graphics/SVG/1.1/DTD/svg11.dtd">
<svg height="288pt" version="1.1" viewBox="0 0 432 288" width="432pt" xmlns="http://www.w3.org/2000/svg" xmlns:xlink="http://www.w3.org/1999/xlink">
 <metadata>
  <rdf:RDF xmlns:cc="http://creativecommons.org/ns#" xmlns:dc="http://purl.org/dc/elements/1.1/" xmlns:rdf="http://www.w3.org/1999/02/22-rdf-syntax-ns#">
   <cc:Work>
    <dc:type rdf:resource="http://purl.org/dc/dcmitype/StillImage"/>
    <dc:date>2022-08-01T21:34:30.495328</dc:date>
    <dc:format>image/svg+xml</dc:format>
    <dc:creator>
     <cc:Agent>
      <dc:title>Matplotlib v3.4.3, https://matplotlib.org/</dc:title>
     </cc:Agent>
    </dc:creator>
   </cc:Work>
  </rdf:RDF>
 </metadata>
 <defs>
  <style type="text/css">*{stroke-linecap:butt;stroke-linejoin:round;}</style>
 </defs>
 <g id="figure_1">
  <g id="patch_1">
   <path d="M 0 288 
L 432 288 
L 432 0 
L 0 0 
z
" style="fill:none;"/>
  </g>
  <g id="axes_1">
   <g id="patch_2">
    <path d="M 54 252 
L 388.8 252 
L 388.8 34.56 
L 54 34.56 
z
" style="fill:#ffffff;"/>
   </g>
   <g id="PolyCollection_1">
    <defs>
     <path d="M 69.218182 -165.561622 
L 69.218182 -112.579711 
L 71.985124 -115.359639 
L 74.752066 -117.617395 
L 77.519008 -119.229203 
L 80.28595 -120.090498 
L 83.052893 -120.127089 
L 85.819835 -119.306381 
L 88.586777 -117.646175 
L 91.353719 -115.217507 
L 94.120661 -112.138921 
L 96.887603 -108.562932 
L 99.654545 -104.658841 
L 102.421488 -100.596759 
L 105.18843 -96.535623 
L 107.955372 -92.615606 
L 110.722314 -88.953979 
L 113.489256 -85.6433 
L 116.256198 -82.751053 
L 119.02314 -80.320205 
L 121.790083 -78.370415 
L 124.557025 -76.899777 
L 127.323967 -75.887114 
L 130.090909 -75.294814 
L 132.857851 -75.072193 
L 135.624793 -75.159279 
L 138.391736 -75.49083 
L 141.158678 -76.000345 
L 143.92562 -76.623833 
L 146.692562 -77.30313 
L 149.459504 -77.988642 
L 152.226446 -78.641385 
L 154.993388 -79.234279 
L 157.760331 -79.752584 
L 160.527273 -80.19337 
L 163.294215 -80.56388 
L 166.061157 -80.878703 
L 168.828099 -81.155761 
L 171.595041 -81.411366 
L 174.361983 -81.654814 
L 177.128926 -81.883397 
L 179.895868 -82.079096 
L 182.66281 -82.208566 
L 185.429752 -82.227814 
L 188.196694 -82.091679 
L 190.963636 -81.765699 
L 193.730579 -81.235876 
L 196.497521 -80.512367 
L 199.264463 -79.626417 
L 202.031405 -78.623065 
L 204.798347 -77.55298 
L 207.565289 -76.465577 
L 210.332231 -75.404108 
L 213.099174 -74.402596 
L 215.866116 -73.484245 
L 218.633058 -72.660971 
L 221.4 -71.933825 
L 224.166942 -71.294098 
L 226.933884 -70.724956 
L 229.700826 -70.203439 
L 232.467769 -69.702663 
L 235.234711 -69.194097 
L 238.001653 -68.649784 
L 240.768595 -68.044415 
L 243.535537 -67.357193 
L 246.302479 -66.573431 
L 249.069421 -65.685833 
L 251.836364 -64.695424 
L 254.603306 -63.612044 
L 257.370248 -62.454363 
L 260.13719 -61.249362 
L 262.904132 -60.031238 
L 265.671074 -58.839763 
L 268.438017 -57.71814 
L 271.204959 -56.710459 
L 273.971901 -55.858893 
L 276.738843 -55.200771 
L 279.505785 -54.765753 
L 282.272727 -54.573426 
L 285.039669 -54.631965 
L 287.806612 -54.939235 
L 290.573554 -55.488698 
L 293.340496 -56.28279 
L 296.107438 -57.35327 
L 298.87438 -58.779584 
L 301.641322 -60.689713 
L 304.408264 -63.236258 
L 307.175207 -66.559321 
L 309.942149 -70.754685 
L 312.709091 -75.856278 
L 315.476033 -81.831335 
L 318.242975 -88.583423 
L 321.009917 -95.959612 
L 323.77686 -103.759712 
L 326.543802 -111.746636 
L 329.310744 -119.657565 
L 332.077686 -127.216202 
L 334.844628 -134.146861 
L 337.61157 -140.190997 
L 340.378512 -145.125552 
L 343.145455 -148.78041 
L 345.912397 -151.050992 
L 348.679339 -151.903144 
L 351.446281 -151.3703 
L 354.213223 -149.545138 
L 356.980165 -146.568267 
L 359.747107 -142.61571 
L 362.51405 -137.886145 
L 365.280992 -132.588517 
L 368.047934 -126.930551 
L 370.814876 -121.108699 
L 373.581818 -115.299981 
L 373.581818 -182.314747 
L 373.581818 -182.314747 
L 370.814876 -185.935501 
L 368.047934 -189.228712 
L 365.280992 -192.041594 
L 362.51405 -194.224961 
L 359.747107 -195.642099 
L 356.980165 -196.177571 
L 354.213223 -195.745125 
L 351.446281 -194.293781 
L 348.679339 -191.811121 
L 345.912397 -188.323036 
L 343.145455 -183.889756 
L 340.378512 -178.59921 
L 337.61157 -172.560007 
L 334.844628 -165.89648 
L 332.077686 -158.746534 
L 329.310744 -151.260574 
L 326.543802 -143.598976 
L 323.77686 -135.926963 
L 321.009917 -128.407819 
L 318.242975 -121.19641 
L 315.476033 -114.4349 
L 312.709091 -108.251647 
L 309.942149 -102.763352 
L 307.175207 -98.079438 
L 304.408264 -94.306264 
L 301.641322 -91.546828 
L 298.87438 -89.890359 
L 296.107438 -89.389419 
L 293.340496 -90.032684 
L 290.573554 -91.731225 
L 287.806612 -94.329244 
L 285.039669 -97.631627 
L 282.272727 -101.432448 
L 279.505785 -105.535335 
L 276.738843 -109.765099 
L 273.971901 -113.973297 
L 271.204959 -118.04015 
L 268.438017 -121.874235 
L 265.671074 -125.410698 
L 262.904132 -128.608434 
L 260.13719 -131.446526 
L 257.370248 -133.920256 
L 254.603306 -136.036948 
L 251.836364 -137.811908 
L 249.069421 -139.264679 
L 246.302479 -140.415779 
L 243.535537 -141.28407 
L 240.768595 -141.884817 
L 238.001653 -142.228524 
L 235.234711 -142.320529 
L 232.467769 -142.161391 
L 229.700826 -141.748006 
L 226.933884 -141.075385 
L 224.166942 -140.138967 
L 221.4 -138.937286 
L 218.633058 -137.474768 
L 215.866116 -135.764403 
L 213.099174 -133.830018 
L 210.332231 -131.707868 
L 207.565289 -129.447292 
L 204.798347 -127.110157 
L 202.031405 -124.768794 
L 199.264463 -122.502078 
L 196.497521 -120.389314 
L 193.730579 -118.501849 
L 190.963636 -116.893238 
L 188.196694 -115.590247 
L 185.429752 -114.588217 
L 182.66281 -113.853509 
L 179.895868 -113.332509 
L 177.128926 -112.963397 
L 174.361983 -112.686285 
L 171.595041 -112.449398 
L 168.828099 -112.211393 
L 166.061157 -111.941158 
L 163.294215 -111.616543 
L 160.527273 -111.223104 
L 157.760331 -110.753419 
L 154.993388 -110.207186 
L 152.226446 -109.591968 
L 149.459504 -108.924278 
L 146.692562 -108.230603 
L 143.92562 -107.547949 
L 141.158678 -106.92362 
L 138.391736 -106.414037 
L 135.624793 -106.082553 
L 132.857851 -105.996309 
L 130.090909 -106.222287 
L 127.323967 -106.82275 
L 124.557025 -107.850359 
L 121.790083 -109.343322 
L 119.02314 -111.321041 
L 116.256198 -113.780787 
L 113.489256 -116.695962 
L 110.722314 -120.016434 
L 107.955372 -123.671239 
L 105.18843 -127.573656 
L 102.421488 -131.62823 
L 99.654545 -135.738841 
L 96.887603 -139.816345 
L 94.120661 -143.783865 
L 91.353719 -147.57791 
L 88.586777 -151.144743 
L 85.819835 -154.433921 
L 83.052893 -157.393063 
L 80.28595 -159.967449 
L 77.519008 -162.104879 
L 74.752066 -163.763161 
L 71.985124 -164.916904 
L 69.218182 -165.561622 
z
" id="mdc60e8a323" style="stroke:#add8e6;stroke-opacity:0.2;"/>
    </defs>
    <g clip-path="url(#p7c61852688)">
     <use style="fill:#add8e6;fill-opacity:0.2;stroke:#add8e6;stroke-opacity:0.2;" x="0" xlink:href="#mdc60e8a323" y="288"/>
    </g>
   </g>
   <g id="PathCollection_1">
    <defs>
     <path d="M 0 0.612372 
C 0.162403 0.612372 0.318176 0.547849 0.433013 0.433013 
C 0.547849 0.318176 0.612372 0.162403 0.612372 0 
C 0.612372 -0.162403 0.547849 -0.318176 0.433013 -0.433013 
C 0.318176 -0.547849 0.162403 -0.612372 0 -0.612372 
C -0.162403 -0.612372 -0.318176 -0.547849 -0.433013 -0.433013 
C -0.547849 -0.318176 -0.612372 -0.162403 -0.612372 0 
C -0.612372 0.162403 -0.547849 0.318176 -0.433013 0.433013 
C -0.318176 0.547849 -0.162403 0.612372 0 0.612372 
z
" id="m652d9f2e95" style="stroke:#ff0000;stroke-width:8;"/>
    </defs>
    <g clip-path="url(#p7c61852688)">
     <use style="fill:#ff0000;stroke:#ff0000;stroke-width:8;" x="273.971901" xlink:href="#m652d9f2e95" y="223.203379"/>
    </g>
   </g>
   <g id="matplotlib.axis_1">
    <g id="xtick_1">
     <g id="line2d_1">
      <defs>
       <path d="M 0 0 
L 0 3.5 
" id="ma4ab76e6d6" style="stroke:#000000;stroke-width:0.8;"/>
      </defs>
      <g>
       <use style="stroke:#000000;stroke-width:0.8;" x="69.218182" xlink:href="#ma4ab76e6d6" y="252"/>
      </g>
     </g>
     <g id="text_1">
      <!-- 0 -->
      <g transform="translate(66.036932 266.598437)scale(0.1 -0.1)">
       <defs>
        <path d="M 2034 4250 
Q 1547 4250 1301 3770 
Q 1056 3291 1056 2328 
Q 1056 1369 1301 889 
Q 1547 409 2034 409 
Q 2525 409 2770 889 
Q 3016 1369 3016 2328 
Q 3016 3291 2770 3770 
Q 2525 4250 2034 4250 
z
M 2034 4750 
Q 2819 4750 3233 4129 
Q 3647 3509 3647 2328 
Q 3647 1150 3233 529 
Q 2819 -91 2034 -91 
Q 1250 -91 836 529 
Q 422 1150 422 2328 
Q 422 3509 836 4129 
Q 1250 4750 2034 4750 
z
" id="DejaVuSans-30" transform="scale(0.015625)"/>
       </defs>
       <use xlink:href="#DejaVuSans-30"/>
      </g>
     </g>
    </g>
    <g id="xtick_2">
     <g id="line2d_2">
      <g>
       <use style="stroke:#000000;stroke-width:0.8;" x="124.557025" xlink:href="#ma4ab76e6d6" y="252"/>
      </g>
     </g>
     <g id="text_2">
      <!-- 2 -->
      <g transform="translate(121.375775 266.598437)scale(0.1 -0.1)">
       <defs>
        <path d="M 1228 531 
L 3431 531 
L 3431 0 
L 469 0 
L 469 531 
Q 828 903 1448 1529 
Q 2069 2156 2228 2338 
Q 2531 2678 2651 2914 
Q 2772 3150 2772 3378 
Q 2772 3750 2511 3984 
Q 2250 4219 1831 4219 
Q 1534 4219 1204 4116 
Q 875 4013 500 3803 
L 500 4441 
Q 881 4594 1212 4672 
Q 1544 4750 1819 4750 
Q 2544 4750 2975 4387 
Q 3406 4025 3406 3419 
Q 3406 3131 3298 2873 
Q 3191 2616 2906 2266 
Q 2828 2175 2409 1742 
Q 1991 1309 1228 531 
z
" id="DejaVuSans-32" transform="scale(0.015625)"/>
       </defs>
       <use xlink:href="#DejaVuSans-32"/>
      </g>
     </g>
    </g>
    <g id="xtick_3">
     <g id="line2d_3">
      <g>
       <use style="stroke:#000000;stroke-width:0.8;" x="179.895868" xlink:href="#ma4ab76e6d6" y="252"/>
      </g>
     </g>
     <g id="text_3">
      <!-- 4 -->
      <g transform="translate(176.714618 266.598437)scale(0.1 -0.1)">
       <defs>
        <path d="M 2419 4116 
L 825 1625 
L 2419 1625 
L 2419 4116 
z
M 2253 4666 
L 3047 4666 
L 3047 1625 
L 3713 1625 
L 3713 1100 
L 3047 1100 
L 3047 0 
L 2419 0 
L 2419 1100 
L 313 1100 
L 313 1709 
L 2253 4666 
z
" id="DejaVuSans-34" transform="scale(0.015625)"/>
       </defs>
       <use xlink:href="#DejaVuSans-34"/>
      </g>
     </g>
    </g>
    <g id="xtick_4">
     <g id="line2d_4">
      <g>
       <use style="stroke:#000000;stroke-width:0.8;" x="235.234711" xlink:href="#ma4ab76e6d6" y="252"/>
      </g>
     </g>
     <g id="text_4">
      <!-- 6 -->
      <g transform="translate(232.053461 266.598437)scale(0.1 -0.1)">
       <defs>
        <path d="M 2113 2584 
Q 1688 2584 1439 2293 
Q 1191 2003 1191 1497 
Q 1191 994 1439 701 
Q 1688 409 2113 409 
Q 2538 409 2786 701 
Q 3034 994 3034 1497 
Q 3034 2003 2786 2293 
Q 2538 2584 2113 2584 
z
M 3366 4563 
L 3366 3988 
Q 3128 4100 2886 4159 
Q 2644 4219 2406 4219 
Q 1781 4219 1451 3797 
Q 1122 3375 1075 2522 
Q 1259 2794 1537 2939 
Q 1816 3084 2150 3084 
Q 2853 3084 3261 2657 
Q 3669 2231 3669 1497 
Q 3669 778 3244 343 
Q 2819 -91 2113 -91 
Q 1303 -91 875 529 
Q 447 1150 447 2328 
Q 447 3434 972 4092 
Q 1497 4750 2381 4750 
Q 2619 4750 2861 4703 
Q 3103 4656 3366 4563 
z
" id="DejaVuSans-36" transform="scale(0.015625)"/>
       </defs>
       <use xlink:href="#DejaVuSans-36"/>
      </g>
     </g>
    </g>
    <g id="xtick_5">
     <g id="line2d_5">
      <g>
       <use style="stroke:#000000;stroke-width:0.8;" x="290.573554" xlink:href="#ma4ab76e6d6" y="252"/>
      </g>
     </g>
     <g id="text_5">
      <!-- 8 -->
      <g transform="translate(287.392304 266.598437)scale(0.1 -0.1)">
       <defs>
        <path d="M 2034 2216 
Q 1584 2216 1326 1975 
Q 1069 1734 1069 1313 
Q 1069 891 1326 650 
Q 1584 409 2034 409 
Q 2484 409 2743 651 
Q 3003 894 3003 1313 
Q 3003 1734 2745 1975 
Q 2488 2216 2034 2216 
z
M 1403 2484 
Q 997 2584 770 2862 
Q 544 3141 544 3541 
Q 544 4100 942 4425 
Q 1341 4750 2034 4750 
Q 2731 4750 3128 4425 
Q 3525 4100 3525 3541 
Q 3525 3141 3298 2862 
Q 3072 2584 2669 2484 
Q 3125 2378 3379 2068 
Q 3634 1759 3634 1313 
Q 3634 634 3220 271 
Q 2806 -91 2034 -91 
Q 1263 -91 848 271 
Q 434 634 434 1313 
Q 434 1759 690 2068 
Q 947 2378 1403 2484 
z
M 1172 3481 
Q 1172 3119 1398 2916 
Q 1625 2713 2034 2713 
Q 2441 2713 2670 2916 
Q 2900 3119 2900 3481 
Q 2900 3844 2670 4047 
Q 2441 4250 2034 4250 
Q 1625 4250 1398 4047 
Q 1172 3844 1172 3481 
z
" id="DejaVuSans-38" transform="scale(0.015625)"/>
       </defs>
       <use xlink:href="#DejaVuSans-38"/>
      </g>
     </g>
    </g>
    <g id="xtick_6">
     <g id="line2d_6">
      <g>
       <use style="stroke:#000000;stroke-width:0.8;" x="345.912397" xlink:href="#ma4ab76e6d6" y="252"/>
      </g>
     </g>
     <g id="text_6">
      <!-- 10 -->
      <g transform="translate(339.549897 266.598437)scale(0.1 -0.1)">
       <defs>
        <path d="M 794 531 
L 1825 531 
L 1825 4091 
L 703 3866 
L 703 4441 
L 1819 4666 
L 2450 4666 
L 2450 531 
L 3481 531 
L 3481 0 
L 794 0 
L 794 531 
z
" id="DejaVuSans-31" transform="scale(0.015625)"/>
       </defs>
       <use xlink:href="#DejaVuSans-31"/>
       <use x="63.623047" xlink:href="#DejaVuSans-30"/>
      </g>
     </g>
    </g>
    <g id="text_7">
     <!-- x -->
     <g transform="translate(217.84875 281.79625)scale(0.12 -0.12)">
      <defs>
       <path d="M 3513 3500 
L 2247 1797 
L 3578 0 
L 2900 0 
L 1881 1375 
L 863 0 
L 184 0 
L 1544 1831 
L 300 3500 
L 978 3500 
L 1906 2253 
L 2834 3500 
L 3513 3500 
z
" id="DejaVuSans-78" transform="scale(0.015625)"/>
      </defs>
      <use xlink:href="#DejaVuSans-78"/>
     </g>
    </g>
   </g>
   <g id="matplotlib.axis_2">
    <g id="ytick_1">
     <g id="line2d_7">
      <defs>
       <path d="M 0 0 
L -3.5 0 
" id="m0e162576cf" style="stroke:#000000;stroke-width:0.8;"/>
      </defs>
      <g>
       <use style="stroke:#000000;stroke-width:0.8;" x="54" xlink:href="#m0e162576cf" y="252"/>
      </g>
     </g>
     <g id="text_8">
      <!-- 3 -->
      <g transform="translate(40.6375 255.799219)scale(0.1 -0.1)">
       <defs>
        <path d="M 2597 2516 
Q 3050 2419 3304 2112 
Q 3559 1806 3559 1356 
Q 3559 666 3084 287 
Q 2609 -91 1734 -91 
Q 1441 -91 1130 -33 
Q 819 25 488 141 
L 488 750 
Q 750 597 1062 519 
Q 1375 441 1716 441 
Q 2309 441 2620 675 
Q 2931 909 2931 1356 
Q 2931 1769 2642 2001 
Q 2353 2234 1838 2234 
L 1294 2234 
L 1294 2753 
L 1863 2753 
Q 2328 2753 2575 2939 
Q 2822 3125 2822 3475 
Q 2822 3834 2567 4026 
Q 2313 4219 1838 4219 
Q 1578 4219 1281 4162 
Q 984 4106 628 3988 
L 628 4550 
Q 988 4650 1302 4700 
Q 1616 4750 1894 4750 
Q 2613 4750 3031 4423 
Q 3450 4097 3450 3541 
Q 3450 3153 3228 2886 
Q 3006 2619 2597 2516 
z
" id="DejaVuSans-33" transform="scale(0.015625)"/>
       </defs>
       <use xlink:href="#DejaVuSans-33"/>
      </g>
     </g>
    </g>
    <g id="ytick_2">
     <g id="line2d_8">
      <g>
       <use style="stroke:#000000;stroke-width:0.8;" x="54" xlink:href="#m0e162576cf" y="215.76"/>
      </g>
     </g>
     <g id="text_9">
      <!-- 4 -->
      <g transform="translate(40.6375 219.559219)scale(0.1 -0.1)">
       <use xlink:href="#DejaVuSans-34"/>
      </g>
     </g>
    </g>
    <g id="ytick_3">
     <g id="line2d_9">
      <g>
       <use style="stroke:#000000;stroke-width:0.8;" x="54" xlink:href="#m0e162576cf" y="179.52"/>
      </g>
     </g>
     <g id="text_10">
      <!-- 5 -->
      <g transform="translate(40.6375 183.319219)scale(0.1 -0.1)">
       <defs>
        <path d="M 691 4666 
L 3169 4666 
L 3169 4134 
L 1269 4134 
L 1269 2991 
Q 1406 3038 1543 3061 
Q 1681 3084 1819 3084 
Q 2600 3084 3056 2656 
Q 3513 2228 3513 1497 
Q 3513 744 3044 326 
Q 2575 -91 1722 -91 
Q 1428 -91 1123 -41 
Q 819 9 494 109 
L 494 744 
Q 775 591 1075 516 
Q 1375 441 1709 441 
Q 2250 441 2565 725 
Q 2881 1009 2881 1497 
Q 2881 1984 2565 2268 
Q 2250 2553 1709 2553 
Q 1456 2553 1204 2497 
Q 953 2441 691 2322 
L 691 4666 
z
" id="DejaVuSans-35" transform="scale(0.015625)"/>
       </defs>
       <use xlink:href="#DejaVuSans-35"/>
      </g>
     </g>
    </g>
    <g id="ytick_4">
     <g id="line2d_10">
      <g>
       <use style="stroke:#000000;stroke-width:0.8;" x="54" xlink:href="#m0e162576cf" y="143.28"/>
      </g>
     </g>
     <g id="text_11">
      <!-- 6 -->
      <g transform="translate(40.6375 147.079219)scale(0.1 -0.1)">
       <use xlink:href="#DejaVuSans-36"/>
      </g>
     </g>
    </g>
    <g id="ytick_5">
     <g id="line2d_11">
      <g>
       <use style="stroke:#000000;stroke-width:0.8;" x="54" xlink:href="#m0e162576cf" y="107.04"/>
      </g>
     </g>
     <g id="text_12">
      <!-- 7 -->
      <g transform="translate(40.6375 110.839219)scale(0.1 -0.1)">
       <defs>
        <path d="M 525 4666 
L 3525 4666 
L 3525 4397 
L 1831 0 
L 1172 0 
L 2766 4134 
L 525 4134 
L 525 4666 
z
" id="DejaVuSans-37" transform="scale(0.015625)"/>
       </defs>
       <use xlink:href="#DejaVuSans-37"/>
      </g>
     </g>
    </g>
    <g id="ytick_6">
     <g id="line2d_12">
      <g>
       <use style="stroke:#000000;stroke-width:0.8;" x="54" xlink:href="#m0e162576cf" y="70.8"/>
      </g>
     </g>
     <g id="text_13">
      <!-- 8 -->
      <g transform="translate(40.6375 74.599219)scale(0.1 -0.1)">
       <use xlink:href="#DejaVuSans-38"/>
      </g>
     </g>
    </g>
    <g id="ytick_7">
     <g id="line2d_13">
      <g>
       <use style="stroke:#000000;stroke-width:0.8;" x="54" xlink:href="#m0e162576cf" y="34.56"/>
      </g>
     </g>
     <g id="text_14">
      <!-- 9 -->
      <g transform="translate(40.6375 38.359219)scale(0.1 -0.1)">
       <defs>
        <path d="M 703 97 
L 703 672 
Q 941 559 1184 500 
Q 1428 441 1663 441 
Q 2288 441 2617 861 
Q 2947 1281 2994 2138 
Q 2813 1869 2534 1725 
Q 2256 1581 1919 1581 
Q 1219 1581 811 2004 
Q 403 2428 403 3163 
Q 403 3881 828 4315 
Q 1253 4750 1959 4750 
Q 2769 4750 3195 4129 
Q 3622 3509 3622 2328 
Q 3622 1225 3098 567 
Q 2575 -91 1691 -91 
Q 1453 -91 1209 -44 
Q 966 3 703 97 
z
M 1959 2075 
Q 2384 2075 2632 2365 
Q 2881 2656 2881 3163 
Q 2881 3666 2632 3958 
Q 2384 4250 1959 4250 
Q 1534 4250 1286 3958 
Q 1038 3666 1038 3163 
Q 1038 2656 1286 2365 
Q 1534 2075 1959 2075 
z
" id="DejaVuSans-39" transform="scale(0.015625)"/>
       </defs>
       <use xlink:href="#DejaVuSans-39"/>
      </g>
     </g>
    </g>
    <g id="text_15">
     <!-- y -->
     <g transform="translate(34.141875 146.83125)rotate(-90)scale(0.12 -0.12)">
      <defs>
       <path d="M 2059 -325 
Q 1816 -950 1584 -1140 
Q 1353 -1331 966 -1331 
L 506 -1331 
L 506 -850 
L 844 -850 
Q 1081 -850 1212 -737 
Q 1344 -625 1503 -206 
L 1606 56 
L 191 3500 
L 800 3500 
L 1894 763 
L 2988 3500 
L 3597 3500 
L 2059 -325 
z
" id="DejaVuSans-79" transform="scale(0.015625)"/>
      </defs>
      <use xlink:href="#DejaVuSans-79"/>
     </g>
    </g>
   </g>
   <g id="line2d_14">
    <path clip-path="url(#p7c61852688)" d="M 69.218182 70.8 
L 71.985124 85.083949 
L 74.752066 98.25467 
L 77.519008 110.364828 
L 80.28595 121.465955 
L 83.052893 131.608455 
L 85.819835 140.841599 
L 88.586777 149.213528 
L 91.353719 156.771253 
L 94.120661 163.560654 
L 96.887603 169.62648 
L 99.654545 175.012349 
L 102.421488 179.76075 
L 105.18843 183.913038 
L 107.955372 187.509441 
L 110.722314 190.589055 
L 113.489256 193.189844 
L 116.256198 195.348643 
L 119.02314 197.101155 
L 121.790083 198.481953 
L 124.557025 199.52448 
L 127.323967 200.261047 
L 130.090909 200.722835 
L 132.857851 200.939895 
L 135.624793 200.941145 
L 138.391736 200.754375 
L 141.158678 200.406243 
L 143.92562 199.922276 
L 146.692562 199.326871 
L 149.459504 198.643294 
L 152.226446 197.89368 
L 154.993388 197.099035 
L 157.760331 196.279231 
L 160.527273 195.453014 
L 163.294215 194.637994 
L 166.061157 193.850655 
L 168.828099 193.106347 
L 171.595041 192.419291 
L 174.361983 191.802577 
L 177.128926 191.268164 
L 179.895868 190.82688 
L 182.66281 190.488424 
L 185.429752 190.261362 
L 188.196694 190.153131 
L 190.963636 190.170037 
L 193.730579 190.317255 
L 196.497521 190.598829 
L 199.264463 191.017673 
L 202.031405 191.575569 
L 204.798347 192.273171 
L 207.565289 193.11 
L 210.332231 194.084446 
L 213.099174 195.193771 
L 215.866116 196.434103 
L 218.633058 197.800442 
L 221.4 199.286655 
L 224.166942 200.88548 
L 226.933884 202.588525 
L 229.700826 204.386264 
L 232.467769 206.268045 
L 235.234711 208.22208 
L 238.001653 210.235455 
L 240.768595 212.294122 
L 243.535537 214.382905 
L 246.302479 216.485496 
L 249.069421 218.584455 
L 251.836364 220.661214 
L 254.603306 222.696071 
L 257.370248 224.668198 
L 260.13719 226.555631 
L 262.904132 228.33528 
L 265.671074 229.982921 
L 268.438017 231.4732 
L 271.204959 232.779634 
L 273.971901 233.874607 
L 276.738843 234.729375 
L 279.505785 235.31406 
L 282.272727 235.597656 
L 285.039669 235.548026 
L 287.806612 235.1319 
L 290.573554 234.31488 
L 293.340496 233.061436 
L 296.107438 231.334908 
L 298.87438 229.097505 
L 301.641322 226.310305 
L 304.408264 222.933255 
L 307.175207 218.925173 
L 309.942149 214.243744 
L 312.709091 208.845524 
L 315.476033 202.685938 
L 318.242975 195.71928 
L 321.009917 187.898713 
L 323.77686 179.176271 
L 326.543802 169.502854 
L 329.310744 158.828236 
L 332.077686 147.101055 
L 334.844628 134.268823 
L 337.61157 120.277918 
L 340.378512 105.073589 
L 343.145455 88.599954 
L 345.912397 70.8 
L 348.679339 51.615584 
L 351.446281 30.987432 
L 354.213223 8.855138 
L 355.363895 -1 
" style="fill:none;stroke:#0000ff;stroke-linecap:square;stroke-width:2;"/>
   </g>
   <g id="line2d_15">
    <path clip-path="url(#p7c61852688)" d="M 69.218182 175.420289 
L 71.985124 172.640361 
L 74.752066 170.382605 
L 77.519008 168.770797 
L 80.28595 167.909502 
L 83.052893 167.872911 
L 85.819835 168.693619 
L 88.586777 170.353825 
L 91.353719 172.782493 
L 94.120661 175.861079 
L 96.887603 179.437068 
L 99.654545 183.341159 
L 102.421488 187.403241 
L 105.18843 191.464377 
L 107.955372 195.384394 
L 110.722314 199.046021 
L 113.489256 202.3567 
L 116.256198 205.248947 
L 119.02314 207.679795 
L 121.790083 209.629585 
L 124.557025 211.100223 
L 127.323967 212.112886 
L 130.090909 212.705186 
L 132.857851 212.927807 
L 135.624793 212.840721 
L 138.391736 212.50917 
L 141.158678 211.999655 
L 143.92562 211.376167 
L 146.692562 210.69687 
L 149.459504 210.011358 
L 152.226446 209.358615 
L 154.993388 208.765721 
L 157.760331 208.247416 
L 160.527273 207.80663 
L 163.294215 207.43612 
L 166.061157 207.121297 
L 168.828099 206.844239 
L 171.595041 206.588634 
L 174.361983 206.345186 
L 177.128926 206.116603 
L 179.895868 205.920904 
L 182.66281 205.791434 
L 185.429752 205.772186 
L 188.196694 205.908321 
L 190.963636 206.234301 
L 193.730579 206.764124 
L 196.497521 207.487633 
L 199.264463 208.373583 
L 202.031405 209.376935 
L 204.798347 210.44702 
L 207.565289 211.534423 
L 210.332231 212.595892 
L 213.099174 213.597404 
L 215.866116 214.515755 
L 218.633058 215.339029 
L 221.4 216.066175 
L 224.166942 216.705902 
L 226.933884 217.275044 
L 229.700826 217.796561 
L 232.467769 218.297337 
L 235.234711 218.805903 
L 238.001653 219.350216 
L 240.768595 219.955585 
L 243.535537 220.642807 
L 246.302479 221.426569 
L 249.069421 222.314167 
L 251.836364 223.304576 
L 254.603306 224.387956 
L 257.370248 225.545637 
L 260.13719 226.750638 
L 262.904132 227.968762 
L 265.671074 229.160237 
L 268.438017 230.28186 
L 271.204959 231.289541 
L 273.971901 232.141107 
L 276.738843 232.799229 
L 279.505785 233.234247 
L 282.272727 233.426574 
L 285.039669 233.368035 
L 287.806612 233.060765 
L 290.573554 232.511302 
L 293.340496 231.71721 
L 296.107438 230.64673 
L 298.87438 229.220416 
L 301.641322 227.310287 
L 304.408264 224.763742 
L 307.175207 221.440679 
L 309.942149 217.245315 
L 312.709091 212.143722 
L 315.476033 206.168665 
L 318.242975 199.416577 
L 321.009917 192.040388 
L 323.77686 184.240288 
L 326.543802 176.253364 
L 329.310744 168.342435 
L 332.077686 160.783798 
L 334.844628 153.853139 
L 337.61157 147.809003 
L 340.378512 142.874448 
L 343.145455 139.21959 
L 345.912397 136.949008 
L 348.679339 136.096856 
L 351.446281 136.6297 
L 354.213223 138.454862 
L 356.980165 141.431733 
L 359.747107 145.38429 
L 362.51405 150.113855 
L 365.280992 155.411483 
L 368.047934 161.069449 
L 370.814876 166.891301 
L 373.581818 172.700019 
" style="fill:none;stroke:#008000;stroke-dasharray:3.7,1.6;stroke-dashoffset:0;"/>
   </g>
   <g id="line2d_16">
    <path clip-path="url(#p7c61852688)" d="M 69.218182 122.438378 
L 71.985124 123.083096 
L 74.752066 124.236839 
L 77.519008 125.895121 
L 80.28595 128.032551 
L 83.052893 130.606937 
L 85.819835 133.566079 
L 88.586777 136.855257 
L 91.353719 140.42209 
L 94.120661 144.216135 
L 96.887603 148.183655 
L 99.654545 152.261159 
L 102.421488 156.37177 
L 105.18843 160.426344 
L 107.955372 164.328761 
L 110.722314 167.983566 
L 113.489256 171.304038 
L 116.256198 174.219213 
L 119.02314 176.678959 
L 121.790083 178.656678 
L 124.557025 180.149641 
L 127.323967 181.17725 
L 130.090909 181.777713 
L 132.857851 182.003691 
L 135.624793 181.917447 
L 138.391736 181.585963 
L 141.158678 181.07638 
L 143.92562 180.452051 
L 146.692562 179.769397 
L 149.459504 179.075722 
L 152.226446 178.408032 
L 154.993388 177.792814 
L 157.760331 177.246581 
L 160.527273 176.776896 
L 163.294215 176.383457 
L 166.061157 176.058842 
L 168.828099 175.788607 
L 171.595041 175.550602 
L 174.361983 175.313715 
L 177.128926 175.036603 
L 179.895868 174.667491 
L 182.66281 174.146491 
L 185.429752 173.411783 
L 188.196694 172.409753 
L 190.963636 171.106762 
L 193.730579 169.498151 
L 196.497521 167.610686 
L 199.264463 165.497922 
L 202.031405 163.231206 
L 204.798347 160.889843 
L 207.565289 158.552708 
L 210.332231 156.292132 
L 213.099174 154.169982 
L 215.866116 152.235597 
L 218.633058 150.525232 
L 221.4 149.062714 
L 224.166942 147.861033 
L 226.933884 146.924615 
L 229.700826 146.251994 
L 232.467769 145.838609 
L 235.234711 145.679471 
L 238.001653 145.771476 
L 240.768595 146.115183 
L 243.535537 146.71593 
L 246.302479 147.584221 
L 249.069421 148.735321 
L 251.836364 150.188092 
L 254.603306 151.963052 
L 257.370248 154.079744 
L 260.13719 156.553474 
L 262.904132 159.391566 
L 265.671074 162.589302 
L 268.438017 166.125765 
L 271.204959 169.95985 
L 273.971901 174.026703 
L 276.738843 178.234901 
L 279.505785 182.464665 
L 282.272727 186.567552 
L 285.039669 190.368373 
L 287.806612 193.670756 
L 290.573554 196.268775 
L 293.340496 197.967316 
L 296.107438 198.610581 
L 298.87438 198.109641 
L 301.641322 196.453172 
L 304.408264 193.693736 
L 307.175207 189.920562 
L 309.942149 185.236648 
L 312.709091 179.748353 
L 315.476033 173.5651 
L 318.242975 166.80359 
L 321.009917 159.592181 
L 323.77686 152.073037 
L 326.543802 144.401024 
L 329.310744 136.739426 
L 332.077686 129.253466 
L 334.844628 122.10352 
L 337.61157 115.439993 
L 340.378512 109.40079 
L 343.145455 104.110244 
L 345.912397 99.676964 
L 348.679339 96.188879 
L 351.446281 93.706219 
L 354.213223 92.254875 
L 356.980165 91.822429 
L 359.747107 92.357901 
L 362.51405 93.775039 
L 365.280992 95.958406 
L 368.047934 98.771288 
L 370.814876 102.064499 
L 373.581818 105.685253 
" style="fill:none;stroke:#008000;stroke-dasharray:3.7,1.6;stroke-dashoffset:0;"/>
   </g>
   <g id="line2d_17">
    <path clip-path="url(#p7c61852688)" d="M 69.218182 251.911979 
L 71.985124 251.967558 
L 74.752066 251.989383 
L 77.519008 251.996793 
L 80.28595 251.999032 
L 83.052893 251.999669 
L 85.819835 251.999851 
L 88.586777 251.999899 
L 91.353719 251.999889 
L 94.120661 251.99981 
L 96.887603 251.999549 
L 99.654545 251.998715 
L 102.421488 251.996137 
L 105.18843 251.988827 
L 107.955372 251.970544 
L 110.722314 251.931052 
L 113.489256 251.857932 
L 116.256198 251.741893 
L 119.02314 251.583678 
L 121.790083 251.398152 
L 124.557025 251.211932 
L 127.323967 251.054993 
L 130.090909 250.950628 
L 132.857851 250.908849 
L 135.624793 250.925662 
L 138.391736 250.987174 
L 141.158678 251.075576 
L 143.92562 251.174248 
L 146.692562 251.270666 
L 149.459504 251.357123 
L 152.226446 251.430094 
L 154.993388 251.489047 
L 157.760331 251.535311 
L 160.527273 251.571213 
L 163.294215 251.599475 
L 166.061157 251.622755 
L 168.828099 251.643177 
L 171.595041 251.661809 
L 174.361983 251.678152 
L 177.128926 251.689767 
L 179.895868 251.692067 
L 182.66281 251.677955 
L 185.429752 251.636708 
L 188.196694 251.551573 
L 190.963636 251.396385 
L 193.730579 251.133254 
L 196.497521 250.714985 
L 199.264463 250.094974 
L 202.031405 249.242437 
L 204.798347 248.155702 
L 207.565289 246.866615 
L 210.332231 245.434506 
L 213.099174 243.933416 
L 215.866116 242.437899 
L 218.633058 241.011365 
L 221.4 239.698778 
L 224.166942 238.523808 
L 226.933884 237.489627 
L 229.700826 236.582163 
L 232.467769 235.774682 
L 235.234711 235.032746 
L 238.001653 234.318904 
L 240.768595 233.59676 
L 243.535537 232.83434 
L 246.302479 232.006837 
L 249.069421 231.09891 
L 251.836364 230.106673 
L 254.603306 229.039406 
L 257.370248 227.920866 
L 260.13719 226.789944 
L 262.904132 225.700303 
L 265.671074 224.718671 
L 268.438017 223.921515 
L 271.204959 223.390007 
L 273.971901 223.203379 
L 276.738843 223.430871 
L 279.505785 224.122623 
L 282.272727 225.300056 
L 285.039669 226.946997 
L 287.806612 229.004653 
L 290.573554 231.376586 
L 293.340496 233.951014 
L 296.107438 236.638051 
L 298.87438 239.394112 
L 301.641322 242.193 
L 304.408264 244.948386 
L 307.175207 247.464376 
L 309.942149 249.489589 
L 312.709091 250.85659 
L 315.476033 251.592424 
L 318.242975 251.892141 
L 321.009917 251.979784 
L 323.77686 251.997383 
L 326.543802 251.999761 
L 329.310744 251.999983 
L 332.077686 251.999999 
L 334.844628 252 
L 337.61157 252 
L 340.378512 252 
L 343.145455 252 
L 345.912397 252 
L 348.679339 252 
L 351.446281 251.999998 
L 354.213223 251.999983 
L 356.980165 251.999864 
L 359.747107 251.999122 
L 362.51405 251.995525 
L 365.280992 251.981949 
L 368.047934 251.941249 
L 370.814876 251.841673 
L 373.581818 251.637209 
" style="fill:none;stroke:#bfbf00;stroke-dasharray:7.4,3.2;stroke-dashoffset:0;stroke-width:2;"/>
   </g>
   <g id="patch_3">
    <path d="M 54 252 
L 54 34.56 
" style="fill:none;stroke:#000000;stroke-linecap:square;stroke-linejoin:miter;stroke-width:0.8;"/>
   </g>
   <g id="patch_4">
    <path d="M 388.8 252 
L 388.8 34.56 
" style="fill:none;stroke:#000000;stroke-linecap:square;stroke-linejoin:miter;stroke-width:0.8;"/>
   </g>
   <g id="patch_5">
    <path d="M 54 252 
L 388.8 252 
" style="fill:none;stroke:#000000;stroke-linecap:square;stroke-linejoin:miter;stroke-width:0.8;"/>
   </g>
   <g id="patch_6">
    <path d="M 54 34.56 
L 388.8 34.56 
" style="fill:none;stroke:#000000;stroke-linecap:square;stroke-linejoin:miter;stroke-width:0.8;"/>
   </g>
   <g id="text_16">
    <!-- Method : EI -->
    <g transform="translate(71.985124 244.752)scale(0.12 -0.12)">
     <defs>
      <path d="M 628 4666 
L 1569 4666 
L 2759 1491 
L 3956 4666 
L 4897 4666 
L 4897 0 
L 4281 0 
L 4281 4097 
L 3078 897 
L 2444 897 
L 1241 4097 
L 1241 0 
L 628 0 
L 628 4666 
z
" id="DejaVuSans-4d" transform="scale(0.015625)"/>
      <path d="M 3597 1894 
L 3597 1613 
L 953 1613 
Q 991 1019 1311 708 
Q 1631 397 2203 397 
Q 2534 397 2845 478 
Q 3156 559 3463 722 
L 3463 178 
Q 3153 47 2828 -22 
Q 2503 -91 2169 -91 
Q 1331 -91 842 396 
Q 353 884 353 1716 
Q 353 2575 817 3079 
Q 1281 3584 2069 3584 
Q 2775 3584 3186 3129 
Q 3597 2675 3597 1894 
z
M 3022 2063 
Q 3016 2534 2758 2815 
Q 2500 3097 2075 3097 
Q 1594 3097 1305 2825 
Q 1016 2553 972 2059 
L 3022 2063 
z
" id="DejaVuSans-65" transform="scale(0.015625)"/>
      <path d="M 1172 4494 
L 1172 3500 
L 2356 3500 
L 2356 3053 
L 1172 3053 
L 1172 1153 
Q 1172 725 1289 603 
Q 1406 481 1766 481 
L 2356 481 
L 2356 0 
L 1766 0 
Q 1100 0 847 248 
Q 594 497 594 1153 
L 594 3053 
L 172 3053 
L 172 3500 
L 594 3500 
L 594 4494 
L 1172 4494 
z
" id="DejaVuSans-74" transform="scale(0.015625)"/>
      <path d="M 3513 2113 
L 3513 0 
L 2938 0 
L 2938 2094 
Q 2938 2591 2744 2837 
Q 2550 3084 2163 3084 
Q 1697 3084 1428 2787 
Q 1159 2491 1159 1978 
L 1159 0 
L 581 0 
L 581 4863 
L 1159 4863 
L 1159 2956 
Q 1366 3272 1645 3428 
Q 1925 3584 2291 3584 
Q 2894 3584 3203 3211 
Q 3513 2838 3513 2113 
z
" id="DejaVuSans-68" transform="scale(0.015625)"/>
      <path d="M 1959 3097 
Q 1497 3097 1228 2736 
Q 959 2375 959 1747 
Q 959 1119 1226 758 
Q 1494 397 1959 397 
Q 2419 397 2687 759 
Q 2956 1122 2956 1747 
Q 2956 2369 2687 2733 
Q 2419 3097 1959 3097 
z
M 1959 3584 
Q 2709 3584 3137 3096 
Q 3566 2609 3566 1747 
Q 3566 888 3137 398 
Q 2709 -91 1959 -91 
Q 1206 -91 779 398 
Q 353 888 353 1747 
Q 353 2609 779 3096 
Q 1206 3584 1959 3584 
z
" id="DejaVuSans-6f" transform="scale(0.015625)"/>
      <path d="M 2906 2969 
L 2906 4863 
L 3481 4863 
L 3481 0 
L 2906 0 
L 2906 525 
Q 2725 213 2448 61 
Q 2172 -91 1784 -91 
Q 1150 -91 751 415 
Q 353 922 353 1747 
Q 353 2572 751 3078 
Q 1150 3584 1784 3584 
Q 2172 3584 2448 3432 
Q 2725 3281 2906 2969 
z
M 947 1747 
Q 947 1113 1208 752 
Q 1469 391 1925 391 
Q 2381 391 2643 752 
Q 2906 1113 2906 1747 
Q 2906 2381 2643 2742 
Q 2381 3103 1925 3103 
Q 1469 3103 1208 2742 
Q 947 2381 947 1747 
z
" id="DejaVuSans-64" transform="scale(0.015625)"/>
      <path id="DejaVuSans-20" transform="scale(0.015625)"/>
      <path d="M 750 794 
L 1409 794 
L 1409 0 
L 750 0 
L 750 794 
z
M 750 3309 
L 1409 3309 
L 1409 2516 
L 750 2516 
L 750 3309 
z
" id="DejaVuSans-3a" transform="scale(0.015625)"/>
      <path d="M 628 4666 
L 3578 4666 
L 3578 4134 
L 1259 4134 
L 1259 2753 
L 3481 2753 
L 3481 2222 
L 1259 2222 
L 1259 531 
L 3634 531 
L 3634 0 
L 628 0 
L 628 4666 
z
" id="DejaVuSans-45" transform="scale(0.015625)"/>
      <path d="M 628 4666 
L 1259 4666 
L 1259 0 
L 628 0 
L 628 4666 
z
" id="DejaVuSans-49" transform="scale(0.015625)"/>
     </defs>
     <use xlink:href="#DejaVuSans-4d"/>
     <use x="86.279297" xlink:href="#DejaVuSans-65"/>
     <use x="147.802734" xlink:href="#DejaVuSans-74"/>
     <use x="187.011719" xlink:href="#DejaVuSans-68"/>
     <use x="250.390625" xlink:href="#DejaVuSans-6f"/>
     <use x="311.572266" xlink:href="#DejaVuSans-64"/>
     <use x="375.048828" xlink:href="#DejaVuSans-20"/>
     <use x="406.835938" xlink:href="#DejaVuSans-3a"/>
     <use x="440.527344" xlink:href="#DejaVuSans-20"/>
     <use x="472.314453" xlink:href="#DejaVuSans-45"/>
     <use x="535.498047" xlink:href="#DejaVuSans-49"/>
    </g>
   </g>
   <g id="text_17">
    <!-- Iter=2 -->
    <g transform="translate(71.985124 226.632)scale(0.12 -0.12)">
     <defs>
      <path d="M 2631 2963 
Q 2534 3019 2420 3045 
Q 2306 3072 2169 3072 
Q 1681 3072 1420 2755 
Q 1159 2438 1159 1844 
L 1159 0 
L 581 0 
L 581 3500 
L 1159 3500 
L 1159 2956 
Q 1341 3275 1631 3429 
Q 1922 3584 2338 3584 
Q 2397 3584 2469 3576 
Q 2541 3569 2628 3553 
L 2631 2963 
z
" id="DejaVuSans-72" transform="scale(0.015625)"/>
      <path d="M 678 2906 
L 4684 2906 
L 4684 2381 
L 678 2381 
L 678 2906 
z
M 678 1631 
L 4684 1631 
L 4684 1100 
L 678 1100 
L 678 1631 
z
" id="DejaVuSans-3d" transform="scale(0.015625)"/>
     </defs>
     <use xlink:href="#DejaVuSans-49"/>
     <use x="29.492188" xlink:href="#DejaVuSans-74"/>
     <use x="68.701172" xlink:href="#DejaVuSans-65"/>
     <use x="130.224609" xlink:href="#DejaVuSans-72"/>
     <use x="171.337891" xlink:href="#DejaVuSans-3d"/>
     <use x="255.126953" xlink:href="#DejaVuSans-32"/>
    </g>
   </g>
   <g id="legend_1">
    <g id="patch_7">
     <path d="M 144.327812 140.235625 
L 298.472188 140.235625 
Q 300.672188 140.235625 300.672188 138.035625 
L 300.672188 42.26 
Q 300.672188 40.06 298.472188 40.06 
L 144.327812 40.06 
Q 142.127813 40.06 142.127813 42.26 
L 142.127813 138.035625 
Q 142.127813 140.235625 144.327812 140.235625 
z
" style="fill:#ffffff;opacity:0.8;stroke:#cccccc;stroke-linejoin:miter;"/>
    </g>
    <g id="line2d_18">
     <path d="M 146.527813 48.968281 
L 168.527813 48.968281 
" style="fill:none;stroke:#0000ff;stroke-linecap:square;stroke-width:2;"/>
    </g>
    <g id="line2d_19"/>
    <g id="text_18">
     <!-- ture function -->
     <g transform="translate(177.327813 52.818281)scale(0.11 -0.11)">
      <defs>
       <path d="M 544 1381 
L 544 3500 
L 1119 3500 
L 1119 1403 
Q 1119 906 1312 657 
Q 1506 409 1894 409 
Q 2359 409 2629 706 
Q 2900 1003 2900 1516 
L 2900 3500 
L 3475 3500 
L 3475 0 
L 2900 0 
L 2900 538 
Q 2691 219 2414 64 
Q 2138 -91 1772 -91 
Q 1169 -91 856 284 
Q 544 659 544 1381 
z
M 1991 3584 
L 1991 3584 
z
" id="DejaVuSans-75" transform="scale(0.015625)"/>
       <path d="M 2375 4863 
L 2375 4384 
L 1825 4384 
Q 1516 4384 1395 4259 
Q 1275 4134 1275 3809 
L 1275 3500 
L 2222 3500 
L 2222 3053 
L 1275 3053 
L 1275 0 
L 697 0 
L 697 3053 
L 147 3053 
L 147 3500 
L 697 3500 
L 697 3744 
Q 697 4328 969 4595 
Q 1241 4863 1831 4863 
L 2375 4863 
z
" id="DejaVuSans-66" transform="scale(0.015625)"/>
       <path d="M 3513 2113 
L 3513 0 
L 2938 0 
L 2938 2094 
Q 2938 2591 2744 2837 
Q 2550 3084 2163 3084 
Q 1697 3084 1428 2787 
Q 1159 2491 1159 1978 
L 1159 0 
L 581 0 
L 581 3500 
L 1159 3500 
L 1159 2956 
Q 1366 3272 1645 3428 
Q 1925 3584 2291 3584 
Q 2894 3584 3203 3211 
Q 3513 2838 3513 2113 
z
" id="DejaVuSans-6e" transform="scale(0.015625)"/>
       <path d="M 3122 3366 
L 3122 2828 
Q 2878 2963 2633 3030 
Q 2388 3097 2138 3097 
Q 1578 3097 1268 2742 
Q 959 2388 959 1747 
Q 959 1106 1268 751 
Q 1578 397 2138 397 
Q 2388 397 2633 464 
Q 2878 531 3122 666 
L 3122 134 
Q 2881 22 2623 -34 
Q 2366 -91 2075 -91 
Q 1284 -91 818 406 
Q 353 903 353 1747 
Q 353 2603 823 3093 
Q 1294 3584 2113 3584 
Q 2378 3584 2631 3529 
Q 2884 3475 3122 3366 
z
" id="DejaVuSans-63" transform="scale(0.015625)"/>
       <path d="M 603 3500 
L 1178 3500 
L 1178 0 
L 603 0 
L 603 3500 
z
M 603 4863 
L 1178 4863 
L 1178 4134 
L 603 4134 
L 603 4863 
z
" id="DejaVuSans-69" transform="scale(0.015625)"/>
      </defs>
      <use xlink:href="#DejaVuSans-74"/>
      <use x="39.208984" xlink:href="#DejaVuSans-75"/>
      <use x="102.587891" xlink:href="#DejaVuSans-72"/>
      <use x="141.451172" xlink:href="#DejaVuSans-65"/>
      <use x="202.974609" xlink:href="#DejaVuSans-20"/>
      <use x="234.761719" xlink:href="#DejaVuSans-66"/>
      <use x="269.966797" xlink:href="#DejaVuSans-75"/>
      <use x="333.345703" xlink:href="#DejaVuSans-6e"/>
      <use x="396.724609" xlink:href="#DejaVuSans-63"/>
      <use x="451.705078" xlink:href="#DejaVuSans-74"/>
      <use x="490.914062" xlink:href="#DejaVuSans-69"/>
      <use x="518.697266" xlink:href="#DejaVuSans-6f"/>
      <use x="579.878906" xlink:href="#DejaVuSans-6e"/>
     </g>
    </g>
    <g id="line2d_20">
     <path d="M 146.527813 65.114219 
L 168.527813 65.114219 
" style="fill:none;stroke:#000000;stroke-dasharray:7.4,3.2;stroke-dashoffset:0;stroke-width:2;"/>
    </g>
    <g id="line2d_21"/>
    <g id="text_19">
     <!-- predicted function -->
     <g transform="translate(177.327813 68.964219)scale(0.11 -0.11)">
      <defs>
       <path d="M 1159 525 
L 1159 -1331 
L 581 -1331 
L 581 3500 
L 1159 3500 
L 1159 2969 
Q 1341 3281 1617 3432 
Q 1894 3584 2278 3584 
Q 2916 3584 3314 3078 
Q 3713 2572 3713 1747 
Q 3713 922 3314 415 
Q 2916 -91 2278 -91 
Q 1894 -91 1617 61 
Q 1341 213 1159 525 
z
M 3116 1747 
Q 3116 2381 2855 2742 
Q 2594 3103 2138 3103 
Q 1681 3103 1420 2742 
Q 1159 2381 1159 1747 
Q 1159 1113 1420 752 
Q 1681 391 2138 391 
Q 2594 391 2855 752 
Q 3116 1113 3116 1747 
z
" id="DejaVuSans-70" transform="scale(0.015625)"/>
      </defs>
      <use xlink:href="#DejaVuSans-70"/>
      <use x="63.476562" xlink:href="#DejaVuSans-72"/>
      <use x="102.339844" xlink:href="#DejaVuSans-65"/>
      <use x="163.863281" xlink:href="#DejaVuSans-64"/>
      <use x="227.339844" xlink:href="#DejaVuSans-69"/>
      <use x="255.123047" xlink:href="#DejaVuSans-63"/>
      <use x="310.103516" xlink:href="#DejaVuSans-74"/>
      <use x="349.3125" xlink:href="#DejaVuSans-65"/>
      <use x="410.835938" xlink:href="#DejaVuSans-64"/>
      <use x="474.3125" xlink:href="#DejaVuSans-20"/>
      <use x="506.099609" xlink:href="#DejaVuSans-66"/>
      <use x="541.304688" xlink:href="#DejaVuSans-75"/>
      <use x="604.683594" xlink:href="#DejaVuSans-6e"/>
      <use x="668.0625" xlink:href="#DejaVuSans-63"/>
      <use x="723.042969" xlink:href="#DejaVuSans-74"/>
      <use x="762.251953" xlink:href="#DejaVuSans-69"/>
      <use x="790.035156" xlink:href="#DejaVuSans-6f"/>
      <use x="851.216797" xlink:href="#DejaVuSans-6e"/>
     </g>
    </g>
    <g id="line2d_22">
     <path d="M 146.527813 81.260156 
L 168.527813 81.260156 
" style="fill:none;stroke:#008000;stroke-dasharray:3.7,1.6;stroke-dashoffset:0;"/>
    </g>
    <g id="line2d_23"/>
    <g id="text_20">
     <!--  ± Sn(x) -->
     <g transform="translate(177.327813 85.110156)scale(0.11 -0.11)">
      <defs>
       <path d="M 2944 4013 
L 2944 2803 
L 4684 2803 
L 4684 2272 
L 2944 2272 
L 2944 1063 
L 2419 1063 
L 2419 2272 
L 678 2272 
L 678 2803 
L 2419 2803 
L 2419 4013 
L 2944 4013 
z
M 678 531 
L 4684 531 
L 4684 0 
L 678 0 
L 678 531 
z
" id="DejaVuSans-b1" transform="scale(0.015625)"/>
       <path d="M 3425 4513 
L 3425 3897 
Q 3066 4069 2747 4153 
Q 2428 4238 2131 4238 
Q 1616 4238 1336 4038 
Q 1056 3838 1056 3469 
Q 1056 3159 1242 3001 
Q 1428 2844 1947 2747 
L 2328 2669 
Q 3034 2534 3370 2195 
Q 3706 1856 3706 1288 
Q 3706 609 3251 259 
Q 2797 -91 1919 -91 
Q 1588 -91 1214 -16 
Q 841 59 441 206 
L 441 856 
Q 825 641 1194 531 
Q 1563 422 1919 422 
Q 2459 422 2753 634 
Q 3047 847 3047 1241 
Q 3047 1584 2836 1778 
Q 2625 1972 2144 2069 
L 1759 2144 
Q 1053 2284 737 2584 
Q 422 2884 422 3419 
Q 422 4038 858 4394 
Q 1294 4750 2059 4750 
Q 2388 4750 2728 4690 
Q 3069 4631 3425 4513 
z
" id="DejaVuSans-53" transform="scale(0.015625)"/>
       <path d="M 1984 4856 
Q 1566 4138 1362 3434 
Q 1159 2731 1159 2009 
Q 1159 1288 1364 580 
Q 1569 -128 1984 -844 
L 1484 -844 
Q 1016 -109 783 600 
Q 550 1309 550 2009 
Q 550 2706 781 3412 
Q 1013 4119 1484 4856 
L 1984 4856 
z
" id="DejaVuSans-28" transform="scale(0.015625)"/>
       <path d="M 513 4856 
L 1013 4856 
Q 1481 4119 1714 3412 
Q 1947 2706 1947 2009 
Q 1947 1309 1714 600 
Q 1481 -109 1013 -844 
L 513 -844 
Q 928 -128 1133 580 
Q 1338 1288 1338 2009 
Q 1338 2731 1133 3434 
Q 928 4138 513 4856 
z
" id="DejaVuSans-29" transform="scale(0.015625)"/>
      </defs>
      <use xlink:href="#DejaVuSans-20"/>
      <use x="31.787109" xlink:href="#DejaVuSans-b1"/>
      <use x="115.576172" xlink:href="#DejaVuSans-20"/>
      <use x="147.363281" xlink:href="#DejaVuSans-53"/>
      <use x="210.839844" xlink:href="#DejaVuSans-6e"/>
      <use x="274.21875" xlink:href="#DejaVuSans-28"/>
      <use x="313.232422" xlink:href="#DejaVuSans-78"/>
      <use x="372.412109" xlink:href="#DejaVuSans-29"/>
     </g>
    </g>
    <g id="line2d_24">
     <path d="M 146.527813 97.406094 
L 168.527813 97.406094 
" style="fill:none;stroke:#bfbf00;stroke-dasharray:7.4,3.2;stroke-dashoffset:0;stroke-width:2;"/>
    </g>
    <g id="line2d_25"/>
    <g id="text_21">
     <!-- EI(x) -->
     <g transform="translate(177.327813 101.256094)scale(0.11 -0.11)">
      <use xlink:href="#DejaVuSans-45"/>
      <use x="63.183594" xlink:href="#DejaVuSans-49"/>
      <use x="92.675781" xlink:href="#DejaVuSans-28"/>
      <use x="131.689453" xlink:href="#DejaVuSans-78"/>
      <use x="190.869141" xlink:href="#DejaVuSans-29"/>
     </g>
    </g>
    <g id="PathCollection_2">
     <defs>
      <path d="M 0 3.535534 
C 0.937635 3.535534 1.836992 3.163008 2.5 2.5 
C 3.163008 1.836992 3.535534 0.937635 3.535534 0 
C 3.535534 -0.937635 3.163008 -1.836992 2.5 -2.5 
C 1.836992 -3.163008 0.937635 -3.535534 0 -3.535534 
C -0.937635 -3.535534 -1.836992 -3.163008 -2.5 -2.5 
C -3.163008 -1.836992 -3.535534 -0.937635 -3.535534 0 
C -3.535534 0.937635 -3.163008 1.836992 -2.5 2.5 
C -1.836992 3.163008 -0.937635 3.535534 0 3.535534 
z
" id="mc47e45cc50" style="stroke:#000000;"/>
     </defs>
     <g>
      <use style="fill:#ff0000;stroke:#000000;" x="157.527813" xlink:href="#mc47e45cc50" y="114.514531"/>
     </g>
    </g>
    <g id="text_22">
     <!-- training data -->
     <g transform="translate(177.327813 117.402031)scale(0.11 -0.11)">
      <defs>
       <path d="M 2194 1759 
Q 1497 1759 1228 1600 
Q 959 1441 959 1056 
Q 959 750 1161 570 
Q 1363 391 1709 391 
Q 2188 391 2477 730 
Q 2766 1069 2766 1631 
L 2766 1759 
L 2194 1759 
z
M 3341 1997 
L 3341 0 
L 2766 0 
L 2766 531 
Q 2569 213 2275 61 
Q 1981 -91 1556 -91 
Q 1019 -91 701 211 
Q 384 513 384 1019 
Q 384 1609 779 1909 
Q 1175 2209 1959 2209 
L 2766 2209 
L 2766 2266 
Q 2766 2663 2505 2880 
Q 2244 3097 1772 3097 
Q 1472 3097 1187 3025 
Q 903 2953 641 2809 
L 641 3341 
Q 956 3463 1253 3523 
Q 1550 3584 1831 3584 
Q 2591 3584 2966 3190 
Q 3341 2797 3341 1997 
z
" id="DejaVuSans-61" transform="scale(0.015625)"/>
       <path d="M 2906 1791 
Q 2906 2416 2648 2759 
Q 2391 3103 1925 3103 
Q 1463 3103 1205 2759 
Q 947 2416 947 1791 
Q 947 1169 1205 825 
Q 1463 481 1925 481 
Q 2391 481 2648 825 
Q 2906 1169 2906 1791 
z
M 3481 434 
Q 3481 -459 3084 -895 
Q 2688 -1331 1869 -1331 
Q 1566 -1331 1297 -1286 
Q 1028 -1241 775 -1147 
L 775 -588 
Q 1028 -725 1275 -790 
Q 1522 -856 1778 -856 
Q 2344 -856 2625 -561 
Q 2906 -266 2906 331 
L 2906 616 
Q 2728 306 2450 153 
Q 2172 0 1784 0 
Q 1141 0 747 490 
Q 353 981 353 1791 
Q 353 2603 747 3093 
Q 1141 3584 1784 3584 
Q 2172 3584 2450 3431 
Q 2728 3278 2906 2969 
L 2906 3500 
L 3481 3500 
L 3481 434 
z
" id="DejaVuSans-67" transform="scale(0.015625)"/>
      </defs>
      <use xlink:href="#DejaVuSans-74"/>
      <use x="39.208984" xlink:href="#DejaVuSans-72"/>
      <use x="80.322266" xlink:href="#DejaVuSans-61"/>
      <use x="141.601562" xlink:href="#DejaVuSans-69"/>
      <use x="169.384766" xlink:href="#DejaVuSans-6e"/>
      <use x="232.763672" xlink:href="#DejaVuSans-69"/>
      <use x="260.546875" xlink:href="#DejaVuSans-6e"/>
      <use x="323.925781" xlink:href="#DejaVuSans-67"/>
      <use x="387.402344" xlink:href="#DejaVuSans-20"/>
      <use x="419.189453" xlink:href="#DejaVuSans-64"/>
      <use x="482.666016" xlink:href="#DejaVuSans-61"/>
      <use x="543.945312" xlink:href="#DejaVuSans-74"/>
      <use x="583.154297" xlink:href="#DejaVuSans-61"/>
     </g>
    </g>
    <g id="PathCollection_3">
     <g>
      <use style="fill:#ff0000;stroke:#ff0000;stroke-width:8;" x="157.527813" xlink:href="#m652d9f2e95" y="130.660469"/>
     </g>
    </g>
    <g id="text_23">
     <!-- recommended datum -->
     <g transform="translate(177.327813 133.547969)scale(0.11 -0.11)">
      <defs>
       <path d="M 3328 2828 
Q 3544 3216 3844 3400 
Q 4144 3584 4550 3584 
Q 5097 3584 5394 3201 
Q 5691 2819 5691 2113 
L 5691 0 
L 5113 0 
L 5113 2094 
Q 5113 2597 4934 2840 
Q 4756 3084 4391 3084 
Q 3944 3084 3684 2787 
Q 3425 2491 3425 1978 
L 3425 0 
L 2847 0 
L 2847 2094 
Q 2847 2600 2669 2842 
Q 2491 3084 2119 3084 
Q 1678 3084 1418 2786 
Q 1159 2488 1159 1978 
L 1159 0 
L 581 0 
L 581 3500 
L 1159 3500 
L 1159 2956 
Q 1356 3278 1631 3431 
Q 1906 3584 2284 3584 
Q 2666 3584 2933 3390 
Q 3200 3197 3328 2828 
z
" id="DejaVuSans-6d" transform="scale(0.015625)"/>
      </defs>
      <use xlink:href="#DejaVuSans-72"/>
      <use x="38.863281" xlink:href="#DejaVuSans-65"/>
      <use x="100.386719" xlink:href="#DejaVuSans-63"/>
      <use x="155.367188" xlink:href="#DejaVuSans-6f"/>
      <use x="216.548828" xlink:href="#DejaVuSans-6d"/>
      <use x="313.960938" xlink:href="#DejaVuSans-6d"/>
      <use x="411.373047" xlink:href="#DejaVuSans-65"/>
      <use x="472.896484" xlink:href="#DejaVuSans-6e"/>
      <use x="536.275391" xlink:href="#DejaVuSans-64"/>
      <use x="599.751953" xlink:href="#DejaVuSans-65"/>
      <use x="661.275391" xlink:href="#DejaVuSans-64"/>
      <use x="724.751953" xlink:href="#DejaVuSans-20"/>
      <use x="756.539062" xlink:href="#DejaVuSans-64"/>
      <use x="820.015625" xlink:href="#DejaVuSans-61"/>
      <use x="881.294922" xlink:href="#DejaVuSans-74"/>
      <use x="920.503906" xlink:href="#DejaVuSans-75"/>
      <use x="983.882812" xlink:href="#DejaVuSans-6d"/>
     </g>
    </g>
   </g>
   <g id="line2d_26">
    <path clip-path="url(#p7c61852688)" d="M 69.218182 148.929333 
L 71.985124 147.861729 
L 74.752066 147.309722 
L 77.519008 147.332959 
L 80.28595 147.971027 
L 83.052893 149.239924 
L 85.819835 151.129849 
L 88.586777 153.604541 
L 91.353719 156.602292 
L 94.120661 160.038607 
L 96.887603 163.810362 
L 99.654545 167.801159 
L 102.421488 171.887505 
L 105.18843 175.94536 
L 107.955372 179.856578 
L 110.722314 183.514794 
L 113.489256 186.830369 
L 116.256198 189.73408 
L 119.02314 192.179377 
L 121.790083 194.143132 
L 124.557025 195.624932 
L 127.323967 196.645068 
L 130.090909 197.241449 
L 132.857851 197.465749 
L 135.624793 197.379084 
L 138.391736 197.047566 
L 141.158678 196.538018 
L 143.92562 195.914109 
L 146.692562 195.233133 
L 149.459504 194.54354 
L 152.226446 193.883324 
L 154.993388 193.279267 
L 157.760331 192.746998 
L 160.527273 192.291763 
L 163.294215 191.909788 
L 166.061157 191.59007 
L 168.828099 191.316423 
L 171.595041 191.069618 
L 174.361983 190.82945 
L 177.128926 190.576603 
L 179.895868 190.294197 
L 182.66281 189.968963 
L 185.429752 189.591984 
L 188.196694 189.159037 
L 190.963636 188.670531 
L 193.730579 188.131137 
L 196.497521 187.549159 
L 199.264463 186.935752 
L 202.031405 186.304071 
L 204.798347 185.668431 
L 207.565289 185.043565 
L 210.332231 184.444012 
L 213.099174 183.883693 
L 215.866116 183.375676 
L 218.633058 182.93213 
L 221.4 182.564444 
L 224.166942 182.283467 
L 226.933884 182.099829 
L 229.700826 182.024278 
L 232.467769 182.067973 
L 235.234711 182.242687 
L 238.001653 182.560846 
L 240.768595 183.035384 
L 243.535537 183.679369 
L 246.302479 184.505395 
L 249.069421 185.524744 
L 251.836364 186.746334 
L 254.603306 188.175504 
L 257.370248 189.81269 
L 260.13719 191.652056 
L 262.904132 193.680164 
L 265.671074 195.87477 
L 268.438017 198.203813 
L 271.204959 200.624695 
L 273.971901 203.083905 
L 276.738843 205.517065 
L 279.505785 207.849456 
L 282.272727 209.997063 
L 285.039669 211.868204 
L 287.806612 213.36576 
L 290.573554 214.390039 
L 293.340496 214.842263 
L 296.107438 214.628656 
L 298.87438 213.665029 
L 301.641322 211.88173 
L 304.408264 209.228739 
L 307.175207 205.680621 
L 309.942149 201.240981 
L 312.709091 195.946037 
L 315.476033 189.866883 
L 318.242975 183.110083 
L 321.009917 175.816284 
L 323.77686 168.156662 
L 326.543802 160.327194 
L 329.310744 152.54093 
L 332.077686 145.018632 
L 334.844628 137.978329 
L 337.61157 131.624498 
L 340.378512 126.137619 
L 343.145455 121.664917 
L 345.912397 118.312986 
L 348.679339 116.142868 
L 351.446281 115.16796 
L 354.213223 115.354868 
L 356.980165 116.627081 
L 359.747107 118.871096 
L 362.51405 121.944447 
L 365.280992 125.684945 
L 368.047934 129.920368 
L 370.814876 134.4779 
L 373.581818 139.192636 
" style="fill:none;stroke:#000000;stroke-dasharray:7.4,3.2;stroke-dashoffset:0;stroke-width:2;"/>
   </g>
   <g id="PathCollection_4">
    <g clip-path="url(#p7c61852688)">
     <use style="fill:#ff0000;stroke:#000000;" x="83.052893" xlink:href="#mc47e45cc50" y="129.399309"/>
     <use style="fill:#ff0000;stroke:#000000;" x="96.887603" xlink:href="#mc47e45cc50" y="162.429541"/>
     <use style="fill:#ff0000;stroke:#000000;" x="110.722314" xlink:href="#mc47e45cc50" y="193.170209"/>
     <use style="fill:#ff0000;stroke:#000000;" x="124.557025" xlink:href="#mc47e45cc50" y="199.248575"/>
     <use style="fill:#ff0000;stroke:#000000;" x="138.391736" xlink:href="#mc47e45cc50" y="199.347548"/>
     <use style="fill:#ff0000;stroke:#000000;" x="152.226446" xlink:href="#mc47e45cc50" y="191.611971"/>
     <use style="fill:#ff0000;stroke:#000000;" x="166.061157" xlink:href="#mc47e45cc50" y="193.66847"/>
     <use style="fill:#ff0000;stroke:#000000;" x="179.895868" xlink:href="#mc47e45cc50" y="193.283098"/>
     <use style="fill:#ff0000;stroke:#000000;" x="193.730579" xlink:href="#mc47e45cc50" y="188.924027"/>
     <use style="fill:#ff0000;stroke:#000000;" x="318.242975" xlink:href="#mc47e45cc50" y="199.289596"/>
     <use style="fill:#ff0000;stroke:#000000;" x="332.077686" xlink:href="#mc47e45cc50" y="145.37007"/>
     <use style="fill:#ff0000;stroke:#000000;" x="345.912397" xlink:href="#mc47e45cc50" y="78.407322"/>
     <use style="fill:#ff0000;stroke:#000000;" x="298.87438" xlink:href="#mc47e45cc50" y="210.535717"/>
     <use style="fill:#ff0000;stroke:#000000;" x="293.340496" xlink:href="#mc47e45cc50" y="229.446125"/>
    </g>
   </g>
  </g>
 </g>
 <defs>
  <clipPath id="p7c61852688">
   <rect height="217.44" width="334.8" x="54" y="34.56"/>
  </clipPath>
 </defs>
</svg>
