<?xml version="1.0" encoding="utf-8" standalone="no"?>
<!DOCTYPE svg PUBLIC "-//W3C//DTD SVG 1.1//EN"
  "http://www.w3.org/Graphics/SVG/1.1/DTD/svg11.dtd">
<svg height="288pt" version="1.1" viewBox="0 0 432 288" width="432pt" xmlns="http://www.w3.org/2000/svg" xmlns:xlink="http://www.w3.org/1999/xlink">
 <metadata>
  <rdf:RDF xmlns:cc="http://creativecommons.org/ns#" xmlns:dc="http://purl.org/dc/elements/1.1/" xmlns:rdf="http://www.w3.org/1999/02/22-rdf-syntax-ns#">
   <cc:Work>
    <dc:type rdf:resource="http://purl.org/dc/dcmitype/StillImage"/>
    <dc:date>2022-08-11T20:17:20.095385</dc:date>
    <dc:format>image/svg+xml</dc:format>
    <dc:creator>
     <cc:Agent>
      <dc:title>Matplotlib v3.4.3, https://matplotlib.org/</dc:title>
     </cc:Agent>
    </dc:creator>
   </cc:Work>
  </rdf:RDF>
 </metadata>
 <defs>
  <style type="text/css">*{stroke-linecap:butt;stroke-linejoin:round;}</style>
 </defs>
 <g id="figure_1">
  <g id="patch_1">
   <path d="M 0 288 
L 432 288 
L 432 0 
L 0 0 
z
" style="fill:none;"/>
  </g>
  <g id="axes_1">
   <g id="patch_2">
    <path d="M 54 252 
L 388.8 252 
L 388.8 34.56 
L 54 34.56 
z
" style="fill:#ffffff;"/>
   </g>
   <g id="PolyCollection_1">
    <defs>
     <path d="M 69.218182 -175.905996 
L 69.218182 -134.620982 
L 71.985124 -138.683905 
L 74.752066 -141.734959 
L 77.519008 -143.541325 
L 80.28595 -143.912219 
L 83.052893 -142.730027 
L 85.819835 -139.996773 
L 88.586777 -135.874126 
L 91.353719 -130.665924 
L 94.120661 -124.738461 
L 96.887603 -118.443531 
L 99.654545 -112.08438 
L 102.421488 -105.911836 
L 105.18843 -100.129946 
L 107.955372 -94.901628 
L 110.722314 -90.351668 
L 113.489256 -86.566665 
L 116.256198 -83.592959 
L 119.02314 -81.434797 
L 121.790083 -80.055122 
L 124.557025 -79.380258 
L 127.323967 -79.308111 
L 130.090909 -79.718424 
L 132.857851 -80.483329 
L 135.624793 -81.476809 
L 138.391736 -82.582343 
L 141.158678 -83.698591 
L 143.92562 -84.743271 
L 146.692562 -85.655418 
L 149.459504 -86.396038 
L 152.226446 -86.947109 
L 154.993388 -87.309023 
L 157.760331 -87.496944 
L 160.527273 -87.537018 
L 163.294215 -87.463547 
L 166.061157 -87.3179 
L 168.828099 -87.14883 
L 171.595041 -87.012369 
L 174.361983 -86.968582 
L 177.128926 -87.072946 
L 179.895868 -87.3617 
L 182.66281 -87.832292 
L 185.429752 -88.422661 
L 188.196694 -89.000078 
L 190.963636 -89.381542 
L 193.730579 -89.399649 
L 196.497521 -88.974788 
L 199.264463 -88.129256 
L 202.031405 -86.94825 
L 204.798347 -85.53851 
L 207.565289 -84.005759 
L 210.332231 -82.445048 
L 213.099174 -80.936271 
L 215.866116 -79.541586 
L 218.633058 -78.304073 
L 221.4 -77.247704 
L 224.166942 -76.378669 
L 226.933884 -75.687889 
L 229.700826 -75.15436 
L 232.467769 -74.748846 
L 235.234711 -74.437435 
L 238.001653 -74.184559 
L 240.768595 -73.955251 
L 243.535537 -73.716576 
L 246.302479 -73.438393 
L 249.069421 -73.093681 
L 251.836364 -72.65876 
L 254.603306 -72.113635 
L 257.370248 -71.442619 
L 260.13719 -70.63525 
L 262.904132 -69.68735 
L 265.671074 -68.602049 
L 268.438017 -67.390551 
L 271.204959 -66.072498 
L 273.971901 -64.675906 
L 276.738843 -63.236758 
L 279.505785 -61.798429 
L 282.272727 -60.411137 
L 285.039669 -59.131571 
L 287.806612 -58.022678 
L 290.573554 -57.153419 
L 293.340496 -56.598098 
L 296.107438 -56.434982 
L 298.87438 -56.744741 
L 301.641322 -57.611973 
L 304.408264 -59.13746 
L 307.175207 -61.466431 
L 309.942149 -64.811616 
L 312.709091 -69.423255 
L 315.476033 -75.50537 
L 318.242975 -83.143403 
L 321.009917 -92.281676 
L 323.77686 -102.736712 
L 326.543802 -114.223127 
L 329.310744 -126.378466 
L 332.077686 -138.780787 
L 334.844628 -150.957988 
L 337.61157 -162.393016 
L 340.378512 -172.536769 
L 343.145455 -180.850386 
L 345.912397 -186.889684 
L 348.679339 -190.392611 
L 351.446281 -191.304443 
L 354.213223 -189.741957 
L 356.980165 -185.945467 
L 359.747107 -180.241618 
L 362.51405 -173.013647 
L 365.280992 -164.673687 
L 368.047934 -155.636072 
L 370.814876 -146.293048 
L 373.581818 -136.994729 
L 373.581818 -200.027042 
L 373.581818 -200.027042 
L 370.814876 -205.959667 
L 368.047934 -211.371519 
L 365.280992 -215.964267 
L 362.51405 -219.444479 
L 359.747107 -221.545216 
L 356.980165 -222.048467 
L 354.213223 -220.806403 
L 351.446281 -217.758359 
L 348.679339 -212.93799 
L 345.912397 -206.461115 
L 343.145455 -198.487965 
L 340.378512 -189.181107 
L 337.61157 -178.708075 
L 334.844628 -167.291704 
L 332.077686 -155.246233 
L 329.310744 -142.964462 
L 326.543802 -130.873714 
L 323.77686 -119.387299 
L 321.009917 -108.867673 
L 318.242975 -99.608849 
L 315.476033 -91.839086 
L 312.709091 -85.738315 
L 309.942149 -81.455954 
L 307.175207 -79.10401 
L 304.408264 -78.708891 
L 301.641322 -80.157352 
L 298.87438 -83.198656 
L 296.107438 -87.499428 
L 293.340496 -92.701098 
L 290.573554 -98.457015 
L 287.806612 -104.453507 
L 285.039669 -110.422143 
L 282.272727 -116.146563 
L 279.505785 -121.464997 
L 276.738843 -126.268951 
L 273.971901 -130.498645 
L 271.204959 -134.135993 
L 268.438017 -137.196028 
L 265.671074 -139.717754 
L 262.904132 -141.755277 
L 260.13719 -143.369883 
L 257.370248 -144.623512 
L 254.603306 -145.573756 
L 251.836364 -146.270329 
L 249.069421 -146.752747 
L 246.302479 -147.048929 
L 243.535537 -147.174464 
L 240.768595 -147.132378 
L 238.001653 -146.913429 
L 235.234711 -146.497044 
L 232.467769 -145.853109 
L 229.700826 -144.944796 
L 226.933884 -143.732501 
L 224.166942 -142.178816 
L 221.4 -140.254223 
L 218.633058 -137.943059 
L 215.866116 -135.249171 
L 213.099174 -132.200629 
L 210.332231 -128.852997 
L 207.565289 -125.290772 
L 204.798347 -121.626855 
L 202.031405 -117.999929 
L 199.264463 -114.568919 
L 196.497521 -111.501208 
L 193.730579 -108.946891 
L 190.963636 -106.993318 
L 188.196694 -105.621323 
L 185.429752 -104.714317 
L 182.66281 -104.125629 
L 179.895868 -103.740199 
L 177.128926 -103.491955 
L 174.361983 -103.351194 
L 171.595041 -103.304244 
L 168.828099 -103.336235 
L 166.061157 -103.420664 
L 163.294215 -103.516631 
L 160.527273 -103.572727 
L 157.760331 -103.534851 
L 154.993388 -103.35473 
L 152.226446 -102.99681 
L 149.459504 -102.442725 
L 146.692562 -101.693684 
L 143.92562 -100.771542 
L 141.158678 -99.719134 
L 138.391736 -98.600014 
L 135.624793 -97.497351 
L 132.857851 -96.5116 
L 130.090909 -95.75669 
L 127.323967 -95.354798 
L 124.557025 -95.429959 
L 121.790083 -96.100829 
L 119.02314 -97.472703 
L 116.256198 -99.628667 
L 113.489256 -102.619749 
L 110.722314 -106.454432 
L 107.955372 -111.089033 
L 105.18843 -116.421821 
L 102.421488 -122.294448 
L 99.654545 -128.503388 
L 96.887603 -134.82203 
L 94.120661 -141.031798 
L 91.353719 -146.95758 
L 88.586777 -152.49537 
L 85.819835 -157.608549 
L 83.052893 -162.27727 
L 80.28595 -166.438638 
L 77.519008 -169.980988 
L 74.752066 -172.786639 
L 71.985124 -174.772249 
L 69.218182 -175.905996 
z
" id="mb83cf528b9" style="stroke:#add8e6;stroke-opacity:0.2;"/>
    </defs>
    <g clip-path="url(#p4be1f7754d)">
     <use style="fill:#add8e6;fill-opacity:0.2;stroke:#add8e6;stroke-opacity:0.2;" x="0" xlink:href="#mb83cf528b9" y="288"/>
    </g>
   </g>
   <g id="PathCollection_1">
    <defs>
     <path d="M 0 0.612372 
C 0.162403 0.612372 0.318176 0.547849 0.433013 0.433013 
C 0.547849 0.318176 0.612372 0.162403 0.612372 0 
C 0.612372 -0.162403 0.547849 -0.318176 0.433013 -0.433013 
C 0.318176 -0.547849 0.162403 -0.612372 0 -0.612372 
C -0.162403 -0.612372 -0.318176 -0.547849 -0.433013 -0.433013 
C -0.547849 -0.318176 -0.612372 -0.162403 -0.612372 0 
C -0.612372 0.162403 -0.547849 0.318176 -0.433013 0.433013 
C -0.318176 0.547849 -0.162403 0.612372 0 0.612372 
z
" id="me37ba9ceb6" style="stroke:#ff0000;stroke-width:8;"/>
    </defs>
    <g clip-path="url(#p4be1f7754d)">
     <use style="fill:#ff0000;stroke:#ff0000;stroke-width:8;" x="301.641322" xlink:href="#me37ba9ceb6" y="224.751682"/>
    </g>
   </g>
   <g id="matplotlib.axis_1">
    <g id="xtick_1">
     <g id="line2d_1">
      <defs>
       <path d="M 0 0 
L 0 3.5 
" id="me469a181ce" style="stroke:#000000;stroke-width:0.8;"/>
      </defs>
      <g>
       <use style="stroke:#000000;stroke-width:0.8;" x="69.218182" xlink:href="#me469a181ce" y="252"/>
      </g>
     </g>
     <g id="text_1">
      <!-- 0 -->
      <g transform="translate(66.036932 266.598437)scale(0.1 -0.1)">
       <defs>
        <path d="M 2034 4250 
Q 1547 4250 1301 3770 
Q 1056 3291 1056 2328 
Q 1056 1369 1301 889 
Q 1547 409 2034 409 
Q 2525 409 2770 889 
Q 3016 1369 3016 2328 
Q 3016 3291 2770 3770 
Q 2525 4250 2034 4250 
z
M 2034 4750 
Q 2819 4750 3233 4129 
Q 3647 3509 3647 2328 
Q 3647 1150 3233 529 
Q 2819 -91 2034 -91 
Q 1250 -91 836 529 
Q 422 1150 422 2328 
Q 422 3509 836 4129 
Q 1250 4750 2034 4750 
z
" id="DejaVuSans-30" transform="scale(0.015625)"/>
       </defs>
       <use xlink:href="#DejaVuSans-30"/>
      </g>
     </g>
    </g>
    <g id="xtick_2">
     <g id="line2d_2">
      <g>
       <use style="stroke:#000000;stroke-width:0.8;" x="124.557025" xlink:href="#me469a181ce" y="252"/>
      </g>
     </g>
     <g id="text_2">
      <!-- 2 -->
      <g transform="translate(121.375775 266.598437)scale(0.1 -0.1)">
       <defs>
        <path d="M 1228 531 
L 3431 531 
L 3431 0 
L 469 0 
L 469 531 
Q 828 903 1448 1529 
Q 2069 2156 2228 2338 
Q 2531 2678 2651 2914 
Q 2772 3150 2772 3378 
Q 2772 3750 2511 3984 
Q 2250 4219 1831 4219 
Q 1534 4219 1204 4116 
Q 875 4013 500 3803 
L 500 4441 
Q 881 4594 1212 4672 
Q 1544 4750 1819 4750 
Q 2544 4750 2975 4387 
Q 3406 4025 3406 3419 
Q 3406 3131 3298 2873 
Q 3191 2616 2906 2266 
Q 2828 2175 2409 1742 
Q 1991 1309 1228 531 
z
" id="DejaVuSans-32" transform="scale(0.015625)"/>
       </defs>
       <use xlink:href="#DejaVuSans-32"/>
      </g>
     </g>
    </g>
    <g id="xtick_3">
     <g id="line2d_3">
      <g>
       <use style="stroke:#000000;stroke-width:0.8;" x="179.895868" xlink:href="#me469a181ce" y="252"/>
      </g>
     </g>
     <g id="text_3">
      <!-- 4 -->
      <g transform="translate(176.714618 266.598437)scale(0.1 -0.1)">
       <defs>
        <path d="M 2419 4116 
L 825 1625 
L 2419 1625 
L 2419 4116 
z
M 2253 4666 
L 3047 4666 
L 3047 1625 
L 3713 1625 
L 3713 1100 
L 3047 1100 
L 3047 0 
L 2419 0 
L 2419 1100 
L 313 1100 
L 313 1709 
L 2253 4666 
z
" id="DejaVuSans-34" transform="scale(0.015625)"/>
       </defs>
       <use xlink:href="#DejaVuSans-34"/>
      </g>
     </g>
    </g>
    <g id="xtick_4">
     <g id="line2d_4">
      <g>
       <use style="stroke:#000000;stroke-width:0.8;" x="235.234711" xlink:href="#me469a181ce" y="252"/>
      </g>
     </g>
     <g id="text_4">
      <!-- 6 -->
      <g transform="translate(232.053461 266.598437)scale(0.1 -0.1)">
       <defs>
        <path d="M 2113 2584 
Q 1688 2584 1439 2293 
Q 1191 2003 1191 1497 
Q 1191 994 1439 701 
Q 1688 409 2113 409 
Q 2538 409 2786 701 
Q 3034 994 3034 1497 
Q 3034 2003 2786 2293 
Q 2538 2584 2113 2584 
z
M 3366 4563 
L 3366 3988 
Q 3128 4100 2886 4159 
Q 2644 4219 2406 4219 
Q 1781 4219 1451 3797 
Q 1122 3375 1075 2522 
Q 1259 2794 1537 2939 
Q 1816 3084 2150 3084 
Q 2853 3084 3261 2657 
Q 3669 2231 3669 1497 
Q 3669 778 3244 343 
Q 2819 -91 2113 -91 
Q 1303 -91 875 529 
Q 447 1150 447 2328 
Q 447 3434 972 4092 
Q 1497 4750 2381 4750 
Q 2619 4750 2861 4703 
Q 3103 4656 3366 4563 
z
" id="DejaVuSans-36" transform="scale(0.015625)"/>
       </defs>
       <use xlink:href="#DejaVuSans-36"/>
      </g>
     </g>
    </g>
    <g id="xtick_5">
     <g id="line2d_5">
      <g>
       <use style="stroke:#000000;stroke-width:0.8;" x="290.573554" xlink:href="#me469a181ce" y="252"/>
      </g>
     </g>
     <g id="text_5">
      <!-- 8 -->
      <g transform="translate(287.392304 266.598437)scale(0.1 -0.1)">
       <defs>
        <path d="M 2034 2216 
Q 1584 2216 1326 1975 
Q 1069 1734 1069 1313 
Q 1069 891 1326 650 
Q 1584 409 2034 409 
Q 2484 409 2743 651 
Q 3003 894 3003 1313 
Q 3003 1734 2745 1975 
Q 2488 2216 2034 2216 
z
M 1403 2484 
Q 997 2584 770 2862 
Q 544 3141 544 3541 
Q 544 4100 942 4425 
Q 1341 4750 2034 4750 
Q 2731 4750 3128 4425 
Q 3525 4100 3525 3541 
Q 3525 3141 3298 2862 
Q 3072 2584 2669 2484 
Q 3125 2378 3379 2068 
Q 3634 1759 3634 1313 
Q 3634 634 3220 271 
Q 2806 -91 2034 -91 
Q 1263 -91 848 271 
Q 434 634 434 1313 
Q 434 1759 690 2068 
Q 947 2378 1403 2484 
z
M 1172 3481 
Q 1172 3119 1398 2916 
Q 1625 2713 2034 2713 
Q 2441 2713 2670 2916 
Q 2900 3119 2900 3481 
Q 2900 3844 2670 4047 
Q 2441 4250 2034 4250 
Q 1625 4250 1398 4047 
Q 1172 3844 1172 3481 
z
" id="DejaVuSans-38" transform="scale(0.015625)"/>
       </defs>
       <use xlink:href="#DejaVuSans-38"/>
      </g>
     </g>
    </g>
    <g id="xtick_6">
     <g id="line2d_6">
      <g>
       <use style="stroke:#000000;stroke-width:0.8;" x="345.912397" xlink:href="#me469a181ce" y="252"/>
      </g>
     </g>
     <g id="text_6">
      <!-- 10 -->
      <g transform="translate(339.549897 266.598437)scale(0.1 -0.1)">
       <defs>
        <path d="M 794 531 
L 1825 531 
L 1825 4091 
L 703 3866 
L 703 4441 
L 1819 4666 
L 2450 4666 
L 2450 531 
L 3481 531 
L 3481 0 
L 794 0 
L 794 531 
z
" id="DejaVuSans-31" transform="scale(0.015625)"/>
       </defs>
       <use xlink:href="#DejaVuSans-31"/>
       <use x="63.623047" xlink:href="#DejaVuSans-30"/>
      </g>
     </g>
    </g>
    <g id="text_7">
     <!-- x -->
     <g transform="translate(217.84875 281.79625)scale(0.12 -0.12)">
      <defs>
       <path d="M 3513 3500 
L 2247 1797 
L 3578 0 
L 2900 0 
L 1881 1375 
L 863 0 
L 184 0 
L 1544 1831 
L 300 3500 
L 978 3500 
L 1906 2253 
L 2834 3500 
L 3513 3500 
z
" id="DejaVuSans-78" transform="scale(0.015625)"/>
      </defs>
      <use xlink:href="#DejaVuSans-78"/>
     </g>
    </g>
   </g>
   <g id="matplotlib.axis_2">
    <g id="ytick_1">
     <g id="line2d_7">
      <defs>
       <path d="M 0 0 
L -3.5 0 
" id="meb6f86b248" style="stroke:#000000;stroke-width:0.8;"/>
      </defs>
      <g>
       <use style="stroke:#000000;stroke-width:0.8;" x="54" xlink:href="#meb6f86b248" y="252"/>
      </g>
     </g>
     <g id="text_8">
      <!-- 3 -->
      <g transform="translate(40.6375 255.799219)scale(0.1 -0.1)">
       <defs>
        <path d="M 2597 2516 
Q 3050 2419 3304 2112 
Q 3559 1806 3559 1356 
Q 3559 666 3084 287 
Q 2609 -91 1734 -91 
Q 1441 -91 1130 -33 
Q 819 25 488 141 
L 488 750 
Q 750 597 1062 519 
Q 1375 441 1716 441 
Q 2309 441 2620 675 
Q 2931 909 2931 1356 
Q 2931 1769 2642 2001 
Q 2353 2234 1838 2234 
L 1294 2234 
L 1294 2753 
L 1863 2753 
Q 2328 2753 2575 2939 
Q 2822 3125 2822 3475 
Q 2822 3834 2567 4026 
Q 2313 4219 1838 4219 
Q 1578 4219 1281 4162 
Q 984 4106 628 3988 
L 628 4550 
Q 988 4650 1302 4700 
Q 1616 4750 1894 4750 
Q 2613 4750 3031 4423 
Q 3450 4097 3450 3541 
Q 3450 3153 3228 2886 
Q 3006 2619 2597 2516 
z
" id="DejaVuSans-33" transform="scale(0.015625)"/>
       </defs>
       <use xlink:href="#DejaVuSans-33"/>
      </g>
     </g>
    </g>
    <g id="ytick_2">
     <g id="line2d_8">
      <g>
       <use style="stroke:#000000;stroke-width:0.8;" x="54" xlink:href="#meb6f86b248" y="215.76"/>
      </g>
     </g>
     <g id="text_9">
      <!-- 4 -->
      <g transform="translate(40.6375 219.559219)scale(0.1 -0.1)">
       <use xlink:href="#DejaVuSans-34"/>
      </g>
     </g>
    </g>
    <g id="ytick_3">
     <g id="line2d_9">
      <g>
       <use style="stroke:#000000;stroke-width:0.8;" x="54" xlink:href="#meb6f86b248" y="179.52"/>
      </g>
     </g>
     <g id="text_10">
      <!-- 5 -->
      <g transform="translate(40.6375 183.319219)scale(0.1 -0.1)">
       <defs>
        <path d="M 691 4666 
L 3169 4666 
L 3169 4134 
L 1269 4134 
L 1269 2991 
Q 1406 3038 1543 3061 
Q 1681 3084 1819 3084 
Q 2600 3084 3056 2656 
Q 3513 2228 3513 1497 
Q 3513 744 3044 326 
Q 2575 -91 1722 -91 
Q 1428 -91 1123 -41 
Q 819 9 494 109 
L 494 744 
Q 775 591 1075 516 
Q 1375 441 1709 441 
Q 2250 441 2565 725 
Q 2881 1009 2881 1497 
Q 2881 1984 2565 2268 
Q 2250 2553 1709 2553 
Q 1456 2553 1204 2497 
Q 953 2441 691 2322 
L 691 4666 
z
" id="DejaVuSans-35" transform="scale(0.015625)"/>
       </defs>
       <use xlink:href="#DejaVuSans-35"/>
      </g>
     </g>
    </g>
    <g id="ytick_4">
     <g id="line2d_10">
      <g>
       <use style="stroke:#000000;stroke-width:0.8;" x="54" xlink:href="#meb6f86b248" y="143.28"/>
      </g>
     </g>
     <g id="text_11">
      <!-- 6 -->
      <g transform="translate(40.6375 147.079219)scale(0.1 -0.1)">
       <use xlink:href="#DejaVuSans-36"/>
      </g>
     </g>
    </g>
    <g id="ytick_5">
     <g id="line2d_11">
      <g>
       <use style="stroke:#000000;stroke-width:0.8;" x="54" xlink:href="#meb6f86b248" y="107.04"/>
      </g>
     </g>
     <g id="text_12">
      <!-- 7 -->
      <g transform="translate(40.6375 110.839219)scale(0.1 -0.1)">
       <defs>
        <path d="M 525 4666 
L 3525 4666 
L 3525 4397 
L 1831 0 
L 1172 0 
L 2766 4134 
L 525 4134 
L 525 4666 
z
" id="DejaVuSans-37" transform="scale(0.015625)"/>
       </defs>
       <use xlink:href="#DejaVuSans-37"/>
      </g>
     </g>
    </g>
    <g id="ytick_6">
     <g id="line2d_12">
      <g>
       <use style="stroke:#000000;stroke-width:0.8;" x="54" xlink:href="#meb6f86b248" y="70.8"/>
      </g>
     </g>
     <g id="text_13">
      <!-- 8 -->
      <g transform="translate(40.6375 74.599219)scale(0.1 -0.1)">
       <use xlink:href="#DejaVuSans-38"/>
      </g>
     </g>
    </g>
    <g id="ytick_7">
     <g id="line2d_13">
      <g>
       <use style="stroke:#000000;stroke-width:0.8;" x="54" xlink:href="#meb6f86b248" y="34.56"/>
      </g>
     </g>
     <g id="text_14">
      <!-- 9 -->
      <g transform="translate(40.6375 38.359219)scale(0.1 -0.1)">
       <defs>
        <path d="M 703 97 
L 703 672 
Q 941 559 1184 500 
Q 1428 441 1663 441 
Q 2288 441 2617 861 
Q 2947 1281 2994 2138 
Q 2813 1869 2534 1725 
Q 2256 1581 1919 1581 
Q 1219 1581 811 2004 
Q 403 2428 403 3163 
Q 403 3881 828 4315 
Q 1253 4750 1959 4750 
Q 2769 4750 3195 4129 
Q 3622 3509 3622 2328 
Q 3622 1225 3098 567 
Q 2575 -91 1691 -91 
Q 1453 -91 1209 -44 
Q 966 3 703 97 
z
M 1959 2075 
Q 2384 2075 2632 2365 
Q 2881 2656 2881 3163 
Q 2881 3666 2632 3958 
Q 2384 4250 1959 4250 
Q 1534 4250 1286 3958 
Q 1038 3666 1038 3163 
Q 1038 2656 1286 2365 
Q 1534 2075 1959 2075 
z
" id="DejaVuSans-39" transform="scale(0.015625)"/>
       </defs>
       <use xlink:href="#DejaVuSans-39"/>
      </g>
     </g>
    </g>
    <g id="text_15">
     <!-- y -->
     <g transform="translate(34.141875 146.83125)rotate(-90)scale(0.12 -0.12)">
      <defs>
       <path d="M 2059 -325 
Q 1816 -950 1584 -1140 
Q 1353 -1331 966 -1331 
L 506 -1331 
L 506 -850 
L 844 -850 
Q 1081 -850 1212 -737 
Q 1344 -625 1503 -206 
L 1606 56 
L 191 3500 
L 800 3500 
L 1894 763 
L 2988 3500 
L 3597 3500 
L 2059 -325 
z
" id="DejaVuSans-79" transform="scale(0.015625)"/>
      </defs>
      <use xlink:href="#DejaVuSans-79"/>
     </g>
    </g>
   </g>
   <g id="line2d_14">
    <path clip-path="url(#p4be1f7754d)" d="M 69.218182 70.8 
L 71.985124 85.083949 
L 74.752066 98.25467 
L 77.519008 110.364828 
L 80.28595 121.465955 
L 83.052893 131.608455 
L 85.819835 140.841599 
L 88.586777 149.213528 
L 91.353719 156.771253 
L 94.120661 163.560654 
L 96.887603 169.62648 
L 99.654545 175.012349 
L 102.421488 179.76075 
L 105.18843 183.913038 
L 107.955372 187.509441 
L 110.722314 190.589055 
L 113.489256 193.189844 
L 116.256198 195.348643 
L 119.02314 197.101155 
L 121.790083 198.481953 
L 124.557025 199.52448 
L 127.323967 200.261047 
L 130.090909 200.722835 
L 132.857851 200.939895 
L 135.624793 200.941145 
L 138.391736 200.754375 
L 141.158678 200.406243 
L 143.92562 199.922276 
L 146.692562 199.326871 
L 149.459504 198.643294 
L 152.226446 197.89368 
L 154.993388 197.099035 
L 157.760331 196.279231 
L 160.527273 195.453014 
L 163.294215 194.637994 
L 166.061157 193.850655 
L 168.828099 193.106347 
L 171.595041 192.419291 
L 174.361983 191.802577 
L 177.128926 191.268164 
L 179.895868 190.82688 
L 182.66281 190.488424 
L 185.429752 190.261362 
L 188.196694 190.153131 
L 190.963636 190.170037 
L 193.730579 190.317255 
L 196.497521 190.598829 
L 199.264463 191.017673 
L 202.031405 191.575569 
L 204.798347 192.273171 
L 207.565289 193.11 
L 210.332231 194.084446 
L 213.099174 195.193771 
L 215.866116 196.434103 
L 218.633058 197.800442 
L 221.4 199.286655 
L 224.166942 200.88548 
L 226.933884 202.588525 
L 229.700826 204.386264 
L 232.467769 206.268045 
L 235.234711 208.22208 
L 238.001653 210.235455 
L 240.768595 212.294122 
L 243.535537 214.382905 
L 246.302479 216.485496 
L 249.069421 218.584455 
L 251.836364 220.661214 
L 254.603306 222.696071 
L 257.370248 224.668198 
L 260.13719 226.555631 
L 262.904132 228.33528 
L 265.671074 229.982921 
L 268.438017 231.4732 
L 271.204959 232.779634 
L 273.971901 233.874607 
L 276.738843 234.729375 
L 279.505785 235.31406 
L 282.272727 235.597656 
L 285.039669 235.548026 
L 287.806612 235.1319 
L 290.573554 234.31488 
L 293.340496 233.061436 
L 296.107438 231.334908 
L 298.87438 229.097505 
L 301.641322 226.310305 
L 304.408264 222.933255 
L 307.175207 218.925173 
L 309.942149 214.243744 
L 312.709091 208.845524 
L 315.476033 202.685938 
L 318.242975 195.71928 
L 321.009917 187.898713 
L 323.77686 179.176271 
L 326.543802 169.502854 
L 329.310744 158.828236 
L 332.077686 147.101055 
L 334.844628 134.268823 
L 337.61157 120.277918 
L 340.378512 105.073589 
L 343.145455 88.599954 
L 345.912397 70.8 
L 348.679339 51.615584 
L 351.446281 30.987432 
L 354.213223 8.855138 
L 355.363895 -1 
" style="fill:none;stroke:#0000ff;stroke-linecap:square;stroke-width:2;"/>
   </g>
   <g id="line2d_15">
    <path clip-path="url(#p4be1f7754d)" d="M 69.218182 153.379018 
L 71.985124 149.316095 
L 74.752066 146.265041 
L 77.519008 144.458675 
L 80.28595 144.087781 
L 83.052893 145.269973 
L 85.819835 148.003227 
L 88.586777 152.125874 
L 91.353719 157.334076 
L 94.120661 163.261539 
L 96.887603 169.556469 
L 99.654545 175.91562 
L 102.421488 182.088164 
L 105.18843 187.870054 
L 107.955372 193.098372 
L 110.722314 197.648332 
L 113.489256 201.433335 
L 116.256198 204.407041 
L 119.02314 206.565203 
L 121.790083 207.944878 
L 124.557025 208.619742 
L 127.323967 208.691889 
L 130.090909 208.281576 
L 132.857851 207.516671 
L 135.624793 206.523191 
L 138.391736 205.417657 
L 141.158678 204.301409 
L 143.92562 203.256729 
L 146.692562 202.344582 
L 149.459504 201.603962 
L 152.226446 201.052891 
L 154.993388 200.690977 
L 157.760331 200.503056 
L 160.527273 200.462982 
L 163.294215 200.536453 
L 166.061157 200.6821 
L 168.828099 200.85117 
L 171.595041 200.987631 
L 174.361983 201.031418 
L 177.128926 200.927054 
L 179.895868 200.6383 
L 182.66281 200.167708 
L 185.429752 199.577339 
L 188.196694 198.999922 
L 190.963636 198.618458 
L 193.730579 198.600351 
L 196.497521 199.025212 
L 199.264463 199.870744 
L 202.031405 201.05175 
L 204.798347 202.46149 
L 207.565289 203.994241 
L 210.332231 205.554952 
L 213.099174 207.063729 
L 215.866116 208.458414 
L 218.633058 209.695927 
L 221.4 210.752296 
L 224.166942 211.621331 
L 226.933884 212.312111 
L 229.700826 212.84564 
L 232.467769 213.251154 
L 235.234711 213.562565 
L 238.001653 213.815441 
L 240.768595 214.044749 
L 243.535537 214.283424 
L 246.302479 214.561607 
L 249.069421 214.906319 
L 251.836364 215.34124 
L 254.603306 215.886365 
L 257.370248 216.557381 
L 260.13719 217.36475 
L 262.904132 218.31265 
L 265.671074 219.397951 
L 268.438017 220.609449 
L 271.204959 221.927502 
L 273.971901 223.324094 
L 276.738843 224.763242 
L 279.505785 226.201571 
L 282.272727 227.588863 
L 285.039669 228.868429 
L 287.806612 229.977322 
L 290.573554 230.846581 
L 293.340496 231.401902 
L 296.107438 231.565018 
L 298.87438 231.255259 
L 301.641322 230.388027 
L 304.408264 228.86254 
L 307.175207 226.533569 
L 309.942149 223.188384 
L 312.709091 218.576745 
L 315.476033 212.49463 
L 318.242975 204.856597 
L 321.009917 195.718324 
L 323.77686 185.263288 
L 326.543802 173.776873 
L 329.310744 161.621534 
L 332.077686 149.219213 
L 334.844628 137.042012 
L 337.61157 125.606984 
L 340.378512 115.463231 
L 343.145455 107.149614 
L 345.912397 101.110316 
L 348.679339 97.607389 
L 351.446281 96.695557 
L 354.213223 98.258043 
L 356.980165 102.054533 
L 359.747107 107.758382 
L 362.51405 114.986353 
L 365.280992 123.326313 
L 368.047934 132.363928 
L 370.814876 141.706952 
L 373.581818 151.005271 
" style="fill:none;stroke:#008000;stroke-dasharray:3.7,1.6;stroke-dashoffset:0;"/>
   </g>
   <g id="line2d_16">
    <path clip-path="url(#p4be1f7754d)" d="M 69.218182 112.094004 
L 71.985124 113.227751 
L 74.752066 115.213361 
L 77.519008 118.019012 
L 80.28595 121.561362 
L 83.052893 125.72273 
L 85.819835 130.391451 
L 88.586777 135.50463 
L 91.353719 141.04242 
L 94.120661 146.968202 
L 96.887603 153.17797 
L 99.654545 159.496612 
L 102.421488 165.705552 
L 105.18843 171.578179 
L 107.955372 176.910967 
L 110.722314 181.545568 
L 113.489256 185.380251 
L 116.256198 188.371333 
L 119.02314 190.527297 
L 121.790083 191.899171 
L 124.557025 192.570041 
L 127.323967 192.645202 
L 130.090909 192.24331 
L 132.857851 191.4884 
L 135.624793 190.502649 
L 138.391736 189.399986 
L 141.158678 188.280866 
L 143.92562 187.228458 
L 146.692562 186.306316 
L 149.459504 185.557275 
L 152.226446 185.00319 
L 154.993388 184.64527 
L 157.760331 184.465149 
L 160.527273 184.427273 
L 163.294215 184.483369 
L 166.061157 184.579336 
L 168.828099 184.663765 
L 171.595041 184.695756 
L 174.361983 184.648806 
L 177.128926 184.508045 
L 179.895868 184.259801 
L 182.66281 183.874371 
L 185.429752 183.285683 
L 188.196694 182.378677 
L 190.963636 181.006682 
L 193.730579 179.053109 
L 196.497521 176.498792 
L 199.264463 173.431081 
L 202.031405 170.000071 
L 204.798347 166.373145 
L 207.565289 162.709228 
L 210.332231 159.147003 
L 213.099174 155.799371 
L 215.866116 152.750829 
L 218.633058 150.056941 
L 221.4 147.745777 
L 224.166942 145.821184 
L 226.933884 144.267499 
L 229.700826 143.055204 
L 232.467769 142.146891 
L 235.234711 141.502956 
L 238.001653 141.086571 
L 240.768595 140.867622 
L 243.535537 140.825536 
L 246.302479 140.951071 
L 249.069421 141.247253 
L 251.836364 141.729671 
L 254.603306 142.426244 
L 257.370248 143.376488 
L 260.13719 144.630117 
L 262.904132 146.244723 
L 265.671074 148.282246 
L 268.438017 150.803972 
L 271.204959 153.864007 
L 273.971901 157.501355 
L 276.738843 161.731049 
L 279.505785 166.535003 
L 282.272727 171.853437 
L 285.039669 177.577857 
L 287.806612 183.546493 
L 290.573554 189.542985 
L 293.340496 195.298902 
L 296.107438 200.500572 
L 298.87438 204.801344 
L 301.641322 207.842648 
L 304.408264 209.291109 
L 307.175207 208.89599 
L 309.942149 206.544046 
L 312.709091 202.261685 
L 315.476033 196.160914 
L 318.242975 188.391151 
L 321.009917 179.132327 
L 323.77686 168.612701 
L 326.543802 157.126286 
L 329.310744 145.035538 
L 332.077686 132.753767 
L 334.844628 120.708296 
L 337.61157 109.291925 
L 340.378512 98.818893 
L 343.145455 89.512035 
L 345.912397 81.538885 
L 348.679339 75.06201 
L 351.446281 70.241641 
L 354.213223 67.193597 
L 356.980165 65.951533 
L 359.747107 66.454784 
L 362.51405 68.555521 
L 365.280992 72.035733 
L 368.047934 76.628481 
L 370.814876 82.040333 
L 373.581818 87.972958 
" style="fill:none;stroke:#008000;stroke-dasharray:3.7,1.6;stroke-dashoffset:0;"/>
   </g>
   <g id="line2d_17">
    <path clip-path="url(#p4be1f7754d)" d="M 69.218182 143.057764 
L 71.985124 140.294009 
L 74.752066 138.502121 
L 77.519008 137.848759 
L 80.28595 138.456176 
L 83.052893 140.383162 
L 85.819835 143.600283 
L 88.586777 147.970563 
L 91.353719 153.261162 
L 94.120661 159.188205 
L 96.887603 165.461844 
L 99.654545 171.810868 
L 102.421488 177.992511 
L 105.18843 183.797086 
L 107.955372 189.051521 
L 110.722314 193.622641 
L 113.489256 197.420064 
L 116.256198 200.398114 
L 119.02314 202.555727 
L 121.790083 203.933451 
L 124.557025 204.607317 
L 127.323967 204.680217 
L 130.090909 204.272009 
L 132.857851 203.509603 
L 135.624793 202.518056 
L 138.391736 201.413239 
L 141.158678 200.296273 
L 143.92562 199.249661 
L 146.692562 198.335016 
L 149.459504 197.59229 
L 152.226446 197.040466 
L 154.993388 196.679551 
L 157.760331 196.493579 
L 160.527273 196.454054 
L 163.294215 196.523182 
L 166.061157 196.656409 
L 168.828099 196.804318 
L 171.595041 196.914662 
L 174.361983 196.935765 
L 177.128926 196.822302 
L 179.895868 196.543676 
L 182.66281 196.094374 
L 185.429752 195.504425 
L 188.196694 194.844611 
L 190.963636 194.215514 
L 193.730579 193.71354 
L 196.497521 193.393607 
L 199.264463 193.260828 
L 202.031405 193.28883 
L 204.798347 193.439403 
L 207.565289 193.672988 
L 210.332231 193.952965 
L 213.099174 194.247639 
L 215.866116 194.531518 
L 218.633058 194.786181 
L 221.4 195.000666 
L 224.166942 195.171294 
L 226.933884 195.300958 
L 229.700826 195.398031 
L 232.467769 195.475088 
L 235.234711 195.547663 
L 238.001653 195.633223 
L 240.768595 195.750467 
L 243.535537 195.918952 
L 246.302479 196.158973 
L 249.069421 196.491553 
L 251.836364 196.938347 
L 254.603306 197.521335 
L 257.370248 198.262158 
L 260.13719 199.181092 
L 262.904132 200.295668 
L 265.671074 201.619024 
L 268.438017 203.15808 
L 271.204959 204.911629 
L 273.971901 206.868409 
L 276.738843 209.005194 
L 279.505785 211.284929 
L 282.272727 213.655006 
L 285.039669 216.045786 
L 287.806612 218.369614 
L 290.573554 220.520682 
L 293.340496 222.376152 
L 296.107438 223.798906 
L 298.87438 224.64178 
L 301.641322 224.751682 
L 304.408264 223.969682 
L 307.175207 222.124174 
L 309.942149 219.0273 
L 312.709091 214.49798 
L 315.476033 208.411201 
L 318.242975 200.740235 
L 321.009917 191.571825 
L 323.77686 181.100641 
L 326.543802 169.614226 
L 329.310744 157.475035 
L 332.077686 145.102851 
L 334.844628 132.958583 
L 337.61157 121.528219 
L 340.378512 111.302147 
L 343.145455 102.74022 
L 345.912397 96.217458 
L 348.679339 91.971045 
L 351.446281 90.082078 
L 354.213223 90.491931 
L 356.980165 93.028783 
L 359.747107 97.432482 
L 362.51405 103.378645 
L 365.280992 110.503668 
L 368.047934 118.430066 
L 370.814876 126.790297 
L 373.581818 135.247192 
" style="fill:none;stroke:#bfbf00;stroke-dasharray:7.4,3.2;stroke-dashoffset:0;stroke-width:2;"/>
   </g>
   <g id="patch_3">
    <path d="M 54 252 
L 54 34.56 
" style="fill:none;stroke:#000000;stroke-linecap:square;stroke-linejoin:miter;stroke-width:0.8;"/>
   </g>
   <g id="patch_4">
    <path d="M 388.8 252 
L 388.8 34.56 
" style="fill:none;stroke:#000000;stroke-linecap:square;stroke-linejoin:miter;stroke-width:0.8;"/>
   </g>
   <g id="patch_5">
    <path d="M 54 252 
L 388.8 252 
" style="fill:none;stroke:#000000;stroke-linecap:square;stroke-linejoin:miter;stroke-width:0.8;"/>
   </g>
   <g id="patch_6">
    <path d="M 54 34.56 
L 388.8 34.56 
" style="fill:none;stroke:#000000;stroke-linecap:square;stroke-linejoin:miter;stroke-width:0.8;"/>
   </g>
   <g id="text_16">
    <!-- Method : UCB -->
    <g transform="translate(71.985124 244.752)scale(0.12 -0.12)">
     <defs>
      <path d="M 628 4666 
L 1569 4666 
L 2759 1491 
L 3956 4666 
L 4897 4666 
L 4897 0 
L 4281 0 
L 4281 4097 
L 3078 897 
L 2444 897 
L 1241 4097 
L 1241 0 
L 628 0 
L 628 4666 
z
" id="DejaVuSans-4d" transform="scale(0.015625)"/>
      <path d="M 3597 1894 
L 3597 1613 
L 953 1613 
Q 991 1019 1311 708 
Q 1631 397 2203 397 
Q 2534 397 2845 478 
Q 3156 559 3463 722 
L 3463 178 
Q 3153 47 2828 -22 
Q 2503 -91 2169 -91 
Q 1331 -91 842 396 
Q 353 884 353 1716 
Q 353 2575 817 3079 
Q 1281 3584 2069 3584 
Q 2775 3584 3186 3129 
Q 3597 2675 3597 1894 
z
M 3022 2063 
Q 3016 2534 2758 2815 
Q 2500 3097 2075 3097 
Q 1594 3097 1305 2825 
Q 1016 2553 972 2059 
L 3022 2063 
z
" id="DejaVuSans-65" transform="scale(0.015625)"/>
      <path d="M 1172 4494 
L 1172 3500 
L 2356 3500 
L 2356 3053 
L 1172 3053 
L 1172 1153 
Q 1172 725 1289 603 
Q 1406 481 1766 481 
L 2356 481 
L 2356 0 
L 1766 0 
Q 1100 0 847 248 
Q 594 497 594 1153 
L 594 3053 
L 172 3053 
L 172 3500 
L 594 3500 
L 594 4494 
L 1172 4494 
z
" id="DejaVuSans-74" transform="scale(0.015625)"/>
      <path d="M 3513 2113 
L 3513 0 
L 2938 0 
L 2938 2094 
Q 2938 2591 2744 2837 
Q 2550 3084 2163 3084 
Q 1697 3084 1428 2787 
Q 1159 2491 1159 1978 
L 1159 0 
L 581 0 
L 581 4863 
L 1159 4863 
L 1159 2956 
Q 1366 3272 1645 3428 
Q 1925 3584 2291 3584 
Q 2894 3584 3203 3211 
Q 3513 2838 3513 2113 
z
" id="DejaVuSans-68" transform="scale(0.015625)"/>
      <path d="M 1959 3097 
Q 1497 3097 1228 2736 
Q 959 2375 959 1747 
Q 959 1119 1226 758 
Q 1494 397 1959 397 
Q 2419 397 2687 759 
Q 2956 1122 2956 1747 
Q 2956 2369 2687 2733 
Q 2419 3097 1959 3097 
z
M 1959 3584 
Q 2709 3584 3137 3096 
Q 3566 2609 3566 1747 
Q 3566 888 3137 398 
Q 2709 -91 1959 -91 
Q 1206 -91 779 398 
Q 353 888 353 1747 
Q 353 2609 779 3096 
Q 1206 3584 1959 3584 
z
" id="DejaVuSans-6f" transform="scale(0.015625)"/>
      <path d="M 2906 2969 
L 2906 4863 
L 3481 4863 
L 3481 0 
L 2906 0 
L 2906 525 
Q 2725 213 2448 61 
Q 2172 -91 1784 -91 
Q 1150 -91 751 415 
Q 353 922 353 1747 
Q 353 2572 751 3078 
Q 1150 3584 1784 3584 
Q 2172 3584 2448 3432 
Q 2725 3281 2906 2969 
z
M 947 1747 
Q 947 1113 1208 752 
Q 1469 391 1925 391 
Q 2381 391 2643 752 
Q 2906 1113 2906 1747 
Q 2906 2381 2643 2742 
Q 2381 3103 1925 3103 
Q 1469 3103 1208 2742 
Q 947 2381 947 1747 
z
" id="DejaVuSans-64" transform="scale(0.015625)"/>
      <path id="DejaVuSans-20" transform="scale(0.015625)"/>
      <path d="M 750 794 
L 1409 794 
L 1409 0 
L 750 0 
L 750 794 
z
M 750 3309 
L 1409 3309 
L 1409 2516 
L 750 2516 
L 750 3309 
z
" id="DejaVuSans-3a" transform="scale(0.015625)"/>
      <path d="M 556 4666 
L 1191 4666 
L 1191 1831 
Q 1191 1081 1462 751 
Q 1734 422 2344 422 
Q 2950 422 3222 751 
Q 3494 1081 3494 1831 
L 3494 4666 
L 4128 4666 
L 4128 1753 
Q 4128 841 3676 375 
Q 3225 -91 2344 -91 
Q 1459 -91 1007 375 
Q 556 841 556 1753 
L 556 4666 
z
" id="DejaVuSans-55" transform="scale(0.015625)"/>
      <path d="M 4122 4306 
L 4122 3641 
Q 3803 3938 3442 4084 
Q 3081 4231 2675 4231 
Q 1875 4231 1450 3742 
Q 1025 3253 1025 2328 
Q 1025 1406 1450 917 
Q 1875 428 2675 428 
Q 3081 428 3442 575 
Q 3803 722 4122 1019 
L 4122 359 
Q 3791 134 3420 21 
Q 3050 -91 2638 -91 
Q 1578 -91 968 557 
Q 359 1206 359 2328 
Q 359 3453 968 4101 
Q 1578 4750 2638 4750 
Q 3056 4750 3426 4639 
Q 3797 4528 4122 4306 
z
" id="DejaVuSans-43" transform="scale(0.015625)"/>
      <path d="M 1259 2228 
L 1259 519 
L 2272 519 
Q 2781 519 3026 730 
Q 3272 941 3272 1375 
Q 3272 1813 3026 2020 
Q 2781 2228 2272 2228 
L 1259 2228 
z
M 1259 4147 
L 1259 2741 
L 2194 2741 
Q 2656 2741 2882 2914 
Q 3109 3088 3109 3444 
Q 3109 3797 2882 3972 
Q 2656 4147 2194 4147 
L 1259 4147 
z
M 628 4666 
L 2241 4666 
Q 2963 4666 3353 4366 
Q 3744 4066 3744 3513 
Q 3744 3084 3544 2831 
Q 3344 2578 2956 2516 
Q 3422 2416 3680 2098 
Q 3938 1781 3938 1306 
Q 3938 681 3513 340 
Q 3088 0 2303 0 
L 628 0 
L 628 4666 
z
" id="DejaVuSans-42" transform="scale(0.015625)"/>
     </defs>
     <use xlink:href="#DejaVuSans-4d"/>
     <use x="86.279297" xlink:href="#DejaVuSans-65"/>
     <use x="147.802734" xlink:href="#DejaVuSans-74"/>
     <use x="187.011719" xlink:href="#DejaVuSans-68"/>
     <use x="250.390625" xlink:href="#DejaVuSans-6f"/>
     <use x="311.572266" xlink:href="#DejaVuSans-64"/>
     <use x="375.048828" xlink:href="#DejaVuSans-20"/>
     <use x="406.835938" xlink:href="#DejaVuSans-3a"/>
     <use x="440.527344" xlink:href="#DejaVuSans-20"/>
     <use x="472.314453" xlink:href="#DejaVuSans-55"/>
     <use x="545.507812" xlink:href="#DejaVuSans-43"/>
     <use x="615.332031" xlink:href="#DejaVuSans-42"/>
    </g>
   </g>
   <g id="text_17">
    <!-- Iter=1 -->
    <g transform="translate(71.985124 226.632)scale(0.12 -0.12)">
     <defs>
      <path d="M 628 4666 
L 1259 4666 
L 1259 0 
L 628 0 
L 628 4666 
z
" id="DejaVuSans-49" transform="scale(0.015625)"/>
      <path d="M 2631 2963 
Q 2534 3019 2420 3045 
Q 2306 3072 2169 3072 
Q 1681 3072 1420 2755 
Q 1159 2438 1159 1844 
L 1159 0 
L 581 0 
L 581 3500 
L 1159 3500 
L 1159 2956 
Q 1341 3275 1631 3429 
Q 1922 3584 2338 3584 
Q 2397 3584 2469 3576 
Q 2541 3569 2628 3553 
L 2631 2963 
z
" id="DejaVuSans-72" transform="scale(0.015625)"/>
      <path d="M 678 2906 
L 4684 2906 
L 4684 2381 
L 678 2381 
L 678 2906 
z
M 678 1631 
L 4684 1631 
L 4684 1100 
L 678 1100 
L 678 1631 
z
" id="DejaVuSans-3d" transform="scale(0.015625)"/>
     </defs>
     <use xlink:href="#DejaVuSans-49"/>
     <use x="29.492188" xlink:href="#DejaVuSans-74"/>
     <use x="68.701172" xlink:href="#DejaVuSans-65"/>
     <use x="130.224609" xlink:href="#DejaVuSans-72"/>
     <use x="171.337891" xlink:href="#DejaVuSans-3d"/>
     <use x="255.126953" xlink:href="#DejaVuSans-31"/>
    </g>
   </g>
   <g id="text_18">
    <!-- (b) -->
    <g transform="translate(71.985124 56.304)scale(0.12 -0.12)">
     <defs>
      <path d="M 1984 4856 
Q 1566 4138 1362 3434 
Q 1159 2731 1159 2009 
Q 1159 1288 1364 580 
Q 1569 -128 1984 -844 
L 1484 -844 
Q 1016 -109 783 600 
Q 550 1309 550 2009 
Q 550 2706 781 3412 
Q 1013 4119 1484 4856 
L 1984 4856 
z
" id="DejaVuSans-28" transform="scale(0.015625)"/>
      <path d="M 3116 1747 
Q 3116 2381 2855 2742 
Q 2594 3103 2138 3103 
Q 1681 3103 1420 2742 
Q 1159 2381 1159 1747 
Q 1159 1113 1420 752 
Q 1681 391 2138 391 
Q 2594 391 2855 752 
Q 3116 1113 3116 1747 
z
M 1159 2969 
Q 1341 3281 1617 3432 
Q 1894 3584 2278 3584 
Q 2916 3584 3314 3078 
Q 3713 2572 3713 1747 
Q 3713 922 3314 415 
Q 2916 -91 2278 -91 
Q 1894 -91 1617 61 
Q 1341 213 1159 525 
L 1159 0 
L 581 0 
L 581 4863 
L 1159 4863 
L 1159 2969 
z
" id="DejaVuSans-62" transform="scale(0.015625)"/>
      <path d="M 513 4856 
L 1013 4856 
Q 1481 4119 1714 3412 
Q 1947 2706 1947 2009 
Q 1947 1309 1714 600 
Q 1481 -109 1013 -844 
L 513 -844 
Q 928 -128 1133 580 
Q 1338 1288 1338 2009 
Q 1338 2731 1133 3434 
Q 928 4138 513 4856 
z
" id="DejaVuSans-29" transform="scale(0.015625)"/>
     </defs>
     <use xlink:href="#DejaVuSans-28"/>
     <use x="39.013672" xlink:href="#DejaVuSans-62"/>
     <use x="102.490234" xlink:href="#DejaVuSans-29"/>
    </g>
   </g>
   <g id="legend_1">
    <g id="patch_7">
     <path d="M 144.327812 140.235625 
L 298.472188 140.235625 
Q 300.672188 140.235625 300.672188 138.035625 
L 300.672188 42.26 
Q 300.672188 40.06 298.472188 40.06 
L 144.327812 40.06 
Q 142.127813 40.06 142.127813 42.26 
L 142.127813 138.035625 
Q 142.127813 140.235625 144.327812 140.235625 
z
" style="fill:#ffffff;opacity:0.8;stroke:#cccccc;stroke-linejoin:miter;"/>
    </g>
    <g id="line2d_18">
     <path d="M 146.527813 48.968281 
L 168.527813 48.968281 
" style="fill:none;stroke:#0000ff;stroke-linecap:square;stroke-width:2;"/>
    </g>
    <g id="line2d_19"/>
    <g id="text_19">
     <!-- ture function -->
     <g transform="translate(177.327813 52.818281)scale(0.11 -0.11)">
      <defs>
       <path d="M 544 1381 
L 544 3500 
L 1119 3500 
L 1119 1403 
Q 1119 906 1312 657 
Q 1506 409 1894 409 
Q 2359 409 2629 706 
Q 2900 1003 2900 1516 
L 2900 3500 
L 3475 3500 
L 3475 0 
L 2900 0 
L 2900 538 
Q 2691 219 2414 64 
Q 2138 -91 1772 -91 
Q 1169 -91 856 284 
Q 544 659 544 1381 
z
M 1991 3584 
L 1991 3584 
z
" id="DejaVuSans-75" transform="scale(0.015625)"/>
       <path d="M 2375 4863 
L 2375 4384 
L 1825 4384 
Q 1516 4384 1395 4259 
Q 1275 4134 1275 3809 
L 1275 3500 
L 2222 3500 
L 2222 3053 
L 1275 3053 
L 1275 0 
L 697 0 
L 697 3053 
L 147 3053 
L 147 3500 
L 697 3500 
L 697 3744 
Q 697 4328 969 4595 
Q 1241 4863 1831 4863 
L 2375 4863 
z
" id="DejaVuSans-66" transform="scale(0.015625)"/>
       <path d="M 3513 2113 
L 3513 0 
L 2938 0 
L 2938 2094 
Q 2938 2591 2744 2837 
Q 2550 3084 2163 3084 
Q 1697 3084 1428 2787 
Q 1159 2491 1159 1978 
L 1159 0 
L 581 0 
L 581 3500 
L 1159 3500 
L 1159 2956 
Q 1366 3272 1645 3428 
Q 1925 3584 2291 3584 
Q 2894 3584 3203 3211 
Q 3513 2838 3513 2113 
z
" id="DejaVuSans-6e" transform="scale(0.015625)"/>
       <path d="M 3122 3366 
L 3122 2828 
Q 2878 2963 2633 3030 
Q 2388 3097 2138 3097 
Q 1578 3097 1268 2742 
Q 959 2388 959 1747 
Q 959 1106 1268 751 
Q 1578 397 2138 397 
Q 2388 397 2633 464 
Q 2878 531 3122 666 
L 3122 134 
Q 2881 22 2623 -34 
Q 2366 -91 2075 -91 
Q 1284 -91 818 406 
Q 353 903 353 1747 
Q 353 2603 823 3093 
Q 1294 3584 2113 3584 
Q 2378 3584 2631 3529 
Q 2884 3475 3122 3366 
z
" id="DejaVuSans-63" transform="scale(0.015625)"/>
       <path d="M 603 3500 
L 1178 3500 
L 1178 0 
L 603 0 
L 603 3500 
z
M 603 4863 
L 1178 4863 
L 1178 4134 
L 603 4134 
L 603 4863 
z
" id="DejaVuSans-69" transform="scale(0.015625)"/>
      </defs>
      <use xlink:href="#DejaVuSans-74"/>
      <use x="39.208984" xlink:href="#DejaVuSans-75"/>
      <use x="102.587891" xlink:href="#DejaVuSans-72"/>
      <use x="141.451172" xlink:href="#DejaVuSans-65"/>
      <use x="202.974609" xlink:href="#DejaVuSans-20"/>
      <use x="234.761719" xlink:href="#DejaVuSans-66"/>
      <use x="269.966797" xlink:href="#DejaVuSans-75"/>
      <use x="333.345703" xlink:href="#DejaVuSans-6e"/>
      <use x="396.724609" xlink:href="#DejaVuSans-63"/>
      <use x="451.705078" xlink:href="#DejaVuSans-74"/>
      <use x="490.914062" xlink:href="#DejaVuSans-69"/>
      <use x="518.697266" xlink:href="#DejaVuSans-6f"/>
      <use x="579.878906" xlink:href="#DejaVuSans-6e"/>
     </g>
    </g>
    <g id="line2d_20">
     <path d="M 146.527813 65.114219 
L 168.527813 65.114219 
" style="fill:none;stroke:#000000;stroke-dasharray:7.4,3.2;stroke-dashoffset:0;stroke-width:2;"/>
    </g>
    <g id="line2d_21"/>
    <g id="text_20">
     <!-- predicted function -->
     <g transform="translate(177.327813 68.964219)scale(0.11 -0.11)">
      <defs>
       <path d="M 1159 525 
L 1159 -1331 
L 581 -1331 
L 581 3500 
L 1159 3500 
L 1159 2969 
Q 1341 3281 1617 3432 
Q 1894 3584 2278 3584 
Q 2916 3584 3314 3078 
Q 3713 2572 3713 1747 
Q 3713 922 3314 415 
Q 2916 -91 2278 -91 
Q 1894 -91 1617 61 
Q 1341 213 1159 525 
z
M 3116 1747 
Q 3116 2381 2855 2742 
Q 2594 3103 2138 3103 
Q 1681 3103 1420 2742 
Q 1159 2381 1159 1747 
Q 1159 1113 1420 752 
Q 1681 391 2138 391 
Q 2594 391 2855 752 
Q 3116 1113 3116 1747 
z
" id="DejaVuSans-70" transform="scale(0.015625)"/>
      </defs>
      <use xlink:href="#DejaVuSans-70"/>
      <use x="63.476562" xlink:href="#DejaVuSans-72"/>
      <use x="102.339844" xlink:href="#DejaVuSans-65"/>
      <use x="163.863281" xlink:href="#DejaVuSans-64"/>
      <use x="227.339844" xlink:href="#DejaVuSans-69"/>
      <use x="255.123047" xlink:href="#DejaVuSans-63"/>
      <use x="310.103516" xlink:href="#DejaVuSans-74"/>
      <use x="349.3125" xlink:href="#DejaVuSans-65"/>
      <use x="410.835938" xlink:href="#DejaVuSans-64"/>
      <use x="474.3125" xlink:href="#DejaVuSans-20"/>
      <use x="506.099609" xlink:href="#DejaVuSans-66"/>
      <use x="541.304688" xlink:href="#DejaVuSans-75"/>
      <use x="604.683594" xlink:href="#DejaVuSans-6e"/>
      <use x="668.0625" xlink:href="#DejaVuSans-63"/>
      <use x="723.042969" xlink:href="#DejaVuSans-74"/>
      <use x="762.251953" xlink:href="#DejaVuSans-69"/>
      <use x="790.035156" xlink:href="#DejaVuSans-6f"/>
      <use x="851.216797" xlink:href="#DejaVuSans-6e"/>
     </g>
    </g>
    <g id="line2d_22">
     <path d="M 146.527813 81.260156 
L 168.527813 81.260156 
" style="fill:none;stroke:#008000;stroke-dasharray:3.7,1.6;stroke-dashoffset:0;"/>
    </g>
    <g id="line2d_23"/>
    <g id="text_21">
     <!--  ± Sn(x) -->
     <g transform="translate(177.327813 85.110156)scale(0.11 -0.11)">
      <defs>
       <path d="M 2944 4013 
L 2944 2803 
L 4684 2803 
L 4684 2272 
L 2944 2272 
L 2944 1063 
L 2419 1063 
L 2419 2272 
L 678 2272 
L 678 2803 
L 2419 2803 
L 2419 4013 
L 2944 4013 
z
M 678 531 
L 4684 531 
L 4684 0 
L 678 0 
L 678 531 
z
" id="DejaVuSans-b1" transform="scale(0.015625)"/>
       <path d="M 3425 4513 
L 3425 3897 
Q 3066 4069 2747 4153 
Q 2428 4238 2131 4238 
Q 1616 4238 1336 4038 
Q 1056 3838 1056 3469 
Q 1056 3159 1242 3001 
Q 1428 2844 1947 2747 
L 2328 2669 
Q 3034 2534 3370 2195 
Q 3706 1856 3706 1288 
Q 3706 609 3251 259 
Q 2797 -91 1919 -91 
Q 1588 -91 1214 -16 
Q 841 59 441 206 
L 441 856 
Q 825 641 1194 531 
Q 1563 422 1919 422 
Q 2459 422 2753 634 
Q 3047 847 3047 1241 
Q 3047 1584 2836 1778 
Q 2625 1972 2144 2069 
L 1759 2144 
Q 1053 2284 737 2584 
Q 422 2884 422 3419 
Q 422 4038 858 4394 
Q 1294 4750 2059 4750 
Q 2388 4750 2728 4690 
Q 3069 4631 3425 4513 
z
" id="DejaVuSans-53" transform="scale(0.015625)"/>
      </defs>
      <use xlink:href="#DejaVuSans-20"/>
      <use x="31.787109" xlink:href="#DejaVuSans-b1"/>
      <use x="115.576172" xlink:href="#DejaVuSans-20"/>
      <use x="147.363281" xlink:href="#DejaVuSans-53"/>
      <use x="210.839844" xlink:href="#DejaVuSans-6e"/>
      <use x="274.21875" xlink:href="#DejaVuSans-28"/>
      <use x="313.232422" xlink:href="#DejaVuSans-78"/>
      <use x="372.412109" xlink:href="#DejaVuSans-29"/>
     </g>
    </g>
    <g id="line2d_24">
     <path d="M 146.527813 97.406094 
L 168.527813 97.406094 
" style="fill:none;stroke:#bfbf00;stroke-dasharray:7.4,3.2;stroke-dashoffset:0;stroke-width:2;"/>
    </g>
    <g id="line2d_25"/>
    <g id="text_22">
     <!-- UCB(x) -->
     <g transform="translate(177.327813 101.256094)scale(0.11 -0.11)">
      <use xlink:href="#DejaVuSans-55"/>
      <use x="73.193359" xlink:href="#DejaVuSans-43"/>
      <use x="143.017578" xlink:href="#DejaVuSans-42"/>
      <use x="211.621094" xlink:href="#DejaVuSans-28"/>
      <use x="250.634766" xlink:href="#DejaVuSans-78"/>
      <use x="309.814453" xlink:href="#DejaVuSans-29"/>
     </g>
    </g>
    <g id="PathCollection_2">
     <defs>
      <path d="M 0 3.535534 
C 0.937635 3.535534 1.836992 3.163008 2.5 2.5 
C 3.163008 1.836992 3.535534 0.937635 3.535534 0 
C 3.535534 -0.937635 3.163008 -1.836992 2.5 -2.5 
C 1.836992 -3.163008 0.937635 -3.535534 0 -3.535534 
C -0.937635 -3.535534 -1.836992 -3.163008 -2.5 -2.5 
C -3.163008 -1.836992 -3.535534 -0.937635 -3.535534 0 
C -3.535534 0.937635 -3.163008 1.836992 -2.5 2.5 
C -1.836992 3.163008 -0.937635 3.535534 0 3.535534 
z
" id="m530280f617" style="stroke:#000000;"/>
     </defs>
     <g>
      <use style="fill:#ff0000;stroke:#000000;" x="157.527813" xlink:href="#m530280f617" y="114.514531"/>
     </g>
    </g>
    <g id="text_23">
     <!-- training data -->
     <g transform="translate(177.327813 117.402031)scale(0.11 -0.11)">
      <defs>
       <path d="M 2194 1759 
Q 1497 1759 1228 1600 
Q 959 1441 959 1056 
Q 959 750 1161 570 
Q 1363 391 1709 391 
Q 2188 391 2477 730 
Q 2766 1069 2766 1631 
L 2766 1759 
L 2194 1759 
z
M 3341 1997 
L 3341 0 
L 2766 0 
L 2766 531 
Q 2569 213 2275 61 
Q 1981 -91 1556 -91 
Q 1019 -91 701 211 
Q 384 513 384 1019 
Q 384 1609 779 1909 
Q 1175 2209 1959 2209 
L 2766 2209 
L 2766 2266 
Q 2766 2663 2505 2880 
Q 2244 3097 1772 3097 
Q 1472 3097 1187 3025 
Q 903 2953 641 2809 
L 641 3341 
Q 956 3463 1253 3523 
Q 1550 3584 1831 3584 
Q 2591 3584 2966 3190 
Q 3341 2797 3341 1997 
z
" id="DejaVuSans-61" transform="scale(0.015625)"/>
       <path d="M 2906 1791 
Q 2906 2416 2648 2759 
Q 2391 3103 1925 3103 
Q 1463 3103 1205 2759 
Q 947 2416 947 1791 
Q 947 1169 1205 825 
Q 1463 481 1925 481 
Q 2391 481 2648 825 
Q 2906 1169 2906 1791 
z
M 3481 434 
Q 3481 -459 3084 -895 
Q 2688 -1331 1869 -1331 
Q 1566 -1331 1297 -1286 
Q 1028 -1241 775 -1147 
L 775 -588 
Q 1028 -725 1275 -790 
Q 1522 -856 1778 -856 
Q 2344 -856 2625 -561 
Q 2906 -266 2906 331 
L 2906 616 
Q 2728 306 2450 153 
Q 2172 0 1784 0 
Q 1141 0 747 490 
Q 353 981 353 1791 
Q 353 2603 747 3093 
Q 1141 3584 1784 3584 
Q 2172 3584 2450 3431 
Q 2728 3278 2906 2969 
L 2906 3500 
L 3481 3500 
L 3481 434 
z
" id="DejaVuSans-67" transform="scale(0.015625)"/>
      </defs>
      <use xlink:href="#DejaVuSans-74"/>
      <use x="39.208984" xlink:href="#DejaVuSans-72"/>
      <use x="80.322266" xlink:href="#DejaVuSans-61"/>
      <use x="141.601562" xlink:href="#DejaVuSans-69"/>
      <use x="169.384766" xlink:href="#DejaVuSans-6e"/>
      <use x="232.763672" xlink:href="#DejaVuSans-69"/>
      <use x="260.546875" xlink:href="#DejaVuSans-6e"/>
      <use x="323.925781" xlink:href="#DejaVuSans-67"/>
      <use x="387.402344" xlink:href="#DejaVuSans-20"/>
      <use x="419.189453" xlink:href="#DejaVuSans-64"/>
      <use x="482.666016" xlink:href="#DejaVuSans-61"/>
      <use x="543.945312" xlink:href="#DejaVuSans-74"/>
      <use x="583.154297" xlink:href="#DejaVuSans-61"/>
     </g>
    </g>
    <g id="PathCollection_3">
     <g>
      <use style="fill:#ff0000;stroke:#ff0000;stroke-width:8;" x="157.527813" xlink:href="#me37ba9ceb6" y="130.660469"/>
     </g>
    </g>
    <g id="text_24">
     <!-- recommended datum -->
     <g transform="translate(177.327813 133.547969)scale(0.11 -0.11)">
      <defs>
       <path d="M 3328 2828 
Q 3544 3216 3844 3400 
Q 4144 3584 4550 3584 
Q 5097 3584 5394 3201 
Q 5691 2819 5691 2113 
L 5691 0 
L 5113 0 
L 5113 2094 
Q 5113 2597 4934 2840 
Q 4756 3084 4391 3084 
Q 3944 3084 3684 2787 
Q 3425 2491 3425 1978 
L 3425 0 
L 2847 0 
L 2847 2094 
Q 2847 2600 2669 2842 
Q 2491 3084 2119 3084 
Q 1678 3084 1418 2786 
Q 1159 2488 1159 1978 
L 1159 0 
L 581 0 
L 581 3500 
L 1159 3500 
L 1159 2956 
Q 1356 3278 1631 3431 
Q 1906 3584 2284 3584 
Q 2666 3584 2933 3390 
Q 3200 3197 3328 2828 
z
" id="DejaVuSans-6d" transform="scale(0.015625)"/>
      </defs>
      <use xlink:href="#DejaVuSans-72"/>
      <use x="38.863281" xlink:href="#DejaVuSans-65"/>
      <use x="100.386719" xlink:href="#DejaVuSans-63"/>
      <use x="155.367188" xlink:href="#DejaVuSans-6f"/>
      <use x="216.548828" xlink:href="#DejaVuSans-6d"/>
      <use x="313.960938" xlink:href="#DejaVuSans-6d"/>
      <use x="411.373047" xlink:href="#DejaVuSans-65"/>
      <use x="472.896484" xlink:href="#DejaVuSans-6e"/>
      <use x="536.275391" xlink:href="#DejaVuSans-64"/>
      <use x="599.751953" xlink:href="#DejaVuSans-65"/>
      <use x="661.275391" xlink:href="#DejaVuSans-64"/>
      <use x="724.751953" xlink:href="#DejaVuSans-20"/>
      <use x="756.539062" xlink:href="#DejaVuSans-64"/>
      <use x="820.015625" xlink:href="#DejaVuSans-61"/>
      <use x="881.294922" xlink:href="#DejaVuSans-74"/>
      <use x="920.503906" xlink:href="#DejaVuSans-75"/>
      <use x="983.882812" xlink:href="#DejaVuSans-6d"/>
     </g>
    </g>
   </g>
   <g id="line2d_26">
    <path clip-path="url(#p4be1f7754d)" d="M 69.218182 132.736511 
L 71.985124 131.271923 
L 74.752066 130.739201 
L 77.519008 131.238844 
L 80.28595 132.824571 
L 83.052893 135.496351 
L 85.819835 139.197339 
L 88.586777 143.815252 
L 91.353719 149.188248 
L 94.120661 155.11487 
L 96.887603 161.367219 
L 99.654545 167.706116 
L 102.421488 173.896858 
L 105.18843 179.724117 
L 107.955372 185.00467 
L 110.722314 189.59695 
L 113.489256 193.406793 
L 116.256198 196.389187 
L 119.02314 198.54625 
L 121.790083 199.922024 
L 124.557025 200.594892 
L 127.323967 200.668546 
L 130.090909 200.262443 
L 132.857851 199.502535 
L 135.624793 198.51292 
L 138.391736 197.408822 
L 141.158678 196.291138 
L 143.92562 195.242594 
L 146.692562 194.325449 
L 149.459504 193.580619 
L 152.226446 193.028041 
L 154.993388 192.668124 
L 157.760331 192.484102 
L 160.527273 192.445127 
L 163.294215 192.509911 
L 166.061157 192.630718 
L 168.828099 192.757467 
L 171.595041 192.841693 
L 174.361983 192.840112 
L 177.128926 192.71755 
L 179.895868 192.449051 
L 182.66281 192.02104 
L 185.429752 191.431511 
L 188.196694 190.6893 
L 190.963636 189.81257 
L 193.730579 188.82673 
L 196.497521 187.762002 
L 199.264463 186.650912 
L 202.031405 185.52591 
L 204.798347 184.417317 
L 207.565289 183.351735 
L 210.332231 182.350978 
L 213.099174 181.43155 
L 215.866116 180.604622 
L 218.633058 179.876434 
L 221.4 179.249037 
L 224.166942 178.721257 
L 226.933884 178.289805 
L 229.700826 177.950422 
L 232.467769 177.699022 
L 235.234711 177.53276 
L 238.001653 177.451006 
L 240.768595 177.456185 
L 243.535537 177.55448 
L 246.302479 177.756339 
L 249.069421 178.076786 
L 251.836364 178.535455 
L 254.603306 179.156304 
L 257.370248 179.966934 
L 260.13719 180.997433 
L 262.904132 182.278687 
L 265.671074 183.840098 
L 268.438017 185.706711 
L 271.204959 187.895755 
L 273.971901 190.412725 
L 276.738843 193.247146 
L 279.505785 196.368287 
L 282.272727 199.72115 
L 285.039669 203.223143 
L 287.806612 206.761907 
L 290.573554 210.194783 
L 293.340496 213.350402 
L 296.107438 216.032795 
L 298.87438 218.028302 
L 301.641322 219.115337 
L 304.408264 219.076824 
L 307.175207 217.714779 
L 309.942149 214.866215 
L 312.709091 210.419215 
L 315.476033 204.327772 
L 318.242975 196.623874 
L 321.009917 187.425325 
L 323.77686 176.937995 
L 326.543802 165.451579 
L 329.310744 153.328536 
L 332.077686 140.98649 
L 334.844628 128.875154 
L 337.61157 117.449454 
L 340.378512 107.141062 
L 343.145455 98.330825 
L 345.912397 91.3246 
L 348.679339 86.3347 
L 351.446281 83.468599 
L 354.213223 82.72582 
L 356.980165 84.003033 
L 359.747107 87.106583 
L 362.51405 91.770937 
L 365.280992 97.681023 
L 368.047934 104.496204 
L 370.814876 111.873642 
L 373.581818 119.489114 
" style="fill:none;stroke:#000000;stroke-dasharray:7.4,3.2;stroke-dashoffset:0;stroke-width:2;"/>
   </g>
   <g id="PathCollection_4">
    <g clip-path="url(#p4be1f7754d)">
     <use style="fill:#ff0000;stroke:#000000;" x="83.052893" xlink:href="#m530280f617" y="129.399309"/>
     <use style="fill:#ff0000;stroke:#000000;" x="96.887603" xlink:href="#m530280f617" y="162.429541"/>
     <use style="fill:#ff0000;stroke:#000000;" x="110.722314" xlink:href="#m530280f617" y="193.170209"/>
     <use style="fill:#ff0000;stroke:#000000;" x="124.557025" xlink:href="#m530280f617" y="199.248575"/>
     <use style="fill:#ff0000;stroke:#000000;" x="138.391736" xlink:href="#m530280f617" y="199.347548"/>
     <use style="fill:#ff0000;stroke:#000000;" x="152.226446" xlink:href="#m530280f617" y="191.611971"/>
     <use style="fill:#ff0000;stroke:#000000;" x="166.061157" xlink:href="#m530280f617" y="193.66847"/>
     <use style="fill:#ff0000;stroke:#000000;" x="179.895868" xlink:href="#m530280f617" y="193.283098"/>
     <use style="fill:#ff0000;stroke:#000000;" x="193.730579" xlink:href="#m530280f617" y="188.924027"/>
     <use style="fill:#ff0000;stroke:#000000;" x="318.242975" xlink:href="#m530280f617" y="199.289596"/>
     <use style="fill:#ff0000;stroke:#000000;" x="332.077686" xlink:href="#m530280f617" y="145.37007"/>
     <use style="fill:#ff0000;stroke:#000000;" x="345.912397" xlink:href="#m530280f617" y="78.407322"/>
     <use style="fill:#ff0000;stroke:#000000;" x="304.408264" xlink:href="#m530280f617" y="221.009424"/>
    </g>
   </g>
  </g>
 </g>
 <defs>
  <clipPath id="p4be1f7754d">
   <rect height="217.44" width="334.8" x="54" y="34.56"/>
  </clipPath>
 </defs>
</svg>
