<?xml version="1.0" encoding="utf-8" standalone="no"?>
<!DOCTYPE svg PUBLIC "-//W3C//DTD SVG 1.1//EN"
  "http://www.w3.org/Graphics/SVG/1.1/DTD/svg11.dtd">
<!-- Created with matplotlib (https://matplotlib.org/) -->
<svg height="288pt" version="1.1" viewBox="0 0 432 288" width="432pt" xmlns="http://www.w3.org/2000/svg" xmlns:xlink="http://www.w3.org/1999/xlink">
 <metadata>
  <rdf:RDF xmlns:cc="http://creativecommons.org/ns#" xmlns:dc="http://purl.org/dc/elements/1.1/" xmlns:rdf="http://www.w3.org/1999/02/22-rdf-syntax-ns#">
   <cc:Work>
    <dc:type rdf:resource="http://purl.org/dc/dcmitype/StillImage"/>
    <dc:date>2022-08-03T21:34:01.961013</dc:date>
    <dc:format>image/svg+xml</dc:format>
    <dc:creator>
     <cc:Agent>
      <dc:title>Matplotlib v3.3.2, https://matplotlib.org/</dc:title>
     </cc:Agent>
    </dc:creator>
   </cc:Work>
  </rdf:RDF>
 </metadata>
 <defs>
  <style type="text/css">*{stroke-linecap:butt;stroke-linejoin:round;}</style>
 </defs>
 <g id="figure_1">
  <g id="patch_1">
   <path d="M 0 288 
L 432 288 
L 432 0 
L 0 0 
z
" style="fill:none;"/>
  </g>
  <g id="axes_1">
   <g id="patch_2">
    <path d="M 54 252 
L 388.8 252 
L 388.8 34.56 
L 54 34.56 
z
" style="fill:#ffffff;"/>
   </g>
   <g id="PolyCollection_1">
    <defs>
     <path d="M 69.218182 -170.222194 
L 69.218182 -120.333417 
L 71.985124 -124.197244 
L 74.752066 -127.32683 
L 77.519008 -129.520977 
L 80.28595 -130.608986 
L 83.052893 -130.473464 
L 85.819835 -129.076031 
L 88.586777 -126.477589 
L 91.353719 -122.838846 
L 94.120661 -118.394369 
L 96.887603 -113.41201 
L 99.654545 -108.157044 
L 102.421488 -102.87048 
L 105.18843 -97.759523 
L 107.955372 -92.994798 
L 110.722314 -88.710337 
L 113.489256 -85.004325 
L 116.256198 -81.939843 
L 119.02314 -79.545632 
L 121.790083 -77.817373 
L 124.557025 -76.720127 
L 127.323967 -76.192417 
L 130.090909 -76.151982 
L 132.857851 -76.502794 
L 135.624793 -77.142627 
L 138.391736 -77.970368 
L 141.158678 -78.892367 
L 143.92562 -79.827329 
L 146.692562 -80.709504 
L 149.459504 -81.490226 
L 152.226446 -82.138075 
L 154.993388 -82.638086 
L 157.760331 -82.9905 
L 160.527273 -83.209376 
L 163.294215 -83.321108 
L 166.061157 -83.362433 
L 168.828099 -83.377205 
L 171.595041 -83.411138 
L 174.361983 -83.504097 
L 177.128926 -83.680204 
L 179.895868 -83.937009 
L 182.66281 -84.236465 
L 185.429752 -84.502525 
L 188.196694 -84.631707 
L 190.963636 -84.519489 
L 193.730579 -84.093872 
L 196.497521 -83.337306 
L 199.264463 -82.285388 
L 202.031405 -81.009056 
L 204.798347 -79.594223 
L 207.565289 -78.126616 
L 210.332231 -76.682541 
L 213.099174 -75.323815 
L 215.866116 -74.095342 
L 218.633058 -73.024529 
L 221.4 -72.12209 
L 224.166942 -71.383963 
L 226.933884 -70.793977 
L 229.700826 -70.326921 
L 232.467769 -69.951609 
L 235.234711 -69.633614 
L 238.001653 -69.337453 
L 240.768595 -69.028128 
L 243.535537 -68.672123 
L 246.302479 -68.238027 
L 249.069421 -67.697066 
L 251.836364 -67.023779 
L 254.603306 -66.197047 
L 257.370248 -65.201505 
L 260.13719 -64.029304 
L 262.904132 -62.68201 
L 265.671074 -61.172406 
L 268.438017 -59.525916 
L 271.204959 -57.78142 
L 273.971901 -55.991319 
L 276.738843 -54.220754 
L 279.505785 -52.546016 
L 282.272727 -51.052147 
L 285.039669 -49.829788 
L 287.806612 -48.971216 
L 290.573554 -48.565468 
L 293.340496 -48.692452 
L 296.107438 -49.416371 
L 298.87438 -50.780443 
L 301.641322 -52.808793 
L 304.408264 -55.525779 
L 307.175207 -58.994867 
L 309.942149 -63.345664 
L 312.709091 -68.742965 
L 315.476033 -75.31102 
L 318.242975 -83.073858 
L 321.009917 -91.937655 
L 323.77686 -101.700708 
L 326.543802 -112.0731 
L 329.310744 -122.697381 
L 332.077686 -133.167906 
L 334.844628 -143.049863 
L 337.61157 -151.901929 
L 340.378512 -159.308187 
L 343.145455 -164.9212 
L 345.912397 -168.506294 
L 348.679339 -169.967849 
L 351.446281 -169.347218 
L 354.213223 -166.800106 
L 356.980165 -162.567437 
L 359.747107 -156.947434 
L 362.51405 -150.270408 
L 365.280992 -142.875942 
L 368.047934 -135.092633 
L 370.814876 -127.221111 
L 373.581818 -119.521136 
L 373.581818 -187.112801 
L 373.581818 -187.112801 
L 370.814876 -192.155255 
L 368.047934 -196.882469 
L 365.280992 -201.061494 
L 362.51405 -204.456686 
L 359.747107 -206.845284 
L 356.980165 -208.033821 
L 354.213223 -207.87369 
L 351.446281 -206.273633 
L 348.679339 -203.206083 
L 345.912397 -198.70403 
L 343.145455 -192.847357 
L 340.378512 -185.744636 
L 337.61157 -177.523719 
L 334.844628 -168.339407 
L 332.077686 -158.389307 
L 329.310744 -147.921093 
L 326.543802 -137.224269 
L 323.77686 -126.611611 
L 321.009917 -116.399178 
L 318.242975 -106.891647 
L 315.476033 -98.376201 
L 312.709091 -91.12401 
L 309.942149 -85.391181 
L 307.175207 -81.401013 
L 304.408264 -79.292208 
L 301.641322 -79.057586 
L 298.87438 -80.532409 
L 296.107438 -83.443652 
L 293.340496 -87.47225 
L 290.573554 -92.295286 
L 287.806612 -97.608864 
L 285.039669 -103.140867 
L 282.272727 -108.658819 
L 279.505785 -113.974455 
L 276.738843 -118.945315 
L 273.971901 -123.473515 
L 271.204959 -127.502021 
L 268.438017 -131.009005 
L 265.671074 -134.000985 
L 262.904132 -136.505482 
L 260.13719 -138.563866 
L 257.370248 -140.224896 
L 254.603306 -141.539276 
L 251.836364 -142.555343 
L 249.069421 -143.31583 
L 246.302479 -143.85557 
L 243.535537 -144.199945 
L 240.768595 -144.363967 
L 238.001653 -144.351935 
L 235.234711 -144.157729 
L 232.467769 -143.765836 
L 229.700826 -143.153273 
L 226.933884 -142.292451 
L 224.166942 -141.154983 
L 221.4 -139.716238 
L 218.633058 -137.960331 
L 215.866116 -135.885126 
L 213.099174 -133.506721 
L 210.332231 -130.86295 
L 207.565289 -128.015391 
L 204.798347 -125.049473 
L 202.031405 -122.072098 
L 199.264463 -119.205884 
L 196.497521 -116.578459 
L 193.730579 -114.305068 
L 190.963636 -112.465312 
L 188.196694 -111.081984 
L 185.429752 -110.116196 
L 182.66281 -109.485841 
L 179.895868 -109.096169 
L 177.128926 -108.864022 
L 174.361983 -108.727374 
L 171.595041 -108.643304 
L 168.828099 -108.580846 
L 166.061157 -108.513591 
L 163.294215 -108.414615 
L 160.527273 -108.254747 
L 157.760331 -108.004084 
L 154.993388 -107.635868 
L 152.226446 -107.131435 
L 149.459504 -106.484965 
L 146.692562 -105.707134 
L 143.92562 -104.827175 
L 141.158678 -103.893302 
L 138.391736 -102.971589 
L 135.624793 -102.143561 
L 132.857851 -101.50264 
L 130.090909 -101.149611 
L 127.323967 -101.187156 
L 124.557025 -101.713487 
L 121.790083 -102.815155 
L 119.02314 -104.559216 
L 116.256198 -106.985213 
L 113.489256 -110.097832 
L 110.722314 -113.861495 
L 107.955372 -118.198438 
L 105.18843 -122.991689 
L 102.421488 -128.093757 
L 99.654545 -133.340862 
L 96.887603 -138.571169 
L 94.120661 -143.643745 
L 91.353719 -148.452516 
L 88.586777 -152.927865 
L 85.819835 -157.021855 
L 83.052893 -160.68466 
L 80.28595 -163.85014 
L 77.519008 -166.441473 
L 74.752066 -168.389872 
L 71.985124 -169.652494 
L 69.218182 -170.222194 
z
" id="ma8b50944a1" style="stroke:#add8e6;stroke-opacity:0.2;"/>
    </defs>
    <g clip-path="url(#p8ad9794156)">
     <use style="fill:#add8e6;fill-opacity:0.2;stroke:#add8e6;stroke-opacity:0.2;" x="0" xlink:href="#ma8b50944a1" y="288"/>
    </g>
   </g>
   <g id="PathCollection_1">
    <defs>
     <path d="M 0 0.612372 
C 0.162403 0.612372 0.318176 0.547849 0.433013 0.433013 
C 0.547849 0.318176 0.612372 0.162403 0.612372 0 
C 0.612372 -0.162403 0.547849 -0.318176 0.433013 -0.433013 
C 0.318176 -0.547849 0.162403 -0.612372 0 -0.612372 
C -0.162403 -0.612372 -0.318176 -0.547849 -0.433013 -0.433013 
C -0.547849 -0.318176 -0.612372 -0.162403 -0.612372 0 
C -0.612372 0.162403 -0.547849 0.318176 -0.433013 0.433013 
C -0.318176 0.547849 -0.162403 0.612372 0 0.612372 
z
" id="m8dc9fa68ab" style="stroke:#ff0000;stroke-width:8;"/>
    </defs>
    <g clip-path="url(#p8ad9794156)">
     <use style="fill:#ff0000;stroke:#ff0000;stroke-width:8;" x="296.107438" xlink:href="#m8dc9fa68ab" y="239.190317"/>
    </g>
   </g>
   <g id="matplotlib.axis_1">
    <g id="xtick_1">
     <g id="line2d_1">
      <defs>
       <path d="M 0 0 
L 0 3.5 
" id="m443997683a" style="stroke:#000000;stroke-width:0.8;"/>
      </defs>
      <g>
       <use style="stroke:#000000;stroke-width:0.8;" x="69.218182" xlink:href="#m443997683a" y="252"/>
      </g>
     </g>
     <g id="text_1">
      <!-- 0 -->
      <g transform="translate(66.036932 266.598437)scale(0.1 -0.1)">
       <defs>
        <path d="M 31.78125 66.40625 
Q 24.171875 66.40625 20.328125 58.90625 
Q 16.5 51.421875 16.5 36.375 
Q 16.5 21.390625 20.328125 13.890625 
Q 24.171875 6.390625 31.78125 6.390625 
Q 39.453125 6.390625 43.28125 13.890625 
Q 47.125 21.390625 47.125 36.375 
Q 47.125 51.421875 43.28125 58.90625 
Q 39.453125 66.40625 31.78125 66.40625 
z
M 31.78125 74.21875 
Q 44.046875 74.21875 50.515625 64.515625 
Q 56.984375 54.828125 56.984375 36.375 
Q 56.984375 17.96875 50.515625 8.265625 
Q 44.046875 -1.421875 31.78125 -1.421875 
Q 19.53125 -1.421875 13.0625 8.265625 
Q 6.59375 17.96875 6.59375 36.375 
Q 6.59375 54.828125 13.0625 64.515625 
Q 19.53125 74.21875 31.78125 74.21875 
z
" id="DejaVuSans-48"/>
       </defs>
       <use xlink:href="#DejaVuSans-48"/>
      </g>
     </g>
    </g>
    <g id="xtick_2">
     <g id="line2d_2">
      <g>
       <use style="stroke:#000000;stroke-width:0.8;" x="124.557025" xlink:href="#m443997683a" y="252"/>
      </g>
     </g>
     <g id="text_2">
      <!-- 2 -->
      <g transform="translate(121.375775 266.598437)scale(0.1 -0.1)">
       <defs>
        <path d="M 19.1875 8.296875 
L 53.609375 8.296875 
L 53.609375 0 
L 7.328125 0 
L 7.328125 8.296875 
Q 12.9375 14.109375 22.625 23.890625 
Q 32.328125 33.6875 34.8125 36.53125 
Q 39.546875 41.84375 41.421875 45.53125 
Q 43.3125 49.21875 43.3125 52.78125 
Q 43.3125 58.59375 39.234375 62.25 
Q 35.15625 65.921875 28.609375 65.921875 
Q 23.96875 65.921875 18.8125 64.3125 
Q 13.671875 62.703125 7.8125 59.421875 
L 7.8125 69.390625 
Q 13.765625 71.78125 18.9375 73 
Q 24.125 74.21875 28.421875 74.21875 
Q 39.75 74.21875 46.484375 68.546875 
Q 53.21875 62.890625 53.21875 53.421875 
Q 53.21875 48.921875 51.53125 44.890625 
Q 49.859375 40.875 45.40625 35.40625 
Q 44.1875 33.984375 37.640625 27.21875 
Q 31.109375 20.453125 19.1875 8.296875 
z
" id="DejaVuSans-50"/>
       </defs>
       <use xlink:href="#DejaVuSans-50"/>
      </g>
     </g>
    </g>
    <g id="xtick_3">
     <g id="line2d_3">
      <g>
       <use style="stroke:#000000;stroke-width:0.8;" x="179.895868" xlink:href="#m443997683a" y="252"/>
      </g>
     </g>
     <g id="text_3">
      <!-- 4 -->
      <g transform="translate(176.714618 266.598437)scale(0.1 -0.1)">
       <defs>
        <path d="M 37.796875 64.3125 
L 12.890625 25.390625 
L 37.796875 25.390625 
z
M 35.203125 72.90625 
L 47.609375 72.90625 
L 47.609375 25.390625 
L 58.015625 25.390625 
L 58.015625 17.1875 
L 47.609375 17.1875 
L 47.609375 0 
L 37.796875 0 
L 37.796875 17.1875 
L 4.890625 17.1875 
L 4.890625 26.703125 
z
" id="DejaVuSans-52"/>
       </defs>
       <use xlink:href="#DejaVuSans-52"/>
      </g>
     </g>
    </g>
    <g id="xtick_4">
     <g id="line2d_4">
      <g>
       <use style="stroke:#000000;stroke-width:0.8;" x="235.234711" xlink:href="#m443997683a" y="252"/>
      </g>
     </g>
     <g id="text_4">
      <!-- 6 -->
      <g transform="translate(232.053461 266.598437)scale(0.1 -0.1)">
       <defs>
        <path d="M 33.015625 40.375 
Q 26.375 40.375 22.484375 35.828125 
Q 18.609375 31.296875 18.609375 23.390625 
Q 18.609375 15.53125 22.484375 10.953125 
Q 26.375 6.390625 33.015625 6.390625 
Q 39.65625 6.390625 43.53125 10.953125 
Q 47.40625 15.53125 47.40625 23.390625 
Q 47.40625 31.296875 43.53125 35.828125 
Q 39.65625 40.375 33.015625 40.375 
z
M 52.59375 71.296875 
L 52.59375 62.3125 
Q 48.875 64.0625 45.09375 64.984375 
Q 41.3125 65.921875 37.59375 65.921875 
Q 27.828125 65.921875 22.671875 59.328125 
Q 17.53125 52.734375 16.796875 39.40625 
Q 19.671875 43.65625 24.015625 45.921875 
Q 28.375 48.1875 33.59375 48.1875 
Q 44.578125 48.1875 50.953125 41.515625 
Q 57.328125 34.859375 57.328125 23.390625 
Q 57.328125 12.15625 50.6875 5.359375 
Q 44.046875 -1.421875 33.015625 -1.421875 
Q 20.359375 -1.421875 13.671875 8.265625 
Q 6.984375 17.96875 6.984375 36.375 
Q 6.984375 53.65625 15.1875 63.9375 
Q 23.390625 74.21875 37.203125 74.21875 
Q 40.921875 74.21875 44.703125 73.484375 
Q 48.484375 72.75 52.59375 71.296875 
z
" id="DejaVuSans-54"/>
       </defs>
       <use xlink:href="#DejaVuSans-54"/>
      </g>
     </g>
    </g>
    <g id="xtick_5">
     <g id="line2d_5">
      <g>
       <use style="stroke:#000000;stroke-width:0.8;" x="290.573554" xlink:href="#m443997683a" y="252"/>
      </g>
     </g>
     <g id="text_5">
      <!-- 8 -->
      <g transform="translate(287.392304 266.598437)scale(0.1 -0.1)">
       <defs>
        <path d="M 31.78125 34.625 
Q 24.75 34.625 20.71875 30.859375 
Q 16.703125 27.09375 16.703125 20.515625 
Q 16.703125 13.921875 20.71875 10.15625 
Q 24.75 6.390625 31.78125 6.390625 
Q 38.8125 6.390625 42.859375 10.171875 
Q 46.921875 13.96875 46.921875 20.515625 
Q 46.921875 27.09375 42.890625 30.859375 
Q 38.875 34.625 31.78125 34.625 
z
M 21.921875 38.8125 
Q 15.578125 40.375 12.03125 44.71875 
Q 8.5 49.078125 8.5 55.328125 
Q 8.5 64.0625 14.71875 69.140625 
Q 20.953125 74.21875 31.78125 74.21875 
Q 42.671875 74.21875 48.875 69.140625 
Q 55.078125 64.0625 55.078125 55.328125 
Q 55.078125 49.078125 51.53125 44.71875 
Q 48 40.375 41.703125 38.8125 
Q 48.828125 37.15625 52.796875 32.3125 
Q 56.78125 27.484375 56.78125 20.515625 
Q 56.78125 9.90625 50.3125 4.234375 
Q 43.84375 -1.421875 31.78125 -1.421875 
Q 19.734375 -1.421875 13.25 4.234375 
Q 6.78125 9.90625 6.78125 20.515625 
Q 6.78125 27.484375 10.78125 32.3125 
Q 14.796875 37.15625 21.921875 38.8125 
z
M 18.3125 54.390625 
Q 18.3125 48.734375 21.84375 45.5625 
Q 25.390625 42.390625 31.78125 42.390625 
Q 38.140625 42.390625 41.71875 45.5625 
Q 45.3125 48.734375 45.3125 54.390625 
Q 45.3125 60.0625 41.71875 63.234375 
Q 38.140625 66.40625 31.78125 66.40625 
Q 25.390625 66.40625 21.84375 63.234375 
Q 18.3125 60.0625 18.3125 54.390625 
z
" id="DejaVuSans-56"/>
       </defs>
       <use xlink:href="#DejaVuSans-56"/>
      </g>
     </g>
    </g>
    <g id="xtick_6">
     <g id="line2d_6">
      <g>
       <use style="stroke:#000000;stroke-width:0.8;" x="345.912397" xlink:href="#m443997683a" y="252"/>
      </g>
     </g>
     <g id="text_6">
      <!-- 10 -->
      <g transform="translate(339.549897 266.598437)scale(0.1 -0.1)">
       <defs>
        <path d="M 12.40625 8.296875 
L 28.515625 8.296875 
L 28.515625 63.921875 
L 10.984375 60.40625 
L 10.984375 69.390625 
L 28.421875 72.90625 
L 38.28125 72.90625 
L 38.28125 8.296875 
L 54.390625 8.296875 
L 54.390625 0 
L 12.40625 0 
z
" id="DejaVuSans-49"/>
       </defs>
       <use xlink:href="#DejaVuSans-49"/>
       <use x="63.623047" xlink:href="#DejaVuSans-48"/>
      </g>
     </g>
    </g>
    <g id="text_7">
     <!-- x -->
     <g transform="translate(217.84875 281.79625)scale(0.12 -0.12)">
      <defs>
       <path d="M 54.890625 54.6875 
L 35.109375 28.078125 
L 55.90625 0 
L 45.3125 0 
L 29.390625 21.484375 
L 13.484375 0 
L 2.875 0 
L 24.125 28.609375 
L 4.6875 54.6875 
L 15.28125 54.6875 
L 29.78125 35.203125 
L 44.28125 54.6875 
z
" id="DejaVuSans-120"/>
      </defs>
      <use xlink:href="#DejaVuSans-120"/>
     </g>
    </g>
   </g>
   <g id="matplotlib.axis_2">
    <g id="ytick_1">
     <g id="line2d_7">
      <defs>
       <path d="M 0 0 
L -3.5 0 
" id="m69e9c78b4c" style="stroke:#000000;stroke-width:0.8;"/>
      </defs>
      <g>
       <use style="stroke:#000000;stroke-width:0.8;" x="54" xlink:href="#m69e9c78b4c" y="252"/>
      </g>
     </g>
     <g id="text_8">
      <!-- 3 -->
      <g transform="translate(40.6375 255.799219)scale(0.1 -0.1)">
       <defs>
        <path d="M 40.578125 39.3125 
Q 47.65625 37.796875 51.625 33 
Q 55.609375 28.21875 55.609375 21.1875 
Q 55.609375 10.40625 48.1875 4.484375 
Q 40.765625 -1.421875 27.09375 -1.421875 
Q 22.515625 -1.421875 17.65625 -0.515625 
Q 12.796875 0.390625 7.625 2.203125 
L 7.625 11.71875 
Q 11.71875 9.328125 16.59375 8.109375 
Q 21.484375 6.890625 26.8125 6.890625 
Q 36.078125 6.890625 40.9375 10.546875 
Q 45.796875 14.203125 45.796875 21.1875 
Q 45.796875 27.640625 41.28125 31.265625 
Q 36.765625 34.90625 28.71875 34.90625 
L 20.21875 34.90625 
L 20.21875 43.015625 
L 29.109375 43.015625 
Q 36.375 43.015625 40.234375 45.921875 
Q 44.09375 48.828125 44.09375 54.296875 
Q 44.09375 59.90625 40.109375 62.90625 
Q 36.140625 65.921875 28.71875 65.921875 
Q 24.65625 65.921875 20.015625 65.03125 
Q 15.375 64.15625 9.8125 62.3125 
L 9.8125 71.09375 
Q 15.4375 72.65625 20.34375 73.4375 
Q 25.25 74.21875 29.59375 74.21875 
Q 40.828125 74.21875 47.359375 69.109375 
Q 53.90625 64.015625 53.90625 55.328125 
Q 53.90625 49.265625 50.4375 45.09375 
Q 46.96875 40.921875 40.578125 39.3125 
z
" id="DejaVuSans-51"/>
       </defs>
       <use xlink:href="#DejaVuSans-51"/>
      </g>
     </g>
    </g>
    <g id="ytick_2">
     <g id="line2d_8">
      <g>
       <use style="stroke:#000000;stroke-width:0.8;" x="54" xlink:href="#m69e9c78b4c" y="215.76"/>
      </g>
     </g>
     <g id="text_9">
      <!-- 4 -->
      <g transform="translate(40.6375 219.559219)scale(0.1 -0.1)">
       <use xlink:href="#DejaVuSans-52"/>
      </g>
     </g>
    </g>
    <g id="ytick_3">
     <g id="line2d_9">
      <g>
       <use style="stroke:#000000;stroke-width:0.8;" x="54" xlink:href="#m69e9c78b4c" y="179.52"/>
      </g>
     </g>
     <g id="text_10">
      <!-- 5 -->
      <g transform="translate(40.6375 183.319219)scale(0.1 -0.1)">
       <defs>
        <path d="M 10.796875 72.90625 
L 49.515625 72.90625 
L 49.515625 64.59375 
L 19.828125 64.59375 
L 19.828125 46.734375 
Q 21.96875 47.46875 24.109375 47.828125 
Q 26.265625 48.1875 28.421875 48.1875 
Q 40.625 48.1875 47.75 41.5 
Q 54.890625 34.8125 54.890625 23.390625 
Q 54.890625 11.625 47.5625 5.09375 
Q 40.234375 -1.421875 26.90625 -1.421875 
Q 22.3125 -1.421875 17.546875 -0.640625 
Q 12.796875 0.140625 7.71875 1.703125 
L 7.71875 11.625 
Q 12.109375 9.234375 16.796875 8.0625 
Q 21.484375 6.890625 26.703125 6.890625 
Q 35.15625 6.890625 40.078125 11.328125 
Q 45.015625 15.765625 45.015625 23.390625 
Q 45.015625 31 40.078125 35.4375 
Q 35.15625 39.890625 26.703125 39.890625 
Q 22.75 39.890625 18.8125 39.015625 
Q 14.890625 38.140625 10.796875 36.28125 
z
" id="DejaVuSans-53"/>
       </defs>
       <use xlink:href="#DejaVuSans-53"/>
      </g>
     </g>
    </g>
    <g id="ytick_4">
     <g id="line2d_10">
      <g>
       <use style="stroke:#000000;stroke-width:0.8;" x="54" xlink:href="#m69e9c78b4c" y="143.28"/>
      </g>
     </g>
     <g id="text_11">
      <!-- 6 -->
      <g transform="translate(40.6375 147.079219)scale(0.1 -0.1)">
       <use xlink:href="#DejaVuSans-54"/>
      </g>
     </g>
    </g>
    <g id="ytick_5">
     <g id="line2d_11">
      <g>
       <use style="stroke:#000000;stroke-width:0.8;" x="54" xlink:href="#m69e9c78b4c" y="107.04"/>
      </g>
     </g>
     <g id="text_12">
      <!-- 7 -->
      <g transform="translate(40.6375 110.839219)scale(0.1 -0.1)">
       <defs>
        <path d="M 8.203125 72.90625 
L 55.078125 72.90625 
L 55.078125 68.703125 
L 28.609375 0 
L 18.3125 0 
L 43.21875 64.59375 
L 8.203125 64.59375 
z
" id="DejaVuSans-55"/>
       </defs>
       <use xlink:href="#DejaVuSans-55"/>
      </g>
     </g>
    </g>
    <g id="ytick_6">
     <g id="line2d_12">
      <g>
       <use style="stroke:#000000;stroke-width:0.8;" x="54" xlink:href="#m69e9c78b4c" y="70.8"/>
      </g>
     </g>
     <g id="text_13">
      <!-- 8 -->
      <g transform="translate(40.6375 74.599219)scale(0.1 -0.1)">
       <use xlink:href="#DejaVuSans-56"/>
      </g>
     </g>
    </g>
    <g id="ytick_7">
     <g id="line2d_13">
      <g>
       <use style="stroke:#000000;stroke-width:0.8;" x="54" xlink:href="#m69e9c78b4c" y="34.56"/>
      </g>
     </g>
     <g id="text_14">
      <!-- 9 -->
      <g transform="translate(40.6375 38.359219)scale(0.1 -0.1)">
       <defs>
        <path d="M 10.984375 1.515625 
L 10.984375 10.5 
Q 14.703125 8.734375 18.5 7.8125 
Q 22.3125 6.890625 25.984375 6.890625 
Q 35.75 6.890625 40.890625 13.453125 
Q 46.046875 20.015625 46.78125 33.40625 
Q 43.953125 29.203125 39.59375 26.953125 
Q 35.25 24.703125 29.984375 24.703125 
Q 19.046875 24.703125 12.671875 31.3125 
Q 6.296875 37.9375 6.296875 49.421875 
Q 6.296875 60.640625 12.9375 67.421875 
Q 19.578125 74.21875 30.609375 74.21875 
Q 43.265625 74.21875 49.921875 64.515625 
Q 56.59375 54.828125 56.59375 36.375 
Q 56.59375 19.140625 48.40625 8.859375 
Q 40.234375 -1.421875 26.421875 -1.421875 
Q 22.703125 -1.421875 18.890625 -0.6875 
Q 15.09375 0.046875 10.984375 1.515625 
z
M 30.609375 32.421875 
Q 37.25 32.421875 41.125 36.953125 
Q 45.015625 41.5 45.015625 49.421875 
Q 45.015625 57.28125 41.125 61.84375 
Q 37.25 66.40625 30.609375 66.40625 
Q 23.96875 66.40625 20.09375 61.84375 
Q 16.21875 57.28125 16.21875 49.421875 
Q 16.21875 41.5 20.09375 36.953125 
Q 23.96875 32.421875 30.609375 32.421875 
z
" id="DejaVuSans-57"/>
       </defs>
       <use xlink:href="#DejaVuSans-57"/>
      </g>
     </g>
    </g>
    <g id="text_15">
     <!-- y -->
     <g transform="translate(34.141875 146.83125)rotate(-90)scale(0.12 -0.12)">
      <defs>
       <path d="M 32.171875 -5.078125 
Q 28.375 -14.84375 24.75 -17.8125 
Q 21.140625 -20.796875 15.09375 -20.796875 
L 7.90625 -20.796875 
L 7.90625 -13.28125 
L 13.1875 -13.28125 
Q 16.890625 -13.28125 18.9375 -11.515625 
Q 21 -9.765625 23.484375 -3.21875 
L 25.09375 0.875 
L 2.984375 54.6875 
L 12.5 54.6875 
L 29.59375 11.921875 
L 46.6875 54.6875 
L 56.203125 54.6875 
z
" id="DejaVuSans-121"/>
      </defs>
      <use xlink:href="#DejaVuSans-121"/>
     </g>
    </g>
   </g>
   <g id="line2d_14">
    <path clip-path="url(#p8ad9794156)" d="M 69.218182 70.8 
L 71.985124 85.083949 
L 74.752066 98.25467 
L 77.519008 110.364828 
L 80.28595 121.465955 
L 83.052893 131.608455 
L 85.819835 140.841599 
L 88.586777 149.213528 
L 91.353719 156.771253 
L 94.120661 163.560654 
L 96.887603 169.62648 
L 99.654545 175.012349 
L 102.421488 179.76075 
L 105.18843 183.913038 
L 107.955372 187.509441 
L 110.722314 190.589055 
L 113.489256 193.189844 
L 116.256198 195.348643 
L 119.02314 197.101155 
L 121.790083 198.481953 
L 124.557025 199.52448 
L 127.323967 200.261047 
L 130.090909 200.722835 
L 132.857851 200.939895 
L 135.624793 200.941145 
L 138.391736 200.754375 
L 141.158678 200.406243 
L 143.92562 199.922276 
L 146.692562 199.326871 
L 149.459504 198.643294 
L 152.226446 197.89368 
L 154.993388 197.099035 
L 157.760331 196.279231 
L 160.527273 195.453014 
L 163.294215 194.637994 
L 166.061157 193.850655 
L 168.828099 193.106347 
L 171.595041 192.419291 
L 174.361983 191.802577 
L 177.128926 191.268164 
L 179.895868 190.82688 
L 182.66281 190.488424 
L 185.429752 190.261362 
L 188.196694 190.153131 
L 190.963636 190.170037 
L 193.730579 190.317255 
L 196.497521 190.598829 
L 199.264463 191.017673 
L 202.031405 191.575569 
L 204.798347 192.273171 
L 207.565289 193.11 
L 210.332231 194.084446 
L 213.099174 195.193771 
L 215.866116 196.434103 
L 218.633058 197.800442 
L 221.4 199.286655 
L 224.166942 200.88548 
L 226.933884 202.588525 
L 229.700826 204.386264 
L 232.467769 206.268045 
L 235.234711 208.22208 
L 238.001653 210.235455 
L 240.768595 212.294122 
L 243.535537 214.382905 
L 246.302479 216.485496 
L 249.069421 218.584455 
L 251.836364 220.661214 
L 254.603306 222.696071 
L 257.370248 224.668198 
L 260.13719 226.555631 
L 262.904132 228.33528 
L 265.671074 229.982921 
L 268.438017 231.4732 
L 271.204959 232.779634 
L 273.971901 233.874607 
L 276.738843 234.729375 
L 279.505785 235.31406 
L 282.272727 235.597656 
L 285.039669 235.548026 
L 287.806612 235.1319 
L 290.573554 234.31488 
L 293.340496 233.061436 
L 296.107438 231.334908 
L 298.87438 229.097505 
L 301.641322 226.310305 
L 304.408264 222.933255 
L 307.175207 218.925173 
L 309.942149 214.243744 
L 312.709091 208.845524 
L 315.476033 202.685938 
L 318.242975 195.71928 
L 321.009917 187.898713 
L 323.77686 179.176271 
L 326.543802 169.502854 
L 329.310744 158.828236 
L 332.077686 147.101055 
L 334.844628 134.268823 
L 337.61157 120.277918 
L 340.378512 105.073589 
L 343.145455 88.599954 
L 345.912397 70.8 
L 348.679339 51.615584 
L 351.446281 30.987432 
L 354.213223 8.855138 
L 355.363895 -1 
" style="fill:none;stroke:#0000ff;stroke-linecap:square;stroke-width:2;"/>
   </g>
   <g id="line2d_15">
    <path clip-path="url(#p8ad9794156)" d="M 69.218182 167.666583 
L 71.985124 163.802756 
L 74.752066 160.67317 
L 77.519008 158.479023 
L 80.28595 157.391014 
L 83.052893 157.526536 
L 85.819835 158.923969 
L 88.586777 161.522411 
L 91.353719 165.161154 
L 94.120661 169.605631 
L 96.887603 174.58799 
L 99.654545 179.842956 
L 102.421488 185.12952 
L 105.18843 190.240477 
L 107.955372 195.005202 
L 110.722314 199.289663 
L 113.489256 202.995675 
L 116.256198 206.060157 
L 119.02314 208.454368 
L 121.790083 210.182627 
L 124.557025 211.279873 
L 127.323967 211.807583 
L 130.090909 211.848018 
L 132.857851 211.497206 
L 135.624793 210.857373 
L 138.391736 210.029632 
L 141.158678 209.107633 
L 143.92562 208.172671 
L 146.692562 207.290496 
L 149.459504 206.509774 
L 152.226446 205.861925 
L 154.993388 205.361914 
L 157.760331 205.0095 
L 160.527273 204.790624 
L 163.294215 204.678892 
L 166.061157 204.637567 
L 168.828099 204.622795 
L 171.595041 204.588862 
L 174.361983 204.495903 
L 177.128926 204.319796 
L 179.895868 204.062991 
L 182.66281 203.763535 
L 185.429752 203.497475 
L 188.196694 203.368293 
L 190.963636 203.480511 
L 193.730579 203.906128 
L 196.497521 204.662694 
L 199.264463 205.714612 
L 202.031405 206.990944 
L 204.798347 208.405777 
L 207.565289 209.873384 
L 210.332231 211.317459 
L 213.099174 212.676185 
L 215.866116 213.904658 
L 218.633058 214.975471 
L 221.4 215.87791 
L 224.166942 216.616037 
L 226.933884 217.206023 
L 229.700826 217.673079 
L 232.467769 218.048391 
L 235.234711 218.366386 
L 238.001653 218.662547 
L 240.768595 218.971872 
L 243.535537 219.327877 
L 246.302479 219.761973 
L 249.069421 220.302934 
L 251.836364 220.976221 
L 254.603306 221.802953 
L 257.370248 222.798495 
L 260.13719 223.970696 
L 262.904132 225.31799 
L 265.671074 226.827594 
L 268.438017 228.474084 
L 271.204959 230.21858 
L 273.971901 232.008681 
L 276.738843 233.779246 
L 279.505785 235.453984 
L 282.272727 236.947853 
L 285.039669 238.170212 
L 287.806612 239.028784 
L 290.573554 239.434532 
L 293.340496 239.307548 
L 296.107438 238.583629 
L 298.87438 237.219557 
L 301.641322 235.191207 
L 304.408264 232.474221 
L 307.175207 229.005133 
L 309.942149 224.654336 
L 312.709091 219.257035 
L 315.476033 212.68898 
L 318.242975 204.926142 
L 321.009917 196.062345 
L 323.77686 186.299292 
L 326.543802 175.9269 
L 329.310744 165.302619 
L 332.077686 154.832094 
L 334.844628 144.950137 
L 337.61157 136.098071 
L 340.378512 128.691813 
L 343.145455 123.0788 
L 345.912397 119.493706 
L 348.679339 118.032151 
L 351.446281 118.652782 
L 354.213223 121.199894 
L 356.980165 125.432563 
L 359.747107 131.052566 
L 362.51405 137.729592 
L 365.280992 145.124058 
L 368.047934 152.907367 
L 370.814876 160.778889 
L 373.581818 168.478864 
" style="fill:none;stroke:#008000;stroke-dasharray:3.7,1.6;stroke-dashoffset:0;"/>
   </g>
   <g id="line2d_16">
    <path clip-path="url(#p8ad9794156)" d="M 69.218182 117.777806 
L 71.985124 118.347506 
L 74.752066 119.610128 
L 77.519008 121.558527 
L 80.28595 124.14986 
L 83.052893 127.31534 
L 85.819835 130.978145 
L 88.586777 135.072135 
L 91.353719 139.547484 
L 94.120661 144.356255 
L 96.887603 149.428831 
L 99.654545 154.659138 
L 102.421488 159.906243 
L 105.18843 165.008311 
L 107.955372 169.801562 
L 110.722314 174.138505 
L 113.489256 177.902168 
L 116.256198 181.014787 
L 119.02314 183.440784 
L 121.790083 185.184845 
L 124.557025 186.286513 
L 127.323967 186.812844 
L 130.090909 186.850389 
L 132.857851 186.49736 
L 135.624793 185.856439 
L 138.391736 185.028411 
L 141.158678 184.106698 
L 143.92562 183.172825 
L 146.692562 182.292866 
L 149.459504 181.515035 
L 152.226446 180.868565 
L 154.993388 180.364132 
L 157.760331 179.995916 
L 160.527273 179.745253 
L 163.294215 179.585385 
L 166.061157 179.486409 
L 168.828099 179.419154 
L 171.595041 179.356696 
L 174.361983 179.272626 
L 177.128926 179.135978 
L 179.895868 178.903831 
L 182.66281 178.514159 
L 185.429752 177.883804 
L 188.196694 176.918016 
L 190.963636 175.534688 
L 193.730579 173.694932 
L 196.497521 171.421541 
L 199.264463 168.794116 
L 202.031405 165.927902 
L 204.798347 162.950527 
L 207.565289 159.984609 
L 210.332231 157.13705 
L 213.099174 154.493279 
L 215.866116 152.114874 
L 218.633058 150.039669 
L 221.4 148.283762 
L 224.166942 146.845017 
L 226.933884 145.707549 
L 229.700826 144.846727 
L 232.467769 144.234164 
L 235.234711 143.842271 
L 238.001653 143.648065 
L 240.768595 143.636033 
L 243.535537 143.800055 
L 246.302479 144.14443 
L 249.069421 144.68417 
L 251.836364 145.444657 
L 254.603306 146.460724 
L 257.370248 147.775104 
L 260.13719 149.436134 
L 262.904132 151.494518 
L 265.671074 153.999015 
L 268.438017 156.990995 
L 271.204959 160.497979 
L 273.971901 164.526485 
L 276.738843 169.054685 
L 279.505785 174.025545 
L 282.272727 179.341181 
L 285.039669 184.859133 
L 287.806612 190.391136 
L 290.573554 195.704714 
L 293.340496 200.52775 
L 296.107438 204.556348 
L 298.87438 207.467591 
L 301.641322 208.942414 
L 304.408264 208.707792 
L 307.175207 206.598987 
L 309.942149 202.608819 
L 312.709091 196.87599 
L 315.476033 189.623799 
L 318.242975 181.108353 
L 321.009917 171.600822 
L 323.77686 161.388389 
L 326.543802 150.775731 
L 329.310744 140.078907 
L 332.077686 129.610693 
L 334.844628 119.660593 
L 337.61157 110.476281 
L 340.378512 102.255364 
L 343.145455 95.152643 
L 345.912397 89.29597 
L 348.679339 84.793917 
L 351.446281 81.726367 
L 354.213223 80.12631 
L 356.980165 79.966179 
L 359.747107 81.154716 
L 362.51405 83.543314 
L 365.280992 86.938506 
L 368.047934 91.117531 
L 370.814876 95.844745 
L 373.581818 100.887199 
" style="fill:none;stroke:#008000;stroke-dasharray:3.7,1.6;stroke-dashoffset:0;"/>
   </g>
   <g id="line2d_17">
    <path clip-path="url(#p8ad9794156)" d="M 69.218182 251.988543 
L 71.985124 251.997613 
L 74.752066 251.999658 
L 77.519008 251.999966 
L 80.28595 251.999997 
L 83.052893 252 
L 85.819835 252 
L 88.586777 252 
L 91.353719 252 
L 94.120661 252 
L 96.887603 251.999997 
L 99.654545 251.999974 
L 102.421488 251.999801 
L 105.18843 251.998804 
L 107.955372 251.994571 
L 110.722314 251.981215 
L 113.489256 251.949488 
L 116.256198 251.891798 
L 119.02314 251.810409 
L 121.790083 251.720965 
L 124.557025 251.646156 
L 127.323967 251.604114 
L 130.090909 251.600569 
L 132.857851 251.629031 
L 135.624793 251.676539 
L 138.391736 251.730081 
L 141.158678 251.780408 
L 143.92562 251.822796 
L 146.692562 251.855974 
L 149.459504 251.8806 
L 152.226446 251.898067 
L 154.993388 251.909823 
L 157.760331 251.917114 
L 160.527273 251.920961 
L 163.294215 251.922282 
L 166.061157 251.922045 
L 168.828099 251.921382 
L 171.595041 251.921529 
L 174.361983 251.923488 
L 177.128926 251.92747 
L 179.895868 251.932426 
L 182.66281 251.935987 
L 185.429752 251.934642 
L 188.196694 251.923229 
L 190.963636 251.892803 
L 193.730579 251.827513 
L 196.497521 251.704635 
L 199.264463 251.503046 
L 202.031405 251.216962 
L 204.798347 250.862221 
L 207.565289 250.469489 
L 210.332231 250.072019 
L 213.099174 249.696779 
L 215.866116 249.361259 
L 218.633058 249.074055 
L 221.4 248.836917 
L 224.166942 248.646912 
L 226.933884 248.49818 
L 229.700826 248.383228 
L 232.467769 248.293824 
L 235.234711 248.221598 
L 238.001653 248.15841 
L 240.768595 248.096545 
L 243.535537 248.028775 
L 246.302479 247.948328 
L 249.069421 247.848805 
L 251.836364 247.724082 
L 254.603306 247.568241 
L 257.370248 247.375516 
L 260.13719 247.140276 
L 262.904132 246.857018 
L 265.671074 246.52035 
L 268.438017 246.12496 
L 271.204959 245.66559 
L 273.971901 245.137085 
L 276.738843 244.534679 
L 279.505785 243.854819 
L 282.272727 243.097041 
L 285.039669 242.267789 
L 287.806612 241.387662 
L 290.573554 240.504288 
L 293.340496 239.713587 
L 296.107438 239.190317 
L 298.87438 239.217581 
L 301.641322 240.166802 
L 304.408264 242.309237 
L 307.175207 245.399883 
L 309.942149 248.495056 
L 312.709091 250.63459 
L 315.476033 251.636045 
L 318.242975 251.939509 
L 321.009917 251.99442 
L 323.77686 251.999748 
L 326.543802 251.999995 
L 329.310744 252 
L 332.077686 252 
L 334.844628 252 
L 337.61157 252 
L 340.378512 252 
L 343.145455 252 
L 345.912397 252 
L 348.679339 252 
L 351.446281 252 
L 354.213223 252 
L 356.980165 251.999999 
L 359.747107 251.999981 
L 362.51405 251.999731 
L 365.280992 251.997838 
L 368.047934 251.989043 
L 370.814876 251.961136 
L 373.581818 251.895332 
" style="fill:none;stroke:#bfbf00;stroke-dasharray:7.4,3.2;stroke-dashoffset:0;stroke-width:2;"/>
   </g>
   <g id="patch_3">
    <path d="M 54 252 
L 54 34.56 
" style="fill:none;stroke:#000000;stroke-linecap:square;stroke-linejoin:miter;stroke-width:0.8;"/>
   </g>
   <g id="patch_4">
    <path d="M 388.8 252 
L 388.8 34.56 
" style="fill:none;stroke:#000000;stroke-linecap:square;stroke-linejoin:miter;stroke-width:0.8;"/>
   </g>
   <g id="patch_5">
    <path d="M 54 252 
L 388.8 252 
" style="fill:none;stroke:#000000;stroke-linecap:square;stroke-linejoin:miter;stroke-width:0.8;"/>
   </g>
   <g id="patch_6">
    <path d="M 54 34.56 
L 388.8 34.56 
" style="fill:none;stroke:#000000;stroke-linecap:square;stroke-linejoin:miter;stroke-width:0.8;"/>
   </g>
   <g id="text_16">
    <!-- Method : PI -->
    <g transform="translate(71.985124 244.752)scale(0.12 -0.12)">
     <defs>
      <path d="M 9.8125 72.90625 
L 24.515625 72.90625 
L 43.109375 23.296875 
L 61.8125 72.90625 
L 76.515625 72.90625 
L 76.515625 0 
L 66.890625 0 
L 66.890625 64.015625 
L 48.09375 14.015625 
L 38.1875 14.015625 
L 19.390625 64.015625 
L 19.390625 0 
L 9.8125 0 
z
" id="DejaVuSans-77"/>
      <path d="M 56.203125 29.59375 
L 56.203125 25.203125 
L 14.890625 25.203125 
Q 15.484375 15.921875 20.484375 11.0625 
Q 25.484375 6.203125 34.421875 6.203125 
Q 39.59375 6.203125 44.453125 7.46875 
Q 49.3125 8.734375 54.109375 11.28125 
L 54.109375 2.78125 
Q 49.265625 0.734375 44.1875 -0.34375 
Q 39.109375 -1.421875 33.890625 -1.421875 
Q 20.796875 -1.421875 13.15625 6.1875 
Q 5.515625 13.8125 5.515625 26.8125 
Q 5.515625 40.234375 12.765625 48.109375 
Q 20.015625 56 32.328125 56 
Q 43.359375 56 49.78125 48.890625 
Q 56.203125 41.796875 56.203125 29.59375 
z
M 47.21875 32.234375 
Q 47.125 39.59375 43.09375 43.984375 
Q 39.0625 48.390625 32.421875 48.390625 
Q 24.90625 48.390625 20.390625 44.140625 
Q 15.875 39.890625 15.1875 32.171875 
z
" id="DejaVuSans-101"/>
      <path d="M 18.3125 70.21875 
L 18.3125 54.6875 
L 36.8125 54.6875 
L 36.8125 47.703125 
L 18.3125 47.703125 
L 18.3125 18.015625 
Q 18.3125 11.328125 20.140625 9.421875 
Q 21.96875 7.515625 27.59375 7.515625 
L 36.8125 7.515625 
L 36.8125 0 
L 27.59375 0 
Q 17.1875 0 13.234375 3.875 
Q 9.28125 7.765625 9.28125 18.015625 
L 9.28125 47.703125 
L 2.6875 47.703125 
L 2.6875 54.6875 
L 9.28125 54.6875 
L 9.28125 70.21875 
z
" id="DejaVuSans-116"/>
      <path d="M 54.890625 33.015625 
L 54.890625 0 
L 45.90625 0 
L 45.90625 32.71875 
Q 45.90625 40.484375 42.875 44.328125 
Q 39.84375 48.1875 33.796875 48.1875 
Q 26.515625 48.1875 22.3125 43.546875 
Q 18.109375 38.921875 18.109375 30.90625 
L 18.109375 0 
L 9.078125 0 
L 9.078125 75.984375 
L 18.109375 75.984375 
L 18.109375 46.1875 
Q 21.34375 51.125 25.703125 53.5625 
Q 30.078125 56 35.796875 56 
Q 45.21875 56 50.046875 50.171875 
Q 54.890625 44.34375 54.890625 33.015625 
z
" id="DejaVuSans-104"/>
      <path d="M 30.609375 48.390625 
Q 23.390625 48.390625 19.1875 42.75 
Q 14.984375 37.109375 14.984375 27.296875 
Q 14.984375 17.484375 19.15625 11.84375 
Q 23.34375 6.203125 30.609375 6.203125 
Q 37.796875 6.203125 41.984375 11.859375 
Q 46.1875 17.53125 46.1875 27.296875 
Q 46.1875 37.015625 41.984375 42.703125 
Q 37.796875 48.390625 30.609375 48.390625 
z
M 30.609375 56 
Q 42.328125 56 49.015625 48.375 
Q 55.71875 40.765625 55.71875 27.296875 
Q 55.71875 13.875 49.015625 6.21875 
Q 42.328125 -1.421875 30.609375 -1.421875 
Q 18.84375 -1.421875 12.171875 6.21875 
Q 5.515625 13.875 5.515625 27.296875 
Q 5.515625 40.765625 12.171875 48.375 
Q 18.84375 56 30.609375 56 
z
" id="DejaVuSans-111"/>
      <path d="M 45.40625 46.390625 
L 45.40625 75.984375 
L 54.390625 75.984375 
L 54.390625 0 
L 45.40625 0 
L 45.40625 8.203125 
Q 42.578125 3.328125 38.25 0.953125 
Q 33.9375 -1.421875 27.875 -1.421875 
Q 17.96875 -1.421875 11.734375 6.484375 
Q 5.515625 14.40625 5.515625 27.296875 
Q 5.515625 40.1875 11.734375 48.09375 
Q 17.96875 56 27.875 56 
Q 33.9375 56 38.25 53.625 
Q 42.578125 51.265625 45.40625 46.390625 
z
M 14.796875 27.296875 
Q 14.796875 17.390625 18.875 11.75 
Q 22.953125 6.109375 30.078125 6.109375 
Q 37.203125 6.109375 41.296875 11.75 
Q 45.40625 17.390625 45.40625 27.296875 
Q 45.40625 37.203125 41.296875 42.84375 
Q 37.203125 48.484375 30.078125 48.484375 
Q 22.953125 48.484375 18.875 42.84375 
Q 14.796875 37.203125 14.796875 27.296875 
z
" id="DejaVuSans-100"/>
      <path id="DejaVuSans-32"/>
      <path d="M 11.71875 12.40625 
L 22.015625 12.40625 
L 22.015625 0 
L 11.71875 0 
z
M 11.71875 51.703125 
L 22.015625 51.703125 
L 22.015625 39.3125 
L 11.71875 39.3125 
z
" id="DejaVuSans-58"/>
      <path d="M 19.671875 64.796875 
L 19.671875 37.40625 
L 32.078125 37.40625 
Q 38.96875 37.40625 42.71875 40.96875 
Q 46.484375 44.53125 46.484375 51.125 
Q 46.484375 57.671875 42.71875 61.234375 
Q 38.96875 64.796875 32.078125 64.796875 
z
M 9.8125 72.90625 
L 32.078125 72.90625 
Q 44.34375 72.90625 50.609375 67.359375 
Q 56.890625 61.8125 56.890625 51.125 
Q 56.890625 40.328125 50.609375 34.8125 
Q 44.34375 29.296875 32.078125 29.296875 
L 19.671875 29.296875 
L 19.671875 0 
L 9.8125 0 
z
" id="DejaVuSans-80"/>
      <path d="M 9.8125 72.90625 
L 19.671875 72.90625 
L 19.671875 0 
L 9.8125 0 
z
" id="DejaVuSans-73"/>
     </defs>
     <use xlink:href="#DejaVuSans-77"/>
     <use x="86.279297" xlink:href="#DejaVuSans-101"/>
     <use x="147.802734" xlink:href="#DejaVuSans-116"/>
     <use x="187.011719" xlink:href="#DejaVuSans-104"/>
     <use x="250.390625" xlink:href="#DejaVuSans-111"/>
     <use x="311.572266" xlink:href="#DejaVuSans-100"/>
     <use x="375.048828" xlink:href="#DejaVuSans-32"/>
     <use x="406.835938" xlink:href="#DejaVuSans-58"/>
     <use x="440.527344" xlink:href="#DejaVuSans-32"/>
     <use x="472.314453" xlink:href="#DejaVuSans-80"/>
     <use x="532.617188" xlink:href="#DejaVuSans-73"/>
    </g>
   </g>
   <g id="text_17">
    <!-- Iter=2 -->
    <g transform="translate(71.985124 226.632)scale(0.12 -0.12)">
     <defs>
      <path d="M 41.109375 46.296875 
Q 39.59375 47.171875 37.8125 47.578125 
Q 36.03125 48 33.890625 48 
Q 26.265625 48 22.1875 43.046875 
Q 18.109375 38.09375 18.109375 28.8125 
L 18.109375 0 
L 9.078125 0 
L 9.078125 54.6875 
L 18.109375 54.6875 
L 18.109375 46.1875 
Q 20.953125 51.171875 25.484375 53.578125 
Q 30.03125 56 36.53125 56 
Q 37.453125 56 38.578125 55.875 
Q 39.703125 55.765625 41.0625 55.515625 
z
" id="DejaVuSans-114"/>
      <path d="M 10.59375 45.40625 
L 73.1875 45.40625 
L 73.1875 37.203125 
L 10.59375 37.203125 
z
M 10.59375 25.484375 
L 73.1875 25.484375 
L 73.1875 17.1875 
L 10.59375 17.1875 
z
" id="DejaVuSans-61"/>
     </defs>
     <use xlink:href="#DejaVuSans-73"/>
     <use x="29.492188" xlink:href="#DejaVuSans-116"/>
     <use x="68.701172" xlink:href="#DejaVuSans-101"/>
     <use x="130.224609" xlink:href="#DejaVuSans-114"/>
     <use x="171.337891" xlink:href="#DejaVuSans-61"/>
     <use x="255.126953" xlink:href="#DejaVuSans-50"/>
    </g>
   </g>
   <g id="text_18">
    <!-- (c) -->
    <g transform="translate(71.985124 56.304)scale(0.12 -0.12)">
     <defs>
      <path d="M 31 75.875 
Q 24.46875 64.65625 21.28125 53.65625 
Q 18.109375 42.671875 18.109375 31.390625 
Q 18.109375 20.125 21.3125 9.0625 
Q 24.515625 -2 31 -13.1875 
L 23.1875 -13.1875 
Q 15.875 -1.703125 12.234375 9.375 
Q 8.59375 20.453125 8.59375 31.390625 
Q 8.59375 42.28125 12.203125 53.3125 
Q 15.828125 64.359375 23.1875 75.875 
z
" id="DejaVuSans-40"/>
      <path d="M 48.78125 52.59375 
L 48.78125 44.1875 
Q 44.96875 46.296875 41.140625 47.34375 
Q 37.3125 48.390625 33.40625 48.390625 
Q 24.65625 48.390625 19.8125 42.84375 
Q 14.984375 37.3125 14.984375 27.296875 
Q 14.984375 17.28125 19.8125 11.734375 
Q 24.65625 6.203125 33.40625 6.203125 
Q 37.3125 6.203125 41.140625 7.25 
Q 44.96875 8.296875 48.78125 10.40625 
L 48.78125 2.09375 
Q 45.015625 0.34375 40.984375 -0.53125 
Q 36.96875 -1.421875 32.421875 -1.421875 
Q 20.0625 -1.421875 12.78125 6.34375 
Q 5.515625 14.109375 5.515625 27.296875 
Q 5.515625 40.671875 12.859375 48.328125 
Q 20.21875 56 33.015625 56 
Q 37.15625 56 41.109375 55.140625 
Q 45.0625 54.296875 48.78125 52.59375 
z
" id="DejaVuSans-99"/>
      <path d="M 8.015625 75.875 
L 15.828125 75.875 
Q 23.140625 64.359375 26.78125 53.3125 
Q 30.421875 42.28125 30.421875 31.390625 
Q 30.421875 20.453125 26.78125 9.375 
Q 23.140625 -1.703125 15.828125 -13.1875 
L 8.015625 -13.1875 
Q 14.5 -2 17.703125 9.0625 
Q 20.90625 20.125 20.90625 31.390625 
Q 20.90625 42.671875 17.703125 53.65625 
Q 14.5 64.65625 8.015625 75.875 
z
" id="DejaVuSans-41"/>
     </defs>
     <use xlink:href="#DejaVuSans-40"/>
     <use x="39.013672" xlink:href="#DejaVuSans-99"/>
     <use x="93.994141" xlink:href="#DejaVuSans-41"/>
    </g>
   </g>
   <g id="legend_1">
    <g id="patch_7">
     <path d="M 144.327812 140.235625 
L 298.472188 140.235625 
Q 300.672188 140.235625 300.672188 138.035625 
L 300.672188 42.26 
Q 300.672188 40.06 298.472188 40.06 
L 144.327812 40.06 
Q 142.127813 40.06 142.127813 42.26 
L 142.127813 138.035625 
Q 142.127813 140.235625 144.327812 140.235625 
z
" style="fill:#ffffff;opacity:0.8;stroke:#cccccc;stroke-linejoin:miter;"/>
    </g>
    <g id="line2d_18">
     <path d="M 146.527813 48.968281 
L 168.527813 48.968281 
" style="fill:none;stroke:#0000ff;stroke-linecap:square;stroke-width:2;"/>
    </g>
    <g id="line2d_19"/>
    <g id="text_19">
     <!-- ture function -->
     <g transform="translate(177.327813 52.818281)scale(0.11 -0.11)">
      <defs>
       <path d="M 8.5 21.578125 
L 8.5 54.6875 
L 17.484375 54.6875 
L 17.484375 21.921875 
Q 17.484375 14.15625 20.5 10.265625 
Q 23.53125 6.390625 29.59375 6.390625 
Q 36.859375 6.390625 41.078125 11.03125 
Q 45.3125 15.671875 45.3125 23.6875 
L 45.3125 54.6875 
L 54.296875 54.6875 
L 54.296875 0 
L 45.3125 0 
L 45.3125 8.40625 
Q 42.046875 3.421875 37.71875 1 
Q 33.40625 -1.421875 27.6875 -1.421875 
Q 18.265625 -1.421875 13.375 4.4375 
Q 8.5 10.296875 8.5 21.578125 
z
M 31.109375 56 
z
" id="DejaVuSans-117"/>
       <path d="M 37.109375 75.984375 
L 37.109375 68.5 
L 28.515625 68.5 
Q 23.6875 68.5 21.796875 66.546875 
Q 19.921875 64.59375 19.921875 59.515625 
L 19.921875 54.6875 
L 34.71875 54.6875 
L 34.71875 47.703125 
L 19.921875 47.703125 
L 19.921875 0 
L 10.890625 0 
L 10.890625 47.703125 
L 2.296875 47.703125 
L 2.296875 54.6875 
L 10.890625 54.6875 
L 10.890625 58.5 
Q 10.890625 67.625 15.140625 71.796875 
Q 19.390625 75.984375 28.609375 75.984375 
z
" id="DejaVuSans-102"/>
       <path d="M 54.890625 33.015625 
L 54.890625 0 
L 45.90625 0 
L 45.90625 32.71875 
Q 45.90625 40.484375 42.875 44.328125 
Q 39.84375 48.1875 33.796875 48.1875 
Q 26.515625 48.1875 22.3125 43.546875 
Q 18.109375 38.921875 18.109375 30.90625 
L 18.109375 0 
L 9.078125 0 
L 9.078125 54.6875 
L 18.109375 54.6875 
L 18.109375 46.1875 
Q 21.34375 51.125 25.703125 53.5625 
Q 30.078125 56 35.796875 56 
Q 45.21875 56 50.046875 50.171875 
Q 54.890625 44.34375 54.890625 33.015625 
z
" id="DejaVuSans-110"/>
       <path d="M 9.421875 54.6875 
L 18.40625 54.6875 
L 18.40625 0 
L 9.421875 0 
z
M 9.421875 75.984375 
L 18.40625 75.984375 
L 18.40625 64.59375 
L 9.421875 64.59375 
z
" id="DejaVuSans-105"/>
      </defs>
      <use xlink:href="#DejaVuSans-116"/>
      <use x="39.208984" xlink:href="#DejaVuSans-117"/>
      <use x="102.587891" xlink:href="#DejaVuSans-114"/>
      <use x="141.451172" xlink:href="#DejaVuSans-101"/>
      <use x="202.974609" xlink:href="#DejaVuSans-32"/>
      <use x="234.761719" xlink:href="#DejaVuSans-102"/>
      <use x="269.966797" xlink:href="#DejaVuSans-117"/>
      <use x="333.345703" xlink:href="#DejaVuSans-110"/>
      <use x="396.724609" xlink:href="#DejaVuSans-99"/>
      <use x="451.705078" xlink:href="#DejaVuSans-116"/>
      <use x="490.914062" xlink:href="#DejaVuSans-105"/>
      <use x="518.697266" xlink:href="#DejaVuSans-111"/>
      <use x="579.878906" xlink:href="#DejaVuSans-110"/>
     </g>
    </g>
    <g id="line2d_20">
     <path d="M 146.527813 65.114219 
L 168.527813 65.114219 
" style="fill:none;stroke:#000000;stroke-dasharray:7.4,3.2;stroke-dashoffset:0;stroke-width:2;"/>
    </g>
    <g id="line2d_21"/>
    <g id="text_20">
     <!-- predicted function -->
     <g transform="translate(177.327813 68.964219)scale(0.11 -0.11)">
      <defs>
       <path d="M 18.109375 8.203125 
L 18.109375 -20.796875 
L 9.078125 -20.796875 
L 9.078125 54.6875 
L 18.109375 54.6875 
L 18.109375 46.390625 
Q 20.953125 51.265625 25.265625 53.625 
Q 29.59375 56 35.59375 56 
Q 45.5625 56 51.78125 48.09375 
Q 58.015625 40.1875 58.015625 27.296875 
Q 58.015625 14.40625 51.78125 6.484375 
Q 45.5625 -1.421875 35.59375 -1.421875 
Q 29.59375 -1.421875 25.265625 0.953125 
Q 20.953125 3.328125 18.109375 8.203125 
z
M 48.6875 27.296875 
Q 48.6875 37.203125 44.609375 42.84375 
Q 40.53125 48.484375 33.40625 48.484375 
Q 26.265625 48.484375 22.1875 42.84375 
Q 18.109375 37.203125 18.109375 27.296875 
Q 18.109375 17.390625 22.1875 11.75 
Q 26.265625 6.109375 33.40625 6.109375 
Q 40.53125 6.109375 44.609375 11.75 
Q 48.6875 17.390625 48.6875 27.296875 
z
" id="DejaVuSans-112"/>
      </defs>
      <use xlink:href="#DejaVuSans-112"/>
      <use x="63.476562" xlink:href="#DejaVuSans-114"/>
      <use x="102.339844" xlink:href="#DejaVuSans-101"/>
      <use x="163.863281" xlink:href="#DejaVuSans-100"/>
      <use x="227.339844" xlink:href="#DejaVuSans-105"/>
      <use x="255.123047" xlink:href="#DejaVuSans-99"/>
      <use x="310.103516" xlink:href="#DejaVuSans-116"/>
      <use x="349.3125" xlink:href="#DejaVuSans-101"/>
      <use x="410.835938" xlink:href="#DejaVuSans-100"/>
      <use x="474.3125" xlink:href="#DejaVuSans-32"/>
      <use x="506.099609" xlink:href="#DejaVuSans-102"/>
      <use x="541.304688" xlink:href="#DejaVuSans-117"/>
      <use x="604.683594" xlink:href="#DejaVuSans-110"/>
      <use x="668.0625" xlink:href="#DejaVuSans-99"/>
      <use x="723.042969" xlink:href="#DejaVuSans-116"/>
      <use x="762.251953" xlink:href="#DejaVuSans-105"/>
      <use x="790.035156" xlink:href="#DejaVuSans-111"/>
      <use x="851.216797" xlink:href="#DejaVuSans-110"/>
     </g>
    </g>
    <g id="line2d_22">
     <path d="M 146.527813 81.260156 
L 168.527813 81.260156 
" style="fill:none;stroke:#008000;stroke-dasharray:3.7,1.6;stroke-dashoffset:0;"/>
    </g>
    <g id="line2d_23"/>
    <g id="text_21">
     <!--  ± Sn(x) -->
     <g transform="translate(177.327813 85.110156)scale(0.11 -0.11)">
      <defs>
       <path d="M 46 62.703125 
L 46 43.796875 
L 73.1875 43.796875 
L 73.1875 35.5 
L 46 35.5 
L 46 16.609375 
L 37.796875 16.609375 
L 37.796875 35.5 
L 10.59375 35.5 
L 10.59375 43.796875 
L 37.796875 43.796875 
L 37.796875 62.703125 
z
M 10.59375 8.296875 
L 73.1875 8.296875 
L 73.1875 0 
L 10.59375 0 
z
" id="DejaVuSans-177"/>
       <path d="M 53.515625 70.515625 
L 53.515625 60.890625 
Q 47.90625 63.578125 42.921875 64.890625 
Q 37.9375 66.21875 33.296875 66.21875 
Q 25.25 66.21875 20.875 63.09375 
Q 16.5 59.96875 16.5 54.203125 
Q 16.5 49.359375 19.40625 46.890625 
Q 22.3125 44.4375 30.421875 42.921875 
L 36.375 41.703125 
Q 47.40625 39.59375 52.65625 34.296875 
Q 57.90625 29 57.90625 20.125 
Q 57.90625 9.515625 50.796875 4.046875 
Q 43.703125 -1.421875 29.984375 -1.421875 
Q 24.8125 -1.421875 18.96875 -0.25 
Q 13.140625 0.921875 6.890625 3.21875 
L 6.890625 13.375 
Q 12.890625 10.015625 18.65625 8.296875 
Q 24.421875 6.59375 29.984375 6.59375 
Q 38.421875 6.59375 43.015625 9.90625 
Q 47.609375 13.234375 47.609375 19.390625 
Q 47.609375 24.75 44.3125 27.78125 
Q 41.015625 30.8125 33.5 32.328125 
L 27.484375 33.5 
Q 16.453125 35.6875 11.515625 40.375 
Q 6.59375 45.0625 6.59375 53.421875 
Q 6.59375 63.09375 13.40625 68.65625 
Q 20.21875 74.21875 32.171875 74.21875 
Q 37.3125 74.21875 42.625 73.28125 
Q 47.953125 72.359375 53.515625 70.515625 
z
" id="DejaVuSans-83"/>
      </defs>
      <use xlink:href="#DejaVuSans-32"/>
      <use x="31.787109" xlink:href="#DejaVuSans-177"/>
      <use x="115.576172" xlink:href="#DejaVuSans-32"/>
      <use x="147.363281" xlink:href="#DejaVuSans-83"/>
      <use x="210.839844" xlink:href="#DejaVuSans-110"/>
      <use x="274.21875" xlink:href="#DejaVuSans-40"/>
      <use x="313.232422" xlink:href="#DejaVuSans-120"/>
      <use x="372.412109" xlink:href="#DejaVuSans-41"/>
     </g>
    </g>
    <g id="line2d_24">
     <path d="M 146.527813 97.406094 
L 168.527813 97.406094 
" style="fill:none;stroke:#bfbf00;stroke-dasharray:7.4,3.2;stroke-dashoffset:0;stroke-width:2;"/>
    </g>
    <g id="line2d_25"/>
    <g id="text_22">
     <!-- PI(x) -->
     <g transform="translate(177.327813 101.256094)scale(0.11 -0.11)">
      <use xlink:href="#DejaVuSans-80"/>
      <use x="60.302734" xlink:href="#DejaVuSans-73"/>
      <use x="89.794922" xlink:href="#DejaVuSans-40"/>
      <use x="128.808594" xlink:href="#DejaVuSans-120"/>
      <use x="187.988281" xlink:href="#DejaVuSans-41"/>
     </g>
    </g>
    <g id="PathCollection_2">
     <defs>
      <path d="M 0 3.535534 
C 0.937635 3.535534 1.836992 3.163008 2.5 2.5 
C 3.163008 1.836992 3.535534 0.937635 3.535534 0 
C 3.535534 -0.937635 3.163008 -1.836992 2.5 -2.5 
C 1.836992 -3.163008 0.937635 -3.535534 0 -3.535534 
C -0.937635 -3.535534 -1.836992 -3.163008 -2.5 -2.5 
C -3.163008 -1.836992 -3.535534 -0.937635 -3.535534 0 
C -3.535534 0.937635 -3.163008 1.836992 -2.5 2.5 
C -1.836992 3.163008 -0.937635 3.535534 0 3.535534 
z
" id="me3cb620c18" style="stroke:#000000;"/>
     </defs>
     <g>
      <use style="fill:#ff0000;stroke:#000000;" x="157.527813" xlink:href="#me3cb620c18" y="114.514531"/>
     </g>
    </g>
    <g id="text_23">
     <!-- training data -->
     <g transform="translate(177.327813 117.402031)scale(0.11 -0.11)">
      <defs>
       <path d="M 34.28125 27.484375 
Q 23.390625 27.484375 19.1875 25 
Q 14.984375 22.515625 14.984375 16.5 
Q 14.984375 11.71875 18.140625 8.90625 
Q 21.296875 6.109375 26.703125 6.109375 
Q 34.1875 6.109375 38.703125 11.40625 
Q 43.21875 16.703125 43.21875 25.484375 
L 43.21875 27.484375 
z
M 52.203125 31.203125 
L 52.203125 0 
L 43.21875 0 
L 43.21875 8.296875 
Q 40.140625 3.328125 35.546875 0.953125 
Q 30.953125 -1.421875 24.3125 -1.421875 
Q 15.921875 -1.421875 10.953125 3.296875 
Q 6 8.015625 6 15.921875 
Q 6 25.140625 12.171875 29.828125 
Q 18.359375 34.515625 30.609375 34.515625 
L 43.21875 34.515625 
L 43.21875 35.40625 
Q 43.21875 41.609375 39.140625 45 
Q 35.0625 48.390625 27.6875 48.390625 
Q 23 48.390625 18.546875 47.265625 
Q 14.109375 46.140625 10.015625 43.890625 
L 10.015625 52.203125 
Q 14.9375 54.109375 19.578125 55.046875 
Q 24.21875 56 28.609375 56 
Q 40.484375 56 46.34375 49.84375 
Q 52.203125 43.703125 52.203125 31.203125 
z
" id="DejaVuSans-97"/>
       <path d="M 45.40625 27.984375 
Q 45.40625 37.75 41.375 43.109375 
Q 37.359375 48.484375 30.078125 48.484375 
Q 22.859375 48.484375 18.828125 43.109375 
Q 14.796875 37.75 14.796875 27.984375 
Q 14.796875 18.265625 18.828125 12.890625 
Q 22.859375 7.515625 30.078125 7.515625 
Q 37.359375 7.515625 41.375 12.890625 
Q 45.40625 18.265625 45.40625 27.984375 
z
M 54.390625 6.78125 
Q 54.390625 -7.171875 48.1875 -13.984375 
Q 42 -20.796875 29.203125 -20.796875 
Q 24.46875 -20.796875 20.265625 -20.09375 
Q 16.0625 -19.390625 12.109375 -17.921875 
L 12.109375 -9.1875 
Q 16.0625 -11.328125 19.921875 -12.34375 
Q 23.78125 -13.375 27.78125 -13.375 
Q 36.625 -13.375 41.015625 -8.765625 
Q 45.40625 -4.15625 45.40625 5.171875 
L 45.40625 9.625 
Q 42.625 4.78125 38.28125 2.390625 
Q 33.9375 0 27.875 0 
Q 17.828125 0 11.671875 7.65625 
Q 5.515625 15.328125 5.515625 27.984375 
Q 5.515625 40.671875 11.671875 48.328125 
Q 17.828125 56 27.875 56 
Q 33.9375 56 38.28125 53.609375 
Q 42.625 51.21875 45.40625 46.390625 
L 45.40625 54.6875 
L 54.390625 54.6875 
z
" id="DejaVuSans-103"/>
      </defs>
      <use xlink:href="#DejaVuSans-116"/>
      <use x="39.208984" xlink:href="#DejaVuSans-114"/>
      <use x="80.322266" xlink:href="#DejaVuSans-97"/>
      <use x="141.601562" xlink:href="#DejaVuSans-105"/>
      <use x="169.384766" xlink:href="#DejaVuSans-110"/>
      <use x="232.763672" xlink:href="#DejaVuSans-105"/>
      <use x="260.546875" xlink:href="#DejaVuSans-110"/>
      <use x="323.925781" xlink:href="#DejaVuSans-103"/>
      <use x="387.402344" xlink:href="#DejaVuSans-32"/>
      <use x="419.189453" xlink:href="#DejaVuSans-100"/>
      <use x="482.666016" xlink:href="#DejaVuSans-97"/>
      <use x="543.945312" xlink:href="#DejaVuSans-116"/>
      <use x="583.154297" xlink:href="#DejaVuSans-97"/>
     </g>
    </g>
    <g id="PathCollection_3">
     <g>
      <use style="fill:#ff0000;stroke:#ff0000;stroke-width:8;" x="157.527813" xlink:href="#m8dc9fa68ab" y="130.660469"/>
     </g>
    </g>
    <g id="text_24">
     <!-- recommended datum -->
     <g transform="translate(177.327813 133.547969)scale(0.11 -0.11)">
      <defs>
       <path d="M 52 44.1875 
Q 55.375 50.25 60.0625 53.125 
Q 64.75 56 71.09375 56 
Q 79.640625 56 84.28125 50.015625 
Q 88.921875 44.046875 88.921875 33.015625 
L 88.921875 0 
L 79.890625 0 
L 79.890625 32.71875 
Q 79.890625 40.578125 77.09375 44.375 
Q 74.3125 48.1875 68.609375 48.1875 
Q 61.625 48.1875 57.5625 43.546875 
Q 53.515625 38.921875 53.515625 30.90625 
L 53.515625 0 
L 44.484375 0 
L 44.484375 32.71875 
Q 44.484375 40.625 41.703125 44.40625 
Q 38.921875 48.1875 33.109375 48.1875 
Q 26.21875 48.1875 22.15625 43.53125 
Q 18.109375 38.875 18.109375 30.90625 
L 18.109375 0 
L 9.078125 0 
L 9.078125 54.6875 
L 18.109375 54.6875 
L 18.109375 46.1875 
Q 21.1875 51.21875 25.484375 53.609375 
Q 29.78125 56 35.6875 56 
Q 41.65625 56 45.828125 52.96875 
Q 50 49.953125 52 44.1875 
z
" id="DejaVuSans-109"/>
      </defs>
      <use xlink:href="#DejaVuSans-114"/>
      <use x="38.863281" xlink:href="#DejaVuSans-101"/>
      <use x="100.386719" xlink:href="#DejaVuSans-99"/>
      <use x="155.367188" xlink:href="#DejaVuSans-111"/>
      <use x="216.548828" xlink:href="#DejaVuSans-109"/>
      <use x="313.960938" xlink:href="#DejaVuSans-109"/>
      <use x="411.373047" xlink:href="#DejaVuSans-101"/>
      <use x="472.896484" xlink:href="#DejaVuSans-110"/>
      <use x="536.275391" xlink:href="#DejaVuSans-100"/>
      <use x="599.751953" xlink:href="#DejaVuSans-101"/>
      <use x="661.275391" xlink:href="#DejaVuSans-100"/>
      <use x="724.751953" xlink:href="#DejaVuSans-32"/>
      <use x="756.539062" xlink:href="#DejaVuSans-100"/>
      <use x="820.015625" xlink:href="#DejaVuSans-97"/>
      <use x="881.294922" xlink:href="#DejaVuSans-116"/>
      <use x="920.503906" xlink:href="#DejaVuSans-117"/>
      <use x="983.882812" xlink:href="#DejaVuSans-109"/>
     </g>
    </g>
   </g>
   <g id="line2d_26">
    <path clip-path="url(#p8ad9794156)" d="M 69.218182 142.722194 
L 71.985124 141.075131 
L 74.752066 140.141649 
L 77.519008 140.018775 
L 80.28595 140.770437 
L 83.052893 142.420938 
L 85.819835 144.951057 
L 88.586777 148.297273 
L 91.353719 152.354319 
L 94.120661 156.980943 
L 96.887603 162.00841 
L 99.654545 167.251047 
L 102.421488 172.517881 
L 105.18843 177.624394 
L 107.955372 182.403382 
L 110.722314 186.714084 
L 113.489256 190.448921 
L 116.256198 193.537472 
L 119.02314 195.947576 
L 121.790083 197.683736 
L 124.557025 198.783193 
L 127.323967 199.310213 
L 130.090909 199.349203 
L 132.857851 198.997283 
L 135.624793 198.356906 
L 138.391736 197.529022 
L 141.158678 196.607166 
L 143.92562 195.672748 
L 146.692562 194.791681 
L 149.459504 194.012404 
L 152.226446 193.365245 
L 154.993388 192.863023 
L 157.760331 192.502708 
L 160.527273 192.267939 
L 163.294215 192.132139 
L 166.061157 192.061988 
L 168.828099 192.020975 
L 171.595041 191.972779 
L 174.361983 191.884264 
L 177.128926 191.727887 
L 179.895868 191.483411 
L 182.66281 191.138847 
L 185.429752 190.690639 
L 188.196694 190.143154 
L 190.963636 189.5076 
L 193.730579 188.80053 
L 196.497521 188.042117 
L 199.264463 187.254364 
L 202.031405 186.459423 
L 204.798347 185.678152 
L 207.565289 184.928996 
L 210.332231 184.227254 
L 213.099174 183.584732 
L 215.866116 183.009766 
L 218.633058 182.50757 
L 221.4 182.080836 
L 224.166942 181.730527 
L 226.933884 181.456786 
L 229.700826 181.259903 
L 232.467769 181.141278 
L 235.234711 181.104328 
L 238.001653 181.155306 
L 240.768595 181.303953 
L 243.535537 181.563966 
L 246.302479 181.953201 
L 249.069421 182.493552 
L 251.836364 183.210439 
L 254.603306 184.131839 
L 257.370248 185.2868 
L 260.13719 186.703415 
L 262.904132 188.406254 
L 265.671074 190.413304 
L 268.438017 192.73254 
L 271.204959 195.358279 
L 273.971901 198.267583 
L 276.738843 201.416965 
L 279.505785 204.739764 
L 282.272727 208.144517 
L 285.039669 211.514673 
L 287.806612 214.70996 
L 290.573554 217.569623 
L 293.340496 219.917649 
L 296.107438 221.569989 
L 298.87438 222.343574 
L 301.641322 222.066811 
L 304.408264 220.591006 
L 307.175207 217.80206 
L 309.942149 213.631578 
L 312.709091 208.066513 
L 315.476033 201.15639 
L 318.242975 193.017247 
L 321.009917 183.831583 
L 323.77686 173.843841 
L 326.543802 163.351316 
L 329.310744 152.690763 
L 332.077686 142.221394 
L 334.844628 132.305365 
L 337.61157 123.287176 
L 340.378512 115.473589 
L 343.145455 109.115721 
L 345.912397 104.394838 
L 348.679339 101.413034 
L 351.446281 100.189574 
L 354.213223 100.663102 
L 356.980165 102.699371 
L 359.747107 106.103641 
L 362.51405 110.636453 
L 365.280992 116.031282 
L 368.047934 122.012449 
L 370.814876 128.311817 
L 373.581818 134.683031 
" style="fill:none;stroke:#000000;stroke-dasharray:7.4,3.2;stroke-dashoffset:0;stroke-width:2;"/>
   </g>
   <g id="PathCollection_4">
    <g clip-path="url(#p8ad9794156)">
     <use style="fill:#ff0000;stroke:#000000;" x="83.052893" xlink:href="#me3cb620c18" y="129.399309"/>
     <use style="fill:#ff0000;stroke:#000000;" x="96.887603" xlink:href="#me3cb620c18" y="162.429541"/>
     <use style="fill:#ff0000;stroke:#000000;" x="110.722314" xlink:href="#me3cb620c18" y="193.170209"/>
     <use style="fill:#ff0000;stroke:#000000;" x="124.557025" xlink:href="#me3cb620c18" y="199.248575"/>
     <use style="fill:#ff0000;stroke:#000000;" x="138.391736" xlink:href="#me3cb620c18" y="199.347548"/>
     <use style="fill:#ff0000;stroke:#000000;" x="152.226446" xlink:href="#me3cb620c18" y="191.611971"/>
     <use style="fill:#ff0000;stroke:#000000;" x="166.061157" xlink:href="#me3cb620c18" y="193.66847"/>
     <use style="fill:#ff0000;stroke:#000000;" x="179.895868" xlink:href="#me3cb620c18" y="193.283098"/>
     <use style="fill:#ff0000;stroke:#000000;" x="193.730579" xlink:href="#me3cb620c18" y="188.924027"/>
     <use style="fill:#ff0000;stroke:#000000;" x="318.242975" xlink:href="#me3cb620c18" y="199.289596"/>
     <use style="fill:#ff0000;stroke:#000000;" x="332.077686" xlink:href="#me3cb620c18" y="145.37007"/>
     <use style="fill:#ff0000;stroke:#000000;" x="345.912397" xlink:href="#me3cb620c18" y="78.407322"/>
     <use style="fill:#ff0000;stroke:#000000;" x="307.175207" xlink:href="#me3cb620c18" y="220.241861"/>
     <use style="fill:#ff0000;stroke:#000000;" x="301.641322" xlink:href="#me3cb620c18" y="227.966677"/>
    </g>
   </g>
  </g>
 </g>
 <defs>
  <clipPath id="p8ad9794156">
   <rect height="217.44" width="334.8" x="54" y="34.56"/>
  </clipPath>
 </defs>
</svg>
