<?xml version="1.0" encoding="utf-8" standalone="no"?>
<!DOCTYPE svg PUBLIC "-//W3C//DTD SVG 1.1//EN"
  "http://www.w3.org/Graphics/SVG/1.1/DTD/svg11.dtd">
<!-- Created with matplotlib (https://matplotlib.org/) -->
<svg height="288pt" version="1.1" viewBox="0 0 432 288" width="432pt" xmlns="http://www.w3.org/2000/svg" xmlns:xlink="http://www.w3.org/1999/xlink">
 <metadata>
  <rdf:RDF xmlns:cc="http://creativecommons.org/ns#" xmlns:dc="http://purl.org/dc/elements/1.1/" xmlns:rdf="http://www.w3.org/1999/02/22-rdf-syntax-ns#">
   <cc:Work>
    <dc:type rdf:resource="http://purl.org/dc/dcmitype/StillImage"/>
    <dc:date>2022-08-03T21:34:36.818537</dc:date>
    <dc:format>image/svg+xml</dc:format>
    <dc:creator>
     <cc:Agent>
      <dc:title>Matplotlib v3.3.2, https://matplotlib.org/</dc:title>
     </cc:Agent>
    </dc:creator>
   </cc:Work>
  </rdf:RDF>
 </metadata>
 <defs>
  <style type="text/css">*{stroke-linecap:butt;stroke-linejoin:round;}</style>
 </defs>
 <g id="figure_1">
  <g id="patch_1">
   <path d="M 0 288 
L 432 288 
L 432 0 
L 0 0 
z
" style="fill:none;"/>
  </g>
  <g id="axes_1">
   <g id="patch_2">
    <path d="M 54 252 
L 388.8 252 
L 388.8 34.56 
L 54 34.56 
z
" style="fill:#ffffff;"/>
   </g>
   <g id="PolyCollection_1">
    <defs>
     <path d="M 69.218182 -165.274963 
L 69.218182 -111.620392 
L 71.985124 -114.920544 
L 74.752066 -117.693062 
L 77.519008 -119.769614 
L 80.28595 -121.002298 
L 83.052893 -121.280521 
L 85.819835 -120.548313 
L 88.586777 -118.817917 
L 91.353719 -116.173805 
L 94.120661 -112.763579 
L 96.887603 -108.778346 
L 99.654545 -104.429915 
L 102.421488 -99.931271 
L 105.18843 -95.4825 
L 107.955372 -91.261049 
L 110.722314 -87.414437 
L 113.489256 -84.054275 
L 116.256198 -81.251573 
L 119.02314 -79.03418 
L 121.790083 -77.387774 
L 124.557025 -76.261801 
L 127.323967 -75.580917 
L 130.090909 -75.260372 
L 132.857851 -75.221045 
L 135.624793 -75.398794 
L 138.391736 -75.745451 
L 141.158678 -76.223511 
L 143.92562 -76.799222 
L 146.692562 -77.437824 
L 149.459504 -78.102262 
L 152.226446 -78.754915 
L 154.993388 -79.361231 
L 157.760331 -79.894086 
L 160.527273 -80.337752 
L 163.294215 -80.690391 
L 166.061157 -80.964141 
L 168.828099 -81.182198 
L 171.595041 -81.372914 
L 174.361983 -81.561648 
L 177.128926 -81.761802 
L 179.895868 -81.967082 
L 182.66281 -82.147533 
L 185.429752 -82.252131 
L 188.196694 -82.219547 
L 190.963636 -81.995255 
L 193.730579 -81.548587 
L 196.497521 -80.881951 
L 199.264463 -80.028925 
L 202.031405 -79.044352 
L 204.798347 -77.992199 
L 207.565289 -76.93524 
L 210.332231 -75.927929 
L 213.099174 -75.012264 
L 215.866116 -74.215995 
L 218.633058 -73.55258 
L 221.4 -73.022422 
L 224.166942 -72.614988 
L 226.933884 -72.311389 
L 229.700826 -72.087089 
L 232.467769 -71.914375 
L 235.234711 -71.76437 
L 238.001653 -71.608446 
L 240.768595 -71.419063 
L 243.535537 -71.170156 
L 246.302479 -70.837298 
L 249.069421 -70.397896 
L 251.836364 -69.831647 
L 254.603306 -69.12139 
L 257.370248 -68.254422 
L 260.13719 -67.224152 
L 262.904132 -66.031947 
L 265.671074 -64.68886 
L 268.438017 -63.216997 
L 271.204959 -61.650258 
L 273.971901 -60.034282 
L 276.738843 -58.425558 
L 279.505785 -56.889741 
L 282.272727 -55.49933 
L 285.039669 -54.330956 
L 287.806612 -53.462609 
L 290.573554 -52.971209 
L 293.340496 -52.931103 
L 296.107438 -53.414091 
L 298.87438 -54.491425 
L 301.641322 -56.237298 
L 304.408264 -58.731453 
L 307.175207 -62.056781 
L 309.942149 -66.288418 
L 312.709091 -71.475177 
L 315.476033 -77.619095 
L 318.242975 -84.660019 
L 321.009917 -92.469024 
L 323.77686 -100.8505 
L 326.543802 -109.550596 
L 329.310744 -118.269642 
L 332.077686 -126.677249 
L 334.844628 -134.43032 
L 337.61157 -141.195168 
L 340.378512 -146.674323 
L 343.145455 -150.635437 
L 345.912397 -152.935649 
L 348.679339 -153.53394 
L 351.446281 -152.488612 
L 354.213223 -149.943044 
L 356.980165 -146.105423 
L 359.747107 -141.226874 
L 362.51405 -135.580357 
L 365.280992 -129.441502 
L 368.047934 -123.072123 
L 370.814876 -116.707074 
L 373.581818 -110.5449 
L 373.581818 -178.023891 
L 373.581818 -178.023891 
L 370.814876 -182.171364 
L 368.047934 -186.120916 
L 365.280992 -189.685814 
L 362.51405 -192.673817 
L 359.747107 -194.89943 
L 356.980165 -196.196859 
L 354.213223 -196.432299 
L 351.446281 -195.513861 
L 348.679339 -193.397351 
L 345.912397 -190.086503 
L 343.145455 -185.627826 
L 340.378512 -180.102884 
L 337.61157 -173.62286 
L 334.844628 -166.32864 
L 332.077686 -158.394503 
L 329.310744 -150.029701 
L 326.543802 -141.473601 
L 323.77686 -132.984421 
L 321.009917 -124.824786 
L 318.242975 -117.247738 
L 315.476033 -110.485328 
L 312.709091 -104.739894 
L 309.942149 -100.176271 
L 307.175207 -96.912669 
L 304.408264 -95.009486 
L 301.641322 -94.45884 
L 298.87438 -95.180419 
L 296.107438 -97.027954 
L 293.340496 -99.805666 
L 290.573554 -103.289793 
L 287.806612 -107.249859 
L 285.039669 -111.466376 
L 282.272727 -115.743784 
L 279.505785 -119.918697 
L 276.738843 -123.863932 
L 273.971901 -127.488988 
L 271.204959 -130.737726 
L 268.438017 -133.584006 
L 265.671074 -136.026089 
L 262.904132 -138.080537 
L 260.13719 -139.776236 
L 257.370248 -141.149015 
L 254.603306 -142.237118 
L 251.836364 -143.077628 
L 249.069421 -143.703787 
L 246.302479 -144.143066 
L 243.535537 -144.415851 
L 240.768595 -144.534591 
L 238.001653 -144.503398 
L 235.234711 -144.318116 
L 232.467769 -143.96696 
L 229.700826 -143.431859 
L 226.933884 -142.690594 
L 224.166942 -141.71975 
L 221.4 -140.498378 
L 218.633058 -139.012133 
L 215.866116 -137.257531 
L 213.099174 -135.245877 
L 210.332231 -133.006389 
L 207.565289 -130.588002 
L 204.798347 -128.059362 
L 202.031405 -125.50646 
L 199.264463 -123.027287 
L 196.497521 -120.722872 
L 193.730579 -118.684598 
L 190.963636 -116.979286 
L 188.196694 -115.636325 
L 185.429752 -114.642873 
L 182.66281 -113.950554 
L 179.895868 -113.490672 
L 177.128926 -113.190454 
L 174.361983 -112.984151 
L 171.595041 -112.817323 
L 168.828099 -112.645966 
L 166.061157 -112.433151 
L 163.294215 -112.145497 
L 160.527273 -111.751167 
L 157.760331 -111.220349 
L 154.993388 -110.528448 
L 152.226446 -109.661461 
L 149.459504 -108.622441 
L 146.692562 -107.437668 
L 143.92562 -106.16112 
L 141.158678 -104.875955 
L 138.391736 -103.691772 
L 135.624793 -102.736682 
L 132.857851 -102.143985 
L 130.090909 -102.035219 
L 127.323967 -102.503849 
L 124.557025 -103.60495 
L 121.790083 -105.353647 
L 119.02314 -107.730401 
L 116.256198 -110.688586 
L 113.489256 -114.160763 
L 110.722314 -118.062728 
L 107.955372 -122.296298 
L 105.18843 -126.75248 
L 102.421488 -131.316298 
L 99.654545 -135.873729 
L 96.887603 -140.319969 
L 94.120661 -144.566825 
L 91.353719 -148.546086 
L 88.586777 -152.206382 
L 85.819835 -155.504379 
L 83.052893 -158.395573 
L 80.28595 -160.831202 
L 77.519008 -162.763422 
L 74.752066 -164.155201 
L 71.985124 -164.989574 
L 69.218182 -165.274963 
z
" id="mc8604cb642" style="stroke:#add8e6;stroke-opacity:0.2;"/>
    </defs>
    <g clip-path="url(#p6756226cdd)">
     <use style="fill:#add8e6;fill-opacity:0.2;stroke:#add8e6;stroke-opacity:0.2;" x="0" xlink:href="#mc8604cb642" y="288"/>
    </g>
   </g>
   <g id="PathCollection_1">
    <defs>
     <path d="M 0 0.612372 
C 0.162403 0.612372 0.318176 0.547849 0.433013 0.433013 
C 0.547849 0.318176 0.612372 0.162403 0.612372 0 
C 0.612372 -0.162403 0.547849 -0.318176 0.433013 -0.433013 
C 0.318176 -0.547849 0.162403 -0.612372 0 -0.612372 
C -0.162403 -0.612372 -0.318176 -0.547849 -0.433013 -0.433013 
C -0.547849 -0.318176 -0.612372 -0.162403 -0.612372 0 
C -0.612372 0.162403 -0.547849 0.318176 -0.433013 0.433013 
C -0.318176 0.547849 -0.162403 0.612372 0 0.612372 
z
" id="m0b4fc0d8e8" style="stroke:#ff0000;stroke-width:8;"/>
    </defs>
    <g clip-path="url(#p6756226cdd)">
     <use style="fill:#ff0000;stroke:#ff0000;stroke-width:8;" x="296.107438" xlink:href="#m0b4fc0d8e8" y="241.810794"/>
    </g>
   </g>
   <g id="matplotlib.axis_1">
    <g id="xtick_1">
     <g id="line2d_1">
      <defs>
       <path d="M 0 0 
L 0 3.5 
" id="m7932aae9f9" style="stroke:#000000;stroke-width:0.8;"/>
      </defs>
      <g>
       <use style="stroke:#000000;stroke-width:0.8;" x="69.218182" xlink:href="#m7932aae9f9" y="252"/>
      </g>
     </g>
     <g id="text_1">
      <!-- 0 -->
      <g transform="translate(66.036932 266.598437)scale(0.1 -0.1)">
       <defs>
        <path d="M 31.78125 66.40625 
Q 24.171875 66.40625 20.328125 58.90625 
Q 16.5 51.421875 16.5 36.375 
Q 16.5 21.390625 20.328125 13.890625 
Q 24.171875 6.390625 31.78125 6.390625 
Q 39.453125 6.390625 43.28125 13.890625 
Q 47.125 21.390625 47.125 36.375 
Q 47.125 51.421875 43.28125 58.90625 
Q 39.453125 66.40625 31.78125 66.40625 
z
M 31.78125 74.21875 
Q 44.046875 74.21875 50.515625 64.515625 
Q 56.984375 54.828125 56.984375 36.375 
Q 56.984375 17.96875 50.515625 8.265625 
Q 44.046875 -1.421875 31.78125 -1.421875 
Q 19.53125 -1.421875 13.0625 8.265625 
Q 6.59375 17.96875 6.59375 36.375 
Q 6.59375 54.828125 13.0625 64.515625 
Q 19.53125 74.21875 31.78125 74.21875 
z
" id="DejaVuSans-48"/>
       </defs>
       <use xlink:href="#DejaVuSans-48"/>
      </g>
     </g>
    </g>
    <g id="xtick_2">
     <g id="line2d_2">
      <g>
       <use style="stroke:#000000;stroke-width:0.8;" x="124.557025" xlink:href="#m7932aae9f9" y="252"/>
      </g>
     </g>
     <g id="text_2">
      <!-- 2 -->
      <g transform="translate(121.375775 266.598437)scale(0.1 -0.1)">
       <defs>
        <path d="M 19.1875 8.296875 
L 53.609375 8.296875 
L 53.609375 0 
L 7.328125 0 
L 7.328125 8.296875 
Q 12.9375 14.109375 22.625 23.890625 
Q 32.328125 33.6875 34.8125 36.53125 
Q 39.546875 41.84375 41.421875 45.53125 
Q 43.3125 49.21875 43.3125 52.78125 
Q 43.3125 58.59375 39.234375 62.25 
Q 35.15625 65.921875 28.609375 65.921875 
Q 23.96875 65.921875 18.8125 64.3125 
Q 13.671875 62.703125 7.8125 59.421875 
L 7.8125 69.390625 
Q 13.765625 71.78125 18.9375 73 
Q 24.125 74.21875 28.421875 74.21875 
Q 39.75 74.21875 46.484375 68.546875 
Q 53.21875 62.890625 53.21875 53.421875 
Q 53.21875 48.921875 51.53125 44.890625 
Q 49.859375 40.875 45.40625 35.40625 
Q 44.1875 33.984375 37.640625 27.21875 
Q 31.109375 20.453125 19.1875 8.296875 
z
" id="DejaVuSans-50"/>
       </defs>
       <use xlink:href="#DejaVuSans-50"/>
      </g>
     </g>
    </g>
    <g id="xtick_3">
     <g id="line2d_3">
      <g>
       <use style="stroke:#000000;stroke-width:0.8;" x="179.895868" xlink:href="#m7932aae9f9" y="252"/>
      </g>
     </g>
     <g id="text_3">
      <!-- 4 -->
      <g transform="translate(176.714618 266.598437)scale(0.1 -0.1)">
       <defs>
        <path d="M 37.796875 64.3125 
L 12.890625 25.390625 
L 37.796875 25.390625 
z
M 35.203125 72.90625 
L 47.609375 72.90625 
L 47.609375 25.390625 
L 58.015625 25.390625 
L 58.015625 17.1875 
L 47.609375 17.1875 
L 47.609375 0 
L 37.796875 0 
L 37.796875 17.1875 
L 4.890625 17.1875 
L 4.890625 26.703125 
z
" id="DejaVuSans-52"/>
       </defs>
       <use xlink:href="#DejaVuSans-52"/>
      </g>
     </g>
    </g>
    <g id="xtick_4">
     <g id="line2d_4">
      <g>
       <use style="stroke:#000000;stroke-width:0.8;" x="235.234711" xlink:href="#m7932aae9f9" y="252"/>
      </g>
     </g>
     <g id="text_4">
      <!-- 6 -->
      <g transform="translate(232.053461 266.598437)scale(0.1 -0.1)">
       <defs>
        <path d="M 33.015625 40.375 
Q 26.375 40.375 22.484375 35.828125 
Q 18.609375 31.296875 18.609375 23.390625 
Q 18.609375 15.53125 22.484375 10.953125 
Q 26.375 6.390625 33.015625 6.390625 
Q 39.65625 6.390625 43.53125 10.953125 
Q 47.40625 15.53125 47.40625 23.390625 
Q 47.40625 31.296875 43.53125 35.828125 
Q 39.65625 40.375 33.015625 40.375 
z
M 52.59375 71.296875 
L 52.59375 62.3125 
Q 48.875 64.0625 45.09375 64.984375 
Q 41.3125 65.921875 37.59375 65.921875 
Q 27.828125 65.921875 22.671875 59.328125 
Q 17.53125 52.734375 16.796875 39.40625 
Q 19.671875 43.65625 24.015625 45.921875 
Q 28.375 48.1875 33.59375 48.1875 
Q 44.578125 48.1875 50.953125 41.515625 
Q 57.328125 34.859375 57.328125 23.390625 
Q 57.328125 12.15625 50.6875 5.359375 
Q 44.046875 -1.421875 33.015625 -1.421875 
Q 20.359375 -1.421875 13.671875 8.265625 
Q 6.984375 17.96875 6.984375 36.375 
Q 6.984375 53.65625 15.1875 63.9375 
Q 23.390625 74.21875 37.203125 74.21875 
Q 40.921875 74.21875 44.703125 73.484375 
Q 48.484375 72.75 52.59375 71.296875 
z
" id="DejaVuSans-54"/>
       </defs>
       <use xlink:href="#DejaVuSans-54"/>
      </g>
     </g>
    </g>
    <g id="xtick_5">
     <g id="line2d_5">
      <g>
       <use style="stroke:#000000;stroke-width:0.8;" x="290.573554" xlink:href="#m7932aae9f9" y="252"/>
      </g>
     </g>
     <g id="text_5">
      <!-- 8 -->
      <g transform="translate(287.392304 266.598437)scale(0.1 -0.1)">
       <defs>
        <path d="M 31.78125 34.625 
Q 24.75 34.625 20.71875 30.859375 
Q 16.703125 27.09375 16.703125 20.515625 
Q 16.703125 13.921875 20.71875 10.15625 
Q 24.75 6.390625 31.78125 6.390625 
Q 38.8125 6.390625 42.859375 10.171875 
Q 46.921875 13.96875 46.921875 20.515625 
Q 46.921875 27.09375 42.890625 30.859375 
Q 38.875 34.625 31.78125 34.625 
z
M 21.921875 38.8125 
Q 15.578125 40.375 12.03125 44.71875 
Q 8.5 49.078125 8.5 55.328125 
Q 8.5 64.0625 14.71875 69.140625 
Q 20.953125 74.21875 31.78125 74.21875 
Q 42.671875 74.21875 48.875 69.140625 
Q 55.078125 64.0625 55.078125 55.328125 
Q 55.078125 49.078125 51.53125 44.71875 
Q 48 40.375 41.703125 38.8125 
Q 48.828125 37.15625 52.796875 32.3125 
Q 56.78125 27.484375 56.78125 20.515625 
Q 56.78125 9.90625 50.3125 4.234375 
Q 43.84375 -1.421875 31.78125 -1.421875 
Q 19.734375 -1.421875 13.25 4.234375 
Q 6.78125 9.90625 6.78125 20.515625 
Q 6.78125 27.484375 10.78125 32.3125 
Q 14.796875 37.15625 21.921875 38.8125 
z
M 18.3125 54.390625 
Q 18.3125 48.734375 21.84375 45.5625 
Q 25.390625 42.390625 31.78125 42.390625 
Q 38.140625 42.390625 41.71875 45.5625 
Q 45.3125 48.734375 45.3125 54.390625 
Q 45.3125 60.0625 41.71875 63.234375 
Q 38.140625 66.40625 31.78125 66.40625 
Q 25.390625 66.40625 21.84375 63.234375 
Q 18.3125 60.0625 18.3125 54.390625 
z
" id="DejaVuSans-56"/>
       </defs>
       <use xlink:href="#DejaVuSans-56"/>
      </g>
     </g>
    </g>
    <g id="xtick_6">
     <g id="line2d_6">
      <g>
       <use style="stroke:#000000;stroke-width:0.8;" x="345.912397" xlink:href="#m7932aae9f9" y="252"/>
      </g>
     </g>
     <g id="text_6">
      <!-- 10 -->
      <g transform="translate(339.549897 266.598437)scale(0.1 -0.1)">
       <defs>
        <path d="M 12.40625 8.296875 
L 28.515625 8.296875 
L 28.515625 63.921875 
L 10.984375 60.40625 
L 10.984375 69.390625 
L 28.421875 72.90625 
L 38.28125 72.90625 
L 38.28125 8.296875 
L 54.390625 8.296875 
L 54.390625 0 
L 12.40625 0 
z
" id="DejaVuSans-49"/>
       </defs>
       <use xlink:href="#DejaVuSans-49"/>
       <use x="63.623047" xlink:href="#DejaVuSans-48"/>
      </g>
     </g>
    </g>
    <g id="text_7">
     <!-- x -->
     <g transform="translate(217.84875 281.79625)scale(0.12 -0.12)">
      <defs>
       <path d="M 54.890625 54.6875 
L 35.109375 28.078125 
L 55.90625 0 
L 45.3125 0 
L 29.390625 21.484375 
L 13.484375 0 
L 2.875 0 
L 24.125 28.609375 
L 4.6875 54.6875 
L 15.28125 54.6875 
L 29.78125 35.203125 
L 44.28125 54.6875 
z
" id="DejaVuSans-120"/>
      </defs>
      <use xlink:href="#DejaVuSans-120"/>
     </g>
    </g>
   </g>
   <g id="matplotlib.axis_2">
    <g id="ytick_1">
     <g id="line2d_7">
      <defs>
       <path d="M 0 0 
L -3.5 0 
" id="mfeeee4286d" style="stroke:#000000;stroke-width:0.8;"/>
      </defs>
      <g>
       <use style="stroke:#000000;stroke-width:0.8;" x="54" xlink:href="#mfeeee4286d" y="252"/>
      </g>
     </g>
     <g id="text_8">
      <!-- 3 -->
      <g transform="translate(40.6375 255.799219)scale(0.1 -0.1)">
       <defs>
        <path d="M 40.578125 39.3125 
Q 47.65625 37.796875 51.625 33 
Q 55.609375 28.21875 55.609375 21.1875 
Q 55.609375 10.40625 48.1875 4.484375 
Q 40.765625 -1.421875 27.09375 -1.421875 
Q 22.515625 -1.421875 17.65625 -0.515625 
Q 12.796875 0.390625 7.625 2.203125 
L 7.625 11.71875 
Q 11.71875 9.328125 16.59375 8.109375 
Q 21.484375 6.890625 26.8125 6.890625 
Q 36.078125 6.890625 40.9375 10.546875 
Q 45.796875 14.203125 45.796875 21.1875 
Q 45.796875 27.640625 41.28125 31.265625 
Q 36.765625 34.90625 28.71875 34.90625 
L 20.21875 34.90625 
L 20.21875 43.015625 
L 29.109375 43.015625 
Q 36.375 43.015625 40.234375 45.921875 
Q 44.09375 48.828125 44.09375 54.296875 
Q 44.09375 59.90625 40.109375 62.90625 
Q 36.140625 65.921875 28.71875 65.921875 
Q 24.65625 65.921875 20.015625 65.03125 
Q 15.375 64.15625 9.8125 62.3125 
L 9.8125 71.09375 
Q 15.4375 72.65625 20.34375 73.4375 
Q 25.25 74.21875 29.59375 74.21875 
Q 40.828125 74.21875 47.359375 69.109375 
Q 53.90625 64.015625 53.90625 55.328125 
Q 53.90625 49.265625 50.4375 45.09375 
Q 46.96875 40.921875 40.578125 39.3125 
z
" id="DejaVuSans-51"/>
       </defs>
       <use xlink:href="#DejaVuSans-51"/>
      </g>
     </g>
    </g>
    <g id="ytick_2">
     <g id="line2d_8">
      <g>
       <use style="stroke:#000000;stroke-width:0.8;" x="54" xlink:href="#mfeeee4286d" y="215.76"/>
      </g>
     </g>
     <g id="text_9">
      <!-- 4 -->
      <g transform="translate(40.6375 219.559219)scale(0.1 -0.1)">
       <use xlink:href="#DejaVuSans-52"/>
      </g>
     </g>
    </g>
    <g id="ytick_3">
     <g id="line2d_9">
      <g>
       <use style="stroke:#000000;stroke-width:0.8;" x="54" xlink:href="#mfeeee4286d" y="179.52"/>
      </g>
     </g>
     <g id="text_10">
      <!-- 5 -->
      <g transform="translate(40.6375 183.319219)scale(0.1 -0.1)">
       <defs>
        <path d="M 10.796875 72.90625 
L 49.515625 72.90625 
L 49.515625 64.59375 
L 19.828125 64.59375 
L 19.828125 46.734375 
Q 21.96875 47.46875 24.109375 47.828125 
Q 26.265625 48.1875 28.421875 48.1875 
Q 40.625 48.1875 47.75 41.5 
Q 54.890625 34.8125 54.890625 23.390625 
Q 54.890625 11.625 47.5625 5.09375 
Q 40.234375 -1.421875 26.90625 -1.421875 
Q 22.3125 -1.421875 17.546875 -0.640625 
Q 12.796875 0.140625 7.71875 1.703125 
L 7.71875 11.625 
Q 12.109375 9.234375 16.796875 8.0625 
Q 21.484375 6.890625 26.703125 6.890625 
Q 35.15625 6.890625 40.078125 11.328125 
Q 45.015625 15.765625 45.015625 23.390625 
Q 45.015625 31 40.078125 35.4375 
Q 35.15625 39.890625 26.703125 39.890625 
Q 22.75 39.890625 18.8125 39.015625 
Q 14.890625 38.140625 10.796875 36.28125 
z
" id="DejaVuSans-53"/>
       </defs>
       <use xlink:href="#DejaVuSans-53"/>
      </g>
     </g>
    </g>
    <g id="ytick_4">
     <g id="line2d_10">
      <g>
       <use style="stroke:#000000;stroke-width:0.8;" x="54" xlink:href="#mfeeee4286d" y="143.28"/>
      </g>
     </g>
     <g id="text_11">
      <!-- 6 -->
      <g transform="translate(40.6375 147.079219)scale(0.1 -0.1)">
       <use xlink:href="#DejaVuSans-54"/>
      </g>
     </g>
    </g>
    <g id="ytick_5">
     <g id="line2d_11">
      <g>
       <use style="stroke:#000000;stroke-width:0.8;" x="54" xlink:href="#mfeeee4286d" y="107.04"/>
      </g>
     </g>
     <g id="text_12">
      <!-- 7 -->
      <g transform="translate(40.6375 110.839219)scale(0.1 -0.1)">
       <defs>
        <path d="M 8.203125 72.90625 
L 55.078125 72.90625 
L 55.078125 68.703125 
L 28.609375 0 
L 18.3125 0 
L 43.21875 64.59375 
L 8.203125 64.59375 
z
" id="DejaVuSans-55"/>
       </defs>
       <use xlink:href="#DejaVuSans-55"/>
      </g>
     </g>
    </g>
    <g id="ytick_6">
     <g id="line2d_12">
      <g>
       <use style="stroke:#000000;stroke-width:0.8;" x="54" xlink:href="#mfeeee4286d" y="70.8"/>
      </g>
     </g>
     <g id="text_13">
      <!-- 8 -->
      <g transform="translate(40.6375 74.599219)scale(0.1 -0.1)">
       <use xlink:href="#DejaVuSans-56"/>
      </g>
     </g>
    </g>
    <g id="ytick_7">
     <g id="line2d_13">
      <g>
       <use style="stroke:#000000;stroke-width:0.8;" x="54" xlink:href="#mfeeee4286d" y="34.56"/>
      </g>
     </g>
     <g id="text_14">
      <!-- 9 -->
      <g transform="translate(40.6375 38.359219)scale(0.1 -0.1)">
       <defs>
        <path d="M 10.984375 1.515625 
L 10.984375 10.5 
Q 14.703125 8.734375 18.5 7.8125 
Q 22.3125 6.890625 25.984375 6.890625 
Q 35.75 6.890625 40.890625 13.453125 
Q 46.046875 20.015625 46.78125 33.40625 
Q 43.953125 29.203125 39.59375 26.953125 
Q 35.25 24.703125 29.984375 24.703125 
Q 19.046875 24.703125 12.671875 31.3125 
Q 6.296875 37.9375 6.296875 49.421875 
Q 6.296875 60.640625 12.9375 67.421875 
Q 19.578125 74.21875 30.609375 74.21875 
Q 43.265625 74.21875 49.921875 64.515625 
Q 56.59375 54.828125 56.59375 36.375 
Q 56.59375 19.140625 48.40625 8.859375 
Q 40.234375 -1.421875 26.421875 -1.421875 
Q 22.703125 -1.421875 18.890625 -0.6875 
Q 15.09375 0.046875 10.984375 1.515625 
z
M 30.609375 32.421875 
Q 37.25 32.421875 41.125 36.953125 
Q 45.015625 41.5 45.015625 49.421875 
Q 45.015625 57.28125 41.125 61.84375 
Q 37.25 66.40625 30.609375 66.40625 
Q 23.96875 66.40625 20.09375 61.84375 
Q 16.21875 57.28125 16.21875 49.421875 
Q 16.21875 41.5 20.09375 36.953125 
Q 23.96875 32.421875 30.609375 32.421875 
z
" id="DejaVuSans-57"/>
       </defs>
       <use xlink:href="#DejaVuSans-57"/>
      </g>
     </g>
    </g>
    <g id="text_15">
     <!-- y -->
     <g transform="translate(34.141875 146.83125)rotate(-90)scale(0.12 -0.12)">
      <defs>
       <path d="M 32.171875 -5.078125 
Q 28.375 -14.84375 24.75 -17.8125 
Q 21.140625 -20.796875 15.09375 -20.796875 
L 7.90625 -20.796875 
L 7.90625 -13.28125 
L 13.1875 -13.28125 
Q 16.890625 -13.28125 18.9375 -11.515625 
Q 21 -9.765625 23.484375 -3.21875 
L 25.09375 0.875 
L 2.984375 54.6875 
L 12.5 54.6875 
L 29.59375 11.921875 
L 46.6875 54.6875 
L 56.203125 54.6875 
z
" id="DejaVuSans-121"/>
      </defs>
      <use xlink:href="#DejaVuSans-121"/>
     </g>
    </g>
   </g>
   <g id="line2d_14">
    <path clip-path="url(#p6756226cdd)" d="M 69.218182 70.8 
L 71.985124 85.083949 
L 74.752066 98.25467 
L 77.519008 110.364828 
L 80.28595 121.465955 
L 83.052893 131.608455 
L 85.819835 140.841599 
L 88.586777 149.213528 
L 91.353719 156.771253 
L 94.120661 163.560654 
L 96.887603 169.62648 
L 99.654545 175.012349 
L 102.421488 179.76075 
L 105.18843 183.913038 
L 107.955372 187.509441 
L 110.722314 190.589055 
L 113.489256 193.189844 
L 116.256198 195.348643 
L 119.02314 197.101155 
L 121.790083 198.481953 
L 124.557025 199.52448 
L 127.323967 200.261047 
L 130.090909 200.722835 
L 132.857851 200.939895 
L 135.624793 200.941145 
L 138.391736 200.754375 
L 141.158678 200.406243 
L 143.92562 199.922276 
L 146.692562 199.326871 
L 149.459504 198.643294 
L 152.226446 197.89368 
L 154.993388 197.099035 
L 157.760331 196.279231 
L 160.527273 195.453014 
L 163.294215 194.637994 
L 166.061157 193.850655 
L 168.828099 193.106347 
L 171.595041 192.419291 
L 174.361983 191.802577 
L 177.128926 191.268164 
L 179.895868 190.82688 
L 182.66281 190.488424 
L 185.429752 190.261362 
L 188.196694 190.153131 
L 190.963636 190.170037 
L 193.730579 190.317255 
L 196.497521 190.598829 
L 199.264463 191.017673 
L 202.031405 191.575569 
L 204.798347 192.273171 
L 207.565289 193.11 
L 210.332231 194.084446 
L 213.099174 195.193771 
L 215.866116 196.434103 
L 218.633058 197.800442 
L 221.4 199.286655 
L 224.166942 200.88548 
L 226.933884 202.588525 
L 229.700826 204.386264 
L 232.467769 206.268045 
L 235.234711 208.22208 
L 238.001653 210.235455 
L 240.768595 212.294122 
L 243.535537 214.382905 
L 246.302479 216.485496 
L 249.069421 218.584455 
L 251.836364 220.661214 
L 254.603306 222.696071 
L 257.370248 224.668198 
L 260.13719 226.555631 
L 262.904132 228.33528 
L 265.671074 229.982921 
L 268.438017 231.4732 
L 271.204959 232.779634 
L 273.971901 233.874607 
L 276.738843 234.729375 
L 279.505785 235.31406 
L 282.272727 235.597656 
L 285.039669 235.548026 
L 287.806612 235.1319 
L 290.573554 234.31488 
L 293.340496 233.061436 
L 296.107438 231.334908 
L 298.87438 229.097505 
L 301.641322 226.310305 
L 304.408264 222.933255 
L 307.175207 218.925173 
L 309.942149 214.243744 
L 312.709091 208.845524 
L 315.476033 202.685938 
L 318.242975 195.71928 
L 321.009917 187.898713 
L 323.77686 179.176271 
L 326.543802 169.502854 
L 329.310744 158.828236 
L 332.077686 147.101055 
L 334.844628 134.268823 
L 337.61157 120.277918 
L 340.378512 105.073589 
L 343.145455 88.599954 
L 345.912397 70.8 
L 348.679339 51.615584 
L 351.446281 30.987432 
L 354.213223 8.855138 
L 355.363895 -1 
" style="fill:none;stroke:#0000ff;stroke-linecap:square;stroke-width:2;"/>
   </g>
   <g id="line2d_15">
    <path clip-path="url(#p6756226cdd)" d="M 69.218182 176.379608 
L 71.985124 173.079456 
L 74.752066 170.306938 
L 77.519008 168.230386 
L 80.28595 166.997702 
L 83.052893 166.719479 
L 85.819835 167.451687 
L 88.586777 169.182083 
L 91.353719 171.826195 
L 94.120661 175.236421 
L 96.887603 179.221654 
L 99.654545 183.570085 
L 102.421488 188.068729 
L 105.18843 192.5175 
L 107.955372 196.738951 
L 110.722314 200.585563 
L 113.489256 203.945725 
L 116.256198 206.748427 
L 119.02314 208.96582 
L 121.790083 210.612226 
L 124.557025 211.738199 
L 127.323967 212.419083 
L 130.090909 212.739628 
L 132.857851 212.778955 
L 135.624793 212.601206 
L 138.391736 212.254549 
L 141.158678 211.776489 
L 143.92562 211.200778 
L 146.692562 210.562176 
L 149.459504 209.897738 
L 152.226446 209.245085 
L 154.993388 208.638769 
L 157.760331 208.105914 
L 160.527273 207.662248 
L 163.294215 207.309609 
L 166.061157 207.035859 
L 168.828099 206.817802 
L 171.595041 206.627086 
L 174.361983 206.438352 
L 177.128926 206.238198 
L 179.895868 206.032918 
L 182.66281 205.852467 
L 185.429752 205.747869 
L 188.196694 205.780453 
L 190.963636 206.004745 
L 193.730579 206.451413 
L 196.497521 207.118049 
L 199.264463 207.971075 
L 202.031405 208.955648 
L 204.798347 210.007801 
L 207.565289 211.06476 
L 210.332231 212.072071 
L 213.099174 212.987736 
L 215.866116 213.784005 
L 218.633058 214.44742 
L 221.4 214.977578 
L 224.166942 215.385012 
L 226.933884 215.688611 
L 229.700826 215.912911 
L 232.467769 216.085625 
L 235.234711 216.23563 
L 238.001653 216.391554 
L 240.768595 216.580937 
L 243.535537 216.829844 
L 246.302479 217.162702 
L 249.069421 217.602104 
L 251.836364 218.168353 
L 254.603306 218.87861 
L 257.370248 219.745578 
L 260.13719 220.775848 
L 262.904132 221.968053 
L 265.671074 223.31114 
L 268.438017 224.783003 
L 271.204959 226.349742 
L 273.971901 227.965718 
L 276.738843 229.574442 
L 279.505785 231.110259 
L 282.272727 232.50067 
L 285.039669 233.669044 
L 287.806612 234.537391 
L 290.573554 235.028791 
L 293.340496 235.068897 
L 296.107438 234.585909 
L 298.87438 233.508575 
L 301.641322 231.762702 
L 304.408264 229.268547 
L 307.175207 225.943219 
L 309.942149 221.711582 
L 312.709091 216.524823 
L 315.476033 210.380905 
L 318.242975 203.339981 
L 321.009917 195.530976 
L 323.77686 187.1495 
L 326.543802 178.449404 
L 329.310744 169.730358 
L 332.077686 161.322751 
L 334.844628 153.56968 
L 337.61157 146.804832 
L 340.378512 141.325677 
L 343.145455 137.364563 
L 345.912397 135.064351 
L 348.679339 134.46606 
L 351.446281 135.511388 
L 354.213223 138.056956 
L 356.980165 141.894577 
L 359.747107 146.773126 
L 362.51405 152.419643 
L 365.280992 158.558498 
L 368.047934 164.927877 
L 370.814876 171.292926 
L 373.581818 177.4551 
" style="fill:none;stroke:#008000;stroke-dasharray:3.7,1.6;stroke-dashoffset:0;"/>
   </g>
   <g id="line2d_16">
    <path clip-path="url(#p6756226cdd)" d="M 69.218182 122.725037 
L 71.985124 123.010426 
L 74.752066 123.844799 
L 77.519008 125.236578 
L 80.28595 127.168798 
L 83.052893 129.604427 
L 85.819835 132.495621 
L 88.586777 135.793618 
L 91.353719 139.453914 
L 94.120661 143.433175 
L 96.887603 147.680031 
L 99.654545 152.126271 
L 102.421488 156.683702 
L 105.18843 161.24752 
L 107.955372 165.703702 
L 110.722314 169.937272 
L 113.489256 173.839237 
L 116.256198 177.311414 
L 119.02314 180.269599 
L 121.790083 182.646353 
L 124.557025 184.39505 
L 127.323967 185.496151 
L 130.090909 185.964781 
L 132.857851 185.856015 
L 135.624793 185.263318 
L 138.391736 184.308228 
L 141.158678 183.124045 
L 143.92562 181.83888 
L 146.692562 180.562332 
L 149.459504 179.377559 
L 152.226446 178.338539 
L 154.993388 177.471552 
L 157.760331 176.779651 
L 160.527273 176.248833 
L 163.294215 175.854503 
L 166.061157 175.566849 
L 168.828099 175.354034 
L 171.595041 175.182677 
L 174.361983 175.015849 
L 177.128926 174.809546 
L 179.895868 174.509328 
L 182.66281 174.049446 
L 185.429752 173.357127 
L 188.196694 172.363675 
L 190.963636 171.020714 
L 193.730579 169.315402 
L 196.497521 167.277128 
L 199.264463 164.972713 
L 202.031405 162.49354 
L 204.798347 159.940638 
L 207.565289 157.411998 
L 210.332231 154.993611 
L 213.099174 152.754123 
L 215.866116 150.742469 
L 218.633058 148.987867 
L 221.4 147.501622 
L 224.166942 146.28025 
L 226.933884 145.309406 
L 229.700826 144.568141 
L 232.467769 144.03304 
L 235.234711 143.681884 
L 238.001653 143.496602 
L 240.768595 143.465409 
L 243.535537 143.584149 
L 246.302479 143.856934 
L 249.069421 144.296213 
L 251.836364 144.922372 
L 254.603306 145.762882 
L 257.370248 146.850985 
L 260.13719 148.223764 
L 262.904132 149.919463 
L 265.671074 151.973911 
L 268.438017 154.415994 
L 271.204959 157.262274 
L 273.971901 160.511012 
L 276.738843 164.136068 
L 279.505785 168.081303 
L 282.272727 172.256216 
L 285.039669 176.533624 
L 287.806612 180.750141 
L 290.573554 184.710207 
L 293.340496 188.194334 
L 296.107438 190.972046 
L 298.87438 192.819581 
L 301.641322 193.54116 
L 304.408264 192.990514 
L 307.175207 191.087331 
L 309.942149 187.823729 
L 312.709091 183.260106 
L 315.476033 177.514672 
L 318.242975 170.752262 
L 321.009917 163.175214 
L 323.77686 155.015579 
L 326.543802 146.526399 
L 329.310744 137.970299 
L 332.077686 129.605497 
L 334.844628 121.67136 
L 337.61157 114.37714 
L 340.378512 107.897116 
L 343.145455 102.372174 
L 345.912397 97.913497 
L 348.679339 94.602649 
L 351.446281 92.486139 
L 354.213223 91.567701 
L 356.980165 91.803141 
L 359.747107 93.10057 
L 362.51405 95.326183 
L 365.280992 98.314186 
L 368.047934 101.879084 
L 370.814876 105.828636 
L 373.581818 109.976109 
" style="fill:none;stroke:#008000;stroke-dasharray:3.7,1.6;stroke-dashoffset:0;"/>
   </g>
   <g id="line2d_17">
    <path clip-path="url(#p6756226cdd)" d="M 69.218182 251.915068 
L 71.985124 251.963792 
L 74.752066 251.986484 
L 77.519008 251.995431 
L 80.28595 251.998482 
L 83.052893 251.99943 
L 85.819835 251.999712 
L 88.586777 251.999773 
L 91.353719 251.999705 
L 94.120661 251.999412 
L 96.887603 251.998454 
L 99.654545 251.995457 
L 102.421488 251.986857 
L 105.18843 251.965408 
L 107.955372 251.920256 
L 110.722314 251.840771 
L 113.489256 251.723492 
L 116.256198 251.577459 
L 119.02314 251.422985 
L 121.790083 251.283594 
L 124.557025 251.176133 
L 127.323967 251.105323 
L 130.090909 251.065611 
L 132.857851 251.047802 
L 135.624793 251.045055 
L 138.391736 251.054755 
L 141.158678 251.076834 
L 143.92562 251.111173 
L 146.692562 251.156018 
L 149.459504 251.207828 
L 152.226446 251.262041 
L 154.993388 251.314137 
L 157.760331 251.360549 
L 160.527273 251.399228 
L 163.294215 251.429827 
L 166.061157 251.453541 
L 168.828099 251.472625 
L 171.595041 251.489579 
L 174.361983 251.506045 
L 177.128926 251.521626 
L 179.895868 251.533 
L 182.66281 251.533655 
L 185.429752 251.51424 
L 188.196694 251.463195 
L 190.963636 251.367748 
L 193.730579 251.216235 
L 196.497521 251.002417 
L 199.264463 250.729966 
L 202.031405 250.41358 
L 204.798347 250.075295 
L 207.565289 249.738432 
L 210.332231 249.422573 
L 213.099174 249.14115 
L 215.866116 248.901274 
L 218.633058 248.704773 
L 221.4 248.54958 
L 224.166942 248.431034 
L 226.933884 248.342933 
L 229.700826 248.278318 
L 232.467769 248.230039 
L 235.234711 248.191122 
L 238.001653 248.154978 
L 240.768595 248.115479 
L 243.535537 248.06693 
L 246.302479 248.003987 
L 249.069421 247.921549 
L 251.836364 247.814675 
L 254.603306 247.678544 
L 257.370248 247.508477 
L 260.13719 247.300019 
L 262.904132 247.049075 
L 265.671074 246.752073 
L 268.438017 246.406179 
L 271.204959 246.009563 
L 273.971901 245.561807 
L 276.738843 245.064589 
L 279.505785 244.522872 
L 282.272727 243.946935 
L 285.039669 243.355617 
L 287.806612 242.781135 
L 290.573554 242.27536 
L 293.340496 241.916264 
L 296.107438 241.810794 
L 298.87438 242.086677 
L 301.641322 242.862693 
L 304.408264 244.190442 
L 307.175207 245.979984 
L 309.942149 247.958672 
L 312.709091 249.736458 
L 315.476033 250.994018 
L 318.242975 251.664135 
L 321.009917 251.920068 
L 323.77686 251.98694 
L 326.543802 251.998538 
L 329.310744 251.999881 
L 332.077686 251.999992 
L 334.844628 251.999999 
L 337.61157 252 
L 340.378512 252 
L 343.145455 252 
L 345.912397 252 
L 348.679339 252 
L 351.446281 251.999996 
L 354.213223 251.999965 
L 356.980165 251.999735 
L 359.747107 251.998463 
L 362.51405 251.993203 
L 365.280992 251.97673 
L 368.047934 251.936311 
L 370.814876 251.855632 
L 373.581818 251.719884 
" style="fill:none;stroke:#bfbf00;stroke-dasharray:7.4,3.2;stroke-dashoffset:0;stroke-width:2;"/>
   </g>
   <g id="patch_3">
    <path d="M 54 252 
L 54 34.56 
" style="fill:none;stroke:#000000;stroke-linecap:square;stroke-linejoin:miter;stroke-width:0.8;"/>
   </g>
   <g id="patch_4">
    <path d="M 388.8 252 
L 388.8 34.56 
" style="fill:none;stroke:#000000;stroke-linecap:square;stroke-linejoin:miter;stroke-width:0.8;"/>
   </g>
   <g id="patch_5">
    <path d="M 54 252 
L 388.8 252 
" style="fill:none;stroke:#000000;stroke-linecap:square;stroke-linejoin:miter;stroke-width:0.8;"/>
   </g>
   <g id="patch_6">
    <path d="M 54 34.56 
L 388.8 34.56 
" style="fill:none;stroke:#000000;stroke-linecap:square;stroke-linejoin:miter;stroke-width:0.8;"/>
   </g>
   <g id="text_16">
    <!-- Method : PI -->
    <g transform="translate(71.985124 244.752)scale(0.12 -0.12)">
     <defs>
      <path d="M 9.8125 72.90625 
L 24.515625 72.90625 
L 43.109375 23.296875 
L 61.8125 72.90625 
L 76.515625 72.90625 
L 76.515625 0 
L 66.890625 0 
L 66.890625 64.015625 
L 48.09375 14.015625 
L 38.1875 14.015625 
L 19.390625 64.015625 
L 19.390625 0 
L 9.8125 0 
z
" id="DejaVuSans-77"/>
      <path d="M 56.203125 29.59375 
L 56.203125 25.203125 
L 14.890625 25.203125 
Q 15.484375 15.921875 20.484375 11.0625 
Q 25.484375 6.203125 34.421875 6.203125 
Q 39.59375 6.203125 44.453125 7.46875 
Q 49.3125 8.734375 54.109375 11.28125 
L 54.109375 2.78125 
Q 49.265625 0.734375 44.1875 -0.34375 
Q 39.109375 -1.421875 33.890625 -1.421875 
Q 20.796875 -1.421875 13.15625 6.1875 
Q 5.515625 13.8125 5.515625 26.8125 
Q 5.515625 40.234375 12.765625 48.109375 
Q 20.015625 56 32.328125 56 
Q 43.359375 56 49.78125 48.890625 
Q 56.203125 41.796875 56.203125 29.59375 
z
M 47.21875 32.234375 
Q 47.125 39.59375 43.09375 43.984375 
Q 39.0625 48.390625 32.421875 48.390625 
Q 24.90625 48.390625 20.390625 44.140625 
Q 15.875 39.890625 15.1875 32.171875 
z
" id="DejaVuSans-101"/>
      <path d="M 18.3125 70.21875 
L 18.3125 54.6875 
L 36.8125 54.6875 
L 36.8125 47.703125 
L 18.3125 47.703125 
L 18.3125 18.015625 
Q 18.3125 11.328125 20.140625 9.421875 
Q 21.96875 7.515625 27.59375 7.515625 
L 36.8125 7.515625 
L 36.8125 0 
L 27.59375 0 
Q 17.1875 0 13.234375 3.875 
Q 9.28125 7.765625 9.28125 18.015625 
L 9.28125 47.703125 
L 2.6875 47.703125 
L 2.6875 54.6875 
L 9.28125 54.6875 
L 9.28125 70.21875 
z
" id="DejaVuSans-116"/>
      <path d="M 54.890625 33.015625 
L 54.890625 0 
L 45.90625 0 
L 45.90625 32.71875 
Q 45.90625 40.484375 42.875 44.328125 
Q 39.84375 48.1875 33.796875 48.1875 
Q 26.515625 48.1875 22.3125 43.546875 
Q 18.109375 38.921875 18.109375 30.90625 
L 18.109375 0 
L 9.078125 0 
L 9.078125 75.984375 
L 18.109375 75.984375 
L 18.109375 46.1875 
Q 21.34375 51.125 25.703125 53.5625 
Q 30.078125 56 35.796875 56 
Q 45.21875 56 50.046875 50.171875 
Q 54.890625 44.34375 54.890625 33.015625 
z
" id="DejaVuSans-104"/>
      <path d="M 30.609375 48.390625 
Q 23.390625 48.390625 19.1875 42.75 
Q 14.984375 37.109375 14.984375 27.296875 
Q 14.984375 17.484375 19.15625 11.84375 
Q 23.34375 6.203125 30.609375 6.203125 
Q 37.796875 6.203125 41.984375 11.859375 
Q 46.1875 17.53125 46.1875 27.296875 
Q 46.1875 37.015625 41.984375 42.703125 
Q 37.796875 48.390625 30.609375 48.390625 
z
M 30.609375 56 
Q 42.328125 56 49.015625 48.375 
Q 55.71875 40.765625 55.71875 27.296875 
Q 55.71875 13.875 49.015625 6.21875 
Q 42.328125 -1.421875 30.609375 -1.421875 
Q 18.84375 -1.421875 12.171875 6.21875 
Q 5.515625 13.875 5.515625 27.296875 
Q 5.515625 40.765625 12.171875 48.375 
Q 18.84375 56 30.609375 56 
z
" id="DejaVuSans-111"/>
      <path d="M 45.40625 46.390625 
L 45.40625 75.984375 
L 54.390625 75.984375 
L 54.390625 0 
L 45.40625 0 
L 45.40625 8.203125 
Q 42.578125 3.328125 38.25 0.953125 
Q 33.9375 -1.421875 27.875 -1.421875 
Q 17.96875 -1.421875 11.734375 6.484375 
Q 5.515625 14.40625 5.515625 27.296875 
Q 5.515625 40.1875 11.734375 48.09375 
Q 17.96875 56 27.875 56 
Q 33.9375 56 38.25 53.625 
Q 42.578125 51.265625 45.40625 46.390625 
z
M 14.796875 27.296875 
Q 14.796875 17.390625 18.875 11.75 
Q 22.953125 6.109375 30.078125 6.109375 
Q 37.203125 6.109375 41.296875 11.75 
Q 45.40625 17.390625 45.40625 27.296875 
Q 45.40625 37.203125 41.296875 42.84375 
Q 37.203125 48.484375 30.078125 48.484375 
Q 22.953125 48.484375 18.875 42.84375 
Q 14.796875 37.203125 14.796875 27.296875 
z
" id="DejaVuSans-100"/>
      <path id="DejaVuSans-32"/>
      <path d="M 11.71875 12.40625 
L 22.015625 12.40625 
L 22.015625 0 
L 11.71875 0 
z
M 11.71875 51.703125 
L 22.015625 51.703125 
L 22.015625 39.3125 
L 11.71875 39.3125 
z
" id="DejaVuSans-58"/>
      <path d="M 19.671875 64.796875 
L 19.671875 37.40625 
L 32.078125 37.40625 
Q 38.96875 37.40625 42.71875 40.96875 
Q 46.484375 44.53125 46.484375 51.125 
Q 46.484375 57.671875 42.71875 61.234375 
Q 38.96875 64.796875 32.078125 64.796875 
z
M 9.8125 72.90625 
L 32.078125 72.90625 
Q 44.34375 72.90625 50.609375 67.359375 
Q 56.890625 61.8125 56.890625 51.125 
Q 56.890625 40.328125 50.609375 34.8125 
Q 44.34375 29.296875 32.078125 29.296875 
L 19.671875 29.296875 
L 19.671875 0 
L 9.8125 0 
z
" id="DejaVuSans-80"/>
      <path d="M 9.8125 72.90625 
L 19.671875 72.90625 
L 19.671875 0 
L 9.8125 0 
z
" id="DejaVuSans-73"/>
     </defs>
     <use xlink:href="#DejaVuSans-77"/>
     <use x="86.279297" xlink:href="#DejaVuSans-101"/>
     <use x="147.802734" xlink:href="#DejaVuSans-116"/>
     <use x="187.011719" xlink:href="#DejaVuSans-104"/>
     <use x="250.390625" xlink:href="#DejaVuSans-111"/>
     <use x="311.572266" xlink:href="#DejaVuSans-100"/>
     <use x="375.048828" xlink:href="#DejaVuSans-32"/>
     <use x="406.835938" xlink:href="#DejaVuSans-58"/>
     <use x="440.527344" xlink:href="#DejaVuSans-32"/>
     <use x="472.314453" xlink:href="#DejaVuSans-80"/>
     <use x="532.617188" xlink:href="#DejaVuSans-73"/>
    </g>
   </g>
   <g id="text_17">
    <!-- Iter=2 -->
    <g transform="translate(71.985124 226.632)scale(0.12 -0.12)">
     <defs>
      <path d="M 41.109375 46.296875 
Q 39.59375 47.171875 37.8125 47.578125 
Q 36.03125 48 33.890625 48 
Q 26.265625 48 22.1875 43.046875 
Q 18.109375 38.09375 18.109375 28.8125 
L 18.109375 0 
L 9.078125 0 
L 9.078125 54.6875 
L 18.109375 54.6875 
L 18.109375 46.1875 
Q 20.953125 51.171875 25.484375 53.578125 
Q 30.03125 56 36.53125 56 
Q 37.453125 56 38.578125 55.875 
Q 39.703125 55.765625 41.0625 55.515625 
z
" id="DejaVuSans-114"/>
      <path d="M 10.59375 45.40625 
L 73.1875 45.40625 
L 73.1875 37.203125 
L 10.59375 37.203125 
z
M 10.59375 25.484375 
L 73.1875 25.484375 
L 73.1875 17.1875 
L 10.59375 17.1875 
z
" id="DejaVuSans-61"/>
     </defs>
     <use xlink:href="#DejaVuSans-73"/>
     <use x="29.492188" xlink:href="#DejaVuSans-116"/>
     <use x="68.701172" xlink:href="#DejaVuSans-101"/>
     <use x="130.224609" xlink:href="#DejaVuSans-114"/>
     <use x="171.337891" xlink:href="#DejaVuSans-61"/>
     <use x="255.126953" xlink:href="#DejaVuSans-50"/>
    </g>
   </g>
   <g id="text_18">
    <!-- (c) -->
    <g transform="translate(71.985124 56.304)scale(0.12 -0.12)">
     <defs>
      <path d="M 31 75.875 
Q 24.46875 64.65625 21.28125 53.65625 
Q 18.109375 42.671875 18.109375 31.390625 
Q 18.109375 20.125 21.3125 9.0625 
Q 24.515625 -2 31 -13.1875 
L 23.1875 -13.1875 
Q 15.875 -1.703125 12.234375 9.375 
Q 8.59375 20.453125 8.59375 31.390625 
Q 8.59375 42.28125 12.203125 53.3125 
Q 15.828125 64.359375 23.1875 75.875 
z
" id="DejaVuSans-40"/>
      <path d="M 48.78125 52.59375 
L 48.78125 44.1875 
Q 44.96875 46.296875 41.140625 47.34375 
Q 37.3125 48.390625 33.40625 48.390625 
Q 24.65625 48.390625 19.8125 42.84375 
Q 14.984375 37.3125 14.984375 27.296875 
Q 14.984375 17.28125 19.8125 11.734375 
Q 24.65625 6.203125 33.40625 6.203125 
Q 37.3125 6.203125 41.140625 7.25 
Q 44.96875 8.296875 48.78125 10.40625 
L 48.78125 2.09375 
Q 45.015625 0.34375 40.984375 -0.53125 
Q 36.96875 -1.421875 32.421875 -1.421875 
Q 20.0625 -1.421875 12.78125 6.34375 
Q 5.515625 14.109375 5.515625 27.296875 
Q 5.515625 40.671875 12.859375 48.328125 
Q 20.21875 56 33.015625 56 
Q 37.15625 56 41.109375 55.140625 
Q 45.0625 54.296875 48.78125 52.59375 
z
" id="DejaVuSans-99"/>
      <path d="M 8.015625 75.875 
L 15.828125 75.875 
Q 23.140625 64.359375 26.78125 53.3125 
Q 30.421875 42.28125 30.421875 31.390625 
Q 30.421875 20.453125 26.78125 9.375 
Q 23.140625 -1.703125 15.828125 -13.1875 
L 8.015625 -13.1875 
Q 14.5 -2 17.703125 9.0625 
Q 20.90625 20.125 20.90625 31.390625 
Q 20.90625 42.671875 17.703125 53.65625 
Q 14.5 64.65625 8.015625 75.875 
z
" id="DejaVuSans-41"/>
     </defs>
     <use xlink:href="#DejaVuSans-40"/>
     <use x="39.013672" xlink:href="#DejaVuSans-99"/>
     <use x="93.994141" xlink:href="#DejaVuSans-41"/>
    </g>
   </g>
   <g id="legend_1">
    <g id="patch_7">
     <path d="M 144.327812 140.235625 
L 298.472188 140.235625 
Q 300.672188 140.235625 300.672188 138.035625 
L 300.672188 42.26 
Q 300.672188 40.06 298.472188 40.06 
L 144.327812 40.06 
Q 142.127813 40.06 142.127813 42.26 
L 142.127813 138.035625 
Q 142.127813 140.235625 144.327812 140.235625 
z
" style="fill:#ffffff;opacity:0.8;stroke:#cccccc;stroke-linejoin:miter;"/>
    </g>
    <g id="line2d_18">
     <path d="M 146.527813 48.968281 
L 168.527813 48.968281 
" style="fill:none;stroke:#0000ff;stroke-linecap:square;stroke-width:2;"/>
    </g>
    <g id="line2d_19"/>
    <g id="text_19">
     <!-- ture function -->
     <g transform="translate(177.327813 52.818281)scale(0.11 -0.11)">
      <defs>
       <path d="M 8.5 21.578125 
L 8.5 54.6875 
L 17.484375 54.6875 
L 17.484375 21.921875 
Q 17.484375 14.15625 20.5 10.265625 
Q 23.53125 6.390625 29.59375 6.390625 
Q 36.859375 6.390625 41.078125 11.03125 
Q 45.3125 15.671875 45.3125 23.6875 
L 45.3125 54.6875 
L 54.296875 54.6875 
L 54.296875 0 
L 45.3125 0 
L 45.3125 8.40625 
Q 42.046875 3.421875 37.71875 1 
Q 33.40625 -1.421875 27.6875 -1.421875 
Q 18.265625 -1.421875 13.375 4.4375 
Q 8.5 10.296875 8.5 21.578125 
z
M 31.109375 56 
z
" id="DejaVuSans-117"/>
       <path d="M 37.109375 75.984375 
L 37.109375 68.5 
L 28.515625 68.5 
Q 23.6875 68.5 21.796875 66.546875 
Q 19.921875 64.59375 19.921875 59.515625 
L 19.921875 54.6875 
L 34.71875 54.6875 
L 34.71875 47.703125 
L 19.921875 47.703125 
L 19.921875 0 
L 10.890625 0 
L 10.890625 47.703125 
L 2.296875 47.703125 
L 2.296875 54.6875 
L 10.890625 54.6875 
L 10.890625 58.5 
Q 10.890625 67.625 15.140625 71.796875 
Q 19.390625 75.984375 28.609375 75.984375 
z
" id="DejaVuSans-102"/>
       <path d="M 54.890625 33.015625 
L 54.890625 0 
L 45.90625 0 
L 45.90625 32.71875 
Q 45.90625 40.484375 42.875 44.328125 
Q 39.84375 48.1875 33.796875 48.1875 
Q 26.515625 48.1875 22.3125 43.546875 
Q 18.109375 38.921875 18.109375 30.90625 
L 18.109375 0 
L 9.078125 0 
L 9.078125 54.6875 
L 18.109375 54.6875 
L 18.109375 46.1875 
Q 21.34375 51.125 25.703125 53.5625 
Q 30.078125 56 35.796875 56 
Q 45.21875 56 50.046875 50.171875 
Q 54.890625 44.34375 54.890625 33.015625 
z
" id="DejaVuSans-110"/>
       <path d="M 9.421875 54.6875 
L 18.40625 54.6875 
L 18.40625 0 
L 9.421875 0 
z
M 9.421875 75.984375 
L 18.40625 75.984375 
L 18.40625 64.59375 
L 9.421875 64.59375 
z
" id="DejaVuSans-105"/>
      </defs>
      <use xlink:href="#DejaVuSans-116"/>
      <use x="39.208984" xlink:href="#DejaVuSans-117"/>
      <use x="102.587891" xlink:href="#DejaVuSans-114"/>
      <use x="141.451172" xlink:href="#DejaVuSans-101"/>
      <use x="202.974609" xlink:href="#DejaVuSans-32"/>
      <use x="234.761719" xlink:href="#DejaVuSans-102"/>
      <use x="269.966797" xlink:href="#DejaVuSans-117"/>
      <use x="333.345703" xlink:href="#DejaVuSans-110"/>
      <use x="396.724609" xlink:href="#DejaVuSans-99"/>
      <use x="451.705078" xlink:href="#DejaVuSans-116"/>
      <use x="490.914062" xlink:href="#DejaVuSans-105"/>
      <use x="518.697266" xlink:href="#DejaVuSans-111"/>
      <use x="579.878906" xlink:href="#DejaVuSans-110"/>
     </g>
    </g>
    <g id="line2d_20">
     <path d="M 146.527813 65.114219 
L 168.527813 65.114219 
" style="fill:none;stroke:#000000;stroke-dasharray:7.4,3.2;stroke-dashoffset:0;stroke-width:2;"/>
    </g>
    <g id="line2d_21"/>
    <g id="text_20">
     <!-- predicted function -->
     <g transform="translate(177.327813 68.964219)scale(0.11 -0.11)">
      <defs>
       <path d="M 18.109375 8.203125 
L 18.109375 -20.796875 
L 9.078125 -20.796875 
L 9.078125 54.6875 
L 18.109375 54.6875 
L 18.109375 46.390625 
Q 20.953125 51.265625 25.265625 53.625 
Q 29.59375 56 35.59375 56 
Q 45.5625 56 51.78125 48.09375 
Q 58.015625 40.1875 58.015625 27.296875 
Q 58.015625 14.40625 51.78125 6.484375 
Q 45.5625 -1.421875 35.59375 -1.421875 
Q 29.59375 -1.421875 25.265625 0.953125 
Q 20.953125 3.328125 18.109375 8.203125 
z
M 48.6875 27.296875 
Q 48.6875 37.203125 44.609375 42.84375 
Q 40.53125 48.484375 33.40625 48.484375 
Q 26.265625 48.484375 22.1875 42.84375 
Q 18.109375 37.203125 18.109375 27.296875 
Q 18.109375 17.390625 22.1875 11.75 
Q 26.265625 6.109375 33.40625 6.109375 
Q 40.53125 6.109375 44.609375 11.75 
Q 48.6875 17.390625 48.6875 27.296875 
z
" id="DejaVuSans-112"/>
      </defs>
      <use xlink:href="#DejaVuSans-112"/>
      <use x="63.476562" xlink:href="#DejaVuSans-114"/>
      <use x="102.339844" xlink:href="#DejaVuSans-101"/>
      <use x="163.863281" xlink:href="#DejaVuSans-100"/>
      <use x="227.339844" xlink:href="#DejaVuSans-105"/>
      <use x="255.123047" xlink:href="#DejaVuSans-99"/>
      <use x="310.103516" xlink:href="#DejaVuSans-116"/>
      <use x="349.3125" xlink:href="#DejaVuSans-101"/>
      <use x="410.835938" xlink:href="#DejaVuSans-100"/>
      <use x="474.3125" xlink:href="#DejaVuSans-32"/>
      <use x="506.099609" xlink:href="#DejaVuSans-102"/>
      <use x="541.304688" xlink:href="#DejaVuSans-117"/>
      <use x="604.683594" xlink:href="#DejaVuSans-110"/>
      <use x="668.0625" xlink:href="#DejaVuSans-99"/>
      <use x="723.042969" xlink:href="#DejaVuSans-116"/>
      <use x="762.251953" xlink:href="#DejaVuSans-105"/>
      <use x="790.035156" xlink:href="#DejaVuSans-111"/>
      <use x="851.216797" xlink:href="#DejaVuSans-110"/>
     </g>
    </g>
    <g id="line2d_22">
     <path d="M 146.527813 81.260156 
L 168.527813 81.260156 
" style="fill:none;stroke:#008000;stroke-dasharray:3.7,1.6;stroke-dashoffset:0;"/>
    </g>
    <g id="line2d_23"/>
    <g id="text_21">
     <!--  ± Sn(x) -->
     <g transform="translate(177.327813 85.110156)scale(0.11 -0.11)">
      <defs>
       <path d="M 46 62.703125 
L 46 43.796875 
L 73.1875 43.796875 
L 73.1875 35.5 
L 46 35.5 
L 46 16.609375 
L 37.796875 16.609375 
L 37.796875 35.5 
L 10.59375 35.5 
L 10.59375 43.796875 
L 37.796875 43.796875 
L 37.796875 62.703125 
z
M 10.59375 8.296875 
L 73.1875 8.296875 
L 73.1875 0 
L 10.59375 0 
z
" id="DejaVuSans-177"/>
       <path d="M 53.515625 70.515625 
L 53.515625 60.890625 
Q 47.90625 63.578125 42.921875 64.890625 
Q 37.9375 66.21875 33.296875 66.21875 
Q 25.25 66.21875 20.875 63.09375 
Q 16.5 59.96875 16.5 54.203125 
Q 16.5 49.359375 19.40625 46.890625 
Q 22.3125 44.4375 30.421875 42.921875 
L 36.375 41.703125 
Q 47.40625 39.59375 52.65625 34.296875 
Q 57.90625 29 57.90625 20.125 
Q 57.90625 9.515625 50.796875 4.046875 
Q 43.703125 -1.421875 29.984375 -1.421875 
Q 24.8125 -1.421875 18.96875 -0.25 
Q 13.140625 0.921875 6.890625 3.21875 
L 6.890625 13.375 
Q 12.890625 10.015625 18.65625 8.296875 
Q 24.421875 6.59375 29.984375 6.59375 
Q 38.421875 6.59375 43.015625 9.90625 
Q 47.609375 13.234375 47.609375 19.390625 
Q 47.609375 24.75 44.3125 27.78125 
Q 41.015625 30.8125 33.5 32.328125 
L 27.484375 33.5 
Q 16.453125 35.6875 11.515625 40.375 
Q 6.59375 45.0625 6.59375 53.421875 
Q 6.59375 63.09375 13.40625 68.65625 
Q 20.21875 74.21875 32.171875 74.21875 
Q 37.3125 74.21875 42.625 73.28125 
Q 47.953125 72.359375 53.515625 70.515625 
z
" id="DejaVuSans-83"/>
      </defs>
      <use xlink:href="#DejaVuSans-32"/>
      <use x="31.787109" xlink:href="#DejaVuSans-177"/>
      <use x="115.576172" xlink:href="#DejaVuSans-32"/>
      <use x="147.363281" xlink:href="#DejaVuSans-83"/>
      <use x="210.839844" xlink:href="#DejaVuSans-110"/>
      <use x="274.21875" xlink:href="#DejaVuSans-40"/>
      <use x="313.232422" xlink:href="#DejaVuSans-120"/>
      <use x="372.412109" xlink:href="#DejaVuSans-41"/>
     </g>
    </g>
    <g id="line2d_24">
     <path d="M 146.527813 97.406094 
L 168.527813 97.406094 
" style="fill:none;stroke:#bfbf00;stroke-dasharray:7.4,3.2;stroke-dashoffset:0;stroke-width:2;"/>
    </g>
    <g id="line2d_25"/>
    <g id="text_22">
     <!-- PI(x) -->
     <g transform="translate(177.327813 101.256094)scale(0.11 -0.11)">
      <use xlink:href="#DejaVuSans-80"/>
      <use x="60.302734" xlink:href="#DejaVuSans-73"/>
      <use x="89.794922" xlink:href="#DejaVuSans-40"/>
      <use x="128.808594" xlink:href="#DejaVuSans-120"/>
      <use x="187.988281" xlink:href="#DejaVuSans-41"/>
     </g>
    </g>
    <g id="PathCollection_2">
     <defs>
      <path d="M 0 3.535534 
C 0.937635 3.535534 1.836992 3.163008 2.5 2.5 
C 3.163008 1.836992 3.535534 0.937635 3.535534 0 
C 3.535534 -0.937635 3.163008 -1.836992 2.5 -2.5 
C 1.836992 -3.163008 0.937635 -3.535534 0 -3.535534 
C -0.937635 -3.535534 -1.836992 -3.163008 -2.5 -2.5 
C -3.163008 -1.836992 -3.535534 -0.937635 -3.535534 0 
C -3.535534 0.937635 -3.163008 1.836992 -2.5 2.5 
C -1.836992 3.163008 -0.937635 3.535534 0 3.535534 
z
" id="m27f2391925" style="stroke:#000000;"/>
     </defs>
     <g>
      <use style="fill:#ff0000;stroke:#000000;" x="157.527813" xlink:href="#m27f2391925" y="114.514531"/>
     </g>
    </g>
    <g id="text_23">
     <!-- training data -->
     <g transform="translate(177.327813 117.402031)scale(0.11 -0.11)">
      <defs>
       <path d="M 34.28125 27.484375 
Q 23.390625 27.484375 19.1875 25 
Q 14.984375 22.515625 14.984375 16.5 
Q 14.984375 11.71875 18.140625 8.90625 
Q 21.296875 6.109375 26.703125 6.109375 
Q 34.1875 6.109375 38.703125 11.40625 
Q 43.21875 16.703125 43.21875 25.484375 
L 43.21875 27.484375 
z
M 52.203125 31.203125 
L 52.203125 0 
L 43.21875 0 
L 43.21875 8.296875 
Q 40.140625 3.328125 35.546875 0.953125 
Q 30.953125 -1.421875 24.3125 -1.421875 
Q 15.921875 -1.421875 10.953125 3.296875 
Q 6 8.015625 6 15.921875 
Q 6 25.140625 12.171875 29.828125 
Q 18.359375 34.515625 30.609375 34.515625 
L 43.21875 34.515625 
L 43.21875 35.40625 
Q 43.21875 41.609375 39.140625 45 
Q 35.0625 48.390625 27.6875 48.390625 
Q 23 48.390625 18.546875 47.265625 
Q 14.109375 46.140625 10.015625 43.890625 
L 10.015625 52.203125 
Q 14.9375 54.109375 19.578125 55.046875 
Q 24.21875 56 28.609375 56 
Q 40.484375 56 46.34375 49.84375 
Q 52.203125 43.703125 52.203125 31.203125 
z
" id="DejaVuSans-97"/>
       <path d="M 45.40625 27.984375 
Q 45.40625 37.75 41.375 43.109375 
Q 37.359375 48.484375 30.078125 48.484375 
Q 22.859375 48.484375 18.828125 43.109375 
Q 14.796875 37.75 14.796875 27.984375 
Q 14.796875 18.265625 18.828125 12.890625 
Q 22.859375 7.515625 30.078125 7.515625 
Q 37.359375 7.515625 41.375 12.890625 
Q 45.40625 18.265625 45.40625 27.984375 
z
M 54.390625 6.78125 
Q 54.390625 -7.171875 48.1875 -13.984375 
Q 42 -20.796875 29.203125 -20.796875 
Q 24.46875 -20.796875 20.265625 -20.09375 
Q 16.0625 -19.390625 12.109375 -17.921875 
L 12.109375 -9.1875 
Q 16.0625 -11.328125 19.921875 -12.34375 
Q 23.78125 -13.375 27.78125 -13.375 
Q 36.625 -13.375 41.015625 -8.765625 
Q 45.40625 -4.15625 45.40625 5.171875 
L 45.40625 9.625 
Q 42.625 4.78125 38.28125 2.390625 
Q 33.9375 0 27.875 0 
Q 17.828125 0 11.671875 7.65625 
Q 5.515625 15.328125 5.515625 27.984375 
Q 5.515625 40.671875 11.671875 48.328125 
Q 17.828125 56 27.875 56 
Q 33.9375 56 38.28125 53.609375 
Q 42.625 51.21875 45.40625 46.390625 
L 45.40625 54.6875 
L 54.390625 54.6875 
z
" id="DejaVuSans-103"/>
      </defs>
      <use xlink:href="#DejaVuSans-116"/>
      <use x="39.208984" xlink:href="#DejaVuSans-114"/>
      <use x="80.322266" xlink:href="#DejaVuSans-97"/>
      <use x="141.601562" xlink:href="#DejaVuSans-105"/>
      <use x="169.384766" xlink:href="#DejaVuSans-110"/>
      <use x="232.763672" xlink:href="#DejaVuSans-105"/>
      <use x="260.546875" xlink:href="#DejaVuSans-110"/>
      <use x="323.925781" xlink:href="#DejaVuSans-103"/>
      <use x="387.402344" xlink:href="#DejaVuSans-32"/>
      <use x="419.189453" xlink:href="#DejaVuSans-100"/>
      <use x="482.666016" xlink:href="#DejaVuSans-97"/>
      <use x="543.945312" xlink:href="#DejaVuSans-116"/>
      <use x="583.154297" xlink:href="#DejaVuSans-97"/>
     </g>
    </g>
    <g id="PathCollection_3">
     <g>
      <use style="fill:#ff0000;stroke:#ff0000;stroke-width:8;" x="157.527813" xlink:href="#m0b4fc0d8e8" y="130.660469"/>
     </g>
    </g>
    <g id="text_24">
     <!-- recommended datum -->
     <g transform="translate(177.327813 133.547969)scale(0.11 -0.11)">
      <defs>
       <path d="M 52 44.1875 
Q 55.375 50.25 60.0625 53.125 
Q 64.75 56 71.09375 56 
Q 79.640625 56 84.28125 50.015625 
Q 88.921875 44.046875 88.921875 33.015625 
L 88.921875 0 
L 79.890625 0 
L 79.890625 32.71875 
Q 79.890625 40.578125 77.09375 44.375 
Q 74.3125 48.1875 68.609375 48.1875 
Q 61.625 48.1875 57.5625 43.546875 
Q 53.515625 38.921875 53.515625 30.90625 
L 53.515625 0 
L 44.484375 0 
L 44.484375 32.71875 
Q 44.484375 40.625 41.703125 44.40625 
Q 38.921875 48.1875 33.109375 48.1875 
Q 26.21875 48.1875 22.15625 43.53125 
Q 18.109375 38.875 18.109375 30.90625 
L 18.109375 0 
L 9.078125 0 
L 9.078125 54.6875 
L 18.109375 54.6875 
L 18.109375 46.1875 
Q 21.1875 51.21875 25.484375 53.609375 
Q 29.78125 56 35.6875 56 
Q 41.65625 56 45.828125 52.96875 
Q 50 49.953125 52 44.1875 
z
" id="DejaVuSans-109"/>
      </defs>
      <use xlink:href="#DejaVuSans-114"/>
      <use x="38.863281" xlink:href="#DejaVuSans-101"/>
      <use x="100.386719" xlink:href="#DejaVuSans-99"/>
      <use x="155.367188" xlink:href="#DejaVuSans-111"/>
      <use x="216.548828" xlink:href="#DejaVuSans-109"/>
      <use x="313.960938" xlink:href="#DejaVuSans-109"/>
      <use x="411.373047" xlink:href="#DejaVuSans-101"/>
      <use x="472.896484" xlink:href="#DejaVuSans-110"/>
      <use x="536.275391" xlink:href="#DejaVuSans-100"/>
      <use x="599.751953" xlink:href="#DejaVuSans-101"/>
      <use x="661.275391" xlink:href="#DejaVuSans-100"/>
      <use x="724.751953" xlink:href="#DejaVuSans-32"/>
      <use x="756.539062" xlink:href="#DejaVuSans-100"/>
      <use x="820.015625" xlink:href="#DejaVuSans-97"/>
      <use x="881.294922" xlink:href="#DejaVuSans-116"/>
      <use x="920.503906" xlink:href="#DejaVuSans-117"/>
      <use x="983.882812" xlink:href="#DejaVuSans-109"/>
     </g>
    </g>
   </g>
   <g id="line2d_26">
    <path clip-path="url(#p6756226cdd)" d="M 69.218182 149.552323 
L 71.985124 148.044941 
L 74.752066 147.075868 
L 77.519008 146.733482 
L 80.28595 147.08325 
L 83.052893 148.161953 
L 85.819835 149.973654 
L 88.586777 152.487851 
L 91.353719 155.640055 
L 94.120661 159.334798 
L 96.887603 163.450842 
L 99.654545 167.848178 
L 102.421488 172.376216 
L 105.18843 176.88251 
L 107.955372 181.221326 
L 110.722314 185.261418 
L 113.489256 188.892481 
L 116.256198 192.029921 
L 119.02314 194.61771 
L 121.790083 196.62929 
L 124.557025 198.066624 
L 127.323967 198.957617 
L 130.090909 199.352205 
L 132.857851 199.317485 
L 135.624793 198.932262 
L 138.391736 198.281388 
L 141.158678 197.450267 
L 143.92562 196.519829 
L 146.692562 195.562254 
L 149.459504 194.637648 
L 152.226446 193.791812 
L 154.993388 193.055161 
L 157.760331 192.442782 
L 160.527273 191.95554 
L 163.294215 191.582056 
L 166.061157 191.301354 
L 168.828099 191.085918 
L 171.595041 190.904882 
L 174.361983 190.727101 
L 177.128926 190.523872 
L 179.895868 190.271123 
L 182.66281 189.950957 
L 185.429752 189.552498 
L 188.196694 189.072064 
L 190.963636 188.512729 
L 193.730579 187.883407 
L 196.497521 187.197589 
L 199.264463 186.471894 
L 202.031405 185.724594 
L 204.798347 184.97422 
L 207.565289 184.238379 
L 210.332231 183.532841 
L 213.099174 182.87093 
L 215.866116 182.263237 
L 218.633058 181.717644 
L 221.4 181.2396 
L 224.166942 180.832631 
L 226.933884 180.499008 
L 229.700826 180.240526 
L 232.467769 180.059332 
L 235.234711 179.958757 
L 238.001653 179.944078 
L 240.768595 180.023173 
L 243.535537 180.206996 
L 246.302479 180.509818 
L 249.069421 180.949159 
L 251.836364 181.545362 
L 254.603306 182.320746 
L 257.370248 183.298282 
L 260.13719 184.499806 
L 262.904132 185.943758 
L 265.671074 187.642526 
L 268.438017 189.599498 
L 271.204959 191.806008 
L 273.971901 194.238365 
L 276.738843 196.855255 
L 279.505785 199.595781 
L 282.272727 202.378443 
L 285.039669 205.101334 
L 287.806612 207.643766 
L 290.573554 209.869499 
L 293.340496 211.631615 
L 296.107438 212.778978 
L 298.87438 213.164078 
L 301.641322 212.651931 
L 304.408264 211.12953 
L 307.175207 208.515275 
L 309.942149 204.767655 
L 312.709091 199.892464 
L 315.476033 193.947788 
L 318.242975 187.046122 
L 321.009917 179.353095 
L 323.77686 171.08254 
L 326.543802 162.487901 
L 329.310744 153.850328 
L 332.077686 145.464124 
L 334.844628 137.62052 
L 337.61157 130.590986 
L 340.378512 124.611397 
L 343.145455 119.868369 
L 345.912397 116.488924 
L 348.679339 114.534354 
L 351.446281 113.998764 
L 354.213223 114.812329 
L 356.980165 116.848859 
L 359.747107 119.936848 
L 362.51405 123.872913 
L 365.280992 128.436342 
L 368.047934 133.403481 
L 370.814876 138.560781 
L 373.581818 143.715605 
" style="fill:none;stroke:#000000;stroke-dasharray:7.4,3.2;stroke-dashoffset:0;stroke-width:2;"/>
   </g>
   <g id="PathCollection_4">
    <g clip-path="url(#p6756226cdd)">
     <use style="fill:#ff0000;stroke:#000000;" x="83.052893" xlink:href="#m27f2391925" y="129.399309"/>
     <use style="fill:#ff0000;stroke:#000000;" x="96.887603" xlink:href="#m27f2391925" y="162.429541"/>
     <use style="fill:#ff0000;stroke:#000000;" x="110.722314" xlink:href="#m27f2391925" y="193.170209"/>
     <use style="fill:#ff0000;stroke:#000000;" x="124.557025" xlink:href="#m27f2391925" y="199.248575"/>
     <use style="fill:#ff0000;stroke:#000000;" x="138.391736" xlink:href="#m27f2391925" y="199.347548"/>
     <use style="fill:#ff0000;stroke:#000000;" x="152.226446" xlink:href="#m27f2391925" y="191.611971"/>
     <use style="fill:#ff0000;stroke:#000000;" x="166.061157" xlink:href="#m27f2391925" y="193.66847"/>
     <use style="fill:#ff0000;stroke:#000000;" x="179.895868" xlink:href="#m27f2391925" y="193.283098"/>
     <use style="fill:#ff0000;stroke:#000000;" x="193.730579" xlink:href="#m27f2391925" y="188.924027"/>
     <use style="fill:#ff0000;stroke:#000000;" x="318.242975" xlink:href="#m27f2391925" y="199.289596"/>
     <use style="fill:#ff0000;stroke:#000000;" x="332.077686" xlink:href="#m27f2391925" y="145.37007"/>
     <use style="fill:#ff0000;stroke:#000000;" x="345.912397" xlink:href="#m27f2391925" y="78.407322"/>
     <use style="fill:#ff0000;stroke:#000000;" x="130.090909" xlink:href="#m27f2391925" y="204.643803"/>
     <use style="fill:#ff0000;stroke:#000000;" x="301.641322" xlink:href="#m27f2391925" y="225.41395"/>
    </g>
   </g>
  </g>
 </g>
 <defs>
  <clipPath id="p6756226cdd">
   <rect height="217.44" width="334.8" x="54" y="34.56"/>
  </clipPath>
 </defs>
</svg>
