<?xml version="1.0" encoding="utf-8" standalone="no"?>
<!DOCTYPE svg PUBLIC "-//W3C//DTD SVG 1.1//EN"
  "http://www.w3.org/Graphics/SVG/1.1/DTD/svg11.dtd">
<svg height="288pt" version="1.1" viewBox="0 0 432 288" width="432pt" xmlns="http://www.w3.org/2000/svg" xmlns:xlink="http://www.w3.org/1999/xlink">
 <metadata>
  <rdf:RDF xmlns:cc="http://creativecommons.org/ns#" xmlns:dc="http://purl.org/dc/elements/1.1/" xmlns:rdf="http://www.w3.org/1999/02/22-rdf-syntax-ns#">
   <cc:Work>
    <dc:type rdf:resource="http://purl.org/dc/dcmitype/StillImage"/>
    <dc:date>2022-08-20T14:25:33.176577</dc:date>
    <dc:format>image/svg+xml</dc:format>
    <dc:creator>
     <cc:Agent>
      <dc:title>Matplotlib v3.4.3, https://matplotlib.org/</dc:title>
     </cc:Agent>
    </dc:creator>
   </cc:Work>
  </rdf:RDF>
 </metadata>
 <defs>
  <style type="text/css">*{stroke-linecap:butt;stroke-linejoin:round;}</style>
 </defs>
 <g id="figure_1">
  <g id="patch_1">
   <path d="M 0 288 
L 432 288 
L 432 0 
L 0 0 
z
" style="fill:none;"/>
  </g>
  <g id="axes_1">
   <g id="patch_2">
    <path d="M 54 252 
L 388.8 252 
L 388.8 34.56 
L 54 34.56 
z
" style="fill:#ffffff;"/>
   </g>
   <g id="PolyCollection_1">
    <defs>
     <path d="M 69.218182 -174.732356 
L 69.218182 -130.172425 
L 71.985124 -135.299723 
L 74.752066 -139.496087 
L 77.519008 -142.38124 
L 80.28595 -143.5933 
L 83.052893 -142.856347 
L 85.819835 -140.112858 
L 88.586777 -135.634494 
L 91.353719 -129.942335 
L 94.120661 -123.610967 
L 96.887603 -117.151739 
L 99.654545 -110.984142 
L 102.421488 -105.428824 
L 105.18843 -100.687044 
L 107.955372 -96.750092 
L 110.722314 -92.865255 
L 113.489256 -87.795624 
L 116.256198 -82.941119 
L 119.02314 -79.164823 
L 121.790083 -76.654008 
L 124.557025 -75.405617 
L 127.323967 -75.308406 
L 130.090909 -76.169289 
L 132.857851 -77.734597 
L 135.624793 -79.714725 
L 138.391736 -81.815773 
L 141.158678 -83.781196 
L 143.92562 -85.439565 
L 146.692562 -86.737257 
L 149.459504 -87.729291 
L 152.226446 -88.531437 
L 154.993388 -89.26543 
L 157.760331 -90.016428 
L 160.527273 -90.790835 
L 163.294215 -91.431024 
L 166.061157 -91.478318 
L 168.828099 -90.567988 
L 171.595041 -89.15386 
L 174.361983 -87.814401 
L 177.128926 -86.883438 
L 179.895868 -86.543134 
L 182.66281 -86.867682 
L 185.429752 -87.816143 
L 188.196694 -89.194263 
L 190.963636 -90.600414 
L 193.730579 -91.469389 
L 196.497521 -91.404483 
L 199.264463 -90.462496 
L 202.031405 -88.948178 
L 204.798347 -87.156913 
L 207.565289 -85.311404 
L 210.332231 -83.569663 
L 213.099174 -82.036795 
L 215.866116 -80.772767 
L 218.633058 -79.799005 
L 221.4 -79.105809 
L 224.166942 -78.660879 
L 226.933884 -78.418327 
L 229.700826 -78.327143 
L 232.467769 -78.338155 
L 235.234711 -78.408799 
L 238.001653 -78.505526 
L 240.768595 -78.604062 
L 243.535537 -78.688068 
L 246.302479 -78.746881 
L 249.069421 -78.772906 
L 251.836364 -78.759111 
L 254.603306 -78.696857 
L 257.370248 -78.574185 
L 260.13719 -78.374647 
L 262.904132 -78.076756 
L 265.671074 -77.654265 
L 268.438017 -77.077479 
L 271.204959 -76.315861 
L 273.971901 -75.34206 
L 276.738843 -74.137293 
L 279.505785 -72.697697 
L 282.272727 -71.04098 
L 285.039669 -69.21247 
L 287.806612 -67.28964 
L 290.573554 -65.384323 
L 293.340496 -63.642098 
L 296.107438 -62.238643 
L 298.87438 -61.373056 
L 301.641322 -61.258264 
L 304.408264 -62.108481 
L 307.175207 -64.12303 
L 309.942149 -67.463694 
L 312.709091 -72.215509 
L 315.476033 -78.298045 
L 318.242975 -85.310548 
L 321.009917 -92.941585 
L 323.77686 -101.864663 
L 326.543802 -112.588612 
L 329.310744 -124.946986 
L 332.077686 -138.419398 
L 334.844628 -152.313351 
L 337.61157 -165.845115 
L 340.378512 -178.172931 
L 343.145455 -188.420545 
L 345.912397 -195.787796 
L 348.679339 -199.778207 
L 351.446281 -200.305125 
L 354.213223 -197.58829 
L 356.980165 -192.038188 
L 359.747107 -184.191059 
L 362.51405 -174.658002 
L 365.280992 -164.072659 
L 368.047934 -153.040749 
L 370.814876 -142.097885 
L 373.581818 -131.680166 
L 373.581818 -195.354045 
L 373.581818 -195.354045 
L 370.814876 -202.386719 
L 368.047934 -209.162963 
L 365.280992 -215.277999 
L 362.51405 -220.305086 
L 359.747107 -223.83022 
L 356.980165 -225.491231 
L 354.213223 -225.018257 
L 351.446281 -222.272027 
L 348.679339 -217.27199 
L 345.912397 -210.188007 
L 343.145455 -201.250413 
L 340.378512 -190.636369 
L 337.61157 -178.529557 
L 334.844628 -165.269639 
L 332.077686 -151.361826 
L 329.310744 -137.388312 
L 326.543802 -123.931243 
L 323.77686 -111.557506 
L 321.009917 -100.928405 
L 318.242975 -93.078927 
L 315.476033 -88.897046 
L 312.709091 -87.993782 
L 309.942149 -89.642688 
L 307.175207 -93.249798 
L 304.408264 -98.266869 
L 301.641322 -104.170323 
L 298.87438 -110.482432 
L 296.107438 -116.796996 
L 293.340496 -122.79692 
L 290.573554 -128.260484 
L 287.806612 -133.057008 
L 285.039669 -137.134428 
L 282.272727 -140.502111 
L 279.505785 -143.212155 
L 276.738843 -145.341893 
L 273.971901 -146.979391 
L 271.204959 -148.212778 
L 268.438017 -149.123349 
L 265.671074 -149.781848 
L 262.904132 -150.247073 
L 260.13719 -150.565949 
L 257.370248 -150.774378 
L 254.603306 -150.898381 
L 251.836364 -150.955191 
L 249.069421 -150.954085 
L 246.302479 -150.896822 
L 243.535537 -150.777596 
L 240.768595 -150.582503 
L 238.001653 -150.288639 
L 235.234711 -149.863107 
L 232.467769 -149.262416 
L 229.700826 -148.432876 
L 226.933884 -147.312652 
L 224.166942 -145.835959 
L 221.4 -143.939547 
L 218.633058 -141.571169 
L 215.866116 -138.699282 
L 213.099174 -135.322934 
L 210.332231 -131.480814 
L 207.565289 -127.258856 
L 204.798347 -122.796785 
L 202.031405 -118.295636 
L 199.264463 -114.029111 
L 196.497521 -110.350896 
L 193.730579 -107.630248 
L 190.963636 -105.992871 
L 188.196694 -105.112597 
L 185.429752 -104.49242 
L 182.66281 -103.791398 
L 179.895868 -102.862296 
L 177.128926 -101.690984 
L 174.361983 -100.352153 
L 171.595041 -98.997567 
L 168.828099 -97.89767 
L 166.061157 -97.535811 
L 163.294215 -98.243933 
L 160.527273 -99.517213 
L 157.760331 -100.750144 
L 154.993388 -101.644824 
L 152.226446 -102.08769 
L 149.459504 -102.077133 
L 146.692562 -101.692248 
L 143.92562 -101.058474 
L 141.158678 -100.297863 
L 138.391736 -99.482995 
L 135.624793 -98.626354 
L 132.857851 -97.708213 
L 130.090909 -96.716015 
L 127.323967 -95.673697 
L 124.557025 -94.656696 
L 121.790083 -93.795643 
L 119.02314 -93.272816 
L 116.256198 -93.321222 
L 113.489256 -94.279241 
L 110.722314 -97.051346 
L 107.955372 -102.95056 
L 105.18843 -110.515637 
L 102.421488 -118.634965 
L 99.654545 -126.82254 
L 96.887603 -134.71301 
L 94.120661 -142.010901 
L 91.353719 -148.516826 
L 88.586777 -154.169228 
L 85.819835 -159.061077 
L 83.052893 -163.35992 
L 80.28595 -167.136234 
L 77.519008 -170.292975 
L 74.752066 -172.6703 
L 71.985124 -174.158015 
L 69.218182 -174.732356 
z
" id="m361dbeef74" style="stroke:#add8e6;stroke-opacity:0.2;"/>
    </defs>
    <g clip-path="url(#p6638a9b982)">
     <use style="fill:#add8e6;fill-opacity:0.2;stroke:#add8e6;stroke-opacity:0.2;" x="0" xlink:href="#m361dbeef74" y="288"/>
    </g>
   </g>
   <g id="PathCollection_1">
    <defs>
     <path d="M 0 0.612372 
C 0.162403 0.612372 0.318176 0.547849 0.433013 0.433013 
C 0.547849 0.318176 0.612372 0.162403 0.612372 0 
C 0.612372 -0.162403 0.547849 -0.318176 0.433013 -0.433013 
C 0.318176 -0.547849 0.162403 -0.612372 0 -0.612372 
C -0.162403 -0.612372 -0.318176 -0.547849 -0.433013 -0.433013 
C -0.547849 -0.318176 -0.612372 -0.162403 -0.612372 0 
C -0.612372 0.162403 -0.547849 0.318176 -0.433013 0.433013 
C -0.318176 0.547849 -0.162403 0.612372 0 0.612372 
z
" id="m5054f2f80a" style="stroke:#ff0000;stroke-width:8;"/>
    </defs>
    <g clip-path="url(#p6638a9b982)">
     <use style="fill:#ff0000;stroke:#ff0000;stroke-width:8;" x="304.408264" xlink:href="#m5054f2f80a" y="153.091628"/>
    </g>
   </g>
   <g id="matplotlib.axis_1">
    <g id="xtick_1">
     <g id="line2d_1">
      <defs>
       <path d="M 0 0 
L 0 3.5 
" id="m02f2a171ab" style="stroke:#000000;stroke-width:0.8;"/>
      </defs>
      <g>
       <use style="stroke:#000000;stroke-width:0.8;" x="69.218182" xlink:href="#m02f2a171ab" y="252"/>
      </g>
     </g>
     <g id="text_1">
      <!-- 0 -->
      <g transform="translate(66.036932 266.598437)scale(0.1 -0.1)">
       <defs>
        <path d="M 2034 4250 
Q 1547 4250 1301 3770 
Q 1056 3291 1056 2328 
Q 1056 1369 1301 889 
Q 1547 409 2034 409 
Q 2525 409 2770 889 
Q 3016 1369 3016 2328 
Q 3016 3291 2770 3770 
Q 2525 4250 2034 4250 
z
M 2034 4750 
Q 2819 4750 3233 4129 
Q 3647 3509 3647 2328 
Q 3647 1150 3233 529 
Q 2819 -91 2034 -91 
Q 1250 -91 836 529 
Q 422 1150 422 2328 
Q 422 3509 836 4129 
Q 1250 4750 2034 4750 
z
" id="DejaVuSans-30" transform="scale(0.015625)"/>
       </defs>
       <use xlink:href="#DejaVuSans-30"/>
      </g>
     </g>
    </g>
    <g id="xtick_2">
     <g id="line2d_2">
      <g>
       <use style="stroke:#000000;stroke-width:0.8;" x="124.557025" xlink:href="#m02f2a171ab" y="252"/>
      </g>
     </g>
     <g id="text_2">
      <!-- 2 -->
      <g transform="translate(121.375775 266.598437)scale(0.1 -0.1)">
       <defs>
        <path d="M 1228 531 
L 3431 531 
L 3431 0 
L 469 0 
L 469 531 
Q 828 903 1448 1529 
Q 2069 2156 2228 2338 
Q 2531 2678 2651 2914 
Q 2772 3150 2772 3378 
Q 2772 3750 2511 3984 
Q 2250 4219 1831 4219 
Q 1534 4219 1204 4116 
Q 875 4013 500 3803 
L 500 4441 
Q 881 4594 1212 4672 
Q 1544 4750 1819 4750 
Q 2544 4750 2975 4387 
Q 3406 4025 3406 3419 
Q 3406 3131 3298 2873 
Q 3191 2616 2906 2266 
Q 2828 2175 2409 1742 
Q 1991 1309 1228 531 
z
" id="DejaVuSans-32" transform="scale(0.015625)"/>
       </defs>
       <use xlink:href="#DejaVuSans-32"/>
      </g>
     </g>
    </g>
    <g id="xtick_3">
     <g id="line2d_3">
      <g>
       <use style="stroke:#000000;stroke-width:0.8;" x="179.895868" xlink:href="#m02f2a171ab" y="252"/>
      </g>
     </g>
     <g id="text_3">
      <!-- 4 -->
      <g transform="translate(176.714618 266.598437)scale(0.1 -0.1)">
       <defs>
        <path d="M 2419 4116 
L 825 1625 
L 2419 1625 
L 2419 4116 
z
M 2253 4666 
L 3047 4666 
L 3047 1625 
L 3713 1625 
L 3713 1100 
L 3047 1100 
L 3047 0 
L 2419 0 
L 2419 1100 
L 313 1100 
L 313 1709 
L 2253 4666 
z
" id="DejaVuSans-34" transform="scale(0.015625)"/>
       </defs>
       <use xlink:href="#DejaVuSans-34"/>
      </g>
     </g>
    </g>
    <g id="xtick_4">
     <g id="line2d_4">
      <g>
       <use style="stroke:#000000;stroke-width:0.8;" x="235.234711" xlink:href="#m02f2a171ab" y="252"/>
      </g>
     </g>
     <g id="text_4">
      <!-- 6 -->
      <g transform="translate(232.053461 266.598437)scale(0.1 -0.1)">
       <defs>
        <path d="M 2113 2584 
Q 1688 2584 1439 2293 
Q 1191 2003 1191 1497 
Q 1191 994 1439 701 
Q 1688 409 2113 409 
Q 2538 409 2786 701 
Q 3034 994 3034 1497 
Q 3034 2003 2786 2293 
Q 2538 2584 2113 2584 
z
M 3366 4563 
L 3366 3988 
Q 3128 4100 2886 4159 
Q 2644 4219 2406 4219 
Q 1781 4219 1451 3797 
Q 1122 3375 1075 2522 
Q 1259 2794 1537 2939 
Q 1816 3084 2150 3084 
Q 2853 3084 3261 2657 
Q 3669 2231 3669 1497 
Q 3669 778 3244 343 
Q 2819 -91 2113 -91 
Q 1303 -91 875 529 
Q 447 1150 447 2328 
Q 447 3434 972 4092 
Q 1497 4750 2381 4750 
Q 2619 4750 2861 4703 
Q 3103 4656 3366 4563 
z
" id="DejaVuSans-36" transform="scale(0.015625)"/>
       </defs>
       <use xlink:href="#DejaVuSans-36"/>
      </g>
     </g>
    </g>
    <g id="xtick_5">
     <g id="line2d_5">
      <g>
       <use style="stroke:#000000;stroke-width:0.8;" x="290.573554" xlink:href="#m02f2a171ab" y="252"/>
      </g>
     </g>
     <g id="text_5">
      <!-- 8 -->
      <g transform="translate(287.392304 266.598437)scale(0.1 -0.1)">
       <defs>
        <path d="M 2034 2216 
Q 1584 2216 1326 1975 
Q 1069 1734 1069 1313 
Q 1069 891 1326 650 
Q 1584 409 2034 409 
Q 2484 409 2743 651 
Q 3003 894 3003 1313 
Q 3003 1734 2745 1975 
Q 2488 2216 2034 2216 
z
M 1403 2484 
Q 997 2584 770 2862 
Q 544 3141 544 3541 
Q 544 4100 942 4425 
Q 1341 4750 2034 4750 
Q 2731 4750 3128 4425 
Q 3525 4100 3525 3541 
Q 3525 3141 3298 2862 
Q 3072 2584 2669 2484 
Q 3125 2378 3379 2068 
Q 3634 1759 3634 1313 
Q 3634 634 3220 271 
Q 2806 -91 2034 -91 
Q 1263 -91 848 271 
Q 434 634 434 1313 
Q 434 1759 690 2068 
Q 947 2378 1403 2484 
z
M 1172 3481 
Q 1172 3119 1398 2916 
Q 1625 2713 2034 2713 
Q 2441 2713 2670 2916 
Q 2900 3119 2900 3481 
Q 2900 3844 2670 4047 
Q 2441 4250 2034 4250 
Q 1625 4250 1398 4047 
Q 1172 3844 1172 3481 
z
" id="DejaVuSans-38" transform="scale(0.015625)"/>
       </defs>
       <use xlink:href="#DejaVuSans-38"/>
      </g>
     </g>
    </g>
    <g id="xtick_6">
     <g id="line2d_6">
      <g>
       <use style="stroke:#000000;stroke-width:0.8;" x="345.912397" xlink:href="#m02f2a171ab" y="252"/>
      </g>
     </g>
     <g id="text_6">
      <!-- 10 -->
      <g transform="translate(339.549897 266.598437)scale(0.1 -0.1)">
       <defs>
        <path d="M 794 531 
L 1825 531 
L 1825 4091 
L 703 3866 
L 703 4441 
L 1819 4666 
L 2450 4666 
L 2450 531 
L 3481 531 
L 3481 0 
L 794 0 
L 794 531 
z
" id="DejaVuSans-31" transform="scale(0.015625)"/>
       </defs>
       <use xlink:href="#DejaVuSans-31"/>
       <use x="63.623047" xlink:href="#DejaVuSans-30"/>
      </g>
     </g>
    </g>
    <g id="text_7">
     <!-- x -->
     <g transform="translate(217.84875 281.79625)scale(0.12 -0.12)">
      <defs>
       <path d="M 3513 3500 
L 2247 1797 
L 3578 0 
L 2900 0 
L 1881 1375 
L 863 0 
L 184 0 
L 1544 1831 
L 300 3500 
L 978 3500 
L 1906 2253 
L 2834 3500 
L 3513 3500 
z
" id="DejaVuSans-78" transform="scale(0.015625)"/>
      </defs>
      <use xlink:href="#DejaVuSans-78"/>
     </g>
    </g>
   </g>
   <g id="matplotlib.axis_2">
    <g id="ytick_1">
     <g id="line2d_7">
      <defs>
       <path d="M 0 0 
L -3.5 0 
" id="m2a080de397" style="stroke:#000000;stroke-width:0.8;"/>
      </defs>
      <g>
       <use style="stroke:#000000;stroke-width:0.8;" x="54" xlink:href="#m2a080de397" y="252"/>
      </g>
     </g>
     <g id="text_8">
      <!-- 3 -->
      <g transform="translate(40.6375 255.799219)scale(0.1 -0.1)">
       <defs>
        <path d="M 2597 2516 
Q 3050 2419 3304 2112 
Q 3559 1806 3559 1356 
Q 3559 666 3084 287 
Q 2609 -91 1734 -91 
Q 1441 -91 1130 -33 
Q 819 25 488 141 
L 488 750 
Q 750 597 1062 519 
Q 1375 441 1716 441 
Q 2309 441 2620 675 
Q 2931 909 2931 1356 
Q 2931 1769 2642 2001 
Q 2353 2234 1838 2234 
L 1294 2234 
L 1294 2753 
L 1863 2753 
Q 2328 2753 2575 2939 
Q 2822 3125 2822 3475 
Q 2822 3834 2567 4026 
Q 2313 4219 1838 4219 
Q 1578 4219 1281 4162 
Q 984 4106 628 3988 
L 628 4550 
Q 988 4650 1302 4700 
Q 1616 4750 1894 4750 
Q 2613 4750 3031 4423 
Q 3450 4097 3450 3541 
Q 3450 3153 3228 2886 
Q 3006 2619 2597 2516 
z
" id="DejaVuSans-33" transform="scale(0.015625)"/>
       </defs>
       <use xlink:href="#DejaVuSans-33"/>
      </g>
     </g>
    </g>
    <g id="ytick_2">
     <g id="line2d_8">
      <g>
       <use style="stroke:#000000;stroke-width:0.8;" x="54" xlink:href="#m2a080de397" y="215.76"/>
      </g>
     </g>
     <g id="text_9">
      <!-- 4 -->
      <g transform="translate(40.6375 219.559219)scale(0.1 -0.1)">
       <use xlink:href="#DejaVuSans-34"/>
      </g>
     </g>
    </g>
    <g id="ytick_3">
     <g id="line2d_9">
      <g>
       <use style="stroke:#000000;stroke-width:0.8;" x="54" xlink:href="#m2a080de397" y="179.52"/>
      </g>
     </g>
     <g id="text_10">
      <!-- 5 -->
      <g transform="translate(40.6375 183.319219)scale(0.1 -0.1)">
       <defs>
        <path d="M 691 4666 
L 3169 4666 
L 3169 4134 
L 1269 4134 
L 1269 2991 
Q 1406 3038 1543 3061 
Q 1681 3084 1819 3084 
Q 2600 3084 3056 2656 
Q 3513 2228 3513 1497 
Q 3513 744 3044 326 
Q 2575 -91 1722 -91 
Q 1428 -91 1123 -41 
Q 819 9 494 109 
L 494 744 
Q 775 591 1075 516 
Q 1375 441 1709 441 
Q 2250 441 2565 725 
Q 2881 1009 2881 1497 
Q 2881 1984 2565 2268 
Q 2250 2553 1709 2553 
Q 1456 2553 1204 2497 
Q 953 2441 691 2322 
L 691 4666 
z
" id="DejaVuSans-35" transform="scale(0.015625)"/>
       </defs>
       <use xlink:href="#DejaVuSans-35"/>
      </g>
     </g>
    </g>
    <g id="ytick_4">
     <g id="line2d_10">
      <g>
       <use style="stroke:#000000;stroke-width:0.8;" x="54" xlink:href="#m2a080de397" y="143.28"/>
      </g>
     </g>
     <g id="text_11">
      <!-- 6 -->
      <g transform="translate(40.6375 147.079219)scale(0.1 -0.1)">
       <use xlink:href="#DejaVuSans-36"/>
      </g>
     </g>
    </g>
    <g id="ytick_5">
     <g id="line2d_11">
      <g>
       <use style="stroke:#000000;stroke-width:0.8;" x="54" xlink:href="#m2a080de397" y="107.04"/>
      </g>
     </g>
     <g id="text_12">
      <!-- 7 -->
      <g transform="translate(40.6375 110.839219)scale(0.1 -0.1)">
       <defs>
        <path d="M 525 4666 
L 3525 4666 
L 3525 4397 
L 1831 0 
L 1172 0 
L 2766 4134 
L 525 4134 
L 525 4666 
z
" id="DejaVuSans-37" transform="scale(0.015625)"/>
       </defs>
       <use xlink:href="#DejaVuSans-37"/>
      </g>
     </g>
    </g>
    <g id="ytick_6">
     <g id="line2d_12">
      <g>
       <use style="stroke:#000000;stroke-width:0.8;" x="54" xlink:href="#m2a080de397" y="70.8"/>
      </g>
     </g>
     <g id="text_13">
      <!-- 8 -->
      <g transform="translate(40.6375 74.599219)scale(0.1 -0.1)">
       <use xlink:href="#DejaVuSans-38"/>
      </g>
     </g>
    </g>
    <g id="ytick_7">
     <g id="line2d_13">
      <g>
       <use style="stroke:#000000;stroke-width:0.8;" x="54" xlink:href="#m2a080de397" y="34.56"/>
      </g>
     </g>
     <g id="text_14">
      <!-- 9 -->
      <g transform="translate(40.6375 38.359219)scale(0.1 -0.1)">
       <defs>
        <path d="M 703 97 
L 703 672 
Q 941 559 1184 500 
Q 1428 441 1663 441 
Q 2288 441 2617 861 
Q 2947 1281 2994 2138 
Q 2813 1869 2534 1725 
Q 2256 1581 1919 1581 
Q 1219 1581 811 2004 
Q 403 2428 403 3163 
Q 403 3881 828 4315 
Q 1253 4750 1959 4750 
Q 2769 4750 3195 4129 
Q 3622 3509 3622 2328 
Q 3622 1225 3098 567 
Q 2575 -91 1691 -91 
Q 1453 -91 1209 -44 
Q 966 3 703 97 
z
M 1959 2075 
Q 2384 2075 2632 2365 
Q 2881 2656 2881 3163 
Q 2881 3666 2632 3958 
Q 2384 4250 1959 4250 
Q 1534 4250 1286 3958 
Q 1038 3666 1038 3163 
Q 1038 2656 1286 2365 
Q 1534 2075 1959 2075 
z
" id="DejaVuSans-39" transform="scale(0.015625)"/>
       </defs>
       <use xlink:href="#DejaVuSans-39"/>
      </g>
     </g>
    </g>
    <g id="text_15">
     <!-- y -->
     <g transform="translate(34.141875 146.83125)rotate(-90)scale(0.12 -0.12)">
      <defs>
       <path d="M 2059 -325 
Q 1816 -950 1584 -1140 
Q 1353 -1331 966 -1331 
L 506 -1331 
L 506 -850 
L 844 -850 
Q 1081 -850 1212 -737 
Q 1344 -625 1503 -206 
L 1606 56 
L 191 3500 
L 800 3500 
L 1894 763 
L 2988 3500 
L 3597 3500 
L 2059 -325 
z
" id="DejaVuSans-79" transform="scale(0.015625)"/>
      </defs>
      <use xlink:href="#DejaVuSans-79"/>
     </g>
    </g>
   </g>
   <g id="line2d_14">
    <path clip-path="url(#p6638a9b982)" d="M 69.218182 70.8 
L 71.985124 85.083949 
L 74.752066 98.25467 
L 77.519008 110.364828 
L 80.28595 121.465955 
L 83.052893 131.608455 
L 85.819835 140.841599 
L 88.586777 149.213528 
L 91.353719 156.771253 
L 94.120661 163.560654 
L 96.887603 169.62648 
L 99.654545 175.012349 
L 102.421488 179.76075 
L 105.18843 183.913038 
L 107.955372 187.509441 
L 110.722314 190.589055 
L 113.489256 193.189844 
L 116.256198 195.348643 
L 119.02314 197.101155 
L 121.790083 198.481953 
L 124.557025 199.52448 
L 127.323967 200.261047 
L 130.090909 200.722835 
L 132.857851 200.939895 
L 135.624793 200.941145 
L 138.391736 200.754375 
L 141.158678 200.406243 
L 143.92562 199.922276 
L 146.692562 199.326871 
L 149.459504 198.643294 
L 152.226446 197.89368 
L 154.993388 197.099035 
L 157.760331 196.279231 
L 160.527273 195.453014 
L 163.294215 194.637994 
L 166.061157 193.850655 
L 168.828099 193.106347 
L 171.595041 192.419291 
L 174.361983 191.802577 
L 177.128926 191.268164 
L 179.895868 190.82688 
L 182.66281 190.488424 
L 185.429752 190.261362 
L 188.196694 190.153131 
L 190.963636 190.170037 
L 193.730579 190.317255 
L 196.497521 190.598829 
L 199.264463 191.017673 
L 202.031405 191.575569 
L 204.798347 192.273171 
L 207.565289 193.11 
L 210.332231 194.084446 
L 213.099174 195.193771 
L 215.866116 196.434103 
L 218.633058 197.800442 
L 221.4 199.286655 
L 224.166942 200.88548 
L 226.933884 202.588525 
L 229.700826 204.386264 
L 232.467769 206.268045 
L 235.234711 208.22208 
L 238.001653 210.235455 
L 240.768595 212.294122 
L 243.535537 214.382905 
L 246.302479 216.485496 
L 249.069421 218.584455 
L 251.836364 220.661214 
L 254.603306 222.696071 
L 257.370248 224.668198 
L 260.13719 226.555631 
L 262.904132 228.33528 
L 265.671074 229.982921 
L 268.438017 231.4732 
L 271.204959 232.779634 
L 273.971901 233.874607 
L 276.738843 234.729375 
L 279.505785 235.31406 
L 282.272727 235.597656 
L 285.039669 235.548026 
L 287.806612 235.1319 
L 290.573554 234.31488 
L 293.340496 233.061436 
L 296.107438 231.334908 
L 298.87438 229.097505 
L 301.641322 226.310305 
L 304.408264 222.933255 
L 307.175207 218.925173 
L 309.942149 214.243744 
L 312.709091 208.845524 
L 315.476033 202.685938 
L 318.242975 195.71928 
L 321.009917 187.898713 
L 323.77686 179.176271 
L 326.543802 169.502854 
L 329.310744 158.828236 
L 332.077686 147.101055 
L 334.844628 134.268823 
L 337.61157 120.277918 
L 340.378512 105.073589 
L 343.145455 88.599954 
L 345.912397 70.8 
L 348.679339 51.615584 
L 351.446281 30.987432 
L 354.213223 8.855138 
L 355.363895 -1 
" style="fill:none;stroke:#0000ff;stroke-linecap:square;stroke-width:2;"/>
   </g>
   <g id="line2d_15">
    <path clip-path="url(#p6638a9b982)" d="M 69.218182 157.827575 
L 71.985124 152.700277 
L 74.752066 148.503913 
L 77.519008 145.61876 
L 80.28595 144.4067 
L 83.052893 145.143653 
L 85.819835 147.887142 
L 88.586777 152.365506 
L 91.353719 158.057665 
L 94.120661 164.389033 
L 96.887603 170.848261 
L 99.654545 177.015858 
L 102.421488 182.571176 
L 105.18843 187.312956 
L 107.955372 191.249908 
L 110.722314 195.134745 
L 113.489256 200.204376 
L 116.256198 205.058881 
L 119.02314 208.835177 
L 121.790083 211.345992 
L 124.557025 212.594383 
L 127.323967 212.691594 
L 130.090909 211.830711 
L 132.857851 210.265403 
L 135.624793 208.285275 
L 138.391736 206.184227 
L 141.158678 204.218804 
L 143.92562 202.560435 
L 146.692562 201.262743 
L 149.459504 200.270709 
L 152.226446 199.468563 
L 154.993388 198.73457 
L 157.760331 197.983572 
L 160.527273 197.209165 
L 163.294215 196.568976 
L 166.061157 196.521682 
L 168.828099 197.432012 
L 171.595041 198.84614 
L 174.361983 200.185599 
L 177.128926 201.116562 
L 179.895868 201.456866 
L 182.66281 201.132318 
L 185.429752 200.183857 
L 188.196694 198.805737 
L 190.963636 197.399586 
L 193.730579 196.530611 
L 196.497521 196.595517 
L 199.264463 197.537504 
L 202.031405 199.051822 
L 204.798347 200.843087 
L 207.565289 202.688596 
L 210.332231 204.430337 
L 213.099174 205.963205 
L 215.866116 207.227233 
L 218.633058 208.200995 
L 221.4 208.894191 
L 224.166942 209.339121 
L 226.933884 209.581673 
L 229.700826 209.672857 
L 232.467769 209.661845 
L 235.234711 209.591201 
L 238.001653 209.494474 
L 240.768595 209.395938 
L 243.535537 209.311932 
L 246.302479 209.253119 
L 249.069421 209.227094 
L 251.836364 209.240889 
L 254.603306 209.303143 
L 257.370248 209.425815 
L 260.13719 209.625353 
L 262.904132 209.923244 
L 265.671074 210.345735 
L 268.438017 210.922521 
L 271.204959 211.684139 
L 273.971901 212.65794 
L 276.738843 213.862707 
L 279.505785 215.302303 
L 282.272727 216.95902 
L 285.039669 218.78753 
L 287.806612 220.71036 
L 290.573554 222.615677 
L 293.340496 224.357902 
L 296.107438 225.761357 
L 298.87438 226.626944 
L 301.641322 226.741736 
L 304.408264 225.891519 
L 307.175207 223.87697 
L 309.942149 220.536306 
L 312.709091 215.784491 
L 315.476033 209.701955 
L 318.242975 202.689452 
L 321.009917 195.058415 
L 323.77686 186.135337 
L 326.543802 175.411388 
L 329.310744 163.053014 
L 332.077686 149.580602 
L 334.844628 135.686649 
L 337.61157 122.154885 
L 340.378512 109.827069 
L 343.145455 99.579455 
L 345.912397 92.212204 
L 348.679339 88.221793 
L 351.446281 87.694875 
L 354.213223 90.41171 
L 356.980165 95.961812 
L 359.747107 103.808941 
L 362.51405 113.341998 
L 365.280992 123.927341 
L 368.047934 134.959251 
L 370.814876 145.902115 
L 373.581818 156.319834 
" style="fill:none;stroke:#008000;stroke-dasharray:3.7,1.6;stroke-dashoffset:0;"/>
   </g>
   <g id="line2d_16">
    <path clip-path="url(#p6638a9b982)" d="M 69.218182 113.267644 
L 71.985124 113.841985 
L 74.752066 115.3297 
L 77.519008 117.707025 
L 80.28595 120.863766 
L 83.052893 124.64008 
L 85.819835 128.938923 
L 88.586777 133.830772 
L 91.353719 139.483174 
L 94.120661 145.989099 
L 96.887603 153.28699 
L 99.654545 161.17746 
L 102.421488 169.365035 
L 105.18843 177.484363 
L 107.955372 185.04944 
L 110.722314 190.948654 
L 113.489256 193.720759 
L 116.256198 194.678778 
L 119.02314 194.727184 
L 121.790083 194.204357 
L 124.557025 193.343304 
L 127.323967 192.326303 
L 130.090909 191.283985 
L 132.857851 190.291787 
L 135.624793 189.373646 
L 138.391736 188.517005 
L 141.158678 187.702137 
L 143.92562 186.941526 
L 146.692562 186.307752 
L 149.459504 185.922867 
L 152.226446 185.91231 
L 154.993388 186.355176 
L 157.760331 187.249856 
L 160.527273 188.482787 
L 163.294215 189.756067 
L 166.061157 190.464189 
L 168.828099 190.10233 
L 171.595041 189.002433 
L 174.361983 187.647847 
L 177.128926 186.309016 
L 179.895868 185.137704 
L 182.66281 184.208602 
L 185.429752 183.50758 
L 188.196694 182.887403 
L 190.963636 182.007129 
L 193.730579 180.369752 
L 196.497521 177.649104 
L 199.264463 173.970889 
L 202.031405 169.704364 
L 204.798347 165.203215 
L 207.565289 160.741144 
L 210.332231 156.519186 
L 213.099174 152.677066 
L 215.866116 149.300718 
L 218.633058 146.428831 
L 221.4 144.060453 
L 224.166942 142.164041 
L 226.933884 140.687348 
L 229.700826 139.567124 
L 232.467769 138.737584 
L 235.234711 138.136893 
L 238.001653 137.711361 
L 240.768595 137.417497 
L 243.535537 137.222404 
L 246.302479 137.103178 
L 249.069421 137.045915 
L 251.836364 137.044809 
L 254.603306 137.101619 
L 257.370248 137.225622 
L 260.13719 137.434051 
L 262.904132 137.752927 
L 265.671074 138.218152 
L 268.438017 138.876651 
L 271.204959 139.787222 
L 273.971901 141.020609 
L 276.738843 142.658107 
L 279.505785 144.787845 
L 282.272727 147.497889 
L 285.039669 150.865572 
L 287.806612 154.942992 
L 290.573554 159.739516 
L 293.340496 165.20308 
L 296.107438 171.203004 
L 298.87438 177.517568 
L 301.641322 183.829677 
L 304.408264 189.733131 
L 307.175207 194.750202 
L 309.942149 198.357312 
L 312.709091 200.006218 
L 315.476033 199.102954 
L 318.242975 194.921073 
L 321.009917 187.071595 
L 323.77686 176.442494 
L 326.543802 164.068757 
L 329.310744 150.611688 
L 332.077686 136.638174 
L 334.844628 122.730361 
L 337.61157 109.470443 
L 340.378512 97.363631 
L 343.145455 86.749587 
L 345.912397 77.811993 
L 348.679339 70.72801 
L 351.446281 65.727973 
L 354.213223 62.981743 
L 356.980165 62.508769 
L 359.747107 64.16978 
L 362.51405 67.694914 
L 365.280992 72.722001 
L 368.047934 78.837037 
L 370.814876 85.613281 
L 373.581818 92.645955 
" style="fill:none;stroke:#008000;stroke-dasharray:3.7,1.6;stroke-dashoffset:0;"/>
   </g>
   <g id="line2d_17">
    <path clip-path="url(#p6638a9b982)" d="M 69.218182 251.922441 
L 71.985124 251.99201 
L 74.752066 251.999676 
L 77.519008 251.999996 
L 80.28595 252 
L 83.052893 252 
L 85.819835 252 
L 88.586777 252 
L 91.353719 252 
L 94.120661 251.999998 
L 96.887603 251.999973 
L 99.654545 251.999842 
L 102.421488 251.999688 
L 105.18843 251.999853 
L 107.955372 251.999995 
L 110.722314 251.999996 
L 113.489256 251.602948 
L 116.256198 243.229987 
L 119.02314 229.418708 
L 121.790083 218.783447 
L 124.557025 213.614303 
L 127.323967 213.649003 
L 130.090909 217.700059 
L 132.857851 224.186372 
L 135.624793 231.429322 
L 138.391736 237.966495 
L 141.158678 242.907896 
L 143.92562 246.126461 
L 146.692562 248.050448 
L 149.459504 249.235528 
L 152.226446 250.093256 
L 154.993388 250.828899 
L 157.760331 251.453898 
L 160.527273 251.851555 
L 163.294215 251.980797 
L 166.061157 251.993047 
L 168.828099 251.930598 
L 171.595041 251.36651 
L 174.361983 249.922985 
L 177.128926 248.264786 
L 179.895868 247.291095 
L 182.66281 247.424141 
L 185.429752 248.47709 
L 188.196694 249.79287 
L 190.963636 250.675742 
L 193.730579 250.840526 
L 196.497521 250.152936 
L 199.264463 248.231409 
L 202.031405 244.840143 
L 204.798347 240.235476 
L 207.565289 234.969784 
L 210.332231 229.616283 
L 213.099174 224.632675 
L 215.866116 220.32182 
L 218.633058 216.836557 
L 221.4 214.204053 
L 224.166942 212.358814 
L 226.933884 211.177761 
L 229.700826 210.512411 
L 232.467769 210.214521 
L 235.234711 210.153319 
L 238.001653 210.224198 
L 240.768595 210.350253 
L 243.535537 210.478819 
L 246.302479 210.575292 
L 249.069421 210.616095 
L 251.836364 210.58201 
L 254.603306 210.452501 
L 257.370248 210.201191 
L 260.13719 209.792511 
L 262.904132 209.179485 
L 265.671074 208.302755 
L 268.438017 207.09104 
L 271.204959 205.463387 
L 273.971901 203.33357 
L 276.738843 200.616972 
L 279.505785 197.240179 
L 282.272727 193.153311 
L 285.039669 188.344991 
L 287.806612 182.86007 
L 290.573554 176.821074 
L 293.340496 170.456397 
L 296.107438 164.141597 
L 298.87438 158.464351 
L 301.641322 154.326495 
L 304.408264 153.091628 
L 307.175207 156.757446 
L 309.942149 168.039503 
L 312.709091 189.964329 
L 315.476033 222.946714 
L 318.242975 249.203757 
L 321.009917 251.984085 
L 323.77686 251.999963 
L 326.543802 252 
L 329.310744 252 
L 332.077686 252 
L 334.844628 252 
L 337.61157 252 
L 340.378512 252 
L 343.145455 252 
L 345.912397 252 
L 348.679339 252 
L 351.446281 252 
L 354.213223 252 
L 356.980165 252 
L 359.747107 252 
L 362.51405 251.999982 
L 365.280992 251.998763 
L 368.047934 251.977836 
L 370.814876 251.832869 
L 373.581818 251.289983 
" style="fill:none;stroke:#bfbf00;stroke-dasharray:7.4,3.2;stroke-dashoffset:0;stroke-width:2;"/>
   </g>
   <g id="patch_3">
    <path d="M 54 252 
L 54 34.56 
" style="fill:none;stroke:#000000;stroke-linecap:square;stroke-linejoin:miter;stroke-width:0.8;"/>
   </g>
   <g id="patch_4">
    <path d="M 388.8 252 
L 388.8 34.56 
" style="fill:none;stroke:#000000;stroke-linecap:square;stroke-linejoin:miter;stroke-width:0.8;"/>
   </g>
   <g id="patch_5">
    <path d="M 54 252 
L 388.8 252 
" style="fill:none;stroke:#000000;stroke-linecap:square;stroke-linejoin:miter;stroke-width:0.8;"/>
   </g>
   <g id="patch_6">
    <path d="M 54 34.56 
L 388.8 34.56 
" style="fill:none;stroke:#000000;stroke-linecap:square;stroke-linejoin:miter;stroke-width:0.8;"/>
   </g>
   <g id="text_16">
    <!-- Method : EQI -->
    <g transform="translate(71.985124 244.752)scale(0.12 -0.12)">
     <defs>
      <path d="M 628 4666 
L 1569 4666 
L 2759 1491 
L 3956 4666 
L 4897 4666 
L 4897 0 
L 4281 0 
L 4281 4097 
L 3078 897 
L 2444 897 
L 1241 4097 
L 1241 0 
L 628 0 
L 628 4666 
z
" id="DejaVuSans-4d" transform="scale(0.015625)"/>
      <path d="M 3597 1894 
L 3597 1613 
L 953 1613 
Q 991 1019 1311 708 
Q 1631 397 2203 397 
Q 2534 397 2845 478 
Q 3156 559 3463 722 
L 3463 178 
Q 3153 47 2828 -22 
Q 2503 -91 2169 -91 
Q 1331 -91 842 396 
Q 353 884 353 1716 
Q 353 2575 817 3079 
Q 1281 3584 2069 3584 
Q 2775 3584 3186 3129 
Q 3597 2675 3597 1894 
z
M 3022 2063 
Q 3016 2534 2758 2815 
Q 2500 3097 2075 3097 
Q 1594 3097 1305 2825 
Q 1016 2553 972 2059 
L 3022 2063 
z
" id="DejaVuSans-65" transform="scale(0.015625)"/>
      <path d="M 1172 4494 
L 1172 3500 
L 2356 3500 
L 2356 3053 
L 1172 3053 
L 1172 1153 
Q 1172 725 1289 603 
Q 1406 481 1766 481 
L 2356 481 
L 2356 0 
L 1766 0 
Q 1100 0 847 248 
Q 594 497 594 1153 
L 594 3053 
L 172 3053 
L 172 3500 
L 594 3500 
L 594 4494 
L 1172 4494 
z
" id="DejaVuSans-74" transform="scale(0.015625)"/>
      <path d="M 3513 2113 
L 3513 0 
L 2938 0 
L 2938 2094 
Q 2938 2591 2744 2837 
Q 2550 3084 2163 3084 
Q 1697 3084 1428 2787 
Q 1159 2491 1159 1978 
L 1159 0 
L 581 0 
L 581 4863 
L 1159 4863 
L 1159 2956 
Q 1366 3272 1645 3428 
Q 1925 3584 2291 3584 
Q 2894 3584 3203 3211 
Q 3513 2838 3513 2113 
z
" id="DejaVuSans-68" transform="scale(0.015625)"/>
      <path d="M 1959 3097 
Q 1497 3097 1228 2736 
Q 959 2375 959 1747 
Q 959 1119 1226 758 
Q 1494 397 1959 397 
Q 2419 397 2687 759 
Q 2956 1122 2956 1747 
Q 2956 2369 2687 2733 
Q 2419 3097 1959 3097 
z
M 1959 3584 
Q 2709 3584 3137 3096 
Q 3566 2609 3566 1747 
Q 3566 888 3137 398 
Q 2709 -91 1959 -91 
Q 1206 -91 779 398 
Q 353 888 353 1747 
Q 353 2609 779 3096 
Q 1206 3584 1959 3584 
z
" id="DejaVuSans-6f" transform="scale(0.015625)"/>
      <path d="M 2906 2969 
L 2906 4863 
L 3481 4863 
L 3481 0 
L 2906 0 
L 2906 525 
Q 2725 213 2448 61 
Q 2172 -91 1784 -91 
Q 1150 -91 751 415 
Q 353 922 353 1747 
Q 353 2572 751 3078 
Q 1150 3584 1784 3584 
Q 2172 3584 2448 3432 
Q 2725 3281 2906 2969 
z
M 947 1747 
Q 947 1113 1208 752 
Q 1469 391 1925 391 
Q 2381 391 2643 752 
Q 2906 1113 2906 1747 
Q 2906 2381 2643 2742 
Q 2381 3103 1925 3103 
Q 1469 3103 1208 2742 
Q 947 2381 947 1747 
z
" id="DejaVuSans-64" transform="scale(0.015625)"/>
      <path id="DejaVuSans-20" transform="scale(0.015625)"/>
      <path d="M 750 794 
L 1409 794 
L 1409 0 
L 750 0 
L 750 794 
z
M 750 3309 
L 1409 3309 
L 1409 2516 
L 750 2516 
L 750 3309 
z
" id="DejaVuSans-3a" transform="scale(0.015625)"/>
      <path d="M 628 4666 
L 3578 4666 
L 3578 4134 
L 1259 4134 
L 1259 2753 
L 3481 2753 
L 3481 2222 
L 1259 2222 
L 1259 531 
L 3634 531 
L 3634 0 
L 628 0 
L 628 4666 
z
" id="DejaVuSans-45" transform="scale(0.015625)"/>
      <path d="M 2522 4238 
Q 1834 4238 1429 3725 
Q 1025 3213 1025 2328 
Q 1025 1447 1429 934 
Q 1834 422 2522 422 
Q 3209 422 3611 934 
Q 4013 1447 4013 2328 
Q 4013 3213 3611 3725 
Q 3209 4238 2522 4238 
z
M 3406 84 
L 4238 -825 
L 3475 -825 
L 2784 -78 
Q 2681 -84 2626 -87 
Q 2572 -91 2522 -91 
Q 1538 -91 948 567 
Q 359 1225 359 2328 
Q 359 3434 948 4092 
Q 1538 4750 2522 4750 
Q 3503 4750 4090 4092 
Q 4678 3434 4678 2328 
Q 4678 1516 4351 937 
Q 4025 359 3406 84 
z
" id="DejaVuSans-51" transform="scale(0.015625)"/>
      <path d="M 628 4666 
L 1259 4666 
L 1259 0 
L 628 0 
L 628 4666 
z
" id="DejaVuSans-49" transform="scale(0.015625)"/>
     </defs>
     <use xlink:href="#DejaVuSans-4d"/>
     <use x="86.279297" xlink:href="#DejaVuSans-65"/>
     <use x="147.802734" xlink:href="#DejaVuSans-74"/>
     <use x="187.011719" xlink:href="#DejaVuSans-68"/>
     <use x="250.390625" xlink:href="#DejaVuSans-6f"/>
     <use x="311.572266" xlink:href="#DejaVuSans-64"/>
     <use x="375.048828" xlink:href="#DejaVuSans-20"/>
     <use x="406.835938" xlink:href="#DejaVuSans-3a"/>
     <use x="440.527344" xlink:href="#DejaVuSans-20"/>
     <use x="472.314453" xlink:href="#DejaVuSans-45"/>
     <use x="535.498047" xlink:href="#DejaVuSans-51"/>
     <use x="614.208984" xlink:href="#DejaVuSans-49"/>
    </g>
   </g>
   <g id="text_17">
    <!-- Iter=0 -->
    <g transform="translate(71.985124 226.632)scale(0.12 -0.12)">
     <defs>
      <path d="M 2631 2963 
Q 2534 3019 2420 3045 
Q 2306 3072 2169 3072 
Q 1681 3072 1420 2755 
Q 1159 2438 1159 1844 
L 1159 0 
L 581 0 
L 581 3500 
L 1159 3500 
L 1159 2956 
Q 1341 3275 1631 3429 
Q 1922 3584 2338 3584 
Q 2397 3584 2469 3576 
Q 2541 3569 2628 3553 
L 2631 2963 
z
" id="DejaVuSans-72" transform="scale(0.015625)"/>
      <path d="M 678 2906 
L 4684 2906 
L 4684 2381 
L 678 2381 
L 678 2906 
z
M 678 1631 
L 4684 1631 
L 4684 1100 
L 678 1100 
L 678 1631 
z
" id="DejaVuSans-3d" transform="scale(0.015625)"/>
     </defs>
     <use xlink:href="#DejaVuSans-49"/>
     <use x="29.492188" xlink:href="#DejaVuSans-74"/>
     <use x="68.701172" xlink:href="#DejaVuSans-65"/>
     <use x="130.224609" xlink:href="#DejaVuSans-72"/>
     <use x="171.337891" xlink:href="#DejaVuSans-3d"/>
     <use x="255.126953" xlink:href="#DejaVuSans-30"/>
    </g>
   </g>
   <g id="legend_1">
    <g id="patch_7">
     <path d="M 144.327812 140.235625 
L 298.472188 140.235625 
Q 300.672188 140.235625 300.672188 138.035625 
L 300.672188 42.26 
Q 300.672188 40.06 298.472188 40.06 
L 144.327812 40.06 
Q 142.127813 40.06 142.127813 42.26 
L 142.127813 138.035625 
Q 142.127813 140.235625 144.327812 140.235625 
z
" style="fill:#ffffff;opacity:0.8;stroke:#cccccc;stroke-linejoin:miter;"/>
    </g>
    <g id="line2d_18">
     <path d="M 146.527813 48.968281 
L 168.527813 48.968281 
" style="fill:none;stroke:#0000ff;stroke-linecap:square;stroke-width:2;"/>
    </g>
    <g id="line2d_19"/>
    <g id="text_18">
     <!-- ture function -->
     <g transform="translate(177.327813 52.818281)scale(0.11 -0.11)">
      <defs>
       <path d="M 544 1381 
L 544 3500 
L 1119 3500 
L 1119 1403 
Q 1119 906 1312 657 
Q 1506 409 1894 409 
Q 2359 409 2629 706 
Q 2900 1003 2900 1516 
L 2900 3500 
L 3475 3500 
L 3475 0 
L 2900 0 
L 2900 538 
Q 2691 219 2414 64 
Q 2138 -91 1772 -91 
Q 1169 -91 856 284 
Q 544 659 544 1381 
z
M 1991 3584 
L 1991 3584 
z
" id="DejaVuSans-75" transform="scale(0.015625)"/>
       <path d="M 2375 4863 
L 2375 4384 
L 1825 4384 
Q 1516 4384 1395 4259 
Q 1275 4134 1275 3809 
L 1275 3500 
L 2222 3500 
L 2222 3053 
L 1275 3053 
L 1275 0 
L 697 0 
L 697 3053 
L 147 3053 
L 147 3500 
L 697 3500 
L 697 3744 
Q 697 4328 969 4595 
Q 1241 4863 1831 4863 
L 2375 4863 
z
" id="DejaVuSans-66" transform="scale(0.015625)"/>
       <path d="M 3513 2113 
L 3513 0 
L 2938 0 
L 2938 2094 
Q 2938 2591 2744 2837 
Q 2550 3084 2163 3084 
Q 1697 3084 1428 2787 
Q 1159 2491 1159 1978 
L 1159 0 
L 581 0 
L 581 3500 
L 1159 3500 
L 1159 2956 
Q 1366 3272 1645 3428 
Q 1925 3584 2291 3584 
Q 2894 3584 3203 3211 
Q 3513 2838 3513 2113 
z
" id="DejaVuSans-6e" transform="scale(0.015625)"/>
       <path d="M 3122 3366 
L 3122 2828 
Q 2878 2963 2633 3030 
Q 2388 3097 2138 3097 
Q 1578 3097 1268 2742 
Q 959 2388 959 1747 
Q 959 1106 1268 751 
Q 1578 397 2138 397 
Q 2388 397 2633 464 
Q 2878 531 3122 666 
L 3122 134 
Q 2881 22 2623 -34 
Q 2366 -91 2075 -91 
Q 1284 -91 818 406 
Q 353 903 353 1747 
Q 353 2603 823 3093 
Q 1294 3584 2113 3584 
Q 2378 3584 2631 3529 
Q 2884 3475 3122 3366 
z
" id="DejaVuSans-63" transform="scale(0.015625)"/>
       <path d="M 603 3500 
L 1178 3500 
L 1178 0 
L 603 0 
L 603 3500 
z
M 603 4863 
L 1178 4863 
L 1178 4134 
L 603 4134 
L 603 4863 
z
" id="DejaVuSans-69" transform="scale(0.015625)"/>
      </defs>
      <use xlink:href="#DejaVuSans-74"/>
      <use x="39.208984" xlink:href="#DejaVuSans-75"/>
      <use x="102.587891" xlink:href="#DejaVuSans-72"/>
      <use x="141.451172" xlink:href="#DejaVuSans-65"/>
      <use x="202.974609" xlink:href="#DejaVuSans-20"/>
      <use x="234.761719" xlink:href="#DejaVuSans-66"/>
      <use x="269.966797" xlink:href="#DejaVuSans-75"/>
      <use x="333.345703" xlink:href="#DejaVuSans-6e"/>
      <use x="396.724609" xlink:href="#DejaVuSans-63"/>
      <use x="451.705078" xlink:href="#DejaVuSans-74"/>
      <use x="490.914062" xlink:href="#DejaVuSans-69"/>
      <use x="518.697266" xlink:href="#DejaVuSans-6f"/>
      <use x="579.878906" xlink:href="#DejaVuSans-6e"/>
     </g>
    </g>
    <g id="line2d_20">
     <path d="M 146.527813 65.114219 
L 168.527813 65.114219 
" style="fill:none;stroke:#000000;stroke-dasharray:7.4,3.2;stroke-dashoffset:0;stroke-width:2;"/>
    </g>
    <g id="line2d_21"/>
    <g id="text_19">
     <!-- predicted function -->
     <g transform="translate(177.327813 68.964219)scale(0.11 -0.11)">
      <defs>
       <path d="M 1159 525 
L 1159 -1331 
L 581 -1331 
L 581 3500 
L 1159 3500 
L 1159 2969 
Q 1341 3281 1617 3432 
Q 1894 3584 2278 3584 
Q 2916 3584 3314 3078 
Q 3713 2572 3713 1747 
Q 3713 922 3314 415 
Q 2916 -91 2278 -91 
Q 1894 -91 1617 61 
Q 1341 213 1159 525 
z
M 3116 1747 
Q 3116 2381 2855 2742 
Q 2594 3103 2138 3103 
Q 1681 3103 1420 2742 
Q 1159 2381 1159 1747 
Q 1159 1113 1420 752 
Q 1681 391 2138 391 
Q 2594 391 2855 752 
Q 3116 1113 3116 1747 
z
" id="DejaVuSans-70" transform="scale(0.015625)"/>
      </defs>
      <use xlink:href="#DejaVuSans-70"/>
      <use x="63.476562" xlink:href="#DejaVuSans-72"/>
      <use x="102.339844" xlink:href="#DejaVuSans-65"/>
      <use x="163.863281" xlink:href="#DejaVuSans-64"/>
      <use x="227.339844" xlink:href="#DejaVuSans-69"/>
      <use x="255.123047" xlink:href="#DejaVuSans-63"/>
      <use x="310.103516" xlink:href="#DejaVuSans-74"/>
      <use x="349.3125" xlink:href="#DejaVuSans-65"/>
      <use x="410.835938" xlink:href="#DejaVuSans-64"/>
      <use x="474.3125" xlink:href="#DejaVuSans-20"/>
      <use x="506.099609" xlink:href="#DejaVuSans-66"/>
      <use x="541.304688" xlink:href="#DejaVuSans-75"/>
      <use x="604.683594" xlink:href="#DejaVuSans-6e"/>
      <use x="668.0625" xlink:href="#DejaVuSans-63"/>
      <use x="723.042969" xlink:href="#DejaVuSans-74"/>
      <use x="762.251953" xlink:href="#DejaVuSans-69"/>
      <use x="790.035156" xlink:href="#DejaVuSans-6f"/>
      <use x="851.216797" xlink:href="#DejaVuSans-6e"/>
     </g>
    </g>
    <g id="line2d_22">
     <path d="M 146.527813 81.260156 
L 168.527813 81.260156 
" style="fill:none;stroke:#008000;stroke-dasharray:3.7,1.6;stroke-dashoffset:0;"/>
    </g>
    <g id="line2d_23"/>
    <g id="text_20">
     <!--  ± Sn(x) -->
     <g transform="translate(177.327813 85.110156)scale(0.11 -0.11)">
      <defs>
       <path d="M 2944 4013 
L 2944 2803 
L 4684 2803 
L 4684 2272 
L 2944 2272 
L 2944 1063 
L 2419 1063 
L 2419 2272 
L 678 2272 
L 678 2803 
L 2419 2803 
L 2419 4013 
L 2944 4013 
z
M 678 531 
L 4684 531 
L 4684 0 
L 678 0 
L 678 531 
z
" id="DejaVuSans-b1" transform="scale(0.015625)"/>
       <path d="M 3425 4513 
L 3425 3897 
Q 3066 4069 2747 4153 
Q 2428 4238 2131 4238 
Q 1616 4238 1336 4038 
Q 1056 3838 1056 3469 
Q 1056 3159 1242 3001 
Q 1428 2844 1947 2747 
L 2328 2669 
Q 3034 2534 3370 2195 
Q 3706 1856 3706 1288 
Q 3706 609 3251 259 
Q 2797 -91 1919 -91 
Q 1588 -91 1214 -16 
Q 841 59 441 206 
L 441 856 
Q 825 641 1194 531 
Q 1563 422 1919 422 
Q 2459 422 2753 634 
Q 3047 847 3047 1241 
Q 3047 1584 2836 1778 
Q 2625 1972 2144 2069 
L 1759 2144 
Q 1053 2284 737 2584 
Q 422 2884 422 3419 
Q 422 4038 858 4394 
Q 1294 4750 2059 4750 
Q 2388 4750 2728 4690 
Q 3069 4631 3425 4513 
z
" id="DejaVuSans-53" transform="scale(0.015625)"/>
       <path d="M 1984 4856 
Q 1566 4138 1362 3434 
Q 1159 2731 1159 2009 
Q 1159 1288 1364 580 
Q 1569 -128 1984 -844 
L 1484 -844 
Q 1016 -109 783 600 
Q 550 1309 550 2009 
Q 550 2706 781 3412 
Q 1013 4119 1484 4856 
L 1984 4856 
z
" id="DejaVuSans-28" transform="scale(0.015625)"/>
       <path d="M 513 4856 
L 1013 4856 
Q 1481 4119 1714 3412 
Q 1947 2706 1947 2009 
Q 1947 1309 1714 600 
Q 1481 -109 1013 -844 
L 513 -844 
Q 928 -128 1133 580 
Q 1338 1288 1338 2009 
Q 1338 2731 1133 3434 
Q 928 4138 513 4856 
z
" id="DejaVuSans-29" transform="scale(0.015625)"/>
      </defs>
      <use xlink:href="#DejaVuSans-20"/>
      <use x="31.787109" xlink:href="#DejaVuSans-b1"/>
      <use x="115.576172" xlink:href="#DejaVuSans-20"/>
      <use x="147.363281" xlink:href="#DejaVuSans-53"/>
      <use x="210.839844" xlink:href="#DejaVuSans-6e"/>
      <use x="274.21875" xlink:href="#DejaVuSans-28"/>
      <use x="313.232422" xlink:href="#DejaVuSans-78"/>
      <use x="372.412109" xlink:href="#DejaVuSans-29"/>
     </g>
    </g>
    <g id="line2d_24">
     <path d="M 146.527813 97.406094 
L 168.527813 97.406094 
" style="fill:none;stroke:#bfbf00;stroke-dasharray:7.4,3.2;stroke-dashoffset:0;stroke-width:2;"/>
    </g>
    <g id="line2d_25"/>
    <g id="text_21">
     <!-- EQI(x) -->
     <g transform="translate(177.327813 101.256094)scale(0.11 -0.11)">
      <use xlink:href="#DejaVuSans-45"/>
      <use x="63.183594" xlink:href="#DejaVuSans-51"/>
      <use x="141.894531" xlink:href="#DejaVuSans-49"/>
      <use x="171.386719" xlink:href="#DejaVuSans-28"/>
      <use x="210.400391" xlink:href="#DejaVuSans-78"/>
      <use x="269.580078" xlink:href="#DejaVuSans-29"/>
     </g>
    </g>
    <g id="PathCollection_2">
     <defs>
      <path d="M 0 3.535534 
C 0.937635 3.535534 1.836992 3.163008 2.5 2.5 
C 3.163008 1.836992 3.535534 0.937635 3.535534 0 
C 3.535534 -0.937635 3.163008 -1.836992 2.5 -2.5 
C 1.836992 -3.163008 0.937635 -3.535534 0 -3.535534 
C -0.937635 -3.535534 -1.836992 -3.163008 -2.5 -2.5 
C -3.163008 -1.836992 -3.535534 -0.937635 -3.535534 0 
C -3.535534 0.937635 -3.163008 1.836992 -2.5 2.5 
C -1.836992 3.163008 -0.937635 3.535534 0 3.535534 
z
" id="m3314781001" style="stroke:#000000;"/>
     </defs>
     <g>
      <use style="fill:#ff0000;stroke:#000000;" x="157.527813" xlink:href="#m3314781001" y="114.514531"/>
     </g>
    </g>
    <g id="text_22">
     <!-- training data -->
     <g transform="translate(177.327813 117.402031)scale(0.11 -0.11)">
      <defs>
       <path d="M 2194 1759 
Q 1497 1759 1228 1600 
Q 959 1441 959 1056 
Q 959 750 1161 570 
Q 1363 391 1709 391 
Q 2188 391 2477 730 
Q 2766 1069 2766 1631 
L 2766 1759 
L 2194 1759 
z
M 3341 1997 
L 3341 0 
L 2766 0 
L 2766 531 
Q 2569 213 2275 61 
Q 1981 -91 1556 -91 
Q 1019 -91 701 211 
Q 384 513 384 1019 
Q 384 1609 779 1909 
Q 1175 2209 1959 2209 
L 2766 2209 
L 2766 2266 
Q 2766 2663 2505 2880 
Q 2244 3097 1772 3097 
Q 1472 3097 1187 3025 
Q 903 2953 641 2809 
L 641 3341 
Q 956 3463 1253 3523 
Q 1550 3584 1831 3584 
Q 2591 3584 2966 3190 
Q 3341 2797 3341 1997 
z
" id="DejaVuSans-61" transform="scale(0.015625)"/>
       <path d="M 2906 1791 
Q 2906 2416 2648 2759 
Q 2391 3103 1925 3103 
Q 1463 3103 1205 2759 
Q 947 2416 947 1791 
Q 947 1169 1205 825 
Q 1463 481 1925 481 
Q 2391 481 2648 825 
Q 2906 1169 2906 1791 
z
M 3481 434 
Q 3481 -459 3084 -895 
Q 2688 -1331 1869 -1331 
Q 1566 -1331 1297 -1286 
Q 1028 -1241 775 -1147 
L 775 -588 
Q 1028 -725 1275 -790 
Q 1522 -856 1778 -856 
Q 2344 -856 2625 -561 
Q 2906 -266 2906 331 
L 2906 616 
Q 2728 306 2450 153 
Q 2172 0 1784 0 
Q 1141 0 747 490 
Q 353 981 353 1791 
Q 353 2603 747 3093 
Q 1141 3584 1784 3584 
Q 2172 3584 2450 3431 
Q 2728 3278 2906 2969 
L 2906 3500 
L 3481 3500 
L 3481 434 
z
" id="DejaVuSans-67" transform="scale(0.015625)"/>
      </defs>
      <use xlink:href="#DejaVuSans-74"/>
      <use x="39.208984" xlink:href="#DejaVuSans-72"/>
      <use x="80.322266" xlink:href="#DejaVuSans-61"/>
      <use x="141.601562" xlink:href="#DejaVuSans-69"/>
      <use x="169.384766" xlink:href="#DejaVuSans-6e"/>
      <use x="232.763672" xlink:href="#DejaVuSans-69"/>
      <use x="260.546875" xlink:href="#DejaVuSans-6e"/>
      <use x="323.925781" xlink:href="#DejaVuSans-67"/>
      <use x="387.402344" xlink:href="#DejaVuSans-20"/>
      <use x="419.189453" xlink:href="#DejaVuSans-64"/>
      <use x="482.666016" xlink:href="#DejaVuSans-61"/>
      <use x="543.945312" xlink:href="#DejaVuSans-74"/>
      <use x="583.154297" xlink:href="#DejaVuSans-61"/>
     </g>
    </g>
    <g id="PathCollection_3">
     <g>
      <use style="fill:#ff0000;stroke:#ff0000;stroke-width:8;" x="157.527813" xlink:href="#m5054f2f80a" y="130.660469"/>
     </g>
    </g>
    <g id="text_23">
     <!-- recommended datum -->
     <g transform="translate(177.327813 133.547969)scale(0.11 -0.11)">
      <defs>
       <path d="M 3328 2828 
Q 3544 3216 3844 3400 
Q 4144 3584 4550 3584 
Q 5097 3584 5394 3201 
Q 5691 2819 5691 2113 
L 5691 0 
L 5113 0 
L 5113 2094 
Q 5113 2597 4934 2840 
Q 4756 3084 4391 3084 
Q 3944 3084 3684 2787 
Q 3425 2491 3425 1978 
L 3425 0 
L 2847 0 
L 2847 2094 
Q 2847 2600 2669 2842 
Q 2491 3084 2119 3084 
Q 1678 3084 1418 2786 
Q 1159 2488 1159 1978 
L 1159 0 
L 581 0 
L 581 3500 
L 1159 3500 
L 1159 2956 
Q 1356 3278 1631 3431 
Q 1906 3584 2284 3584 
Q 2666 3584 2933 3390 
Q 3200 3197 3328 2828 
z
" id="DejaVuSans-6d" transform="scale(0.015625)"/>
      </defs>
      <use xlink:href="#DejaVuSans-72"/>
      <use x="38.863281" xlink:href="#DejaVuSans-65"/>
      <use x="100.386719" xlink:href="#DejaVuSans-63"/>
      <use x="155.367188" xlink:href="#DejaVuSans-6f"/>
      <use x="216.548828" xlink:href="#DejaVuSans-6d"/>
      <use x="313.960938" xlink:href="#DejaVuSans-6d"/>
      <use x="411.373047" xlink:href="#DejaVuSans-65"/>
      <use x="472.896484" xlink:href="#DejaVuSans-6e"/>
      <use x="536.275391" xlink:href="#DejaVuSans-64"/>
      <use x="599.751953" xlink:href="#DejaVuSans-65"/>
      <use x="661.275391" xlink:href="#DejaVuSans-64"/>
      <use x="724.751953" xlink:href="#DejaVuSans-20"/>
      <use x="756.539062" xlink:href="#DejaVuSans-64"/>
      <use x="820.015625" xlink:href="#DejaVuSans-61"/>
      <use x="881.294922" xlink:href="#DejaVuSans-74"/>
      <use x="920.503906" xlink:href="#DejaVuSans-75"/>
      <use x="983.882812" xlink:href="#DejaVuSans-6d"/>
     </g>
    </g>
   </g>
   <g id="line2d_26">
    <path clip-path="url(#p6638a9b982)" d="M 69.218182 135.54761 
L 71.985124 133.271131 
L 74.752066 131.916807 
L 77.519008 131.662892 
L 80.28595 132.635233 
L 83.052893 134.891866 
L 85.819835 138.413032 
L 88.586777 143.098139 
L 91.353719 148.77042 
L 94.120661 155.189066 
L 96.887603 162.067626 
L 99.654545 169.096659 
L 102.421488 175.968105 
L 105.18843 182.39866 
L 107.955372 188.149674 
L 110.722314 193.041699 
L 113.489256 196.962568 
L 116.256198 199.868829 
L 119.02314 201.781181 
L 121.790083 202.775174 
L 124.557025 202.968843 
L 127.323967 202.508949 
L 130.090909 201.557348 
L 132.857851 200.278595 
L 135.624793 198.82946 
L 138.391736 197.350616 
L 141.158678 195.96047 
L 143.92562 194.750981 
L 146.692562 193.785248 
L 149.459504 193.096788 
L 152.226446 192.690437 
L 154.993388 192.544873 
L 157.760331 192.616714 
L 160.527273 192.845976 
L 163.294215 193.162522 
L 166.061157 193.492935 
L 168.828099 193.767171 
L 171.595041 193.924287 
L 174.361983 193.916723 
L 177.128926 193.712789 
L 179.895868 193.297285 
L 182.66281 192.67046 
L 185.429752 191.845719 
L 188.196694 190.84657 
L 190.963636 189.703358 
L 193.730579 188.450182 
L 196.497521 187.12231 
L 199.264463 185.754197 
L 202.031405 184.378093 
L 204.798347 183.023151 
L 207.565289 181.71487 
L 210.332231 180.474761 
L 213.099174 179.320135 
L 215.866116 178.263976 
L 218.633058 177.314913 
L 221.4 176.477322 
L 224.166942 175.751581 
L 226.933884 175.134511 
L 229.700826 174.619991 
L 232.467769 174.199715 
L 235.234711 173.864047 
L 238.001653 173.602917 
L 240.768595 173.406718 
L 243.535537 173.267168 
L 246.302479 173.178149 
L 249.069421 173.136505 
L 251.836364 173.142849 
L 254.603306 173.202381 
L 257.370248 173.325718 
L 260.13719 173.529702 
L 262.904132 173.838085 
L 265.671074 174.281944 
L 268.438017 174.899586 
L 271.204959 175.73568 
L 273.971901 176.839274 
L 276.738843 178.260407 
L 279.505785 180.045074 
L 282.272727 182.228455 
L 285.039669 184.826551 
L 287.806612 187.826676 
L 290.573554 191.177596 
L 293.340496 194.780491 
L 296.107438 198.48218 
L 298.87438 202.072256 
L 301.641322 205.285707 
L 304.408264 207.812325 
L 307.175207 209.313586 
L 309.942149 209.446809 
L 312.709091 207.895354 
L 315.476033 204.402454 
L 318.242975 198.805262 
L 321.009917 191.065005 
L 323.77686 181.288915 
L 326.543802 169.740072 
L 329.310744 156.832351 
L 332.077686 143.109388 
L 334.844628 129.208505 
L 337.61157 115.812664 
L 340.378512 103.59535 
L 343.145455 93.164521 
L 345.912397 85.012098 
L 348.679339 79.474902 
L 351.446281 76.711424 
L 354.213223 76.696727 
L 356.980165 79.235291 
L 359.747107 83.989361 
L 362.51405 90.518456 
L 365.280992 98.324671 
L 368.047934 106.898144 
L 370.814876 115.757698 
L 373.581818 124.482894 
" style="fill:none;stroke:#000000;stroke-dasharray:7.4,3.2;stroke-dashoffset:0;stroke-width:2;"/>
   </g>
   <g id="PathCollection_4">
    <g clip-path="url(#p6638a9b982)">
     <use style="fill:#ff0000;stroke:#000000;" x="83.052893" xlink:href="#m3314781001" y="129.399309"/>
     <use style="fill:#ff0000;stroke:#000000;" x="96.887603" xlink:href="#m3314781001" y="162.429541"/>
     <use style="fill:#ff0000;stroke:#000000;" x="110.722314" xlink:href="#m3314781001" y="193.170209"/>
     <use style="fill:#ff0000;stroke:#000000;" x="124.557025" xlink:href="#m3314781001" y="199.248575"/>
     <use style="fill:#ff0000;stroke:#000000;" x="138.391736" xlink:href="#m3314781001" y="199.347548"/>
     <use style="fill:#ff0000;stroke:#000000;" x="152.226446" xlink:href="#m3314781001" y="191.611971"/>
     <use style="fill:#ff0000;stroke:#000000;" x="166.061157" xlink:href="#m3314781001" y="193.66847"/>
     <use style="fill:#ff0000;stroke:#000000;" x="179.895868" xlink:href="#m3314781001" y="193.283098"/>
     <use style="fill:#ff0000;stroke:#000000;" x="193.730579" xlink:href="#m3314781001" y="188.924027"/>
     <use style="fill:#ff0000;stroke:#000000;" x="318.242975" xlink:href="#m3314781001" y="199.289596"/>
     <use style="fill:#ff0000;stroke:#000000;" x="332.077686" xlink:href="#m3314781001" y="145.37007"/>
     <use style="fill:#ff0000;stroke:#000000;" x="345.912397" xlink:href="#m3314781001" y="78.407322"/>
    </g>
   </g>
  </g>
 </g>
 <defs>
  <clipPath id="p6638a9b982">
   <rect height="217.44" width="334.8" x="54" y="34.56"/>
  </clipPath>
 </defs>
</svg>
