<?xml version="1.0" encoding="utf-8" standalone="no"?>
<!DOCTYPE svg PUBLIC "-//W3C//DTD SVG 1.1//EN"
  "http://www.w3.org/Graphics/SVG/1.1/DTD/svg11.dtd">
<!-- Created with matplotlib (https://matplotlib.org/) -->
<svg height="288pt" version="1.1" viewBox="0 0 432 288" width="432pt" xmlns="http://www.w3.org/2000/svg" xmlns:xlink="http://www.w3.org/1999/xlink">
 <metadata>
  <rdf:RDF xmlns:cc="http://creativecommons.org/ns#" xmlns:dc="http://purl.org/dc/elements/1.1/" xmlns:rdf="http://www.w3.org/1999/02/22-rdf-syntax-ns#">
   <cc:Work>
    <dc:type rdf:resource="http://purl.org/dc/dcmitype/StillImage"/>
    <dc:date>2022-08-04T09:19:23.902936</dc:date>
    <dc:format>image/svg+xml</dc:format>
    <dc:creator>
     <cc:Agent>
      <dc:title>Matplotlib v3.3.2, https://matplotlib.org/</dc:title>
     </cc:Agent>
    </dc:creator>
   </cc:Work>
  </rdf:RDF>
 </metadata>
 <defs>
  <style type="text/css">*{stroke-linecap:butt;stroke-linejoin:round;}</style>
 </defs>
 <g id="figure_1">
  <g id="patch_1">
   <path d="M 0 288 
L 432 288 
L 432 0 
L 0 0 
z
" style="fill:none;"/>
  </g>
  <g id="axes_1">
   <g id="patch_2">
    <path d="M 54 252 
L 388.8 252 
L 388.8 34.56 
L 54 34.56 
z
" style="fill:#ffffff;"/>
   </g>
   <g id="PolyCollection_1">
    <defs>
     <path d="M 69.218182 -171.980909 
L 69.218182 -122.276154 
L 71.985124 -124.799161 
L 74.752066 -126.655439 
L 77.519008 -127.7497 
L 80.28595 -128.008009 
L 83.052893 -127.386096 
L 85.819835 -125.878618 
L 88.586777 -123.527428 
L 91.353719 -120.424849 
L 94.120661 -116.70803 
L 96.887603 -112.544377 
L 99.654545 -108.112968 
L 102.421488 -103.588038 
L 105.18843 -99.127715 
L 107.955372 -94.867889 
L 110.722314 -90.919668 
L 113.489256 -87.368908 
L 116.256198 -84.276879 
L 119.02314 -81.681537 
L 121.790083 -79.599148 
L 124.557025 -78.02614 
L 127.323967 -76.941175 
L 130.090909 -76.307477 
L 132.857851 -76.075498 
L 135.624793 -76.18593 
L 138.391736 -76.573046 
L 141.158678 -77.168249 
L 143.92562 -77.903664 
L 146.692562 -78.715611 
L 149.459504 -79.547741 
L 152.226446 -80.353679 
L 154.993388 -81.098941 
L 157.760331 -81.761933 
L 160.527273 -82.333783 
L 163.294215 -82.816842 
L 166.061157 -83.221783 
L 168.828099 -83.563376 
L 171.595041 -83.855203 
L 174.361983 -84.103816 
L 177.128926 -84.303163 
L 179.895868 -84.430581 
L 182.66281 -84.446266 
L 185.429752 -84.298144 
L 188.196694 -83.932605 
L 190.963636 -83.308152 
L 193.730579 -82.406089 
L 196.497521 -81.233528 
L 199.264463 -79.818894 
L 202.031405 -78.203921 
L 204.798347 -76.436039 
L 207.565289 -74.562894 
L 210.332231 -72.629019 
L 213.099174 -70.674032 
L 215.866116 -68.731783 
L 218.633058 -66.830063 
L 221.4 -64.990641 
L 224.166942 -63.229499 
L 226.933884 -61.55715 
L 229.700826 -59.978959 
L 232.467769 -58.495393 
L 235.234711 -57.102138 
L 238.001653 -55.790089 
L 240.768595 -54.545213 
L 243.535537 -53.348376 
L 246.302479 -52.175227 
L 249.069421 -50.996309 
L 251.836364 -49.777585 
L 254.603306 -48.481667 
L 257.370248 -47.070142 
L 260.13719 -45.507527 
L 262.904132 -43.767477 
L 265.671074 -41.841445 
L 268.438017 -39.748752 
L 271.204959 -37.544897 
L 273.971901 -35.323599 
L 276.738843 -33.209907 
L 279.505785 -31.34638 
L 282.272727 -29.877905 
L 285.039669 -28.94012 
L 287.806612 -28.653106 
L 290.573554 -29.119339 
L 293.340496 -30.423839 
L 296.107438 -32.6347 
L 298.87438 -35.802792 
L 301.641322 -39.960089 
L 304.408264 -45.11672 
L 307.175207 -51.257273 
L 309.942149 -58.337172 
L 312.709091 -66.279918 
L 315.476033 -74.975792 
L 318.242975 -84.282281 
L 321.009917 -94.026137 
L 323.77686 -104.006756 
L 326.543802 -114.000557 
L 329.310744 -123.76635 
L 332.077686 -133.052299 
L 334.844628 -141.605699 
L 337.61157 -149.186667 
L 340.378512 -155.58506 
L 343.145455 -160.637058 
L 345.912397 -164.236434 
L 348.679339 -166.337808 
L 351.446281 -166.953135 
L 354.213223 -166.144621 
L 356.980165 -164.016583 
L 359.747107 -160.707184 
L 362.51405 -156.380162 
L 365.280992 -151.216476 
L 368.047934 -145.405996 
L 370.814876 -139.139496 
L 373.581818 -132.601308 
L 373.581818 -200.583379 
L 373.581818 -200.583379 
L 370.814876 -203.991572 
L 368.047934 -206.818507 
L 365.280992 -208.928469 
L 362.51405 -210.197651 
L 359.747107 -210.520606 
L 356.980165 -209.816244 
L 354.213223 -208.032891 
L 351.446281 -205.151834 
L 348.679339 -201.188659 
L 345.912397 -196.191657 
L 343.145455 -190.236887 
L 340.378512 -183.420568 
L 337.61157 -175.851275 
L 334.844628 -167.645345 
L 332.077686 -158.927234 
L 329.310744 -149.832741 
L 326.543802 -140.510963 
L 323.77686 -131.122289 
L 321.009917 -121.832647 
L 318.242975 -112.805961 
L 315.476033 -104.196743 
L 312.709091 -96.144015 
L 309.942149 -88.766904 
L 307.175207 -82.161777 
L 304.408264 -76.400561 
L 301.641322 -71.529979 
L 298.87438 -67.571611 
L 296.107438 -64.522949 
L 293.340496 -62.359746 
L 290.573554 -61.039987 
L 287.806612 -60.509524 
L 285.039669 -60.709077 
L 282.272727 -61.58169 
L 279.505785 -63.079197 
L 276.738843 -65.165701 
L 273.971901 -67.815929 
L 271.204959 -71.007413 
L 268.438017 -74.708237 
L 265.671074 -78.865347 
L 262.904132 -83.399137 
L 260.13719 -88.206389 
L 257.370248 -93.169034 
L 254.603306 -98.164315 
L 251.836364 -103.07328 
L 249.069421 -107.786624 
L 246.302479 -112.208155 
L 243.535537 -116.256535 
L 240.768595 -119.865882 
L 238.001653 -122.985637 
L 235.234711 -125.580015 
L 232.467769 -127.627244 
L 229.700826 -129.118748 
L 226.933884 -130.058407 
L 224.166942 -130.461933 
L 221.4 -130.356394 
L 218.633058 -129.779836 
L 215.866116 -128.780929 
L 213.099174 -127.418531 
L 210.332231 -125.76105 
L 207.565289 -123.885459 
L 204.798347 -121.875824 
L 202.031405 -119.821097 
L 199.264463 -117.811804 
L 196.497521 -115.935096 
L 193.730579 -114.267609 
L 190.963636 -112.866236 
L 188.196694 -111.758682 
L 185.429752 -110.937824 
L 182.66281 -110.364015 
L 179.895868 -109.975627 
L 177.128926 -109.703229 
L 174.361983 -109.481599 
L 171.595041 -109.256629 
L 168.828099 -108.987564 
L 166.061157 -108.6464 
L 163.294215 -108.216172 
L 160.527273 -107.689228 
L 157.760331 -107.066021 
L 154.993388 -106.35463 
L 152.226446 -105.570945 
L 149.459504 -104.739283 
L 146.692562 -103.893112 
L 143.92562 -103.075464 
L 141.158678 -102.338715 
L 138.391736 -101.743475 
L 135.624793 -101.356465 
L 132.857851 -101.247416 
L 130.090909 -101.485117 
L 127.323967 -102.132838 
L 124.557025 -103.24348 
L 121.790083 -104.854856 
L 119.02314 -106.985621 
L 116.256198 -109.632385 
L 113.489256 -112.768512 
L 110.722314 -116.344959 
L 107.955372 -120.293345 
L 105.18843 -124.53113 
L 102.421488 -128.968496 
L 99.654545 -133.516111 
L 96.887603 -138.092331 
L 94.120661 -142.627802 
L 91.353719 -147.065226 
L 88.586777 -151.353521 
L 85.819835 -155.438903 
L 83.052893 -159.258406 
L 80.28595 -162.740279 
L 77.519008 -165.810976 
L 74.752066 -168.404642 
L 71.985124 -170.471144 
L 69.218182 -171.980909 
z
" id="m30ec79bec0" style="stroke:#add8e6;stroke-opacity:0.2;"/>
    </defs>
    <g clip-path="url(#p18ed9ca110)">
     <use style="fill:#add8e6;fill-opacity:0.2;stroke:#add8e6;stroke-opacity:0.2;" x="0" xlink:href="#m30ec79bec0" y="288"/>
    </g>
   </g>
   <g id="PathCollection_1">
    <defs>
     <path d="M 0 0.612372 
C 0.162403 0.612372 0.318176 0.547849 0.433013 0.433013 
C 0.547849 0.318176 0.612372 0.162403 0.612372 0 
C 0.612372 -0.162403 0.547849 -0.318176 0.433013 -0.433013 
C 0.318176 -0.547849 0.162403 -0.612372 0 -0.612372 
C -0.162403 -0.612372 -0.318176 -0.547849 -0.433013 -0.433013 
C -0.547849 -0.318176 -0.612372 -0.162403 -0.612372 0 
C -0.612372 0.162403 -0.547849 0.318176 -0.433013 0.433013 
C -0.318176 0.547849 -0.162403 0.612372 0 0.612372 
z
" id="mf843ff3e6c" style="stroke:#ff0000;stroke-width:8;"/>
    </defs>
    <g clip-path="url(#p18ed9ca110)">
     <use style="fill:#ff0000;stroke:#ff0000;stroke-width:8;" x="240.768595" xlink:href="#mf843ff3e6c" y="234.437571"/>
    </g>
   </g>
   <g id="matplotlib.axis_1">
    <g id="xtick_1">
     <g id="line2d_1">
      <defs>
       <path d="M 0 0 
L 0 3.5 
" id="m08e41416ed" style="stroke:#000000;stroke-width:0.8;"/>
      </defs>
      <g>
       <use style="stroke:#000000;stroke-width:0.8;" x="69.218182" xlink:href="#m08e41416ed" y="252"/>
      </g>
     </g>
     <g id="text_1">
      <!-- 0 -->
      <g transform="translate(66.036932 266.598437)scale(0.1 -0.1)">
       <defs>
        <path d="M 31.78125 66.40625 
Q 24.171875 66.40625 20.328125 58.90625 
Q 16.5 51.421875 16.5 36.375 
Q 16.5 21.390625 20.328125 13.890625 
Q 24.171875 6.390625 31.78125 6.390625 
Q 39.453125 6.390625 43.28125 13.890625 
Q 47.125 21.390625 47.125 36.375 
Q 47.125 51.421875 43.28125 58.90625 
Q 39.453125 66.40625 31.78125 66.40625 
z
M 31.78125 74.21875 
Q 44.046875 74.21875 50.515625 64.515625 
Q 56.984375 54.828125 56.984375 36.375 
Q 56.984375 17.96875 50.515625 8.265625 
Q 44.046875 -1.421875 31.78125 -1.421875 
Q 19.53125 -1.421875 13.0625 8.265625 
Q 6.59375 17.96875 6.59375 36.375 
Q 6.59375 54.828125 13.0625 64.515625 
Q 19.53125 74.21875 31.78125 74.21875 
z
" id="DejaVuSans-48"/>
       </defs>
       <use xlink:href="#DejaVuSans-48"/>
      </g>
     </g>
    </g>
    <g id="xtick_2">
     <g id="line2d_2">
      <g>
       <use style="stroke:#000000;stroke-width:0.8;" x="124.557025" xlink:href="#m08e41416ed" y="252"/>
      </g>
     </g>
     <g id="text_2">
      <!-- 2 -->
      <g transform="translate(121.375775 266.598437)scale(0.1 -0.1)">
       <defs>
        <path d="M 19.1875 8.296875 
L 53.609375 8.296875 
L 53.609375 0 
L 7.328125 0 
L 7.328125 8.296875 
Q 12.9375 14.109375 22.625 23.890625 
Q 32.328125 33.6875 34.8125 36.53125 
Q 39.546875 41.84375 41.421875 45.53125 
Q 43.3125 49.21875 43.3125 52.78125 
Q 43.3125 58.59375 39.234375 62.25 
Q 35.15625 65.921875 28.609375 65.921875 
Q 23.96875 65.921875 18.8125 64.3125 
Q 13.671875 62.703125 7.8125 59.421875 
L 7.8125 69.390625 
Q 13.765625 71.78125 18.9375 73 
Q 24.125 74.21875 28.421875 74.21875 
Q 39.75 74.21875 46.484375 68.546875 
Q 53.21875 62.890625 53.21875 53.421875 
Q 53.21875 48.921875 51.53125 44.890625 
Q 49.859375 40.875 45.40625 35.40625 
Q 44.1875 33.984375 37.640625 27.21875 
Q 31.109375 20.453125 19.1875 8.296875 
z
" id="DejaVuSans-50"/>
       </defs>
       <use xlink:href="#DejaVuSans-50"/>
      </g>
     </g>
    </g>
    <g id="xtick_3">
     <g id="line2d_3">
      <g>
       <use style="stroke:#000000;stroke-width:0.8;" x="179.895868" xlink:href="#m08e41416ed" y="252"/>
      </g>
     </g>
     <g id="text_3">
      <!-- 4 -->
      <g transform="translate(176.714618 266.598437)scale(0.1 -0.1)">
       <defs>
        <path d="M 37.796875 64.3125 
L 12.890625 25.390625 
L 37.796875 25.390625 
z
M 35.203125 72.90625 
L 47.609375 72.90625 
L 47.609375 25.390625 
L 58.015625 25.390625 
L 58.015625 17.1875 
L 47.609375 17.1875 
L 47.609375 0 
L 37.796875 0 
L 37.796875 17.1875 
L 4.890625 17.1875 
L 4.890625 26.703125 
z
" id="DejaVuSans-52"/>
       </defs>
       <use xlink:href="#DejaVuSans-52"/>
      </g>
     </g>
    </g>
    <g id="xtick_4">
     <g id="line2d_4">
      <g>
       <use style="stroke:#000000;stroke-width:0.8;" x="235.234711" xlink:href="#m08e41416ed" y="252"/>
      </g>
     </g>
     <g id="text_4">
      <!-- 6 -->
      <g transform="translate(232.053461 266.598437)scale(0.1 -0.1)">
       <defs>
        <path d="M 33.015625 40.375 
Q 26.375 40.375 22.484375 35.828125 
Q 18.609375 31.296875 18.609375 23.390625 
Q 18.609375 15.53125 22.484375 10.953125 
Q 26.375 6.390625 33.015625 6.390625 
Q 39.65625 6.390625 43.53125 10.953125 
Q 47.40625 15.53125 47.40625 23.390625 
Q 47.40625 31.296875 43.53125 35.828125 
Q 39.65625 40.375 33.015625 40.375 
z
M 52.59375 71.296875 
L 52.59375 62.3125 
Q 48.875 64.0625 45.09375 64.984375 
Q 41.3125 65.921875 37.59375 65.921875 
Q 27.828125 65.921875 22.671875 59.328125 
Q 17.53125 52.734375 16.796875 39.40625 
Q 19.671875 43.65625 24.015625 45.921875 
Q 28.375 48.1875 33.59375 48.1875 
Q 44.578125 48.1875 50.953125 41.515625 
Q 57.328125 34.859375 57.328125 23.390625 
Q 57.328125 12.15625 50.6875 5.359375 
Q 44.046875 -1.421875 33.015625 -1.421875 
Q 20.359375 -1.421875 13.671875 8.265625 
Q 6.984375 17.96875 6.984375 36.375 
Q 6.984375 53.65625 15.1875 63.9375 
Q 23.390625 74.21875 37.203125 74.21875 
Q 40.921875 74.21875 44.703125 73.484375 
Q 48.484375 72.75 52.59375 71.296875 
z
" id="DejaVuSans-54"/>
       </defs>
       <use xlink:href="#DejaVuSans-54"/>
      </g>
     </g>
    </g>
    <g id="xtick_5">
     <g id="line2d_5">
      <g>
       <use style="stroke:#000000;stroke-width:0.8;" x="290.573554" xlink:href="#m08e41416ed" y="252"/>
      </g>
     </g>
     <g id="text_5">
      <!-- 8 -->
      <g transform="translate(287.392304 266.598437)scale(0.1 -0.1)">
       <defs>
        <path d="M 31.78125 34.625 
Q 24.75 34.625 20.71875 30.859375 
Q 16.703125 27.09375 16.703125 20.515625 
Q 16.703125 13.921875 20.71875 10.15625 
Q 24.75 6.390625 31.78125 6.390625 
Q 38.8125 6.390625 42.859375 10.171875 
Q 46.921875 13.96875 46.921875 20.515625 
Q 46.921875 27.09375 42.890625 30.859375 
Q 38.875 34.625 31.78125 34.625 
z
M 21.921875 38.8125 
Q 15.578125 40.375 12.03125 44.71875 
Q 8.5 49.078125 8.5 55.328125 
Q 8.5 64.0625 14.71875 69.140625 
Q 20.953125 74.21875 31.78125 74.21875 
Q 42.671875 74.21875 48.875 69.140625 
Q 55.078125 64.0625 55.078125 55.328125 
Q 55.078125 49.078125 51.53125 44.71875 
Q 48 40.375 41.703125 38.8125 
Q 48.828125 37.15625 52.796875 32.3125 
Q 56.78125 27.484375 56.78125 20.515625 
Q 56.78125 9.90625 50.3125 4.234375 
Q 43.84375 -1.421875 31.78125 -1.421875 
Q 19.734375 -1.421875 13.25 4.234375 
Q 6.78125 9.90625 6.78125 20.515625 
Q 6.78125 27.484375 10.78125 32.3125 
Q 14.796875 37.15625 21.921875 38.8125 
z
M 18.3125 54.390625 
Q 18.3125 48.734375 21.84375 45.5625 
Q 25.390625 42.390625 31.78125 42.390625 
Q 38.140625 42.390625 41.71875 45.5625 
Q 45.3125 48.734375 45.3125 54.390625 
Q 45.3125 60.0625 41.71875 63.234375 
Q 38.140625 66.40625 31.78125 66.40625 
Q 25.390625 66.40625 21.84375 63.234375 
Q 18.3125 60.0625 18.3125 54.390625 
z
" id="DejaVuSans-56"/>
       </defs>
       <use xlink:href="#DejaVuSans-56"/>
      </g>
     </g>
    </g>
    <g id="xtick_6">
     <g id="line2d_6">
      <g>
       <use style="stroke:#000000;stroke-width:0.8;" x="345.912397" xlink:href="#m08e41416ed" y="252"/>
      </g>
     </g>
     <g id="text_6">
      <!-- 10 -->
      <g transform="translate(339.549897 266.598437)scale(0.1 -0.1)">
       <defs>
        <path d="M 12.40625 8.296875 
L 28.515625 8.296875 
L 28.515625 63.921875 
L 10.984375 60.40625 
L 10.984375 69.390625 
L 28.421875 72.90625 
L 38.28125 72.90625 
L 38.28125 8.296875 
L 54.390625 8.296875 
L 54.390625 0 
L 12.40625 0 
z
" id="DejaVuSans-49"/>
       </defs>
       <use xlink:href="#DejaVuSans-49"/>
       <use x="63.623047" xlink:href="#DejaVuSans-48"/>
      </g>
     </g>
    </g>
    <g id="text_7">
     <!-- x -->
     <g transform="translate(217.84875 281.79625)scale(0.12 -0.12)">
      <defs>
       <path d="M 54.890625 54.6875 
L 35.109375 28.078125 
L 55.90625 0 
L 45.3125 0 
L 29.390625 21.484375 
L 13.484375 0 
L 2.875 0 
L 24.125 28.609375 
L 4.6875 54.6875 
L 15.28125 54.6875 
L 29.78125 35.203125 
L 44.28125 54.6875 
z
" id="DejaVuSans-120"/>
      </defs>
      <use xlink:href="#DejaVuSans-120"/>
     </g>
    </g>
   </g>
   <g id="matplotlib.axis_2">
    <g id="ytick_1">
     <g id="line2d_7">
      <defs>
       <path d="M 0 0 
L -3.5 0 
" id="m51b715c44c" style="stroke:#000000;stroke-width:0.8;"/>
      </defs>
      <g>
       <use style="stroke:#000000;stroke-width:0.8;" x="54" xlink:href="#m51b715c44c" y="252"/>
      </g>
     </g>
     <g id="text_8">
      <!-- 3 -->
      <g transform="translate(40.6375 255.799219)scale(0.1 -0.1)">
       <defs>
        <path d="M 40.578125 39.3125 
Q 47.65625 37.796875 51.625 33 
Q 55.609375 28.21875 55.609375 21.1875 
Q 55.609375 10.40625 48.1875 4.484375 
Q 40.765625 -1.421875 27.09375 -1.421875 
Q 22.515625 -1.421875 17.65625 -0.515625 
Q 12.796875 0.390625 7.625 2.203125 
L 7.625 11.71875 
Q 11.71875 9.328125 16.59375 8.109375 
Q 21.484375 6.890625 26.8125 6.890625 
Q 36.078125 6.890625 40.9375 10.546875 
Q 45.796875 14.203125 45.796875 21.1875 
Q 45.796875 27.640625 41.28125 31.265625 
Q 36.765625 34.90625 28.71875 34.90625 
L 20.21875 34.90625 
L 20.21875 43.015625 
L 29.109375 43.015625 
Q 36.375 43.015625 40.234375 45.921875 
Q 44.09375 48.828125 44.09375 54.296875 
Q 44.09375 59.90625 40.109375 62.90625 
Q 36.140625 65.921875 28.71875 65.921875 
Q 24.65625 65.921875 20.015625 65.03125 
Q 15.375 64.15625 9.8125 62.3125 
L 9.8125 71.09375 
Q 15.4375 72.65625 20.34375 73.4375 
Q 25.25 74.21875 29.59375 74.21875 
Q 40.828125 74.21875 47.359375 69.109375 
Q 53.90625 64.015625 53.90625 55.328125 
Q 53.90625 49.265625 50.4375 45.09375 
Q 46.96875 40.921875 40.578125 39.3125 
z
" id="DejaVuSans-51"/>
       </defs>
       <use xlink:href="#DejaVuSans-51"/>
      </g>
     </g>
    </g>
    <g id="ytick_2">
     <g id="line2d_8">
      <g>
       <use style="stroke:#000000;stroke-width:0.8;" x="54" xlink:href="#m51b715c44c" y="215.76"/>
      </g>
     </g>
     <g id="text_9">
      <!-- 4 -->
      <g transform="translate(40.6375 219.559219)scale(0.1 -0.1)">
       <use xlink:href="#DejaVuSans-52"/>
      </g>
     </g>
    </g>
    <g id="ytick_3">
     <g id="line2d_9">
      <g>
       <use style="stroke:#000000;stroke-width:0.8;" x="54" xlink:href="#m51b715c44c" y="179.52"/>
      </g>
     </g>
     <g id="text_10">
      <!-- 5 -->
      <g transform="translate(40.6375 183.319219)scale(0.1 -0.1)">
       <defs>
        <path d="M 10.796875 72.90625 
L 49.515625 72.90625 
L 49.515625 64.59375 
L 19.828125 64.59375 
L 19.828125 46.734375 
Q 21.96875 47.46875 24.109375 47.828125 
Q 26.265625 48.1875 28.421875 48.1875 
Q 40.625 48.1875 47.75 41.5 
Q 54.890625 34.8125 54.890625 23.390625 
Q 54.890625 11.625 47.5625 5.09375 
Q 40.234375 -1.421875 26.90625 -1.421875 
Q 22.3125 -1.421875 17.546875 -0.640625 
Q 12.796875 0.140625 7.71875 1.703125 
L 7.71875 11.625 
Q 12.109375 9.234375 16.796875 8.0625 
Q 21.484375 6.890625 26.703125 6.890625 
Q 35.15625 6.890625 40.078125 11.328125 
Q 45.015625 15.765625 45.015625 23.390625 
Q 45.015625 31 40.078125 35.4375 
Q 35.15625 39.890625 26.703125 39.890625 
Q 22.75 39.890625 18.8125 39.015625 
Q 14.890625 38.140625 10.796875 36.28125 
z
" id="DejaVuSans-53"/>
       </defs>
       <use xlink:href="#DejaVuSans-53"/>
      </g>
     </g>
    </g>
    <g id="ytick_4">
     <g id="line2d_10">
      <g>
       <use style="stroke:#000000;stroke-width:0.8;" x="54" xlink:href="#m51b715c44c" y="143.28"/>
      </g>
     </g>
     <g id="text_11">
      <!-- 6 -->
      <g transform="translate(40.6375 147.079219)scale(0.1 -0.1)">
       <use xlink:href="#DejaVuSans-54"/>
      </g>
     </g>
    </g>
    <g id="ytick_5">
     <g id="line2d_11">
      <g>
       <use style="stroke:#000000;stroke-width:0.8;" x="54" xlink:href="#m51b715c44c" y="107.04"/>
      </g>
     </g>
     <g id="text_12">
      <!-- 7 -->
      <g transform="translate(40.6375 110.839219)scale(0.1 -0.1)">
       <defs>
        <path d="M 8.203125 72.90625 
L 55.078125 72.90625 
L 55.078125 68.703125 
L 28.609375 0 
L 18.3125 0 
L 43.21875 64.59375 
L 8.203125 64.59375 
z
" id="DejaVuSans-55"/>
       </defs>
       <use xlink:href="#DejaVuSans-55"/>
      </g>
     </g>
    </g>
    <g id="ytick_6">
     <g id="line2d_12">
      <g>
       <use style="stroke:#000000;stroke-width:0.8;" x="54" xlink:href="#m51b715c44c" y="70.8"/>
      </g>
     </g>
     <g id="text_13">
      <!-- 8 -->
      <g transform="translate(40.6375 74.599219)scale(0.1 -0.1)">
       <use xlink:href="#DejaVuSans-56"/>
      </g>
     </g>
    </g>
    <g id="ytick_7">
     <g id="line2d_13">
      <g>
       <use style="stroke:#000000;stroke-width:0.8;" x="54" xlink:href="#m51b715c44c" y="34.56"/>
      </g>
     </g>
     <g id="text_14">
      <!-- 9 -->
      <g transform="translate(40.6375 38.359219)scale(0.1 -0.1)">
       <defs>
        <path d="M 10.984375 1.515625 
L 10.984375 10.5 
Q 14.703125 8.734375 18.5 7.8125 
Q 22.3125 6.890625 25.984375 6.890625 
Q 35.75 6.890625 40.890625 13.453125 
Q 46.046875 20.015625 46.78125 33.40625 
Q 43.953125 29.203125 39.59375 26.953125 
Q 35.25 24.703125 29.984375 24.703125 
Q 19.046875 24.703125 12.671875 31.3125 
Q 6.296875 37.9375 6.296875 49.421875 
Q 6.296875 60.640625 12.9375 67.421875 
Q 19.578125 74.21875 30.609375 74.21875 
Q 43.265625 74.21875 49.921875 64.515625 
Q 56.59375 54.828125 56.59375 36.375 
Q 56.59375 19.140625 48.40625 8.859375 
Q 40.234375 -1.421875 26.421875 -1.421875 
Q 22.703125 -1.421875 18.890625 -0.6875 
Q 15.09375 0.046875 10.984375 1.515625 
z
M 30.609375 32.421875 
Q 37.25 32.421875 41.125 36.953125 
Q 45.015625 41.5 45.015625 49.421875 
Q 45.015625 57.28125 41.125 61.84375 
Q 37.25 66.40625 30.609375 66.40625 
Q 23.96875 66.40625 20.09375 61.84375 
Q 16.21875 57.28125 16.21875 49.421875 
Q 16.21875 41.5 20.09375 36.953125 
Q 23.96875 32.421875 30.609375 32.421875 
z
" id="DejaVuSans-57"/>
       </defs>
       <use xlink:href="#DejaVuSans-57"/>
      </g>
     </g>
    </g>
    <g id="text_15">
     <!-- y -->
     <g transform="translate(34.141875 146.83125)rotate(-90)scale(0.12 -0.12)">
      <defs>
       <path d="M 32.171875 -5.078125 
Q 28.375 -14.84375 24.75 -17.8125 
Q 21.140625 -20.796875 15.09375 -20.796875 
L 7.90625 -20.796875 
L 7.90625 -13.28125 
L 13.1875 -13.28125 
Q 16.890625 -13.28125 18.9375 -11.515625 
Q 21 -9.765625 23.484375 -3.21875 
L 25.09375 0.875 
L 2.984375 54.6875 
L 12.5 54.6875 
L 29.59375 11.921875 
L 46.6875 54.6875 
L 56.203125 54.6875 
z
" id="DejaVuSans-121"/>
      </defs>
      <use xlink:href="#DejaVuSans-121"/>
     </g>
    </g>
   </g>
   <g id="line2d_14">
    <path clip-path="url(#p18ed9ca110)" d="M 69.218182 70.8 
L 71.985124 85.083949 
L 74.752066 98.25467 
L 77.519008 110.364828 
L 80.28595 121.465955 
L 83.052893 131.608455 
L 85.819835 140.841599 
L 88.586777 149.213528 
L 91.353719 156.771253 
L 94.120661 163.560654 
L 96.887603 169.62648 
L 99.654545 175.012349 
L 102.421488 179.76075 
L 105.18843 183.913038 
L 107.955372 187.509441 
L 110.722314 190.589055 
L 113.489256 193.189844 
L 116.256198 195.348643 
L 119.02314 197.101155 
L 121.790083 198.481953 
L 124.557025 199.52448 
L 127.323967 200.261047 
L 130.090909 200.722835 
L 132.857851 200.939895 
L 135.624793 200.941145 
L 138.391736 200.754375 
L 141.158678 200.406243 
L 143.92562 199.922276 
L 146.692562 199.326871 
L 149.459504 198.643294 
L 152.226446 197.89368 
L 154.993388 197.099035 
L 157.760331 196.279231 
L 160.527273 195.453014 
L 163.294215 194.637994 
L 166.061157 193.850655 
L 168.828099 193.106347 
L 171.595041 192.419291 
L 174.361983 191.802577 
L 177.128926 191.268164 
L 179.895868 190.82688 
L 182.66281 190.488424 
L 185.429752 190.261362 
L 188.196694 190.153131 
L 190.963636 190.170037 
L 193.730579 190.317255 
L 196.497521 190.598829 
L 199.264463 191.017673 
L 202.031405 191.575569 
L 204.798347 192.273171 
L 207.565289 193.11 
L 210.332231 194.084446 
L 213.099174 195.193771 
L 215.866116 196.434103 
L 218.633058 197.800442 
L 221.4 199.286655 
L 224.166942 200.88548 
L 226.933884 202.588525 
L 229.700826 204.386264 
L 232.467769 206.268045 
L 235.234711 208.22208 
L 238.001653 210.235455 
L 240.768595 212.294122 
L 243.535537 214.382905 
L 246.302479 216.485496 
L 249.069421 218.584455 
L 251.836364 220.661214 
L 254.603306 222.696071 
L 257.370248 224.668198 
L 260.13719 226.555631 
L 262.904132 228.33528 
L 265.671074 229.982921 
L 268.438017 231.4732 
L 271.204959 232.779634 
L 273.971901 233.874607 
L 276.738843 234.729375 
L 279.505785 235.31406 
L 282.272727 235.597656 
L 285.039669 235.548026 
L 287.806612 235.1319 
L 290.573554 234.31488 
L 293.340496 233.061436 
L 296.107438 231.334908 
L 298.87438 229.097505 
L 301.641322 226.310305 
L 304.408264 222.933255 
L 307.175207 218.925173 
L 309.942149 214.243744 
L 312.709091 208.845524 
L 315.476033 202.685938 
L 318.242975 195.71928 
L 321.009917 187.898713 
L 323.77686 179.176271 
L 326.543802 169.502854 
L 329.310744 158.828236 
L 332.077686 147.101055 
L 334.844628 134.268823 
L 337.61157 120.277918 
L 340.378512 105.073589 
L 343.145455 88.599954 
L 345.912397 70.8 
L 348.679339 51.615584 
L 351.446281 30.987432 
L 354.213223 8.855138 
L 355.363895 -1 
" style="fill:none;stroke:#0000ff;stroke-linecap:square;stroke-width:2;"/>
   </g>
   <g id="line2d_15">
    <path clip-path="url(#p18ed9ca110)" d="M 69.218182 165.723846 
L 71.985124 163.200839 
L 74.752066 161.344561 
L 77.519008 160.2503 
L 80.28595 159.991991 
L 83.052893 160.613904 
L 85.819835 162.121382 
L 88.586777 164.472572 
L 91.353719 167.575151 
L 94.120661 171.29197 
L 96.887603 175.455623 
L 99.654545 179.887032 
L 102.421488 184.411962 
L 105.18843 188.872285 
L 107.955372 193.132111 
L 110.722314 197.080332 
L 113.489256 200.631092 
L 116.256198 203.723121 
L 119.02314 206.318463 
L 121.790083 208.400852 
L 124.557025 209.97386 
L 127.323967 211.058825 
L 130.090909 211.692523 
L 132.857851 211.924502 
L 135.624793 211.81407 
L 138.391736 211.426954 
L 141.158678 210.831751 
L 143.92562 210.096336 
L 146.692562 209.284389 
L 149.459504 208.452259 
L 152.226446 207.646321 
L 154.993388 206.901059 
L 157.760331 206.238067 
L 160.527273 205.666217 
L 163.294215 205.183158 
L 166.061157 204.778217 
L 168.828099 204.436624 
L 171.595041 204.144797 
L 174.361983 203.896184 
L 177.128926 203.696837 
L 179.895868 203.569419 
L 182.66281 203.553734 
L 185.429752 203.701856 
L 188.196694 204.067395 
L 190.963636 204.691848 
L 193.730579 205.593911 
L 196.497521 206.766472 
L 199.264463 208.181106 
L 202.031405 209.796079 
L 204.798347 211.563961 
L 207.565289 213.437106 
L 210.332231 215.370981 
L 213.099174 217.325968 
L 215.866116 219.268217 
L 218.633058 221.169937 
L 221.4 223.009359 
L 224.166942 224.770501 
L 226.933884 226.44285 
L 229.700826 228.021041 
L 232.467769 229.504607 
L 235.234711 230.897862 
L 238.001653 232.209911 
L 240.768595 233.454787 
L 243.535537 234.651624 
L 246.302479 235.824773 
L 249.069421 237.003691 
L 251.836364 238.222415 
L 254.603306 239.518333 
L 257.370248 240.929858 
L 260.13719 242.492473 
L 262.904132 244.232523 
L 265.671074 246.158555 
L 268.438017 248.251248 
L 271.204959 250.455103 
L 273.971901 252.676401 
L 276.738843 254.790093 
L 279.505785 256.65362 
L 282.272727 258.122095 
L 285.039669 259.05988 
L 287.806612 259.346894 
L 290.573554 258.880661 
L 293.340496 257.576161 
L 296.107438 255.3653 
L 298.87438 252.197208 
L 301.641322 248.039911 
L 304.408264 242.88328 
L 307.175207 236.742727 
L 309.942149 229.662828 
L 312.709091 221.720082 
L 315.476033 213.024208 
L 318.242975 203.717719 
L 321.009917 193.973863 
L 323.77686 183.993244 
L 326.543802 173.999443 
L 329.310744 164.23365 
L 332.077686 154.947701 
L 334.844628 146.394301 
L 337.61157 138.813333 
L 340.378512 132.41494 
L 343.145455 127.362942 
L 345.912397 123.763566 
L 348.679339 121.662192 
L 351.446281 121.046865 
L 354.213223 121.855379 
L 356.980165 123.983417 
L 359.747107 127.292816 
L 362.51405 131.619838 
L 365.280992 136.783524 
L 368.047934 142.594004 
L 370.814876 148.860504 
L 373.581818 155.398692 
" style="fill:none;stroke:#008000;stroke-dasharray:3.7,1.6;stroke-dashoffset:0;"/>
   </g>
   <g id="line2d_16">
    <path clip-path="url(#p18ed9ca110)" d="M 69.218182 116.019091 
L 71.985124 117.528856 
L 74.752066 119.595358 
L 77.519008 122.189024 
L 80.28595 125.259721 
L 83.052893 128.741594 
L 85.819835 132.561097 
L 88.586777 136.646479 
L 91.353719 140.934774 
L 94.120661 145.372198 
L 96.887603 149.907669 
L 99.654545 154.483889 
L 102.421488 159.031504 
L 105.18843 163.46887 
L 107.955372 167.706655 
L 110.722314 171.655041 
L 113.489256 175.231488 
L 116.256198 178.367615 
L 119.02314 181.014379 
L 121.790083 183.145144 
L 124.557025 184.75652 
L 127.323967 185.867162 
L 130.090909 186.514883 
L 132.857851 186.752584 
L 135.624793 186.643535 
L 138.391736 186.256525 
L 141.158678 185.661285 
L 143.92562 184.924536 
L 146.692562 184.106888 
L 149.459504 183.260717 
L 152.226446 182.429055 
L 154.993388 181.64537 
L 157.760331 180.933979 
L 160.527273 180.310772 
L 163.294215 179.783828 
L 166.061157 179.3536 
L 168.828099 179.012436 
L 171.595041 178.743371 
L 174.361983 178.518401 
L 177.128926 178.296771 
L 179.895868 178.024373 
L 182.66281 177.635985 
L 185.429752 177.062176 
L 188.196694 176.241318 
L 190.963636 175.133764 
L 193.730579 173.732391 
L 196.497521 172.064904 
L 199.264463 170.188196 
L 202.031405 168.178903 
L 204.798347 166.124176 
L 207.565289 164.114541 
L 210.332231 162.23895 
L 213.099174 160.581469 
L 215.866116 159.219071 
L 218.633058 158.220164 
L 221.4 157.643606 
L 224.166942 157.538067 
L 226.933884 157.941593 
L 229.700826 158.881252 
L 232.467769 160.372756 
L 235.234711 162.419985 
L 238.001653 165.014363 
L 240.768595 168.134118 
L 243.535537 171.743465 
L 246.302479 175.791845 
L 249.069421 180.213376 
L 251.836364 184.92672 
L 254.603306 189.835685 
L 257.370248 194.830966 
L 260.13719 199.793611 
L 262.904132 204.600863 
L 265.671074 209.134653 
L 268.438017 213.291763 
L 271.204959 216.992587 
L 273.971901 220.184071 
L 276.738843 222.834299 
L 279.505785 224.920803 
L 282.272727 226.41831 
L 285.039669 227.290923 
L 287.806612 227.490476 
L 290.573554 226.960013 
L 293.340496 225.640254 
L 296.107438 223.477051 
L 298.87438 220.428389 
L 301.641322 216.470021 
L 304.408264 211.599439 
L 307.175207 205.838223 
L 309.942149 199.233096 
L 312.709091 191.855985 
L 315.476033 183.803257 
L 318.242975 175.194039 
L 321.009917 166.167353 
L 323.77686 156.877711 
L 326.543802 147.489037 
L 329.310744 138.167259 
L 332.077686 129.072766 
L 334.844628 120.354655 
L 337.61157 112.148725 
L 340.378512 104.579432 
L 343.145455 97.763113 
L 345.912397 91.808343 
L 348.679339 86.811341 
L 351.446281 82.848166 
L 354.213223 79.967109 
L 356.980165 78.183756 
L 359.747107 77.479394 
L 362.51405 77.802349 
L 365.280992 79.071531 
L 368.047934 81.181493 
L 370.814876 84.008428 
L 373.581818 87.416621 
" style="fill:none;stroke:#008000;stroke-dasharray:3.7,1.6;stroke-dashoffset:0;"/>
   </g>
   <g id="line2d_17">
    <path clip-path="url(#p18ed9ca110)" d="M 69.218182 255.36777 
L 71.985124 254.908338 
L 74.752066 254.478532 
L 77.519008 254.390704 
L 80.28595 254.025149 
L 83.052893 253.673982 
L 85.819835 253.643363 
L 88.586777 253.498803 
L 91.353719 253.151532 
L 94.120661 253.073181 
L 96.887603 252.819821 
L 99.654545 252.733719 
L 102.421488 252.369707 
L 105.18843 252.445056 
L 107.955372 252.322466 
L 110.722314 252.201705 
L 113.489256 252.056439 
L 116.256198 252.028347 
L 119.02314 251.733472 
L 121.790083 251.590097 
L 124.557025 251.383067 
L 127.323967 251.20156 
L 130.090909 251.212258 
L 132.857851 251.214266 
L 135.624793 251.311172 
L 138.391736 251.306701 
L 141.158678 251.388375 
L 143.92562 251.417374 
L 146.692562 251.776645 
L 149.459504 251.614043 
L 152.226446 251.555878 
L 154.993388 251.508077 
L 157.760331 251.664192 
L 160.527273 251.373719 
L 163.294215 251.504635 
L 166.061157 251.545456 
L 168.828099 251.574018 
L 171.595041 251.447929 
L 174.361983 251.542864 
L 177.128926 251.674512 
L 179.895868 251.518421 
L 182.66281 251.496651 
L 185.429752 251.638651 
L 188.196694 251.73695 
L 190.963636 251.728168 
L 193.730579 251.689193 
L 196.497521 251.774263 
L 199.264463 251.905431 
L 202.031405 251.93327 
L 204.798347 251.665931 
L 207.565289 252.118195 
L 210.332231 250.969271 
L 213.099174 251.721873 
L 215.866116 251.89846 
L 218.633058 250.943259 
L 221.4 252.050424 
L 224.166942 251.294841 
L 226.933884 249.894363 
L 229.700826 252.216784 
L 232.467769 248.965664 
L 235.234711 248.861813 
L 238.001653 247.573666 
L 240.768595 234.437571 
L 243.535537 246.104321 
L 246.302479 242.509841 
L 249.069421 245.552446 
L 251.836364 243.094785 
L 254.603306 240.372824 
L 257.370248 241.194237 
L 260.13719 245.858556 
L 262.904132 246.725976 
L 265.671074 254.088127 
L 268.438017 247.844481 
L 271.204959 245.260365 
L 273.971901 254.215781 
L 276.738843 256.469456 
L 279.505785 255.362114 
L 282.272727 237.313007 
L 285.039669 257.657929 
L 287.806612 247.622742 
L 290.573554 253.352832 
L 293.340496 245.805804 
L 296.107438 251.315865 
L 298.87438 251.453945 
L 301.641322 245.539501 
L 304.408264 248.228853 
L 307.175207 249.817393 
L 309.942149 244.989527 
L 312.709091 243.620309 
L 315.476033 249.45025 
L 318.242975 252.218035 
L 321.009917 254.049837 
L 323.77686 253.741778 
L 326.543802 253.413478 
L 329.310744 253.64252 
L 332.077686 253.740369 
L 334.844628 254.582598 
L 337.61157 255.306989 
L 340.378512 255.343254 
L 343.145455 256.441888 
L 345.912397 256.520591 
L 348.679339 257.134875 
L 351.446281 257.630135 
L 354.213223 257.421412 
L 356.980165 257.577542 
L 359.747107 257.25975 
L 362.51405 258.518624 
L 365.280992 258.503487 
L 368.047934 259.370008 
L 370.814876 259.130585 
L 373.581818 258.715542 
" style="fill:none;stroke:#bfbf00;stroke-dasharray:7.4,3.2;stroke-dashoffset:0;stroke-width:2;"/>
   </g>
   <g id="patch_3">
    <path d="M 54 252 
L 54 34.56 
" style="fill:none;stroke:#000000;stroke-linecap:square;stroke-linejoin:miter;stroke-width:0.8;"/>
   </g>
   <g id="patch_4">
    <path d="M 388.8 252 
L 388.8 34.56 
" style="fill:none;stroke:#000000;stroke-linecap:square;stroke-linejoin:miter;stroke-width:0.8;"/>
   </g>
   <g id="patch_5">
    <path d="M 54 252 
L 388.8 252 
" style="fill:none;stroke:#000000;stroke-linecap:square;stroke-linejoin:miter;stroke-width:0.8;"/>
   </g>
   <g id="patch_6">
    <path d="M 54 34.56 
L 388.8 34.56 
" style="fill:none;stroke:#000000;stroke-linecap:square;stroke-linejoin:miter;stroke-width:0.8;"/>
   </g>
   <g id="text_16">
    <!-- Method : KG -->
    <g transform="translate(71.985124 244.752)scale(0.12 -0.12)">
     <defs>
      <path d="M 9.8125 72.90625 
L 24.515625 72.90625 
L 43.109375 23.296875 
L 61.8125 72.90625 
L 76.515625 72.90625 
L 76.515625 0 
L 66.890625 0 
L 66.890625 64.015625 
L 48.09375 14.015625 
L 38.1875 14.015625 
L 19.390625 64.015625 
L 19.390625 0 
L 9.8125 0 
z
" id="DejaVuSans-77"/>
      <path d="M 56.203125 29.59375 
L 56.203125 25.203125 
L 14.890625 25.203125 
Q 15.484375 15.921875 20.484375 11.0625 
Q 25.484375 6.203125 34.421875 6.203125 
Q 39.59375 6.203125 44.453125 7.46875 
Q 49.3125 8.734375 54.109375 11.28125 
L 54.109375 2.78125 
Q 49.265625 0.734375 44.1875 -0.34375 
Q 39.109375 -1.421875 33.890625 -1.421875 
Q 20.796875 -1.421875 13.15625 6.1875 
Q 5.515625 13.8125 5.515625 26.8125 
Q 5.515625 40.234375 12.765625 48.109375 
Q 20.015625 56 32.328125 56 
Q 43.359375 56 49.78125 48.890625 
Q 56.203125 41.796875 56.203125 29.59375 
z
M 47.21875 32.234375 
Q 47.125 39.59375 43.09375 43.984375 
Q 39.0625 48.390625 32.421875 48.390625 
Q 24.90625 48.390625 20.390625 44.140625 
Q 15.875 39.890625 15.1875 32.171875 
z
" id="DejaVuSans-101"/>
      <path d="M 18.3125 70.21875 
L 18.3125 54.6875 
L 36.8125 54.6875 
L 36.8125 47.703125 
L 18.3125 47.703125 
L 18.3125 18.015625 
Q 18.3125 11.328125 20.140625 9.421875 
Q 21.96875 7.515625 27.59375 7.515625 
L 36.8125 7.515625 
L 36.8125 0 
L 27.59375 0 
Q 17.1875 0 13.234375 3.875 
Q 9.28125 7.765625 9.28125 18.015625 
L 9.28125 47.703125 
L 2.6875 47.703125 
L 2.6875 54.6875 
L 9.28125 54.6875 
L 9.28125 70.21875 
z
" id="DejaVuSans-116"/>
      <path d="M 54.890625 33.015625 
L 54.890625 0 
L 45.90625 0 
L 45.90625 32.71875 
Q 45.90625 40.484375 42.875 44.328125 
Q 39.84375 48.1875 33.796875 48.1875 
Q 26.515625 48.1875 22.3125 43.546875 
Q 18.109375 38.921875 18.109375 30.90625 
L 18.109375 0 
L 9.078125 0 
L 9.078125 75.984375 
L 18.109375 75.984375 
L 18.109375 46.1875 
Q 21.34375 51.125 25.703125 53.5625 
Q 30.078125 56 35.796875 56 
Q 45.21875 56 50.046875 50.171875 
Q 54.890625 44.34375 54.890625 33.015625 
z
" id="DejaVuSans-104"/>
      <path d="M 30.609375 48.390625 
Q 23.390625 48.390625 19.1875 42.75 
Q 14.984375 37.109375 14.984375 27.296875 
Q 14.984375 17.484375 19.15625 11.84375 
Q 23.34375 6.203125 30.609375 6.203125 
Q 37.796875 6.203125 41.984375 11.859375 
Q 46.1875 17.53125 46.1875 27.296875 
Q 46.1875 37.015625 41.984375 42.703125 
Q 37.796875 48.390625 30.609375 48.390625 
z
M 30.609375 56 
Q 42.328125 56 49.015625 48.375 
Q 55.71875 40.765625 55.71875 27.296875 
Q 55.71875 13.875 49.015625 6.21875 
Q 42.328125 -1.421875 30.609375 -1.421875 
Q 18.84375 -1.421875 12.171875 6.21875 
Q 5.515625 13.875 5.515625 27.296875 
Q 5.515625 40.765625 12.171875 48.375 
Q 18.84375 56 30.609375 56 
z
" id="DejaVuSans-111"/>
      <path d="M 45.40625 46.390625 
L 45.40625 75.984375 
L 54.390625 75.984375 
L 54.390625 0 
L 45.40625 0 
L 45.40625 8.203125 
Q 42.578125 3.328125 38.25 0.953125 
Q 33.9375 -1.421875 27.875 -1.421875 
Q 17.96875 -1.421875 11.734375 6.484375 
Q 5.515625 14.40625 5.515625 27.296875 
Q 5.515625 40.1875 11.734375 48.09375 
Q 17.96875 56 27.875 56 
Q 33.9375 56 38.25 53.625 
Q 42.578125 51.265625 45.40625 46.390625 
z
M 14.796875 27.296875 
Q 14.796875 17.390625 18.875 11.75 
Q 22.953125 6.109375 30.078125 6.109375 
Q 37.203125 6.109375 41.296875 11.75 
Q 45.40625 17.390625 45.40625 27.296875 
Q 45.40625 37.203125 41.296875 42.84375 
Q 37.203125 48.484375 30.078125 48.484375 
Q 22.953125 48.484375 18.875 42.84375 
Q 14.796875 37.203125 14.796875 27.296875 
z
" id="DejaVuSans-100"/>
      <path id="DejaVuSans-32"/>
      <path d="M 11.71875 12.40625 
L 22.015625 12.40625 
L 22.015625 0 
L 11.71875 0 
z
M 11.71875 51.703125 
L 22.015625 51.703125 
L 22.015625 39.3125 
L 11.71875 39.3125 
z
" id="DejaVuSans-58"/>
      <path d="M 9.8125 72.90625 
L 19.671875 72.90625 
L 19.671875 42.09375 
L 52.390625 72.90625 
L 65.09375 72.90625 
L 28.90625 38.921875 
L 67.671875 0 
L 54.6875 0 
L 19.671875 35.109375 
L 19.671875 0 
L 9.8125 0 
z
" id="DejaVuSans-75"/>
      <path d="M 59.515625 10.40625 
L 59.515625 29.984375 
L 43.40625 29.984375 
L 43.40625 38.09375 
L 69.28125 38.09375 
L 69.28125 6.78125 
Q 63.578125 2.734375 56.6875 0.65625 
Q 49.8125 -1.421875 42 -1.421875 
Q 24.90625 -1.421875 15.25 8.5625 
Q 5.609375 18.5625 5.609375 36.375 
Q 5.609375 54.25 15.25 64.234375 
Q 24.90625 74.21875 42 74.21875 
Q 49.125 74.21875 55.546875 72.453125 
Q 61.96875 70.703125 67.390625 67.28125 
L 67.390625 56.78125 
Q 61.921875 61.421875 55.765625 63.765625 
Q 49.609375 66.109375 42.828125 66.109375 
Q 29.4375 66.109375 22.71875 58.640625 
Q 16.015625 51.171875 16.015625 36.375 
Q 16.015625 21.625 22.71875 14.15625 
Q 29.4375 6.6875 42.828125 6.6875 
Q 48.046875 6.6875 52.140625 7.59375 
Q 56.25 8.5 59.515625 10.40625 
z
" id="DejaVuSans-71"/>
     </defs>
     <use xlink:href="#DejaVuSans-77"/>
     <use x="86.279297" xlink:href="#DejaVuSans-101"/>
     <use x="147.802734" xlink:href="#DejaVuSans-116"/>
     <use x="187.011719" xlink:href="#DejaVuSans-104"/>
     <use x="250.390625" xlink:href="#DejaVuSans-111"/>
     <use x="311.572266" xlink:href="#DejaVuSans-100"/>
     <use x="375.048828" xlink:href="#DejaVuSans-32"/>
     <use x="406.835938" xlink:href="#DejaVuSans-58"/>
     <use x="440.527344" xlink:href="#DejaVuSans-32"/>
     <use x="472.314453" xlink:href="#DejaVuSans-75"/>
     <use x="537.890625" xlink:href="#DejaVuSans-71"/>
    </g>
   </g>
   <g id="text_17">
    <!-- Iter=2 -->
    <g transform="translate(71.985124 226.632)scale(0.12 -0.12)">
     <defs>
      <path d="M 9.8125 72.90625 
L 19.671875 72.90625 
L 19.671875 0 
L 9.8125 0 
z
" id="DejaVuSans-73"/>
      <path d="M 41.109375 46.296875 
Q 39.59375 47.171875 37.8125 47.578125 
Q 36.03125 48 33.890625 48 
Q 26.265625 48 22.1875 43.046875 
Q 18.109375 38.09375 18.109375 28.8125 
L 18.109375 0 
L 9.078125 0 
L 9.078125 54.6875 
L 18.109375 54.6875 
L 18.109375 46.1875 
Q 20.953125 51.171875 25.484375 53.578125 
Q 30.03125 56 36.53125 56 
Q 37.453125 56 38.578125 55.875 
Q 39.703125 55.765625 41.0625 55.515625 
z
" id="DejaVuSans-114"/>
      <path d="M 10.59375 45.40625 
L 73.1875 45.40625 
L 73.1875 37.203125 
L 10.59375 37.203125 
z
M 10.59375 25.484375 
L 73.1875 25.484375 
L 73.1875 17.1875 
L 10.59375 17.1875 
z
" id="DejaVuSans-61"/>
     </defs>
     <use xlink:href="#DejaVuSans-73"/>
     <use x="29.492188" xlink:href="#DejaVuSans-116"/>
     <use x="68.701172" xlink:href="#DejaVuSans-101"/>
     <use x="130.224609" xlink:href="#DejaVuSans-114"/>
     <use x="171.337891" xlink:href="#DejaVuSans-61"/>
     <use x="255.126953" xlink:href="#DejaVuSans-50"/>
    </g>
   </g>
   <g id="text_18">
    <!-- (c) -->
    <g transform="translate(71.985124 56.304)scale(0.12 -0.12)">
     <defs>
      <path d="M 31 75.875 
Q 24.46875 64.65625 21.28125 53.65625 
Q 18.109375 42.671875 18.109375 31.390625 
Q 18.109375 20.125 21.3125 9.0625 
Q 24.515625 -2 31 -13.1875 
L 23.1875 -13.1875 
Q 15.875 -1.703125 12.234375 9.375 
Q 8.59375 20.453125 8.59375 31.390625 
Q 8.59375 42.28125 12.203125 53.3125 
Q 15.828125 64.359375 23.1875 75.875 
z
" id="DejaVuSans-40"/>
      <path d="M 48.78125 52.59375 
L 48.78125 44.1875 
Q 44.96875 46.296875 41.140625 47.34375 
Q 37.3125 48.390625 33.40625 48.390625 
Q 24.65625 48.390625 19.8125 42.84375 
Q 14.984375 37.3125 14.984375 27.296875 
Q 14.984375 17.28125 19.8125 11.734375 
Q 24.65625 6.203125 33.40625 6.203125 
Q 37.3125 6.203125 41.140625 7.25 
Q 44.96875 8.296875 48.78125 10.40625 
L 48.78125 2.09375 
Q 45.015625 0.34375 40.984375 -0.53125 
Q 36.96875 -1.421875 32.421875 -1.421875 
Q 20.0625 -1.421875 12.78125 6.34375 
Q 5.515625 14.109375 5.515625 27.296875 
Q 5.515625 40.671875 12.859375 48.328125 
Q 20.21875 56 33.015625 56 
Q 37.15625 56 41.109375 55.140625 
Q 45.0625 54.296875 48.78125 52.59375 
z
" id="DejaVuSans-99"/>
      <path d="M 8.015625 75.875 
L 15.828125 75.875 
Q 23.140625 64.359375 26.78125 53.3125 
Q 30.421875 42.28125 30.421875 31.390625 
Q 30.421875 20.453125 26.78125 9.375 
Q 23.140625 -1.703125 15.828125 -13.1875 
L 8.015625 -13.1875 
Q 14.5 -2 17.703125 9.0625 
Q 20.90625 20.125 20.90625 31.390625 
Q 20.90625 42.671875 17.703125 53.65625 
Q 14.5 64.65625 8.015625 75.875 
z
" id="DejaVuSans-41"/>
     </defs>
     <use xlink:href="#DejaVuSans-40"/>
     <use x="39.013672" xlink:href="#DejaVuSans-99"/>
     <use x="93.994141" xlink:href="#DejaVuSans-41"/>
    </g>
   </g>
   <g id="legend_1">
    <g id="patch_7">
     <path d="M 144.327812 140.235625 
L 298.472188 140.235625 
Q 300.672188 140.235625 300.672188 138.035625 
L 300.672188 42.26 
Q 300.672188 40.06 298.472188 40.06 
L 144.327812 40.06 
Q 142.127813 40.06 142.127813 42.26 
L 142.127813 138.035625 
Q 142.127813 140.235625 144.327812 140.235625 
z
" style="fill:#ffffff;opacity:0.8;stroke:#cccccc;stroke-linejoin:miter;"/>
    </g>
    <g id="line2d_18">
     <path d="M 146.527813 48.968281 
L 168.527813 48.968281 
" style="fill:none;stroke:#0000ff;stroke-linecap:square;stroke-width:2;"/>
    </g>
    <g id="line2d_19"/>
    <g id="text_19">
     <!-- ture function -->
     <g transform="translate(177.327813 52.818281)scale(0.11 -0.11)">
      <defs>
       <path d="M 8.5 21.578125 
L 8.5 54.6875 
L 17.484375 54.6875 
L 17.484375 21.921875 
Q 17.484375 14.15625 20.5 10.265625 
Q 23.53125 6.390625 29.59375 6.390625 
Q 36.859375 6.390625 41.078125 11.03125 
Q 45.3125 15.671875 45.3125 23.6875 
L 45.3125 54.6875 
L 54.296875 54.6875 
L 54.296875 0 
L 45.3125 0 
L 45.3125 8.40625 
Q 42.046875 3.421875 37.71875 1 
Q 33.40625 -1.421875 27.6875 -1.421875 
Q 18.265625 -1.421875 13.375 4.4375 
Q 8.5 10.296875 8.5 21.578125 
z
M 31.109375 56 
z
" id="DejaVuSans-117"/>
       <path d="M 37.109375 75.984375 
L 37.109375 68.5 
L 28.515625 68.5 
Q 23.6875 68.5 21.796875 66.546875 
Q 19.921875 64.59375 19.921875 59.515625 
L 19.921875 54.6875 
L 34.71875 54.6875 
L 34.71875 47.703125 
L 19.921875 47.703125 
L 19.921875 0 
L 10.890625 0 
L 10.890625 47.703125 
L 2.296875 47.703125 
L 2.296875 54.6875 
L 10.890625 54.6875 
L 10.890625 58.5 
Q 10.890625 67.625 15.140625 71.796875 
Q 19.390625 75.984375 28.609375 75.984375 
z
" id="DejaVuSans-102"/>
       <path d="M 54.890625 33.015625 
L 54.890625 0 
L 45.90625 0 
L 45.90625 32.71875 
Q 45.90625 40.484375 42.875 44.328125 
Q 39.84375 48.1875 33.796875 48.1875 
Q 26.515625 48.1875 22.3125 43.546875 
Q 18.109375 38.921875 18.109375 30.90625 
L 18.109375 0 
L 9.078125 0 
L 9.078125 54.6875 
L 18.109375 54.6875 
L 18.109375 46.1875 
Q 21.34375 51.125 25.703125 53.5625 
Q 30.078125 56 35.796875 56 
Q 45.21875 56 50.046875 50.171875 
Q 54.890625 44.34375 54.890625 33.015625 
z
" id="DejaVuSans-110"/>
       <path d="M 9.421875 54.6875 
L 18.40625 54.6875 
L 18.40625 0 
L 9.421875 0 
z
M 9.421875 75.984375 
L 18.40625 75.984375 
L 18.40625 64.59375 
L 9.421875 64.59375 
z
" id="DejaVuSans-105"/>
      </defs>
      <use xlink:href="#DejaVuSans-116"/>
      <use x="39.208984" xlink:href="#DejaVuSans-117"/>
      <use x="102.587891" xlink:href="#DejaVuSans-114"/>
      <use x="141.451172" xlink:href="#DejaVuSans-101"/>
      <use x="202.974609" xlink:href="#DejaVuSans-32"/>
      <use x="234.761719" xlink:href="#DejaVuSans-102"/>
      <use x="269.966797" xlink:href="#DejaVuSans-117"/>
      <use x="333.345703" xlink:href="#DejaVuSans-110"/>
      <use x="396.724609" xlink:href="#DejaVuSans-99"/>
      <use x="451.705078" xlink:href="#DejaVuSans-116"/>
      <use x="490.914062" xlink:href="#DejaVuSans-105"/>
      <use x="518.697266" xlink:href="#DejaVuSans-111"/>
      <use x="579.878906" xlink:href="#DejaVuSans-110"/>
     </g>
    </g>
    <g id="line2d_20">
     <path d="M 146.527813 65.114219 
L 168.527813 65.114219 
" style="fill:none;stroke:#000000;stroke-dasharray:7.4,3.2;stroke-dashoffset:0;stroke-width:2;"/>
    </g>
    <g id="line2d_21"/>
    <g id="text_20">
     <!-- predicted function -->
     <g transform="translate(177.327813 68.964219)scale(0.11 -0.11)">
      <defs>
       <path d="M 18.109375 8.203125 
L 18.109375 -20.796875 
L 9.078125 -20.796875 
L 9.078125 54.6875 
L 18.109375 54.6875 
L 18.109375 46.390625 
Q 20.953125 51.265625 25.265625 53.625 
Q 29.59375 56 35.59375 56 
Q 45.5625 56 51.78125 48.09375 
Q 58.015625 40.1875 58.015625 27.296875 
Q 58.015625 14.40625 51.78125 6.484375 
Q 45.5625 -1.421875 35.59375 -1.421875 
Q 29.59375 -1.421875 25.265625 0.953125 
Q 20.953125 3.328125 18.109375 8.203125 
z
M 48.6875 27.296875 
Q 48.6875 37.203125 44.609375 42.84375 
Q 40.53125 48.484375 33.40625 48.484375 
Q 26.265625 48.484375 22.1875 42.84375 
Q 18.109375 37.203125 18.109375 27.296875 
Q 18.109375 17.390625 22.1875 11.75 
Q 26.265625 6.109375 33.40625 6.109375 
Q 40.53125 6.109375 44.609375 11.75 
Q 48.6875 17.390625 48.6875 27.296875 
z
" id="DejaVuSans-112"/>
      </defs>
      <use xlink:href="#DejaVuSans-112"/>
      <use x="63.476562" xlink:href="#DejaVuSans-114"/>
      <use x="102.339844" xlink:href="#DejaVuSans-101"/>
      <use x="163.863281" xlink:href="#DejaVuSans-100"/>
      <use x="227.339844" xlink:href="#DejaVuSans-105"/>
      <use x="255.123047" xlink:href="#DejaVuSans-99"/>
      <use x="310.103516" xlink:href="#DejaVuSans-116"/>
      <use x="349.3125" xlink:href="#DejaVuSans-101"/>
      <use x="410.835938" xlink:href="#DejaVuSans-100"/>
      <use x="474.3125" xlink:href="#DejaVuSans-32"/>
      <use x="506.099609" xlink:href="#DejaVuSans-102"/>
      <use x="541.304688" xlink:href="#DejaVuSans-117"/>
      <use x="604.683594" xlink:href="#DejaVuSans-110"/>
      <use x="668.0625" xlink:href="#DejaVuSans-99"/>
      <use x="723.042969" xlink:href="#DejaVuSans-116"/>
      <use x="762.251953" xlink:href="#DejaVuSans-105"/>
      <use x="790.035156" xlink:href="#DejaVuSans-111"/>
      <use x="851.216797" xlink:href="#DejaVuSans-110"/>
     </g>
    </g>
    <g id="line2d_22">
     <path d="M 146.527813 81.260156 
L 168.527813 81.260156 
" style="fill:none;stroke:#008000;stroke-dasharray:3.7,1.6;stroke-dashoffset:0;"/>
    </g>
    <g id="line2d_23"/>
    <g id="text_21">
     <!--  ± Sn(x) -->
     <g transform="translate(177.327813 85.110156)scale(0.11 -0.11)">
      <defs>
       <path d="M 46 62.703125 
L 46 43.796875 
L 73.1875 43.796875 
L 73.1875 35.5 
L 46 35.5 
L 46 16.609375 
L 37.796875 16.609375 
L 37.796875 35.5 
L 10.59375 35.5 
L 10.59375 43.796875 
L 37.796875 43.796875 
L 37.796875 62.703125 
z
M 10.59375 8.296875 
L 73.1875 8.296875 
L 73.1875 0 
L 10.59375 0 
z
" id="DejaVuSans-177"/>
       <path d="M 53.515625 70.515625 
L 53.515625 60.890625 
Q 47.90625 63.578125 42.921875 64.890625 
Q 37.9375 66.21875 33.296875 66.21875 
Q 25.25 66.21875 20.875 63.09375 
Q 16.5 59.96875 16.5 54.203125 
Q 16.5 49.359375 19.40625 46.890625 
Q 22.3125 44.4375 30.421875 42.921875 
L 36.375 41.703125 
Q 47.40625 39.59375 52.65625 34.296875 
Q 57.90625 29 57.90625 20.125 
Q 57.90625 9.515625 50.796875 4.046875 
Q 43.703125 -1.421875 29.984375 -1.421875 
Q 24.8125 -1.421875 18.96875 -0.25 
Q 13.140625 0.921875 6.890625 3.21875 
L 6.890625 13.375 
Q 12.890625 10.015625 18.65625 8.296875 
Q 24.421875 6.59375 29.984375 6.59375 
Q 38.421875 6.59375 43.015625 9.90625 
Q 47.609375 13.234375 47.609375 19.390625 
Q 47.609375 24.75 44.3125 27.78125 
Q 41.015625 30.8125 33.5 32.328125 
L 27.484375 33.5 
Q 16.453125 35.6875 11.515625 40.375 
Q 6.59375 45.0625 6.59375 53.421875 
Q 6.59375 63.09375 13.40625 68.65625 
Q 20.21875 74.21875 32.171875 74.21875 
Q 37.3125 74.21875 42.625 73.28125 
Q 47.953125 72.359375 53.515625 70.515625 
z
" id="DejaVuSans-83"/>
      </defs>
      <use xlink:href="#DejaVuSans-32"/>
      <use x="31.787109" xlink:href="#DejaVuSans-177"/>
      <use x="115.576172" xlink:href="#DejaVuSans-32"/>
      <use x="147.363281" xlink:href="#DejaVuSans-83"/>
      <use x="210.839844" xlink:href="#DejaVuSans-110"/>
      <use x="274.21875" xlink:href="#DejaVuSans-40"/>
      <use x="313.232422" xlink:href="#DejaVuSans-120"/>
      <use x="372.412109" xlink:href="#DejaVuSans-41"/>
     </g>
    </g>
    <g id="line2d_24">
     <path d="M 146.527813 97.406094 
L 168.527813 97.406094 
" style="fill:none;stroke:#bfbf00;stroke-dasharray:7.4,3.2;stroke-dashoffset:0;stroke-width:2;"/>
    </g>
    <g id="line2d_25"/>
    <g id="text_22">
     <!-- KG(x) -->
     <g transform="translate(177.327813 101.256094)scale(0.11 -0.11)">
      <use xlink:href="#DejaVuSans-75"/>
      <use x="65.576172" xlink:href="#DejaVuSans-71"/>
      <use x="143.066406" xlink:href="#DejaVuSans-40"/>
      <use x="182.080078" xlink:href="#DejaVuSans-120"/>
      <use x="241.259766" xlink:href="#DejaVuSans-41"/>
     </g>
    </g>
    <g id="PathCollection_2">
     <defs>
      <path d="M 0 3.535534 
C 0.937635 3.535534 1.836992 3.163008 2.5 2.5 
C 3.163008 1.836992 3.535534 0.937635 3.535534 0 
C 3.535534 -0.937635 3.163008 -1.836992 2.5 -2.5 
C 1.836992 -3.163008 0.937635 -3.535534 0 -3.535534 
C -0.937635 -3.535534 -1.836992 -3.163008 -2.5 -2.5 
C -3.163008 -1.836992 -3.535534 -0.937635 -3.535534 0 
C -3.535534 0.937635 -3.163008 1.836992 -2.5 2.5 
C -1.836992 3.163008 -0.937635 3.535534 0 3.535534 
z
" id="m6e262d0650" style="stroke:#000000;"/>
     </defs>
     <g>
      <use style="fill:#ff0000;stroke:#000000;" x="157.527813" xlink:href="#m6e262d0650" y="114.514531"/>
     </g>
    </g>
    <g id="text_23">
     <!-- training data -->
     <g transform="translate(177.327813 117.402031)scale(0.11 -0.11)">
      <defs>
       <path d="M 34.28125 27.484375 
Q 23.390625 27.484375 19.1875 25 
Q 14.984375 22.515625 14.984375 16.5 
Q 14.984375 11.71875 18.140625 8.90625 
Q 21.296875 6.109375 26.703125 6.109375 
Q 34.1875 6.109375 38.703125 11.40625 
Q 43.21875 16.703125 43.21875 25.484375 
L 43.21875 27.484375 
z
M 52.203125 31.203125 
L 52.203125 0 
L 43.21875 0 
L 43.21875 8.296875 
Q 40.140625 3.328125 35.546875 0.953125 
Q 30.953125 -1.421875 24.3125 -1.421875 
Q 15.921875 -1.421875 10.953125 3.296875 
Q 6 8.015625 6 15.921875 
Q 6 25.140625 12.171875 29.828125 
Q 18.359375 34.515625 30.609375 34.515625 
L 43.21875 34.515625 
L 43.21875 35.40625 
Q 43.21875 41.609375 39.140625 45 
Q 35.0625 48.390625 27.6875 48.390625 
Q 23 48.390625 18.546875 47.265625 
Q 14.109375 46.140625 10.015625 43.890625 
L 10.015625 52.203125 
Q 14.9375 54.109375 19.578125 55.046875 
Q 24.21875 56 28.609375 56 
Q 40.484375 56 46.34375 49.84375 
Q 52.203125 43.703125 52.203125 31.203125 
z
" id="DejaVuSans-97"/>
       <path d="M 45.40625 27.984375 
Q 45.40625 37.75 41.375 43.109375 
Q 37.359375 48.484375 30.078125 48.484375 
Q 22.859375 48.484375 18.828125 43.109375 
Q 14.796875 37.75 14.796875 27.984375 
Q 14.796875 18.265625 18.828125 12.890625 
Q 22.859375 7.515625 30.078125 7.515625 
Q 37.359375 7.515625 41.375 12.890625 
Q 45.40625 18.265625 45.40625 27.984375 
z
M 54.390625 6.78125 
Q 54.390625 -7.171875 48.1875 -13.984375 
Q 42 -20.796875 29.203125 -20.796875 
Q 24.46875 -20.796875 20.265625 -20.09375 
Q 16.0625 -19.390625 12.109375 -17.921875 
L 12.109375 -9.1875 
Q 16.0625 -11.328125 19.921875 -12.34375 
Q 23.78125 -13.375 27.78125 -13.375 
Q 36.625 -13.375 41.015625 -8.765625 
Q 45.40625 -4.15625 45.40625 5.171875 
L 45.40625 9.625 
Q 42.625 4.78125 38.28125 2.390625 
Q 33.9375 0 27.875 0 
Q 17.828125 0 11.671875 7.65625 
Q 5.515625 15.328125 5.515625 27.984375 
Q 5.515625 40.671875 11.671875 48.328125 
Q 17.828125 56 27.875 56 
Q 33.9375 56 38.28125 53.609375 
Q 42.625 51.21875 45.40625 46.390625 
L 45.40625 54.6875 
L 54.390625 54.6875 
z
" id="DejaVuSans-103"/>
      </defs>
      <use xlink:href="#DejaVuSans-116"/>
      <use x="39.208984" xlink:href="#DejaVuSans-114"/>
      <use x="80.322266" xlink:href="#DejaVuSans-97"/>
      <use x="141.601562" xlink:href="#DejaVuSans-105"/>
      <use x="169.384766" xlink:href="#DejaVuSans-110"/>
      <use x="232.763672" xlink:href="#DejaVuSans-105"/>
      <use x="260.546875" xlink:href="#DejaVuSans-110"/>
      <use x="323.925781" xlink:href="#DejaVuSans-103"/>
      <use x="387.402344" xlink:href="#DejaVuSans-32"/>
      <use x="419.189453" xlink:href="#DejaVuSans-100"/>
      <use x="482.666016" xlink:href="#DejaVuSans-97"/>
      <use x="543.945312" xlink:href="#DejaVuSans-116"/>
      <use x="583.154297" xlink:href="#DejaVuSans-97"/>
     </g>
    </g>
    <g id="PathCollection_3">
     <g>
      <use style="fill:#ff0000;stroke:#ff0000;stroke-width:8;" x="157.527813" xlink:href="#mf843ff3e6c" y="130.660469"/>
     </g>
    </g>
    <g id="text_24">
     <!-- recommended datum -->
     <g transform="translate(177.327813 133.547969)scale(0.11 -0.11)">
      <defs>
       <path d="M 52 44.1875 
Q 55.375 50.25 60.0625 53.125 
Q 64.75 56 71.09375 56 
Q 79.640625 56 84.28125 50.015625 
Q 88.921875 44.046875 88.921875 33.015625 
L 88.921875 0 
L 79.890625 0 
L 79.890625 32.71875 
Q 79.890625 40.578125 77.09375 44.375 
Q 74.3125 48.1875 68.609375 48.1875 
Q 61.625 48.1875 57.5625 43.546875 
Q 53.515625 38.921875 53.515625 30.90625 
L 53.515625 0 
L 44.484375 0 
L 44.484375 32.71875 
Q 44.484375 40.625 41.703125 44.40625 
Q 38.921875 48.1875 33.109375 48.1875 
Q 26.21875 48.1875 22.15625 43.53125 
Q 18.109375 38.875 18.109375 30.90625 
L 18.109375 0 
L 9.078125 0 
L 9.078125 54.6875 
L 18.109375 54.6875 
L 18.109375 46.1875 
Q 21.1875 51.21875 25.484375 53.609375 
Q 29.78125 56 35.6875 56 
Q 41.65625 56 45.828125 52.96875 
Q 50 49.953125 52 44.1875 
z
" id="DejaVuSans-109"/>
      </defs>
      <use xlink:href="#DejaVuSans-114"/>
      <use x="38.863281" xlink:href="#DejaVuSans-101"/>
      <use x="100.386719" xlink:href="#DejaVuSans-99"/>
      <use x="155.367188" xlink:href="#DejaVuSans-111"/>
      <use x="216.548828" xlink:href="#DejaVuSans-109"/>
      <use x="313.960938" xlink:href="#DejaVuSans-109"/>
      <use x="411.373047" xlink:href="#DejaVuSans-101"/>
      <use x="472.896484" xlink:href="#DejaVuSans-110"/>
      <use x="536.275391" xlink:href="#DejaVuSans-100"/>
      <use x="599.751953" xlink:href="#DejaVuSans-101"/>
      <use x="661.275391" xlink:href="#DejaVuSans-100"/>
      <use x="724.751953" xlink:href="#DejaVuSans-32"/>
      <use x="756.539062" xlink:href="#DejaVuSans-100"/>
      <use x="820.015625" xlink:href="#DejaVuSans-97"/>
      <use x="881.294922" xlink:href="#DejaVuSans-116"/>
      <use x="920.503906" xlink:href="#DejaVuSans-117"/>
      <use x="983.882812" xlink:href="#DejaVuSans-109"/>
     </g>
    </g>
   </g>
   <g id="line2d_26">
    <path clip-path="url(#p18ed9ca110)" d="M 69.218182 140.871468 
L 71.985124 140.364848 
L 74.752066 140.46996 
L 77.519008 141.219662 
L 80.28595 142.625856 
L 83.052893 144.677749 
L 85.819835 147.341239 
L 88.586777 150.559525 
L 91.353719 154.254962 
L 94.120661 158.332084 
L 96.887603 162.681646 
L 99.654545 167.185461 
L 102.421488 171.721733 
L 105.18843 176.170578 
L 107.955372 180.419383 
L 110.722314 184.367687 
L 113.489256 187.93129 
L 116.256198 191.045368 
L 119.02314 193.666421 
L 121.790083 195.772998 
L 124.557025 197.36519 
L 127.323967 198.462994 
L 130.090909 199.103703 
L 132.857851 199.338543 
L 135.624793 199.228803 
L 138.391736 198.841739 
L 141.158678 198.246518 
L 143.92562 197.510436 
L 146.692562 196.695638 
L 149.459504 195.856488 
L 152.226446 195.037688 
L 154.993388 194.273215 
L 157.760331 193.586023 
L 160.527273 192.988494 
L 163.294215 192.483493 
L 166.061157 192.065909 
L 168.828099 191.72453 
L 171.595041 191.444084 
L 174.361983 191.207292 
L 177.128926 190.996804 
L 179.895868 190.796896 
L 182.66281 190.594859 
L 185.429752 190.382016 
L 188.196694 190.154357 
L 190.963636 189.912806 
L 193.730579 189.663151 
L 196.497521 189.415688 
L 199.264463 189.184651 
L 202.031405 188.987491 
L 204.798347 188.844069 
L 207.565289 188.775824 
L 210.332231 188.804966 
L 213.099174 188.953718 
L 215.866116 189.243644 
L 218.633058 189.695051 
L 221.4 190.326482 
L 224.166942 191.154284 
L 226.933884 192.192222 
L 229.700826 193.451146 
L 232.467769 194.938682 
L 235.234711 196.658923 
L 238.001653 198.612137 
L 240.768595 200.794453 
L 243.535537 203.197545 
L 246.302479 205.808309 
L 249.069421 208.608533 
L 251.836364 211.574567 
L 254.603306 214.677009 
L 257.370248 217.880412 
L 260.13719 221.143042 
L 262.904132 224.416693 
L 265.671074 227.646604 
L 268.438017 230.771506 
L 271.204959 233.723845 
L 273.971901 236.430236 
L 276.738843 238.812196 
L 279.505785 240.787212 
L 282.272727 242.270202 
L 285.039669 243.175401 
L 287.806612 243.418685 
L 290.573554 242.920337 
L 293.340496 241.608207 
L 296.107438 239.421176 
L 298.87438 236.312798 
L 301.641322 232.254966 
L 304.408264 227.241359 
L 307.175207 221.290475 
L 309.942149 214.447962 
L 312.709091 206.788034 
L 315.476033 198.413733 
L 318.242975 189.455879 
L 321.009917 180.070608 
L 323.77686 170.435478 
L 326.543802 160.74424 
L 329.310744 151.200455 
L 332.077686 142.010234 
L 334.844628 133.374478 
L 337.61157 125.481029 
L 340.378512 118.497186 
L 343.145455 112.563028 
L 345.912397 107.785955 
L 348.679339 104.236766 
L 351.446281 101.947516 
L 354.213223 100.911244 
L 356.980165 101.083587 
L 359.747107 102.386105 
L 362.51405 104.711093 
L 365.280992 107.927527 
L 368.047934 111.887748 
L 370.814876 116.434466 
L 373.581818 121.407656 
" style="fill:none;stroke:#000000;stroke-dasharray:7.4,3.2;stroke-dashoffset:0;stroke-width:2;"/>
   </g>
   <g id="PathCollection_4">
    <g clip-path="url(#p18ed9ca110)">
     <use style="fill:#ff0000;stroke:#000000;" x="83.052893" xlink:href="#m6e262d0650" y="129.399309"/>
     <use style="fill:#ff0000;stroke:#000000;" x="96.887603" xlink:href="#m6e262d0650" y="162.429541"/>
     <use style="fill:#ff0000;stroke:#000000;" x="110.722314" xlink:href="#m6e262d0650" y="193.170209"/>
     <use style="fill:#ff0000;stroke:#000000;" x="124.557025" xlink:href="#m6e262d0650" y="199.248575"/>
     <use style="fill:#ff0000;stroke:#000000;" x="138.391736" xlink:href="#m6e262d0650" y="199.347548"/>
     <use style="fill:#ff0000;stroke:#000000;" x="152.226446" xlink:href="#m6e262d0650" y="191.611971"/>
     <use style="fill:#ff0000;stroke:#000000;" x="166.061157" xlink:href="#m6e262d0650" y="193.66847"/>
     <use style="fill:#ff0000;stroke:#000000;" x="179.895868" xlink:href="#m6e262d0650" y="193.283098"/>
     <use style="fill:#ff0000;stroke:#000000;" x="193.730579" xlink:href="#m6e262d0650" y="188.924027"/>
     <use style="fill:#ff0000;stroke:#000000;" x="318.242975" xlink:href="#m6e262d0650" y="199.289596"/>
     <use style="fill:#ff0000;stroke:#000000;" x="332.077686" xlink:href="#m6e262d0650" y="145.37007"/>
     <use style="fill:#ff0000;stroke:#000000;" x="345.912397" xlink:href="#m6e262d0650" y="78.407322"/>
     <use style="fill:#ff0000;stroke:#000000;" x="293.340496" xlink:href="#m6e262d0650" y="250.468847"/>
     <use style="fill:#ff0000;stroke:#000000;" x="268.438017" xlink:href="#m6e262d0650" y="235.160165"/>
    </g>
   </g>
  </g>
 </g>
 <defs>
  <clipPath id="p18ed9ca110">
   <rect height="217.44" width="334.8" x="54" y="34.56"/>
  </clipPath>
 </defs>
</svg>
