<?xml version="1.0" encoding="utf-8" standalone="no"?>
<!DOCTYPE svg PUBLIC "-//W3C//DTD SVG 1.1//EN"
  "http://www.w3.org/Graphics/SVG/1.1/DTD/svg11.dtd">
<!-- Created with matplotlib (https://matplotlib.org/) -->
<svg height="288pt" version="1.1" viewBox="0 0 432 288" width="432pt" xmlns="http://www.w3.org/2000/svg" xmlns:xlink="http://www.w3.org/1999/xlink">
 <metadata>
  <rdf:RDF xmlns:cc="http://creativecommons.org/ns#" xmlns:dc="http://purl.org/dc/elements/1.1/" xmlns:rdf="http://www.w3.org/1999/02/22-rdf-syntax-ns#">
   <cc:Work>
    <dc:type rdf:resource="http://purl.org/dc/dcmitype/StillImage"/>
    <dc:date>2022-08-04T11:07:52.702150</dc:date>
    <dc:format>image/svg+xml</dc:format>
    <dc:creator>
     <cc:Agent>
      <dc:title>Matplotlib v3.3.2, https://matplotlib.org/</dc:title>
     </cc:Agent>
    </dc:creator>
   </cc:Work>
  </rdf:RDF>
 </metadata>
 <defs>
  <style type="text/css">*{stroke-linecap:butt;stroke-linejoin:round;}</style>
 </defs>
 <g id="figure_1">
  <g id="patch_1">
   <path d="M 0 288 
L 432 288 
L 432 0 
L 0 0 
z
" style="fill:none;"/>
  </g>
  <g id="axes_1">
   <g id="patch_2">
    <path d="M 54 252 
L 388.8 252 
L 388.8 34.56 
L 54 34.56 
z
" style="fill:#ffffff;"/>
   </g>
   <g id="PolyCollection_1">
    <defs>
     <path d="M 69.218182 -166.450358 
L 69.218182 -110.350279 
L 71.985124 -113.085317 
L 74.752066 -115.306001 
L 77.519008 -116.902289 
L 80.28595 -117.781928 
L 83.052893 -117.879754 
L 85.819835 -117.167089 
L 88.586777 -115.659316 
L 91.353719 -113.418844 
L 94.120661 -110.551119 
L 96.887603 -107.193789 
L 99.654545 -103.501999 
L 102.421488 -99.63388 
L 105.18843 -95.739044 
L 107.955372 -91.950919 
L 110.722314 -88.382396 
L 113.489256 -85.123838 
L 116.256198 -82.242629 
L 119.02314 -79.783698 
L 121.790083 -77.770679 
L 124.557025 -76.207531 
L 127.323967 -75.080543 
L 130.090909 -74.360714 
L 132.857851 -74.006495 
L 135.624793 -73.966858 
L 138.391736 -74.184623 
L 141.158678 -74.59988 
L 143.92562 -75.153379 
L 146.692562 -75.789683 
L 149.459504 -76.459944 
L 152.226446 -77.124114 
L 154.993388 -77.752456 
L 157.760331 -78.326168 
L 160.527273 -78.836975 
L 163.294215 -79.28557 
L 166.061157 -79.678887 
L 168.828099 -80.026316 
L 171.595041 -80.33519 
L 174.361983 -80.606094 
L 177.128926 -80.828858 
L 179.895868 -80.980431 
L 182.66281 -81.025944 
L 185.429752 -80.92391 
L 188.196694 -80.635106 
L 190.963636 -80.132634 
L 193.730579 -79.409368 
L 196.497521 -78.479961 
L 199.264463 -77.377377 
L 202.031405 -76.146218 
L 204.798347 -74.835524 
L 207.565289 -73.492703 
L 210.332231 -72.159127 
L 213.099174 -70.867284 
L 215.866116 -69.639205 
L 218.633058 -68.485882 
L 221.4 -67.40752 
L 224.166942 -66.394461 
L 226.933884 -65.42869 
L 229.700826 -64.485799 
L 232.467769 -63.537283 
L 235.234711 -62.553053 
L 238.001653 -61.503993 
L 240.768595 -60.36445 
L 243.535537 -59.114492 
L 246.302479 -57.741831 
L 249.069421 -56.243296 
L 251.836364 -54.625787 
L 254.603306 -52.906647 
L 257.370248 -51.113439 
L 260.13719 -49.283139 
L 262.904132 -47.460744 
L 265.671074 -45.697375 
L 268.438017 -44.047932 
L 271.204959 -42.568379 
L 273.971901 -41.312794 
L 276.738843 -40.330345 
L 279.505785 -39.662475 
L 282.272727 -39.340855 
L 285.039669 -39.387074 
L 287.806612 -39.815644 
L 290.573554 -40.64201 
L 293.340496 -41.895524 
L 296.107438 -43.632811 
L 298.87438 -45.942263 
L 301.641322 -48.932547 
L 304.408264 -52.708311 
L 307.175207 -57.344382 
L 309.942149 -62.867818 
L 312.709091 -69.250111 
L 315.476033 -76.407249 
L 318.242975 -84.204531 
L 321.009917 -92.463912 
L 323.77686 -100.972588 
L 326.543802 -109.49228 
L 329.310744 -117.76915 
L 332.077686 -125.544833 
L 334.844628 -132.569234 
L 337.61157 -138.615334 
L 340.378512 -143.494847 
L 343.145455 -147.071934 
L 345.912397 -149.271683 
L 348.679339 -150.081722 
L 351.446281 -149.547745 
L 354.213223 -147.765206 
L 356.980165 -144.869276 
L 359.747107 -141.024299 
L 362.51405 -136.413325 
L 365.280992 -131.228063 
L 368.047934 -125.659539 
L 370.814876 -119.889828 
L 373.581818 -114.085195 
L 373.581818 -185.189462 
L 373.581818 -185.189462 
L 370.814876 -188.585009 
L 368.047934 -191.615839 
L 365.280992 -194.145398 
L 362.51405 -196.042135 
L 359.747107 -197.186582 
L 356.980165 -197.478261 
L 354.213223 -196.841822 
L 351.446281 -195.231714 
L 348.679339 -192.634679 
L 345.912397 -189.06942 
L 343.145455 -184.583257 
L 340.378512 -179.246458 
L 337.61157 -173.146118 
L 334.844628 -166.381895 
L 332.077686 -159.06481 
L 329.310744 -151.318107 
L 326.543802 -143.277766 
L 323.77686 -135.090856 
L 321.009917 -126.911586 
L 318.242975 -118.896277 
L 315.476033 -111.198742 
L 312.709091 -103.967224 
L 309.942149 -97.343299 
L 307.175207 -91.462423 
L 304.408264 -86.454907 
L 301.641322 -82.444938 
L 298.87438 -79.544298 
L 296.107438 -77.838125 
L 293.340496 -77.3646 
L 290.573554 -78.097505 
L 287.806612 -79.942516 
L 285.039669 -82.75002 
L 282.272727 -86.336975 
L 279.505785 -90.508238 
L 276.738843 -95.072467 
L 273.971901 -99.852335 
L 271.204959 -104.690547 
L 268.438017 -109.453035 
L 265.671074 -114.030246 
L 262.904132 -118.336974 
L 260.13719 -122.311049 
L 257.370248 -125.91109 
L 254.603306 -129.113561 
L 251.836364 -131.909363 
L 249.069421 -134.300231 
L 246.302479 -136.295189 
L 243.535537 -137.907315 
L 240.768595 -139.151029 
L 238.001653 -140.040071 
L 235.234711 -140.586279 
L 232.467769 -140.799199 
L 229.700826 -140.686495 
L 226.933884 -140.255074 
L 224.166942 -139.512753 
L 221.4 -138.470287 
L 218.633058 -137.143517 
L 215.866116 -135.555422 
L 213.099174 -133.737815 
L 210.332231 -131.732476 
L 207.565289 -129.591507 
L 204.798347 -127.376683 
L 202.031405 -125.157571 
L 199.264463 -123.008123 
L 196.497521 -121.001477 
L 193.730579 -119.2029 
L 190.963636 -117.661487 
L 188.196694 -116.402418 
L 185.429752 -115.422539 
L 182.66281 -114.691724 
L 179.895868 -114.160085 
L 177.128926 -113.768344 
L 174.361983 -113.457653 
L 171.595041 -113.17639 
L 168.828099 -112.883488 
L 166.061157 -112.549131 
L 163.294215 -112.154026 
L 160.527273 -111.688238 
L 157.760331 -111.150192 
L 154.993388 -110.546159 
L 152.226446 -109.890215 
L 149.459504 -109.204537 
L 146.692562 -108.519743 
L 143.92562 -107.874969 
L 141.158678 -107.317382 
L 138.391736 -106.900953 
L 135.624793 -106.684361 
L 132.857851 -106.728085 
L 130.090909 -107.090774 
L 127.323967 -107.825136 
L 124.557025 -108.973632 
L 121.790083 -110.564382 
L 119.02314 -112.607722 
L 116.256198 -115.093892 
L 113.489256 -117.992295 
L 110.722314 -121.25264 
L 107.955372 -124.808092 
L 105.18843 -128.580245 
L 102.421488 -132.485441 
L 99.654545 -136.441487 
L 96.887603 -140.373445 
L 94.120661 -144.216902 
L 91.353719 -147.917475 
L 88.586777 -151.426628 
L 85.819835 -154.695943 
L 83.052893 -157.673297 
L 80.28595 -160.303487 
L 77.519008 -162.533155 
L 74.752066 -164.317641 
L 71.985124 -165.6271 
L 69.218182 -166.450358 
z
" id="mf3455e3723" style="stroke:#add8e6;stroke-opacity:0.2;"/>
    </defs>
    <g clip-path="url(#p36af5727f9)">
     <use style="fill:#add8e6;fill-opacity:0.2;stroke:#add8e6;stroke-opacity:0.2;" x="0" xlink:href="#mf3455e3723" y="288"/>
    </g>
   </g>
   <g id="PathCollection_1">
    <defs>
     <path d="M 0 0.612372 
C 0.162403 0.612372 0.318176 0.547849 0.433013 0.433013 
C 0.547849 0.318176 0.612372 0.162403 0.612372 0 
C 0.612372 -0.162403 0.547849 -0.318176 0.433013 -0.433013 
C 0.318176 -0.547849 0.162403 -0.612372 0 -0.612372 
C -0.162403 -0.612372 -0.318176 -0.547849 -0.433013 -0.433013 
C -0.547849 -0.318176 -0.612372 -0.162403 -0.612372 0 
C -0.612372 0.162403 -0.547849 0.318176 -0.433013 0.433013 
C -0.318176 0.547849 -0.162403 0.612372 0 0.612372 
z
" id="m9b052db73a" style="stroke:#ff0000;stroke-width:8;"/>
    </defs>
    <g clip-path="url(#p36af5727f9)">
     <use style="fill:#ff0000;stroke:#ff0000;stroke-width:8;" x="282.272727" xlink:href="#m9b052db73a" y="248.659145"/>
    </g>
   </g>
   <g id="matplotlib.axis_1">
    <g id="xtick_1">
     <g id="line2d_1">
      <defs>
       <path d="M 0 0 
L 0 3.5 
" id="m3370af2613" style="stroke:#000000;stroke-width:0.8;"/>
      </defs>
      <g>
       <use style="stroke:#000000;stroke-width:0.8;" x="69.218182" xlink:href="#m3370af2613" y="252"/>
      </g>
     </g>
     <g id="text_1">
      <!-- 0 -->
      <g transform="translate(66.036932 266.598437)scale(0.1 -0.1)">
       <defs>
        <path d="M 31.78125 66.40625 
Q 24.171875 66.40625 20.328125 58.90625 
Q 16.5 51.421875 16.5 36.375 
Q 16.5 21.390625 20.328125 13.890625 
Q 24.171875 6.390625 31.78125 6.390625 
Q 39.453125 6.390625 43.28125 13.890625 
Q 47.125 21.390625 47.125 36.375 
Q 47.125 51.421875 43.28125 58.90625 
Q 39.453125 66.40625 31.78125 66.40625 
z
M 31.78125 74.21875 
Q 44.046875 74.21875 50.515625 64.515625 
Q 56.984375 54.828125 56.984375 36.375 
Q 56.984375 17.96875 50.515625 8.265625 
Q 44.046875 -1.421875 31.78125 -1.421875 
Q 19.53125 -1.421875 13.0625 8.265625 
Q 6.59375 17.96875 6.59375 36.375 
Q 6.59375 54.828125 13.0625 64.515625 
Q 19.53125 74.21875 31.78125 74.21875 
z
" id="DejaVuSans-48"/>
       </defs>
       <use xlink:href="#DejaVuSans-48"/>
      </g>
     </g>
    </g>
    <g id="xtick_2">
     <g id="line2d_2">
      <g>
       <use style="stroke:#000000;stroke-width:0.8;" x="124.557025" xlink:href="#m3370af2613" y="252"/>
      </g>
     </g>
     <g id="text_2">
      <!-- 2 -->
      <g transform="translate(121.375775 266.598437)scale(0.1 -0.1)">
       <defs>
        <path d="M 19.1875 8.296875 
L 53.609375 8.296875 
L 53.609375 0 
L 7.328125 0 
L 7.328125 8.296875 
Q 12.9375 14.109375 22.625 23.890625 
Q 32.328125 33.6875 34.8125 36.53125 
Q 39.546875 41.84375 41.421875 45.53125 
Q 43.3125 49.21875 43.3125 52.78125 
Q 43.3125 58.59375 39.234375 62.25 
Q 35.15625 65.921875 28.609375 65.921875 
Q 23.96875 65.921875 18.8125 64.3125 
Q 13.671875 62.703125 7.8125 59.421875 
L 7.8125 69.390625 
Q 13.765625 71.78125 18.9375 73 
Q 24.125 74.21875 28.421875 74.21875 
Q 39.75 74.21875 46.484375 68.546875 
Q 53.21875 62.890625 53.21875 53.421875 
Q 53.21875 48.921875 51.53125 44.890625 
Q 49.859375 40.875 45.40625 35.40625 
Q 44.1875 33.984375 37.640625 27.21875 
Q 31.109375 20.453125 19.1875 8.296875 
z
" id="DejaVuSans-50"/>
       </defs>
       <use xlink:href="#DejaVuSans-50"/>
      </g>
     </g>
    </g>
    <g id="xtick_3">
     <g id="line2d_3">
      <g>
       <use style="stroke:#000000;stroke-width:0.8;" x="179.895868" xlink:href="#m3370af2613" y="252"/>
      </g>
     </g>
     <g id="text_3">
      <!-- 4 -->
      <g transform="translate(176.714618 266.598437)scale(0.1 -0.1)">
       <defs>
        <path d="M 37.796875 64.3125 
L 12.890625 25.390625 
L 37.796875 25.390625 
z
M 35.203125 72.90625 
L 47.609375 72.90625 
L 47.609375 25.390625 
L 58.015625 25.390625 
L 58.015625 17.1875 
L 47.609375 17.1875 
L 47.609375 0 
L 37.796875 0 
L 37.796875 17.1875 
L 4.890625 17.1875 
L 4.890625 26.703125 
z
" id="DejaVuSans-52"/>
       </defs>
       <use xlink:href="#DejaVuSans-52"/>
      </g>
     </g>
    </g>
    <g id="xtick_4">
     <g id="line2d_4">
      <g>
       <use style="stroke:#000000;stroke-width:0.8;" x="235.234711" xlink:href="#m3370af2613" y="252"/>
      </g>
     </g>
     <g id="text_4">
      <!-- 6 -->
      <g transform="translate(232.053461 266.598437)scale(0.1 -0.1)">
       <defs>
        <path d="M 33.015625 40.375 
Q 26.375 40.375 22.484375 35.828125 
Q 18.609375 31.296875 18.609375 23.390625 
Q 18.609375 15.53125 22.484375 10.953125 
Q 26.375 6.390625 33.015625 6.390625 
Q 39.65625 6.390625 43.53125 10.953125 
Q 47.40625 15.53125 47.40625 23.390625 
Q 47.40625 31.296875 43.53125 35.828125 
Q 39.65625 40.375 33.015625 40.375 
z
M 52.59375 71.296875 
L 52.59375 62.3125 
Q 48.875 64.0625 45.09375 64.984375 
Q 41.3125 65.921875 37.59375 65.921875 
Q 27.828125 65.921875 22.671875 59.328125 
Q 17.53125 52.734375 16.796875 39.40625 
Q 19.671875 43.65625 24.015625 45.921875 
Q 28.375 48.1875 33.59375 48.1875 
Q 44.578125 48.1875 50.953125 41.515625 
Q 57.328125 34.859375 57.328125 23.390625 
Q 57.328125 12.15625 50.6875 5.359375 
Q 44.046875 -1.421875 33.015625 -1.421875 
Q 20.359375 -1.421875 13.671875 8.265625 
Q 6.984375 17.96875 6.984375 36.375 
Q 6.984375 53.65625 15.1875 63.9375 
Q 23.390625 74.21875 37.203125 74.21875 
Q 40.921875 74.21875 44.703125 73.484375 
Q 48.484375 72.75 52.59375 71.296875 
z
" id="DejaVuSans-54"/>
       </defs>
       <use xlink:href="#DejaVuSans-54"/>
      </g>
     </g>
    </g>
    <g id="xtick_5">
     <g id="line2d_5">
      <g>
       <use style="stroke:#000000;stroke-width:0.8;" x="290.573554" xlink:href="#m3370af2613" y="252"/>
      </g>
     </g>
     <g id="text_5">
      <!-- 8 -->
      <g transform="translate(287.392304 266.598437)scale(0.1 -0.1)">
       <defs>
        <path d="M 31.78125 34.625 
Q 24.75 34.625 20.71875 30.859375 
Q 16.703125 27.09375 16.703125 20.515625 
Q 16.703125 13.921875 20.71875 10.15625 
Q 24.75 6.390625 31.78125 6.390625 
Q 38.8125 6.390625 42.859375 10.171875 
Q 46.921875 13.96875 46.921875 20.515625 
Q 46.921875 27.09375 42.890625 30.859375 
Q 38.875 34.625 31.78125 34.625 
z
M 21.921875 38.8125 
Q 15.578125 40.375 12.03125 44.71875 
Q 8.5 49.078125 8.5 55.328125 
Q 8.5 64.0625 14.71875 69.140625 
Q 20.953125 74.21875 31.78125 74.21875 
Q 42.671875 74.21875 48.875 69.140625 
Q 55.078125 64.0625 55.078125 55.328125 
Q 55.078125 49.078125 51.53125 44.71875 
Q 48 40.375 41.703125 38.8125 
Q 48.828125 37.15625 52.796875 32.3125 
Q 56.78125 27.484375 56.78125 20.515625 
Q 56.78125 9.90625 50.3125 4.234375 
Q 43.84375 -1.421875 31.78125 -1.421875 
Q 19.734375 -1.421875 13.25 4.234375 
Q 6.78125 9.90625 6.78125 20.515625 
Q 6.78125 27.484375 10.78125 32.3125 
Q 14.796875 37.15625 21.921875 38.8125 
z
M 18.3125 54.390625 
Q 18.3125 48.734375 21.84375 45.5625 
Q 25.390625 42.390625 31.78125 42.390625 
Q 38.140625 42.390625 41.71875 45.5625 
Q 45.3125 48.734375 45.3125 54.390625 
Q 45.3125 60.0625 41.71875 63.234375 
Q 38.140625 66.40625 31.78125 66.40625 
Q 25.390625 66.40625 21.84375 63.234375 
Q 18.3125 60.0625 18.3125 54.390625 
z
" id="DejaVuSans-56"/>
       </defs>
       <use xlink:href="#DejaVuSans-56"/>
      </g>
     </g>
    </g>
    <g id="xtick_6">
     <g id="line2d_6">
      <g>
       <use style="stroke:#000000;stroke-width:0.8;" x="345.912397" xlink:href="#m3370af2613" y="252"/>
      </g>
     </g>
     <g id="text_6">
      <!-- 10 -->
      <g transform="translate(339.549897 266.598437)scale(0.1 -0.1)">
       <defs>
        <path d="M 12.40625 8.296875 
L 28.515625 8.296875 
L 28.515625 63.921875 
L 10.984375 60.40625 
L 10.984375 69.390625 
L 28.421875 72.90625 
L 38.28125 72.90625 
L 38.28125 8.296875 
L 54.390625 8.296875 
L 54.390625 0 
L 12.40625 0 
z
" id="DejaVuSans-49"/>
       </defs>
       <use xlink:href="#DejaVuSans-49"/>
       <use x="63.623047" xlink:href="#DejaVuSans-48"/>
      </g>
     </g>
    </g>
    <g id="text_7">
     <!-- x -->
     <g transform="translate(217.84875 281.79625)scale(0.12 -0.12)">
      <defs>
       <path d="M 54.890625 54.6875 
L 35.109375 28.078125 
L 55.90625 0 
L 45.3125 0 
L 29.390625 21.484375 
L 13.484375 0 
L 2.875 0 
L 24.125 28.609375 
L 4.6875 54.6875 
L 15.28125 54.6875 
L 29.78125 35.203125 
L 44.28125 54.6875 
z
" id="DejaVuSans-120"/>
      </defs>
      <use xlink:href="#DejaVuSans-120"/>
     </g>
    </g>
   </g>
   <g id="matplotlib.axis_2">
    <g id="ytick_1">
     <g id="line2d_7">
      <defs>
       <path d="M 0 0 
L -3.5 0 
" id="m06e97983a8" style="stroke:#000000;stroke-width:0.8;"/>
      </defs>
      <g>
       <use style="stroke:#000000;stroke-width:0.8;" x="54" xlink:href="#m06e97983a8" y="252"/>
      </g>
     </g>
     <g id="text_8">
      <!-- 3 -->
      <g transform="translate(40.6375 255.799219)scale(0.1 -0.1)">
       <defs>
        <path d="M 40.578125 39.3125 
Q 47.65625 37.796875 51.625 33 
Q 55.609375 28.21875 55.609375 21.1875 
Q 55.609375 10.40625 48.1875 4.484375 
Q 40.765625 -1.421875 27.09375 -1.421875 
Q 22.515625 -1.421875 17.65625 -0.515625 
Q 12.796875 0.390625 7.625 2.203125 
L 7.625 11.71875 
Q 11.71875 9.328125 16.59375 8.109375 
Q 21.484375 6.890625 26.8125 6.890625 
Q 36.078125 6.890625 40.9375 10.546875 
Q 45.796875 14.203125 45.796875 21.1875 
Q 45.796875 27.640625 41.28125 31.265625 
Q 36.765625 34.90625 28.71875 34.90625 
L 20.21875 34.90625 
L 20.21875 43.015625 
L 29.109375 43.015625 
Q 36.375 43.015625 40.234375 45.921875 
Q 44.09375 48.828125 44.09375 54.296875 
Q 44.09375 59.90625 40.109375 62.90625 
Q 36.140625 65.921875 28.71875 65.921875 
Q 24.65625 65.921875 20.015625 65.03125 
Q 15.375 64.15625 9.8125 62.3125 
L 9.8125 71.09375 
Q 15.4375 72.65625 20.34375 73.4375 
Q 25.25 74.21875 29.59375 74.21875 
Q 40.828125 74.21875 47.359375 69.109375 
Q 53.90625 64.015625 53.90625 55.328125 
Q 53.90625 49.265625 50.4375 45.09375 
Q 46.96875 40.921875 40.578125 39.3125 
z
" id="DejaVuSans-51"/>
       </defs>
       <use xlink:href="#DejaVuSans-51"/>
      </g>
     </g>
    </g>
    <g id="ytick_2">
     <g id="line2d_8">
      <g>
       <use style="stroke:#000000;stroke-width:0.8;" x="54" xlink:href="#m06e97983a8" y="215.76"/>
      </g>
     </g>
     <g id="text_9">
      <!-- 4 -->
      <g transform="translate(40.6375 219.559219)scale(0.1 -0.1)">
       <use xlink:href="#DejaVuSans-52"/>
      </g>
     </g>
    </g>
    <g id="ytick_3">
     <g id="line2d_9">
      <g>
       <use style="stroke:#000000;stroke-width:0.8;" x="54" xlink:href="#m06e97983a8" y="179.52"/>
      </g>
     </g>
     <g id="text_10">
      <!-- 5 -->
      <g transform="translate(40.6375 183.319219)scale(0.1 -0.1)">
       <defs>
        <path d="M 10.796875 72.90625 
L 49.515625 72.90625 
L 49.515625 64.59375 
L 19.828125 64.59375 
L 19.828125 46.734375 
Q 21.96875 47.46875 24.109375 47.828125 
Q 26.265625 48.1875 28.421875 48.1875 
Q 40.625 48.1875 47.75 41.5 
Q 54.890625 34.8125 54.890625 23.390625 
Q 54.890625 11.625 47.5625 5.09375 
Q 40.234375 -1.421875 26.90625 -1.421875 
Q 22.3125 -1.421875 17.546875 -0.640625 
Q 12.796875 0.140625 7.71875 1.703125 
L 7.71875 11.625 
Q 12.109375 9.234375 16.796875 8.0625 
Q 21.484375 6.890625 26.703125 6.890625 
Q 35.15625 6.890625 40.078125 11.328125 
Q 45.015625 15.765625 45.015625 23.390625 
Q 45.015625 31 40.078125 35.4375 
Q 35.15625 39.890625 26.703125 39.890625 
Q 22.75 39.890625 18.8125 39.015625 
Q 14.890625 38.140625 10.796875 36.28125 
z
" id="DejaVuSans-53"/>
       </defs>
       <use xlink:href="#DejaVuSans-53"/>
      </g>
     </g>
    </g>
    <g id="ytick_4">
     <g id="line2d_10">
      <g>
       <use style="stroke:#000000;stroke-width:0.8;" x="54" xlink:href="#m06e97983a8" y="143.28"/>
      </g>
     </g>
     <g id="text_11">
      <!-- 6 -->
      <g transform="translate(40.6375 147.079219)scale(0.1 -0.1)">
       <use xlink:href="#DejaVuSans-54"/>
      </g>
     </g>
    </g>
    <g id="ytick_5">
     <g id="line2d_11">
      <g>
       <use style="stroke:#000000;stroke-width:0.8;" x="54" xlink:href="#m06e97983a8" y="107.04"/>
      </g>
     </g>
     <g id="text_12">
      <!-- 7 -->
      <g transform="translate(40.6375 110.839219)scale(0.1 -0.1)">
       <defs>
        <path d="M 8.203125 72.90625 
L 55.078125 72.90625 
L 55.078125 68.703125 
L 28.609375 0 
L 18.3125 0 
L 43.21875 64.59375 
L 8.203125 64.59375 
z
" id="DejaVuSans-55"/>
       </defs>
       <use xlink:href="#DejaVuSans-55"/>
      </g>
     </g>
    </g>
    <g id="ytick_6">
     <g id="line2d_12">
      <g>
       <use style="stroke:#000000;stroke-width:0.8;" x="54" xlink:href="#m06e97983a8" y="70.8"/>
      </g>
     </g>
     <g id="text_13">
      <!-- 8 -->
      <g transform="translate(40.6375 74.599219)scale(0.1 -0.1)">
       <use xlink:href="#DejaVuSans-56"/>
      </g>
     </g>
    </g>
    <g id="ytick_7">
     <g id="line2d_13">
      <g>
       <use style="stroke:#000000;stroke-width:0.8;" x="54" xlink:href="#m06e97983a8" y="34.56"/>
      </g>
     </g>
     <g id="text_14">
      <!-- 9 -->
      <g transform="translate(40.6375 38.359219)scale(0.1 -0.1)">
       <defs>
        <path d="M 10.984375 1.515625 
L 10.984375 10.5 
Q 14.703125 8.734375 18.5 7.8125 
Q 22.3125 6.890625 25.984375 6.890625 
Q 35.75 6.890625 40.890625 13.453125 
Q 46.046875 20.015625 46.78125 33.40625 
Q 43.953125 29.203125 39.59375 26.953125 
Q 35.25 24.703125 29.984375 24.703125 
Q 19.046875 24.703125 12.671875 31.3125 
Q 6.296875 37.9375 6.296875 49.421875 
Q 6.296875 60.640625 12.9375 67.421875 
Q 19.578125 74.21875 30.609375 74.21875 
Q 43.265625 74.21875 49.921875 64.515625 
Q 56.59375 54.828125 56.59375 36.375 
Q 56.59375 19.140625 48.40625 8.859375 
Q 40.234375 -1.421875 26.421875 -1.421875 
Q 22.703125 -1.421875 18.890625 -0.6875 
Q 15.09375 0.046875 10.984375 1.515625 
z
M 30.609375 32.421875 
Q 37.25 32.421875 41.125 36.953125 
Q 45.015625 41.5 45.015625 49.421875 
Q 45.015625 57.28125 41.125 61.84375 
Q 37.25 66.40625 30.609375 66.40625 
Q 23.96875 66.40625 20.09375 61.84375 
Q 16.21875 57.28125 16.21875 49.421875 
Q 16.21875 41.5 20.09375 36.953125 
Q 23.96875 32.421875 30.609375 32.421875 
z
" id="DejaVuSans-57"/>
       </defs>
       <use xlink:href="#DejaVuSans-57"/>
      </g>
     </g>
    </g>
    <g id="text_15">
     <!-- y -->
     <g transform="translate(34.141875 146.83125)rotate(-90)scale(0.12 -0.12)">
      <defs>
       <path d="M 32.171875 -5.078125 
Q 28.375 -14.84375 24.75 -17.8125 
Q 21.140625 -20.796875 15.09375 -20.796875 
L 7.90625 -20.796875 
L 7.90625 -13.28125 
L 13.1875 -13.28125 
Q 16.890625 -13.28125 18.9375 -11.515625 
Q 21 -9.765625 23.484375 -3.21875 
L 25.09375 0.875 
L 2.984375 54.6875 
L 12.5 54.6875 
L 29.59375 11.921875 
L 46.6875 54.6875 
L 56.203125 54.6875 
z
" id="DejaVuSans-121"/>
      </defs>
      <use xlink:href="#DejaVuSans-121"/>
     </g>
    </g>
   </g>
   <g id="line2d_14">
    <path clip-path="url(#p36af5727f9)" d="M 69.218182 70.8 
L 71.985124 85.083949 
L 74.752066 98.25467 
L 77.519008 110.364828 
L 80.28595 121.465955 
L 83.052893 131.608455 
L 85.819835 140.841599 
L 88.586777 149.213528 
L 91.353719 156.771253 
L 94.120661 163.560654 
L 96.887603 169.62648 
L 99.654545 175.012349 
L 102.421488 179.76075 
L 105.18843 183.913038 
L 107.955372 187.509441 
L 110.722314 190.589055 
L 113.489256 193.189844 
L 116.256198 195.348643 
L 119.02314 197.101155 
L 121.790083 198.481953 
L 124.557025 199.52448 
L 127.323967 200.261047 
L 130.090909 200.722835 
L 132.857851 200.939895 
L 135.624793 200.941145 
L 138.391736 200.754375 
L 141.158678 200.406243 
L 143.92562 199.922276 
L 146.692562 199.326871 
L 149.459504 198.643294 
L 152.226446 197.89368 
L 154.993388 197.099035 
L 157.760331 196.279231 
L 160.527273 195.453014 
L 163.294215 194.637994 
L 166.061157 193.850655 
L 168.828099 193.106347 
L 171.595041 192.419291 
L 174.361983 191.802577 
L 177.128926 191.268164 
L 179.895868 190.82688 
L 182.66281 190.488424 
L 185.429752 190.261362 
L 188.196694 190.153131 
L 190.963636 190.170037 
L 193.730579 190.317255 
L 196.497521 190.598829 
L 199.264463 191.017673 
L 202.031405 191.575569 
L 204.798347 192.273171 
L 207.565289 193.11 
L 210.332231 194.084446 
L 213.099174 195.193771 
L 215.866116 196.434103 
L 218.633058 197.800442 
L 221.4 199.286655 
L 224.166942 200.88548 
L 226.933884 202.588525 
L 229.700826 204.386264 
L 232.467769 206.268045 
L 235.234711 208.22208 
L 238.001653 210.235455 
L 240.768595 212.294122 
L 243.535537 214.382905 
L 246.302479 216.485496 
L 249.069421 218.584455 
L 251.836364 220.661214 
L 254.603306 222.696071 
L 257.370248 224.668198 
L 260.13719 226.555631 
L 262.904132 228.33528 
L 265.671074 229.982921 
L 268.438017 231.4732 
L 271.204959 232.779634 
L 273.971901 233.874607 
L 276.738843 234.729375 
L 279.505785 235.31406 
L 282.272727 235.597656 
L 285.039669 235.548026 
L 287.806612 235.1319 
L 290.573554 234.31488 
L 293.340496 233.061436 
L 296.107438 231.334908 
L 298.87438 229.097505 
L 301.641322 226.310305 
L 304.408264 222.933255 
L 307.175207 218.925173 
L 309.942149 214.243744 
L 312.709091 208.845524 
L 315.476033 202.685938 
L 318.242975 195.71928 
L 321.009917 187.898713 
L 323.77686 179.176271 
L 326.543802 169.502854 
L 329.310744 158.828236 
L 332.077686 147.101055 
L 334.844628 134.268823 
L 337.61157 120.277918 
L 340.378512 105.073589 
L 343.145455 88.599954 
L 345.912397 70.8 
L 348.679339 51.615584 
L 351.446281 30.987432 
L 354.213223 8.855138 
L 355.363895 -1 
" style="fill:none;stroke:#0000ff;stroke-linecap:square;stroke-width:2;"/>
   </g>
   <g id="line2d_15">
    <path clip-path="url(#p36af5727f9)" d="M 69.218182 177.649721 
L 71.985124 174.914683 
L 74.752066 172.693999 
L 77.519008 171.097711 
L 80.28595 170.218072 
L 83.052893 170.120246 
L 85.819835 170.832911 
L 88.586777 172.340684 
L 91.353719 174.581156 
L 94.120661 177.448881 
L 96.887603 180.806211 
L 99.654545 184.498001 
L 102.421488 188.36612 
L 105.18843 192.260956 
L 107.955372 196.049081 
L 110.722314 199.617604 
L 113.489256 202.876162 
L 116.256198 205.757371 
L 119.02314 208.216302 
L 121.790083 210.229321 
L 124.557025 211.792469 
L 127.323967 212.919457 
L 130.090909 213.639286 
L 132.857851 213.993505 
L 135.624793 214.033142 
L 138.391736 213.815377 
L 141.158678 213.40012 
L 143.92562 212.846621 
L 146.692562 212.210317 
L 149.459504 211.540056 
L 152.226446 210.875886 
L 154.993388 210.247544 
L 157.760331 209.673832 
L 160.527273 209.163025 
L 163.294215 208.71443 
L 166.061157 208.321113 
L 168.828099 207.973684 
L 171.595041 207.66481 
L 174.361983 207.393906 
L 177.128926 207.171142 
L 179.895868 207.019569 
L 182.66281 206.974056 
L 185.429752 207.07609 
L 188.196694 207.364894 
L 190.963636 207.867366 
L 193.730579 208.590632 
L 196.497521 209.520039 
L 199.264463 210.622623 
L 202.031405 211.853782 
L 204.798347 213.164476 
L 207.565289 214.507297 
L 210.332231 215.840873 
L 213.099174 217.132716 
L 215.866116 218.360795 
L 218.633058 219.514118 
L 221.4 220.59248 
L 224.166942 221.605539 
L 226.933884 222.57131 
L 229.700826 223.514201 
L 232.467769 224.462717 
L 235.234711 225.446947 
L 238.001653 226.496007 
L 240.768595 227.63555 
L 243.535537 228.885508 
L 246.302479 230.258169 
L 249.069421 231.756704 
L 251.836364 233.374213 
L 254.603306 235.093353 
L 257.370248 236.886561 
L 260.13719 238.716861 
L 262.904132 240.539256 
L 265.671074 242.302625 
L 268.438017 243.952068 
L 271.204959 245.431621 
L 273.971901 246.687206 
L 276.738843 247.669655 
L 279.505785 248.337525 
L 282.272727 248.659145 
L 285.039669 248.612926 
L 287.806612 248.184356 
L 290.573554 247.35799 
L 293.340496 246.104476 
L 296.107438 244.367189 
L 298.87438 242.057737 
L 301.641322 239.067453 
L 304.408264 235.291689 
L 307.175207 230.655618 
L 309.942149 225.132182 
L 312.709091 218.749889 
L 315.476033 211.592751 
L 318.242975 203.795469 
L 321.009917 195.536088 
L 323.77686 187.027412 
L 326.543802 178.50772 
L 329.310744 170.23085 
L 332.077686 162.455167 
L 334.844628 155.430766 
L 337.61157 149.384666 
L 340.378512 144.505153 
L 343.145455 140.928066 
L 345.912397 138.728317 
L 348.679339 137.918278 
L 351.446281 138.452255 
L 354.213223 140.234794 
L 356.980165 143.130724 
L 359.747107 146.975701 
L 362.51405 151.586675 
L 365.280992 156.771937 
L 368.047934 162.340461 
L 370.814876 168.110172 
L 373.581818 173.914805 
" style="fill:none;stroke:#008000;stroke-dasharray:3.7,1.6;stroke-dashoffset:0;"/>
   </g>
   <g id="line2d_16">
    <path clip-path="url(#p36af5727f9)" d="M 69.218182 121.549642 
L 71.985124 122.3729 
L 74.752066 123.682359 
L 77.519008 125.466845 
L 80.28595 127.696513 
L 83.052893 130.326703 
L 85.819835 133.304057 
L 88.586777 136.573372 
L 91.353719 140.082525 
L 94.120661 143.783098 
L 96.887603 147.626555 
L 99.654545 151.558513 
L 102.421488 155.514559 
L 105.18843 159.419755 
L 107.955372 163.191908 
L 110.722314 166.74736 
L 113.489256 170.007705 
L 116.256198 172.906108 
L 119.02314 175.392278 
L 121.790083 177.435618 
L 124.557025 179.026368 
L 127.323967 180.174864 
L 130.090909 180.909226 
L 132.857851 181.271915 
L 135.624793 181.315639 
L 138.391736 181.099047 
L 141.158678 180.682618 
L 143.92562 180.125031 
L 146.692562 179.480257 
L 149.459504 178.795463 
L 152.226446 178.109785 
L 154.993388 177.453841 
L 157.760331 176.849808 
L 160.527273 176.311762 
L 163.294215 175.845974 
L 166.061157 175.450869 
L 168.828099 175.116512 
L 171.595041 174.82361 
L 174.361983 174.542347 
L 177.128926 174.231656 
L 179.895868 173.839915 
L 182.66281 173.308276 
L 185.429752 172.577461 
L 188.196694 171.597582 
L 190.963636 170.338513 
L 193.730579 168.7971 
L 196.497521 166.998523 
L 199.264463 164.991877 
L 202.031405 162.842429 
L 204.798347 160.623317 
L 207.565289 158.408493 
L 210.332231 156.267524 
L 213.099174 154.262185 
L 215.866116 152.444578 
L 218.633058 150.856483 
L 221.4 149.529713 
L 224.166942 148.487247 
L 226.933884 147.744926 
L 229.700826 147.313505 
L 232.467769 147.200801 
L 235.234711 147.413721 
L 238.001653 147.959929 
L 240.768595 148.848971 
L 243.535537 150.092685 
L 246.302479 151.704811 
L 249.069421 153.699769 
L 251.836364 156.090637 
L 254.603306 158.886439 
L 257.370248 162.08891 
L 260.13719 165.688951 
L 262.904132 169.663026 
L 265.671074 173.969754 
L 268.438017 178.546965 
L 271.204959 183.309453 
L 273.971901 188.147665 
L 276.738843 192.927533 
L 279.505785 197.491762 
L 282.272727 201.663025 
L 285.039669 205.24998 
L 287.806612 208.057484 
L 290.573554 209.902495 
L 293.340496 210.6354 
L 296.107438 210.161875 
L 298.87438 208.455702 
L 301.641322 205.555062 
L 304.408264 201.545093 
L 307.175207 196.537577 
L 309.942149 190.656701 
L 312.709091 184.032776 
L 315.476033 176.801258 
L 318.242975 169.103723 
L 321.009917 161.088414 
L 323.77686 152.909144 
L 326.543802 144.722234 
L 329.310744 136.681893 
L 332.077686 128.93519 
L 334.844628 121.618105 
L 337.61157 114.853882 
L 340.378512 108.753542 
L 343.145455 103.416743 
L 345.912397 98.93058 
L 348.679339 95.365321 
L 351.446281 92.768286 
L 354.213223 91.158178 
L 356.980165 90.521739 
L 359.747107 90.813418 
L 362.51405 91.957865 
L 365.280992 93.854602 
L 368.047934 96.384161 
L 370.814876 99.414991 
L 373.581818 102.810538 
" style="fill:none;stroke:#008000;stroke-dasharray:3.7,1.6;stroke-dashoffset:0;"/>
   </g>
   <g id="line2d_17">
    <path clip-path="url(#p36af5727f9)" d="M 69.218182 177.649721 
L 71.985124 174.914683 
L 74.752066 172.693999 
L 77.519008 171.097711 
L 80.28595 170.218072 
L 83.052893 170.120246 
L 85.819835 170.832911 
L 88.586777 172.340684 
L 91.353719 174.581156 
L 94.120661 177.448881 
L 96.887603 180.806211 
L 99.654545 184.498001 
L 102.421488 188.36612 
L 105.18843 192.260956 
L 107.955372 196.049081 
L 110.722314 199.617604 
L 113.489256 202.876162 
L 116.256198 205.757371 
L 119.02314 208.216302 
L 121.790083 210.229321 
L 124.557025 211.792469 
L 127.323967 212.919457 
L 130.090909 213.639286 
L 132.857851 213.993505 
L 135.624793 214.033142 
L 138.391736 213.815377 
L 141.158678 213.40012 
L 143.92562 212.846621 
L 146.692562 212.210317 
L 149.459504 211.540056 
L 152.226446 210.875886 
L 154.993388 210.247544 
L 157.760331 209.673832 
L 160.527273 209.163025 
L 163.294215 208.71443 
L 166.061157 208.321113 
L 168.828099 207.973684 
L 171.595041 207.66481 
L 174.361983 207.393906 
L 177.128926 207.171142 
L 179.895868 207.019569 
L 182.66281 206.974056 
L 185.429752 207.07609 
L 188.196694 207.364894 
L 190.963636 207.867366 
L 193.730579 208.590632 
L 196.497521 209.520039 
L 199.264463 210.622623 
L 202.031405 211.853782 
L 204.798347 213.164476 
L 207.565289 214.507297 
L 210.332231 215.840873 
L 213.099174 217.132716 
L 215.866116 218.360795 
L 218.633058 219.514118 
L 221.4 220.59248 
L 224.166942 221.605539 
L 226.933884 222.57131 
L 229.700826 223.514201 
L 232.467769 224.462717 
L 235.234711 225.446947 
L 238.001653 226.496007 
L 240.768595 227.63555 
L 243.535537 228.885508 
L 246.302479 230.258169 
L 249.069421 231.756704 
L 251.836364 233.374213 
L 254.603306 235.093353 
L 257.370248 236.886561 
L 260.13719 238.716861 
L 262.904132 240.539256 
L 265.671074 242.302625 
L 268.438017 243.952068 
L 271.204959 245.431621 
L 273.971901 246.687206 
L 276.738843 247.669655 
L 279.505785 248.337525 
L 282.272727 248.659145 
L 285.039669 248.612926 
L 287.806612 248.184356 
L 290.573554 247.35799 
L 293.340496 246.104476 
L 296.107438 244.367189 
L 298.87438 242.057737 
L 301.641322 239.067453 
L 304.408264 235.291689 
L 307.175207 230.655618 
L 309.942149 225.132182 
L 312.709091 218.749889 
L 315.476033 211.592751 
L 318.242975 203.795469 
L 321.009917 195.536088 
L 323.77686 187.027412 
L 326.543802 178.50772 
L 329.310744 170.23085 
L 332.077686 162.455167 
L 334.844628 155.430766 
L 337.61157 149.384666 
L 340.378512 144.505153 
L 343.145455 140.928066 
L 345.912397 138.728317 
L 348.679339 137.918278 
L 351.446281 138.452255 
L 354.213223 140.234794 
L 356.980165 143.130724 
L 359.747107 146.975701 
L 362.51405 151.586675 
L 365.280992 156.771937 
L 368.047934 162.340461 
L 370.814876 168.110172 
L 373.581818 173.914805 
" style="fill:none;stroke:#bfbf00;stroke-dasharray:7.4,3.2;stroke-dashoffset:0;stroke-width:2;"/>
   </g>
   <g id="patch_3">
    <path d="M 54 252 
L 54 34.56 
" style="fill:none;stroke:#000000;stroke-linecap:square;stroke-linejoin:miter;stroke-width:0.8;"/>
   </g>
   <g id="patch_4">
    <path d="M 388.8 252 
L 388.8 34.56 
" style="fill:none;stroke:#000000;stroke-linecap:square;stroke-linejoin:miter;stroke-width:0.8;"/>
   </g>
   <g id="patch_5">
    <path d="M 54 252 
L 388.8 252 
" style="fill:none;stroke:#000000;stroke-linecap:square;stroke-linejoin:miter;stroke-width:0.8;"/>
   </g>
   <g id="patch_6">
    <path d="M 54 34.56 
L 388.8 34.56 
" style="fill:none;stroke:#000000;stroke-linecap:square;stroke-linejoin:miter;stroke-width:0.8;"/>
   </g>
   <g id="text_16">
    <!-- Method : UCB -->
    <g transform="translate(71.985124 244.752)scale(0.12 -0.12)">
     <defs>
      <path d="M 9.8125 72.90625 
L 24.515625 72.90625 
L 43.109375 23.296875 
L 61.8125 72.90625 
L 76.515625 72.90625 
L 76.515625 0 
L 66.890625 0 
L 66.890625 64.015625 
L 48.09375 14.015625 
L 38.1875 14.015625 
L 19.390625 64.015625 
L 19.390625 0 
L 9.8125 0 
z
" id="DejaVuSans-77"/>
      <path d="M 56.203125 29.59375 
L 56.203125 25.203125 
L 14.890625 25.203125 
Q 15.484375 15.921875 20.484375 11.0625 
Q 25.484375 6.203125 34.421875 6.203125 
Q 39.59375 6.203125 44.453125 7.46875 
Q 49.3125 8.734375 54.109375 11.28125 
L 54.109375 2.78125 
Q 49.265625 0.734375 44.1875 -0.34375 
Q 39.109375 -1.421875 33.890625 -1.421875 
Q 20.796875 -1.421875 13.15625 6.1875 
Q 5.515625 13.8125 5.515625 26.8125 
Q 5.515625 40.234375 12.765625 48.109375 
Q 20.015625 56 32.328125 56 
Q 43.359375 56 49.78125 48.890625 
Q 56.203125 41.796875 56.203125 29.59375 
z
M 47.21875 32.234375 
Q 47.125 39.59375 43.09375 43.984375 
Q 39.0625 48.390625 32.421875 48.390625 
Q 24.90625 48.390625 20.390625 44.140625 
Q 15.875 39.890625 15.1875 32.171875 
z
" id="DejaVuSans-101"/>
      <path d="M 18.3125 70.21875 
L 18.3125 54.6875 
L 36.8125 54.6875 
L 36.8125 47.703125 
L 18.3125 47.703125 
L 18.3125 18.015625 
Q 18.3125 11.328125 20.140625 9.421875 
Q 21.96875 7.515625 27.59375 7.515625 
L 36.8125 7.515625 
L 36.8125 0 
L 27.59375 0 
Q 17.1875 0 13.234375 3.875 
Q 9.28125 7.765625 9.28125 18.015625 
L 9.28125 47.703125 
L 2.6875 47.703125 
L 2.6875 54.6875 
L 9.28125 54.6875 
L 9.28125 70.21875 
z
" id="DejaVuSans-116"/>
      <path d="M 54.890625 33.015625 
L 54.890625 0 
L 45.90625 0 
L 45.90625 32.71875 
Q 45.90625 40.484375 42.875 44.328125 
Q 39.84375 48.1875 33.796875 48.1875 
Q 26.515625 48.1875 22.3125 43.546875 
Q 18.109375 38.921875 18.109375 30.90625 
L 18.109375 0 
L 9.078125 0 
L 9.078125 75.984375 
L 18.109375 75.984375 
L 18.109375 46.1875 
Q 21.34375 51.125 25.703125 53.5625 
Q 30.078125 56 35.796875 56 
Q 45.21875 56 50.046875 50.171875 
Q 54.890625 44.34375 54.890625 33.015625 
z
" id="DejaVuSans-104"/>
      <path d="M 30.609375 48.390625 
Q 23.390625 48.390625 19.1875 42.75 
Q 14.984375 37.109375 14.984375 27.296875 
Q 14.984375 17.484375 19.15625 11.84375 
Q 23.34375 6.203125 30.609375 6.203125 
Q 37.796875 6.203125 41.984375 11.859375 
Q 46.1875 17.53125 46.1875 27.296875 
Q 46.1875 37.015625 41.984375 42.703125 
Q 37.796875 48.390625 30.609375 48.390625 
z
M 30.609375 56 
Q 42.328125 56 49.015625 48.375 
Q 55.71875 40.765625 55.71875 27.296875 
Q 55.71875 13.875 49.015625 6.21875 
Q 42.328125 -1.421875 30.609375 -1.421875 
Q 18.84375 -1.421875 12.171875 6.21875 
Q 5.515625 13.875 5.515625 27.296875 
Q 5.515625 40.765625 12.171875 48.375 
Q 18.84375 56 30.609375 56 
z
" id="DejaVuSans-111"/>
      <path d="M 45.40625 46.390625 
L 45.40625 75.984375 
L 54.390625 75.984375 
L 54.390625 0 
L 45.40625 0 
L 45.40625 8.203125 
Q 42.578125 3.328125 38.25 0.953125 
Q 33.9375 -1.421875 27.875 -1.421875 
Q 17.96875 -1.421875 11.734375 6.484375 
Q 5.515625 14.40625 5.515625 27.296875 
Q 5.515625 40.1875 11.734375 48.09375 
Q 17.96875 56 27.875 56 
Q 33.9375 56 38.25 53.625 
Q 42.578125 51.265625 45.40625 46.390625 
z
M 14.796875 27.296875 
Q 14.796875 17.390625 18.875 11.75 
Q 22.953125 6.109375 30.078125 6.109375 
Q 37.203125 6.109375 41.296875 11.75 
Q 45.40625 17.390625 45.40625 27.296875 
Q 45.40625 37.203125 41.296875 42.84375 
Q 37.203125 48.484375 30.078125 48.484375 
Q 22.953125 48.484375 18.875 42.84375 
Q 14.796875 37.203125 14.796875 27.296875 
z
" id="DejaVuSans-100"/>
      <path id="DejaVuSans-32"/>
      <path d="M 11.71875 12.40625 
L 22.015625 12.40625 
L 22.015625 0 
L 11.71875 0 
z
M 11.71875 51.703125 
L 22.015625 51.703125 
L 22.015625 39.3125 
L 11.71875 39.3125 
z
" id="DejaVuSans-58"/>
      <path d="M 8.6875 72.90625 
L 18.609375 72.90625 
L 18.609375 28.609375 
Q 18.609375 16.890625 22.84375 11.734375 
Q 27.09375 6.59375 36.625 6.59375 
Q 46.09375 6.59375 50.34375 11.734375 
Q 54.59375 16.890625 54.59375 28.609375 
L 54.59375 72.90625 
L 64.5 72.90625 
L 64.5 27.390625 
Q 64.5 13.140625 57.4375 5.859375 
Q 50.390625 -1.421875 36.625 -1.421875 
Q 22.796875 -1.421875 15.734375 5.859375 
Q 8.6875 13.140625 8.6875 27.390625 
z
" id="DejaVuSans-85"/>
      <path d="M 64.40625 67.28125 
L 64.40625 56.890625 
Q 59.421875 61.53125 53.78125 63.8125 
Q 48.140625 66.109375 41.796875 66.109375 
Q 29.296875 66.109375 22.65625 58.46875 
Q 16.015625 50.828125 16.015625 36.375 
Q 16.015625 21.96875 22.65625 14.328125 
Q 29.296875 6.6875 41.796875 6.6875 
Q 48.140625 6.6875 53.78125 8.984375 
Q 59.421875 11.28125 64.40625 15.921875 
L 64.40625 5.609375 
Q 59.234375 2.09375 53.4375 0.328125 
Q 47.65625 -1.421875 41.21875 -1.421875 
Q 24.65625 -1.421875 15.125 8.703125 
Q 5.609375 18.84375 5.609375 36.375 
Q 5.609375 53.953125 15.125 64.078125 
Q 24.65625 74.21875 41.21875 74.21875 
Q 47.75 74.21875 53.53125 72.484375 
Q 59.328125 70.75 64.40625 67.28125 
z
" id="DejaVuSans-67"/>
      <path d="M 19.671875 34.8125 
L 19.671875 8.109375 
L 35.5 8.109375 
Q 43.453125 8.109375 47.28125 11.40625 
Q 51.125 14.703125 51.125 21.484375 
Q 51.125 28.328125 47.28125 31.5625 
Q 43.453125 34.8125 35.5 34.8125 
z
M 19.671875 64.796875 
L 19.671875 42.828125 
L 34.28125 42.828125 
Q 41.5 42.828125 45.03125 45.53125 
Q 48.578125 48.25 48.578125 53.8125 
Q 48.578125 59.328125 45.03125 62.0625 
Q 41.5 64.796875 34.28125 64.796875 
z
M 9.8125 72.90625 
L 35.015625 72.90625 
Q 46.296875 72.90625 52.390625 68.21875 
Q 58.5 63.53125 58.5 54.890625 
Q 58.5 48.1875 55.375 44.234375 
Q 52.25 40.28125 46.1875 39.3125 
Q 53.46875 37.75 57.5 32.78125 
Q 61.53125 27.828125 61.53125 20.40625 
Q 61.53125 10.640625 54.890625 5.3125 
Q 48.25 0 35.984375 0 
L 9.8125 0 
z
" id="DejaVuSans-66"/>
     </defs>
     <use xlink:href="#DejaVuSans-77"/>
     <use x="86.279297" xlink:href="#DejaVuSans-101"/>
     <use x="147.802734" xlink:href="#DejaVuSans-116"/>
     <use x="187.011719" xlink:href="#DejaVuSans-104"/>
     <use x="250.390625" xlink:href="#DejaVuSans-111"/>
     <use x="311.572266" xlink:href="#DejaVuSans-100"/>
     <use x="375.048828" xlink:href="#DejaVuSans-32"/>
     <use x="406.835938" xlink:href="#DejaVuSans-58"/>
     <use x="440.527344" xlink:href="#DejaVuSans-32"/>
     <use x="472.314453" xlink:href="#DejaVuSans-85"/>
     <use x="545.507812" xlink:href="#DejaVuSans-67"/>
     <use x="615.332031" xlink:href="#DejaVuSans-66"/>
    </g>
   </g>
   <g id="text_17">
    <!-- Iter=2 -->
    <g transform="translate(71.985124 226.632)scale(0.12 -0.12)">
     <defs>
      <path d="M 9.8125 72.90625 
L 19.671875 72.90625 
L 19.671875 0 
L 9.8125 0 
z
" id="DejaVuSans-73"/>
      <path d="M 41.109375 46.296875 
Q 39.59375 47.171875 37.8125 47.578125 
Q 36.03125 48 33.890625 48 
Q 26.265625 48 22.1875 43.046875 
Q 18.109375 38.09375 18.109375 28.8125 
L 18.109375 0 
L 9.078125 0 
L 9.078125 54.6875 
L 18.109375 54.6875 
L 18.109375 46.1875 
Q 20.953125 51.171875 25.484375 53.578125 
Q 30.03125 56 36.53125 56 
Q 37.453125 56 38.578125 55.875 
Q 39.703125 55.765625 41.0625 55.515625 
z
" id="DejaVuSans-114"/>
      <path d="M 10.59375 45.40625 
L 73.1875 45.40625 
L 73.1875 37.203125 
L 10.59375 37.203125 
z
M 10.59375 25.484375 
L 73.1875 25.484375 
L 73.1875 17.1875 
L 10.59375 17.1875 
z
" id="DejaVuSans-61"/>
     </defs>
     <use xlink:href="#DejaVuSans-73"/>
     <use x="29.492188" xlink:href="#DejaVuSans-116"/>
     <use x="68.701172" xlink:href="#DejaVuSans-101"/>
     <use x="130.224609" xlink:href="#DejaVuSans-114"/>
     <use x="171.337891" xlink:href="#DejaVuSans-61"/>
     <use x="255.126953" xlink:href="#DejaVuSans-50"/>
    </g>
   </g>
   <g id="text_18">
    <!-- (c) -->
    <g transform="translate(71.985124 56.304)scale(0.12 -0.12)">
     <defs>
      <path d="M 31 75.875 
Q 24.46875 64.65625 21.28125 53.65625 
Q 18.109375 42.671875 18.109375 31.390625 
Q 18.109375 20.125 21.3125 9.0625 
Q 24.515625 -2 31 -13.1875 
L 23.1875 -13.1875 
Q 15.875 -1.703125 12.234375 9.375 
Q 8.59375 20.453125 8.59375 31.390625 
Q 8.59375 42.28125 12.203125 53.3125 
Q 15.828125 64.359375 23.1875 75.875 
z
" id="DejaVuSans-40"/>
      <path d="M 48.78125 52.59375 
L 48.78125 44.1875 
Q 44.96875 46.296875 41.140625 47.34375 
Q 37.3125 48.390625 33.40625 48.390625 
Q 24.65625 48.390625 19.8125 42.84375 
Q 14.984375 37.3125 14.984375 27.296875 
Q 14.984375 17.28125 19.8125 11.734375 
Q 24.65625 6.203125 33.40625 6.203125 
Q 37.3125 6.203125 41.140625 7.25 
Q 44.96875 8.296875 48.78125 10.40625 
L 48.78125 2.09375 
Q 45.015625 0.34375 40.984375 -0.53125 
Q 36.96875 -1.421875 32.421875 -1.421875 
Q 20.0625 -1.421875 12.78125 6.34375 
Q 5.515625 14.109375 5.515625 27.296875 
Q 5.515625 40.671875 12.859375 48.328125 
Q 20.21875 56 33.015625 56 
Q 37.15625 56 41.109375 55.140625 
Q 45.0625 54.296875 48.78125 52.59375 
z
" id="DejaVuSans-99"/>
      <path d="M 8.015625 75.875 
L 15.828125 75.875 
Q 23.140625 64.359375 26.78125 53.3125 
Q 30.421875 42.28125 30.421875 31.390625 
Q 30.421875 20.453125 26.78125 9.375 
Q 23.140625 -1.703125 15.828125 -13.1875 
L 8.015625 -13.1875 
Q 14.5 -2 17.703125 9.0625 
Q 20.90625 20.125 20.90625 31.390625 
Q 20.90625 42.671875 17.703125 53.65625 
Q 14.5 64.65625 8.015625 75.875 
z
" id="DejaVuSans-41"/>
     </defs>
     <use xlink:href="#DejaVuSans-40"/>
     <use x="39.013672" xlink:href="#DejaVuSans-99"/>
     <use x="93.994141" xlink:href="#DejaVuSans-41"/>
    </g>
   </g>
   <g id="legend_1">
    <g id="patch_7">
     <path d="M 144.327812 140.235625 
L 298.472188 140.235625 
Q 300.672188 140.235625 300.672188 138.035625 
L 300.672188 42.26 
Q 300.672188 40.06 298.472188 40.06 
L 144.327812 40.06 
Q 142.127813 40.06 142.127813 42.26 
L 142.127813 138.035625 
Q 142.127813 140.235625 144.327812 140.235625 
z
" style="fill:#ffffff;opacity:0.8;stroke:#cccccc;stroke-linejoin:miter;"/>
    </g>
    <g id="line2d_18">
     <path d="M 146.527813 48.968281 
L 168.527813 48.968281 
" style="fill:none;stroke:#0000ff;stroke-linecap:square;stroke-width:2;"/>
    </g>
    <g id="line2d_19"/>
    <g id="text_19">
     <!-- ture function -->
     <g transform="translate(177.327813 52.818281)scale(0.11 -0.11)">
      <defs>
       <path d="M 8.5 21.578125 
L 8.5 54.6875 
L 17.484375 54.6875 
L 17.484375 21.921875 
Q 17.484375 14.15625 20.5 10.265625 
Q 23.53125 6.390625 29.59375 6.390625 
Q 36.859375 6.390625 41.078125 11.03125 
Q 45.3125 15.671875 45.3125 23.6875 
L 45.3125 54.6875 
L 54.296875 54.6875 
L 54.296875 0 
L 45.3125 0 
L 45.3125 8.40625 
Q 42.046875 3.421875 37.71875 1 
Q 33.40625 -1.421875 27.6875 -1.421875 
Q 18.265625 -1.421875 13.375 4.4375 
Q 8.5 10.296875 8.5 21.578125 
z
M 31.109375 56 
z
" id="DejaVuSans-117"/>
       <path d="M 37.109375 75.984375 
L 37.109375 68.5 
L 28.515625 68.5 
Q 23.6875 68.5 21.796875 66.546875 
Q 19.921875 64.59375 19.921875 59.515625 
L 19.921875 54.6875 
L 34.71875 54.6875 
L 34.71875 47.703125 
L 19.921875 47.703125 
L 19.921875 0 
L 10.890625 0 
L 10.890625 47.703125 
L 2.296875 47.703125 
L 2.296875 54.6875 
L 10.890625 54.6875 
L 10.890625 58.5 
Q 10.890625 67.625 15.140625 71.796875 
Q 19.390625 75.984375 28.609375 75.984375 
z
" id="DejaVuSans-102"/>
       <path d="M 54.890625 33.015625 
L 54.890625 0 
L 45.90625 0 
L 45.90625 32.71875 
Q 45.90625 40.484375 42.875 44.328125 
Q 39.84375 48.1875 33.796875 48.1875 
Q 26.515625 48.1875 22.3125 43.546875 
Q 18.109375 38.921875 18.109375 30.90625 
L 18.109375 0 
L 9.078125 0 
L 9.078125 54.6875 
L 18.109375 54.6875 
L 18.109375 46.1875 
Q 21.34375 51.125 25.703125 53.5625 
Q 30.078125 56 35.796875 56 
Q 45.21875 56 50.046875 50.171875 
Q 54.890625 44.34375 54.890625 33.015625 
z
" id="DejaVuSans-110"/>
       <path d="M 9.421875 54.6875 
L 18.40625 54.6875 
L 18.40625 0 
L 9.421875 0 
z
M 9.421875 75.984375 
L 18.40625 75.984375 
L 18.40625 64.59375 
L 9.421875 64.59375 
z
" id="DejaVuSans-105"/>
      </defs>
      <use xlink:href="#DejaVuSans-116"/>
      <use x="39.208984" xlink:href="#DejaVuSans-117"/>
      <use x="102.587891" xlink:href="#DejaVuSans-114"/>
      <use x="141.451172" xlink:href="#DejaVuSans-101"/>
      <use x="202.974609" xlink:href="#DejaVuSans-32"/>
      <use x="234.761719" xlink:href="#DejaVuSans-102"/>
      <use x="269.966797" xlink:href="#DejaVuSans-117"/>
      <use x="333.345703" xlink:href="#DejaVuSans-110"/>
      <use x="396.724609" xlink:href="#DejaVuSans-99"/>
      <use x="451.705078" xlink:href="#DejaVuSans-116"/>
      <use x="490.914062" xlink:href="#DejaVuSans-105"/>
      <use x="518.697266" xlink:href="#DejaVuSans-111"/>
      <use x="579.878906" xlink:href="#DejaVuSans-110"/>
     </g>
    </g>
    <g id="line2d_20">
     <path d="M 146.527813 65.114219 
L 168.527813 65.114219 
" style="fill:none;stroke:#000000;stroke-dasharray:7.4,3.2;stroke-dashoffset:0;stroke-width:2;"/>
    </g>
    <g id="line2d_21"/>
    <g id="text_20">
     <!-- predicted function -->
     <g transform="translate(177.327813 68.964219)scale(0.11 -0.11)">
      <defs>
       <path d="M 18.109375 8.203125 
L 18.109375 -20.796875 
L 9.078125 -20.796875 
L 9.078125 54.6875 
L 18.109375 54.6875 
L 18.109375 46.390625 
Q 20.953125 51.265625 25.265625 53.625 
Q 29.59375 56 35.59375 56 
Q 45.5625 56 51.78125 48.09375 
Q 58.015625 40.1875 58.015625 27.296875 
Q 58.015625 14.40625 51.78125 6.484375 
Q 45.5625 -1.421875 35.59375 -1.421875 
Q 29.59375 -1.421875 25.265625 0.953125 
Q 20.953125 3.328125 18.109375 8.203125 
z
M 48.6875 27.296875 
Q 48.6875 37.203125 44.609375 42.84375 
Q 40.53125 48.484375 33.40625 48.484375 
Q 26.265625 48.484375 22.1875 42.84375 
Q 18.109375 37.203125 18.109375 27.296875 
Q 18.109375 17.390625 22.1875 11.75 
Q 26.265625 6.109375 33.40625 6.109375 
Q 40.53125 6.109375 44.609375 11.75 
Q 48.6875 17.390625 48.6875 27.296875 
z
" id="DejaVuSans-112"/>
      </defs>
      <use xlink:href="#DejaVuSans-112"/>
      <use x="63.476562" xlink:href="#DejaVuSans-114"/>
      <use x="102.339844" xlink:href="#DejaVuSans-101"/>
      <use x="163.863281" xlink:href="#DejaVuSans-100"/>
      <use x="227.339844" xlink:href="#DejaVuSans-105"/>
      <use x="255.123047" xlink:href="#DejaVuSans-99"/>
      <use x="310.103516" xlink:href="#DejaVuSans-116"/>
      <use x="349.3125" xlink:href="#DejaVuSans-101"/>
      <use x="410.835938" xlink:href="#DejaVuSans-100"/>
      <use x="474.3125" xlink:href="#DejaVuSans-32"/>
      <use x="506.099609" xlink:href="#DejaVuSans-102"/>
      <use x="541.304688" xlink:href="#DejaVuSans-117"/>
      <use x="604.683594" xlink:href="#DejaVuSans-110"/>
      <use x="668.0625" xlink:href="#DejaVuSans-99"/>
      <use x="723.042969" xlink:href="#DejaVuSans-116"/>
      <use x="762.251953" xlink:href="#DejaVuSans-105"/>
      <use x="790.035156" xlink:href="#DejaVuSans-111"/>
      <use x="851.216797" xlink:href="#DejaVuSans-110"/>
     </g>
    </g>
    <g id="line2d_22">
     <path d="M 146.527813 81.260156 
L 168.527813 81.260156 
" style="fill:none;stroke:#008000;stroke-dasharray:3.7,1.6;stroke-dashoffset:0;"/>
    </g>
    <g id="line2d_23"/>
    <g id="text_21">
     <!--   Sn(x) -->
     <g transform="translate(177.327813 85.110156)scale(0.11 -0.11)">
      <defs>
       <path d="M 46 62.703125 
L 46 43.796875 
L 73.1875 43.796875 
L 73.1875 35.5 
L 46 35.5 
L 46 16.609375 
L 37.796875 16.609375 
L 37.796875 35.5 
L 10.59375 35.5 
L 10.59375 43.796875 
L 37.796875 43.796875 
L 37.796875 62.703125 
z
M 10.59375 8.296875 
L 73.1875 8.296875 
L 73.1875 0 
L 10.59375 0 
z
" id="DejaVuSans-177"/>
       <path d="M 53.515625 70.515625 
L 53.515625 60.890625 
Q 47.90625 63.578125 42.921875 64.890625 
Q 37.9375 66.21875 33.296875 66.21875 
Q 25.25 66.21875 20.875 63.09375 
Q 16.5 59.96875 16.5 54.203125 
Q 16.5 49.359375 19.40625 46.890625 
Q 22.3125 44.4375 30.421875 42.921875 
L 36.375 41.703125 
Q 47.40625 39.59375 52.65625 34.296875 
Q 57.90625 29 57.90625 20.125 
Q 57.90625 9.515625 50.796875 4.046875 
Q 43.703125 -1.421875 29.984375 -1.421875 
Q 24.8125 -1.421875 18.96875 -0.25 
Q 13.140625 0.921875 6.890625 3.21875 
L 6.890625 13.375 
Q 12.890625 10.015625 18.65625 8.296875 
Q 24.421875 6.59375 29.984375 6.59375 
Q 38.421875 6.59375 43.015625 9.90625 
Q 47.609375 13.234375 47.609375 19.390625 
Q 47.609375 24.75 44.3125 27.78125 
Q 41.015625 30.8125 33.5 32.328125 
L 27.484375 33.5 
Q 16.453125 35.6875 11.515625 40.375 
Q 6.59375 45.0625 6.59375 53.421875 
Q 6.59375 63.09375 13.40625 68.65625 
Q 20.21875 74.21875 32.171875 74.21875 
Q 37.3125 74.21875 42.625 73.28125 
Q 47.953125 72.359375 53.515625 70.515625 
z
" id="DejaVuSans-83"/>
      </defs>
      <use xlink:href="#DejaVuSans-32"/>
      <use x="31.787109" xlink:href="#DejaVuSans-177"/>
      <use x="115.576172" xlink:href="#DejaVuSans-32"/>
      <use x="147.363281" xlink:href="#DejaVuSans-83"/>
      <use x="210.839844" xlink:href="#DejaVuSans-110"/>
      <use x="274.21875" xlink:href="#DejaVuSans-40"/>
      <use x="313.232422" xlink:href="#DejaVuSans-120"/>
      <use x="372.412109" xlink:href="#DejaVuSans-41"/>
     </g>
    </g>
    <g id="line2d_24">
     <path d="M 146.527813 97.406094 
L 168.527813 97.406094 
" style="fill:none;stroke:#bfbf00;stroke-dasharray:7.4,3.2;stroke-dashoffset:0;stroke-width:2;"/>
    </g>
    <g id="line2d_25"/>
    <g id="text_22">
     <!-- UCB(x) -->
     <g transform="translate(177.327813 101.256094)scale(0.11 -0.11)">
      <use xlink:href="#DejaVuSans-85"/>
      <use x="73.193359" xlink:href="#DejaVuSans-67"/>
      <use x="143.017578" xlink:href="#DejaVuSans-66"/>
      <use x="211.621094" xlink:href="#DejaVuSans-40"/>
      <use x="250.634766" xlink:href="#DejaVuSans-120"/>
      <use x="309.814453" xlink:href="#DejaVuSans-41"/>
     </g>
    </g>
    <g id="PathCollection_2">
     <defs>
      <path d="M 0 3.535534 
C 0.937635 3.535534 1.836992 3.163008 2.5 2.5 
C 3.163008 1.836992 3.535534 0.937635 3.535534 0 
C 3.535534 -0.937635 3.163008 -1.836992 2.5 -2.5 
C 1.836992 -3.163008 0.937635 -3.535534 0 -3.535534 
C -0.937635 -3.535534 -1.836992 -3.163008 -2.5 -2.5 
C -3.163008 -1.836992 -3.535534 -0.937635 -3.535534 0 
C -3.535534 0.937635 -3.163008 1.836992 -2.5 2.5 
C -1.836992 3.163008 -0.937635 3.535534 0 3.535534 
z
" id="mf1cfc1c580" style="stroke:#000000;"/>
     </defs>
     <g>
      <use style="fill:#ff0000;stroke:#000000;" x="157.527813" xlink:href="#mf1cfc1c580" y="114.514531"/>
     </g>
    </g>
    <g id="text_23">
     <!-- training data -->
     <g transform="translate(177.327813 117.402031)scale(0.11 -0.11)">
      <defs>
       <path d="M 34.28125 27.484375 
Q 23.390625 27.484375 19.1875 25 
Q 14.984375 22.515625 14.984375 16.5 
Q 14.984375 11.71875 18.140625 8.90625 
Q 21.296875 6.109375 26.703125 6.109375 
Q 34.1875 6.109375 38.703125 11.40625 
Q 43.21875 16.703125 43.21875 25.484375 
L 43.21875 27.484375 
z
M 52.203125 31.203125 
L 52.203125 0 
L 43.21875 0 
L 43.21875 8.296875 
Q 40.140625 3.328125 35.546875 0.953125 
Q 30.953125 -1.421875 24.3125 -1.421875 
Q 15.921875 -1.421875 10.953125 3.296875 
Q 6 8.015625 6 15.921875 
Q 6 25.140625 12.171875 29.828125 
Q 18.359375 34.515625 30.609375 34.515625 
L 43.21875 34.515625 
L 43.21875 35.40625 
Q 43.21875 41.609375 39.140625 45 
Q 35.0625 48.390625 27.6875 48.390625 
Q 23 48.390625 18.546875 47.265625 
Q 14.109375 46.140625 10.015625 43.890625 
L 10.015625 52.203125 
Q 14.9375 54.109375 19.578125 55.046875 
Q 24.21875 56 28.609375 56 
Q 40.484375 56 46.34375 49.84375 
Q 52.203125 43.703125 52.203125 31.203125 
z
" id="DejaVuSans-97"/>
       <path d="M 45.40625 27.984375 
Q 45.40625 37.75 41.375 43.109375 
Q 37.359375 48.484375 30.078125 48.484375 
Q 22.859375 48.484375 18.828125 43.109375 
Q 14.796875 37.75 14.796875 27.984375 
Q 14.796875 18.265625 18.828125 12.890625 
Q 22.859375 7.515625 30.078125 7.515625 
Q 37.359375 7.515625 41.375 12.890625 
Q 45.40625 18.265625 45.40625 27.984375 
z
M 54.390625 6.78125 
Q 54.390625 -7.171875 48.1875 -13.984375 
Q 42 -20.796875 29.203125 -20.796875 
Q 24.46875 -20.796875 20.265625 -20.09375 
Q 16.0625 -19.390625 12.109375 -17.921875 
L 12.109375 -9.1875 
Q 16.0625 -11.328125 19.921875 -12.34375 
Q 23.78125 -13.375 27.78125 -13.375 
Q 36.625 -13.375 41.015625 -8.765625 
Q 45.40625 -4.15625 45.40625 5.171875 
L 45.40625 9.625 
Q 42.625 4.78125 38.28125 2.390625 
Q 33.9375 0 27.875 0 
Q 17.828125 0 11.671875 7.65625 
Q 5.515625 15.328125 5.515625 27.984375 
Q 5.515625 40.671875 11.671875 48.328125 
Q 17.828125 56 27.875 56 
Q 33.9375 56 38.28125 53.609375 
Q 42.625 51.21875 45.40625 46.390625 
L 45.40625 54.6875 
L 54.390625 54.6875 
z
" id="DejaVuSans-103"/>
      </defs>
      <use xlink:href="#DejaVuSans-116"/>
      <use x="39.208984" xlink:href="#DejaVuSans-114"/>
      <use x="80.322266" xlink:href="#DejaVuSans-97"/>
      <use x="141.601562" xlink:href="#DejaVuSans-105"/>
      <use x="169.384766" xlink:href="#DejaVuSans-110"/>
      <use x="232.763672" xlink:href="#DejaVuSans-105"/>
      <use x="260.546875" xlink:href="#DejaVuSans-110"/>
      <use x="323.925781" xlink:href="#DejaVuSans-103"/>
      <use x="387.402344" xlink:href="#DejaVuSans-32"/>
      <use x="419.189453" xlink:href="#DejaVuSans-100"/>
      <use x="482.666016" xlink:href="#DejaVuSans-97"/>
      <use x="543.945312" xlink:href="#DejaVuSans-116"/>
      <use x="583.154297" xlink:href="#DejaVuSans-97"/>
     </g>
    </g>
    <g id="PathCollection_3">
     <g>
      <use style="fill:#ff0000;stroke:#ff0000;stroke-width:8;" x="157.527813" xlink:href="#m9b052db73a" y="130.660469"/>
     </g>
    </g>
    <g id="text_24">
     <!-- recommended datum -->
     <g transform="translate(177.327813 133.547969)scale(0.11 -0.11)">
      <defs>
       <path d="M 52 44.1875 
Q 55.375 50.25 60.0625 53.125 
Q 64.75 56 71.09375 56 
Q 79.640625 56 84.28125 50.015625 
Q 88.921875 44.046875 88.921875 33.015625 
L 88.921875 0 
L 79.890625 0 
L 79.890625 32.71875 
Q 79.890625 40.578125 77.09375 44.375 
Q 74.3125 48.1875 68.609375 48.1875 
Q 61.625 48.1875 57.5625 43.546875 
Q 53.515625 38.921875 53.515625 30.90625 
L 53.515625 0 
L 44.484375 0 
L 44.484375 32.71875 
Q 44.484375 40.625 41.703125 44.40625 
Q 38.921875 48.1875 33.109375 48.1875 
Q 26.21875 48.1875 22.15625 43.53125 
Q 18.109375 38.875 18.109375 30.90625 
L 18.109375 0 
L 9.078125 0 
L 9.078125 54.6875 
L 18.109375 54.6875 
L 18.109375 46.1875 
Q 21.1875 51.21875 25.484375 53.609375 
Q 29.78125 56 35.6875 56 
Q 41.65625 56 45.828125 52.96875 
Q 50 49.953125 52 44.1875 
z
" id="DejaVuSans-109"/>
      </defs>
      <use xlink:href="#DejaVuSans-114"/>
      <use x="38.863281" xlink:href="#DejaVuSans-101"/>
      <use x="100.386719" xlink:href="#DejaVuSans-99"/>
      <use x="155.367188" xlink:href="#DejaVuSans-111"/>
      <use x="216.548828" xlink:href="#DejaVuSans-109"/>
      <use x="313.960938" xlink:href="#DejaVuSans-109"/>
      <use x="411.373047" xlink:href="#DejaVuSans-101"/>
      <use x="472.896484" xlink:href="#DejaVuSans-110"/>
      <use x="536.275391" xlink:href="#DejaVuSans-100"/>
      <use x="599.751953" xlink:href="#DejaVuSans-101"/>
      <use x="661.275391" xlink:href="#DejaVuSans-100"/>
      <use x="724.751953" xlink:href="#DejaVuSans-32"/>
      <use x="756.539062" xlink:href="#DejaVuSans-100"/>
      <use x="820.015625" xlink:href="#DejaVuSans-97"/>
      <use x="881.294922" xlink:href="#DejaVuSans-116"/>
      <use x="920.503906" xlink:href="#DejaVuSans-117"/>
      <use x="983.882812" xlink:href="#DejaVuSans-109"/>
     </g>
    </g>
   </g>
   <g id="line2d_26">
    <path clip-path="url(#p36af5727f9)" d="M 69.218182 149.599682 
L 71.985124 148.643791 
L 74.752066 148.188179 
L 77.519008 148.282278 
L 80.28595 148.957293 
L 83.052893 150.223474 
L 85.819835 152.068484 
L 88.586777 154.457028 
L 91.353719 157.33184 
L 94.120661 160.615989 
L 96.887603 164.216383 
L 99.654545 168.028257 
L 102.421488 171.94034 
L 105.18843 175.840356 
L 107.955372 179.620495 
L 110.722314 183.182482 
L 113.489256 186.441933 
L 116.256198 189.331739 
L 119.02314 191.80429 
L 121.790083 193.832469 
L 124.557025 195.409419 
L 127.323967 196.547161 
L 130.090909 197.274256 
L 132.857851 197.63271 
L 135.624793 197.67439 
L 138.391736 197.457212 
L 141.158678 197.041369 
L 143.92562 196.485826 
L 146.692562 195.845287 
L 149.459504 195.16776 
L 152.226446 194.492835 
L 154.993388 193.850692 
L 157.760331 193.26182 
L 160.527273 192.737394 
L 163.294215 192.280202 
L 166.061157 191.885991 
L 168.828099 191.545098 
L 171.595041 191.24421 
L 174.361983 190.968127 
L 177.128926 190.701399 
L 179.895868 190.429742 
L 182.66281 190.141166 
L 185.429752 189.826775 
L 188.196694 189.481238 
L 190.963636 189.102939 
L 193.730579 188.693866 
L 196.497521 188.259281 
L 199.264463 187.80725 
L 202.031405 187.348106 
L 204.798347 186.893896 
L 207.565289 186.457895 
L 210.332231 186.054198 
L 213.099174 185.69745 
L 215.866116 185.402686 
L 218.633058 185.1853 
L 221.4 185.061097 
L 224.166942 185.046393 
L 226.933884 185.158118 
L 229.700826 185.413853 
L 232.467769 185.831759 
L 235.234711 186.430334 
L 238.001653 187.227968 
L 240.768595 188.242261 
L 243.535537 189.489097 
L 246.302479 190.98149 
L 249.069421 192.728236 
L 251.836364 194.732425 
L 254.603306 196.989896 
L 257.370248 199.487735 
L 260.13719 202.202906 
L 262.904132 205.101141 
L 265.671074 208.136189 
L 268.438017 211.249516 
L 271.204959 214.370537 
L 273.971901 217.417435 
L 276.738843 220.298594 
L 279.505785 222.914643 
L 282.272727 225.161085 
L 285.039669 226.931453 
L 287.806612 228.12092 
L 290.573554 228.630242 
L 293.340496 228.369938 
L 296.107438 227.264532 
L 298.87438 225.25672 
L 301.641322 222.311258 
L 304.408264 218.418391 
L 307.175207 213.596597 
L 309.942149 207.894442 
L 312.709091 201.391332 
L 315.476033 194.197005 
L 318.242975 186.449596 
L 321.009917 178.312251 
L 323.77686 169.968278 
L 326.543802 161.614977 
L 329.310744 153.456372 
L 332.077686 145.695178 
L 334.844628 138.524435 
L 337.61157 132.119274 
L 340.378512 126.629347 
L 343.145455 122.172405 
L 345.912397 118.829449 
L 348.679339 116.6418 
L 351.446281 115.610271 
L 354.213223 115.696486 
L 356.980165 116.826231 
L 359.747107 118.89456 
L 362.51405 121.77227 
L 365.280992 125.313269 
L 368.047934 129.362311 
L 370.814876 133.762581 
L 373.581818 138.362671 
" style="fill:none;stroke:#000000;stroke-dasharray:7.4,3.2;stroke-dashoffset:0;stroke-width:2;"/>
   </g>
   <g id="PathCollection_4">
    <g clip-path="url(#p36af5727f9)">
     <use style="fill:#ff0000;stroke:#000000;" x="83.052893" xlink:href="#mf1cfc1c580" y="129.399309"/>
     <use style="fill:#ff0000;stroke:#000000;" x="96.887603" xlink:href="#mf1cfc1c580" y="162.429541"/>
     <use style="fill:#ff0000;stroke:#000000;" x="110.722314" xlink:href="#mf1cfc1c580" y="193.170209"/>
     <use style="fill:#ff0000;stroke:#000000;" x="124.557025" xlink:href="#mf1cfc1c580" y="199.248575"/>
     <use style="fill:#ff0000;stroke:#000000;" x="138.391736" xlink:href="#mf1cfc1c580" y="199.347548"/>
     <use style="fill:#ff0000;stroke:#000000;" x="152.226446" xlink:href="#mf1cfc1c580" y="191.611971"/>
     <use style="fill:#ff0000;stroke:#000000;" x="166.061157" xlink:href="#mf1cfc1c580" y="193.66847"/>
     <use style="fill:#ff0000;stroke:#000000;" x="179.895868" xlink:href="#mf1cfc1c580" y="193.283098"/>
     <use style="fill:#ff0000;stroke:#000000;" x="193.730579" xlink:href="#mf1cfc1c580" y="188.924027"/>
     <use style="fill:#ff0000;stroke:#000000;" x="318.242975" xlink:href="#mf1cfc1c580" y="199.289596"/>
     <use style="fill:#ff0000;stroke:#000000;" x="332.077686" xlink:href="#mf1cfc1c580" y="145.37007"/>
     <use style="fill:#ff0000;stroke:#000000;" x="345.912397" xlink:href="#mf1cfc1c580" y="78.407322"/>
     <use style="fill:#ff0000;stroke:#000000;" x="298.87438" xlink:href="#mf1cfc1c580" y="230.919768"/>
     <use style="fill:#ff0000;stroke:#000000;" x="290.573554" xlink:href="#mf1cfc1c580" y="243.017307"/>
    </g>
   </g>
  </g>
 </g>
 <defs>
  <clipPath id="p36af5727f9">
   <rect height="217.44" width="334.8" x="54" y="34.56"/>
  </clipPath>
 </defs>
</svg>
