<?xml version="1.0" encoding="utf-8" standalone="no"?>
<!DOCTYPE svg PUBLIC "-//W3C//DTD SVG 1.1//EN"
  "http://www.w3.org/Graphics/SVG/1.1/DTD/svg11.dtd">
<!-- Created with matplotlib (https://matplotlib.org/) -->
<svg height="288pt" version="1.1" viewBox="0 0 432 288" width="432pt" xmlns="http://www.w3.org/2000/svg" xmlns:xlink="http://www.w3.org/1999/xlink">
 <metadata>
  <rdf:RDF xmlns:cc="http://creativecommons.org/ns#" xmlns:dc="http://purl.org/dc/elements/1.1/" xmlns:rdf="http://www.w3.org/1999/02/22-rdf-syntax-ns#">
   <cc:Work>
    <dc:type rdf:resource="http://purl.org/dc/dcmitype/StillImage"/>
    <dc:date>2022-08-03T21:19:55.139594</dc:date>
    <dc:format>image/svg+xml</dc:format>
    <dc:creator>
     <cc:Agent>
      <dc:title>Matplotlib v3.3.2, https://matplotlib.org/</dc:title>
     </cc:Agent>
    </dc:creator>
   </cc:Work>
  </rdf:RDF>
 </metadata>
 <defs>
  <style type="text/css">*{stroke-linecap:butt;stroke-linejoin:round;}</style>
 </defs>
 <g id="figure_1">
  <g id="patch_1">
   <path d="M 0 288 
L 432 288 
L 432 0 
L 0 0 
z
" style="fill:none;"/>
  </g>
  <g id="axes_1">
   <g id="patch_2">
    <path d="M 54 252 
L 388.8 252 
L 388.8 34.56 
L 54 34.56 
z
" style="fill:#ffffff;"/>
   </g>
   <g id="PolyCollection_1">
    <defs>
     <path d="M 69.218182 -182.64746 
L 69.218182 -156.811007 
L 71.985124 -158.913473 
L 74.752066 -159.686195 
L 77.519008 -159.048725 
L 80.28595 -156.960633 
L 83.052893 -153.43269 
L 85.819835 -148.57664 
L 88.586777 -142.667692 
L 91.353719 -136.088506 
L 94.120661 -129.196456 
L 96.887603 -122.273704 
L 99.654545 -115.541511 
L 102.421488 -109.179501 
L 105.18843 -103.336696 
L 107.955372 -98.136488 
L 110.722314 -93.676747 
L 113.489256 -90.025557 
L 116.256198 -87.214967 
L 119.02314 -85.236691 
L 121.790083 -84.04248 
L 124.557025 -83.549401 
L 127.323967 -83.648531 
L 130.090909 -84.215098 
L 132.857851 -85.118335 
L 135.624793 -86.229944 
L 138.391736 -87.430865 
L 141.158678 -88.616599 
L 143.92562 -89.701499 
L 146.692562 -90.622146 
L 149.459504 -91.339453 
L 152.226446 -91.838869 
L 154.993388 -92.128194 
L 157.760331 -92.233112 
L 160.527273 -92.191288 
L 163.294215 -92.046546 
L 166.061157 -91.844836 
L 168.828099 -91.63323 
L 171.595041 -91.461471 
L 174.361983 -91.383206 
L 177.128926 -91.453171 
L 179.895868 -91.718401 
L 182.66281 -92.203602 
L 185.429752 -92.890138 
L 188.196694 -93.687932 
L 190.963636 -94.416128 
L 193.730579 -94.850689 
L 196.497521 -94.846156 
L 199.264463 -94.377642 
L 202.031405 -93.477681 
L 204.798347 -92.190581 
L 207.565289 -90.564318 
L 210.332231 -88.652747 
L 213.099174 -86.516732 
L 215.866116 -84.222834 
L 218.633058 -81.840301 
L 221.4 -79.43724 
L 224.166942 -77.076639 
L 226.933884 -74.812735 
L 229.700826 -72.688083 
L 232.467769 -70.731577 
L 235.234711 -68.957518 
L 238.001653 -67.365778 
L 240.768595 -65.942949 
L 243.535537 -64.664326 
L 246.302479 -63.496447 
L 249.069421 -62.399839 
L 251.836364 -61.331499 
L 254.603306 -60.246534 
L 257.370248 -59.098368 
L 260.13719 -57.837693 
L 262.904132 -56.414734 
L 265.671074 -54.80192 
L 268.438017 -53.053654 
L 271.204959 -51.338876 
L 273.971901 -49.8554 
L 276.738843 -48.727647 
L 279.505785 -47.990265 
L 282.272727 -47.616739 
L 285.039669 -47.552251 
L 287.806612 -47.746405 
L 290.573554 -48.185405 
L 293.340496 -48.909873 
L 296.107438 -50.00705 
L 298.87438 -51.590087 
L 301.641322 -53.782343 
L 304.408264 -56.709446 
L 307.175207 -60.493946 
L 309.942149 -65.248708 
L 312.709091 -71.068055 
L 315.476033 -78.017561 
L 318.242975 -86.124629 
L 321.009917 -95.372264 
L 323.77686 -105.696985 
L 326.543802 -116.988929 
L 329.310744 -129.090598 
L 332.077686 -141.79268 
L 334.844628 -154.827657 
L 337.61157 -167.860595 
L 340.378512 -180.474611 
L 343.145455 -192.163021 
L 345.912397 -202.386819 
L 348.679339 -210.717846 
L 351.446281 -216.906618 
L 354.213223 -220.828056 
L 356.980165 -222.437329 
L 359.747107 -221.763059 
L 362.51405 -218.908279 
L 365.280992 -214.046616 
L 368.047934 -207.412672 
L 370.814876 -199.288202 
L 373.581818 -189.985906 
L 373.581818 -242.129617 
L 373.581818 -242.129617 
L 370.814876 -246.38964 
L 368.047934 -249.241259 
L 365.280992 -250.489768 
L 362.51405 -249.987197 
L 359.747107 -247.643625 
L 356.980165 -243.436565 
L 354.213223 -237.418185 
L 351.446281 -229.720307 
L 348.679339 -220.55503 
L 345.912397 -210.198039 
L 343.145455 -198.925365 
L 340.378512 -186.931977 
L 337.61157 -174.366328 
L 334.844628 -161.4365 
L 332.077686 -148.429721 
L 329.310744 -135.668496 
L 326.543802 -123.464667 
L 323.77686 -112.085688 
L 321.009917 -101.732196 
L 318.242975 -92.527079 
L 315.476033 -84.516731 
L 312.709091 -77.682032 
L 309.942149 -71.953978 
L 307.175207 -67.229919 
L 304.408264 -63.388992 
L 301.641322 -60.306798 
L 298.87438 -57.869255 
L 296.107438 -55.984798 
L 293.340496 -54.592692 
L 290.573554 -53.663062 
L 287.806612 -53.18348 
L 285.039669 -53.135485 
L 282.272727 -53.479971 
L 279.505785 -54.165458 
L 276.738843 -55.149401 
L 273.971901 -56.420079 
L 271.204959 -58.01979 
L 268.438017 -60.065854 
L 265.671074 -62.729191 
L 262.904132 -66.129734 
L 260.13719 -70.251027 
L 257.370248 -74.975231 
L 254.603306 -80.146924 
L 251.836364 -85.600766 
L 249.069421 -91.169082 
L 246.302479 -96.685891 
L 243.535537 -101.991556 
L 240.768595 -106.937963 
L 238.001653 -111.393562 
L 235.234711 -115.247743 
L 232.467769 -118.414255 
L 229.700826 -120.833542 
L 226.933884 -122.473985 
L 224.166942 -123.33212 
L 221.4 -123.431886 
L 218.633058 -122.823021 
L 215.866116 -121.578682 
L 213.099174 -119.792415 
L 210.332231 -117.57463 
L 207.565289 -115.048833 
L 204.798347 -112.348043 
L 202.031405 -109.612032 
L 199.264463 -106.985992 
L 196.497521 -104.619221 
L 193.730579 -102.652494 
L 190.963636 -101.167077 
L 188.196694 -100.115763 
L 185.429752 -99.35896 
L 182.66281 -98.780941 
L 179.895868 -98.3328 
L 177.128926 -98.009798 
L 174.361983 -97.821668 
L 171.595041 -97.771976 
L 168.828099 -97.845971 
L 166.061157 -98.006359 
L 163.294215 -98.196937 
L 160.527273 -98.351835 
L 157.760331 -98.40618 
L 154.993388 -98.304746 
L 152.226446 -98.00752 
L 149.459504 -97.492759 
L 146.692562 -96.758626 
L 143.92562 -95.824327 
L 141.158678 -94.731079 
L 138.391736 -93.542605 
L 135.624793 -92.344409 
L 132.857851 -91.241094 
L 130.090909 -90.351461 
L 127.323967 -89.801828 
L 124.557025 -89.718482 
L 121.790083 -90.220286 
L 119.02314 -91.41205 
L 116.256198 -93.378624 
L 113.489256 -96.179148 
L 110.722314 -99.84058 
L 107.955372 -104.350069 
L 105.18843 -109.64719 
L 102.421488 -115.619303 
L 99.654545 -122.104102 
L 96.887603 -128.901528 
L 94.120661 -135.794853 
L 91.353719 -142.581176 
L 88.586777 -149.11216 
L 85.819835 -155.33039 
L 83.052893 -161.24055 
L 80.28595 -166.795372 
L 77.519008 -171.854706 
L 74.752066 -176.258525 
L 71.985124 -179.88212 
L 69.218182 -182.64746 
z
" id="m750112bf97" style="stroke:#add8e6;stroke-opacity:0.2;"/>
    </defs>
    <g clip-path="url(#pcb0e20b734)">
     <use style="fill:#add8e6;fill-opacity:0.2;stroke:#add8e6;stroke-opacity:0.2;" x="0" xlink:href="#m750112bf97" y="288"/>
    </g>
   </g>
   <g id="PathCollection_1">
    <defs>
     <path d="M 0 0.612372 
C 0.162403 0.612372 0.318176 0.547849 0.433013 0.433013 
C 0.547849 0.318176 0.612372 0.162403 0.612372 0 
C 0.612372 -0.162403 0.547849 -0.318176 0.433013 -0.433013 
C 0.318176 -0.547849 0.162403 -0.612372 0 -0.612372 
C -0.162403 -0.612372 -0.318176 -0.547849 -0.433013 -0.433013 
C -0.547849 -0.318176 -0.612372 -0.162403 -0.612372 0 
C -0.612372 0.162403 -0.547849 0.318176 -0.433013 0.433013 
C -0.318176 0.547849 -0.162403 0.612372 0 0.612372 
z
" id="m0a5ab48ebd" style="stroke:#ff0000;stroke-width:8;"/>
    </defs>
    <g clip-path="url(#pcb0e20b734)">
     <use style="fill:#ff0000;stroke:#ff0000;stroke-width:8;" x="282.272727" xlink:href="#m0a5ab48ebd" y="239.919884"/>
    </g>
   </g>
   <g id="matplotlib.axis_1">
    <g id="xtick_1">
     <g id="line2d_1">
      <defs>
       <path d="M 0 0 
L 0 3.5 
" id="m0220d267a3" style="stroke:#000000;stroke-width:0.8;"/>
      </defs>
      <g>
       <use style="stroke:#000000;stroke-width:0.8;" x="69.218182" xlink:href="#m0220d267a3" y="252"/>
      </g>
     </g>
     <g id="text_1">
      <!-- 0 -->
      <g transform="translate(66.036932 266.598437)scale(0.1 -0.1)">
       <defs>
        <path d="M 31.78125 66.40625 
Q 24.171875 66.40625 20.328125 58.90625 
Q 16.5 51.421875 16.5 36.375 
Q 16.5 21.390625 20.328125 13.890625 
Q 24.171875 6.390625 31.78125 6.390625 
Q 39.453125 6.390625 43.28125 13.890625 
Q 47.125 21.390625 47.125 36.375 
Q 47.125 51.421875 43.28125 58.90625 
Q 39.453125 66.40625 31.78125 66.40625 
z
M 31.78125 74.21875 
Q 44.046875 74.21875 50.515625 64.515625 
Q 56.984375 54.828125 56.984375 36.375 
Q 56.984375 17.96875 50.515625 8.265625 
Q 44.046875 -1.421875 31.78125 -1.421875 
Q 19.53125 -1.421875 13.0625 8.265625 
Q 6.59375 17.96875 6.59375 36.375 
Q 6.59375 54.828125 13.0625 64.515625 
Q 19.53125 74.21875 31.78125 74.21875 
z
" id="DejaVuSans-48"/>
       </defs>
       <use xlink:href="#DejaVuSans-48"/>
      </g>
     </g>
    </g>
    <g id="xtick_2">
     <g id="line2d_2">
      <g>
       <use style="stroke:#000000;stroke-width:0.8;" x="124.557025" xlink:href="#m0220d267a3" y="252"/>
      </g>
     </g>
     <g id="text_2">
      <!-- 2 -->
      <g transform="translate(121.375775 266.598437)scale(0.1 -0.1)">
       <defs>
        <path d="M 19.1875 8.296875 
L 53.609375 8.296875 
L 53.609375 0 
L 7.328125 0 
L 7.328125 8.296875 
Q 12.9375 14.109375 22.625 23.890625 
Q 32.328125 33.6875 34.8125 36.53125 
Q 39.546875 41.84375 41.421875 45.53125 
Q 43.3125 49.21875 43.3125 52.78125 
Q 43.3125 58.59375 39.234375 62.25 
Q 35.15625 65.921875 28.609375 65.921875 
Q 23.96875 65.921875 18.8125 64.3125 
Q 13.671875 62.703125 7.8125 59.421875 
L 7.8125 69.390625 
Q 13.765625 71.78125 18.9375 73 
Q 24.125 74.21875 28.421875 74.21875 
Q 39.75 74.21875 46.484375 68.546875 
Q 53.21875 62.890625 53.21875 53.421875 
Q 53.21875 48.921875 51.53125 44.890625 
Q 49.859375 40.875 45.40625 35.40625 
Q 44.1875 33.984375 37.640625 27.21875 
Q 31.109375 20.453125 19.1875 8.296875 
z
" id="DejaVuSans-50"/>
       </defs>
       <use xlink:href="#DejaVuSans-50"/>
      </g>
     </g>
    </g>
    <g id="xtick_3">
     <g id="line2d_3">
      <g>
       <use style="stroke:#000000;stroke-width:0.8;" x="179.895868" xlink:href="#m0220d267a3" y="252"/>
      </g>
     </g>
     <g id="text_3">
      <!-- 4 -->
      <g transform="translate(176.714618 266.598437)scale(0.1 -0.1)">
       <defs>
        <path d="M 37.796875 64.3125 
L 12.890625 25.390625 
L 37.796875 25.390625 
z
M 35.203125 72.90625 
L 47.609375 72.90625 
L 47.609375 25.390625 
L 58.015625 25.390625 
L 58.015625 17.1875 
L 47.609375 17.1875 
L 47.609375 0 
L 37.796875 0 
L 37.796875 17.1875 
L 4.890625 17.1875 
L 4.890625 26.703125 
z
" id="DejaVuSans-52"/>
       </defs>
       <use xlink:href="#DejaVuSans-52"/>
      </g>
     </g>
    </g>
    <g id="xtick_4">
     <g id="line2d_4">
      <g>
       <use style="stroke:#000000;stroke-width:0.8;" x="235.234711" xlink:href="#m0220d267a3" y="252"/>
      </g>
     </g>
     <g id="text_4">
      <!-- 6 -->
      <g transform="translate(232.053461 266.598437)scale(0.1 -0.1)">
       <defs>
        <path d="M 33.015625 40.375 
Q 26.375 40.375 22.484375 35.828125 
Q 18.609375 31.296875 18.609375 23.390625 
Q 18.609375 15.53125 22.484375 10.953125 
Q 26.375 6.390625 33.015625 6.390625 
Q 39.65625 6.390625 43.53125 10.953125 
Q 47.40625 15.53125 47.40625 23.390625 
Q 47.40625 31.296875 43.53125 35.828125 
Q 39.65625 40.375 33.015625 40.375 
z
M 52.59375 71.296875 
L 52.59375 62.3125 
Q 48.875 64.0625 45.09375 64.984375 
Q 41.3125 65.921875 37.59375 65.921875 
Q 27.828125 65.921875 22.671875 59.328125 
Q 17.53125 52.734375 16.796875 39.40625 
Q 19.671875 43.65625 24.015625 45.921875 
Q 28.375 48.1875 33.59375 48.1875 
Q 44.578125 48.1875 50.953125 41.515625 
Q 57.328125 34.859375 57.328125 23.390625 
Q 57.328125 12.15625 50.6875 5.359375 
Q 44.046875 -1.421875 33.015625 -1.421875 
Q 20.359375 -1.421875 13.671875 8.265625 
Q 6.984375 17.96875 6.984375 36.375 
Q 6.984375 53.65625 15.1875 63.9375 
Q 23.390625 74.21875 37.203125 74.21875 
Q 40.921875 74.21875 44.703125 73.484375 
Q 48.484375 72.75 52.59375 71.296875 
z
" id="DejaVuSans-54"/>
       </defs>
       <use xlink:href="#DejaVuSans-54"/>
      </g>
     </g>
    </g>
    <g id="xtick_5">
     <g id="line2d_5">
      <g>
       <use style="stroke:#000000;stroke-width:0.8;" x="290.573554" xlink:href="#m0220d267a3" y="252"/>
      </g>
     </g>
     <g id="text_5">
      <!-- 8 -->
      <g transform="translate(287.392304 266.598437)scale(0.1 -0.1)">
       <defs>
        <path d="M 31.78125 34.625 
Q 24.75 34.625 20.71875 30.859375 
Q 16.703125 27.09375 16.703125 20.515625 
Q 16.703125 13.921875 20.71875 10.15625 
Q 24.75 6.390625 31.78125 6.390625 
Q 38.8125 6.390625 42.859375 10.171875 
Q 46.921875 13.96875 46.921875 20.515625 
Q 46.921875 27.09375 42.890625 30.859375 
Q 38.875 34.625 31.78125 34.625 
z
M 21.921875 38.8125 
Q 15.578125 40.375 12.03125 44.71875 
Q 8.5 49.078125 8.5 55.328125 
Q 8.5 64.0625 14.71875 69.140625 
Q 20.953125 74.21875 31.78125 74.21875 
Q 42.671875 74.21875 48.875 69.140625 
Q 55.078125 64.0625 55.078125 55.328125 
Q 55.078125 49.078125 51.53125 44.71875 
Q 48 40.375 41.703125 38.8125 
Q 48.828125 37.15625 52.796875 32.3125 
Q 56.78125 27.484375 56.78125 20.515625 
Q 56.78125 9.90625 50.3125 4.234375 
Q 43.84375 -1.421875 31.78125 -1.421875 
Q 19.734375 -1.421875 13.25 4.234375 
Q 6.78125 9.90625 6.78125 20.515625 
Q 6.78125 27.484375 10.78125 32.3125 
Q 14.796875 37.15625 21.921875 38.8125 
z
M 18.3125 54.390625 
Q 18.3125 48.734375 21.84375 45.5625 
Q 25.390625 42.390625 31.78125 42.390625 
Q 38.140625 42.390625 41.71875 45.5625 
Q 45.3125 48.734375 45.3125 54.390625 
Q 45.3125 60.0625 41.71875 63.234375 
Q 38.140625 66.40625 31.78125 66.40625 
Q 25.390625 66.40625 21.84375 63.234375 
Q 18.3125 60.0625 18.3125 54.390625 
z
" id="DejaVuSans-56"/>
       </defs>
       <use xlink:href="#DejaVuSans-56"/>
      </g>
     </g>
    </g>
    <g id="xtick_6">
     <g id="line2d_6">
      <g>
       <use style="stroke:#000000;stroke-width:0.8;" x="345.912397" xlink:href="#m0220d267a3" y="252"/>
      </g>
     </g>
     <g id="text_6">
      <!-- 10 -->
      <g transform="translate(339.549897 266.598437)scale(0.1 -0.1)">
       <defs>
        <path d="M 12.40625 8.296875 
L 28.515625 8.296875 
L 28.515625 63.921875 
L 10.984375 60.40625 
L 10.984375 69.390625 
L 28.421875 72.90625 
L 38.28125 72.90625 
L 38.28125 8.296875 
L 54.390625 8.296875 
L 54.390625 0 
L 12.40625 0 
z
" id="DejaVuSans-49"/>
       </defs>
       <use xlink:href="#DejaVuSans-49"/>
       <use x="63.623047" xlink:href="#DejaVuSans-48"/>
      </g>
     </g>
    </g>
    <g id="text_7">
     <!-- x -->
     <g transform="translate(217.84875 281.79625)scale(0.12 -0.12)">
      <defs>
       <path d="M 54.890625 54.6875 
L 35.109375 28.078125 
L 55.90625 0 
L 45.3125 0 
L 29.390625 21.484375 
L 13.484375 0 
L 2.875 0 
L 24.125 28.609375 
L 4.6875 54.6875 
L 15.28125 54.6875 
L 29.78125 35.203125 
L 44.28125 54.6875 
z
" id="DejaVuSans-120"/>
      </defs>
      <use xlink:href="#DejaVuSans-120"/>
     </g>
    </g>
   </g>
   <g id="matplotlib.axis_2">
    <g id="ytick_1">
     <g id="line2d_7">
      <defs>
       <path d="M 0 0 
L -3.5 0 
" id="m04627782e9" style="stroke:#000000;stroke-width:0.8;"/>
      </defs>
      <g>
       <use style="stroke:#000000;stroke-width:0.8;" x="54" xlink:href="#m04627782e9" y="252"/>
      </g>
     </g>
     <g id="text_8">
      <!-- 3 -->
      <g transform="translate(40.6375 255.799219)scale(0.1 -0.1)">
       <defs>
        <path d="M 40.578125 39.3125 
Q 47.65625 37.796875 51.625 33 
Q 55.609375 28.21875 55.609375 21.1875 
Q 55.609375 10.40625 48.1875 4.484375 
Q 40.765625 -1.421875 27.09375 -1.421875 
Q 22.515625 -1.421875 17.65625 -0.515625 
Q 12.796875 0.390625 7.625 2.203125 
L 7.625 11.71875 
Q 11.71875 9.328125 16.59375 8.109375 
Q 21.484375 6.890625 26.8125 6.890625 
Q 36.078125 6.890625 40.9375 10.546875 
Q 45.796875 14.203125 45.796875 21.1875 
Q 45.796875 27.640625 41.28125 31.265625 
Q 36.765625 34.90625 28.71875 34.90625 
L 20.21875 34.90625 
L 20.21875 43.015625 
L 29.109375 43.015625 
Q 36.375 43.015625 40.234375 45.921875 
Q 44.09375 48.828125 44.09375 54.296875 
Q 44.09375 59.90625 40.109375 62.90625 
Q 36.140625 65.921875 28.71875 65.921875 
Q 24.65625 65.921875 20.015625 65.03125 
Q 15.375 64.15625 9.8125 62.3125 
L 9.8125 71.09375 
Q 15.4375 72.65625 20.34375 73.4375 
Q 25.25 74.21875 29.59375 74.21875 
Q 40.828125 74.21875 47.359375 69.109375 
Q 53.90625 64.015625 53.90625 55.328125 
Q 53.90625 49.265625 50.4375 45.09375 
Q 46.96875 40.921875 40.578125 39.3125 
z
" id="DejaVuSans-51"/>
       </defs>
       <use xlink:href="#DejaVuSans-51"/>
      </g>
     </g>
    </g>
    <g id="ytick_2">
     <g id="line2d_8">
      <g>
       <use style="stroke:#000000;stroke-width:0.8;" x="54" xlink:href="#m04627782e9" y="215.76"/>
      </g>
     </g>
     <g id="text_9">
      <!-- 4 -->
      <g transform="translate(40.6375 219.559219)scale(0.1 -0.1)">
       <use xlink:href="#DejaVuSans-52"/>
      </g>
     </g>
    </g>
    <g id="ytick_3">
     <g id="line2d_9">
      <g>
       <use style="stroke:#000000;stroke-width:0.8;" x="54" xlink:href="#m04627782e9" y="179.52"/>
      </g>
     </g>
     <g id="text_10">
      <!-- 5 -->
      <g transform="translate(40.6375 183.319219)scale(0.1 -0.1)">
       <defs>
        <path d="M 10.796875 72.90625 
L 49.515625 72.90625 
L 49.515625 64.59375 
L 19.828125 64.59375 
L 19.828125 46.734375 
Q 21.96875 47.46875 24.109375 47.828125 
Q 26.265625 48.1875 28.421875 48.1875 
Q 40.625 48.1875 47.75 41.5 
Q 54.890625 34.8125 54.890625 23.390625 
Q 54.890625 11.625 47.5625 5.09375 
Q 40.234375 -1.421875 26.90625 -1.421875 
Q 22.3125 -1.421875 17.546875 -0.640625 
Q 12.796875 0.140625 7.71875 1.703125 
L 7.71875 11.625 
Q 12.109375 9.234375 16.796875 8.0625 
Q 21.484375 6.890625 26.703125 6.890625 
Q 35.15625 6.890625 40.078125 11.328125 
Q 45.015625 15.765625 45.015625 23.390625 
Q 45.015625 31 40.078125 35.4375 
Q 35.15625 39.890625 26.703125 39.890625 
Q 22.75 39.890625 18.8125 39.015625 
Q 14.890625 38.140625 10.796875 36.28125 
z
" id="DejaVuSans-53"/>
       </defs>
       <use xlink:href="#DejaVuSans-53"/>
      </g>
     </g>
    </g>
    <g id="ytick_4">
     <g id="line2d_10">
      <g>
       <use style="stroke:#000000;stroke-width:0.8;" x="54" xlink:href="#m04627782e9" y="143.28"/>
      </g>
     </g>
     <g id="text_11">
      <!-- 6 -->
      <g transform="translate(40.6375 147.079219)scale(0.1 -0.1)">
       <use xlink:href="#DejaVuSans-54"/>
      </g>
     </g>
    </g>
    <g id="ytick_5">
     <g id="line2d_11">
      <g>
       <use style="stroke:#000000;stroke-width:0.8;" x="54" xlink:href="#m04627782e9" y="107.04"/>
      </g>
     </g>
     <g id="text_12">
      <!-- 7 -->
      <g transform="translate(40.6375 110.839219)scale(0.1 -0.1)">
       <defs>
        <path d="M 8.203125 72.90625 
L 55.078125 72.90625 
L 55.078125 68.703125 
L 28.609375 0 
L 18.3125 0 
L 43.21875 64.59375 
L 8.203125 64.59375 
z
" id="DejaVuSans-55"/>
       </defs>
       <use xlink:href="#DejaVuSans-55"/>
      </g>
     </g>
    </g>
    <g id="ytick_6">
     <g id="line2d_12">
      <g>
       <use style="stroke:#000000;stroke-width:0.8;" x="54" xlink:href="#m04627782e9" y="70.8"/>
      </g>
     </g>
     <g id="text_13">
      <!-- 8 -->
      <g transform="translate(40.6375 74.599219)scale(0.1 -0.1)">
       <use xlink:href="#DejaVuSans-56"/>
      </g>
     </g>
    </g>
    <g id="ytick_7">
     <g id="line2d_13">
      <g>
       <use style="stroke:#000000;stroke-width:0.8;" x="54" xlink:href="#m04627782e9" y="34.56"/>
      </g>
     </g>
     <g id="text_14">
      <!-- 9 -->
      <g transform="translate(40.6375 38.359219)scale(0.1 -0.1)">
       <defs>
        <path d="M 10.984375 1.515625 
L 10.984375 10.5 
Q 14.703125 8.734375 18.5 7.8125 
Q 22.3125 6.890625 25.984375 6.890625 
Q 35.75 6.890625 40.890625 13.453125 
Q 46.046875 20.015625 46.78125 33.40625 
Q 43.953125 29.203125 39.59375 26.953125 
Q 35.25 24.703125 29.984375 24.703125 
Q 19.046875 24.703125 12.671875 31.3125 
Q 6.296875 37.9375 6.296875 49.421875 
Q 6.296875 60.640625 12.9375 67.421875 
Q 19.578125 74.21875 30.609375 74.21875 
Q 43.265625 74.21875 49.921875 64.515625 
Q 56.59375 54.828125 56.59375 36.375 
Q 56.59375 19.140625 48.40625 8.859375 
Q 40.234375 -1.421875 26.421875 -1.421875 
Q 22.703125 -1.421875 18.890625 -0.6875 
Q 15.09375 0.046875 10.984375 1.515625 
z
M 30.609375 32.421875 
Q 37.25 32.421875 41.125 36.953125 
Q 45.015625 41.5 45.015625 49.421875 
Q 45.015625 57.28125 41.125 61.84375 
Q 37.25 66.40625 30.609375 66.40625 
Q 23.96875 66.40625 20.09375 61.84375 
Q 16.21875 57.28125 16.21875 49.421875 
Q 16.21875 41.5 20.09375 36.953125 
Q 23.96875 32.421875 30.609375 32.421875 
z
" id="DejaVuSans-57"/>
       </defs>
       <use xlink:href="#DejaVuSans-57"/>
      </g>
     </g>
    </g>
    <g id="text_15">
     <!-- y -->
     <g transform="translate(34.141875 146.83125)rotate(-90)scale(0.12 -0.12)">
      <defs>
       <path d="M 32.171875 -5.078125 
Q 28.375 -14.84375 24.75 -17.8125 
Q 21.140625 -20.796875 15.09375 -20.796875 
L 7.90625 -20.796875 
L 7.90625 -13.28125 
L 13.1875 -13.28125 
Q 16.890625 -13.28125 18.9375 -11.515625 
Q 21 -9.765625 23.484375 -3.21875 
L 25.09375 0.875 
L 2.984375 54.6875 
L 12.5 54.6875 
L 29.59375 11.921875 
L 46.6875 54.6875 
L 56.203125 54.6875 
z
" id="DejaVuSans-121"/>
      </defs>
      <use xlink:href="#DejaVuSans-121"/>
     </g>
    </g>
   </g>
   <g id="line2d_14">
    <path clip-path="url(#pcb0e20b734)" d="M 69.218182 70.8 
L 71.985124 85.083949 
L 74.752066 98.25467 
L 77.519008 110.364828 
L 80.28595 121.465955 
L 83.052893 131.608455 
L 85.819835 140.841599 
L 88.586777 149.213528 
L 91.353719 156.771253 
L 94.120661 163.560654 
L 96.887603 169.62648 
L 99.654545 175.012349 
L 102.421488 179.76075 
L 105.18843 183.913038 
L 107.955372 187.509441 
L 110.722314 190.589055 
L 113.489256 193.189844 
L 116.256198 195.348643 
L 119.02314 197.101155 
L 121.790083 198.481953 
L 124.557025 199.52448 
L 127.323967 200.261047 
L 130.090909 200.722835 
L 132.857851 200.939895 
L 135.624793 200.941145 
L 138.391736 200.754375 
L 141.158678 200.406243 
L 143.92562 199.922276 
L 146.692562 199.326871 
L 149.459504 198.643294 
L 152.226446 197.89368 
L 154.993388 197.099035 
L 157.760331 196.279231 
L 160.527273 195.453014 
L 163.294215 194.637994 
L 166.061157 193.850655 
L 168.828099 193.106347 
L 171.595041 192.419291 
L 174.361983 191.802577 
L 177.128926 191.268164 
L 179.895868 190.82688 
L 182.66281 190.488424 
L 185.429752 190.261362 
L 188.196694 190.153131 
L 190.963636 190.170037 
L 193.730579 190.317255 
L 196.497521 190.598829 
L 199.264463 191.017673 
L 202.031405 191.575569 
L 204.798347 192.273171 
L 207.565289 193.11 
L 210.332231 194.084446 
L 213.099174 195.193771 
L 215.866116 196.434103 
L 218.633058 197.800442 
L 221.4 199.286655 
L 224.166942 200.88548 
L 226.933884 202.588525 
L 229.700826 204.386264 
L 232.467769 206.268045 
L 235.234711 208.22208 
L 238.001653 210.235455 
L 240.768595 212.294122 
L 243.535537 214.382905 
L 246.302479 216.485496 
L 249.069421 218.584455 
L 251.836364 220.661214 
L 254.603306 222.696071 
L 257.370248 224.668198 
L 260.13719 226.555631 
L 262.904132 228.33528 
L 265.671074 229.982921 
L 268.438017 231.4732 
L 271.204959 232.779634 
L 273.971901 233.874607 
L 276.738843 234.729375 
L 279.505785 235.31406 
L 282.272727 235.597656 
L 285.039669 235.548026 
L 287.806612 235.1319 
L 290.573554 234.31488 
L 293.340496 233.061436 
L 296.107438 231.334908 
L 298.87438 229.097505 
L 301.641322 226.310305 
L 304.408264 222.933255 
L 307.175207 218.925173 
L 309.942149 214.243744 
L 312.709091 208.845524 
L 315.476033 202.685938 
L 318.242975 195.71928 
L 321.009917 187.898713 
L 323.77686 179.176271 
L 326.543802 169.502854 
L 329.310744 158.828236 
L 332.077686 147.101055 
L 334.844628 134.268823 
L 337.61157 120.277918 
L 340.378512 105.073589 
L 343.145455 88.599954 
L 345.912397 70.8 
L 348.679339 51.615584 
L 351.446281 30.987432 
L 354.213223 8.855138 
L 355.363895 -1 
" style="fill:none;stroke:#0000ff;stroke-linecap:square;stroke-width:2;"/>
   </g>
   <g id="line2d_15">
    <path clip-path="url(#pcb0e20b734)" d="M 69.218182 131.188993 
L 71.985124 129.086527 
L 74.752066 128.313805 
L 77.519008 128.951275 
L 80.28595 131.039367 
L 83.052893 134.56731 
L 85.819835 139.42336 
L 88.586777 145.332308 
L 91.353719 151.911494 
L 94.120661 158.803544 
L 96.887603 165.726296 
L 99.654545 172.458489 
L 102.421488 178.820499 
L 105.18843 184.663304 
L 107.955372 189.863512 
L 110.722314 194.323253 
L 113.489256 197.974443 
L 116.256198 200.785033 
L 119.02314 202.763309 
L 121.790083 203.95752 
L 124.557025 204.450599 
L 127.323967 204.351469 
L 130.090909 203.784902 
L 132.857851 202.881665 
L 135.624793 201.770056 
L 138.391736 200.569135 
L 141.158678 199.383401 
L 143.92562 198.298501 
L 146.692562 197.377854 
L 149.459504 196.660547 
L 152.226446 196.161131 
L 154.993388 195.871806 
L 157.760331 195.766888 
L 160.527273 195.808712 
L 163.294215 195.953454 
L 166.061157 196.155164 
L 168.828099 196.36677 
L 171.595041 196.538529 
L 174.361983 196.616794 
L 177.128926 196.546829 
L 179.895868 196.281599 
L 182.66281 195.796398 
L 185.429752 195.109862 
L 188.196694 194.312068 
L 190.963636 193.583872 
L 193.730579 193.149311 
L 196.497521 193.153844 
L 199.264463 193.622358 
L 202.031405 194.522319 
L 204.798347 195.809419 
L 207.565289 197.435682 
L 210.332231 199.347253 
L 213.099174 201.483268 
L 215.866116 203.777166 
L 218.633058 206.159699 
L 221.4 208.56276 
L 224.166942 210.923361 
L 226.933884 213.187265 
L 229.700826 215.311917 
L 232.467769 217.268423 
L 235.234711 219.042482 
L 238.001653 220.634222 
L 240.768595 222.057051 
L 243.535537 223.335674 
L 246.302479 224.503553 
L 249.069421 225.600161 
L 251.836364 226.668501 
L 254.603306 227.753466 
L 257.370248 228.901632 
L 260.13719 230.162307 
L 262.904132 231.585266 
L 265.671074 233.19808 
L 268.438017 234.946346 
L 271.204959 236.661124 
L 273.971901 238.1446 
L 276.738843 239.272353 
L 279.505785 240.009735 
L 282.272727 240.383261 
L 285.039669 240.447749 
L 287.806612 240.253595 
L 290.573554 239.814595 
L 293.340496 239.090127 
L 296.107438 237.99295 
L 298.87438 236.409913 
L 301.641322 234.217657 
L 304.408264 231.290554 
L 307.175207 227.506054 
L 309.942149 222.751292 
L 312.709091 216.931945 
L 315.476033 209.982439 
L 318.242975 201.875371 
L 321.009917 192.627736 
L 323.77686 182.303015 
L 326.543802 171.011071 
L 329.310744 158.909402 
L 332.077686 146.20732 
L 334.844628 133.172343 
L 337.61157 120.139405 
L 340.378512 107.525389 
L 343.145455 95.836979 
L 345.912397 85.613181 
L 348.679339 77.282154 
L 351.446281 71.093382 
L 354.213223 67.171944 
L 356.980165 65.562671 
L 359.747107 66.236941 
L 362.51405 69.091721 
L 365.280992 73.953384 
L 368.047934 80.587328 
L 370.814876 88.711798 
L 373.581818 98.014094 
" style="fill:none;stroke:#008000;stroke-dasharray:3.7,1.6;stroke-dashoffset:0;"/>
   </g>
   <g id="line2d_16">
    <path clip-path="url(#pcb0e20b734)" d="M 69.218182 105.35254 
L 71.985124 108.11788 
L 74.752066 111.741475 
L 77.519008 116.145294 
L 80.28595 121.204628 
L 83.052893 126.75945 
L 85.819835 132.66961 
L 88.586777 138.88784 
L 91.353719 145.418824 
L 94.120661 152.205147 
L 96.887603 159.098472 
L 99.654545 165.895898 
L 102.421488 172.380697 
L 105.18843 178.35281 
L 107.955372 183.649931 
L 110.722314 188.15942 
L 113.489256 191.820852 
L 116.256198 194.621376 
L 119.02314 196.58795 
L 121.790083 197.779714 
L 124.557025 198.281518 
L 127.323967 198.198172 
L 130.090909 197.648539 
L 132.857851 196.758906 
L 135.624793 195.655591 
L 138.391736 194.457395 
L 141.158678 193.268921 
L 143.92562 192.175673 
L 146.692562 191.241374 
L 149.459504 190.507241 
L 152.226446 189.99248 
L 154.993388 189.695254 
L 157.760331 189.59382 
L 160.527273 189.648165 
L 163.294215 189.803063 
L 166.061157 189.993641 
L 168.828099 190.154029 
L 171.595041 190.228024 
L 174.361983 190.178332 
L 177.128926 189.990202 
L 179.895868 189.6672 
L 182.66281 189.219059 
L 185.429752 188.64104 
L 188.196694 187.884237 
L 190.963636 186.832923 
L 193.730579 185.347506 
L 196.497521 183.380779 
L 199.264463 181.014008 
L 202.031405 178.387968 
L 204.798347 175.651957 
L 207.565289 172.951167 
L 210.332231 170.42537 
L 213.099174 168.207585 
L 215.866116 166.421318 
L 218.633058 165.176979 
L 221.4 164.568114 
L 224.166942 164.66788 
L 226.933884 165.526015 
L 229.700826 167.166458 
L 232.467769 169.585745 
L 235.234711 172.752257 
L 238.001653 176.606438 
L 240.768595 181.062037 
L 243.535537 186.008444 
L 246.302479 191.314109 
L 249.069421 196.830918 
L 251.836364 202.399234 
L 254.603306 207.853076 
L 257.370248 213.024769 
L 260.13719 217.748973 
L 262.904132 221.870266 
L 265.671074 225.270809 
L 268.438017 227.934146 
L 271.204959 229.98021 
L 273.971901 231.579921 
L 276.738843 232.850599 
L 279.505785 233.834542 
L 282.272727 234.520029 
L 285.039669 234.864515 
L 287.806612 234.81652 
L 290.573554 234.336938 
L 293.340496 233.407308 
L 296.107438 232.015202 
L 298.87438 230.130745 
L 301.641322 227.693202 
L 304.408264 224.611008 
L 307.175207 220.770081 
L 309.942149 216.046022 
L 312.709091 210.317968 
L 315.476033 203.483269 
L 318.242975 195.472921 
L 321.009917 186.267804 
L 323.77686 175.914312 
L 326.543802 164.535333 
L 329.310744 152.331504 
L 332.077686 139.570279 
L 334.844628 126.5635 
L 337.61157 113.633672 
L 340.378512 101.068023 
L 343.145455 89.074635 
L 345.912397 77.801961 
L 348.679339 67.44497 
L 351.446281 58.279693 
L 354.213223 50.581815 
L 356.980165 44.563435 
L 359.747107 40.356375 
L 362.51405 38.012803 
L 365.280992 37.510232 
L 368.047934 38.758741 
L 370.814876 41.61036 
L 373.581818 45.870383 
" style="fill:none;stroke:#008000;stroke-dasharray:3.7,1.6;stroke-dashoffset:0;"/>
   </g>
   <g id="line2d_17">
    <path clip-path="url(#pcb0e20b734)" d="M 69.218182 127.430423 
L 71.985124 125.674604 
L 74.752066 125.295736 
L 77.519008 126.353645 
L 80.28595 128.86898 
L 83.052893 132.817001 
L 85.819835 138.065565 
L 88.586777 144.293851 
L 91.353719 151.092645 
L 94.120661 158.120707 
L 96.887603 165.123031 
L 99.654545 171.898885 
L 102.421488 178.280944 
L 105.18843 184.125619 
L 107.955372 189.30999 
L 110.722314 193.735058 
L 113.489256 197.33399 
L 116.256198 200.080286 
L 119.02314 201.990998 
L 121.790083 203.123659 
L 124.557025 203.56842 
L 127.323967 203.437712 
L 130.090909 202.855698 
L 132.857851 201.949241 
L 135.624793 200.841128 
L 138.391736 199.645245 
L 141.158678 198.462781 
L 143.92562 197.378676 
L 146.692562 196.458069 
L 149.459504 195.743153 
L 152.226446 195.251444 
L 154.993388 194.976524 
L 157.760331 194.89177 
L 160.527273 194.956496 
L 163.294215 195.123043 
L 166.061157 195.342819 
L 168.828099 195.569235 
L 171.595041 195.756412 
L 174.361983 195.855341 
L 177.128926 195.812474 
L 179.895868 195.575207 
L 182.66281 195.104807 
L 185.429752 194.396338 
L 188.196694 193.50897 
L 190.963636 192.602689 
L 193.730579 191.918226 
L 196.497521 191.632447 
L 199.264463 191.780942 
L 202.031405 192.338273 
L 204.798347 193.273208 
L 207.565289 194.552592 
L 210.332231 196.135863 
L 213.099174 197.972808 
L 215.866116 200.004727 
L 218.633058 202.167683 
L 221.4 204.396796 
L 224.166942 206.630791 
L 226.933884 208.816215 
L 229.700826 210.910885 
L 232.467769 212.886229 
L 235.234711 214.72836 
L 238.001653 216.437813 
L 240.768595 218.028049 
L 243.535537 219.522915 
L 246.302479 220.953418 
L 249.069421 222.354251 
L 251.836364 223.760672 
L 254.603306 225.206524 
L 257.370248 226.724495 
L 260.13719 228.349689 
L 262.904132 230.123811 
L 265.671074 232.07655 
L 268.438017 234.140489 
L 271.204959 236.098205 
L 273.971901 237.722596 
L 276.738843 238.899519 
L 279.505785 239.616477 
L 282.272727 239.919884 
L 285.039669 239.8807 
L 287.806612 239.560766 
L 290.573554 238.979104 
L 293.340496 238.099416 
L 296.107438 236.84723 
L 298.87438 235.131451 
L 301.641322 232.853201 
L 304.408264 229.906634 
L 307.175207 226.179507 
L 309.942149 221.557304 
L 312.709091 215.931961 
L 315.476033 209.214504 
L 318.242975 201.349262 
L 321.009917 192.325899 
L 323.77686 182.185605 
L 326.543802 171.020639 
L 329.310744 158.971369 
L 332.077686 146.226453 
L 334.844628 133.027801 
L 337.61157 119.679831 
L 340.378512 106.567083 
L 343.145455 94.180992 
L 345.912397 83.095868 
L 348.679339 73.801576 
L 351.446281 66.586981 
L 354.213223 61.612337 
L 356.980165 58.96593 
L 359.747107 58.664632 
L 362.51405 60.647171 
L 365.280992 64.774848 
L 368.047934 70.839425 
L 370.814876 78.576048 
L 373.581818 87.679233 
" style="fill:none;stroke:#bfbf00;stroke-dasharray:7.4,3.2;stroke-dashoffset:0;stroke-width:2;"/>
   </g>
   <g id="patch_3">
    <path d="M 54 252 
L 54 34.56 
" style="fill:none;stroke:#000000;stroke-linecap:square;stroke-linejoin:miter;stroke-width:0.8;"/>
   </g>
   <g id="patch_4">
    <path d="M 388.8 252 
L 388.8 34.56 
" style="fill:none;stroke:#000000;stroke-linecap:square;stroke-linejoin:miter;stroke-width:0.8;"/>
   </g>
   <g id="patch_5">
    <path d="M 54 252 
L 388.8 252 
" style="fill:none;stroke:#000000;stroke-linecap:square;stroke-linejoin:miter;stroke-width:0.8;"/>
   </g>
   <g id="patch_6">
    <path d="M 54 34.56 
L 388.8 34.56 
" style="fill:none;stroke:#000000;stroke-linecap:square;stroke-linejoin:miter;stroke-width:0.8;"/>
   </g>
   <g id="text_16">
    <!-- Method : UCB -->
    <g transform="translate(71.985124 244.752)scale(0.12 -0.12)">
     <defs>
      <path d="M 9.8125 72.90625 
L 24.515625 72.90625 
L 43.109375 23.296875 
L 61.8125 72.90625 
L 76.515625 72.90625 
L 76.515625 0 
L 66.890625 0 
L 66.890625 64.015625 
L 48.09375 14.015625 
L 38.1875 14.015625 
L 19.390625 64.015625 
L 19.390625 0 
L 9.8125 0 
z
" id="DejaVuSans-77"/>
      <path d="M 56.203125 29.59375 
L 56.203125 25.203125 
L 14.890625 25.203125 
Q 15.484375 15.921875 20.484375 11.0625 
Q 25.484375 6.203125 34.421875 6.203125 
Q 39.59375 6.203125 44.453125 7.46875 
Q 49.3125 8.734375 54.109375 11.28125 
L 54.109375 2.78125 
Q 49.265625 0.734375 44.1875 -0.34375 
Q 39.109375 -1.421875 33.890625 -1.421875 
Q 20.796875 -1.421875 13.15625 6.1875 
Q 5.515625 13.8125 5.515625 26.8125 
Q 5.515625 40.234375 12.765625 48.109375 
Q 20.015625 56 32.328125 56 
Q 43.359375 56 49.78125 48.890625 
Q 56.203125 41.796875 56.203125 29.59375 
z
M 47.21875 32.234375 
Q 47.125 39.59375 43.09375 43.984375 
Q 39.0625 48.390625 32.421875 48.390625 
Q 24.90625 48.390625 20.390625 44.140625 
Q 15.875 39.890625 15.1875 32.171875 
z
" id="DejaVuSans-101"/>
      <path d="M 18.3125 70.21875 
L 18.3125 54.6875 
L 36.8125 54.6875 
L 36.8125 47.703125 
L 18.3125 47.703125 
L 18.3125 18.015625 
Q 18.3125 11.328125 20.140625 9.421875 
Q 21.96875 7.515625 27.59375 7.515625 
L 36.8125 7.515625 
L 36.8125 0 
L 27.59375 0 
Q 17.1875 0 13.234375 3.875 
Q 9.28125 7.765625 9.28125 18.015625 
L 9.28125 47.703125 
L 2.6875 47.703125 
L 2.6875 54.6875 
L 9.28125 54.6875 
L 9.28125 70.21875 
z
" id="DejaVuSans-116"/>
      <path d="M 54.890625 33.015625 
L 54.890625 0 
L 45.90625 0 
L 45.90625 32.71875 
Q 45.90625 40.484375 42.875 44.328125 
Q 39.84375 48.1875 33.796875 48.1875 
Q 26.515625 48.1875 22.3125 43.546875 
Q 18.109375 38.921875 18.109375 30.90625 
L 18.109375 0 
L 9.078125 0 
L 9.078125 75.984375 
L 18.109375 75.984375 
L 18.109375 46.1875 
Q 21.34375 51.125 25.703125 53.5625 
Q 30.078125 56 35.796875 56 
Q 45.21875 56 50.046875 50.171875 
Q 54.890625 44.34375 54.890625 33.015625 
z
" id="DejaVuSans-104"/>
      <path d="M 30.609375 48.390625 
Q 23.390625 48.390625 19.1875 42.75 
Q 14.984375 37.109375 14.984375 27.296875 
Q 14.984375 17.484375 19.15625 11.84375 
Q 23.34375 6.203125 30.609375 6.203125 
Q 37.796875 6.203125 41.984375 11.859375 
Q 46.1875 17.53125 46.1875 27.296875 
Q 46.1875 37.015625 41.984375 42.703125 
Q 37.796875 48.390625 30.609375 48.390625 
z
M 30.609375 56 
Q 42.328125 56 49.015625 48.375 
Q 55.71875 40.765625 55.71875 27.296875 
Q 55.71875 13.875 49.015625 6.21875 
Q 42.328125 -1.421875 30.609375 -1.421875 
Q 18.84375 -1.421875 12.171875 6.21875 
Q 5.515625 13.875 5.515625 27.296875 
Q 5.515625 40.765625 12.171875 48.375 
Q 18.84375 56 30.609375 56 
z
" id="DejaVuSans-111"/>
      <path d="M 45.40625 46.390625 
L 45.40625 75.984375 
L 54.390625 75.984375 
L 54.390625 0 
L 45.40625 0 
L 45.40625 8.203125 
Q 42.578125 3.328125 38.25 0.953125 
Q 33.9375 -1.421875 27.875 -1.421875 
Q 17.96875 -1.421875 11.734375 6.484375 
Q 5.515625 14.40625 5.515625 27.296875 
Q 5.515625 40.1875 11.734375 48.09375 
Q 17.96875 56 27.875 56 
Q 33.9375 56 38.25 53.625 
Q 42.578125 51.265625 45.40625 46.390625 
z
M 14.796875 27.296875 
Q 14.796875 17.390625 18.875 11.75 
Q 22.953125 6.109375 30.078125 6.109375 
Q 37.203125 6.109375 41.296875 11.75 
Q 45.40625 17.390625 45.40625 27.296875 
Q 45.40625 37.203125 41.296875 42.84375 
Q 37.203125 48.484375 30.078125 48.484375 
Q 22.953125 48.484375 18.875 42.84375 
Q 14.796875 37.203125 14.796875 27.296875 
z
" id="DejaVuSans-100"/>
      <path id="DejaVuSans-32"/>
      <path d="M 11.71875 12.40625 
L 22.015625 12.40625 
L 22.015625 0 
L 11.71875 0 
z
M 11.71875 51.703125 
L 22.015625 51.703125 
L 22.015625 39.3125 
L 11.71875 39.3125 
z
" id="DejaVuSans-58"/>
      <path d="M 8.6875 72.90625 
L 18.609375 72.90625 
L 18.609375 28.609375 
Q 18.609375 16.890625 22.84375 11.734375 
Q 27.09375 6.59375 36.625 6.59375 
Q 46.09375 6.59375 50.34375 11.734375 
Q 54.59375 16.890625 54.59375 28.609375 
L 54.59375 72.90625 
L 64.5 72.90625 
L 64.5 27.390625 
Q 64.5 13.140625 57.4375 5.859375 
Q 50.390625 -1.421875 36.625 -1.421875 
Q 22.796875 -1.421875 15.734375 5.859375 
Q 8.6875 13.140625 8.6875 27.390625 
z
" id="DejaVuSans-85"/>
      <path d="M 64.40625 67.28125 
L 64.40625 56.890625 
Q 59.421875 61.53125 53.78125 63.8125 
Q 48.140625 66.109375 41.796875 66.109375 
Q 29.296875 66.109375 22.65625 58.46875 
Q 16.015625 50.828125 16.015625 36.375 
Q 16.015625 21.96875 22.65625 14.328125 
Q 29.296875 6.6875 41.796875 6.6875 
Q 48.140625 6.6875 53.78125 8.984375 
Q 59.421875 11.28125 64.40625 15.921875 
L 64.40625 5.609375 
Q 59.234375 2.09375 53.4375 0.328125 
Q 47.65625 -1.421875 41.21875 -1.421875 
Q 24.65625 -1.421875 15.125 8.703125 
Q 5.609375 18.84375 5.609375 36.375 
Q 5.609375 53.953125 15.125 64.078125 
Q 24.65625 74.21875 41.21875 74.21875 
Q 47.75 74.21875 53.53125 72.484375 
Q 59.328125 70.75 64.40625 67.28125 
z
" id="DejaVuSans-67"/>
      <path d="M 19.671875 34.8125 
L 19.671875 8.109375 
L 35.5 8.109375 
Q 43.453125 8.109375 47.28125 11.40625 
Q 51.125 14.703125 51.125 21.484375 
Q 51.125 28.328125 47.28125 31.5625 
Q 43.453125 34.8125 35.5 34.8125 
z
M 19.671875 64.796875 
L 19.671875 42.828125 
L 34.28125 42.828125 
Q 41.5 42.828125 45.03125 45.53125 
Q 48.578125 48.25 48.578125 53.8125 
Q 48.578125 59.328125 45.03125 62.0625 
Q 41.5 64.796875 34.28125 64.796875 
z
M 9.8125 72.90625 
L 35.015625 72.90625 
Q 46.296875 72.90625 52.390625 68.21875 
Q 58.5 63.53125 58.5 54.890625 
Q 58.5 48.1875 55.375 44.234375 
Q 52.25 40.28125 46.1875 39.3125 
Q 53.46875 37.75 57.5 32.78125 
Q 61.53125 27.828125 61.53125 20.40625 
Q 61.53125 10.640625 54.890625 5.3125 
Q 48.25 0 35.984375 0 
L 9.8125 0 
z
" id="DejaVuSans-66"/>
     </defs>
     <use xlink:href="#DejaVuSans-77"/>
     <use x="86.279297" xlink:href="#DejaVuSans-101"/>
     <use x="147.802734" xlink:href="#DejaVuSans-116"/>
     <use x="187.011719" xlink:href="#DejaVuSans-104"/>
     <use x="250.390625" xlink:href="#DejaVuSans-111"/>
     <use x="311.572266" xlink:href="#DejaVuSans-100"/>
     <use x="375.048828" xlink:href="#DejaVuSans-32"/>
     <use x="406.835938" xlink:href="#DejaVuSans-58"/>
     <use x="440.527344" xlink:href="#DejaVuSans-32"/>
     <use x="472.314453" xlink:href="#DejaVuSans-85"/>
     <use x="545.507812" xlink:href="#DejaVuSans-67"/>
     <use x="615.332031" xlink:href="#DejaVuSans-66"/>
    </g>
   </g>
   <g id="text_17">
    <!-- Iter=4 -->
    <g transform="translate(71.985124 226.632)scale(0.12 -0.12)">
     <defs>
      <path d="M 9.8125 72.90625 
L 19.671875 72.90625 
L 19.671875 0 
L 9.8125 0 
z
" id="DejaVuSans-73"/>
      <path d="M 41.109375 46.296875 
Q 39.59375 47.171875 37.8125 47.578125 
Q 36.03125 48 33.890625 48 
Q 26.265625 48 22.1875 43.046875 
Q 18.109375 38.09375 18.109375 28.8125 
L 18.109375 0 
L 9.078125 0 
L 9.078125 54.6875 
L 18.109375 54.6875 
L 18.109375 46.1875 
Q 20.953125 51.171875 25.484375 53.578125 
Q 30.03125 56 36.53125 56 
Q 37.453125 56 38.578125 55.875 
Q 39.703125 55.765625 41.0625 55.515625 
z
" id="DejaVuSans-114"/>
      <path d="M 10.59375 45.40625 
L 73.1875 45.40625 
L 73.1875 37.203125 
L 10.59375 37.203125 
z
M 10.59375 25.484375 
L 73.1875 25.484375 
L 73.1875 17.1875 
L 10.59375 17.1875 
z
" id="DejaVuSans-61"/>
     </defs>
     <use xlink:href="#DejaVuSans-73"/>
     <use x="29.492188" xlink:href="#DejaVuSans-116"/>
     <use x="68.701172" xlink:href="#DejaVuSans-101"/>
     <use x="130.224609" xlink:href="#DejaVuSans-114"/>
     <use x="171.337891" xlink:href="#DejaVuSans-61"/>
     <use x="255.126953" xlink:href="#DejaVuSans-52"/>
    </g>
   </g>
   <g id="text_18">
    <!-- (e) -->
    <g transform="translate(71.985124 56.304)scale(0.12 -0.12)">
     <defs>
      <path d="M 31 75.875 
Q 24.46875 64.65625 21.28125 53.65625 
Q 18.109375 42.671875 18.109375 31.390625 
Q 18.109375 20.125 21.3125 9.0625 
Q 24.515625 -2 31 -13.1875 
L 23.1875 -13.1875 
Q 15.875 -1.703125 12.234375 9.375 
Q 8.59375 20.453125 8.59375 31.390625 
Q 8.59375 42.28125 12.203125 53.3125 
Q 15.828125 64.359375 23.1875 75.875 
z
" id="DejaVuSans-40"/>
      <path d="M 8.015625 75.875 
L 15.828125 75.875 
Q 23.140625 64.359375 26.78125 53.3125 
Q 30.421875 42.28125 30.421875 31.390625 
Q 30.421875 20.453125 26.78125 9.375 
Q 23.140625 -1.703125 15.828125 -13.1875 
L 8.015625 -13.1875 
Q 14.5 -2 17.703125 9.0625 
Q 20.90625 20.125 20.90625 31.390625 
Q 20.90625 42.671875 17.703125 53.65625 
Q 14.5 64.65625 8.015625 75.875 
z
" id="DejaVuSans-41"/>
     </defs>
     <use xlink:href="#DejaVuSans-40"/>
     <use x="39.013672" xlink:href="#DejaVuSans-101"/>
     <use x="100.537109" xlink:href="#DejaVuSans-41"/>
    </g>
   </g>
   <g id="legend_1">
    <g id="patch_7">
     <path d="M 144.327812 140.235625 
L 298.472188 140.235625 
Q 300.672188 140.235625 300.672188 138.035625 
L 300.672188 42.26 
Q 300.672188 40.06 298.472188 40.06 
L 144.327812 40.06 
Q 142.127813 40.06 142.127813 42.26 
L 142.127813 138.035625 
Q 142.127813 140.235625 144.327812 140.235625 
z
" style="fill:#ffffff;opacity:0.8;stroke:#cccccc;stroke-linejoin:miter;"/>
    </g>
    <g id="line2d_18">
     <path d="M 146.527813 48.968281 
L 168.527813 48.968281 
" style="fill:none;stroke:#0000ff;stroke-linecap:square;stroke-width:2;"/>
    </g>
    <g id="line2d_19"/>
    <g id="text_19">
     <!-- ture function -->
     <g transform="translate(177.327813 52.818281)scale(0.11 -0.11)">
      <defs>
       <path d="M 8.5 21.578125 
L 8.5 54.6875 
L 17.484375 54.6875 
L 17.484375 21.921875 
Q 17.484375 14.15625 20.5 10.265625 
Q 23.53125 6.390625 29.59375 6.390625 
Q 36.859375 6.390625 41.078125 11.03125 
Q 45.3125 15.671875 45.3125 23.6875 
L 45.3125 54.6875 
L 54.296875 54.6875 
L 54.296875 0 
L 45.3125 0 
L 45.3125 8.40625 
Q 42.046875 3.421875 37.71875 1 
Q 33.40625 -1.421875 27.6875 -1.421875 
Q 18.265625 -1.421875 13.375 4.4375 
Q 8.5 10.296875 8.5 21.578125 
z
M 31.109375 56 
z
" id="DejaVuSans-117"/>
       <path d="M 37.109375 75.984375 
L 37.109375 68.5 
L 28.515625 68.5 
Q 23.6875 68.5 21.796875 66.546875 
Q 19.921875 64.59375 19.921875 59.515625 
L 19.921875 54.6875 
L 34.71875 54.6875 
L 34.71875 47.703125 
L 19.921875 47.703125 
L 19.921875 0 
L 10.890625 0 
L 10.890625 47.703125 
L 2.296875 47.703125 
L 2.296875 54.6875 
L 10.890625 54.6875 
L 10.890625 58.5 
Q 10.890625 67.625 15.140625 71.796875 
Q 19.390625 75.984375 28.609375 75.984375 
z
" id="DejaVuSans-102"/>
       <path d="M 54.890625 33.015625 
L 54.890625 0 
L 45.90625 0 
L 45.90625 32.71875 
Q 45.90625 40.484375 42.875 44.328125 
Q 39.84375 48.1875 33.796875 48.1875 
Q 26.515625 48.1875 22.3125 43.546875 
Q 18.109375 38.921875 18.109375 30.90625 
L 18.109375 0 
L 9.078125 0 
L 9.078125 54.6875 
L 18.109375 54.6875 
L 18.109375 46.1875 
Q 21.34375 51.125 25.703125 53.5625 
Q 30.078125 56 35.796875 56 
Q 45.21875 56 50.046875 50.171875 
Q 54.890625 44.34375 54.890625 33.015625 
z
" id="DejaVuSans-110"/>
       <path d="M 48.78125 52.59375 
L 48.78125 44.1875 
Q 44.96875 46.296875 41.140625 47.34375 
Q 37.3125 48.390625 33.40625 48.390625 
Q 24.65625 48.390625 19.8125 42.84375 
Q 14.984375 37.3125 14.984375 27.296875 
Q 14.984375 17.28125 19.8125 11.734375 
Q 24.65625 6.203125 33.40625 6.203125 
Q 37.3125 6.203125 41.140625 7.25 
Q 44.96875 8.296875 48.78125 10.40625 
L 48.78125 2.09375 
Q 45.015625 0.34375 40.984375 -0.53125 
Q 36.96875 -1.421875 32.421875 -1.421875 
Q 20.0625 -1.421875 12.78125 6.34375 
Q 5.515625 14.109375 5.515625 27.296875 
Q 5.515625 40.671875 12.859375 48.328125 
Q 20.21875 56 33.015625 56 
Q 37.15625 56 41.109375 55.140625 
Q 45.0625 54.296875 48.78125 52.59375 
z
" id="DejaVuSans-99"/>
       <path d="M 9.421875 54.6875 
L 18.40625 54.6875 
L 18.40625 0 
L 9.421875 0 
z
M 9.421875 75.984375 
L 18.40625 75.984375 
L 18.40625 64.59375 
L 9.421875 64.59375 
z
" id="DejaVuSans-105"/>
      </defs>
      <use xlink:href="#DejaVuSans-116"/>
      <use x="39.208984" xlink:href="#DejaVuSans-117"/>
      <use x="102.587891" xlink:href="#DejaVuSans-114"/>
      <use x="141.451172" xlink:href="#DejaVuSans-101"/>
      <use x="202.974609" xlink:href="#DejaVuSans-32"/>
      <use x="234.761719" xlink:href="#DejaVuSans-102"/>
      <use x="269.966797" xlink:href="#DejaVuSans-117"/>
      <use x="333.345703" xlink:href="#DejaVuSans-110"/>
      <use x="396.724609" xlink:href="#DejaVuSans-99"/>
      <use x="451.705078" xlink:href="#DejaVuSans-116"/>
      <use x="490.914062" xlink:href="#DejaVuSans-105"/>
      <use x="518.697266" xlink:href="#DejaVuSans-111"/>
      <use x="579.878906" xlink:href="#DejaVuSans-110"/>
     </g>
    </g>
    <g id="line2d_20">
     <path d="M 146.527813 65.114219 
L 168.527813 65.114219 
" style="fill:none;stroke:#000000;stroke-dasharray:7.4,3.2;stroke-dashoffset:0;stroke-width:2;"/>
    </g>
    <g id="line2d_21"/>
    <g id="text_20">
     <!-- predicted function -->
     <g transform="translate(177.327813 68.964219)scale(0.11 -0.11)">
      <defs>
       <path d="M 18.109375 8.203125 
L 18.109375 -20.796875 
L 9.078125 -20.796875 
L 9.078125 54.6875 
L 18.109375 54.6875 
L 18.109375 46.390625 
Q 20.953125 51.265625 25.265625 53.625 
Q 29.59375 56 35.59375 56 
Q 45.5625 56 51.78125 48.09375 
Q 58.015625 40.1875 58.015625 27.296875 
Q 58.015625 14.40625 51.78125 6.484375 
Q 45.5625 -1.421875 35.59375 -1.421875 
Q 29.59375 -1.421875 25.265625 0.953125 
Q 20.953125 3.328125 18.109375 8.203125 
z
M 48.6875 27.296875 
Q 48.6875 37.203125 44.609375 42.84375 
Q 40.53125 48.484375 33.40625 48.484375 
Q 26.265625 48.484375 22.1875 42.84375 
Q 18.109375 37.203125 18.109375 27.296875 
Q 18.109375 17.390625 22.1875 11.75 
Q 26.265625 6.109375 33.40625 6.109375 
Q 40.53125 6.109375 44.609375 11.75 
Q 48.6875 17.390625 48.6875 27.296875 
z
" id="DejaVuSans-112"/>
      </defs>
      <use xlink:href="#DejaVuSans-112"/>
      <use x="63.476562" xlink:href="#DejaVuSans-114"/>
      <use x="102.339844" xlink:href="#DejaVuSans-101"/>
      <use x="163.863281" xlink:href="#DejaVuSans-100"/>
      <use x="227.339844" xlink:href="#DejaVuSans-105"/>
      <use x="255.123047" xlink:href="#DejaVuSans-99"/>
      <use x="310.103516" xlink:href="#DejaVuSans-116"/>
      <use x="349.3125" xlink:href="#DejaVuSans-101"/>
      <use x="410.835938" xlink:href="#DejaVuSans-100"/>
      <use x="474.3125" xlink:href="#DejaVuSans-32"/>
      <use x="506.099609" xlink:href="#DejaVuSans-102"/>
      <use x="541.304688" xlink:href="#DejaVuSans-117"/>
      <use x="604.683594" xlink:href="#DejaVuSans-110"/>
      <use x="668.0625" xlink:href="#DejaVuSans-99"/>
      <use x="723.042969" xlink:href="#DejaVuSans-116"/>
      <use x="762.251953" xlink:href="#DejaVuSans-105"/>
      <use x="790.035156" xlink:href="#DejaVuSans-111"/>
      <use x="851.216797" xlink:href="#DejaVuSans-110"/>
     </g>
    </g>
    <g id="line2d_22">
     <path d="M 146.527813 81.260156 
L 168.527813 81.260156 
" style="fill:none;stroke:#008000;stroke-dasharray:3.7,1.6;stroke-dashoffset:0;"/>
    </g>
    <g id="line2d_23"/>
    <g id="text_21">
     <!--   Sn(x) -->
     <g transform="translate(177.327813 85.110156)scale(0.11 -0.11)">
      <defs>
       <path d="M 46 62.703125 
L 46 43.796875 
L 73.1875 43.796875 
L 73.1875 35.5 
L 46 35.5 
L 46 16.609375 
L 37.796875 16.609375 
L 37.796875 35.5 
L 10.59375 35.5 
L 10.59375 43.796875 
L 37.796875 43.796875 
L 37.796875 62.703125 
z
M 10.59375 8.296875 
L 73.1875 8.296875 
L 73.1875 0 
L 10.59375 0 
z
" id="DejaVuSans-177"/>
       <path d="M 53.515625 70.515625 
L 53.515625 60.890625 
Q 47.90625 63.578125 42.921875 64.890625 
Q 37.9375 66.21875 33.296875 66.21875 
Q 25.25 66.21875 20.875 63.09375 
Q 16.5 59.96875 16.5 54.203125 
Q 16.5 49.359375 19.40625 46.890625 
Q 22.3125 44.4375 30.421875 42.921875 
L 36.375 41.703125 
Q 47.40625 39.59375 52.65625 34.296875 
Q 57.90625 29 57.90625 20.125 
Q 57.90625 9.515625 50.796875 4.046875 
Q 43.703125 -1.421875 29.984375 -1.421875 
Q 24.8125 -1.421875 18.96875 -0.25 
Q 13.140625 0.921875 6.890625 3.21875 
L 6.890625 13.375 
Q 12.890625 10.015625 18.65625 8.296875 
Q 24.421875 6.59375 29.984375 6.59375 
Q 38.421875 6.59375 43.015625 9.90625 
Q 47.609375 13.234375 47.609375 19.390625 
Q 47.609375 24.75 44.3125 27.78125 
Q 41.015625 30.8125 33.5 32.328125 
L 27.484375 33.5 
Q 16.453125 35.6875 11.515625 40.375 
Q 6.59375 45.0625 6.59375 53.421875 
Q 6.59375 63.09375 13.40625 68.65625 
Q 20.21875 74.21875 32.171875 74.21875 
Q 37.3125 74.21875 42.625 73.28125 
Q 47.953125 72.359375 53.515625 70.515625 
z
" id="DejaVuSans-83"/>
      </defs>
      <use xlink:href="#DejaVuSans-32"/>
      <use x="31.787109" xlink:href="#DejaVuSans-177"/>
      <use x="115.576172" xlink:href="#DejaVuSans-32"/>
      <use x="147.363281" xlink:href="#DejaVuSans-83"/>
      <use x="210.839844" xlink:href="#DejaVuSans-110"/>
      <use x="274.21875" xlink:href="#DejaVuSans-40"/>
      <use x="313.232422" xlink:href="#DejaVuSans-120"/>
      <use x="372.412109" xlink:href="#DejaVuSans-41"/>
     </g>
    </g>
    <g id="line2d_24">
     <path d="M 146.527813 97.406094 
L 168.527813 97.406094 
" style="fill:none;stroke:#bfbf00;stroke-dasharray:7.4,3.2;stroke-dashoffset:0;stroke-width:2;"/>
    </g>
    <g id="line2d_25"/>
    <g id="text_22">
     <!-- UCB(x) -->
     <g transform="translate(177.327813 101.256094)scale(0.11 -0.11)">
      <use xlink:href="#DejaVuSans-85"/>
      <use x="73.193359" xlink:href="#DejaVuSans-67"/>
      <use x="143.017578" xlink:href="#DejaVuSans-66"/>
      <use x="211.621094" xlink:href="#DejaVuSans-40"/>
      <use x="250.634766" xlink:href="#DejaVuSans-120"/>
      <use x="309.814453" xlink:href="#DejaVuSans-41"/>
     </g>
    </g>
    <g id="PathCollection_2">
     <defs>
      <path d="M 0 3.535534 
C 0.937635 3.535534 1.836992 3.163008 2.5 2.5 
C 3.163008 1.836992 3.535534 0.937635 3.535534 0 
C 3.535534 -0.937635 3.163008 -1.836992 2.5 -2.5 
C 1.836992 -3.163008 0.937635 -3.535534 0 -3.535534 
C -0.937635 -3.535534 -1.836992 -3.163008 -2.5 -2.5 
C -3.163008 -1.836992 -3.535534 -0.937635 -3.535534 0 
C -3.535534 0.937635 -3.163008 1.836992 -2.5 2.5 
C -1.836992 3.163008 -0.937635 3.535534 0 3.535534 
z
" id="m0cd8e3939e" style="stroke:#000000;"/>
     </defs>
     <g>
      <use style="fill:#ff0000;stroke:#000000;" x="157.527813" xlink:href="#m0cd8e3939e" y="114.514531"/>
     </g>
    </g>
    <g id="text_23">
     <!-- training data -->
     <g transform="translate(177.327813 117.402031)scale(0.11 -0.11)">
      <defs>
       <path d="M 34.28125 27.484375 
Q 23.390625 27.484375 19.1875 25 
Q 14.984375 22.515625 14.984375 16.5 
Q 14.984375 11.71875 18.140625 8.90625 
Q 21.296875 6.109375 26.703125 6.109375 
Q 34.1875 6.109375 38.703125 11.40625 
Q 43.21875 16.703125 43.21875 25.484375 
L 43.21875 27.484375 
z
M 52.203125 31.203125 
L 52.203125 0 
L 43.21875 0 
L 43.21875 8.296875 
Q 40.140625 3.328125 35.546875 0.953125 
Q 30.953125 -1.421875 24.3125 -1.421875 
Q 15.921875 -1.421875 10.953125 3.296875 
Q 6 8.015625 6 15.921875 
Q 6 25.140625 12.171875 29.828125 
Q 18.359375 34.515625 30.609375 34.515625 
L 43.21875 34.515625 
L 43.21875 35.40625 
Q 43.21875 41.609375 39.140625 45 
Q 35.0625 48.390625 27.6875 48.390625 
Q 23 48.390625 18.546875 47.265625 
Q 14.109375 46.140625 10.015625 43.890625 
L 10.015625 52.203125 
Q 14.9375 54.109375 19.578125 55.046875 
Q 24.21875 56 28.609375 56 
Q 40.484375 56 46.34375 49.84375 
Q 52.203125 43.703125 52.203125 31.203125 
z
" id="DejaVuSans-97"/>
       <path d="M 45.40625 27.984375 
Q 45.40625 37.75 41.375 43.109375 
Q 37.359375 48.484375 30.078125 48.484375 
Q 22.859375 48.484375 18.828125 43.109375 
Q 14.796875 37.75 14.796875 27.984375 
Q 14.796875 18.265625 18.828125 12.890625 
Q 22.859375 7.515625 30.078125 7.515625 
Q 37.359375 7.515625 41.375 12.890625 
Q 45.40625 18.265625 45.40625 27.984375 
z
M 54.390625 6.78125 
Q 54.390625 -7.171875 48.1875 -13.984375 
Q 42 -20.796875 29.203125 -20.796875 
Q 24.46875 -20.796875 20.265625 -20.09375 
Q 16.0625 -19.390625 12.109375 -17.921875 
L 12.109375 -9.1875 
Q 16.0625 -11.328125 19.921875 -12.34375 
Q 23.78125 -13.375 27.78125 -13.375 
Q 36.625 -13.375 41.015625 -8.765625 
Q 45.40625 -4.15625 45.40625 5.171875 
L 45.40625 9.625 
Q 42.625 4.78125 38.28125 2.390625 
Q 33.9375 0 27.875 0 
Q 17.828125 0 11.671875 7.65625 
Q 5.515625 15.328125 5.515625 27.984375 
Q 5.515625 40.671875 11.671875 48.328125 
Q 17.828125 56 27.875 56 
Q 33.9375 56 38.28125 53.609375 
Q 42.625 51.21875 45.40625 46.390625 
L 45.40625 54.6875 
L 54.390625 54.6875 
z
" id="DejaVuSans-103"/>
      </defs>
      <use xlink:href="#DejaVuSans-116"/>
      <use x="39.208984" xlink:href="#DejaVuSans-114"/>
      <use x="80.322266" xlink:href="#DejaVuSans-97"/>
      <use x="141.601562" xlink:href="#DejaVuSans-105"/>
      <use x="169.384766" xlink:href="#DejaVuSans-110"/>
      <use x="232.763672" xlink:href="#DejaVuSans-105"/>
      <use x="260.546875" xlink:href="#DejaVuSans-110"/>
      <use x="323.925781" xlink:href="#DejaVuSans-103"/>
      <use x="387.402344" xlink:href="#DejaVuSans-32"/>
      <use x="419.189453" xlink:href="#DejaVuSans-100"/>
      <use x="482.666016" xlink:href="#DejaVuSans-97"/>
      <use x="543.945312" xlink:href="#DejaVuSans-116"/>
      <use x="583.154297" xlink:href="#DejaVuSans-97"/>
     </g>
    </g>
    <g id="PathCollection_3">
     <g>
      <use style="fill:#ff0000;stroke:#ff0000;stroke-width:8;" x="157.527813" xlink:href="#m0a5ab48ebd" y="130.660469"/>
     </g>
    </g>
    <g id="text_24">
     <!-- recommended datum -->
     <g transform="translate(177.327813 133.547969)scale(0.11 -0.11)">
      <defs>
       <path d="M 52 44.1875 
Q 55.375 50.25 60.0625 53.125 
Q 64.75 56 71.09375 56 
Q 79.640625 56 84.28125 50.015625 
Q 88.921875 44.046875 88.921875 33.015625 
L 88.921875 0 
L 79.890625 0 
L 79.890625 32.71875 
Q 79.890625 40.578125 77.09375 44.375 
Q 74.3125 48.1875 68.609375 48.1875 
Q 61.625 48.1875 57.5625 43.546875 
Q 53.515625 38.921875 53.515625 30.90625 
L 53.515625 0 
L 44.484375 0 
L 44.484375 32.71875 
Q 44.484375 40.625 41.703125 44.40625 
Q 38.921875 48.1875 33.109375 48.1875 
Q 26.21875 48.1875 22.15625 43.53125 
Q 18.109375 38.875 18.109375 30.90625 
L 18.109375 0 
L 9.078125 0 
L 9.078125 54.6875 
L 18.109375 54.6875 
L 18.109375 46.1875 
Q 21.1875 51.21875 25.484375 53.609375 
Q 29.78125 56 35.6875 56 
Q 41.65625 56 45.828125 52.96875 
Q 50 49.953125 52 44.1875 
z
" id="DejaVuSans-109"/>
      </defs>
      <use xlink:href="#DejaVuSans-114"/>
      <use x="38.863281" xlink:href="#DejaVuSans-101"/>
      <use x="100.386719" xlink:href="#DejaVuSans-99"/>
      <use x="155.367188" xlink:href="#DejaVuSans-111"/>
      <use x="216.548828" xlink:href="#DejaVuSans-109"/>
      <use x="313.960938" xlink:href="#DejaVuSans-109"/>
      <use x="411.373047" xlink:href="#DejaVuSans-101"/>
      <use x="472.896484" xlink:href="#DejaVuSans-110"/>
      <use x="536.275391" xlink:href="#DejaVuSans-100"/>
      <use x="599.751953" xlink:href="#DejaVuSans-101"/>
      <use x="661.275391" xlink:href="#DejaVuSans-100"/>
      <use x="724.751953" xlink:href="#DejaVuSans-32"/>
      <use x="756.539062" xlink:href="#DejaVuSans-100"/>
      <use x="820.015625" xlink:href="#DejaVuSans-97"/>
      <use x="881.294922" xlink:href="#DejaVuSans-116"/>
      <use x="920.503906" xlink:href="#DejaVuSans-117"/>
      <use x="983.882812" xlink:href="#DejaVuSans-109"/>
     </g>
    </g>
   </g>
   <g id="line2d_26">
    <path clip-path="url(#pcb0e20b734)" d="M 69.218182 118.270767 
L 71.985124 118.602204 
L 74.752066 120.02764 
L 77.519008 122.548284 
L 80.28595 126.121997 
L 83.052893 130.66338 
L 85.819835 136.046485 
L 88.586777 142.110074 
L 91.353719 148.665159 
L 94.120661 155.504345 
L 96.887603 162.412384 
L 99.654545 169.177193 
L 102.421488 175.600598 
L 105.18843 181.508057 
L 107.955372 186.756722 
L 110.722314 191.241336 
L 113.489256 194.897647 
L 116.256198 197.703204 
L 119.02314 199.67563 
L 121.790083 200.868617 
L 124.557025 201.366059 
L 127.323967 201.27482 
L 130.090909 200.71672 
L 132.857851 199.820286 
L 135.624793 198.712823 
L 138.391736 197.513265 
L 141.158678 196.326161 
L 143.92562 195.237087 
L 146.692562 194.309614 
L 149.459504 193.583894 
L 152.226446 193.076806 
L 154.993388 192.78353 
L 157.760331 192.680354 
L 160.527273 192.728438 
L 163.294215 192.878259 
L 166.061157 193.074403 
L 168.828099 193.2604 
L 171.595041 193.383276 
L 174.361983 193.397563 
L 177.128926 193.268516 
L 179.895868 192.9744 
L 182.66281 192.507728 
L 185.429752 191.875451 
L 188.196694 191.098153 
L 190.963636 190.208397 
L 193.730579 189.248408 
L 196.497521 188.267311 
L 199.264463 187.318183 
L 202.031405 186.455144 
L 204.798347 185.730688 
L 207.565289 185.193424 
L 210.332231 184.886312 
L 213.099174 184.845426 
L 215.866116 185.099242 
L 218.633058 185.668339 
L 221.4 186.565437 
L 224.166942 187.79562 
L 226.933884 189.35664 
L 229.700826 191.239188 
L 232.467769 193.427084 
L 235.234711 195.897369 
L 238.001653 198.62033 
L 240.768595 201.559544 
L 243.535537 204.672059 
L 246.302479 207.908831 
L 249.069421 211.215539 
L 251.836364 214.533867 
L 254.603306 217.803271 
L 257.370248 220.9632 
L 260.13719 223.95564 
L 262.904132 226.727766 
L 265.671074 229.234444 
L 268.438017 231.440246 
L 271.204959 233.320667 
L 273.971901 234.862261 
L 276.738843 236.061476 
L 279.505785 236.922139 
L 282.272727 237.451645 
L 285.039669 237.656132 
L 287.806612 237.535058 
L 290.573554 237.075767 
L 293.340496 236.248718 
L 296.107438 235.004076 
L 298.87438 233.270329 
L 301.641322 230.95543 
L 304.408264 227.950781 
L 307.175207 224.138068 
L 309.942149 219.398657 
L 312.709091 213.624957 
L 315.476033 206.732854 
L 318.242975 198.674146 
L 321.009917 189.44777 
L 323.77686 179.108663 
L 326.543802 167.773202 
L 329.310744 155.620453 
L 332.077686 142.888799 
L 334.844628 129.867922 
L 337.61157 116.886539 
L 340.378512 104.296706 
L 343.145455 92.455807 
L 345.912397 81.707571 
L 348.679339 72.363562 
L 351.446281 64.686537 
L 354.213223 58.876879 
L 356.980165 55.063053 
L 359.747107 53.296658 
L 362.51405 53.552262 
L 365.280992 55.731808 
L 368.047934 59.673034 
L 370.814876 65.161079 
L 373.581818 71.942238 
" style="fill:none;stroke:#000000;stroke-dasharray:7.4,3.2;stroke-dashoffset:0;stroke-width:2;"/>
   </g>
   <g id="PathCollection_4">
    <g clip-path="url(#pcb0e20b734)">
     <use style="fill:#ff0000;stroke:#000000;" x="83.052893" xlink:href="#m0cd8e3939e" y="129.399309"/>
     <use style="fill:#ff0000;stroke:#000000;" x="96.887603" xlink:href="#m0cd8e3939e" y="162.429541"/>
     <use style="fill:#ff0000;stroke:#000000;" x="110.722314" xlink:href="#m0cd8e3939e" y="193.170209"/>
     <use style="fill:#ff0000;stroke:#000000;" x="124.557025" xlink:href="#m0cd8e3939e" y="199.248575"/>
     <use style="fill:#ff0000;stroke:#000000;" x="138.391736" xlink:href="#m0cd8e3939e" y="199.347548"/>
     <use style="fill:#ff0000;stroke:#000000;" x="152.226446" xlink:href="#m0cd8e3939e" y="191.611971"/>
     <use style="fill:#ff0000;stroke:#000000;" x="166.061157" xlink:href="#m0cd8e3939e" y="193.66847"/>
     <use style="fill:#ff0000;stroke:#000000;" x="179.895868" xlink:href="#m0cd8e3939e" y="193.283098"/>
     <use style="fill:#ff0000;stroke:#000000;" x="193.730579" xlink:href="#m0cd8e3939e" y="188.924027"/>
     <use style="fill:#ff0000;stroke:#000000;" x="318.242975" xlink:href="#m0cd8e3939e" y="199.289596"/>
     <use style="fill:#ff0000;stroke:#000000;" x="332.077686" xlink:href="#m0cd8e3939e" y="145.37007"/>
     <use style="fill:#ff0000;stroke:#000000;" x="345.912397" xlink:href="#m0cd8e3939e" y="78.407322"/>
     <use style="fill:#ff0000;stroke:#000000;" x="301.641322" xlink:href="#m0cd8e3939e" y="229.211486"/>
     <use style="fill:#ff0000;stroke:#000000;" x="287.806612" xlink:href="#m0cd8e3939e" y="239.050448"/>
     <use style="fill:#ff0000;stroke:#000000;" x="265.671074" xlink:href="#m0cd8e3939e" y="229.231906"/>
     <use style="fill:#ff0000;stroke:#000000;" x="282.272727" xlink:href="#m0cd8e3939e" y="237.306891"/>
    </g>
   </g>
  </g>
 </g>
 <defs>
  <clipPath id="pcb0e20b734">
   <rect height="217.44" width="334.8" x="54" y="34.56"/>
  </clipPath>
 </defs>
</svg>
