<?xml version="1.0" encoding="utf-8" standalone="no"?>
<!DOCTYPE svg PUBLIC "-//W3C//DTD SVG 1.1//EN"
  "http://www.w3.org/Graphics/SVG/1.1/DTD/svg11.dtd">
<svg height="288pt" version="1.1" viewBox="0 0 432 288" width="432pt" xmlns="http://www.w3.org/2000/svg" xmlns:xlink="http://www.w3.org/1999/xlink">
 <metadata>
  <rdf:RDF xmlns:cc="http://creativecommons.org/ns#" xmlns:dc="http://purl.org/dc/elements/1.1/" xmlns:rdf="http://www.w3.org/1999/02/22-rdf-syntax-ns#">
   <cc:Work>
    <dc:type rdf:resource="http://purl.org/dc/dcmitype/StillImage"/>
    <dc:date>2022-08-04T11:31:42.502072</dc:date>
    <dc:format>image/svg+xml</dc:format>
    <dc:creator>
     <cc:Agent>
      <dc:title>Matplotlib v3.4.3, https://matplotlib.org/</dc:title>
     </cc:Agent>
    </dc:creator>
   </cc:Work>
  </rdf:RDF>
 </metadata>
 <defs>
  <style type="text/css">*{stroke-linecap:butt;stroke-linejoin:round;}</style>
 </defs>
 <g id="figure_1">
  <g id="patch_1">
   <path d="M 0 288 
L 432 288 
L 432 0 
L 0 0 
z
" style="fill:none;"/>
  </g>
  <g id="axes_1">
   <g id="patch_2">
    <path d="M 54 252 
L 388.8 252 
L 388.8 34.56 
L 54 34.56 
z
" style="fill:#ffffff;"/>
   </g>
   <g id="PolyCollection_1">
    <defs>
     <path d="M 69.218182 -170.17454 
L 69.218182 -121.62282 
L 71.985124 -125.222846 
L 74.752066 -128.09403 
L 77.519008 -130.05379 
L 80.28595 -130.949074 
L 83.052893 -130.676304 
L 85.819835 -129.20377 
L 88.586777 -126.589538 
L 91.353719 -122.982798 
L 94.120661 -118.60214 
L 96.887603 -113.699746 
L 99.654545 -108.528205 
L 102.421488 -103.319257 
L 105.18843 -98.273696 
L 107.955372 -93.557882 
L 110.722314 -89.303239 
L 113.489256 -85.606774 
L 116.256198 -82.531806 
L 119.02314 -80.108813 
L 121.790083 -78.33669 
L 124.557025 -77.184975 
L 127.323967 -76.597454 
L 130.090909 -76.497307 
L 132.857851 -76.793493 
L 135.624793 -77.387802 
L 138.391736 -78.181845 
L 141.158678 -79.083276 
L 143.92562 -80.010734 
L 146.692562 -80.897242 
L 149.459504 -81.692049 
L 152.226446 -82.361176 
L 154.993388 -82.887039 
L 157.760331 -83.267554 
L 160.527273 -83.514966 
L 163.294215 -83.654333 
L 166.061157 -83.721275 
L 168.828099 -83.758346 
L 171.595041 -83.809458 
L 174.361983 -83.912172 
L 177.128926 -84.088278 
L 179.895868 -84.333967 
L 182.66281 -84.612221 
L 185.429752 -84.851832 
L 188.196694 -84.95839 
L 190.963636 -84.838794 
L 193.730579 -84.430622 
L 196.497521 -83.720141 
L 199.264463 -82.740156 
L 202.031405 -81.554204 
L 204.798347 -80.238866 
L 207.565289 -78.870608 
L 210.332231 -77.517694 
L 213.099174 -76.235682 
L 215.866116 -75.065179 
L 218.633058 -74.03115 
L 221.4 -73.143439 
L 224.166942 -72.398254 
L 226.933884 -71.7804 
L 229.700826 -71.265976 
L 232.467769 -70.825254 
L 235.234711 -70.425478 
L 238.001653 -70.033388 
L 240.768595 -69.617372 
L 243.535537 -69.149214 
L 246.302479 -68.605527 
L 249.069421 -67.968908 
L 251.836364 -67.22891 
L 254.603306 -66.382808 
L 257.370248 -65.43611 
L 260.13719 -64.402694 
L 262.904132 -63.304473 
L 265.671074 -62.170498 
L 268.438017 -61.035514 
L 271.204959 -59.938033 
L 273.971901 -58.918085 
L 276.738843 -58.014811 
L 279.505785 -57.26404 
L 282.272727 -56.695914 
L 285.039669 -56.332507 
L 287.806612 -56.185529 
L 290.573554 -56.254954 
L 293.340496 -56.532031 
L 296.107438 -57.014881 
L 298.87438 -57.745806 
L 301.641322 -58.858521 
L 304.408264 -60.587075 
L 307.175207 -63.206508 
L 309.942149 -66.949346 
L 312.709091 -71.953587 
L 315.476033 -78.248853 
L 318.242975 -85.762891 
L 321.009917 -94.335369 
L 323.77686 -103.73354 
L 326.543802 -113.667499 
L 329.310744 -123.803664 
L 332.077686 -133.776222 
L 334.844628 -143.198407 
L 337.61157 -151.677966 
L 340.378512 -158.842075 
L 343.145455 -164.372896 
L 345.912397 -168.0453 
L 348.679339 -169.751507 
L 351.446281 -169.503716 
L 354.213223 -167.419141 
L 356.980165 -163.697482 
L 359.747107 -158.597389 
L 362.51405 -152.414041 
L 365.280992 -145.458196 
L 368.047934 -138.03714 
L 370.814876 -130.438262 
L 373.581818 -122.91604 
L 373.581818 -188.828493 
L 373.581818 -188.828493 
L 370.814876 -193.689732 
L 368.047934 -198.172762 
L 365.280992 -202.054592 
L 362.51405 -205.114332 
L 359.747107 -207.147959 
L 356.980165 -207.983396 
L 354.213223 -207.494278 
L 351.446281 -205.610372 
L 348.679339 -202.322179 
L 345.912397 -197.677421 
L 343.145455 -191.769407 
L 340.378512 -184.72253 
L 337.61157 -176.684578 
L 334.844628 -167.83101 
L 332.077686 -158.373958 
L 329.310744 -148.563186 
L 326.543802 -138.673514 
L 323.77686 -128.983046 
L 321.009917 -119.750419 
L 318.242975 -111.197908 
L 315.476033 -103.50401 
L 312.709091 -96.80618 
L 309.942149 -91.212413 
L 307.175207 -86.818723 
L 304.408264 -83.725813 
L 301.641322 -82.040238 
L 298.87438 -81.840413 
L 296.107438 -83.112426 
L 293.340496 -85.709737 
L 290.573554 -89.379667 
L 287.806612 -93.825889 
L 285.039669 -98.75817 
L 282.272727 -103.917453 
L 279.505785 -109.085456 
L 276.738843 -114.087275 
L 273.971901 -118.79078 
L 271.204959 -123.104076 
L 268.438017 -126.97148 
L 265.671074 -130.368354 
L 262.904132 -133.295181 
L 260.13719 -135.771312 
L 257.370248 -137.828804 
L 254.603306 -139.506718 
L 251.836364 -140.846126 
L 249.069421 -141.885997 
L 246.302479 -142.659995 
L 243.535537 -143.194171 
L 240.768595 -143.505508 
L 238.001653 -143.60128 
L 235.234711 -143.479232 
L 232.467769 -143.128621 
L 229.700826 -142.532144 
L 226.933884 -141.668752 
L 224.166942 -140.517253 
L 221.4 -139.060511 
L 218.633058 -137.289922 
L 215.866116 -135.209787 
L 213.099174 -132.841154 
L 210.332231 -130.224703 
L 207.565289 -127.422297 
L 204.798347 -124.516815 
L 202.031405 -121.609816 
L 199.264463 -118.816224 
L 196.497521 -116.254716 
L 193.730579 -114.032339 
L 190.963636 -112.224031 
L 188.196694 -110.853623 
L 185.429752 -109.888381 
L 182.66281 -109.253865 
L 179.895868 -108.860666 
L 177.128926 -108.627101 
L 174.361983 -108.489496 
L 171.595041 -108.40183 
L 168.828099 -108.330188 
L 166.061157 -108.246437 
L 163.294215 -108.123633 
L 160.527273 -107.934199 
L 157.760331 -107.650963 
L 154.993388 -107.250419 
L 152.226446 -106.717138 
L 149.459504 -106.048188 
L 146.692562 -105.25662 
L 143.92562 -104.373492 
L 141.158678 -103.448251 
L 138.391736 -102.547562 
L 135.624793 -101.752777 
L 132.857851 -101.15625 
L 130.090909 -100.856685 
L 127.323967 -100.953593 
L 124.557025 -101.540937 
L 121.790083 -102.700071 
L 119.02314 -104.492222 
L 116.256198 -106.95104 
L 113.489256 -110.076074 
L 110.722314 -113.828401 
L 107.955372 -118.129724 
L 105.18843 -122.866069 
L 102.421488 -127.896581 
L 99.654545 -133.067027 
L 96.887603 -138.226445 
L 94.120661 -143.243784 
L 91.353719 -148.019346 
L 88.586777 -152.484771 
L 85.819835 -156.589008 
L 83.052893 -160.278021 
L 80.28595 -163.483649 
L 77.519008 -166.12986 
L 74.752066 -168.149647 
L 71.985124 -169.500808 
L 69.218182 -170.17454 
z
" id="m4f3d2c5594" style="stroke:#add8e6;stroke-opacity:0.2;"/>
    </defs>
    <g clip-path="url(#p3a62676147)">
     <use style="fill:#add8e6;fill-opacity:0.2;stroke:#add8e6;stroke-opacity:0.2;" x="0" xlink:href="#m4f3d2c5594" y="288"/>
    </g>
   </g>
   <g id="PathCollection_1">
    <defs>
     <path d="M 0 0.612372 
C 0.162403 0.612372 0.318176 0.547849 0.433013 0.433013 
C 0.547849 0.318176 0.612372 0.162403 0.612372 0 
C 0.612372 -0.162403 0.547849 -0.318176 0.433013 -0.433013 
C 0.318176 -0.547849 0.162403 -0.612372 0 -0.612372 
C -0.162403 -0.612372 -0.318176 -0.547849 -0.433013 -0.433013 
C -0.547849 -0.318176 -0.612372 -0.162403 -0.612372 0 
C -0.612372 0.162403 -0.547849 0.318176 -0.433013 0.433013 
C -0.318176 0.547849 -0.162403 0.612372 0 0.612372 
z
" id="m3307d00fed" style="stroke:#ff0000;stroke-width:8;"/>
    </defs>
    <g clip-path="url(#p3a62676147)">
     <use style="fill:#ff0000;stroke:#ff0000;stroke-width:8;" x="279.505785" xlink:href="#m3307d00fed" y="218.049011"/>
    </g>
   </g>
   <g id="matplotlib.axis_1">
    <g id="xtick_1">
     <g id="line2d_1">
      <defs>
       <path d="M 0 0 
L 0 3.5 
" id="m7e70ac030c" style="stroke:#000000;stroke-width:0.8;"/>
      </defs>
      <g>
       <use style="stroke:#000000;stroke-width:0.8;" x="69.218182" xlink:href="#m7e70ac030c" y="252"/>
      </g>
     </g>
     <g id="text_1">
      <!-- 0 -->
      <g transform="translate(66.036932 266.598437)scale(0.1 -0.1)">
       <defs>
        <path d="M 2034 4250 
Q 1547 4250 1301 3770 
Q 1056 3291 1056 2328 
Q 1056 1369 1301 889 
Q 1547 409 2034 409 
Q 2525 409 2770 889 
Q 3016 1369 3016 2328 
Q 3016 3291 2770 3770 
Q 2525 4250 2034 4250 
z
M 2034 4750 
Q 2819 4750 3233 4129 
Q 3647 3509 3647 2328 
Q 3647 1150 3233 529 
Q 2819 -91 2034 -91 
Q 1250 -91 836 529 
Q 422 1150 422 2328 
Q 422 3509 836 4129 
Q 1250 4750 2034 4750 
z
" id="DejaVuSans-30" transform="scale(0.015625)"/>
       </defs>
       <use xlink:href="#DejaVuSans-30"/>
      </g>
     </g>
    </g>
    <g id="xtick_2">
     <g id="line2d_2">
      <g>
       <use style="stroke:#000000;stroke-width:0.8;" x="124.557025" xlink:href="#m7e70ac030c" y="252"/>
      </g>
     </g>
     <g id="text_2">
      <!-- 2 -->
      <g transform="translate(121.375775 266.598437)scale(0.1 -0.1)">
       <defs>
        <path d="M 1228 531 
L 3431 531 
L 3431 0 
L 469 0 
L 469 531 
Q 828 903 1448 1529 
Q 2069 2156 2228 2338 
Q 2531 2678 2651 2914 
Q 2772 3150 2772 3378 
Q 2772 3750 2511 3984 
Q 2250 4219 1831 4219 
Q 1534 4219 1204 4116 
Q 875 4013 500 3803 
L 500 4441 
Q 881 4594 1212 4672 
Q 1544 4750 1819 4750 
Q 2544 4750 2975 4387 
Q 3406 4025 3406 3419 
Q 3406 3131 3298 2873 
Q 3191 2616 2906 2266 
Q 2828 2175 2409 1742 
Q 1991 1309 1228 531 
z
" id="DejaVuSans-32" transform="scale(0.015625)"/>
       </defs>
       <use xlink:href="#DejaVuSans-32"/>
      </g>
     </g>
    </g>
    <g id="xtick_3">
     <g id="line2d_3">
      <g>
       <use style="stroke:#000000;stroke-width:0.8;" x="179.895868" xlink:href="#m7e70ac030c" y="252"/>
      </g>
     </g>
     <g id="text_3">
      <!-- 4 -->
      <g transform="translate(176.714618 266.598437)scale(0.1 -0.1)">
       <defs>
        <path d="M 2419 4116 
L 825 1625 
L 2419 1625 
L 2419 4116 
z
M 2253 4666 
L 3047 4666 
L 3047 1625 
L 3713 1625 
L 3713 1100 
L 3047 1100 
L 3047 0 
L 2419 0 
L 2419 1100 
L 313 1100 
L 313 1709 
L 2253 4666 
z
" id="DejaVuSans-34" transform="scale(0.015625)"/>
       </defs>
       <use xlink:href="#DejaVuSans-34"/>
      </g>
     </g>
    </g>
    <g id="xtick_4">
     <g id="line2d_4">
      <g>
       <use style="stroke:#000000;stroke-width:0.8;" x="235.234711" xlink:href="#m7e70ac030c" y="252"/>
      </g>
     </g>
     <g id="text_4">
      <!-- 6 -->
      <g transform="translate(232.053461 266.598437)scale(0.1 -0.1)">
       <defs>
        <path d="M 2113 2584 
Q 1688 2584 1439 2293 
Q 1191 2003 1191 1497 
Q 1191 994 1439 701 
Q 1688 409 2113 409 
Q 2538 409 2786 701 
Q 3034 994 3034 1497 
Q 3034 2003 2786 2293 
Q 2538 2584 2113 2584 
z
M 3366 4563 
L 3366 3988 
Q 3128 4100 2886 4159 
Q 2644 4219 2406 4219 
Q 1781 4219 1451 3797 
Q 1122 3375 1075 2522 
Q 1259 2794 1537 2939 
Q 1816 3084 2150 3084 
Q 2853 3084 3261 2657 
Q 3669 2231 3669 1497 
Q 3669 778 3244 343 
Q 2819 -91 2113 -91 
Q 1303 -91 875 529 
Q 447 1150 447 2328 
Q 447 3434 972 4092 
Q 1497 4750 2381 4750 
Q 2619 4750 2861 4703 
Q 3103 4656 3366 4563 
z
" id="DejaVuSans-36" transform="scale(0.015625)"/>
       </defs>
       <use xlink:href="#DejaVuSans-36"/>
      </g>
     </g>
    </g>
    <g id="xtick_5">
     <g id="line2d_5">
      <g>
       <use style="stroke:#000000;stroke-width:0.8;" x="290.573554" xlink:href="#m7e70ac030c" y="252"/>
      </g>
     </g>
     <g id="text_5">
      <!-- 8 -->
      <g transform="translate(287.392304 266.598437)scale(0.1 -0.1)">
       <defs>
        <path d="M 2034 2216 
Q 1584 2216 1326 1975 
Q 1069 1734 1069 1313 
Q 1069 891 1326 650 
Q 1584 409 2034 409 
Q 2484 409 2743 651 
Q 3003 894 3003 1313 
Q 3003 1734 2745 1975 
Q 2488 2216 2034 2216 
z
M 1403 2484 
Q 997 2584 770 2862 
Q 544 3141 544 3541 
Q 544 4100 942 4425 
Q 1341 4750 2034 4750 
Q 2731 4750 3128 4425 
Q 3525 4100 3525 3541 
Q 3525 3141 3298 2862 
Q 3072 2584 2669 2484 
Q 3125 2378 3379 2068 
Q 3634 1759 3634 1313 
Q 3634 634 3220 271 
Q 2806 -91 2034 -91 
Q 1263 -91 848 271 
Q 434 634 434 1313 
Q 434 1759 690 2068 
Q 947 2378 1403 2484 
z
M 1172 3481 
Q 1172 3119 1398 2916 
Q 1625 2713 2034 2713 
Q 2441 2713 2670 2916 
Q 2900 3119 2900 3481 
Q 2900 3844 2670 4047 
Q 2441 4250 2034 4250 
Q 1625 4250 1398 4047 
Q 1172 3844 1172 3481 
z
" id="DejaVuSans-38" transform="scale(0.015625)"/>
       </defs>
       <use xlink:href="#DejaVuSans-38"/>
      </g>
     </g>
    </g>
    <g id="xtick_6">
     <g id="line2d_6">
      <g>
       <use style="stroke:#000000;stroke-width:0.8;" x="345.912397" xlink:href="#m7e70ac030c" y="252"/>
      </g>
     </g>
     <g id="text_6">
      <!-- 10 -->
      <g transform="translate(339.549897 266.598437)scale(0.1 -0.1)">
       <defs>
        <path d="M 794 531 
L 1825 531 
L 1825 4091 
L 703 3866 
L 703 4441 
L 1819 4666 
L 2450 4666 
L 2450 531 
L 3481 531 
L 3481 0 
L 794 0 
L 794 531 
z
" id="DejaVuSans-31" transform="scale(0.015625)"/>
       </defs>
       <use xlink:href="#DejaVuSans-31"/>
       <use x="63.623047" xlink:href="#DejaVuSans-30"/>
      </g>
     </g>
    </g>
    <g id="text_7">
     <!-- x -->
     <g transform="translate(217.84875 281.79625)scale(0.12 -0.12)">
      <defs>
       <path d="M 3513 3500 
L 2247 1797 
L 3578 0 
L 2900 0 
L 1881 1375 
L 863 0 
L 184 0 
L 1544 1831 
L 300 3500 
L 978 3500 
L 1906 2253 
L 2834 3500 
L 3513 3500 
z
" id="DejaVuSans-78" transform="scale(0.015625)"/>
      </defs>
      <use xlink:href="#DejaVuSans-78"/>
     </g>
    </g>
   </g>
   <g id="matplotlib.axis_2">
    <g id="ytick_1">
     <g id="line2d_7">
      <defs>
       <path d="M 0 0 
L -3.5 0 
" id="m8d434bee9c" style="stroke:#000000;stroke-width:0.8;"/>
      </defs>
      <g>
       <use style="stroke:#000000;stroke-width:0.8;" x="54" xlink:href="#m8d434bee9c" y="252"/>
      </g>
     </g>
     <g id="text_8">
      <!-- 3 -->
      <g transform="translate(40.6375 255.799219)scale(0.1 -0.1)">
       <defs>
        <path d="M 2597 2516 
Q 3050 2419 3304 2112 
Q 3559 1806 3559 1356 
Q 3559 666 3084 287 
Q 2609 -91 1734 -91 
Q 1441 -91 1130 -33 
Q 819 25 488 141 
L 488 750 
Q 750 597 1062 519 
Q 1375 441 1716 441 
Q 2309 441 2620 675 
Q 2931 909 2931 1356 
Q 2931 1769 2642 2001 
Q 2353 2234 1838 2234 
L 1294 2234 
L 1294 2753 
L 1863 2753 
Q 2328 2753 2575 2939 
Q 2822 3125 2822 3475 
Q 2822 3834 2567 4026 
Q 2313 4219 1838 4219 
Q 1578 4219 1281 4162 
Q 984 4106 628 3988 
L 628 4550 
Q 988 4650 1302 4700 
Q 1616 4750 1894 4750 
Q 2613 4750 3031 4423 
Q 3450 4097 3450 3541 
Q 3450 3153 3228 2886 
Q 3006 2619 2597 2516 
z
" id="DejaVuSans-33" transform="scale(0.015625)"/>
       </defs>
       <use xlink:href="#DejaVuSans-33"/>
      </g>
     </g>
    </g>
    <g id="ytick_2">
     <g id="line2d_8">
      <g>
       <use style="stroke:#000000;stroke-width:0.8;" x="54" xlink:href="#m8d434bee9c" y="215.76"/>
      </g>
     </g>
     <g id="text_9">
      <!-- 4 -->
      <g transform="translate(40.6375 219.559219)scale(0.1 -0.1)">
       <use xlink:href="#DejaVuSans-34"/>
      </g>
     </g>
    </g>
    <g id="ytick_3">
     <g id="line2d_9">
      <g>
       <use style="stroke:#000000;stroke-width:0.8;" x="54" xlink:href="#m8d434bee9c" y="179.52"/>
      </g>
     </g>
     <g id="text_10">
      <!-- 5 -->
      <g transform="translate(40.6375 183.319219)scale(0.1 -0.1)">
       <defs>
        <path d="M 691 4666 
L 3169 4666 
L 3169 4134 
L 1269 4134 
L 1269 2991 
Q 1406 3038 1543 3061 
Q 1681 3084 1819 3084 
Q 2600 3084 3056 2656 
Q 3513 2228 3513 1497 
Q 3513 744 3044 326 
Q 2575 -91 1722 -91 
Q 1428 -91 1123 -41 
Q 819 9 494 109 
L 494 744 
Q 775 591 1075 516 
Q 1375 441 1709 441 
Q 2250 441 2565 725 
Q 2881 1009 2881 1497 
Q 2881 1984 2565 2268 
Q 2250 2553 1709 2553 
Q 1456 2553 1204 2497 
Q 953 2441 691 2322 
L 691 4666 
z
" id="DejaVuSans-35" transform="scale(0.015625)"/>
       </defs>
       <use xlink:href="#DejaVuSans-35"/>
      </g>
     </g>
    </g>
    <g id="ytick_4">
     <g id="line2d_10">
      <g>
       <use style="stroke:#000000;stroke-width:0.8;" x="54" xlink:href="#m8d434bee9c" y="143.28"/>
      </g>
     </g>
     <g id="text_11">
      <!-- 6 -->
      <g transform="translate(40.6375 147.079219)scale(0.1 -0.1)">
       <use xlink:href="#DejaVuSans-36"/>
      </g>
     </g>
    </g>
    <g id="ytick_5">
     <g id="line2d_11">
      <g>
       <use style="stroke:#000000;stroke-width:0.8;" x="54" xlink:href="#m8d434bee9c" y="107.04"/>
      </g>
     </g>
     <g id="text_12">
      <!-- 7 -->
      <g transform="translate(40.6375 110.839219)scale(0.1 -0.1)">
       <defs>
        <path d="M 525 4666 
L 3525 4666 
L 3525 4397 
L 1831 0 
L 1172 0 
L 2766 4134 
L 525 4134 
L 525 4666 
z
" id="DejaVuSans-37" transform="scale(0.015625)"/>
       </defs>
       <use xlink:href="#DejaVuSans-37"/>
      </g>
     </g>
    </g>
    <g id="ytick_6">
     <g id="line2d_12">
      <g>
       <use style="stroke:#000000;stroke-width:0.8;" x="54" xlink:href="#m8d434bee9c" y="70.8"/>
      </g>
     </g>
     <g id="text_13">
      <!-- 8 -->
      <g transform="translate(40.6375 74.599219)scale(0.1 -0.1)">
       <use xlink:href="#DejaVuSans-38"/>
      </g>
     </g>
    </g>
    <g id="ytick_7">
     <g id="line2d_13">
      <g>
       <use style="stroke:#000000;stroke-width:0.8;" x="54" xlink:href="#m8d434bee9c" y="34.56"/>
      </g>
     </g>
     <g id="text_14">
      <!-- 9 -->
      <g transform="translate(40.6375 38.359219)scale(0.1 -0.1)">
       <defs>
        <path d="M 703 97 
L 703 672 
Q 941 559 1184 500 
Q 1428 441 1663 441 
Q 2288 441 2617 861 
Q 2947 1281 2994 2138 
Q 2813 1869 2534 1725 
Q 2256 1581 1919 1581 
Q 1219 1581 811 2004 
Q 403 2428 403 3163 
Q 403 3881 828 4315 
Q 1253 4750 1959 4750 
Q 2769 4750 3195 4129 
Q 3622 3509 3622 2328 
Q 3622 1225 3098 567 
Q 2575 -91 1691 -91 
Q 1453 -91 1209 -44 
Q 966 3 703 97 
z
M 1959 2075 
Q 2384 2075 2632 2365 
Q 2881 2656 2881 3163 
Q 2881 3666 2632 3958 
Q 2384 4250 1959 4250 
Q 1534 4250 1286 3958 
Q 1038 3666 1038 3163 
Q 1038 2656 1286 2365 
Q 1534 2075 1959 2075 
z
" id="DejaVuSans-39" transform="scale(0.015625)"/>
       </defs>
       <use xlink:href="#DejaVuSans-39"/>
      </g>
     </g>
    </g>
    <g id="text_15">
     <!-- y -->
     <g transform="translate(34.141875 146.83125)rotate(-90)scale(0.12 -0.12)">
      <defs>
       <path d="M 2059 -325 
Q 1816 -950 1584 -1140 
Q 1353 -1331 966 -1331 
L 506 -1331 
L 506 -850 
L 844 -850 
Q 1081 -850 1212 -737 
Q 1344 -625 1503 -206 
L 1606 56 
L 191 3500 
L 800 3500 
L 1894 763 
L 2988 3500 
L 3597 3500 
L 2059 -325 
z
" id="DejaVuSans-79" transform="scale(0.015625)"/>
      </defs>
      <use xlink:href="#DejaVuSans-79"/>
     </g>
    </g>
   </g>
   <g id="line2d_14">
    <path clip-path="url(#p3a62676147)" d="M 69.218182 70.8 
L 71.985124 85.083949 
L 74.752066 98.25467 
L 77.519008 110.364828 
L 80.28595 121.465955 
L 83.052893 131.608455 
L 85.819835 140.841599 
L 88.586777 149.213528 
L 91.353719 156.771253 
L 94.120661 163.560654 
L 96.887603 169.62648 
L 99.654545 175.012349 
L 102.421488 179.76075 
L 105.18843 183.913038 
L 107.955372 187.509441 
L 110.722314 190.589055 
L 113.489256 193.189844 
L 116.256198 195.348643 
L 119.02314 197.101155 
L 121.790083 198.481953 
L 124.557025 199.52448 
L 127.323967 200.261047 
L 130.090909 200.722835 
L 132.857851 200.939895 
L 135.624793 200.941145 
L 138.391736 200.754375 
L 141.158678 200.406243 
L 143.92562 199.922276 
L 146.692562 199.326871 
L 149.459504 198.643294 
L 152.226446 197.89368 
L 154.993388 197.099035 
L 157.760331 196.279231 
L 160.527273 195.453014 
L 163.294215 194.637994 
L 166.061157 193.850655 
L 168.828099 193.106347 
L 171.595041 192.419291 
L 174.361983 191.802577 
L 177.128926 191.268164 
L 179.895868 190.82688 
L 182.66281 190.488424 
L 185.429752 190.261362 
L 188.196694 190.153131 
L 190.963636 190.170037 
L 193.730579 190.317255 
L 196.497521 190.598829 
L 199.264463 191.017673 
L 202.031405 191.575569 
L 204.798347 192.273171 
L 207.565289 193.11 
L 210.332231 194.084446 
L 213.099174 195.193771 
L 215.866116 196.434103 
L 218.633058 197.800442 
L 221.4 199.286655 
L 224.166942 200.88548 
L 226.933884 202.588525 
L 229.700826 204.386264 
L 232.467769 206.268045 
L 235.234711 208.22208 
L 238.001653 210.235455 
L 240.768595 212.294122 
L 243.535537 214.382905 
L 246.302479 216.485496 
L 249.069421 218.584455 
L 251.836364 220.661214 
L 254.603306 222.696071 
L 257.370248 224.668198 
L 260.13719 226.555631 
L 262.904132 228.33528 
L 265.671074 229.982921 
L 268.438017 231.4732 
L 271.204959 232.779634 
L 273.971901 233.874607 
L 276.738843 234.729375 
L 279.505785 235.31406 
L 282.272727 235.597656 
L 285.039669 235.548026 
L 287.806612 235.1319 
L 290.573554 234.31488 
L 293.340496 233.061436 
L 296.107438 231.334908 
L 298.87438 229.097505 
L 301.641322 226.310305 
L 304.408264 222.933255 
L 307.175207 218.925173 
L 309.942149 214.243744 
L 312.709091 208.845524 
L 315.476033 202.685938 
L 318.242975 195.71928 
L 321.009917 187.898713 
L 323.77686 179.176271 
L 326.543802 169.502854 
L 329.310744 158.828236 
L 332.077686 147.101055 
L 334.844628 134.268823 
L 337.61157 120.277918 
L 340.378512 105.073589 
L 343.145455 88.599954 
L 345.912397 70.8 
L 348.679339 51.615584 
L 351.446281 30.987432 
L 354.213223 8.855138 
L 355.363895 -1 
" style="fill:none;stroke:#0000ff;stroke-linecap:square;stroke-width:2;"/>
   </g>
   <g id="line2d_15">
    <path clip-path="url(#p3a62676147)" d="M 69.218182 166.37718 
L 71.985124 162.777154 
L 74.752066 159.90597 
L 77.519008 157.94621 
L 80.28595 157.050926 
L 83.052893 157.323696 
L 85.819835 158.79623 
L 88.586777 161.410462 
L 91.353719 165.017202 
L 94.120661 169.39786 
L 96.887603 174.300254 
L 99.654545 179.471795 
L 102.421488 184.680743 
L 105.18843 189.726304 
L 107.955372 194.442118 
L 110.722314 198.696761 
L 113.489256 202.393226 
L 116.256198 205.468194 
L 119.02314 207.891187 
L 121.790083 209.66331 
L 124.557025 210.815025 
L 127.323967 211.402546 
L 130.090909 211.502693 
L 132.857851 211.206507 
L 135.624793 210.612198 
L 138.391736 209.818155 
L 141.158678 208.916724 
L 143.92562 207.989266 
L 146.692562 207.102758 
L 149.459504 206.307951 
L 152.226446 205.638824 
L 154.993388 205.112961 
L 157.760331 204.732446 
L 160.527273 204.485034 
L 163.294215 204.345667 
L 166.061157 204.278725 
L 168.828099 204.241654 
L 171.595041 204.190542 
L 174.361983 204.087828 
L 177.128926 203.911722 
L 179.895868 203.666033 
L 182.66281 203.387779 
L 185.429752 203.148168 
L 188.196694 203.04161 
L 190.963636 203.161206 
L 193.730579 203.569378 
L 196.497521 204.279859 
L 199.264463 205.259844 
L 202.031405 206.445796 
L 204.798347 207.761134 
L 207.565289 209.129392 
L 210.332231 210.482306 
L 213.099174 211.764318 
L 215.866116 212.934821 
L 218.633058 213.96885 
L 221.4 214.856561 
L 224.166942 215.601746 
L 226.933884 216.2196 
L 229.700826 216.734024 
L 232.467769 217.174746 
L 235.234711 217.574522 
L 238.001653 217.966612 
L 240.768595 218.382628 
L 243.535537 218.850786 
L 246.302479 219.394473 
L 249.069421 220.031092 
L 251.836364 220.77109 
L 254.603306 221.617192 
L 257.370248 222.56389 
L 260.13719 223.597306 
L 262.904132 224.695527 
L 265.671074 225.829502 
L 268.438017 226.964486 
L 271.204959 228.061967 
L 273.971901 229.081915 
L 276.738843 229.985189 
L 279.505785 230.73596 
L 282.272727 231.304086 
L 285.039669 231.667493 
L 287.806612 231.814471 
L 290.573554 231.745046 
L 293.340496 231.467969 
L 296.107438 230.985119 
L 298.87438 230.254194 
L 301.641322 229.141479 
L 304.408264 227.412925 
L 307.175207 224.793492 
L 309.942149 221.050654 
L 312.709091 216.046413 
L 315.476033 209.751147 
L 318.242975 202.237109 
L 321.009917 193.664631 
L 323.77686 184.26646 
L 326.543802 174.332501 
L 329.310744 164.196336 
L 332.077686 154.223778 
L 334.844628 144.801593 
L 337.61157 136.322034 
L 340.378512 129.157925 
L 343.145455 123.627104 
L 345.912397 119.9547 
L 348.679339 118.248493 
L 351.446281 118.496284 
L 354.213223 120.580859 
L 356.980165 124.302518 
L 359.747107 129.402611 
L 362.51405 135.585959 
L 365.280992 142.541804 
L 368.047934 149.96286 
L 370.814876 157.561738 
L 373.581818 165.08396 
" style="fill:none;stroke:#008000;stroke-dasharray:3.7,1.6;stroke-dashoffset:0;"/>
   </g>
   <g id="line2d_16">
    <path clip-path="url(#p3a62676147)" d="M 69.218182 117.82546 
L 71.985124 118.499192 
L 74.752066 119.850353 
L 77.519008 121.87014 
L 80.28595 124.516351 
L 83.052893 127.721979 
L 85.819835 131.410992 
L 88.586777 135.515229 
L 91.353719 139.980654 
L 94.120661 144.756216 
L 96.887603 149.773555 
L 99.654545 154.932973 
L 102.421488 160.103419 
L 105.18843 165.133931 
L 107.955372 169.870276 
L 110.722314 174.171599 
L 113.489256 177.923926 
L 116.256198 181.04896 
L 119.02314 183.507778 
L 121.790083 185.299929 
L 124.557025 186.459063 
L 127.323967 187.046407 
L 130.090909 187.143315 
L 132.857851 186.84375 
L 135.624793 186.247223 
L 138.391736 185.452438 
L 141.158678 184.551749 
L 143.92562 183.626508 
L 146.692562 182.74338 
L 149.459504 181.951812 
L 152.226446 181.282862 
L 154.993388 180.749581 
L 157.760331 180.349037 
L 160.527273 180.065801 
L 163.294215 179.876367 
L 166.061157 179.753563 
L 168.828099 179.669812 
L 171.595041 179.59817 
L 174.361983 179.510504 
L 177.128926 179.372899 
L 179.895868 179.139334 
L 182.66281 178.746135 
L 185.429752 178.111619 
L 188.196694 177.146377 
L 190.963636 175.775969 
L 193.730579 173.967661 
L 196.497521 171.745284 
L 199.264463 169.183776 
L 202.031405 166.390184 
L 204.798347 163.483185 
L 207.565289 160.577703 
L 210.332231 157.775297 
L 213.099174 155.158846 
L 215.866116 152.790213 
L 218.633058 150.710078 
L 221.4 148.939489 
L 224.166942 147.482747 
L 226.933884 146.331248 
L 229.700826 145.467856 
L 232.467769 144.871379 
L 235.234711 144.520768 
L 238.001653 144.39872 
L 240.768595 144.494492 
L 243.535537 144.805829 
L 246.302479 145.340005 
L 249.069421 146.114003 
L 251.836364 147.153874 
L 254.603306 148.493282 
L 257.370248 150.171196 
L 260.13719 152.228688 
L 262.904132 154.704819 
L 265.671074 157.631646 
L 268.438017 161.02852 
L 271.204959 164.895924 
L 273.971901 169.20922 
L 276.738843 173.912725 
L 279.505785 178.914544 
L 282.272727 184.082547 
L 285.039669 189.24183 
L 287.806612 194.174111 
L 290.573554 198.620333 
L 293.340496 202.290263 
L 296.107438 204.887574 
L 298.87438 206.159587 
L 301.641322 205.959762 
L 304.408264 204.274187 
L 307.175207 201.181277 
L 309.942149 196.787587 
L 312.709091 191.19382 
L 315.476033 184.49599 
L 318.242975 176.802092 
L 321.009917 168.249581 
L 323.77686 159.016954 
L 326.543802 149.326486 
L 329.310744 139.436814 
L 332.077686 129.626042 
L 334.844628 120.16899 
L 337.61157 111.315422 
L 340.378512 103.27747 
L 343.145455 96.230593 
L 345.912397 90.322579 
L 348.679339 85.677821 
L 351.446281 82.389628 
L 354.213223 80.505722 
L 356.980165 80.016604 
L 359.747107 80.852041 
L 362.51405 82.885668 
L 365.280992 85.945408 
L 368.047934 89.827238 
L 370.814876 94.310268 
L 373.581818 99.171507 
" style="fill:none;stroke:#008000;stroke-dasharray:3.7,1.6;stroke-dashoffset:0;"/>
   </g>
   <g id="line2d_17">
    <path clip-path="url(#p3a62676147)" d="M 69.218182 251.977697 
L 71.985124 251.995858 
L 74.752066 251.999457 
L 77.519008 251.999948 
L 80.28595 251.999996 
L 83.052893 252 
L 85.819835 252 
L 88.586777 252 
L 91.353719 252 
L 94.120661 251.999999 
L 96.887603 251.999996 
L 99.654545 251.99996 
L 102.421488 251.999679 
L 105.18843 251.997991 
L 107.955372 251.990459 
L 110.722314 251.965501 
L 113.489256 251.903196 
L 116.256198 251.784132 
L 119.02314 251.607602 
L 121.790083 251.403639 
L 124.557025 251.223483 
L 127.323967 251.113453 
L 130.090909 251.092913 
L 132.857851 251.150701 
L 135.624793 251.257401 
L 138.391736 251.381465 
L 141.158678 251.49968 
L 143.92562 251.599822 
L 146.692562 251.678327 
L 149.459504 251.736565 
L 152.226446 251.777841 
L 154.993388 251.805681 
L 157.760331 251.823138 
L 160.527273 251.832728 
L 163.294215 251.836668 
L 166.061157 251.837212 
L 168.828099 251.83686 
L 171.595041 251.838183 
L 174.361983 251.843078 
L 177.128926 251.851657 
L 179.895868 251.861431 
L 182.66281 251.867315 
L 185.429752 251.861805 
L 188.196694 251.833167 
L 190.963636 251.759173 
L 193.730579 251.595978 
L 196.497521 251.268425 
L 199.264463 250.67673 
L 202.031405 249.728856 
L 204.798347 248.382469 
L 207.565289 246.667522 
L 210.332231 244.678184 
L 213.099174 242.545031 
L 215.866116 240.403943 
L 218.633058 238.37202 
L 221.4 236.53365 
L 224.166942 234.935827 
L 226.933884 233.590285 
L 229.700826 232.479826 
L 232.467769 231.566559 
L 235.234711 230.800334 
L 238.001653 230.126194 
L 240.768595 229.490309 
L 243.535537 228.844292 
L 246.302479 228.148171 
L 249.069421 227.372437 
L 251.836364 226.499565 
L 254.603306 225.525284 
L 257.370248 224.459606 
L 260.13719 223.327419 
L 262.904132 222.168288 
L 265.671074 221.035042 
L 268.438017 219.990857 
L 271.204959 219.104786 
L 273.971901 218.446005 
L 276.738843 218.077356 
L 279.505785 218.049011 
L 282.272727 218.393147 
L 285.039669 219.120613 
L 287.806612 220.221087 
L 290.573554 221.670207 
L 293.340496 223.452056 
L 296.107438 225.608685 
L 298.87438 228.304228 
L 301.641322 231.807383 
L 304.408264 236.257711 
L 307.175207 241.311186 
L 309.942149 246.061403 
L 312.709091 249.509044 
L 315.476033 251.289454 
L 318.242975 251.878946 
L 321.009917 251.989356 
L 323.77686 251.999579 
L 326.543802 251.999993 
L 329.310744 252 
L 332.077686 252 
L 334.844628 252 
L 337.61157 252 
L 340.378512 252 
L 343.145455 252 
L 345.912397 252 
L 348.679339 252 
L 351.446281 252 
L 354.213223 252 
L 356.980165 251.999999 
L 359.747107 251.999979 
L 362.51405 251.99965 
L 365.280992 251.996701 
L 368.047934 251.980308 
L 370.814876 251.918319 
L 373.581818 251.745799 
" style="fill:none;stroke:#bfbf00;stroke-dasharray:7.4,3.2;stroke-dashoffset:0;stroke-width:2;"/>
   </g>
   <g id="patch_3">
    <path d="M 54 252 
L 54 34.56 
" style="fill:none;stroke:#000000;stroke-linecap:square;stroke-linejoin:miter;stroke-width:0.8;"/>
   </g>
   <g id="patch_4">
    <path d="M 388.8 252 
L 388.8 34.56 
" style="fill:none;stroke:#000000;stroke-linecap:square;stroke-linejoin:miter;stroke-width:0.8;"/>
   </g>
   <g id="patch_5">
    <path d="M 54 252 
L 388.8 252 
" style="fill:none;stroke:#000000;stroke-linecap:square;stroke-linejoin:miter;stroke-width:0.8;"/>
   </g>
   <g id="patch_6">
    <path d="M 54 34.56 
L 388.8 34.56 
" style="fill:none;stroke:#000000;stroke-linecap:square;stroke-linejoin:miter;stroke-width:0.8;"/>
   </g>
   <g id="text_16">
    <!-- Method : EI_plugin -->
    <g transform="translate(71.985124 244.752)scale(0.12 -0.12)">
     <defs>
      <path d="M 628 4666 
L 1569 4666 
L 2759 1491 
L 3956 4666 
L 4897 4666 
L 4897 0 
L 4281 0 
L 4281 4097 
L 3078 897 
L 2444 897 
L 1241 4097 
L 1241 0 
L 628 0 
L 628 4666 
z
" id="DejaVuSans-4d" transform="scale(0.015625)"/>
      <path d="M 3597 1894 
L 3597 1613 
L 953 1613 
Q 991 1019 1311 708 
Q 1631 397 2203 397 
Q 2534 397 2845 478 
Q 3156 559 3463 722 
L 3463 178 
Q 3153 47 2828 -22 
Q 2503 -91 2169 -91 
Q 1331 -91 842 396 
Q 353 884 353 1716 
Q 353 2575 817 3079 
Q 1281 3584 2069 3584 
Q 2775 3584 3186 3129 
Q 3597 2675 3597 1894 
z
M 3022 2063 
Q 3016 2534 2758 2815 
Q 2500 3097 2075 3097 
Q 1594 3097 1305 2825 
Q 1016 2553 972 2059 
L 3022 2063 
z
" id="DejaVuSans-65" transform="scale(0.015625)"/>
      <path d="M 1172 4494 
L 1172 3500 
L 2356 3500 
L 2356 3053 
L 1172 3053 
L 1172 1153 
Q 1172 725 1289 603 
Q 1406 481 1766 481 
L 2356 481 
L 2356 0 
L 1766 0 
Q 1100 0 847 248 
Q 594 497 594 1153 
L 594 3053 
L 172 3053 
L 172 3500 
L 594 3500 
L 594 4494 
L 1172 4494 
z
" id="DejaVuSans-74" transform="scale(0.015625)"/>
      <path d="M 3513 2113 
L 3513 0 
L 2938 0 
L 2938 2094 
Q 2938 2591 2744 2837 
Q 2550 3084 2163 3084 
Q 1697 3084 1428 2787 
Q 1159 2491 1159 1978 
L 1159 0 
L 581 0 
L 581 4863 
L 1159 4863 
L 1159 2956 
Q 1366 3272 1645 3428 
Q 1925 3584 2291 3584 
Q 2894 3584 3203 3211 
Q 3513 2838 3513 2113 
z
" id="DejaVuSans-68" transform="scale(0.015625)"/>
      <path d="M 1959 3097 
Q 1497 3097 1228 2736 
Q 959 2375 959 1747 
Q 959 1119 1226 758 
Q 1494 397 1959 397 
Q 2419 397 2687 759 
Q 2956 1122 2956 1747 
Q 2956 2369 2687 2733 
Q 2419 3097 1959 3097 
z
M 1959 3584 
Q 2709 3584 3137 3096 
Q 3566 2609 3566 1747 
Q 3566 888 3137 398 
Q 2709 -91 1959 -91 
Q 1206 -91 779 398 
Q 353 888 353 1747 
Q 353 2609 779 3096 
Q 1206 3584 1959 3584 
z
" id="DejaVuSans-6f" transform="scale(0.015625)"/>
      <path d="M 2906 2969 
L 2906 4863 
L 3481 4863 
L 3481 0 
L 2906 0 
L 2906 525 
Q 2725 213 2448 61 
Q 2172 -91 1784 -91 
Q 1150 -91 751 415 
Q 353 922 353 1747 
Q 353 2572 751 3078 
Q 1150 3584 1784 3584 
Q 2172 3584 2448 3432 
Q 2725 3281 2906 2969 
z
M 947 1747 
Q 947 1113 1208 752 
Q 1469 391 1925 391 
Q 2381 391 2643 752 
Q 2906 1113 2906 1747 
Q 2906 2381 2643 2742 
Q 2381 3103 1925 3103 
Q 1469 3103 1208 2742 
Q 947 2381 947 1747 
z
" id="DejaVuSans-64" transform="scale(0.015625)"/>
      <path id="DejaVuSans-20" transform="scale(0.015625)"/>
      <path d="M 750 794 
L 1409 794 
L 1409 0 
L 750 0 
L 750 794 
z
M 750 3309 
L 1409 3309 
L 1409 2516 
L 750 2516 
L 750 3309 
z
" id="DejaVuSans-3a" transform="scale(0.015625)"/>
      <path d="M 628 4666 
L 3578 4666 
L 3578 4134 
L 1259 4134 
L 1259 2753 
L 3481 2753 
L 3481 2222 
L 1259 2222 
L 1259 531 
L 3634 531 
L 3634 0 
L 628 0 
L 628 4666 
z
" id="DejaVuSans-45" transform="scale(0.015625)"/>
      <path d="M 628 4666 
L 1259 4666 
L 1259 0 
L 628 0 
L 628 4666 
z
" id="DejaVuSans-49" transform="scale(0.015625)"/>
      <path d="M 3263 -1063 
L 3263 -1509 
L -63 -1509 
L -63 -1063 
L 3263 -1063 
z
" id="DejaVuSans-5f" transform="scale(0.015625)"/>
      <path d="M 1159 525 
L 1159 -1331 
L 581 -1331 
L 581 3500 
L 1159 3500 
L 1159 2969 
Q 1341 3281 1617 3432 
Q 1894 3584 2278 3584 
Q 2916 3584 3314 3078 
Q 3713 2572 3713 1747 
Q 3713 922 3314 415 
Q 2916 -91 2278 -91 
Q 1894 -91 1617 61 
Q 1341 213 1159 525 
z
M 3116 1747 
Q 3116 2381 2855 2742 
Q 2594 3103 2138 3103 
Q 1681 3103 1420 2742 
Q 1159 2381 1159 1747 
Q 1159 1113 1420 752 
Q 1681 391 2138 391 
Q 2594 391 2855 752 
Q 3116 1113 3116 1747 
z
" id="DejaVuSans-70" transform="scale(0.015625)"/>
      <path d="M 603 4863 
L 1178 4863 
L 1178 0 
L 603 0 
L 603 4863 
z
" id="DejaVuSans-6c" transform="scale(0.015625)"/>
      <path d="M 544 1381 
L 544 3500 
L 1119 3500 
L 1119 1403 
Q 1119 906 1312 657 
Q 1506 409 1894 409 
Q 2359 409 2629 706 
Q 2900 1003 2900 1516 
L 2900 3500 
L 3475 3500 
L 3475 0 
L 2900 0 
L 2900 538 
Q 2691 219 2414 64 
Q 2138 -91 1772 -91 
Q 1169 -91 856 284 
Q 544 659 544 1381 
z
M 1991 3584 
L 1991 3584 
z
" id="DejaVuSans-75" transform="scale(0.015625)"/>
      <path d="M 2906 1791 
Q 2906 2416 2648 2759 
Q 2391 3103 1925 3103 
Q 1463 3103 1205 2759 
Q 947 2416 947 1791 
Q 947 1169 1205 825 
Q 1463 481 1925 481 
Q 2391 481 2648 825 
Q 2906 1169 2906 1791 
z
M 3481 434 
Q 3481 -459 3084 -895 
Q 2688 -1331 1869 -1331 
Q 1566 -1331 1297 -1286 
Q 1028 -1241 775 -1147 
L 775 -588 
Q 1028 -725 1275 -790 
Q 1522 -856 1778 -856 
Q 2344 -856 2625 -561 
Q 2906 -266 2906 331 
L 2906 616 
Q 2728 306 2450 153 
Q 2172 0 1784 0 
Q 1141 0 747 490 
Q 353 981 353 1791 
Q 353 2603 747 3093 
Q 1141 3584 1784 3584 
Q 2172 3584 2450 3431 
Q 2728 3278 2906 2969 
L 2906 3500 
L 3481 3500 
L 3481 434 
z
" id="DejaVuSans-67" transform="scale(0.015625)"/>
      <path d="M 603 3500 
L 1178 3500 
L 1178 0 
L 603 0 
L 603 3500 
z
M 603 4863 
L 1178 4863 
L 1178 4134 
L 603 4134 
L 603 4863 
z
" id="DejaVuSans-69" transform="scale(0.015625)"/>
      <path d="M 3513 2113 
L 3513 0 
L 2938 0 
L 2938 2094 
Q 2938 2591 2744 2837 
Q 2550 3084 2163 3084 
Q 1697 3084 1428 2787 
Q 1159 2491 1159 1978 
L 1159 0 
L 581 0 
L 581 3500 
L 1159 3500 
L 1159 2956 
Q 1366 3272 1645 3428 
Q 1925 3584 2291 3584 
Q 2894 3584 3203 3211 
Q 3513 2838 3513 2113 
z
" id="DejaVuSans-6e" transform="scale(0.015625)"/>
     </defs>
     <use xlink:href="#DejaVuSans-4d"/>
     <use x="86.279297" xlink:href="#DejaVuSans-65"/>
     <use x="147.802734" xlink:href="#DejaVuSans-74"/>
     <use x="187.011719" xlink:href="#DejaVuSans-68"/>
     <use x="250.390625" xlink:href="#DejaVuSans-6f"/>
     <use x="311.572266" xlink:href="#DejaVuSans-64"/>
     <use x="375.048828" xlink:href="#DejaVuSans-20"/>
     <use x="406.835938" xlink:href="#DejaVuSans-3a"/>
     <use x="440.527344" xlink:href="#DejaVuSans-20"/>
     <use x="472.314453" xlink:href="#DejaVuSans-45"/>
     <use x="535.498047" xlink:href="#DejaVuSans-49"/>
     <use x="564.990234" xlink:href="#DejaVuSans-5f"/>
     <use x="614.990234" xlink:href="#DejaVuSans-70"/>
     <use x="678.466797" xlink:href="#DejaVuSans-6c"/>
     <use x="706.25" xlink:href="#DejaVuSans-75"/>
     <use x="769.628906" xlink:href="#DejaVuSans-67"/>
     <use x="833.105469" xlink:href="#DejaVuSans-69"/>
     <use x="860.888672" xlink:href="#DejaVuSans-6e"/>
    </g>
   </g>
   <g id="text_17">
    <!-- Iter=2 -->
    <g transform="translate(71.985124 226.632)scale(0.12 -0.12)">
     <defs>
      <path d="M 2631 2963 
Q 2534 3019 2420 3045 
Q 2306 3072 2169 3072 
Q 1681 3072 1420 2755 
Q 1159 2438 1159 1844 
L 1159 0 
L 581 0 
L 581 3500 
L 1159 3500 
L 1159 2956 
Q 1341 3275 1631 3429 
Q 1922 3584 2338 3584 
Q 2397 3584 2469 3576 
Q 2541 3569 2628 3553 
L 2631 2963 
z
" id="DejaVuSans-72" transform="scale(0.015625)"/>
      <path d="M 678 2906 
L 4684 2906 
L 4684 2381 
L 678 2381 
L 678 2906 
z
M 678 1631 
L 4684 1631 
L 4684 1100 
L 678 1100 
L 678 1631 
z
" id="DejaVuSans-3d" transform="scale(0.015625)"/>
     </defs>
     <use xlink:href="#DejaVuSans-49"/>
     <use x="29.492188" xlink:href="#DejaVuSans-74"/>
     <use x="68.701172" xlink:href="#DejaVuSans-65"/>
     <use x="130.224609" xlink:href="#DejaVuSans-72"/>
     <use x="171.337891" xlink:href="#DejaVuSans-3d"/>
     <use x="255.126953" xlink:href="#DejaVuSans-32"/>
    </g>
   </g>
   <g id="legend_1">
    <g id="patch_7">
     <path d="M 144.327812 140.541562 
L 298.472188 140.541562 
Q 300.672188 140.541562 300.672188 138.341563 
L 300.672188 42.26 
Q 300.672188 40.06 298.472188 40.06 
L 144.327812 40.06 
Q 142.127813 40.06 142.127813 42.26 
L 142.127813 138.341563 
Q 142.127813 140.541562 144.327812 140.541562 
z
" style="fill:#ffffff;opacity:0.8;stroke:#cccccc;stroke-linejoin:miter;"/>
    </g>
    <g id="line2d_18">
     <path d="M 146.527813 48.968281 
L 168.527813 48.968281 
" style="fill:none;stroke:#0000ff;stroke-linecap:square;stroke-width:2;"/>
    </g>
    <g id="line2d_19"/>
    <g id="text_18">
     <!-- ture function -->
     <g transform="translate(177.327813 52.818281)scale(0.11 -0.11)">
      <defs>
       <path d="M 2375 4863 
L 2375 4384 
L 1825 4384 
Q 1516 4384 1395 4259 
Q 1275 4134 1275 3809 
L 1275 3500 
L 2222 3500 
L 2222 3053 
L 1275 3053 
L 1275 0 
L 697 0 
L 697 3053 
L 147 3053 
L 147 3500 
L 697 3500 
L 697 3744 
Q 697 4328 969 4595 
Q 1241 4863 1831 4863 
L 2375 4863 
z
" id="DejaVuSans-66" transform="scale(0.015625)"/>
       <path d="M 3122 3366 
L 3122 2828 
Q 2878 2963 2633 3030 
Q 2388 3097 2138 3097 
Q 1578 3097 1268 2742 
Q 959 2388 959 1747 
Q 959 1106 1268 751 
Q 1578 397 2138 397 
Q 2388 397 2633 464 
Q 2878 531 3122 666 
L 3122 134 
Q 2881 22 2623 -34 
Q 2366 -91 2075 -91 
Q 1284 -91 818 406 
Q 353 903 353 1747 
Q 353 2603 823 3093 
Q 1294 3584 2113 3584 
Q 2378 3584 2631 3529 
Q 2884 3475 3122 3366 
z
" id="DejaVuSans-63" transform="scale(0.015625)"/>
      </defs>
      <use xlink:href="#DejaVuSans-74"/>
      <use x="39.208984" xlink:href="#DejaVuSans-75"/>
      <use x="102.587891" xlink:href="#DejaVuSans-72"/>
      <use x="141.451172" xlink:href="#DejaVuSans-65"/>
      <use x="202.974609" xlink:href="#DejaVuSans-20"/>
      <use x="234.761719" xlink:href="#DejaVuSans-66"/>
      <use x="269.966797" xlink:href="#DejaVuSans-75"/>
      <use x="333.345703" xlink:href="#DejaVuSans-6e"/>
      <use x="396.724609" xlink:href="#DejaVuSans-63"/>
      <use x="451.705078" xlink:href="#DejaVuSans-74"/>
      <use x="490.914062" xlink:href="#DejaVuSans-69"/>
      <use x="518.697266" xlink:href="#DejaVuSans-6f"/>
      <use x="579.878906" xlink:href="#DejaVuSans-6e"/>
     </g>
    </g>
    <g id="line2d_20">
     <path d="M 146.527813 65.114219 
L 168.527813 65.114219 
" style="fill:none;stroke:#000000;stroke-dasharray:7.4,3.2;stroke-dashoffset:0;stroke-width:2;"/>
    </g>
    <g id="line2d_21"/>
    <g id="text_19">
     <!-- predicted function -->
     <g transform="translate(177.327813 68.964219)scale(0.11 -0.11)">
      <use xlink:href="#DejaVuSans-70"/>
      <use x="63.476562" xlink:href="#DejaVuSans-72"/>
      <use x="102.339844" xlink:href="#DejaVuSans-65"/>
      <use x="163.863281" xlink:href="#DejaVuSans-64"/>
      <use x="227.339844" xlink:href="#DejaVuSans-69"/>
      <use x="255.123047" xlink:href="#DejaVuSans-63"/>
      <use x="310.103516" xlink:href="#DejaVuSans-74"/>
      <use x="349.3125" xlink:href="#DejaVuSans-65"/>
      <use x="410.835938" xlink:href="#DejaVuSans-64"/>
      <use x="474.3125" xlink:href="#DejaVuSans-20"/>
      <use x="506.099609" xlink:href="#DejaVuSans-66"/>
      <use x="541.304688" xlink:href="#DejaVuSans-75"/>
      <use x="604.683594" xlink:href="#DejaVuSans-6e"/>
      <use x="668.0625" xlink:href="#DejaVuSans-63"/>
      <use x="723.042969" xlink:href="#DejaVuSans-74"/>
      <use x="762.251953" xlink:href="#DejaVuSans-69"/>
      <use x="790.035156" xlink:href="#DejaVuSans-6f"/>
      <use x="851.216797" xlink:href="#DejaVuSans-6e"/>
     </g>
    </g>
    <g id="line2d_22">
     <path d="M 146.527813 81.260156 
L 168.527813 81.260156 
" style="fill:none;stroke:#008000;stroke-dasharray:3.7,1.6;stroke-dashoffset:0;"/>
    </g>
    <g id="line2d_23"/>
    <g id="text_20">
     <!--  ± Sn(x) -->
     <g transform="translate(177.327813 85.110156)scale(0.11 -0.11)">
      <defs>
       <path d="M 2944 4013 
L 2944 2803 
L 4684 2803 
L 4684 2272 
L 2944 2272 
L 2944 1063 
L 2419 1063 
L 2419 2272 
L 678 2272 
L 678 2803 
L 2419 2803 
L 2419 4013 
L 2944 4013 
z
M 678 531 
L 4684 531 
L 4684 0 
L 678 0 
L 678 531 
z
" id="DejaVuSans-b1" transform="scale(0.015625)"/>
       <path d="M 3425 4513 
L 3425 3897 
Q 3066 4069 2747 4153 
Q 2428 4238 2131 4238 
Q 1616 4238 1336 4038 
Q 1056 3838 1056 3469 
Q 1056 3159 1242 3001 
Q 1428 2844 1947 2747 
L 2328 2669 
Q 3034 2534 3370 2195 
Q 3706 1856 3706 1288 
Q 3706 609 3251 259 
Q 2797 -91 1919 -91 
Q 1588 -91 1214 -16 
Q 841 59 441 206 
L 441 856 
Q 825 641 1194 531 
Q 1563 422 1919 422 
Q 2459 422 2753 634 
Q 3047 847 3047 1241 
Q 3047 1584 2836 1778 
Q 2625 1972 2144 2069 
L 1759 2144 
Q 1053 2284 737 2584 
Q 422 2884 422 3419 
Q 422 4038 858 4394 
Q 1294 4750 2059 4750 
Q 2388 4750 2728 4690 
Q 3069 4631 3425 4513 
z
" id="DejaVuSans-53" transform="scale(0.015625)"/>
       <path d="M 1984 4856 
Q 1566 4138 1362 3434 
Q 1159 2731 1159 2009 
Q 1159 1288 1364 580 
Q 1569 -128 1984 -844 
L 1484 -844 
Q 1016 -109 783 600 
Q 550 1309 550 2009 
Q 550 2706 781 3412 
Q 1013 4119 1484 4856 
L 1984 4856 
z
" id="DejaVuSans-28" transform="scale(0.015625)"/>
       <path d="M 513 4856 
L 1013 4856 
Q 1481 4119 1714 3412 
Q 1947 2706 1947 2009 
Q 1947 1309 1714 600 
Q 1481 -109 1013 -844 
L 513 -844 
Q 928 -128 1133 580 
Q 1338 1288 1338 2009 
Q 1338 2731 1133 3434 
Q 928 4138 513 4856 
z
" id="DejaVuSans-29" transform="scale(0.015625)"/>
      </defs>
      <use xlink:href="#DejaVuSans-20"/>
      <use x="31.787109" xlink:href="#DejaVuSans-b1"/>
      <use x="115.576172" xlink:href="#DejaVuSans-20"/>
      <use x="147.363281" xlink:href="#DejaVuSans-53"/>
      <use x="210.839844" xlink:href="#DejaVuSans-6e"/>
      <use x="274.21875" xlink:href="#DejaVuSans-28"/>
      <use x="313.232422" xlink:href="#DejaVuSans-78"/>
      <use x="372.412109" xlink:href="#DejaVuSans-29"/>
     </g>
    </g>
    <g id="line2d_24">
     <path d="M 146.527813 97.406094 
L 168.527813 97.406094 
" style="fill:none;stroke:#bfbf00;stroke-dasharray:7.4,3.2;stroke-dashoffset:0;stroke-width:2;"/>
    </g>
    <g id="line2d_25"/>
    <g id="text_21">
     <!-- EI_plugin(x) -->
     <g transform="translate(177.327813 101.256094)scale(0.11 -0.11)">
      <use xlink:href="#DejaVuSans-45"/>
      <use x="63.183594" xlink:href="#DejaVuSans-49"/>
      <use x="92.675781" xlink:href="#DejaVuSans-5f"/>
      <use x="142.675781" xlink:href="#DejaVuSans-70"/>
      <use x="206.152344" xlink:href="#DejaVuSans-6c"/>
      <use x="233.935547" xlink:href="#DejaVuSans-75"/>
      <use x="297.314453" xlink:href="#DejaVuSans-67"/>
      <use x="360.791016" xlink:href="#DejaVuSans-69"/>
      <use x="388.574219" xlink:href="#DejaVuSans-6e"/>
      <use x="451.953125" xlink:href="#DejaVuSans-28"/>
      <use x="490.966797" xlink:href="#DejaVuSans-78"/>
      <use x="550.146484" xlink:href="#DejaVuSans-29"/>
     </g>
    </g>
    <g id="PathCollection_2">
     <defs>
      <path d="M 0 3.535534 
C 0.937635 3.535534 1.836992 3.163008 2.5 2.5 
C 3.163008 1.836992 3.535534 0.937635 3.535534 0 
C 3.535534 -0.937635 3.163008 -1.836992 2.5 -2.5 
C 1.836992 -3.163008 0.937635 -3.535534 0 -3.535534 
C -0.937635 -3.535534 -1.836992 -3.163008 -2.5 -2.5 
C -3.163008 -1.836992 -3.535534 -0.937635 -3.535534 0 
C -3.535534 0.937635 -3.163008 1.836992 -2.5 2.5 
C -1.836992 3.163008 -0.937635 3.535534 0 3.535534 
z
" id="m8943770093" style="stroke:#000000;"/>
     </defs>
     <g>
      <use style="fill:#ff0000;stroke:#000000;" x="157.527813" xlink:href="#m8943770093" y="114.820469"/>
     </g>
    </g>
    <g id="text_22">
     <!-- training data -->
     <g transform="translate(177.327813 117.707969)scale(0.11 -0.11)">
      <defs>
       <path d="M 2194 1759 
Q 1497 1759 1228 1600 
Q 959 1441 959 1056 
Q 959 750 1161 570 
Q 1363 391 1709 391 
Q 2188 391 2477 730 
Q 2766 1069 2766 1631 
L 2766 1759 
L 2194 1759 
z
M 3341 1997 
L 3341 0 
L 2766 0 
L 2766 531 
Q 2569 213 2275 61 
Q 1981 -91 1556 -91 
Q 1019 -91 701 211 
Q 384 513 384 1019 
Q 384 1609 779 1909 
Q 1175 2209 1959 2209 
L 2766 2209 
L 2766 2266 
Q 2766 2663 2505 2880 
Q 2244 3097 1772 3097 
Q 1472 3097 1187 3025 
Q 903 2953 641 2809 
L 641 3341 
Q 956 3463 1253 3523 
Q 1550 3584 1831 3584 
Q 2591 3584 2966 3190 
Q 3341 2797 3341 1997 
z
" id="DejaVuSans-61" transform="scale(0.015625)"/>
      </defs>
      <use xlink:href="#DejaVuSans-74"/>
      <use x="39.208984" xlink:href="#DejaVuSans-72"/>
      <use x="80.322266" xlink:href="#DejaVuSans-61"/>
      <use x="141.601562" xlink:href="#DejaVuSans-69"/>
      <use x="169.384766" xlink:href="#DejaVuSans-6e"/>
      <use x="232.763672" xlink:href="#DejaVuSans-69"/>
      <use x="260.546875" xlink:href="#DejaVuSans-6e"/>
      <use x="323.925781" xlink:href="#DejaVuSans-67"/>
      <use x="387.402344" xlink:href="#DejaVuSans-20"/>
      <use x="419.189453" xlink:href="#DejaVuSans-64"/>
      <use x="482.666016" xlink:href="#DejaVuSans-61"/>
      <use x="543.945312" xlink:href="#DejaVuSans-74"/>
      <use x="583.154297" xlink:href="#DejaVuSans-61"/>
     </g>
    </g>
    <g id="PathCollection_3">
     <g>
      <use style="fill:#ff0000;stroke:#ff0000;stroke-width:8;" x="157.527813" xlink:href="#m3307d00fed" y="130.966406"/>
     </g>
    </g>
    <g id="text_23">
     <!-- recommended datum -->
     <g transform="translate(177.327813 133.853906)scale(0.11 -0.11)">
      <defs>
       <path d="M 3328 2828 
Q 3544 3216 3844 3400 
Q 4144 3584 4550 3584 
Q 5097 3584 5394 3201 
Q 5691 2819 5691 2113 
L 5691 0 
L 5113 0 
L 5113 2094 
Q 5113 2597 4934 2840 
Q 4756 3084 4391 3084 
Q 3944 3084 3684 2787 
Q 3425 2491 3425 1978 
L 3425 0 
L 2847 0 
L 2847 2094 
Q 2847 2600 2669 2842 
Q 2491 3084 2119 3084 
Q 1678 3084 1418 2786 
Q 1159 2488 1159 1978 
L 1159 0 
L 581 0 
L 581 3500 
L 1159 3500 
L 1159 2956 
Q 1356 3278 1631 3431 
Q 1906 3584 2284 3584 
Q 2666 3584 2933 3390 
Q 3200 3197 3328 2828 
z
" id="DejaVuSans-6d" transform="scale(0.015625)"/>
      </defs>
      <use xlink:href="#DejaVuSans-72"/>
      <use x="38.863281" xlink:href="#DejaVuSans-65"/>
      <use x="100.386719" xlink:href="#DejaVuSans-63"/>
      <use x="155.367188" xlink:href="#DejaVuSans-6f"/>
      <use x="216.548828" xlink:href="#DejaVuSans-6d"/>
      <use x="313.960938" xlink:href="#DejaVuSans-6d"/>
      <use x="411.373047" xlink:href="#DejaVuSans-65"/>
      <use x="472.896484" xlink:href="#DejaVuSans-6e"/>
      <use x="536.275391" xlink:href="#DejaVuSans-64"/>
      <use x="599.751953" xlink:href="#DejaVuSans-65"/>
      <use x="661.275391" xlink:href="#DejaVuSans-64"/>
      <use x="724.751953" xlink:href="#DejaVuSans-20"/>
      <use x="756.539062" xlink:href="#DejaVuSans-64"/>
      <use x="820.015625" xlink:href="#DejaVuSans-61"/>
      <use x="881.294922" xlink:href="#DejaVuSans-74"/>
      <use x="920.503906" xlink:href="#DejaVuSans-75"/>
      <use x="983.882812" xlink:href="#DejaVuSans-6d"/>
     </g>
    </g>
   </g>
   <g id="line2d_26">
    <path clip-path="url(#p3a62676147)" d="M 69.218182 142.10132 
L 71.985124 140.638173 
L 74.752066 139.878162 
L 77.519008 139.908175 
L 80.28595 140.783639 
L 83.052893 142.522838 
L 85.819835 145.103611 
L 88.586777 148.462846 
L 91.353719 152.498928 
L 94.120661 157.077038 
L 96.887603 162.036904 
L 99.654545 167.202384 
L 102.421488 172.392081 
L 105.18843 177.430118 
L 107.955372 182.156197 
L 110.722314 186.43418 
L 113.489256 190.158576 
L 116.256198 193.258577 
L 119.02314 195.699482 
L 121.790083 197.481619 
L 124.557025 198.637044 
L 127.323967 199.224476 
L 130.090909 199.323004 
L 132.857851 199.025129 
L 135.624793 198.429711 
L 138.391736 197.635296 
L 141.158678 196.734237 
L 143.92562 195.807887 
L 146.692562 194.923069 
L 149.459504 194.129881 
L 152.226446 193.460843 
L 154.993388 192.931271 
L 157.760331 192.540741 
L 160.527273 192.275418 
L 163.294215 192.111017 
L 166.061157 192.016144 
L 168.828099 191.955733 
L 171.595041 191.894356 
L 174.361983 191.799166 
L 177.128926 191.64231 
L 179.895868 191.402683 
L 182.66281 191.066957 
L 185.429752 190.629894 
L 188.196694 190.093993 
L 190.963636 189.468587 
L 193.730579 188.768519 
L 196.497521 188.012572 
L 199.264463 187.22181 
L 202.031405 186.41799 
L 204.798347 185.622159 
L 207.565289 184.853548 
L 210.332231 184.128801 
L 213.099174 183.461582 
L 215.866116 182.862517 
L 218.633058 182.339464 
L 221.4 181.898025 
L 224.166942 181.542247 
L 226.933884 181.275424 
L 229.700826 181.10094 
L 232.467769 181.023062 
L 235.234711 181.047645 
L 238.001653 181.182666 
L 240.768595 181.43856 
L 243.535537 181.828307 
L 246.302479 182.367239 
L 249.069421 183.072548 
L 251.836364 183.962482 
L 254.603306 185.055237 
L 257.370248 186.367543 
L 260.13719 187.912997 
L 262.904132 189.700173 
L 265.671074 191.730574 
L 268.438017 193.996503 
L 271.204959 196.478945 
L 273.971901 199.145568 
L 276.738843 201.948957 
L 279.505785 204.825252 
L 282.272727 207.693316 
L 285.039669 210.454661 
L 287.806612 212.994291 
L 290.573554 215.182689 
L 293.340496 216.879116 
L 296.107438 217.936346 
L 298.87438 218.20689 
L 301.641322 217.550621 
L 304.408264 215.843556 
L 307.175207 212.987385 
L 309.942149 208.919121 
L 312.709091 203.620117 
L 315.476033 197.123569 
L 318.242975 189.519601 
L 321.009917 180.957106 
L 323.77686 171.641707 
L 326.543802 161.829493 
L 329.310744 151.816575 
L 332.077686 141.92491 
L 334.844628 132.485292 
L 337.61157 123.818728 
L 340.378512 116.217697 
L 343.145455 109.928848 
L 345.912397 105.13864 
L 348.679339 101.963157 
L 351.446281 100.442956 
L 354.213223 100.54329 
L 356.980165 102.159561 
L 359.747107 105.127326 
L 362.51405 109.235813 
L 365.280992 114.243606 
L 368.047934 119.895049 
L 370.814876 125.936003 
L 373.581818 132.127734 
" style="fill:none;stroke:#000000;stroke-dasharray:7.4,3.2;stroke-dashoffset:0;stroke-width:2;"/>
   </g>
   <g id="PathCollection_4">
    <g clip-path="url(#p3a62676147)">
     <use style="fill:#ff0000;stroke:#000000;" x="83.052893" xlink:href="#m8943770093" y="129.399309"/>
     <use style="fill:#ff0000;stroke:#000000;" x="96.887603" xlink:href="#m8943770093" y="162.429541"/>
     <use style="fill:#ff0000;stroke:#000000;" x="110.722314" xlink:href="#m8943770093" y="193.170209"/>
     <use style="fill:#ff0000;stroke:#000000;" x="124.557025" xlink:href="#m8943770093" y="199.248575"/>
     <use style="fill:#ff0000;stroke:#000000;" x="138.391736" xlink:href="#m8943770093" y="199.347548"/>
     <use style="fill:#ff0000;stroke:#000000;" x="152.226446" xlink:href="#m8943770093" y="191.611971"/>
     <use style="fill:#ff0000;stroke:#000000;" x="166.061157" xlink:href="#m8943770093" y="193.66847"/>
     <use style="fill:#ff0000;stroke:#000000;" x="179.895868" xlink:href="#m8943770093" y="193.283098"/>
     <use style="fill:#ff0000;stroke:#000000;" x="193.730579" xlink:href="#m8943770093" y="188.924027"/>
     <use style="fill:#ff0000;stroke:#000000;" x="318.242975" xlink:href="#m8943770093" y="199.289596"/>
     <use style="fill:#ff0000;stroke:#000000;" x="332.077686" xlink:href="#m8943770093" y="145.37007"/>
     <use style="fill:#ff0000;stroke:#000000;" x="345.912397" xlink:href="#m8943770093" y="78.407322"/>
     <use style="fill:#ff0000;stroke:#000000;" x="301.641322" xlink:href="#m8943770093" y="216.19789"/>
     <use style="fill:#ff0000;stroke:#000000;" x="296.107438" xlink:href="#m8943770093" y="224.27386"/>
    </g>
   </g>
  </g>
 </g>
 <defs>
  <clipPath id="p3a62676147">
   <rect height="217.44" width="334.8" x="54" y="34.56"/>
  </clipPath>
 </defs>
</svg>
