<?xml version="1.0" encoding="utf-8" standalone="no"?>
<!DOCTYPE svg PUBLIC "-//W3C//DTD SVG 1.1//EN"
  "http://www.w3.org/Graphics/SVG/1.1/DTD/svg11.dtd">
<svg height="288pt" version="1.1" viewBox="0 0 432 288" width="432pt" xmlns="http://www.w3.org/2000/svg" xmlns:xlink="http://www.w3.org/1999/xlink">
 <metadata>
  <rdf:RDF xmlns:cc="http://creativecommons.org/ns#" xmlns:dc="http://purl.org/dc/elements/1.1/" xmlns:rdf="http://www.w3.org/1999/02/22-rdf-syntax-ns#">
   <cc:Work>
    <dc:type rdf:resource="http://purl.org/dc/dcmitype/StillImage"/>
    <dc:date>2022-08-04T11:31:59.363583</dc:date>
    <dc:format>image/svg+xml</dc:format>
    <dc:creator>
     <cc:Agent>
      <dc:title>Matplotlib v3.4.3, https://matplotlib.org/</dc:title>
     </cc:Agent>
    </dc:creator>
   </cc:Work>
  </rdf:RDF>
 </metadata>
 <defs>
  <style type="text/css">*{stroke-linecap:butt;stroke-linejoin:round;}</style>
 </defs>
 <g id="figure_1">
  <g id="patch_1">
   <path d="M 0 288 
L 432 288 
L 432 0 
L 0 0 
z
" style="fill:none;"/>
  </g>
  <g id="axes_1">
   <g id="patch_2">
    <path d="M 54 252 
L 388.8 252 
L 388.8 34.56 
L 54 34.56 
z
" style="fill:#ffffff;"/>
   </g>
   <g id="PolyCollection_1">
    <defs>
     <path d="M 69.218182 -166.571747 
L 69.218182 -109.643379 
L 71.985124 -112.557148 
L 74.752066 -114.948919 
L 77.519008 -116.69729 
L 80.28595 -117.699518 
L 83.052893 -117.882169 
L 85.819835 -117.211887 
L 88.586777 -115.703997 
L 91.353719 -113.425618 
L 94.120661 -110.490672 
L 96.887603 -107.047234 
L 99.654545 -103.260968 
L 102.421488 -99.299314 
L 105.18843 -95.319398 
L 107.955372 -91.460258 
L 110.722314 -87.838623 
L 113.489256 -84.547102 
L 116.256198 -81.653903 
L 119.02314 -79.203491 
L 121.790083 -77.217851 
L 124.557025 -75.698231 
L 127.323967 -74.627313 
L 130.090909 -73.971824 
L 132.857851 -73.685588 
L 135.624793 -73.71296 
L 138.391736 -73.992493 
L 141.158678 -74.460683 
L 143.92562 -75.055559 
L 146.692562 -75.71995 
L 149.459504 -76.404264 
L 152.226446 -77.068649 
L 154.993388 -77.684412 
L 157.760331 -78.234572 
L 160.527273 -78.713381 
L 163.294215 -79.124698 
L 166.061157 -79.479131 
L 168.828099 -79.790034 
L 171.595041 -80.068623 
L 174.361983 -80.318772 
L 177.128926 -80.532385 
L 179.895868 -80.686628 
L 182.66281 -80.744564 
L 185.429752 -80.660428 
L 188.196694 -80.389348 
L 190.963636 -79.89893 
L 193.730579 -79.178327 
L 196.497521 -78.241215 
L 199.264463 -77.122327 
L 202.031405 -75.870069 
L 204.798347 -74.538381 
L 207.565289 -73.179857 
L 210.332231 -71.840778 
L 213.099174 -70.557923 
L 215.866116 -69.356826 
L 218.633058 -68.251176 
L 221.4 -67.243116 
L 224.166942 -66.324297 
L 226.933884 -65.47752 
L 229.700826 -64.678834 
L 232.467769 -63.899913 
L 235.234711 -63.110559 
L 238.001653 -62.281156 
L 240.768595 -61.384937 
L 243.535537 -60.399923 
L 246.302479 -59.310457 
L 249.069421 -58.108271 
L 251.836364 -56.793077 
L 254.603306 -55.372702 
L 257.370248 -53.862803 
L 260.13719 -52.28622 
L 262.904132 -50.672013 
L 265.671074 -49.054232 
L 268.438017 -47.470453 
L 271.204959 -45.960125 
L 273.971901 -44.562796 
L 276.738843 -43.316397 
L 279.505785 -42.25598 
L 282.272727 -41.413711 
L 285.039669 -40.821444 
L 287.806612 -40.517396 
L 290.573554 -40.557125 
L 293.340496 -41.025264 
L 296.107438 -42.040062 
L 298.87438 -43.743517 
L 301.641322 -46.278293 
L 304.408264 -49.760977 
L 307.175207 -54.261309 
L 309.942149 -59.791057 
L 312.709091 -66.301309 
L 315.476033 -73.685459 
L 318.242975 -81.785612 
L 321.009917 -90.400902 
L 323.77686 -99.296753 
L 326.543802 -108.214535 
L 329.310744 -116.88152 
L 332.077686 -125.021626 
L 334.844628 -132.367845 
L 337.61157 -138.677024 
L 340.378512 -143.746308 
L 343.145455 -147.42856 
L 345.912397 -149.642909 
L 348.679339 -150.377846 
L 351.446281 -149.686988 
L 354.213223 -147.679774 
L 356.980165 -144.509647 
L 359.747107 -140.361459 
L 362.51405 -135.439052 
L 365.280992 -129.953514 
L 368.047934 -124.112526 
L 370.814876 -118.111189 
L 373.581818 -112.124682 
L 373.581818 -184.204075 
L 373.581818 -184.204075 
L 370.814876 -187.793899 
L 368.047934 -191.046859 
L 365.280992 -193.816072 
L 362.51405 -195.95787 
L 359.747107 -197.339619 
L 356.980165 -197.84746 
L 354.213223 -197.393265 
L 351.446281 -195.920005 
L 348.679339 -193.404717 
L 345.912397 -189.858411 
L 343.145455 -185.322886 
L 340.378512 -179.865466 
L 337.61157 -173.57386 
L 334.844628 -166.553394 
L 332.077686 -158.927133 
L 329.310744 -150.836979 
L 326.543802 -142.442925 
L 323.77686 -133.918854 
L 321.009917 -125.445441 
L 318.242975 -117.201963 
L 315.476033 -109.358996 
L 312.709091 -102.073303 
L 309.942149 -95.485474 
L 307.175207 -89.720123 
L 304.408264 -84.887804 
L 301.641322 -81.08705 
L 298.87438 -78.403968 
L 296.107438 -76.906251 
L 293.340496 -76.629857 
L 290.573554 -77.561458 
L 287.806612 -79.625683 
L 285.039669 -82.686149 
L 282.272727 -86.560897 
L 279.505785 -91.044558 
L 276.738843 -95.928862 
L 273.971901 -101.017595 
L 271.204959 -106.135988 
L 268.438017 -111.135875 
L 265.671074 -115.897908 
L 262.904132 -120.331661 
L 260.13719 -124.37413 
L 257.370248 -127.987006 
L 254.603306 -131.153029 
L 251.836364 -133.871733 
L 249.069421 -136.154921 
L 246.302479 -138.022189 
L 243.535537 -139.496818 
L 240.768595 -140.602298 
L 238.001653 -141.359717 
L 235.234711 -141.786146 
L 232.467769 -141.894079 
L 229.700826 -141.691904 
L 226.933884 -141.185273 
L 224.166942 -140.379199 
L 221.4 -139.280622 
L 218.633058 -137.901161 
L 215.866116 -136.259782 
L 213.099174 -134.38506 
L 210.332231 -132.316788 
L 207.565289 -130.106665 
L 204.798347 -127.817815 
L 202.031405 -125.522845 
L 199.264463 -123.300127 
L 196.497521 -121.227966 
L 193.730579 -119.376596 
L 190.963636 -117.798739 
L 188.196694 -116.520875 
L 185.429752 -115.538527 
L 182.66281 -114.818265 
L 179.895868 -114.306223 
L 177.128926 -113.939711 
L 174.361983 -113.65764 
L 171.595041 -113.407251 
L 168.828099 -113.146957 
L 166.061157 -112.846455 
L 163.294215 -112.485542 
L 160.527273 -112.052699 
L 157.760331 -111.544101 
L 154.993388 -110.963297 
L 152.226446 -110.321522 
L 149.459504 -109.638399 
L 146.692562 -108.942663 
L 143.92562 -108.272527 
L 141.158678 -107.675391 
L 138.391736 -107.206668 
L 135.624793 -106.927668 
L 132.857851 -106.902557 
L 130.090909 -107.194537 
L 127.323967 -107.861449 
L 124.557025 -108.951104 
L 121.790083 -110.496735 
L 119.02314 -112.51302 
L 116.256198 -114.993221 
L 113.489256 -117.907946 
L 110.722314 -121.205947 
L 107.955372 -124.817182 
L 105.18843 -128.658028 
L 102.421488 -132.638184 
L 99.654545 -136.668296 
L 96.887603 -140.666832 
L 94.120661 -144.564375 
L 91.353719 -148.303719 
L 88.586777 -151.835525 
L 85.819835 -155.111697 
L 83.052893 -158.080451 
L 80.28595 -160.686319 
L 77.519008 -162.875231 
L 74.752066 -164.602038 
L 71.985124 -165.837338 
L 69.218182 -166.571747 
z
" id="m9da5948f27" style="stroke:#add8e6;stroke-opacity:0.2;"/>
    </defs>
    <g clip-path="url(#pc159020475)">
     <use style="fill:#add8e6;fill-opacity:0.2;stroke:#add8e6;stroke-opacity:0.2;" x="0" xlink:href="#m9da5948f27" y="288"/>
    </g>
   </g>
   <g id="PathCollection_1">
    <defs>
     <path d="M 0 0.612372 
C 0.162403 0.612372 0.318176 0.547849 0.433013 0.433013 
C 0.547849 0.318176 0.612372 0.162403 0.612372 0 
C 0.612372 -0.162403 0.547849 -0.318176 0.433013 -0.433013 
C 0.318176 -0.547849 0.162403 -0.612372 0 -0.612372 
C -0.162403 -0.612372 -0.318176 -0.547849 -0.433013 -0.433013 
C -0.547849 -0.318176 -0.612372 -0.162403 -0.612372 0 
C -0.612372 0.162403 -0.547849 0.318176 -0.433013 0.433013 
C -0.318176 0.547849 -0.162403 0.612372 0 0.612372 
z
" id="m51ca6b8f92" style="stroke:#ff0000;stroke-width:8;"/>
    </defs>
    <g clip-path="url(#pc159020475)">
     <use style="fill:#ff0000;stroke:#ff0000;stroke-width:8;" x="282.272727" xlink:href="#m51ca6b8f92" y="226.894753"/>
    </g>
   </g>
   <g id="matplotlib.axis_1">
    <g id="xtick_1">
     <g id="line2d_1">
      <defs>
       <path d="M 0 0 
L 0 3.5 
" id="mef6ca82aef" style="stroke:#000000;stroke-width:0.8;"/>
      </defs>
      <g>
       <use style="stroke:#000000;stroke-width:0.8;" x="69.218182" xlink:href="#mef6ca82aef" y="252"/>
      </g>
     </g>
     <g id="text_1">
      <!-- 0 -->
      <g transform="translate(66.036932 266.598437)scale(0.1 -0.1)">
       <defs>
        <path d="M 2034 4250 
Q 1547 4250 1301 3770 
Q 1056 3291 1056 2328 
Q 1056 1369 1301 889 
Q 1547 409 2034 409 
Q 2525 409 2770 889 
Q 3016 1369 3016 2328 
Q 3016 3291 2770 3770 
Q 2525 4250 2034 4250 
z
M 2034 4750 
Q 2819 4750 3233 4129 
Q 3647 3509 3647 2328 
Q 3647 1150 3233 529 
Q 2819 -91 2034 -91 
Q 1250 -91 836 529 
Q 422 1150 422 2328 
Q 422 3509 836 4129 
Q 1250 4750 2034 4750 
z
" id="DejaVuSans-30" transform="scale(0.015625)"/>
       </defs>
       <use xlink:href="#DejaVuSans-30"/>
      </g>
     </g>
    </g>
    <g id="xtick_2">
     <g id="line2d_2">
      <g>
       <use style="stroke:#000000;stroke-width:0.8;" x="124.557025" xlink:href="#mef6ca82aef" y="252"/>
      </g>
     </g>
     <g id="text_2">
      <!-- 2 -->
      <g transform="translate(121.375775 266.598437)scale(0.1 -0.1)">
       <defs>
        <path d="M 1228 531 
L 3431 531 
L 3431 0 
L 469 0 
L 469 531 
Q 828 903 1448 1529 
Q 2069 2156 2228 2338 
Q 2531 2678 2651 2914 
Q 2772 3150 2772 3378 
Q 2772 3750 2511 3984 
Q 2250 4219 1831 4219 
Q 1534 4219 1204 4116 
Q 875 4013 500 3803 
L 500 4441 
Q 881 4594 1212 4672 
Q 1544 4750 1819 4750 
Q 2544 4750 2975 4387 
Q 3406 4025 3406 3419 
Q 3406 3131 3298 2873 
Q 3191 2616 2906 2266 
Q 2828 2175 2409 1742 
Q 1991 1309 1228 531 
z
" id="DejaVuSans-32" transform="scale(0.015625)"/>
       </defs>
       <use xlink:href="#DejaVuSans-32"/>
      </g>
     </g>
    </g>
    <g id="xtick_3">
     <g id="line2d_3">
      <g>
       <use style="stroke:#000000;stroke-width:0.8;" x="179.895868" xlink:href="#mef6ca82aef" y="252"/>
      </g>
     </g>
     <g id="text_3">
      <!-- 4 -->
      <g transform="translate(176.714618 266.598437)scale(0.1 -0.1)">
       <defs>
        <path d="M 2419 4116 
L 825 1625 
L 2419 1625 
L 2419 4116 
z
M 2253 4666 
L 3047 4666 
L 3047 1625 
L 3713 1625 
L 3713 1100 
L 3047 1100 
L 3047 0 
L 2419 0 
L 2419 1100 
L 313 1100 
L 313 1709 
L 2253 4666 
z
" id="DejaVuSans-34" transform="scale(0.015625)"/>
       </defs>
       <use xlink:href="#DejaVuSans-34"/>
      </g>
     </g>
    </g>
    <g id="xtick_4">
     <g id="line2d_4">
      <g>
       <use style="stroke:#000000;stroke-width:0.8;" x="235.234711" xlink:href="#mef6ca82aef" y="252"/>
      </g>
     </g>
     <g id="text_4">
      <!-- 6 -->
      <g transform="translate(232.053461 266.598437)scale(0.1 -0.1)">
       <defs>
        <path d="M 2113 2584 
Q 1688 2584 1439 2293 
Q 1191 2003 1191 1497 
Q 1191 994 1439 701 
Q 1688 409 2113 409 
Q 2538 409 2786 701 
Q 3034 994 3034 1497 
Q 3034 2003 2786 2293 
Q 2538 2584 2113 2584 
z
M 3366 4563 
L 3366 3988 
Q 3128 4100 2886 4159 
Q 2644 4219 2406 4219 
Q 1781 4219 1451 3797 
Q 1122 3375 1075 2522 
Q 1259 2794 1537 2939 
Q 1816 3084 2150 3084 
Q 2853 3084 3261 2657 
Q 3669 2231 3669 1497 
Q 3669 778 3244 343 
Q 2819 -91 2113 -91 
Q 1303 -91 875 529 
Q 447 1150 447 2328 
Q 447 3434 972 4092 
Q 1497 4750 2381 4750 
Q 2619 4750 2861 4703 
Q 3103 4656 3366 4563 
z
" id="DejaVuSans-36" transform="scale(0.015625)"/>
       </defs>
       <use xlink:href="#DejaVuSans-36"/>
      </g>
     </g>
    </g>
    <g id="xtick_5">
     <g id="line2d_5">
      <g>
       <use style="stroke:#000000;stroke-width:0.8;" x="290.573554" xlink:href="#mef6ca82aef" y="252"/>
      </g>
     </g>
     <g id="text_5">
      <!-- 8 -->
      <g transform="translate(287.392304 266.598437)scale(0.1 -0.1)">
       <defs>
        <path d="M 2034 2216 
Q 1584 2216 1326 1975 
Q 1069 1734 1069 1313 
Q 1069 891 1326 650 
Q 1584 409 2034 409 
Q 2484 409 2743 651 
Q 3003 894 3003 1313 
Q 3003 1734 2745 1975 
Q 2488 2216 2034 2216 
z
M 1403 2484 
Q 997 2584 770 2862 
Q 544 3141 544 3541 
Q 544 4100 942 4425 
Q 1341 4750 2034 4750 
Q 2731 4750 3128 4425 
Q 3525 4100 3525 3541 
Q 3525 3141 3298 2862 
Q 3072 2584 2669 2484 
Q 3125 2378 3379 2068 
Q 3634 1759 3634 1313 
Q 3634 634 3220 271 
Q 2806 -91 2034 -91 
Q 1263 -91 848 271 
Q 434 634 434 1313 
Q 434 1759 690 2068 
Q 947 2378 1403 2484 
z
M 1172 3481 
Q 1172 3119 1398 2916 
Q 1625 2713 2034 2713 
Q 2441 2713 2670 2916 
Q 2900 3119 2900 3481 
Q 2900 3844 2670 4047 
Q 2441 4250 2034 4250 
Q 1625 4250 1398 4047 
Q 1172 3844 1172 3481 
z
" id="DejaVuSans-38" transform="scale(0.015625)"/>
       </defs>
       <use xlink:href="#DejaVuSans-38"/>
      </g>
     </g>
    </g>
    <g id="xtick_6">
     <g id="line2d_6">
      <g>
       <use style="stroke:#000000;stroke-width:0.8;" x="345.912397" xlink:href="#mef6ca82aef" y="252"/>
      </g>
     </g>
     <g id="text_6">
      <!-- 10 -->
      <g transform="translate(339.549897 266.598437)scale(0.1 -0.1)">
       <defs>
        <path d="M 794 531 
L 1825 531 
L 1825 4091 
L 703 3866 
L 703 4441 
L 1819 4666 
L 2450 4666 
L 2450 531 
L 3481 531 
L 3481 0 
L 794 0 
L 794 531 
z
" id="DejaVuSans-31" transform="scale(0.015625)"/>
       </defs>
       <use xlink:href="#DejaVuSans-31"/>
       <use x="63.623047" xlink:href="#DejaVuSans-30"/>
      </g>
     </g>
    </g>
    <g id="text_7">
     <!-- x -->
     <g transform="translate(217.84875 281.79625)scale(0.12 -0.12)">
      <defs>
       <path d="M 3513 3500 
L 2247 1797 
L 3578 0 
L 2900 0 
L 1881 1375 
L 863 0 
L 184 0 
L 1544 1831 
L 300 3500 
L 978 3500 
L 1906 2253 
L 2834 3500 
L 3513 3500 
z
" id="DejaVuSans-78" transform="scale(0.015625)"/>
      </defs>
      <use xlink:href="#DejaVuSans-78"/>
     </g>
    </g>
   </g>
   <g id="matplotlib.axis_2">
    <g id="ytick_1">
     <g id="line2d_7">
      <defs>
       <path d="M 0 0 
L -3.5 0 
" id="mc0ce36f039" style="stroke:#000000;stroke-width:0.8;"/>
      </defs>
      <g>
       <use style="stroke:#000000;stroke-width:0.8;" x="54" xlink:href="#mc0ce36f039" y="252"/>
      </g>
     </g>
     <g id="text_8">
      <!-- 3 -->
      <g transform="translate(40.6375 255.799219)scale(0.1 -0.1)">
       <defs>
        <path d="M 2597 2516 
Q 3050 2419 3304 2112 
Q 3559 1806 3559 1356 
Q 3559 666 3084 287 
Q 2609 -91 1734 -91 
Q 1441 -91 1130 -33 
Q 819 25 488 141 
L 488 750 
Q 750 597 1062 519 
Q 1375 441 1716 441 
Q 2309 441 2620 675 
Q 2931 909 2931 1356 
Q 2931 1769 2642 2001 
Q 2353 2234 1838 2234 
L 1294 2234 
L 1294 2753 
L 1863 2753 
Q 2328 2753 2575 2939 
Q 2822 3125 2822 3475 
Q 2822 3834 2567 4026 
Q 2313 4219 1838 4219 
Q 1578 4219 1281 4162 
Q 984 4106 628 3988 
L 628 4550 
Q 988 4650 1302 4700 
Q 1616 4750 1894 4750 
Q 2613 4750 3031 4423 
Q 3450 4097 3450 3541 
Q 3450 3153 3228 2886 
Q 3006 2619 2597 2516 
z
" id="DejaVuSans-33" transform="scale(0.015625)"/>
       </defs>
       <use xlink:href="#DejaVuSans-33"/>
      </g>
     </g>
    </g>
    <g id="ytick_2">
     <g id="line2d_8">
      <g>
       <use style="stroke:#000000;stroke-width:0.8;" x="54" xlink:href="#mc0ce36f039" y="215.76"/>
      </g>
     </g>
     <g id="text_9">
      <!-- 4 -->
      <g transform="translate(40.6375 219.559219)scale(0.1 -0.1)">
       <use xlink:href="#DejaVuSans-34"/>
      </g>
     </g>
    </g>
    <g id="ytick_3">
     <g id="line2d_9">
      <g>
       <use style="stroke:#000000;stroke-width:0.8;" x="54" xlink:href="#mc0ce36f039" y="179.52"/>
      </g>
     </g>
     <g id="text_10">
      <!-- 5 -->
      <g transform="translate(40.6375 183.319219)scale(0.1 -0.1)">
       <defs>
        <path d="M 691 4666 
L 3169 4666 
L 3169 4134 
L 1269 4134 
L 1269 2991 
Q 1406 3038 1543 3061 
Q 1681 3084 1819 3084 
Q 2600 3084 3056 2656 
Q 3513 2228 3513 1497 
Q 3513 744 3044 326 
Q 2575 -91 1722 -91 
Q 1428 -91 1123 -41 
Q 819 9 494 109 
L 494 744 
Q 775 591 1075 516 
Q 1375 441 1709 441 
Q 2250 441 2565 725 
Q 2881 1009 2881 1497 
Q 2881 1984 2565 2268 
Q 2250 2553 1709 2553 
Q 1456 2553 1204 2497 
Q 953 2441 691 2322 
L 691 4666 
z
" id="DejaVuSans-35" transform="scale(0.015625)"/>
       </defs>
       <use xlink:href="#DejaVuSans-35"/>
      </g>
     </g>
    </g>
    <g id="ytick_4">
     <g id="line2d_10">
      <g>
       <use style="stroke:#000000;stroke-width:0.8;" x="54" xlink:href="#mc0ce36f039" y="143.28"/>
      </g>
     </g>
     <g id="text_11">
      <!-- 6 -->
      <g transform="translate(40.6375 147.079219)scale(0.1 -0.1)">
       <use xlink:href="#DejaVuSans-36"/>
      </g>
     </g>
    </g>
    <g id="ytick_5">
     <g id="line2d_11">
      <g>
       <use style="stroke:#000000;stroke-width:0.8;" x="54" xlink:href="#mc0ce36f039" y="107.04"/>
      </g>
     </g>
     <g id="text_12">
      <!-- 7 -->
      <g transform="translate(40.6375 110.839219)scale(0.1 -0.1)">
       <defs>
        <path d="M 525 4666 
L 3525 4666 
L 3525 4397 
L 1831 0 
L 1172 0 
L 2766 4134 
L 525 4134 
L 525 4666 
z
" id="DejaVuSans-37" transform="scale(0.015625)"/>
       </defs>
       <use xlink:href="#DejaVuSans-37"/>
      </g>
     </g>
    </g>
    <g id="ytick_6">
     <g id="line2d_12">
      <g>
       <use style="stroke:#000000;stroke-width:0.8;" x="54" xlink:href="#mc0ce36f039" y="70.8"/>
      </g>
     </g>
     <g id="text_13">
      <!-- 8 -->
      <g transform="translate(40.6375 74.599219)scale(0.1 -0.1)">
       <use xlink:href="#DejaVuSans-38"/>
      </g>
     </g>
    </g>
    <g id="ytick_7">
     <g id="line2d_13">
      <g>
       <use style="stroke:#000000;stroke-width:0.8;" x="54" xlink:href="#mc0ce36f039" y="34.56"/>
      </g>
     </g>
     <g id="text_14">
      <!-- 9 -->
      <g transform="translate(40.6375 38.359219)scale(0.1 -0.1)">
       <defs>
        <path d="M 703 97 
L 703 672 
Q 941 559 1184 500 
Q 1428 441 1663 441 
Q 2288 441 2617 861 
Q 2947 1281 2994 2138 
Q 2813 1869 2534 1725 
Q 2256 1581 1919 1581 
Q 1219 1581 811 2004 
Q 403 2428 403 3163 
Q 403 3881 828 4315 
Q 1253 4750 1959 4750 
Q 2769 4750 3195 4129 
Q 3622 3509 3622 2328 
Q 3622 1225 3098 567 
Q 2575 -91 1691 -91 
Q 1453 -91 1209 -44 
Q 966 3 703 97 
z
M 1959 2075 
Q 2384 2075 2632 2365 
Q 2881 2656 2881 3163 
Q 2881 3666 2632 3958 
Q 2384 4250 1959 4250 
Q 1534 4250 1286 3958 
Q 1038 3666 1038 3163 
Q 1038 2656 1286 2365 
Q 1534 2075 1959 2075 
z
" id="DejaVuSans-39" transform="scale(0.015625)"/>
       </defs>
       <use xlink:href="#DejaVuSans-39"/>
      </g>
     </g>
    </g>
    <g id="text_15">
     <!-- y -->
     <g transform="translate(34.141875 146.83125)rotate(-90)scale(0.12 -0.12)">
      <defs>
       <path d="M 2059 -325 
Q 1816 -950 1584 -1140 
Q 1353 -1331 966 -1331 
L 506 -1331 
L 506 -850 
L 844 -850 
Q 1081 -850 1212 -737 
Q 1344 -625 1503 -206 
L 1606 56 
L 191 3500 
L 800 3500 
L 1894 763 
L 2988 3500 
L 3597 3500 
L 2059 -325 
z
" id="DejaVuSans-79" transform="scale(0.015625)"/>
      </defs>
      <use xlink:href="#DejaVuSans-79"/>
     </g>
    </g>
   </g>
   <g id="line2d_14">
    <path clip-path="url(#pc159020475)" d="M 69.218182 70.8 
L 71.985124 85.083949 
L 74.752066 98.25467 
L 77.519008 110.364828 
L 80.28595 121.465955 
L 83.052893 131.608455 
L 85.819835 140.841599 
L 88.586777 149.213528 
L 91.353719 156.771253 
L 94.120661 163.560654 
L 96.887603 169.62648 
L 99.654545 175.012349 
L 102.421488 179.76075 
L 105.18843 183.913038 
L 107.955372 187.509441 
L 110.722314 190.589055 
L 113.489256 193.189844 
L 116.256198 195.348643 
L 119.02314 197.101155 
L 121.790083 198.481953 
L 124.557025 199.52448 
L 127.323967 200.261047 
L 130.090909 200.722835 
L 132.857851 200.939895 
L 135.624793 200.941145 
L 138.391736 200.754375 
L 141.158678 200.406243 
L 143.92562 199.922276 
L 146.692562 199.326871 
L 149.459504 198.643294 
L 152.226446 197.89368 
L 154.993388 197.099035 
L 157.760331 196.279231 
L 160.527273 195.453014 
L 163.294215 194.637994 
L 166.061157 193.850655 
L 168.828099 193.106347 
L 171.595041 192.419291 
L 174.361983 191.802577 
L 177.128926 191.268164 
L 179.895868 190.82688 
L 182.66281 190.488424 
L 185.429752 190.261362 
L 188.196694 190.153131 
L 190.963636 190.170037 
L 193.730579 190.317255 
L 196.497521 190.598829 
L 199.264463 191.017673 
L 202.031405 191.575569 
L 204.798347 192.273171 
L 207.565289 193.11 
L 210.332231 194.084446 
L 213.099174 195.193771 
L 215.866116 196.434103 
L 218.633058 197.800442 
L 221.4 199.286655 
L 224.166942 200.88548 
L 226.933884 202.588525 
L 229.700826 204.386264 
L 232.467769 206.268045 
L 235.234711 208.22208 
L 238.001653 210.235455 
L 240.768595 212.294122 
L 243.535537 214.382905 
L 246.302479 216.485496 
L 249.069421 218.584455 
L 251.836364 220.661214 
L 254.603306 222.696071 
L 257.370248 224.668198 
L 260.13719 226.555631 
L 262.904132 228.33528 
L 265.671074 229.982921 
L 268.438017 231.4732 
L 271.204959 232.779634 
L 273.971901 233.874607 
L 276.738843 234.729375 
L 279.505785 235.31406 
L 282.272727 235.597656 
L 285.039669 235.548026 
L 287.806612 235.1319 
L 290.573554 234.31488 
L 293.340496 233.061436 
L 296.107438 231.334908 
L 298.87438 229.097505 
L 301.641322 226.310305 
L 304.408264 222.933255 
L 307.175207 218.925173 
L 309.942149 214.243744 
L 312.709091 208.845524 
L 315.476033 202.685938 
L 318.242975 195.71928 
L 321.009917 187.898713 
L 323.77686 179.176271 
L 326.543802 169.502854 
L 329.310744 158.828236 
L 332.077686 147.101055 
L 334.844628 134.268823 
L 337.61157 120.277918 
L 340.378512 105.073589 
L 343.145455 88.599954 
L 345.912397 70.8 
L 348.679339 51.615584 
L 351.446281 30.987432 
L 354.213223 8.855138 
L 355.363895 -1 
" style="fill:none;stroke:#0000ff;stroke-linecap:square;stroke-width:2;"/>
   </g>
   <g id="line2d_15">
    <path clip-path="url(#pc159020475)" d="M 69.218182 178.356621 
L 71.985124 175.442852 
L 74.752066 173.051081 
L 77.519008 171.30271 
L 80.28595 170.300482 
L 83.052893 170.117831 
L 85.819835 170.788113 
L 88.586777 172.296003 
L 91.353719 174.574382 
L 94.120661 177.509328 
L 96.887603 180.952766 
L 99.654545 184.739032 
L 102.421488 188.700686 
L 105.18843 192.680602 
L 107.955372 196.539742 
L 110.722314 200.161377 
L 113.489256 203.452898 
L 116.256198 206.346097 
L 119.02314 208.796509 
L 121.790083 210.782149 
L 124.557025 212.301769 
L 127.323967 213.372687 
L 130.090909 214.028176 
L 132.857851 214.314412 
L 135.624793 214.28704 
L 138.391736 214.007507 
L 141.158678 213.539317 
L 143.92562 212.944441 
L 146.692562 212.28005 
L 149.459504 211.595736 
L 152.226446 210.931351 
L 154.993388 210.315588 
L 157.760331 209.765428 
L 160.527273 209.286619 
L 163.294215 208.875302 
L 166.061157 208.520869 
L 168.828099 208.209966 
L 171.595041 207.931377 
L 174.361983 207.681228 
L 177.128926 207.467615 
L 179.895868 207.313372 
L 182.66281 207.255436 
L 185.429752 207.339572 
L 188.196694 207.610652 
L 190.963636 208.10107 
L 193.730579 208.821673 
L 196.497521 209.758785 
L 199.264463 210.877673 
L 202.031405 212.129931 
L 204.798347 213.461619 
L 207.565289 214.820143 
L 210.332231 216.159222 
L 213.099174 217.442077 
L 215.866116 218.643174 
L 218.633058 219.748824 
L 221.4 220.756884 
L 224.166942 221.675703 
L 226.933884 222.52248 
L 229.700826 223.321166 
L 232.467769 224.100087 
L 235.234711 224.889441 
L 238.001653 225.718844 
L 240.768595 226.615063 
L 243.535537 227.600077 
L 246.302479 228.689543 
L 249.069421 229.891729 
L 251.836364 231.206923 
L 254.603306 232.627298 
L 257.370248 234.137197 
L 260.13719 235.71378 
L 262.904132 237.327987 
L 265.671074 238.945768 
L 268.438017 240.529547 
L 271.204959 242.039875 
L 273.971901 243.437204 
L 276.738843 244.683603 
L 279.505785 245.74402 
L 282.272727 246.586289 
L 285.039669 247.178556 
L 287.806612 247.482604 
L 290.573554 247.442875 
L 293.340496 246.974736 
L 296.107438 245.959938 
L 298.87438 244.256483 
L 301.641322 241.721707 
L 304.408264 238.239023 
L 307.175207 233.738691 
L 309.942149 228.208943 
L 312.709091 221.698691 
L 315.476033 214.314541 
L 318.242975 206.214388 
L 321.009917 197.599098 
L 323.77686 188.703247 
L 326.543802 179.785465 
L 329.310744 171.11848 
L 332.077686 162.978374 
L 334.844628 155.632155 
L 337.61157 149.322976 
L 340.378512 144.253692 
L 343.145455 140.57144 
L 345.912397 138.357091 
L 348.679339 137.622154 
L 351.446281 138.313012 
L 354.213223 140.320226 
L 356.980165 143.490353 
L 359.747107 147.638541 
L 362.51405 152.560948 
L 365.280992 158.046486 
L 368.047934 163.887474 
L 370.814876 169.888811 
L 373.581818 175.875318 
" style="fill:none;stroke:#008000;stroke-dasharray:3.7,1.6;stroke-dashoffset:0;"/>
   </g>
   <g id="line2d_16">
    <path clip-path="url(#pc159020475)" d="M 69.218182 121.428253 
L 71.985124 122.162662 
L 74.752066 123.397962 
L 77.519008 125.124769 
L 80.28595 127.313681 
L 83.052893 129.919549 
L 85.819835 132.888303 
L 88.586777 136.164475 
L 91.353719 139.696281 
L 94.120661 143.435625 
L 96.887603 147.333168 
L 99.654545 151.331704 
L 102.421488 155.361816 
L 105.18843 159.341972 
L 107.955372 163.182818 
L 110.722314 166.794053 
L 113.489256 170.092054 
L 116.256198 173.006779 
L 119.02314 175.48698 
L 121.790083 177.503265 
L 124.557025 179.048896 
L 127.323967 180.138551 
L 130.090909 180.805463 
L 132.857851 181.097443 
L 135.624793 181.072332 
L 138.391736 180.793332 
L 141.158678 180.324609 
L 143.92562 179.727473 
L 146.692562 179.057337 
L 149.459504 178.361601 
L 152.226446 177.678478 
L 154.993388 177.036703 
L 157.760331 176.455899 
L 160.527273 175.947301 
L 163.294215 175.514458 
L 166.061157 175.153545 
L 168.828099 174.853043 
L 171.595041 174.592749 
L 174.361983 174.34236 
L 177.128926 174.060289 
L 179.895868 173.693777 
L 182.66281 173.181735 
L 185.429752 172.461473 
L 188.196694 171.479125 
L 190.963636 170.201261 
L 193.730579 168.623404 
L 196.497521 166.772034 
L 199.264463 164.699873 
L 202.031405 162.477155 
L 204.798347 160.182185 
L 207.565289 157.893335 
L 210.332231 155.683212 
L 213.099174 153.61494 
L 215.866116 151.740218 
L 218.633058 150.098839 
L 221.4 148.719378 
L 224.166942 147.620801 
L 226.933884 146.814727 
L 229.700826 146.308096 
L 232.467769 146.105921 
L 235.234711 146.213854 
L 238.001653 146.640283 
L 240.768595 147.397702 
L 243.535537 148.503182 
L 246.302479 149.977811 
L 249.069421 151.845079 
L 251.836364 154.128267 
L 254.603306 156.846971 
L 257.370248 160.012994 
L 260.13719 163.62587 
L 262.904132 167.668339 
L 265.671074 172.102092 
L 268.438017 176.864125 
L 271.204959 181.864012 
L 273.971901 186.982405 
L 276.738843 192.071138 
L 279.505785 196.955442 
L 282.272727 201.439103 
L 285.039669 205.313851 
L 287.806612 208.374317 
L 290.573554 210.438542 
L 293.340496 211.370143 
L 296.107438 211.093749 
L 298.87438 209.596032 
L 301.641322 206.91295 
L 304.408264 203.112196 
L 307.175207 198.279877 
L 309.942149 192.514526 
L 312.709091 185.926697 
L 315.476033 178.641004 
L 318.242975 170.798037 
L 321.009917 162.554559 
L 323.77686 154.081146 
L 326.543802 145.557075 
L 329.310744 137.163021 
L 332.077686 129.072867 
L 334.844628 121.446606 
L 337.61157 114.42614 
L 340.378512 108.134534 
L 343.145455 102.677114 
L 345.912397 98.141589 
L 348.679339 94.595283 
L 351.446281 92.079995 
L 354.213223 90.606735 
L 356.980165 90.15254 
L 359.747107 90.660381 
L 362.51405 92.04213 
L 365.280992 94.183928 
L 368.047934 96.953141 
L 370.814876 100.206101 
L 373.581818 103.795925 
" style="fill:none;stroke:#008000;stroke-dasharray:3.7,1.6;stroke-dashoffset:0;"/>
   </g>
   <g id="line2d_17">
    <path clip-path="url(#pc159020475)" d="M 69.218182 251.959891 
L 71.985124 251.986622 
L 74.752066 251.996116 
L 77.519008 251.998982 
L 80.28595 251.99974 
L 83.052893 251.999926 
L 85.819835 251.999973 
L 88.586777 251.999985 
L 91.353719 251.999986 
L 94.120661 251.99998 
L 96.887603 251.999956 
L 99.654545 251.999879 
L 102.421488 251.999637 
L 105.18843 251.998921 
L 107.955372 251.997027 
L 110.722314 251.992667 
L 113.489256 251.984037 
L 116.256198 251.96939 
L 119.02314 251.948074 
L 121.790083 251.921462 
L 124.557025 251.89309 
L 127.323967 251.867671 
L 130.090909 251.849457 
L 132.857851 251.840822 
L 135.624793 251.841757 
L 138.391736 251.850338 
L 141.158678 251.863716 
L 143.92562 251.879082 
L 146.692562 251.894267 
L 149.459504 251.907929 
L 152.226446 251.919463 
L 154.993388 251.928787 
L 157.760331 251.936136 
L 160.527273 251.941898 
L 163.294215 251.946505 
L 166.061157 251.950347 
L 168.828099 251.953695 
L 171.595041 251.956617 
L 174.361983 251.958917 
L 177.128926 251.960079 
L 179.895868 251.959194 
L 182.66281 251.954721 
L 185.429752 251.943854 
L 188.196694 251.921142 
L 190.963636 251.876001 
L 193.730579 251.789297 
L 196.497521 251.630669 
L 199.264463 251.360036 
L 202.031405 250.935917 
L 204.798347 250.328598 
L 207.565289 249.531663 
L 210.332231 248.565976 
L 213.099174 247.47494 
L 215.866116 246.314158 
L 218.633058 245.139912 
L 221.4 243.999782 
L 224.166942 242.926924 
L 226.933884 241.938095 
L 229.700826 241.034689 
L 232.467769 240.20574 
L 235.234711 239.431881 
L 238.001653 238.689462 
L 240.768595 237.954284 
L 243.535537 237.204655 
L 246.302479 236.423688 
L 249.069421 235.600849 
L 251.836364 234.732835 
L 254.603306 233.823839 
L 257.370248 232.885246 
L 260.13719 231.934804 
L 262.904132 230.995289 
L 265.671074 230.092775 
L 268.438017 229.254629 
L 271.204959 228.507515 
L 273.971901 227.87581 
L 276.738843 227.381221 
L 279.505785 227.044973 
L 282.272727 226.894753 
L 285.039669 226.978989 
L 287.806612 227.388278 
L 290.573554 228.273947 
L 293.340496 229.837085 
L 296.107438 232.256461 
L 298.87438 235.558741 
L 301.641322 239.499837 
L 304.408264 243.558984 
L 307.175207 247.100893 
L 309.942149 249.650685 
L 312.709091 251.111482 
L 315.476033 251.748311 
L 318.242975 251.949249 
L 321.009917 251.992989 
L 323.77686 251.999341 
L 326.543802 251.999956 
L 329.310744 251.999998 
L 332.077686 252 
L 334.844628 252 
L 337.61157 252 
L 340.378512 252 
L 343.145455 252 
L 345.912397 252 
L 348.679339 252 
L 351.446281 251.999999 
L 354.213223 251.999994 
L 356.980165 251.999942 
L 359.747107 251.999591 
L 362.51405 251.997747 
L 365.280992 251.990326 
L 368.047934 251.96687 
L 370.814876 251.906918 
L 373.581818 251.779252 
" style="fill:none;stroke:#bfbf00;stroke-dasharray:7.4,3.2;stroke-dashoffset:0;stroke-width:2;"/>
   </g>
   <g id="patch_3">
    <path d="M 54 252 
L 54 34.56 
" style="fill:none;stroke:#000000;stroke-linecap:square;stroke-linejoin:miter;stroke-width:0.8;"/>
   </g>
   <g id="patch_4">
    <path d="M 388.8 252 
L 388.8 34.56 
" style="fill:none;stroke:#000000;stroke-linecap:square;stroke-linejoin:miter;stroke-width:0.8;"/>
   </g>
   <g id="patch_5">
    <path d="M 54 252 
L 388.8 252 
" style="fill:none;stroke:#000000;stroke-linecap:square;stroke-linejoin:miter;stroke-width:0.8;"/>
   </g>
   <g id="patch_6">
    <path d="M 54 34.56 
L 388.8 34.56 
" style="fill:none;stroke:#000000;stroke-linecap:square;stroke-linejoin:miter;stroke-width:0.8;"/>
   </g>
   <g id="text_16">
    <!-- Method : EI_plugin -->
    <g transform="translate(71.985124 244.752)scale(0.12 -0.12)">
     <defs>
      <path d="M 628 4666 
L 1569 4666 
L 2759 1491 
L 3956 4666 
L 4897 4666 
L 4897 0 
L 4281 0 
L 4281 4097 
L 3078 897 
L 2444 897 
L 1241 4097 
L 1241 0 
L 628 0 
L 628 4666 
z
" id="DejaVuSans-4d" transform="scale(0.015625)"/>
      <path d="M 3597 1894 
L 3597 1613 
L 953 1613 
Q 991 1019 1311 708 
Q 1631 397 2203 397 
Q 2534 397 2845 478 
Q 3156 559 3463 722 
L 3463 178 
Q 3153 47 2828 -22 
Q 2503 -91 2169 -91 
Q 1331 -91 842 396 
Q 353 884 353 1716 
Q 353 2575 817 3079 
Q 1281 3584 2069 3584 
Q 2775 3584 3186 3129 
Q 3597 2675 3597 1894 
z
M 3022 2063 
Q 3016 2534 2758 2815 
Q 2500 3097 2075 3097 
Q 1594 3097 1305 2825 
Q 1016 2553 972 2059 
L 3022 2063 
z
" id="DejaVuSans-65" transform="scale(0.015625)"/>
      <path d="M 1172 4494 
L 1172 3500 
L 2356 3500 
L 2356 3053 
L 1172 3053 
L 1172 1153 
Q 1172 725 1289 603 
Q 1406 481 1766 481 
L 2356 481 
L 2356 0 
L 1766 0 
Q 1100 0 847 248 
Q 594 497 594 1153 
L 594 3053 
L 172 3053 
L 172 3500 
L 594 3500 
L 594 4494 
L 1172 4494 
z
" id="DejaVuSans-74" transform="scale(0.015625)"/>
      <path d="M 3513 2113 
L 3513 0 
L 2938 0 
L 2938 2094 
Q 2938 2591 2744 2837 
Q 2550 3084 2163 3084 
Q 1697 3084 1428 2787 
Q 1159 2491 1159 1978 
L 1159 0 
L 581 0 
L 581 4863 
L 1159 4863 
L 1159 2956 
Q 1366 3272 1645 3428 
Q 1925 3584 2291 3584 
Q 2894 3584 3203 3211 
Q 3513 2838 3513 2113 
z
" id="DejaVuSans-68" transform="scale(0.015625)"/>
      <path d="M 1959 3097 
Q 1497 3097 1228 2736 
Q 959 2375 959 1747 
Q 959 1119 1226 758 
Q 1494 397 1959 397 
Q 2419 397 2687 759 
Q 2956 1122 2956 1747 
Q 2956 2369 2687 2733 
Q 2419 3097 1959 3097 
z
M 1959 3584 
Q 2709 3584 3137 3096 
Q 3566 2609 3566 1747 
Q 3566 888 3137 398 
Q 2709 -91 1959 -91 
Q 1206 -91 779 398 
Q 353 888 353 1747 
Q 353 2609 779 3096 
Q 1206 3584 1959 3584 
z
" id="DejaVuSans-6f" transform="scale(0.015625)"/>
      <path d="M 2906 2969 
L 2906 4863 
L 3481 4863 
L 3481 0 
L 2906 0 
L 2906 525 
Q 2725 213 2448 61 
Q 2172 -91 1784 -91 
Q 1150 -91 751 415 
Q 353 922 353 1747 
Q 353 2572 751 3078 
Q 1150 3584 1784 3584 
Q 2172 3584 2448 3432 
Q 2725 3281 2906 2969 
z
M 947 1747 
Q 947 1113 1208 752 
Q 1469 391 1925 391 
Q 2381 391 2643 752 
Q 2906 1113 2906 1747 
Q 2906 2381 2643 2742 
Q 2381 3103 1925 3103 
Q 1469 3103 1208 2742 
Q 947 2381 947 1747 
z
" id="DejaVuSans-64" transform="scale(0.015625)"/>
      <path id="DejaVuSans-20" transform="scale(0.015625)"/>
      <path d="M 750 794 
L 1409 794 
L 1409 0 
L 750 0 
L 750 794 
z
M 750 3309 
L 1409 3309 
L 1409 2516 
L 750 2516 
L 750 3309 
z
" id="DejaVuSans-3a" transform="scale(0.015625)"/>
      <path d="M 628 4666 
L 3578 4666 
L 3578 4134 
L 1259 4134 
L 1259 2753 
L 3481 2753 
L 3481 2222 
L 1259 2222 
L 1259 531 
L 3634 531 
L 3634 0 
L 628 0 
L 628 4666 
z
" id="DejaVuSans-45" transform="scale(0.015625)"/>
      <path d="M 628 4666 
L 1259 4666 
L 1259 0 
L 628 0 
L 628 4666 
z
" id="DejaVuSans-49" transform="scale(0.015625)"/>
      <path d="M 3263 -1063 
L 3263 -1509 
L -63 -1509 
L -63 -1063 
L 3263 -1063 
z
" id="DejaVuSans-5f" transform="scale(0.015625)"/>
      <path d="M 1159 525 
L 1159 -1331 
L 581 -1331 
L 581 3500 
L 1159 3500 
L 1159 2969 
Q 1341 3281 1617 3432 
Q 1894 3584 2278 3584 
Q 2916 3584 3314 3078 
Q 3713 2572 3713 1747 
Q 3713 922 3314 415 
Q 2916 -91 2278 -91 
Q 1894 -91 1617 61 
Q 1341 213 1159 525 
z
M 3116 1747 
Q 3116 2381 2855 2742 
Q 2594 3103 2138 3103 
Q 1681 3103 1420 2742 
Q 1159 2381 1159 1747 
Q 1159 1113 1420 752 
Q 1681 391 2138 391 
Q 2594 391 2855 752 
Q 3116 1113 3116 1747 
z
" id="DejaVuSans-70" transform="scale(0.015625)"/>
      <path d="M 603 4863 
L 1178 4863 
L 1178 0 
L 603 0 
L 603 4863 
z
" id="DejaVuSans-6c" transform="scale(0.015625)"/>
      <path d="M 544 1381 
L 544 3500 
L 1119 3500 
L 1119 1403 
Q 1119 906 1312 657 
Q 1506 409 1894 409 
Q 2359 409 2629 706 
Q 2900 1003 2900 1516 
L 2900 3500 
L 3475 3500 
L 3475 0 
L 2900 0 
L 2900 538 
Q 2691 219 2414 64 
Q 2138 -91 1772 -91 
Q 1169 -91 856 284 
Q 544 659 544 1381 
z
M 1991 3584 
L 1991 3584 
z
" id="DejaVuSans-75" transform="scale(0.015625)"/>
      <path d="M 2906 1791 
Q 2906 2416 2648 2759 
Q 2391 3103 1925 3103 
Q 1463 3103 1205 2759 
Q 947 2416 947 1791 
Q 947 1169 1205 825 
Q 1463 481 1925 481 
Q 2391 481 2648 825 
Q 2906 1169 2906 1791 
z
M 3481 434 
Q 3481 -459 3084 -895 
Q 2688 -1331 1869 -1331 
Q 1566 -1331 1297 -1286 
Q 1028 -1241 775 -1147 
L 775 -588 
Q 1028 -725 1275 -790 
Q 1522 -856 1778 -856 
Q 2344 -856 2625 -561 
Q 2906 -266 2906 331 
L 2906 616 
Q 2728 306 2450 153 
Q 2172 0 1784 0 
Q 1141 0 747 490 
Q 353 981 353 1791 
Q 353 2603 747 3093 
Q 1141 3584 1784 3584 
Q 2172 3584 2450 3431 
Q 2728 3278 2906 2969 
L 2906 3500 
L 3481 3500 
L 3481 434 
z
" id="DejaVuSans-67" transform="scale(0.015625)"/>
      <path d="M 603 3500 
L 1178 3500 
L 1178 0 
L 603 0 
L 603 3500 
z
M 603 4863 
L 1178 4863 
L 1178 4134 
L 603 4134 
L 603 4863 
z
" id="DejaVuSans-69" transform="scale(0.015625)"/>
      <path d="M 3513 2113 
L 3513 0 
L 2938 0 
L 2938 2094 
Q 2938 2591 2744 2837 
Q 2550 3084 2163 3084 
Q 1697 3084 1428 2787 
Q 1159 2491 1159 1978 
L 1159 0 
L 581 0 
L 581 3500 
L 1159 3500 
L 1159 2956 
Q 1366 3272 1645 3428 
Q 1925 3584 2291 3584 
Q 2894 3584 3203 3211 
Q 3513 2838 3513 2113 
z
" id="DejaVuSans-6e" transform="scale(0.015625)"/>
     </defs>
     <use xlink:href="#DejaVuSans-4d"/>
     <use x="86.279297" xlink:href="#DejaVuSans-65"/>
     <use x="147.802734" xlink:href="#DejaVuSans-74"/>
     <use x="187.011719" xlink:href="#DejaVuSans-68"/>
     <use x="250.390625" xlink:href="#DejaVuSans-6f"/>
     <use x="311.572266" xlink:href="#DejaVuSans-64"/>
     <use x="375.048828" xlink:href="#DejaVuSans-20"/>
     <use x="406.835938" xlink:href="#DejaVuSans-3a"/>
     <use x="440.527344" xlink:href="#DejaVuSans-20"/>
     <use x="472.314453" xlink:href="#DejaVuSans-45"/>
     <use x="535.498047" xlink:href="#DejaVuSans-49"/>
     <use x="564.990234" xlink:href="#DejaVuSans-5f"/>
     <use x="614.990234" xlink:href="#DejaVuSans-70"/>
     <use x="678.466797" xlink:href="#DejaVuSans-6c"/>
     <use x="706.25" xlink:href="#DejaVuSans-75"/>
     <use x="769.628906" xlink:href="#DejaVuSans-67"/>
     <use x="833.105469" xlink:href="#DejaVuSans-69"/>
     <use x="860.888672" xlink:href="#DejaVuSans-6e"/>
    </g>
   </g>
   <g id="text_17">
    <!-- Iter=2 -->
    <g transform="translate(71.985124 226.632)scale(0.12 -0.12)">
     <defs>
      <path d="M 2631 2963 
Q 2534 3019 2420 3045 
Q 2306 3072 2169 3072 
Q 1681 3072 1420 2755 
Q 1159 2438 1159 1844 
L 1159 0 
L 581 0 
L 581 3500 
L 1159 3500 
L 1159 2956 
Q 1341 3275 1631 3429 
Q 1922 3584 2338 3584 
Q 2397 3584 2469 3576 
Q 2541 3569 2628 3553 
L 2631 2963 
z
" id="DejaVuSans-72" transform="scale(0.015625)"/>
      <path d="M 678 2906 
L 4684 2906 
L 4684 2381 
L 678 2381 
L 678 2906 
z
M 678 1631 
L 4684 1631 
L 4684 1100 
L 678 1100 
L 678 1631 
z
" id="DejaVuSans-3d" transform="scale(0.015625)"/>
     </defs>
     <use xlink:href="#DejaVuSans-49"/>
     <use x="29.492188" xlink:href="#DejaVuSans-74"/>
     <use x="68.701172" xlink:href="#DejaVuSans-65"/>
     <use x="130.224609" xlink:href="#DejaVuSans-72"/>
     <use x="171.337891" xlink:href="#DejaVuSans-3d"/>
     <use x="255.126953" xlink:href="#DejaVuSans-32"/>
    </g>
   </g>
   <g id="legend_1">
    <g id="patch_7">
     <path d="M 144.327812 140.541562 
L 298.472188 140.541562 
Q 300.672188 140.541562 300.672188 138.341563 
L 300.672188 42.26 
Q 300.672188 40.06 298.472188 40.06 
L 144.327812 40.06 
Q 142.127813 40.06 142.127813 42.26 
L 142.127813 138.341563 
Q 142.127813 140.541562 144.327812 140.541562 
z
" style="fill:#ffffff;opacity:0.8;stroke:#cccccc;stroke-linejoin:miter;"/>
    </g>
    <g id="line2d_18">
     <path d="M 146.527813 48.968281 
L 168.527813 48.968281 
" style="fill:none;stroke:#0000ff;stroke-linecap:square;stroke-width:2;"/>
    </g>
    <g id="line2d_19"/>
    <g id="text_18">
     <!-- ture function -->
     <g transform="translate(177.327813 52.818281)scale(0.11 -0.11)">
      <defs>
       <path d="M 2375 4863 
L 2375 4384 
L 1825 4384 
Q 1516 4384 1395 4259 
Q 1275 4134 1275 3809 
L 1275 3500 
L 2222 3500 
L 2222 3053 
L 1275 3053 
L 1275 0 
L 697 0 
L 697 3053 
L 147 3053 
L 147 3500 
L 697 3500 
L 697 3744 
Q 697 4328 969 4595 
Q 1241 4863 1831 4863 
L 2375 4863 
z
" id="DejaVuSans-66" transform="scale(0.015625)"/>
       <path d="M 3122 3366 
L 3122 2828 
Q 2878 2963 2633 3030 
Q 2388 3097 2138 3097 
Q 1578 3097 1268 2742 
Q 959 2388 959 1747 
Q 959 1106 1268 751 
Q 1578 397 2138 397 
Q 2388 397 2633 464 
Q 2878 531 3122 666 
L 3122 134 
Q 2881 22 2623 -34 
Q 2366 -91 2075 -91 
Q 1284 -91 818 406 
Q 353 903 353 1747 
Q 353 2603 823 3093 
Q 1294 3584 2113 3584 
Q 2378 3584 2631 3529 
Q 2884 3475 3122 3366 
z
" id="DejaVuSans-63" transform="scale(0.015625)"/>
      </defs>
      <use xlink:href="#DejaVuSans-74"/>
      <use x="39.208984" xlink:href="#DejaVuSans-75"/>
      <use x="102.587891" xlink:href="#DejaVuSans-72"/>
      <use x="141.451172" xlink:href="#DejaVuSans-65"/>
      <use x="202.974609" xlink:href="#DejaVuSans-20"/>
      <use x="234.761719" xlink:href="#DejaVuSans-66"/>
      <use x="269.966797" xlink:href="#DejaVuSans-75"/>
      <use x="333.345703" xlink:href="#DejaVuSans-6e"/>
      <use x="396.724609" xlink:href="#DejaVuSans-63"/>
      <use x="451.705078" xlink:href="#DejaVuSans-74"/>
      <use x="490.914062" xlink:href="#DejaVuSans-69"/>
      <use x="518.697266" xlink:href="#DejaVuSans-6f"/>
      <use x="579.878906" xlink:href="#DejaVuSans-6e"/>
     </g>
    </g>
    <g id="line2d_20">
     <path d="M 146.527813 65.114219 
L 168.527813 65.114219 
" style="fill:none;stroke:#000000;stroke-dasharray:7.4,3.2;stroke-dashoffset:0;stroke-width:2;"/>
    </g>
    <g id="line2d_21"/>
    <g id="text_19">
     <!-- predicted function -->
     <g transform="translate(177.327813 68.964219)scale(0.11 -0.11)">
      <use xlink:href="#DejaVuSans-70"/>
      <use x="63.476562" xlink:href="#DejaVuSans-72"/>
      <use x="102.339844" xlink:href="#DejaVuSans-65"/>
      <use x="163.863281" xlink:href="#DejaVuSans-64"/>
      <use x="227.339844" xlink:href="#DejaVuSans-69"/>
      <use x="255.123047" xlink:href="#DejaVuSans-63"/>
      <use x="310.103516" xlink:href="#DejaVuSans-74"/>
      <use x="349.3125" xlink:href="#DejaVuSans-65"/>
      <use x="410.835938" xlink:href="#DejaVuSans-64"/>
      <use x="474.3125" xlink:href="#DejaVuSans-20"/>
      <use x="506.099609" xlink:href="#DejaVuSans-66"/>
      <use x="541.304688" xlink:href="#DejaVuSans-75"/>
      <use x="604.683594" xlink:href="#DejaVuSans-6e"/>
      <use x="668.0625" xlink:href="#DejaVuSans-63"/>
      <use x="723.042969" xlink:href="#DejaVuSans-74"/>
      <use x="762.251953" xlink:href="#DejaVuSans-69"/>
      <use x="790.035156" xlink:href="#DejaVuSans-6f"/>
      <use x="851.216797" xlink:href="#DejaVuSans-6e"/>
     </g>
    </g>
    <g id="line2d_22">
     <path d="M 146.527813 81.260156 
L 168.527813 81.260156 
" style="fill:none;stroke:#008000;stroke-dasharray:3.7,1.6;stroke-dashoffset:0;"/>
    </g>
    <g id="line2d_23"/>
    <g id="text_20">
     <!--  ± Sn(x) -->
     <g transform="translate(177.327813 85.110156)scale(0.11 -0.11)">
      <defs>
       <path d="M 2944 4013 
L 2944 2803 
L 4684 2803 
L 4684 2272 
L 2944 2272 
L 2944 1063 
L 2419 1063 
L 2419 2272 
L 678 2272 
L 678 2803 
L 2419 2803 
L 2419 4013 
L 2944 4013 
z
M 678 531 
L 4684 531 
L 4684 0 
L 678 0 
L 678 531 
z
" id="DejaVuSans-b1" transform="scale(0.015625)"/>
       <path d="M 3425 4513 
L 3425 3897 
Q 3066 4069 2747 4153 
Q 2428 4238 2131 4238 
Q 1616 4238 1336 4038 
Q 1056 3838 1056 3469 
Q 1056 3159 1242 3001 
Q 1428 2844 1947 2747 
L 2328 2669 
Q 3034 2534 3370 2195 
Q 3706 1856 3706 1288 
Q 3706 609 3251 259 
Q 2797 -91 1919 -91 
Q 1588 -91 1214 -16 
Q 841 59 441 206 
L 441 856 
Q 825 641 1194 531 
Q 1563 422 1919 422 
Q 2459 422 2753 634 
Q 3047 847 3047 1241 
Q 3047 1584 2836 1778 
Q 2625 1972 2144 2069 
L 1759 2144 
Q 1053 2284 737 2584 
Q 422 2884 422 3419 
Q 422 4038 858 4394 
Q 1294 4750 2059 4750 
Q 2388 4750 2728 4690 
Q 3069 4631 3425 4513 
z
" id="DejaVuSans-53" transform="scale(0.015625)"/>
       <path d="M 1984 4856 
Q 1566 4138 1362 3434 
Q 1159 2731 1159 2009 
Q 1159 1288 1364 580 
Q 1569 -128 1984 -844 
L 1484 -844 
Q 1016 -109 783 600 
Q 550 1309 550 2009 
Q 550 2706 781 3412 
Q 1013 4119 1484 4856 
L 1984 4856 
z
" id="DejaVuSans-28" transform="scale(0.015625)"/>
       <path d="M 513 4856 
L 1013 4856 
Q 1481 4119 1714 3412 
Q 1947 2706 1947 2009 
Q 1947 1309 1714 600 
Q 1481 -109 1013 -844 
L 513 -844 
Q 928 -128 1133 580 
Q 1338 1288 1338 2009 
Q 1338 2731 1133 3434 
Q 928 4138 513 4856 
z
" id="DejaVuSans-29" transform="scale(0.015625)"/>
      </defs>
      <use xlink:href="#DejaVuSans-20"/>
      <use x="31.787109" xlink:href="#DejaVuSans-b1"/>
      <use x="115.576172" xlink:href="#DejaVuSans-20"/>
      <use x="147.363281" xlink:href="#DejaVuSans-53"/>
      <use x="210.839844" xlink:href="#DejaVuSans-6e"/>
      <use x="274.21875" xlink:href="#DejaVuSans-28"/>
      <use x="313.232422" xlink:href="#DejaVuSans-78"/>
      <use x="372.412109" xlink:href="#DejaVuSans-29"/>
     </g>
    </g>
    <g id="line2d_24">
     <path d="M 146.527813 97.406094 
L 168.527813 97.406094 
" style="fill:none;stroke:#bfbf00;stroke-dasharray:7.4,3.2;stroke-dashoffset:0;stroke-width:2;"/>
    </g>
    <g id="line2d_25"/>
    <g id="text_21">
     <!-- EI_plugin(x) -->
     <g transform="translate(177.327813 101.256094)scale(0.11 -0.11)">
      <use xlink:href="#DejaVuSans-45"/>
      <use x="63.183594" xlink:href="#DejaVuSans-49"/>
      <use x="92.675781" xlink:href="#DejaVuSans-5f"/>
      <use x="142.675781" xlink:href="#DejaVuSans-70"/>
      <use x="206.152344" xlink:href="#DejaVuSans-6c"/>
      <use x="233.935547" xlink:href="#DejaVuSans-75"/>
      <use x="297.314453" xlink:href="#DejaVuSans-67"/>
      <use x="360.791016" xlink:href="#DejaVuSans-69"/>
      <use x="388.574219" xlink:href="#DejaVuSans-6e"/>
      <use x="451.953125" xlink:href="#DejaVuSans-28"/>
      <use x="490.966797" xlink:href="#DejaVuSans-78"/>
      <use x="550.146484" xlink:href="#DejaVuSans-29"/>
     </g>
    </g>
    <g id="PathCollection_2">
     <defs>
      <path d="M 0 3.535534 
C 0.937635 3.535534 1.836992 3.163008 2.5 2.5 
C 3.163008 1.836992 3.535534 0.937635 3.535534 0 
C 3.535534 -0.937635 3.163008 -1.836992 2.5 -2.5 
C 1.836992 -3.163008 0.937635 -3.535534 0 -3.535534 
C -0.937635 -3.535534 -1.836992 -3.163008 -2.5 -2.5 
C -3.163008 -1.836992 -3.535534 -0.937635 -3.535534 0 
C -3.535534 0.937635 -3.163008 1.836992 -2.5 2.5 
C -1.836992 3.163008 -0.937635 3.535534 0 3.535534 
z
" id="m3250c8a886" style="stroke:#000000;"/>
     </defs>
     <g>
      <use style="fill:#ff0000;stroke:#000000;" x="157.527813" xlink:href="#m3250c8a886" y="114.820469"/>
     </g>
    </g>
    <g id="text_22">
     <!-- training data -->
     <g transform="translate(177.327813 117.707969)scale(0.11 -0.11)">
      <defs>
       <path d="M 2194 1759 
Q 1497 1759 1228 1600 
Q 959 1441 959 1056 
Q 959 750 1161 570 
Q 1363 391 1709 391 
Q 2188 391 2477 730 
Q 2766 1069 2766 1631 
L 2766 1759 
L 2194 1759 
z
M 3341 1997 
L 3341 0 
L 2766 0 
L 2766 531 
Q 2569 213 2275 61 
Q 1981 -91 1556 -91 
Q 1019 -91 701 211 
Q 384 513 384 1019 
Q 384 1609 779 1909 
Q 1175 2209 1959 2209 
L 2766 2209 
L 2766 2266 
Q 2766 2663 2505 2880 
Q 2244 3097 1772 3097 
Q 1472 3097 1187 3025 
Q 903 2953 641 2809 
L 641 3341 
Q 956 3463 1253 3523 
Q 1550 3584 1831 3584 
Q 2591 3584 2966 3190 
Q 3341 2797 3341 1997 
z
" id="DejaVuSans-61" transform="scale(0.015625)"/>
      </defs>
      <use xlink:href="#DejaVuSans-74"/>
      <use x="39.208984" xlink:href="#DejaVuSans-72"/>
      <use x="80.322266" xlink:href="#DejaVuSans-61"/>
      <use x="141.601562" xlink:href="#DejaVuSans-69"/>
      <use x="169.384766" xlink:href="#DejaVuSans-6e"/>
      <use x="232.763672" xlink:href="#DejaVuSans-69"/>
      <use x="260.546875" xlink:href="#DejaVuSans-6e"/>
      <use x="323.925781" xlink:href="#DejaVuSans-67"/>
      <use x="387.402344" xlink:href="#DejaVuSans-20"/>
      <use x="419.189453" xlink:href="#DejaVuSans-64"/>
      <use x="482.666016" xlink:href="#DejaVuSans-61"/>
      <use x="543.945312" xlink:href="#DejaVuSans-74"/>
      <use x="583.154297" xlink:href="#DejaVuSans-61"/>
     </g>
    </g>
    <g id="PathCollection_3">
     <g>
      <use style="fill:#ff0000;stroke:#ff0000;stroke-width:8;" x="157.527813" xlink:href="#m51ca6b8f92" y="130.966406"/>
     </g>
    </g>
    <g id="text_23">
     <!-- recommended datum -->
     <g transform="translate(177.327813 133.853906)scale(0.11 -0.11)">
      <defs>
       <path d="M 3328 2828 
Q 3544 3216 3844 3400 
Q 4144 3584 4550 3584 
Q 5097 3584 5394 3201 
Q 5691 2819 5691 2113 
L 5691 0 
L 5113 0 
L 5113 2094 
Q 5113 2597 4934 2840 
Q 4756 3084 4391 3084 
Q 3944 3084 3684 2787 
Q 3425 2491 3425 1978 
L 3425 0 
L 2847 0 
L 2847 2094 
Q 2847 2600 2669 2842 
Q 2491 3084 2119 3084 
Q 1678 3084 1418 2786 
Q 1159 2488 1159 1978 
L 1159 0 
L 581 0 
L 581 3500 
L 1159 3500 
L 1159 2956 
Q 1356 3278 1631 3431 
Q 1906 3584 2284 3584 
Q 2666 3584 2933 3390 
Q 3200 3197 3328 2828 
z
" id="DejaVuSans-6d" transform="scale(0.015625)"/>
      </defs>
      <use xlink:href="#DejaVuSans-72"/>
      <use x="38.863281" xlink:href="#DejaVuSans-65"/>
      <use x="100.386719" xlink:href="#DejaVuSans-63"/>
      <use x="155.367188" xlink:href="#DejaVuSans-6f"/>
      <use x="216.548828" xlink:href="#DejaVuSans-6d"/>
      <use x="313.960938" xlink:href="#DejaVuSans-6d"/>
      <use x="411.373047" xlink:href="#DejaVuSans-65"/>
      <use x="472.896484" xlink:href="#DejaVuSans-6e"/>
      <use x="536.275391" xlink:href="#DejaVuSans-64"/>
      <use x="599.751953" xlink:href="#DejaVuSans-65"/>
      <use x="661.275391" xlink:href="#DejaVuSans-64"/>
      <use x="724.751953" xlink:href="#DejaVuSans-20"/>
      <use x="756.539062" xlink:href="#DejaVuSans-64"/>
      <use x="820.015625" xlink:href="#DejaVuSans-61"/>
      <use x="881.294922" xlink:href="#DejaVuSans-74"/>
      <use x="920.503906" xlink:href="#DejaVuSans-75"/>
      <use x="983.882812" xlink:href="#DejaVuSans-6d"/>
     </g>
    </g>
   </g>
   <g id="line2d_26">
    <path clip-path="url(#pc159020475)" d="M 69.218182 149.892437 
L 71.985124 148.802757 
L 74.752066 148.224521 
L 77.519008 148.213739 
L 80.28595 148.807081 
L 83.052893 150.01869 
L 85.819835 151.838208 
L 88.586777 154.230239 
L 91.353719 157.135331 
L 94.120661 160.472476 
L 96.887603 164.142967 
L 99.654545 168.035368 
L 102.421488 172.031251 
L 105.18843 176.011287 
L 107.955372 179.86128 
L 110.722314 183.477715 
L 113.489256 186.772476 
L 116.256198 189.676438 
L 119.02314 192.141745 
L 121.790083 194.142707 
L 124.557025 195.675332 
L 127.323967 196.755619 
L 130.090909 197.416819 
L 132.857851 197.705927 
L 135.624793 197.679686 
L 138.391736 197.400419 
L 141.158678 196.931963 
L 143.92562 196.335957 
L 146.692562 195.668694 
L 149.459504 194.978668 
L 152.226446 194.304915 
L 154.993388 193.676146 
L 157.760331 193.110663 
L 160.527273 192.61696 
L 163.294215 192.19488 
L 166.061157 191.837207 
L 168.828099 191.531505 
L 171.595041 191.262063 
L 174.361983 191.011794 
L 177.128926 190.763952 
L 179.895868 190.503574 
L 182.66281 190.218585 
L 185.429752 189.900522 
L 188.196694 189.544889 
L 190.963636 189.151165 
L 193.730579 188.722539 
L 196.497521 188.26541 
L 199.264463 187.788773 
L 202.031405 187.303543 
L 204.798347 186.821902 
L 207.565289 186.356739 
L 210.332231 185.921217 
L 213.099174 185.528509 
L 215.866116 185.191696 
L 218.633058 184.923831 
L 221.4 184.738131 
L 224.166942 184.648252 
L 226.933884 184.668604 
L 229.700826 184.814631 
L 232.467769 185.103004 
L 235.234711 185.551648 
L 238.001653 186.179564 
L 240.768595 187.006383 
L 243.535537 188.05163 
L 246.302479 189.333677 
L 249.069421 190.868404 
L 251.836364 192.667595 
L 254.603306 194.737134 
L 257.370248 197.075095 
L 260.13719 199.669825 
L 262.904132 202.498163 
L 265.671074 205.52393 
L 268.438017 208.696836 
L 271.204959 211.951943 
L 273.971901 215.209804 
L 276.738843 218.377371 
L 279.505785 221.349731 
L 282.272727 224.012696 
L 285.039669 226.246204 
L 287.806612 227.92846 
L 290.573554 228.940709 
L 293.340496 229.17244 
L 296.107438 228.526844 
L 298.87438 226.926257 
L 301.641322 224.317328 
L 304.408264 220.67561 
L 307.175207 216.009284 
L 309.942149 210.361734 
L 312.709091 203.812694 
L 315.476033 196.477773 
L 318.242975 188.506213 
L 321.009917 180.076829 
L 323.77686 171.392196 
L 326.543802 162.67127 
L 329.310744 154.14075 
L 332.077686 146.025621 
L 334.844628 138.53938 
L 337.61157 131.874558 
L 340.378512 126.194113 
L 343.145455 121.624277 
L 345.912397 118.24934 
L 348.679339 116.108719 
L 351.446281 115.196504 
L 354.213223 115.463481 
L 356.980165 116.821447 
L 359.747107 119.149461 
L 362.51405 122.301539 
L 365.280992 126.115207 
L 368.047934 130.420308 
L 370.814876 135.047456 
L 373.581818 139.835622 
" style="fill:none;stroke:#000000;stroke-dasharray:7.4,3.2;stroke-dashoffset:0;stroke-width:2;"/>
   </g>
   <g id="PathCollection_4">
    <g clip-path="url(#pc159020475)">
     <use style="fill:#ff0000;stroke:#000000;" x="83.052893" xlink:href="#m3250c8a886" y="129.399309"/>
     <use style="fill:#ff0000;stroke:#000000;" x="96.887603" xlink:href="#m3250c8a886" y="162.429541"/>
     <use style="fill:#ff0000;stroke:#000000;" x="110.722314" xlink:href="#m3250c8a886" y="193.170209"/>
     <use style="fill:#ff0000;stroke:#000000;" x="124.557025" xlink:href="#m3250c8a886" y="199.248575"/>
     <use style="fill:#ff0000;stroke:#000000;" x="138.391736" xlink:href="#m3250c8a886" y="199.347548"/>
     <use style="fill:#ff0000;stroke:#000000;" x="152.226446" xlink:href="#m3250c8a886" y="191.611971"/>
     <use style="fill:#ff0000;stroke:#000000;" x="166.061157" xlink:href="#m3250c8a886" y="193.66847"/>
     <use style="fill:#ff0000;stroke:#000000;" x="179.895868" xlink:href="#m3250c8a886" y="193.283098"/>
     <use style="fill:#ff0000;stroke:#000000;" x="193.730579" xlink:href="#m3250c8a886" y="188.924027"/>
     <use style="fill:#ff0000;stroke:#000000;" x="318.242975" xlink:href="#m3250c8a886" y="199.289596"/>
     <use style="fill:#ff0000;stroke:#000000;" x="332.077686" xlink:href="#m3250c8a886" y="145.37007"/>
     <use style="fill:#ff0000;stroke:#000000;" x="345.912397" xlink:href="#m3250c8a886" y="78.407322"/>
     <use style="fill:#ff0000;stroke:#000000;" x="298.87438" xlink:href="#m3250c8a886" y="243.058876"/>
     <use style="fill:#ff0000;stroke:#000000;" x="287.806612" xlink:href="#m3250c8a886" y="233.41454"/>
    </g>
   </g>
  </g>
 </g>
 <defs>
  <clipPath id="pc159020475">
   <rect height="217.44" width="334.8" x="54" y="34.56"/>
  </clipPath>
 </defs>
</svg>
