<?xml version="1.0" encoding="utf-8" standalone="no"?>
<!DOCTYPE svg PUBLIC "-//W3C//DTD SVG 1.1//EN"
  "http://www.w3.org/Graphics/SVG/1.1/DTD/svg11.dtd">
<svg height="288pt" version="1.1" viewBox="0 0 432 288" width="432pt" xmlns="http://www.w3.org/2000/svg" xmlns:xlink="http://www.w3.org/1999/xlink">
 <metadata>
  <rdf:RDF xmlns:cc="http://creativecommons.org/ns#" xmlns:dc="http://purl.org/dc/elements/1.1/" xmlns:rdf="http://www.w3.org/1999/02/22-rdf-syntax-ns#">
   <cc:Work>
    <dc:type rdf:resource="http://purl.org/dc/dcmitype/StillImage"/>
    <dc:date>2022-08-04T11:31:43.288070</dc:date>
    <dc:format>image/svg+xml</dc:format>
    <dc:creator>
     <cc:Agent>
      <dc:title>Matplotlib v3.4.3, https://matplotlib.org/</dc:title>
     </cc:Agent>
    </dc:creator>
   </cc:Work>
  </rdf:RDF>
 </metadata>
 <defs>
  <style type="text/css">*{stroke-linecap:butt;stroke-linejoin:round;}</style>
 </defs>
 <g id="figure_1">
  <g id="patch_1">
   <path d="M 0 288 
L 432 288 
L 432 0 
L 0 0 
z
" style="fill:none;"/>
  </g>
  <g id="axes_1">
   <g id="patch_2">
    <path d="M 54 252 
L 388.8 252 
L 388.8 34.56 
L 54 34.56 
z
" style="fill:#ffffff;"/>
   </g>
   <g id="PolyCollection_1">
    <defs>
     <path d="M 69.218182 -170.35931 
L 69.218182 -123.336396 
L 71.985124 -125.750364 
L 74.752066 -127.502294 
L 77.519008 -128.50233 
L 80.28595 -128.681688 
L 83.052893 -128.000357 
L 85.819835 -126.455589 
L 88.586777 -124.089451 
L 91.353719 -120.991796 
L 94.120661 -117.295078 
L 96.887603 -113.160876 
L 99.654545 -108.762542 
L 102.421488 -104.269542 
L 105.18843 -99.836556 
L 107.955372 -95.597337 
L 110.722314 -91.661968 
L 113.489256 -88.116136 
L 116.256198 -85.021555 
L 119.02314 -82.417033 
L 121.790083 -80.319947 
L 124.557025 -78.728003 
L 127.323967 -77.621241 
L 130.090909 -76.964323 
L 132.857851 -76.709142 
L 135.624793 -76.797782 
L 138.391736 -77.165786 
L 141.158678 -77.745634 
L 143.92562 -78.470278 
L 146.692562 -79.276561 
L 149.459504 -80.10832 
L 152.226446 -80.919003 
L 154.993388 -81.67357 
L 157.760331 -82.349484 
L 160.527273 -82.936564 
L 163.294215 -83.435552 
L 166.061157 -83.855346 
L 168.828099 -84.208994 
L 171.595041 -84.508709 
L 174.361983 -84.760389 
L 177.128926 -84.958416 
L 179.895868 -85.081952 
L 182.66281 -85.094465 
L 185.429752 -84.948224 
L 188.196694 -84.594097 
L 190.963636 -83.993902 
L 193.730579 -83.129946 
L 196.497521 -82.007561 
L 199.264463 -80.650826 
L 202.031405 -79.09513 
L 204.798347 -77.3801 
L 207.565289 -75.54453 
L 210.332231 -73.623344 
L 213.099174 -71.646072 
L 215.866116 -69.636351 
L 218.633058 -67.612107 
L 221.4 -65.586249 
L 224.166942 -63.567735 
L 226.933884 -61.562916 
L 229.700826 -59.577006 
L 232.467769 -57.615545 
L 235.234711 -55.6857 
L 238.001653 -53.797226 
L 240.768595 -51.963006 
L 243.535537 -50.199062 
L 246.302479 -48.524067 
L 249.069421 -46.958398 
L 251.836364 -45.522867 
L 254.603306 -44.237303 
L 257.370248 -43.119184 
L 260.13719 -42.182519 
L 262.904132 -41.437169 
L 265.671074 -40.888749 
L 268.438017 -40.539207 
L 271.204959 -40.388135 
L 273.971901 -40.4348 
L 276.738843 -40.680838 
L 279.505785 -41.133479 
L 282.272727 -41.80897 
L 285.039669 -42.735614 
L 287.806612 -43.955494 
L 290.573554 -45.523926 
L 293.340496 -47.506188 
L 296.107438 -49.972094 
L 298.87438 -52.989717 
L 301.641322 -56.619515 
L 304.408264 -60.909372 
L 307.175207 -65.890407 
L 309.942149 -71.573141 
L 312.709091 -77.94383 
L 315.476033 -84.961051 
L 318.242975 -92.552811 
L 321.009917 -100.61454 
L 323.77686 -109.008236 
L 326.543802 -117.563074 
L 329.310744 -126.077893 
L 332.077686 -134.326413 
L 334.844628 -142.066503 
L 337.61157 -149.054804 
L 340.378512 -155.066316 
L 343.145455 -159.915091 
L 345.912397 -163.469686 
L 348.679339 -165.659045 
L 351.446281 -166.469717 
L 354.213223 -165.938619 
L 356.980165 -164.144878 
L 359.747107 -161.202125 
L 362.51405 -157.251135 
L 365.280992 -152.452479 
L 368.047934 -146.979047 
L 370.814876 -141.008578 
L 373.581818 -134.716518 
L 373.581818 -199.030748 
L 373.581818 -199.030748 
L 370.814876 -202.347396 
L 368.047934 -205.051576 
L 365.280992 -207.013162 
L 362.51405 -208.11708 
L 359.747107 -208.269991 
L 356.980165 -207.406373 
L 354.213223 -205.49338 
L 351.446281 -202.533795 
L 348.679339 -198.566152 
L 345.912397 -193.661052 
L 343.145455 -187.913255 
L 340.378512 -181.43075 
L 337.61157 -174.324547 
L 334.844628 -166.703864 
L 332.077686 -158.678299 
L 329.310744 -150.363564 
L 326.543802 -141.885431 
L 323.77686 -133.379069 
L 321.009917 -124.984335 
L 318.242975 -116.839146 
L 315.476033 -109.072876 
L 312.709091 -101.800952 
L 309.942149 -95.121197 
L 307.175207 -89.112016 
L 304.408264 -83.832332 
L 301.641322 -79.323039 
L 298.87438 -75.609599 
L 296.107438 -72.705159 
L 293.340496 -70.613347 
L 290.573554 -69.329777 
L 287.806612 -68.841707 
L 285.039669 -69.126103 
L 282.272727 -70.147277 
L 279.505785 -71.855478 
L 276.738843 -74.187185 
L 273.971901 -77.066927 
L 271.204959 -80.409967 
L 268.438017 -84.12524 
L 265.671074 -88.11821 
L 262.904132 -92.293518 
L 260.13719 -96.557406 
L 257.370248 -100.819887 
L 254.603306 -104.996606 
L 251.836364 -109.010359 
L 249.069421 -112.792199 
L 246.302479 -116.282146 
L 243.535537 -119.429507 
L 240.768595 -122.192907 
L 238.001653 -124.540106 
L 235.234711 -126.447753 
L 232.467769 -127.901164 
L 229.700826 -128.894222 
L 226.933884 -129.429439 
L 224.166942 -129.518164 
L 221.4 -129.180898 
L 218.633058 -128.447605 
L 215.866116 -127.357925 
L 213.099174 -125.96116 
L 210.332231 -124.315927 
L 207.565289 -122.489367 
L 204.798347 -120.555792 
L 202.031405 -118.594584 
L 199.264463 -116.68703 
L 196.497521 -114.91163 
L 193.730579 -113.337404 
L 190.963636 -112.015324 
L 188.196694 -110.969575 
L 185.429752 -110.19231 
L 182.66281 -109.645643 
L 179.895868 -109.271214 
L 177.128926 -109.003194 
L 174.361983 -108.77945 
L 171.595041 -108.548131 
L 168.828099 -108.26996 
L 166.061157 -107.917884 
L 163.294215 -107.475647 
L 160.527273 -106.93629 
L 157.760331 -106.301083 
L 154.993388 -105.579079 
L 152.226446 -104.787244 
L 149.459504 -103.95096 
L 146.692562 -103.104593 
L 143.92562 -102.291785 
L 141.158678 -101.56512 
L 138.391736 -100.984952 
L 135.624793 -100.617279 
L 132.857851 -100.530668 
L 130.090909 -100.792377 
L 127.323967 -101.4639 
L 124.557025 -102.596258 
L 121.790083 -104.225461 
L 119.02314 -106.36863 
L 116.256198 -109.021287 
L 113.489256 -112.156264 
L 110.722314 -115.724594 
L 107.955372 -119.658479 
L 105.18843 -123.876269 
L 102.421488 -128.289012 
L 99.654545 -132.807813 
L 96.887603 -137.350633 
L 94.120661 -141.846633 
L 91.353719 -146.236045 
L 88.586777 -150.46493 
L 85.819835 -154.477266 
L 83.052893 -158.209378 
L 80.28595 -161.590675 
L 77.519008 -164.550292 
L 74.752066 -167.025876 
L 71.985124 -168.970956 
L 69.218182 -170.35931 
z
" id="me93f4ea707" style="stroke:#add8e6;stroke-opacity:0.2;"/>
    </defs>
    <g clip-path="url(#pa3811e0428)">
     <use style="fill:#add8e6;fill-opacity:0.2;stroke:#add8e6;stroke-opacity:0.2;" x="0" xlink:href="#me93f4ea707" y="288"/>
    </g>
   </g>
   <g id="PathCollection_1">
    <defs>
     <path d="M 0 0.612372 
C 0.162403 0.612372 0.318176 0.547849 0.433013 0.433013 
C 0.547849 0.318176 0.612372 0.162403 0.612372 0 
C 0.612372 -0.162403 0.547849 -0.318176 0.433013 -0.433013 
C 0.318176 -0.547849 0.162403 -0.612372 0 -0.612372 
C -0.162403 -0.612372 -0.318176 -0.547849 -0.433013 -0.433013 
C -0.547849 -0.318176 -0.612372 -0.162403 -0.612372 0 
C -0.612372 0.162403 -0.547849 0.318176 -0.433013 0.433013 
C -0.318176 0.547849 -0.162403 0.612372 0 0.612372 
z
" id="m83349a2959" style="stroke:#ff0000;stroke-width:8;"/>
    </defs>
    <g clip-path="url(#pa3811e0428)">
     <use style="fill:#ff0000;stroke:#ff0000;stroke-width:8;" x="260.13719" xlink:href="#m83349a2959" y="225.024673"/>
    </g>
   </g>
   <g id="matplotlib.axis_1">
    <g id="xtick_1">
     <g id="line2d_1">
      <defs>
       <path d="M 0 0 
L 0 3.5 
" id="m74b2b8d87c" style="stroke:#000000;stroke-width:0.8;"/>
      </defs>
      <g>
       <use style="stroke:#000000;stroke-width:0.8;" x="69.218182" xlink:href="#m74b2b8d87c" y="252"/>
      </g>
     </g>
     <g id="text_1">
      <!-- 0 -->
      <g transform="translate(66.036932 266.598437)scale(0.1 -0.1)">
       <defs>
        <path d="M 2034 4250 
Q 1547 4250 1301 3770 
Q 1056 3291 1056 2328 
Q 1056 1369 1301 889 
Q 1547 409 2034 409 
Q 2525 409 2770 889 
Q 3016 1369 3016 2328 
Q 3016 3291 2770 3770 
Q 2525 4250 2034 4250 
z
M 2034 4750 
Q 2819 4750 3233 4129 
Q 3647 3509 3647 2328 
Q 3647 1150 3233 529 
Q 2819 -91 2034 -91 
Q 1250 -91 836 529 
Q 422 1150 422 2328 
Q 422 3509 836 4129 
Q 1250 4750 2034 4750 
z
" id="DejaVuSans-30" transform="scale(0.015625)"/>
       </defs>
       <use xlink:href="#DejaVuSans-30"/>
      </g>
     </g>
    </g>
    <g id="xtick_2">
     <g id="line2d_2">
      <g>
       <use style="stroke:#000000;stroke-width:0.8;" x="124.557025" xlink:href="#m74b2b8d87c" y="252"/>
      </g>
     </g>
     <g id="text_2">
      <!-- 2 -->
      <g transform="translate(121.375775 266.598437)scale(0.1 -0.1)">
       <defs>
        <path d="M 1228 531 
L 3431 531 
L 3431 0 
L 469 0 
L 469 531 
Q 828 903 1448 1529 
Q 2069 2156 2228 2338 
Q 2531 2678 2651 2914 
Q 2772 3150 2772 3378 
Q 2772 3750 2511 3984 
Q 2250 4219 1831 4219 
Q 1534 4219 1204 4116 
Q 875 4013 500 3803 
L 500 4441 
Q 881 4594 1212 4672 
Q 1544 4750 1819 4750 
Q 2544 4750 2975 4387 
Q 3406 4025 3406 3419 
Q 3406 3131 3298 2873 
Q 3191 2616 2906 2266 
Q 2828 2175 2409 1742 
Q 1991 1309 1228 531 
z
" id="DejaVuSans-32" transform="scale(0.015625)"/>
       </defs>
       <use xlink:href="#DejaVuSans-32"/>
      </g>
     </g>
    </g>
    <g id="xtick_3">
     <g id="line2d_3">
      <g>
       <use style="stroke:#000000;stroke-width:0.8;" x="179.895868" xlink:href="#m74b2b8d87c" y="252"/>
      </g>
     </g>
     <g id="text_3">
      <!-- 4 -->
      <g transform="translate(176.714618 266.598437)scale(0.1 -0.1)">
       <defs>
        <path d="M 2419 4116 
L 825 1625 
L 2419 1625 
L 2419 4116 
z
M 2253 4666 
L 3047 4666 
L 3047 1625 
L 3713 1625 
L 3713 1100 
L 3047 1100 
L 3047 0 
L 2419 0 
L 2419 1100 
L 313 1100 
L 313 1709 
L 2253 4666 
z
" id="DejaVuSans-34" transform="scale(0.015625)"/>
       </defs>
       <use xlink:href="#DejaVuSans-34"/>
      </g>
     </g>
    </g>
    <g id="xtick_4">
     <g id="line2d_4">
      <g>
       <use style="stroke:#000000;stroke-width:0.8;" x="235.234711" xlink:href="#m74b2b8d87c" y="252"/>
      </g>
     </g>
     <g id="text_4">
      <!-- 6 -->
      <g transform="translate(232.053461 266.598437)scale(0.1 -0.1)">
       <defs>
        <path d="M 2113 2584 
Q 1688 2584 1439 2293 
Q 1191 2003 1191 1497 
Q 1191 994 1439 701 
Q 1688 409 2113 409 
Q 2538 409 2786 701 
Q 3034 994 3034 1497 
Q 3034 2003 2786 2293 
Q 2538 2584 2113 2584 
z
M 3366 4563 
L 3366 3988 
Q 3128 4100 2886 4159 
Q 2644 4219 2406 4219 
Q 1781 4219 1451 3797 
Q 1122 3375 1075 2522 
Q 1259 2794 1537 2939 
Q 1816 3084 2150 3084 
Q 2853 3084 3261 2657 
Q 3669 2231 3669 1497 
Q 3669 778 3244 343 
Q 2819 -91 2113 -91 
Q 1303 -91 875 529 
Q 447 1150 447 2328 
Q 447 3434 972 4092 
Q 1497 4750 2381 4750 
Q 2619 4750 2861 4703 
Q 3103 4656 3366 4563 
z
" id="DejaVuSans-36" transform="scale(0.015625)"/>
       </defs>
       <use xlink:href="#DejaVuSans-36"/>
      </g>
     </g>
    </g>
    <g id="xtick_5">
     <g id="line2d_5">
      <g>
       <use style="stroke:#000000;stroke-width:0.8;" x="290.573554" xlink:href="#m74b2b8d87c" y="252"/>
      </g>
     </g>
     <g id="text_5">
      <!-- 8 -->
      <g transform="translate(287.392304 266.598437)scale(0.1 -0.1)">
       <defs>
        <path d="M 2034 2216 
Q 1584 2216 1326 1975 
Q 1069 1734 1069 1313 
Q 1069 891 1326 650 
Q 1584 409 2034 409 
Q 2484 409 2743 651 
Q 3003 894 3003 1313 
Q 3003 1734 2745 1975 
Q 2488 2216 2034 2216 
z
M 1403 2484 
Q 997 2584 770 2862 
Q 544 3141 544 3541 
Q 544 4100 942 4425 
Q 1341 4750 2034 4750 
Q 2731 4750 3128 4425 
Q 3525 4100 3525 3541 
Q 3525 3141 3298 2862 
Q 3072 2584 2669 2484 
Q 3125 2378 3379 2068 
Q 3634 1759 3634 1313 
Q 3634 634 3220 271 
Q 2806 -91 2034 -91 
Q 1263 -91 848 271 
Q 434 634 434 1313 
Q 434 1759 690 2068 
Q 947 2378 1403 2484 
z
M 1172 3481 
Q 1172 3119 1398 2916 
Q 1625 2713 2034 2713 
Q 2441 2713 2670 2916 
Q 2900 3119 2900 3481 
Q 2900 3844 2670 4047 
Q 2441 4250 2034 4250 
Q 1625 4250 1398 4047 
Q 1172 3844 1172 3481 
z
" id="DejaVuSans-38" transform="scale(0.015625)"/>
       </defs>
       <use xlink:href="#DejaVuSans-38"/>
      </g>
     </g>
    </g>
    <g id="xtick_6">
     <g id="line2d_6">
      <g>
       <use style="stroke:#000000;stroke-width:0.8;" x="345.912397" xlink:href="#m74b2b8d87c" y="252"/>
      </g>
     </g>
     <g id="text_6">
      <!-- 10 -->
      <g transform="translate(339.549897 266.598437)scale(0.1 -0.1)">
       <defs>
        <path d="M 794 531 
L 1825 531 
L 1825 4091 
L 703 3866 
L 703 4441 
L 1819 4666 
L 2450 4666 
L 2450 531 
L 3481 531 
L 3481 0 
L 794 0 
L 794 531 
z
" id="DejaVuSans-31" transform="scale(0.015625)"/>
       </defs>
       <use xlink:href="#DejaVuSans-31"/>
       <use x="63.623047" xlink:href="#DejaVuSans-30"/>
      </g>
     </g>
    </g>
    <g id="text_7">
     <!-- x -->
     <g transform="translate(217.84875 281.79625)scale(0.12 -0.12)">
      <defs>
       <path d="M 3513 3500 
L 2247 1797 
L 3578 0 
L 2900 0 
L 1881 1375 
L 863 0 
L 184 0 
L 1544 1831 
L 300 3500 
L 978 3500 
L 1906 2253 
L 2834 3500 
L 3513 3500 
z
" id="DejaVuSans-78" transform="scale(0.015625)"/>
      </defs>
      <use xlink:href="#DejaVuSans-78"/>
     </g>
    </g>
   </g>
   <g id="matplotlib.axis_2">
    <g id="ytick_1">
     <g id="line2d_7">
      <defs>
       <path d="M 0 0 
L -3.5 0 
" id="m5ea4bdef3c" style="stroke:#000000;stroke-width:0.8;"/>
      </defs>
      <g>
       <use style="stroke:#000000;stroke-width:0.8;" x="54" xlink:href="#m5ea4bdef3c" y="252"/>
      </g>
     </g>
     <g id="text_8">
      <!-- 3 -->
      <g transform="translate(40.6375 255.799219)scale(0.1 -0.1)">
       <defs>
        <path d="M 2597 2516 
Q 3050 2419 3304 2112 
Q 3559 1806 3559 1356 
Q 3559 666 3084 287 
Q 2609 -91 1734 -91 
Q 1441 -91 1130 -33 
Q 819 25 488 141 
L 488 750 
Q 750 597 1062 519 
Q 1375 441 1716 441 
Q 2309 441 2620 675 
Q 2931 909 2931 1356 
Q 2931 1769 2642 2001 
Q 2353 2234 1838 2234 
L 1294 2234 
L 1294 2753 
L 1863 2753 
Q 2328 2753 2575 2939 
Q 2822 3125 2822 3475 
Q 2822 3834 2567 4026 
Q 2313 4219 1838 4219 
Q 1578 4219 1281 4162 
Q 984 4106 628 3988 
L 628 4550 
Q 988 4650 1302 4700 
Q 1616 4750 1894 4750 
Q 2613 4750 3031 4423 
Q 3450 4097 3450 3541 
Q 3450 3153 3228 2886 
Q 3006 2619 2597 2516 
z
" id="DejaVuSans-33" transform="scale(0.015625)"/>
       </defs>
       <use xlink:href="#DejaVuSans-33"/>
      </g>
     </g>
    </g>
    <g id="ytick_2">
     <g id="line2d_8">
      <g>
       <use style="stroke:#000000;stroke-width:0.8;" x="54" xlink:href="#m5ea4bdef3c" y="215.76"/>
      </g>
     </g>
     <g id="text_9">
      <!-- 4 -->
      <g transform="translate(40.6375 219.559219)scale(0.1 -0.1)">
       <use xlink:href="#DejaVuSans-34"/>
      </g>
     </g>
    </g>
    <g id="ytick_3">
     <g id="line2d_9">
      <g>
       <use style="stroke:#000000;stroke-width:0.8;" x="54" xlink:href="#m5ea4bdef3c" y="179.52"/>
      </g>
     </g>
     <g id="text_10">
      <!-- 5 -->
      <g transform="translate(40.6375 183.319219)scale(0.1 -0.1)">
       <defs>
        <path d="M 691 4666 
L 3169 4666 
L 3169 4134 
L 1269 4134 
L 1269 2991 
Q 1406 3038 1543 3061 
Q 1681 3084 1819 3084 
Q 2600 3084 3056 2656 
Q 3513 2228 3513 1497 
Q 3513 744 3044 326 
Q 2575 -91 1722 -91 
Q 1428 -91 1123 -41 
Q 819 9 494 109 
L 494 744 
Q 775 591 1075 516 
Q 1375 441 1709 441 
Q 2250 441 2565 725 
Q 2881 1009 2881 1497 
Q 2881 1984 2565 2268 
Q 2250 2553 1709 2553 
Q 1456 2553 1204 2497 
Q 953 2441 691 2322 
L 691 4666 
z
" id="DejaVuSans-35" transform="scale(0.015625)"/>
       </defs>
       <use xlink:href="#DejaVuSans-35"/>
      </g>
     </g>
    </g>
    <g id="ytick_4">
     <g id="line2d_10">
      <g>
       <use style="stroke:#000000;stroke-width:0.8;" x="54" xlink:href="#m5ea4bdef3c" y="143.28"/>
      </g>
     </g>
     <g id="text_11">
      <!-- 6 -->
      <g transform="translate(40.6375 147.079219)scale(0.1 -0.1)">
       <use xlink:href="#DejaVuSans-36"/>
      </g>
     </g>
    </g>
    <g id="ytick_5">
     <g id="line2d_11">
      <g>
       <use style="stroke:#000000;stroke-width:0.8;" x="54" xlink:href="#m5ea4bdef3c" y="107.04"/>
      </g>
     </g>
     <g id="text_12">
      <!-- 7 -->
      <g transform="translate(40.6375 110.839219)scale(0.1 -0.1)">
       <defs>
        <path d="M 525 4666 
L 3525 4666 
L 3525 4397 
L 1831 0 
L 1172 0 
L 2766 4134 
L 525 4134 
L 525 4666 
z
" id="DejaVuSans-37" transform="scale(0.015625)"/>
       </defs>
       <use xlink:href="#DejaVuSans-37"/>
      </g>
     </g>
    </g>
    <g id="ytick_6">
     <g id="line2d_12">
      <g>
       <use style="stroke:#000000;stroke-width:0.8;" x="54" xlink:href="#m5ea4bdef3c" y="70.8"/>
      </g>
     </g>
     <g id="text_13">
      <!-- 8 -->
      <g transform="translate(40.6375 74.599219)scale(0.1 -0.1)">
       <use xlink:href="#DejaVuSans-38"/>
      </g>
     </g>
    </g>
    <g id="ytick_7">
     <g id="line2d_13">
      <g>
       <use style="stroke:#000000;stroke-width:0.8;" x="54" xlink:href="#m5ea4bdef3c" y="34.56"/>
      </g>
     </g>
     <g id="text_14">
      <!-- 9 -->
      <g transform="translate(40.6375 38.359219)scale(0.1 -0.1)">
       <defs>
        <path d="M 703 97 
L 703 672 
Q 941 559 1184 500 
Q 1428 441 1663 441 
Q 2288 441 2617 861 
Q 2947 1281 2994 2138 
Q 2813 1869 2534 1725 
Q 2256 1581 1919 1581 
Q 1219 1581 811 2004 
Q 403 2428 403 3163 
Q 403 3881 828 4315 
Q 1253 4750 1959 4750 
Q 2769 4750 3195 4129 
Q 3622 3509 3622 2328 
Q 3622 1225 3098 567 
Q 2575 -91 1691 -91 
Q 1453 -91 1209 -44 
Q 966 3 703 97 
z
M 1959 2075 
Q 2384 2075 2632 2365 
Q 2881 2656 2881 3163 
Q 2881 3666 2632 3958 
Q 2384 4250 1959 4250 
Q 1534 4250 1286 3958 
Q 1038 3666 1038 3163 
Q 1038 2656 1286 2365 
Q 1534 2075 1959 2075 
z
" id="DejaVuSans-39" transform="scale(0.015625)"/>
       </defs>
       <use xlink:href="#DejaVuSans-39"/>
      </g>
     </g>
    </g>
    <g id="text_15">
     <!-- y -->
     <g transform="translate(34.141875 146.83125)rotate(-90)scale(0.12 -0.12)">
      <defs>
       <path d="M 2059 -325 
Q 1816 -950 1584 -1140 
Q 1353 -1331 966 -1331 
L 506 -1331 
L 506 -850 
L 844 -850 
Q 1081 -850 1212 -737 
Q 1344 -625 1503 -206 
L 1606 56 
L 191 3500 
L 800 3500 
L 1894 763 
L 2988 3500 
L 3597 3500 
L 2059 -325 
z
" id="DejaVuSans-79" transform="scale(0.015625)"/>
      </defs>
      <use xlink:href="#DejaVuSans-79"/>
     </g>
    </g>
   </g>
   <g id="line2d_14">
    <path clip-path="url(#pa3811e0428)" d="M 69.218182 70.8 
L 71.985124 85.083949 
L 74.752066 98.25467 
L 77.519008 110.364828 
L 80.28595 121.465955 
L 83.052893 131.608455 
L 85.819835 140.841599 
L 88.586777 149.213528 
L 91.353719 156.771253 
L 94.120661 163.560654 
L 96.887603 169.62648 
L 99.654545 175.012349 
L 102.421488 179.76075 
L 105.18843 183.913038 
L 107.955372 187.509441 
L 110.722314 190.589055 
L 113.489256 193.189844 
L 116.256198 195.348643 
L 119.02314 197.101155 
L 121.790083 198.481953 
L 124.557025 199.52448 
L 127.323967 200.261047 
L 130.090909 200.722835 
L 132.857851 200.939895 
L 135.624793 200.941145 
L 138.391736 200.754375 
L 141.158678 200.406243 
L 143.92562 199.922276 
L 146.692562 199.326871 
L 149.459504 198.643294 
L 152.226446 197.89368 
L 154.993388 197.099035 
L 157.760331 196.279231 
L 160.527273 195.453014 
L 163.294215 194.637994 
L 166.061157 193.850655 
L 168.828099 193.106347 
L 171.595041 192.419291 
L 174.361983 191.802577 
L 177.128926 191.268164 
L 179.895868 190.82688 
L 182.66281 190.488424 
L 185.429752 190.261362 
L 188.196694 190.153131 
L 190.963636 190.170037 
L 193.730579 190.317255 
L 196.497521 190.598829 
L 199.264463 191.017673 
L 202.031405 191.575569 
L 204.798347 192.273171 
L 207.565289 193.11 
L 210.332231 194.084446 
L 213.099174 195.193771 
L 215.866116 196.434103 
L 218.633058 197.800442 
L 221.4 199.286655 
L 224.166942 200.88548 
L 226.933884 202.588525 
L 229.700826 204.386264 
L 232.467769 206.268045 
L 235.234711 208.22208 
L 238.001653 210.235455 
L 240.768595 212.294122 
L 243.535537 214.382905 
L 246.302479 216.485496 
L 249.069421 218.584455 
L 251.836364 220.661214 
L 254.603306 222.696071 
L 257.370248 224.668198 
L 260.13719 226.555631 
L 262.904132 228.33528 
L 265.671074 229.982921 
L 268.438017 231.4732 
L 271.204959 232.779634 
L 273.971901 233.874607 
L 276.738843 234.729375 
L 279.505785 235.31406 
L 282.272727 235.597656 
L 285.039669 235.548026 
L 287.806612 235.1319 
L 290.573554 234.31488 
L 293.340496 233.061436 
L 296.107438 231.334908 
L 298.87438 229.097505 
L 301.641322 226.310305 
L 304.408264 222.933255 
L 307.175207 218.925173 
L 309.942149 214.243744 
L 312.709091 208.845524 
L 315.476033 202.685938 
L 318.242975 195.71928 
L 321.009917 187.898713 
L 323.77686 179.176271 
L 326.543802 169.502854 
L 329.310744 158.828236 
L 332.077686 147.101055 
L 334.844628 134.268823 
L 337.61157 120.277918 
L 340.378512 105.073589 
L 343.145455 88.599954 
L 345.912397 70.8 
L 348.679339 51.615584 
L 351.446281 30.987432 
L 354.213223 8.855138 
L 355.363895 -1 
" style="fill:none;stroke:#0000ff;stroke-linecap:square;stroke-width:2;"/>
   </g>
   <g id="line2d_15">
    <path clip-path="url(#pa3811e0428)" d="M 69.218182 164.663604 
L 71.985124 162.249636 
L 74.752066 160.497706 
L 77.519008 159.49767 
L 80.28595 159.318312 
L 83.052893 159.999643 
L 85.819835 161.544411 
L 88.586777 163.910549 
L 91.353719 167.008204 
L 94.120661 170.704922 
L 96.887603 174.839124 
L 99.654545 179.237458 
L 102.421488 183.730458 
L 105.18843 188.163444 
L 107.955372 192.402663 
L 110.722314 196.338032 
L 113.489256 199.883864 
L 116.256198 202.978445 
L 119.02314 205.582967 
L 121.790083 207.680053 
L 124.557025 209.271997 
L 127.323967 210.378759 
L 130.090909 211.035677 
L 132.857851 211.290858 
L 135.624793 211.202218 
L 138.391736 210.834214 
L 141.158678 210.254366 
L 143.92562 209.529722 
L 146.692562 208.723439 
L 149.459504 207.89168 
L 152.226446 207.080997 
L 154.993388 206.32643 
L 157.760331 205.650516 
L 160.527273 205.063436 
L 163.294215 204.564448 
L 166.061157 204.144654 
L 168.828099 203.791006 
L 171.595041 203.491291 
L 174.361983 203.239611 
L 177.128926 203.041584 
L 179.895868 202.918048 
L 182.66281 202.905535 
L 185.429752 203.051776 
L 188.196694 203.405903 
L 190.963636 204.006098 
L 193.730579 204.870054 
L 196.497521 205.992439 
L 199.264463 207.349174 
L 202.031405 208.90487 
L 204.798347 210.6199 
L 207.565289 212.45547 
L 210.332231 214.376656 
L 213.099174 216.353928 
L 215.866116 218.363649 
L 218.633058 220.387893 
L 221.4 222.413751 
L 224.166942 224.432265 
L 226.933884 226.437084 
L 229.700826 228.422994 
L 232.467769 230.384455 
L 235.234711 232.3143 
L 238.001653 234.202774 
L 240.768595 236.036994 
L 243.535537 237.800938 
L 246.302479 239.475933 
L 249.069421 241.041602 
L 251.836364 242.477133 
L 254.603306 243.762697 
L 257.370248 244.880816 
L 260.13719 245.817481 
L 262.904132 246.562831 
L 265.671074 247.111251 
L 268.438017 247.460793 
L 271.204959 247.611865 
L 273.971901 247.5652 
L 276.738843 247.319162 
L 279.505785 246.866521 
L 282.272727 246.19103 
L 285.039669 245.264386 
L 287.806612 244.044506 
L 290.573554 242.476074 
L 293.340496 240.493812 
L 296.107438 238.027906 
L 298.87438 235.010283 
L 301.641322 231.380485 
L 304.408264 227.090628 
L 307.175207 222.109593 
L 309.942149 216.426859 
L 312.709091 210.05617 
L 315.476033 203.038949 
L 318.242975 195.447189 
L 321.009917 187.38546 
L 323.77686 178.991764 
L 326.543802 170.436926 
L 329.310744 161.922107 
L 332.077686 153.673587 
L 334.844628 145.933497 
L 337.61157 138.945196 
L 340.378512 132.933684 
L 343.145455 128.084909 
L 345.912397 124.530314 
L 348.679339 122.340955 
L 351.446281 121.530283 
L 354.213223 122.061381 
L 356.980165 123.855122 
L 359.747107 126.797875 
L 362.51405 130.748865 
L 365.280992 135.547521 
L 368.047934 141.020953 
L 370.814876 146.991422 
L 373.581818 153.283482 
" style="fill:none;stroke:#008000;stroke-dasharray:3.7,1.6;stroke-dashoffset:0;"/>
   </g>
   <g id="line2d_16">
    <path clip-path="url(#pa3811e0428)" d="M 69.218182 117.64069 
L 71.985124 119.029044 
L 74.752066 120.974124 
L 77.519008 123.449708 
L 80.28595 126.409325 
L 83.052893 129.790622 
L 85.819835 133.522734 
L 88.586777 137.53507 
L 91.353719 141.763955 
L 94.120661 146.153367 
L 96.887603 150.649367 
L 99.654545 155.192187 
L 102.421488 159.710988 
L 105.18843 164.123731 
L 107.955372 168.341521 
L 110.722314 172.275406 
L 113.489256 175.843736 
L 116.256198 178.978713 
L 119.02314 181.63137 
L 121.790083 183.774539 
L 124.557025 185.403742 
L 127.323967 186.5361 
L 130.090909 187.207623 
L 132.857851 187.469332 
L 135.624793 187.382721 
L 138.391736 187.015048 
L 141.158678 186.43488 
L 143.92562 185.708215 
L 146.692562 184.895407 
L 149.459504 184.04904 
L 152.226446 183.212756 
L 154.993388 182.420921 
L 157.760331 181.698917 
L 160.527273 181.06371 
L 163.294215 180.524353 
L 166.061157 180.082116 
L 168.828099 179.73004 
L 171.595041 179.451869 
L 174.361983 179.22055 
L 177.128926 178.996806 
L 179.895868 178.728786 
L 182.66281 178.354357 
L 185.429752 177.80769 
L 188.196694 177.030425 
L 190.963636 175.984676 
L 193.730579 174.662596 
L 196.497521 173.08837 
L 199.264463 171.31297 
L 202.031405 169.405416 
L 204.798347 167.444208 
L 207.565289 165.510633 
L 210.332231 163.684073 
L 213.099174 162.03884 
L 215.866116 160.642075 
L 218.633058 159.552395 
L 221.4 158.819102 
L 224.166942 158.481836 
L 226.933884 158.570561 
L 229.700826 159.105778 
L 232.467769 160.098836 
L 235.234711 161.552247 
L 238.001653 163.459894 
L 240.768595 165.807093 
L 243.535537 168.570493 
L 246.302479 171.717854 
L 249.069421 175.207801 
L 251.836364 178.989641 
L 254.603306 183.003394 
L 257.370248 187.180113 
L 260.13719 191.442594 
L 262.904132 195.706482 
L 265.671074 199.88179 
L 268.438017 203.87476 
L 271.204959 207.590033 
L 273.971901 210.933073 
L 276.738843 213.812815 
L 279.505785 216.144522 
L 282.272727 217.852723 
L 285.039669 218.873897 
L 287.806612 219.158293 
L 290.573554 218.670223 
L 293.340496 217.386653 
L 296.107438 215.294841 
L 298.87438 212.390401 
L 301.641322 208.676961 
L 304.408264 204.167668 
L 307.175207 198.887984 
L 309.942149 192.878803 
L 312.709091 186.199048 
L 315.476033 178.927124 
L 318.242975 171.160854 
L 321.009917 163.015665 
L 323.77686 154.620931 
L 326.543802 146.114569 
L 329.310744 137.636436 
L 332.077686 129.321701 
L 334.844628 121.296136 
L 337.61157 113.675453 
L 340.378512 106.56925 
L 343.145455 100.086745 
L 345.912397 94.338948 
L 348.679339 89.433848 
L 351.446281 85.466205 
L 354.213223 82.50662 
L 356.980165 80.593627 
L 359.747107 79.730009 
L 362.51405 79.88292 
L 365.280992 80.986838 
L 368.047934 82.948424 
L 370.814876 85.652604 
L 373.581818 88.969252 
" style="fill:none;stroke:#008000;stroke-dasharray:3.7,1.6;stroke-dashoffset:0;"/>
   </g>
   <g id="line2d_17">
    <path clip-path="url(#pa3811e0428)" d="M 69.218182 251.999653 
L 71.985124 251.999957 
L 74.752066 251.999996 
L 77.519008 252 
L 80.28595 252 
L 83.052893 252 
L 85.819835 252 
L 88.586777 252 
L 91.353719 252 
L 94.120661 252 
L 96.887603 252 
L 99.654545 252 
L 102.421488 252 
L 105.18843 252 
L 107.955372 251.999998 
L 110.722314 251.999989 
L 113.489256 251.999952 
L 116.256198 251.999835 
L 119.02314 251.99956 
L 121.790083 251.99906 
L 124.557025 251.998356 
L 127.323967 251.997594 
L 130.090909 251.996992 
L 132.857851 251.996722 
L 135.624793 251.996825 
L 138.391736 251.997209 
L 141.158678 251.997725 
L 143.92562 251.998242 
L 146.692562 251.998682 
L 149.459504 251.99902 
L 152.226446 251.999264 
L 154.993388 251.999433 
L 157.760331 251.999548 
L 160.527273 251.999628 
L 163.294215 251.999684 
L 166.061157 251.999728 
L 168.828099 251.999763 
L 171.595041 251.999792 
L 174.361983 251.999814 
L 177.128926 251.999825 
L 179.895868 251.999816 
L 182.66281 251.999765 
L 185.429752 251.999613 
L 188.196694 251.999151 
L 190.963636 251.997645 
L 193.730579 251.992561 
L 196.497521 251.976219 
L 199.264463 251.929686 
L 202.031405 251.816712 
L 204.798347 251.584234 
L 207.565289 251.173095 
L 210.332231 250.534115 
L 213.099174 249.640594 
L 215.866116 248.492209 
L 218.633058 247.111183 
L 221.4 245.534582 
L 224.166942 243.806363 
L 226.933884 241.971311 
L 229.700826 240.071527 
L 232.467769 238.145273 
L 235.234711 236.227503 
L 238.001653 234.351344 
L 240.768595 232.549803 
L 243.535537 230.857135 
L 246.302479 229.309449 
L 249.069421 227.944367 
L 251.836364 226.79972 
L 254.603306 225.911492 
L 257.370248 225.311412 
L 260.13719 225.024673 
L 262.904132 225.068385 
L 265.671074 225.451237 
L 268.438017 226.174721 
L 271.204959 227.235875 
L 273.971901 228.630899 
L 276.738843 230.358042 
L 279.505785 232.416905 
L 282.272727 234.800333 
L 285.039669 237.475952 
L 287.806612 240.359471 
L 290.573554 243.292164 
L 293.340496 246.045008 
L 296.107438 248.368921 
L 298.87438 250.08317 
L 301.641322 251.15356 
L 304.408264 251.699628 
L 307.175207 251.918275 
L 309.942149 251.983871 
L 312.709091 251.997837 
L 315.476033 251.999817 
L 318.242975 251.999991 
L 321.009917 252 
L 323.77686 252 
L 326.543802 252 
L 329.310744 252 
L 332.077686 252 
L 334.844628 252 
L 337.61157 252 
L 340.378512 252 
L 343.145455 252 
L 345.912397 252 
L 348.679339 252 
L 351.446281 252 
L 354.213223 252 
L 356.980165 252 
L 359.747107 252 
L 362.51405 251.999999 
L 365.280992 251.999981 
L 368.047934 251.999819 
L 370.814876 251.99883 
L 373.581818 251.994493 
" style="fill:none;stroke:#bfbf00;stroke-dasharray:7.4,3.2;stroke-dashoffset:0;stroke-width:2;"/>
   </g>
   <g id="patch_3">
    <path d="M 54 252 
L 54 34.56 
" style="fill:none;stroke:#000000;stroke-linecap:square;stroke-linejoin:miter;stroke-width:0.8;"/>
   </g>
   <g id="patch_4">
    <path d="M 388.8 252 
L 388.8 34.56 
" style="fill:none;stroke:#000000;stroke-linecap:square;stroke-linejoin:miter;stroke-width:0.8;"/>
   </g>
   <g id="patch_5">
    <path d="M 54 252 
L 388.8 252 
" style="fill:none;stroke:#000000;stroke-linecap:square;stroke-linejoin:miter;stroke-width:0.8;"/>
   </g>
   <g id="patch_6">
    <path d="M 54 34.56 
L 388.8 34.56 
" style="fill:none;stroke:#000000;stroke-linecap:square;stroke-linejoin:miter;stroke-width:0.8;"/>
   </g>
   <g id="text_16">
    <!-- Method : EI_plugin -->
    <g transform="translate(71.985124 244.752)scale(0.12 -0.12)">
     <defs>
      <path d="M 628 4666 
L 1569 4666 
L 2759 1491 
L 3956 4666 
L 4897 4666 
L 4897 0 
L 4281 0 
L 4281 4097 
L 3078 897 
L 2444 897 
L 1241 4097 
L 1241 0 
L 628 0 
L 628 4666 
z
" id="DejaVuSans-4d" transform="scale(0.015625)"/>
      <path d="M 3597 1894 
L 3597 1613 
L 953 1613 
Q 991 1019 1311 708 
Q 1631 397 2203 397 
Q 2534 397 2845 478 
Q 3156 559 3463 722 
L 3463 178 
Q 3153 47 2828 -22 
Q 2503 -91 2169 -91 
Q 1331 -91 842 396 
Q 353 884 353 1716 
Q 353 2575 817 3079 
Q 1281 3584 2069 3584 
Q 2775 3584 3186 3129 
Q 3597 2675 3597 1894 
z
M 3022 2063 
Q 3016 2534 2758 2815 
Q 2500 3097 2075 3097 
Q 1594 3097 1305 2825 
Q 1016 2553 972 2059 
L 3022 2063 
z
" id="DejaVuSans-65" transform="scale(0.015625)"/>
      <path d="M 1172 4494 
L 1172 3500 
L 2356 3500 
L 2356 3053 
L 1172 3053 
L 1172 1153 
Q 1172 725 1289 603 
Q 1406 481 1766 481 
L 2356 481 
L 2356 0 
L 1766 0 
Q 1100 0 847 248 
Q 594 497 594 1153 
L 594 3053 
L 172 3053 
L 172 3500 
L 594 3500 
L 594 4494 
L 1172 4494 
z
" id="DejaVuSans-74" transform="scale(0.015625)"/>
      <path d="M 3513 2113 
L 3513 0 
L 2938 0 
L 2938 2094 
Q 2938 2591 2744 2837 
Q 2550 3084 2163 3084 
Q 1697 3084 1428 2787 
Q 1159 2491 1159 1978 
L 1159 0 
L 581 0 
L 581 4863 
L 1159 4863 
L 1159 2956 
Q 1366 3272 1645 3428 
Q 1925 3584 2291 3584 
Q 2894 3584 3203 3211 
Q 3513 2838 3513 2113 
z
" id="DejaVuSans-68" transform="scale(0.015625)"/>
      <path d="M 1959 3097 
Q 1497 3097 1228 2736 
Q 959 2375 959 1747 
Q 959 1119 1226 758 
Q 1494 397 1959 397 
Q 2419 397 2687 759 
Q 2956 1122 2956 1747 
Q 2956 2369 2687 2733 
Q 2419 3097 1959 3097 
z
M 1959 3584 
Q 2709 3584 3137 3096 
Q 3566 2609 3566 1747 
Q 3566 888 3137 398 
Q 2709 -91 1959 -91 
Q 1206 -91 779 398 
Q 353 888 353 1747 
Q 353 2609 779 3096 
Q 1206 3584 1959 3584 
z
" id="DejaVuSans-6f" transform="scale(0.015625)"/>
      <path d="M 2906 2969 
L 2906 4863 
L 3481 4863 
L 3481 0 
L 2906 0 
L 2906 525 
Q 2725 213 2448 61 
Q 2172 -91 1784 -91 
Q 1150 -91 751 415 
Q 353 922 353 1747 
Q 353 2572 751 3078 
Q 1150 3584 1784 3584 
Q 2172 3584 2448 3432 
Q 2725 3281 2906 2969 
z
M 947 1747 
Q 947 1113 1208 752 
Q 1469 391 1925 391 
Q 2381 391 2643 752 
Q 2906 1113 2906 1747 
Q 2906 2381 2643 2742 
Q 2381 3103 1925 3103 
Q 1469 3103 1208 2742 
Q 947 2381 947 1747 
z
" id="DejaVuSans-64" transform="scale(0.015625)"/>
      <path id="DejaVuSans-20" transform="scale(0.015625)"/>
      <path d="M 750 794 
L 1409 794 
L 1409 0 
L 750 0 
L 750 794 
z
M 750 3309 
L 1409 3309 
L 1409 2516 
L 750 2516 
L 750 3309 
z
" id="DejaVuSans-3a" transform="scale(0.015625)"/>
      <path d="M 628 4666 
L 3578 4666 
L 3578 4134 
L 1259 4134 
L 1259 2753 
L 3481 2753 
L 3481 2222 
L 1259 2222 
L 1259 531 
L 3634 531 
L 3634 0 
L 628 0 
L 628 4666 
z
" id="DejaVuSans-45" transform="scale(0.015625)"/>
      <path d="M 628 4666 
L 1259 4666 
L 1259 0 
L 628 0 
L 628 4666 
z
" id="DejaVuSans-49" transform="scale(0.015625)"/>
      <path d="M 3263 -1063 
L 3263 -1509 
L -63 -1509 
L -63 -1063 
L 3263 -1063 
z
" id="DejaVuSans-5f" transform="scale(0.015625)"/>
      <path d="M 1159 525 
L 1159 -1331 
L 581 -1331 
L 581 3500 
L 1159 3500 
L 1159 2969 
Q 1341 3281 1617 3432 
Q 1894 3584 2278 3584 
Q 2916 3584 3314 3078 
Q 3713 2572 3713 1747 
Q 3713 922 3314 415 
Q 2916 -91 2278 -91 
Q 1894 -91 1617 61 
Q 1341 213 1159 525 
z
M 3116 1747 
Q 3116 2381 2855 2742 
Q 2594 3103 2138 3103 
Q 1681 3103 1420 2742 
Q 1159 2381 1159 1747 
Q 1159 1113 1420 752 
Q 1681 391 2138 391 
Q 2594 391 2855 752 
Q 3116 1113 3116 1747 
z
" id="DejaVuSans-70" transform="scale(0.015625)"/>
      <path d="M 603 4863 
L 1178 4863 
L 1178 0 
L 603 0 
L 603 4863 
z
" id="DejaVuSans-6c" transform="scale(0.015625)"/>
      <path d="M 544 1381 
L 544 3500 
L 1119 3500 
L 1119 1403 
Q 1119 906 1312 657 
Q 1506 409 1894 409 
Q 2359 409 2629 706 
Q 2900 1003 2900 1516 
L 2900 3500 
L 3475 3500 
L 3475 0 
L 2900 0 
L 2900 538 
Q 2691 219 2414 64 
Q 2138 -91 1772 -91 
Q 1169 -91 856 284 
Q 544 659 544 1381 
z
M 1991 3584 
L 1991 3584 
z
" id="DejaVuSans-75" transform="scale(0.015625)"/>
      <path d="M 2906 1791 
Q 2906 2416 2648 2759 
Q 2391 3103 1925 3103 
Q 1463 3103 1205 2759 
Q 947 2416 947 1791 
Q 947 1169 1205 825 
Q 1463 481 1925 481 
Q 2391 481 2648 825 
Q 2906 1169 2906 1791 
z
M 3481 434 
Q 3481 -459 3084 -895 
Q 2688 -1331 1869 -1331 
Q 1566 -1331 1297 -1286 
Q 1028 -1241 775 -1147 
L 775 -588 
Q 1028 -725 1275 -790 
Q 1522 -856 1778 -856 
Q 2344 -856 2625 -561 
Q 2906 -266 2906 331 
L 2906 616 
Q 2728 306 2450 153 
Q 2172 0 1784 0 
Q 1141 0 747 490 
Q 353 981 353 1791 
Q 353 2603 747 3093 
Q 1141 3584 1784 3584 
Q 2172 3584 2450 3431 
Q 2728 3278 2906 2969 
L 2906 3500 
L 3481 3500 
L 3481 434 
z
" id="DejaVuSans-67" transform="scale(0.015625)"/>
      <path d="M 603 3500 
L 1178 3500 
L 1178 0 
L 603 0 
L 603 3500 
z
M 603 4863 
L 1178 4863 
L 1178 4134 
L 603 4134 
L 603 4863 
z
" id="DejaVuSans-69" transform="scale(0.015625)"/>
      <path d="M 3513 2113 
L 3513 0 
L 2938 0 
L 2938 2094 
Q 2938 2591 2744 2837 
Q 2550 3084 2163 3084 
Q 1697 3084 1428 2787 
Q 1159 2491 1159 1978 
L 1159 0 
L 581 0 
L 581 3500 
L 1159 3500 
L 1159 2956 
Q 1366 3272 1645 3428 
Q 1925 3584 2291 3584 
Q 2894 3584 3203 3211 
Q 3513 2838 3513 2113 
z
" id="DejaVuSans-6e" transform="scale(0.015625)"/>
     </defs>
     <use xlink:href="#DejaVuSans-4d"/>
     <use x="86.279297" xlink:href="#DejaVuSans-65"/>
     <use x="147.802734" xlink:href="#DejaVuSans-74"/>
     <use x="187.011719" xlink:href="#DejaVuSans-68"/>
     <use x="250.390625" xlink:href="#DejaVuSans-6f"/>
     <use x="311.572266" xlink:href="#DejaVuSans-64"/>
     <use x="375.048828" xlink:href="#DejaVuSans-20"/>
     <use x="406.835938" xlink:href="#DejaVuSans-3a"/>
     <use x="440.527344" xlink:href="#DejaVuSans-20"/>
     <use x="472.314453" xlink:href="#DejaVuSans-45"/>
     <use x="535.498047" xlink:href="#DejaVuSans-49"/>
     <use x="564.990234" xlink:href="#DejaVuSans-5f"/>
     <use x="614.990234" xlink:href="#DejaVuSans-70"/>
     <use x="678.466797" xlink:href="#DejaVuSans-6c"/>
     <use x="706.25" xlink:href="#DejaVuSans-75"/>
     <use x="769.628906" xlink:href="#DejaVuSans-67"/>
     <use x="833.105469" xlink:href="#DejaVuSans-69"/>
     <use x="860.888672" xlink:href="#DejaVuSans-6e"/>
    </g>
   </g>
   <g id="text_17">
    <!-- Iter=3 -->
    <g transform="translate(71.985124 226.632)scale(0.12 -0.12)">
     <defs>
      <path d="M 2631 2963 
Q 2534 3019 2420 3045 
Q 2306 3072 2169 3072 
Q 1681 3072 1420 2755 
Q 1159 2438 1159 1844 
L 1159 0 
L 581 0 
L 581 3500 
L 1159 3500 
L 1159 2956 
Q 1341 3275 1631 3429 
Q 1922 3584 2338 3584 
Q 2397 3584 2469 3576 
Q 2541 3569 2628 3553 
L 2631 2963 
z
" id="DejaVuSans-72" transform="scale(0.015625)"/>
      <path d="M 678 2906 
L 4684 2906 
L 4684 2381 
L 678 2381 
L 678 2906 
z
M 678 1631 
L 4684 1631 
L 4684 1100 
L 678 1100 
L 678 1631 
z
" id="DejaVuSans-3d" transform="scale(0.015625)"/>
     </defs>
     <use xlink:href="#DejaVuSans-49"/>
     <use x="29.492188" xlink:href="#DejaVuSans-74"/>
     <use x="68.701172" xlink:href="#DejaVuSans-65"/>
     <use x="130.224609" xlink:href="#DejaVuSans-72"/>
     <use x="171.337891" xlink:href="#DejaVuSans-3d"/>
     <use x="255.126953" xlink:href="#DejaVuSans-33"/>
    </g>
   </g>
   <g id="legend_1">
    <g id="patch_7">
     <path d="M 144.327812 140.541562 
L 298.472188 140.541562 
Q 300.672188 140.541562 300.672188 138.341563 
L 300.672188 42.26 
Q 300.672188 40.06 298.472188 40.06 
L 144.327812 40.06 
Q 142.127813 40.06 142.127813 42.26 
L 142.127813 138.341563 
Q 142.127813 140.541562 144.327812 140.541562 
z
" style="fill:#ffffff;opacity:0.8;stroke:#cccccc;stroke-linejoin:miter;"/>
    </g>
    <g id="line2d_18">
     <path d="M 146.527813 48.968281 
L 168.527813 48.968281 
" style="fill:none;stroke:#0000ff;stroke-linecap:square;stroke-width:2;"/>
    </g>
    <g id="line2d_19"/>
    <g id="text_18">
     <!-- ture function -->
     <g transform="translate(177.327813 52.818281)scale(0.11 -0.11)">
      <defs>
       <path d="M 2375 4863 
L 2375 4384 
L 1825 4384 
Q 1516 4384 1395 4259 
Q 1275 4134 1275 3809 
L 1275 3500 
L 2222 3500 
L 2222 3053 
L 1275 3053 
L 1275 0 
L 697 0 
L 697 3053 
L 147 3053 
L 147 3500 
L 697 3500 
L 697 3744 
Q 697 4328 969 4595 
Q 1241 4863 1831 4863 
L 2375 4863 
z
" id="DejaVuSans-66" transform="scale(0.015625)"/>
       <path d="M 3122 3366 
L 3122 2828 
Q 2878 2963 2633 3030 
Q 2388 3097 2138 3097 
Q 1578 3097 1268 2742 
Q 959 2388 959 1747 
Q 959 1106 1268 751 
Q 1578 397 2138 397 
Q 2388 397 2633 464 
Q 2878 531 3122 666 
L 3122 134 
Q 2881 22 2623 -34 
Q 2366 -91 2075 -91 
Q 1284 -91 818 406 
Q 353 903 353 1747 
Q 353 2603 823 3093 
Q 1294 3584 2113 3584 
Q 2378 3584 2631 3529 
Q 2884 3475 3122 3366 
z
" id="DejaVuSans-63" transform="scale(0.015625)"/>
      </defs>
      <use xlink:href="#DejaVuSans-74"/>
      <use x="39.208984" xlink:href="#DejaVuSans-75"/>
      <use x="102.587891" xlink:href="#DejaVuSans-72"/>
      <use x="141.451172" xlink:href="#DejaVuSans-65"/>
      <use x="202.974609" xlink:href="#DejaVuSans-20"/>
      <use x="234.761719" xlink:href="#DejaVuSans-66"/>
      <use x="269.966797" xlink:href="#DejaVuSans-75"/>
      <use x="333.345703" xlink:href="#DejaVuSans-6e"/>
      <use x="396.724609" xlink:href="#DejaVuSans-63"/>
      <use x="451.705078" xlink:href="#DejaVuSans-74"/>
      <use x="490.914062" xlink:href="#DejaVuSans-69"/>
      <use x="518.697266" xlink:href="#DejaVuSans-6f"/>
      <use x="579.878906" xlink:href="#DejaVuSans-6e"/>
     </g>
    </g>
    <g id="line2d_20">
     <path d="M 146.527813 65.114219 
L 168.527813 65.114219 
" style="fill:none;stroke:#000000;stroke-dasharray:7.4,3.2;stroke-dashoffset:0;stroke-width:2;"/>
    </g>
    <g id="line2d_21"/>
    <g id="text_19">
     <!-- predicted function -->
     <g transform="translate(177.327813 68.964219)scale(0.11 -0.11)">
      <use xlink:href="#DejaVuSans-70"/>
      <use x="63.476562" xlink:href="#DejaVuSans-72"/>
      <use x="102.339844" xlink:href="#DejaVuSans-65"/>
      <use x="163.863281" xlink:href="#DejaVuSans-64"/>
      <use x="227.339844" xlink:href="#DejaVuSans-69"/>
      <use x="255.123047" xlink:href="#DejaVuSans-63"/>
      <use x="310.103516" xlink:href="#DejaVuSans-74"/>
      <use x="349.3125" xlink:href="#DejaVuSans-65"/>
      <use x="410.835938" xlink:href="#DejaVuSans-64"/>
      <use x="474.3125" xlink:href="#DejaVuSans-20"/>
      <use x="506.099609" xlink:href="#DejaVuSans-66"/>
      <use x="541.304688" xlink:href="#DejaVuSans-75"/>
      <use x="604.683594" xlink:href="#DejaVuSans-6e"/>
      <use x="668.0625" xlink:href="#DejaVuSans-63"/>
      <use x="723.042969" xlink:href="#DejaVuSans-74"/>
      <use x="762.251953" xlink:href="#DejaVuSans-69"/>
      <use x="790.035156" xlink:href="#DejaVuSans-6f"/>
      <use x="851.216797" xlink:href="#DejaVuSans-6e"/>
     </g>
    </g>
    <g id="line2d_22">
     <path d="M 146.527813 81.260156 
L 168.527813 81.260156 
" style="fill:none;stroke:#008000;stroke-dasharray:3.7,1.6;stroke-dashoffset:0;"/>
    </g>
    <g id="line2d_23"/>
    <g id="text_20">
     <!--  ± Sn(x) -->
     <g transform="translate(177.327813 85.110156)scale(0.11 -0.11)">
      <defs>
       <path d="M 2944 4013 
L 2944 2803 
L 4684 2803 
L 4684 2272 
L 2944 2272 
L 2944 1063 
L 2419 1063 
L 2419 2272 
L 678 2272 
L 678 2803 
L 2419 2803 
L 2419 4013 
L 2944 4013 
z
M 678 531 
L 4684 531 
L 4684 0 
L 678 0 
L 678 531 
z
" id="DejaVuSans-b1" transform="scale(0.015625)"/>
       <path d="M 3425 4513 
L 3425 3897 
Q 3066 4069 2747 4153 
Q 2428 4238 2131 4238 
Q 1616 4238 1336 4038 
Q 1056 3838 1056 3469 
Q 1056 3159 1242 3001 
Q 1428 2844 1947 2747 
L 2328 2669 
Q 3034 2534 3370 2195 
Q 3706 1856 3706 1288 
Q 3706 609 3251 259 
Q 2797 -91 1919 -91 
Q 1588 -91 1214 -16 
Q 841 59 441 206 
L 441 856 
Q 825 641 1194 531 
Q 1563 422 1919 422 
Q 2459 422 2753 634 
Q 3047 847 3047 1241 
Q 3047 1584 2836 1778 
Q 2625 1972 2144 2069 
L 1759 2144 
Q 1053 2284 737 2584 
Q 422 2884 422 3419 
Q 422 4038 858 4394 
Q 1294 4750 2059 4750 
Q 2388 4750 2728 4690 
Q 3069 4631 3425 4513 
z
" id="DejaVuSans-53" transform="scale(0.015625)"/>
       <path d="M 1984 4856 
Q 1566 4138 1362 3434 
Q 1159 2731 1159 2009 
Q 1159 1288 1364 580 
Q 1569 -128 1984 -844 
L 1484 -844 
Q 1016 -109 783 600 
Q 550 1309 550 2009 
Q 550 2706 781 3412 
Q 1013 4119 1484 4856 
L 1984 4856 
z
" id="DejaVuSans-28" transform="scale(0.015625)"/>
       <path d="M 513 4856 
L 1013 4856 
Q 1481 4119 1714 3412 
Q 1947 2706 1947 2009 
Q 1947 1309 1714 600 
Q 1481 -109 1013 -844 
L 513 -844 
Q 928 -128 1133 580 
Q 1338 1288 1338 2009 
Q 1338 2731 1133 3434 
Q 928 4138 513 4856 
z
" id="DejaVuSans-29" transform="scale(0.015625)"/>
      </defs>
      <use xlink:href="#DejaVuSans-20"/>
      <use x="31.787109" xlink:href="#DejaVuSans-b1"/>
      <use x="115.576172" xlink:href="#DejaVuSans-20"/>
      <use x="147.363281" xlink:href="#DejaVuSans-53"/>
      <use x="210.839844" xlink:href="#DejaVuSans-6e"/>
      <use x="274.21875" xlink:href="#DejaVuSans-28"/>
      <use x="313.232422" xlink:href="#DejaVuSans-78"/>
      <use x="372.412109" xlink:href="#DejaVuSans-29"/>
     </g>
    </g>
    <g id="line2d_24">
     <path d="M 146.527813 97.406094 
L 168.527813 97.406094 
" style="fill:none;stroke:#bfbf00;stroke-dasharray:7.4,3.2;stroke-dashoffset:0;stroke-width:2;"/>
    </g>
    <g id="line2d_25"/>
    <g id="text_21">
     <!-- EI_plugin(x) -->
     <g transform="translate(177.327813 101.256094)scale(0.11 -0.11)">
      <use xlink:href="#DejaVuSans-45"/>
      <use x="63.183594" xlink:href="#DejaVuSans-49"/>
      <use x="92.675781" xlink:href="#DejaVuSans-5f"/>
      <use x="142.675781" xlink:href="#DejaVuSans-70"/>
      <use x="206.152344" xlink:href="#DejaVuSans-6c"/>
      <use x="233.935547" xlink:href="#DejaVuSans-75"/>
      <use x="297.314453" xlink:href="#DejaVuSans-67"/>
      <use x="360.791016" xlink:href="#DejaVuSans-69"/>
      <use x="388.574219" xlink:href="#DejaVuSans-6e"/>
      <use x="451.953125" xlink:href="#DejaVuSans-28"/>
      <use x="490.966797" xlink:href="#DejaVuSans-78"/>
      <use x="550.146484" xlink:href="#DejaVuSans-29"/>
     </g>
    </g>
    <g id="PathCollection_2">
     <defs>
      <path d="M 0 3.535534 
C 0.937635 3.535534 1.836992 3.163008 2.5 2.5 
C 3.163008 1.836992 3.535534 0.937635 3.535534 0 
C 3.535534 -0.937635 3.163008 -1.836992 2.5 -2.5 
C 1.836992 -3.163008 0.937635 -3.535534 0 -3.535534 
C -0.937635 -3.535534 -1.836992 -3.163008 -2.5 -2.5 
C -3.163008 -1.836992 -3.535534 -0.937635 -3.535534 0 
C -3.535534 0.937635 -3.163008 1.836992 -2.5 2.5 
C -1.836992 3.163008 -0.937635 3.535534 0 3.535534 
z
" id="ma560fb42ab" style="stroke:#000000;"/>
     </defs>
     <g>
      <use style="fill:#ff0000;stroke:#000000;" x="157.527813" xlink:href="#ma560fb42ab" y="114.820469"/>
     </g>
    </g>
    <g id="text_22">
     <!-- training data -->
     <g transform="translate(177.327813 117.707969)scale(0.11 -0.11)">
      <defs>
       <path d="M 2194 1759 
Q 1497 1759 1228 1600 
Q 959 1441 959 1056 
Q 959 750 1161 570 
Q 1363 391 1709 391 
Q 2188 391 2477 730 
Q 2766 1069 2766 1631 
L 2766 1759 
L 2194 1759 
z
M 3341 1997 
L 3341 0 
L 2766 0 
L 2766 531 
Q 2569 213 2275 61 
Q 1981 -91 1556 -91 
Q 1019 -91 701 211 
Q 384 513 384 1019 
Q 384 1609 779 1909 
Q 1175 2209 1959 2209 
L 2766 2209 
L 2766 2266 
Q 2766 2663 2505 2880 
Q 2244 3097 1772 3097 
Q 1472 3097 1187 3025 
Q 903 2953 641 2809 
L 641 3341 
Q 956 3463 1253 3523 
Q 1550 3584 1831 3584 
Q 2591 3584 2966 3190 
Q 3341 2797 3341 1997 
z
" id="DejaVuSans-61" transform="scale(0.015625)"/>
      </defs>
      <use xlink:href="#DejaVuSans-74"/>
      <use x="39.208984" xlink:href="#DejaVuSans-72"/>
      <use x="80.322266" xlink:href="#DejaVuSans-61"/>
      <use x="141.601562" xlink:href="#DejaVuSans-69"/>
      <use x="169.384766" xlink:href="#DejaVuSans-6e"/>
      <use x="232.763672" xlink:href="#DejaVuSans-69"/>
      <use x="260.546875" xlink:href="#DejaVuSans-6e"/>
      <use x="323.925781" xlink:href="#DejaVuSans-67"/>
      <use x="387.402344" xlink:href="#DejaVuSans-20"/>
      <use x="419.189453" xlink:href="#DejaVuSans-64"/>
      <use x="482.666016" xlink:href="#DejaVuSans-61"/>
      <use x="543.945312" xlink:href="#DejaVuSans-74"/>
      <use x="583.154297" xlink:href="#DejaVuSans-61"/>
     </g>
    </g>
    <g id="PathCollection_3">
     <g>
      <use style="fill:#ff0000;stroke:#ff0000;stroke-width:8;" x="157.527813" xlink:href="#m83349a2959" y="130.966406"/>
     </g>
    </g>
    <g id="text_23">
     <!-- recommended datum -->
     <g transform="translate(177.327813 133.853906)scale(0.11 -0.11)">
      <defs>
       <path d="M 3328 2828 
Q 3544 3216 3844 3400 
Q 4144 3584 4550 3584 
Q 5097 3584 5394 3201 
Q 5691 2819 5691 2113 
L 5691 0 
L 5113 0 
L 5113 2094 
Q 5113 2597 4934 2840 
Q 4756 3084 4391 3084 
Q 3944 3084 3684 2787 
Q 3425 2491 3425 1978 
L 3425 0 
L 2847 0 
L 2847 2094 
Q 2847 2600 2669 2842 
Q 2491 3084 2119 3084 
Q 1678 3084 1418 2786 
Q 1159 2488 1159 1978 
L 1159 0 
L 581 0 
L 581 3500 
L 1159 3500 
L 1159 2956 
Q 1356 3278 1631 3431 
Q 1906 3584 2284 3584 
Q 2666 3584 2933 3390 
Q 3200 3197 3328 2828 
z
" id="DejaVuSans-6d" transform="scale(0.015625)"/>
      </defs>
      <use xlink:href="#DejaVuSans-72"/>
      <use x="38.863281" xlink:href="#DejaVuSans-65"/>
      <use x="100.386719" xlink:href="#DejaVuSans-63"/>
      <use x="155.367188" xlink:href="#DejaVuSans-6f"/>
      <use x="216.548828" xlink:href="#DejaVuSans-6d"/>
      <use x="313.960938" xlink:href="#DejaVuSans-6d"/>
      <use x="411.373047" xlink:href="#DejaVuSans-65"/>
      <use x="472.896484" xlink:href="#DejaVuSans-6e"/>
      <use x="536.275391" xlink:href="#DejaVuSans-64"/>
      <use x="599.751953" xlink:href="#DejaVuSans-65"/>
      <use x="661.275391" xlink:href="#DejaVuSans-64"/>
      <use x="724.751953" xlink:href="#DejaVuSans-20"/>
      <use x="756.539062" xlink:href="#DejaVuSans-64"/>
      <use x="820.015625" xlink:href="#DejaVuSans-61"/>
      <use x="881.294922" xlink:href="#DejaVuSans-74"/>
      <use x="920.503906" xlink:href="#DejaVuSans-75"/>
      <use x="983.882812" xlink:href="#DejaVuSans-6d"/>
     </g>
    </g>
   </g>
   <g id="line2d_26">
    <path clip-path="url(#pa3811e0428)" d="M 69.218182 141.152147 
L 71.985124 140.63934 
L 74.752066 140.735915 
L 77.519008 141.473689 
L 80.28595 142.863818 
L 83.052893 144.895133 
L 85.819835 147.533572 
L 88.586777 150.72281 
L 91.353719 154.38608 
L 94.120661 158.429144 
L 96.887603 162.744245 
L 99.654545 167.214822 
L 102.421488 171.720723 
L 105.18843 176.143588 
L 107.955372 180.372092 
L 110.722314 184.306719 
L 113.489256 187.8638 
L 116.256198 190.978579 
L 119.02314 193.607168 
L 121.790083 195.727296 
L 124.557025 197.33787 
L 127.323967 198.457429 
L 130.090909 199.12165 
L 132.857851 199.380095 
L 135.624793 199.292469 
L 138.391736 198.924631 
L 141.158678 198.344623 
L 143.92562 197.618968 
L 146.692562 196.809423 
L 149.459504 195.97036 
L 152.226446 195.146877 
L 154.993388 194.373676 
L 157.760331 193.674717 
L 160.527273 193.063573 
L 163.294215 192.544401 
L 166.061157 192.113385 
L 168.828099 191.760523 
L 171.595041 191.47158 
L 174.361983 191.230081 
L 177.128926 191.019195 
L 179.895868 190.823417 
L 182.66281 190.629946 
L 185.429752 190.429733 
L 188.196694 190.218164 
L 190.963636 189.995387 
L 193.730579 189.766325 
L 196.497521 189.540405 
L 199.264463 189.331072 
L 202.031405 189.155143 
L 204.798347 189.032054 
L 207.565289 188.983052 
L 210.332231 189.030365 
L 213.099174 189.196384 
L 215.866116 189.502862 
L 218.633058 189.970144 
L 221.4 190.616427 
L 224.166942 191.45705 
L 226.933884 192.503822 
L 229.700826 193.764386 
L 232.467769 195.241645 
L 235.234711 196.933274 
L 238.001653 198.831334 
L 240.768595 200.922044 
L 243.535537 203.185716 
L 246.302479 205.596894 
L 249.069421 208.124702 
L 251.836364 210.733387 
L 254.603306 213.383045 
L 257.370248 216.030465 
L 260.13719 218.630037 
L 262.904132 221.134656 
L 265.671074 223.496521 
L 268.438017 225.667776 
L 271.204959 227.600949 
L 273.971901 229.249137 
L 276.738843 230.565988 
L 279.505785 231.505522 
L 282.272727 232.021876 
L 285.039669 232.069141 
L 287.806612 231.6014 
L 290.573554 230.573149 
L 293.340496 228.940233 
L 296.107438 226.661373 
L 298.87438 223.700342 
L 301.641322 220.028723 
L 304.408264 215.629148 
L 307.175207 210.498788 
L 309.942149 204.652831 
L 312.709091 198.127609 
L 315.476033 190.983037 
L 318.242975 183.304021 
L 321.009917 175.200563 
L 323.77686 166.806348 
L 326.543802 158.275747 
L 329.310744 149.779271 
L 332.077686 141.497644 
L 334.844628 133.614817 
L 337.61157 126.310325 
L 340.378512 119.751467 
L 343.145455 114.085827 
L 345.912397 109.434631 
L 348.679339 105.887402 
L 351.446281 103.498244 
L 354.213223 102.284001 
L 356.980165 102.224374 
L 359.747107 103.263942 
L 362.51405 105.315893 
L 365.280992 108.267179 
L 368.047934 111.984688 
L 370.814876 116.322013 
L 373.581818 121.126367 
" style="fill:none;stroke:#000000;stroke-dasharray:7.4,3.2;stroke-dashoffset:0;stroke-width:2;"/>
   </g>
   <g id="PathCollection_4">
    <g clip-path="url(#pa3811e0428)">
     <use style="fill:#ff0000;stroke:#000000;" x="83.052893" xlink:href="#ma560fb42ab" y="129.399309"/>
     <use style="fill:#ff0000;stroke:#000000;" x="96.887603" xlink:href="#ma560fb42ab" y="162.429541"/>
     <use style="fill:#ff0000;stroke:#000000;" x="110.722314" xlink:href="#ma560fb42ab" y="193.170209"/>
     <use style="fill:#ff0000;stroke:#000000;" x="124.557025" xlink:href="#ma560fb42ab" y="199.248575"/>
     <use style="fill:#ff0000;stroke:#000000;" x="138.391736" xlink:href="#ma560fb42ab" y="199.347548"/>
     <use style="fill:#ff0000;stroke:#000000;" x="152.226446" xlink:href="#ma560fb42ab" y="191.611971"/>
     <use style="fill:#ff0000;stroke:#000000;" x="166.061157" xlink:href="#ma560fb42ab" y="193.66847"/>
     <use style="fill:#ff0000;stroke:#000000;" x="179.895868" xlink:href="#ma560fb42ab" y="193.283098"/>
     <use style="fill:#ff0000;stroke:#000000;" x="193.730579" xlink:href="#ma560fb42ab" y="188.924027"/>
     <use style="fill:#ff0000;stroke:#000000;" x="318.242975" xlink:href="#ma560fb42ab" y="199.289596"/>
     <use style="fill:#ff0000;stroke:#000000;" x="332.077686" xlink:href="#ma560fb42ab" y="145.37007"/>
     <use style="fill:#ff0000;stroke:#000000;" x="345.912397" xlink:href="#ma560fb42ab" y="78.407322"/>
     <use style="fill:#ff0000;stroke:#000000;" x="301.641322" xlink:href="#ma560fb42ab" y="216.19789"/>
     <use style="fill:#ff0000;stroke:#000000;" x="296.107438" xlink:href="#ma560fb42ab" y="224.27386"/>
     <use style="fill:#ff0000;stroke:#000000;" x="279.505785" xlink:href="#ma560fb42ab" y="243.27852"/>
    </g>
   </g>
  </g>
 </g>
 <defs>
  <clipPath id="pa3811e0428">
   <rect height="217.44" width="334.8" x="54" y="34.56"/>
  </clipPath>
 </defs>
</svg>
