<?xml version="1.0" encoding="utf-8" standalone="no"?>
<!DOCTYPE svg PUBLIC "-//W3C//DTD SVG 1.1//EN"
  "http://www.w3.org/Graphics/SVG/1.1/DTD/svg11.dtd">
<svg height="288pt" version="1.1" viewBox="0 0 432 288" width="432pt" xmlns="http://www.w3.org/2000/svg" xmlns:xlink="http://www.w3.org/1999/xlink">
 <metadata>
  <rdf:RDF xmlns:cc="http://creativecommons.org/ns#" xmlns:dc="http://purl.org/dc/elements/1.1/" xmlns:rdf="http://www.w3.org/1999/02/22-rdf-syntax-ns#">
   <cc:Work>
    <dc:type rdf:resource="http://purl.org/dc/dcmitype/StillImage"/>
    <dc:date>2022-08-04T11:30:54.547386</dc:date>
    <dc:format>image/svg+xml</dc:format>
    <dc:creator>
     <cc:Agent>
      <dc:title>Matplotlib v3.4.3, https://matplotlib.org/</dc:title>
     </cc:Agent>
    </dc:creator>
   </cc:Work>
  </rdf:RDF>
 </metadata>
 <defs>
  <style type="text/css">*{stroke-linecap:butt;stroke-linejoin:round;}</style>
 </defs>
 <g id="figure_1">
  <g id="patch_1">
   <path d="M 0 288 
L 432 288 
L 432 0 
L 0 0 
z
" style="fill:none;"/>
  </g>
  <g id="axes_1">
   <g id="patch_2">
    <path d="M 54 252 
L 388.8 252 
L 388.8 34.56 
L 54 34.56 
z
" style="fill:#ffffff;"/>
   </g>
   <g id="PolyCollection_1">
    <defs>
     <path d="M 69.218182 -176.963428 
L 69.218182 -136.431315 
L 71.985124 -139.462466 
L 74.752066 -141.516036 
L 77.519008 -142.461105 
L 80.28595 -142.201142 
L 83.052893 -140.68874 
L 85.819835 -137.946766 
L 88.586777 -134.089159 
L 91.353719 -129.32165 
L 94.120661 -123.910038 
L 96.887603 -118.133622 
L 99.654545 -112.250841 
L 102.421488 -106.484555 
L 105.18843 -101.019374 
L 107.955372 -96.003307 
L 110.722314 -91.550095 
L 113.489256 -87.741088 
L 116.256198 -84.626405 
L 119.02314 -82.225489 
L 121.790083 -80.527618 
L 124.557025 -79.493186 
L 127.323967 -79.056557 
L 130.090909 -79.13084 
L 132.857851 -79.614405 
L 135.624793 -80.398456 
L 138.391736 -81.374754 
L 141.158678 -82.442572 
L 143.92562 -83.514164 
L 146.692562 -84.518338 
L 149.459504 -85.40215 
L 152.226446 -86.131048 
L 154.993388 -86.688017 
L 157.760331 -87.072319 
L 160.527273 -87.298204 
L 163.294215 -87.39358 
L 166.061157 -87.398157 
L 168.828099 -87.360251 
L 171.595041 -87.331501 
L 174.361983 -87.359178 
L 177.128926 -87.476284 
L 179.895868 -87.690138 
L 182.66281 -87.971105 
L 185.429752 -88.245663 
L 188.196694 -88.402097 
L 190.963636 -88.316942 
L 193.730579 -87.8952 
L 196.497521 -87.097588 
L 199.264463 -85.937454 
L 202.031405 -84.459779 
L 204.798347 -82.72193 
L 207.565289 -80.782696 
L 210.332231 -78.697209 
L 213.099174 -76.514509 
L 215.866116 -74.276123 
L 218.633058 -72.015184 
L 221.4 -69.756108 
L 224.166942 -67.51496 
L 226.933884 -65.300572 
L 229.700826 -63.116384 
L 232.467769 -60.962822 
L 235.234711 -58.839956 
L 238.001653 -56.750102 
L 240.768595 -54.70001 
L 243.535537 -52.702336 
L 246.302479 -50.776162 
L 249.069421 -48.946489 
L 251.836364 -47.242726 
L 254.603306 -45.696369 
L 257.370248 -44.338162 
L 260.13719 -43.195075 
L 262.904132 -42.287491 
L 265.671074 -41.626956 
L 268.438017 -41.214755 
L 271.204959 -41.041517 
L 273.971901 -41.08789 
L 276.738843 -41.326272 
L 279.505785 -41.723639 
L 282.272727 -42.246042 
L 285.039669 -42.866551 
L 287.806612 -43.57971 
L 290.573554 -44.423031 
L 293.340496 -45.494716 
L 296.107438 -46.947663 
L 298.87438 -48.956832 
L 301.641322 -51.683633 
L 304.408264 -55.256691 
L 307.175207 -59.767482 
L 309.942149 -65.271769 
L 312.709091 -71.791084 
L 315.476033 -79.312513 
L 318.242975 -87.786789 
L 321.009917 -97.125222 
L 323.77686 -107.196174 
L 326.543802 -117.821749 
L 329.310744 -128.775306 
L 332.077686 -139.780257 
L 334.844628 -150.511246 
L 337.61157 -160.601145 
L 340.378512 -169.661325 
L 343.145455 -177.3222 
L 345.912397 -183.285594 
L 348.679339 -187.361177 
L 351.446281 -189.469734 
L 354.213223 -189.625852 
L 356.980165 -187.919182 
L 359.747107 -184.500384 
L 362.51405 -179.569519 
L 365.280992 -173.364259 
L 368.047934 -166.147054 
L 370.814876 -158.191676 
L 373.581818 -149.770008 
L 373.581818 -212.353811 
L 373.581818 -212.353811 
L 370.814876 -216.957523 
L 368.047934 -220.714778 
L 365.280992 -223.425207 
L 362.51405 -224.912471 
L 359.747107 -225.036168 
L 356.980165 -223.702801 
L 354.213223 -220.874814 
L 351.446281 -216.576277 
L 348.679339 -210.892771 
L 345.912397 -203.961679 
L 343.145455 -195.950007 
L 340.378512 -187.02589 
L 337.61157 -177.343623 
L 334.844628 -167.056122 
L 332.077686 -156.339412 
L 329.310744 -145.403531 
L 326.543802 -134.483726 
L 323.77686 -123.821069 
L 321.009917 -113.641861 
L 318.242975 -104.140625 
L 315.476033 -95.468534 
L 312.709091 -87.727864 
L 309.942149 -80.972545 
L 307.175207 -75.214428 
L 304.408264 -70.434521 
L 301.641322 -66.598081 
L 298.87438 -63.671906 
L 296.107438 -61.640579 
L 293.340496 -60.514733 
L 290.573554 -60.321481 
L 287.806612 -61.075144 
L 285.039669 -62.747732 
L 282.272727 -65.26323 
L 279.505785 -68.51349 
L 276.738843 -72.376551 
L 273.971901 -76.727446 
L 271.204959 -81.442734 
L 268.438017 -86.402405 
L 265.671074 -91.491291 
L 262.904132 -96.60067 
L 260.13719 -101.630047 
L 257.370248 -106.488822 
L 254.603306 -111.097575 
L 251.836364 -115.388733 
L 249.069421 -119.306531 
L 246.302479 -122.806305 
L 243.535537 -125.853274 
L 240.768595 -128.421067 
L 238.001653 -130.490286 
L 235.234711 -132.047404 
L 232.467769 -133.08421 
L 229.700826 -133.597932 
L 226.933884 -133.592023 
L 224.166942 -133.077513 
L 221.4 -132.074693 
L 218.633058 -130.614891 
L 215.866116 -128.742054 
L 213.099174 -126.513905 
L 210.332231 -124.002493 
L 207.565289 -121.29402 
L 204.798347 -118.487889 
L 202.031405 -115.694797 
L 199.264463 -113.033258 
L 196.497521 -110.622817 
L 193.730579 -108.570719 
L 190.963636 -106.949702 
L 188.196694 -105.773619 
L 185.429752 -104.990791 
L 182.66281 -104.507847 
L 179.895868 -104.227006 
L 177.128926 -104.070447 
L 174.361983 -103.985095 
L 171.595041 -103.936216 
L 168.828099 -103.898265 
L 166.061157 -103.847236 
L 163.294215 -103.756039 
L 160.527273 -103.593402 
L 157.760331 -103.326076 
L 154.993388 -102.923549 
L 152.226446 -102.363942 
L 149.459504 -101.639634 
L 146.692562 -100.761513 
L 143.92562 -99.761241 
L 141.158678 -98.691446 
L 138.391736 -97.62408 
L 135.624793 -96.64733 
L 132.857851 -95.861482 
L 130.090909 -95.374017 
L 127.323967 -95.294045 
L 124.557025 -95.726087 
L 121.790083 -96.763158 
L 119.02314 -98.479254 
L 116.256198 -100.921609 
L 113.489256 -104.10355 
L 110.722314 -107.999173 
L 107.955372 -112.541325 
L 105.18843 -117.624105 
L 102.421488 -123.110513 
L 99.654545 -128.84508 
L 96.887603 -134.670603 
L 94.120661 -140.446911 
L 91.353719 -146.066888 
L 88.586777 -151.460729 
L 85.819835 -156.579527 
L 83.052893 -161.364382 
L 80.28595 -165.72707 
L 77.519008 -169.559083 
L 74.752066 -172.756279 
L 71.985124 -175.239318 
L 69.218182 -176.963428 
z
" id="mb977fa0845" style="stroke:#add8e6;stroke-opacity:0.2;"/>
    </defs>
    <g clip-path="url(#pff8fb52e7b)">
     <use style="fill:#add8e6;fill-opacity:0.2;stroke:#add8e6;stroke-opacity:0.2;" x="0" xlink:href="#mb977fa0845" y="288"/>
    </g>
   </g>
   <g id="PathCollection_1">
    <defs>
     <path d="M 0 0.612372 
C 0.162403 0.612372 0.318176 0.547849 0.433013 0.433013 
C 0.547849 0.318176 0.612372 0.162403 0.612372 0 
C 0.612372 -0.162403 0.547849 -0.318176 0.433013 -0.433013 
C 0.318176 -0.547849 0.162403 -0.612372 0 -0.612372 
C -0.162403 -0.612372 -0.318176 -0.547849 -0.433013 -0.433013 
C -0.547849 -0.318176 -0.612372 -0.162403 -0.612372 0 
C -0.612372 0.162403 -0.547849 0.318176 -0.433013 0.433013 
C -0.318176 0.547849 -0.162403 0.612372 0 0.612372 
z
" id="m7faa1946bf" style="stroke:#ff0000;stroke-width:8;"/>
    </defs>
    <g clip-path="url(#pff8fb52e7b)">
     <use style="fill:#ff0000;stroke:#ff0000;stroke-width:8;" x="268.438017" xlink:href="#m7faa1946bf" y="206.391727"/>
    </g>
   </g>
   <g id="matplotlib.axis_1">
    <g id="xtick_1">
     <g id="line2d_1">
      <defs>
       <path d="M 0 0 
L 0 3.5 
" id="me27e11bb59" style="stroke:#000000;stroke-width:0.8;"/>
      </defs>
      <g>
       <use style="stroke:#000000;stroke-width:0.8;" x="69.218182" xlink:href="#me27e11bb59" y="252"/>
      </g>
     </g>
     <g id="text_1">
      <!-- 0 -->
      <g transform="translate(66.036932 266.598437)scale(0.1 -0.1)">
       <defs>
        <path d="M 2034 4250 
Q 1547 4250 1301 3770 
Q 1056 3291 1056 2328 
Q 1056 1369 1301 889 
Q 1547 409 2034 409 
Q 2525 409 2770 889 
Q 3016 1369 3016 2328 
Q 3016 3291 2770 3770 
Q 2525 4250 2034 4250 
z
M 2034 4750 
Q 2819 4750 3233 4129 
Q 3647 3509 3647 2328 
Q 3647 1150 3233 529 
Q 2819 -91 2034 -91 
Q 1250 -91 836 529 
Q 422 1150 422 2328 
Q 422 3509 836 4129 
Q 1250 4750 2034 4750 
z
" id="DejaVuSans-30" transform="scale(0.015625)"/>
       </defs>
       <use xlink:href="#DejaVuSans-30"/>
      </g>
     </g>
    </g>
    <g id="xtick_2">
     <g id="line2d_2">
      <g>
       <use style="stroke:#000000;stroke-width:0.8;" x="124.557025" xlink:href="#me27e11bb59" y="252"/>
      </g>
     </g>
     <g id="text_2">
      <!-- 2 -->
      <g transform="translate(121.375775 266.598437)scale(0.1 -0.1)">
       <defs>
        <path d="M 1228 531 
L 3431 531 
L 3431 0 
L 469 0 
L 469 531 
Q 828 903 1448 1529 
Q 2069 2156 2228 2338 
Q 2531 2678 2651 2914 
Q 2772 3150 2772 3378 
Q 2772 3750 2511 3984 
Q 2250 4219 1831 4219 
Q 1534 4219 1204 4116 
Q 875 4013 500 3803 
L 500 4441 
Q 881 4594 1212 4672 
Q 1544 4750 1819 4750 
Q 2544 4750 2975 4387 
Q 3406 4025 3406 3419 
Q 3406 3131 3298 2873 
Q 3191 2616 2906 2266 
Q 2828 2175 2409 1742 
Q 1991 1309 1228 531 
z
" id="DejaVuSans-32" transform="scale(0.015625)"/>
       </defs>
       <use xlink:href="#DejaVuSans-32"/>
      </g>
     </g>
    </g>
    <g id="xtick_3">
     <g id="line2d_3">
      <g>
       <use style="stroke:#000000;stroke-width:0.8;" x="179.895868" xlink:href="#me27e11bb59" y="252"/>
      </g>
     </g>
     <g id="text_3">
      <!-- 4 -->
      <g transform="translate(176.714618 266.598437)scale(0.1 -0.1)">
       <defs>
        <path d="M 2419 4116 
L 825 1625 
L 2419 1625 
L 2419 4116 
z
M 2253 4666 
L 3047 4666 
L 3047 1625 
L 3713 1625 
L 3713 1100 
L 3047 1100 
L 3047 0 
L 2419 0 
L 2419 1100 
L 313 1100 
L 313 1709 
L 2253 4666 
z
" id="DejaVuSans-34" transform="scale(0.015625)"/>
       </defs>
       <use xlink:href="#DejaVuSans-34"/>
      </g>
     </g>
    </g>
    <g id="xtick_4">
     <g id="line2d_4">
      <g>
       <use style="stroke:#000000;stroke-width:0.8;" x="235.234711" xlink:href="#me27e11bb59" y="252"/>
      </g>
     </g>
     <g id="text_4">
      <!-- 6 -->
      <g transform="translate(232.053461 266.598437)scale(0.1 -0.1)">
       <defs>
        <path d="M 2113 2584 
Q 1688 2584 1439 2293 
Q 1191 2003 1191 1497 
Q 1191 994 1439 701 
Q 1688 409 2113 409 
Q 2538 409 2786 701 
Q 3034 994 3034 1497 
Q 3034 2003 2786 2293 
Q 2538 2584 2113 2584 
z
M 3366 4563 
L 3366 3988 
Q 3128 4100 2886 4159 
Q 2644 4219 2406 4219 
Q 1781 4219 1451 3797 
Q 1122 3375 1075 2522 
Q 1259 2794 1537 2939 
Q 1816 3084 2150 3084 
Q 2853 3084 3261 2657 
Q 3669 2231 3669 1497 
Q 3669 778 3244 343 
Q 2819 -91 2113 -91 
Q 1303 -91 875 529 
Q 447 1150 447 2328 
Q 447 3434 972 4092 
Q 1497 4750 2381 4750 
Q 2619 4750 2861 4703 
Q 3103 4656 3366 4563 
z
" id="DejaVuSans-36" transform="scale(0.015625)"/>
       </defs>
       <use xlink:href="#DejaVuSans-36"/>
      </g>
     </g>
    </g>
    <g id="xtick_5">
     <g id="line2d_5">
      <g>
       <use style="stroke:#000000;stroke-width:0.8;" x="290.573554" xlink:href="#me27e11bb59" y="252"/>
      </g>
     </g>
     <g id="text_5">
      <!-- 8 -->
      <g transform="translate(287.392304 266.598437)scale(0.1 -0.1)">
       <defs>
        <path d="M 2034 2216 
Q 1584 2216 1326 1975 
Q 1069 1734 1069 1313 
Q 1069 891 1326 650 
Q 1584 409 2034 409 
Q 2484 409 2743 651 
Q 3003 894 3003 1313 
Q 3003 1734 2745 1975 
Q 2488 2216 2034 2216 
z
M 1403 2484 
Q 997 2584 770 2862 
Q 544 3141 544 3541 
Q 544 4100 942 4425 
Q 1341 4750 2034 4750 
Q 2731 4750 3128 4425 
Q 3525 4100 3525 3541 
Q 3525 3141 3298 2862 
Q 3072 2584 2669 2484 
Q 3125 2378 3379 2068 
Q 3634 1759 3634 1313 
Q 3634 634 3220 271 
Q 2806 -91 2034 -91 
Q 1263 -91 848 271 
Q 434 634 434 1313 
Q 434 1759 690 2068 
Q 947 2378 1403 2484 
z
M 1172 3481 
Q 1172 3119 1398 2916 
Q 1625 2713 2034 2713 
Q 2441 2713 2670 2916 
Q 2900 3119 2900 3481 
Q 2900 3844 2670 4047 
Q 2441 4250 2034 4250 
Q 1625 4250 1398 4047 
Q 1172 3844 1172 3481 
z
" id="DejaVuSans-38" transform="scale(0.015625)"/>
       </defs>
       <use xlink:href="#DejaVuSans-38"/>
      </g>
     </g>
    </g>
    <g id="xtick_6">
     <g id="line2d_6">
      <g>
       <use style="stroke:#000000;stroke-width:0.8;" x="345.912397" xlink:href="#me27e11bb59" y="252"/>
      </g>
     </g>
     <g id="text_6">
      <!-- 10 -->
      <g transform="translate(339.549897 266.598437)scale(0.1 -0.1)">
       <defs>
        <path d="M 794 531 
L 1825 531 
L 1825 4091 
L 703 3866 
L 703 4441 
L 1819 4666 
L 2450 4666 
L 2450 531 
L 3481 531 
L 3481 0 
L 794 0 
L 794 531 
z
" id="DejaVuSans-31" transform="scale(0.015625)"/>
       </defs>
       <use xlink:href="#DejaVuSans-31"/>
       <use x="63.623047" xlink:href="#DejaVuSans-30"/>
      </g>
     </g>
    </g>
    <g id="text_7">
     <!-- x -->
     <g transform="translate(217.84875 281.79625)scale(0.12 -0.12)">
      <defs>
       <path d="M 3513 3500 
L 2247 1797 
L 3578 0 
L 2900 0 
L 1881 1375 
L 863 0 
L 184 0 
L 1544 1831 
L 300 3500 
L 978 3500 
L 1906 2253 
L 2834 3500 
L 3513 3500 
z
" id="DejaVuSans-78" transform="scale(0.015625)"/>
      </defs>
      <use xlink:href="#DejaVuSans-78"/>
     </g>
    </g>
   </g>
   <g id="matplotlib.axis_2">
    <g id="ytick_1">
     <g id="line2d_7">
      <defs>
       <path d="M 0 0 
L -3.5 0 
" id="m05af786484" style="stroke:#000000;stroke-width:0.8;"/>
      </defs>
      <g>
       <use style="stroke:#000000;stroke-width:0.8;" x="54" xlink:href="#m05af786484" y="252"/>
      </g>
     </g>
     <g id="text_8">
      <!-- 3 -->
      <g transform="translate(40.6375 255.799219)scale(0.1 -0.1)">
       <defs>
        <path d="M 2597 2516 
Q 3050 2419 3304 2112 
Q 3559 1806 3559 1356 
Q 3559 666 3084 287 
Q 2609 -91 1734 -91 
Q 1441 -91 1130 -33 
Q 819 25 488 141 
L 488 750 
Q 750 597 1062 519 
Q 1375 441 1716 441 
Q 2309 441 2620 675 
Q 2931 909 2931 1356 
Q 2931 1769 2642 2001 
Q 2353 2234 1838 2234 
L 1294 2234 
L 1294 2753 
L 1863 2753 
Q 2328 2753 2575 2939 
Q 2822 3125 2822 3475 
Q 2822 3834 2567 4026 
Q 2313 4219 1838 4219 
Q 1578 4219 1281 4162 
Q 984 4106 628 3988 
L 628 4550 
Q 988 4650 1302 4700 
Q 1616 4750 1894 4750 
Q 2613 4750 3031 4423 
Q 3450 4097 3450 3541 
Q 3450 3153 3228 2886 
Q 3006 2619 2597 2516 
z
" id="DejaVuSans-33" transform="scale(0.015625)"/>
       </defs>
       <use xlink:href="#DejaVuSans-33"/>
      </g>
     </g>
    </g>
    <g id="ytick_2">
     <g id="line2d_8">
      <g>
       <use style="stroke:#000000;stroke-width:0.8;" x="54" xlink:href="#m05af786484" y="215.76"/>
      </g>
     </g>
     <g id="text_9">
      <!-- 4 -->
      <g transform="translate(40.6375 219.559219)scale(0.1 -0.1)">
       <use xlink:href="#DejaVuSans-34"/>
      </g>
     </g>
    </g>
    <g id="ytick_3">
     <g id="line2d_9">
      <g>
       <use style="stroke:#000000;stroke-width:0.8;" x="54" xlink:href="#m05af786484" y="179.52"/>
      </g>
     </g>
     <g id="text_10">
      <!-- 5 -->
      <g transform="translate(40.6375 183.319219)scale(0.1 -0.1)">
       <defs>
        <path d="M 691 4666 
L 3169 4666 
L 3169 4134 
L 1269 4134 
L 1269 2991 
Q 1406 3038 1543 3061 
Q 1681 3084 1819 3084 
Q 2600 3084 3056 2656 
Q 3513 2228 3513 1497 
Q 3513 744 3044 326 
Q 2575 -91 1722 -91 
Q 1428 -91 1123 -41 
Q 819 9 494 109 
L 494 744 
Q 775 591 1075 516 
Q 1375 441 1709 441 
Q 2250 441 2565 725 
Q 2881 1009 2881 1497 
Q 2881 1984 2565 2268 
Q 2250 2553 1709 2553 
Q 1456 2553 1204 2497 
Q 953 2441 691 2322 
L 691 4666 
z
" id="DejaVuSans-35" transform="scale(0.015625)"/>
       </defs>
       <use xlink:href="#DejaVuSans-35"/>
      </g>
     </g>
    </g>
    <g id="ytick_4">
     <g id="line2d_10">
      <g>
       <use style="stroke:#000000;stroke-width:0.8;" x="54" xlink:href="#m05af786484" y="143.28"/>
      </g>
     </g>
     <g id="text_11">
      <!-- 6 -->
      <g transform="translate(40.6375 147.079219)scale(0.1 -0.1)">
       <use xlink:href="#DejaVuSans-36"/>
      </g>
     </g>
    </g>
    <g id="ytick_5">
     <g id="line2d_11">
      <g>
       <use style="stroke:#000000;stroke-width:0.8;" x="54" xlink:href="#m05af786484" y="107.04"/>
      </g>
     </g>
     <g id="text_12">
      <!-- 7 -->
      <g transform="translate(40.6375 110.839219)scale(0.1 -0.1)">
       <defs>
        <path d="M 525 4666 
L 3525 4666 
L 3525 4397 
L 1831 0 
L 1172 0 
L 2766 4134 
L 525 4134 
L 525 4666 
z
" id="DejaVuSans-37" transform="scale(0.015625)"/>
       </defs>
       <use xlink:href="#DejaVuSans-37"/>
      </g>
     </g>
    </g>
    <g id="ytick_6">
     <g id="line2d_12">
      <g>
       <use style="stroke:#000000;stroke-width:0.8;" x="54" xlink:href="#m05af786484" y="70.8"/>
      </g>
     </g>
     <g id="text_13">
      <!-- 8 -->
      <g transform="translate(40.6375 74.599219)scale(0.1 -0.1)">
       <use xlink:href="#DejaVuSans-38"/>
      </g>
     </g>
    </g>
    <g id="ytick_7">
     <g id="line2d_13">
      <g>
       <use style="stroke:#000000;stroke-width:0.8;" x="54" xlink:href="#m05af786484" y="34.56"/>
      </g>
     </g>
     <g id="text_14">
      <!-- 9 -->
      <g transform="translate(40.6375 38.359219)scale(0.1 -0.1)">
       <defs>
        <path d="M 703 97 
L 703 672 
Q 941 559 1184 500 
Q 1428 441 1663 441 
Q 2288 441 2617 861 
Q 2947 1281 2994 2138 
Q 2813 1869 2534 1725 
Q 2256 1581 1919 1581 
Q 1219 1581 811 2004 
Q 403 2428 403 3163 
Q 403 3881 828 4315 
Q 1253 4750 1959 4750 
Q 2769 4750 3195 4129 
Q 3622 3509 3622 2328 
Q 3622 1225 3098 567 
Q 2575 -91 1691 -91 
Q 1453 -91 1209 -44 
Q 966 3 703 97 
z
M 1959 2075 
Q 2384 2075 2632 2365 
Q 2881 2656 2881 3163 
Q 2881 3666 2632 3958 
Q 2384 4250 1959 4250 
Q 1534 4250 1286 3958 
Q 1038 3666 1038 3163 
Q 1038 2656 1286 2365 
Q 1534 2075 1959 2075 
z
" id="DejaVuSans-39" transform="scale(0.015625)"/>
       </defs>
       <use xlink:href="#DejaVuSans-39"/>
      </g>
     </g>
    </g>
    <g id="text_15">
     <!-- y -->
     <g transform="translate(34.141875 146.83125)rotate(-90)scale(0.12 -0.12)">
      <defs>
       <path d="M 2059 -325 
Q 1816 -950 1584 -1140 
Q 1353 -1331 966 -1331 
L 506 -1331 
L 506 -850 
L 844 -850 
Q 1081 -850 1212 -737 
Q 1344 -625 1503 -206 
L 1606 56 
L 191 3500 
L 800 3500 
L 1894 763 
L 2988 3500 
L 3597 3500 
L 2059 -325 
z
" id="DejaVuSans-79" transform="scale(0.015625)"/>
      </defs>
      <use xlink:href="#DejaVuSans-79"/>
     </g>
    </g>
   </g>
   <g id="line2d_14">
    <path clip-path="url(#pff8fb52e7b)" d="M 69.218182 70.8 
L 71.985124 85.083949 
L 74.752066 98.25467 
L 77.519008 110.364828 
L 80.28595 121.465955 
L 83.052893 131.608455 
L 85.819835 140.841599 
L 88.586777 149.213528 
L 91.353719 156.771253 
L 94.120661 163.560654 
L 96.887603 169.62648 
L 99.654545 175.012349 
L 102.421488 179.76075 
L 105.18843 183.913038 
L 107.955372 187.509441 
L 110.722314 190.589055 
L 113.489256 193.189844 
L 116.256198 195.348643 
L 119.02314 197.101155 
L 121.790083 198.481953 
L 124.557025 199.52448 
L 127.323967 200.261047 
L 130.090909 200.722835 
L 132.857851 200.939895 
L 135.624793 200.941145 
L 138.391736 200.754375 
L 141.158678 200.406243 
L 143.92562 199.922276 
L 146.692562 199.326871 
L 149.459504 198.643294 
L 152.226446 197.89368 
L 154.993388 197.099035 
L 157.760331 196.279231 
L 160.527273 195.453014 
L 163.294215 194.637994 
L 166.061157 193.850655 
L 168.828099 193.106347 
L 171.595041 192.419291 
L 174.361983 191.802577 
L 177.128926 191.268164 
L 179.895868 190.82688 
L 182.66281 190.488424 
L 185.429752 190.261362 
L 188.196694 190.153131 
L 190.963636 190.170037 
L 193.730579 190.317255 
L 196.497521 190.598829 
L 199.264463 191.017673 
L 202.031405 191.575569 
L 204.798347 192.273171 
L 207.565289 193.11 
L 210.332231 194.084446 
L 213.099174 195.193771 
L 215.866116 196.434103 
L 218.633058 197.800442 
L 221.4 199.286655 
L 224.166942 200.88548 
L 226.933884 202.588525 
L 229.700826 204.386264 
L 232.467769 206.268045 
L 235.234711 208.22208 
L 238.001653 210.235455 
L 240.768595 212.294122 
L 243.535537 214.382905 
L 246.302479 216.485496 
L 249.069421 218.584455 
L 251.836364 220.661214 
L 254.603306 222.696071 
L 257.370248 224.668198 
L 260.13719 226.555631 
L 262.904132 228.33528 
L 265.671074 229.982921 
L 268.438017 231.4732 
L 271.204959 232.779634 
L 273.971901 233.874607 
L 276.738843 234.729375 
L 279.505785 235.31406 
L 282.272727 235.597656 
L 285.039669 235.548026 
L 287.806612 235.1319 
L 290.573554 234.31488 
L 293.340496 233.061436 
L 296.107438 231.334908 
L 298.87438 229.097505 
L 301.641322 226.310305 
L 304.408264 222.933255 
L 307.175207 218.925173 
L 309.942149 214.243744 
L 312.709091 208.845524 
L 315.476033 202.685938 
L 318.242975 195.71928 
L 321.009917 187.898713 
L 323.77686 179.176271 
L 326.543802 169.502854 
L 329.310744 158.828236 
L 332.077686 147.101055 
L 334.844628 134.268823 
L 337.61157 120.277918 
L 340.378512 105.073589 
L 343.145455 88.599954 
L 345.912397 70.8 
L 348.679339 51.615584 
L 351.446281 30.987432 
L 354.213223 8.855138 
L 355.363895 -1 
" style="fill:none;stroke:#0000ff;stroke-linecap:square;stroke-width:2;"/>
   </g>
   <g id="line2d_15">
    <path clip-path="url(#pff8fb52e7b)" d="M 69.218182 151.568685 
L 71.985124 148.537534 
L 74.752066 146.483964 
L 77.519008 145.538895 
L 80.28595 145.798858 
L 83.052893 147.31126 
L 85.819835 150.053234 
L 88.586777 153.910841 
L 91.353719 158.67835 
L 94.120661 164.089962 
L 96.887603 169.866378 
L 99.654545 175.749159 
L 102.421488 181.515445 
L 105.18843 186.980626 
L 107.955372 191.996693 
L 110.722314 196.449905 
L 113.489256 200.258912 
L 116.256198 203.373595 
L 119.02314 205.774511 
L 121.790083 207.472382 
L 124.557025 208.506814 
L 127.323967 208.943443 
L 130.090909 208.86916 
L 132.857851 208.385595 
L 135.624793 207.601544 
L 138.391736 206.625246 
L 141.158678 205.557428 
L 143.92562 204.485836 
L 146.692562 203.481662 
L 149.459504 202.59785 
L 152.226446 201.868952 
L 154.993388 201.311983 
L 157.760331 200.927681 
L 160.527273 200.701796 
L 163.294215 200.60642 
L 166.061157 200.601843 
L 168.828099 200.639749 
L 171.595041 200.668499 
L 174.361983 200.640822 
L 177.128926 200.523716 
L 179.895868 200.309862 
L 182.66281 200.028895 
L 185.429752 199.754337 
L 188.196694 199.597903 
L 190.963636 199.683058 
L 193.730579 200.1048 
L 196.497521 200.902412 
L 199.264463 202.062546 
L 202.031405 203.540221 
L 204.798347 205.27807 
L 207.565289 207.217304 
L 210.332231 209.302791 
L 213.099174 211.485491 
L 215.866116 213.723877 
L 218.633058 215.984816 
L 221.4 218.243892 
L 224.166942 220.48504 
L 226.933884 222.699428 
L 229.700826 224.883616 
L 232.467769 227.037178 
L 235.234711 229.160044 
L 238.001653 231.249898 
L 240.768595 233.29999 
L 243.535537 235.297664 
L 246.302479 237.223838 
L 249.069421 239.053511 
L 251.836364 240.757274 
L 254.603306 242.303631 
L 257.370248 243.661838 
L 260.13719 244.804925 
L 262.904132 245.712509 
L 265.671074 246.373044 
L 268.438017 246.785245 
L 271.204959 246.958483 
L 273.971901 246.91211 
L 276.738843 246.673728 
L 279.505785 246.276361 
L 282.272727 245.753958 
L 285.039669 245.133449 
L 287.806612 244.42029 
L 290.573554 243.576969 
L 293.340496 242.505284 
L 296.107438 241.052337 
L 298.87438 239.043168 
L 301.641322 236.316367 
L 304.408264 232.743309 
L 307.175207 228.232518 
L 309.942149 222.728231 
L 312.709091 216.208916 
L 315.476033 208.687487 
L 318.242975 200.213211 
L 321.009917 190.874778 
L 323.77686 180.803826 
L 326.543802 170.178251 
L 329.310744 159.224694 
L 332.077686 148.219743 
L 334.844628 137.488754 
L 337.61157 127.398855 
L 340.378512 118.338675 
L 343.145455 110.6778 
L 345.912397 104.714406 
L 348.679339 100.638823 
L 351.446281 98.530266 
L 354.213223 98.374148 
L 356.980165 100.080818 
L 359.747107 103.499616 
L 362.51405 108.430481 
L 365.280992 114.635741 
L 368.047934 121.852946 
L 370.814876 129.808324 
L 373.581818 138.229992 
" style="fill:none;stroke:#008000;stroke-dasharray:3.7,1.6;stroke-dashoffset:0;"/>
   </g>
   <g id="line2d_16">
    <path clip-path="url(#pff8fb52e7b)" d="M 69.218182 111.036572 
L 71.985124 112.760682 
L 74.752066 115.243721 
L 77.519008 118.440917 
L 80.28595 122.27293 
L 83.052893 126.635618 
L 85.819835 131.420473 
L 88.586777 136.539271 
L 91.353719 141.933112 
L 94.120661 147.553089 
L 96.887603 153.329397 
L 99.654545 159.15492 
L 102.421488 164.889487 
L 105.18843 170.375895 
L 107.955372 175.458675 
L 110.722314 180.000827 
L 113.489256 183.89645 
L 116.256198 187.078391 
L 119.02314 189.520746 
L 121.790083 191.236842 
L 124.557025 192.273913 
L 127.323967 192.705955 
L 130.090909 192.625983 
L 132.857851 192.138518 
L 135.624793 191.35267 
L 138.391736 190.37592 
L 141.158678 189.308554 
L 143.92562 188.238759 
L 146.692562 187.238487 
L 149.459504 186.360366 
L 152.226446 185.636058 
L 154.993388 185.076451 
L 157.760331 184.673924 
L 160.527273 184.406598 
L 163.294215 184.243961 
L 166.061157 184.152764 
L 168.828099 184.101735 
L 171.595041 184.063784 
L 174.361983 184.014905 
L 177.128926 183.929553 
L 179.895868 183.772994 
L 182.66281 183.492153 
L 185.429752 183.009209 
L 188.196694 182.226381 
L 190.963636 181.050298 
L 193.730579 179.429281 
L 196.497521 177.377183 
L 199.264463 174.966742 
L 202.031405 172.305203 
L 204.798347 169.512111 
L 207.565289 166.70598 
L 210.332231 163.997507 
L 213.099174 161.486095 
L 215.866116 159.257946 
L 218.633058 157.385109 
L 221.4 155.925307 
L 224.166942 154.922487 
L 226.933884 154.407977 
L 229.700826 154.402068 
L 232.467769 154.91579 
L 235.234711 155.952596 
L 238.001653 157.509714 
L 240.768595 159.578933 
L 243.535537 162.146726 
L 246.302479 165.193695 
L 249.069421 168.693469 
L 251.836364 172.611267 
L 254.603306 176.902425 
L 257.370248 181.511178 
L 260.13719 186.369953 
L 262.904132 191.39933 
L 265.671074 196.508709 
L 268.438017 201.597595 
L 271.204959 206.557266 
L 273.971901 211.272554 
L 276.738843 215.623449 
L 279.505785 219.48651 
L 282.272727 222.73677 
L 285.039669 225.252268 
L 287.806612 226.924856 
L 290.573554 227.678519 
L 293.340496 227.485267 
L 296.107438 226.359421 
L 298.87438 224.328094 
L 301.641322 221.401919 
L 304.408264 217.565479 
L 307.175207 212.785572 
L 309.942149 207.027455 
L 312.709091 200.272136 
L 315.476033 192.531466 
L 318.242975 183.859375 
L 321.009917 174.358139 
L 323.77686 164.178931 
L 326.543802 153.516274 
L 329.310744 142.596469 
L 332.077686 131.660588 
L 334.844628 120.943878 
L 337.61157 110.656377 
L 340.378512 100.97411 
L 343.145455 92.049993 
L 345.912397 84.038321 
L 348.679339 77.107229 
L 351.446281 71.423723 
L 354.213223 67.125186 
L 356.980165 64.297199 
L 359.747107 62.963832 
L 362.51405 63.087529 
L 365.280992 64.574793 
L 368.047934 67.285222 
L 370.814876 71.042477 
L 373.581818 75.646189 
" style="fill:none;stroke:#008000;stroke-dasharray:3.7,1.6;stroke-dashoffset:0;"/>
   </g>
   <g id="line2d_17">
    <path clip-path="url(#pff8fb52e7b)" d="M 69.218182 251.999995 
L 71.985124 252 
L 74.752066 252 
L 77.519008 252 
L 80.28595 252 
L 83.052893 252 
L 85.819835 252 
L 88.586777 252 
L 91.353719 252 
L 94.120661 252 
L 96.887603 252 
L 99.654545 252 
L 102.421488 252 
L 105.18843 252 
L 107.955372 252 
L 110.722314 252 
L 113.489256 251.999999 
L 116.256198 251.999993 
L 119.02314 251.999969 
L 121.790083 251.999915 
L 124.557025 251.999844 
L 127.323967 251.999799 
L 130.090909 251.999806 
L 132.857851 251.999853 
L 135.624793 251.999907 
L 138.391736 251.999948 
L 141.158678 251.999973 
L 143.92562 251.999986 
L 146.692562 251.999993 
L 149.459504 251.999996 
L 152.226446 251.999998 
L 154.993388 251.999998 
L 157.760331 251.999999 
L 160.527273 251.999999 
L 163.294215 251.999999 
L 166.061157 251.999999 
L 168.828099 251.999998 
L 171.595041 251.999998 
L 174.361983 251.999998 
L 177.128926 251.999998 
L 179.895868 251.999999 
L 182.66281 251.999999 
L 185.429752 251.999999 
L 188.196694 251.999997 
L 190.963636 251.999987 
L 193.730579 251.99988 
L 196.497521 251.99878 
L 199.264463 251.990169 
L 202.031405 251.945713 
L 204.798347 251.792856 
L 207.565289 251.41679 
L 210.332231 250.699523 
L 213.099174 249.564675 
L 215.866116 247.996825 
L 218.633058 246.033632 
L 221.4 243.744894 
L 224.166942 241.211219 
L 226.933884 238.508469 
L 229.700826 235.699332 
L 232.467769 232.831077 
L 235.234711 229.937776 
L 238.001653 227.045232 
L 240.768595 224.177025 
L 243.535537 221.360332 
L 246.302479 218.630448 
L 249.069421 216.03317 
L 251.836364 213.624579 
L 254.603306 211.468062 
L 257.370248 209.628839 
L 260.13719 208.166662 
L 262.904132 207.127689 
L 265.671074 206.536786 
L 268.438017 206.391727 
L 271.204959 206.660867 
L 273.971901 207.286286 
L 276.738843 208.195332 
L 279.505785 209.325457 
L 282.272727 210.669315 
L 285.039669 212.342781 
L 287.806612 214.650626 
L 290.573554 218.065306 
L 293.340496 223.016947 
L 296.107438 229.528451 
L 298.87438 236.910709 
L 301.641322 243.789424 
L 304.408264 248.708924 
L 307.175207 251.148863 
L 309.942149 251.880525 
L 312.709091 251.992607 
L 315.476033 251.99984 
L 318.242975 251.999999 
L 321.009917 252 
L 323.77686 252 
L 326.543802 252 
L 329.310744 252 
L 332.077686 252 
L 334.844628 252 
L 337.61157 252 
L 340.378512 252 
L 343.145455 252 
L 345.912397 252 
L 348.679339 252 
L 351.446281 252 
L 354.213223 252 
L 356.980165 252 
L 359.747107 252 
L 362.51405 252 
L 365.280992 252 
L 368.047934 251.999994 
L 370.814876 251.999867 
L 373.581818 251.998563 
" style="fill:none;stroke:#bfbf00;stroke-dasharray:7.4,3.2;stroke-dashoffset:0;stroke-width:2;"/>
   </g>
   <g id="patch_3">
    <path d="M 54 252 
L 54 34.56 
" style="fill:none;stroke:#000000;stroke-linecap:square;stroke-linejoin:miter;stroke-width:0.8;"/>
   </g>
   <g id="patch_4">
    <path d="M 388.8 252 
L 388.8 34.56 
" style="fill:none;stroke:#000000;stroke-linecap:square;stroke-linejoin:miter;stroke-width:0.8;"/>
   </g>
   <g id="patch_5">
    <path d="M 54 252 
L 388.8 252 
" style="fill:none;stroke:#000000;stroke-linecap:square;stroke-linejoin:miter;stroke-width:0.8;"/>
   </g>
   <g id="patch_6">
    <path d="M 54 34.56 
L 388.8 34.56 
" style="fill:none;stroke:#000000;stroke-linecap:square;stroke-linejoin:miter;stroke-width:0.8;"/>
   </g>
   <g id="text_16">
    <!-- Method : EI_plugin -->
    <g transform="translate(71.985124 244.752)scale(0.12 -0.12)">
     <defs>
      <path d="M 628 4666 
L 1569 4666 
L 2759 1491 
L 3956 4666 
L 4897 4666 
L 4897 0 
L 4281 0 
L 4281 4097 
L 3078 897 
L 2444 897 
L 1241 4097 
L 1241 0 
L 628 0 
L 628 4666 
z
" id="DejaVuSans-4d" transform="scale(0.015625)"/>
      <path d="M 3597 1894 
L 3597 1613 
L 953 1613 
Q 991 1019 1311 708 
Q 1631 397 2203 397 
Q 2534 397 2845 478 
Q 3156 559 3463 722 
L 3463 178 
Q 3153 47 2828 -22 
Q 2503 -91 2169 -91 
Q 1331 -91 842 396 
Q 353 884 353 1716 
Q 353 2575 817 3079 
Q 1281 3584 2069 3584 
Q 2775 3584 3186 3129 
Q 3597 2675 3597 1894 
z
M 3022 2063 
Q 3016 2534 2758 2815 
Q 2500 3097 2075 3097 
Q 1594 3097 1305 2825 
Q 1016 2553 972 2059 
L 3022 2063 
z
" id="DejaVuSans-65" transform="scale(0.015625)"/>
      <path d="M 1172 4494 
L 1172 3500 
L 2356 3500 
L 2356 3053 
L 1172 3053 
L 1172 1153 
Q 1172 725 1289 603 
Q 1406 481 1766 481 
L 2356 481 
L 2356 0 
L 1766 0 
Q 1100 0 847 248 
Q 594 497 594 1153 
L 594 3053 
L 172 3053 
L 172 3500 
L 594 3500 
L 594 4494 
L 1172 4494 
z
" id="DejaVuSans-74" transform="scale(0.015625)"/>
      <path d="M 3513 2113 
L 3513 0 
L 2938 0 
L 2938 2094 
Q 2938 2591 2744 2837 
Q 2550 3084 2163 3084 
Q 1697 3084 1428 2787 
Q 1159 2491 1159 1978 
L 1159 0 
L 581 0 
L 581 4863 
L 1159 4863 
L 1159 2956 
Q 1366 3272 1645 3428 
Q 1925 3584 2291 3584 
Q 2894 3584 3203 3211 
Q 3513 2838 3513 2113 
z
" id="DejaVuSans-68" transform="scale(0.015625)"/>
      <path d="M 1959 3097 
Q 1497 3097 1228 2736 
Q 959 2375 959 1747 
Q 959 1119 1226 758 
Q 1494 397 1959 397 
Q 2419 397 2687 759 
Q 2956 1122 2956 1747 
Q 2956 2369 2687 2733 
Q 2419 3097 1959 3097 
z
M 1959 3584 
Q 2709 3584 3137 3096 
Q 3566 2609 3566 1747 
Q 3566 888 3137 398 
Q 2709 -91 1959 -91 
Q 1206 -91 779 398 
Q 353 888 353 1747 
Q 353 2609 779 3096 
Q 1206 3584 1959 3584 
z
" id="DejaVuSans-6f" transform="scale(0.015625)"/>
      <path d="M 2906 2969 
L 2906 4863 
L 3481 4863 
L 3481 0 
L 2906 0 
L 2906 525 
Q 2725 213 2448 61 
Q 2172 -91 1784 -91 
Q 1150 -91 751 415 
Q 353 922 353 1747 
Q 353 2572 751 3078 
Q 1150 3584 1784 3584 
Q 2172 3584 2448 3432 
Q 2725 3281 2906 2969 
z
M 947 1747 
Q 947 1113 1208 752 
Q 1469 391 1925 391 
Q 2381 391 2643 752 
Q 2906 1113 2906 1747 
Q 2906 2381 2643 2742 
Q 2381 3103 1925 3103 
Q 1469 3103 1208 2742 
Q 947 2381 947 1747 
z
" id="DejaVuSans-64" transform="scale(0.015625)"/>
      <path id="DejaVuSans-20" transform="scale(0.015625)"/>
      <path d="M 750 794 
L 1409 794 
L 1409 0 
L 750 0 
L 750 794 
z
M 750 3309 
L 1409 3309 
L 1409 2516 
L 750 2516 
L 750 3309 
z
" id="DejaVuSans-3a" transform="scale(0.015625)"/>
      <path d="M 628 4666 
L 3578 4666 
L 3578 4134 
L 1259 4134 
L 1259 2753 
L 3481 2753 
L 3481 2222 
L 1259 2222 
L 1259 531 
L 3634 531 
L 3634 0 
L 628 0 
L 628 4666 
z
" id="DejaVuSans-45" transform="scale(0.015625)"/>
      <path d="M 628 4666 
L 1259 4666 
L 1259 0 
L 628 0 
L 628 4666 
z
" id="DejaVuSans-49" transform="scale(0.015625)"/>
      <path d="M 3263 -1063 
L 3263 -1509 
L -63 -1509 
L -63 -1063 
L 3263 -1063 
z
" id="DejaVuSans-5f" transform="scale(0.015625)"/>
      <path d="M 1159 525 
L 1159 -1331 
L 581 -1331 
L 581 3500 
L 1159 3500 
L 1159 2969 
Q 1341 3281 1617 3432 
Q 1894 3584 2278 3584 
Q 2916 3584 3314 3078 
Q 3713 2572 3713 1747 
Q 3713 922 3314 415 
Q 2916 -91 2278 -91 
Q 1894 -91 1617 61 
Q 1341 213 1159 525 
z
M 3116 1747 
Q 3116 2381 2855 2742 
Q 2594 3103 2138 3103 
Q 1681 3103 1420 2742 
Q 1159 2381 1159 1747 
Q 1159 1113 1420 752 
Q 1681 391 2138 391 
Q 2594 391 2855 752 
Q 3116 1113 3116 1747 
z
" id="DejaVuSans-70" transform="scale(0.015625)"/>
      <path d="M 603 4863 
L 1178 4863 
L 1178 0 
L 603 0 
L 603 4863 
z
" id="DejaVuSans-6c" transform="scale(0.015625)"/>
      <path d="M 544 1381 
L 544 3500 
L 1119 3500 
L 1119 1403 
Q 1119 906 1312 657 
Q 1506 409 1894 409 
Q 2359 409 2629 706 
Q 2900 1003 2900 1516 
L 2900 3500 
L 3475 3500 
L 3475 0 
L 2900 0 
L 2900 538 
Q 2691 219 2414 64 
Q 2138 -91 1772 -91 
Q 1169 -91 856 284 
Q 544 659 544 1381 
z
M 1991 3584 
L 1991 3584 
z
" id="DejaVuSans-75" transform="scale(0.015625)"/>
      <path d="M 2906 1791 
Q 2906 2416 2648 2759 
Q 2391 3103 1925 3103 
Q 1463 3103 1205 2759 
Q 947 2416 947 1791 
Q 947 1169 1205 825 
Q 1463 481 1925 481 
Q 2391 481 2648 825 
Q 2906 1169 2906 1791 
z
M 3481 434 
Q 3481 -459 3084 -895 
Q 2688 -1331 1869 -1331 
Q 1566 -1331 1297 -1286 
Q 1028 -1241 775 -1147 
L 775 -588 
Q 1028 -725 1275 -790 
Q 1522 -856 1778 -856 
Q 2344 -856 2625 -561 
Q 2906 -266 2906 331 
L 2906 616 
Q 2728 306 2450 153 
Q 2172 0 1784 0 
Q 1141 0 747 490 
Q 353 981 353 1791 
Q 353 2603 747 3093 
Q 1141 3584 1784 3584 
Q 2172 3584 2450 3431 
Q 2728 3278 2906 2969 
L 2906 3500 
L 3481 3500 
L 3481 434 
z
" id="DejaVuSans-67" transform="scale(0.015625)"/>
      <path d="M 603 3500 
L 1178 3500 
L 1178 0 
L 603 0 
L 603 3500 
z
M 603 4863 
L 1178 4863 
L 1178 4134 
L 603 4134 
L 603 4863 
z
" id="DejaVuSans-69" transform="scale(0.015625)"/>
      <path d="M 3513 2113 
L 3513 0 
L 2938 0 
L 2938 2094 
Q 2938 2591 2744 2837 
Q 2550 3084 2163 3084 
Q 1697 3084 1428 2787 
Q 1159 2491 1159 1978 
L 1159 0 
L 581 0 
L 581 3500 
L 1159 3500 
L 1159 2956 
Q 1366 3272 1645 3428 
Q 1925 3584 2291 3584 
Q 2894 3584 3203 3211 
Q 3513 2838 3513 2113 
z
" id="DejaVuSans-6e" transform="scale(0.015625)"/>
     </defs>
     <use xlink:href="#DejaVuSans-4d"/>
     <use x="86.279297" xlink:href="#DejaVuSans-65"/>
     <use x="147.802734" xlink:href="#DejaVuSans-74"/>
     <use x="187.011719" xlink:href="#DejaVuSans-68"/>
     <use x="250.390625" xlink:href="#DejaVuSans-6f"/>
     <use x="311.572266" xlink:href="#DejaVuSans-64"/>
     <use x="375.048828" xlink:href="#DejaVuSans-20"/>
     <use x="406.835938" xlink:href="#DejaVuSans-3a"/>
     <use x="440.527344" xlink:href="#DejaVuSans-20"/>
     <use x="472.314453" xlink:href="#DejaVuSans-45"/>
     <use x="535.498047" xlink:href="#DejaVuSans-49"/>
     <use x="564.990234" xlink:href="#DejaVuSans-5f"/>
     <use x="614.990234" xlink:href="#DejaVuSans-70"/>
     <use x="678.466797" xlink:href="#DejaVuSans-6c"/>
     <use x="706.25" xlink:href="#DejaVuSans-75"/>
     <use x="769.628906" xlink:href="#DejaVuSans-67"/>
     <use x="833.105469" xlink:href="#DejaVuSans-69"/>
     <use x="860.888672" xlink:href="#DejaVuSans-6e"/>
    </g>
   </g>
   <g id="text_17">
    <!-- Iter=3 -->
    <g transform="translate(71.985124 226.632)scale(0.12 -0.12)">
     <defs>
      <path d="M 2631 2963 
Q 2534 3019 2420 3045 
Q 2306 3072 2169 3072 
Q 1681 3072 1420 2755 
Q 1159 2438 1159 1844 
L 1159 0 
L 581 0 
L 581 3500 
L 1159 3500 
L 1159 2956 
Q 1341 3275 1631 3429 
Q 1922 3584 2338 3584 
Q 2397 3584 2469 3576 
Q 2541 3569 2628 3553 
L 2631 2963 
z
" id="DejaVuSans-72" transform="scale(0.015625)"/>
      <path d="M 678 2906 
L 4684 2906 
L 4684 2381 
L 678 2381 
L 678 2906 
z
M 678 1631 
L 4684 1631 
L 4684 1100 
L 678 1100 
L 678 1631 
z
" id="DejaVuSans-3d" transform="scale(0.015625)"/>
     </defs>
     <use xlink:href="#DejaVuSans-49"/>
     <use x="29.492188" xlink:href="#DejaVuSans-74"/>
     <use x="68.701172" xlink:href="#DejaVuSans-65"/>
     <use x="130.224609" xlink:href="#DejaVuSans-72"/>
     <use x="171.337891" xlink:href="#DejaVuSans-3d"/>
     <use x="255.126953" xlink:href="#DejaVuSans-33"/>
    </g>
   </g>
   <g id="legend_1">
    <g id="patch_7">
     <path d="M 144.327812 140.541562 
L 298.472188 140.541562 
Q 300.672188 140.541562 300.672188 138.341563 
L 300.672188 42.26 
Q 300.672188 40.06 298.472188 40.06 
L 144.327812 40.06 
Q 142.127813 40.06 142.127813 42.26 
L 142.127813 138.341563 
Q 142.127813 140.541562 144.327812 140.541562 
z
" style="fill:#ffffff;opacity:0.8;stroke:#cccccc;stroke-linejoin:miter;"/>
    </g>
    <g id="line2d_18">
     <path d="M 146.527813 48.968281 
L 168.527813 48.968281 
" style="fill:none;stroke:#0000ff;stroke-linecap:square;stroke-width:2;"/>
    </g>
    <g id="line2d_19"/>
    <g id="text_18">
     <!-- ture function -->
     <g transform="translate(177.327813 52.818281)scale(0.11 -0.11)">
      <defs>
       <path d="M 2375 4863 
L 2375 4384 
L 1825 4384 
Q 1516 4384 1395 4259 
Q 1275 4134 1275 3809 
L 1275 3500 
L 2222 3500 
L 2222 3053 
L 1275 3053 
L 1275 0 
L 697 0 
L 697 3053 
L 147 3053 
L 147 3500 
L 697 3500 
L 697 3744 
Q 697 4328 969 4595 
Q 1241 4863 1831 4863 
L 2375 4863 
z
" id="DejaVuSans-66" transform="scale(0.015625)"/>
       <path d="M 3122 3366 
L 3122 2828 
Q 2878 2963 2633 3030 
Q 2388 3097 2138 3097 
Q 1578 3097 1268 2742 
Q 959 2388 959 1747 
Q 959 1106 1268 751 
Q 1578 397 2138 397 
Q 2388 397 2633 464 
Q 2878 531 3122 666 
L 3122 134 
Q 2881 22 2623 -34 
Q 2366 -91 2075 -91 
Q 1284 -91 818 406 
Q 353 903 353 1747 
Q 353 2603 823 3093 
Q 1294 3584 2113 3584 
Q 2378 3584 2631 3529 
Q 2884 3475 3122 3366 
z
" id="DejaVuSans-63" transform="scale(0.015625)"/>
      </defs>
      <use xlink:href="#DejaVuSans-74"/>
      <use x="39.208984" xlink:href="#DejaVuSans-75"/>
      <use x="102.587891" xlink:href="#DejaVuSans-72"/>
      <use x="141.451172" xlink:href="#DejaVuSans-65"/>
      <use x="202.974609" xlink:href="#DejaVuSans-20"/>
      <use x="234.761719" xlink:href="#DejaVuSans-66"/>
      <use x="269.966797" xlink:href="#DejaVuSans-75"/>
      <use x="333.345703" xlink:href="#DejaVuSans-6e"/>
      <use x="396.724609" xlink:href="#DejaVuSans-63"/>
      <use x="451.705078" xlink:href="#DejaVuSans-74"/>
      <use x="490.914062" xlink:href="#DejaVuSans-69"/>
      <use x="518.697266" xlink:href="#DejaVuSans-6f"/>
      <use x="579.878906" xlink:href="#DejaVuSans-6e"/>
     </g>
    </g>
    <g id="line2d_20">
     <path d="M 146.527813 65.114219 
L 168.527813 65.114219 
" style="fill:none;stroke:#000000;stroke-dasharray:7.4,3.2;stroke-dashoffset:0;stroke-width:2;"/>
    </g>
    <g id="line2d_21"/>
    <g id="text_19">
     <!-- predicted function -->
     <g transform="translate(177.327813 68.964219)scale(0.11 -0.11)">
      <use xlink:href="#DejaVuSans-70"/>
      <use x="63.476562" xlink:href="#DejaVuSans-72"/>
      <use x="102.339844" xlink:href="#DejaVuSans-65"/>
      <use x="163.863281" xlink:href="#DejaVuSans-64"/>
      <use x="227.339844" xlink:href="#DejaVuSans-69"/>
      <use x="255.123047" xlink:href="#DejaVuSans-63"/>
      <use x="310.103516" xlink:href="#DejaVuSans-74"/>
      <use x="349.3125" xlink:href="#DejaVuSans-65"/>
      <use x="410.835938" xlink:href="#DejaVuSans-64"/>
      <use x="474.3125" xlink:href="#DejaVuSans-20"/>
      <use x="506.099609" xlink:href="#DejaVuSans-66"/>
      <use x="541.304688" xlink:href="#DejaVuSans-75"/>
      <use x="604.683594" xlink:href="#DejaVuSans-6e"/>
      <use x="668.0625" xlink:href="#DejaVuSans-63"/>
      <use x="723.042969" xlink:href="#DejaVuSans-74"/>
      <use x="762.251953" xlink:href="#DejaVuSans-69"/>
      <use x="790.035156" xlink:href="#DejaVuSans-6f"/>
      <use x="851.216797" xlink:href="#DejaVuSans-6e"/>
     </g>
    </g>
    <g id="line2d_22">
     <path d="M 146.527813 81.260156 
L 168.527813 81.260156 
" style="fill:none;stroke:#008000;stroke-dasharray:3.7,1.6;stroke-dashoffset:0;"/>
    </g>
    <g id="line2d_23"/>
    <g id="text_20">
     <!--  ± Sn(x) -->
     <g transform="translate(177.327813 85.110156)scale(0.11 -0.11)">
      <defs>
       <path d="M 2944 4013 
L 2944 2803 
L 4684 2803 
L 4684 2272 
L 2944 2272 
L 2944 1063 
L 2419 1063 
L 2419 2272 
L 678 2272 
L 678 2803 
L 2419 2803 
L 2419 4013 
L 2944 4013 
z
M 678 531 
L 4684 531 
L 4684 0 
L 678 0 
L 678 531 
z
" id="DejaVuSans-b1" transform="scale(0.015625)"/>
       <path d="M 3425 4513 
L 3425 3897 
Q 3066 4069 2747 4153 
Q 2428 4238 2131 4238 
Q 1616 4238 1336 4038 
Q 1056 3838 1056 3469 
Q 1056 3159 1242 3001 
Q 1428 2844 1947 2747 
L 2328 2669 
Q 3034 2534 3370 2195 
Q 3706 1856 3706 1288 
Q 3706 609 3251 259 
Q 2797 -91 1919 -91 
Q 1588 -91 1214 -16 
Q 841 59 441 206 
L 441 856 
Q 825 641 1194 531 
Q 1563 422 1919 422 
Q 2459 422 2753 634 
Q 3047 847 3047 1241 
Q 3047 1584 2836 1778 
Q 2625 1972 2144 2069 
L 1759 2144 
Q 1053 2284 737 2584 
Q 422 2884 422 3419 
Q 422 4038 858 4394 
Q 1294 4750 2059 4750 
Q 2388 4750 2728 4690 
Q 3069 4631 3425 4513 
z
" id="DejaVuSans-53" transform="scale(0.015625)"/>
       <path d="M 1984 4856 
Q 1566 4138 1362 3434 
Q 1159 2731 1159 2009 
Q 1159 1288 1364 580 
Q 1569 -128 1984 -844 
L 1484 -844 
Q 1016 -109 783 600 
Q 550 1309 550 2009 
Q 550 2706 781 3412 
Q 1013 4119 1484 4856 
L 1984 4856 
z
" id="DejaVuSans-28" transform="scale(0.015625)"/>
       <path d="M 513 4856 
L 1013 4856 
Q 1481 4119 1714 3412 
Q 1947 2706 1947 2009 
Q 1947 1309 1714 600 
Q 1481 -109 1013 -844 
L 513 -844 
Q 928 -128 1133 580 
Q 1338 1288 1338 2009 
Q 1338 2731 1133 3434 
Q 928 4138 513 4856 
z
" id="DejaVuSans-29" transform="scale(0.015625)"/>
      </defs>
      <use xlink:href="#DejaVuSans-20"/>
      <use x="31.787109" xlink:href="#DejaVuSans-b1"/>
      <use x="115.576172" xlink:href="#DejaVuSans-20"/>
      <use x="147.363281" xlink:href="#DejaVuSans-53"/>
      <use x="210.839844" xlink:href="#DejaVuSans-6e"/>
      <use x="274.21875" xlink:href="#DejaVuSans-28"/>
      <use x="313.232422" xlink:href="#DejaVuSans-78"/>
      <use x="372.412109" xlink:href="#DejaVuSans-29"/>
     </g>
    </g>
    <g id="line2d_24">
     <path d="M 146.527813 97.406094 
L 168.527813 97.406094 
" style="fill:none;stroke:#bfbf00;stroke-dasharray:7.4,3.2;stroke-dashoffset:0;stroke-width:2;"/>
    </g>
    <g id="line2d_25"/>
    <g id="text_21">
     <!-- EI_plugin(x) -->
     <g transform="translate(177.327813 101.256094)scale(0.11 -0.11)">
      <use xlink:href="#DejaVuSans-45"/>
      <use x="63.183594" xlink:href="#DejaVuSans-49"/>
      <use x="92.675781" xlink:href="#DejaVuSans-5f"/>
      <use x="142.675781" xlink:href="#DejaVuSans-70"/>
      <use x="206.152344" xlink:href="#DejaVuSans-6c"/>
      <use x="233.935547" xlink:href="#DejaVuSans-75"/>
      <use x="297.314453" xlink:href="#DejaVuSans-67"/>
      <use x="360.791016" xlink:href="#DejaVuSans-69"/>
      <use x="388.574219" xlink:href="#DejaVuSans-6e"/>
      <use x="451.953125" xlink:href="#DejaVuSans-28"/>
      <use x="490.966797" xlink:href="#DejaVuSans-78"/>
      <use x="550.146484" xlink:href="#DejaVuSans-29"/>
     </g>
    </g>
    <g id="PathCollection_2">
     <defs>
      <path d="M 0 3.535534 
C 0.937635 3.535534 1.836992 3.163008 2.5 2.5 
C 3.163008 1.836992 3.535534 0.937635 3.535534 0 
C 3.535534 -0.937635 3.163008 -1.836992 2.5 -2.5 
C 1.836992 -3.163008 0.937635 -3.535534 0 -3.535534 
C -0.937635 -3.535534 -1.836992 -3.163008 -2.5 -2.5 
C -3.163008 -1.836992 -3.535534 -0.937635 -3.535534 0 
C -3.535534 0.937635 -3.163008 1.836992 -2.5 2.5 
C -1.836992 3.163008 -0.937635 3.535534 0 3.535534 
z
" id="m24c83cb46a" style="stroke:#000000;"/>
     </defs>
     <g>
      <use style="fill:#ff0000;stroke:#000000;" x="157.527813" xlink:href="#m24c83cb46a" y="114.820469"/>
     </g>
    </g>
    <g id="text_22">
     <!-- training data -->
     <g transform="translate(177.327813 117.707969)scale(0.11 -0.11)">
      <defs>
       <path d="M 2194 1759 
Q 1497 1759 1228 1600 
Q 959 1441 959 1056 
Q 959 750 1161 570 
Q 1363 391 1709 391 
Q 2188 391 2477 730 
Q 2766 1069 2766 1631 
L 2766 1759 
L 2194 1759 
z
M 3341 1997 
L 3341 0 
L 2766 0 
L 2766 531 
Q 2569 213 2275 61 
Q 1981 -91 1556 -91 
Q 1019 -91 701 211 
Q 384 513 384 1019 
Q 384 1609 779 1909 
Q 1175 2209 1959 2209 
L 2766 2209 
L 2766 2266 
Q 2766 2663 2505 2880 
Q 2244 3097 1772 3097 
Q 1472 3097 1187 3025 
Q 903 2953 641 2809 
L 641 3341 
Q 956 3463 1253 3523 
Q 1550 3584 1831 3584 
Q 2591 3584 2966 3190 
Q 3341 2797 3341 1997 
z
" id="DejaVuSans-61" transform="scale(0.015625)"/>
      </defs>
      <use xlink:href="#DejaVuSans-74"/>
      <use x="39.208984" xlink:href="#DejaVuSans-72"/>
      <use x="80.322266" xlink:href="#DejaVuSans-61"/>
      <use x="141.601562" xlink:href="#DejaVuSans-69"/>
      <use x="169.384766" xlink:href="#DejaVuSans-6e"/>
      <use x="232.763672" xlink:href="#DejaVuSans-69"/>
      <use x="260.546875" xlink:href="#DejaVuSans-6e"/>
      <use x="323.925781" xlink:href="#DejaVuSans-67"/>
      <use x="387.402344" xlink:href="#DejaVuSans-20"/>
      <use x="419.189453" xlink:href="#DejaVuSans-64"/>
      <use x="482.666016" xlink:href="#DejaVuSans-61"/>
      <use x="543.945312" xlink:href="#DejaVuSans-74"/>
      <use x="583.154297" xlink:href="#DejaVuSans-61"/>
     </g>
    </g>
    <g id="PathCollection_3">
     <g>
      <use style="fill:#ff0000;stroke:#ff0000;stroke-width:8;" x="157.527813" xlink:href="#m7faa1946bf" y="130.966406"/>
     </g>
    </g>
    <g id="text_23">
     <!-- recommended datum -->
     <g transform="translate(177.327813 133.853906)scale(0.11 -0.11)">
      <defs>
       <path d="M 3328 2828 
Q 3544 3216 3844 3400 
Q 4144 3584 4550 3584 
Q 5097 3584 5394 3201 
Q 5691 2819 5691 2113 
L 5691 0 
L 5113 0 
L 5113 2094 
Q 5113 2597 4934 2840 
Q 4756 3084 4391 3084 
Q 3944 3084 3684 2787 
Q 3425 2491 3425 1978 
L 3425 0 
L 2847 0 
L 2847 2094 
Q 2847 2600 2669 2842 
Q 2491 3084 2119 3084 
Q 1678 3084 1418 2786 
Q 1159 2488 1159 1978 
L 1159 0 
L 581 0 
L 581 3500 
L 1159 3500 
L 1159 2956 
Q 1356 3278 1631 3431 
Q 1906 3584 2284 3584 
Q 2666 3584 2933 3390 
Q 3200 3197 3328 2828 
z
" id="DejaVuSans-6d" transform="scale(0.015625)"/>
      </defs>
      <use xlink:href="#DejaVuSans-72"/>
      <use x="38.863281" xlink:href="#DejaVuSans-65"/>
      <use x="100.386719" xlink:href="#DejaVuSans-63"/>
      <use x="155.367188" xlink:href="#DejaVuSans-6f"/>
      <use x="216.548828" xlink:href="#DejaVuSans-6d"/>
      <use x="313.960938" xlink:href="#DejaVuSans-6d"/>
      <use x="411.373047" xlink:href="#DejaVuSans-65"/>
      <use x="472.896484" xlink:href="#DejaVuSans-6e"/>
      <use x="536.275391" xlink:href="#DejaVuSans-64"/>
      <use x="599.751953" xlink:href="#DejaVuSans-65"/>
      <use x="661.275391" xlink:href="#DejaVuSans-64"/>
      <use x="724.751953" xlink:href="#DejaVuSans-20"/>
      <use x="756.539062" xlink:href="#DejaVuSans-64"/>
      <use x="820.015625" xlink:href="#DejaVuSans-61"/>
      <use x="881.294922" xlink:href="#DejaVuSans-74"/>
      <use x="920.503906" xlink:href="#DejaVuSans-75"/>
      <use x="983.882812" xlink:href="#DejaVuSans-6d"/>
     </g>
    </g>
   </g>
   <g id="line2d_26">
    <path clip-path="url(#pff8fb52e7b)" d="M 69.218182 131.302628 
L 71.985124 130.649108 
L 74.752066 130.863842 
L 77.519008 131.989906 
L 80.28595 134.035894 
L 83.052893 136.973439 
L 85.819835 140.736853 
L 88.586777 145.225056 
L 91.353719 150.305731 
L 94.120661 155.821525 
L 96.887603 161.597887 
L 99.654545 167.452039 
L 102.421488 173.202466 
L 105.18843 178.67826 
L 107.955372 183.727684 
L 110.722314 188.225366 
L 113.489256 192.077681 
L 116.256198 195.225993 
L 119.02314 197.647629 
L 121.790083 199.354612 
L 124.557025 200.390363 
L 127.323967 200.824699 
L 130.090909 200.747572 
L 132.857851 200.262056 
L 135.624793 199.477107 
L 138.391736 198.500583 
L 141.158678 197.432991 
L 143.92562 196.362297 
L 146.692562 195.360074 
L 149.459504 194.479108 
L 152.226446 193.752505 
L 154.993388 193.194217 
L 157.760331 192.800802 
L 160.527273 192.554197 
L 163.294215 192.42519 
L 166.061157 192.377304 
L 168.828099 192.370742 
L 171.595041 192.366142 
L 174.361983 192.327863 
L 177.128926 192.226635 
L 179.895868 192.041428 
L 182.66281 191.760524 
L 185.429752 191.381773 
L 188.196694 190.912142 
L 190.963636 190.366678 
L 193.730579 189.76704 
L 196.497521 189.139797 
L 199.264463 188.514644 
L 202.031405 187.922712 
L 204.798347 187.395091 
L 207.565289 186.961642 
L 210.332231 186.650149 
L 213.099174 186.485793 
L 215.866116 186.490912 
L 218.633058 186.684963 
L 221.4 187.084599 
L 224.166942 187.703763 
L 226.933884 188.553702 
L 229.700826 189.642842 
L 232.467769 190.976484 
L 235.234711 192.55632 
L 238.001653 194.379806 
L 240.768595 196.439461 
L 243.535537 198.722195 
L 246.302479 201.208766 
L 249.069421 203.87349 
L 251.836364 206.684271 
L 254.603306 209.603028 
L 257.370248 212.586508 
L 260.13719 215.587439 
L 262.904132 218.555919 
L 265.671074 221.440877 
L 268.438017 224.19142 
L 271.204959 226.757875 
L 273.971901 229.092332 
L 276.738843 231.148588 
L 279.505785 232.881435 
L 282.272727 234.245364 
L 285.039669 235.192859 
L 287.806612 235.672573 
L 290.573554 235.627744 
L 293.340496 234.995276 
L 296.107438 233.705879 
L 298.87438 231.685631 
L 301.641322 228.859143 
L 304.408264 225.154394 
L 307.175207 220.509045 
L 309.942149 214.877843 
L 312.709091 208.240526 
L 315.476033 200.609477 
L 318.242975 192.036293 
L 321.009917 182.616459 
L 323.77686 172.491379 
L 326.543802 161.847263 
L 329.310744 150.910581 
L 332.077686 139.940166 
L 334.844628 129.216316 
L 337.61157 119.027616 
L 340.378512 109.656393 
L 343.145455 101.363897 
L 345.912397 94.376364 
L 348.679339 88.873026 
L 351.446281 84.976995 
L 354.213223 82.749667 
L 356.980165 82.189008 
L 359.747107 83.231724 
L 362.51405 85.759005 
L 365.280992 89.605267 
L 368.047934 94.569084 
L 370.814876 100.425401 
L 373.581818 106.938091 
" style="fill:none;stroke:#000000;stroke-dasharray:7.4,3.2;stroke-dashoffset:0;stroke-width:2;"/>
   </g>
   <g id="PathCollection_4">
    <g clip-path="url(#pff8fb52e7b)">
     <use style="fill:#ff0000;stroke:#000000;" x="83.052893" xlink:href="#m24c83cb46a" y="129.399309"/>
     <use style="fill:#ff0000;stroke:#000000;" x="96.887603" xlink:href="#m24c83cb46a" y="162.429541"/>
     <use style="fill:#ff0000;stroke:#000000;" x="110.722314" xlink:href="#m24c83cb46a" y="193.170209"/>
     <use style="fill:#ff0000;stroke:#000000;" x="124.557025" xlink:href="#m24c83cb46a" y="199.248575"/>
     <use style="fill:#ff0000;stroke:#000000;" x="138.391736" xlink:href="#m24c83cb46a" y="199.347548"/>
     <use style="fill:#ff0000;stroke:#000000;" x="152.226446" xlink:href="#m24c83cb46a" y="191.611971"/>
     <use style="fill:#ff0000;stroke:#000000;" x="166.061157" xlink:href="#m24c83cb46a" y="193.66847"/>
     <use style="fill:#ff0000;stroke:#000000;" x="179.895868" xlink:href="#m24c83cb46a" y="193.283098"/>
     <use style="fill:#ff0000;stroke:#000000;" x="193.730579" xlink:href="#m24c83cb46a" y="188.924027"/>
     <use style="fill:#ff0000;stroke:#000000;" x="318.242975" xlink:href="#m24c83cb46a" y="199.289596"/>
     <use style="fill:#ff0000;stroke:#000000;" x="332.077686" xlink:href="#m24c83cb46a" y="145.37007"/>
     <use style="fill:#ff0000;stroke:#000000;" x="345.912397" xlink:href="#m24c83cb46a" y="78.407322"/>
     <use style="fill:#ff0000;stroke:#000000;" x="304.408264" xlink:href="#m24c83cb46a" y="220.669983"/>
     <use style="fill:#ff0000;stroke:#000000;" x="296.107438" xlink:href="#m24c83cb46a" y="232.677346"/>
     <use style="fill:#ff0000;stroke:#000000;" x="285.039669" xlink:href="#m24c83cb46a" y="240.837592"/>
    </g>
   </g>
  </g>
 </g>
 <defs>
  <clipPath id="pff8fb52e7b">
   <rect height="217.44" width="334.8" x="54" y="34.56"/>
  </clipPath>
 </defs>
</svg>
