<?xml version="1.0" encoding="utf-8" standalone="no"?>
<!DOCTYPE svg PUBLIC "-//W3C//DTD SVG 1.1//EN"
  "http://www.w3.org/Graphics/SVG/1.1/DTD/svg11.dtd">
<svg height="288pt" version="1.1" viewBox="0 0 432 288" width="432pt" xmlns="http://www.w3.org/2000/svg" xmlns:xlink="http://www.w3.org/1999/xlink">
 <metadata>
  <rdf:RDF xmlns:cc="http://creativecommons.org/ns#" xmlns:dc="http://purl.org/dc/elements/1.1/" xmlns:rdf="http://www.w3.org/1999/02/22-rdf-syntax-ns#">
   <cc:Work>
    <dc:type rdf:resource="http://purl.org/dc/dcmitype/StillImage"/>
    <dc:date>2022-08-04T17:09:33.691155</dc:date>
    <dc:format>image/svg+xml</dc:format>
    <dc:creator>
     <cc:Agent>
      <dc:title>Matplotlib v3.4.3, https://matplotlib.org/</dc:title>
     </cc:Agent>
    </dc:creator>
   </cc:Work>
  </rdf:RDF>
 </metadata>
 <defs>
  <style type="text/css">*{stroke-linecap:butt;stroke-linejoin:round;}</style>
 </defs>
 <g id="figure_1">
  <g id="patch_1">
   <path d="M 0 288 
L 432 288 
L 432 0 
L 0 0 
z
" style="fill:none;"/>
  </g>
  <g id="axes_1">
   <g id="patch_2">
    <path d="M 54 252 
L 388.8 252 
L 388.8 34.56 
L 54 34.56 
z
" style="fill:#ffffff;"/>
   </g>
   <g id="PolyCollection_1">
    <defs>
     <path d="M 69.218182 -171.842138 
L 69.218182 -122.282318 
L 71.985124 -125.620681 
L 74.752066 -128.240637 
L 77.519008 -129.97652 
L 80.28595 -130.690679 
L 83.052893 -130.291086 
L 85.819835 -128.751153 
L 88.586777 -126.125962 
L 91.353719 -122.554494 
L 94.120661 -118.241421 
L 96.887603 -113.425134 
L 99.654545 -108.346558 
L 102.421488 -103.228129 
L 105.18843 -98.263257 
L 107.955372 -93.612476 
L 110.722314 -89.402827 
L 113.489256 -85.728479 
L 116.256198 -82.651686 
L 119.02314 -80.20384 
L 121.790083 -78.386792 
L 124.557025 -77.174841 
L 127.323967 -76.517835 
L 130.090909 -76.345574 
L 132.857851 -76.573403 
L 135.624793 -77.108558 
L 138.391736 -77.856627 
L 141.158678 -78.727499 
L 143.92562 -79.640273 
L 146.692562 -80.526835 
L 149.459504 -81.334076 
L 152.226446 -82.02493 
L 154.993388 -82.578545 
L 157.760331 -82.989876 
L 160.527273 -83.268827 
L 163.294215 -83.438791 
L 166.061157 -83.53417 
L 168.828099 -83.59635 
L 171.595041 -83.667763 
L 174.361983 -83.784025 
L 177.128926 -83.964756 
L 179.895868 -84.204461 
L 182.66281 -84.46607 
L 185.429752 -84.681297 
L 188.196694 -84.762305 
L 190.963636 -84.625015 
L 193.730579 -84.215226 
L 196.497521 -83.52339 
L 199.264463 -82.58153 
L 202.031405 -81.448713 
L 204.798347 -80.195236 
L 207.565289 -78.890878 
L 210.332231 -77.597643 
L 213.099174 -76.365657 
L 215.866116 -75.231058 
L 218.633058 -74.21524 
L 221.4 -73.325117 
L 224.166942 -72.554262 
L 226.933884 -71.884721 
L 229.700826 -71.289326 
L 232.467769 -70.734296 
L 235.234711 -70.18192 
L 238.001653 -69.59318 
L 240.768595 -68.930184 
L 243.535537 -68.158395 
L 246.302479 -67.248622 
L 249.069421 -66.178809 
L 251.836364 -64.93558 
L 254.603306 -63.515513 
L 257.370248 -61.926014 
L 260.13719 -60.185695 
L 262.904132 -58.324099 
L 265.671074 -56.380725 
L 268.438017 -54.403321 
L 271.204959 -52.445535 
L 273.971901 -50.564072 
L 276.738843 -48.815614 
L 279.505785 -47.253811 
L 282.272727 -45.926847 
L 285.039669 -44.876357 
L 287.806612 -44.13907 
L 290.573554 -43.753225 
L 293.340496 -43.771595 
L 296.107438 -44.279525 
L 298.87438 -45.408842 
L 301.641322 -47.333471 
L 304.408264 -50.241052 
L 307.175207 -54.292288 
L 309.942149 -59.586394 
L 312.709091 -66.142283 
L 315.476033 -73.894736 
L 318.242975 -82.700934 
L 321.009917 -92.353061 
L 323.77686 -102.593492 
L 326.543802 -113.129386 
L 329.310744 -123.644187 
L 332.077686 -133.805431 
L 334.844628 -143.271299 
L 337.61157 -151.701034 
L 340.378512 -158.77456 
L 343.145455 -164.222165 
L 345.912397 -167.856453 
L 348.679339 -169.59344 
L 351.446281 -169.455057 
L 354.213223 -167.556374 
L 356.980165 -164.085807 
L 359.747107 -159.284213 
L 362.51405 -153.425025 
L 365.280992 -146.795879 
L 368.047934 -139.682017 
L 370.814876 -132.351929 
L 373.581818 -125.045851 
L 373.581818 -192.475966 
L 373.581818 -192.475966 
L 370.814876 -196.984392 
L 368.047934 -201.075618 
L 365.280992 -204.546515 
L 362.51405 -207.198723 
L 359.747107 -208.851243 
L 356.980165 -209.352955 
L 354.213223 -208.593685 
L 351.446281 -206.512124 
L 348.679339 -203.09864 
L 345.912397 -198.391402 
L 343.145455 -192.466351 
L 340.378512 -185.425929 
L 337.61157 -177.394555 
L 334.844628 -168.524651 
L 332.077686 -159.006686 
L 329.310744 -149.071886 
L 326.543802 -138.981966 
L 323.77686 -129.009014 
L 321.009917 -119.413084 
L 318.242975 -110.424499 
L 315.476033 -102.234737 
L 312.709091 -94.996205 
L 309.942149 -88.828745 
L 307.175207 -83.829523 
L 304.408264 -80.082223 
L 301.641322 -77.660388 
L 298.87438 -76.619246 
L 296.107438 -76.974173 
L 293.340496 -78.674404 
L 290.573554 -81.589454 
L 287.806612 -85.519199 
L 285.039669 -90.221327 
L 282.272727 -95.441525 
L 279.505785 -100.936952 
L 276.738843 -106.491194 
L 273.971901 -111.922434 
L 271.204959 -117.086857 
L 268.438017 -121.878707 
L 265.671074 -126.227924 
L 262.904132 -130.096024 
L 260.13719 -133.470815 
L 257.370248 -136.360477 
L 254.603306 -138.787507 
L 251.836364 -140.782941 
L 249.069421 -142.381173 
L 246.302479 -143.615595 
L 243.535537 -144.515188 
L 240.768595 -145.102127 
L 238.001653 -145.390444 
L 235.234711 -145.385733 
L 232.467769 -145.085924 
L 229.700826 -144.483054 
L 226.933884 -143.565968 
L 224.166942 -142.323763 
L 221.4 -140.749737 
L 218.633058 -138.845505 
L 215.866116 -136.624928 
L 213.099174 -134.117452 
L 210.332231 -131.370506 
L 207.565289 -128.450635 
L 204.798347 -125.443055 
L 202.031405 -122.449229 
L 199.264463 -119.581774 
L 196.497521 -116.955535 
L 193.730579 -114.67358 
L 190.963636 -112.808669 
L 188.196694 -111.385747 
L 185.429752 -110.375884 
L 182.66281 -109.708338 
L 179.895868 -109.294548 
L 177.128926 -109.050162 
L 174.361983 -108.906522 
L 171.595041 -108.8121 
L 168.828099 -108.728465 
L 166.061157 -108.624897 
L 163.294215 -108.474115 
L 160.527273 -108.250256 
L 157.760331 -107.929343 
L 154.993388 -107.491822 
L 152.226446 -106.926309 
L 149.459504 -106.233529 
L 146.692562 -105.429516 
L 143.92562 -104.547502 
L 141.158678 -103.638211 
L 138.391736 -102.768606 
L 135.624793 -102.019269 
L 132.857851 -101.480633 
L 130.090909 -101.248255 
L 127.323967 -101.417288 
L 124.557025 -102.07622 
L 121.790083 -103.300069 
L 119.02314 -105.143308 
L 116.256198 -107.633115 
L 113.489256 -110.763802 
L 110.722314 -114.493554 
L 107.955372 -118.744591 
L 105.18843 -123.407595 
L 102.421488 -128.350626 
L 99.654545 -133.431963 
L 96.887603 -138.515221 
L 94.120661 -143.48369 
L 91.353719 -148.249081 
L 88.586777 -152.749404 
L 85.819835 -156.934807 
L 83.052893 -160.74944 
L 80.28595 -164.122825 
L 77.519008 -166.976768 
L 74.752066 -169.241163 
L 71.985124 -170.868526 
L 69.218182 -171.842138 
z
" id="m96b518146d" style="stroke:#add8e6;stroke-opacity:0.2;"/>
    </defs>
    <g clip-path="url(#p521b5ac3de)">
     <use style="fill:#add8e6;fill-opacity:0.2;stroke:#add8e6;stroke-opacity:0.2;" x="0" xlink:href="#m96b518146d" y="288"/>
    </g>
   </g>
   <g id="PathCollection_1">
    <defs>
     <path d="M 0 0.612372 
C 0.162403 0.612372 0.318176 0.547849 0.433013 0.433013 
C 0.547849 0.318176 0.612372 0.162403 0.612372 0 
C 0.612372 -0.162403 0.547849 -0.318176 0.433013 -0.433013 
C 0.318176 -0.547849 0.162403 -0.612372 0 -0.612372 
C -0.162403 -0.612372 -0.318176 -0.547849 -0.433013 -0.433013 
C -0.547849 -0.318176 -0.612372 -0.162403 -0.612372 0 
C -0.612372 0.162403 -0.547849 0.318176 -0.433013 0.433013 
C -0.318176 0.547849 -0.162403 0.612372 0 0.612372 
z
" id="m5b574a8b2d" style="stroke:#ff0000;stroke-width:8;"/>
    </defs>
    <g clip-path="url(#p521b5ac3de)">
     <use style="fill:#ff0000;stroke:#ff0000;stroke-width:8;" x="285.039669" xlink:href="#m5b574a8b2d" y="223.46181"/>
    </g>
   </g>
   <g id="matplotlib.axis_1">
    <g id="xtick_1">
     <g id="line2d_1">
      <defs>
       <path d="M 0 0 
L 0 3.5 
" id="m5fa563cd38" style="stroke:#000000;stroke-width:0.8;"/>
      </defs>
      <g>
       <use style="stroke:#000000;stroke-width:0.8;" x="69.218182" xlink:href="#m5fa563cd38" y="252"/>
      </g>
     </g>
     <g id="text_1">
      <!-- 0 -->
      <g transform="translate(66.036932 266.598437)scale(0.1 -0.1)">
       <defs>
        <path d="M 2034 4250 
Q 1547 4250 1301 3770 
Q 1056 3291 1056 2328 
Q 1056 1369 1301 889 
Q 1547 409 2034 409 
Q 2525 409 2770 889 
Q 3016 1369 3016 2328 
Q 3016 3291 2770 3770 
Q 2525 4250 2034 4250 
z
M 2034 4750 
Q 2819 4750 3233 4129 
Q 3647 3509 3647 2328 
Q 3647 1150 3233 529 
Q 2819 -91 2034 -91 
Q 1250 -91 836 529 
Q 422 1150 422 2328 
Q 422 3509 836 4129 
Q 1250 4750 2034 4750 
z
" id="DejaVuSans-30" transform="scale(0.015625)"/>
       </defs>
       <use xlink:href="#DejaVuSans-30"/>
      </g>
     </g>
    </g>
    <g id="xtick_2">
     <g id="line2d_2">
      <g>
       <use style="stroke:#000000;stroke-width:0.8;" x="124.557025" xlink:href="#m5fa563cd38" y="252"/>
      </g>
     </g>
     <g id="text_2">
      <!-- 2 -->
      <g transform="translate(121.375775 266.598437)scale(0.1 -0.1)">
       <defs>
        <path d="M 1228 531 
L 3431 531 
L 3431 0 
L 469 0 
L 469 531 
Q 828 903 1448 1529 
Q 2069 2156 2228 2338 
Q 2531 2678 2651 2914 
Q 2772 3150 2772 3378 
Q 2772 3750 2511 3984 
Q 2250 4219 1831 4219 
Q 1534 4219 1204 4116 
Q 875 4013 500 3803 
L 500 4441 
Q 881 4594 1212 4672 
Q 1544 4750 1819 4750 
Q 2544 4750 2975 4387 
Q 3406 4025 3406 3419 
Q 3406 3131 3298 2873 
Q 3191 2616 2906 2266 
Q 2828 2175 2409 1742 
Q 1991 1309 1228 531 
z
" id="DejaVuSans-32" transform="scale(0.015625)"/>
       </defs>
       <use xlink:href="#DejaVuSans-32"/>
      </g>
     </g>
    </g>
    <g id="xtick_3">
     <g id="line2d_3">
      <g>
       <use style="stroke:#000000;stroke-width:0.8;" x="179.895868" xlink:href="#m5fa563cd38" y="252"/>
      </g>
     </g>
     <g id="text_3">
      <!-- 4 -->
      <g transform="translate(176.714618 266.598437)scale(0.1 -0.1)">
       <defs>
        <path d="M 2419 4116 
L 825 1625 
L 2419 1625 
L 2419 4116 
z
M 2253 4666 
L 3047 4666 
L 3047 1625 
L 3713 1625 
L 3713 1100 
L 3047 1100 
L 3047 0 
L 2419 0 
L 2419 1100 
L 313 1100 
L 313 1709 
L 2253 4666 
z
" id="DejaVuSans-34" transform="scale(0.015625)"/>
       </defs>
       <use xlink:href="#DejaVuSans-34"/>
      </g>
     </g>
    </g>
    <g id="xtick_4">
     <g id="line2d_4">
      <g>
       <use style="stroke:#000000;stroke-width:0.8;" x="235.234711" xlink:href="#m5fa563cd38" y="252"/>
      </g>
     </g>
     <g id="text_4">
      <!-- 6 -->
      <g transform="translate(232.053461 266.598437)scale(0.1 -0.1)">
       <defs>
        <path d="M 2113 2584 
Q 1688 2584 1439 2293 
Q 1191 2003 1191 1497 
Q 1191 994 1439 701 
Q 1688 409 2113 409 
Q 2538 409 2786 701 
Q 3034 994 3034 1497 
Q 3034 2003 2786 2293 
Q 2538 2584 2113 2584 
z
M 3366 4563 
L 3366 3988 
Q 3128 4100 2886 4159 
Q 2644 4219 2406 4219 
Q 1781 4219 1451 3797 
Q 1122 3375 1075 2522 
Q 1259 2794 1537 2939 
Q 1816 3084 2150 3084 
Q 2853 3084 3261 2657 
Q 3669 2231 3669 1497 
Q 3669 778 3244 343 
Q 2819 -91 2113 -91 
Q 1303 -91 875 529 
Q 447 1150 447 2328 
Q 447 3434 972 4092 
Q 1497 4750 2381 4750 
Q 2619 4750 2861 4703 
Q 3103 4656 3366 4563 
z
" id="DejaVuSans-36" transform="scale(0.015625)"/>
       </defs>
       <use xlink:href="#DejaVuSans-36"/>
      </g>
     </g>
    </g>
    <g id="xtick_5">
     <g id="line2d_5">
      <g>
       <use style="stroke:#000000;stroke-width:0.8;" x="290.573554" xlink:href="#m5fa563cd38" y="252"/>
      </g>
     </g>
     <g id="text_5">
      <!-- 8 -->
      <g transform="translate(287.392304 266.598437)scale(0.1 -0.1)">
       <defs>
        <path d="M 2034 2216 
Q 1584 2216 1326 1975 
Q 1069 1734 1069 1313 
Q 1069 891 1326 650 
Q 1584 409 2034 409 
Q 2484 409 2743 651 
Q 3003 894 3003 1313 
Q 3003 1734 2745 1975 
Q 2488 2216 2034 2216 
z
M 1403 2484 
Q 997 2584 770 2862 
Q 544 3141 544 3541 
Q 544 4100 942 4425 
Q 1341 4750 2034 4750 
Q 2731 4750 3128 4425 
Q 3525 4100 3525 3541 
Q 3525 3141 3298 2862 
Q 3072 2584 2669 2484 
Q 3125 2378 3379 2068 
Q 3634 1759 3634 1313 
Q 3634 634 3220 271 
Q 2806 -91 2034 -91 
Q 1263 -91 848 271 
Q 434 634 434 1313 
Q 434 1759 690 2068 
Q 947 2378 1403 2484 
z
M 1172 3481 
Q 1172 3119 1398 2916 
Q 1625 2713 2034 2713 
Q 2441 2713 2670 2916 
Q 2900 3119 2900 3481 
Q 2900 3844 2670 4047 
Q 2441 4250 2034 4250 
Q 1625 4250 1398 4047 
Q 1172 3844 1172 3481 
z
" id="DejaVuSans-38" transform="scale(0.015625)"/>
       </defs>
       <use xlink:href="#DejaVuSans-38"/>
      </g>
     </g>
    </g>
    <g id="xtick_6">
     <g id="line2d_6">
      <g>
       <use style="stroke:#000000;stroke-width:0.8;" x="345.912397" xlink:href="#m5fa563cd38" y="252"/>
      </g>
     </g>
     <g id="text_6">
      <!-- 10 -->
      <g transform="translate(339.549897 266.598437)scale(0.1 -0.1)">
       <defs>
        <path d="M 794 531 
L 1825 531 
L 1825 4091 
L 703 3866 
L 703 4441 
L 1819 4666 
L 2450 4666 
L 2450 531 
L 3481 531 
L 3481 0 
L 794 0 
L 794 531 
z
" id="DejaVuSans-31" transform="scale(0.015625)"/>
       </defs>
       <use xlink:href="#DejaVuSans-31"/>
       <use x="63.623047" xlink:href="#DejaVuSans-30"/>
      </g>
     </g>
    </g>
    <g id="text_7">
     <!-- x -->
     <g transform="translate(217.84875 281.79625)scale(0.12 -0.12)">
      <defs>
       <path d="M 3513 3500 
L 2247 1797 
L 3578 0 
L 2900 0 
L 1881 1375 
L 863 0 
L 184 0 
L 1544 1831 
L 300 3500 
L 978 3500 
L 1906 2253 
L 2834 3500 
L 3513 3500 
z
" id="DejaVuSans-78" transform="scale(0.015625)"/>
      </defs>
      <use xlink:href="#DejaVuSans-78"/>
     </g>
    </g>
   </g>
   <g id="matplotlib.axis_2">
    <g id="ytick_1">
     <g id="line2d_7">
      <defs>
       <path d="M 0 0 
L -3.5 0 
" id="mc4e18f3114" style="stroke:#000000;stroke-width:0.8;"/>
      </defs>
      <g>
       <use style="stroke:#000000;stroke-width:0.8;" x="54" xlink:href="#mc4e18f3114" y="252"/>
      </g>
     </g>
     <g id="text_8">
      <!-- 3 -->
      <g transform="translate(40.6375 255.799219)scale(0.1 -0.1)">
       <defs>
        <path d="M 2597 2516 
Q 3050 2419 3304 2112 
Q 3559 1806 3559 1356 
Q 3559 666 3084 287 
Q 2609 -91 1734 -91 
Q 1441 -91 1130 -33 
Q 819 25 488 141 
L 488 750 
Q 750 597 1062 519 
Q 1375 441 1716 441 
Q 2309 441 2620 675 
Q 2931 909 2931 1356 
Q 2931 1769 2642 2001 
Q 2353 2234 1838 2234 
L 1294 2234 
L 1294 2753 
L 1863 2753 
Q 2328 2753 2575 2939 
Q 2822 3125 2822 3475 
Q 2822 3834 2567 4026 
Q 2313 4219 1838 4219 
Q 1578 4219 1281 4162 
Q 984 4106 628 3988 
L 628 4550 
Q 988 4650 1302 4700 
Q 1616 4750 1894 4750 
Q 2613 4750 3031 4423 
Q 3450 4097 3450 3541 
Q 3450 3153 3228 2886 
Q 3006 2619 2597 2516 
z
" id="DejaVuSans-33" transform="scale(0.015625)"/>
       </defs>
       <use xlink:href="#DejaVuSans-33"/>
      </g>
     </g>
    </g>
    <g id="ytick_2">
     <g id="line2d_8">
      <g>
       <use style="stroke:#000000;stroke-width:0.8;" x="54" xlink:href="#mc4e18f3114" y="215.76"/>
      </g>
     </g>
     <g id="text_9">
      <!-- 4 -->
      <g transform="translate(40.6375 219.559219)scale(0.1 -0.1)">
       <use xlink:href="#DejaVuSans-34"/>
      </g>
     </g>
    </g>
    <g id="ytick_3">
     <g id="line2d_9">
      <g>
       <use style="stroke:#000000;stroke-width:0.8;" x="54" xlink:href="#mc4e18f3114" y="179.52"/>
      </g>
     </g>
     <g id="text_10">
      <!-- 5 -->
      <g transform="translate(40.6375 183.319219)scale(0.1 -0.1)">
       <defs>
        <path d="M 691 4666 
L 3169 4666 
L 3169 4134 
L 1269 4134 
L 1269 2991 
Q 1406 3038 1543 3061 
Q 1681 3084 1819 3084 
Q 2600 3084 3056 2656 
Q 3513 2228 3513 1497 
Q 3513 744 3044 326 
Q 2575 -91 1722 -91 
Q 1428 -91 1123 -41 
Q 819 9 494 109 
L 494 744 
Q 775 591 1075 516 
Q 1375 441 1709 441 
Q 2250 441 2565 725 
Q 2881 1009 2881 1497 
Q 2881 1984 2565 2268 
Q 2250 2553 1709 2553 
Q 1456 2553 1204 2497 
Q 953 2441 691 2322 
L 691 4666 
z
" id="DejaVuSans-35" transform="scale(0.015625)"/>
       </defs>
       <use xlink:href="#DejaVuSans-35"/>
      </g>
     </g>
    </g>
    <g id="ytick_4">
     <g id="line2d_10">
      <g>
       <use style="stroke:#000000;stroke-width:0.8;" x="54" xlink:href="#mc4e18f3114" y="143.28"/>
      </g>
     </g>
     <g id="text_11">
      <!-- 6 -->
      <g transform="translate(40.6375 147.079219)scale(0.1 -0.1)">
       <use xlink:href="#DejaVuSans-36"/>
      </g>
     </g>
    </g>
    <g id="ytick_5">
     <g id="line2d_11">
      <g>
       <use style="stroke:#000000;stroke-width:0.8;" x="54" xlink:href="#mc4e18f3114" y="107.04"/>
      </g>
     </g>
     <g id="text_12">
      <!-- 7 -->
      <g transform="translate(40.6375 110.839219)scale(0.1 -0.1)">
       <defs>
        <path d="M 525 4666 
L 3525 4666 
L 3525 4397 
L 1831 0 
L 1172 0 
L 2766 4134 
L 525 4134 
L 525 4666 
z
" id="DejaVuSans-37" transform="scale(0.015625)"/>
       </defs>
       <use xlink:href="#DejaVuSans-37"/>
      </g>
     </g>
    </g>
    <g id="ytick_6">
     <g id="line2d_12">
      <g>
       <use style="stroke:#000000;stroke-width:0.8;" x="54" xlink:href="#mc4e18f3114" y="70.8"/>
      </g>
     </g>
     <g id="text_13">
      <!-- 8 -->
      <g transform="translate(40.6375 74.599219)scale(0.1 -0.1)">
       <use xlink:href="#DejaVuSans-38"/>
      </g>
     </g>
    </g>
    <g id="ytick_7">
     <g id="line2d_13">
      <g>
       <use style="stroke:#000000;stroke-width:0.8;" x="54" xlink:href="#mc4e18f3114" y="34.56"/>
      </g>
     </g>
     <g id="text_14">
      <!-- 9 -->
      <g transform="translate(40.6375 38.359219)scale(0.1 -0.1)">
       <defs>
        <path d="M 703 97 
L 703 672 
Q 941 559 1184 500 
Q 1428 441 1663 441 
Q 2288 441 2617 861 
Q 2947 1281 2994 2138 
Q 2813 1869 2534 1725 
Q 2256 1581 1919 1581 
Q 1219 1581 811 2004 
Q 403 2428 403 3163 
Q 403 3881 828 4315 
Q 1253 4750 1959 4750 
Q 2769 4750 3195 4129 
Q 3622 3509 3622 2328 
Q 3622 1225 3098 567 
Q 2575 -91 1691 -91 
Q 1453 -91 1209 -44 
Q 966 3 703 97 
z
M 1959 2075 
Q 2384 2075 2632 2365 
Q 2881 2656 2881 3163 
Q 2881 3666 2632 3958 
Q 2384 4250 1959 4250 
Q 1534 4250 1286 3958 
Q 1038 3666 1038 3163 
Q 1038 2656 1286 2365 
Q 1534 2075 1959 2075 
z
" id="DejaVuSans-39" transform="scale(0.015625)"/>
       </defs>
       <use xlink:href="#DejaVuSans-39"/>
      </g>
     </g>
    </g>
    <g id="text_15">
     <!-- y -->
     <g transform="translate(34.141875 146.83125)rotate(-90)scale(0.12 -0.12)">
      <defs>
       <path d="M 2059 -325 
Q 1816 -950 1584 -1140 
Q 1353 -1331 966 -1331 
L 506 -1331 
L 506 -850 
L 844 -850 
Q 1081 -850 1212 -737 
Q 1344 -625 1503 -206 
L 1606 56 
L 191 3500 
L 800 3500 
L 1894 763 
L 2988 3500 
L 3597 3500 
L 2059 -325 
z
" id="DejaVuSans-79" transform="scale(0.015625)"/>
      </defs>
      <use xlink:href="#DejaVuSans-79"/>
     </g>
    </g>
   </g>
   <g id="line2d_14">
    <path clip-path="url(#p521b5ac3de)" d="M 69.218182 70.8 
L 71.985124 85.083949 
L 74.752066 98.25467 
L 77.519008 110.364828 
L 80.28595 121.465955 
L 83.052893 131.608455 
L 85.819835 140.841599 
L 88.586777 149.213528 
L 91.353719 156.771253 
L 94.120661 163.560654 
L 96.887603 169.62648 
L 99.654545 175.012349 
L 102.421488 179.76075 
L 105.18843 183.913038 
L 107.955372 187.509441 
L 110.722314 190.589055 
L 113.489256 193.189844 
L 116.256198 195.348643 
L 119.02314 197.101155 
L 121.790083 198.481953 
L 124.557025 199.52448 
L 127.323967 200.261047 
L 130.090909 200.722835 
L 132.857851 200.939895 
L 135.624793 200.941145 
L 138.391736 200.754375 
L 141.158678 200.406243 
L 143.92562 199.922276 
L 146.692562 199.326871 
L 149.459504 198.643294 
L 152.226446 197.89368 
L 154.993388 197.099035 
L 157.760331 196.279231 
L 160.527273 195.453014 
L 163.294215 194.637994 
L 166.061157 193.850655 
L 168.828099 193.106347 
L 171.595041 192.419291 
L 174.361983 191.802577 
L 177.128926 191.268164 
L 179.895868 190.82688 
L 182.66281 190.488424 
L 185.429752 190.261362 
L 188.196694 190.153131 
L 190.963636 190.170037 
L 193.730579 190.317255 
L 196.497521 190.598829 
L 199.264463 191.017673 
L 202.031405 191.575569 
L 204.798347 192.273171 
L 207.565289 193.11 
L 210.332231 194.084446 
L 213.099174 195.193771 
L 215.866116 196.434103 
L 218.633058 197.800442 
L 221.4 199.286655 
L 224.166942 200.88548 
L 226.933884 202.588525 
L 229.700826 204.386264 
L 232.467769 206.268045 
L 235.234711 208.22208 
L 238.001653 210.235455 
L 240.768595 212.294122 
L 243.535537 214.382905 
L 246.302479 216.485496 
L 249.069421 218.584455 
L 251.836364 220.661214 
L 254.603306 222.696071 
L 257.370248 224.668198 
L 260.13719 226.555631 
L 262.904132 228.33528 
L 265.671074 229.982921 
L 268.438017 231.4732 
L 271.204959 232.779634 
L 273.971901 233.874607 
L 276.738843 234.729375 
L 279.505785 235.31406 
L 282.272727 235.597656 
L 285.039669 235.548026 
L 287.806612 235.1319 
L 290.573554 234.31488 
L 293.340496 233.061436 
L 296.107438 231.334908 
L 298.87438 229.097505 
L 301.641322 226.310305 
L 304.408264 222.933255 
L 307.175207 218.925173 
L 309.942149 214.243744 
L 312.709091 208.845524 
L 315.476033 202.685938 
L 318.242975 195.71928 
L 321.009917 187.898713 
L 323.77686 179.176271 
L 326.543802 169.502854 
L 329.310744 158.828236 
L 332.077686 147.101055 
L 334.844628 134.268823 
L 337.61157 120.277918 
L 340.378512 105.073589 
L 343.145455 88.599954 
L 345.912397 70.8 
L 348.679339 51.615584 
L 351.446281 30.987432 
L 354.213223 8.855138 
L 355.363895 -1 
" style="fill:none;stroke:#0000ff;stroke-linecap:square;stroke-width:2;"/>
   </g>
   <g id="line2d_15">
    <path clip-path="url(#p521b5ac3de)" d="M 69.218182 165.717682 
L 71.985124 162.379319 
L 74.752066 159.759363 
L 77.519008 158.02348 
L 80.28595 157.309321 
L 83.052893 157.708914 
L 85.819835 159.248847 
L 88.586777 161.874038 
L 91.353719 165.445506 
L 94.120661 169.758579 
L 96.887603 174.574866 
L 99.654545 179.653442 
L 102.421488 184.771871 
L 105.18843 189.736743 
L 107.955372 194.387524 
L 110.722314 198.597173 
L 113.489256 202.271521 
L 116.256198 205.348314 
L 119.02314 207.79616 
L 121.790083 209.613208 
L 124.557025 210.825159 
L 127.323967 211.482165 
L 130.090909 211.654426 
L 132.857851 211.426597 
L 135.624793 210.891442 
L 138.391736 210.143373 
L 141.158678 209.272501 
L 143.92562 208.359727 
L 146.692562 207.473165 
L 149.459504 206.665924 
L 152.226446 205.97507 
L 154.993388 205.421455 
L 157.760331 205.010124 
L 160.527273 204.731173 
L 163.294215 204.561209 
L 166.061157 204.46583 
L 168.828099 204.40365 
L 171.595041 204.332237 
L 174.361983 204.215975 
L 177.128926 204.035244 
L 179.895868 203.795539 
L 182.66281 203.53393 
L 185.429752 203.318703 
L 188.196694 203.237695 
L 190.963636 203.374985 
L 193.730579 203.784774 
L 196.497521 204.47661 
L 199.264463 205.41847 
L 202.031405 206.551287 
L 204.798347 207.804764 
L 207.565289 209.109122 
L 210.332231 210.402357 
L 213.099174 211.634343 
L 215.866116 212.768942 
L 218.633058 213.78476 
L 221.4 214.674883 
L 224.166942 215.445738 
L 226.933884 216.115279 
L 229.700826 216.710674 
L 232.467769 217.265704 
L 235.234711 217.81808 
L 238.001653 218.40682 
L 240.768595 219.069816 
L 243.535537 219.841605 
L 246.302479 220.751378 
L 249.069421 221.821191 
L 251.836364 223.06442 
L 254.603306 224.484487 
L 257.370248 226.073986 
L 260.13719 227.814305 
L 262.904132 229.675901 
L 265.671074 231.619275 
L 268.438017 233.596679 
L 271.204959 235.554465 
L 273.971901 237.435928 
L 276.738843 239.184386 
L 279.505785 240.746189 
L 282.272727 242.073153 
L 285.039669 243.123643 
L 287.806612 243.86093 
L 290.573554 244.246775 
L 293.340496 244.228405 
L 296.107438 243.720475 
L 298.87438 242.591158 
L 301.641322 240.666529 
L 304.408264 237.758948 
L 307.175207 233.707712 
L 309.942149 228.413606 
L 312.709091 221.857717 
L 315.476033 214.105264 
L 318.242975 205.299066 
L 321.009917 195.646939 
L 323.77686 185.406508 
L 326.543802 174.870614 
L 329.310744 164.355813 
L 332.077686 154.194569 
L 334.844628 144.728701 
L 337.61157 136.298966 
L 340.378512 129.22544 
L 343.145455 123.777835 
L 345.912397 120.143547 
L 348.679339 118.40656 
L 351.446281 118.544943 
L 354.213223 120.443626 
L 356.980165 123.914193 
L 359.747107 128.715787 
L 362.51405 134.574975 
L 365.280992 141.204121 
L 368.047934 148.317983 
L 370.814876 155.648071 
L 373.581818 162.954149 
" style="fill:none;stroke:#008000;stroke-dasharray:3.7,1.6;stroke-dashoffset:0;"/>
   </g>
   <g id="line2d_16">
    <path clip-path="url(#p521b5ac3de)" d="M 69.218182 116.157862 
L 71.985124 117.131474 
L 74.752066 118.758837 
L 77.519008 121.023232 
L 80.28595 123.877175 
L 83.052893 127.25056 
L 85.819835 131.065193 
L 88.586777 135.250596 
L 91.353719 139.750919 
L 94.120661 144.51631 
L 96.887603 149.484779 
L 99.654545 154.568037 
L 102.421488 159.649374 
L 105.18843 164.592405 
L 107.955372 169.255409 
L 110.722314 173.506446 
L 113.489256 177.236198 
L 116.256198 180.366885 
L 119.02314 182.856692 
L 121.790083 184.699931 
L 124.557025 185.92378 
L 127.323967 186.582712 
L 130.090909 186.751745 
L 132.857851 186.519367 
L 135.624793 185.980731 
L 138.391736 185.231394 
L 141.158678 184.361789 
L 143.92562 183.452498 
L 146.692562 182.570484 
L 149.459504 181.766471 
L 152.226446 181.073691 
L 154.993388 180.508178 
L 157.760331 180.070657 
L 160.527273 179.749744 
L 163.294215 179.525885 
L 166.061157 179.375103 
L 168.828099 179.271535 
L 171.595041 179.1879 
L 174.361983 179.093478 
L 177.128926 178.949838 
L 179.895868 178.705452 
L 182.66281 178.291662 
L 185.429752 177.624116 
L 188.196694 176.614253 
L 190.963636 175.191331 
L 193.730579 173.32642 
L 196.497521 171.044465 
L 199.264463 168.418226 
L 202.031405 165.550771 
L 204.798347 162.556945 
L 207.565289 159.549365 
L 210.332231 156.629494 
L 213.099174 153.882548 
L 215.866116 151.375072 
L 218.633058 149.154495 
L 221.4 147.250263 
L 224.166942 145.676237 
L 226.933884 144.434032 
L 229.700826 143.516946 
L 232.467769 142.914076 
L 235.234711 142.614267 
L 238.001653 142.609556 
L 240.768595 142.897873 
L 243.535537 143.484812 
L 246.302479 144.384405 
L 249.069421 145.618827 
L 251.836364 147.217059 
L 254.603306 149.212493 
L 257.370248 151.639523 
L 260.13719 154.529185 
L 262.904132 157.903976 
L 265.671074 161.772076 
L 268.438017 166.121293 
L 271.204959 170.913143 
L 273.971901 176.077566 
L 276.738843 181.508806 
L 279.505785 187.063048 
L 282.272727 192.558475 
L 285.039669 197.778673 
L 287.806612 202.480801 
L 290.573554 206.410546 
L 293.340496 209.325596 
L 296.107438 211.025827 
L 298.87438 211.380754 
L 301.641322 210.339612 
L 304.408264 207.917777 
L 307.175207 204.170477 
L 309.942149 199.171255 
L 312.709091 193.003795 
L 315.476033 185.765263 
L 318.242975 177.575501 
L 321.009917 168.586916 
L 323.77686 158.990986 
L 326.543802 149.018034 
L 329.310744 138.928114 
L 332.077686 128.993314 
L 334.844628 119.475349 
L 337.61157 110.605445 
L 340.378512 102.574071 
L 343.145455 95.533649 
L 345.912397 89.608598 
L 348.679339 84.90136 
L 351.446281 81.487876 
L 354.213223 79.406315 
L 356.980165 78.647045 
L 359.747107 79.148757 
L 362.51405 80.801277 
L 365.280992 83.453485 
L 368.047934 86.924382 
L 370.814876 91.015608 
L 373.581818 95.524034 
" style="fill:none;stroke:#008000;stroke-dasharray:3.7,1.6;stroke-dashoffset:0;"/>
   </g>
   <g id="line2d_17">
    <path clip-path="url(#p521b5ac3de)" d="M 69.218182 251.998246 
L 71.985124 251.999768 
L 74.752066 251.99998 
L 77.519008 251.999999 
L 80.28595 252 
L 83.052893 252 
L 85.819835 252 
L 88.586777 252 
L 91.353719 252 
L 94.120661 252 
L 96.887603 252 
L 99.654545 252 
L 102.421488 252 
L 105.18843 251.999999 
L 107.955372 251.999992 
L 110.722314 251.999953 
L 113.489256 251.999777 
L 116.256198 251.999169 
L 119.02314 251.997555 
L 121.790083 251.994235 
L 124.557025 251.988922 
L 127.323967 251.982316 
L 130.090909 251.976083 
L 132.857851 251.972023 
L 135.624793 251.971105 
L 138.391736 251.973098 
L 141.158678 251.976946 
L 143.92562 251.981432 
L 146.692562 251.985647 
L 149.459504 251.989131 
L 152.226446 251.991778 
L 154.993388 251.993682 
L 157.760331 251.995006 
L 160.527273 251.995915 
L 163.294215 251.996546 
L 166.061157 251.997007 
L 168.828099 251.997378 
L 171.595041 251.997707 
L 174.361983 251.99801 
L 177.128926 251.998266 
L 179.895868 251.998426 
L 182.66281 251.998406 
L 185.429752 251.998034 
L 188.196694 251.996842 
L 190.963636 251.993389 
L 193.730579 251.983359 
L 196.497521 251.955422 
L 199.264463 251.885796 
L 202.031405 251.73709 
L 204.798347 251.467535 
L 207.565289 251.04768 
L 210.332231 250.473542 
L 213.099174 249.768546 
L 215.866116 248.975427 
L 218.633058 248.143965 
L 221.4 247.319804 
L 224.166942 246.536977 
L 226.933884 245.814517 
L 229.700826 245.156405 
L 232.467769 244.553661 
L 235.234711 243.987497 
L 238.001653 243.432663 
L 240.768595 242.860459 
L 243.535537 242.241182 
L 246.302479 241.546021 
L 249.069421 240.74856 
L 251.836364 239.82614 
L 254.603306 238.761275 
L 257.370248 237.543275 
L 260.13719 236.170091 
L 262.904132 234.650317 
L 265.671074 233.005225 
L 268.438017 231.270758 
L 271.204959 229.499525 
L 273.971901 227.763073 
L 276.738843 226.154912 
L 279.505785 224.794814 
L 282.272727 223.834355 
L 285.039669 223.46181 
L 287.806612 223.90007 
L 290.573554 225.383713 
L 293.340496 228.094567 
L 296.107438 232.043072 
L 298.87438 236.926189 
L 301.641322 242.065214 
L 304.408264 246.559359 
L 307.175207 249.683647 
L 309.942149 251.29893 
L 312.709091 251.865687 
L 315.476033 251.985851 
L 318.242975 251.999297 
L 321.009917 251.999986 
L 323.77686 252 
L 326.543802 252 
L 329.310744 252 
L 332.077686 252 
L 334.844628 252 
L 337.61157 252 
L 340.378512 252 
L 343.145455 252 
L 345.912397 252 
L 348.679339 252 
L 351.446281 252 
L 354.213223 252 
L 356.980165 252 
L 359.747107 251.999999 
L 362.51405 251.999973 
L 365.280992 251.99967 
L 368.047934 251.99759 
L 370.814876 251.988221 
L 373.581818 251.958067 
" style="fill:none;stroke:#bfbf00;stroke-dasharray:7.4,3.2;stroke-dashoffset:0;stroke-width:2;"/>
   </g>
   <g id="patch_3">
    <path d="M 54 252 
L 54 34.56 
" style="fill:none;stroke:#000000;stroke-linecap:square;stroke-linejoin:miter;stroke-width:0.8;"/>
   </g>
   <g id="patch_4">
    <path d="M 388.8 252 
L 388.8 34.56 
" style="fill:none;stroke:#000000;stroke-linecap:square;stroke-linejoin:miter;stroke-width:0.8;"/>
   </g>
   <g id="patch_5">
    <path d="M 54 252 
L 388.8 252 
" style="fill:none;stroke:#000000;stroke-linecap:square;stroke-linejoin:miter;stroke-width:0.8;"/>
   </g>
   <g id="patch_6">
    <path d="M 54 34.56 
L 388.8 34.56 
" style="fill:none;stroke:#000000;stroke-linecap:square;stroke-linejoin:miter;stroke-width:0.8;"/>
   </g>
   <g id="text_16">
    <!-- Method : REI -->
    <g transform="translate(71.985124 244.752)scale(0.12 -0.12)">
     <defs>
      <path d="M 628 4666 
L 1569 4666 
L 2759 1491 
L 3956 4666 
L 4897 4666 
L 4897 0 
L 4281 0 
L 4281 4097 
L 3078 897 
L 2444 897 
L 1241 4097 
L 1241 0 
L 628 0 
L 628 4666 
z
" id="DejaVuSans-4d" transform="scale(0.015625)"/>
      <path d="M 3597 1894 
L 3597 1613 
L 953 1613 
Q 991 1019 1311 708 
Q 1631 397 2203 397 
Q 2534 397 2845 478 
Q 3156 559 3463 722 
L 3463 178 
Q 3153 47 2828 -22 
Q 2503 -91 2169 -91 
Q 1331 -91 842 396 
Q 353 884 353 1716 
Q 353 2575 817 3079 
Q 1281 3584 2069 3584 
Q 2775 3584 3186 3129 
Q 3597 2675 3597 1894 
z
M 3022 2063 
Q 3016 2534 2758 2815 
Q 2500 3097 2075 3097 
Q 1594 3097 1305 2825 
Q 1016 2553 972 2059 
L 3022 2063 
z
" id="DejaVuSans-65" transform="scale(0.015625)"/>
      <path d="M 1172 4494 
L 1172 3500 
L 2356 3500 
L 2356 3053 
L 1172 3053 
L 1172 1153 
Q 1172 725 1289 603 
Q 1406 481 1766 481 
L 2356 481 
L 2356 0 
L 1766 0 
Q 1100 0 847 248 
Q 594 497 594 1153 
L 594 3053 
L 172 3053 
L 172 3500 
L 594 3500 
L 594 4494 
L 1172 4494 
z
" id="DejaVuSans-74" transform="scale(0.015625)"/>
      <path d="M 3513 2113 
L 3513 0 
L 2938 0 
L 2938 2094 
Q 2938 2591 2744 2837 
Q 2550 3084 2163 3084 
Q 1697 3084 1428 2787 
Q 1159 2491 1159 1978 
L 1159 0 
L 581 0 
L 581 4863 
L 1159 4863 
L 1159 2956 
Q 1366 3272 1645 3428 
Q 1925 3584 2291 3584 
Q 2894 3584 3203 3211 
Q 3513 2838 3513 2113 
z
" id="DejaVuSans-68" transform="scale(0.015625)"/>
      <path d="M 1959 3097 
Q 1497 3097 1228 2736 
Q 959 2375 959 1747 
Q 959 1119 1226 758 
Q 1494 397 1959 397 
Q 2419 397 2687 759 
Q 2956 1122 2956 1747 
Q 2956 2369 2687 2733 
Q 2419 3097 1959 3097 
z
M 1959 3584 
Q 2709 3584 3137 3096 
Q 3566 2609 3566 1747 
Q 3566 888 3137 398 
Q 2709 -91 1959 -91 
Q 1206 -91 779 398 
Q 353 888 353 1747 
Q 353 2609 779 3096 
Q 1206 3584 1959 3584 
z
" id="DejaVuSans-6f" transform="scale(0.015625)"/>
      <path d="M 2906 2969 
L 2906 4863 
L 3481 4863 
L 3481 0 
L 2906 0 
L 2906 525 
Q 2725 213 2448 61 
Q 2172 -91 1784 -91 
Q 1150 -91 751 415 
Q 353 922 353 1747 
Q 353 2572 751 3078 
Q 1150 3584 1784 3584 
Q 2172 3584 2448 3432 
Q 2725 3281 2906 2969 
z
M 947 1747 
Q 947 1113 1208 752 
Q 1469 391 1925 391 
Q 2381 391 2643 752 
Q 2906 1113 2906 1747 
Q 2906 2381 2643 2742 
Q 2381 3103 1925 3103 
Q 1469 3103 1208 2742 
Q 947 2381 947 1747 
z
" id="DejaVuSans-64" transform="scale(0.015625)"/>
      <path id="DejaVuSans-20" transform="scale(0.015625)"/>
      <path d="M 750 794 
L 1409 794 
L 1409 0 
L 750 0 
L 750 794 
z
M 750 3309 
L 1409 3309 
L 1409 2516 
L 750 2516 
L 750 3309 
z
" id="DejaVuSans-3a" transform="scale(0.015625)"/>
      <path d="M 2841 2188 
Q 3044 2119 3236 1894 
Q 3428 1669 3622 1275 
L 4263 0 
L 3584 0 
L 2988 1197 
Q 2756 1666 2539 1819 
Q 2322 1972 1947 1972 
L 1259 1972 
L 1259 0 
L 628 0 
L 628 4666 
L 2053 4666 
Q 2853 4666 3247 4331 
Q 3641 3997 3641 3322 
Q 3641 2881 3436 2590 
Q 3231 2300 2841 2188 
z
M 1259 4147 
L 1259 2491 
L 2053 2491 
Q 2509 2491 2742 2702 
Q 2975 2913 2975 3322 
Q 2975 3731 2742 3939 
Q 2509 4147 2053 4147 
L 1259 4147 
z
" id="DejaVuSans-52" transform="scale(0.015625)"/>
      <path d="M 628 4666 
L 3578 4666 
L 3578 4134 
L 1259 4134 
L 1259 2753 
L 3481 2753 
L 3481 2222 
L 1259 2222 
L 1259 531 
L 3634 531 
L 3634 0 
L 628 0 
L 628 4666 
z
" id="DejaVuSans-45" transform="scale(0.015625)"/>
      <path d="M 628 4666 
L 1259 4666 
L 1259 0 
L 628 0 
L 628 4666 
z
" id="DejaVuSans-49" transform="scale(0.015625)"/>
     </defs>
     <use xlink:href="#DejaVuSans-4d"/>
     <use x="86.279297" xlink:href="#DejaVuSans-65"/>
     <use x="147.802734" xlink:href="#DejaVuSans-74"/>
     <use x="187.011719" xlink:href="#DejaVuSans-68"/>
     <use x="250.390625" xlink:href="#DejaVuSans-6f"/>
     <use x="311.572266" xlink:href="#DejaVuSans-64"/>
     <use x="375.048828" xlink:href="#DejaVuSans-20"/>
     <use x="406.835938" xlink:href="#DejaVuSans-3a"/>
     <use x="440.527344" xlink:href="#DejaVuSans-20"/>
     <use x="472.314453" xlink:href="#DejaVuSans-52"/>
     <use x="541.796875" xlink:href="#DejaVuSans-45"/>
     <use x="604.980469" xlink:href="#DejaVuSans-49"/>
    </g>
   </g>
   <g id="text_17">
    <!-- Iter=1 -->
    <g transform="translate(71.985124 226.632)scale(0.12 -0.12)">
     <defs>
      <path d="M 2631 2963 
Q 2534 3019 2420 3045 
Q 2306 3072 2169 3072 
Q 1681 3072 1420 2755 
Q 1159 2438 1159 1844 
L 1159 0 
L 581 0 
L 581 3500 
L 1159 3500 
L 1159 2956 
Q 1341 3275 1631 3429 
Q 1922 3584 2338 3584 
Q 2397 3584 2469 3576 
Q 2541 3569 2628 3553 
L 2631 2963 
z
" id="DejaVuSans-72" transform="scale(0.015625)"/>
      <path d="M 678 2906 
L 4684 2906 
L 4684 2381 
L 678 2381 
L 678 2906 
z
M 678 1631 
L 4684 1631 
L 4684 1100 
L 678 1100 
L 678 1631 
z
" id="DejaVuSans-3d" transform="scale(0.015625)"/>
     </defs>
     <use xlink:href="#DejaVuSans-49"/>
     <use x="29.492188" xlink:href="#DejaVuSans-74"/>
     <use x="68.701172" xlink:href="#DejaVuSans-65"/>
     <use x="130.224609" xlink:href="#DejaVuSans-72"/>
     <use x="171.337891" xlink:href="#DejaVuSans-3d"/>
     <use x="255.126953" xlink:href="#DejaVuSans-31"/>
    </g>
   </g>
   <g id="legend_1">
    <g id="patch_7">
     <path d="M 144.327812 140.235625 
L 298.472188 140.235625 
Q 300.672188 140.235625 300.672188 138.035625 
L 300.672188 42.26 
Q 300.672188 40.06 298.472188 40.06 
L 144.327812 40.06 
Q 142.127813 40.06 142.127813 42.26 
L 142.127813 138.035625 
Q 142.127813 140.235625 144.327812 140.235625 
z
" style="fill:#ffffff;opacity:0.8;stroke:#cccccc;stroke-linejoin:miter;"/>
    </g>
    <g id="line2d_18">
     <path d="M 146.527813 48.968281 
L 168.527813 48.968281 
" style="fill:none;stroke:#0000ff;stroke-linecap:square;stroke-width:2;"/>
    </g>
    <g id="line2d_19"/>
    <g id="text_18">
     <!-- ture function -->
     <g transform="translate(177.327813 52.818281)scale(0.11 -0.11)">
      <defs>
       <path d="M 544 1381 
L 544 3500 
L 1119 3500 
L 1119 1403 
Q 1119 906 1312 657 
Q 1506 409 1894 409 
Q 2359 409 2629 706 
Q 2900 1003 2900 1516 
L 2900 3500 
L 3475 3500 
L 3475 0 
L 2900 0 
L 2900 538 
Q 2691 219 2414 64 
Q 2138 -91 1772 -91 
Q 1169 -91 856 284 
Q 544 659 544 1381 
z
M 1991 3584 
L 1991 3584 
z
" id="DejaVuSans-75" transform="scale(0.015625)"/>
       <path d="M 2375 4863 
L 2375 4384 
L 1825 4384 
Q 1516 4384 1395 4259 
Q 1275 4134 1275 3809 
L 1275 3500 
L 2222 3500 
L 2222 3053 
L 1275 3053 
L 1275 0 
L 697 0 
L 697 3053 
L 147 3053 
L 147 3500 
L 697 3500 
L 697 3744 
Q 697 4328 969 4595 
Q 1241 4863 1831 4863 
L 2375 4863 
z
" id="DejaVuSans-66" transform="scale(0.015625)"/>
       <path d="M 3513 2113 
L 3513 0 
L 2938 0 
L 2938 2094 
Q 2938 2591 2744 2837 
Q 2550 3084 2163 3084 
Q 1697 3084 1428 2787 
Q 1159 2491 1159 1978 
L 1159 0 
L 581 0 
L 581 3500 
L 1159 3500 
L 1159 2956 
Q 1366 3272 1645 3428 
Q 1925 3584 2291 3584 
Q 2894 3584 3203 3211 
Q 3513 2838 3513 2113 
z
" id="DejaVuSans-6e" transform="scale(0.015625)"/>
       <path d="M 3122 3366 
L 3122 2828 
Q 2878 2963 2633 3030 
Q 2388 3097 2138 3097 
Q 1578 3097 1268 2742 
Q 959 2388 959 1747 
Q 959 1106 1268 751 
Q 1578 397 2138 397 
Q 2388 397 2633 464 
Q 2878 531 3122 666 
L 3122 134 
Q 2881 22 2623 -34 
Q 2366 -91 2075 -91 
Q 1284 -91 818 406 
Q 353 903 353 1747 
Q 353 2603 823 3093 
Q 1294 3584 2113 3584 
Q 2378 3584 2631 3529 
Q 2884 3475 3122 3366 
z
" id="DejaVuSans-63" transform="scale(0.015625)"/>
       <path d="M 603 3500 
L 1178 3500 
L 1178 0 
L 603 0 
L 603 3500 
z
M 603 4863 
L 1178 4863 
L 1178 4134 
L 603 4134 
L 603 4863 
z
" id="DejaVuSans-69" transform="scale(0.015625)"/>
      </defs>
      <use xlink:href="#DejaVuSans-74"/>
      <use x="39.208984" xlink:href="#DejaVuSans-75"/>
      <use x="102.587891" xlink:href="#DejaVuSans-72"/>
      <use x="141.451172" xlink:href="#DejaVuSans-65"/>
      <use x="202.974609" xlink:href="#DejaVuSans-20"/>
      <use x="234.761719" xlink:href="#DejaVuSans-66"/>
      <use x="269.966797" xlink:href="#DejaVuSans-75"/>
      <use x="333.345703" xlink:href="#DejaVuSans-6e"/>
      <use x="396.724609" xlink:href="#DejaVuSans-63"/>
      <use x="451.705078" xlink:href="#DejaVuSans-74"/>
      <use x="490.914062" xlink:href="#DejaVuSans-69"/>
      <use x="518.697266" xlink:href="#DejaVuSans-6f"/>
      <use x="579.878906" xlink:href="#DejaVuSans-6e"/>
     </g>
    </g>
    <g id="line2d_20">
     <path d="M 146.527813 65.114219 
L 168.527813 65.114219 
" style="fill:none;stroke:#000000;stroke-dasharray:7.4,3.2;stroke-dashoffset:0;stroke-width:2;"/>
    </g>
    <g id="line2d_21"/>
    <g id="text_19">
     <!-- predicted function -->
     <g transform="translate(177.327813 68.964219)scale(0.11 -0.11)">
      <defs>
       <path d="M 1159 525 
L 1159 -1331 
L 581 -1331 
L 581 3500 
L 1159 3500 
L 1159 2969 
Q 1341 3281 1617 3432 
Q 1894 3584 2278 3584 
Q 2916 3584 3314 3078 
Q 3713 2572 3713 1747 
Q 3713 922 3314 415 
Q 2916 -91 2278 -91 
Q 1894 -91 1617 61 
Q 1341 213 1159 525 
z
M 3116 1747 
Q 3116 2381 2855 2742 
Q 2594 3103 2138 3103 
Q 1681 3103 1420 2742 
Q 1159 2381 1159 1747 
Q 1159 1113 1420 752 
Q 1681 391 2138 391 
Q 2594 391 2855 752 
Q 3116 1113 3116 1747 
z
" id="DejaVuSans-70" transform="scale(0.015625)"/>
      </defs>
      <use xlink:href="#DejaVuSans-70"/>
      <use x="63.476562" xlink:href="#DejaVuSans-72"/>
      <use x="102.339844" xlink:href="#DejaVuSans-65"/>
      <use x="163.863281" xlink:href="#DejaVuSans-64"/>
      <use x="227.339844" xlink:href="#DejaVuSans-69"/>
      <use x="255.123047" xlink:href="#DejaVuSans-63"/>
      <use x="310.103516" xlink:href="#DejaVuSans-74"/>
      <use x="349.3125" xlink:href="#DejaVuSans-65"/>
      <use x="410.835938" xlink:href="#DejaVuSans-64"/>
      <use x="474.3125" xlink:href="#DejaVuSans-20"/>
      <use x="506.099609" xlink:href="#DejaVuSans-66"/>
      <use x="541.304688" xlink:href="#DejaVuSans-75"/>
      <use x="604.683594" xlink:href="#DejaVuSans-6e"/>
      <use x="668.0625" xlink:href="#DejaVuSans-63"/>
      <use x="723.042969" xlink:href="#DejaVuSans-74"/>
      <use x="762.251953" xlink:href="#DejaVuSans-69"/>
      <use x="790.035156" xlink:href="#DejaVuSans-6f"/>
      <use x="851.216797" xlink:href="#DejaVuSans-6e"/>
     </g>
    </g>
    <g id="line2d_22">
     <path d="M 146.527813 81.260156 
L 168.527813 81.260156 
" style="fill:none;stroke:#008000;stroke-dasharray:3.7,1.6;stroke-dashoffset:0;"/>
    </g>
    <g id="line2d_23"/>
    <g id="text_20">
     <!--  ± Sn(x) -->
     <g transform="translate(177.327813 85.110156)scale(0.11 -0.11)">
      <defs>
       <path d="M 2944 4013 
L 2944 2803 
L 4684 2803 
L 4684 2272 
L 2944 2272 
L 2944 1063 
L 2419 1063 
L 2419 2272 
L 678 2272 
L 678 2803 
L 2419 2803 
L 2419 4013 
L 2944 4013 
z
M 678 531 
L 4684 531 
L 4684 0 
L 678 0 
L 678 531 
z
" id="DejaVuSans-b1" transform="scale(0.015625)"/>
       <path d="M 3425 4513 
L 3425 3897 
Q 3066 4069 2747 4153 
Q 2428 4238 2131 4238 
Q 1616 4238 1336 4038 
Q 1056 3838 1056 3469 
Q 1056 3159 1242 3001 
Q 1428 2844 1947 2747 
L 2328 2669 
Q 3034 2534 3370 2195 
Q 3706 1856 3706 1288 
Q 3706 609 3251 259 
Q 2797 -91 1919 -91 
Q 1588 -91 1214 -16 
Q 841 59 441 206 
L 441 856 
Q 825 641 1194 531 
Q 1563 422 1919 422 
Q 2459 422 2753 634 
Q 3047 847 3047 1241 
Q 3047 1584 2836 1778 
Q 2625 1972 2144 2069 
L 1759 2144 
Q 1053 2284 737 2584 
Q 422 2884 422 3419 
Q 422 4038 858 4394 
Q 1294 4750 2059 4750 
Q 2388 4750 2728 4690 
Q 3069 4631 3425 4513 
z
" id="DejaVuSans-53" transform="scale(0.015625)"/>
       <path d="M 1984 4856 
Q 1566 4138 1362 3434 
Q 1159 2731 1159 2009 
Q 1159 1288 1364 580 
Q 1569 -128 1984 -844 
L 1484 -844 
Q 1016 -109 783 600 
Q 550 1309 550 2009 
Q 550 2706 781 3412 
Q 1013 4119 1484 4856 
L 1984 4856 
z
" id="DejaVuSans-28" transform="scale(0.015625)"/>
       <path d="M 513 4856 
L 1013 4856 
Q 1481 4119 1714 3412 
Q 1947 2706 1947 2009 
Q 1947 1309 1714 600 
Q 1481 -109 1013 -844 
L 513 -844 
Q 928 -128 1133 580 
Q 1338 1288 1338 2009 
Q 1338 2731 1133 3434 
Q 928 4138 513 4856 
z
" id="DejaVuSans-29" transform="scale(0.015625)"/>
      </defs>
      <use xlink:href="#DejaVuSans-20"/>
      <use x="31.787109" xlink:href="#DejaVuSans-b1"/>
      <use x="115.576172" xlink:href="#DejaVuSans-20"/>
      <use x="147.363281" xlink:href="#DejaVuSans-53"/>
      <use x="210.839844" xlink:href="#DejaVuSans-6e"/>
      <use x="274.21875" xlink:href="#DejaVuSans-28"/>
      <use x="313.232422" xlink:href="#DejaVuSans-78"/>
      <use x="372.412109" xlink:href="#DejaVuSans-29"/>
     </g>
    </g>
    <g id="line2d_24">
     <path d="M 146.527813 97.406094 
L 168.527813 97.406094 
" style="fill:none;stroke:#bfbf00;stroke-dasharray:7.4,3.2;stroke-dashoffset:0;stroke-width:2;"/>
    </g>
    <g id="line2d_25"/>
    <g id="text_21">
     <!-- REI(x) -->
     <g transform="translate(177.327813 101.256094)scale(0.11 -0.11)">
      <use xlink:href="#DejaVuSans-52"/>
      <use x="69.482422" xlink:href="#DejaVuSans-45"/>
      <use x="132.666016" xlink:href="#DejaVuSans-49"/>
      <use x="162.158203" xlink:href="#DejaVuSans-28"/>
      <use x="201.171875" xlink:href="#DejaVuSans-78"/>
      <use x="260.351562" xlink:href="#DejaVuSans-29"/>
     </g>
    </g>
    <g id="PathCollection_2">
     <defs>
      <path d="M 0 3.535534 
C 0.937635 3.535534 1.836992 3.163008 2.5 2.5 
C 3.163008 1.836992 3.535534 0.937635 3.535534 0 
C 3.535534 -0.937635 3.163008 -1.836992 2.5 -2.5 
C 1.836992 -3.163008 0.937635 -3.535534 0 -3.535534 
C -0.937635 -3.535534 -1.836992 -3.163008 -2.5 -2.5 
C -3.163008 -1.836992 -3.535534 -0.937635 -3.535534 0 
C -3.535534 0.937635 -3.163008 1.836992 -2.5 2.5 
C -1.836992 3.163008 -0.937635 3.535534 0 3.535534 
z
" id="mdbfaf10804" style="stroke:#000000;"/>
     </defs>
     <g>
      <use style="fill:#ff0000;stroke:#000000;" x="157.527813" xlink:href="#mdbfaf10804" y="114.514531"/>
     </g>
    </g>
    <g id="text_22">
     <!-- training data -->
     <g transform="translate(177.327813 117.402031)scale(0.11 -0.11)">
      <defs>
       <path d="M 2194 1759 
Q 1497 1759 1228 1600 
Q 959 1441 959 1056 
Q 959 750 1161 570 
Q 1363 391 1709 391 
Q 2188 391 2477 730 
Q 2766 1069 2766 1631 
L 2766 1759 
L 2194 1759 
z
M 3341 1997 
L 3341 0 
L 2766 0 
L 2766 531 
Q 2569 213 2275 61 
Q 1981 -91 1556 -91 
Q 1019 -91 701 211 
Q 384 513 384 1019 
Q 384 1609 779 1909 
Q 1175 2209 1959 2209 
L 2766 2209 
L 2766 2266 
Q 2766 2663 2505 2880 
Q 2244 3097 1772 3097 
Q 1472 3097 1187 3025 
Q 903 2953 641 2809 
L 641 3341 
Q 956 3463 1253 3523 
Q 1550 3584 1831 3584 
Q 2591 3584 2966 3190 
Q 3341 2797 3341 1997 
z
" id="DejaVuSans-61" transform="scale(0.015625)"/>
       <path d="M 2906 1791 
Q 2906 2416 2648 2759 
Q 2391 3103 1925 3103 
Q 1463 3103 1205 2759 
Q 947 2416 947 1791 
Q 947 1169 1205 825 
Q 1463 481 1925 481 
Q 2391 481 2648 825 
Q 2906 1169 2906 1791 
z
M 3481 434 
Q 3481 -459 3084 -895 
Q 2688 -1331 1869 -1331 
Q 1566 -1331 1297 -1286 
Q 1028 -1241 775 -1147 
L 775 -588 
Q 1028 -725 1275 -790 
Q 1522 -856 1778 -856 
Q 2344 -856 2625 -561 
Q 2906 -266 2906 331 
L 2906 616 
Q 2728 306 2450 153 
Q 2172 0 1784 0 
Q 1141 0 747 490 
Q 353 981 353 1791 
Q 353 2603 747 3093 
Q 1141 3584 1784 3584 
Q 2172 3584 2450 3431 
Q 2728 3278 2906 2969 
L 2906 3500 
L 3481 3500 
L 3481 434 
z
" id="DejaVuSans-67" transform="scale(0.015625)"/>
      </defs>
      <use xlink:href="#DejaVuSans-74"/>
      <use x="39.208984" xlink:href="#DejaVuSans-72"/>
      <use x="80.322266" xlink:href="#DejaVuSans-61"/>
      <use x="141.601562" xlink:href="#DejaVuSans-69"/>
      <use x="169.384766" xlink:href="#DejaVuSans-6e"/>
      <use x="232.763672" xlink:href="#DejaVuSans-69"/>
      <use x="260.546875" xlink:href="#DejaVuSans-6e"/>
      <use x="323.925781" xlink:href="#DejaVuSans-67"/>
      <use x="387.402344" xlink:href="#DejaVuSans-20"/>
      <use x="419.189453" xlink:href="#DejaVuSans-64"/>
      <use x="482.666016" xlink:href="#DejaVuSans-61"/>
      <use x="543.945312" xlink:href="#DejaVuSans-74"/>
      <use x="583.154297" xlink:href="#DejaVuSans-61"/>
     </g>
    </g>
    <g id="PathCollection_3">
     <g>
      <use style="fill:#ff0000;stroke:#ff0000;stroke-width:8;" x="157.527813" xlink:href="#m5b574a8b2d" y="130.660469"/>
     </g>
    </g>
    <g id="text_23">
     <!-- recommended datum -->
     <g transform="translate(177.327813 133.547969)scale(0.11 -0.11)">
      <defs>
       <path d="M 3328 2828 
Q 3544 3216 3844 3400 
Q 4144 3584 4550 3584 
Q 5097 3584 5394 3201 
Q 5691 2819 5691 2113 
L 5691 0 
L 5113 0 
L 5113 2094 
Q 5113 2597 4934 2840 
Q 4756 3084 4391 3084 
Q 3944 3084 3684 2787 
Q 3425 2491 3425 1978 
L 3425 0 
L 2847 0 
L 2847 2094 
Q 2847 2600 2669 2842 
Q 2491 3084 2119 3084 
Q 1678 3084 1418 2786 
Q 1159 2488 1159 1978 
L 1159 0 
L 581 0 
L 581 3500 
L 1159 3500 
L 1159 2956 
Q 1356 3278 1631 3431 
Q 1906 3584 2284 3584 
Q 2666 3584 2933 3390 
Q 3200 3197 3328 2828 
z
" id="DejaVuSans-6d" transform="scale(0.015625)"/>
      </defs>
      <use xlink:href="#DejaVuSans-72"/>
      <use x="38.863281" xlink:href="#DejaVuSans-65"/>
      <use x="100.386719" xlink:href="#DejaVuSans-63"/>
      <use x="155.367188" xlink:href="#DejaVuSans-6f"/>
      <use x="216.548828" xlink:href="#DejaVuSans-6d"/>
      <use x="313.960938" xlink:href="#DejaVuSans-6d"/>
      <use x="411.373047" xlink:href="#DejaVuSans-65"/>
      <use x="472.896484" xlink:href="#DejaVuSans-6e"/>
      <use x="536.275391" xlink:href="#DejaVuSans-64"/>
      <use x="599.751953" xlink:href="#DejaVuSans-65"/>
      <use x="661.275391" xlink:href="#DejaVuSans-64"/>
      <use x="724.751953" xlink:href="#DejaVuSans-20"/>
      <use x="756.539062" xlink:href="#DejaVuSans-64"/>
      <use x="820.015625" xlink:href="#DejaVuSans-61"/>
      <use x="881.294922" xlink:href="#DejaVuSans-74"/>
      <use x="920.503906" xlink:href="#DejaVuSans-75"/>
      <use x="983.882812" xlink:href="#DejaVuSans-6d"/>
     </g>
    </g>
   </g>
   <g id="line2d_26">
    <path clip-path="url(#p521b5ac3de)" d="M 69.218182 140.937772 
L 71.985124 139.755396 
L 74.752066 139.2591 
L 77.519008 139.523356 
L 80.28595 140.593248 
L 83.052893 142.479737 
L 85.819835 145.15702 
L 88.586777 148.562317 
L 91.353719 152.598212 
L 94.120661 157.137445 
L 96.887603 162.029823 
L 99.654545 167.110739 
L 102.421488 172.210622 
L 105.18843 177.164574 
L 107.955372 181.821466 
L 110.722314 186.05181 
L 113.489256 189.75386 
L 116.256198 192.8576 
L 119.02314 195.326426 
L 121.790083 197.156569 
L 124.557025 198.374469 
L 127.323967 199.032439 
L 130.090909 199.203086 
L 132.857851 198.972982 
L 135.624793 198.436086 
L 138.391736 197.687384 
L 141.158678 196.817145 
L 143.92562 195.906112 
L 146.692562 195.021824 
L 149.459504 194.216198 
L 152.226446 193.52438 
L 154.993388 192.964817 
L 157.760331 192.540391 
L 160.527273 192.240459 
L 163.294215 192.043547 
L 166.061157 191.920467 
L 168.828099 191.837592 
L 171.595041 191.760068 
L 174.361983 191.654727 
L 177.128926 191.492541 
L 179.895868 191.250495 
L 182.66281 190.912796 
L 185.429752 190.471409 
L 188.196694 189.925974 
L 190.963636 189.283158 
L 193.730579 188.555597 
L 196.497521 187.760537 
L 199.264463 186.918348 
L 202.031405 186.051029 
L 204.798347 185.180855 
L 207.565289 184.329243 
L 210.332231 183.515925 
L 213.099174 182.758446 
L 215.866116 182.072007 
L 218.633058 181.469628 
L 221.4 180.962573 
L 224.166942 180.560987 
L 226.933884 180.274655 
L 229.700826 180.11381 
L 232.467769 180.08989 
L 235.234711 180.216173 
L 238.001653 180.508188 
L 240.768595 180.983844 
L 243.535537 181.663209 
L 246.302479 182.567891 
L 249.069421 183.720009 
L 251.836364 185.140739 
L 254.603306 186.84849 
L 257.370248 188.856755 
L 260.13719 191.171745 
L 262.904132 193.789938 
L 265.671074 196.695676 
L 268.438017 199.858986 
L 271.204959 203.233804 
L 273.971901 206.756747 
L 276.738843 210.346596 
L 279.505785 213.904618 
L 282.272727 217.315814 
L 285.039669 220.451158 
L 287.806612 223.170865 
L 290.573554 225.328661 
L 293.340496 226.777 
L 296.107438 227.373151 
L 298.87438 226.985956 
L 301.641322 225.503071 
L 304.408264 222.838363 
L 307.175207 218.939094 
L 309.942149 213.79243 
L 312.709091 207.430756 
L 315.476033 199.935264 
L 318.242975 191.437284 
L 321.009917 182.116928 
L 323.77686 172.198747 
L 326.543802 161.944324 
L 329.310744 151.641963 
L 332.077686 141.593942 
L 334.844628 132.102025 
L 337.61157 123.452205 
L 340.378512 115.899755 
L 343.145455 109.655742 
L 345.912397 104.876073 
L 348.679339 101.65396 
L 351.446281 100.01641 
L 354.213223 99.92497 
L 356.980165 101.280619 
L 359.747107 103.932272 
L 362.51405 107.688126 
L 365.280992 112.328803 
L 368.047934 117.621183 
L 370.814876 123.331839 
L 373.581818 129.239092 
" style="fill:none;stroke:#000000;stroke-dasharray:7.4,3.2;stroke-dashoffset:0;stroke-width:2;"/>
   </g>
   <g id="PathCollection_4">
    <g clip-path="url(#p521b5ac3de)">
     <use style="fill:#ff0000;stroke:#000000;" x="83.052893" xlink:href="#mdbfaf10804" y="129.399309"/>
     <use style="fill:#ff0000;stroke:#000000;" x="96.887603" xlink:href="#mdbfaf10804" y="162.429541"/>
     <use style="fill:#ff0000;stroke:#000000;" x="110.722314" xlink:href="#mdbfaf10804" y="193.170209"/>
     <use style="fill:#ff0000;stroke:#000000;" x="124.557025" xlink:href="#mdbfaf10804" y="199.248575"/>
     <use style="fill:#ff0000;stroke:#000000;" x="138.391736" xlink:href="#mdbfaf10804" y="199.347548"/>
     <use style="fill:#ff0000;stroke:#000000;" x="152.226446" xlink:href="#mdbfaf10804" y="191.611971"/>
     <use style="fill:#ff0000;stroke:#000000;" x="166.061157" xlink:href="#mdbfaf10804" y="193.66847"/>
     <use style="fill:#ff0000;stroke:#000000;" x="179.895868" xlink:href="#mdbfaf10804" y="193.283098"/>
     <use style="fill:#ff0000;stroke:#000000;" x="193.730579" xlink:href="#mdbfaf10804" y="188.924027"/>
     <use style="fill:#ff0000;stroke:#000000;" x="318.242975" xlink:href="#mdbfaf10804" y="199.289596"/>
     <use style="fill:#ff0000;stroke:#000000;" x="332.077686" xlink:href="#mdbfaf10804" y="145.37007"/>
     <use style="fill:#ff0000;stroke:#000000;" x="345.912397" xlink:href="#mdbfaf10804" y="78.407322"/>
     <use style="fill:#ff0000;stroke:#000000;" x="296.107438" xlink:href="#mdbfaf10804" y="236.471511"/>
    </g>
   </g>
  </g>
 </g>
 <defs>
  <clipPath id="p521b5ac3de">
   <rect height="217.44" width="334.8" x="54" y="34.56"/>
  </clipPath>
 </defs>
</svg>
