<?xml version="1.0" encoding="utf-8" standalone="no"?>
<!DOCTYPE svg PUBLIC "-//W3C//DTD SVG 1.1//EN"
  "http://www.w3.org/Graphics/SVG/1.1/DTD/svg11.dtd">
<svg height="288pt" version="1.1" viewBox="0 0 432 288" width="432pt" xmlns="http://www.w3.org/2000/svg" xmlns:xlink="http://www.w3.org/1999/xlink">
 <metadata>
  <rdf:RDF xmlns:cc="http://creativecommons.org/ns#" xmlns:dc="http://purl.org/dc/elements/1.1/" xmlns:rdf="http://www.w3.org/1999/02/22-rdf-syntax-ns#">
   <cc:Work>
    <dc:type rdf:resource="http://purl.org/dc/dcmitype/StillImage"/>
    <dc:date>2022-08-04T17:09:46.015193</dc:date>
    <dc:format>image/svg+xml</dc:format>
    <dc:creator>
     <cc:Agent>
      <dc:title>Matplotlib v3.4.3, https://matplotlib.org/</dc:title>
     </cc:Agent>
    </dc:creator>
   </cc:Work>
  </rdf:RDF>
 </metadata>
 <defs>
  <style type="text/css">*{stroke-linecap:butt;stroke-linejoin:round;}</style>
 </defs>
 <g id="figure_1">
  <g id="patch_1">
   <path d="M 0 288 
L 432 288 
L 432 0 
L 0 0 
z
" style="fill:none;"/>
  </g>
  <g id="axes_1">
   <g id="patch_2">
    <path d="M 54 252 
L 388.8 252 
L 388.8 34.56 
L 54 34.56 
z
" style="fill:#ffffff;"/>
   </g>
   <g id="PolyCollection_1">
    <defs>
     <path d="M 69.218182 -166.630008 
L 69.218182 -114.345021 
L 71.985124 -116.872571 
L 74.752066 -118.886755 
L 77.519008 -120.273499 
L 80.28595 -120.937189 
L 83.052893 -120.810824 
L 85.819835 -119.866225 
L 88.586777 -118.122096 
L 91.353719 -115.646771 
L 94.120661 -112.5532 
L 96.887603 -108.986665 
L 99.654545 -105.108878 
L 102.421488 -101.082879 
L 105.18843 -97.06149 
L 107.955372 -93.179857 
L 110.722314 -89.551314 
L 113.489256 -86.265529 
L 116.256198 -83.3881 
L 119.02314 -80.961087 
L 121.790083 -79.004175 
L 124.557025 -77.516355 
L 127.323967 -76.478094 
L 130.090909 -75.85399 
L 132.857851 -75.595902 
L 135.624793 -75.646473 
L 138.391736 -75.942893 
L 141.158678 -76.420715 
L 143.92562 -77.017493 
L 146.692562 -77.676074 
L 149.459504 -78.347363 
L 152.226446 -78.992461 
L 154.993388 -79.584058 
L 157.760331 -80.106954 
L 160.527273 -80.557586 
L 163.294215 -80.94243 
L 166.061157 -81.275197 
L 168.828099 -81.572911 
L 171.595041 -81.851094 
L 174.361983 -82.118595 
L 177.128926 -82.372893 
L 179.895868 -82.5971 
L 182.66281 -82.760141 
L 185.429752 -82.821319 
L 188.196694 -82.739196 
L 190.963636 -82.48239 
L 193.730579 -82.038189 
L 196.497521 -81.415515 
L 199.264463 -80.641822 
L 202.031405 -79.756308 
L 204.798347 -78.802447 
L 207.565289 -77.821773 
L 210.332231 -76.849516 
L 213.099174 -75.911997 
L 215.866116 -75.02544 
L 218.633058 -74.195913 
L 221.4 -73.420188 
L 224.166942 -72.687332 
L 226.933884 -71.98088 
L 229.700826 -71.281395 
L 232.467769 -70.569198 
L 235.234711 -69.827021 
L 238.001653 -69.042343 
L 240.768595 -68.209142 
L 243.535537 -67.328887 
L 246.302479 -66.4106 
L 249.069421 -65.469957 
L 251.836364 -64.527418 
L 254.603306 -63.605533 
L 257.370248 -62.725574 
L 260.13719 -61.903766 
L 262.904132 -61.147459 
L 265.671074 -60.451716 
L 268.438017 -59.797079 
L 271.204959 -59.14972 
L 273.971901 -58.465821 
L 276.738843 -57.702287 
L 279.505785 -56.834625 
L 282.272727 -55.878479 
L 285.039669 -54.905646 
L 287.806612 -54.044569 
L 290.573554 -53.463443 
L 293.340496 -53.344342 
L 296.107438 -53.859006 
L 298.87438 -55.151676 
L 301.641322 -57.328908 
L 304.408264 -60.454179 
L 307.175207 -64.545443 
L 309.942149 -69.574719 
L 312.709091 -75.469535 
L 315.476033 -82.11635 
L 318.242975 -89.366039 
L 321.009917 -97.041157 
L 323.77686 -104.944063 
L 326.543802 -112.864576 
L 329.310744 -120.586012 
L 332.077686 -127.889686 
L 334.844628 -134.55958 
L 337.61157 -140.389629 
L 340.378512 -145.19499 
L 343.145455 -148.826071 
L 345.912397 -151.181854 
L 348.679339 -152.218673 
L 351.446281 -151.952448 
L 354.213223 -150.454722 
L 356.980165 -147.844308 
L 359.747107 -144.276469 
L 362.51405 -139.931116 
L 365.280992 -135.001012 
L 368.047934 -129.680716 
L 370.814876 -124.156807 
L 373.581818 -118.599835 
L 373.581818 -184.783296 
L 373.581818 -184.783296 
L 370.814876 -188.15012 
L 368.047934 -191.15806 
L 365.280992 -193.663061 
L 362.51405 -195.526986 
L 359.747107 -196.625929 
L 356.980165 -196.858177 
L 354.213223 -196.151024 
L 351.446281 -194.465607 
L 348.679339 -191.799112 
L 345.912397 -188.18409 
L 343.145455 -183.685404 
L 340.378512 -178.396148 
L 337.61157 -172.434193 
L 334.844628 -165.9401 
L 332.077686 -159.075177 
L 329.310744 -152.017088 
L 326.543802 -144.950957 
L 323.77686 -138.056364 
L 321.009917 -131.493077 
L 318.242975 -125.389326 
L 315.476033 -119.8353 
L 312.709091 -114.882559 
L 309.942149 -110.548382 
L 307.175207 -106.823455 
L 304.408264 -103.681398 
L 301.641322 -101.088999 
L 298.87438 -99.016245 
L 296.107438 -97.445291 
L 293.340496 -96.377296 
L 290.573554 -95.835478 
L 287.806612 -95.862071 
L 285.039669 -96.50675 
L 282.272727 -97.806429 
L 279.505785 -99.761993 
L 276.738843 -102.322903 
L 273.971901 -105.388403 
L 271.204959 -108.823826 
L 268.438017 -112.482296 
L 265.671074 -116.222826 
L 262.904132 -119.921444 
L 260.13719 -123.476174 
L 257.370248 -126.807924 
L 254.603306 -129.859024 
L 251.836364 -132.590491 
L 249.069421 -134.978657 
L 246.302479 -137.011576 
L 243.535537 -138.685494 
L 240.768595 -140.001663 
L 238.001653 -140.963714 
L 235.234711 -141.575796 
L 232.467769 -141.8416 
L 229.700826 -141.764292 
L 226.933884 -141.347318 
L 224.166942 -140.595916 
L 221.4 -139.51912 
L 218.633058 -138.131999 
L 215.866116 -136.457823 
L 213.099174 -134.529899 
L 210.332231 -132.392786 
L 207.565289 -130.102657 
L 204.798347 -127.726558 
L 202.031405 -125.340304 
L 199.264463 -123.024699 
L 196.497521 -120.859788 
L 193.730579 -118.917071 
L 190.963636 -117.250414 
L 188.196694 -115.887705 
L 185.429752 -114.826419 
L 182.66281 -114.03563 
L 179.895868 -113.464202 
L 177.128926 -113.051854 
L 174.361983 -112.739042 
L 171.595041 -112.473342 
L 168.828099 -112.212219 
L 166.061157 -111.923311 
L 163.294215 -111.583544 
L 160.527273 -111.178088 
L 157.760331 -110.699717 
L 154.993388 -110.148796 
L 152.226446 -109.53381 
L 149.459504 -108.872197 
L 146.692562 -108.191126 
L 143.92562 -107.527852 
L 141.158678 -106.929372 
L 138.391736 -106.45119 
L 135.624793 -106.155131 
L 132.857851 -106.106261 
L 130.090909 -106.369041 
L 127.323967 -107.002928 
L 124.557025 -108.057703 
L 121.790083 -109.568913 
L 119.02314 -111.553851 
L 116.256198 -114.008601 
L 113.489256 -116.906643 
L 110.722314 -120.199429 
L 107.955372 -123.819168 
L 105.18843 -127.683742 
L 102.421488 -131.703332 
L 99.654545 -135.787847 
L 96.887603 -139.853775 
L 94.120661 -143.828696 
L 91.353719 -147.651875 
L 88.586777 -151.270605 
L 85.819835 -154.634255 
L 83.052893 -157.689747 
L 80.28595 -160.381609 
L 77.519008 -162.65678 
L 74.752066 -164.471704 
L 71.985124 -165.798725 
L 69.218182 -166.630008 
z
" id="m36c2598e91" style="stroke:#add8e6;stroke-opacity:0.2;"/>
    </defs>
    <g clip-path="url(#p7ec45f2aa0)">
     <use style="fill:#add8e6;fill-opacity:0.2;stroke:#add8e6;stroke-opacity:0.2;" x="0" xlink:href="#m36c2598e91" y="288"/>
    </g>
   </g>
   <g id="PathCollection_1">
    <defs>
     <path d="M 0 0.612372 
C 0.162403 0.612372 0.318176 0.547849 0.433013 0.433013 
C 0.547849 0.318176 0.612372 0.162403 0.612372 0 
C 0.612372 -0.162403 0.547849 -0.318176 0.433013 -0.433013 
C 0.318176 -0.547849 0.162403 -0.612372 0 -0.612372 
C -0.162403 -0.612372 -0.318176 -0.547849 -0.433013 -0.433013 
C -0.547849 -0.318176 -0.612372 -0.162403 -0.612372 0 
C -0.612372 0.162403 -0.547849 0.318176 -0.433013 0.433013 
C -0.318176 0.547849 -0.162403 0.612372 0 0.612372 
z
" id="m97156e8ec7" style="stroke:#ff0000;stroke-width:8;"/>
    </defs>
    <g clip-path="url(#p7ec45f2aa0)">
     <use style="fill:#ff0000;stroke:#ff0000;stroke-width:8;" x="265.671074" xlink:href="#m97156e8ec7" y="228.739253"/>
    </g>
   </g>
   <g id="matplotlib.axis_1">
    <g id="xtick_1">
     <g id="line2d_1">
      <defs>
       <path d="M 0 0 
L 0 3.5 
" id="m210114aa08" style="stroke:#000000;stroke-width:0.8;"/>
      </defs>
      <g>
       <use style="stroke:#000000;stroke-width:0.8;" x="69.218182" xlink:href="#m210114aa08" y="252"/>
      </g>
     </g>
     <g id="text_1">
      <!-- 0 -->
      <g transform="translate(66.036932 266.598437)scale(0.1 -0.1)">
       <defs>
        <path d="M 2034 4250 
Q 1547 4250 1301 3770 
Q 1056 3291 1056 2328 
Q 1056 1369 1301 889 
Q 1547 409 2034 409 
Q 2525 409 2770 889 
Q 3016 1369 3016 2328 
Q 3016 3291 2770 3770 
Q 2525 4250 2034 4250 
z
M 2034 4750 
Q 2819 4750 3233 4129 
Q 3647 3509 3647 2328 
Q 3647 1150 3233 529 
Q 2819 -91 2034 -91 
Q 1250 -91 836 529 
Q 422 1150 422 2328 
Q 422 3509 836 4129 
Q 1250 4750 2034 4750 
z
" id="DejaVuSans-30" transform="scale(0.015625)"/>
       </defs>
       <use xlink:href="#DejaVuSans-30"/>
      </g>
     </g>
    </g>
    <g id="xtick_2">
     <g id="line2d_2">
      <g>
       <use style="stroke:#000000;stroke-width:0.8;" x="124.557025" xlink:href="#m210114aa08" y="252"/>
      </g>
     </g>
     <g id="text_2">
      <!-- 2 -->
      <g transform="translate(121.375775 266.598437)scale(0.1 -0.1)">
       <defs>
        <path d="M 1228 531 
L 3431 531 
L 3431 0 
L 469 0 
L 469 531 
Q 828 903 1448 1529 
Q 2069 2156 2228 2338 
Q 2531 2678 2651 2914 
Q 2772 3150 2772 3378 
Q 2772 3750 2511 3984 
Q 2250 4219 1831 4219 
Q 1534 4219 1204 4116 
Q 875 4013 500 3803 
L 500 4441 
Q 881 4594 1212 4672 
Q 1544 4750 1819 4750 
Q 2544 4750 2975 4387 
Q 3406 4025 3406 3419 
Q 3406 3131 3298 2873 
Q 3191 2616 2906 2266 
Q 2828 2175 2409 1742 
Q 1991 1309 1228 531 
z
" id="DejaVuSans-32" transform="scale(0.015625)"/>
       </defs>
       <use xlink:href="#DejaVuSans-32"/>
      </g>
     </g>
    </g>
    <g id="xtick_3">
     <g id="line2d_3">
      <g>
       <use style="stroke:#000000;stroke-width:0.8;" x="179.895868" xlink:href="#m210114aa08" y="252"/>
      </g>
     </g>
     <g id="text_3">
      <!-- 4 -->
      <g transform="translate(176.714618 266.598437)scale(0.1 -0.1)">
       <defs>
        <path d="M 2419 4116 
L 825 1625 
L 2419 1625 
L 2419 4116 
z
M 2253 4666 
L 3047 4666 
L 3047 1625 
L 3713 1625 
L 3713 1100 
L 3047 1100 
L 3047 0 
L 2419 0 
L 2419 1100 
L 313 1100 
L 313 1709 
L 2253 4666 
z
" id="DejaVuSans-34" transform="scale(0.015625)"/>
       </defs>
       <use xlink:href="#DejaVuSans-34"/>
      </g>
     </g>
    </g>
    <g id="xtick_4">
     <g id="line2d_4">
      <g>
       <use style="stroke:#000000;stroke-width:0.8;" x="235.234711" xlink:href="#m210114aa08" y="252"/>
      </g>
     </g>
     <g id="text_4">
      <!-- 6 -->
      <g transform="translate(232.053461 266.598437)scale(0.1 -0.1)">
       <defs>
        <path d="M 2113 2584 
Q 1688 2584 1439 2293 
Q 1191 2003 1191 1497 
Q 1191 994 1439 701 
Q 1688 409 2113 409 
Q 2538 409 2786 701 
Q 3034 994 3034 1497 
Q 3034 2003 2786 2293 
Q 2538 2584 2113 2584 
z
M 3366 4563 
L 3366 3988 
Q 3128 4100 2886 4159 
Q 2644 4219 2406 4219 
Q 1781 4219 1451 3797 
Q 1122 3375 1075 2522 
Q 1259 2794 1537 2939 
Q 1816 3084 2150 3084 
Q 2853 3084 3261 2657 
Q 3669 2231 3669 1497 
Q 3669 778 3244 343 
Q 2819 -91 2113 -91 
Q 1303 -91 875 529 
Q 447 1150 447 2328 
Q 447 3434 972 4092 
Q 1497 4750 2381 4750 
Q 2619 4750 2861 4703 
Q 3103 4656 3366 4563 
z
" id="DejaVuSans-36" transform="scale(0.015625)"/>
       </defs>
       <use xlink:href="#DejaVuSans-36"/>
      </g>
     </g>
    </g>
    <g id="xtick_5">
     <g id="line2d_5">
      <g>
       <use style="stroke:#000000;stroke-width:0.8;" x="290.573554" xlink:href="#m210114aa08" y="252"/>
      </g>
     </g>
     <g id="text_5">
      <!-- 8 -->
      <g transform="translate(287.392304 266.598437)scale(0.1 -0.1)">
       <defs>
        <path d="M 2034 2216 
Q 1584 2216 1326 1975 
Q 1069 1734 1069 1313 
Q 1069 891 1326 650 
Q 1584 409 2034 409 
Q 2484 409 2743 651 
Q 3003 894 3003 1313 
Q 3003 1734 2745 1975 
Q 2488 2216 2034 2216 
z
M 1403 2484 
Q 997 2584 770 2862 
Q 544 3141 544 3541 
Q 544 4100 942 4425 
Q 1341 4750 2034 4750 
Q 2731 4750 3128 4425 
Q 3525 4100 3525 3541 
Q 3525 3141 3298 2862 
Q 3072 2584 2669 2484 
Q 3125 2378 3379 2068 
Q 3634 1759 3634 1313 
Q 3634 634 3220 271 
Q 2806 -91 2034 -91 
Q 1263 -91 848 271 
Q 434 634 434 1313 
Q 434 1759 690 2068 
Q 947 2378 1403 2484 
z
M 1172 3481 
Q 1172 3119 1398 2916 
Q 1625 2713 2034 2713 
Q 2441 2713 2670 2916 
Q 2900 3119 2900 3481 
Q 2900 3844 2670 4047 
Q 2441 4250 2034 4250 
Q 1625 4250 1398 4047 
Q 1172 3844 1172 3481 
z
" id="DejaVuSans-38" transform="scale(0.015625)"/>
       </defs>
       <use xlink:href="#DejaVuSans-38"/>
      </g>
     </g>
    </g>
    <g id="xtick_6">
     <g id="line2d_6">
      <g>
       <use style="stroke:#000000;stroke-width:0.8;" x="345.912397" xlink:href="#m210114aa08" y="252"/>
      </g>
     </g>
     <g id="text_6">
      <!-- 10 -->
      <g transform="translate(339.549897 266.598437)scale(0.1 -0.1)">
       <defs>
        <path d="M 794 531 
L 1825 531 
L 1825 4091 
L 703 3866 
L 703 4441 
L 1819 4666 
L 2450 4666 
L 2450 531 
L 3481 531 
L 3481 0 
L 794 0 
L 794 531 
z
" id="DejaVuSans-31" transform="scale(0.015625)"/>
       </defs>
       <use xlink:href="#DejaVuSans-31"/>
       <use x="63.623047" xlink:href="#DejaVuSans-30"/>
      </g>
     </g>
    </g>
    <g id="text_7">
     <!-- x -->
     <g transform="translate(217.84875 281.79625)scale(0.12 -0.12)">
      <defs>
       <path d="M 3513 3500 
L 2247 1797 
L 3578 0 
L 2900 0 
L 1881 1375 
L 863 0 
L 184 0 
L 1544 1831 
L 300 3500 
L 978 3500 
L 1906 2253 
L 2834 3500 
L 3513 3500 
z
" id="DejaVuSans-78" transform="scale(0.015625)"/>
      </defs>
      <use xlink:href="#DejaVuSans-78"/>
     </g>
    </g>
   </g>
   <g id="matplotlib.axis_2">
    <g id="ytick_1">
     <g id="line2d_7">
      <defs>
       <path d="M 0 0 
L -3.5 0 
" id="m8b550ca83f" style="stroke:#000000;stroke-width:0.8;"/>
      </defs>
      <g>
       <use style="stroke:#000000;stroke-width:0.8;" x="54" xlink:href="#m8b550ca83f" y="252"/>
      </g>
     </g>
     <g id="text_8">
      <!-- 3 -->
      <g transform="translate(40.6375 255.799219)scale(0.1 -0.1)">
       <defs>
        <path d="M 2597 2516 
Q 3050 2419 3304 2112 
Q 3559 1806 3559 1356 
Q 3559 666 3084 287 
Q 2609 -91 1734 -91 
Q 1441 -91 1130 -33 
Q 819 25 488 141 
L 488 750 
Q 750 597 1062 519 
Q 1375 441 1716 441 
Q 2309 441 2620 675 
Q 2931 909 2931 1356 
Q 2931 1769 2642 2001 
Q 2353 2234 1838 2234 
L 1294 2234 
L 1294 2753 
L 1863 2753 
Q 2328 2753 2575 2939 
Q 2822 3125 2822 3475 
Q 2822 3834 2567 4026 
Q 2313 4219 1838 4219 
Q 1578 4219 1281 4162 
Q 984 4106 628 3988 
L 628 4550 
Q 988 4650 1302 4700 
Q 1616 4750 1894 4750 
Q 2613 4750 3031 4423 
Q 3450 4097 3450 3541 
Q 3450 3153 3228 2886 
Q 3006 2619 2597 2516 
z
" id="DejaVuSans-33" transform="scale(0.015625)"/>
       </defs>
       <use xlink:href="#DejaVuSans-33"/>
      </g>
     </g>
    </g>
    <g id="ytick_2">
     <g id="line2d_8">
      <g>
       <use style="stroke:#000000;stroke-width:0.8;" x="54" xlink:href="#m8b550ca83f" y="215.76"/>
      </g>
     </g>
     <g id="text_9">
      <!-- 4 -->
      <g transform="translate(40.6375 219.559219)scale(0.1 -0.1)">
       <use xlink:href="#DejaVuSans-34"/>
      </g>
     </g>
    </g>
    <g id="ytick_3">
     <g id="line2d_9">
      <g>
       <use style="stroke:#000000;stroke-width:0.8;" x="54" xlink:href="#m8b550ca83f" y="179.52"/>
      </g>
     </g>
     <g id="text_10">
      <!-- 5 -->
      <g transform="translate(40.6375 183.319219)scale(0.1 -0.1)">
       <defs>
        <path d="M 691 4666 
L 3169 4666 
L 3169 4134 
L 1269 4134 
L 1269 2991 
Q 1406 3038 1543 3061 
Q 1681 3084 1819 3084 
Q 2600 3084 3056 2656 
Q 3513 2228 3513 1497 
Q 3513 744 3044 326 
Q 2575 -91 1722 -91 
Q 1428 -91 1123 -41 
Q 819 9 494 109 
L 494 744 
Q 775 591 1075 516 
Q 1375 441 1709 441 
Q 2250 441 2565 725 
Q 2881 1009 2881 1497 
Q 2881 1984 2565 2268 
Q 2250 2553 1709 2553 
Q 1456 2553 1204 2497 
Q 953 2441 691 2322 
L 691 4666 
z
" id="DejaVuSans-35" transform="scale(0.015625)"/>
       </defs>
       <use xlink:href="#DejaVuSans-35"/>
      </g>
     </g>
    </g>
    <g id="ytick_4">
     <g id="line2d_10">
      <g>
       <use style="stroke:#000000;stroke-width:0.8;" x="54" xlink:href="#m8b550ca83f" y="143.28"/>
      </g>
     </g>
     <g id="text_11">
      <!-- 6 -->
      <g transform="translate(40.6375 147.079219)scale(0.1 -0.1)">
       <use xlink:href="#DejaVuSans-36"/>
      </g>
     </g>
    </g>
    <g id="ytick_5">
     <g id="line2d_11">
      <g>
       <use style="stroke:#000000;stroke-width:0.8;" x="54" xlink:href="#m8b550ca83f" y="107.04"/>
      </g>
     </g>
     <g id="text_12">
      <!-- 7 -->
      <g transform="translate(40.6375 110.839219)scale(0.1 -0.1)">
       <defs>
        <path d="M 525 4666 
L 3525 4666 
L 3525 4397 
L 1831 0 
L 1172 0 
L 2766 4134 
L 525 4134 
L 525 4666 
z
" id="DejaVuSans-37" transform="scale(0.015625)"/>
       </defs>
       <use xlink:href="#DejaVuSans-37"/>
      </g>
     </g>
    </g>
    <g id="ytick_6">
     <g id="line2d_12">
      <g>
       <use style="stroke:#000000;stroke-width:0.8;" x="54" xlink:href="#m8b550ca83f" y="70.8"/>
      </g>
     </g>
     <g id="text_13">
      <!-- 8 -->
      <g transform="translate(40.6375 74.599219)scale(0.1 -0.1)">
       <use xlink:href="#DejaVuSans-38"/>
      </g>
     </g>
    </g>
    <g id="ytick_7">
     <g id="line2d_13">
      <g>
       <use style="stroke:#000000;stroke-width:0.8;" x="54" xlink:href="#m8b550ca83f" y="34.56"/>
      </g>
     </g>
     <g id="text_14">
      <!-- 9 -->
      <g transform="translate(40.6375 38.359219)scale(0.1 -0.1)">
       <defs>
        <path d="M 703 97 
L 703 672 
Q 941 559 1184 500 
Q 1428 441 1663 441 
Q 2288 441 2617 861 
Q 2947 1281 2994 2138 
Q 2813 1869 2534 1725 
Q 2256 1581 1919 1581 
Q 1219 1581 811 2004 
Q 403 2428 403 3163 
Q 403 3881 828 4315 
Q 1253 4750 1959 4750 
Q 2769 4750 3195 4129 
Q 3622 3509 3622 2328 
Q 3622 1225 3098 567 
Q 2575 -91 1691 -91 
Q 1453 -91 1209 -44 
Q 966 3 703 97 
z
M 1959 2075 
Q 2384 2075 2632 2365 
Q 2881 2656 2881 3163 
Q 2881 3666 2632 3958 
Q 2384 4250 1959 4250 
Q 1534 4250 1286 3958 
Q 1038 3666 1038 3163 
Q 1038 2656 1286 2365 
Q 1534 2075 1959 2075 
z
" id="DejaVuSans-39" transform="scale(0.015625)"/>
       </defs>
       <use xlink:href="#DejaVuSans-39"/>
      </g>
     </g>
    </g>
    <g id="text_15">
     <!-- y -->
     <g transform="translate(34.141875 146.83125)rotate(-90)scale(0.12 -0.12)">
      <defs>
       <path d="M 2059 -325 
Q 1816 -950 1584 -1140 
Q 1353 -1331 966 -1331 
L 506 -1331 
L 506 -850 
L 844 -850 
Q 1081 -850 1212 -737 
Q 1344 -625 1503 -206 
L 1606 56 
L 191 3500 
L 800 3500 
L 1894 763 
L 2988 3500 
L 3597 3500 
L 2059 -325 
z
" id="DejaVuSans-79" transform="scale(0.015625)"/>
      </defs>
      <use xlink:href="#DejaVuSans-79"/>
     </g>
    </g>
   </g>
   <g id="line2d_14">
    <path clip-path="url(#p7ec45f2aa0)" d="M 69.218182 70.8 
L 71.985124 85.083949 
L 74.752066 98.25467 
L 77.519008 110.364828 
L 80.28595 121.465955 
L 83.052893 131.608455 
L 85.819835 140.841599 
L 88.586777 149.213528 
L 91.353719 156.771253 
L 94.120661 163.560654 
L 96.887603 169.62648 
L 99.654545 175.012349 
L 102.421488 179.76075 
L 105.18843 183.913038 
L 107.955372 187.509441 
L 110.722314 190.589055 
L 113.489256 193.189844 
L 116.256198 195.348643 
L 119.02314 197.101155 
L 121.790083 198.481953 
L 124.557025 199.52448 
L 127.323967 200.261047 
L 130.090909 200.722835 
L 132.857851 200.939895 
L 135.624793 200.941145 
L 138.391736 200.754375 
L 141.158678 200.406243 
L 143.92562 199.922276 
L 146.692562 199.326871 
L 149.459504 198.643294 
L 152.226446 197.89368 
L 154.993388 197.099035 
L 157.760331 196.279231 
L 160.527273 195.453014 
L 163.294215 194.637994 
L 166.061157 193.850655 
L 168.828099 193.106347 
L 171.595041 192.419291 
L 174.361983 191.802577 
L 177.128926 191.268164 
L 179.895868 190.82688 
L 182.66281 190.488424 
L 185.429752 190.261362 
L 188.196694 190.153131 
L 190.963636 190.170037 
L 193.730579 190.317255 
L 196.497521 190.598829 
L 199.264463 191.017673 
L 202.031405 191.575569 
L 204.798347 192.273171 
L 207.565289 193.11 
L 210.332231 194.084446 
L 213.099174 195.193771 
L 215.866116 196.434103 
L 218.633058 197.800442 
L 221.4 199.286655 
L 224.166942 200.88548 
L 226.933884 202.588525 
L 229.700826 204.386264 
L 232.467769 206.268045 
L 235.234711 208.22208 
L 238.001653 210.235455 
L 240.768595 212.294122 
L 243.535537 214.382905 
L 246.302479 216.485496 
L 249.069421 218.584455 
L 251.836364 220.661214 
L 254.603306 222.696071 
L 257.370248 224.668198 
L 260.13719 226.555631 
L 262.904132 228.33528 
L 265.671074 229.982921 
L 268.438017 231.4732 
L 271.204959 232.779634 
L 273.971901 233.874607 
L 276.738843 234.729375 
L 279.505785 235.31406 
L 282.272727 235.597656 
L 285.039669 235.548026 
L 287.806612 235.1319 
L 290.573554 234.31488 
L 293.340496 233.061436 
L 296.107438 231.334908 
L 298.87438 229.097505 
L 301.641322 226.310305 
L 304.408264 222.933255 
L 307.175207 218.925173 
L 309.942149 214.243744 
L 312.709091 208.845524 
L 315.476033 202.685938 
L 318.242975 195.71928 
L 321.009917 187.898713 
L 323.77686 179.176271 
L 326.543802 169.502854 
L 329.310744 158.828236 
L 332.077686 147.101055 
L 334.844628 134.268823 
L 337.61157 120.277918 
L 340.378512 105.073589 
L 343.145455 88.599954 
L 345.912397 70.8 
L 348.679339 51.615584 
L 351.446281 30.987432 
L 354.213223 8.855138 
L 355.363895 -1 
" style="fill:none;stroke:#0000ff;stroke-linecap:square;stroke-width:2;"/>
   </g>
   <g id="line2d_15">
    <path clip-path="url(#p7ec45f2aa0)" d="M 69.218182 173.654979 
L 71.985124 171.127429 
L 74.752066 169.113245 
L 77.519008 167.726501 
L 80.28595 167.062811 
L 83.052893 167.189176 
L 85.819835 168.133775 
L 88.586777 169.877904 
L 91.353719 172.353229 
L 94.120661 175.4468 
L 96.887603 179.013335 
L 99.654545 182.891122 
L 102.421488 186.917121 
L 105.18843 190.93851 
L 107.955372 194.820143 
L 110.722314 198.448686 
L 113.489256 201.734471 
L 116.256198 204.6119 
L 119.02314 207.038913 
L 121.790083 208.995825 
L 124.557025 210.483645 
L 127.323967 211.521906 
L 130.090909 212.14601 
L 132.857851 212.404098 
L 135.624793 212.353527 
L 138.391736 212.057107 
L 141.158678 211.579285 
L 143.92562 210.982507 
L 146.692562 210.323926 
L 149.459504 209.652637 
L 152.226446 209.007539 
L 154.993388 208.415942 
L 157.760331 207.893046 
L 160.527273 207.442414 
L 163.294215 207.05757 
L 166.061157 206.724803 
L 168.828099 206.427089 
L 171.595041 206.148906 
L 174.361983 205.881405 
L 177.128926 205.627107 
L 179.895868 205.4029 
L 182.66281 205.239859 
L 185.429752 205.178681 
L 188.196694 205.260804 
L 190.963636 205.51761 
L 193.730579 205.961811 
L 196.497521 206.584485 
L 199.264463 207.358178 
L 202.031405 208.243692 
L 204.798347 209.197553 
L 207.565289 210.178227 
L 210.332231 211.150484 
L 213.099174 212.088003 
L 215.866116 212.97456 
L 218.633058 213.804087 
L 221.4 214.579812 
L 224.166942 215.312668 
L 226.933884 216.01912 
L 229.700826 216.718605 
L 232.467769 217.430802 
L 235.234711 218.172979 
L 238.001653 218.957657 
L 240.768595 219.790858 
L 243.535537 220.671113 
L 246.302479 221.5894 
L 249.069421 222.530043 
L 251.836364 223.472582 
L 254.603306 224.394467 
L 257.370248 225.274426 
L 260.13719 226.096234 
L 262.904132 226.852541 
L 265.671074 227.548284 
L 268.438017 228.202921 
L 271.204959 228.85028 
L 273.971901 229.534179 
L 276.738843 230.297713 
L 279.505785 231.165375 
L 282.272727 232.121521 
L 285.039669 233.094354 
L 287.806612 233.955431 
L 290.573554 234.536557 
L 293.340496 234.655658 
L 296.107438 234.140994 
L 298.87438 232.848324 
L 301.641322 230.671092 
L 304.408264 227.545821 
L 307.175207 223.454557 
L 309.942149 218.425281 
L 312.709091 212.530465 
L 315.476033 205.88365 
L 318.242975 198.633961 
L 321.009917 190.958843 
L 323.77686 183.055937 
L 326.543802 175.135424 
L 329.310744 167.413988 
L 332.077686 160.110314 
L 334.844628 153.44042 
L 337.61157 147.610371 
L 340.378512 142.80501 
L 343.145455 139.173929 
L 345.912397 136.818146 
L 348.679339 135.781327 
L 351.446281 136.047552 
L 354.213223 137.545278 
L 356.980165 140.155692 
L 359.747107 143.723531 
L 362.51405 148.068884 
L 365.280992 152.998988 
L 368.047934 158.319284 
L 370.814876 163.843193 
L 373.581818 169.400165 
" style="fill:none;stroke:#008000;stroke-dasharray:3.7,1.6;stroke-dashoffset:0;"/>
   </g>
   <g id="line2d_16">
    <path clip-path="url(#p7ec45f2aa0)" d="M 69.218182 121.369992 
L 71.985124 122.201275 
L 74.752066 123.528296 
L 77.519008 125.34322 
L 80.28595 127.618391 
L 83.052893 130.310253 
L 85.819835 133.365745 
L 88.586777 136.729395 
L 91.353719 140.348125 
L 94.120661 144.171304 
L 96.887603 148.146225 
L 99.654545 152.212153 
L 102.421488 156.296668 
L 105.18843 160.316258 
L 107.955372 164.180832 
L 110.722314 167.800571 
L 113.489256 171.093357 
L 116.256198 173.991399 
L 119.02314 176.446149 
L 121.790083 178.431087 
L 124.557025 179.942297 
L 127.323967 180.997072 
L 130.090909 181.630959 
L 132.857851 181.893739 
L 135.624793 181.844869 
L 138.391736 181.54881 
L 141.158678 181.070628 
L 143.92562 180.472148 
L 146.692562 179.808874 
L 149.459504 179.127803 
L 152.226446 178.46619 
L 154.993388 177.851204 
L 157.760331 177.300283 
L 160.527273 176.821912 
L 163.294215 176.416456 
L 166.061157 176.076689 
L 168.828099 175.787781 
L 171.595041 175.526658 
L 174.361983 175.260958 
L 177.128926 174.948146 
L 179.895868 174.535798 
L 182.66281 173.96437 
L 185.429752 173.173581 
L 188.196694 172.112295 
L 190.963636 170.749586 
L 193.730579 169.082929 
L 196.497521 167.140212 
L 199.264463 164.975301 
L 202.031405 162.659696 
L 204.798347 160.273442 
L 207.565289 157.897343 
L 210.332231 155.607214 
L 213.099174 153.470101 
L 215.866116 151.542177 
L 218.633058 149.868001 
L 221.4 148.48088 
L 224.166942 147.404084 
L 226.933884 146.652682 
L 229.700826 146.235708 
L 232.467769 146.1584 
L 235.234711 146.424204 
L 238.001653 147.036286 
L 240.768595 147.998337 
L 243.535537 149.314506 
L 246.302479 150.988424 
L 249.069421 153.021343 
L 251.836364 155.409509 
L 254.603306 158.140976 
L 257.370248 161.192076 
L 260.13719 164.523826 
L 262.904132 168.078556 
L 265.671074 171.777174 
L 268.438017 175.517704 
L 271.204959 179.176174 
L 273.971901 182.611597 
L 276.738843 185.677097 
L 279.505785 188.238007 
L 282.272727 190.193571 
L 285.039669 191.49325 
L 287.806612 192.137929 
L 290.573554 192.164522 
L 293.340496 191.622704 
L 296.107438 190.554709 
L 298.87438 188.983755 
L 301.641322 186.911001 
L 304.408264 184.318602 
L 307.175207 181.176545 
L 309.942149 177.451618 
L 312.709091 173.117441 
L 315.476033 168.1647 
L 318.242975 162.610674 
L 321.009917 156.506923 
L 323.77686 149.943636 
L 326.543802 143.049043 
L 329.310744 135.982912 
L 332.077686 128.924823 
L 334.844628 122.0599 
L 337.61157 115.565807 
L 340.378512 109.603852 
L 343.145455 104.314596 
L 345.912397 99.81591 
L 348.679339 96.200888 
L 351.446281 93.534393 
L 354.213223 91.848976 
L 356.980165 91.141823 
L 359.747107 91.374071 
L 362.51405 92.473014 
L 365.280992 94.336939 
L 368.047934 96.84194 
L 370.814876 99.84988 
L 373.581818 103.216704 
" style="fill:none;stroke:#008000;stroke-dasharray:3.7,1.6;stroke-dashoffset:0;"/>
   </g>
   <g id="line2d_17">
    <path clip-path="url(#p7ec45f2aa0)" d="M 69.218182 251.971275 
L 71.985124 251.988261 
L 74.752066 251.995563 
L 77.519008 251.998405 
L 80.28595 251.999426 
L 83.052893 251.999778 
L 85.819835 251.999899 
L 88.586777 251.99994 
L 91.353719 251.99995 
L 94.120661 251.999941 
L 96.887603 251.999903 
L 99.654545 251.999791 
L 102.421488 251.999471 
L 105.18843 251.998548 
L 107.955372 251.995996 
L 110.722314 251.989441 
L 113.489256 251.974189 
L 116.256198 251.942453 
L 119.02314 251.883691 
L 121.790083 251.786852 
L 124.557025 251.644452 
L 127.323967 251.457031 
L 130.090909 251.235765 
L 132.857851 251.00159 
L 135.624793 250.780818 
L 138.391736 250.598916 
L 141.158678 250.474821 
L 143.92562 250.417631 
L 146.692562 250.426291 
L 149.459504 250.491704 
L 152.226446 250.600034 
L 154.993388 250.735999 
L 157.760331 250.885335 
L 160.527273 251.036167 
L 163.294215 251.179442 
L 166.061157 251.308762 
L 168.828099 251.419946 
L 171.595041 251.510534 
L 174.361983 251.579273 
L 177.128926 251.625525 
L 179.895868 251.648471 
L 182.66281 251.646075 
L 185.429752 251.613793 
L 188.196694 251.543209 
L 190.963636 251.420965 
L 193.730579 251.228627 
L 196.497521 250.944184 
L 199.264463 250.545397 
L 202.031405 250.014207 
L 204.798347 249.340722 
L 207.565289 248.525375 
L 210.332231 247.57872 
L 213.099174 246.519275 
L 215.866116 245.370348 
L 218.633058 244.156794 
L 221.4 242.902353 
L 224.166942 241.627914 
L 226.933884 240.350734 
L 229.700826 239.084497 
L 232.467769 237.840005 
L 235.234711 236.626255 
L 238.001653 235.451682 
L 240.768595 234.325352 
L 243.535537 233.257941 
L 246.302479 232.262365 
L 249.069421 231.353959 
L 251.836364 230.550186 
L 254.603306 229.869866 
L 257.370248 229.332029 
L 260.13719 228.954562 
L 262.904132 228.752912 
L 265.671074 228.739253 
L 268.438017 228.922594 
L 271.204959 229.310325 
L 273.971901 229.911404 
L 276.738843 230.740539 
L 279.505785 231.82136 
L 282.272727 233.18512 
L 285.039669 234.861467 
L 287.806612 236.860497 
L 290.573554 239.150334 
L 293.340496 241.639141 
L 296.107438 244.172061 
L 298.87438 246.550876 
L 301.641322 248.577318 
L 304.408264 250.109899 
L 307.175207 251.111288 
L 309.942149 251.657655 
L 312.709091 251.896597 
L 315.476033 251.976592 
L 318.242975 251.996173 
L 321.009917 251.999553 
L 323.77686 251.999961 
L 326.543802 251.999997 
L 329.310744 252 
L 332.077686 252 
L 334.844628 252 
L 337.61157 252 
L 340.378512 252 
L 343.145455 252 
L 345.912397 252 
L 348.679339 252 
L 351.446281 251.999999 
L 354.213223 251.999992 
L 356.980165 251.999953 
L 359.747107 251.999753 
L 362.51405 251.99892 
L 365.280992 251.996046 
L 368.047934 251.987744 
L 370.814876 251.967334 
L 373.581818 251.92384 
" style="fill:none;stroke:#bfbf00;stroke-dasharray:7.4,3.2;stroke-dashoffset:0;stroke-width:2;"/>
   </g>
   <g id="patch_3">
    <path d="M 54 252 
L 54 34.56 
" style="fill:none;stroke:#000000;stroke-linecap:square;stroke-linejoin:miter;stroke-width:0.8;"/>
   </g>
   <g id="patch_4">
    <path d="M 388.8 252 
L 388.8 34.56 
" style="fill:none;stroke:#000000;stroke-linecap:square;stroke-linejoin:miter;stroke-width:0.8;"/>
   </g>
   <g id="patch_5">
    <path d="M 54 252 
L 388.8 252 
" style="fill:none;stroke:#000000;stroke-linecap:square;stroke-linejoin:miter;stroke-width:0.8;"/>
   </g>
   <g id="patch_6">
    <path d="M 54 34.56 
L 388.8 34.56 
" style="fill:none;stroke:#000000;stroke-linecap:square;stroke-linejoin:miter;stroke-width:0.8;"/>
   </g>
   <g id="text_16">
    <!-- Method : REI -->
    <g transform="translate(71.985124 244.752)scale(0.12 -0.12)">
     <defs>
      <path d="M 628 4666 
L 1569 4666 
L 2759 1491 
L 3956 4666 
L 4897 4666 
L 4897 0 
L 4281 0 
L 4281 4097 
L 3078 897 
L 2444 897 
L 1241 4097 
L 1241 0 
L 628 0 
L 628 4666 
z
" id="DejaVuSans-4d" transform="scale(0.015625)"/>
      <path d="M 3597 1894 
L 3597 1613 
L 953 1613 
Q 991 1019 1311 708 
Q 1631 397 2203 397 
Q 2534 397 2845 478 
Q 3156 559 3463 722 
L 3463 178 
Q 3153 47 2828 -22 
Q 2503 -91 2169 -91 
Q 1331 -91 842 396 
Q 353 884 353 1716 
Q 353 2575 817 3079 
Q 1281 3584 2069 3584 
Q 2775 3584 3186 3129 
Q 3597 2675 3597 1894 
z
M 3022 2063 
Q 3016 2534 2758 2815 
Q 2500 3097 2075 3097 
Q 1594 3097 1305 2825 
Q 1016 2553 972 2059 
L 3022 2063 
z
" id="DejaVuSans-65" transform="scale(0.015625)"/>
      <path d="M 1172 4494 
L 1172 3500 
L 2356 3500 
L 2356 3053 
L 1172 3053 
L 1172 1153 
Q 1172 725 1289 603 
Q 1406 481 1766 481 
L 2356 481 
L 2356 0 
L 1766 0 
Q 1100 0 847 248 
Q 594 497 594 1153 
L 594 3053 
L 172 3053 
L 172 3500 
L 594 3500 
L 594 4494 
L 1172 4494 
z
" id="DejaVuSans-74" transform="scale(0.015625)"/>
      <path d="M 3513 2113 
L 3513 0 
L 2938 0 
L 2938 2094 
Q 2938 2591 2744 2837 
Q 2550 3084 2163 3084 
Q 1697 3084 1428 2787 
Q 1159 2491 1159 1978 
L 1159 0 
L 581 0 
L 581 4863 
L 1159 4863 
L 1159 2956 
Q 1366 3272 1645 3428 
Q 1925 3584 2291 3584 
Q 2894 3584 3203 3211 
Q 3513 2838 3513 2113 
z
" id="DejaVuSans-68" transform="scale(0.015625)"/>
      <path d="M 1959 3097 
Q 1497 3097 1228 2736 
Q 959 2375 959 1747 
Q 959 1119 1226 758 
Q 1494 397 1959 397 
Q 2419 397 2687 759 
Q 2956 1122 2956 1747 
Q 2956 2369 2687 2733 
Q 2419 3097 1959 3097 
z
M 1959 3584 
Q 2709 3584 3137 3096 
Q 3566 2609 3566 1747 
Q 3566 888 3137 398 
Q 2709 -91 1959 -91 
Q 1206 -91 779 398 
Q 353 888 353 1747 
Q 353 2609 779 3096 
Q 1206 3584 1959 3584 
z
" id="DejaVuSans-6f" transform="scale(0.015625)"/>
      <path d="M 2906 2969 
L 2906 4863 
L 3481 4863 
L 3481 0 
L 2906 0 
L 2906 525 
Q 2725 213 2448 61 
Q 2172 -91 1784 -91 
Q 1150 -91 751 415 
Q 353 922 353 1747 
Q 353 2572 751 3078 
Q 1150 3584 1784 3584 
Q 2172 3584 2448 3432 
Q 2725 3281 2906 2969 
z
M 947 1747 
Q 947 1113 1208 752 
Q 1469 391 1925 391 
Q 2381 391 2643 752 
Q 2906 1113 2906 1747 
Q 2906 2381 2643 2742 
Q 2381 3103 1925 3103 
Q 1469 3103 1208 2742 
Q 947 2381 947 1747 
z
" id="DejaVuSans-64" transform="scale(0.015625)"/>
      <path id="DejaVuSans-20" transform="scale(0.015625)"/>
      <path d="M 750 794 
L 1409 794 
L 1409 0 
L 750 0 
L 750 794 
z
M 750 3309 
L 1409 3309 
L 1409 2516 
L 750 2516 
L 750 3309 
z
" id="DejaVuSans-3a" transform="scale(0.015625)"/>
      <path d="M 2841 2188 
Q 3044 2119 3236 1894 
Q 3428 1669 3622 1275 
L 4263 0 
L 3584 0 
L 2988 1197 
Q 2756 1666 2539 1819 
Q 2322 1972 1947 1972 
L 1259 1972 
L 1259 0 
L 628 0 
L 628 4666 
L 2053 4666 
Q 2853 4666 3247 4331 
Q 3641 3997 3641 3322 
Q 3641 2881 3436 2590 
Q 3231 2300 2841 2188 
z
M 1259 4147 
L 1259 2491 
L 2053 2491 
Q 2509 2491 2742 2702 
Q 2975 2913 2975 3322 
Q 2975 3731 2742 3939 
Q 2509 4147 2053 4147 
L 1259 4147 
z
" id="DejaVuSans-52" transform="scale(0.015625)"/>
      <path d="M 628 4666 
L 3578 4666 
L 3578 4134 
L 1259 4134 
L 1259 2753 
L 3481 2753 
L 3481 2222 
L 1259 2222 
L 1259 531 
L 3634 531 
L 3634 0 
L 628 0 
L 628 4666 
z
" id="DejaVuSans-45" transform="scale(0.015625)"/>
      <path d="M 628 4666 
L 1259 4666 
L 1259 0 
L 628 0 
L 628 4666 
z
" id="DejaVuSans-49" transform="scale(0.015625)"/>
     </defs>
     <use xlink:href="#DejaVuSans-4d"/>
     <use x="86.279297" xlink:href="#DejaVuSans-65"/>
     <use x="147.802734" xlink:href="#DejaVuSans-74"/>
     <use x="187.011719" xlink:href="#DejaVuSans-68"/>
     <use x="250.390625" xlink:href="#DejaVuSans-6f"/>
     <use x="311.572266" xlink:href="#DejaVuSans-64"/>
     <use x="375.048828" xlink:href="#DejaVuSans-20"/>
     <use x="406.835938" xlink:href="#DejaVuSans-3a"/>
     <use x="440.527344" xlink:href="#DejaVuSans-20"/>
     <use x="472.314453" xlink:href="#DejaVuSans-52"/>
     <use x="541.796875" xlink:href="#DejaVuSans-45"/>
     <use x="604.980469" xlink:href="#DejaVuSans-49"/>
    </g>
   </g>
   <g id="text_17">
    <!-- Iter=1 -->
    <g transform="translate(71.985124 226.632)scale(0.12 -0.12)">
     <defs>
      <path d="M 2631 2963 
Q 2534 3019 2420 3045 
Q 2306 3072 2169 3072 
Q 1681 3072 1420 2755 
Q 1159 2438 1159 1844 
L 1159 0 
L 581 0 
L 581 3500 
L 1159 3500 
L 1159 2956 
Q 1341 3275 1631 3429 
Q 1922 3584 2338 3584 
Q 2397 3584 2469 3576 
Q 2541 3569 2628 3553 
L 2631 2963 
z
" id="DejaVuSans-72" transform="scale(0.015625)"/>
      <path d="M 678 2906 
L 4684 2906 
L 4684 2381 
L 678 2381 
L 678 2906 
z
M 678 1631 
L 4684 1631 
L 4684 1100 
L 678 1100 
L 678 1631 
z
" id="DejaVuSans-3d" transform="scale(0.015625)"/>
     </defs>
     <use xlink:href="#DejaVuSans-49"/>
     <use x="29.492188" xlink:href="#DejaVuSans-74"/>
     <use x="68.701172" xlink:href="#DejaVuSans-65"/>
     <use x="130.224609" xlink:href="#DejaVuSans-72"/>
     <use x="171.337891" xlink:href="#DejaVuSans-3d"/>
     <use x="255.126953" xlink:href="#DejaVuSans-31"/>
    </g>
   </g>
   <g id="legend_1">
    <g id="patch_7">
     <path d="M 144.327812 140.235625 
L 298.472188 140.235625 
Q 300.672188 140.235625 300.672188 138.035625 
L 300.672188 42.26 
Q 300.672188 40.06 298.472188 40.06 
L 144.327812 40.06 
Q 142.127813 40.06 142.127813 42.26 
L 142.127813 138.035625 
Q 142.127813 140.235625 144.327812 140.235625 
z
" style="fill:#ffffff;opacity:0.8;stroke:#cccccc;stroke-linejoin:miter;"/>
    </g>
    <g id="line2d_18">
     <path d="M 146.527813 48.968281 
L 168.527813 48.968281 
" style="fill:none;stroke:#0000ff;stroke-linecap:square;stroke-width:2;"/>
    </g>
    <g id="line2d_19"/>
    <g id="text_18">
     <!-- ture function -->
     <g transform="translate(177.327813 52.818281)scale(0.11 -0.11)">
      <defs>
       <path d="M 544 1381 
L 544 3500 
L 1119 3500 
L 1119 1403 
Q 1119 906 1312 657 
Q 1506 409 1894 409 
Q 2359 409 2629 706 
Q 2900 1003 2900 1516 
L 2900 3500 
L 3475 3500 
L 3475 0 
L 2900 0 
L 2900 538 
Q 2691 219 2414 64 
Q 2138 -91 1772 -91 
Q 1169 -91 856 284 
Q 544 659 544 1381 
z
M 1991 3584 
L 1991 3584 
z
" id="DejaVuSans-75" transform="scale(0.015625)"/>
       <path d="M 2375 4863 
L 2375 4384 
L 1825 4384 
Q 1516 4384 1395 4259 
Q 1275 4134 1275 3809 
L 1275 3500 
L 2222 3500 
L 2222 3053 
L 1275 3053 
L 1275 0 
L 697 0 
L 697 3053 
L 147 3053 
L 147 3500 
L 697 3500 
L 697 3744 
Q 697 4328 969 4595 
Q 1241 4863 1831 4863 
L 2375 4863 
z
" id="DejaVuSans-66" transform="scale(0.015625)"/>
       <path d="M 3513 2113 
L 3513 0 
L 2938 0 
L 2938 2094 
Q 2938 2591 2744 2837 
Q 2550 3084 2163 3084 
Q 1697 3084 1428 2787 
Q 1159 2491 1159 1978 
L 1159 0 
L 581 0 
L 581 3500 
L 1159 3500 
L 1159 2956 
Q 1366 3272 1645 3428 
Q 1925 3584 2291 3584 
Q 2894 3584 3203 3211 
Q 3513 2838 3513 2113 
z
" id="DejaVuSans-6e" transform="scale(0.015625)"/>
       <path d="M 3122 3366 
L 3122 2828 
Q 2878 2963 2633 3030 
Q 2388 3097 2138 3097 
Q 1578 3097 1268 2742 
Q 959 2388 959 1747 
Q 959 1106 1268 751 
Q 1578 397 2138 397 
Q 2388 397 2633 464 
Q 2878 531 3122 666 
L 3122 134 
Q 2881 22 2623 -34 
Q 2366 -91 2075 -91 
Q 1284 -91 818 406 
Q 353 903 353 1747 
Q 353 2603 823 3093 
Q 1294 3584 2113 3584 
Q 2378 3584 2631 3529 
Q 2884 3475 3122 3366 
z
" id="DejaVuSans-63" transform="scale(0.015625)"/>
       <path d="M 603 3500 
L 1178 3500 
L 1178 0 
L 603 0 
L 603 3500 
z
M 603 4863 
L 1178 4863 
L 1178 4134 
L 603 4134 
L 603 4863 
z
" id="DejaVuSans-69" transform="scale(0.015625)"/>
      </defs>
      <use xlink:href="#DejaVuSans-74"/>
      <use x="39.208984" xlink:href="#DejaVuSans-75"/>
      <use x="102.587891" xlink:href="#DejaVuSans-72"/>
      <use x="141.451172" xlink:href="#DejaVuSans-65"/>
      <use x="202.974609" xlink:href="#DejaVuSans-20"/>
      <use x="234.761719" xlink:href="#DejaVuSans-66"/>
      <use x="269.966797" xlink:href="#DejaVuSans-75"/>
      <use x="333.345703" xlink:href="#DejaVuSans-6e"/>
      <use x="396.724609" xlink:href="#DejaVuSans-63"/>
      <use x="451.705078" xlink:href="#DejaVuSans-74"/>
      <use x="490.914062" xlink:href="#DejaVuSans-69"/>
      <use x="518.697266" xlink:href="#DejaVuSans-6f"/>
      <use x="579.878906" xlink:href="#DejaVuSans-6e"/>
     </g>
    </g>
    <g id="line2d_20">
     <path d="M 146.527813 65.114219 
L 168.527813 65.114219 
" style="fill:none;stroke:#000000;stroke-dasharray:7.4,3.2;stroke-dashoffset:0;stroke-width:2;"/>
    </g>
    <g id="line2d_21"/>
    <g id="text_19">
     <!-- predicted function -->
     <g transform="translate(177.327813 68.964219)scale(0.11 -0.11)">
      <defs>
       <path d="M 1159 525 
L 1159 -1331 
L 581 -1331 
L 581 3500 
L 1159 3500 
L 1159 2969 
Q 1341 3281 1617 3432 
Q 1894 3584 2278 3584 
Q 2916 3584 3314 3078 
Q 3713 2572 3713 1747 
Q 3713 922 3314 415 
Q 2916 -91 2278 -91 
Q 1894 -91 1617 61 
Q 1341 213 1159 525 
z
M 3116 1747 
Q 3116 2381 2855 2742 
Q 2594 3103 2138 3103 
Q 1681 3103 1420 2742 
Q 1159 2381 1159 1747 
Q 1159 1113 1420 752 
Q 1681 391 2138 391 
Q 2594 391 2855 752 
Q 3116 1113 3116 1747 
z
" id="DejaVuSans-70" transform="scale(0.015625)"/>
      </defs>
      <use xlink:href="#DejaVuSans-70"/>
      <use x="63.476562" xlink:href="#DejaVuSans-72"/>
      <use x="102.339844" xlink:href="#DejaVuSans-65"/>
      <use x="163.863281" xlink:href="#DejaVuSans-64"/>
      <use x="227.339844" xlink:href="#DejaVuSans-69"/>
      <use x="255.123047" xlink:href="#DejaVuSans-63"/>
      <use x="310.103516" xlink:href="#DejaVuSans-74"/>
      <use x="349.3125" xlink:href="#DejaVuSans-65"/>
      <use x="410.835938" xlink:href="#DejaVuSans-64"/>
      <use x="474.3125" xlink:href="#DejaVuSans-20"/>
      <use x="506.099609" xlink:href="#DejaVuSans-66"/>
      <use x="541.304688" xlink:href="#DejaVuSans-75"/>
      <use x="604.683594" xlink:href="#DejaVuSans-6e"/>
      <use x="668.0625" xlink:href="#DejaVuSans-63"/>
      <use x="723.042969" xlink:href="#DejaVuSans-74"/>
      <use x="762.251953" xlink:href="#DejaVuSans-69"/>
      <use x="790.035156" xlink:href="#DejaVuSans-6f"/>
      <use x="851.216797" xlink:href="#DejaVuSans-6e"/>
     </g>
    </g>
    <g id="line2d_22">
     <path d="M 146.527813 81.260156 
L 168.527813 81.260156 
" style="fill:none;stroke:#008000;stroke-dasharray:3.7,1.6;stroke-dashoffset:0;"/>
    </g>
    <g id="line2d_23"/>
    <g id="text_20">
     <!--  ± Sn(x) -->
     <g transform="translate(177.327813 85.110156)scale(0.11 -0.11)">
      <defs>
       <path d="M 2944 4013 
L 2944 2803 
L 4684 2803 
L 4684 2272 
L 2944 2272 
L 2944 1063 
L 2419 1063 
L 2419 2272 
L 678 2272 
L 678 2803 
L 2419 2803 
L 2419 4013 
L 2944 4013 
z
M 678 531 
L 4684 531 
L 4684 0 
L 678 0 
L 678 531 
z
" id="DejaVuSans-b1" transform="scale(0.015625)"/>
       <path d="M 3425 4513 
L 3425 3897 
Q 3066 4069 2747 4153 
Q 2428 4238 2131 4238 
Q 1616 4238 1336 4038 
Q 1056 3838 1056 3469 
Q 1056 3159 1242 3001 
Q 1428 2844 1947 2747 
L 2328 2669 
Q 3034 2534 3370 2195 
Q 3706 1856 3706 1288 
Q 3706 609 3251 259 
Q 2797 -91 1919 -91 
Q 1588 -91 1214 -16 
Q 841 59 441 206 
L 441 856 
Q 825 641 1194 531 
Q 1563 422 1919 422 
Q 2459 422 2753 634 
Q 3047 847 3047 1241 
Q 3047 1584 2836 1778 
Q 2625 1972 2144 2069 
L 1759 2144 
Q 1053 2284 737 2584 
Q 422 2884 422 3419 
Q 422 4038 858 4394 
Q 1294 4750 2059 4750 
Q 2388 4750 2728 4690 
Q 3069 4631 3425 4513 
z
" id="DejaVuSans-53" transform="scale(0.015625)"/>
       <path d="M 1984 4856 
Q 1566 4138 1362 3434 
Q 1159 2731 1159 2009 
Q 1159 1288 1364 580 
Q 1569 -128 1984 -844 
L 1484 -844 
Q 1016 -109 783 600 
Q 550 1309 550 2009 
Q 550 2706 781 3412 
Q 1013 4119 1484 4856 
L 1984 4856 
z
" id="DejaVuSans-28" transform="scale(0.015625)"/>
       <path d="M 513 4856 
L 1013 4856 
Q 1481 4119 1714 3412 
Q 1947 2706 1947 2009 
Q 1947 1309 1714 600 
Q 1481 -109 1013 -844 
L 513 -844 
Q 928 -128 1133 580 
Q 1338 1288 1338 2009 
Q 1338 2731 1133 3434 
Q 928 4138 513 4856 
z
" id="DejaVuSans-29" transform="scale(0.015625)"/>
      </defs>
      <use xlink:href="#DejaVuSans-20"/>
      <use x="31.787109" xlink:href="#DejaVuSans-b1"/>
      <use x="115.576172" xlink:href="#DejaVuSans-20"/>
      <use x="147.363281" xlink:href="#DejaVuSans-53"/>
      <use x="210.839844" xlink:href="#DejaVuSans-6e"/>
      <use x="274.21875" xlink:href="#DejaVuSans-28"/>
      <use x="313.232422" xlink:href="#DejaVuSans-78"/>
      <use x="372.412109" xlink:href="#DejaVuSans-29"/>
     </g>
    </g>
    <g id="line2d_24">
     <path d="M 146.527813 97.406094 
L 168.527813 97.406094 
" style="fill:none;stroke:#bfbf00;stroke-dasharray:7.4,3.2;stroke-dashoffset:0;stroke-width:2;"/>
    </g>
    <g id="line2d_25"/>
    <g id="text_21">
     <!-- REI(x) -->
     <g transform="translate(177.327813 101.256094)scale(0.11 -0.11)">
      <use xlink:href="#DejaVuSans-52"/>
      <use x="69.482422" xlink:href="#DejaVuSans-45"/>
      <use x="132.666016" xlink:href="#DejaVuSans-49"/>
      <use x="162.158203" xlink:href="#DejaVuSans-28"/>
      <use x="201.171875" xlink:href="#DejaVuSans-78"/>
      <use x="260.351562" xlink:href="#DejaVuSans-29"/>
     </g>
    </g>
    <g id="PathCollection_2">
     <defs>
      <path d="M 0 3.535534 
C 0.937635 3.535534 1.836992 3.163008 2.5 2.5 
C 3.163008 1.836992 3.535534 0.937635 3.535534 0 
C 3.535534 -0.937635 3.163008 -1.836992 2.5 -2.5 
C 1.836992 -3.163008 0.937635 -3.535534 0 -3.535534 
C -0.937635 -3.535534 -1.836992 -3.163008 -2.5 -2.5 
C -3.163008 -1.836992 -3.535534 -0.937635 -3.535534 0 
C -3.535534 0.937635 -3.163008 1.836992 -2.5 2.5 
C -1.836992 3.163008 -0.937635 3.535534 0 3.535534 
z
" id="mcbc262f5b6" style="stroke:#000000;"/>
     </defs>
     <g>
      <use style="fill:#ff0000;stroke:#000000;" x="157.527813" xlink:href="#mcbc262f5b6" y="114.514531"/>
     </g>
    </g>
    <g id="text_22">
     <!-- training data -->
     <g transform="translate(177.327813 117.402031)scale(0.11 -0.11)">
      <defs>
       <path d="M 2194 1759 
Q 1497 1759 1228 1600 
Q 959 1441 959 1056 
Q 959 750 1161 570 
Q 1363 391 1709 391 
Q 2188 391 2477 730 
Q 2766 1069 2766 1631 
L 2766 1759 
L 2194 1759 
z
M 3341 1997 
L 3341 0 
L 2766 0 
L 2766 531 
Q 2569 213 2275 61 
Q 1981 -91 1556 -91 
Q 1019 -91 701 211 
Q 384 513 384 1019 
Q 384 1609 779 1909 
Q 1175 2209 1959 2209 
L 2766 2209 
L 2766 2266 
Q 2766 2663 2505 2880 
Q 2244 3097 1772 3097 
Q 1472 3097 1187 3025 
Q 903 2953 641 2809 
L 641 3341 
Q 956 3463 1253 3523 
Q 1550 3584 1831 3584 
Q 2591 3584 2966 3190 
Q 3341 2797 3341 1997 
z
" id="DejaVuSans-61" transform="scale(0.015625)"/>
       <path d="M 2906 1791 
Q 2906 2416 2648 2759 
Q 2391 3103 1925 3103 
Q 1463 3103 1205 2759 
Q 947 2416 947 1791 
Q 947 1169 1205 825 
Q 1463 481 1925 481 
Q 2391 481 2648 825 
Q 2906 1169 2906 1791 
z
M 3481 434 
Q 3481 -459 3084 -895 
Q 2688 -1331 1869 -1331 
Q 1566 -1331 1297 -1286 
Q 1028 -1241 775 -1147 
L 775 -588 
Q 1028 -725 1275 -790 
Q 1522 -856 1778 -856 
Q 2344 -856 2625 -561 
Q 2906 -266 2906 331 
L 2906 616 
Q 2728 306 2450 153 
Q 2172 0 1784 0 
Q 1141 0 747 490 
Q 353 981 353 1791 
Q 353 2603 747 3093 
Q 1141 3584 1784 3584 
Q 2172 3584 2450 3431 
Q 2728 3278 2906 2969 
L 2906 3500 
L 3481 3500 
L 3481 434 
z
" id="DejaVuSans-67" transform="scale(0.015625)"/>
      </defs>
      <use xlink:href="#DejaVuSans-74"/>
      <use x="39.208984" xlink:href="#DejaVuSans-72"/>
      <use x="80.322266" xlink:href="#DejaVuSans-61"/>
      <use x="141.601562" xlink:href="#DejaVuSans-69"/>
      <use x="169.384766" xlink:href="#DejaVuSans-6e"/>
      <use x="232.763672" xlink:href="#DejaVuSans-69"/>
      <use x="260.546875" xlink:href="#DejaVuSans-6e"/>
      <use x="323.925781" xlink:href="#DejaVuSans-67"/>
      <use x="387.402344" xlink:href="#DejaVuSans-20"/>
      <use x="419.189453" xlink:href="#DejaVuSans-64"/>
      <use x="482.666016" xlink:href="#DejaVuSans-61"/>
      <use x="543.945312" xlink:href="#DejaVuSans-74"/>
      <use x="583.154297" xlink:href="#DejaVuSans-61"/>
     </g>
    </g>
    <g id="PathCollection_3">
     <g>
      <use style="fill:#ff0000;stroke:#ff0000;stroke-width:8;" x="157.527813" xlink:href="#m97156e8ec7" y="130.660469"/>
     </g>
    </g>
    <g id="text_23">
     <!-- recommended datum -->
     <g transform="translate(177.327813 133.547969)scale(0.11 -0.11)">
      <defs>
       <path d="M 3328 2828 
Q 3544 3216 3844 3400 
Q 4144 3584 4550 3584 
Q 5097 3584 5394 3201 
Q 5691 2819 5691 2113 
L 5691 0 
L 5113 0 
L 5113 2094 
Q 5113 2597 4934 2840 
Q 4756 3084 4391 3084 
Q 3944 3084 3684 2787 
Q 3425 2491 3425 1978 
L 3425 0 
L 2847 0 
L 2847 2094 
Q 2847 2600 2669 2842 
Q 2491 3084 2119 3084 
Q 1678 3084 1418 2786 
Q 1159 2488 1159 1978 
L 1159 0 
L 581 0 
L 581 3500 
L 1159 3500 
L 1159 2956 
Q 1356 3278 1631 3431 
Q 1906 3584 2284 3584 
Q 2666 3584 2933 3390 
Q 3200 3197 3328 2828 
z
" id="DejaVuSans-6d" transform="scale(0.015625)"/>
      </defs>
      <use xlink:href="#DejaVuSans-72"/>
      <use x="38.863281" xlink:href="#DejaVuSans-65"/>
      <use x="100.386719" xlink:href="#DejaVuSans-63"/>
      <use x="155.367188" xlink:href="#DejaVuSans-6f"/>
      <use x="216.548828" xlink:href="#DejaVuSans-6d"/>
      <use x="313.960938" xlink:href="#DejaVuSans-6d"/>
      <use x="411.373047" xlink:href="#DejaVuSans-65"/>
      <use x="472.896484" xlink:href="#DejaVuSans-6e"/>
      <use x="536.275391" xlink:href="#DejaVuSans-64"/>
      <use x="599.751953" xlink:href="#DejaVuSans-65"/>
      <use x="661.275391" xlink:href="#DejaVuSans-64"/>
      <use x="724.751953" xlink:href="#DejaVuSans-20"/>
      <use x="756.539062" xlink:href="#DejaVuSans-64"/>
      <use x="820.015625" xlink:href="#DejaVuSans-61"/>
      <use x="881.294922" xlink:href="#DejaVuSans-74"/>
      <use x="920.503906" xlink:href="#DejaVuSans-75"/>
      <use x="983.882812" xlink:href="#DejaVuSans-6d"/>
     </g>
    </g>
   </g>
   <g id="line2d_26">
    <path clip-path="url(#p7ec45f2aa0)" d="M 69.218182 147.512485 
L 71.985124 146.664352 
L 74.752066 146.32077 
L 77.519008 146.53486 
L 80.28595 147.340601 
L 83.052893 148.749715 
L 85.819835 150.74976 
L 88.586777 153.303649 
L 91.353719 156.350677 
L 94.120661 159.809052 
L 96.887603 163.57978 
L 99.654545 167.551637 
L 102.421488 171.606894 
L 105.18843 175.627384 
L 107.955372 179.500488 
L 110.722314 183.124628 
L 113.489256 186.413914 
L 116.256198 189.301649 
L 119.02314 191.742531 
L 121.790083 193.713456 
L 124.557025 195.212971 
L 127.323967 196.259489 
L 130.090909 196.888484 
L 132.857851 197.148919 
L 135.624793 197.099198 
L 138.391736 196.802958 
L 141.158678 196.324956 
L 143.92562 195.727327 
L 146.692562 195.0664 
L 149.459504 194.39022 
L 152.226446 193.736864 
L 154.993388 193.133573 
L 157.760331 192.596664 
L 160.527273 192.132163 
L 163.294215 191.737013 
L 166.061157 191.400746 
L 168.828099 191.107435 
L 171.595041 190.837782 
L 174.361983 190.571181 
L 177.128926 190.287626 
L 179.895868 189.969349 
L 182.66281 189.602115 
L 185.429752 189.176131 
L 188.196694 188.686549 
L 190.963636 188.133598 
L 193.730579 187.52237 
L 196.497521 186.862348 
L 199.264463 186.166739 
L 202.031405 185.451694 
L 204.798347 184.735497 
L 207.565289 184.037785 
L 210.332231 183.378849 
L 213.099174 182.779052 
L 215.866116 182.258368 
L 218.633058 181.836044 
L 221.4 181.530346 
L 224.166942 181.358376 
L 226.933884 181.335901 
L 229.700826 181.477157 
L 232.467769 181.794601 
L 235.234711 182.298591 
L 238.001653 182.996972 
L 240.768595 183.894597 
L 243.535537 184.99281 
L 246.302479 186.288912 
L 249.069421 187.775693 
L 251.836364 189.441045 
L 254.603306 191.267721 
L 257.370248 193.233251 
L 260.13719 195.31003 
L 262.904132 197.465548 
L 265.671074 199.662729 
L 268.438017 201.860313 
L 271.204959 204.013227 
L 273.971901 206.072888 
L 276.738843 207.987405 
L 279.505785 209.701691 
L 282.272727 211.157546 
L 285.039669 212.293802 
L 287.806612 213.04668 
L 290.573554 213.35054 
L 293.340496 213.139181 
L 296.107438 212.347851 
L 298.87438 210.916039 
L 301.641322 208.791046 
L 304.408264 205.932212 
L 307.175207 202.315551 
L 309.942149 197.938449 
L 312.709091 192.823953 
L 315.476033 187.024175 
L 318.242975 180.622317 
L 321.009917 173.732883 
L 323.77686 166.499787 
L 326.543802 159.092233 
L 329.310744 151.69845 
L 332.077686 144.517568 
L 334.844628 137.75016 
L 337.61157 131.588089 
L 340.378512 126.204431 
L 343.145455 121.744263 
L 345.912397 118.317028 
L 348.679339 115.991107 
L 351.446281 114.790972 
L 354.213223 114.697127 
L 356.980165 115.648758 
L 359.747107 117.548801 
L 362.51405 120.270949 
L 365.280992 123.667964 
L 368.047934 127.580612 
L 370.814876 131.846536 
L 373.581818 136.308435 
" style="fill:none;stroke:#000000;stroke-dasharray:7.4,3.2;stroke-dashoffset:0;stroke-width:2;"/>
   </g>
   <g id="PathCollection_4">
    <g clip-path="url(#p7ec45f2aa0)">
     <use style="fill:#ff0000;stroke:#000000;" x="83.052893" xlink:href="#mcbc262f5b6" y="129.399309"/>
     <use style="fill:#ff0000;stroke:#000000;" x="96.887603" xlink:href="#mcbc262f5b6" y="162.429541"/>
     <use style="fill:#ff0000;stroke:#000000;" x="110.722314" xlink:href="#mcbc262f5b6" y="193.170209"/>
     <use style="fill:#ff0000;stroke:#000000;" x="124.557025" xlink:href="#mcbc262f5b6" y="199.248575"/>
     <use style="fill:#ff0000;stroke:#000000;" x="138.391736" xlink:href="#mcbc262f5b6" y="199.347548"/>
     <use style="fill:#ff0000;stroke:#000000;" x="152.226446" xlink:href="#mcbc262f5b6" y="191.611971"/>
     <use style="fill:#ff0000;stroke:#000000;" x="166.061157" xlink:href="#mcbc262f5b6" y="193.66847"/>
     <use style="fill:#ff0000;stroke:#000000;" x="179.895868" xlink:href="#mcbc262f5b6" y="193.283098"/>
     <use style="fill:#ff0000;stroke:#000000;" x="193.730579" xlink:href="#mcbc262f5b6" y="188.924027"/>
     <use style="fill:#ff0000;stroke:#000000;" x="318.242975" xlink:href="#mcbc262f5b6" y="199.289596"/>
     <use style="fill:#ff0000;stroke:#000000;" x="332.077686" xlink:href="#mcbc262f5b6" y="145.37007"/>
     <use style="fill:#ff0000;stroke:#000000;" x="345.912397" xlink:href="#mcbc262f5b6" y="78.407322"/>
     <use style="fill:#ff0000;stroke:#000000;" x="282.272727" xlink:href="#mcbc262f5b6" y="222.857591"/>
    </g>
   </g>
  </g>
 </g>
 <defs>
  <clipPath id="p7ec45f2aa0">
   <rect height="217.44" width="334.8" x="54" y="34.56"/>
  </clipPath>
 </defs>
</svg>
