<?xml version="1.0" encoding="utf-8" standalone="no"?>
<!DOCTYPE svg PUBLIC "-//W3C//DTD SVG 1.1//EN"
  "http://www.w3.org/Graphics/SVG/1.1/DTD/svg11.dtd">
<svg height="288pt" version="1.1" viewBox="0 0 432 288" width="432pt" xmlns="http://www.w3.org/2000/svg" xmlns:xlink="http://www.w3.org/1999/xlink">
 <metadata>
  <rdf:RDF xmlns:cc="http://creativecommons.org/ns#" xmlns:dc="http://purl.org/dc/elements/1.1/" xmlns:rdf="http://www.w3.org/1999/02/22-rdf-syntax-ns#">
   <cc:Work>
    <dc:type rdf:resource="http://purl.org/dc/dcmitype/StillImage"/>
    <dc:date>2022-08-04T17:13:47.836451</dc:date>
    <dc:format>image/svg+xml</dc:format>
    <dc:creator>
     <cc:Agent>
      <dc:title>Matplotlib v3.4.3, https://matplotlib.org/</dc:title>
     </cc:Agent>
    </dc:creator>
   </cc:Work>
  </rdf:RDF>
 </metadata>
 <defs>
  <style type="text/css">*{stroke-linecap:butt;stroke-linejoin:round;}</style>
 </defs>
 <g id="figure_1">
  <g id="patch_1">
   <path d="M 0 288 
L 432 288 
L 432 0 
L 0 0 
z
" style="fill:none;"/>
  </g>
  <g id="axes_1">
   <g id="patch_2">
    <path d="M 54 252 
L 388.8 252 
L 388.8 34.56 
L 54 34.56 
z
" style="fill:#ffffff;"/>
   </g>
   <g id="PolyCollection_1">
    <defs>
     <path d="M 69.218182 -181.425454 
L 69.218182 -159.354481 
L 71.985124 -161.622766 
L 74.752066 -162.464763 
L 77.519008 -161.785124 
L 80.28595 -159.533431 
L 83.052893 -155.709193 
L 85.819835 -150.451687 
L 88.586777 -144.150598 
L 91.353719 -137.269241 
L 94.120661 -130.159177 
L 96.887603 -123.075494 
L 99.654545 -116.221713 
L 102.421488 -109.77199 
L 105.18843 -103.880477 
L 107.955372 -98.681369 
L 110.722314 -94.279432 
L 113.489256 -90.737171 
L 116.256198 -88.067619 
L 119.02314 -86.236144 
L 121.790083 -85.169123 
L 124.557025 -84.76583 
L 127.323967 -84.910389 
L 130.090909 -85.481625 
L 132.857851 -86.359967 
L 135.624793 -87.43182 
L 138.391736 -88.592481 
L 141.158678 -89.748494 
L 143.92562 -90.819945 
L 146.692562 -91.742897 
L 149.459504 -92.472021 
L 152.226446 -92.983125 
L 154.993388 -93.274675 
L 157.760331 -93.36706 
L 160.527273 -93.298788 
L 163.294215 -93.119931 
L 166.061157 -92.884352 
L 168.828099 -92.643198 
L 171.595041 -92.442771 
L 174.361983 -92.328484 
L 177.128926 -92.351284 
L 179.895868 -92.567767 
L 182.66281 -93.02852 
L 185.429752 -93.755813 
L 188.196694 -94.708173 
L 190.963636 -95.723914 
L 193.730579 -96.498868 
L 196.497521 -96.763854 
L 199.264463 -96.448792 
L 202.031405 -95.571316 
L 204.798347 -94.151833 
L 207.565289 -92.213832 
L 210.332231 -89.794792 
L 213.099174 -86.950802 
L 215.866116 -83.756364 
L 218.633058 -80.301558 
L 221.4 -76.687922 
L 224.166942 -73.023855 
L 226.933884 -69.42003 
L 229.700826 -65.985089 
L 232.467769 -62.821689 
L 235.234711 -60.022904 
L 238.001653 -57.66887 
L 240.768595 -55.823616 
L 243.535537 -54.532011 
L 246.302479 -53.816811 
L 249.069421 -53.675736 
L 251.836364 -54.078102 
L 254.603306 -54.958897 
L 257.370248 -56.2 
L 260.13719 -57.534529 
L 262.904132 -57.954078 
L 265.671074 -56.090575 
L 268.438017 -53.719101 
L 271.204959 -51.803262 
L 273.971901 -50.505311 
L 276.738843 -49.828878 
L 279.505785 -49.723212 
L 282.272727 -50.110338 
L 285.039669 -50.900138 
L 287.806612 -52.003215 
L 290.573554 -53.342864 
L 293.340496 -54.865354 
L 296.107438 -56.546872 
L 298.87438 -58.394815 
L 301.641322 -60.441976 
L 304.408264 -62.744453 
L 307.175207 -65.432734 
L 309.942149 -68.803036 
L 312.709091 -73.230233 
L 315.476033 -78.989185 
L 318.242975 -86.212054 
L 321.009917 -94.9086 
L 323.77686 -104.987287 
L 326.543802 -116.281558 
L 329.310744 -128.580942 
L 332.077686 -141.644035 
L 334.844628 -155.185313 
L 337.61157 -168.856261 
L 340.378512 -182.226285 
L 343.145455 -194.744893 
L 345.912397 -205.733031 
L 348.679339 -214.604205 
L 351.446281 -221.074217 
L 354.213223 -225.031183 
L 356.980165 -226.442328 
L 359.747107 -225.357536 
L 362.51405 -221.916877 
L 365.280992 -216.345405 
L 368.047934 -208.938758 
L 370.814876 -200.043446 
L 373.581818 -190.034735 
L 373.581818 -238.814609 
L 373.581818 -238.814609 
L 370.814876 -243.766658 
L 368.047934 -247.350097 
L 365.280992 -249.322434 
L 362.51405 -249.487131 
L 359.747107 -247.708381 
L 356.980165 -243.924019 
L 354.213223 -238.156534 
L 351.446281 -230.523482 
L 348.679339 -221.248973 
L 345.912397 -210.658603 
L 343.145455 -199.065199 
L 340.378512 -186.606651 
L 337.61157 -173.414615 
L 334.844628 -159.788919 
L 332.077686 -146.140161 
L 329.310744 -132.904953 
L 326.543802 -120.485352 
L 323.77686 -109.196998 
L 321.009917 -99.233669 
L 318.242975 -90.6699 
L 315.476033 -83.493747 
L 312.709091 -77.645753 
L 309.942149 -73.061982 
L 307.175207 -69.722957 
L 304.408264 -67.643523 
L 301.641322 -66.727709 
L 298.87438 -66.713474 
L 296.107438 -67.291886 
L 293.340496 -68.180399 
L 290.573554 -69.13627 
L 287.806612 -69.959236 
L 285.039669 -70.494524 
L 282.272727 -70.63551 
L 279.505785 -70.324831 
L 276.738843 -69.553643 
L 273.971901 -68.359664 
L 271.204959 -66.82669 
L 268.438017 -65.09668 
L 265.671074 -63.460429 
L 262.904132 -62.988986 
L 260.13719 -65.535201 
L 257.370248 -69.773452 
L 254.603306 -74.699754 
L 251.836364 -80.013565 
L 249.069421 -85.527315 
L 246.302479 -91.074862 
L 243.535537 -96.498199 
L 240.768595 -101.647865 
L 238.001653 -106.386359 
L 235.234711 -110.592082 
L 232.467769 -114.163084 
L 229.700826 -117.020361 
L 226.933884 -119.110605 
L 224.166942 -120.408262 
L 221.4 -120.916776 
L 218.633058 -120.668856 
L 215.866116 -119.7256 
L 213.099174 -118.174381 
L 210.332231 -116.125517 
L 207.565289 -113.707933 
L 204.798347 -111.064393 
L 202.031405 -108.347472 
L 199.264463 -105.71841 
L 196.497521 -103.350463 
L 193.730579 -101.420189 
L 190.963636 -100.012612 
L 188.196694 -98.99974 
L 185.429752 -98.195272 
L 182.66281 -97.524168 
L 179.895868 -96.994785 
L 177.128926 -96.639673 
L 174.361983 -96.480619 
L 171.595041 -96.509975 
L 168.828099 -96.685496 
L 166.061157 -96.939165 
L 163.294215 -97.193748 
L 160.527273 -97.377378 
L 157.760331 -97.431686 
L 154.993388 -97.314455 
L 152.226446 -96.99939 
L 149.459504 -96.475233 
L 146.692562 -95.745706 
L 143.92562 -94.830741 
L 141.158678 -93.768385 
L 138.391736 -92.616274 
L 135.624793 -91.451863 
L 132.857851 -90.371 
L 130.090909 -89.484651 
L 127.323967 -88.913708 
L 124.557025 -88.782076 
L 121.790083 -89.208858 
L 119.02314 -90.300898 
L 116.256198 -92.14671 
L 113.489256 -94.811922 
L 110.722314 -98.335423 
L 107.955372 -102.724674 
L 105.18843 -107.948138 
L 102.421488 -113.924126 
L 99.654545 -120.51051 
L 96.887603 -127.504727 
L 94.120661 -134.659985 
L 91.353719 -141.716508 
L 88.586777 -148.449711 
L 85.819835 -154.743106 
L 83.052893 -160.631233 
L 80.28595 -166.139273 
L 77.519008 -171.126538 
L 74.752066 -175.411094 
L 71.985124 -178.866363 
L 69.218182 -181.425454 
z
" id="mfe683236f6" style="stroke:#add8e6;stroke-opacity:0.2;"/>
    </defs>
    <g clip-path="url(#pac5c15f76c)">
     <use style="fill:#add8e6;fill-opacity:0.2;stroke:#add8e6;stroke-opacity:0.2;" x="0" xlink:href="#mfe683236f6" y="288"/>
    </g>
   </g>
   <g id="PathCollection_1">
    <defs>
     <path d="M 0 0.612372 
C 0.162403 0.612372 0.318176 0.547849 0.433013 0.433013 
C 0.547849 0.318176 0.612372 0.162403 0.612372 0 
C 0.612372 -0.162403 0.547849 -0.318176 0.433013 -0.433013 
C 0.318176 -0.547849 0.162403 -0.612372 0 -0.612372 
C -0.162403 -0.612372 -0.318176 -0.547849 -0.433013 -0.433013 
C -0.547849 -0.318176 -0.612372 -0.162403 -0.612372 0 
C -0.612372 0.162403 -0.547849 0.318176 -0.433013 0.433013 
C -0.318176 0.547849 -0.162403 0.612372 0 0.612372 
z
" id="m048c65f7c2" style="stroke:#ff0000;stroke-width:8;"/>
    </defs>
    <g clip-path="url(#pac5c15f76c)">
     <use style="fill:#ff0000;stroke:#ff0000;stroke-width:8;" x="276.738843" xlink:href="#m048c65f7c2" y="219.02087"/>
    </g>
   </g>
   <g id="matplotlib.axis_1">
    <g id="xtick_1">
     <g id="line2d_1">
      <defs>
       <path d="M 0 0 
L 0 3.5 
" id="mad19491450" style="stroke:#000000;stroke-width:0.8;"/>
      </defs>
      <g>
       <use style="stroke:#000000;stroke-width:0.8;" x="69.218182" xlink:href="#mad19491450" y="252"/>
      </g>
     </g>
     <g id="text_1">
      <!-- 0 -->
      <g transform="translate(66.036932 266.598437)scale(0.1 -0.1)">
       <defs>
        <path d="M 2034 4250 
Q 1547 4250 1301 3770 
Q 1056 3291 1056 2328 
Q 1056 1369 1301 889 
Q 1547 409 2034 409 
Q 2525 409 2770 889 
Q 3016 1369 3016 2328 
Q 3016 3291 2770 3770 
Q 2525 4250 2034 4250 
z
M 2034 4750 
Q 2819 4750 3233 4129 
Q 3647 3509 3647 2328 
Q 3647 1150 3233 529 
Q 2819 -91 2034 -91 
Q 1250 -91 836 529 
Q 422 1150 422 2328 
Q 422 3509 836 4129 
Q 1250 4750 2034 4750 
z
" id="DejaVuSans-30" transform="scale(0.015625)"/>
       </defs>
       <use xlink:href="#DejaVuSans-30"/>
      </g>
     </g>
    </g>
    <g id="xtick_2">
     <g id="line2d_2">
      <g>
       <use style="stroke:#000000;stroke-width:0.8;" x="124.557025" xlink:href="#mad19491450" y="252"/>
      </g>
     </g>
     <g id="text_2">
      <!-- 2 -->
      <g transform="translate(121.375775 266.598437)scale(0.1 -0.1)">
       <defs>
        <path d="M 1228 531 
L 3431 531 
L 3431 0 
L 469 0 
L 469 531 
Q 828 903 1448 1529 
Q 2069 2156 2228 2338 
Q 2531 2678 2651 2914 
Q 2772 3150 2772 3378 
Q 2772 3750 2511 3984 
Q 2250 4219 1831 4219 
Q 1534 4219 1204 4116 
Q 875 4013 500 3803 
L 500 4441 
Q 881 4594 1212 4672 
Q 1544 4750 1819 4750 
Q 2544 4750 2975 4387 
Q 3406 4025 3406 3419 
Q 3406 3131 3298 2873 
Q 3191 2616 2906 2266 
Q 2828 2175 2409 1742 
Q 1991 1309 1228 531 
z
" id="DejaVuSans-32" transform="scale(0.015625)"/>
       </defs>
       <use xlink:href="#DejaVuSans-32"/>
      </g>
     </g>
    </g>
    <g id="xtick_3">
     <g id="line2d_3">
      <g>
       <use style="stroke:#000000;stroke-width:0.8;" x="179.895868" xlink:href="#mad19491450" y="252"/>
      </g>
     </g>
     <g id="text_3">
      <!-- 4 -->
      <g transform="translate(176.714618 266.598437)scale(0.1 -0.1)">
       <defs>
        <path d="M 2419 4116 
L 825 1625 
L 2419 1625 
L 2419 4116 
z
M 2253 4666 
L 3047 4666 
L 3047 1625 
L 3713 1625 
L 3713 1100 
L 3047 1100 
L 3047 0 
L 2419 0 
L 2419 1100 
L 313 1100 
L 313 1709 
L 2253 4666 
z
" id="DejaVuSans-34" transform="scale(0.015625)"/>
       </defs>
       <use xlink:href="#DejaVuSans-34"/>
      </g>
     </g>
    </g>
    <g id="xtick_4">
     <g id="line2d_4">
      <g>
       <use style="stroke:#000000;stroke-width:0.8;" x="235.234711" xlink:href="#mad19491450" y="252"/>
      </g>
     </g>
     <g id="text_4">
      <!-- 6 -->
      <g transform="translate(232.053461 266.598437)scale(0.1 -0.1)">
       <defs>
        <path d="M 2113 2584 
Q 1688 2584 1439 2293 
Q 1191 2003 1191 1497 
Q 1191 994 1439 701 
Q 1688 409 2113 409 
Q 2538 409 2786 701 
Q 3034 994 3034 1497 
Q 3034 2003 2786 2293 
Q 2538 2584 2113 2584 
z
M 3366 4563 
L 3366 3988 
Q 3128 4100 2886 4159 
Q 2644 4219 2406 4219 
Q 1781 4219 1451 3797 
Q 1122 3375 1075 2522 
Q 1259 2794 1537 2939 
Q 1816 3084 2150 3084 
Q 2853 3084 3261 2657 
Q 3669 2231 3669 1497 
Q 3669 778 3244 343 
Q 2819 -91 2113 -91 
Q 1303 -91 875 529 
Q 447 1150 447 2328 
Q 447 3434 972 4092 
Q 1497 4750 2381 4750 
Q 2619 4750 2861 4703 
Q 3103 4656 3366 4563 
z
" id="DejaVuSans-36" transform="scale(0.015625)"/>
       </defs>
       <use xlink:href="#DejaVuSans-36"/>
      </g>
     </g>
    </g>
    <g id="xtick_5">
     <g id="line2d_5">
      <g>
       <use style="stroke:#000000;stroke-width:0.8;" x="290.573554" xlink:href="#mad19491450" y="252"/>
      </g>
     </g>
     <g id="text_5">
      <!-- 8 -->
      <g transform="translate(287.392304 266.598437)scale(0.1 -0.1)">
       <defs>
        <path d="M 2034 2216 
Q 1584 2216 1326 1975 
Q 1069 1734 1069 1313 
Q 1069 891 1326 650 
Q 1584 409 2034 409 
Q 2484 409 2743 651 
Q 3003 894 3003 1313 
Q 3003 1734 2745 1975 
Q 2488 2216 2034 2216 
z
M 1403 2484 
Q 997 2584 770 2862 
Q 544 3141 544 3541 
Q 544 4100 942 4425 
Q 1341 4750 2034 4750 
Q 2731 4750 3128 4425 
Q 3525 4100 3525 3541 
Q 3525 3141 3298 2862 
Q 3072 2584 2669 2484 
Q 3125 2378 3379 2068 
Q 3634 1759 3634 1313 
Q 3634 634 3220 271 
Q 2806 -91 2034 -91 
Q 1263 -91 848 271 
Q 434 634 434 1313 
Q 434 1759 690 2068 
Q 947 2378 1403 2484 
z
M 1172 3481 
Q 1172 3119 1398 2916 
Q 1625 2713 2034 2713 
Q 2441 2713 2670 2916 
Q 2900 3119 2900 3481 
Q 2900 3844 2670 4047 
Q 2441 4250 2034 4250 
Q 1625 4250 1398 4047 
Q 1172 3844 1172 3481 
z
" id="DejaVuSans-38" transform="scale(0.015625)"/>
       </defs>
       <use xlink:href="#DejaVuSans-38"/>
      </g>
     </g>
    </g>
    <g id="xtick_6">
     <g id="line2d_6">
      <g>
       <use style="stroke:#000000;stroke-width:0.8;" x="345.912397" xlink:href="#mad19491450" y="252"/>
      </g>
     </g>
     <g id="text_6">
      <!-- 10 -->
      <g transform="translate(339.549897 266.598437)scale(0.1 -0.1)">
       <defs>
        <path d="M 794 531 
L 1825 531 
L 1825 4091 
L 703 3866 
L 703 4441 
L 1819 4666 
L 2450 4666 
L 2450 531 
L 3481 531 
L 3481 0 
L 794 0 
L 794 531 
z
" id="DejaVuSans-31" transform="scale(0.015625)"/>
       </defs>
       <use xlink:href="#DejaVuSans-31"/>
       <use x="63.623047" xlink:href="#DejaVuSans-30"/>
      </g>
     </g>
    </g>
    <g id="text_7">
     <!-- x -->
     <g transform="translate(217.84875 281.79625)scale(0.12 -0.12)">
      <defs>
       <path d="M 3513 3500 
L 2247 1797 
L 3578 0 
L 2900 0 
L 1881 1375 
L 863 0 
L 184 0 
L 1544 1831 
L 300 3500 
L 978 3500 
L 1906 2253 
L 2834 3500 
L 3513 3500 
z
" id="DejaVuSans-78" transform="scale(0.015625)"/>
      </defs>
      <use xlink:href="#DejaVuSans-78"/>
     </g>
    </g>
   </g>
   <g id="matplotlib.axis_2">
    <g id="ytick_1">
     <g id="line2d_7">
      <defs>
       <path d="M 0 0 
L -3.5 0 
" id="m56742c38d2" style="stroke:#000000;stroke-width:0.8;"/>
      </defs>
      <g>
       <use style="stroke:#000000;stroke-width:0.8;" x="54" xlink:href="#m56742c38d2" y="252"/>
      </g>
     </g>
     <g id="text_8">
      <!-- 3 -->
      <g transform="translate(40.6375 255.799219)scale(0.1 -0.1)">
       <defs>
        <path d="M 2597 2516 
Q 3050 2419 3304 2112 
Q 3559 1806 3559 1356 
Q 3559 666 3084 287 
Q 2609 -91 1734 -91 
Q 1441 -91 1130 -33 
Q 819 25 488 141 
L 488 750 
Q 750 597 1062 519 
Q 1375 441 1716 441 
Q 2309 441 2620 675 
Q 2931 909 2931 1356 
Q 2931 1769 2642 2001 
Q 2353 2234 1838 2234 
L 1294 2234 
L 1294 2753 
L 1863 2753 
Q 2328 2753 2575 2939 
Q 2822 3125 2822 3475 
Q 2822 3834 2567 4026 
Q 2313 4219 1838 4219 
Q 1578 4219 1281 4162 
Q 984 4106 628 3988 
L 628 4550 
Q 988 4650 1302 4700 
Q 1616 4750 1894 4750 
Q 2613 4750 3031 4423 
Q 3450 4097 3450 3541 
Q 3450 3153 3228 2886 
Q 3006 2619 2597 2516 
z
" id="DejaVuSans-33" transform="scale(0.015625)"/>
       </defs>
       <use xlink:href="#DejaVuSans-33"/>
      </g>
     </g>
    </g>
    <g id="ytick_2">
     <g id="line2d_8">
      <g>
       <use style="stroke:#000000;stroke-width:0.8;" x="54" xlink:href="#m56742c38d2" y="215.76"/>
      </g>
     </g>
     <g id="text_9">
      <!-- 4 -->
      <g transform="translate(40.6375 219.559219)scale(0.1 -0.1)">
       <use xlink:href="#DejaVuSans-34"/>
      </g>
     </g>
    </g>
    <g id="ytick_3">
     <g id="line2d_9">
      <g>
       <use style="stroke:#000000;stroke-width:0.8;" x="54" xlink:href="#m56742c38d2" y="179.52"/>
      </g>
     </g>
     <g id="text_10">
      <!-- 5 -->
      <g transform="translate(40.6375 183.319219)scale(0.1 -0.1)">
       <defs>
        <path d="M 691 4666 
L 3169 4666 
L 3169 4134 
L 1269 4134 
L 1269 2991 
Q 1406 3038 1543 3061 
Q 1681 3084 1819 3084 
Q 2600 3084 3056 2656 
Q 3513 2228 3513 1497 
Q 3513 744 3044 326 
Q 2575 -91 1722 -91 
Q 1428 -91 1123 -41 
Q 819 9 494 109 
L 494 744 
Q 775 591 1075 516 
Q 1375 441 1709 441 
Q 2250 441 2565 725 
Q 2881 1009 2881 1497 
Q 2881 1984 2565 2268 
Q 2250 2553 1709 2553 
Q 1456 2553 1204 2497 
Q 953 2441 691 2322 
L 691 4666 
z
" id="DejaVuSans-35" transform="scale(0.015625)"/>
       </defs>
       <use xlink:href="#DejaVuSans-35"/>
      </g>
     </g>
    </g>
    <g id="ytick_4">
     <g id="line2d_10">
      <g>
       <use style="stroke:#000000;stroke-width:0.8;" x="54" xlink:href="#m56742c38d2" y="143.28"/>
      </g>
     </g>
     <g id="text_11">
      <!-- 6 -->
      <g transform="translate(40.6375 147.079219)scale(0.1 -0.1)">
       <use xlink:href="#DejaVuSans-36"/>
      </g>
     </g>
    </g>
    <g id="ytick_5">
     <g id="line2d_11">
      <g>
       <use style="stroke:#000000;stroke-width:0.8;" x="54" xlink:href="#m56742c38d2" y="107.04"/>
      </g>
     </g>
     <g id="text_12">
      <!-- 7 -->
      <g transform="translate(40.6375 110.839219)scale(0.1 -0.1)">
       <defs>
        <path d="M 525 4666 
L 3525 4666 
L 3525 4397 
L 1831 0 
L 1172 0 
L 2766 4134 
L 525 4134 
L 525 4666 
z
" id="DejaVuSans-37" transform="scale(0.015625)"/>
       </defs>
       <use xlink:href="#DejaVuSans-37"/>
      </g>
     </g>
    </g>
    <g id="ytick_6">
     <g id="line2d_12">
      <g>
       <use style="stroke:#000000;stroke-width:0.8;" x="54" xlink:href="#m56742c38d2" y="70.8"/>
      </g>
     </g>
     <g id="text_13">
      <!-- 8 -->
      <g transform="translate(40.6375 74.599219)scale(0.1 -0.1)">
       <use xlink:href="#DejaVuSans-38"/>
      </g>
     </g>
    </g>
    <g id="ytick_7">
     <g id="line2d_13">
      <g>
       <use style="stroke:#000000;stroke-width:0.8;" x="54" xlink:href="#m56742c38d2" y="34.56"/>
      </g>
     </g>
     <g id="text_14">
      <!-- 9 -->
      <g transform="translate(40.6375 38.359219)scale(0.1 -0.1)">
       <defs>
        <path d="M 703 97 
L 703 672 
Q 941 559 1184 500 
Q 1428 441 1663 441 
Q 2288 441 2617 861 
Q 2947 1281 2994 2138 
Q 2813 1869 2534 1725 
Q 2256 1581 1919 1581 
Q 1219 1581 811 2004 
Q 403 2428 403 3163 
Q 403 3881 828 4315 
Q 1253 4750 1959 4750 
Q 2769 4750 3195 4129 
Q 3622 3509 3622 2328 
Q 3622 1225 3098 567 
Q 2575 -91 1691 -91 
Q 1453 -91 1209 -44 
Q 966 3 703 97 
z
M 1959 2075 
Q 2384 2075 2632 2365 
Q 2881 2656 2881 3163 
Q 2881 3666 2632 3958 
Q 2384 4250 1959 4250 
Q 1534 4250 1286 3958 
Q 1038 3666 1038 3163 
Q 1038 2656 1286 2365 
Q 1534 2075 1959 2075 
z
" id="DejaVuSans-39" transform="scale(0.015625)"/>
       </defs>
       <use xlink:href="#DejaVuSans-39"/>
      </g>
     </g>
    </g>
    <g id="text_15">
     <!-- y -->
     <g transform="translate(34.141875 146.83125)rotate(-90)scale(0.12 -0.12)">
      <defs>
       <path d="M 2059 -325 
Q 1816 -950 1584 -1140 
Q 1353 -1331 966 -1331 
L 506 -1331 
L 506 -850 
L 844 -850 
Q 1081 -850 1212 -737 
Q 1344 -625 1503 -206 
L 1606 56 
L 191 3500 
L 800 3500 
L 1894 763 
L 2988 3500 
L 3597 3500 
L 2059 -325 
z
" id="DejaVuSans-79" transform="scale(0.015625)"/>
      </defs>
      <use xlink:href="#DejaVuSans-79"/>
     </g>
    </g>
   </g>
   <g id="line2d_14">
    <path clip-path="url(#pac5c15f76c)" d="M 69.218182 70.8 
L 71.985124 85.083949 
L 74.752066 98.25467 
L 77.519008 110.364828 
L 80.28595 121.465955 
L 83.052893 131.608455 
L 85.819835 140.841599 
L 88.586777 149.213528 
L 91.353719 156.771253 
L 94.120661 163.560654 
L 96.887603 169.62648 
L 99.654545 175.012349 
L 102.421488 179.76075 
L 105.18843 183.913038 
L 107.955372 187.509441 
L 110.722314 190.589055 
L 113.489256 193.189844 
L 116.256198 195.348643 
L 119.02314 197.101155 
L 121.790083 198.481953 
L 124.557025 199.52448 
L 127.323967 200.261047 
L 130.090909 200.722835 
L 132.857851 200.939895 
L 135.624793 200.941145 
L 138.391736 200.754375 
L 141.158678 200.406243 
L 143.92562 199.922276 
L 146.692562 199.326871 
L 149.459504 198.643294 
L 152.226446 197.89368 
L 154.993388 197.099035 
L 157.760331 196.279231 
L 160.527273 195.453014 
L 163.294215 194.637994 
L 166.061157 193.850655 
L 168.828099 193.106347 
L 171.595041 192.419291 
L 174.361983 191.802577 
L 177.128926 191.268164 
L 179.895868 190.82688 
L 182.66281 190.488424 
L 185.429752 190.261362 
L 188.196694 190.153131 
L 190.963636 190.170037 
L 193.730579 190.317255 
L 196.497521 190.598829 
L 199.264463 191.017673 
L 202.031405 191.575569 
L 204.798347 192.273171 
L 207.565289 193.11 
L 210.332231 194.084446 
L 213.099174 195.193771 
L 215.866116 196.434103 
L 218.633058 197.800442 
L 221.4 199.286655 
L 224.166942 200.88548 
L 226.933884 202.588525 
L 229.700826 204.386264 
L 232.467769 206.268045 
L 235.234711 208.22208 
L 238.001653 210.235455 
L 240.768595 212.294122 
L 243.535537 214.382905 
L 246.302479 216.485496 
L 249.069421 218.584455 
L 251.836364 220.661214 
L 254.603306 222.696071 
L 257.370248 224.668198 
L 260.13719 226.555631 
L 262.904132 228.33528 
L 265.671074 229.982921 
L 268.438017 231.4732 
L 271.204959 232.779634 
L 273.971901 233.874607 
L 276.738843 234.729375 
L 279.505785 235.31406 
L 282.272727 235.597656 
L 285.039669 235.548026 
L 287.806612 235.1319 
L 290.573554 234.31488 
L 293.340496 233.061436 
L 296.107438 231.334908 
L 298.87438 229.097505 
L 301.641322 226.310305 
L 304.408264 222.933255 
L 307.175207 218.925173 
L 309.942149 214.243744 
L 312.709091 208.845524 
L 315.476033 202.685938 
L 318.242975 195.71928 
L 321.009917 187.898713 
L 323.77686 179.176271 
L 326.543802 169.502854 
L 329.310744 158.828236 
L 332.077686 147.101055 
L 334.844628 134.268823 
L 337.61157 120.277918 
L 340.378512 105.073589 
L 343.145455 88.599954 
L 345.912397 70.8 
L 348.679339 51.615584 
L 351.446281 30.987432 
L 354.213223 8.855138 
L 355.363895 -1 
" style="fill:none;stroke:#0000ff;stroke-linecap:square;stroke-width:2;"/>
   </g>
   <g id="line2d_15">
    <path clip-path="url(#pac5c15f76c)" d="M 69.218182 128.645519 
L 71.985124 126.377234 
L 74.752066 125.535237 
L 77.519008 126.214876 
L 80.28595 128.466569 
L 83.052893 132.290807 
L 85.819835 137.548313 
L 88.586777 143.849402 
L 91.353719 150.730759 
L 94.120661 157.840823 
L 96.887603 164.924506 
L 99.654545 171.778287 
L 102.421488 178.22801 
L 105.18843 184.119523 
L 107.955372 189.318631 
L 110.722314 193.720568 
L 113.489256 197.262829 
L 116.256198 199.932381 
L 119.02314 201.763856 
L 121.790083 202.830877 
L 124.557025 203.23417 
L 127.323967 203.089611 
L 130.090909 202.518375 
L 132.857851 201.640033 
L 135.624793 200.56818 
L 138.391736 199.407519 
L 141.158678 198.251506 
L 143.92562 197.180055 
L 146.692562 196.257103 
L 149.459504 195.527979 
L 152.226446 195.016875 
L 154.993388 194.725325 
L 157.760331 194.63294 
L 160.527273 194.701212 
L 163.294215 194.880069 
L 166.061157 195.115648 
L 168.828099 195.356802 
L 171.595041 195.557229 
L 174.361983 195.671516 
L 177.128926 195.648716 
L 179.895868 195.432233 
L 182.66281 194.97148 
L 185.429752 194.244187 
L 188.196694 193.291827 
L 190.963636 192.276086 
L 193.730579 191.501132 
L 196.497521 191.236146 
L 199.264463 191.551208 
L 202.031405 192.428684 
L 204.798347 193.848167 
L 207.565289 195.786168 
L 210.332231 198.205208 
L 213.099174 201.049198 
L 215.866116 204.243636 
L 218.633058 207.698442 
L 221.4 211.312078 
L 224.166942 214.976145 
L 226.933884 218.57997 
L 229.700826 222.014911 
L 232.467769 225.178311 
L 235.234711 227.977096 
L 238.001653 230.33113 
L 240.768595 232.176384 
L 243.535537 233.467989 
L 246.302479 234.183189 
L 249.069421 234.324264 
L 251.836364 233.921898 
L 254.603306 233.041103 
L 257.370248 231.8 
L 260.13719 230.465471 
L 262.904132 230.045922 
L 265.671074 231.909425 
L 268.438017 234.280899 
L 271.204959 236.196738 
L 273.971901 237.494689 
L 276.738843 238.171122 
L 279.505785 238.276788 
L 282.272727 237.889662 
L 285.039669 237.099862 
L 287.806612 235.996785 
L 290.573554 234.657136 
L 293.340496 233.134646 
L 296.107438 231.453128 
L 298.87438 229.605185 
L 301.641322 227.558024 
L 304.408264 225.255547 
L 307.175207 222.567266 
L 309.942149 219.196964 
L 312.709091 214.769767 
L 315.476033 209.010815 
L 318.242975 201.787946 
L 321.009917 193.0914 
L 323.77686 183.012713 
L 326.543802 171.718442 
L 329.310744 159.419058 
L 332.077686 146.355965 
L 334.844628 132.814687 
L 337.61157 119.143739 
L 340.378512 105.773715 
L 343.145455 93.255107 
L 345.912397 82.266969 
L 348.679339 73.395795 
L 351.446281 66.925783 
L 354.213223 62.968817 
L 356.980165 61.557672 
L 359.747107 62.642464 
L 362.51405 66.083123 
L 365.280992 71.654595 
L 368.047934 79.061242 
L 370.814876 87.956554 
L 373.581818 97.965265 
" style="fill:none;stroke:#008000;stroke-dasharray:3.7,1.6;stroke-dashoffset:0;"/>
   </g>
   <g id="line2d_16">
    <path clip-path="url(#pac5c15f76c)" d="M 69.218182 106.574546 
L 71.985124 109.133637 
L 74.752066 112.588906 
L 77.519008 116.873462 
L 80.28595 121.860727 
L 83.052893 127.368767 
L 85.819835 133.256894 
L 88.586777 139.550289 
L 91.353719 146.283492 
L 94.120661 153.340015 
L 96.887603 160.495273 
L 99.654545 167.48949 
L 102.421488 174.075874 
L 105.18843 180.051862 
L 107.955372 185.275326 
L 110.722314 189.664577 
L 113.489256 193.188078 
L 116.256198 195.85329 
L 119.02314 197.699102 
L 121.790083 198.791142 
L 124.557025 199.217924 
L 127.323967 199.086292 
L 130.090909 198.515349 
L 132.857851 197.629 
L 135.624793 196.548137 
L 138.391736 195.383726 
L 141.158678 194.231615 
L 143.92562 193.169259 
L 146.692562 192.254294 
L 149.459504 191.524767 
L 152.226446 191.00061 
L 154.993388 190.685545 
L 157.760331 190.568314 
L 160.527273 190.622622 
L 163.294215 190.806252 
L 166.061157 191.060835 
L 168.828099 191.314504 
L 171.595041 191.490025 
L 174.361983 191.519381 
L 177.128926 191.360327 
L 179.895868 191.005215 
L 182.66281 190.475832 
L 185.429752 189.804728 
L 188.196694 189.00026 
L 190.963636 187.987388 
L 193.730579 186.579811 
L 196.497521 184.649537 
L 199.264463 182.28159 
L 202.031405 179.652528 
L 204.798347 176.935607 
L 207.565289 174.292067 
L 210.332231 171.874483 
L 213.099174 169.825619 
L 215.866116 168.2744 
L 218.633058 167.331144 
L 221.4 167.083224 
L 224.166942 167.591738 
L 226.933884 168.889395 
L 229.700826 170.979639 
L 232.467769 173.836916 
L 235.234711 177.407918 
L 238.001653 181.613641 
L 240.768595 186.352135 
L 243.535537 191.501801 
L 246.302479 196.925138 
L 249.069421 202.472685 
L 251.836364 207.986435 
L 254.603306 213.300246 
L 257.370248 218.226548 
L 260.13719 222.464799 
L 262.904132 225.011014 
L 265.671074 224.539571 
L 268.438017 222.90332 
L 271.204959 221.17331 
L 273.971901 219.640336 
L 276.738843 218.446357 
L 279.505785 217.675169 
L 282.272727 217.36449 
L 285.039669 217.505476 
L 287.806612 218.040764 
L 290.573554 218.86373 
L 293.340496 219.819601 
L 296.107438 220.708114 
L 298.87438 221.286526 
L 301.641322 221.272291 
L 304.408264 220.356477 
L 307.175207 218.277043 
L 309.942149 214.938018 
L 312.709091 210.354247 
L 315.476033 204.506253 
L 318.242975 197.3301 
L 321.009917 188.766331 
L 323.77686 178.803002 
L 326.543802 167.514648 
L 329.310744 155.095047 
L 332.077686 141.859839 
L 334.844628 128.211081 
L 337.61157 114.585385 
L 340.378512 101.393349 
L 343.145455 88.934801 
L 345.912397 77.341397 
L 348.679339 66.751027 
L 351.446281 57.476518 
L 354.213223 49.843466 
L 356.980165 44.075981 
L 359.747107 40.291619 
L 362.51405 38.512869 
L 365.280992 38.677566 
L 368.047934 40.649903 
L 370.814876 44.233342 
L 373.581818 49.185391 
" style="fill:none;stroke:#008000;stroke-dasharray:3.7,1.6;stroke-dashoffset:0;"/>
   </g>
   <g id="line2d_17">
    <path clip-path="url(#pac5c15f76c)" d="M 69.218182 252 
L 71.985124 252 
L 74.752066 252 
L 77.519008 252 
L 80.28595 252 
L 83.052893 252 
L 85.819835 252 
L 88.586777 252 
L 91.353719 252 
L 94.120661 252 
L 96.887603 252 
L 99.654545 252 
L 102.421488 252 
L 105.18843 252 
L 107.955372 252 
L 110.722314 252 
L 113.489256 252 
L 116.256198 252 
L 119.02314 252 
L 121.790083 252 
L 124.557025 252 
L 127.323967 252 
L 130.090909 252 
L 132.857851 252 
L 135.624793 252 
L 138.391736 252 
L 141.158678 252 
L 143.92562 252 
L 146.692562 252 
L 149.459504 252 
L 152.226446 252 
L 154.993388 252 
L 157.760331 252 
L 160.527273 252 
L 163.294215 252 
L 166.061157 252 
L 168.828099 252 
L 171.595041 252 
L 174.361983 252 
L 177.128926 252 
L 179.895868 252 
L 182.66281 252 
L 185.429752 252 
L 188.196694 252 
L 190.963636 252 
L 193.730579 252 
L 196.497521 252 
L 199.264463 252 
L 202.031405 252 
L 204.798347 251.999999 
L 207.565289 251.999546 
L 210.332231 251.985533 
L 213.099174 251.869428 
L 215.866116 251.423887 
L 218.633058 250.352875 
L 221.4 248.437567 
L 224.166942 245.623594 
L 226.933884 242.025161 
L 229.700826 237.885566 
L 232.467769 233.528714 
L 235.234711 229.316653 
L 238.001653 225.61609 
L 240.768595 222.772092 
L 243.535537 221.086313 
L 246.302479 220.797527 
L 249.069421 222.062701 
L 251.836364 224.936166 
L 254.603306 229.339136 
L 257.370248 234.983226 
L 260.13719 241.014468 
L 262.904132 243.695117 
L 265.671074 237.616003 
L 268.438017 229.914592 
L 271.204959 224.095781 
L 273.971901 220.523664 
L 276.738843 219.02087 
L 279.505785 219.268007 
L 282.272727 220.908286 
L 285.039669 223.601623 
L 287.806612 227.064443 
L 290.573554 231.09994 
L 293.340496 235.609868 
L 296.107438 240.54816 
L 298.87438 245.6877 
L 301.641322 250.008038 
L 304.408264 251.837656 
L 307.175207 251.998963 
L 309.942149 252 
L 312.709091 252 
L 315.476033 252 
L 318.242975 252 
L 321.009917 252 
L 323.77686 252 
L 326.543802 252 
L 329.310744 252 
L 332.077686 252 
L 334.844628 252 
L 337.61157 252 
L 340.378512 252 
L 343.145455 252 
L 345.912397 252 
L 348.679339 252 
L 351.446281 252 
L 354.213223 252 
L 356.980165 252 
L 359.747107 252 
L 362.51405 252 
L 365.280992 252 
L 368.047934 252 
L 370.814876 252 
L 373.581818 252 
" style="fill:none;stroke:#bfbf00;stroke-dasharray:7.4,3.2;stroke-dashoffset:0;stroke-width:2;"/>
   </g>
   <g id="patch_3">
    <path d="M 54 252 
L 54 34.56 
" style="fill:none;stroke:#000000;stroke-linecap:square;stroke-linejoin:miter;stroke-width:0.8;"/>
   </g>
   <g id="patch_4">
    <path d="M 388.8 252 
L 388.8 34.56 
" style="fill:none;stroke:#000000;stroke-linecap:square;stroke-linejoin:miter;stroke-width:0.8;"/>
   </g>
   <g id="patch_5">
    <path d="M 54 252 
L 388.8 252 
" style="fill:none;stroke:#000000;stroke-linecap:square;stroke-linejoin:miter;stroke-width:0.8;"/>
   </g>
   <g id="patch_6">
    <path d="M 54 34.56 
L 388.8 34.56 
" style="fill:none;stroke:#000000;stroke-linecap:square;stroke-linejoin:miter;stroke-width:0.8;"/>
   </g>
   <g id="text_16">
    <!-- Method : REI -->
    <g transform="translate(71.985124 244.752)scale(0.12 -0.12)">
     <defs>
      <path d="M 628 4666 
L 1569 4666 
L 2759 1491 
L 3956 4666 
L 4897 4666 
L 4897 0 
L 4281 0 
L 4281 4097 
L 3078 897 
L 2444 897 
L 1241 4097 
L 1241 0 
L 628 0 
L 628 4666 
z
" id="DejaVuSans-4d" transform="scale(0.015625)"/>
      <path d="M 3597 1894 
L 3597 1613 
L 953 1613 
Q 991 1019 1311 708 
Q 1631 397 2203 397 
Q 2534 397 2845 478 
Q 3156 559 3463 722 
L 3463 178 
Q 3153 47 2828 -22 
Q 2503 -91 2169 -91 
Q 1331 -91 842 396 
Q 353 884 353 1716 
Q 353 2575 817 3079 
Q 1281 3584 2069 3584 
Q 2775 3584 3186 3129 
Q 3597 2675 3597 1894 
z
M 3022 2063 
Q 3016 2534 2758 2815 
Q 2500 3097 2075 3097 
Q 1594 3097 1305 2825 
Q 1016 2553 972 2059 
L 3022 2063 
z
" id="DejaVuSans-65" transform="scale(0.015625)"/>
      <path d="M 1172 4494 
L 1172 3500 
L 2356 3500 
L 2356 3053 
L 1172 3053 
L 1172 1153 
Q 1172 725 1289 603 
Q 1406 481 1766 481 
L 2356 481 
L 2356 0 
L 1766 0 
Q 1100 0 847 248 
Q 594 497 594 1153 
L 594 3053 
L 172 3053 
L 172 3500 
L 594 3500 
L 594 4494 
L 1172 4494 
z
" id="DejaVuSans-74" transform="scale(0.015625)"/>
      <path d="M 3513 2113 
L 3513 0 
L 2938 0 
L 2938 2094 
Q 2938 2591 2744 2837 
Q 2550 3084 2163 3084 
Q 1697 3084 1428 2787 
Q 1159 2491 1159 1978 
L 1159 0 
L 581 0 
L 581 4863 
L 1159 4863 
L 1159 2956 
Q 1366 3272 1645 3428 
Q 1925 3584 2291 3584 
Q 2894 3584 3203 3211 
Q 3513 2838 3513 2113 
z
" id="DejaVuSans-68" transform="scale(0.015625)"/>
      <path d="M 1959 3097 
Q 1497 3097 1228 2736 
Q 959 2375 959 1747 
Q 959 1119 1226 758 
Q 1494 397 1959 397 
Q 2419 397 2687 759 
Q 2956 1122 2956 1747 
Q 2956 2369 2687 2733 
Q 2419 3097 1959 3097 
z
M 1959 3584 
Q 2709 3584 3137 3096 
Q 3566 2609 3566 1747 
Q 3566 888 3137 398 
Q 2709 -91 1959 -91 
Q 1206 -91 779 398 
Q 353 888 353 1747 
Q 353 2609 779 3096 
Q 1206 3584 1959 3584 
z
" id="DejaVuSans-6f" transform="scale(0.015625)"/>
      <path d="M 2906 2969 
L 2906 4863 
L 3481 4863 
L 3481 0 
L 2906 0 
L 2906 525 
Q 2725 213 2448 61 
Q 2172 -91 1784 -91 
Q 1150 -91 751 415 
Q 353 922 353 1747 
Q 353 2572 751 3078 
Q 1150 3584 1784 3584 
Q 2172 3584 2448 3432 
Q 2725 3281 2906 2969 
z
M 947 1747 
Q 947 1113 1208 752 
Q 1469 391 1925 391 
Q 2381 391 2643 752 
Q 2906 1113 2906 1747 
Q 2906 2381 2643 2742 
Q 2381 3103 1925 3103 
Q 1469 3103 1208 2742 
Q 947 2381 947 1747 
z
" id="DejaVuSans-64" transform="scale(0.015625)"/>
      <path id="DejaVuSans-20" transform="scale(0.015625)"/>
      <path d="M 750 794 
L 1409 794 
L 1409 0 
L 750 0 
L 750 794 
z
M 750 3309 
L 1409 3309 
L 1409 2516 
L 750 2516 
L 750 3309 
z
" id="DejaVuSans-3a" transform="scale(0.015625)"/>
      <path d="M 2841 2188 
Q 3044 2119 3236 1894 
Q 3428 1669 3622 1275 
L 4263 0 
L 3584 0 
L 2988 1197 
Q 2756 1666 2539 1819 
Q 2322 1972 1947 1972 
L 1259 1972 
L 1259 0 
L 628 0 
L 628 4666 
L 2053 4666 
Q 2853 4666 3247 4331 
Q 3641 3997 3641 3322 
Q 3641 2881 3436 2590 
Q 3231 2300 2841 2188 
z
M 1259 4147 
L 1259 2491 
L 2053 2491 
Q 2509 2491 2742 2702 
Q 2975 2913 2975 3322 
Q 2975 3731 2742 3939 
Q 2509 4147 2053 4147 
L 1259 4147 
z
" id="DejaVuSans-52" transform="scale(0.015625)"/>
      <path d="M 628 4666 
L 3578 4666 
L 3578 4134 
L 1259 4134 
L 1259 2753 
L 3481 2753 
L 3481 2222 
L 1259 2222 
L 1259 531 
L 3634 531 
L 3634 0 
L 628 0 
L 628 4666 
z
" id="DejaVuSans-45" transform="scale(0.015625)"/>
      <path d="M 628 4666 
L 1259 4666 
L 1259 0 
L 628 0 
L 628 4666 
z
" id="DejaVuSans-49" transform="scale(0.015625)"/>
     </defs>
     <use xlink:href="#DejaVuSans-4d"/>
     <use x="86.279297" xlink:href="#DejaVuSans-65"/>
     <use x="147.802734" xlink:href="#DejaVuSans-74"/>
     <use x="187.011719" xlink:href="#DejaVuSans-68"/>
     <use x="250.390625" xlink:href="#DejaVuSans-6f"/>
     <use x="311.572266" xlink:href="#DejaVuSans-64"/>
     <use x="375.048828" xlink:href="#DejaVuSans-20"/>
     <use x="406.835938" xlink:href="#DejaVuSans-3a"/>
     <use x="440.527344" xlink:href="#DejaVuSans-20"/>
     <use x="472.314453" xlink:href="#DejaVuSans-52"/>
     <use x="541.796875" xlink:href="#DejaVuSans-45"/>
     <use x="604.980469" xlink:href="#DejaVuSans-49"/>
    </g>
   </g>
   <g id="text_17">
    <!-- Iter=2 -->
    <g transform="translate(71.985124 226.632)scale(0.12 -0.12)">
     <defs>
      <path d="M 2631 2963 
Q 2534 3019 2420 3045 
Q 2306 3072 2169 3072 
Q 1681 3072 1420 2755 
Q 1159 2438 1159 1844 
L 1159 0 
L 581 0 
L 581 3500 
L 1159 3500 
L 1159 2956 
Q 1341 3275 1631 3429 
Q 1922 3584 2338 3584 
Q 2397 3584 2469 3576 
Q 2541 3569 2628 3553 
L 2631 2963 
z
" id="DejaVuSans-72" transform="scale(0.015625)"/>
      <path d="M 678 2906 
L 4684 2906 
L 4684 2381 
L 678 2381 
L 678 2906 
z
M 678 1631 
L 4684 1631 
L 4684 1100 
L 678 1100 
L 678 1631 
z
" id="DejaVuSans-3d" transform="scale(0.015625)"/>
     </defs>
     <use xlink:href="#DejaVuSans-49"/>
     <use x="29.492188" xlink:href="#DejaVuSans-74"/>
     <use x="68.701172" xlink:href="#DejaVuSans-65"/>
     <use x="130.224609" xlink:href="#DejaVuSans-72"/>
     <use x="171.337891" xlink:href="#DejaVuSans-3d"/>
     <use x="255.126953" xlink:href="#DejaVuSans-32"/>
    </g>
   </g>
   <g id="legend_1">
    <g id="patch_7">
     <path d="M 144.327812 140.235625 
L 298.472188 140.235625 
Q 300.672188 140.235625 300.672188 138.035625 
L 300.672188 42.26 
Q 300.672188 40.06 298.472188 40.06 
L 144.327812 40.06 
Q 142.127813 40.06 142.127813 42.26 
L 142.127813 138.035625 
Q 142.127813 140.235625 144.327812 140.235625 
z
" style="fill:#ffffff;opacity:0.8;stroke:#cccccc;stroke-linejoin:miter;"/>
    </g>
    <g id="line2d_18">
     <path d="M 146.527813 48.968281 
L 168.527813 48.968281 
" style="fill:none;stroke:#0000ff;stroke-linecap:square;stroke-width:2;"/>
    </g>
    <g id="line2d_19"/>
    <g id="text_18">
     <!-- ture function -->
     <g transform="translate(177.327813 52.818281)scale(0.11 -0.11)">
      <defs>
       <path d="M 544 1381 
L 544 3500 
L 1119 3500 
L 1119 1403 
Q 1119 906 1312 657 
Q 1506 409 1894 409 
Q 2359 409 2629 706 
Q 2900 1003 2900 1516 
L 2900 3500 
L 3475 3500 
L 3475 0 
L 2900 0 
L 2900 538 
Q 2691 219 2414 64 
Q 2138 -91 1772 -91 
Q 1169 -91 856 284 
Q 544 659 544 1381 
z
M 1991 3584 
L 1991 3584 
z
" id="DejaVuSans-75" transform="scale(0.015625)"/>
       <path d="M 2375 4863 
L 2375 4384 
L 1825 4384 
Q 1516 4384 1395 4259 
Q 1275 4134 1275 3809 
L 1275 3500 
L 2222 3500 
L 2222 3053 
L 1275 3053 
L 1275 0 
L 697 0 
L 697 3053 
L 147 3053 
L 147 3500 
L 697 3500 
L 697 3744 
Q 697 4328 969 4595 
Q 1241 4863 1831 4863 
L 2375 4863 
z
" id="DejaVuSans-66" transform="scale(0.015625)"/>
       <path d="M 3513 2113 
L 3513 0 
L 2938 0 
L 2938 2094 
Q 2938 2591 2744 2837 
Q 2550 3084 2163 3084 
Q 1697 3084 1428 2787 
Q 1159 2491 1159 1978 
L 1159 0 
L 581 0 
L 581 3500 
L 1159 3500 
L 1159 2956 
Q 1366 3272 1645 3428 
Q 1925 3584 2291 3584 
Q 2894 3584 3203 3211 
Q 3513 2838 3513 2113 
z
" id="DejaVuSans-6e" transform="scale(0.015625)"/>
       <path d="M 3122 3366 
L 3122 2828 
Q 2878 2963 2633 3030 
Q 2388 3097 2138 3097 
Q 1578 3097 1268 2742 
Q 959 2388 959 1747 
Q 959 1106 1268 751 
Q 1578 397 2138 397 
Q 2388 397 2633 464 
Q 2878 531 3122 666 
L 3122 134 
Q 2881 22 2623 -34 
Q 2366 -91 2075 -91 
Q 1284 -91 818 406 
Q 353 903 353 1747 
Q 353 2603 823 3093 
Q 1294 3584 2113 3584 
Q 2378 3584 2631 3529 
Q 2884 3475 3122 3366 
z
" id="DejaVuSans-63" transform="scale(0.015625)"/>
       <path d="M 603 3500 
L 1178 3500 
L 1178 0 
L 603 0 
L 603 3500 
z
M 603 4863 
L 1178 4863 
L 1178 4134 
L 603 4134 
L 603 4863 
z
" id="DejaVuSans-69" transform="scale(0.015625)"/>
      </defs>
      <use xlink:href="#DejaVuSans-74"/>
      <use x="39.208984" xlink:href="#DejaVuSans-75"/>
      <use x="102.587891" xlink:href="#DejaVuSans-72"/>
      <use x="141.451172" xlink:href="#DejaVuSans-65"/>
      <use x="202.974609" xlink:href="#DejaVuSans-20"/>
      <use x="234.761719" xlink:href="#DejaVuSans-66"/>
      <use x="269.966797" xlink:href="#DejaVuSans-75"/>
      <use x="333.345703" xlink:href="#DejaVuSans-6e"/>
      <use x="396.724609" xlink:href="#DejaVuSans-63"/>
      <use x="451.705078" xlink:href="#DejaVuSans-74"/>
      <use x="490.914062" xlink:href="#DejaVuSans-69"/>
      <use x="518.697266" xlink:href="#DejaVuSans-6f"/>
      <use x="579.878906" xlink:href="#DejaVuSans-6e"/>
     </g>
    </g>
    <g id="line2d_20">
     <path d="M 146.527813 65.114219 
L 168.527813 65.114219 
" style="fill:none;stroke:#000000;stroke-dasharray:7.4,3.2;stroke-dashoffset:0;stroke-width:2;"/>
    </g>
    <g id="line2d_21"/>
    <g id="text_19">
     <!-- predicted function -->
     <g transform="translate(177.327813 68.964219)scale(0.11 -0.11)">
      <defs>
       <path d="M 1159 525 
L 1159 -1331 
L 581 -1331 
L 581 3500 
L 1159 3500 
L 1159 2969 
Q 1341 3281 1617 3432 
Q 1894 3584 2278 3584 
Q 2916 3584 3314 3078 
Q 3713 2572 3713 1747 
Q 3713 922 3314 415 
Q 2916 -91 2278 -91 
Q 1894 -91 1617 61 
Q 1341 213 1159 525 
z
M 3116 1747 
Q 3116 2381 2855 2742 
Q 2594 3103 2138 3103 
Q 1681 3103 1420 2742 
Q 1159 2381 1159 1747 
Q 1159 1113 1420 752 
Q 1681 391 2138 391 
Q 2594 391 2855 752 
Q 3116 1113 3116 1747 
z
" id="DejaVuSans-70" transform="scale(0.015625)"/>
      </defs>
      <use xlink:href="#DejaVuSans-70"/>
      <use x="63.476562" xlink:href="#DejaVuSans-72"/>
      <use x="102.339844" xlink:href="#DejaVuSans-65"/>
      <use x="163.863281" xlink:href="#DejaVuSans-64"/>
      <use x="227.339844" xlink:href="#DejaVuSans-69"/>
      <use x="255.123047" xlink:href="#DejaVuSans-63"/>
      <use x="310.103516" xlink:href="#DejaVuSans-74"/>
      <use x="349.3125" xlink:href="#DejaVuSans-65"/>
      <use x="410.835938" xlink:href="#DejaVuSans-64"/>
      <use x="474.3125" xlink:href="#DejaVuSans-20"/>
      <use x="506.099609" xlink:href="#DejaVuSans-66"/>
      <use x="541.304688" xlink:href="#DejaVuSans-75"/>
      <use x="604.683594" xlink:href="#DejaVuSans-6e"/>
      <use x="668.0625" xlink:href="#DejaVuSans-63"/>
      <use x="723.042969" xlink:href="#DejaVuSans-74"/>
      <use x="762.251953" xlink:href="#DejaVuSans-69"/>
      <use x="790.035156" xlink:href="#DejaVuSans-6f"/>
      <use x="851.216797" xlink:href="#DejaVuSans-6e"/>
     </g>
    </g>
    <g id="line2d_22">
     <path d="M 146.527813 81.260156 
L 168.527813 81.260156 
" style="fill:none;stroke:#008000;stroke-dasharray:3.7,1.6;stroke-dashoffset:0;"/>
    </g>
    <g id="line2d_23"/>
    <g id="text_20">
     <!--  ± Sn(x) -->
     <g transform="translate(177.327813 85.110156)scale(0.11 -0.11)">
      <defs>
       <path d="M 2944 4013 
L 2944 2803 
L 4684 2803 
L 4684 2272 
L 2944 2272 
L 2944 1063 
L 2419 1063 
L 2419 2272 
L 678 2272 
L 678 2803 
L 2419 2803 
L 2419 4013 
L 2944 4013 
z
M 678 531 
L 4684 531 
L 4684 0 
L 678 0 
L 678 531 
z
" id="DejaVuSans-b1" transform="scale(0.015625)"/>
       <path d="M 3425 4513 
L 3425 3897 
Q 3066 4069 2747 4153 
Q 2428 4238 2131 4238 
Q 1616 4238 1336 4038 
Q 1056 3838 1056 3469 
Q 1056 3159 1242 3001 
Q 1428 2844 1947 2747 
L 2328 2669 
Q 3034 2534 3370 2195 
Q 3706 1856 3706 1288 
Q 3706 609 3251 259 
Q 2797 -91 1919 -91 
Q 1588 -91 1214 -16 
Q 841 59 441 206 
L 441 856 
Q 825 641 1194 531 
Q 1563 422 1919 422 
Q 2459 422 2753 634 
Q 3047 847 3047 1241 
Q 3047 1584 2836 1778 
Q 2625 1972 2144 2069 
L 1759 2144 
Q 1053 2284 737 2584 
Q 422 2884 422 3419 
Q 422 4038 858 4394 
Q 1294 4750 2059 4750 
Q 2388 4750 2728 4690 
Q 3069 4631 3425 4513 
z
" id="DejaVuSans-53" transform="scale(0.015625)"/>
       <path d="M 1984 4856 
Q 1566 4138 1362 3434 
Q 1159 2731 1159 2009 
Q 1159 1288 1364 580 
Q 1569 -128 1984 -844 
L 1484 -844 
Q 1016 -109 783 600 
Q 550 1309 550 2009 
Q 550 2706 781 3412 
Q 1013 4119 1484 4856 
L 1984 4856 
z
" id="DejaVuSans-28" transform="scale(0.015625)"/>
       <path d="M 513 4856 
L 1013 4856 
Q 1481 4119 1714 3412 
Q 1947 2706 1947 2009 
Q 1947 1309 1714 600 
Q 1481 -109 1013 -844 
L 513 -844 
Q 928 -128 1133 580 
Q 1338 1288 1338 2009 
Q 1338 2731 1133 3434 
Q 928 4138 513 4856 
z
" id="DejaVuSans-29" transform="scale(0.015625)"/>
      </defs>
      <use xlink:href="#DejaVuSans-20"/>
      <use x="31.787109" xlink:href="#DejaVuSans-b1"/>
      <use x="115.576172" xlink:href="#DejaVuSans-20"/>
      <use x="147.363281" xlink:href="#DejaVuSans-53"/>
      <use x="210.839844" xlink:href="#DejaVuSans-6e"/>
      <use x="274.21875" xlink:href="#DejaVuSans-28"/>
      <use x="313.232422" xlink:href="#DejaVuSans-78"/>
      <use x="372.412109" xlink:href="#DejaVuSans-29"/>
     </g>
    </g>
    <g id="line2d_24">
     <path d="M 146.527813 97.406094 
L 168.527813 97.406094 
" style="fill:none;stroke:#bfbf00;stroke-dasharray:7.4,3.2;stroke-dashoffset:0;stroke-width:2;"/>
    </g>
    <g id="line2d_25"/>
    <g id="text_21">
     <!-- REI(x) -->
     <g transform="translate(177.327813 101.256094)scale(0.11 -0.11)">
      <use xlink:href="#DejaVuSans-52"/>
      <use x="69.482422" xlink:href="#DejaVuSans-45"/>
      <use x="132.666016" xlink:href="#DejaVuSans-49"/>
      <use x="162.158203" xlink:href="#DejaVuSans-28"/>
      <use x="201.171875" xlink:href="#DejaVuSans-78"/>
      <use x="260.351562" xlink:href="#DejaVuSans-29"/>
     </g>
    </g>
    <g id="PathCollection_2">
     <defs>
      <path d="M 0 3.535534 
C 0.937635 3.535534 1.836992 3.163008 2.5 2.5 
C 3.163008 1.836992 3.535534 0.937635 3.535534 0 
C 3.535534 -0.937635 3.163008 -1.836992 2.5 -2.5 
C 1.836992 -3.163008 0.937635 -3.535534 0 -3.535534 
C -0.937635 -3.535534 -1.836992 -3.163008 -2.5 -2.5 
C -3.163008 -1.836992 -3.535534 -0.937635 -3.535534 0 
C -3.535534 0.937635 -3.163008 1.836992 -2.5 2.5 
C -1.836992 3.163008 -0.937635 3.535534 0 3.535534 
z
" id="mc09162ca43" style="stroke:#000000;"/>
     </defs>
     <g>
      <use style="fill:#ff0000;stroke:#000000;" x="157.527813" xlink:href="#mc09162ca43" y="114.514531"/>
     </g>
    </g>
    <g id="text_22">
     <!-- training data -->
     <g transform="translate(177.327813 117.402031)scale(0.11 -0.11)">
      <defs>
       <path d="M 2194 1759 
Q 1497 1759 1228 1600 
Q 959 1441 959 1056 
Q 959 750 1161 570 
Q 1363 391 1709 391 
Q 2188 391 2477 730 
Q 2766 1069 2766 1631 
L 2766 1759 
L 2194 1759 
z
M 3341 1997 
L 3341 0 
L 2766 0 
L 2766 531 
Q 2569 213 2275 61 
Q 1981 -91 1556 -91 
Q 1019 -91 701 211 
Q 384 513 384 1019 
Q 384 1609 779 1909 
Q 1175 2209 1959 2209 
L 2766 2209 
L 2766 2266 
Q 2766 2663 2505 2880 
Q 2244 3097 1772 3097 
Q 1472 3097 1187 3025 
Q 903 2953 641 2809 
L 641 3341 
Q 956 3463 1253 3523 
Q 1550 3584 1831 3584 
Q 2591 3584 2966 3190 
Q 3341 2797 3341 1997 
z
" id="DejaVuSans-61" transform="scale(0.015625)"/>
       <path d="M 2906 1791 
Q 2906 2416 2648 2759 
Q 2391 3103 1925 3103 
Q 1463 3103 1205 2759 
Q 947 2416 947 1791 
Q 947 1169 1205 825 
Q 1463 481 1925 481 
Q 2391 481 2648 825 
Q 2906 1169 2906 1791 
z
M 3481 434 
Q 3481 -459 3084 -895 
Q 2688 -1331 1869 -1331 
Q 1566 -1331 1297 -1286 
Q 1028 -1241 775 -1147 
L 775 -588 
Q 1028 -725 1275 -790 
Q 1522 -856 1778 -856 
Q 2344 -856 2625 -561 
Q 2906 -266 2906 331 
L 2906 616 
Q 2728 306 2450 153 
Q 2172 0 1784 0 
Q 1141 0 747 490 
Q 353 981 353 1791 
Q 353 2603 747 3093 
Q 1141 3584 1784 3584 
Q 2172 3584 2450 3431 
Q 2728 3278 2906 2969 
L 2906 3500 
L 3481 3500 
L 3481 434 
z
" id="DejaVuSans-67" transform="scale(0.015625)"/>
      </defs>
      <use xlink:href="#DejaVuSans-74"/>
      <use x="39.208984" xlink:href="#DejaVuSans-72"/>
      <use x="80.322266" xlink:href="#DejaVuSans-61"/>
      <use x="141.601562" xlink:href="#DejaVuSans-69"/>
      <use x="169.384766" xlink:href="#DejaVuSans-6e"/>
      <use x="232.763672" xlink:href="#DejaVuSans-69"/>
      <use x="260.546875" xlink:href="#DejaVuSans-6e"/>
      <use x="323.925781" xlink:href="#DejaVuSans-67"/>
      <use x="387.402344" xlink:href="#DejaVuSans-20"/>
      <use x="419.189453" xlink:href="#DejaVuSans-64"/>
      <use x="482.666016" xlink:href="#DejaVuSans-61"/>
      <use x="543.945312" xlink:href="#DejaVuSans-74"/>
      <use x="583.154297" xlink:href="#DejaVuSans-61"/>
     </g>
    </g>
    <g id="PathCollection_3">
     <g>
      <use style="fill:#ff0000;stroke:#ff0000;stroke-width:8;" x="157.527813" xlink:href="#m048c65f7c2" y="130.660469"/>
     </g>
    </g>
    <g id="text_23">
     <!-- recommended datum -->
     <g transform="translate(177.327813 133.547969)scale(0.11 -0.11)">
      <defs>
       <path d="M 3328 2828 
Q 3544 3216 3844 3400 
Q 4144 3584 4550 3584 
Q 5097 3584 5394 3201 
Q 5691 2819 5691 2113 
L 5691 0 
L 5113 0 
L 5113 2094 
Q 5113 2597 4934 2840 
Q 4756 3084 4391 3084 
Q 3944 3084 3684 2787 
Q 3425 2491 3425 1978 
L 3425 0 
L 2847 0 
L 2847 2094 
Q 2847 2600 2669 2842 
Q 2491 3084 2119 3084 
Q 1678 3084 1418 2786 
Q 1159 2488 1159 1978 
L 1159 0 
L 581 0 
L 581 3500 
L 1159 3500 
L 1159 2956 
Q 1356 3278 1631 3431 
Q 1906 3584 2284 3584 
Q 2666 3584 2933 3390 
Q 3200 3197 3328 2828 
z
" id="DejaVuSans-6d" transform="scale(0.015625)"/>
      </defs>
      <use xlink:href="#DejaVuSans-72"/>
      <use x="38.863281" xlink:href="#DejaVuSans-65"/>
      <use x="100.386719" xlink:href="#DejaVuSans-63"/>
      <use x="155.367188" xlink:href="#DejaVuSans-6f"/>
      <use x="216.548828" xlink:href="#DejaVuSans-6d"/>
      <use x="313.960938" xlink:href="#DejaVuSans-6d"/>
      <use x="411.373047" xlink:href="#DejaVuSans-65"/>
      <use x="472.896484" xlink:href="#DejaVuSans-6e"/>
      <use x="536.275391" xlink:href="#DejaVuSans-64"/>
      <use x="599.751953" xlink:href="#DejaVuSans-65"/>
      <use x="661.275391" xlink:href="#DejaVuSans-64"/>
      <use x="724.751953" xlink:href="#DejaVuSans-20"/>
      <use x="756.539062" xlink:href="#DejaVuSans-64"/>
      <use x="820.015625" xlink:href="#DejaVuSans-61"/>
      <use x="881.294922" xlink:href="#DejaVuSans-74"/>
      <use x="920.503906" xlink:href="#DejaVuSans-75"/>
      <use x="983.882812" xlink:href="#DejaVuSans-6d"/>
     </g>
    </g>
   </g>
   <g id="line2d_26">
    <path clip-path="url(#pac5c15f76c)" d="M 69.218182 117.610032 
L 71.985124 117.755436 
L 74.752066 119.062072 
L 77.519008 121.544169 
L 80.28595 125.163648 
L 83.052893 129.829787 
L 85.819835 135.402604 
L 88.586777 141.699846 
L 91.353719 148.507126 
L 94.120661 155.590419 
L 96.887603 162.70989 
L 99.654545 169.633889 
L 102.421488 176.151942 
L 105.18843 182.085692 
L 107.955372 187.296978 
L 110.722314 191.692573 
L 113.489256 195.225454 
L 116.256198 197.892835 
L 119.02314 199.731479 
L 121.790083 200.81101 
L 124.557025 201.226047 
L 127.323967 201.087952 
L 130.090909 200.516862 
L 132.857851 199.634517 
L 135.624793 198.558158 
L 138.391736 197.395623 
L 141.158678 196.241561 
L 143.92562 195.174657 
L 146.692562 194.255699 
L 149.459504 193.526373 
L 152.226446 193.008742 
L 154.993388 192.705435 
L 157.760331 192.600627 
L 160.527273 192.661917 
L 163.294215 192.84316 
L 166.061157 193.088241 
L 168.828099 193.335653 
L 171.595041 193.523627 
L 174.361983 193.595449 
L 177.128926 193.504521 
L 179.895868 193.218724 
L 182.66281 192.723656 
L 185.429752 192.024458 
L 188.196694 191.146043 
L 190.963636 190.131737 
L 193.730579 189.040471 
L 196.497521 187.942842 
L 199.264463 186.916399 
L 202.031405 186.040606 
L 204.798347 185.391887 
L 207.565289 185.039117 
L 210.332231 185.039845 
L 213.099174 185.437408 
L 215.866116 186.259018 
L 218.633058 187.514793 
L 221.4 189.197651 
L 224.166942 191.283941 
L 226.933884 193.734682 
L 229.700826 196.497275 
L 232.467769 199.507614 
L 235.234711 202.692507 
L 238.001653 205.972386 
L 240.768595 209.26426 
L 243.535537 212.484895 
L 246.302479 215.554163 
L 249.069421 218.398475 
L 251.836364 220.954166 
L 254.603306 223.170675 
L 257.370248 225.013274 
L 260.13719 226.465135 
L 262.904132 227.528468 
L 265.671074 228.224498 
L 268.438017 228.59211 
L 271.204959 228.685024 
L 273.971901 228.567513 
L 276.738843 228.30874 
L 279.505785 227.975978 
L 282.272727 227.627076 
L 285.039669 227.302669 
L 287.806612 227.018775 
L 290.573554 226.760433 
L 293.340496 226.477124 
L 296.107438 226.080621 
L 298.87438 225.445855 
L 301.641322 224.415157 
L 304.408264 222.806012 
L 307.175207 220.422155 
L 309.942149 217.067491 
L 312.709091 212.562007 
L 315.476033 206.758534 
L 318.242975 199.559023 
L 321.009917 190.928865 
L 323.77686 180.907857 
L 326.543802 169.616545 
L 329.310744 157.257053 
L 332.077686 144.107902 
L 334.844628 130.512884 
L 337.61157 116.864562 
L 340.378512 103.583532 
L 343.145455 91.094954 
L 345.912397 79.804183 
L 348.679339 70.073411 
L 351.446281 62.201151 
L 354.213223 56.406142 
L 356.980165 52.816827 
L 359.747107 51.467041 
L 362.51405 52.297996 
L 365.280992 55.166081 
L 368.047934 59.855572 
L 370.814876 66.094948 
L 373.581818 73.575328 
" style="fill:none;stroke:#000000;stroke-dasharray:7.4,3.2;stroke-dashoffset:0;stroke-width:2;"/>
   </g>
   <g id="PathCollection_4">
    <g clip-path="url(#pac5c15f76c)">
     <use style="fill:#ff0000;stroke:#000000;" x="83.052893" xlink:href="#mc09162ca43" y="129.399309"/>
     <use style="fill:#ff0000;stroke:#000000;" x="96.887603" xlink:href="#mc09162ca43" y="162.429541"/>
     <use style="fill:#ff0000;stroke:#000000;" x="110.722314" xlink:href="#mc09162ca43" y="193.170209"/>
     <use style="fill:#ff0000;stroke:#000000;" x="124.557025" xlink:href="#mc09162ca43" y="199.248575"/>
     <use style="fill:#ff0000;stroke:#000000;" x="138.391736" xlink:href="#mc09162ca43" y="199.347548"/>
     <use style="fill:#ff0000;stroke:#000000;" x="152.226446" xlink:href="#mc09162ca43" y="191.611971"/>
     <use style="fill:#ff0000;stroke:#000000;" x="166.061157" xlink:href="#mc09162ca43" y="193.66847"/>
     <use style="fill:#ff0000;stroke:#000000;" x="179.895868" xlink:href="#mc09162ca43" y="193.283098"/>
     <use style="fill:#ff0000;stroke:#000000;" x="193.730579" xlink:href="#mc09162ca43" y="188.924027"/>
     <use style="fill:#ff0000;stroke:#000000;" x="318.242975" xlink:href="#mc09162ca43" y="199.289596"/>
     <use style="fill:#ff0000;stroke:#000000;" x="332.077686" xlink:href="#mc09162ca43" y="145.37007"/>
     <use style="fill:#ff0000;stroke:#000000;" x="345.912397" xlink:href="#mc09162ca43" y="78.407322"/>
     <use style="fill:#ff0000;stroke:#000000;" x="304.408264" xlink:href="#mc09162ca43" y="222.845878"/>
     <use style="fill:#ff0000;stroke:#000000;" x="262.904132" xlink:href="#mc09162ca43" y="227.725955"/>
    </g>
   </g>
  </g>
 </g>
 <defs>
  <clipPath id="pac5c15f76c">
   <rect height="217.44" width="334.8" x="54" y="34.56"/>
  </clipPath>
 </defs>
</svg>
