<?xml version="1.0" encoding="utf-8" standalone="no"?>
<!DOCTYPE svg PUBLIC "-//W3C//DTD SVG 1.1//EN"
  "http://www.w3.org/Graphics/SVG/1.1/DTD/svg11.dtd">
<svg height="288pt" version="1.1" viewBox="0 0 432 288" width="432pt" xmlns="http://www.w3.org/2000/svg" xmlns:xlink="http://www.w3.org/1999/xlink">
 <metadata>
  <rdf:RDF xmlns:cc="http://creativecommons.org/ns#" xmlns:dc="http://purl.org/dc/elements/1.1/" xmlns:rdf="http://www.w3.org/1999/02/22-rdf-syntax-ns#">
   <cc:Work>
    <dc:type rdf:resource="http://purl.org/dc/dcmitype/StillImage"/>
    <dc:date>2022-08-04T17:14:50.905491</dc:date>
    <dc:format>image/svg+xml</dc:format>
    <dc:creator>
     <cc:Agent>
      <dc:title>Matplotlib v3.4.3, https://matplotlib.org/</dc:title>
     </cc:Agent>
    </dc:creator>
   </cc:Work>
  </rdf:RDF>
 </metadata>
 <defs>
  <style type="text/css">*{stroke-linecap:butt;stroke-linejoin:round;}</style>
 </defs>
 <g id="figure_1">
  <g id="patch_1">
   <path d="M 0 288 
L 432 288 
L 432 0 
L 0 0 
z
" style="fill:none;"/>
  </g>
  <g id="axes_1">
   <g id="patch_2">
    <path d="M 54 252 
L 388.8 252 
L 388.8 34.56 
L 54 34.56 
z
" style="fill:#ffffff;"/>
   </g>
   <g id="PolyCollection_1">
    <defs>
     <path d="M 69.218182 -179.384589 
L 69.218182 -149.041316 
L 71.985124 -152.988672 
L 74.752066 -155.582202 
L 77.519008 -156.583275 
L 80.28595 -155.803976 
L 83.052893 -153.136866 
L 85.819835 -148.675021 
L 88.586777 -142.828802 
L 91.353719 -136.14292 
L 94.120661 -129.064043 
L 96.887603 -121.918539 
L 99.654545 -114.958259 
L 102.421488 -108.392012 
L 105.18843 -102.400697 
L 107.955372 -97.138165 
L 110.722314 -92.719272 
L 113.489256 -89.204623 
L 116.256198 -86.593917 
L 119.02314 -84.831999 
L 121.790083 -83.82392 
L 124.557025 -83.452734 
L 127.323967 -83.594833 
L 130.090909 -84.130144 
L 132.857851 -84.947246 
L 135.624793 -85.945159 
L 138.391736 -87.03362 
L 141.158678 -88.132907 
L 143.92562 -89.173677 
L 146.692562 -90.097242 
L 149.459504 -90.856906 
L 152.226446 -91.420756 
L 154.993388 -91.775297 
L 157.760331 -91.928066 
L 160.527273 -91.906924 
L 163.294215 -91.754927 
L 166.061157 -91.522079 
L 168.828099 -91.257693 
L 171.595041 -91.008239 
L 174.361983 -90.823304 
L 177.128926 -90.765028 
L 179.895868 -90.90916 
L 182.66281 -91.328945 
L 185.429752 -92.061677 
L 188.196694 -93.057547 
L 190.963636 -94.114729 
L 193.730579 -94.884933 
L 196.497521 -95.093139 
L 199.264463 -94.713036 
L 202.031405 -93.848492 
L 204.798347 -92.617386 
L 207.565289 -91.130698 
L 210.332231 -89.49444 
L 213.099174 -87.808578 
L 215.866116 -86.162563 
L 218.633058 -84.630194 
L 221.4 -83.265708 
L 224.166942 -82.102023 
L 226.933884 -81.151322 
L 229.700826 -80.407676 
L 232.467769 -79.851081 
L 235.234711 -79.452122 
L 238.001653 -79.176517 
L 240.768595 -78.988907 
L 243.535537 -78.855496 
L 246.302479 -78.745428 
L 249.069421 -78.631019 
L 251.836364 -78.487154 
L 254.603306 -78.290267 
L 257.370248 -78.017313 
L 260.13719 -77.64512 
L 262.904132 -77.150392 
L 265.671074 -76.51053 
L 268.438017 -75.705328 
L 271.204959 -74.719441 
L 273.971901 -73.545438 
L 276.738843 -72.18715 
L 279.505785 -70.662971 
L 282.272727 -69.00881 
L 285.039669 -67.280429 
L 287.806612 -65.554965 
L 290.573554 -63.931493 
L 293.340496 -62.530507 
L 296.107438 -61.492146 
L 298.87438 -60.972936 
L 301.641322 -61.140721 
L 304.408264 -62.167289 
L 307.175207 -64.218006 
L 309.942149 -67.437306 
L 312.709091 -71.928583 
L 315.476033 -77.730206 
L 318.242975 -84.813229 
L 321.009917 -93.17189 
L 323.77686 -102.928498 
L 326.543802 -114.170439 
L 329.310744 -126.748391 
L 332.077686 -140.29236 
L 334.844628 -154.299389 
L 337.61157 -168.191663 
L 340.378512 -181.328186 
L 343.145455 -192.980651 
L 345.912397 -202.36922 
L 348.679339 -208.900181 
L 351.446281 -212.346387 
L 354.213223 -212.740866 
L 356.980165 -210.267256 
L 359.747107 -205.228445 
L 362.51405 -198.026533 
L 365.280992 -189.133343 
L 368.047934 -179.054582 
L 370.814876 -168.293496 
L 373.581818 -157.31859 
L 373.581818 -214.332886 
L 373.581818 -214.332886 
L 370.814876 -220.951474 
L 368.047934 -226.750937 
L 365.280992 -231.369889 
L 362.51405 -234.466029 
L 359.747107 -235.74303 
L 356.980165 -234.977448 
L 354.213223 -232.044278 
L 351.446281 -226.940518 
L 348.679339 -219.803711 
L 345.912397 -210.899698 
L 343.145455 -200.509541 
L 340.378512 -188.796293 
L 337.61157 -175.937138 
L 334.844628 -162.295592 
L 332.077686 -148.380982 
L 329.310744 -134.744593 
L 326.543802 -121.915914 
L 323.77686 -110.396606 
L 321.009917 -100.70078 
L 318.242975 -93.343707 
L 315.476033 -88.633736 
L 312.709091 -86.522715 
L 309.942149 -86.740718 
L 307.175207 -88.928197 
L 304.408264 -92.681874 
L 301.641322 -97.580217 
L 298.87438 -103.209482 
L 296.107438 -109.188501 
L 293.340496 -115.188485 
L 290.573554 -120.945788 
L 287.806612 -126.267148 
L 285.039669 -131.028077 
L 282.272727 -135.165825 
L 279.505785 -138.668703 
L 276.738843 -141.563628 
L 273.971901 -143.903555 
L 271.204959 -145.756094 
L 268.438017 -147.194145 
L 265.671074 -148.288888 
L 262.904132 -149.105071 
L 260.13719 -149.698228 
L 257.370248 -150.113309 
L 254.603306 -150.384175 
L 251.836364 -150.533502 
L 249.069421 -150.572759 
L 246.302479 -150.502123 
L 243.535537 -150.31035 
L 240.768595 -149.974816 
L 238.001653 -149.462037 
L 235.234711 -148.729056 
L 232.467769 -147.726022 
L 229.700826 -146.400141 
L 226.933884 -144.700957 
L 224.166942 -142.586645 
L 221.4 -140.03076 
L 218.633058 -137.028696 
L 215.866116 -133.603027 
L 213.099174 -129.806987 
L 210.332231 -125.725547 
L 207.565289 -121.473971 
L 204.798347 -117.194377 
L 202.031405 -113.051767 
L 199.264463 -109.231868 
L 196.497521 -105.940099 
L 193.730579 -103.375704 
L 190.963636 -101.608822 
L 188.196694 -100.453827 
L 185.429752 -99.636045 
L 182.66281 -99.003186 
L 179.895868 -98.524108 
L 177.128926 -98.219728 
L 174.361983 -98.111117 
L 171.595041 -98.189158 
L 168.828099 -98.405263 
L 166.061157 -98.682332 
L 163.294215 -98.935961 
L 160.527273 -99.092608 
L 157.760331 -99.09852 
L 154.993388 -98.920771 
L 152.226446 -98.544487 
L 149.459504 -97.969801 
L 146.692562 -97.210346 
L 143.92562 -96.293177 
L 141.158678 -95.259073 
L 138.391736 -94.162497 
L 135.624793 -93.071324 
L 132.857851 -92.066745 
L 130.090909 -91.243248 
L 127.323967 -90.707729 
L 124.557025 -90.576465 
L 121.790083 -90.969394 
L 119.02314 -92.002453 
L 116.256198 -93.7796 
L 113.489256 -96.385657 
L 110.722314 -99.879526 
L 107.955372 -104.285735 
L 105.18843 -109.581616 
L 102.421488 -115.679826 
L 99.654545 -122.412959 
L 96.887603 -129.533487 
L 94.120661 -136.738285 
L 91.353719 -143.717288 
L 88.586777 -150.225081 
L 85.819835 -156.169115 
L 83.052893 -161.627637 
L 80.28595 -166.650935 
L 77.519008 -171.102106 
L 74.752066 -174.785477 
L 71.985124 -177.565663 
L 69.218182 -179.384589 
z
" id="maf53587548" style="stroke:#add8e6;stroke-opacity:0.2;"/>
    </defs>
    <g clip-path="url(#p1719696207)">
     <use style="fill:#add8e6;fill-opacity:0.2;stroke:#add8e6;stroke-opacity:0.2;" x="0" xlink:href="#maf53587548" y="288"/>
    </g>
   </g>
   <g id="PathCollection_1">
    <defs>
     <path d="M 0 0.612372 
C 0.162403 0.612372 0.318176 0.547849 0.433013 0.433013 
C 0.547849 0.318176 0.612372 0.162403 0.612372 0 
C 0.612372 -0.162403 0.547849 -0.318176 0.433013 -0.433013 
C 0.318176 -0.547849 0.162403 -0.612372 0 -0.612372 
C -0.162403 -0.612372 -0.318176 -0.547849 -0.433013 -0.433013 
C -0.547849 -0.318176 -0.612372 -0.162403 -0.612372 0 
C -0.612372 0.162403 -0.547849 0.318176 -0.433013 0.433013 
C -0.318176 0.547849 -0.162403 0.612372 0 0.612372 
z
" id="m26e67f2b3e" style="stroke:#ff0000;stroke-width:8;"/>
    </defs>
    <g clip-path="url(#p1719696207)">
     <use style="fill:#ff0000;stroke:#ff0000;stroke-width:8;" x="298.87438" xlink:href="#m26e67f2b3e" y="174.570713"/>
    </g>
   </g>
   <g id="matplotlib.axis_1">
    <g id="xtick_1">
     <g id="line2d_1">
      <defs>
       <path d="M 0 0 
L 0 3.5 
" id="m5ac2a576af" style="stroke:#000000;stroke-width:0.8;"/>
      </defs>
      <g>
       <use style="stroke:#000000;stroke-width:0.8;" x="69.218182" xlink:href="#m5ac2a576af" y="252"/>
      </g>
     </g>
     <g id="text_1">
      <!-- 0 -->
      <g transform="translate(66.036932 266.598437)scale(0.1 -0.1)">
       <defs>
        <path d="M 2034 4250 
Q 1547 4250 1301 3770 
Q 1056 3291 1056 2328 
Q 1056 1369 1301 889 
Q 1547 409 2034 409 
Q 2525 409 2770 889 
Q 3016 1369 3016 2328 
Q 3016 3291 2770 3770 
Q 2525 4250 2034 4250 
z
M 2034 4750 
Q 2819 4750 3233 4129 
Q 3647 3509 3647 2328 
Q 3647 1150 3233 529 
Q 2819 -91 2034 -91 
Q 1250 -91 836 529 
Q 422 1150 422 2328 
Q 422 3509 836 4129 
Q 1250 4750 2034 4750 
z
" id="DejaVuSans-30" transform="scale(0.015625)"/>
       </defs>
       <use xlink:href="#DejaVuSans-30"/>
      </g>
     </g>
    </g>
    <g id="xtick_2">
     <g id="line2d_2">
      <g>
       <use style="stroke:#000000;stroke-width:0.8;" x="124.557025" xlink:href="#m5ac2a576af" y="252"/>
      </g>
     </g>
     <g id="text_2">
      <!-- 2 -->
      <g transform="translate(121.375775 266.598437)scale(0.1 -0.1)">
       <defs>
        <path d="M 1228 531 
L 3431 531 
L 3431 0 
L 469 0 
L 469 531 
Q 828 903 1448 1529 
Q 2069 2156 2228 2338 
Q 2531 2678 2651 2914 
Q 2772 3150 2772 3378 
Q 2772 3750 2511 3984 
Q 2250 4219 1831 4219 
Q 1534 4219 1204 4116 
Q 875 4013 500 3803 
L 500 4441 
Q 881 4594 1212 4672 
Q 1544 4750 1819 4750 
Q 2544 4750 2975 4387 
Q 3406 4025 3406 3419 
Q 3406 3131 3298 2873 
Q 3191 2616 2906 2266 
Q 2828 2175 2409 1742 
Q 1991 1309 1228 531 
z
" id="DejaVuSans-32" transform="scale(0.015625)"/>
       </defs>
       <use xlink:href="#DejaVuSans-32"/>
      </g>
     </g>
    </g>
    <g id="xtick_3">
     <g id="line2d_3">
      <g>
       <use style="stroke:#000000;stroke-width:0.8;" x="179.895868" xlink:href="#m5ac2a576af" y="252"/>
      </g>
     </g>
     <g id="text_3">
      <!-- 4 -->
      <g transform="translate(176.714618 266.598437)scale(0.1 -0.1)">
       <defs>
        <path d="M 2419 4116 
L 825 1625 
L 2419 1625 
L 2419 4116 
z
M 2253 4666 
L 3047 4666 
L 3047 1625 
L 3713 1625 
L 3713 1100 
L 3047 1100 
L 3047 0 
L 2419 0 
L 2419 1100 
L 313 1100 
L 313 1709 
L 2253 4666 
z
" id="DejaVuSans-34" transform="scale(0.015625)"/>
       </defs>
       <use xlink:href="#DejaVuSans-34"/>
      </g>
     </g>
    </g>
    <g id="xtick_4">
     <g id="line2d_4">
      <g>
       <use style="stroke:#000000;stroke-width:0.8;" x="235.234711" xlink:href="#m5ac2a576af" y="252"/>
      </g>
     </g>
     <g id="text_4">
      <!-- 6 -->
      <g transform="translate(232.053461 266.598437)scale(0.1 -0.1)">
       <defs>
        <path d="M 2113 2584 
Q 1688 2584 1439 2293 
Q 1191 2003 1191 1497 
Q 1191 994 1439 701 
Q 1688 409 2113 409 
Q 2538 409 2786 701 
Q 3034 994 3034 1497 
Q 3034 2003 2786 2293 
Q 2538 2584 2113 2584 
z
M 3366 4563 
L 3366 3988 
Q 3128 4100 2886 4159 
Q 2644 4219 2406 4219 
Q 1781 4219 1451 3797 
Q 1122 3375 1075 2522 
Q 1259 2794 1537 2939 
Q 1816 3084 2150 3084 
Q 2853 3084 3261 2657 
Q 3669 2231 3669 1497 
Q 3669 778 3244 343 
Q 2819 -91 2113 -91 
Q 1303 -91 875 529 
Q 447 1150 447 2328 
Q 447 3434 972 4092 
Q 1497 4750 2381 4750 
Q 2619 4750 2861 4703 
Q 3103 4656 3366 4563 
z
" id="DejaVuSans-36" transform="scale(0.015625)"/>
       </defs>
       <use xlink:href="#DejaVuSans-36"/>
      </g>
     </g>
    </g>
    <g id="xtick_5">
     <g id="line2d_5">
      <g>
       <use style="stroke:#000000;stroke-width:0.8;" x="290.573554" xlink:href="#m5ac2a576af" y="252"/>
      </g>
     </g>
     <g id="text_5">
      <!-- 8 -->
      <g transform="translate(287.392304 266.598437)scale(0.1 -0.1)">
       <defs>
        <path d="M 2034 2216 
Q 1584 2216 1326 1975 
Q 1069 1734 1069 1313 
Q 1069 891 1326 650 
Q 1584 409 2034 409 
Q 2484 409 2743 651 
Q 3003 894 3003 1313 
Q 3003 1734 2745 1975 
Q 2488 2216 2034 2216 
z
M 1403 2484 
Q 997 2584 770 2862 
Q 544 3141 544 3541 
Q 544 4100 942 4425 
Q 1341 4750 2034 4750 
Q 2731 4750 3128 4425 
Q 3525 4100 3525 3541 
Q 3525 3141 3298 2862 
Q 3072 2584 2669 2484 
Q 3125 2378 3379 2068 
Q 3634 1759 3634 1313 
Q 3634 634 3220 271 
Q 2806 -91 2034 -91 
Q 1263 -91 848 271 
Q 434 634 434 1313 
Q 434 1759 690 2068 
Q 947 2378 1403 2484 
z
M 1172 3481 
Q 1172 3119 1398 2916 
Q 1625 2713 2034 2713 
Q 2441 2713 2670 2916 
Q 2900 3119 2900 3481 
Q 2900 3844 2670 4047 
Q 2441 4250 2034 4250 
Q 1625 4250 1398 4047 
Q 1172 3844 1172 3481 
z
" id="DejaVuSans-38" transform="scale(0.015625)"/>
       </defs>
       <use xlink:href="#DejaVuSans-38"/>
      </g>
     </g>
    </g>
    <g id="xtick_6">
     <g id="line2d_6">
      <g>
       <use style="stroke:#000000;stroke-width:0.8;" x="345.912397" xlink:href="#m5ac2a576af" y="252"/>
      </g>
     </g>
     <g id="text_6">
      <!-- 10 -->
      <g transform="translate(339.549897 266.598437)scale(0.1 -0.1)">
       <defs>
        <path d="M 794 531 
L 1825 531 
L 1825 4091 
L 703 3866 
L 703 4441 
L 1819 4666 
L 2450 4666 
L 2450 531 
L 3481 531 
L 3481 0 
L 794 0 
L 794 531 
z
" id="DejaVuSans-31" transform="scale(0.015625)"/>
       </defs>
       <use xlink:href="#DejaVuSans-31"/>
       <use x="63.623047" xlink:href="#DejaVuSans-30"/>
      </g>
     </g>
    </g>
    <g id="text_7">
     <!-- x -->
     <g transform="translate(217.84875 281.79625)scale(0.12 -0.12)">
      <defs>
       <path d="M 3513 3500 
L 2247 1797 
L 3578 0 
L 2900 0 
L 1881 1375 
L 863 0 
L 184 0 
L 1544 1831 
L 300 3500 
L 978 3500 
L 1906 2253 
L 2834 3500 
L 3513 3500 
z
" id="DejaVuSans-78" transform="scale(0.015625)"/>
      </defs>
      <use xlink:href="#DejaVuSans-78"/>
     </g>
    </g>
   </g>
   <g id="matplotlib.axis_2">
    <g id="ytick_1">
     <g id="line2d_7">
      <defs>
       <path d="M 0 0 
L -3.5 0 
" id="m027f3e9874" style="stroke:#000000;stroke-width:0.8;"/>
      </defs>
      <g>
       <use style="stroke:#000000;stroke-width:0.8;" x="54" xlink:href="#m027f3e9874" y="252"/>
      </g>
     </g>
     <g id="text_8">
      <!-- 3 -->
      <g transform="translate(40.6375 255.799219)scale(0.1 -0.1)">
       <defs>
        <path d="M 2597 2516 
Q 3050 2419 3304 2112 
Q 3559 1806 3559 1356 
Q 3559 666 3084 287 
Q 2609 -91 1734 -91 
Q 1441 -91 1130 -33 
Q 819 25 488 141 
L 488 750 
Q 750 597 1062 519 
Q 1375 441 1716 441 
Q 2309 441 2620 675 
Q 2931 909 2931 1356 
Q 2931 1769 2642 2001 
Q 2353 2234 1838 2234 
L 1294 2234 
L 1294 2753 
L 1863 2753 
Q 2328 2753 2575 2939 
Q 2822 3125 2822 3475 
Q 2822 3834 2567 4026 
Q 2313 4219 1838 4219 
Q 1578 4219 1281 4162 
Q 984 4106 628 3988 
L 628 4550 
Q 988 4650 1302 4700 
Q 1616 4750 1894 4750 
Q 2613 4750 3031 4423 
Q 3450 4097 3450 3541 
Q 3450 3153 3228 2886 
Q 3006 2619 2597 2516 
z
" id="DejaVuSans-33" transform="scale(0.015625)"/>
       </defs>
       <use xlink:href="#DejaVuSans-33"/>
      </g>
     </g>
    </g>
    <g id="ytick_2">
     <g id="line2d_8">
      <g>
       <use style="stroke:#000000;stroke-width:0.8;" x="54" xlink:href="#m027f3e9874" y="215.76"/>
      </g>
     </g>
     <g id="text_9">
      <!-- 4 -->
      <g transform="translate(40.6375 219.559219)scale(0.1 -0.1)">
       <use xlink:href="#DejaVuSans-34"/>
      </g>
     </g>
    </g>
    <g id="ytick_3">
     <g id="line2d_9">
      <g>
       <use style="stroke:#000000;stroke-width:0.8;" x="54" xlink:href="#m027f3e9874" y="179.52"/>
      </g>
     </g>
     <g id="text_10">
      <!-- 5 -->
      <g transform="translate(40.6375 183.319219)scale(0.1 -0.1)">
       <defs>
        <path d="M 691 4666 
L 3169 4666 
L 3169 4134 
L 1269 4134 
L 1269 2991 
Q 1406 3038 1543 3061 
Q 1681 3084 1819 3084 
Q 2600 3084 3056 2656 
Q 3513 2228 3513 1497 
Q 3513 744 3044 326 
Q 2575 -91 1722 -91 
Q 1428 -91 1123 -41 
Q 819 9 494 109 
L 494 744 
Q 775 591 1075 516 
Q 1375 441 1709 441 
Q 2250 441 2565 725 
Q 2881 1009 2881 1497 
Q 2881 1984 2565 2268 
Q 2250 2553 1709 2553 
Q 1456 2553 1204 2497 
Q 953 2441 691 2322 
L 691 4666 
z
" id="DejaVuSans-35" transform="scale(0.015625)"/>
       </defs>
       <use xlink:href="#DejaVuSans-35"/>
      </g>
     </g>
    </g>
    <g id="ytick_4">
     <g id="line2d_10">
      <g>
       <use style="stroke:#000000;stroke-width:0.8;" x="54" xlink:href="#m027f3e9874" y="143.28"/>
      </g>
     </g>
     <g id="text_11">
      <!-- 6 -->
      <g transform="translate(40.6375 147.079219)scale(0.1 -0.1)">
       <use xlink:href="#DejaVuSans-36"/>
      </g>
     </g>
    </g>
    <g id="ytick_5">
     <g id="line2d_11">
      <g>
       <use style="stroke:#000000;stroke-width:0.8;" x="54" xlink:href="#m027f3e9874" y="107.04"/>
      </g>
     </g>
     <g id="text_12">
      <!-- 7 -->
      <g transform="translate(40.6375 110.839219)scale(0.1 -0.1)">
       <defs>
        <path d="M 525 4666 
L 3525 4666 
L 3525 4397 
L 1831 0 
L 1172 0 
L 2766 4134 
L 525 4134 
L 525 4666 
z
" id="DejaVuSans-37" transform="scale(0.015625)"/>
       </defs>
       <use xlink:href="#DejaVuSans-37"/>
      </g>
     </g>
    </g>
    <g id="ytick_6">
     <g id="line2d_12">
      <g>
       <use style="stroke:#000000;stroke-width:0.8;" x="54" xlink:href="#m027f3e9874" y="70.8"/>
      </g>
     </g>
     <g id="text_13">
      <!-- 8 -->
      <g transform="translate(40.6375 74.599219)scale(0.1 -0.1)">
       <use xlink:href="#DejaVuSans-38"/>
      </g>
     </g>
    </g>
    <g id="ytick_7">
     <g id="line2d_13">
      <g>
       <use style="stroke:#000000;stroke-width:0.8;" x="54" xlink:href="#m027f3e9874" y="34.56"/>
      </g>
     </g>
     <g id="text_14">
      <!-- 9 -->
      <g transform="translate(40.6375 38.359219)scale(0.1 -0.1)">
       <defs>
        <path d="M 703 97 
L 703 672 
Q 941 559 1184 500 
Q 1428 441 1663 441 
Q 2288 441 2617 861 
Q 2947 1281 2994 2138 
Q 2813 1869 2534 1725 
Q 2256 1581 1919 1581 
Q 1219 1581 811 2004 
Q 403 2428 403 3163 
Q 403 3881 828 4315 
Q 1253 4750 1959 4750 
Q 2769 4750 3195 4129 
Q 3622 3509 3622 2328 
Q 3622 1225 3098 567 
Q 2575 -91 1691 -91 
Q 1453 -91 1209 -44 
Q 966 3 703 97 
z
M 1959 2075 
Q 2384 2075 2632 2365 
Q 2881 2656 2881 3163 
Q 2881 3666 2632 3958 
Q 2384 4250 1959 4250 
Q 1534 4250 1286 3958 
Q 1038 3666 1038 3163 
Q 1038 2656 1286 2365 
Q 1534 2075 1959 2075 
z
" id="DejaVuSans-39" transform="scale(0.015625)"/>
       </defs>
       <use xlink:href="#DejaVuSans-39"/>
      </g>
     </g>
    </g>
    <g id="text_15">
     <!-- y -->
     <g transform="translate(34.141875 146.83125)rotate(-90)scale(0.12 -0.12)">
      <defs>
       <path d="M 2059 -325 
Q 1816 -950 1584 -1140 
Q 1353 -1331 966 -1331 
L 506 -1331 
L 506 -850 
L 844 -850 
Q 1081 -850 1212 -737 
Q 1344 -625 1503 -206 
L 1606 56 
L 191 3500 
L 800 3500 
L 1894 763 
L 2988 3500 
L 3597 3500 
L 2059 -325 
z
" id="DejaVuSans-79" transform="scale(0.015625)"/>
      </defs>
      <use xlink:href="#DejaVuSans-79"/>
     </g>
    </g>
   </g>
   <g id="line2d_14">
    <path clip-path="url(#p1719696207)" d="M 69.218182 70.8 
L 71.985124 85.083949 
L 74.752066 98.25467 
L 77.519008 110.364828 
L 80.28595 121.465955 
L 83.052893 131.608455 
L 85.819835 140.841599 
L 88.586777 149.213528 
L 91.353719 156.771253 
L 94.120661 163.560654 
L 96.887603 169.62648 
L 99.654545 175.012349 
L 102.421488 179.76075 
L 105.18843 183.913038 
L 107.955372 187.509441 
L 110.722314 190.589055 
L 113.489256 193.189844 
L 116.256198 195.348643 
L 119.02314 197.101155 
L 121.790083 198.481953 
L 124.557025 199.52448 
L 127.323967 200.261047 
L 130.090909 200.722835 
L 132.857851 200.939895 
L 135.624793 200.941145 
L 138.391736 200.754375 
L 141.158678 200.406243 
L 143.92562 199.922276 
L 146.692562 199.326871 
L 149.459504 198.643294 
L 152.226446 197.89368 
L 154.993388 197.099035 
L 157.760331 196.279231 
L 160.527273 195.453014 
L 163.294215 194.637994 
L 166.061157 193.850655 
L 168.828099 193.106347 
L 171.595041 192.419291 
L 174.361983 191.802577 
L 177.128926 191.268164 
L 179.895868 190.82688 
L 182.66281 190.488424 
L 185.429752 190.261362 
L 188.196694 190.153131 
L 190.963636 190.170037 
L 193.730579 190.317255 
L 196.497521 190.598829 
L 199.264463 191.017673 
L 202.031405 191.575569 
L 204.798347 192.273171 
L 207.565289 193.11 
L 210.332231 194.084446 
L 213.099174 195.193771 
L 215.866116 196.434103 
L 218.633058 197.800442 
L 221.4 199.286655 
L 224.166942 200.88548 
L 226.933884 202.588525 
L 229.700826 204.386264 
L 232.467769 206.268045 
L 235.234711 208.22208 
L 238.001653 210.235455 
L 240.768595 212.294122 
L 243.535537 214.382905 
L 246.302479 216.485496 
L 249.069421 218.584455 
L 251.836364 220.661214 
L 254.603306 222.696071 
L 257.370248 224.668198 
L 260.13719 226.555631 
L 262.904132 228.33528 
L 265.671074 229.982921 
L 268.438017 231.4732 
L 271.204959 232.779634 
L 273.971901 233.874607 
L 276.738843 234.729375 
L 279.505785 235.31406 
L 282.272727 235.597656 
L 285.039669 235.548026 
L 287.806612 235.1319 
L 290.573554 234.31488 
L 293.340496 233.061436 
L 296.107438 231.334908 
L 298.87438 229.097505 
L 301.641322 226.310305 
L 304.408264 222.933255 
L 307.175207 218.925173 
L 309.942149 214.243744 
L 312.709091 208.845524 
L 315.476033 202.685938 
L 318.242975 195.71928 
L 321.009917 187.898713 
L 323.77686 179.176271 
L 326.543802 169.502854 
L 329.310744 158.828236 
L 332.077686 147.101055 
L 334.844628 134.268823 
L 337.61157 120.277918 
L 340.378512 105.073589 
L 343.145455 88.599954 
L 345.912397 70.8 
L 348.679339 51.615584 
L 351.446281 30.987432 
L 354.213223 8.855138 
L 355.363895 -1 
" style="fill:none;stroke:#0000ff;stroke-linecap:square;stroke-width:2;"/>
   </g>
   <g id="line2d_15">
    <path clip-path="url(#p1719696207)" d="M 69.218182 138.958684 
L 71.985124 135.011328 
L 74.752066 132.417798 
L 77.519008 131.416725 
L 80.28595 132.196024 
L 83.052893 134.863134 
L 85.819835 139.324979 
L 88.586777 145.171198 
L 91.353719 151.85708 
L 94.120661 158.935957 
L 96.887603 166.081461 
L 99.654545 173.041741 
L 102.421488 179.607988 
L 105.18843 185.599303 
L 107.955372 190.861835 
L 110.722314 195.280728 
L 113.489256 198.795377 
L 116.256198 201.406083 
L 119.02314 203.168001 
L 121.790083 204.17608 
L 124.557025 204.547266 
L 127.323967 204.405167 
L 130.090909 203.869856 
L 132.857851 203.052754 
L 135.624793 202.054841 
L 138.391736 200.96638 
L 141.158678 199.867093 
L 143.92562 198.826323 
L 146.692562 197.902758 
L 149.459504 197.143094 
L 152.226446 196.579244 
L 154.993388 196.224703 
L 157.760331 196.071934 
L 160.527273 196.093076 
L 163.294215 196.245073 
L 166.061157 196.477921 
L 168.828099 196.742307 
L 171.595041 196.991761 
L 174.361983 197.176696 
L 177.128926 197.234972 
L 179.895868 197.09084 
L 182.66281 196.671055 
L 185.429752 195.938323 
L 188.196694 194.942453 
L 190.963636 193.885271 
L 193.730579 193.115067 
L 196.497521 192.906861 
L 199.264463 193.286964 
L 202.031405 194.151508 
L 204.798347 195.382614 
L 207.565289 196.869302 
L 210.332231 198.50556 
L 213.099174 200.191422 
L 215.866116 201.837437 
L 218.633058 203.369806 
L 221.4 204.734292 
L 224.166942 205.897977 
L 226.933884 206.848678 
L 229.700826 207.592324 
L 232.467769 208.148919 
L 235.234711 208.547878 
L 238.001653 208.823483 
L 240.768595 209.011093 
L 243.535537 209.144504 
L 246.302479 209.254572 
L 249.069421 209.368981 
L 251.836364 209.512846 
L 254.603306 209.709733 
L 257.370248 209.982687 
L 260.13719 210.35488 
L 262.904132 210.849608 
L 265.671074 211.48947 
L 268.438017 212.294672 
L 271.204959 213.280559 
L 273.971901 214.454562 
L 276.738843 215.81285 
L 279.505785 217.337029 
L 282.272727 218.99119 
L 285.039669 220.719571 
L 287.806612 222.445035 
L 290.573554 224.068507 
L 293.340496 225.469493 
L 296.107438 226.507854 
L 298.87438 227.027064 
L 301.641322 226.859279 
L 304.408264 225.832711 
L 307.175207 223.781994 
L 309.942149 220.562694 
L 312.709091 216.071417 
L 315.476033 210.269794 
L 318.242975 203.186771 
L 321.009917 194.82811 
L 323.77686 185.071502 
L 326.543802 173.829561 
L 329.310744 161.251609 
L 332.077686 147.70764 
L 334.844628 133.700611 
L 337.61157 119.808337 
L 340.378512 106.671814 
L 343.145455 95.019349 
L 345.912397 85.63078 
L 348.679339 79.099819 
L 351.446281 75.653613 
L 354.213223 75.259134 
L 356.980165 77.732744 
L 359.747107 82.771555 
L 362.51405 89.973467 
L 365.280992 98.866657 
L 368.047934 108.945418 
L 370.814876 119.706504 
L 373.581818 130.68141 
" style="fill:none;stroke:#008000;stroke-dasharray:3.7,1.6;stroke-dashoffset:0;"/>
   </g>
   <g id="line2d_16">
    <path clip-path="url(#p1719696207)" d="M 69.218182 108.615411 
L 71.985124 110.434337 
L 74.752066 113.214523 
L 77.519008 116.897894 
L 80.28595 121.349065 
L 83.052893 126.372363 
L 85.819835 131.830885 
L 88.586777 137.774919 
L 91.353719 144.282712 
L 94.120661 151.261715 
L 96.887603 158.466513 
L 99.654545 165.587041 
L 102.421488 172.320174 
L 105.18843 178.418384 
L 107.955372 183.714265 
L 110.722314 188.120474 
L 113.489256 191.614343 
L 116.256198 194.2204 
L 119.02314 195.997547 
L 121.790083 197.030606 
L 124.557025 197.423535 
L 127.323967 197.292271 
L 130.090909 196.756752 
L 132.857851 195.933255 
L 135.624793 194.928676 
L 138.391736 193.837503 
L 141.158678 192.740927 
L 143.92562 191.706823 
L 146.692562 190.789654 
L 149.459504 190.030199 
L 152.226446 189.455513 
L 154.993388 189.079229 
L 157.760331 188.90148 
L 160.527273 188.907392 
L 163.294215 189.064039 
L 166.061157 189.317668 
L 168.828099 189.594737 
L 171.595041 189.810842 
L 174.361983 189.888883 
L 177.128926 189.780272 
L 179.895868 189.475892 
L 182.66281 188.996814 
L 185.429752 188.363955 
L 188.196694 187.546173 
L 190.963636 186.391178 
L 193.730579 184.624296 
L 196.497521 182.059901 
L 199.264463 178.768132 
L 202.031405 174.948233 
L 204.798347 170.805623 
L 207.565289 166.526029 
L 210.332231 162.274453 
L 213.099174 158.193013 
L 215.866116 154.396973 
L 218.633058 150.971304 
L 221.4 147.96924 
L 224.166942 145.413355 
L 226.933884 143.299043 
L 229.700826 141.599859 
L 232.467769 140.273978 
L 235.234711 139.270944 
L 238.001653 138.537963 
L 240.768595 138.025184 
L 243.535537 137.68965 
L 246.302479 137.497877 
L 249.069421 137.427241 
L 251.836364 137.466498 
L 254.603306 137.615825 
L 257.370248 137.886691 
L 260.13719 138.301772 
L 262.904132 138.894929 
L 265.671074 139.711112 
L 268.438017 140.805855 
L 271.204959 142.243906 
L 273.971901 144.096445 
L 276.738843 146.436372 
L 279.505785 149.331297 
L 282.272727 152.834175 
L 285.039669 156.971923 
L 287.806612 161.732852 
L 290.573554 167.054212 
L 293.340496 172.811515 
L 296.107438 178.811499 
L 298.87438 184.790518 
L 301.641322 190.419783 
L 304.408264 195.318126 
L 307.175207 199.071803 
L 309.942149 201.259282 
L 312.709091 201.477285 
L 315.476033 199.366264 
L 318.242975 194.656293 
L 321.009917 187.29922 
L 323.77686 177.603394 
L 326.543802 166.084086 
L 329.310744 153.255407 
L 332.077686 139.619018 
L 334.844628 125.704408 
L 337.61157 112.062862 
L 340.378512 99.203707 
L 343.145455 87.490459 
L 345.912397 77.100302 
L 348.679339 68.196289 
L 351.446281 61.059482 
L 354.213223 55.955722 
L 356.980165 53.022552 
L 359.747107 52.25697 
L 362.51405 53.533971 
L 365.280992 56.630111 
L 368.047934 61.249063 
L 370.814876 67.048526 
L 373.581818 73.667114 
" style="fill:none;stroke:#008000;stroke-dasharray:3.7,1.6;stroke-dashoffset:0;"/>
   </g>
   <g id="line2d_17">
    <path clip-path="url(#p1719696207)" d="M 69.218182 251.832576 
L 71.985124 251.961941 
L 74.752066 251.994108 
L 77.519008 251.999379 
L 80.28595 251.999948 
L 83.052893 251.999995 
L 85.819835 251.999999 
L 88.586777 251.999999 
L 91.353719 251.999996 
L 94.120661 251.999965 
L 96.887603 251.999626 
L 99.654545 251.996321 
L 102.421488 251.971755 
L 105.18843 251.839598 
L 107.955372 251.329728 
L 110.722314 249.905463 
L 113.489256 246.965007 
L 116.256198 242.347161 
L 119.02314 236.653871 
L 121.790083 231.009662 
L 124.557025 226.514874 
L 127.323967 223.845193 
L 130.090909 223.150592 
L 132.857851 224.1605 
L 135.624793 226.36696 
L 138.391736 229.20392 
L 141.158678 232.180357 
L 143.92562 234.949849 
L 146.692562 237.320229 
L 149.459504 239.223357 
L 152.226446 240.67043 
L 154.993388 241.712138 
L 157.760331 242.412442 
L 160.527273 242.836502 
L 163.294215 243.04945 
L 166.061157 243.121449 
L 168.828099 243.133647 
L 171.595041 243.178524 
L 174.361983 243.348475 
L 177.128926 243.710317 
L 179.895868 244.27133 
L 182.66281 244.952184 
L 185.429752 245.587486 
L 188.196694 245.964976 
L 190.963636 245.884848 
L 193.730579 245.202661 
L 196.497521 243.848274 
L 199.264463 241.838992 
L 202.031405 239.282672 
L 204.798347 236.356684 
L 207.565289 233.270258 
L 210.332231 230.227514 
L 213.099174 227.400816 
L 215.866116 224.91587 
L 218.633058 222.84673 
L 221.4 221.218328 
L 224.166942 220.014238 
L 226.933884 219.187463 
L 229.700826 218.672204 
L 232.467769 218.394804 
L 235.234711 218.282553 
L 238.001653 218.26961 
L 240.768595 218.299885 
L 243.535537 218.32726 
L 246.302479 218.313801 
L 249.069421 218.226769 
L 251.836364 218.035149 
L 254.603306 217.706288 
L 257.370248 217.203039 
L 260.13719 216.481705 
L 262.904132 215.490975 
L 265.671074 214.172107 
L 268.438017 212.460705 
L 271.204959 210.290643 
L 273.971901 207.600926 
L 276.738843 204.346482 
L 279.505785 200.513892 
L 282.272727 196.142786 
L 285.039669 191.352807 
L 287.806612 186.374623 
L 290.573554 181.581319 
L 293.340496 177.513519 
L 296.107438 174.887599 
L 298.87438 174.570713 
L 301.641322 177.497955 
L 304.408264 184.493406 
L 307.175207 195.936288 
L 309.942149 211.202744 
L 312.709091 227.941405 
L 315.476033 241.945685 
L 318.242975 249.574836 
L 321.009917 251.732933 
L 323.77686 251.98835 
L 326.543802 251.999794 
L 329.310744 251.999998 
L 332.077686 252 
L 334.844628 252 
L 337.61157 252 
L 340.378512 252 
L 343.145455 252 
L 345.912397 252 
L 348.679339 252 
L 351.446281 252 
L 354.213223 252 
L 356.980165 251.999992 
L 359.747107 251.999722 
L 362.51405 251.995954 
L 365.280992 251.968728 
L 368.047934 251.850436 
L 370.814876 251.500975 
L 373.581818 250.730322 
" style="fill:none;stroke:#bfbf00;stroke-dasharray:7.4,3.2;stroke-dashoffset:0;stroke-width:2;"/>
   </g>
   <g id="patch_3">
    <path d="M 54 252 
L 54 34.56 
" style="fill:none;stroke:#000000;stroke-linecap:square;stroke-linejoin:miter;stroke-width:0.8;"/>
   </g>
   <g id="patch_4">
    <path d="M 388.8 252 
L 388.8 34.56 
" style="fill:none;stroke:#000000;stroke-linecap:square;stroke-linejoin:miter;stroke-width:0.8;"/>
   </g>
   <g id="patch_5">
    <path d="M 54 252 
L 388.8 252 
" style="fill:none;stroke:#000000;stroke-linecap:square;stroke-linejoin:miter;stroke-width:0.8;"/>
   </g>
   <g id="patch_6">
    <path d="M 54 34.56 
L 388.8 34.56 
" style="fill:none;stroke:#000000;stroke-linecap:square;stroke-linejoin:miter;stroke-width:0.8;"/>
   </g>
   <g id="text_16">
    <!-- Method : REI -->
    <g transform="translate(71.985124 244.752)scale(0.12 -0.12)">
     <defs>
      <path d="M 628 4666 
L 1569 4666 
L 2759 1491 
L 3956 4666 
L 4897 4666 
L 4897 0 
L 4281 0 
L 4281 4097 
L 3078 897 
L 2444 897 
L 1241 4097 
L 1241 0 
L 628 0 
L 628 4666 
z
" id="DejaVuSans-4d" transform="scale(0.015625)"/>
      <path d="M 3597 1894 
L 3597 1613 
L 953 1613 
Q 991 1019 1311 708 
Q 1631 397 2203 397 
Q 2534 397 2845 478 
Q 3156 559 3463 722 
L 3463 178 
Q 3153 47 2828 -22 
Q 2503 -91 2169 -91 
Q 1331 -91 842 396 
Q 353 884 353 1716 
Q 353 2575 817 3079 
Q 1281 3584 2069 3584 
Q 2775 3584 3186 3129 
Q 3597 2675 3597 1894 
z
M 3022 2063 
Q 3016 2534 2758 2815 
Q 2500 3097 2075 3097 
Q 1594 3097 1305 2825 
Q 1016 2553 972 2059 
L 3022 2063 
z
" id="DejaVuSans-65" transform="scale(0.015625)"/>
      <path d="M 1172 4494 
L 1172 3500 
L 2356 3500 
L 2356 3053 
L 1172 3053 
L 1172 1153 
Q 1172 725 1289 603 
Q 1406 481 1766 481 
L 2356 481 
L 2356 0 
L 1766 0 
Q 1100 0 847 248 
Q 594 497 594 1153 
L 594 3053 
L 172 3053 
L 172 3500 
L 594 3500 
L 594 4494 
L 1172 4494 
z
" id="DejaVuSans-74" transform="scale(0.015625)"/>
      <path d="M 3513 2113 
L 3513 0 
L 2938 0 
L 2938 2094 
Q 2938 2591 2744 2837 
Q 2550 3084 2163 3084 
Q 1697 3084 1428 2787 
Q 1159 2491 1159 1978 
L 1159 0 
L 581 0 
L 581 4863 
L 1159 4863 
L 1159 2956 
Q 1366 3272 1645 3428 
Q 1925 3584 2291 3584 
Q 2894 3584 3203 3211 
Q 3513 2838 3513 2113 
z
" id="DejaVuSans-68" transform="scale(0.015625)"/>
      <path d="M 1959 3097 
Q 1497 3097 1228 2736 
Q 959 2375 959 1747 
Q 959 1119 1226 758 
Q 1494 397 1959 397 
Q 2419 397 2687 759 
Q 2956 1122 2956 1747 
Q 2956 2369 2687 2733 
Q 2419 3097 1959 3097 
z
M 1959 3584 
Q 2709 3584 3137 3096 
Q 3566 2609 3566 1747 
Q 3566 888 3137 398 
Q 2709 -91 1959 -91 
Q 1206 -91 779 398 
Q 353 888 353 1747 
Q 353 2609 779 3096 
Q 1206 3584 1959 3584 
z
" id="DejaVuSans-6f" transform="scale(0.015625)"/>
      <path d="M 2906 2969 
L 2906 4863 
L 3481 4863 
L 3481 0 
L 2906 0 
L 2906 525 
Q 2725 213 2448 61 
Q 2172 -91 1784 -91 
Q 1150 -91 751 415 
Q 353 922 353 1747 
Q 353 2572 751 3078 
Q 1150 3584 1784 3584 
Q 2172 3584 2448 3432 
Q 2725 3281 2906 2969 
z
M 947 1747 
Q 947 1113 1208 752 
Q 1469 391 1925 391 
Q 2381 391 2643 752 
Q 2906 1113 2906 1747 
Q 2906 2381 2643 2742 
Q 2381 3103 1925 3103 
Q 1469 3103 1208 2742 
Q 947 2381 947 1747 
z
" id="DejaVuSans-64" transform="scale(0.015625)"/>
      <path id="DejaVuSans-20" transform="scale(0.015625)"/>
      <path d="M 750 794 
L 1409 794 
L 1409 0 
L 750 0 
L 750 794 
z
M 750 3309 
L 1409 3309 
L 1409 2516 
L 750 2516 
L 750 3309 
z
" id="DejaVuSans-3a" transform="scale(0.015625)"/>
      <path d="M 2841 2188 
Q 3044 2119 3236 1894 
Q 3428 1669 3622 1275 
L 4263 0 
L 3584 0 
L 2988 1197 
Q 2756 1666 2539 1819 
Q 2322 1972 1947 1972 
L 1259 1972 
L 1259 0 
L 628 0 
L 628 4666 
L 2053 4666 
Q 2853 4666 3247 4331 
Q 3641 3997 3641 3322 
Q 3641 2881 3436 2590 
Q 3231 2300 2841 2188 
z
M 1259 4147 
L 1259 2491 
L 2053 2491 
Q 2509 2491 2742 2702 
Q 2975 2913 2975 3322 
Q 2975 3731 2742 3939 
Q 2509 4147 2053 4147 
L 1259 4147 
z
" id="DejaVuSans-52" transform="scale(0.015625)"/>
      <path d="M 628 4666 
L 3578 4666 
L 3578 4134 
L 1259 4134 
L 1259 2753 
L 3481 2753 
L 3481 2222 
L 1259 2222 
L 1259 531 
L 3634 531 
L 3634 0 
L 628 0 
L 628 4666 
z
" id="DejaVuSans-45" transform="scale(0.015625)"/>
      <path d="M 628 4666 
L 1259 4666 
L 1259 0 
L 628 0 
L 628 4666 
z
" id="DejaVuSans-49" transform="scale(0.015625)"/>
     </defs>
     <use xlink:href="#DejaVuSans-4d"/>
     <use x="86.279297" xlink:href="#DejaVuSans-65"/>
     <use x="147.802734" xlink:href="#DejaVuSans-74"/>
     <use x="187.011719" xlink:href="#DejaVuSans-68"/>
     <use x="250.390625" xlink:href="#DejaVuSans-6f"/>
     <use x="311.572266" xlink:href="#DejaVuSans-64"/>
     <use x="375.048828" xlink:href="#DejaVuSans-20"/>
     <use x="406.835938" xlink:href="#DejaVuSans-3a"/>
     <use x="440.527344" xlink:href="#DejaVuSans-20"/>
     <use x="472.314453" xlink:href="#DejaVuSans-52"/>
     <use x="541.796875" xlink:href="#DejaVuSans-45"/>
     <use x="604.980469" xlink:href="#DejaVuSans-49"/>
    </g>
   </g>
   <g id="text_17">
    <!-- Iter=0 -->
    <g transform="translate(71.985124 226.632)scale(0.12 -0.12)">
     <defs>
      <path d="M 2631 2963 
Q 2534 3019 2420 3045 
Q 2306 3072 2169 3072 
Q 1681 3072 1420 2755 
Q 1159 2438 1159 1844 
L 1159 0 
L 581 0 
L 581 3500 
L 1159 3500 
L 1159 2956 
Q 1341 3275 1631 3429 
Q 1922 3584 2338 3584 
Q 2397 3584 2469 3576 
Q 2541 3569 2628 3553 
L 2631 2963 
z
" id="DejaVuSans-72" transform="scale(0.015625)"/>
      <path d="M 678 2906 
L 4684 2906 
L 4684 2381 
L 678 2381 
L 678 2906 
z
M 678 1631 
L 4684 1631 
L 4684 1100 
L 678 1100 
L 678 1631 
z
" id="DejaVuSans-3d" transform="scale(0.015625)"/>
     </defs>
     <use xlink:href="#DejaVuSans-49"/>
     <use x="29.492188" xlink:href="#DejaVuSans-74"/>
     <use x="68.701172" xlink:href="#DejaVuSans-65"/>
     <use x="130.224609" xlink:href="#DejaVuSans-72"/>
     <use x="171.337891" xlink:href="#DejaVuSans-3d"/>
     <use x="255.126953" xlink:href="#DejaVuSans-30"/>
    </g>
   </g>
   <g id="legend_1">
    <g id="patch_7">
     <path d="M 144.327812 140.235625 
L 298.472188 140.235625 
Q 300.672188 140.235625 300.672188 138.035625 
L 300.672188 42.26 
Q 300.672188 40.06 298.472188 40.06 
L 144.327812 40.06 
Q 142.127813 40.06 142.127813 42.26 
L 142.127813 138.035625 
Q 142.127813 140.235625 144.327812 140.235625 
z
" style="fill:#ffffff;opacity:0.8;stroke:#cccccc;stroke-linejoin:miter;"/>
    </g>
    <g id="line2d_18">
     <path d="M 146.527813 48.968281 
L 168.527813 48.968281 
" style="fill:none;stroke:#0000ff;stroke-linecap:square;stroke-width:2;"/>
    </g>
    <g id="line2d_19"/>
    <g id="text_18">
     <!-- ture function -->
     <g transform="translate(177.327813 52.818281)scale(0.11 -0.11)">
      <defs>
       <path d="M 544 1381 
L 544 3500 
L 1119 3500 
L 1119 1403 
Q 1119 906 1312 657 
Q 1506 409 1894 409 
Q 2359 409 2629 706 
Q 2900 1003 2900 1516 
L 2900 3500 
L 3475 3500 
L 3475 0 
L 2900 0 
L 2900 538 
Q 2691 219 2414 64 
Q 2138 -91 1772 -91 
Q 1169 -91 856 284 
Q 544 659 544 1381 
z
M 1991 3584 
L 1991 3584 
z
" id="DejaVuSans-75" transform="scale(0.015625)"/>
       <path d="M 2375 4863 
L 2375 4384 
L 1825 4384 
Q 1516 4384 1395 4259 
Q 1275 4134 1275 3809 
L 1275 3500 
L 2222 3500 
L 2222 3053 
L 1275 3053 
L 1275 0 
L 697 0 
L 697 3053 
L 147 3053 
L 147 3500 
L 697 3500 
L 697 3744 
Q 697 4328 969 4595 
Q 1241 4863 1831 4863 
L 2375 4863 
z
" id="DejaVuSans-66" transform="scale(0.015625)"/>
       <path d="M 3513 2113 
L 3513 0 
L 2938 0 
L 2938 2094 
Q 2938 2591 2744 2837 
Q 2550 3084 2163 3084 
Q 1697 3084 1428 2787 
Q 1159 2491 1159 1978 
L 1159 0 
L 581 0 
L 581 3500 
L 1159 3500 
L 1159 2956 
Q 1366 3272 1645 3428 
Q 1925 3584 2291 3584 
Q 2894 3584 3203 3211 
Q 3513 2838 3513 2113 
z
" id="DejaVuSans-6e" transform="scale(0.015625)"/>
       <path d="M 3122 3366 
L 3122 2828 
Q 2878 2963 2633 3030 
Q 2388 3097 2138 3097 
Q 1578 3097 1268 2742 
Q 959 2388 959 1747 
Q 959 1106 1268 751 
Q 1578 397 2138 397 
Q 2388 397 2633 464 
Q 2878 531 3122 666 
L 3122 134 
Q 2881 22 2623 -34 
Q 2366 -91 2075 -91 
Q 1284 -91 818 406 
Q 353 903 353 1747 
Q 353 2603 823 3093 
Q 1294 3584 2113 3584 
Q 2378 3584 2631 3529 
Q 2884 3475 3122 3366 
z
" id="DejaVuSans-63" transform="scale(0.015625)"/>
       <path d="M 603 3500 
L 1178 3500 
L 1178 0 
L 603 0 
L 603 3500 
z
M 603 4863 
L 1178 4863 
L 1178 4134 
L 603 4134 
L 603 4863 
z
" id="DejaVuSans-69" transform="scale(0.015625)"/>
      </defs>
      <use xlink:href="#DejaVuSans-74"/>
      <use x="39.208984" xlink:href="#DejaVuSans-75"/>
      <use x="102.587891" xlink:href="#DejaVuSans-72"/>
      <use x="141.451172" xlink:href="#DejaVuSans-65"/>
      <use x="202.974609" xlink:href="#DejaVuSans-20"/>
      <use x="234.761719" xlink:href="#DejaVuSans-66"/>
      <use x="269.966797" xlink:href="#DejaVuSans-75"/>
      <use x="333.345703" xlink:href="#DejaVuSans-6e"/>
      <use x="396.724609" xlink:href="#DejaVuSans-63"/>
      <use x="451.705078" xlink:href="#DejaVuSans-74"/>
      <use x="490.914062" xlink:href="#DejaVuSans-69"/>
      <use x="518.697266" xlink:href="#DejaVuSans-6f"/>
      <use x="579.878906" xlink:href="#DejaVuSans-6e"/>
     </g>
    </g>
    <g id="line2d_20">
     <path d="M 146.527813 65.114219 
L 168.527813 65.114219 
" style="fill:none;stroke:#000000;stroke-dasharray:7.4,3.2;stroke-dashoffset:0;stroke-width:2;"/>
    </g>
    <g id="line2d_21"/>
    <g id="text_19">
     <!-- predicted function -->
     <g transform="translate(177.327813 68.964219)scale(0.11 -0.11)">
      <defs>
       <path d="M 1159 525 
L 1159 -1331 
L 581 -1331 
L 581 3500 
L 1159 3500 
L 1159 2969 
Q 1341 3281 1617 3432 
Q 1894 3584 2278 3584 
Q 2916 3584 3314 3078 
Q 3713 2572 3713 1747 
Q 3713 922 3314 415 
Q 2916 -91 2278 -91 
Q 1894 -91 1617 61 
Q 1341 213 1159 525 
z
M 3116 1747 
Q 3116 2381 2855 2742 
Q 2594 3103 2138 3103 
Q 1681 3103 1420 2742 
Q 1159 2381 1159 1747 
Q 1159 1113 1420 752 
Q 1681 391 2138 391 
Q 2594 391 2855 752 
Q 3116 1113 3116 1747 
z
" id="DejaVuSans-70" transform="scale(0.015625)"/>
      </defs>
      <use xlink:href="#DejaVuSans-70"/>
      <use x="63.476562" xlink:href="#DejaVuSans-72"/>
      <use x="102.339844" xlink:href="#DejaVuSans-65"/>
      <use x="163.863281" xlink:href="#DejaVuSans-64"/>
      <use x="227.339844" xlink:href="#DejaVuSans-69"/>
      <use x="255.123047" xlink:href="#DejaVuSans-63"/>
      <use x="310.103516" xlink:href="#DejaVuSans-74"/>
      <use x="349.3125" xlink:href="#DejaVuSans-65"/>
      <use x="410.835938" xlink:href="#DejaVuSans-64"/>
      <use x="474.3125" xlink:href="#DejaVuSans-20"/>
      <use x="506.099609" xlink:href="#DejaVuSans-66"/>
      <use x="541.304688" xlink:href="#DejaVuSans-75"/>
      <use x="604.683594" xlink:href="#DejaVuSans-6e"/>
      <use x="668.0625" xlink:href="#DejaVuSans-63"/>
      <use x="723.042969" xlink:href="#DejaVuSans-74"/>
      <use x="762.251953" xlink:href="#DejaVuSans-69"/>
      <use x="790.035156" xlink:href="#DejaVuSans-6f"/>
      <use x="851.216797" xlink:href="#DejaVuSans-6e"/>
     </g>
    </g>
    <g id="line2d_22">
     <path d="M 146.527813 81.260156 
L 168.527813 81.260156 
" style="fill:none;stroke:#008000;stroke-dasharray:3.7,1.6;stroke-dashoffset:0;"/>
    </g>
    <g id="line2d_23"/>
    <g id="text_20">
     <!--  ± Sn(x) -->
     <g transform="translate(177.327813 85.110156)scale(0.11 -0.11)">
      <defs>
       <path d="M 2944 4013 
L 2944 2803 
L 4684 2803 
L 4684 2272 
L 2944 2272 
L 2944 1063 
L 2419 1063 
L 2419 2272 
L 678 2272 
L 678 2803 
L 2419 2803 
L 2419 4013 
L 2944 4013 
z
M 678 531 
L 4684 531 
L 4684 0 
L 678 0 
L 678 531 
z
" id="DejaVuSans-b1" transform="scale(0.015625)"/>
       <path d="M 3425 4513 
L 3425 3897 
Q 3066 4069 2747 4153 
Q 2428 4238 2131 4238 
Q 1616 4238 1336 4038 
Q 1056 3838 1056 3469 
Q 1056 3159 1242 3001 
Q 1428 2844 1947 2747 
L 2328 2669 
Q 3034 2534 3370 2195 
Q 3706 1856 3706 1288 
Q 3706 609 3251 259 
Q 2797 -91 1919 -91 
Q 1588 -91 1214 -16 
Q 841 59 441 206 
L 441 856 
Q 825 641 1194 531 
Q 1563 422 1919 422 
Q 2459 422 2753 634 
Q 3047 847 3047 1241 
Q 3047 1584 2836 1778 
Q 2625 1972 2144 2069 
L 1759 2144 
Q 1053 2284 737 2584 
Q 422 2884 422 3419 
Q 422 4038 858 4394 
Q 1294 4750 2059 4750 
Q 2388 4750 2728 4690 
Q 3069 4631 3425 4513 
z
" id="DejaVuSans-53" transform="scale(0.015625)"/>
       <path d="M 1984 4856 
Q 1566 4138 1362 3434 
Q 1159 2731 1159 2009 
Q 1159 1288 1364 580 
Q 1569 -128 1984 -844 
L 1484 -844 
Q 1016 -109 783 600 
Q 550 1309 550 2009 
Q 550 2706 781 3412 
Q 1013 4119 1484 4856 
L 1984 4856 
z
" id="DejaVuSans-28" transform="scale(0.015625)"/>
       <path d="M 513 4856 
L 1013 4856 
Q 1481 4119 1714 3412 
Q 1947 2706 1947 2009 
Q 1947 1309 1714 600 
Q 1481 -109 1013 -844 
L 513 -844 
Q 928 -128 1133 580 
Q 1338 1288 1338 2009 
Q 1338 2731 1133 3434 
Q 928 4138 513 4856 
z
" id="DejaVuSans-29" transform="scale(0.015625)"/>
      </defs>
      <use xlink:href="#DejaVuSans-20"/>
      <use x="31.787109" xlink:href="#DejaVuSans-b1"/>
      <use x="115.576172" xlink:href="#DejaVuSans-20"/>
      <use x="147.363281" xlink:href="#DejaVuSans-53"/>
      <use x="210.839844" xlink:href="#DejaVuSans-6e"/>
      <use x="274.21875" xlink:href="#DejaVuSans-28"/>
      <use x="313.232422" xlink:href="#DejaVuSans-78"/>
      <use x="372.412109" xlink:href="#DejaVuSans-29"/>
     </g>
    </g>
    <g id="line2d_24">
     <path d="M 146.527813 97.406094 
L 168.527813 97.406094 
" style="fill:none;stroke:#bfbf00;stroke-dasharray:7.4,3.2;stroke-dashoffset:0;stroke-width:2;"/>
    </g>
    <g id="line2d_25"/>
    <g id="text_21">
     <!-- REI(x) -->
     <g transform="translate(177.327813 101.256094)scale(0.11 -0.11)">
      <use xlink:href="#DejaVuSans-52"/>
      <use x="69.482422" xlink:href="#DejaVuSans-45"/>
      <use x="132.666016" xlink:href="#DejaVuSans-49"/>
      <use x="162.158203" xlink:href="#DejaVuSans-28"/>
      <use x="201.171875" xlink:href="#DejaVuSans-78"/>
      <use x="260.351562" xlink:href="#DejaVuSans-29"/>
     </g>
    </g>
    <g id="PathCollection_2">
     <defs>
      <path d="M 0 3.535534 
C 0.937635 3.535534 1.836992 3.163008 2.5 2.5 
C 3.163008 1.836992 3.535534 0.937635 3.535534 0 
C 3.535534 -0.937635 3.163008 -1.836992 2.5 -2.5 
C 1.836992 -3.163008 0.937635 -3.535534 0 -3.535534 
C -0.937635 -3.535534 -1.836992 -3.163008 -2.5 -2.5 
C -3.163008 -1.836992 -3.535534 -0.937635 -3.535534 0 
C -3.535534 0.937635 -3.163008 1.836992 -2.5 2.5 
C -1.836992 3.163008 -0.937635 3.535534 0 3.535534 
z
" id="m7d735da26c" style="stroke:#000000;"/>
     </defs>
     <g>
      <use style="fill:#ff0000;stroke:#000000;" x="157.527813" xlink:href="#m7d735da26c" y="114.514531"/>
     </g>
    </g>
    <g id="text_22">
     <!-- training data -->
     <g transform="translate(177.327813 117.402031)scale(0.11 -0.11)">
      <defs>
       <path d="M 2194 1759 
Q 1497 1759 1228 1600 
Q 959 1441 959 1056 
Q 959 750 1161 570 
Q 1363 391 1709 391 
Q 2188 391 2477 730 
Q 2766 1069 2766 1631 
L 2766 1759 
L 2194 1759 
z
M 3341 1997 
L 3341 0 
L 2766 0 
L 2766 531 
Q 2569 213 2275 61 
Q 1981 -91 1556 -91 
Q 1019 -91 701 211 
Q 384 513 384 1019 
Q 384 1609 779 1909 
Q 1175 2209 1959 2209 
L 2766 2209 
L 2766 2266 
Q 2766 2663 2505 2880 
Q 2244 3097 1772 3097 
Q 1472 3097 1187 3025 
Q 903 2953 641 2809 
L 641 3341 
Q 956 3463 1253 3523 
Q 1550 3584 1831 3584 
Q 2591 3584 2966 3190 
Q 3341 2797 3341 1997 
z
" id="DejaVuSans-61" transform="scale(0.015625)"/>
       <path d="M 2906 1791 
Q 2906 2416 2648 2759 
Q 2391 3103 1925 3103 
Q 1463 3103 1205 2759 
Q 947 2416 947 1791 
Q 947 1169 1205 825 
Q 1463 481 1925 481 
Q 2391 481 2648 825 
Q 2906 1169 2906 1791 
z
M 3481 434 
Q 3481 -459 3084 -895 
Q 2688 -1331 1869 -1331 
Q 1566 -1331 1297 -1286 
Q 1028 -1241 775 -1147 
L 775 -588 
Q 1028 -725 1275 -790 
Q 1522 -856 1778 -856 
Q 2344 -856 2625 -561 
Q 2906 -266 2906 331 
L 2906 616 
Q 2728 306 2450 153 
Q 2172 0 1784 0 
Q 1141 0 747 490 
Q 353 981 353 1791 
Q 353 2603 747 3093 
Q 1141 3584 1784 3584 
Q 2172 3584 2450 3431 
Q 2728 3278 2906 2969 
L 2906 3500 
L 3481 3500 
L 3481 434 
z
" id="DejaVuSans-67" transform="scale(0.015625)"/>
      </defs>
      <use xlink:href="#DejaVuSans-74"/>
      <use x="39.208984" xlink:href="#DejaVuSans-72"/>
      <use x="80.322266" xlink:href="#DejaVuSans-61"/>
      <use x="141.601562" xlink:href="#DejaVuSans-69"/>
      <use x="169.384766" xlink:href="#DejaVuSans-6e"/>
      <use x="232.763672" xlink:href="#DejaVuSans-69"/>
      <use x="260.546875" xlink:href="#DejaVuSans-6e"/>
      <use x="323.925781" xlink:href="#DejaVuSans-67"/>
      <use x="387.402344" xlink:href="#DejaVuSans-20"/>
      <use x="419.189453" xlink:href="#DejaVuSans-64"/>
      <use x="482.666016" xlink:href="#DejaVuSans-61"/>
      <use x="543.945312" xlink:href="#DejaVuSans-74"/>
      <use x="583.154297" xlink:href="#DejaVuSans-61"/>
     </g>
    </g>
    <g id="PathCollection_3">
     <g>
      <use style="fill:#ff0000;stroke:#ff0000;stroke-width:8;" x="157.527813" xlink:href="#m26e67f2b3e" y="130.660469"/>
     </g>
    </g>
    <g id="text_23">
     <!-- recommended datum -->
     <g transform="translate(177.327813 133.547969)scale(0.11 -0.11)">
      <defs>
       <path d="M 3328 2828 
Q 3544 3216 3844 3400 
Q 4144 3584 4550 3584 
Q 5097 3584 5394 3201 
Q 5691 2819 5691 2113 
L 5691 0 
L 5113 0 
L 5113 2094 
Q 5113 2597 4934 2840 
Q 4756 3084 4391 3084 
Q 3944 3084 3684 2787 
Q 3425 2491 3425 1978 
L 3425 0 
L 2847 0 
L 2847 2094 
Q 2847 2600 2669 2842 
Q 2491 3084 2119 3084 
Q 1678 3084 1418 2786 
Q 1159 2488 1159 1978 
L 1159 0 
L 581 0 
L 581 3500 
L 1159 3500 
L 1159 2956 
Q 1356 3278 1631 3431 
Q 1906 3584 2284 3584 
Q 2666 3584 2933 3390 
Q 3200 3197 3328 2828 
z
" id="DejaVuSans-6d" transform="scale(0.015625)"/>
      </defs>
      <use xlink:href="#DejaVuSans-72"/>
      <use x="38.863281" xlink:href="#DejaVuSans-65"/>
      <use x="100.386719" xlink:href="#DejaVuSans-63"/>
      <use x="155.367188" xlink:href="#DejaVuSans-6f"/>
      <use x="216.548828" xlink:href="#DejaVuSans-6d"/>
      <use x="313.960938" xlink:href="#DejaVuSans-6d"/>
      <use x="411.373047" xlink:href="#DejaVuSans-65"/>
      <use x="472.896484" xlink:href="#DejaVuSans-6e"/>
      <use x="536.275391" xlink:href="#DejaVuSans-64"/>
      <use x="599.751953" xlink:href="#DejaVuSans-65"/>
      <use x="661.275391" xlink:href="#DejaVuSans-64"/>
      <use x="724.751953" xlink:href="#DejaVuSans-20"/>
      <use x="756.539062" xlink:href="#DejaVuSans-64"/>
      <use x="820.015625" xlink:href="#DejaVuSans-61"/>
      <use x="881.294922" xlink:href="#DejaVuSans-74"/>
      <use x="920.503906" xlink:href="#DejaVuSans-75"/>
      <use x="983.882812" xlink:href="#DejaVuSans-6d"/>
     </g>
    </g>
   </g>
   <g id="line2d_26">
    <path clip-path="url(#p1719696207)" d="M 69.218182 123.787047 
L 71.985124 122.722832 
L 74.752066 122.81616 
L 77.519008 124.15731 
L 80.28595 126.772544 
L 83.052893 130.617748 
L 85.819835 135.577932 
L 88.586777 141.473058 
L 91.353719 148.069896 
L 94.120661 155.098836 
L 96.887603 162.273987 
L 99.654545 169.314391 
L 102.421488 175.964081 
L 105.18843 182.008843 
L 107.955372 187.28805 
L 110.722314 191.700601 
L 113.489256 195.20486 
L 116.256198 197.813241 
L 119.02314 199.582774 
L 121.790083 200.603343 
L 124.557025 200.985401 
L 127.323967 200.848719 
L 130.090909 200.313304 
L 132.857851 199.493005 
L 135.624793 198.491758 
L 138.391736 197.401942 
L 141.158678 196.30401 
L 143.92562 195.266573 
L 146.692562 194.346206 
L 149.459504 193.586647 
L 152.226446 193.017379 
L 154.993388 192.651966 
L 157.760331 192.486707 
L 160.527273 192.500234 
L 163.294215 192.654556 
L 166.061157 192.897795 
L 168.828099 193.168522 
L 171.595041 193.401302 
L 174.361983 193.53279 
L 177.128926 193.507622 
L 179.895868 193.283366 
L 182.66281 192.833935 
L 185.429752 192.151139 
L 188.196694 191.244313 
L 190.963636 190.138224 
L 193.730579 188.869681 
L 196.497521 187.483381 
L 199.264463 186.027548 
L 202.031405 184.549871 
L 204.798347 183.094119 
L 207.565289 181.697665 
L 210.332231 180.390006 
L 213.099174 179.192218 
L 215.866116 178.117205 
L 218.633058 177.170555 
L 221.4 176.351766 
L 224.166942 175.655666 
L 226.933884 175.073861 
L 229.700826 174.596091 
L 232.467769 174.211449 
L 235.234711 173.909411 
L 238.001653 173.680723 
L 240.768595 173.518138 
L 243.535537 173.417077 
L 246.302479 173.376225 
L 249.069421 173.398111 
L 251.836364 173.489672 
L 254.603306 173.662779 
L 257.370248 173.934689 
L 260.13719 174.328326 
L 262.904132 174.872269 
L 265.671074 175.600291 
L 268.438017 176.550264 
L 271.204959 177.762233 
L 273.971901 179.275503 
L 276.738843 181.124611 
L 279.505785 183.334163 
L 282.272727 185.912683 
L 285.039669 188.845747 
L 287.806612 192.088944 
L 290.573554 195.561359 
L 293.340496 199.140504 
L 296.107438 202.659677 
L 298.87438 205.908791 
L 301.641322 208.639531 
L 304.408264 210.575418 
L 307.175207 211.426898 
L 309.942149 210.910988 
L 312.709091 208.774351 
L 315.476033 204.818029 
L 318.242975 198.921532 
L 321.009917 191.063665 
L 323.77686 181.337448 
L 326.543802 169.956823 
L 329.310744 157.253508 
L 332.077686 143.663329 
L 334.844628 129.70251 
L 337.61157 115.9356 
L 340.378512 102.937761 
L 343.145455 91.254904 
L 345.912397 81.365541 
L 348.679339 73.648054 
L 351.446281 68.356548 
L 354.213223 65.607428 
L 356.980165 65.377648 
L 359.747107 67.514263 
L 362.51405 71.753719 
L 365.280992 77.748384 
L 368.047934 85.097241 
L 370.814876 93.377515 
L 373.581818 102.174262 
" style="fill:none;stroke:#000000;stroke-dasharray:7.4,3.2;stroke-dashoffset:0;stroke-width:2;"/>
   </g>
   <g id="PathCollection_4">
    <g clip-path="url(#p1719696207)">
     <use style="fill:#ff0000;stroke:#000000;" x="83.052893" xlink:href="#m7d735da26c" y="129.399309"/>
     <use style="fill:#ff0000;stroke:#000000;" x="96.887603" xlink:href="#m7d735da26c" y="162.429541"/>
     <use style="fill:#ff0000;stroke:#000000;" x="110.722314" xlink:href="#m7d735da26c" y="193.170209"/>
     <use style="fill:#ff0000;stroke:#000000;" x="124.557025" xlink:href="#m7d735da26c" y="199.248575"/>
     <use style="fill:#ff0000;stroke:#000000;" x="138.391736" xlink:href="#m7d735da26c" y="199.347548"/>
     <use style="fill:#ff0000;stroke:#000000;" x="152.226446" xlink:href="#m7d735da26c" y="191.611971"/>
     <use style="fill:#ff0000;stroke:#000000;" x="166.061157" xlink:href="#m7d735da26c" y="193.66847"/>
     <use style="fill:#ff0000;stroke:#000000;" x="179.895868" xlink:href="#m7d735da26c" y="193.283098"/>
     <use style="fill:#ff0000;stroke:#000000;" x="193.730579" xlink:href="#m7d735da26c" y="188.924027"/>
     <use style="fill:#ff0000;stroke:#000000;" x="318.242975" xlink:href="#m7d735da26c" y="199.289596"/>
     <use style="fill:#ff0000;stroke:#000000;" x="332.077686" xlink:href="#m7d735da26c" y="145.37007"/>
     <use style="fill:#ff0000;stroke:#000000;" x="345.912397" xlink:href="#m7d735da26c" y="78.407322"/>
    </g>
   </g>
  </g>
 </g>
 <defs>
  <clipPath id="p1719696207">
   <rect height="217.44" width="334.8" x="54" y="34.56"/>
  </clipPath>
 </defs>
</svg>
