<?xml version="1.0" encoding="utf-8" standalone="no"?>
<!DOCTYPE svg PUBLIC "-//W3C//DTD SVG 1.1//EN"
  "http://www.w3.org/Graphics/SVG/1.1/DTD/svg11.dtd">
<svg height="288pt" version="1.1" viewBox="0 0 432 288" width="432pt" xmlns="http://www.w3.org/2000/svg" xmlns:xlink="http://www.w3.org/1999/xlink">
 <metadata>
  <rdf:RDF xmlns:cc="http://creativecommons.org/ns#" xmlns:dc="http://purl.org/dc/elements/1.1/" xmlns:rdf="http://www.w3.org/1999/02/22-rdf-syntax-ns#">
   <cc:Work>
    <dc:type rdf:resource="http://purl.org/dc/dcmitype/StillImage"/>
    <dc:date>2022-08-04T17:02:43.256270</dc:date>
    <dc:format>image/svg+xml</dc:format>
    <dc:creator>
     <cc:Agent>
      <dc:title>Matplotlib v3.4.3, https://matplotlib.org/</dc:title>
     </cc:Agent>
    </dc:creator>
   </cc:Work>
  </rdf:RDF>
 </metadata>
 <defs>
  <style type="text/css">*{stroke-linecap:butt;stroke-linejoin:round;}</style>
 </defs>
 <g id="figure_1">
  <g id="patch_1">
   <path d="M 0 288 
L 432 288 
L 432 0 
L 0 0 
z
" style="fill:none;"/>
  </g>
  <g id="axes_1">
   <g id="patch_2">
    <path d="M 54 252 
L 388.8 252 
L 388.8 34.56 
L 54 34.56 
z
" style="fill:#ffffff;"/>
   </g>
   <g id="PolyCollection_1">
    <defs>
     <path d="M 69.218182 -177.137121 
L 69.218182 -136.630172 
L 71.985124 -139.788033 
L 74.752066 -141.962342 
L 77.519008 -143.005482 
L 80.28595 -142.805738 
L 83.052893 -141.304488 
L 85.819835 -138.521059 
L 88.586777 -134.576636 
L 91.353719 -129.693099 
L 94.120661 -124.154206 
L 96.887603 -118.253182 
L 99.654545 -112.257389 
L 102.421488 -106.395164 
L 105.18843 -100.854691 
L 107.955372 -95.786518 
L 110.722314 -91.306229 
L 113.489256 -87.496247 
L 116.256198 -84.406602 
L 119.02314 -82.054968 
L 121.790083 -80.426806 
L 124.557025 -79.476698 
L 127.323967 -79.131707 
L 130.090909 -79.297007 
L 132.857851 -79.863335 
L 135.624793 -80.715415 
L 138.391736 -81.7403 
L 141.158678 -82.834674 
L 143.92562 -83.910383 
L 146.692562 -84.897834 
L 149.459504 -85.747281 
L 152.226446 -86.428402 
L 154.993388 -86.928766 
L 157.760331 -87.251933 
L 160.527273 -87.415721 
L 163.294215 -87.450821 
L 166.061157 -87.399321 
L 168.828099 -87.31222 
L 171.595041 -87.24485 
L 174.361983 -87.249544 
L 177.128926 -87.36554 
L 179.895868 -87.606743 
L 182.66281 -87.948899 
L 185.429752 -88.320314 
L 188.196694 -88.605154 
L 190.963636 -88.670089 
L 193.730579 -88.409728 
L 196.497521 -87.780595 
L 199.264463 -86.799838 
L 202.031405 -85.521302 
L 204.798347 -84.012991 
L 207.565289 -82.344232 
L 210.332231 -80.579668 
L 213.099174 -78.776179 
L 215.866116 -76.980837 
L 218.633058 -75.229384 
L 221.4 -73.545272 
L 224.166942 -71.939457 
L 226.933884 -70.411042 
L 229.700826 -68.948816 
L 232.467769 -67.533584 
L 235.234711 -66.1411 
L 238.001653 -64.745368 
L 240.768595 -63.321981 
L 243.535537 -61.851217 
L 246.302479 -60.320575 
L 249.069421 -58.726536 
L 251.836364 -57.075418 
L 254.603306 -55.383257 
L 257.370248 -53.674812 
L 260.13719 -51.981823 
L 262.904132 -50.340771 
L 265.671074 -48.790382 
L 268.438017 -47.369177 
L 271.204959 -46.113315 
L 273.971901 -45.054932 
L 276.738843 -44.221102 
L 279.505785 -43.633394 
L 282.272727 -43.307911 
L 285.039669 -43.255637 
L 287.806612 -43.483282 
L 290.573554 -43.996169 
L 293.340496 -44.807649 
L 296.107438 -45.961628 
L 298.87438 -47.564884 
L 301.641322 -49.79947 
L 304.408264 -52.885683 
L 307.175207 -57.018975 
L 309.942149 -62.327185 
L 312.709091 -68.859053 
L 315.476033 -76.589784 
L 318.242975 -85.431677 
L 321.009917 -95.244728 
L 323.77686 -105.844954 
L 326.543802 -117.00913 
L 329.310744 -128.475659 
L 332.077686 -139.942855 
L 334.844628 -151.067215 
L 337.61157 -161.466377 
L 340.378512 -170.735441 
L 343.145455 -178.486606 
L 345.912397 -184.407068 
L 348.679339 -188.304291 
L 351.446281 -190.1129 
L 354.213223 -189.874012 
L 356.980165 -187.711031 
L 359.747107 -183.811178 
L 362.51405 -178.410667 
L 365.280992 -171.780414 
L 368.047934 -164.211205 
L 370.814876 -155.99872 
L 373.581818 -147.429393 
L 373.581818 -209.942864 
L 373.581818 -209.942864 
L 370.814876 -214.781042 
L 368.047934 -218.84459 
L 365.280992 -221.916577 
L 362.51405 -223.800667 
L 359.747107 -224.334359 
L 356.980165 -223.401503 
L 354.213223 -220.94296 
L 351.446281 -216.963673 
L 348.679339 -211.533208 
L 345.912397 -204.775132 
L 343.145455 -196.842311 
L 340.378512 -187.887186 
L 337.61157 -178.051653 
L 334.844628 -167.488643 
L 332.077686 -156.391509 
L 329.310744 -145.002563 
L 326.543802 -133.598146 
L 323.77686 -122.462462 
L 321.009917 -111.860875 
L 318.242975 -102.018838 
L 315.476033 -93.109937 
L 312.709091 -85.254518 
L 309.942149 -78.528276 
L 307.175207 -72.978544 
L 304.408264 -68.64482 
L 301.641322 -65.576982 
L 298.87438 -63.83779 
L 296.107438 -63.474158 
L 293.340496 -64.467133 
L 290.573554 -66.70629 
L 287.806612 -70.011534 
L 285.039669 -74.172765 
L 282.272727 -78.977849 
L 279.505785 -84.225917 
L 276.738843 -89.732954 
L 273.971901 -95.334544 
L 271.204959 -100.887613 
L 268.438017 -106.271551 
L 265.671074 -111.388649 
L 262.904132 -116.163713 
L 260.13719 -120.542791 
L 257.370248 -124.491005 
L 254.603306 -127.989628 
L 251.836364 -131.032583 
L 249.069421 -133.622663 
L 246.302479 -135.767764 
L 243.535537 -137.477508 
L 240.768595 -138.760533 
L 238.001653 -139.622734 
L 235.234711 -140.06659 
L 232.467769 -140.091627 
L 229.700826 -139.695932 
L 226.933884 -138.878527 
L 224.166942 -137.642333 
L 221.4 -135.997409 
L 218.633058 -133.964112 
L 215.866116 -131.575867 
L 213.099174 -128.881263 
L 210.332231 -125.945282 
L 207.565289 -122.849549 
L 204.798347 -119.691549 
L 202.031405 -116.58268 
L 199.264463 -113.644471 
L 196.497521 -111.001022 
L 193.730579 -108.763769 
L 190.963636 -107.005818 
L 188.196694 -105.734367 
L 185.429752 -104.885527 
L 182.66281 -104.354514 
L 179.895868 -104.037798 
L 177.128926 -103.857335 
L 174.361983 -103.762671 
L 171.595041 -103.721972 
L 168.828099 -103.711181 
L 166.061157 -103.705473 
L 163.294215 -103.67448 
L 160.527273 -103.581658 
L 157.760331 -103.387418 
L 154.993388 -103.054849 
L 152.226446 -102.55638 
L 149.459504 -101.87983 
L 146.692562 -101.032744 
L 143.92562 -100.044603 
L 141.158678 -98.966922 
L 138.391736 -97.871563 
L 135.624793 -96.847663 
L 132.857851 -95.997555 
L 130.090909 -95.431918 
L 127.323967 -95.264256 
L 124.557025 -95.604677 
L 121.790083 -96.552889 
L 119.02314 -98.190453 
L 116.256198 -100.572538 
L 113.489256 -103.719906 
L 110.722314 -107.612381 
L 107.955372 -112.185479 
L 105.18843 -117.331813 
L 102.421488 -122.908292 
L 99.654545 -128.749186 
L 96.887603 -134.684242 
L 94.120661 -140.559827 
L 91.353719 -146.258318 
L 88.586777 -151.705852 
L 85.819835 -156.856788 
L 83.052893 -161.658534 
L 80.28595 -166.026201 
L 77.519008 -169.850243 
L 74.752066 -173.024061 
L 71.985124 -175.467372 
L 69.218182 -177.137121 
z
" id="m2a553cf801" style="stroke:#add8e6;stroke-opacity:0.2;"/>
    </defs>
    <g clip-path="url(#p7a99fb46c5)">
     <use style="fill:#add8e6;fill-opacity:0.2;stroke:#add8e6;stroke-opacity:0.2;" x="0" xlink:href="#m2a553cf801" y="288"/>
    </g>
   </g>
   <g id="PathCollection_1">
    <defs>
     <path d="M 0 0.612372 
C 0.162403 0.612372 0.318176 0.547849 0.433013 0.433013 
C 0.547849 0.318176 0.612372 0.162403 0.612372 0 
C 0.612372 -0.162403 0.547849 -0.318176 0.433013 -0.433013 
C 0.318176 -0.547849 0.162403 -0.612372 0 -0.612372 
C -0.162403 -0.612372 -0.318176 -0.547849 -0.433013 -0.433013 
C -0.547849 -0.318176 -0.612372 -0.162403 -0.612372 0 
C -0.612372 0.162403 -0.547849 0.318176 -0.433013 0.433013 
C -0.318176 0.547849 -0.162403 0.612372 0 0.612372 
z
" id="m99f7edb05f" style="stroke:#ff0000;stroke-width:8;"/>
    </defs>
    <g clip-path="url(#p7a99fb46c5)">
     <use style="fill:#ff0000;stroke:#ff0000;stroke-width:8;" x="276.738843" xlink:href="#m99f7edb05f" y="217.421279"/>
    </g>
   </g>
   <g id="matplotlib.axis_1">
    <g id="xtick_1">
     <g id="line2d_1">
      <defs>
       <path d="M 0 0 
L 0 3.5 
" id="m4785ff83f7" style="stroke:#000000;stroke-width:0.8;"/>
      </defs>
      <g>
       <use style="stroke:#000000;stroke-width:0.8;" x="69.218182" xlink:href="#m4785ff83f7" y="252"/>
      </g>
     </g>
     <g id="text_1">
      <!-- 0 -->
      <g transform="translate(66.036932 266.598437)scale(0.1 -0.1)">
       <defs>
        <path d="M 2034 4250 
Q 1547 4250 1301 3770 
Q 1056 3291 1056 2328 
Q 1056 1369 1301 889 
Q 1547 409 2034 409 
Q 2525 409 2770 889 
Q 3016 1369 3016 2328 
Q 3016 3291 2770 3770 
Q 2525 4250 2034 4250 
z
M 2034 4750 
Q 2819 4750 3233 4129 
Q 3647 3509 3647 2328 
Q 3647 1150 3233 529 
Q 2819 -91 2034 -91 
Q 1250 -91 836 529 
Q 422 1150 422 2328 
Q 422 3509 836 4129 
Q 1250 4750 2034 4750 
z
" id="DejaVuSans-30" transform="scale(0.015625)"/>
       </defs>
       <use xlink:href="#DejaVuSans-30"/>
      </g>
     </g>
    </g>
    <g id="xtick_2">
     <g id="line2d_2">
      <g>
       <use style="stroke:#000000;stroke-width:0.8;" x="124.557025" xlink:href="#m4785ff83f7" y="252"/>
      </g>
     </g>
     <g id="text_2">
      <!-- 2 -->
      <g transform="translate(121.375775 266.598437)scale(0.1 -0.1)">
       <defs>
        <path d="M 1228 531 
L 3431 531 
L 3431 0 
L 469 0 
L 469 531 
Q 828 903 1448 1529 
Q 2069 2156 2228 2338 
Q 2531 2678 2651 2914 
Q 2772 3150 2772 3378 
Q 2772 3750 2511 3984 
Q 2250 4219 1831 4219 
Q 1534 4219 1204 4116 
Q 875 4013 500 3803 
L 500 4441 
Q 881 4594 1212 4672 
Q 1544 4750 1819 4750 
Q 2544 4750 2975 4387 
Q 3406 4025 3406 3419 
Q 3406 3131 3298 2873 
Q 3191 2616 2906 2266 
Q 2828 2175 2409 1742 
Q 1991 1309 1228 531 
z
" id="DejaVuSans-32" transform="scale(0.015625)"/>
       </defs>
       <use xlink:href="#DejaVuSans-32"/>
      </g>
     </g>
    </g>
    <g id="xtick_3">
     <g id="line2d_3">
      <g>
       <use style="stroke:#000000;stroke-width:0.8;" x="179.895868" xlink:href="#m4785ff83f7" y="252"/>
      </g>
     </g>
     <g id="text_3">
      <!-- 4 -->
      <g transform="translate(176.714618 266.598437)scale(0.1 -0.1)">
       <defs>
        <path d="M 2419 4116 
L 825 1625 
L 2419 1625 
L 2419 4116 
z
M 2253 4666 
L 3047 4666 
L 3047 1625 
L 3713 1625 
L 3713 1100 
L 3047 1100 
L 3047 0 
L 2419 0 
L 2419 1100 
L 313 1100 
L 313 1709 
L 2253 4666 
z
" id="DejaVuSans-34" transform="scale(0.015625)"/>
       </defs>
       <use xlink:href="#DejaVuSans-34"/>
      </g>
     </g>
    </g>
    <g id="xtick_4">
     <g id="line2d_4">
      <g>
       <use style="stroke:#000000;stroke-width:0.8;" x="235.234711" xlink:href="#m4785ff83f7" y="252"/>
      </g>
     </g>
     <g id="text_4">
      <!-- 6 -->
      <g transform="translate(232.053461 266.598437)scale(0.1 -0.1)">
       <defs>
        <path d="M 2113 2584 
Q 1688 2584 1439 2293 
Q 1191 2003 1191 1497 
Q 1191 994 1439 701 
Q 1688 409 2113 409 
Q 2538 409 2786 701 
Q 3034 994 3034 1497 
Q 3034 2003 2786 2293 
Q 2538 2584 2113 2584 
z
M 3366 4563 
L 3366 3988 
Q 3128 4100 2886 4159 
Q 2644 4219 2406 4219 
Q 1781 4219 1451 3797 
Q 1122 3375 1075 2522 
Q 1259 2794 1537 2939 
Q 1816 3084 2150 3084 
Q 2853 3084 3261 2657 
Q 3669 2231 3669 1497 
Q 3669 778 3244 343 
Q 2819 -91 2113 -91 
Q 1303 -91 875 529 
Q 447 1150 447 2328 
Q 447 3434 972 4092 
Q 1497 4750 2381 4750 
Q 2619 4750 2861 4703 
Q 3103 4656 3366 4563 
z
" id="DejaVuSans-36" transform="scale(0.015625)"/>
       </defs>
       <use xlink:href="#DejaVuSans-36"/>
      </g>
     </g>
    </g>
    <g id="xtick_5">
     <g id="line2d_5">
      <g>
       <use style="stroke:#000000;stroke-width:0.8;" x="290.573554" xlink:href="#m4785ff83f7" y="252"/>
      </g>
     </g>
     <g id="text_5">
      <!-- 8 -->
      <g transform="translate(287.392304 266.598437)scale(0.1 -0.1)">
       <defs>
        <path d="M 2034 2216 
Q 1584 2216 1326 1975 
Q 1069 1734 1069 1313 
Q 1069 891 1326 650 
Q 1584 409 2034 409 
Q 2484 409 2743 651 
Q 3003 894 3003 1313 
Q 3003 1734 2745 1975 
Q 2488 2216 2034 2216 
z
M 1403 2484 
Q 997 2584 770 2862 
Q 544 3141 544 3541 
Q 544 4100 942 4425 
Q 1341 4750 2034 4750 
Q 2731 4750 3128 4425 
Q 3525 4100 3525 3541 
Q 3525 3141 3298 2862 
Q 3072 2584 2669 2484 
Q 3125 2378 3379 2068 
Q 3634 1759 3634 1313 
Q 3634 634 3220 271 
Q 2806 -91 2034 -91 
Q 1263 -91 848 271 
Q 434 634 434 1313 
Q 434 1759 690 2068 
Q 947 2378 1403 2484 
z
M 1172 3481 
Q 1172 3119 1398 2916 
Q 1625 2713 2034 2713 
Q 2441 2713 2670 2916 
Q 2900 3119 2900 3481 
Q 2900 3844 2670 4047 
Q 2441 4250 2034 4250 
Q 1625 4250 1398 4047 
Q 1172 3844 1172 3481 
z
" id="DejaVuSans-38" transform="scale(0.015625)"/>
       </defs>
       <use xlink:href="#DejaVuSans-38"/>
      </g>
     </g>
    </g>
    <g id="xtick_6">
     <g id="line2d_6">
      <g>
       <use style="stroke:#000000;stroke-width:0.8;" x="345.912397" xlink:href="#m4785ff83f7" y="252"/>
      </g>
     </g>
     <g id="text_6">
      <!-- 10 -->
      <g transform="translate(339.549897 266.598437)scale(0.1 -0.1)">
       <defs>
        <path d="M 794 531 
L 1825 531 
L 1825 4091 
L 703 3866 
L 703 4441 
L 1819 4666 
L 2450 4666 
L 2450 531 
L 3481 531 
L 3481 0 
L 794 0 
L 794 531 
z
" id="DejaVuSans-31" transform="scale(0.015625)"/>
       </defs>
       <use xlink:href="#DejaVuSans-31"/>
       <use x="63.623047" xlink:href="#DejaVuSans-30"/>
      </g>
     </g>
    </g>
    <g id="text_7">
     <!-- x -->
     <g transform="translate(217.84875 281.79625)scale(0.12 -0.12)">
      <defs>
       <path d="M 3513 3500 
L 2247 1797 
L 3578 0 
L 2900 0 
L 1881 1375 
L 863 0 
L 184 0 
L 1544 1831 
L 300 3500 
L 978 3500 
L 1906 2253 
L 2834 3500 
L 3513 3500 
z
" id="DejaVuSans-78" transform="scale(0.015625)"/>
      </defs>
      <use xlink:href="#DejaVuSans-78"/>
     </g>
    </g>
   </g>
   <g id="matplotlib.axis_2">
    <g id="ytick_1">
     <g id="line2d_7">
      <defs>
       <path d="M 0 0 
L -3.5 0 
" id="m3d0fcbc2b6" style="stroke:#000000;stroke-width:0.8;"/>
      </defs>
      <g>
       <use style="stroke:#000000;stroke-width:0.8;" x="54" xlink:href="#m3d0fcbc2b6" y="252"/>
      </g>
     </g>
     <g id="text_8">
      <!-- 3 -->
      <g transform="translate(40.6375 255.799219)scale(0.1 -0.1)">
       <defs>
        <path d="M 2597 2516 
Q 3050 2419 3304 2112 
Q 3559 1806 3559 1356 
Q 3559 666 3084 287 
Q 2609 -91 1734 -91 
Q 1441 -91 1130 -33 
Q 819 25 488 141 
L 488 750 
Q 750 597 1062 519 
Q 1375 441 1716 441 
Q 2309 441 2620 675 
Q 2931 909 2931 1356 
Q 2931 1769 2642 2001 
Q 2353 2234 1838 2234 
L 1294 2234 
L 1294 2753 
L 1863 2753 
Q 2328 2753 2575 2939 
Q 2822 3125 2822 3475 
Q 2822 3834 2567 4026 
Q 2313 4219 1838 4219 
Q 1578 4219 1281 4162 
Q 984 4106 628 3988 
L 628 4550 
Q 988 4650 1302 4700 
Q 1616 4750 1894 4750 
Q 2613 4750 3031 4423 
Q 3450 4097 3450 3541 
Q 3450 3153 3228 2886 
Q 3006 2619 2597 2516 
z
" id="DejaVuSans-33" transform="scale(0.015625)"/>
       </defs>
       <use xlink:href="#DejaVuSans-33"/>
      </g>
     </g>
    </g>
    <g id="ytick_2">
     <g id="line2d_8">
      <g>
       <use style="stroke:#000000;stroke-width:0.8;" x="54" xlink:href="#m3d0fcbc2b6" y="215.76"/>
      </g>
     </g>
     <g id="text_9">
      <!-- 4 -->
      <g transform="translate(40.6375 219.559219)scale(0.1 -0.1)">
       <use xlink:href="#DejaVuSans-34"/>
      </g>
     </g>
    </g>
    <g id="ytick_3">
     <g id="line2d_9">
      <g>
       <use style="stroke:#000000;stroke-width:0.8;" x="54" xlink:href="#m3d0fcbc2b6" y="179.52"/>
      </g>
     </g>
     <g id="text_10">
      <!-- 5 -->
      <g transform="translate(40.6375 183.319219)scale(0.1 -0.1)">
       <defs>
        <path d="M 691 4666 
L 3169 4666 
L 3169 4134 
L 1269 4134 
L 1269 2991 
Q 1406 3038 1543 3061 
Q 1681 3084 1819 3084 
Q 2600 3084 3056 2656 
Q 3513 2228 3513 1497 
Q 3513 744 3044 326 
Q 2575 -91 1722 -91 
Q 1428 -91 1123 -41 
Q 819 9 494 109 
L 494 744 
Q 775 591 1075 516 
Q 1375 441 1709 441 
Q 2250 441 2565 725 
Q 2881 1009 2881 1497 
Q 2881 1984 2565 2268 
Q 2250 2553 1709 2553 
Q 1456 2553 1204 2497 
Q 953 2441 691 2322 
L 691 4666 
z
" id="DejaVuSans-35" transform="scale(0.015625)"/>
       </defs>
       <use xlink:href="#DejaVuSans-35"/>
      </g>
     </g>
    </g>
    <g id="ytick_4">
     <g id="line2d_10">
      <g>
       <use style="stroke:#000000;stroke-width:0.8;" x="54" xlink:href="#m3d0fcbc2b6" y="143.28"/>
      </g>
     </g>
     <g id="text_11">
      <!-- 6 -->
      <g transform="translate(40.6375 147.079219)scale(0.1 -0.1)">
       <use xlink:href="#DejaVuSans-36"/>
      </g>
     </g>
    </g>
    <g id="ytick_5">
     <g id="line2d_11">
      <g>
       <use style="stroke:#000000;stroke-width:0.8;" x="54" xlink:href="#m3d0fcbc2b6" y="107.04"/>
      </g>
     </g>
     <g id="text_12">
      <!-- 7 -->
      <g transform="translate(40.6375 110.839219)scale(0.1 -0.1)">
       <defs>
        <path d="M 525 4666 
L 3525 4666 
L 3525 4397 
L 1831 0 
L 1172 0 
L 2766 4134 
L 525 4134 
L 525 4666 
z
" id="DejaVuSans-37" transform="scale(0.015625)"/>
       </defs>
       <use xlink:href="#DejaVuSans-37"/>
      </g>
     </g>
    </g>
    <g id="ytick_6">
     <g id="line2d_12">
      <g>
       <use style="stroke:#000000;stroke-width:0.8;" x="54" xlink:href="#m3d0fcbc2b6" y="70.8"/>
      </g>
     </g>
     <g id="text_13">
      <!-- 8 -->
      <g transform="translate(40.6375 74.599219)scale(0.1 -0.1)">
       <use xlink:href="#DejaVuSans-38"/>
      </g>
     </g>
    </g>
    <g id="ytick_7">
     <g id="line2d_13">
      <g>
       <use style="stroke:#000000;stroke-width:0.8;" x="54" xlink:href="#m3d0fcbc2b6" y="34.56"/>
      </g>
     </g>
     <g id="text_14">
      <!-- 9 -->
      <g transform="translate(40.6375 38.359219)scale(0.1 -0.1)">
       <defs>
        <path d="M 703 97 
L 703 672 
Q 941 559 1184 500 
Q 1428 441 1663 441 
Q 2288 441 2617 861 
Q 2947 1281 2994 2138 
Q 2813 1869 2534 1725 
Q 2256 1581 1919 1581 
Q 1219 1581 811 2004 
Q 403 2428 403 3163 
Q 403 3881 828 4315 
Q 1253 4750 1959 4750 
Q 2769 4750 3195 4129 
Q 3622 3509 3622 2328 
Q 3622 1225 3098 567 
Q 2575 -91 1691 -91 
Q 1453 -91 1209 -44 
Q 966 3 703 97 
z
M 1959 2075 
Q 2384 2075 2632 2365 
Q 2881 2656 2881 3163 
Q 2881 3666 2632 3958 
Q 2384 4250 1959 4250 
Q 1534 4250 1286 3958 
Q 1038 3666 1038 3163 
Q 1038 2656 1286 2365 
Q 1534 2075 1959 2075 
z
" id="DejaVuSans-39" transform="scale(0.015625)"/>
       </defs>
       <use xlink:href="#DejaVuSans-39"/>
      </g>
     </g>
    </g>
    <g id="text_15">
     <!-- y -->
     <g transform="translate(34.141875 146.83125)rotate(-90)scale(0.12 -0.12)">
      <defs>
       <path d="M 2059 -325 
Q 1816 -950 1584 -1140 
Q 1353 -1331 966 -1331 
L 506 -1331 
L 506 -850 
L 844 -850 
Q 1081 -850 1212 -737 
Q 1344 -625 1503 -206 
L 1606 56 
L 191 3500 
L 800 3500 
L 1894 763 
L 2988 3500 
L 3597 3500 
L 2059 -325 
z
" id="DejaVuSans-79" transform="scale(0.015625)"/>
      </defs>
      <use xlink:href="#DejaVuSans-79"/>
     </g>
    </g>
   </g>
   <g id="line2d_14">
    <path clip-path="url(#p7a99fb46c5)" d="M 69.218182 70.8 
L 71.985124 85.083949 
L 74.752066 98.25467 
L 77.519008 110.364828 
L 80.28595 121.465955 
L 83.052893 131.608455 
L 85.819835 140.841599 
L 88.586777 149.213528 
L 91.353719 156.771253 
L 94.120661 163.560654 
L 96.887603 169.62648 
L 99.654545 175.012349 
L 102.421488 179.76075 
L 105.18843 183.913038 
L 107.955372 187.509441 
L 110.722314 190.589055 
L 113.489256 193.189844 
L 116.256198 195.348643 
L 119.02314 197.101155 
L 121.790083 198.481953 
L 124.557025 199.52448 
L 127.323967 200.261047 
L 130.090909 200.722835 
L 132.857851 200.939895 
L 135.624793 200.941145 
L 138.391736 200.754375 
L 141.158678 200.406243 
L 143.92562 199.922276 
L 146.692562 199.326871 
L 149.459504 198.643294 
L 152.226446 197.89368 
L 154.993388 197.099035 
L 157.760331 196.279231 
L 160.527273 195.453014 
L 163.294215 194.637994 
L 166.061157 193.850655 
L 168.828099 193.106347 
L 171.595041 192.419291 
L 174.361983 191.802577 
L 177.128926 191.268164 
L 179.895868 190.82688 
L 182.66281 190.488424 
L 185.429752 190.261362 
L 188.196694 190.153131 
L 190.963636 190.170037 
L 193.730579 190.317255 
L 196.497521 190.598829 
L 199.264463 191.017673 
L 202.031405 191.575569 
L 204.798347 192.273171 
L 207.565289 193.11 
L 210.332231 194.084446 
L 213.099174 195.193771 
L 215.866116 196.434103 
L 218.633058 197.800442 
L 221.4 199.286655 
L 224.166942 200.88548 
L 226.933884 202.588525 
L 229.700826 204.386264 
L 232.467769 206.268045 
L 235.234711 208.22208 
L 238.001653 210.235455 
L 240.768595 212.294122 
L 243.535537 214.382905 
L 246.302479 216.485496 
L 249.069421 218.584455 
L 251.836364 220.661214 
L 254.603306 222.696071 
L 257.370248 224.668198 
L 260.13719 226.555631 
L 262.904132 228.33528 
L 265.671074 229.982921 
L 268.438017 231.4732 
L 271.204959 232.779634 
L 273.971901 233.874607 
L 276.738843 234.729375 
L 279.505785 235.31406 
L 282.272727 235.597656 
L 285.039669 235.548026 
L 287.806612 235.1319 
L 290.573554 234.31488 
L 293.340496 233.061436 
L 296.107438 231.334908 
L 298.87438 229.097505 
L 301.641322 226.310305 
L 304.408264 222.933255 
L 307.175207 218.925173 
L 309.942149 214.243744 
L 312.709091 208.845524 
L 315.476033 202.685938 
L 318.242975 195.71928 
L 321.009917 187.898713 
L 323.77686 179.176271 
L 326.543802 169.502854 
L 329.310744 158.828236 
L 332.077686 147.101055 
L 334.844628 134.268823 
L 337.61157 120.277918 
L 340.378512 105.073589 
L 343.145455 88.599954 
L 345.912397 70.8 
L 348.679339 51.615584 
L 351.446281 30.987432 
L 354.213223 8.855138 
L 355.363895 -1 
" style="fill:none;stroke:#0000ff;stroke-linecap:square;stroke-width:2;"/>
   </g>
   <g id="line2d_15">
    <path clip-path="url(#p7a99fb46c5)" d="M 69.218182 151.369828 
L 71.985124 148.211967 
L 74.752066 146.037658 
L 77.519008 144.994518 
L 80.28595 145.194262 
L 83.052893 146.695512 
L 85.819835 149.478941 
L 88.586777 153.423364 
L 91.353719 158.306901 
L 94.120661 163.845794 
L 96.887603 169.746818 
L 99.654545 175.742611 
L 102.421488 181.604836 
L 105.18843 187.145309 
L 107.955372 192.213482 
L 110.722314 196.693771 
L 113.489256 200.503753 
L 116.256198 203.593398 
L 119.02314 205.945032 
L 121.790083 207.573194 
L 124.557025 208.523302 
L 127.323967 208.868293 
L 130.090909 208.702993 
L 132.857851 208.136665 
L 135.624793 207.284585 
L 138.391736 206.2597 
L 141.158678 205.165326 
L 143.92562 204.089617 
L 146.692562 203.102166 
L 149.459504 202.252719 
L 152.226446 201.571598 
L 154.993388 201.071234 
L 157.760331 200.748067 
L 160.527273 200.584279 
L 163.294215 200.549179 
L 166.061157 200.600679 
L 168.828099 200.68778 
L 171.595041 200.75515 
L 174.361983 200.750456 
L 177.128926 200.63446 
L 179.895868 200.393257 
L 182.66281 200.051101 
L 185.429752 199.679686 
L 188.196694 199.394846 
L 190.963636 199.329911 
L 193.730579 199.590272 
L 196.497521 200.219405 
L 199.264463 201.200162 
L 202.031405 202.478698 
L 204.798347 203.987009 
L 207.565289 205.655768 
L 210.332231 207.420332 
L 213.099174 209.223821 
L 215.866116 211.019163 
L 218.633058 212.770616 
L 221.4 214.454728 
L 224.166942 216.060543 
L 226.933884 217.588958 
L 229.700826 219.051184 
L 232.467769 220.466416 
L 235.234711 221.8589 
L 238.001653 223.254632 
L 240.768595 224.678019 
L 243.535537 226.148783 
L 246.302479 227.679425 
L 249.069421 229.273464 
L 251.836364 230.924582 
L 254.603306 232.616743 
L 257.370248 234.325188 
L 260.13719 236.018177 
L 262.904132 237.659229 
L 265.671074 239.209618 
L 268.438017 240.630823 
L 271.204959 241.886685 
L 273.971901 242.945068 
L 276.738843 243.778898 
L 279.505785 244.366606 
L 282.272727 244.692089 
L 285.039669 244.744363 
L 287.806612 244.516718 
L 290.573554 244.003831 
L 293.340496 243.192351 
L 296.107438 242.038372 
L 298.87438 240.435116 
L 301.641322 238.20053 
L 304.408264 235.114317 
L 307.175207 230.981025 
L 309.942149 225.672815 
L 312.709091 219.140947 
L 315.476033 211.410216 
L 318.242975 202.568323 
L 321.009917 192.755272 
L 323.77686 182.155046 
L 326.543802 170.99087 
L 329.310744 159.524341 
L 332.077686 148.057145 
L 334.844628 136.932785 
L 337.61157 126.533623 
L 340.378512 117.264559 
L 343.145455 109.513394 
L 345.912397 103.592932 
L 348.679339 99.695709 
L 351.446281 97.8871 
L 354.213223 98.125988 
L 356.980165 100.288969 
L 359.747107 104.188822 
L 362.51405 109.589333 
L 365.280992 116.219586 
L 368.047934 123.788795 
L 370.814876 132.00128 
L 373.581818 140.570607 
" style="fill:none;stroke:#008000;stroke-dasharray:3.7,1.6;stroke-dashoffset:0;"/>
   </g>
   <g id="line2d_16">
    <path clip-path="url(#p7a99fb46c5)" d="M 69.218182 110.862879 
L 71.985124 112.532628 
L 74.752066 114.975939 
L 77.519008 118.149757 
L 80.28595 121.973799 
L 83.052893 126.341466 
L 85.819835 131.143212 
L 88.586777 136.294148 
L 91.353719 141.741682 
L 94.120661 147.440173 
L 96.887603 153.315758 
L 99.654545 159.250814 
L 102.421488 165.091708 
L 105.18843 170.668187 
L 107.955372 175.814521 
L 110.722314 180.387619 
L 113.489256 184.280094 
L 116.256198 187.427462 
L 119.02314 189.809547 
L 121.790083 191.447111 
L 124.557025 192.395323 
L 127.323967 192.735744 
L 130.090909 192.568082 
L 132.857851 192.002445 
L 135.624793 191.152337 
L 138.391736 190.128437 
L 141.158678 189.033078 
L 143.92562 187.955397 
L 146.692562 186.967256 
L 149.459504 186.12017 
L 152.226446 185.44362 
L 154.993388 184.945151 
L 157.760331 184.612582 
L 160.527273 184.418342 
L 163.294215 184.32552 
L 166.061157 184.294527 
L 168.828099 184.288819 
L 171.595041 184.278028 
L 174.361983 184.237329 
L 177.128926 184.142665 
L 179.895868 183.962202 
L 182.66281 183.645486 
L 185.429752 183.114473 
L 188.196694 182.265633 
L 190.963636 180.994182 
L 193.730579 179.236231 
L 196.497521 176.998978 
L 199.264463 174.355529 
L 202.031405 171.41732 
L 204.798347 168.308451 
L 207.565289 165.150451 
L 210.332231 162.054718 
L 213.099174 159.118737 
L 215.866116 156.424133 
L 218.633058 154.035888 
L 221.4 152.002591 
L 224.166942 150.357667 
L 226.933884 149.121473 
L 229.700826 148.304068 
L 232.467769 147.908373 
L 235.234711 147.93341 
L 238.001653 148.377266 
L 240.768595 149.239467 
L 243.535537 150.522492 
L 246.302479 152.232236 
L 249.069421 154.377337 
L 251.836364 156.967417 
L 254.603306 160.010372 
L 257.370248 163.508995 
L 260.13719 167.457209 
L 262.904132 171.836287 
L 265.671074 176.611351 
L 268.438017 181.728449 
L 271.204959 187.112387 
L 273.971901 192.665456 
L 276.738843 198.267046 
L 279.505785 203.774083 
L 282.272727 209.022151 
L 285.039669 213.827235 
L 287.806612 217.988466 
L 290.573554 221.29371 
L 293.340496 223.532867 
L 296.107438 224.525842 
L 298.87438 224.16221 
L 301.641322 222.423018 
L 304.408264 219.35518 
L 307.175207 215.021456 
L 309.942149 209.471724 
L 312.709091 202.745482 
L 315.476033 194.890063 
L 318.242975 185.981162 
L 321.009917 176.139125 
L 323.77686 165.537538 
L 326.543802 154.401854 
L 329.310744 142.997437 
L 332.077686 131.608491 
L 334.844628 120.511357 
L 337.61157 109.948347 
L 340.378512 100.112814 
L 343.145455 91.157689 
L 345.912397 83.224868 
L 348.679339 76.466792 
L 351.446281 71.036327 
L 354.213223 67.05704 
L 356.980165 64.598497 
L 359.747107 63.665641 
L 362.51405 64.199333 
L 365.280992 66.083423 
L 368.047934 69.15541 
L 370.814876 73.218958 
L 373.581818 78.057136 
" style="fill:none;stroke:#008000;stroke-dasharray:3.7,1.6;stroke-dashoffset:0;"/>
   </g>
   <g id="line2d_17">
    <path clip-path="url(#p7a99fb46c5)" d="M 69.218182 252 
L 71.985124 252 
L 74.752066 252 
L 77.519008 252 
L 80.28595 252 
L 83.052893 252 
L 85.819835 252 
L 88.586777 252 
L 91.353719 252 
L 94.120661 252 
L 96.887603 252 
L 99.654545 252 
L 102.421488 252 
L 105.18843 252 
L 107.955372 252 
L 110.722314 252 
L 113.489256 252 
L 116.256198 252 
L 119.02314 252 
L 121.790083 252 
L 124.557025 252 
L 127.323967 252 
L 130.090909 252 
L 132.857851 252 
L 135.624793 252 
L 138.391736 252 
L 141.158678 252 
L 143.92562 252 
L 146.692562 252 
L 149.459504 252 
L 152.226446 252 
L 154.993388 252 
L 157.760331 252 
L 160.527273 252 
L 163.294215 252 
L 166.061157 252 
L 168.828099 252 
L 171.595041 252 
L 174.361983 252 
L 177.128926 252 
L 179.895868 252 
L 182.66281 252 
L 185.429752 252 
L 188.196694 252 
L 190.963636 252 
L 193.730579 252 
L 196.497521 251.999999 
L 199.264463 251.999865 
L 202.031405 251.995912 
L 204.798347 251.95921 
L 207.565289 251.803078 
L 210.332231 251.404134 
L 213.099174 250.671495 
L 215.866116 249.588443 
L 218.633058 248.20503 
L 221.4 246.607572 
L 224.166942 244.888765 
L 226.933884 243.127534 
L 229.700826 241.379128 
L 232.467769 239.673008 
L 235.234711 238.015819 
L 238.001653 236.397178 
L 240.768595 234.796624 
L 243.535537 233.190607 
L 246.302479 231.55881 
L 249.069421 229.889379 
L 251.836364 228.182785 
L 254.603306 226.454115 
L 257.370248 224.73365 
L 260.13719 223.065646 
L 262.904132 221.505396 
L 265.671074 220.114856 
L 268.438017 218.957332 
L 271.204959 218.091871 
L 273.971901 217.568001 
L 276.738843 217.421279 
L 279.505785 217.669925 
L 282.272727 218.313609 
L 285.039669 219.340286 
L 287.806612 220.762086 
L 290.573554 222.72488 
L 293.340496 225.700185 
L 296.107438 230.488636 
L 298.87438 237.409403 
L 301.641322 244.902714 
L 304.408264 250.005156 
L 307.175207 251.765578 
L 309.942149 251.992903 
L 312.709091 251.999972 
L 315.476033 252 
L 318.242975 252 
L 321.009917 252 
L 323.77686 252 
L 326.543802 252 
L 329.310744 252 
L 332.077686 252 
L 334.844628 252 
L 337.61157 252 
L 340.378512 252 
L 343.145455 252 
L 345.912397 252 
L 348.679339 252 
L 351.446281 252 
L 354.213223 252 
L 356.980165 252 
L 359.747107 252 
L 362.51405 252 
L 365.280992 252 
L 368.047934 251.999998 
L 370.814876 251.999943 
L 373.581818 251.999154 
" style="fill:none;stroke:#bfbf00;stroke-dasharray:7.4,3.2;stroke-dashoffset:0;stroke-width:2;"/>
   </g>
   <g id="patch_3">
    <path d="M 54 252 
L 54 34.56 
" style="fill:none;stroke:#000000;stroke-linecap:square;stroke-linejoin:miter;stroke-width:0.8;"/>
   </g>
   <g id="patch_4">
    <path d="M 388.8 252 
L 388.8 34.56 
" style="fill:none;stroke:#000000;stroke-linecap:square;stroke-linejoin:miter;stroke-width:0.8;"/>
   </g>
   <g id="patch_5">
    <path d="M 54 252 
L 388.8 252 
" style="fill:none;stroke:#000000;stroke-linecap:square;stroke-linejoin:miter;stroke-width:0.8;"/>
   </g>
   <g id="patch_6">
    <path d="M 54 34.56 
L 388.8 34.56 
" style="fill:none;stroke:#000000;stroke-linecap:square;stroke-linejoin:miter;stroke-width:0.8;"/>
   </g>
   <g id="text_16">
    <!-- Method : EQI -->
    <g transform="translate(71.985124 244.752)scale(0.12 -0.12)">
     <defs>
      <path d="M 628 4666 
L 1569 4666 
L 2759 1491 
L 3956 4666 
L 4897 4666 
L 4897 0 
L 4281 0 
L 4281 4097 
L 3078 897 
L 2444 897 
L 1241 4097 
L 1241 0 
L 628 0 
L 628 4666 
z
" id="DejaVuSans-4d" transform="scale(0.015625)"/>
      <path d="M 3597 1894 
L 3597 1613 
L 953 1613 
Q 991 1019 1311 708 
Q 1631 397 2203 397 
Q 2534 397 2845 478 
Q 3156 559 3463 722 
L 3463 178 
Q 3153 47 2828 -22 
Q 2503 -91 2169 -91 
Q 1331 -91 842 396 
Q 353 884 353 1716 
Q 353 2575 817 3079 
Q 1281 3584 2069 3584 
Q 2775 3584 3186 3129 
Q 3597 2675 3597 1894 
z
M 3022 2063 
Q 3016 2534 2758 2815 
Q 2500 3097 2075 3097 
Q 1594 3097 1305 2825 
Q 1016 2553 972 2059 
L 3022 2063 
z
" id="DejaVuSans-65" transform="scale(0.015625)"/>
      <path d="M 1172 4494 
L 1172 3500 
L 2356 3500 
L 2356 3053 
L 1172 3053 
L 1172 1153 
Q 1172 725 1289 603 
Q 1406 481 1766 481 
L 2356 481 
L 2356 0 
L 1766 0 
Q 1100 0 847 248 
Q 594 497 594 1153 
L 594 3053 
L 172 3053 
L 172 3500 
L 594 3500 
L 594 4494 
L 1172 4494 
z
" id="DejaVuSans-74" transform="scale(0.015625)"/>
      <path d="M 3513 2113 
L 3513 0 
L 2938 0 
L 2938 2094 
Q 2938 2591 2744 2837 
Q 2550 3084 2163 3084 
Q 1697 3084 1428 2787 
Q 1159 2491 1159 1978 
L 1159 0 
L 581 0 
L 581 4863 
L 1159 4863 
L 1159 2956 
Q 1366 3272 1645 3428 
Q 1925 3584 2291 3584 
Q 2894 3584 3203 3211 
Q 3513 2838 3513 2113 
z
" id="DejaVuSans-68" transform="scale(0.015625)"/>
      <path d="M 1959 3097 
Q 1497 3097 1228 2736 
Q 959 2375 959 1747 
Q 959 1119 1226 758 
Q 1494 397 1959 397 
Q 2419 397 2687 759 
Q 2956 1122 2956 1747 
Q 2956 2369 2687 2733 
Q 2419 3097 1959 3097 
z
M 1959 3584 
Q 2709 3584 3137 3096 
Q 3566 2609 3566 1747 
Q 3566 888 3137 398 
Q 2709 -91 1959 -91 
Q 1206 -91 779 398 
Q 353 888 353 1747 
Q 353 2609 779 3096 
Q 1206 3584 1959 3584 
z
" id="DejaVuSans-6f" transform="scale(0.015625)"/>
      <path d="M 2906 2969 
L 2906 4863 
L 3481 4863 
L 3481 0 
L 2906 0 
L 2906 525 
Q 2725 213 2448 61 
Q 2172 -91 1784 -91 
Q 1150 -91 751 415 
Q 353 922 353 1747 
Q 353 2572 751 3078 
Q 1150 3584 1784 3584 
Q 2172 3584 2448 3432 
Q 2725 3281 2906 2969 
z
M 947 1747 
Q 947 1113 1208 752 
Q 1469 391 1925 391 
Q 2381 391 2643 752 
Q 2906 1113 2906 1747 
Q 2906 2381 2643 2742 
Q 2381 3103 1925 3103 
Q 1469 3103 1208 2742 
Q 947 2381 947 1747 
z
" id="DejaVuSans-64" transform="scale(0.015625)"/>
      <path id="DejaVuSans-20" transform="scale(0.015625)"/>
      <path d="M 750 794 
L 1409 794 
L 1409 0 
L 750 0 
L 750 794 
z
M 750 3309 
L 1409 3309 
L 1409 2516 
L 750 2516 
L 750 3309 
z
" id="DejaVuSans-3a" transform="scale(0.015625)"/>
      <path d="M 628 4666 
L 3578 4666 
L 3578 4134 
L 1259 4134 
L 1259 2753 
L 3481 2753 
L 3481 2222 
L 1259 2222 
L 1259 531 
L 3634 531 
L 3634 0 
L 628 0 
L 628 4666 
z
" id="DejaVuSans-45" transform="scale(0.015625)"/>
      <path d="M 2522 4238 
Q 1834 4238 1429 3725 
Q 1025 3213 1025 2328 
Q 1025 1447 1429 934 
Q 1834 422 2522 422 
Q 3209 422 3611 934 
Q 4013 1447 4013 2328 
Q 4013 3213 3611 3725 
Q 3209 4238 2522 4238 
z
M 3406 84 
L 4238 -825 
L 3475 -825 
L 2784 -78 
Q 2681 -84 2626 -87 
Q 2572 -91 2522 -91 
Q 1538 -91 948 567 
Q 359 1225 359 2328 
Q 359 3434 948 4092 
Q 1538 4750 2522 4750 
Q 3503 4750 4090 4092 
Q 4678 3434 4678 2328 
Q 4678 1516 4351 937 
Q 4025 359 3406 84 
z
" id="DejaVuSans-51" transform="scale(0.015625)"/>
      <path d="M 628 4666 
L 1259 4666 
L 1259 0 
L 628 0 
L 628 4666 
z
" id="DejaVuSans-49" transform="scale(0.015625)"/>
     </defs>
     <use xlink:href="#DejaVuSans-4d"/>
     <use x="86.279297" xlink:href="#DejaVuSans-65"/>
     <use x="147.802734" xlink:href="#DejaVuSans-74"/>
     <use x="187.011719" xlink:href="#DejaVuSans-68"/>
     <use x="250.390625" xlink:href="#DejaVuSans-6f"/>
     <use x="311.572266" xlink:href="#DejaVuSans-64"/>
     <use x="375.048828" xlink:href="#DejaVuSans-20"/>
     <use x="406.835938" xlink:href="#DejaVuSans-3a"/>
     <use x="440.527344" xlink:href="#DejaVuSans-20"/>
     <use x="472.314453" xlink:href="#DejaVuSans-45"/>
     <use x="535.498047" xlink:href="#DejaVuSans-51"/>
     <use x="614.208984" xlink:href="#DejaVuSans-49"/>
    </g>
   </g>
   <g id="text_17">
    <!-- Iter=2 -->
    <g transform="translate(71.985124 226.632)scale(0.12 -0.12)">
     <defs>
      <path d="M 2631 2963 
Q 2534 3019 2420 3045 
Q 2306 3072 2169 3072 
Q 1681 3072 1420 2755 
Q 1159 2438 1159 1844 
L 1159 0 
L 581 0 
L 581 3500 
L 1159 3500 
L 1159 2956 
Q 1341 3275 1631 3429 
Q 1922 3584 2338 3584 
Q 2397 3584 2469 3576 
Q 2541 3569 2628 3553 
L 2631 2963 
z
" id="DejaVuSans-72" transform="scale(0.015625)"/>
      <path d="M 678 2906 
L 4684 2906 
L 4684 2381 
L 678 2381 
L 678 2906 
z
M 678 1631 
L 4684 1631 
L 4684 1100 
L 678 1100 
L 678 1631 
z
" id="DejaVuSans-3d" transform="scale(0.015625)"/>
     </defs>
     <use xlink:href="#DejaVuSans-49"/>
     <use x="29.492188" xlink:href="#DejaVuSans-74"/>
     <use x="68.701172" xlink:href="#DejaVuSans-65"/>
     <use x="130.224609" xlink:href="#DejaVuSans-72"/>
     <use x="171.337891" xlink:href="#DejaVuSans-3d"/>
     <use x="255.126953" xlink:href="#DejaVuSans-32"/>
    </g>
   </g>
   <g id="legend_1">
    <g id="patch_7">
     <path d="M 144.327812 140.235625 
L 298.472188 140.235625 
Q 300.672188 140.235625 300.672188 138.035625 
L 300.672188 42.26 
Q 300.672188 40.06 298.472188 40.06 
L 144.327812 40.06 
Q 142.127813 40.06 142.127813 42.26 
L 142.127813 138.035625 
Q 142.127813 140.235625 144.327812 140.235625 
z
" style="fill:#ffffff;opacity:0.8;stroke:#cccccc;stroke-linejoin:miter;"/>
    </g>
    <g id="line2d_18">
     <path d="M 146.527813 48.968281 
L 168.527813 48.968281 
" style="fill:none;stroke:#0000ff;stroke-linecap:square;stroke-width:2;"/>
    </g>
    <g id="line2d_19"/>
    <g id="text_18">
     <!-- ture function -->
     <g transform="translate(177.327813 52.818281)scale(0.11 -0.11)">
      <defs>
       <path d="M 544 1381 
L 544 3500 
L 1119 3500 
L 1119 1403 
Q 1119 906 1312 657 
Q 1506 409 1894 409 
Q 2359 409 2629 706 
Q 2900 1003 2900 1516 
L 2900 3500 
L 3475 3500 
L 3475 0 
L 2900 0 
L 2900 538 
Q 2691 219 2414 64 
Q 2138 -91 1772 -91 
Q 1169 -91 856 284 
Q 544 659 544 1381 
z
M 1991 3584 
L 1991 3584 
z
" id="DejaVuSans-75" transform="scale(0.015625)"/>
       <path d="M 2375 4863 
L 2375 4384 
L 1825 4384 
Q 1516 4384 1395 4259 
Q 1275 4134 1275 3809 
L 1275 3500 
L 2222 3500 
L 2222 3053 
L 1275 3053 
L 1275 0 
L 697 0 
L 697 3053 
L 147 3053 
L 147 3500 
L 697 3500 
L 697 3744 
Q 697 4328 969 4595 
Q 1241 4863 1831 4863 
L 2375 4863 
z
" id="DejaVuSans-66" transform="scale(0.015625)"/>
       <path d="M 3513 2113 
L 3513 0 
L 2938 0 
L 2938 2094 
Q 2938 2591 2744 2837 
Q 2550 3084 2163 3084 
Q 1697 3084 1428 2787 
Q 1159 2491 1159 1978 
L 1159 0 
L 581 0 
L 581 3500 
L 1159 3500 
L 1159 2956 
Q 1366 3272 1645 3428 
Q 1925 3584 2291 3584 
Q 2894 3584 3203 3211 
Q 3513 2838 3513 2113 
z
" id="DejaVuSans-6e" transform="scale(0.015625)"/>
       <path d="M 3122 3366 
L 3122 2828 
Q 2878 2963 2633 3030 
Q 2388 3097 2138 3097 
Q 1578 3097 1268 2742 
Q 959 2388 959 1747 
Q 959 1106 1268 751 
Q 1578 397 2138 397 
Q 2388 397 2633 464 
Q 2878 531 3122 666 
L 3122 134 
Q 2881 22 2623 -34 
Q 2366 -91 2075 -91 
Q 1284 -91 818 406 
Q 353 903 353 1747 
Q 353 2603 823 3093 
Q 1294 3584 2113 3584 
Q 2378 3584 2631 3529 
Q 2884 3475 3122 3366 
z
" id="DejaVuSans-63" transform="scale(0.015625)"/>
       <path d="M 603 3500 
L 1178 3500 
L 1178 0 
L 603 0 
L 603 3500 
z
M 603 4863 
L 1178 4863 
L 1178 4134 
L 603 4134 
L 603 4863 
z
" id="DejaVuSans-69" transform="scale(0.015625)"/>
      </defs>
      <use xlink:href="#DejaVuSans-74"/>
      <use x="39.208984" xlink:href="#DejaVuSans-75"/>
      <use x="102.587891" xlink:href="#DejaVuSans-72"/>
      <use x="141.451172" xlink:href="#DejaVuSans-65"/>
      <use x="202.974609" xlink:href="#DejaVuSans-20"/>
      <use x="234.761719" xlink:href="#DejaVuSans-66"/>
      <use x="269.966797" xlink:href="#DejaVuSans-75"/>
      <use x="333.345703" xlink:href="#DejaVuSans-6e"/>
      <use x="396.724609" xlink:href="#DejaVuSans-63"/>
      <use x="451.705078" xlink:href="#DejaVuSans-74"/>
      <use x="490.914062" xlink:href="#DejaVuSans-69"/>
      <use x="518.697266" xlink:href="#DejaVuSans-6f"/>
      <use x="579.878906" xlink:href="#DejaVuSans-6e"/>
     </g>
    </g>
    <g id="line2d_20">
     <path d="M 146.527813 65.114219 
L 168.527813 65.114219 
" style="fill:none;stroke:#000000;stroke-dasharray:7.4,3.2;stroke-dashoffset:0;stroke-width:2;"/>
    </g>
    <g id="line2d_21"/>
    <g id="text_19">
     <!-- predicted function -->
     <g transform="translate(177.327813 68.964219)scale(0.11 -0.11)">
      <defs>
       <path d="M 1159 525 
L 1159 -1331 
L 581 -1331 
L 581 3500 
L 1159 3500 
L 1159 2969 
Q 1341 3281 1617 3432 
Q 1894 3584 2278 3584 
Q 2916 3584 3314 3078 
Q 3713 2572 3713 1747 
Q 3713 922 3314 415 
Q 2916 -91 2278 -91 
Q 1894 -91 1617 61 
Q 1341 213 1159 525 
z
M 3116 1747 
Q 3116 2381 2855 2742 
Q 2594 3103 2138 3103 
Q 1681 3103 1420 2742 
Q 1159 2381 1159 1747 
Q 1159 1113 1420 752 
Q 1681 391 2138 391 
Q 2594 391 2855 752 
Q 3116 1113 3116 1747 
z
" id="DejaVuSans-70" transform="scale(0.015625)"/>
      </defs>
      <use xlink:href="#DejaVuSans-70"/>
      <use x="63.476562" xlink:href="#DejaVuSans-72"/>
      <use x="102.339844" xlink:href="#DejaVuSans-65"/>
      <use x="163.863281" xlink:href="#DejaVuSans-64"/>
      <use x="227.339844" xlink:href="#DejaVuSans-69"/>
      <use x="255.123047" xlink:href="#DejaVuSans-63"/>
      <use x="310.103516" xlink:href="#DejaVuSans-74"/>
      <use x="349.3125" xlink:href="#DejaVuSans-65"/>
      <use x="410.835938" xlink:href="#DejaVuSans-64"/>
      <use x="474.3125" xlink:href="#DejaVuSans-20"/>
      <use x="506.099609" xlink:href="#DejaVuSans-66"/>
      <use x="541.304688" xlink:href="#DejaVuSans-75"/>
      <use x="604.683594" xlink:href="#DejaVuSans-6e"/>
      <use x="668.0625" xlink:href="#DejaVuSans-63"/>
      <use x="723.042969" xlink:href="#DejaVuSans-74"/>
      <use x="762.251953" xlink:href="#DejaVuSans-69"/>
      <use x="790.035156" xlink:href="#DejaVuSans-6f"/>
      <use x="851.216797" xlink:href="#DejaVuSans-6e"/>
     </g>
    </g>
    <g id="line2d_22">
     <path d="M 146.527813 81.260156 
L 168.527813 81.260156 
" style="fill:none;stroke:#008000;stroke-dasharray:3.7,1.6;stroke-dashoffset:0;"/>
    </g>
    <g id="line2d_23"/>
    <g id="text_20">
     <!--  ± Sn(x) -->
     <g transform="translate(177.327813 85.110156)scale(0.11 -0.11)">
      <defs>
       <path d="M 2944 4013 
L 2944 2803 
L 4684 2803 
L 4684 2272 
L 2944 2272 
L 2944 1063 
L 2419 1063 
L 2419 2272 
L 678 2272 
L 678 2803 
L 2419 2803 
L 2419 4013 
L 2944 4013 
z
M 678 531 
L 4684 531 
L 4684 0 
L 678 0 
L 678 531 
z
" id="DejaVuSans-b1" transform="scale(0.015625)"/>
       <path d="M 3425 4513 
L 3425 3897 
Q 3066 4069 2747 4153 
Q 2428 4238 2131 4238 
Q 1616 4238 1336 4038 
Q 1056 3838 1056 3469 
Q 1056 3159 1242 3001 
Q 1428 2844 1947 2747 
L 2328 2669 
Q 3034 2534 3370 2195 
Q 3706 1856 3706 1288 
Q 3706 609 3251 259 
Q 2797 -91 1919 -91 
Q 1588 -91 1214 -16 
Q 841 59 441 206 
L 441 856 
Q 825 641 1194 531 
Q 1563 422 1919 422 
Q 2459 422 2753 634 
Q 3047 847 3047 1241 
Q 3047 1584 2836 1778 
Q 2625 1972 2144 2069 
L 1759 2144 
Q 1053 2284 737 2584 
Q 422 2884 422 3419 
Q 422 4038 858 4394 
Q 1294 4750 2059 4750 
Q 2388 4750 2728 4690 
Q 3069 4631 3425 4513 
z
" id="DejaVuSans-53" transform="scale(0.015625)"/>
       <path d="M 1984 4856 
Q 1566 4138 1362 3434 
Q 1159 2731 1159 2009 
Q 1159 1288 1364 580 
Q 1569 -128 1984 -844 
L 1484 -844 
Q 1016 -109 783 600 
Q 550 1309 550 2009 
Q 550 2706 781 3412 
Q 1013 4119 1484 4856 
L 1984 4856 
z
" id="DejaVuSans-28" transform="scale(0.015625)"/>
       <path d="M 513 4856 
L 1013 4856 
Q 1481 4119 1714 3412 
Q 1947 2706 1947 2009 
Q 1947 1309 1714 600 
Q 1481 -109 1013 -844 
L 513 -844 
Q 928 -128 1133 580 
Q 1338 1288 1338 2009 
Q 1338 2731 1133 3434 
Q 928 4138 513 4856 
z
" id="DejaVuSans-29" transform="scale(0.015625)"/>
      </defs>
      <use xlink:href="#DejaVuSans-20"/>
      <use x="31.787109" xlink:href="#DejaVuSans-b1"/>
      <use x="115.576172" xlink:href="#DejaVuSans-20"/>
      <use x="147.363281" xlink:href="#DejaVuSans-53"/>
      <use x="210.839844" xlink:href="#DejaVuSans-6e"/>
      <use x="274.21875" xlink:href="#DejaVuSans-28"/>
      <use x="313.232422" xlink:href="#DejaVuSans-78"/>
      <use x="372.412109" xlink:href="#DejaVuSans-29"/>
     </g>
    </g>
    <g id="line2d_24">
     <path d="M 146.527813 97.406094 
L 168.527813 97.406094 
" style="fill:none;stroke:#bfbf00;stroke-dasharray:7.4,3.2;stroke-dashoffset:0;stroke-width:2;"/>
    </g>
    <g id="line2d_25"/>
    <g id="text_21">
     <!-- EQI(x) -->
     <g transform="translate(177.327813 101.256094)scale(0.11 -0.11)">
      <use xlink:href="#DejaVuSans-45"/>
      <use x="63.183594" xlink:href="#DejaVuSans-51"/>
      <use x="141.894531" xlink:href="#DejaVuSans-49"/>
      <use x="171.386719" xlink:href="#DejaVuSans-28"/>
      <use x="210.400391" xlink:href="#DejaVuSans-78"/>
      <use x="269.580078" xlink:href="#DejaVuSans-29"/>
     </g>
    </g>
    <g id="PathCollection_2">
     <defs>
      <path d="M 0 3.535534 
C 0.937635 3.535534 1.836992 3.163008 2.5 2.5 
C 3.163008 1.836992 3.535534 0.937635 3.535534 0 
C 3.535534 -0.937635 3.163008 -1.836992 2.5 -2.5 
C 1.836992 -3.163008 0.937635 -3.535534 0 -3.535534 
C -0.937635 -3.535534 -1.836992 -3.163008 -2.5 -2.5 
C -3.163008 -1.836992 -3.535534 -0.937635 -3.535534 0 
C -3.535534 0.937635 -3.163008 1.836992 -2.5 2.5 
C -1.836992 3.163008 -0.937635 3.535534 0 3.535534 
z
" id="mf9e713c713" style="stroke:#000000;"/>
     </defs>
     <g>
      <use style="fill:#ff0000;stroke:#000000;" x="157.527813" xlink:href="#mf9e713c713" y="114.514531"/>
     </g>
    </g>
    <g id="text_22">
     <!-- training data -->
     <g transform="translate(177.327813 117.402031)scale(0.11 -0.11)">
      <defs>
       <path d="M 2194 1759 
Q 1497 1759 1228 1600 
Q 959 1441 959 1056 
Q 959 750 1161 570 
Q 1363 391 1709 391 
Q 2188 391 2477 730 
Q 2766 1069 2766 1631 
L 2766 1759 
L 2194 1759 
z
M 3341 1997 
L 3341 0 
L 2766 0 
L 2766 531 
Q 2569 213 2275 61 
Q 1981 -91 1556 -91 
Q 1019 -91 701 211 
Q 384 513 384 1019 
Q 384 1609 779 1909 
Q 1175 2209 1959 2209 
L 2766 2209 
L 2766 2266 
Q 2766 2663 2505 2880 
Q 2244 3097 1772 3097 
Q 1472 3097 1187 3025 
Q 903 2953 641 2809 
L 641 3341 
Q 956 3463 1253 3523 
Q 1550 3584 1831 3584 
Q 2591 3584 2966 3190 
Q 3341 2797 3341 1997 
z
" id="DejaVuSans-61" transform="scale(0.015625)"/>
       <path d="M 2906 1791 
Q 2906 2416 2648 2759 
Q 2391 3103 1925 3103 
Q 1463 3103 1205 2759 
Q 947 2416 947 1791 
Q 947 1169 1205 825 
Q 1463 481 1925 481 
Q 2391 481 2648 825 
Q 2906 1169 2906 1791 
z
M 3481 434 
Q 3481 -459 3084 -895 
Q 2688 -1331 1869 -1331 
Q 1566 -1331 1297 -1286 
Q 1028 -1241 775 -1147 
L 775 -588 
Q 1028 -725 1275 -790 
Q 1522 -856 1778 -856 
Q 2344 -856 2625 -561 
Q 2906 -266 2906 331 
L 2906 616 
Q 2728 306 2450 153 
Q 2172 0 1784 0 
Q 1141 0 747 490 
Q 353 981 353 1791 
Q 353 2603 747 3093 
Q 1141 3584 1784 3584 
Q 2172 3584 2450 3431 
Q 2728 3278 2906 2969 
L 2906 3500 
L 3481 3500 
L 3481 434 
z
" id="DejaVuSans-67" transform="scale(0.015625)"/>
      </defs>
      <use xlink:href="#DejaVuSans-74"/>
      <use x="39.208984" xlink:href="#DejaVuSans-72"/>
      <use x="80.322266" xlink:href="#DejaVuSans-61"/>
      <use x="141.601562" xlink:href="#DejaVuSans-69"/>
      <use x="169.384766" xlink:href="#DejaVuSans-6e"/>
      <use x="232.763672" xlink:href="#DejaVuSans-69"/>
      <use x="260.546875" xlink:href="#DejaVuSans-6e"/>
      <use x="323.925781" xlink:href="#DejaVuSans-67"/>
      <use x="387.402344" xlink:href="#DejaVuSans-20"/>
      <use x="419.189453" xlink:href="#DejaVuSans-64"/>
      <use x="482.666016" xlink:href="#DejaVuSans-61"/>
      <use x="543.945312" xlink:href="#DejaVuSans-74"/>
      <use x="583.154297" xlink:href="#DejaVuSans-61"/>
     </g>
    </g>
    <g id="PathCollection_3">
     <g>
      <use style="fill:#ff0000;stroke:#ff0000;stroke-width:8;" x="157.527813" xlink:href="#m99f7edb05f" y="130.660469"/>
     </g>
    </g>
    <g id="text_23">
     <!-- recommended datum -->
     <g transform="translate(177.327813 133.547969)scale(0.11 -0.11)">
      <defs>
       <path d="M 3328 2828 
Q 3544 3216 3844 3400 
Q 4144 3584 4550 3584 
Q 5097 3584 5394 3201 
Q 5691 2819 5691 2113 
L 5691 0 
L 5113 0 
L 5113 2094 
Q 5113 2597 4934 2840 
Q 4756 3084 4391 3084 
Q 3944 3084 3684 2787 
Q 3425 2491 3425 1978 
L 3425 0 
L 2847 0 
L 2847 2094 
Q 2847 2600 2669 2842 
Q 2491 3084 2119 3084 
Q 1678 3084 1418 2786 
Q 1159 2488 1159 1978 
L 1159 0 
L 581 0 
L 581 3500 
L 1159 3500 
L 1159 2956 
Q 1356 3278 1631 3431 
Q 1906 3584 2284 3584 
Q 2666 3584 2933 3390 
Q 3200 3197 3328 2828 
z
" id="DejaVuSans-6d" transform="scale(0.015625)"/>
      </defs>
      <use xlink:href="#DejaVuSans-72"/>
      <use x="38.863281" xlink:href="#DejaVuSans-65"/>
      <use x="100.386719" xlink:href="#DejaVuSans-63"/>
      <use x="155.367188" xlink:href="#DejaVuSans-6f"/>
      <use x="216.548828" xlink:href="#DejaVuSans-6d"/>
      <use x="313.960938" xlink:href="#DejaVuSans-6d"/>
      <use x="411.373047" xlink:href="#DejaVuSans-65"/>
      <use x="472.896484" xlink:href="#DejaVuSans-6e"/>
      <use x="536.275391" xlink:href="#DejaVuSans-64"/>
      <use x="599.751953" xlink:href="#DejaVuSans-65"/>
      <use x="661.275391" xlink:href="#DejaVuSans-64"/>
      <use x="724.751953" xlink:href="#DejaVuSans-20"/>
      <use x="756.539062" xlink:href="#DejaVuSans-64"/>
      <use x="820.015625" xlink:href="#DejaVuSans-61"/>
      <use x="881.294922" xlink:href="#DejaVuSans-74"/>
      <use x="920.503906" xlink:href="#DejaVuSans-75"/>
      <use x="983.882812" xlink:href="#DejaVuSans-6d"/>
     </g>
    </g>
   </g>
   <g id="line2d_26">
    <path clip-path="url(#p7a99fb46c5)" d="M 69.218182 131.116354 
L 71.985124 130.372298 
L 74.752066 130.506799 
L 77.519008 131.572138 
L 80.28595 133.584031 
L 83.052893 136.518489 
L 85.819835 140.311077 
L 88.586777 144.858756 
L 91.353719 150.024291 
L 94.120661 155.642983 
L 96.887603 161.531288 
L 99.654545 167.496712 
L 102.421488 173.348272 
L 105.18843 178.906748 
L 107.955372 184.014002 
L 110.722314 188.540695 
L 113.489256 192.391924 
L 116.256198 195.51043 
L 119.02314 197.877289 
L 121.790083 199.510152 
L 124.557025 200.459313 
L 127.323967 200.802018 
L 130.090909 200.635538 
L 132.857851 200.069555 
L 135.624793 199.218461 
L 138.391736 198.194068 
L 141.158678 197.099202 
L 143.92562 196.022507 
L 146.692562 195.034711 
L 149.459504 194.186444 
L 152.226446 193.507609 
L 154.993388 193.008193 
L 157.760331 192.680324 
L 160.527273 192.501311 
L 163.294215 192.43735 
L 166.061157 192.447603 
L 168.828099 192.4883 
L 171.595041 192.516589 
L 174.361983 192.493893 
L 177.128926 192.388562 
L 179.895868 192.177729 
L 182.66281 191.848294 
L 185.429752 191.39708 
L 188.196694 190.83024 
L 190.963636 190.162047 
L 193.730579 189.413251 
L 196.497521 188.609191 
L 199.264463 187.777845 
L 202.031405 186.948009 
L 204.798347 186.14773 
L 207.565289 185.403109 
L 210.332231 184.737525 
L 213.099174 184.171279 
L 215.866116 183.721648 
L 218.633058 183.403252 
L 221.4 183.228659 
L 224.166942 183.209105 
L 226.933884 183.355216 
L 229.700826 183.677626 
L 232.467769 184.187395 
L 235.234711 184.896155 
L 238.001653 185.815949 
L 240.768595 186.958743 
L 243.535537 188.335637 
L 246.302479 189.955831 
L 249.069421 191.825401 
L 251.836364 193.945999 
L 254.603306 196.313558 
L 257.370248 198.917092 
L 260.13719 201.737693 
L 262.904132 204.747758 
L 265.671074 207.910485 
L 268.438017 211.179636 
L 271.204959 214.499536 
L 273.971901 217.805262 
L 276.738843 221.022972 
L 279.505785 224.070345 
L 282.272727 226.85712 
L 285.039669 229.285799 
L 287.806612 231.252592 
L 290.573554 232.648771 
L 293.340496 233.362609 
L 296.107438 233.282107 
L 298.87438 232.298663 
L 301.641322 230.311774 
L 304.408264 227.234748 
L 307.175207 223.00124 
L 309.942149 217.572269 
L 312.709091 210.943214 
L 315.476033 203.15014 
L 318.242975 194.274742 
L 321.009917 184.447199 
L 323.77686 173.846292 
L 326.543802 162.696362 
L 329.310744 151.260889 
L 332.077686 139.832818 
L 334.844628 128.722071 
L 337.61157 118.240985 
L 340.378512 108.688687 
L 343.145455 100.335541 
L 345.912397 93.4089 
L 348.679339 88.081251 
L 351.446281 84.461713 
L 354.213223 82.591514 
L 356.980165 82.443733 
L 359.747107 83.927232 
L 362.51405 86.894333 
L 365.280992 91.151504 
L 368.047934 96.472102 
L 370.814876 102.610119 
L 373.581818 109.313872 
" style="fill:none;stroke:#000000;stroke-dasharray:7.4,3.2;stroke-dashoffset:0;stroke-width:2;"/>
   </g>
   <g id="PathCollection_4">
    <g clip-path="url(#p7a99fb46c5)">
     <use style="fill:#ff0000;stroke:#000000;" x="83.052893" xlink:href="#mf9e713c713" y="129.399309"/>
     <use style="fill:#ff0000;stroke:#000000;" x="96.887603" xlink:href="#mf9e713c713" y="162.429541"/>
     <use style="fill:#ff0000;stroke:#000000;" x="110.722314" xlink:href="#mf9e713c713" y="193.170209"/>
     <use style="fill:#ff0000;stroke:#000000;" x="124.557025" xlink:href="#mf9e713c713" y="199.248575"/>
     <use style="fill:#ff0000;stroke:#000000;" x="138.391736" xlink:href="#mf9e713c713" y="199.347548"/>
     <use style="fill:#ff0000;stroke:#000000;" x="152.226446" xlink:href="#mf9e713c713" y="191.611971"/>
     <use style="fill:#ff0000;stroke:#000000;" x="166.061157" xlink:href="#mf9e713c713" y="193.66847"/>
     <use style="fill:#ff0000;stroke:#000000;" x="179.895868" xlink:href="#mf9e713c713" y="193.283098"/>
     <use style="fill:#ff0000;stroke:#000000;" x="193.730579" xlink:href="#mf9e713c713" y="188.924027"/>
     <use style="fill:#ff0000;stroke:#000000;" x="318.242975" xlink:href="#mf9e713c713" y="199.289596"/>
     <use style="fill:#ff0000;stroke:#000000;" x="332.077686" xlink:href="#mf9e713c713" y="145.37007"/>
     <use style="fill:#ff0000;stroke:#000000;" x="345.912397" xlink:href="#mf9e713c713" y="78.407322"/>
     <use style="fill:#ff0000;stroke:#000000;" x="304.408264" xlink:href="#mf9e713c713" y="222.957712"/>
     <use style="fill:#ff0000;stroke:#000000;" x="293.340496" xlink:href="#mf9e713c713" y="238.893038"/>
    </g>
   </g>
  </g>
 </g>
 <defs>
  <clipPath id="p7a99fb46c5">
   <rect height="217.44" width="334.8" x="54" y="34.56"/>
  </clipPath>
 </defs>
</svg>
