<?xml version="1.0" encoding="utf-8" standalone="no"?>
<!DOCTYPE svg PUBLIC "-//W3C//DTD SVG 1.1//EN"
  "http://www.w3.org/Graphics/SVG/1.1/DTD/svg11.dtd">
<svg height="288pt" version="1.1" viewBox="0 0 432 288" width="432pt" xmlns="http://www.w3.org/2000/svg" xmlns:xlink="http://www.w3.org/1999/xlink">
 <metadata>
  <rdf:RDF xmlns:cc="http://creativecommons.org/ns#" xmlns:dc="http://purl.org/dc/elements/1.1/" xmlns:rdf="http://www.w3.org/1999/02/22-rdf-syntax-ns#">
   <cc:Work>
    <dc:type rdf:resource="http://purl.org/dc/dcmitype/StillImage"/>
    <dc:date>2022-08-04T17:05:06.385465</dc:date>
    <dc:format>image/svg+xml</dc:format>
    <dc:creator>
     <cc:Agent>
      <dc:title>Matplotlib v3.4.3, https://matplotlib.org/</dc:title>
     </cc:Agent>
    </dc:creator>
   </cc:Work>
  </rdf:RDF>
 </metadata>
 <defs>
  <style type="text/css">*{stroke-linecap:butt;stroke-linejoin:round;}</style>
 </defs>
 <g id="figure_1">
  <g id="patch_1">
   <path d="M 0 288 
L 432 288 
L 432 0 
L 0 0 
z
" style="fill:none;"/>
  </g>
  <g id="axes_1">
   <g id="patch_2">
    <path d="M 54 252 
L 388.8 252 
L 388.8 34.56 
L 54 34.56 
z
" style="fill:#ffffff;"/>
   </g>
   <g id="PolyCollection_1">
    <defs>
     <path d="M 69.218182 -164.480627 
L 69.218182 -106.012537 
L 71.985124 -109.399592 
L 74.752066 -112.249134 
L 77.519008 -114.423366 
L 80.28595 -115.804374 
L 83.052893 -116.306414 
L 85.819835 -115.888313 
L 88.586777 -114.563287 
L 91.353719 -112.402255 
L 94.120661 -109.527762 
L 96.887603 -106.099342 
L 99.654545 -102.294911 
L 102.421488 -98.2935 
L 105.18843 -94.262412 
L 107.955372 -90.349197 
L 110.722314 -86.677403 
L 113.489256 -83.344827 
L 116.256198 -80.423287 
L 119.02314 -77.959334 
L 121.790083 -75.975581 
L 124.557025 -74.472538 
L 127.323967 -73.430966 
L 130.090909 -72.814758 
L 132.857851 -72.574341 
L 135.624793 -72.650501 
L 138.391736 -72.97843 
L 141.158678 -73.491764 
L 143.92562 -74.126358 
L 146.692562 -74.823603 
L 149.459504 -75.533133 
L 152.226446 -76.214842 
L 154.993388 -76.840134 
L 157.760331 -77.392324 
L 160.527273 -77.866066 
L 163.294215 -78.265651 
L 166.061157 -78.602089 
L 168.828099 -78.888985 
L 171.595041 -79.137432 
L 174.361983 -79.350484 
L 177.128926 -79.518097 
L 179.895868 -79.613945 
L 182.66281 -79.595838 
L 185.429752 -79.411275 
L 188.196694 -79.008209 
L 190.963636 -78.348363 
L 193.730579 -77.4181 
L 196.497521 -76.232486 
L 199.264463 -74.831764 
L 202.031405 -73.273074 
L 204.798347 -71.621118 
L 207.565289 -69.940178 
L 210.332231 -68.288286 
L 213.099174 -66.713413 
L 215.866116 -65.251304 
L 218.633058 -63.924586 
L 221.4 -62.742908 
L 224.166942 -61.703896 
L 226.933884 -60.794737 
L 229.700826 -59.994229 
L 232.467769 -59.275108 
L 235.234711 -58.606483 
L 238.001653 -57.95625 
L 240.768595 -57.293374 
L 243.535537 -56.589943 
L 246.302479 -55.822979 
L 249.069421 -54.975949 
L 251.836364 -54.039965 
L 254.603306 -53.014664 
L 257.370248 -51.908716 
L 260.13719 -50.739955 
L 262.904132 -49.535072 
L 265.671074 -48.328834 
L 268.438017 -47.162766 
L 271.204959 -46.083196 
L 273.971901 -45.138548 
L 276.738843 -44.375633 
L 279.505785 -43.83466 
L 282.272727 -43.542607 
L 285.039669 -43.505144 
L 287.806612 -43.699533 
L 290.573554 -44.077499 
L 293.340496 -44.596587 
L 296.107438 -45.289523 
L 298.87438 -46.323875 
L 301.641322 -47.972287 
L 304.408264 -50.510699 
L 307.175207 -54.136755 
L 309.942149 -58.942142 
L 312.709091 -64.916658 
L 315.476033 -71.962051 
L 318.242975 -79.907233 
L 321.009917 -88.523166 
L 323.77686 -97.537392 
L 326.543802 -106.648235 
L 329.310744 -115.538771 
L 332.077686 -123.890963 
L 334.844628 -131.400807 
L 337.61157 -137.795197 
L 340.378512 -142.849939 
L 343.145455 -146.406113 
L 345.912397 -148.38075 
L 348.679339 -148.769093 
L 351.446281 -147.638793 
L 354.213223 -145.118678 
L 356.980165 -141.384944 
L 359.747107 -136.646659 
L 362.51405 -131.131575 
L 365.280992 -125.072842 
L 368.047934 -118.697091 
L 370.814876 -112.214363 
L 373.581818 -105.810267 
L 373.581818 -179.761053 
L 373.581818 -179.761053 
L 370.814876 -183.750338 
L 368.047934 -187.442353 
L 365.280992 -190.678208 
L 362.51405 -193.299943 
L 359.747107 -195.159141 
L 356.980165 -196.125619 
L 354.213223 -196.095433 
L 351.446281 -194.997289 
L 348.679339 -192.796426 
L 345.912397 -189.495167 
L 343.145455 -185.129944 
L 340.378512 -179.765768 
L 337.61157 -173.490499 
L 334.844628 -166.411447 
L 332.077686 -158.655007 
L 329.310744 -150.36733 
L 326.543802 -141.713049 
L 323.77686 -132.870535 
L 321.009917 -124.024489 
L 318.242975 -115.357939 
L 315.476033 -107.045761 
L 312.709091 -99.251185 
L 309.942149 -92.126227 
L 307.175207 -85.816607 
L 304.408264 -80.471435 
L 301.641322 -76.25593 
L 298.87438 -73.358553 
L 296.107438 -71.970133 
L 293.340496 -72.212166 
L 290.573554 -74.047257 
L 287.806612 -77.263121 
L 285.039669 -81.546652 
L 282.272727 -86.567551 
L 279.505785 -92.023017 
L 276.738843 -97.652382 
L 273.971901 -103.239722 
L 271.204959 -108.613082 
L 268.438017 -113.642626 
L 265.671074 -118.237909 
L 262.904132 -122.344135 
L 260.13719 -125.937412 
L 257.370248 -129.019204 
L 254.603306 -131.610298 
L 251.836364 -133.744678 
L 249.069421 -135.463674 
L 246.302479 -136.810725 
L 243.535537 -137.827013 
L 240.768595 -138.548148 
L 238.001653 -139.002006 
L 235.234711 -139.207748 
L 232.467769 -139.17598 
L 229.700826 -138.909951 
L 226.933884 -138.407651 
L 224.166942 -137.664606 
L 221.4 -136.677115 
L 218.633058 -135.445679 
L 215.866116 -133.978293 
L 213.099174 -132.293321 
L 210.332231 -130.42164 
L 207.565289 -128.407765 
L 204.798347 -126.309671 
L 202.031405 -124.196951 
L 199.264463 -122.146945 
L 196.497521 -120.238413 
L 193.730579 -118.542675 
L 190.963636 -117.113076 
L 188.196694 -115.975301 
L 185.429752 -115.12239 
L 182.66281 -114.517459 
L 179.895868 -114.10354 
L 177.128926 -113.816359 
L 174.361983 -113.595214 
L 171.595041 -113.389412 
L 168.828099 -113.160387 
L 166.061157 -112.881016 
L 163.294215 -112.533765 
L 160.527273 -112.108874 
L 157.760331 -111.60324 
L 154.993388 -111.02023 
L 152.226446 -110.370305 
L 149.459504 -109.672106 
L 146.692562 -108.953571 
L 143.92562 -108.252624 
L 141.158678 -107.617103 
L 138.391736 -107.103696 
L 135.624793 -106.77584 
L 132.857851 -106.700607 
L 130.090909 -106.944725 
L 127.323967 -107.569939 
L 124.557025 -108.628001 
L 121.790083 -110.155678 
L 119.02314 -112.17025 
L 116.256198 -114.666094 
L 113.489256 -117.612941 
L 110.722314 -120.95633 
L 107.955372 -124.6206 
L 105.18843 -128.514391 
L 102.421488 -132.53823 
L 99.654545 -136.593173 
L 96.887603 -140.588938 
L 94.120661 -144.449384 
L 91.353719 -148.113371 
L 88.586777 -151.530379 
L 85.819835 -154.653027 
L 83.052893 -157.430992 
L 80.28595 -159.810314 
L 77.519008 -161.738586 
L 74.752066 -163.173111 
L 71.985124 -164.088376 
L 69.218182 -164.480627 
z
" id="maf78f29183" style="stroke:#add8e6;stroke-opacity:0.2;"/>
    </defs>
    <g clip-path="url(#p5011c0c4a2)">
     <use style="fill:#add8e6;fill-opacity:0.2;stroke:#add8e6;stroke-opacity:0.2;" x="0" xlink:href="#maf78f29183" y="288"/>
    </g>
   </g>
   <g id="PathCollection_1">
    <defs>
     <path d="M 0 0.612372 
C 0.162403 0.612372 0.318176 0.547849 0.433013 0.433013 
C 0.547849 0.318176 0.612372 0.162403 0.612372 0 
C 0.612372 -0.162403 0.547849 -0.318176 0.433013 -0.433013 
C 0.318176 -0.547849 0.162403 -0.612372 0 -0.612372 
C -0.162403 -0.612372 -0.318176 -0.547849 -0.433013 -0.433013 
C -0.547849 -0.318176 -0.612372 -0.162403 -0.612372 0 
C -0.612372 0.162403 -0.547849 0.318176 -0.433013 0.433013 
C -0.318176 0.547849 -0.162403 0.612372 0 0.612372 
z
" id="m536cd2aab6" style="stroke:#ff0000;stroke-width:8;"/>
    </defs>
    <g clip-path="url(#p5011c0c4a2)">
     <use style="fill:#ff0000;stroke:#ff0000;stroke-width:8;" x="271.204959" xlink:href="#m536cd2aab6" y="221.78725"/>
    </g>
   </g>
   <g id="matplotlib.axis_1">
    <g id="xtick_1">
     <g id="line2d_1">
      <defs>
       <path d="M 0 0 
L 0 3.5 
" id="md0eac9b76d" style="stroke:#000000;stroke-width:0.8;"/>
      </defs>
      <g>
       <use style="stroke:#000000;stroke-width:0.8;" x="69.218182" xlink:href="#md0eac9b76d" y="252"/>
      </g>
     </g>
     <g id="text_1">
      <!-- 0 -->
      <g transform="translate(66.036932 266.598437)scale(0.1 -0.1)">
       <defs>
        <path d="M 2034 4250 
Q 1547 4250 1301 3770 
Q 1056 3291 1056 2328 
Q 1056 1369 1301 889 
Q 1547 409 2034 409 
Q 2525 409 2770 889 
Q 3016 1369 3016 2328 
Q 3016 3291 2770 3770 
Q 2525 4250 2034 4250 
z
M 2034 4750 
Q 2819 4750 3233 4129 
Q 3647 3509 3647 2328 
Q 3647 1150 3233 529 
Q 2819 -91 2034 -91 
Q 1250 -91 836 529 
Q 422 1150 422 2328 
Q 422 3509 836 4129 
Q 1250 4750 2034 4750 
z
" id="DejaVuSans-30" transform="scale(0.015625)"/>
       </defs>
       <use xlink:href="#DejaVuSans-30"/>
      </g>
     </g>
    </g>
    <g id="xtick_2">
     <g id="line2d_2">
      <g>
       <use style="stroke:#000000;stroke-width:0.8;" x="124.557025" xlink:href="#md0eac9b76d" y="252"/>
      </g>
     </g>
     <g id="text_2">
      <!-- 2 -->
      <g transform="translate(121.375775 266.598437)scale(0.1 -0.1)">
       <defs>
        <path d="M 1228 531 
L 3431 531 
L 3431 0 
L 469 0 
L 469 531 
Q 828 903 1448 1529 
Q 2069 2156 2228 2338 
Q 2531 2678 2651 2914 
Q 2772 3150 2772 3378 
Q 2772 3750 2511 3984 
Q 2250 4219 1831 4219 
Q 1534 4219 1204 4116 
Q 875 4013 500 3803 
L 500 4441 
Q 881 4594 1212 4672 
Q 1544 4750 1819 4750 
Q 2544 4750 2975 4387 
Q 3406 4025 3406 3419 
Q 3406 3131 3298 2873 
Q 3191 2616 2906 2266 
Q 2828 2175 2409 1742 
Q 1991 1309 1228 531 
z
" id="DejaVuSans-32" transform="scale(0.015625)"/>
       </defs>
       <use xlink:href="#DejaVuSans-32"/>
      </g>
     </g>
    </g>
    <g id="xtick_3">
     <g id="line2d_3">
      <g>
       <use style="stroke:#000000;stroke-width:0.8;" x="179.895868" xlink:href="#md0eac9b76d" y="252"/>
      </g>
     </g>
     <g id="text_3">
      <!-- 4 -->
      <g transform="translate(176.714618 266.598437)scale(0.1 -0.1)">
       <defs>
        <path d="M 2419 4116 
L 825 1625 
L 2419 1625 
L 2419 4116 
z
M 2253 4666 
L 3047 4666 
L 3047 1625 
L 3713 1625 
L 3713 1100 
L 3047 1100 
L 3047 0 
L 2419 0 
L 2419 1100 
L 313 1100 
L 313 1709 
L 2253 4666 
z
" id="DejaVuSans-34" transform="scale(0.015625)"/>
       </defs>
       <use xlink:href="#DejaVuSans-34"/>
      </g>
     </g>
    </g>
    <g id="xtick_4">
     <g id="line2d_4">
      <g>
       <use style="stroke:#000000;stroke-width:0.8;" x="235.234711" xlink:href="#md0eac9b76d" y="252"/>
      </g>
     </g>
     <g id="text_4">
      <!-- 6 -->
      <g transform="translate(232.053461 266.598437)scale(0.1 -0.1)">
       <defs>
        <path d="M 2113 2584 
Q 1688 2584 1439 2293 
Q 1191 2003 1191 1497 
Q 1191 994 1439 701 
Q 1688 409 2113 409 
Q 2538 409 2786 701 
Q 3034 994 3034 1497 
Q 3034 2003 2786 2293 
Q 2538 2584 2113 2584 
z
M 3366 4563 
L 3366 3988 
Q 3128 4100 2886 4159 
Q 2644 4219 2406 4219 
Q 1781 4219 1451 3797 
Q 1122 3375 1075 2522 
Q 1259 2794 1537 2939 
Q 1816 3084 2150 3084 
Q 2853 3084 3261 2657 
Q 3669 2231 3669 1497 
Q 3669 778 3244 343 
Q 2819 -91 2113 -91 
Q 1303 -91 875 529 
Q 447 1150 447 2328 
Q 447 3434 972 4092 
Q 1497 4750 2381 4750 
Q 2619 4750 2861 4703 
Q 3103 4656 3366 4563 
z
" id="DejaVuSans-36" transform="scale(0.015625)"/>
       </defs>
       <use xlink:href="#DejaVuSans-36"/>
      </g>
     </g>
    </g>
    <g id="xtick_5">
     <g id="line2d_5">
      <g>
       <use style="stroke:#000000;stroke-width:0.8;" x="290.573554" xlink:href="#md0eac9b76d" y="252"/>
      </g>
     </g>
     <g id="text_5">
      <!-- 8 -->
      <g transform="translate(287.392304 266.598437)scale(0.1 -0.1)">
       <defs>
        <path d="M 2034 2216 
Q 1584 2216 1326 1975 
Q 1069 1734 1069 1313 
Q 1069 891 1326 650 
Q 1584 409 2034 409 
Q 2484 409 2743 651 
Q 3003 894 3003 1313 
Q 3003 1734 2745 1975 
Q 2488 2216 2034 2216 
z
M 1403 2484 
Q 997 2584 770 2862 
Q 544 3141 544 3541 
Q 544 4100 942 4425 
Q 1341 4750 2034 4750 
Q 2731 4750 3128 4425 
Q 3525 4100 3525 3541 
Q 3525 3141 3298 2862 
Q 3072 2584 2669 2484 
Q 3125 2378 3379 2068 
Q 3634 1759 3634 1313 
Q 3634 634 3220 271 
Q 2806 -91 2034 -91 
Q 1263 -91 848 271 
Q 434 634 434 1313 
Q 434 1759 690 2068 
Q 947 2378 1403 2484 
z
M 1172 3481 
Q 1172 3119 1398 2916 
Q 1625 2713 2034 2713 
Q 2441 2713 2670 2916 
Q 2900 3119 2900 3481 
Q 2900 3844 2670 4047 
Q 2441 4250 2034 4250 
Q 1625 4250 1398 4047 
Q 1172 3844 1172 3481 
z
" id="DejaVuSans-38" transform="scale(0.015625)"/>
       </defs>
       <use xlink:href="#DejaVuSans-38"/>
      </g>
     </g>
    </g>
    <g id="xtick_6">
     <g id="line2d_6">
      <g>
       <use style="stroke:#000000;stroke-width:0.8;" x="345.912397" xlink:href="#md0eac9b76d" y="252"/>
      </g>
     </g>
     <g id="text_6">
      <!-- 10 -->
      <g transform="translate(339.549897 266.598437)scale(0.1 -0.1)">
       <defs>
        <path d="M 794 531 
L 1825 531 
L 1825 4091 
L 703 3866 
L 703 4441 
L 1819 4666 
L 2450 4666 
L 2450 531 
L 3481 531 
L 3481 0 
L 794 0 
L 794 531 
z
" id="DejaVuSans-31" transform="scale(0.015625)"/>
       </defs>
       <use xlink:href="#DejaVuSans-31"/>
       <use x="63.623047" xlink:href="#DejaVuSans-30"/>
      </g>
     </g>
    </g>
    <g id="text_7">
     <!-- x -->
     <g transform="translate(217.84875 281.79625)scale(0.12 -0.12)">
      <defs>
       <path d="M 3513 3500 
L 2247 1797 
L 3578 0 
L 2900 0 
L 1881 1375 
L 863 0 
L 184 0 
L 1544 1831 
L 300 3500 
L 978 3500 
L 1906 2253 
L 2834 3500 
L 3513 3500 
z
" id="DejaVuSans-78" transform="scale(0.015625)"/>
      </defs>
      <use xlink:href="#DejaVuSans-78"/>
     </g>
    </g>
   </g>
   <g id="matplotlib.axis_2">
    <g id="ytick_1">
     <g id="line2d_7">
      <defs>
       <path d="M 0 0 
L -3.5 0 
" id="m3ad8d5c700" style="stroke:#000000;stroke-width:0.8;"/>
      </defs>
      <g>
       <use style="stroke:#000000;stroke-width:0.8;" x="54" xlink:href="#m3ad8d5c700" y="252"/>
      </g>
     </g>
     <g id="text_8">
      <!-- 3 -->
      <g transform="translate(40.6375 255.799219)scale(0.1 -0.1)">
       <defs>
        <path d="M 2597 2516 
Q 3050 2419 3304 2112 
Q 3559 1806 3559 1356 
Q 3559 666 3084 287 
Q 2609 -91 1734 -91 
Q 1441 -91 1130 -33 
Q 819 25 488 141 
L 488 750 
Q 750 597 1062 519 
Q 1375 441 1716 441 
Q 2309 441 2620 675 
Q 2931 909 2931 1356 
Q 2931 1769 2642 2001 
Q 2353 2234 1838 2234 
L 1294 2234 
L 1294 2753 
L 1863 2753 
Q 2328 2753 2575 2939 
Q 2822 3125 2822 3475 
Q 2822 3834 2567 4026 
Q 2313 4219 1838 4219 
Q 1578 4219 1281 4162 
Q 984 4106 628 3988 
L 628 4550 
Q 988 4650 1302 4700 
Q 1616 4750 1894 4750 
Q 2613 4750 3031 4423 
Q 3450 4097 3450 3541 
Q 3450 3153 3228 2886 
Q 3006 2619 2597 2516 
z
" id="DejaVuSans-33" transform="scale(0.015625)"/>
       </defs>
       <use xlink:href="#DejaVuSans-33"/>
      </g>
     </g>
    </g>
    <g id="ytick_2">
     <g id="line2d_8">
      <g>
       <use style="stroke:#000000;stroke-width:0.8;" x="54" xlink:href="#m3ad8d5c700" y="215.76"/>
      </g>
     </g>
     <g id="text_9">
      <!-- 4 -->
      <g transform="translate(40.6375 219.559219)scale(0.1 -0.1)">
       <use xlink:href="#DejaVuSans-34"/>
      </g>
     </g>
    </g>
    <g id="ytick_3">
     <g id="line2d_9">
      <g>
       <use style="stroke:#000000;stroke-width:0.8;" x="54" xlink:href="#m3ad8d5c700" y="179.52"/>
      </g>
     </g>
     <g id="text_10">
      <!-- 5 -->
      <g transform="translate(40.6375 183.319219)scale(0.1 -0.1)">
       <defs>
        <path d="M 691 4666 
L 3169 4666 
L 3169 4134 
L 1269 4134 
L 1269 2991 
Q 1406 3038 1543 3061 
Q 1681 3084 1819 3084 
Q 2600 3084 3056 2656 
Q 3513 2228 3513 1497 
Q 3513 744 3044 326 
Q 2575 -91 1722 -91 
Q 1428 -91 1123 -41 
Q 819 9 494 109 
L 494 744 
Q 775 591 1075 516 
Q 1375 441 1709 441 
Q 2250 441 2565 725 
Q 2881 1009 2881 1497 
Q 2881 1984 2565 2268 
Q 2250 2553 1709 2553 
Q 1456 2553 1204 2497 
Q 953 2441 691 2322 
L 691 4666 
z
" id="DejaVuSans-35" transform="scale(0.015625)"/>
       </defs>
       <use xlink:href="#DejaVuSans-35"/>
      </g>
     </g>
    </g>
    <g id="ytick_4">
     <g id="line2d_10">
      <g>
       <use style="stroke:#000000;stroke-width:0.8;" x="54" xlink:href="#m3ad8d5c700" y="143.28"/>
      </g>
     </g>
     <g id="text_11">
      <!-- 6 -->
      <g transform="translate(40.6375 147.079219)scale(0.1 -0.1)">
       <use xlink:href="#DejaVuSans-36"/>
      </g>
     </g>
    </g>
    <g id="ytick_5">
     <g id="line2d_11">
      <g>
       <use style="stroke:#000000;stroke-width:0.8;" x="54" xlink:href="#m3ad8d5c700" y="107.04"/>
      </g>
     </g>
     <g id="text_12">
      <!-- 7 -->
      <g transform="translate(40.6375 110.839219)scale(0.1 -0.1)">
       <defs>
        <path d="M 525 4666 
L 3525 4666 
L 3525 4397 
L 1831 0 
L 1172 0 
L 2766 4134 
L 525 4134 
L 525 4666 
z
" id="DejaVuSans-37" transform="scale(0.015625)"/>
       </defs>
       <use xlink:href="#DejaVuSans-37"/>
      </g>
     </g>
    </g>
    <g id="ytick_6">
     <g id="line2d_12">
      <g>
       <use style="stroke:#000000;stroke-width:0.8;" x="54" xlink:href="#m3ad8d5c700" y="70.8"/>
      </g>
     </g>
     <g id="text_13">
      <!-- 8 -->
      <g transform="translate(40.6375 74.599219)scale(0.1 -0.1)">
       <use xlink:href="#DejaVuSans-38"/>
      </g>
     </g>
    </g>
    <g id="ytick_7">
     <g id="line2d_13">
      <g>
       <use style="stroke:#000000;stroke-width:0.8;" x="54" xlink:href="#m3ad8d5c700" y="34.56"/>
      </g>
     </g>
     <g id="text_14">
      <!-- 9 -->
      <g transform="translate(40.6375 38.359219)scale(0.1 -0.1)">
       <defs>
        <path d="M 703 97 
L 703 672 
Q 941 559 1184 500 
Q 1428 441 1663 441 
Q 2288 441 2617 861 
Q 2947 1281 2994 2138 
Q 2813 1869 2534 1725 
Q 2256 1581 1919 1581 
Q 1219 1581 811 2004 
Q 403 2428 403 3163 
Q 403 3881 828 4315 
Q 1253 4750 1959 4750 
Q 2769 4750 3195 4129 
Q 3622 3509 3622 2328 
Q 3622 1225 3098 567 
Q 2575 -91 1691 -91 
Q 1453 -91 1209 -44 
Q 966 3 703 97 
z
M 1959 2075 
Q 2384 2075 2632 2365 
Q 2881 2656 2881 3163 
Q 2881 3666 2632 3958 
Q 2384 4250 1959 4250 
Q 1534 4250 1286 3958 
Q 1038 3666 1038 3163 
Q 1038 2656 1286 2365 
Q 1534 2075 1959 2075 
z
" id="DejaVuSans-39" transform="scale(0.015625)"/>
       </defs>
       <use xlink:href="#DejaVuSans-39"/>
      </g>
     </g>
    </g>
    <g id="text_15">
     <!-- y -->
     <g transform="translate(34.141875 146.83125)rotate(-90)scale(0.12 -0.12)">
      <defs>
       <path d="M 2059 -325 
Q 1816 -950 1584 -1140 
Q 1353 -1331 966 -1331 
L 506 -1331 
L 506 -850 
L 844 -850 
Q 1081 -850 1212 -737 
Q 1344 -625 1503 -206 
L 1606 56 
L 191 3500 
L 800 3500 
L 1894 763 
L 2988 3500 
L 3597 3500 
L 2059 -325 
z
" id="DejaVuSans-79" transform="scale(0.015625)"/>
      </defs>
      <use xlink:href="#DejaVuSans-79"/>
     </g>
    </g>
   </g>
   <g id="line2d_14">
    <path clip-path="url(#p5011c0c4a2)" d="M 69.218182 70.8 
L 71.985124 85.083949 
L 74.752066 98.25467 
L 77.519008 110.364828 
L 80.28595 121.465955 
L 83.052893 131.608455 
L 85.819835 140.841599 
L 88.586777 149.213528 
L 91.353719 156.771253 
L 94.120661 163.560654 
L 96.887603 169.62648 
L 99.654545 175.012349 
L 102.421488 179.76075 
L 105.18843 183.913038 
L 107.955372 187.509441 
L 110.722314 190.589055 
L 113.489256 193.189844 
L 116.256198 195.348643 
L 119.02314 197.101155 
L 121.790083 198.481953 
L 124.557025 199.52448 
L 127.323967 200.261047 
L 130.090909 200.722835 
L 132.857851 200.939895 
L 135.624793 200.941145 
L 138.391736 200.754375 
L 141.158678 200.406243 
L 143.92562 199.922276 
L 146.692562 199.326871 
L 149.459504 198.643294 
L 152.226446 197.89368 
L 154.993388 197.099035 
L 157.760331 196.279231 
L 160.527273 195.453014 
L 163.294215 194.637994 
L 166.061157 193.850655 
L 168.828099 193.106347 
L 171.595041 192.419291 
L 174.361983 191.802577 
L 177.128926 191.268164 
L 179.895868 190.82688 
L 182.66281 190.488424 
L 185.429752 190.261362 
L 188.196694 190.153131 
L 190.963636 190.170037 
L 193.730579 190.317255 
L 196.497521 190.598829 
L 199.264463 191.017673 
L 202.031405 191.575569 
L 204.798347 192.273171 
L 207.565289 193.11 
L 210.332231 194.084446 
L 213.099174 195.193771 
L 215.866116 196.434103 
L 218.633058 197.800442 
L 221.4 199.286655 
L 224.166942 200.88548 
L 226.933884 202.588525 
L 229.700826 204.386264 
L 232.467769 206.268045 
L 235.234711 208.22208 
L 238.001653 210.235455 
L 240.768595 212.294122 
L 243.535537 214.382905 
L 246.302479 216.485496 
L 249.069421 218.584455 
L 251.836364 220.661214 
L 254.603306 222.696071 
L 257.370248 224.668198 
L 260.13719 226.555631 
L 262.904132 228.33528 
L 265.671074 229.982921 
L 268.438017 231.4732 
L 271.204959 232.779634 
L 273.971901 233.874607 
L 276.738843 234.729375 
L 279.505785 235.31406 
L 282.272727 235.597656 
L 285.039669 235.548026 
L 287.806612 235.1319 
L 290.573554 234.31488 
L 293.340496 233.061436 
L 296.107438 231.334908 
L 298.87438 229.097505 
L 301.641322 226.310305 
L 304.408264 222.933255 
L 307.175207 218.925173 
L 309.942149 214.243744 
L 312.709091 208.845524 
L 315.476033 202.685938 
L 318.242975 195.71928 
L 321.009917 187.898713 
L 323.77686 179.176271 
L 326.543802 169.502854 
L 329.310744 158.828236 
L 332.077686 147.101055 
L 334.844628 134.268823 
L 337.61157 120.277918 
L 340.378512 105.073589 
L 343.145455 88.599954 
L 345.912397 70.8 
L 348.679339 51.615584 
L 351.446281 30.987432 
L 354.213223 8.855138 
L 355.363895 -1 
" style="fill:none;stroke:#0000ff;stroke-linecap:square;stroke-width:2;"/>
   </g>
   <g id="line2d_15">
    <path clip-path="url(#p5011c0c4a2)" d="M 69.218182 181.987463 
L 71.985124 178.600408 
L 74.752066 175.750866 
L 77.519008 173.576634 
L 80.28595 172.195626 
L 83.052893 171.693586 
L 85.819835 172.111687 
L 88.586777 173.436713 
L 91.353719 175.597745 
L 94.120661 178.472238 
L 96.887603 181.900658 
L 99.654545 185.705089 
L 102.421488 189.7065 
L 105.18843 193.737588 
L 107.955372 197.650803 
L 110.722314 201.322597 
L 113.489256 204.655173 
L 116.256198 207.576713 
L 119.02314 210.040666 
L 121.790083 212.024419 
L 124.557025 213.527462 
L 127.323967 214.569034 
L 130.090909 215.185242 
L 132.857851 215.425659 
L 135.624793 215.349499 
L 138.391736 215.02157 
L 141.158678 214.508236 
L 143.92562 213.873642 
L 146.692562 213.176397 
L 149.459504 212.466867 
L 152.226446 211.785158 
L 154.993388 211.159866 
L 157.760331 210.607676 
L 160.527273 210.133934 
L 163.294215 209.734349 
L 166.061157 209.397911 
L 168.828099 209.111015 
L 171.595041 208.862568 
L 174.361983 208.649516 
L 177.128926 208.481903 
L 179.895868 208.386055 
L 182.66281 208.404162 
L 185.429752 208.588725 
L 188.196694 208.991791 
L 190.963636 209.651637 
L 193.730579 210.5819 
L 196.497521 211.767514 
L 199.264463 213.168236 
L 202.031405 214.726926 
L 204.798347 216.378882 
L 207.565289 218.059822 
L 210.332231 219.711714 
L 213.099174 221.286587 
L 215.866116 222.748696 
L 218.633058 224.075414 
L 221.4 225.257092 
L 224.166942 226.296104 
L 226.933884 227.205263 
L 229.700826 228.005771 
L 232.467769 228.724892 
L 235.234711 229.393517 
L 238.001653 230.04375 
L 240.768595 230.706626 
L 243.535537 231.410057 
L 246.302479 232.177021 
L 249.069421 233.024051 
L 251.836364 233.960035 
L 254.603306 234.985336 
L 257.370248 236.091284 
L 260.13719 237.260045 
L 262.904132 238.464928 
L 265.671074 239.671166 
L 268.438017 240.837234 
L 271.204959 241.916804 
L 273.971901 242.861452 
L 276.738843 243.624367 
L 279.505785 244.16534 
L 282.272727 244.457393 
L 285.039669 244.494856 
L 287.806612 244.300467 
L 290.573554 243.922501 
L 293.340496 243.403413 
L 296.107438 242.710477 
L 298.87438 241.676125 
L 301.641322 240.027713 
L 304.408264 237.489301 
L 307.175207 233.863245 
L 309.942149 229.057858 
L 312.709091 223.083342 
L 315.476033 216.037949 
L 318.242975 208.092767 
L 321.009917 199.476834 
L 323.77686 190.462608 
L 326.543802 181.351765 
L 329.310744 172.461229 
L 332.077686 164.109037 
L 334.844628 156.599193 
L 337.61157 150.204803 
L 340.378512 145.150061 
L 343.145455 141.593887 
L 345.912397 139.61925 
L 348.679339 139.230907 
L 351.446281 140.361207 
L 354.213223 142.881322 
L 356.980165 146.615056 
L 359.747107 151.353341 
L 362.51405 156.868425 
L 365.280992 162.927158 
L 368.047934 169.302909 
L 370.814876 175.785637 
L 373.581818 182.189733 
" style="fill:none;stroke:#008000;stroke-dasharray:3.7,1.6;stroke-dashoffset:0;"/>
   </g>
   <g id="line2d_16">
    <path clip-path="url(#p5011c0c4a2)" d="M 69.218182 123.519373 
L 71.985124 123.911624 
L 74.752066 124.826889 
L 77.519008 126.261414 
L 80.28595 128.189686 
L 83.052893 130.569008 
L 85.819835 133.346973 
L 88.586777 136.469621 
L 91.353719 139.886629 
L 94.120661 143.550616 
L 96.887603 147.411062 
L 99.654545 151.406827 
L 102.421488 155.46177 
L 105.18843 159.485609 
L 107.955372 163.3794 
L 110.722314 167.04367 
L 113.489256 170.387059 
L 116.256198 173.333906 
L 119.02314 175.82975 
L 121.790083 177.844322 
L 124.557025 179.371999 
L 127.323967 180.430061 
L 130.090909 181.055275 
L 132.857851 181.299393 
L 135.624793 181.22416 
L 138.391736 180.896304 
L 141.158678 180.382897 
L 143.92562 179.747376 
L 146.692562 179.046429 
L 149.459504 178.327894 
L 152.226446 177.629695 
L 154.993388 176.97977 
L 157.760331 176.39676 
L 160.527273 175.891126 
L 163.294215 175.466235 
L 166.061157 175.118984 
L 168.828099 174.839613 
L 171.595041 174.610588 
L 174.361983 174.404786 
L 177.128926 174.183641 
L 179.895868 173.89646 
L 182.66281 173.482541 
L 185.429752 172.87761 
L 188.196694 172.024699 
L 190.963636 170.886924 
L 193.730579 169.457325 
L 196.497521 167.761587 
L 199.264463 165.853055 
L 202.031405 163.803049 
L 204.798347 161.690329 
L 207.565289 159.592235 
L 210.332231 157.57836 
L 213.099174 155.706679 
L 215.866116 154.021707 
L 218.633058 152.554321 
L 221.4 151.322885 
L 224.166942 150.335394 
L 226.933884 149.592349 
L 229.700826 149.090049 
L 232.467769 148.82402 
L 235.234711 148.792252 
L 238.001653 148.997994 
L 240.768595 149.451852 
L 243.535537 150.172987 
L 246.302479 151.189275 
L 249.069421 152.536326 
L 251.836364 154.255322 
L 254.603306 156.389702 
L 257.370248 158.980796 
L 260.13719 162.062588 
L 262.904132 165.655865 
L 265.671074 169.762091 
L 268.438017 174.357374 
L 271.204959 179.386918 
L 273.971901 184.760278 
L 276.738843 190.347618 
L 279.505785 195.976983 
L 282.272727 201.432449 
L 285.039669 206.453348 
L 287.806612 210.736879 
L 290.573554 213.952743 
L 293.340496 215.787834 
L 296.107438 216.029867 
L 298.87438 214.641447 
L 301.641322 211.74407 
L 304.408264 207.528565 
L 307.175207 202.183393 
L 309.942149 195.873773 
L 312.709091 188.748815 
L 315.476033 180.954239 
L 318.242975 172.642061 
L 321.009917 163.975511 
L 323.77686 155.129465 
L 326.543802 146.286951 
L 329.310744 137.63267 
L 332.077686 129.344993 
L 334.844628 121.588553 
L 337.61157 114.509501 
L 340.378512 108.234232 
L 343.145455 102.870056 
L 345.912397 98.504833 
L 348.679339 95.203574 
L 351.446281 93.002711 
L 354.213223 91.904567 
L 356.980165 91.874381 
L 359.747107 92.840859 
L 362.51405 94.700057 
L 365.280992 97.321792 
L 368.047934 100.557647 
L 370.814876 104.249662 
L 373.581818 108.238947 
" style="fill:none;stroke:#008000;stroke-dasharray:3.7,1.6;stroke-dashoffset:0;"/>
   </g>
   <g id="line2d_17">
    <path clip-path="url(#p5011c0c4a2)" d="M 69.218182 251.986031 
L 71.985124 251.997854 
L 74.752066 251.999793 
L 77.519008 251.999988 
L 80.28595 252 
L 83.052893 252 
L 85.819835 252 
L 88.586777 252 
L 91.353719 252 
L 94.120661 252 
L 96.887603 252 
L 99.654545 252 
L 102.421488 252 
L 105.18843 252 
L 107.955372 251.999997 
L 110.722314 251.999979 
L 113.489256 251.999885 
L 116.256198 251.999535 
L 119.02314 251.998589 
L 121.790083 251.996696 
L 124.557025 251.993854 
L 127.323967 251.990658 
L 130.090909 251.988083 
L 132.857851 251.986909 
L 135.624793 251.987305 
L 138.391736 251.988864 
L 141.158678 251.990947 
L 143.92562 251.993014 
L 146.692562 251.994761 
L 149.459504 251.996099 
L 152.226446 251.997061 
L 154.993388 251.997728 
L 157.760331 251.998184 
L 160.527273 251.998499 
L 163.294215 251.998724 
L 166.061157 251.998896 
L 168.828099 251.999035 
L 171.595041 251.99915 
L 174.361983 251.999233 
L 177.128926 251.999263 
L 179.895868 251.999197 
L 182.66281 251.998924 
L 185.429752 251.998107 
L 188.196694 251.995585 
L 190.963636 251.987241 
L 193.730579 251.959542 
L 196.497521 251.875755 
L 199.264463 251.6606 
L 202.031405 251.204578 
L 204.798347 250.40166 
L 207.565289 249.198398 
L 210.332231 247.618449 
L 213.099174 245.751698 
L 215.866116 243.723181 
L 218.633058 241.660852 
L 221.4 239.672536 
L 224.166942 237.834067 
L 226.933884 236.186564 
L 229.700826 234.739772 
L 232.467769 233.478735 
L 235.234711 232.371746 
L 238.001653 231.3782 
L 240.768595 230.455521 
L 243.535537 229.564803 
L 246.302479 228.67509 
L 249.069421 227.766419 
L 251.836364 226.831826 
L 254.603306 225.878454 
L 257.370248 224.927825 
L 260.13719 224.015212 
L 262.904132 223.187897 
L 265.671074 222.501929 
L 268.438017 222.016816 
L 271.204959 221.78725 
L 273.971901 221.850713 
L 276.738843 222.209921 
L 279.505785 222.810771 
L 282.272727 223.523015 
L 285.039669 224.14885 
L 287.806612 224.520963 
L 290.573554 224.772379 
L 293.340496 225.665458 
L 296.107438 228.340247 
L 298.87438 233.17988 
L 301.641322 239.18494 
L 304.408264 244.766138 
L 307.175207 248.781475 
L 309.942149 250.95928 
L 312.709091 251.782617 
L 315.476033 251.97494 
L 318.242975 251.998685 
L 321.009917 251.999974 
L 323.77686 252 
L 326.543802 252 
L 329.310744 252 
L 332.077686 252 
L 334.844628 252 
L 337.61157 252 
L 340.378512 252 
L 343.145455 252 
L 345.912397 252 
L 348.679339 252 
L 351.446281 252 
L 354.213223 252 
L 356.980165 251.999999 
L 359.747107 251.999976 
L 362.51405 251.999585 
L 365.280992 251.996169 
L 368.047934 251.978083 
L 370.814876 251.91323 
L 373.581818 251.74136 
" style="fill:none;stroke:#bfbf00;stroke-dasharray:7.4,3.2;stroke-dashoffset:0;stroke-width:2;"/>
   </g>
   <g id="patch_3">
    <path d="M 54 252 
L 54 34.56 
" style="fill:none;stroke:#000000;stroke-linecap:square;stroke-linejoin:miter;stroke-width:0.8;"/>
   </g>
   <g id="patch_4">
    <path d="M 388.8 252 
L 388.8 34.56 
" style="fill:none;stroke:#000000;stroke-linecap:square;stroke-linejoin:miter;stroke-width:0.8;"/>
   </g>
   <g id="patch_5">
    <path d="M 54 252 
L 388.8 252 
" style="fill:none;stroke:#000000;stroke-linecap:square;stroke-linejoin:miter;stroke-width:0.8;"/>
   </g>
   <g id="patch_6">
    <path d="M 54 34.56 
L 388.8 34.56 
" style="fill:none;stroke:#000000;stroke-linecap:square;stroke-linejoin:miter;stroke-width:0.8;"/>
   </g>
   <g id="text_16">
    <!-- Method : EQI -->
    <g transform="translate(71.985124 244.752)scale(0.12 -0.12)">
     <defs>
      <path d="M 628 4666 
L 1569 4666 
L 2759 1491 
L 3956 4666 
L 4897 4666 
L 4897 0 
L 4281 0 
L 4281 4097 
L 3078 897 
L 2444 897 
L 1241 4097 
L 1241 0 
L 628 0 
L 628 4666 
z
" id="DejaVuSans-4d" transform="scale(0.015625)"/>
      <path d="M 3597 1894 
L 3597 1613 
L 953 1613 
Q 991 1019 1311 708 
Q 1631 397 2203 397 
Q 2534 397 2845 478 
Q 3156 559 3463 722 
L 3463 178 
Q 3153 47 2828 -22 
Q 2503 -91 2169 -91 
Q 1331 -91 842 396 
Q 353 884 353 1716 
Q 353 2575 817 3079 
Q 1281 3584 2069 3584 
Q 2775 3584 3186 3129 
Q 3597 2675 3597 1894 
z
M 3022 2063 
Q 3016 2534 2758 2815 
Q 2500 3097 2075 3097 
Q 1594 3097 1305 2825 
Q 1016 2553 972 2059 
L 3022 2063 
z
" id="DejaVuSans-65" transform="scale(0.015625)"/>
      <path d="M 1172 4494 
L 1172 3500 
L 2356 3500 
L 2356 3053 
L 1172 3053 
L 1172 1153 
Q 1172 725 1289 603 
Q 1406 481 1766 481 
L 2356 481 
L 2356 0 
L 1766 0 
Q 1100 0 847 248 
Q 594 497 594 1153 
L 594 3053 
L 172 3053 
L 172 3500 
L 594 3500 
L 594 4494 
L 1172 4494 
z
" id="DejaVuSans-74" transform="scale(0.015625)"/>
      <path d="M 3513 2113 
L 3513 0 
L 2938 0 
L 2938 2094 
Q 2938 2591 2744 2837 
Q 2550 3084 2163 3084 
Q 1697 3084 1428 2787 
Q 1159 2491 1159 1978 
L 1159 0 
L 581 0 
L 581 4863 
L 1159 4863 
L 1159 2956 
Q 1366 3272 1645 3428 
Q 1925 3584 2291 3584 
Q 2894 3584 3203 3211 
Q 3513 2838 3513 2113 
z
" id="DejaVuSans-68" transform="scale(0.015625)"/>
      <path d="M 1959 3097 
Q 1497 3097 1228 2736 
Q 959 2375 959 1747 
Q 959 1119 1226 758 
Q 1494 397 1959 397 
Q 2419 397 2687 759 
Q 2956 1122 2956 1747 
Q 2956 2369 2687 2733 
Q 2419 3097 1959 3097 
z
M 1959 3584 
Q 2709 3584 3137 3096 
Q 3566 2609 3566 1747 
Q 3566 888 3137 398 
Q 2709 -91 1959 -91 
Q 1206 -91 779 398 
Q 353 888 353 1747 
Q 353 2609 779 3096 
Q 1206 3584 1959 3584 
z
" id="DejaVuSans-6f" transform="scale(0.015625)"/>
      <path d="M 2906 2969 
L 2906 4863 
L 3481 4863 
L 3481 0 
L 2906 0 
L 2906 525 
Q 2725 213 2448 61 
Q 2172 -91 1784 -91 
Q 1150 -91 751 415 
Q 353 922 353 1747 
Q 353 2572 751 3078 
Q 1150 3584 1784 3584 
Q 2172 3584 2448 3432 
Q 2725 3281 2906 2969 
z
M 947 1747 
Q 947 1113 1208 752 
Q 1469 391 1925 391 
Q 2381 391 2643 752 
Q 2906 1113 2906 1747 
Q 2906 2381 2643 2742 
Q 2381 3103 1925 3103 
Q 1469 3103 1208 2742 
Q 947 2381 947 1747 
z
" id="DejaVuSans-64" transform="scale(0.015625)"/>
      <path id="DejaVuSans-20" transform="scale(0.015625)"/>
      <path d="M 750 794 
L 1409 794 
L 1409 0 
L 750 0 
L 750 794 
z
M 750 3309 
L 1409 3309 
L 1409 2516 
L 750 2516 
L 750 3309 
z
" id="DejaVuSans-3a" transform="scale(0.015625)"/>
      <path d="M 628 4666 
L 3578 4666 
L 3578 4134 
L 1259 4134 
L 1259 2753 
L 3481 2753 
L 3481 2222 
L 1259 2222 
L 1259 531 
L 3634 531 
L 3634 0 
L 628 0 
L 628 4666 
z
" id="DejaVuSans-45" transform="scale(0.015625)"/>
      <path d="M 2522 4238 
Q 1834 4238 1429 3725 
Q 1025 3213 1025 2328 
Q 1025 1447 1429 934 
Q 1834 422 2522 422 
Q 3209 422 3611 934 
Q 4013 1447 4013 2328 
Q 4013 3213 3611 3725 
Q 3209 4238 2522 4238 
z
M 3406 84 
L 4238 -825 
L 3475 -825 
L 2784 -78 
Q 2681 -84 2626 -87 
Q 2572 -91 2522 -91 
Q 1538 -91 948 567 
Q 359 1225 359 2328 
Q 359 3434 948 4092 
Q 1538 4750 2522 4750 
Q 3503 4750 4090 4092 
Q 4678 3434 4678 2328 
Q 4678 1516 4351 937 
Q 4025 359 3406 84 
z
" id="DejaVuSans-51" transform="scale(0.015625)"/>
      <path d="M 628 4666 
L 1259 4666 
L 1259 0 
L 628 0 
L 628 4666 
z
" id="DejaVuSans-49" transform="scale(0.015625)"/>
     </defs>
     <use xlink:href="#DejaVuSans-4d"/>
     <use x="86.279297" xlink:href="#DejaVuSans-65"/>
     <use x="147.802734" xlink:href="#DejaVuSans-74"/>
     <use x="187.011719" xlink:href="#DejaVuSans-68"/>
     <use x="250.390625" xlink:href="#DejaVuSans-6f"/>
     <use x="311.572266" xlink:href="#DejaVuSans-64"/>
     <use x="375.048828" xlink:href="#DejaVuSans-20"/>
     <use x="406.835938" xlink:href="#DejaVuSans-3a"/>
     <use x="440.527344" xlink:href="#DejaVuSans-20"/>
     <use x="472.314453" xlink:href="#DejaVuSans-45"/>
     <use x="535.498047" xlink:href="#DejaVuSans-51"/>
     <use x="614.208984" xlink:href="#DejaVuSans-49"/>
    </g>
   </g>
   <g id="text_17">
    <!-- Iter=4 -->
    <g transform="translate(71.985124 226.632)scale(0.12 -0.12)">
     <defs>
      <path d="M 2631 2963 
Q 2534 3019 2420 3045 
Q 2306 3072 2169 3072 
Q 1681 3072 1420 2755 
Q 1159 2438 1159 1844 
L 1159 0 
L 581 0 
L 581 3500 
L 1159 3500 
L 1159 2956 
Q 1341 3275 1631 3429 
Q 1922 3584 2338 3584 
Q 2397 3584 2469 3576 
Q 2541 3569 2628 3553 
L 2631 2963 
z
" id="DejaVuSans-72" transform="scale(0.015625)"/>
      <path d="M 678 2906 
L 4684 2906 
L 4684 2381 
L 678 2381 
L 678 2906 
z
M 678 1631 
L 4684 1631 
L 4684 1100 
L 678 1100 
L 678 1631 
z
" id="DejaVuSans-3d" transform="scale(0.015625)"/>
     </defs>
     <use xlink:href="#DejaVuSans-49"/>
     <use x="29.492188" xlink:href="#DejaVuSans-74"/>
     <use x="68.701172" xlink:href="#DejaVuSans-65"/>
     <use x="130.224609" xlink:href="#DejaVuSans-72"/>
     <use x="171.337891" xlink:href="#DejaVuSans-3d"/>
     <use x="255.126953" xlink:href="#DejaVuSans-34"/>
    </g>
   </g>
   <g id="legend_1">
    <g id="patch_7">
     <path d="M 144.327812 140.235625 
L 298.472188 140.235625 
Q 300.672188 140.235625 300.672188 138.035625 
L 300.672188 42.26 
Q 300.672188 40.06 298.472188 40.06 
L 144.327812 40.06 
Q 142.127813 40.06 142.127813 42.26 
L 142.127813 138.035625 
Q 142.127813 140.235625 144.327812 140.235625 
z
" style="fill:#ffffff;opacity:0.8;stroke:#cccccc;stroke-linejoin:miter;"/>
    </g>
    <g id="line2d_18">
     <path d="M 146.527813 48.968281 
L 168.527813 48.968281 
" style="fill:none;stroke:#0000ff;stroke-linecap:square;stroke-width:2;"/>
    </g>
    <g id="line2d_19"/>
    <g id="text_18">
     <!-- ture function -->
     <g transform="translate(177.327813 52.818281)scale(0.11 -0.11)">
      <defs>
       <path d="M 544 1381 
L 544 3500 
L 1119 3500 
L 1119 1403 
Q 1119 906 1312 657 
Q 1506 409 1894 409 
Q 2359 409 2629 706 
Q 2900 1003 2900 1516 
L 2900 3500 
L 3475 3500 
L 3475 0 
L 2900 0 
L 2900 538 
Q 2691 219 2414 64 
Q 2138 -91 1772 -91 
Q 1169 -91 856 284 
Q 544 659 544 1381 
z
M 1991 3584 
L 1991 3584 
z
" id="DejaVuSans-75" transform="scale(0.015625)"/>
       <path d="M 2375 4863 
L 2375 4384 
L 1825 4384 
Q 1516 4384 1395 4259 
Q 1275 4134 1275 3809 
L 1275 3500 
L 2222 3500 
L 2222 3053 
L 1275 3053 
L 1275 0 
L 697 0 
L 697 3053 
L 147 3053 
L 147 3500 
L 697 3500 
L 697 3744 
Q 697 4328 969 4595 
Q 1241 4863 1831 4863 
L 2375 4863 
z
" id="DejaVuSans-66" transform="scale(0.015625)"/>
       <path d="M 3513 2113 
L 3513 0 
L 2938 0 
L 2938 2094 
Q 2938 2591 2744 2837 
Q 2550 3084 2163 3084 
Q 1697 3084 1428 2787 
Q 1159 2491 1159 1978 
L 1159 0 
L 581 0 
L 581 3500 
L 1159 3500 
L 1159 2956 
Q 1366 3272 1645 3428 
Q 1925 3584 2291 3584 
Q 2894 3584 3203 3211 
Q 3513 2838 3513 2113 
z
" id="DejaVuSans-6e" transform="scale(0.015625)"/>
       <path d="M 3122 3366 
L 3122 2828 
Q 2878 2963 2633 3030 
Q 2388 3097 2138 3097 
Q 1578 3097 1268 2742 
Q 959 2388 959 1747 
Q 959 1106 1268 751 
Q 1578 397 2138 397 
Q 2388 397 2633 464 
Q 2878 531 3122 666 
L 3122 134 
Q 2881 22 2623 -34 
Q 2366 -91 2075 -91 
Q 1284 -91 818 406 
Q 353 903 353 1747 
Q 353 2603 823 3093 
Q 1294 3584 2113 3584 
Q 2378 3584 2631 3529 
Q 2884 3475 3122 3366 
z
" id="DejaVuSans-63" transform="scale(0.015625)"/>
       <path d="M 603 3500 
L 1178 3500 
L 1178 0 
L 603 0 
L 603 3500 
z
M 603 4863 
L 1178 4863 
L 1178 4134 
L 603 4134 
L 603 4863 
z
" id="DejaVuSans-69" transform="scale(0.015625)"/>
      </defs>
      <use xlink:href="#DejaVuSans-74"/>
      <use x="39.208984" xlink:href="#DejaVuSans-75"/>
      <use x="102.587891" xlink:href="#DejaVuSans-72"/>
      <use x="141.451172" xlink:href="#DejaVuSans-65"/>
      <use x="202.974609" xlink:href="#DejaVuSans-20"/>
      <use x="234.761719" xlink:href="#DejaVuSans-66"/>
      <use x="269.966797" xlink:href="#DejaVuSans-75"/>
      <use x="333.345703" xlink:href="#DejaVuSans-6e"/>
      <use x="396.724609" xlink:href="#DejaVuSans-63"/>
      <use x="451.705078" xlink:href="#DejaVuSans-74"/>
      <use x="490.914062" xlink:href="#DejaVuSans-69"/>
      <use x="518.697266" xlink:href="#DejaVuSans-6f"/>
      <use x="579.878906" xlink:href="#DejaVuSans-6e"/>
     </g>
    </g>
    <g id="line2d_20">
     <path d="M 146.527813 65.114219 
L 168.527813 65.114219 
" style="fill:none;stroke:#000000;stroke-dasharray:7.4,3.2;stroke-dashoffset:0;stroke-width:2;"/>
    </g>
    <g id="line2d_21"/>
    <g id="text_19">
     <!-- predicted function -->
     <g transform="translate(177.327813 68.964219)scale(0.11 -0.11)">
      <defs>
       <path d="M 1159 525 
L 1159 -1331 
L 581 -1331 
L 581 3500 
L 1159 3500 
L 1159 2969 
Q 1341 3281 1617 3432 
Q 1894 3584 2278 3584 
Q 2916 3584 3314 3078 
Q 3713 2572 3713 1747 
Q 3713 922 3314 415 
Q 2916 -91 2278 -91 
Q 1894 -91 1617 61 
Q 1341 213 1159 525 
z
M 3116 1747 
Q 3116 2381 2855 2742 
Q 2594 3103 2138 3103 
Q 1681 3103 1420 2742 
Q 1159 2381 1159 1747 
Q 1159 1113 1420 752 
Q 1681 391 2138 391 
Q 2594 391 2855 752 
Q 3116 1113 3116 1747 
z
" id="DejaVuSans-70" transform="scale(0.015625)"/>
      </defs>
      <use xlink:href="#DejaVuSans-70"/>
      <use x="63.476562" xlink:href="#DejaVuSans-72"/>
      <use x="102.339844" xlink:href="#DejaVuSans-65"/>
      <use x="163.863281" xlink:href="#DejaVuSans-64"/>
      <use x="227.339844" xlink:href="#DejaVuSans-69"/>
      <use x="255.123047" xlink:href="#DejaVuSans-63"/>
      <use x="310.103516" xlink:href="#DejaVuSans-74"/>
      <use x="349.3125" xlink:href="#DejaVuSans-65"/>
      <use x="410.835938" xlink:href="#DejaVuSans-64"/>
      <use x="474.3125" xlink:href="#DejaVuSans-20"/>
      <use x="506.099609" xlink:href="#DejaVuSans-66"/>
      <use x="541.304688" xlink:href="#DejaVuSans-75"/>
      <use x="604.683594" xlink:href="#DejaVuSans-6e"/>
      <use x="668.0625" xlink:href="#DejaVuSans-63"/>
      <use x="723.042969" xlink:href="#DejaVuSans-74"/>
      <use x="762.251953" xlink:href="#DejaVuSans-69"/>
      <use x="790.035156" xlink:href="#DejaVuSans-6f"/>
      <use x="851.216797" xlink:href="#DejaVuSans-6e"/>
     </g>
    </g>
    <g id="line2d_22">
     <path d="M 146.527813 81.260156 
L 168.527813 81.260156 
" style="fill:none;stroke:#008000;stroke-dasharray:3.7,1.6;stroke-dashoffset:0;"/>
    </g>
    <g id="line2d_23"/>
    <g id="text_20">
     <!--  ± Sn(x) -->
     <g transform="translate(177.327813 85.110156)scale(0.11 -0.11)">
      <defs>
       <path d="M 2944 4013 
L 2944 2803 
L 4684 2803 
L 4684 2272 
L 2944 2272 
L 2944 1063 
L 2419 1063 
L 2419 2272 
L 678 2272 
L 678 2803 
L 2419 2803 
L 2419 4013 
L 2944 4013 
z
M 678 531 
L 4684 531 
L 4684 0 
L 678 0 
L 678 531 
z
" id="DejaVuSans-b1" transform="scale(0.015625)"/>
       <path d="M 3425 4513 
L 3425 3897 
Q 3066 4069 2747 4153 
Q 2428 4238 2131 4238 
Q 1616 4238 1336 4038 
Q 1056 3838 1056 3469 
Q 1056 3159 1242 3001 
Q 1428 2844 1947 2747 
L 2328 2669 
Q 3034 2534 3370 2195 
Q 3706 1856 3706 1288 
Q 3706 609 3251 259 
Q 2797 -91 1919 -91 
Q 1588 -91 1214 -16 
Q 841 59 441 206 
L 441 856 
Q 825 641 1194 531 
Q 1563 422 1919 422 
Q 2459 422 2753 634 
Q 3047 847 3047 1241 
Q 3047 1584 2836 1778 
Q 2625 1972 2144 2069 
L 1759 2144 
Q 1053 2284 737 2584 
Q 422 2884 422 3419 
Q 422 4038 858 4394 
Q 1294 4750 2059 4750 
Q 2388 4750 2728 4690 
Q 3069 4631 3425 4513 
z
" id="DejaVuSans-53" transform="scale(0.015625)"/>
       <path d="M 1984 4856 
Q 1566 4138 1362 3434 
Q 1159 2731 1159 2009 
Q 1159 1288 1364 580 
Q 1569 -128 1984 -844 
L 1484 -844 
Q 1016 -109 783 600 
Q 550 1309 550 2009 
Q 550 2706 781 3412 
Q 1013 4119 1484 4856 
L 1984 4856 
z
" id="DejaVuSans-28" transform="scale(0.015625)"/>
       <path d="M 513 4856 
L 1013 4856 
Q 1481 4119 1714 3412 
Q 1947 2706 1947 2009 
Q 1947 1309 1714 600 
Q 1481 -109 1013 -844 
L 513 -844 
Q 928 -128 1133 580 
Q 1338 1288 1338 2009 
Q 1338 2731 1133 3434 
Q 928 4138 513 4856 
z
" id="DejaVuSans-29" transform="scale(0.015625)"/>
      </defs>
      <use xlink:href="#DejaVuSans-20"/>
      <use x="31.787109" xlink:href="#DejaVuSans-b1"/>
      <use x="115.576172" xlink:href="#DejaVuSans-20"/>
      <use x="147.363281" xlink:href="#DejaVuSans-53"/>
      <use x="210.839844" xlink:href="#DejaVuSans-6e"/>
      <use x="274.21875" xlink:href="#DejaVuSans-28"/>
      <use x="313.232422" xlink:href="#DejaVuSans-78"/>
      <use x="372.412109" xlink:href="#DejaVuSans-29"/>
     </g>
    </g>
    <g id="line2d_24">
     <path d="M 146.527813 97.406094 
L 168.527813 97.406094 
" style="fill:none;stroke:#bfbf00;stroke-dasharray:7.4,3.2;stroke-dashoffset:0;stroke-width:2;"/>
    </g>
    <g id="line2d_25"/>
    <g id="text_21">
     <!-- EQI(x) -->
     <g transform="translate(177.327813 101.256094)scale(0.11 -0.11)">
      <use xlink:href="#DejaVuSans-45"/>
      <use x="63.183594" xlink:href="#DejaVuSans-51"/>
      <use x="141.894531" xlink:href="#DejaVuSans-49"/>
      <use x="171.386719" xlink:href="#DejaVuSans-28"/>
      <use x="210.400391" xlink:href="#DejaVuSans-78"/>
      <use x="269.580078" xlink:href="#DejaVuSans-29"/>
     </g>
    </g>
    <g id="PathCollection_2">
     <defs>
      <path d="M 0 3.535534 
C 0.937635 3.535534 1.836992 3.163008 2.5 2.5 
C 3.163008 1.836992 3.535534 0.937635 3.535534 0 
C 3.535534 -0.937635 3.163008 -1.836992 2.5 -2.5 
C 1.836992 -3.163008 0.937635 -3.535534 0 -3.535534 
C -0.937635 -3.535534 -1.836992 -3.163008 -2.5 -2.5 
C -3.163008 -1.836992 -3.535534 -0.937635 -3.535534 0 
C -3.535534 0.937635 -3.163008 1.836992 -2.5 2.5 
C -1.836992 3.163008 -0.937635 3.535534 0 3.535534 
z
" id="m0ce10cb234" style="stroke:#000000;"/>
     </defs>
     <g>
      <use style="fill:#ff0000;stroke:#000000;" x="157.527813" xlink:href="#m0ce10cb234" y="114.514531"/>
     </g>
    </g>
    <g id="text_22">
     <!-- training data -->
     <g transform="translate(177.327813 117.402031)scale(0.11 -0.11)">
      <defs>
       <path d="M 2194 1759 
Q 1497 1759 1228 1600 
Q 959 1441 959 1056 
Q 959 750 1161 570 
Q 1363 391 1709 391 
Q 2188 391 2477 730 
Q 2766 1069 2766 1631 
L 2766 1759 
L 2194 1759 
z
M 3341 1997 
L 3341 0 
L 2766 0 
L 2766 531 
Q 2569 213 2275 61 
Q 1981 -91 1556 -91 
Q 1019 -91 701 211 
Q 384 513 384 1019 
Q 384 1609 779 1909 
Q 1175 2209 1959 2209 
L 2766 2209 
L 2766 2266 
Q 2766 2663 2505 2880 
Q 2244 3097 1772 3097 
Q 1472 3097 1187 3025 
Q 903 2953 641 2809 
L 641 3341 
Q 956 3463 1253 3523 
Q 1550 3584 1831 3584 
Q 2591 3584 2966 3190 
Q 3341 2797 3341 1997 
z
" id="DejaVuSans-61" transform="scale(0.015625)"/>
       <path d="M 2906 1791 
Q 2906 2416 2648 2759 
Q 2391 3103 1925 3103 
Q 1463 3103 1205 2759 
Q 947 2416 947 1791 
Q 947 1169 1205 825 
Q 1463 481 1925 481 
Q 2391 481 2648 825 
Q 2906 1169 2906 1791 
z
M 3481 434 
Q 3481 -459 3084 -895 
Q 2688 -1331 1869 -1331 
Q 1566 -1331 1297 -1286 
Q 1028 -1241 775 -1147 
L 775 -588 
Q 1028 -725 1275 -790 
Q 1522 -856 1778 -856 
Q 2344 -856 2625 -561 
Q 2906 -266 2906 331 
L 2906 616 
Q 2728 306 2450 153 
Q 2172 0 1784 0 
Q 1141 0 747 490 
Q 353 981 353 1791 
Q 353 2603 747 3093 
Q 1141 3584 1784 3584 
Q 2172 3584 2450 3431 
Q 2728 3278 2906 2969 
L 2906 3500 
L 3481 3500 
L 3481 434 
z
" id="DejaVuSans-67" transform="scale(0.015625)"/>
      </defs>
      <use xlink:href="#DejaVuSans-74"/>
      <use x="39.208984" xlink:href="#DejaVuSans-72"/>
      <use x="80.322266" xlink:href="#DejaVuSans-61"/>
      <use x="141.601562" xlink:href="#DejaVuSans-69"/>
      <use x="169.384766" xlink:href="#DejaVuSans-6e"/>
      <use x="232.763672" xlink:href="#DejaVuSans-69"/>
      <use x="260.546875" xlink:href="#DejaVuSans-6e"/>
      <use x="323.925781" xlink:href="#DejaVuSans-67"/>
      <use x="387.402344" xlink:href="#DejaVuSans-20"/>
      <use x="419.189453" xlink:href="#DejaVuSans-64"/>
      <use x="482.666016" xlink:href="#DejaVuSans-61"/>
      <use x="543.945312" xlink:href="#DejaVuSans-74"/>
      <use x="583.154297" xlink:href="#DejaVuSans-61"/>
     </g>
    </g>
    <g id="PathCollection_3">
     <g>
      <use style="fill:#ff0000;stroke:#ff0000;stroke-width:8;" x="157.527813" xlink:href="#m536cd2aab6" y="130.660469"/>
     </g>
    </g>
    <g id="text_23">
     <!-- recommended datum -->
     <g transform="translate(177.327813 133.547969)scale(0.11 -0.11)">
      <defs>
       <path d="M 3328 2828 
Q 3544 3216 3844 3400 
Q 4144 3584 4550 3584 
Q 5097 3584 5394 3201 
Q 5691 2819 5691 2113 
L 5691 0 
L 5113 0 
L 5113 2094 
Q 5113 2597 4934 2840 
Q 4756 3084 4391 3084 
Q 3944 3084 3684 2787 
Q 3425 2491 3425 1978 
L 3425 0 
L 2847 0 
L 2847 2094 
Q 2847 2600 2669 2842 
Q 2491 3084 2119 3084 
Q 1678 3084 1418 2786 
Q 1159 2488 1159 1978 
L 1159 0 
L 581 0 
L 581 3500 
L 1159 3500 
L 1159 2956 
Q 1356 3278 1631 3431 
Q 1906 3584 2284 3584 
Q 2666 3584 2933 3390 
Q 3200 3197 3328 2828 
z
" id="DejaVuSans-6d" transform="scale(0.015625)"/>
      </defs>
      <use xlink:href="#DejaVuSans-72"/>
      <use x="38.863281" xlink:href="#DejaVuSans-65"/>
      <use x="100.386719" xlink:href="#DejaVuSans-63"/>
      <use x="155.367188" xlink:href="#DejaVuSans-6f"/>
      <use x="216.548828" xlink:href="#DejaVuSans-6d"/>
      <use x="313.960938" xlink:href="#DejaVuSans-6d"/>
      <use x="411.373047" xlink:href="#DejaVuSans-65"/>
      <use x="472.896484" xlink:href="#DejaVuSans-6e"/>
      <use x="536.275391" xlink:href="#DejaVuSans-64"/>
      <use x="599.751953" xlink:href="#DejaVuSans-65"/>
      <use x="661.275391" xlink:href="#DejaVuSans-64"/>
      <use x="724.751953" xlink:href="#DejaVuSans-20"/>
      <use x="756.539062" xlink:href="#DejaVuSans-64"/>
      <use x="820.015625" xlink:href="#DejaVuSans-61"/>
      <use x="881.294922" xlink:href="#DejaVuSans-74"/>
      <use x="920.503906" xlink:href="#DejaVuSans-75"/>
      <use x="983.882812" xlink:href="#DejaVuSans-6d"/>
     </g>
    </g>
   </g>
   <g id="line2d_26">
    <path clip-path="url(#p5011c0c4a2)" d="M 69.218182 152.753418 
L 71.985124 151.256016 
L 74.752066 150.288877 
L 77.519008 149.919024 
L 80.28595 150.192656 
L 83.052893 151.131297 
L 85.819835 152.72933 
L 88.586777 154.953167 
L 91.353719 157.742187 
L 94.120661 161.011427 
L 96.887603 164.65586 
L 99.654545 168.555958 
L 102.421488 172.584135 
L 105.18843 176.611598 
L 107.955372 180.515102 
L 110.722314 184.183133 
L 113.489256 187.521116 
L 116.256198 190.455309 
L 119.02314 192.935208 
L 121.790083 194.934371 
L 124.557025 196.44973 
L 127.323967 197.499547 
L 130.090909 198.120259 
L 132.857851 198.362526 
L 135.624793 198.28683 
L 138.391736 197.958937 
L 141.158678 197.445567 
L 143.92562 196.810509 
L 146.692562 196.111413 
L 149.459504 195.39738 
L 152.226446 194.707426 
L 154.993388 194.069818 
L 157.760331 193.502218 
L 160.527273 193.01253 
L 163.294215 192.600292 
L 166.061157 192.258447 
L 168.828099 191.975314 
L 171.595041 191.736578 
L 174.361983 191.527151 
L 177.128926 191.332772 
L 179.895868 191.141257 
L 182.66281 190.943351 
L 185.429752 190.733167 
L 188.196694 190.508245 
L 190.963636 190.269281 
L 193.730579 190.019612 
L 196.497521 189.76455 
L 199.264463 189.510645 
L 202.031405 189.264987 
L 204.798347 189.034606 
L 207.565289 188.826028 
L 210.332231 188.645037 
L 213.099174 188.496633 
L 215.866116 188.385201 
L 218.633058 188.314868 
L 221.4 188.289988 
L 224.166942 188.315749 
L 226.933884 188.398806 
L 229.700826 188.54791 
L 232.467769 188.774456 
L 235.234711 189.092885 
L 238.001653 189.520872 
L 240.768595 190.079239 
L 243.535537 190.791522 
L 246.302479 191.683148 
L 249.069421 192.780189 
L 251.836364 194.107679 
L 254.603306 195.687519 
L 257.370248 197.53604 
L 260.13719 199.661316 
L 262.904132 202.060396 
L 265.671074 204.716628 
L 268.438017 207.597304 
L 271.204959 210.651861 
L 273.971901 213.810865 
L 276.738843 216.985992 
L 279.505785 220.071162 
L 282.272727 222.944921 
L 285.039669 225.474102 
L 287.806612 227.518673 
L 290.573554 228.937622 
L 293.340496 229.595624 
L 296.107438 229.370172 
L 298.87438 228.158786 
L 301.641322 225.885891 
L 304.408264 222.508933 
L 307.175207 218.023319 
L 309.942149 212.465816 
L 312.709091 205.916078 
L 315.476033 198.496094 
L 318.242975 190.367414 
L 321.009917 181.726172 
L 323.77686 172.796036 
L 326.543802 163.819358 
L 329.310744 155.046949 
L 332.077686 146.727015 
L 334.844628 139.093873 
L 337.61157 132.357152 
L 340.378512 126.692146 
L 343.145455 122.231971 
L 345.912397 119.062041 
L 348.679339 117.217241 
L 351.446281 116.681959 
L 354.213223 117.392944 
L 356.980165 119.244718 
L 359.747107 122.0971 
L 362.51405 125.784241 
L 365.280992 130.124475 
L 368.047934 134.930278 
L 370.814876 140.017649 
L 373.581818 145.21434 
" style="fill:none;stroke:#000000;stroke-dasharray:7.4,3.2;stroke-dashoffset:0;stroke-width:2;"/>
   </g>
   <g id="PathCollection_4">
    <g clip-path="url(#p5011c0c4a2)">
     <use style="fill:#ff0000;stroke:#000000;" x="83.052893" xlink:href="#m0ce10cb234" y="129.399309"/>
     <use style="fill:#ff0000;stroke:#000000;" x="96.887603" xlink:href="#m0ce10cb234" y="162.429541"/>
     <use style="fill:#ff0000;stroke:#000000;" x="110.722314" xlink:href="#m0ce10cb234" y="193.170209"/>
     <use style="fill:#ff0000;stroke:#000000;" x="124.557025" xlink:href="#m0ce10cb234" y="199.248575"/>
     <use style="fill:#ff0000;stroke:#000000;" x="138.391736" xlink:href="#m0ce10cb234" y="199.347548"/>
     <use style="fill:#ff0000;stroke:#000000;" x="152.226446" xlink:href="#m0ce10cb234" y="191.611971"/>
     <use style="fill:#ff0000;stroke:#000000;" x="166.061157" xlink:href="#m0ce10cb234" y="193.66847"/>
     <use style="fill:#ff0000;stroke:#000000;" x="179.895868" xlink:href="#m0ce10cb234" y="193.283098"/>
     <use style="fill:#ff0000;stroke:#000000;" x="193.730579" xlink:href="#m0ce10cb234" y="188.924027"/>
     <use style="fill:#ff0000;stroke:#000000;" x="318.242975" xlink:href="#m0ce10cb234" y="199.289596"/>
     <use style="fill:#ff0000;stroke:#000000;" x="332.077686" xlink:href="#m0ce10cb234" y="145.37007"/>
     <use style="fill:#ff0000;stroke:#000000;" x="345.912397" xlink:href="#m0ce10cb234" y="78.407322"/>
     <use style="fill:#ff0000;stroke:#000000;" x="298.87438" xlink:href="#m0ce10cb234" y="236.155932"/>
     <use style="fill:#ff0000;stroke:#000000;" x="290.573554" xlink:href="#m0ce10cb234" y="216.650047"/>
     <use style="fill:#ff0000;stroke:#000000;" x="296.107438" xlink:href="#m0ce10cb234" y="246.973606"/>
     <use style="fill:#ff0000;stroke:#000000;" x="293.340496" xlink:href="#m0ce10cb234" y="236.032264"/>
    </g>
   </g>
  </g>
 </g>
 <defs>
  <clipPath id="p5011c0c4a2">
   <rect height="217.44" width="334.8" x="54" y="34.56"/>
  </clipPath>
 </defs>
</svg>
