<?xml version="1.0" encoding="utf-8" standalone="no"?>
<!DOCTYPE svg PUBLIC "-//W3C//DTD SVG 1.1//EN"
  "http://www.w3.org/Graphics/SVG/1.1/DTD/svg11.dtd">
<svg height="288pt" version="1.1" viewBox="0 0 432 288" width="432pt" xmlns="http://www.w3.org/2000/svg" xmlns:xlink="http://www.w3.org/1999/xlink">
 <metadata>
  <rdf:RDF xmlns:cc="http://creativecommons.org/ns#" xmlns:dc="http://purl.org/dc/elements/1.1/" xmlns:rdf="http://www.w3.org/1999/02/22-rdf-syntax-ns#">
   <cc:Work>
    <dc:type rdf:resource="http://purl.org/dc/dcmitype/StillImage"/>
    <dc:date>2022-08-11T20:18:13.173554</dc:date>
    <dc:format>image/svg+xml</dc:format>
    <dc:creator>
     <cc:Agent>
      <dc:title>Matplotlib v3.4.3, https://matplotlib.org/</dc:title>
     </cc:Agent>
    </dc:creator>
   </cc:Work>
  </rdf:RDF>
 </metadata>
 <defs>
  <style type="text/css">*{stroke-linecap:butt;stroke-linejoin:round;}</style>
 </defs>
 <g id="figure_1">
  <g id="patch_1">
   <path d="M 0 288 
L 432 288 
L 432 0 
L 0 0 
z
" style="fill:none;"/>
  </g>
  <g id="axes_1">
   <g id="patch_2">
    <path d="M 54 252 
L 388.8 252 
L 388.8 34.56 
L 54 34.56 
z
" style="fill:#ffffff;"/>
   </g>
   <g id="PolyCollection_1">
    <defs>
     <path d="M 69.218182 -177.275764 
L 69.218182 -136.372036 
L 71.985124 -139.775334 
L 74.752066 -142.186601 
L 77.519008 -143.431419 
L 80.28595 -143.37334 
L 83.052893 -141.935253 
L 85.819835 -139.130679 
L 88.586777 -135.09286 
L 91.353719 -130.069699 
L 94.120661 -124.372653 
L 96.887603 -118.315445 
L 99.654545 -112.178024 
L 102.421488 -106.196206 
L 105.18843 -100.562976 
L 107.955372 -95.432323 
L 110.722314 -90.922352 
L 113.489256 -87.116835 
L 116.256198 -84.065223 
L 119.02314 -81.781892 
L 121.790083 -80.245985 
L 124.557025 -79.40324 
L 127.323967 -79.17051 
L 130.090909 -79.442814 
L 132.857851 -80.102075 
L 135.624793 -81.026385 
L 138.391736 -82.098738 
L 141.158678 -83.214331 
L 143.92562 -84.28587 
L 146.692562 -85.246627 
L 149.459504 -86.051298 
L 152.226446 -86.675 
L 154.993388 -87.111007 
L 157.760331 -87.368022 
L 160.527273 -87.467731 
L 163.294215 -87.443153 
L 166.061157 -87.337622 
L 168.828099 -87.203412 
L 171.595041 -87.098514 
L 174.361983 -87.080239 
L 177.128926 -87.195111 
L 179.895868 -87.465465 
L 182.66281 -87.874191 
L 185.429752 -88.351647 
L 188.196694 -88.774674 
L 190.963636 -88.992529 
L 193.730579 -88.880064 
L 196.497521 -88.383244 
L 199.264463 -87.521524 
L 202.031405 -86.35905 
L 204.798347 -84.9765 
L 207.565289 -83.455289 
L 210.332231 -81.870402 
L 213.099174 -80.28683 
L 215.866116 -78.757251 
L 218.633058 -77.320386 
L 221.4 -76.000077 
L 224.166942 -74.805227 
L 226.933884 -73.730677 
L 229.700826 -72.758967 
L 232.467769 -71.862818 
L 235.234711 -71.008121 
L 238.001653 -70.157188 
L 240.768595 -69.272045 
L 243.535537 -68.31753 
L 246.302479 -67.264064 
L 249.069421 -66.089922 
L 251.836364 -64.782935 
L 254.603306 -63.34151 
L 257.370248 -61.774934 
L 260.13719 -60.102933 
L 262.904132 -58.354511 
L 265.671074 -56.566159 
L 268.438017 -54.77955 
L 271.204959 -53.038941 
L 273.971901 -51.388434 
L 276.738843 -49.869313 
L 279.505785 -48.517514 
L 282.272727 -47.361263 
L 285.039669 -46.418976 
L 287.806612 -45.698261 
L 290.573554 -45.199523 
L 293.340496 -44.933051 
L 296.107438 -44.960402 
L 298.87438 -45.447417 
L 301.641322 -46.671957 
L 304.408264 -48.952768 
L 307.175207 -52.55639 
L 309.942149 -57.644879 
L 312.709091 -64.265148 
L 315.476033 -72.357691 
L 318.242975 -81.772704 
L 321.009917 -92.290924 
L 323.77686 -103.647435 
L 326.543802 -115.552678 
L 329.310744 -127.702585 
L 332.077686 -139.774715 
L 334.844628 -151.416414 
L 337.61157 -162.236173 
L 340.378512 -171.810816 
L 343.145455 -179.722211 
L 345.912397 -185.624609 
L 348.679339 -189.308926 
L 351.446281 -190.721197 
L 354.213223 -189.938189 
L 356.980165 -187.133062 
L 359.747107 -182.548287 
L 362.51405 -176.474855 
L 365.280992 -169.233663 
L 368.047934 -161.15742 
L 370.814876 -152.573361 
L 373.581818 -143.787813 
L 373.581818 -206.824183 
L 373.581818 -206.824183 
L 370.814876 -211.982059 
L 368.047934 -216.46083 
L 365.280992 -220.019033 
L 362.51405 -222.4309 
L 359.747107 -223.501973 
L 356.980165 -223.084379 
L 354.213223 -221.090271 
L 351.446281 -217.501093 
L 348.679339 -212.368496 
L 345.912397 -205.800719 
L 343.145455 -197.932092 
L 340.378512 -188.892283 
L 337.61157 -178.808548 
L 334.844628 -167.845237 
L 332.077686 -156.239764 
L 329.310744 -144.303918 
L 326.543802 -132.394419 
L 323.77686 -120.869154 
L 321.009917 -110.044208 
L 318.242975 -100.164742 
L 315.476033 -91.397012 
L 312.709091 -83.838894 
L 309.942149 -77.540661 
L 307.175207 -72.529495 
L 304.408264 -68.834789 
L 301.641322 -66.510149 
L 298.87438 -65.638611 
L 296.107438 -66.297468 
L 293.340496 -68.482297 
L 290.573554 -72.052025 
L 287.806612 -76.751301 
L 285.039669 -82.276168 
L 282.272727 -88.325951 
L 279.505785 -94.628653 
L 276.738843 -100.950769 
L 273.971901 -107.100536 
L 271.204959 -112.92828 
L 268.438017 -118.324895 
L 265.671074 -123.218749 
L 262.904132 -127.571219 
L 260.13719 -131.371164 
L 257.370248 -134.62872 
L 254.603306 -137.368863 
L 251.836364 -139.625149 
L 249.069421 -141.434013 
L 246.302479 -142.829947 
L 243.535537 -143.841764 
L 240.768595 -144.490123 
L 238.001653 -144.786382 
L 235.234711 -144.732779 
L 232.467769 -144.3239 
L 229.700826 -143.549281 
L 226.933884 -142.396937 
L 224.166942 -140.857537 
L 221.4 -138.928854 
L 218.633058 -136.620117 
L 215.866116 -133.955851 
L 213.099174 -130.978844 
L 210.332231 -127.751992 
L 207.565289 -124.358833 
L 204.798347 -120.902759 
L 202.031405 -117.50475 
L 199.264463 -114.298963 
L 196.497521 -111.423752 
L 193.730579 -109.003178 
L 190.963636 -107.115354 
L 188.196694 -105.759635 
L 185.429752 -104.854743 
L 182.66281 -104.280181 
L 179.895868 -103.925854 
L 177.128926 -103.715397 
L 174.361983 -103.603886 
L 171.595041 -103.565008 
L 168.828099 -103.577815 
L 166.061157 -103.617083 
L 163.294215 -103.648627 
L 160.527273 -103.629722 
L 157.760331 -103.51372 
L 154.993388 -103.257064 
L 152.226446 -102.826629 
L 149.459504 -102.205815 
L 146.692562 -101.398622 
L 143.92562 -100.431591 
L 141.158678 -99.353872 
L 138.391736 -98.235748 
L 135.624793 -97.165926 
L 132.857851 -96.247797 
L 130.090909 -95.59481 
L 127.323967 -95.325026 
L 124.557025 -95.554869 
L 121.790083 -96.392042 
L 119.02314 -97.92759 
L 116.256198 -100.227215 
L 113.489256 -103.32231 
L 110.722314 -107.201813 
L 107.955372 -111.806726 
L 105.18843 -117.029471 
L 102.421488 -122.719854 
L 99.654545 -128.69831 
L 96.887603 -134.775834 
L 94.120661 -140.778644 
L 91.353719 -146.572795 
L 88.586777 -152.077821 
L 85.819835 -157.253503 
L 83.052893 -162.058367 
L 80.28595 -166.413851 
L 77.519008 -170.208869 
L 74.752066 -173.332333 
L 71.985124 -175.701673 
L 69.218182 -177.275764 
z
" id="mfae24cab66" style="stroke:#add8e6;stroke-opacity:0.2;"/>
    </defs>
    <g clip-path="url(#p7348fdb5fb)">
     <use style="fill:#add8e6;fill-opacity:0.2;stroke:#add8e6;stroke-opacity:0.2;" x="0" xlink:href="#mfae24cab66" y="288"/>
    </g>
   </g>
   <g id="PathCollection_1">
    <defs>
     <path d="M 0 0.612372 
C 0.162403 0.612372 0.318176 0.547849 0.433013 0.433013 
C 0.547849 0.318176 0.612372 0.162403 0.612372 0 
C 0.612372 -0.162403 0.547849 -0.318176 0.433013 -0.433013 
C 0.318176 -0.547849 0.162403 -0.612372 0 -0.612372 
C -0.162403 -0.612372 -0.318176 -0.547849 -0.433013 -0.433013 
C -0.547849 -0.318176 -0.612372 -0.162403 -0.612372 0 
C -0.612372 0.162403 -0.547849 0.318176 -0.433013 0.433013 
C -0.318176 0.547849 -0.162403 0.612372 0 0.612372 
z
" id="ma6053224e6" style="stroke:#ff0000;stroke-width:8;"/>
    </defs>
    <g clip-path="url(#p7348fdb5fb)">
     <use style="fill:#ff0000;stroke:#ff0000;stroke-width:8;" x="279.505785" xlink:href="#ma6053224e6" y="251.010271"/>
    </g>
   </g>
   <g id="matplotlib.axis_1">
    <g id="xtick_1">
     <g id="line2d_1">
      <defs>
       <path d="M 0 0 
L 0 3.5 
" id="m3bed55156e" style="stroke:#000000;stroke-width:0.8;"/>
      </defs>
      <g>
       <use style="stroke:#000000;stroke-width:0.8;" x="69.218182" xlink:href="#m3bed55156e" y="252"/>
      </g>
     </g>
     <g id="text_1">
      <!-- 0 -->
      <g transform="translate(66.036932 266.598437)scale(0.1 -0.1)">
       <defs>
        <path d="M 2034 4250 
Q 1547 4250 1301 3770 
Q 1056 3291 1056 2328 
Q 1056 1369 1301 889 
Q 1547 409 2034 409 
Q 2525 409 2770 889 
Q 3016 1369 3016 2328 
Q 3016 3291 2770 3770 
Q 2525 4250 2034 4250 
z
M 2034 4750 
Q 2819 4750 3233 4129 
Q 3647 3509 3647 2328 
Q 3647 1150 3233 529 
Q 2819 -91 2034 -91 
Q 1250 -91 836 529 
Q 422 1150 422 2328 
Q 422 3509 836 4129 
Q 1250 4750 2034 4750 
z
" id="DejaVuSans-30" transform="scale(0.015625)"/>
       </defs>
       <use xlink:href="#DejaVuSans-30"/>
      </g>
     </g>
    </g>
    <g id="xtick_2">
     <g id="line2d_2">
      <g>
       <use style="stroke:#000000;stroke-width:0.8;" x="124.557025" xlink:href="#m3bed55156e" y="252"/>
      </g>
     </g>
     <g id="text_2">
      <!-- 2 -->
      <g transform="translate(121.375775 266.598437)scale(0.1 -0.1)">
       <defs>
        <path d="M 1228 531 
L 3431 531 
L 3431 0 
L 469 0 
L 469 531 
Q 828 903 1448 1529 
Q 2069 2156 2228 2338 
Q 2531 2678 2651 2914 
Q 2772 3150 2772 3378 
Q 2772 3750 2511 3984 
Q 2250 4219 1831 4219 
Q 1534 4219 1204 4116 
Q 875 4013 500 3803 
L 500 4441 
Q 881 4594 1212 4672 
Q 1544 4750 1819 4750 
Q 2544 4750 2975 4387 
Q 3406 4025 3406 3419 
Q 3406 3131 3298 2873 
Q 3191 2616 2906 2266 
Q 2828 2175 2409 1742 
Q 1991 1309 1228 531 
z
" id="DejaVuSans-32" transform="scale(0.015625)"/>
       </defs>
       <use xlink:href="#DejaVuSans-32"/>
      </g>
     </g>
    </g>
    <g id="xtick_3">
     <g id="line2d_3">
      <g>
       <use style="stroke:#000000;stroke-width:0.8;" x="179.895868" xlink:href="#m3bed55156e" y="252"/>
      </g>
     </g>
     <g id="text_3">
      <!-- 4 -->
      <g transform="translate(176.714618 266.598437)scale(0.1 -0.1)">
       <defs>
        <path d="M 2419 4116 
L 825 1625 
L 2419 1625 
L 2419 4116 
z
M 2253 4666 
L 3047 4666 
L 3047 1625 
L 3713 1625 
L 3713 1100 
L 3047 1100 
L 3047 0 
L 2419 0 
L 2419 1100 
L 313 1100 
L 313 1709 
L 2253 4666 
z
" id="DejaVuSans-34" transform="scale(0.015625)"/>
       </defs>
       <use xlink:href="#DejaVuSans-34"/>
      </g>
     </g>
    </g>
    <g id="xtick_4">
     <g id="line2d_4">
      <g>
       <use style="stroke:#000000;stroke-width:0.8;" x="235.234711" xlink:href="#m3bed55156e" y="252"/>
      </g>
     </g>
     <g id="text_4">
      <!-- 6 -->
      <g transform="translate(232.053461 266.598437)scale(0.1 -0.1)">
       <defs>
        <path d="M 2113 2584 
Q 1688 2584 1439 2293 
Q 1191 2003 1191 1497 
Q 1191 994 1439 701 
Q 1688 409 2113 409 
Q 2538 409 2786 701 
Q 3034 994 3034 1497 
Q 3034 2003 2786 2293 
Q 2538 2584 2113 2584 
z
M 3366 4563 
L 3366 3988 
Q 3128 4100 2886 4159 
Q 2644 4219 2406 4219 
Q 1781 4219 1451 3797 
Q 1122 3375 1075 2522 
Q 1259 2794 1537 2939 
Q 1816 3084 2150 3084 
Q 2853 3084 3261 2657 
Q 3669 2231 3669 1497 
Q 3669 778 3244 343 
Q 2819 -91 2113 -91 
Q 1303 -91 875 529 
Q 447 1150 447 2328 
Q 447 3434 972 4092 
Q 1497 4750 2381 4750 
Q 2619 4750 2861 4703 
Q 3103 4656 3366 4563 
z
" id="DejaVuSans-36" transform="scale(0.015625)"/>
       </defs>
       <use xlink:href="#DejaVuSans-36"/>
      </g>
     </g>
    </g>
    <g id="xtick_5">
     <g id="line2d_5">
      <g>
       <use style="stroke:#000000;stroke-width:0.8;" x="290.573554" xlink:href="#m3bed55156e" y="252"/>
      </g>
     </g>
     <g id="text_5">
      <!-- 8 -->
      <g transform="translate(287.392304 266.598437)scale(0.1 -0.1)">
       <defs>
        <path d="M 2034 2216 
Q 1584 2216 1326 1975 
Q 1069 1734 1069 1313 
Q 1069 891 1326 650 
Q 1584 409 2034 409 
Q 2484 409 2743 651 
Q 3003 894 3003 1313 
Q 3003 1734 2745 1975 
Q 2488 2216 2034 2216 
z
M 1403 2484 
Q 997 2584 770 2862 
Q 544 3141 544 3541 
Q 544 4100 942 4425 
Q 1341 4750 2034 4750 
Q 2731 4750 3128 4425 
Q 3525 4100 3525 3541 
Q 3525 3141 3298 2862 
Q 3072 2584 2669 2484 
Q 3125 2378 3379 2068 
Q 3634 1759 3634 1313 
Q 3634 634 3220 271 
Q 2806 -91 2034 -91 
Q 1263 -91 848 271 
Q 434 634 434 1313 
Q 434 1759 690 2068 
Q 947 2378 1403 2484 
z
M 1172 3481 
Q 1172 3119 1398 2916 
Q 1625 2713 2034 2713 
Q 2441 2713 2670 2916 
Q 2900 3119 2900 3481 
Q 2900 3844 2670 4047 
Q 2441 4250 2034 4250 
Q 1625 4250 1398 4047 
Q 1172 3844 1172 3481 
z
" id="DejaVuSans-38" transform="scale(0.015625)"/>
       </defs>
       <use xlink:href="#DejaVuSans-38"/>
      </g>
     </g>
    </g>
    <g id="xtick_6">
     <g id="line2d_6">
      <g>
       <use style="stroke:#000000;stroke-width:0.8;" x="345.912397" xlink:href="#m3bed55156e" y="252"/>
      </g>
     </g>
     <g id="text_6">
      <!-- 10 -->
      <g transform="translate(339.549897 266.598437)scale(0.1 -0.1)">
       <defs>
        <path d="M 794 531 
L 1825 531 
L 1825 4091 
L 703 3866 
L 703 4441 
L 1819 4666 
L 2450 4666 
L 2450 531 
L 3481 531 
L 3481 0 
L 794 0 
L 794 531 
z
" id="DejaVuSans-31" transform="scale(0.015625)"/>
       </defs>
       <use xlink:href="#DejaVuSans-31"/>
       <use x="63.623047" xlink:href="#DejaVuSans-30"/>
      </g>
     </g>
    </g>
    <g id="text_7">
     <!-- x -->
     <g transform="translate(217.84875 281.79625)scale(0.12 -0.12)">
      <defs>
       <path d="M 3513 3500 
L 2247 1797 
L 3578 0 
L 2900 0 
L 1881 1375 
L 863 0 
L 184 0 
L 1544 1831 
L 300 3500 
L 978 3500 
L 1906 2253 
L 2834 3500 
L 3513 3500 
z
" id="DejaVuSans-78" transform="scale(0.015625)"/>
      </defs>
      <use xlink:href="#DejaVuSans-78"/>
     </g>
    </g>
   </g>
   <g id="matplotlib.axis_2">
    <g id="ytick_1">
     <g id="line2d_7">
      <defs>
       <path d="M 0 0 
L -3.5 0 
" id="m9a7a012cf3" style="stroke:#000000;stroke-width:0.8;"/>
      </defs>
      <g>
       <use style="stroke:#000000;stroke-width:0.8;" x="54" xlink:href="#m9a7a012cf3" y="252"/>
      </g>
     </g>
     <g id="text_8">
      <!-- 3 -->
      <g transform="translate(40.6375 255.799219)scale(0.1 -0.1)">
       <defs>
        <path d="M 2597 2516 
Q 3050 2419 3304 2112 
Q 3559 1806 3559 1356 
Q 3559 666 3084 287 
Q 2609 -91 1734 -91 
Q 1441 -91 1130 -33 
Q 819 25 488 141 
L 488 750 
Q 750 597 1062 519 
Q 1375 441 1716 441 
Q 2309 441 2620 675 
Q 2931 909 2931 1356 
Q 2931 1769 2642 2001 
Q 2353 2234 1838 2234 
L 1294 2234 
L 1294 2753 
L 1863 2753 
Q 2328 2753 2575 2939 
Q 2822 3125 2822 3475 
Q 2822 3834 2567 4026 
Q 2313 4219 1838 4219 
Q 1578 4219 1281 4162 
Q 984 4106 628 3988 
L 628 4550 
Q 988 4650 1302 4700 
Q 1616 4750 1894 4750 
Q 2613 4750 3031 4423 
Q 3450 4097 3450 3541 
Q 3450 3153 3228 2886 
Q 3006 2619 2597 2516 
z
" id="DejaVuSans-33" transform="scale(0.015625)"/>
       </defs>
       <use xlink:href="#DejaVuSans-33"/>
      </g>
     </g>
    </g>
    <g id="ytick_2">
     <g id="line2d_8">
      <g>
       <use style="stroke:#000000;stroke-width:0.8;" x="54" xlink:href="#m9a7a012cf3" y="215.76"/>
      </g>
     </g>
     <g id="text_9">
      <!-- 4 -->
      <g transform="translate(40.6375 219.559219)scale(0.1 -0.1)">
       <use xlink:href="#DejaVuSans-34"/>
      </g>
     </g>
    </g>
    <g id="ytick_3">
     <g id="line2d_9">
      <g>
       <use style="stroke:#000000;stroke-width:0.8;" x="54" xlink:href="#m9a7a012cf3" y="179.52"/>
      </g>
     </g>
     <g id="text_10">
      <!-- 5 -->
      <g transform="translate(40.6375 183.319219)scale(0.1 -0.1)">
       <defs>
        <path d="M 691 4666 
L 3169 4666 
L 3169 4134 
L 1269 4134 
L 1269 2991 
Q 1406 3038 1543 3061 
Q 1681 3084 1819 3084 
Q 2600 3084 3056 2656 
Q 3513 2228 3513 1497 
Q 3513 744 3044 326 
Q 2575 -91 1722 -91 
Q 1428 -91 1123 -41 
Q 819 9 494 109 
L 494 744 
Q 775 591 1075 516 
Q 1375 441 1709 441 
Q 2250 441 2565 725 
Q 2881 1009 2881 1497 
Q 2881 1984 2565 2268 
Q 2250 2553 1709 2553 
Q 1456 2553 1204 2497 
Q 953 2441 691 2322 
L 691 4666 
z
" id="DejaVuSans-35" transform="scale(0.015625)"/>
       </defs>
       <use xlink:href="#DejaVuSans-35"/>
      </g>
     </g>
    </g>
    <g id="ytick_4">
     <g id="line2d_10">
      <g>
       <use style="stroke:#000000;stroke-width:0.8;" x="54" xlink:href="#m9a7a012cf3" y="143.28"/>
      </g>
     </g>
     <g id="text_11">
      <!-- 6 -->
      <g transform="translate(40.6375 147.079219)scale(0.1 -0.1)">
       <use xlink:href="#DejaVuSans-36"/>
      </g>
     </g>
    </g>
    <g id="ytick_5">
     <g id="line2d_11">
      <g>
       <use style="stroke:#000000;stroke-width:0.8;" x="54" xlink:href="#m9a7a012cf3" y="107.04"/>
      </g>
     </g>
     <g id="text_12">
      <!-- 7 -->
      <g transform="translate(40.6375 110.839219)scale(0.1 -0.1)">
       <defs>
        <path d="M 525 4666 
L 3525 4666 
L 3525 4397 
L 1831 0 
L 1172 0 
L 2766 4134 
L 525 4134 
L 525 4666 
z
" id="DejaVuSans-37" transform="scale(0.015625)"/>
       </defs>
       <use xlink:href="#DejaVuSans-37"/>
      </g>
     </g>
    </g>
    <g id="ytick_6">
     <g id="line2d_12">
      <g>
       <use style="stroke:#000000;stroke-width:0.8;" x="54" xlink:href="#m9a7a012cf3" y="70.8"/>
      </g>
     </g>
     <g id="text_13">
      <!-- 8 -->
      <g transform="translate(40.6375 74.599219)scale(0.1 -0.1)">
       <use xlink:href="#DejaVuSans-38"/>
      </g>
     </g>
    </g>
    <g id="ytick_7">
     <g id="line2d_13">
      <g>
       <use style="stroke:#000000;stroke-width:0.8;" x="54" xlink:href="#m9a7a012cf3" y="34.56"/>
      </g>
     </g>
     <g id="text_14">
      <!-- 9 -->
      <g transform="translate(40.6375 38.359219)scale(0.1 -0.1)">
       <defs>
        <path d="M 703 97 
L 703 672 
Q 941 559 1184 500 
Q 1428 441 1663 441 
Q 2288 441 2617 861 
Q 2947 1281 2994 2138 
Q 2813 1869 2534 1725 
Q 2256 1581 1919 1581 
Q 1219 1581 811 2004 
Q 403 2428 403 3163 
Q 403 3881 828 4315 
Q 1253 4750 1959 4750 
Q 2769 4750 3195 4129 
Q 3622 3509 3622 2328 
Q 3622 1225 3098 567 
Q 2575 -91 1691 -91 
Q 1453 -91 1209 -44 
Q 966 3 703 97 
z
M 1959 2075 
Q 2384 2075 2632 2365 
Q 2881 2656 2881 3163 
Q 2881 3666 2632 3958 
Q 2384 4250 1959 4250 
Q 1534 4250 1286 3958 
Q 1038 3666 1038 3163 
Q 1038 2656 1286 2365 
Q 1534 2075 1959 2075 
z
" id="DejaVuSans-39" transform="scale(0.015625)"/>
       </defs>
       <use xlink:href="#DejaVuSans-39"/>
      </g>
     </g>
    </g>
    <g id="text_15">
     <!-- y -->
     <g transform="translate(34.141875 146.83125)rotate(-90)scale(0.12 -0.12)">
      <defs>
       <path d="M 2059 -325 
Q 1816 -950 1584 -1140 
Q 1353 -1331 966 -1331 
L 506 -1331 
L 506 -850 
L 844 -850 
Q 1081 -850 1212 -737 
Q 1344 -625 1503 -206 
L 1606 56 
L 191 3500 
L 800 3500 
L 1894 763 
L 2988 3500 
L 3597 3500 
L 2059 -325 
z
" id="DejaVuSans-79" transform="scale(0.015625)"/>
      </defs>
      <use xlink:href="#DejaVuSans-79"/>
     </g>
    </g>
   </g>
   <g id="line2d_14">
    <path clip-path="url(#p7348fdb5fb)" d="M 69.218182 70.8 
L 71.985124 85.083949 
L 74.752066 98.25467 
L 77.519008 110.364828 
L 80.28595 121.465955 
L 83.052893 131.608455 
L 85.819835 140.841599 
L 88.586777 149.213528 
L 91.353719 156.771253 
L 94.120661 163.560654 
L 96.887603 169.62648 
L 99.654545 175.012349 
L 102.421488 179.76075 
L 105.18843 183.913038 
L 107.955372 187.509441 
L 110.722314 190.589055 
L 113.489256 193.189844 
L 116.256198 195.348643 
L 119.02314 197.101155 
L 121.790083 198.481953 
L 124.557025 199.52448 
L 127.323967 200.261047 
L 130.090909 200.722835 
L 132.857851 200.939895 
L 135.624793 200.941145 
L 138.391736 200.754375 
L 141.158678 200.406243 
L 143.92562 199.922276 
L 146.692562 199.326871 
L 149.459504 198.643294 
L 152.226446 197.89368 
L 154.993388 197.099035 
L 157.760331 196.279231 
L 160.527273 195.453014 
L 163.294215 194.637994 
L 166.061157 193.850655 
L 168.828099 193.106347 
L 171.595041 192.419291 
L 174.361983 191.802577 
L 177.128926 191.268164 
L 179.895868 190.82688 
L 182.66281 190.488424 
L 185.429752 190.261362 
L 188.196694 190.153131 
L 190.963636 190.170037 
L 193.730579 190.317255 
L 196.497521 190.598829 
L 199.264463 191.017673 
L 202.031405 191.575569 
L 204.798347 192.273171 
L 207.565289 193.11 
L 210.332231 194.084446 
L 213.099174 195.193771 
L 215.866116 196.434103 
L 218.633058 197.800442 
L 221.4 199.286655 
L 224.166942 200.88548 
L 226.933884 202.588525 
L 229.700826 204.386264 
L 232.467769 206.268045 
L 235.234711 208.22208 
L 238.001653 210.235455 
L 240.768595 212.294122 
L 243.535537 214.382905 
L 246.302479 216.485496 
L 249.069421 218.584455 
L 251.836364 220.661214 
L 254.603306 222.696071 
L 257.370248 224.668198 
L 260.13719 226.555631 
L 262.904132 228.33528 
L 265.671074 229.982921 
L 268.438017 231.4732 
L 271.204959 232.779634 
L 273.971901 233.874607 
L 276.738843 234.729375 
L 279.505785 235.31406 
L 282.272727 235.597656 
L 285.039669 235.548026 
L 287.806612 235.1319 
L 290.573554 234.31488 
L 293.340496 233.061436 
L 296.107438 231.334908 
L 298.87438 229.097505 
L 301.641322 226.310305 
L 304.408264 222.933255 
L 307.175207 218.925173 
L 309.942149 214.243744 
L 312.709091 208.845524 
L 315.476033 202.685938 
L 318.242975 195.71928 
L 321.009917 187.898713 
L 323.77686 179.176271 
L 326.543802 169.502854 
L 329.310744 158.828236 
L 332.077686 147.101055 
L 334.844628 134.268823 
L 337.61157 120.277918 
L 340.378512 105.073589 
L 343.145455 88.599954 
L 345.912397 70.8 
L 348.679339 51.615584 
L 351.446281 30.987432 
L 354.213223 8.855138 
L 355.363895 -1 
" style="fill:none;stroke:#0000ff;stroke-linecap:square;stroke-width:2;"/>
   </g>
   <g id="line2d_15">
    <path clip-path="url(#p7348fdb5fb)" d="M 69.218182 151.627964 
L 71.985124 148.224666 
L 74.752066 145.813399 
L 77.519008 144.568581 
L 80.28595 144.62666 
L 83.052893 146.064747 
L 85.819835 148.869321 
L 88.586777 152.90714 
L 91.353719 157.930301 
L 94.120661 163.627347 
L 96.887603 169.684555 
L 99.654545 175.821976 
L 102.421488 181.803794 
L 105.18843 187.437024 
L 107.955372 192.567677 
L 110.722314 197.077648 
L 113.489256 200.883165 
L 116.256198 203.934777 
L 119.02314 206.218108 
L 121.790083 207.754015 
L 124.557025 208.59676 
L 127.323967 208.82949 
L 130.090909 208.557186 
L 132.857851 207.897925 
L 135.624793 206.973615 
L 138.391736 205.901262 
L 141.158678 204.785669 
L 143.92562 203.71413 
L 146.692562 202.753373 
L 149.459504 201.948702 
L 152.226446 201.325 
L 154.993388 200.888993 
L 157.760331 200.631978 
L 160.527273 200.532269 
L 163.294215 200.556847 
L 166.061157 200.662378 
L 168.828099 200.796588 
L 171.595041 200.901486 
L 174.361983 200.919761 
L 177.128926 200.804889 
L 179.895868 200.534535 
L 182.66281 200.125809 
L 185.429752 199.648353 
L 188.196694 199.225326 
L 190.963636 199.007471 
L 193.730579 199.119936 
L 196.497521 199.616756 
L 199.264463 200.478476 
L 202.031405 201.64095 
L 204.798347 203.0235 
L 207.565289 204.544711 
L 210.332231 206.129598 
L 213.099174 207.71317 
L 215.866116 209.242749 
L 218.633058 210.679614 
L 221.4 211.999923 
L 224.166942 213.194773 
L 226.933884 214.269323 
L 229.700826 215.241033 
L 232.467769 216.137182 
L 235.234711 216.991879 
L 238.001653 217.842812 
L 240.768595 218.727955 
L 243.535537 219.68247 
L 246.302479 220.735936 
L 249.069421 221.910078 
L 251.836364 223.217065 
L 254.603306 224.65849 
L 257.370248 226.225066 
L 260.13719 227.897067 
L 262.904132 229.645489 
L 265.671074 231.433841 
L 268.438017 233.22045 
L 271.204959 234.961059 
L 273.971901 236.611566 
L 276.738843 238.130687 
L 279.505785 239.482486 
L 282.272727 240.638737 
L 285.039669 241.581024 
L 287.806612 242.301739 
L 290.573554 242.800477 
L 293.340496 243.066949 
L 296.107438 243.039598 
L 298.87438 242.552583 
L 301.641322 241.328043 
L 304.408264 239.047232 
L 307.175207 235.44361 
L 309.942149 230.355121 
L 312.709091 223.734852 
L 315.476033 215.642309 
L 318.242975 206.227296 
L 321.009917 195.709076 
L 323.77686 184.352565 
L 326.543802 172.447322 
L 329.310744 160.297415 
L 332.077686 148.225285 
L 334.844628 136.583586 
L 337.61157 125.763827 
L 340.378512 116.189184 
L 343.145455 108.277789 
L 345.912397 102.375391 
L 348.679339 98.691074 
L 351.446281 97.278803 
L 354.213223 98.061811 
L 356.980165 100.866938 
L 359.747107 105.451713 
L 362.51405 111.525145 
L 365.280992 118.766337 
L 368.047934 126.84258 
L 370.814876 135.426639 
L 373.581818 144.212187 
" style="fill:none;stroke:#008000;stroke-dasharray:3.7,1.6;stroke-dashoffset:0;"/>
   </g>
   <g id="line2d_16">
    <path clip-path="url(#p7348fdb5fb)" d="M 69.218182 110.724236 
L 71.985124 112.298327 
L 74.752066 114.667667 
L 77.519008 117.791131 
L 80.28595 121.586149 
L 83.052893 125.941633 
L 85.819835 130.746497 
L 88.586777 135.922179 
L 91.353719 141.427205 
L 94.120661 147.221356 
L 96.887603 153.224166 
L 99.654545 159.30169 
L 102.421488 165.280146 
L 105.18843 170.970529 
L 107.955372 176.193274 
L 110.722314 180.798187 
L 113.489256 184.67769 
L 116.256198 187.772785 
L 119.02314 190.07241 
L 121.790083 191.607958 
L 124.557025 192.445131 
L 127.323967 192.674974 
L 130.090909 192.40519 
L 132.857851 191.752203 
L 135.624793 190.834074 
L 138.391736 189.764252 
L 141.158678 188.646128 
L 143.92562 187.568409 
L 146.692562 186.601378 
L 149.459504 185.794185 
L 152.226446 185.173371 
L 154.993388 184.742936 
L 157.760331 184.48628 
L 160.527273 184.370278 
L 163.294215 184.351373 
L 166.061157 184.382917 
L 168.828099 184.422185 
L 171.595041 184.434992 
L 174.361983 184.396114 
L 177.128926 184.284603 
L 179.895868 184.074146 
L 182.66281 183.719819 
L 185.429752 183.145257 
L 188.196694 182.240365 
L 190.963636 180.884646 
L 193.730579 178.996822 
L 196.497521 176.576248 
L 199.264463 173.701037 
L 202.031405 170.49525 
L 204.798347 167.097241 
L 207.565289 163.641167 
L 210.332231 160.248008 
L 213.099174 157.021156 
L 215.866116 154.044149 
L 218.633058 151.379883 
L 221.4 149.071146 
L 224.166942 147.142463 
L 226.933884 145.603063 
L 229.700826 144.450719 
L 232.467769 143.6761 
L 235.234711 143.267221 
L 238.001653 143.213618 
L 240.768595 143.509877 
L 243.535537 144.158236 
L 246.302479 145.170053 
L 249.069421 146.565987 
L 251.836364 148.374851 
L 254.603306 150.631137 
L 257.370248 153.37128 
L 260.13719 156.628836 
L 262.904132 160.428781 
L 265.671074 164.781251 
L 268.438017 169.675105 
L 271.204959 175.07172 
L 273.971901 180.899464 
L 276.738843 187.049231 
L 279.505785 193.371347 
L 282.272727 199.674049 
L 285.039669 205.723832 
L 287.806612 211.248699 
L 290.573554 215.947975 
L 293.340496 219.517703 
L 296.107438 221.702532 
L 298.87438 222.361389 
L 301.641322 221.489851 
L 304.408264 219.165211 
L 307.175207 215.470505 
L 309.942149 210.459339 
L 312.709091 204.161106 
L 315.476033 196.602988 
L 318.242975 187.835258 
L 321.009917 177.955792 
L 323.77686 167.130846 
L 326.543802 155.605581 
L 329.310744 143.696082 
L 332.077686 131.760236 
L 334.844628 120.154763 
L 337.61157 109.191452 
L 340.378512 99.107717 
L 343.145455 90.067908 
L 345.912397 82.199281 
L 348.679339 75.631504 
L 351.446281 70.498907 
L 354.213223 66.909729 
L 356.980165 64.915621 
L 359.747107 64.498027 
L 362.51405 65.5691 
L 365.280992 67.980967 
L 368.047934 71.53917 
L 370.814876 76.017941 
L 373.581818 81.175817 
" style="fill:none;stroke:#008000;stroke-dasharray:3.7,1.6;stroke-dashoffset:0;"/>
   </g>
   <g id="line2d_17">
    <path clip-path="url(#p7348fdb5fb)" d="M 69.218182 161.853896 
L 71.985124 157.206251 
L 74.752066 153.599831 
L 77.519008 151.262943 
L 80.28595 150.386787 
L 83.052893 151.095525 
L 85.819835 153.400028 
L 88.586777 157.15338 
L 91.353719 162.056075 
L 94.120661 167.728845 
L 96.887603 173.799652 
L 99.654545 179.952048 
L 102.421488 185.934706 
L 105.18843 191.553647 
L 107.955372 196.661278 
L 110.722314 201.147514 
L 113.489256 204.934534 
L 116.256198 207.975274 
L 119.02314 210.254532 
L 121.790083 211.790529 
L 124.557025 212.634667 
L 127.323967 212.86812 
L 130.090909 212.595184 
L 132.857851 211.934356 
L 135.624793 211.0085 
L 138.391736 209.935514 
L 141.158678 208.820554 
L 143.92562 207.750561 
L 146.692562 206.791372 
L 149.459504 205.987331 
L 152.226446 205.362908 
L 154.993388 204.925507 
L 157.760331 204.668402 
L 160.527273 204.572767 
L 163.294215 204.608216 
L 166.061157 204.732244 
L 168.828099 204.890189 
L 171.595041 205.01811 
L 174.361983 205.050673 
L 177.128926 204.934961 
L 179.895868 204.649633 
L 182.66281 204.227307 
L 185.429752 203.774127 
L 188.196694 203.471566 
L 190.963636 203.538177 
L 193.730579 204.150715 
L 196.497521 205.376883 
L 199.264463 207.172836 
L 202.031405 209.427374 
L 204.798347 212.005065 
L 207.565289 214.770598 
L 210.332231 217.599995 
L 213.099174 220.386173 
L 215.866116 223.042399 
L 218.633058 225.504547 
L 221.4 227.732117 
L 224.166942 229.707851 
L 226.933884 231.435888 
L 229.700826 232.938611 
L 232.467769 234.252452 
L 235.234711 235.423044 
L 238.001653 236.50011 
L 240.768595 237.532475 
L 243.535537 238.563528 
L 246.302479 239.627407 
L 249.069421 240.746101 
L 251.836364 241.927618 
L 254.603306 243.165328 
L 257.370248 244.438512 
L 260.13719 245.714125 
L 262.904132 246.949666 
L 265.671074 248.096989 
L 268.438017 249.106786 
L 271.204959 249.933394 
L 273.971901 250.539591 
L 276.738843 250.901051 
L 279.505785 251.010271 
L 282.272727 250.879909 
L 285.039669 250.545322 
L 287.806612 250.064998 
L 290.573554 249.513602 
L 293.340496 248.95426 
L 296.107438 248.373864 
L 298.87438 247.600381 
L 301.641322 246.287591 
L 304.408264 244.017737 
L 307.175207 240.436887 
L 309.942149 235.329067 
L 312.709091 228.628288 
L 315.476033 220.402139 
L 318.242975 210.825306 
L 321.009917 200.147397 
L 323.77686 188.657995 
L 326.543802 176.657757 
L 329.310744 164.447748 
L 332.077686 152.341548 
L 334.844628 140.690792 
L 337.61157 129.906921 
L 340.378512 120.459551 
L 343.145455 112.83026 
L 345.912397 107.419418 
L 348.679339 104.455967 
L 351.446281 103.973777 
L 354.213223 105.849832 
L 356.980165 109.854768 
L 359.747107 115.690134 
L 362.51405 123.014156 
L 365.280992 131.462679 
L 368.047934 140.668432 
L 370.814876 150.278813 
L 373.581818 159.971279 
" style="fill:none;stroke:#bfbf00;stroke-dasharray:7.4,3.2;stroke-dashoffset:0;stroke-width:2;"/>
   </g>
   <g id="patch_3">
    <path d="M 54 252 
L 54 34.56 
" style="fill:none;stroke:#000000;stroke-linecap:square;stroke-linejoin:miter;stroke-width:0.8;"/>
   </g>
   <g id="patch_4">
    <path d="M 388.8 252 
L 388.8 34.56 
" style="fill:none;stroke:#000000;stroke-linecap:square;stroke-linejoin:miter;stroke-width:0.8;"/>
   </g>
   <g id="patch_5">
    <path d="M 54 252 
L 388.8 252 
" style="fill:none;stroke:#000000;stroke-linecap:square;stroke-linejoin:miter;stroke-width:0.8;"/>
   </g>
   <g id="patch_6">
    <path d="M 54 34.56 
L 388.8 34.56 
" style="fill:none;stroke:#000000;stroke-linecap:square;stroke-linejoin:miter;stroke-width:0.8;"/>
   </g>
   <g id="text_16">
    <!-- Method : UCB -->
    <g transform="translate(71.985124 244.752)scale(0.12 -0.12)">
     <defs>
      <path d="M 628 4666 
L 1569 4666 
L 2759 1491 
L 3956 4666 
L 4897 4666 
L 4897 0 
L 4281 0 
L 4281 4097 
L 3078 897 
L 2444 897 
L 1241 4097 
L 1241 0 
L 628 0 
L 628 4666 
z
" id="DejaVuSans-4d" transform="scale(0.015625)"/>
      <path d="M 3597 1894 
L 3597 1613 
L 953 1613 
Q 991 1019 1311 708 
Q 1631 397 2203 397 
Q 2534 397 2845 478 
Q 3156 559 3463 722 
L 3463 178 
Q 3153 47 2828 -22 
Q 2503 -91 2169 -91 
Q 1331 -91 842 396 
Q 353 884 353 1716 
Q 353 2575 817 3079 
Q 1281 3584 2069 3584 
Q 2775 3584 3186 3129 
Q 3597 2675 3597 1894 
z
M 3022 2063 
Q 3016 2534 2758 2815 
Q 2500 3097 2075 3097 
Q 1594 3097 1305 2825 
Q 1016 2553 972 2059 
L 3022 2063 
z
" id="DejaVuSans-65" transform="scale(0.015625)"/>
      <path d="M 1172 4494 
L 1172 3500 
L 2356 3500 
L 2356 3053 
L 1172 3053 
L 1172 1153 
Q 1172 725 1289 603 
Q 1406 481 1766 481 
L 2356 481 
L 2356 0 
L 1766 0 
Q 1100 0 847 248 
Q 594 497 594 1153 
L 594 3053 
L 172 3053 
L 172 3500 
L 594 3500 
L 594 4494 
L 1172 4494 
z
" id="DejaVuSans-74" transform="scale(0.015625)"/>
      <path d="M 3513 2113 
L 3513 0 
L 2938 0 
L 2938 2094 
Q 2938 2591 2744 2837 
Q 2550 3084 2163 3084 
Q 1697 3084 1428 2787 
Q 1159 2491 1159 1978 
L 1159 0 
L 581 0 
L 581 4863 
L 1159 4863 
L 1159 2956 
Q 1366 3272 1645 3428 
Q 1925 3584 2291 3584 
Q 2894 3584 3203 3211 
Q 3513 2838 3513 2113 
z
" id="DejaVuSans-68" transform="scale(0.015625)"/>
      <path d="M 1959 3097 
Q 1497 3097 1228 2736 
Q 959 2375 959 1747 
Q 959 1119 1226 758 
Q 1494 397 1959 397 
Q 2419 397 2687 759 
Q 2956 1122 2956 1747 
Q 2956 2369 2687 2733 
Q 2419 3097 1959 3097 
z
M 1959 3584 
Q 2709 3584 3137 3096 
Q 3566 2609 3566 1747 
Q 3566 888 3137 398 
Q 2709 -91 1959 -91 
Q 1206 -91 779 398 
Q 353 888 353 1747 
Q 353 2609 779 3096 
Q 1206 3584 1959 3584 
z
" id="DejaVuSans-6f" transform="scale(0.015625)"/>
      <path d="M 2906 2969 
L 2906 4863 
L 3481 4863 
L 3481 0 
L 2906 0 
L 2906 525 
Q 2725 213 2448 61 
Q 2172 -91 1784 -91 
Q 1150 -91 751 415 
Q 353 922 353 1747 
Q 353 2572 751 3078 
Q 1150 3584 1784 3584 
Q 2172 3584 2448 3432 
Q 2725 3281 2906 2969 
z
M 947 1747 
Q 947 1113 1208 752 
Q 1469 391 1925 391 
Q 2381 391 2643 752 
Q 2906 1113 2906 1747 
Q 2906 2381 2643 2742 
Q 2381 3103 1925 3103 
Q 1469 3103 1208 2742 
Q 947 2381 947 1747 
z
" id="DejaVuSans-64" transform="scale(0.015625)"/>
      <path id="DejaVuSans-20" transform="scale(0.015625)"/>
      <path d="M 750 794 
L 1409 794 
L 1409 0 
L 750 0 
L 750 794 
z
M 750 3309 
L 1409 3309 
L 1409 2516 
L 750 2516 
L 750 3309 
z
" id="DejaVuSans-3a" transform="scale(0.015625)"/>
      <path d="M 556 4666 
L 1191 4666 
L 1191 1831 
Q 1191 1081 1462 751 
Q 1734 422 2344 422 
Q 2950 422 3222 751 
Q 3494 1081 3494 1831 
L 3494 4666 
L 4128 4666 
L 4128 1753 
Q 4128 841 3676 375 
Q 3225 -91 2344 -91 
Q 1459 -91 1007 375 
Q 556 841 556 1753 
L 556 4666 
z
" id="DejaVuSans-55" transform="scale(0.015625)"/>
      <path d="M 4122 4306 
L 4122 3641 
Q 3803 3938 3442 4084 
Q 3081 4231 2675 4231 
Q 1875 4231 1450 3742 
Q 1025 3253 1025 2328 
Q 1025 1406 1450 917 
Q 1875 428 2675 428 
Q 3081 428 3442 575 
Q 3803 722 4122 1019 
L 4122 359 
Q 3791 134 3420 21 
Q 3050 -91 2638 -91 
Q 1578 -91 968 557 
Q 359 1206 359 2328 
Q 359 3453 968 4101 
Q 1578 4750 2638 4750 
Q 3056 4750 3426 4639 
Q 3797 4528 4122 4306 
z
" id="DejaVuSans-43" transform="scale(0.015625)"/>
      <path d="M 1259 2228 
L 1259 519 
L 2272 519 
Q 2781 519 3026 730 
Q 3272 941 3272 1375 
Q 3272 1813 3026 2020 
Q 2781 2228 2272 2228 
L 1259 2228 
z
M 1259 4147 
L 1259 2741 
L 2194 2741 
Q 2656 2741 2882 2914 
Q 3109 3088 3109 3444 
Q 3109 3797 2882 3972 
Q 2656 4147 2194 4147 
L 1259 4147 
z
M 628 4666 
L 2241 4666 
Q 2963 4666 3353 4366 
Q 3744 4066 3744 3513 
Q 3744 3084 3544 2831 
Q 3344 2578 2956 2516 
Q 3422 2416 3680 2098 
Q 3938 1781 3938 1306 
Q 3938 681 3513 340 
Q 3088 0 2303 0 
L 628 0 
L 628 4666 
z
" id="DejaVuSans-42" transform="scale(0.015625)"/>
     </defs>
     <use xlink:href="#DejaVuSans-4d"/>
     <use x="86.279297" xlink:href="#DejaVuSans-65"/>
     <use x="147.802734" xlink:href="#DejaVuSans-74"/>
     <use x="187.011719" xlink:href="#DejaVuSans-68"/>
     <use x="250.390625" xlink:href="#DejaVuSans-6f"/>
     <use x="311.572266" xlink:href="#DejaVuSans-64"/>
     <use x="375.048828" xlink:href="#DejaVuSans-20"/>
     <use x="406.835938" xlink:href="#DejaVuSans-3a"/>
     <use x="440.527344" xlink:href="#DejaVuSans-20"/>
     <use x="472.314453" xlink:href="#DejaVuSans-55"/>
     <use x="545.507812" xlink:href="#DejaVuSans-43"/>
     <use x="615.332031" xlink:href="#DejaVuSans-42"/>
    </g>
   </g>
   <g id="text_17">
    <!-- Iter=1 -->
    <g transform="translate(71.985124 226.632)scale(0.12 -0.12)">
     <defs>
      <path d="M 628 4666 
L 1259 4666 
L 1259 0 
L 628 0 
L 628 4666 
z
" id="DejaVuSans-49" transform="scale(0.015625)"/>
      <path d="M 2631 2963 
Q 2534 3019 2420 3045 
Q 2306 3072 2169 3072 
Q 1681 3072 1420 2755 
Q 1159 2438 1159 1844 
L 1159 0 
L 581 0 
L 581 3500 
L 1159 3500 
L 1159 2956 
Q 1341 3275 1631 3429 
Q 1922 3584 2338 3584 
Q 2397 3584 2469 3576 
Q 2541 3569 2628 3553 
L 2631 2963 
z
" id="DejaVuSans-72" transform="scale(0.015625)"/>
      <path d="M 678 2906 
L 4684 2906 
L 4684 2381 
L 678 2381 
L 678 2906 
z
M 678 1631 
L 4684 1631 
L 4684 1100 
L 678 1100 
L 678 1631 
z
" id="DejaVuSans-3d" transform="scale(0.015625)"/>
     </defs>
     <use xlink:href="#DejaVuSans-49"/>
     <use x="29.492188" xlink:href="#DejaVuSans-74"/>
     <use x="68.701172" xlink:href="#DejaVuSans-65"/>
     <use x="130.224609" xlink:href="#DejaVuSans-72"/>
     <use x="171.337891" xlink:href="#DejaVuSans-3d"/>
     <use x="255.126953" xlink:href="#DejaVuSans-31"/>
    </g>
   </g>
   <g id="text_18">
    <!-- (b) -->
    <g transform="translate(71.985124 56.304)scale(0.12 -0.12)">
     <defs>
      <path d="M 1984 4856 
Q 1566 4138 1362 3434 
Q 1159 2731 1159 2009 
Q 1159 1288 1364 580 
Q 1569 -128 1984 -844 
L 1484 -844 
Q 1016 -109 783 600 
Q 550 1309 550 2009 
Q 550 2706 781 3412 
Q 1013 4119 1484 4856 
L 1984 4856 
z
" id="DejaVuSans-28" transform="scale(0.015625)"/>
      <path d="M 3116 1747 
Q 3116 2381 2855 2742 
Q 2594 3103 2138 3103 
Q 1681 3103 1420 2742 
Q 1159 2381 1159 1747 
Q 1159 1113 1420 752 
Q 1681 391 2138 391 
Q 2594 391 2855 752 
Q 3116 1113 3116 1747 
z
M 1159 2969 
Q 1341 3281 1617 3432 
Q 1894 3584 2278 3584 
Q 2916 3584 3314 3078 
Q 3713 2572 3713 1747 
Q 3713 922 3314 415 
Q 2916 -91 2278 -91 
Q 1894 -91 1617 61 
Q 1341 213 1159 525 
L 1159 0 
L 581 0 
L 581 4863 
L 1159 4863 
L 1159 2969 
z
" id="DejaVuSans-62" transform="scale(0.015625)"/>
      <path d="M 513 4856 
L 1013 4856 
Q 1481 4119 1714 3412 
Q 1947 2706 1947 2009 
Q 1947 1309 1714 600 
Q 1481 -109 1013 -844 
L 513 -844 
Q 928 -128 1133 580 
Q 1338 1288 1338 2009 
Q 1338 2731 1133 3434 
Q 928 4138 513 4856 
z
" id="DejaVuSans-29" transform="scale(0.015625)"/>
     </defs>
     <use xlink:href="#DejaVuSans-28"/>
     <use x="39.013672" xlink:href="#DejaVuSans-62"/>
     <use x="102.490234" xlink:href="#DejaVuSans-29"/>
    </g>
   </g>
   <g id="legend_1">
    <g id="patch_7">
     <path d="M 144.327812 140.235625 
L 298.472188 140.235625 
Q 300.672188 140.235625 300.672188 138.035625 
L 300.672188 42.26 
Q 300.672188 40.06 298.472188 40.06 
L 144.327812 40.06 
Q 142.127813 40.06 142.127813 42.26 
L 142.127813 138.035625 
Q 142.127813 140.235625 144.327812 140.235625 
z
" style="fill:#ffffff;opacity:0.8;stroke:#cccccc;stroke-linejoin:miter;"/>
    </g>
    <g id="line2d_18">
     <path d="M 146.527813 48.968281 
L 168.527813 48.968281 
" style="fill:none;stroke:#0000ff;stroke-linecap:square;stroke-width:2;"/>
    </g>
    <g id="line2d_19"/>
    <g id="text_19">
     <!-- ture function -->
     <g transform="translate(177.327813 52.818281)scale(0.11 -0.11)">
      <defs>
       <path d="M 544 1381 
L 544 3500 
L 1119 3500 
L 1119 1403 
Q 1119 906 1312 657 
Q 1506 409 1894 409 
Q 2359 409 2629 706 
Q 2900 1003 2900 1516 
L 2900 3500 
L 3475 3500 
L 3475 0 
L 2900 0 
L 2900 538 
Q 2691 219 2414 64 
Q 2138 -91 1772 -91 
Q 1169 -91 856 284 
Q 544 659 544 1381 
z
M 1991 3584 
L 1991 3584 
z
" id="DejaVuSans-75" transform="scale(0.015625)"/>
       <path d="M 2375 4863 
L 2375 4384 
L 1825 4384 
Q 1516 4384 1395 4259 
Q 1275 4134 1275 3809 
L 1275 3500 
L 2222 3500 
L 2222 3053 
L 1275 3053 
L 1275 0 
L 697 0 
L 697 3053 
L 147 3053 
L 147 3500 
L 697 3500 
L 697 3744 
Q 697 4328 969 4595 
Q 1241 4863 1831 4863 
L 2375 4863 
z
" id="DejaVuSans-66" transform="scale(0.015625)"/>
       <path d="M 3513 2113 
L 3513 0 
L 2938 0 
L 2938 2094 
Q 2938 2591 2744 2837 
Q 2550 3084 2163 3084 
Q 1697 3084 1428 2787 
Q 1159 2491 1159 1978 
L 1159 0 
L 581 0 
L 581 3500 
L 1159 3500 
L 1159 2956 
Q 1366 3272 1645 3428 
Q 1925 3584 2291 3584 
Q 2894 3584 3203 3211 
Q 3513 2838 3513 2113 
z
" id="DejaVuSans-6e" transform="scale(0.015625)"/>
       <path d="M 3122 3366 
L 3122 2828 
Q 2878 2963 2633 3030 
Q 2388 3097 2138 3097 
Q 1578 3097 1268 2742 
Q 959 2388 959 1747 
Q 959 1106 1268 751 
Q 1578 397 2138 397 
Q 2388 397 2633 464 
Q 2878 531 3122 666 
L 3122 134 
Q 2881 22 2623 -34 
Q 2366 -91 2075 -91 
Q 1284 -91 818 406 
Q 353 903 353 1747 
Q 353 2603 823 3093 
Q 1294 3584 2113 3584 
Q 2378 3584 2631 3529 
Q 2884 3475 3122 3366 
z
" id="DejaVuSans-63" transform="scale(0.015625)"/>
       <path d="M 603 3500 
L 1178 3500 
L 1178 0 
L 603 0 
L 603 3500 
z
M 603 4863 
L 1178 4863 
L 1178 4134 
L 603 4134 
L 603 4863 
z
" id="DejaVuSans-69" transform="scale(0.015625)"/>
      </defs>
      <use xlink:href="#DejaVuSans-74"/>
      <use x="39.208984" xlink:href="#DejaVuSans-75"/>
      <use x="102.587891" xlink:href="#DejaVuSans-72"/>
      <use x="141.451172" xlink:href="#DejaVuSans-65"/>
      <use x="202.974609" xlink:href="#DejaVuSans-20"/>
      <use x="234.761719" xlink:href="#DejaVuSans-66"/>
      <use x="269.966797" xlink:href="#DejaVuSans-75"/>
      <use x="333.345703" xlink:href="#DejaVuSans-6e"/>
      <use x="396.724609" xlink:href="#DejaVuSans-63"/>
      <use x="451.705078" xlink:href="#DejaVuSans-74"/>
      <use x="490.914062" xlink:href="#DejaVuSans-69"/>
      <use x="518.697266" xlink:href="#DejaVuSans-6f"/>
      <use x="579.878906" xlink:href="#DejaVuSans-6e"/>
     </g>
    </g>
    <g id="line2d_20">
     <path d="M 146.527813 65.114219 
L 168.527813 65.114219 
" style="fill:none;stroke:#000000;stroke-dasharray:7.4,3.2;stroke-dashoffset:0;stroke-width:2;"/>
    </g>
    <g id="line2d_21"/>
    <g id="text_20">
     <!-- predicted function -->
     <g transform="translate(177.327813 68.964219)scale(0.11 -0.11)">
      <defs>
       <path d="M 1159 525 
L 1159 -1331 
L 581 -1331 
L 581 3500 
L 1159 3500 
L 1159 2969 
Q 1341 3281 1617 3432 
Q 1894 3584 2278 3584 
Q 2916 3584 3314 3078 
Q 3713 2572 3713 1747 
Q 3713 922 3314 415 
Q 2916 -91 2278 -91 
Q 1894 -91 1617 61 
Q 1341 213 1159 525 
z
M 3116 1747 
Q 3116 2381 2855 2742 
Q 2594 3103 2138 3103 
Q 1681 3103 1420 2742 
Q 1159 2381 1159 1747 
Q 1159 1113 1420 752 
Q 1681 391 2138 391 
Q 2594 391 2855 752 
Q 3116 1113 3116 1747 
z
" id="DejaVuSans-70" transform="scale(0.015625)"/>
      </defs>
      <use xlink:href="#DejaVuSans-70"/>
      <use x="63.476562" xlink:href="#DejaVuSans-72"/>
      <use x="102.339844" xlink:href="#DejaVuSans-65"/>
      <use x="163.863281" xlink:href="#DejaVuSans-64"/>
      <use x="227.339844" xlink:href="#DejaVuSans-69"/>
      <use x="255.123047" xlink:href="#DejaVuSans-63"/>
      <use x="310.103516" xlink:href="#DejaVuSans-74"/>
      <use x="349.3125" xlink:href="#DejaVuSans-65"/>
      <use x="410.835938" xlink:href="#DejaVuSans-64"/>
      <use x="474.3125" xlink:href="#DejaVuSans-20"/>
      <use x="506.099609" xlink:href="#DejaVuSans-66"/>
      <use x="541.304688" xlink:href="#DejaVuSans-75"/>
      <use x="604.683594" xlink:href="#DejaVuSans-6e"/>
      <use x="668.0625" xlink:href="#DejaVuSans-63"/>
      <use x="723.042969" xlink:href="#DejaVuSans-74"/>
      <use x="762.251953" xlink:href="#DejaVuSans-69"/>
      <use x="790.035156" xlink:href="#DejaVuSans-6f"/>
      <use x="851.216797" xlink:href="#DejaVuSans-6e"/>
     </g>
    </g>
    <g id="line2d_22">
     <path d="M 146.527813 81.260156 
L 168.527813 81.260156 
" style="fill:none;stroke:#008000;stroke-dasharray:3.7,1.6;stroke-dashoffset:0;"/>
    </g>
    <g id="line2d_23"/>
    <g id="text_21">
     <!--  ± Sn(x) -->
     <g transform="translate(177.327813 85.110156)scale(0.11 -0.11)">
      <defs>
       <path d="M 2944 4013 
L 2944 2803 
L 4684 2803 
L 4684 2272 
L 2944 2272 
L 2944 1063 
L 2419 1063 
L 2419 2272 
L 678 2272 
L 678 2803 
L 2419 2803 
L 2419 4013 
L 2944 4013 
z
M 678 531 
L 4684 531 
L 4684 0 
L 678 0 
L 678 531 
z
" id="DejaVuSans-b1" transform="scale(0.015625)"/>
       <path d="M 3425 4513 
L 3425 3897 
Q 3066 4069 2747 4153 
Q 2428 4238 2131 4238 
Q 1616 4238 1336 4038 
Q 1056 3838 1056 3469 
Q 1056 3159 1242 3001 
Q 1428 2844 1947 2747 
L 2328 2669 
Q 3034 2534 3370 2195 
Q 3706 1856 3706 1288 
Q 3706 609 3251 259 
Q 2797 -91 1919 -91 
Q 1588 -91 1214 -16 
Q 841 59 441 206 
L 441 856 
Q 825 641 1194 531 
Q 1563 422 1919 422 
Q 2459 422 2753 634 
Q 3047 847 3047 1241 
Q 3047 1584 2836 1778 
Q 2625 1972 2144 2069 
L 1759 2144 
Q 1053 2284 737 2584 
Q 422 2884 422 3419 
Q 422 4038 858 4394 
Q 1294 4750 2059 4750 
Q 2388 4750 2728 4690 
Q 3069 4631 3425 4513 
z
" id="DejaVuSans-53" transform="scale(0.015625)"/>
      </defs>
      <use xlink:href="#DejaVuSans-20"/>
      <use x="31.787109" xlink:href="#DejaVuSans-b1"/>
      <use x="115.576172" xlink:href="#DejaVuSans-20"/>
      <use x="147.363281" xlink:href="#DejaVuSans-53"/>
      <use x="210.839844" xlink:href="#DejaVuSans-6e"/>
      <use x="274.21875" xlink:href="#DejaVuSans-28"/>
      <use x="313.232422" xlink:href="#DejaVuSans-78"/>
      <use x="372.412109" xlink:href="#DejaVuSans-29"/>
     </g>
    </g>
    <g id="line2d_24">
     <path d="M 146.527813 97.406094 
L 168.527813 97.406094 
" style="fill:none;stroke:#bfbf00;stroke-dasharray:7.4,3.2;stroke-dashoffset:0;stroke-width:2;"/>
    </g>
    <g id="line2d_25"/>
    <g id="text_22">
     <!-- UCB(x) -->
     <g transform="translate(177.327813 101.256094)scale(0.11 -0.11)">
      <use xlink:href="#DejaVuSans-55"/>
      <use x="73.193359" xlink:href="#DejaVuSans-43"/>
      <use x="143.017578" xlink:href="#DejaVuSans-42"/>
      <use x="211.621094" xlink:href="#DejaVuSans-28"/>
      <use x="250.634766" xlink:href="#DejaVuSans-78"/>
      <use x="309.814453" xlink:href="#DejaVuSans-29"/>
     </g>
    </g>
    <g id="PathCollection_2">
     <defs>
      <path d="M 0 3.535534 
C 0.937635 3.535534 1.836992 3.163008 2.5 2.5 
C 3.163008 1.836992 3.535534 0.937635 3.535534 0 
C 3.535534 -0.937635 3.163008 -1.836992 2.5 -2.5 
C 1.836992 -3.163008 0.937635 -3.535534 0 -3.535534 
C -0.937635 -3.535534 -1.836992 -3.163008 -2.5 -2.5 
C -3.163008 -1.836992 -3.535534 -0.937635 -3.535534 0 
C -3.535534 0.937635 -3.163008 1.836992 -2.5 2.5 
C -1.836992 3.163008 -0.937635 3.535534 0 3.535534 
z
" id="m1f539dc7f0" style="stroke:#000000;"/>
     </defs>
     <g>
      <use style="fill:#ff0000;stroke:#000000;" x="157.527813" xlink:href="#m1f539dc7f0" y="114.514531"/>
     </g>
    </g>
    <g id="text_23">
     <!-- training data -->
     <g transform="translate(177.327813 117.402031)scale(0.11 -0.11)">
      <defs>
       <path d="M 2194 1759 
Q 1497 1759 1228 1600 
Q 959 1441 959 1056 
Q 959 750 1161 570 
Q 1363 391 1709 391 
Q 2188 391 2477 730 
Q 2766 1069 2766 1631 
L 2766 1759 
L 2194 1759 
z
M 3341 1997 
L 3341 0 
L 2766 0 
L 2766 531 
Q 2569 213 2275 61 
Q 1981 -91 1556 -91 
Q 1019 -91 701 211 
Q 384 513 384 1019 
Q 384 1609 779 1909 
Q 1175 2209 1959 2209 
L 2766 2209 
L 2766 2266 
Q 2766 2663 2505 2880 
Q 2244 3097 1772 3097 
Q 1472 3097 1187 3025 
Q 903 2953 641 2809 
L 641 3341 
Q 956 3463 1253 3523 
Q 1550 3584 1831 3584 
Q 2591 3584 2966 3190 
Q 3341 2797 3341 1997 
z
" id="DejaVuSans-61" transform="scale(0.015625)"/>
       <path d="M 2906 1791 
Q 2906 2416 2648 2759 
Q 2391 3103 1925 3103 
Q 1463 3103 1205 2759 
Q 947 2416 947 1791 
Q 947 1169 1205 825 
Q 1463 481 1925 481 
Q 2391 481 2648 825 
Q 2906 1169 2906 1791 
z
M 3481 434 
Q 3481 -459 3084 -895 
Q 2688 -1331 1869 -1331 
Q 1566 -1331 1297 -1286 
Q 1028 -1241 775 -1147 
L 775 -588 
Q 1028 -725 1275 -790 
Q 1522 -856 1778 -856 
Q 2344 -856 2625 -561 
Q 2906 -266 2906 331 
L 2906 616 
Q 2728 306 2450 153 
Q 2172 0 1784 0 
Q 1141 0 747 490 
Q 353 981 353 1791 
Q 353 2603 747 3093 
Q 1141 3584 1784 3584 
Q 2172 3584 2450 3431 
Q 2728 3278 2906 2969 
L 2906 3500 
L 3481 3500 
L 3481 434 
z
" id="DejaVuSans-67" transform="scale(0.015625)"/>
      </defs>
      <use xlink:href="#DejaVuSans-74"/>
      <use x="39.208984" xlink:href="#DejaVuSans-72"/>
      <use x="80.322266" xlink:href="#DejaVuSans-61"/>
      <use x="141.601562" xlink:href="#DejaVuSans-69"/>
      <use x="169.384766" xlink:href="#DejaVuSans-6e"/>
      <use x="232.763672" xlink:href="#DejaVuSans-69"/>
      <use x="260.546875" xlink:href="#DejaVuSans-6e"/>
      <use x="323.925781" xlink:href="#DejaVuSans-67"/>
      <use x="387.402344" xlink:href="#DejaVuSans-20"/>
      <use x="419.189453" xlink:href="#DejaVuSans-64"/>
      <use x="482.666016" xlink:href="#DejaVuSans-61"/>
      <use x="543.945312" xlink:href="#DejaVuSans-74"/>
      <use x="583.154297" xlink:href="#DejaVuSans-61"/>
     </g>
    </g>
    <g id="PathCollection_3">
     <g>
      <use style="fill:#ff0000;stroke:#ff0000;stroke-width:8;" x="157.527813" xlink:href="#ma6053224e6" y="130.660469"/>
     </g>
    </g>
    <g id="text_24">
     <!-- recommended datum -->
     <g transform="translate(177.327813 133.547969)scale(0.11 -0.11)">
      <defs>
       <path d="M 3328 2828 
Q 3544 3216 3844 3400 
Q 4144 3584 4550 3584 
Q 5097 3584 5394 3201 
Q 5691 2819 5691 2113 
L 5691 0 
L 5113 0 
L 5113 2094 
Q 5113 2597 4934 2840 
Q 4756 3084 4391 3084 
Q 3944 3084 3684 2787 
Q 3425 2491 3425 1978 
L 3425 0 
L 2847 0 
L 2847 2094 
Q 2847 2600 2669 2842 
Q 2491 3084 2119 3084 
Q 1678 3084 1418 2786 
Q 1159 2488 1159 1978 
L 1159 0 
L 581 0 
L 581 3500 
L 1159 3500 
L 1159 2956 
Q 1356 3278 1631 3431 
Q 1906 3584 2284 3584 
Q 2666 3584 2933 3390 
Q 3200 3197 3328 2828 
z
" id="DejaVuSans-6d" transform="scale(0.015625)"/>
      </defs>
      <use xlink:href="#DejaVuSans-72"/>
      <use x="38.863281" xlink:href="#DejaVuSans-65"/>
      <use x="100.386719" xlink:href="#DejaVuSans-63"/>
      <use x="155.367188" xlink:href="#DejaVuSans-6f"/>
      <use x="216.548828" xlink:href="#DejaVuSans-6d"/>
      <use x="313.960938" xlink:href="#DejaVuSans-6d"/>
      <use x="411.373047" xlink:href="#DejaVuSans-65"/>
      <use x="472.896484" xlink:href="#DejaVuSans-6e"/>
      <use x="536.275391" xlink:href="#DejaVuSans-64"/>
      <use x="599.751953" xlink:href="#DejaVuSans-65"/>
      <use x="661.275391" xlink:href="#DejaVuSans-64"/>
      <use x="724.751953" xlink:href="#DejaVuSans-20"/>
      <use x="756.539062" xlink:href="#DejaVuSans-64"/>
      <use x="820.015625" xlink:href="#DejaVuSans-61"/>
      <use x="881.294922" xlink:href="#DejaVuSans-74"/>
      <use x="920.503906" xlink:href="#DejaVuSans-75"/>
      <use x="983.882812" xlink:href="#DejaVuSans-6d"/>
     </g>
    </g>
   </g>
   <g id="line2d_26">
    <path clip-path="url(#p7348fdb5fb)" d="M 69.218182 131.1761 
L 71.985124 130.261496 
L 74.752066 130.240533 
L 77.519008 131.179856 
L 80.28595 133.106404 
L 83.052893 136.00319 
L 85.819835 139.807909 
L 88.586777 144.414659 
L 91.353719 149.678753 
L 94.120661 155.424351 
L 96.887603 161.45436 
L 99.654545 167.561833 
L 102.421488 173.54197 
L 105.18843 179.203777 
L 107.955372 184.380476 
L 110.722314 188.937918 
L 113.489256 192.780428 
L 116.256198 195.853781 
L 119.02314 198.145259 
L 121.790083 199.680986 
L 124.557025 200.520945 
L 127.323967 200.752232 
L 130.090909 200.481188 
L 132.857851 199.825064 
L 135.624793 198.903845 
L 138.391736 197.832757 
L 141.158678 196.715899 
L 143.92562 195.641269 
L 146.692562 194.677375 
L 149.459504 193.871443 
L 152.226446 193.249186 
L 154.993388 192.815964 
L 157.760331 192.559129 
L 160.527273 192.451274 
L 163.294215 192.45411 
L 166.061157 192.522648 
L 168.828099 192.609387 
L 171.595041 192.668239 
L 174.361983 192.657937 
L 177.128926 192.544746 
L 179.895868 192.304341 
L 182.66281 191.922814 
L 185.429752 191.396805 
L 188.196694 190.732846 
L 190.963636 189.946059 
L 193.730579 189.058379 
L 196.497521 188.096502 
L 199.264463 187.089757 
L 202.031405 186.0681 
L 204.798347 185.060371 
L 207.565289 184.092939 
L 210.332231 183.188803 
L 213.099174 182.367163 
L 215.866116 181.643449 
L 218.633058 181.029748 
L 221.4 180.535535 
L 224.166942 180.168618 
L 226.933884 179.936193 
L 229.700826 179.845876 
L 232.467769 179.906641 
L 235.234711 180.12955 
L 238.001653 180.528215 
L 240.768595 181.118916 
L 243.535537 181.920353 
L 246.302479 182.952995 
L 249.069421 184.238032 
L 251.836364 185.795958 
L 254.603306 187.644813 
L 257.370248 189.798173 
L 260.13719 192.262952 
L 262.904132 195.037135 
L 265.671074 198.107546 
L 268.438017 201.447778 
L 271.204959 205.01639 
L 273.971901 208.755515 
L 276.738843 212.589959 
L 279.505785 216.426917 
L 282.272727 220.156393 
L 285.039669 223.652428 
L 287.806612 226.775219 
L 290.573554 229.374226 
L 293.340496 231.292326 
L 296.107438 232.371065 
L 298.87438 232.456986 
L 301.641322 231.408947 
L 304.408264 229.106221 
L 307.175207 225.457058 
L 309.942149 220.40723 
L 312.709091 213.947979 
L 315.476033 206.122649 
L 318.242975 197.031277 
L 321.009917 186.832434 
L 323.77686 175.741705 
L 326.543802 164.026451 
L 329.310744 151.996748 
L 332.077686 139.992761 
L 334.844628 128.369174 
L 337.61157 117.477639 
L 340.378512 107.648451 
L 343.145455 99.172848 
L 345.912397 92.287336 
L 348.679339 87.161289 
L 351.446281 83.888855 
L 354.213223 82.48577 
L 356.980165 82.89128 
L 359.747107 84.97487 
L 362.51405 88.547123 
L 365.280992 93.373652 
L 368.047934 99.190875 
L 370.814876 105.72229 
L 373.581818 112.694002 
" style="fill:none;stroke:#000000;stroke-dasharray:7.4,3.2;stroke-dashoffset:0;stroke-width:2;"/>
   </g>
   <g id="PathCollection_4">
    <g clip-path="url(#p7348fdb5fb)">
     <use style="fill:#ff0000;stroke:#000000;" x="83.052893" xlink:href="#m1f539dc7f0" y="129.399309"/>
     <use style="fill:#ff0000;stroke:#000000;" x="96.887603" xlink:href="#m1f539dc7f0" y="162.429541"/>
     <use style="fill:#ff0000;stroke:#000000;" x="110.722314" xlink:href="#m1f539dc7f0" y="193.170209"/>
     <use style="fill:#ff0000;stroke:#000000;" x="124.557025" xlink:href="#m1f539dc7f0" y="199.248575"/>
     <use style="fill:#ff0000;stroke:#000000;" x="138.391736" xlink:href="#m1f539dc7f0" y="199.347548"/>
     <use style="fill:#ff0000;stroke:#000000;" x="152.226446" xlink:href="#m1f539dc7f0" y="191.611971"/>
     <use style="fill:#ff0000;stroke:#000000;" x="166.061157" xlink:href="#m1f539dc7f0" y="193.66847"/>
     <use style="fill:#ff0000;stroke:#000000;" x="179.895868" xlink:href="#m1f539dc7f0" y="193.283098"/>
     <use style="fill:#ff0000;stroke:#000000;" x="193.730579" xlink:href="#m1f539dc7f0" y="188.924027"/>
     <use style="fill:#ff0000;stroke:#000000;" x="318.242975" xlink:href="#m1f539dc7f0" y="199.289596"/>
     <use style="fill:#ff0000;stroke:#000000;" x="332.077686" xlink:href="#m1f539dc7f0" y="145.37007"/>
     <use style="fill:#ff0000;stroke:#000000;" x="345.912397" xlink:href="#m1f539dc7f0" y="78.407322"/>
     <use style="fill:#ff0000;stroke:#000000;" x="296.107438" xlink:href="#m1f539dc7f0" y="235.716116"/>
    </g>
   </g>
  </g>
 </g>
 <defs>
  <clipPath id="p7348fdb5fb">
   <rect height="217.44" width="334.8" x="54" y="34.56"/>
  </clipPath>
 </defs>
</svg>
