<?xml version="1.0" encoding="utf-8" standalone="no"?>
<!DOCTYPE svg PUBLIC "-//W3C//DTD SVG 1.1//EN"
  "http://www.w3.org/Graphics/SVG/1.1/DTD/svg11.dtd">
<svg height="288pt" version="1.1" viewBox="0 0 432 288" width="432pt" xmlns="http://www.w3.org/2000/svg" xmlns:xlink="http://www.w3.org/1999/xlink">
 <metadata>
  <rdf:RDF xmlns:cc="http://creativecommons.org/ns#" xmlns:dc="http://purl.org/dc/elements/1.1/" xmlns:rdf="http://www.w3.org/1999/02/22-rdf-syntax-ns#">
   <cc:Work>
    <dc:type rdf:resource="http://purl.org/dc/dcmitype/StillImage"/>
    <dc:date>2022-09-04T16:15:28.690242</dc:date>
    <dc:format>image/svg+xml</dc:format>
    <dc:creator>
     <cc:Agent>
      <dc:title>Matplotlib v3.4.3, https://matplotlib.org/</dc:title>
     </cc:Agent>
    </dc:creator>
   </cc:Work>
  </rdf:RDF>
 </metadata>
 <defs>
  <style type="text/css">*{stroke-linecap:butt;stroke-linejoin:round;}</style>
 </defs>
 <g id="figure_1">
  <g id="patch_1">
   <path d="M 0 288 
L 432 288 
L 432 0 
L 0 0 
z
" style="fill:none;"/>
  </g>
  <g id="axes_1">
   <g id="patch_2">
    <path d="M 54 252 
L 388.8 252 
L 388.8 34.56 
L 54 34.56 
z
" style="fill:#ffffff;"/>
   </g>
   <g id="PolyCollection_1">
    <defs>
     <path d="M 69.218182 -181.966412 
L 69.218182 -119.518628 
L 71.985124 -121.404555 
L 74.752066 -122.594434 
L 77.519008 -123.014063 
L 80.28595 -122.626316 
L 83.052893 -121.438849 
L 85.819835 -119.50702 
L 88.586777 -116.929926 
L 91.353719 -113.839086 
L 94.120661 -110.38146 
L 96.887603 -106.699935 
L 99.654545 -102.914527 
L 102.421488 -99.107543 
L 105.18843 -95.317733 
L 107.955372 -91.552197 
L 110.722314 -87.822357 
L 113.489256 -84.188127 
L 116.256198 -80.771067 
L 119.02314 -77.722173 
L 121.790083 -75.176516 
L 124.557025 -73.225712 
L 127.323967 -71.910952 
L 130.090909 -71.227347 
L 132.857851 -71.132534 
L 135.624793 -71.556334 
L 138.391736 -72.410131 
L 141.158678 -73.595251 
L 143.92562 -75.009757 
L 146.692562 -76.553294 
L 149.459504 -78.129848 
L 152.226446 -79.648889 
L 154.993388 -81.026058 
L 157.760331 -82.185478 
L 160.527273 -83.06605 
L 163.294215 -83.632408 
L 166.061157 -83.886551 
L 168.828099 -83.871869 
L 171.595041 -83.663703 
L 174.361983 -83.349483 
L 177.128926 -83.007258 
L 179.895868 -82.68949 
L 182.66281 -82.414467 
L 185.429752 -82.165429 
L 188.196694 -81.897228 
L 190.963636 -81.549667 
L 193.730579 -81.064496 
L 196.497521 -80.400773 
L 199.264463 -79.543435 
L 202.031405 -78.50337 
L 204.798347 -77.311186 
L 207.565289 -76.008497 
L 210.332231 -74.639703 
L 213.099174 -73.245632 
L 215.866116 -71.859286 
L 218.633058 -70.503431 
L 221.4 -69.189711 
L 224.166942 -67.918984 
L 226.933884 -66.682643 
L 229.700826 -65.464701 
L 232.467769 -64.244424 
L 235.234711 -62.999255 
L 238.001653 -61.707799 
L 240.768595 -60.352575 
L 243.535537 -58.922315 
L 246.302479 -57.413601 
L 249.069421 -55.831694 
L 251.836364 -54.190526 
L 254.603306 -52.511867 
L 257.370248 -50.823786 
L 260.13719 -49.158564 
L 262.904132 -47.550249 
L 265.671074 -46.032005 
L 268.438017 -44.633398 
L 271.204959 -43.377618 
L 273.971901 -42.2786 
L 276.738843 -41.337858 
L 279.505785 -40.54113 
L 282.272727 -39.856111 
L 285.039669 -39.236193 
L 287.806612 -38.641982 
L 290.573554 -38.093084 
L 293.340496 -37.732069 
L 296.107438 -37.834731 
L 298.87438 -38.735271 
L 301.641322 -40.730893 
L 304.408264 -44.029293 
L 307.175207 -48.737842 
L 309.942149 -54.870808 
L 312.709091 -62.361379 
L 315.476033 -71.07548 
L 318.242975 -80.827869 
L 321.009917 -91.400315 
L 323.77686 -102.559039 
L 326.543802 -114.066313 
L 329.310744 -125.682347 
L 332.077686 -137.158395 
L 334.844628 -148.226919 
L 337.61157 -158.596052 
L 340.378512 -167.954622 
L 343.145455 -175.992104 
L 345.912397 -182.432956 
L 348.679339 -187.074931 
L 351.446281 -189.814276 
L 354.213223 -190.648137 
L 356.980165 -189.659678 
L 359.747107 -186.997588 
L 362.51405 -182.857283 
L 365.280992 -177.465319 
L 368.047934 -171.066219 
L 370.814876 -163.910838 
L 373.581818 -156.245972 
L 373.581818 -232.97975 
L 373.581818 -232.97975 
L 370.814876 -236.059232 
L 368.047934 -238.24715 
L 365.280992 -239.394504 
L 362.51405 -239.379094 
L 359.747107 -238.113761 
L 356.980165 -235.552752 
L 354.213223 -231.69468 
L 351.446281 -226.580111 
L 348.679339 -220.281962 
L 345.912397 -212.889517 
L 343.145455 -204.492914 
L 340.378512 -195.179706 
L 337.61157 -185.04929 
L 334.844628 -174.236177 
L 332.077686 -162.925913 
L 329.310744 -151.354429 
L 326.543802 -139.791501 
L 323.77686 -128.514007 
L 321.009917 -117.776394 
L 318.242975 -107.786675 
L 315.476033 -98.694507 
L 312.709091 -90.592841 
L 309.942149 -83.529419 
L 307.175207 -77.522982 
L 304.408264 -72.58102 
L 301.641322 -68.718364 
L 298.87438 -65.976477 
L 296.107438 -64.439744 
L 293.340496 -64.234819 
L 290.573554 -65.488751 
L 287.806612 -68.244129 
L 285.039669 -72.394266 
L 282.272727 -77.702604 
L 279.505785 -83.874731 
L 276.738843 -90.617009 
L 273.971901 -97.663668 
L 271.204959 -104.784913 
L 268.438017 -111.787814 
L 265.671074 -118.515042 
L 262.904132 -124.842815 
L 260.13719 -130.678243 
L 257.370248 -135.956054 
L 254.603306 -140.634743 
L 251.836364 -144.692309 
L 249.069421 -148.121821 
L 246.302479 -150.927113 
L 243.535537 -153.11893 
L 240.768595 -154.711782 
L 238.001653 -155.721743 
L 235.234711 -156.1653 
L 232.467769 -156.059276 
L 229.700826 -155.421726 
L 226.933884 -154.273616 
L 224.166942 -152.641014 
L 221.4 -150.557499 
L 218.633058 -148.066445 
L 215.866116 -145.222858 
L 213.099174 -142.094457 
L 210.332231 -138.76167 
L 207.565289 -135.316219 
L 204.798347 -131.857938 
L 202.031405 -128.489433 
L 199.264463 -125.308328 
L 196.497521 -122.397356 
L 193.730579 -119.813732 
L 190.963636 -117.580876 
L 188.196694 -115.686459 
L 185.429752 -114.089135 
L 182.66281 -112.732423 
L 179.895868 -111.560796 
L 177.128926 -110.532845 
L 174.361983 -109.628657 
L 171.595041 -108.850661 
L 168.828099 -108.217785 
L 166.061157 -107.752992 
L 163.294215 -107.466428 
L 160.527273 -107.340841 
L 157.760331 -107.327781 
L 154.993388 -107.357269 
L 152.226446 -107.354658 
L 149.459504 -107.255953 
L 146.692562 -107.017197 
L 143.92562 -106.618198 
L 141.158678 -106.062683 
L 138.391736 -105.376763 
L 135.624793 -104.606859 
L 132.857851 -103.817668 
L 130.090909 -103.090375 
L 127.323967 -102.521159 
L 124.557025 -102.220044 
L 121.790083 -102.310054 
L 119.02314 -102.926073 
L 116.256198 -104.210943 
L 113.489256 -106.302396 
L 110.722314 -109.302101 
L 107.955372 -113.229913 
L 105.18843 -117.994429 
L 102.421488 -123.411974 
L 99.654545 -129.259345 
L 96.887603 -135.320559 
L 94.120661 -141.41104 
L 91.353719 -147.384747 
L 88.586777 -153.132146 
L 85.819835 -158.573239 
L 83.052893 -163.64814 
L 80.28595 -168.307875 
L 77.519008 -172.508119 
L 74.752066 -176.207379 
L 71.985124 -179.369183 
L 69.218182 -181.966412 
z
" id="m1782cb2271" style="stroke:#add8e6;stroke-opacity:0.2;"/>
    </defs>
    <g clip-path="url(#p580786172c)">
     <use style="fill:#add8e6;fill-opacity:0.2;stroke:#add8e6;stroke-opacity:0.2;" x="0" xlink:href="#m1782cb2271" y="288"/>
    </g>
   </g>
   <g id="PathCollection_1">
    <defs>
     <path d="M 0 0.612372 
C 0.162403 0.612372 0.318176 0.547849 0.433013 0.433013 
C 0.547849 0.318176 0.612372 0.162403 0.612372 0 
C 0.612372 -0.162403 0.547849 -0.318176 0.433013 -0.433013 
C 0.318176 -0.547849 0.162403 -0.612372 0 -0.612372 
C -0.162403 -0.612372 -0.318176 -0.547849 -0.433013 -0.433013 
C -0.547849 -0.318176 -0.612372 -0.162403 -0.612372 0 
C -0.612372 0.162403 -0.547849 0.318176 -0.433013 0.433013 
C -0.318176 0.547849 -0.162403 0.612372 0 0.612372 
z
" id="me8d9280de5" style="stroke:#ff0000;stroke-width:8;"/>
    </defs>
    <g clip-path="url(#p580786172c)">
     <use style="fill:#ff0000;stroke:#ff0000;stroke-width:8;" x="296.107438" xlink:href="#me8d9280de5" y="241.234306"/>
    </g>
   </g>
   <g id="matplotlib.axis_1">
    <g id="xtick_1">
     <g id="line2d_1">
      <defs>
       <path d="M 0 0 
L 0 3.5 
" id="m596d6123a4" style="stroke:#000000;stroke-width:0.8;"/>
      </defs>
      <g>
       <use style="stroke:#000000;stroke-width:0.8;" x="69.218182" xlink:href="#m596d6123a4" y="252"/>
      </g>
     </g>
     <g id="text_1">
      <!-- 0 -->
      <g transform="translate(66.036932 266.598437)scale(0.1 -0.1)">
       <defs>
        <path d="M 2034 4250 
Q 1547 4250 1301 3770 
Q 1056 3291 1056 2328 
Q 1056 1369 1301 889 
Q 1547 409 2034 409 
Q 2525 409 2770 889 
Q 3016 1369 3016 2328 
Q 3016 3291 2770 3770 
Q 2525 4250 2034 4250 
z
M 2034 4750 
Q 2819 4750 3233 4129 
Q 3647 3509 3647 2328 
Q 3647 1150 3233 529 
Q 2819 -91 2034 -91 
Q 1250 -91 836 529 
Q 422 1150 422 2328 
Q 422 3509 836 4129 
Q 1250 4750 2034 4750 
z
" id="DejaVuSans-30" transform="scale(0.015625)"/>
       </defs>
       <use xlink:href="#DejaVuSans-30"/>
      </g>
     </g>
    </g>
    <g id="xtick_2">
     <g id="line2d_2">
      <g>
       <use style="stroke:#000000;stroke-width:0.8;" x="124.557025" xlink:href="#m596d6123a4" y="252"/>
      </g>
     </g>
     <g id="text_2">
      <!-- 2 -->
      <g transform="translate(121.375775 266.598437)scale(0.1 -0.1)">
       <defs>
        <path d="M 1228 531 
L 3431 531 
L 3431 0 
L 469 0 
L 469 531 
Q 828 903 1448 1529 
Q 2069 2156 2228 2338 
Q 2531 2678 2651 2914 
Q 2772 3150 2772 3378 
Q 2772 3750 2511 3984 
Q 2250 4219 1831 4219 
Q 1534 4219 1204 4116 
Q 875 4013 500 3803 
L 500 4441 
Q 881 4594 1212 4672 
Q 1544 4750 1819 4750 
Q 2544 4750 2975 4387 
Q 3406 4025 3406 3419 
Q 3406 3131 3298 2873 
Q 3191 2616 2906 2266 
Q 2828 2175 2409 1742 
Q 1991 1309 1228 531 
z
" id="DejaVuSans-32" transform="scale(0.015625)"/>
       </defs>
       <use xlink:href="#DejaVuSans-32"/>
      </g>
     </g>
    </g>
    <g id="xtick_3">
     <g id="line2d_3">
      <g>
       <use style="stroke:#000000;stroke-width:0.8;" x="179.895868" xlink:href="#m596d6123a4" y="252"/>
      </g>
     </g>
     <g id="text_3">
      <!-- 4 -->
      <g transform="translate(176.714618 266.598437)scale(0.1 -0.1)">
       <defs>
        <path d="M 2419 4116 
L 825 1625 
L 2419 1625 
L 2419 4116 
z
M 2253 4666 
L 3047 4666 
L 3047 1625 
L 3713 1625 
L 3713 1100 
L 3047 1100 
L 3047 0 
L 2419 0 
L 2419 1100 
L 313 1100 
L 313 1709 
L 2253 4666 
z
" id="DejaVuSans-34" transform="scale(0.015625)"/>
       </defs>
       <use xlink:href="#DejaVuSans-34"/>
      </g>
     </g>
    </g>
    <g id="xtick_4">
     <g id="line2d_4">
      <g>
       <use style="stroke:#000000;stroke-width:0.8;" x="235.234711" xlink:href="#m596d6123a4" y="252"/>
      </g>
     </g>
     <g id="text_4">
      <!-- 6 -->
      <g transform="translate(232.053461 266.598437)scale(0.1 -0.1)">
       <defs>
        <path d="M 2113 2584 
Q 1688 2584 1439 2293 
Q 1191 2003 1191 1497 
Q 1191 994 1439 701 
Q 1688 409 2113 409 
Q 2538 409 2786 701 
Q 3034 994 3034 1497 
Q 3034 2003 2786 2293 
Q 2538 2584 2113 2584 
z
M 3366 4563 
L 3366 3988 
Q 3128 4100 2886 4159 
Q 2644 4219 2406 4219 
Q 1781 4219 1451 3797 
Q 1122 3375 1075 2522 
Q 1259 2794 1537 2939 
Q 1816 3084 2150 3084 
Q 2853 3084 3261 2657 
Q 3669 2231 3669 1497 
Q 3669 778 3244 343 
Q 2819 -91 2113 -91 
Q 1303 -91 875 529 
Q 447 1150 447 2328 
Q 447 3434 972 4092 
Q 1497 4750 2381 4750 
Q 2619 4750 2861 4703 
Q 3103 4656 3366 4563 
z
" id="DejaVuSans-36" transform="scale(0.015625)"/>
       </defs>
       <use xlink:href="#DejaVuSans-36"/>
      </g>
     </g>
    </g>
    <g id="xtick_5">
     <g id="line2d_5">
      <g>
       <use style="stroke:#000000;stroke-width:0.8;" x="290.573554" xlink:href="#m596d6123a4" y="252"/>
      </g>
     </g>
     <g id="text_5">
      <!-- 8 -->
      <g transform="translate(287.392304 266.598437)scale(0.1 -0.1)">
       <defs>
        <path d="M 2034 2216 
Q 1584 2216 1326 1975 
Q 1069 1734 1069 1313 
Q 1069 891 1326 650 
Q 1584 409 2034 409 
Q 2484 409 2743 651 
Q 3003 894 3003 1313 
Q 3003 1734 2745 1975 
Q 2488 2216 2034 2216 
z
M 1403 2484 
Q 997 2584 770 2862 
Q 544 3141 544 3541 
Q 544 4100 942 4425 
Q 1341 4750 2034 4750 
Q 2731 4750 3128 4425 
Q 3525 4100 3525 3541 
Q 3525 3141 3298 2862 
Q 3072 2584 2669 2484 
Q 3125 2378 3379 2068 
Q 3634 1759 3634 1313 
Q 3634 634 3220 271 
Q 2806 -91 2034 -91 
Q 1263 -91 848 271 
Q 434 634 434 1313 
Q 434 1759 690 2068 
Q 947 2378 1403 2484 
z
M 1172 3481 
Q 1172 3119 1398 2916 
Q 1625 2713 2034 2713 
Q 2441 2713 2670 2916 
Q 2900 3119 2900 3481 
Q 2900 3844 2670 4047 
Q 2441 4250 2034 4250 
Q 1625 4250 1398 4047 
Q 1172 3844 1172 3481 
z
" id="DejaVuSans-38" transform="scale(0.015625)"/>
       </defs>
       <use xlink:href="#DejaVuSans-38"/>
      </g>
     </g>
    </g>
    <g id="xtick_6">
     <g id="line2d_6">
      <g>
       <use style="stroke:#000000;stroke-width:0.8;" x="345.912397" xlink:href="#m596d6123a4" y="252"/>
      </g>
     </g>
     <g id="text_6">
      <!-- 10 -->
      <g transform="translate(339.549897 266.598437)scale(0.1 -0.1)">
       <defs>
        <path d="M 794 531 
L 1825 531 
L 1825 4091 
L 703 3866 
L 703 4441 
L 1819 4666 
L 2450 4666 
L 2450 531 
L 3481 531 
L 3481 0 
L 794 0 
L 794 531 
z
" id="DejaVuSans-31" transform="scale(0.015625)"/>
       </defs>
       <use xlink:href="#DejaVuSans-31"/>
       <use x="63.623047" xlink:href="#DejaVuSans-30"/>
      </g>
     </g>
    </g>
    <g id="text_7">
     <!-- x -->
     <g transform="translate(217.84875 281.79625)scale(0.12 -0.12)">
      <defs>
       <path d="M 3513 3500 
L 2247 1797 
L 3578 0 
L 2900 0 
L 1881 1375 
L 863 0 
L 184 0 
L 1544 1831 
L 300 3500 
L 978 3500 
L 1906 2253 
L 2834 3500 
L 3513 3500 
z
" id="DejaVuSans-78" transform="scale(0.015625)"/>
      </defs>
      <use xlink:href="#DejaVuSans-78"/>
     </g>
    </g>
   </g>
   <g id="matplotlib.axis_2">
    <g id="ytick_1">
     <g id="line2d_7">
      <defs>
       <path d="M 0 0 
L -3.5 0 
" id="m9500797add" style="stroke:#000000;stroke-width:0.8;"/>
      </defs>
      <g>
       <use style="stroke:#000000;stroke-width:0.8;" x="54" xlink:href="#m9500797add" y="252"/>
      </g>
     </g>
     <g id="text_8">
      <!-- 3 -->
      <g transform="translate(40.6375 255.799219)scale(0.1 -0.1)">
       <defs>
        <path d="M 2597 2516 
Q 3050 2419 3304 2112 
Q 3559 1806 3559 1356 
Q 3559 666 3084 287 
Q 2609 -91 1734 -91 
Q 1441 -91 1130 -33 
Q 819 25 488 141 
L 488 750 
Q 750 597 1062 519 
Q 1375 441 1716 441 
Q 2309 441 2620 675 
Q 2931 909 2931 1356 
Q 2931 1769 2642 2001 
Q 2353 2234 1838 2234 
L 1294 2234 
L 1294 2753 
L 1863 2753 
Q 2328 2753 2575 2939 
Q 2822 3125 2822 3475 
Q 2822 3834 2567 4026 
Q 2313 4219 1838 4219 
Q 1578 4219 1281 4162 
Q 984 4106 628 3988 
L 628 4550 
Q 988 4650 1302 4700 
Q 1616 4750 1894 4750 
Q 2613 4750 3031 4423 
Q 3450 4097 3450 3541 
Q 3450 3153 3228 2886 
Q 3006 2619 2597 2516 
z
" id="DejaVuSans-33" transform="scale(0.015625)"/>
       </defs>
       <use xlink:href="#DejaVuSans-33"/>
      </g>
     </g>
    </g>
    <g id="ytick_2">
     <g id="line2d_8">
      <g>
       <use style="stroke:#000000;stroke-width:0.8;" x="54" xlink:href="#m9500797add" y="215.76"/>
      </g>
     </g>
     <g id="text_9">
      <!-- 4 -->
      <g transform="translate(40.6375 219.559219)scale(0.1 -0.1)">
       <use xlink:href="#DejaVuSans-34"/>
      </g>
     </g>
    </g>
    <g id="ytick_3">
     <g id="line2d_9">
      <g>
       <use style="stroke:#000000;stroke-width:0.8;" x="54" xlink:href="#m9500797add" y="179.52"/>
      </g>
     </g>
     <g id="text_10">
      <!-- 5 -->
      <g transform="translate(40.6375 183.319219)scale(0.1 -0.1)">
       <defs>
        <path d="M 691 4666 
L 3169 4666 
L 3169 4134 
L 1269 4134 
L 1269 2991 
Q 1406 3038 1543 3061 
Q 1681 3084 1819 3084 
Q 2600 3084 3056 2656 
Q 3513 2228 3513 1497 
Q 3513 744 3044 326 
Q 2575 -91 1722 -91 
Q 1428 -91 1123 -41 
Q 819 9 494 109 
L 494 744 
Q 775 591 1075 516 
Q 1375 441 1709 441 
Q 2250 441 2565 725 
Q 2881 1009 2881 1497 
Q 2881 1984 2565 2268 
Q 2250 2553 1709 2553 
Q 1456 2553 1204 2497 
Q 953 2441 691 2322 
L 691 4666 
z
" id="DejaVuSans-35" transform="scale(0.015625)"/>
       </defs>
       <use xlink:href="#DejaVuSans-35"/>
      </g>
     </g>
    </g>
    <g id="ytick_4">
     <g id="line2d_10">
      <g>
       <use style="stroke:#000000;stroke-width:0.8;" x="54" xlink:href="#m9500797add" y="143.28"/>
      </g>
     </g>
     <g id="text_11">
      <!-- 6 -->
      <g transform="translate(40.6375 147.079219)scale(0.1 -0.1)">
       <use xlink:href="#DejaVuSans-36"/>
      </g>
     </g>
    </g>
    <g id="ytick_5">
     <g id="line2d_11">
      <g>
       <use style="stroke:#000000;stroke-width:0.8;" x="54" xlink:href="#m9500797add" y="107.04"/>
      </g>
     </g>
     <g id="text_12">
      <!-- 7 -->
      <g transform="translate(40.6375 110.839219)scale(0.1 -0.1)">
       <defs>
        <path d="M 525 4666 
L 3525 4666 
L 3525 4397 
L 1831 0 
L 1172 0 
L 2766 4134 
L 525 4134 
L 525 4666 
z
" id="DejaVuSans-37" transform="scale(0.015625)"/>
       </defs>
       <use xlink:href="#DejaVuSans-37"/>
      </g>
     </g>
    </g>
    <g id="ytick_6">
     <g id="line2d_12">
      <g>
       <use style="stroke:#000000;stroke-width:0.8;" x="54" xlink:href="#m9500797add" y="70.8"/>
      </g>
     </g>
     <g id="text_13">
      <!-- 8 -->
      <g transform="translate(40.6375 74.599219)scale(0.1 -0.1)">
       <use xlink:href="#DejaVuSans-38"/>
      </g>
     </g>
    </g>
    <g id="ytick_7">
     <g id="line2d_13">
      <g>
       <use style="stroke:#000000;stroke-width:0.8;" x="54" xlink:href="#m9500797add" y="34.56"/>
      </g>
     </g>
     <g id="text_14">
      <!-- 9 -->
      <g transform="translate(40.6375 38.359219)scale(0.1 -0.1)">
       <defs>
        <path d="M 703 97 
L 703 672 
Q 941 559 1184 500 
Q 1428 441 1663 441 
Q 2288 441 2617 861 
Q 2947 1281 2994 2138 
Q 2813 1869 2534 1725 
Q 2256 1581 1919 1581 
Q 1219 1581 811 2004 
Q 403 2428 403 3163 
Q 403 3881 828 4315 
Q 1253 4750 1959 4750 
Q 2769 4750 3195 4129 
Q 3622 3509 3622 2328 
Q 3622 1225 3098 567 
Q 2575 -91 1691 -91 
Q 1453 -91 1209 -44 
Q 966 3 703 97 
z
M 1959 2075 
Q 2384 2075 2632 2365 
Q 2881 2656 2881 3163 
Q 2881 3666 2632 3958 
Q 2384 4250 1959 4250 
Q 1534 4250 1286 3958 
Q 1038 3666 1038 3163 
Q 1038 2656 1286 2365 
Q 1534 2075 1959 2075 
z
" id="DejaVuSans-39" transform="scale(0.015625)"/>
       </defs>
       <use xlink:href="#DejaVuSans-39"/>
      </g>
     </g>
    </g>
    <g id="text_15">
     <!-- y -->
     <g transform="translate(34.141875 146.83125)rotate(-90)scale(0.12 -0.12)">
      <defs>
       <path d="M 2059 -325 
Q 1816 -950 1584 -1140 
Q 1353 -1331 966 -1331 
L 506 -1331 
L 506 -850 
L 844 -850 
Q 1081 -850 1212 -737 
Q 1344 -625 1503 -206 
L 1606 56 
L 191 3500 
L 800 3500 
L 1894 763 
L 2988 3500 
L 3597 3500 
L 2059 -325 
z
" id="DejaVuSans-79" transform="scale(0.015625)"/>
      </defs>
      <use xlink:href="#DejaVuSans-79"/>
     </g>
    </g>
   </g>
   <g id="line2d_14">
    <path clip-path="url(#p580786172c)" d="M 69.218182 70.8 
L 71.985124 85.083949 
L 74.752066 98.25467 
L 77.519008 110.364828 
L 80.28595 121.465955 
L 83.052893 131.608455 
L 85.819835 140.841599 
L 88.586777 149.213528 
L 91.353719 156.771253 
L 94.120661 163.560654 
L 96.887603 169.62648 
L 99.654545 175.012349 
L 102.421488 179.76075 
L 105.18843 183.913038 
L 107.955372 187.509441 
L 110.722314 190.589055 
L 113.489256 193.189844 
L 116.256198 195.348643 
L 119.02314 197.101155 
L 121.790083 198.481953 
L 124.557025 199.52448 
L 127.323967 200.261047 
L 130.090909 200.722835 
L 132.857851 200.939895 
L 135.624793 200.941145 
L 138.391736 200.754375 
L 141.158678 200.406243 
L 143.92562 199.922276 
L 146.692562 199.326871 
L 149.459504 198.643294 
L 152.226446 197.89368 
L 154.993388 197.099035 
L 157.760331 196.279231 
L 160.527273 195.453014 
L 163.294215 194.637994 
L 166.061157 193.850655 
L 168.828099 193.106347 
L 171.595041 192.419291 
L 174.361983 191.802577 
L 177.128926 191.268164 
L 179.895868 190.82688 
L 182.66281 190.488424 
L 185.429752 190.261362 
L 188.196694 190.153131 
L 190.963636 190.170037 
L 193.730579 190.317255 
L 196.497521 190.598829 
L 199.264463 191.017673 
L 202.031405 191.575569 
L 204.798347 192.273171 
L 207.565289 193.11 
L 210.332231 194.084446 
L 213.099174 195.193771 
L 215.866116 196.434103 
L 218.633058 197.800442 
L 221.4 199.286655 
L 224.166942 200.88548 
L 226.933884 202.588525 
L 229.700826 204.386264 
L 232.467769 206.268045 
L 235.234711 208.22208 
L 238.001653 210.235455 
L 240.768595 212.294122 
L 243.535537 214.382905 
L 246.302479 216.485496 
L 249.069421 218.584455 
L 251.836364 220.661214 
L 254.603306 222.696071 
L 257.370248 224.668198 
L 260.13719 226.555631 
L 262.904132 228.33528 
L 265.671074 229.982921 
L 268.438017 231.4732 
L 271.204959 232.779634 
L 273.971901 233.874607 
L 276.738843 234.729375 
L 279.505785 235.31406 
L 282.272727 235.597656 
L 285.039669 235.548026 
L 287.806612 235.1319 
L 290.573554 234.31488 
L 293.340496 233.061436 
L 296.107438 231.334908 
L 298.87438 229.097505 
L 301.641322 226.310305 
L 304.408264 222.933255 
L 307.175207 218.925173 
L 309.942149 214.243744 
L 312.709091 208.845524 
L 315.476033 202.685938 
L 318.242975 195.71928 
L 321.009917 187.898713 
L 323.77686 179.176271 
L 326.543802 169.502854 
L 329.310744 158.828236 
L 332.077686 147.101055 
L 334.844628 134.268823 
L 337.61157 120.277918 
L 340.378512 105.073589 
L 343.145455 88.599954 
L 345.912397 70.8 
L 348.679339 51.615584 
L 351.446281 30.987432 
L 354.213223 8.855138 
L 355.363895 -1 
" style="fill:none;stroke:#0000ff;stroke-linecap:square;stroke-width:2;"/>
   </g>
   <g id="line2d_15">
    <path clip-path="url(#p580786172c)" d="M 69.218182 168.481372 
L 71.985124 166.595445 
L 74.752066 165.405566 
L 77.519008 164.985937 
L 80.28595 165.373684 
L 83.052893 166.561151 
L 85.819835 168.49298 
L 88.586777 171.070074 
L 91.353719 174.160914 
L 94.120661 177.61854 
L 96.887603 181.300065 
L 99.654545 185.085473 
L 102.421488 188.892457 
L 105.18843 192.682267 
L 107.955372 196.447803 
L 110.722314 200.177643 
L 113.489256 203.811873 
L 116.256198 207.228933 
L 119.02314 210.277827 
L 121.790083 212.823484 
L 124.557025 214.774288 
L 127.323967 216.089048 
L 130.090909 216.772653 
L 132.857851 216.867466 
L 135.624793 216.443666 
L 138.391736 215.589869 
L 141.158678 214.404749 
L 143.92562 212.990243 
L 146.692562 211.446706 
L 149.459504 209.870152 
L 152.226446 208.351111 
L 154.993388 206.973942 
L 157.760331 205.814522 
L 160.527273 204.93395 
L 163.294215 204.367592 
L 166.061157 204.113449 
L 168.828099 204.128131 
L 171.595041 204.336297 
L 174.361983 204.650517 
L 177.128926 204.992742 
L 179.895868 205.31051 
L 182.66281 205.585533 
L 185.429752 205.834571 
L 188.196694 206.102772 
L 190.963636 206.450333 
L 193.730579 206.935504 
L 196.497521 207.599227 
L 199.264463 208.456565 
L 202.031405 209.49663 
L 204.798347 210.688814 
L 207.565289 211.991503 
L 210.332231 213.360297 
L 213.099174 214.754368 
L 215.866116 216.140714 
L 218.633058 217.496569 
L 221.4 218.810289 
L 224.166942 220.081016 
L 226.933884 221.317357 
L 229.700826 222.535299 
L 232.467769 223.755576 
L 235.234711 225.000745 
L 238.001653 226.292201 
L 240.768595 227.647425 
L 243.535537 229.077685 
L 246.302479 230.586399 
L 249.069421 232.168306 
L 251.836364 233.809474 
L 254.603306 235.488133 
L 257.370248 237.176214 
L 260.13719 238.841436 
L 262.904132 240.449751 
L 265.671074 241.967995 
L 268.438017 243.366602 
L 271.204959 244.622382 
L 273.971901 245.7214 
L 276.738843 246.662142 
L 279.505785 247.45887 
L 282.272727 248.143889 
L 285.039669 248.763807 
L 287.806612 249.358018 
L 290.573554 249.906916 
L 293.340496 250.267931 
L 296.107438 250.165269 
L 298.87438 249.264729 
L 301.641322 247.269107 
L 304.408264 243.970707 
L 307.175207 239.262158 
L 309.942149 233.129192 
L 312.709091 225.638621 
L 315.476033 216.92452 
L 318.242975 207.172131 
L 321.009917 196.599685 
L 323.77686 185.440961 
L 326.543802 173.933687 
L 329.310744 162.317653 
L 332.077686 150.841605 
L 334.844628 139.773081 
L 337.61157 129.403948 
L 340.378512 120.045378 
L 343.145455 112.007896 
L 345.912397 105.567044 
L 348.679339 100.925069 
L 351.446281 98.185724 
L 354.213223 97.351863 
L 356.980165 98.340322 
L 359.747107 101.002412 
L 362.51405 105.142717 
L 365.280992 110.534681 
L 368.047934 116.933781 
L 370.814876 124.089162 
L 373.581818 131.754028 
" style="fill:none;stroke:#008000;stroke-dasharray:3.7,1.6;stroke-dashoffset:0;"/>
   </g>
   <g id="line2d_16">
    <path clip-path="url(#p580786172c)" d="M 69.218182 106.033588 
L 71.985124 108.630817 
L 74.752066 111.792621 
L 77.519008 115.491881 
L 80.28595 119.692125 
L 83.052893 124.35186 
L 85.819835 129.426761 
L 88.586777 134.867854 
L 91.353719 140.615253 
L 94.120661 146.58896 
L 96.887603 152.679441 
L 99.654545 158.740655 
L 102.421488 164.588026 
L 105.18843 170.005571 
L 107.955372 174.770087 
L 110.722314 178.697899 
L 113.489256 181.697604 
L 116.256198 183.789057 
L 119.02314 185.073927 
L 121.790083 185.689946 
L 124.557025 185.779956 
L 127.323967 185.478841 
L 130.090909 184.909625 
L 132.857851 184.182332 
L 135.624793 183.393141 
L 138.391736 182.623237 
L 141.158678 181.937317 
L 143.92562 181.381802 
L 146.692562 180.982803 
L 149.459504 180.744047 
L 152.226446 180.645342 
L 154.993388 180.642731 
L 157.760331 180.672219 
L 160.527273 180.659159 
L 163.294215 180.533572 
L 166.061157 180.247008 
L 168.828099 179.782215 
L 171.595041 179.149339 
L 174.361983 178.371343 
L 177.128926 177.467155 
L 179.895868 176.439204 
L 182.66281 175.267577 
L 185.429752 173.910865 
L 188.196694 172.313541 
L 190.963636 170.419124 
L 193.730579 168.186268 
L 196.497521 165.602644 
L 199.264463 162.691672 
L 202.031405 159.510567 
L 204.798347 156.142062 
L 207.565289 152.683781 
L 210.332231 149.23833 
L 213.099174 145.905543 
L 215.866116 142.777142 
L 218.633058 139.933555 
L 221.4 137.442501 
L 224.166942 135.358986 
L 226.933884 133.726384 
L 229.700826 132.578274 
L 232.467769 131.940724 
L 235.234711 131.8347 
L 238.001653 132.278257 
L 240.768595 133.288218 
L 243.535537 134.88107 
L 246.302479 137.072887 
L 249.069421 139.878179 
L 251.836364 143.307691 
L 254.603306 147.365257 
L 257.370248 152.043946 
L 260.13719 157.321757 
L 262.904132 163.157185 
L 265.671074 169.484958 
L 268.438017 176.212186 
L 271.204959 183.215087 
L 273.971901 190.336332 
L 276.738843 197.382991 
L 279.505785 204.125269 
L 282.272727 210.297396 
L 285.039669 215.605734 
L 287.806612 219.755871 
L 290.573554 222.511249 
L 293.340496 223.765181 
L 296.107438 223.560256 
L 298.87438 222.023523 
L 301.641322 219.281636 
L 304.408264 215.41898 
L 307.175207 210.477018 
L 309.942149 204.470581 
L 312.709091 197.407159 
L 315.476033 189.305493 
L 318.242975 180.213325 
L 321.009917 170.223606 
L 323.77686 159.485993 
L 326.543802 148.208499 
L 329.310744 136.645571 
L 332.077686 125.074087 
L 334.844628 113.763823 
L 337.61157 102.95071 
L 340.378512 92.820294 
L 343.145455 83.507086 
L 345.912397 75.110483 
L 348.679339 67.718038 
L 351.446281 61.419889 
L 354.213223 56.30532 
L 356.980165 52.447248 
L 359.747107 49.886239 
L 362.51405 48.620906 
L 365.280992 48.605496 
L 368.047934 49.75285 
L 370.814876 51.940768 
L 373.581818 55.02025 
" style="fill:none;stroke:#008000;stroke-dasharray:3.7,1.6;stroke-dashoffset:0;"/>
   </g>
   <g id="line2d_17">
    <path clip-path="url(#p580786172c)" d="M 69.218182 251.694131 
L 71.985124 251.615524 
L 74.752066 251.564989 
L 77.519008 251.670384 
L 80.28595 251.687155 
L 83.052893 251.766807 
L 85.819835 251.860082 
L 88.586777 251.958372 
L 91.353719 252.010828 
L 94.120661 252.182958 
L 96.887603 252.303762 
L 99.654545 252.204866 
L 102.421488 252.284738 
L 105.18843 252.438456 
L 107.955372 252.494292 
L 110.722314 252.623667 
L 113.489256 252.466382 
L 116.256198 252.445309 
L 119.02314 252.378272 
L 121.790083 252.339098 
L 124.557025 252.365748 
L 127.323967 252.446359 
L 130.090909 252.40622 
L 132.857851 252.443207 
L 135.624793 252.469499 
L 138.391736 252.48466 
L 141.158678 252.618856 
L 143.92562 252.64144 
L 146.692562 252.700667 
L 149.459504 252.590715 
L 152.226446 252.430905 
L 154.993388 252.622553 
L 157.760331 252.492793 
L 160.527273 252.53364 
L 163.294215 252.581127 
L 166.061157 252.616297 
L 168.828099 252.508864 
L 171.595041 252.46428 
L 174.361983 252.42407 
L 177.128926 252.403593 
L 179.895868 252.419919 
L 182.66281 252.435325 
L 185.429752 252.482303 
L 188.196694 252.501506 
L 190.963636 252.561007 
L 193.730579 252.574525 
L 196.497521 252.526298 
L 199.264463 252.587591 
L 202.031405 252.499192 
L 204.798347 252.433674 
L 207.565289 252.549285 
L 210.332231 252.170281 
L 213.099174 252.045669 
L 215.866116 251.836629 
L 218.633058 252.08821 
L 221.4 252.056869 
L 224.166942 251.363106 
L 226.933884 251.629595 
L 229.700826 252.324082 
L 232.467769 251.709061 
L 235.234711 251.533566 
L 238.001653 252.170816 
L 240.768595 251.684869 
L 243.535537 250.855241 
L 246.302479 250.445157 
L 249.069421 251.148949 
L 251.836364 250.479941 
L 254.603306 248.776534 
L 257.370248 250.147338 
L 260.13719 252.075453 
L 262.904132 249.875776 
L 265.671074 248.30737 
L 268.438017 249.367193 
L 271.204959 250.923719 
L 273.971901 250.186466 
L 276.738843 250.545203 
L 279.505785 249.675134 
L 282.272727 249.631641 
L 285.039669 249.255989 
L 287.806612 250.283116 
L 290.573554 252.796409 
L 293.340496 250.346825 
L 296.107438 241.234306 
L 298.87438 253.769884 
L 301.641322 247.551269 
L 304.408264 249.165258 
L 307.175207 249.492534 
L 309.942149 249.976654 
L 312.709091 252.713986 
L 315.476033 250.441493 
L 318.242975 253.337759 
L 321.009917 251.903387 
L 323.77686 252.402107 
L 326.543802 252.805242 
L 329.310744 251.53156 
L 332.077686 250.427075 
L 334.844628 250.523097 
L 337.61157 251.573159 
L 340.378512 250.989647 
L 343.145455 249.807502 
L 345.912397 250.771083 
L 348.679339 250.729337 
L 351.446281 250.894261 
L 354.213223 250.547765 
L 356.980165 250.331553 
L 359.747107 249.108521 
L 362.51405 249.749134 
L 365.280992 250.270471 
L 368.047934 250.111633 
L 370.814876 250.088365 
L 373.581818 250.848562 
" style="fill:none;stroke:#bfbf00;stroke-dasharray:7.4,3.2;stroke-dashoffset:0;stroke-width:2;"/>
   </g>
   <g id="patch_3">
    <path d="M 54 252 
L 54 34.56 
" style="fill:none;stroke:#000000;stroke-linecap:square;stroke-linejoin:miter;stroke-width:0.8;"/>
   </g>
   <g id="patch_4">
    <path d="M 388.8 252 
L 388.8 34.56 
" style="fill:none;stroke:#000000;stroke-linecap:square;stroke-linejoin:miter;stroke-width:0.8;"/>
   </g>
   <g id="patch_5">
    <path d="M 54 252 
L 388.8 252 
" style="fill:none;stroke:#000000;stroke-linecap:square;stroke-linejoin:miter;stroke-width:0.8;"/>
   </g>
   <g id="patch_6">
    <path d="M 54 34.56 
L 388.8 34.56 
" style="fill:none;stroke:#000000;stroke-linecap:square;stroke-linejoin:miter;stroke-width:0.8;"/>
   </g>
   <g id="text_16">
    <!-- Method : KG -->
    <g transform="translate(71.985124 244.752)scale(0.12 -0.12)">
     <defs>
      <path d="M 628 4666 
L 1569 4666 
L 2759 1491 
L 3956 4666 
L 4897 4666 
L 4897 0 
L 4281 0 
L 4281 4097 
L 3078 897 
L 2444 897 
L 1241 4097 
L 1241 0 
L 628 0 
L 628 4666 
z
" id="DejaVuSans-4d" transform="scale(0.015625)"/>
      <path d="M 3597 1894 
L 3597 1613 
L 953 1613 
Q 991 1019 1311 708 
Q 1631 397 2203 397 
Q 2534 397 2845 478 
Q 3156 559 3463 722 
L 3463 178 
Q 3153 47 2828 -22 
Q 2503 -91 2169 -91 
Q 1331 -91 842 396 
Q 353 884 353 1716 
Q 353 2575 817 3079 
Q 1281 3584 2069 3584 
Q 2775 3584 3186 3129 
Q 3597 2675 3597 1894 
z
M 3022 2063 
Q 3016 2534 2758 2815 
Q 2500 3097 2075 3097 
Q 1594 3097 1305 2825 
Q 1016 2553 972 2059 
L 3022 2063 
z
" id="DejaVuSans-65" transform="scale(0.015625)"/>
      <path d="M 1172 4494 
L 1172 3500 
L 2356 3500 
L 2356 3053 
L 1172 3053 
L 1172 1153 
Q 1172 725 1289 603 
Q 1406 481 1766 481 
L 2356 481 
L 2356 0 
L 1766 0 
Q 1100 0 847 248 
Q 594 497 594 1153 
L 594 3053 
L 172 3053 
L 172 3500 
L 594 3500 
L 594 4494 
L 1172 4494 
z
" id="DejaVuSans-74" transform="scale(0.015625)"/>
      <path d="M 3513 2113 
L 3513 0 
L 2938 0 
L 2938 2094 
Q 2938 2591 2744 2837 
Q 2550 3084 2163 3084 
Q 1697 3084 1428 2787 
Q 1159 2491 1159 1978 
L 1159 0 
L 581 0 
L 581 4863 
L 1159 4863 
L 1159 2956 
Q 1366 3272 1645 3428 
Q 1925 3584 2291 3584 
Q 2894 3584 3203 3211 
Q 3513 2838 3513 2113 
z
" id="DejaVuSans-68" transform="scale(0.015625)"/>
      <path d="M 1959 3097 
Q 1497 3097 1228 2736 
Q 959 2375 959 1747 
Q 959 1119 1226 758 
Q 1494 397 1959 397 
Q 2419 397 2687 759 
Q 2956 1122 2956 1747 
Q 2956 2369 2687 2733 
Q 2419 3097 1959 3097 
z
M 1959 3584 
Q 2709 3584 3137 3096 
Q 3566 2609 3566 1747 
Q 3566 888 3137 398 
Q 2709 -91 1959 -91 
Q 1206 -91 779 398 
Q 353 888 353 1747 
Q 353 2609 779 3096 
Q 1206 3584 1959 3584 
z
" id="DejaVuSans-6f" transform="scale(0.015625)"/>
      <path d="M 2906 2969 
L 2906 4863 
L 3481 4863 
L 3481 0 
L 2906 0 
L 2906 525 
Q 2725 213 2448 61 
Q 2172 -91 1784 -91 
Q 1150 -91 751 415 
Q 353 922 353 1747 
Q 353 2572 751 3078 
Q 1150 3584 1784 3584 
Q 2172 3584 2448 3432 
Q 2725 3281 2906 2969 
z
M 947 1747 
Q 947 1113 1208 752 
Q 1469 391 1925 391 
Q 2381 391 2643 752 
Q 2906 1113 2906 1747 
Q 2906 2381 2643 2742 
Q 2381 3103 1925 3103 
Q 1469 3103 1208 2742 
Q 947 2381 947 1747 
z
" id="DejaVuSans-64" transform="scale(0.015625)"/>
      <path id="DejaVuSans-20" transform="scale(0.015625)"/>
      <path d="M 750 794 
L 1409 794 
L 1409 0 
L 750 0 
L 750 794 
z
M 750 3309 
L 1409 3309 
L 1409 2516 
L 750 2516 
L 750 3309 
z
" id="DejaVuSans-3a" transform="scale(0.015625)"/>
      <path d="M 628 4666 
L 1259 4666 
L 1259 2694 
L 3353 4666 
L 4166 4666 
L 1850 2491 
L 4331 0 
L 3500 0 
L 1259 2247 
L 1259 0 
L 628 0 
L 628 4666 
z
" id="DejaVuSans-4b" transform="scale(0.015625)"/>
      <path d="M 3809 666 
L 3809 1919 
L 2778 1919 
L 2778 2438 
L 4434 2438 
L 4434 434 
Q 4069 175 3628 42 
Q 3188 -91 2688 -91 
Q 1594 -91 976 548 
Q 359 1188 359 2328 
Q 359 3472 976 4111 
Q 1594 4750 2688 4750 
Q 3144 4750 3555 4637 
Q 3966 4525 4313 4306 
L 4313 3634 
Q 3963 3931 3569 4081 
Q 3175 4231 2741 4231 
Q 1884 4231 1454 3753 
Q 1025 3275 1025 2328 
Q 1025 1384 1454 906 
Q 1884 428 2741 428 
Q 3075 428 3337 486 
Q 3600 544 3809 666 
z
" id="DejaVuSans-47" transform="scale(0.015625)"/>
     </defs>
     <use xlink:href="#DejaVuSans-4d"/>
     <use x="86.279297" xlink:href="#DejaVuSans-65"/>
     <use x="147.802734" xlink:href="#DejaVuSans-74"/>
     <use x="187.011719" xlink:href="#DejaVuSans-68"/>
     <use x="250.390625" xlink:href="#DejaVuSans-6f"/>
     <use x="311.572266" xlink:href="#DejaVuSans-64"/>
     <use x="375.048828" xlink:href="#DejaVuSans-20"/>
     <use x="406.835938" xlink:href="#DejaVuSans-3a"/>
     <use x="440.527344" xlink:href="#DejaVuSans-20"/>
     <use x="472.314453" xlink:href="#DejaVuSans-4b"/>
     <use x="537.890625" xlink:href="#DejaVuSans-47"/>
    </g>
   </g>
   <g id="text_17">
    <!-- Iter=2 -->
    <g transform="translate(71.985124 226.632)scale(0.12 -0.12)">
     <defs>
      <path d="M 628 4666 
L 1259 4666 
L 1259 0 
L 628 0 
L 628 4666 
z
" id="DejaVuSans-49" transform="scale(0.015625)"/>
      <path d="M 2631 2963 
Q 2534 3019 2420 3045 
Q 2306 3072 2169 3072 
Q 1681 3072 1420 2755 
Q 1159 2438 1159 1844 
L 1159 0 
L 581 0 
L 581 3500 
L 1159 3500 
L 1159 2956 
Q 1341 3275 1631 3429 
Q 1922 3584 2338 3584 
Q 2397 3584 2469 3576 
Q 2541 3569 2628 3553 
L 2631 2963 
z
" id="DejaVuSans-72" transform="scale(0.015625)"/>
      <path d="M 678 2906 
L 4684 2906 
L 4684 2381 
L 678 2381 
L 678 2906 
z
M 678 1631 
L 4684 1631 
L 4684 1100 
L 678 1100 
L 678 1631 
z
" id="DejaVuSans-3d" transform="scale(0.015625)"/>
     </defs>
     <use xlink:href="#DejaVuSans-49"/>
     <use x="29.492188" xlink:href="#DejaVuSans-74"/>
     <use x="68.701172" xlink:href="#DejaVuSans-65"/>
     <use x="130.224609" xlink:href="#DejaVuSans-72"/>
     <use x="171.337891" xlink:href="#DejaVuSans-3d"/>
     <use x="255.126953" xlink:href="#DejaVuSans-32"/>
    </g>
   </g>
   <g id="text_18">
    <!-- (c) -->
    <g transform="translate(71.985124 56.304)scale(0.12 -0.12)">
     <defs>
      <path d="M 1984 4856 
Q 1566 4138 1362 3434 
Q 1159 2731 1159 2009 
Q 1159 1288 1364 580 
Q 1569 -128 1984 -844 
L 1484 -844 
Q 1016 -109 783 600 
Q 550 1309 550 2009 
Q 550 2706 781 3412 
Q 1013 4119 1484 4856 
L 1984 4856 
z
" id="DejaVuSans-28" transform="scale(0.015625)"/>
      <path d="M 3122 3366 
L 3122 2828 
Q 2878 2963 2633 3030 
Q 2388 3097 2138 3097 
Q 1578 3097 1268 2742 
Q 959 2388 959 1747 
Q 959 1106 1268 751 
Q 1578 397 2138 397 
Q 2388 397 2633 464 
Q 2878 531 3122 666 
L 3122 134 
Q 2881 22 2623 -34 
Q 2366 -91 2075 -91 
Q 1284 -91 818 406 
Q 353 903 353 1747 
Q 353 2603 823 3093 
Q 1294 3584 2113 3584 
Q 2378 3584 2631 3529 
Q 2884 3475 3122 3366 
z
" id="DejaVuSans-63" transform="scale(0.015625)"/>
      <path d="M 513 4856 
L 1013 4856 
Q 1481 4119 1714 3412 
Q 1947 2706 1947 2009 
Q 1947 1309 1714 600 
Q 1481 -109 1013 -844 
L 513 -844 
Q 928 -128 1133 580 
Q 1338 1288 1338 2009 
Q 1338 2731 1133 3434 
Q 928 4138 513 4856 
z
" id="DejaVuSans-29" transform="scale(0.015625)"/>
     </defs>
     <use xlink:href="#DejaVuSans-28"/>
     <use x="39.013672" xlink:href="#DejaVuSans-63"/>
     <use x="93.994141" xlink:href="#DejaVuSans-29"/>
    </g>
   </g>
   <g id="legend_1">
    <g id="patch_7">
     <path d="M 144.327812 140.235625 
L 298.472188 140.235625 
Q 300.672188 140.235625 300.672188 138.035625 
L 300.672188 42.26 
Q 300.672188 40.06 298.472188 40.06 
L 144.327812 40.06 
Q 142.127813 40.06 142.127813 42.26 
L 142.127813 138.035625 
Q 142.127813 140.235625 144.327812 140.235625 
z
" style="fill:#ffffff;opacity:0.8;stroke:#cccccc;stroke-linejoin:miter;"/>
    </g>
    <g id="line2d_18">
     <path d="M 146.527813 48.968281 
L 168.527813 48.968281 
" style="fill:none;stroke:#0000ff;stroke-linecap:square;stroke-width:2;"/>
    </g>
    <g id="line2d_19"/>
    <g id="text_19">
     <!-- ture function -->
     <g transform="translate(177.327813 52.818281)scale(0.11 -0.11)">
      <defs>
       <path d="M 544 1381 
L 544 3500 
L 1119 3500 
L 1119 1403 
Q 1119 906 1312 657 
Q 1506 409 1894 409 
Q 2359 409 2629 706 
Q 2900 1003 2900 1516 
L 2900 3500 
L 3475 3500 
L 3475 0 
L 2900 0 
L 2900 538 
Q 2691 219 2414 64 
Q 2138 -91 1772 -91 
Q 1169 -91 856 284 
Q 544 659 544 1381 
z
M 1991 3584 
L 1991 3584 
z
" id="DejaVuSans-75" transform="scale(0.015625)"/>
       <path d="M 2375 4863 
L 2375 4384 
L 1825 4384 
Q 1516 4384 1395 4259 
Q 1275 4134 1275 3809 
L 1275 3500 
L 2222 3500 
L 2222 3053 
L 1275 3053 
L 1275 0 
L 697 0 
L 697 3053 
L 147 3053 
L 147 3500 
L 697 3500 
L 697 3744 
Q 697 4328 969 4595 
Q 1241 4863 1831 4863 
L 2375 4863 
z
" id="DejaVuSans-66" transform="scale(0.015625)"/>
       <path d="M 3513 2113 
L 3513 0 
L 2938 0 
L 2938 2094 
Q 2938 2591 2744 2837 
Q 2550 3084 2163 3084 
Q 1697 3084 1428 2787 
Q 1159 2491 1159 1978 
L 1159 0 
L 581 0 
L 581 3500 
L 1159 3500 
L 1159 2956 
Q 1366 3272 1645 3428 
Q 1925 3584 2291 3584 
Q 2894 3584 3203 3211 
Q 3513 2838 3513 2113 
z
" id="DejaVuSans-6e" transform="scale(0.015625)"/>
       <path d="M 603 3500 
L 1178 3500 
L 1178 0 
L 603 0 
L 603 3500 
z
M 603 4863 
L 1178 4863 
L 1178 4134 
L 603 4134 
L 603 4863 
z
" id="DejaVuSans-69" transform="scale(0.015625)"/>
      </defs>
      <use xlink:href="#DejaVuSans-74"/>
      <use x="39.208984" xlink:href="#DejaVuSans-75"/>
      <use x="102.587891" xlink:href="#DejaVuSans-72"/>
      <use x="141.451172" xlink:href="#DejaVuSans-65"/>
      <use x="202.974609" xlink:href="#DejaVuSans-20"/>
      <use x="234.761719" xlink:href="#DejaVuSans-66"/>
      <use x="269.966797" xlink:href="#DejaVuSans-75"/>
      <use x="333.345703" xlink:href="#DejaVuSans-6e"/>
      <use x="396.724609" xlink:href="#DejaVuSans-63"/>
      <use x="451.705078" xlink:href="#DejaVuSans-74"/>
      <use x="490.914062" xlink:href="#DejaVuSans-69"/>
      <use x="518.697266" xlink:href="#DejaVuSans-6f"/>
      <use x="579.878906" xlink:href="#DejaVuSans-6e"/>
     </g>
    </g>
    <g id="line2d_20">
     <path d="M 146.527813 65.114219 
L 168.527813 65.114219 
" style="fill:none;stroke:#000000;stroke-dasharray:7.4,3.2;stroke-dashoffset:0;stroke-width:2;"/>
    </g>
    <g id="line2d_21"/>
    <g id="text_20">
     <!-- predicted function -->
     <g transform="translate(177.327813 68.964219)scale(0.11 -0.11)">
      <defs>
       <path d="M 1159 525 
L 1159 -1331 
L 581 -1331 
L 581 3500 
L 1159 3500 
L 1159 2969 
Q 1341 3281 1617 3432 
Q 1894 3584 2278 3584 
Q 2916 3584 3314 3078 
Q 3713 2572 3713 1747 
Q 3713 922 3314 415 
Q 2916 -91 2278 -91 
Q 1894 -91 1617 61 
Q 1341 213 1159 525 
z
M 3116 1747 
Q 3116 2381 2855 2742 
Q 2594 3103 2138 3103 
Q 1681 3103 1420 2742 
Q 1159 2381 1159 1747 
Q 1159 1113 1420 752 
Q 1681 391 2138 391 
Q 2594 391 2855 752 
Q 3116 1113 3116 1747 
z
" id="DejaVuSans-70" transform="scale(0.015625)"/>
      </defs>
      <use xlink:href="#DejaVuSans-70"/>
      <use x="63.476562" xlink:href="#DejaVuSans-72"/>
      <use x="102.339844" xlink:href="#DejaVuSans-65"/>
      <use x="163.863281" xlink:href="#DejaVuSans-64"/>
      <use x="227.339844" xlink:href="#DejaVuSans-69"/>
      <use x="255.123047" xlink:href="#DejaVuSans-63"/>
      <use x="310.103516" xlink:href="#DejaVuSans-74"/>
      <use x="349.3125" xlink:href="#DejaVuSans-65"/>
      <use x="410.835938" xlink:href="#DejaVuSans-64"/>
      <use x="474.3125" xlink:href="#DejaVuSans-20"/>
      <use x="506.099609" xlink:href="#DejaVuSans-66"/>
      <use x="541.304688" xlink:href="#DejaVuSans-75"/>
      <use x="604.683594" xlink:href="#DejaVuSans-6e"/>
      <use x="668.0625" xlink:href="#DejaVuSans-63"/>
      <use x="723.042969" xlink:href="#DejaVuSans-74"/>
      <use x="762.251953" xlink:href="#DejaVuSans-69"/>
      <use x="790.035156" xlink:href="#DejaVuSans-6f"/>
      <use x="851.216797" xlink:href="#DejaVuSans-6e"/>
     </g>
    </g>
    <g id="line2d_22">
     <path d="M 146.527813 81.260156 
L 168.527813 81.260156 
" style="fill:none;stroke:#008000;stroke-dasharray:3.7,1.6;stroke-dashoffset:0;"/>
    </g>
    <g id="line2d_23"/>
    <g id="text_21">
     <!--  ± Sn(x) -->
     <g transform="translate(177.327813 85.110156)scale(0.11 -0.11)">
      <defs>
       <path d="M 2944 4013 
L 2944 2803 
L 4684 2803 
L 4684 2272 
L 2944 2272 
L 2944 1063 
L 2419 1063 
L 2419 2272 
L 678 2272 
L 678 2803 
L 2419 2803 
L 2419 4013 
L 2944 4013 
z
M 678 531 
L 4684 531 
L 4684 0 
L 678 0 
L 678 531 
z
" id="DejaVuSans-b1" transform="scale(0.015625)"/>
       <path d="M 3425 4513 
L 3425 3897 
Q 3066 4069 2747 4153 
Q 2428 4238 2131 4238 
Q 1616 4238 1336 4038 
Q 1056 3838 1056 3469 
Q 1056 3159 1242 3001 
Q 1428 2844 1947 2747 
L 2328 2669 
Q 3034 2534 3370 2195 
Q 3706 1856 3706 1288 
Q 3706 609 3251 259 
Q 2797 -91 1919 -91 
Q 1588 -91 1214 -16 
Q 841 59 441 206 
L 441 856 
Q 825 641 1194 531 
Q 1563 422 1919 422 
Q 2459 422 2753 634 
Q 3047 847 3047 1241 
Q 3047 1584 2836 1778 
Q 2625 1972 2144 2069 
L 1759 2144 
Q 1053 2284 737 2584 
Q 422 2884 422 3419 
Q 422 4038 858 4394 
Q 1294 4750 2059 4750 
Q 2388 4750 2728 4690 
Q 3069 4631 3425 4513 
z
" id="DejaVuSans-53" transform="scale(0.015625)"/>
      </defs>
      <use xlink:href="#DejaVuSans-20"/>
      <use x="31.787109" xlink:href="#DejaVuSans-b1"/>
      <use x="115.576172" xlink:href="#DejaVuSans-20"/>
      <use x="147.363281" xlink:href="#DejaVuSans-53"/>
      <use x="210.839844" xlink:href="#DejaVuSans-6e"/>
      <use x="274.21875" xlink:href="#DejaVuSans-28"/>
      <use x="313.232422" xlink:href="#DejaVuSans-78"/>
      <use x="372.412109" xlink:href="#DejaVuSans-29"/>
     </g>
    </g>
    <g id="line2d_24">
     <path d="M 146.527813 97.406094 
L 168.527813 97.406094 
" style="fill:none;stroke:#bfbf00;stroke-dasharray:7.4,3.2;stroke-dashoffset:0;stroke-width:2;"/>
    </g>
    <g id="line2d_25"/>
    <g id="text_22">
     <!-- KG(x) -->
     <g transform="translate(177.327813 101.256094)scale(0.11 -0.11)">
      <use xlink:href="#DejaVuSans-4b"/>
      <use x="65.576172" xlink:href="#DejaVuSans-47"/>
      <use x="143.066406" xlink:href="#DejaVuSans-28"/>
      <use x="182.080078" xlink:href="#DejaVuSans-78"/>
      <use x="241.259766" xlink:href="#DejaVuSans-29"/>
     </g>
    </g>
    <g id="PathCollection_2">
     <defs>
      <path d="M 0 3.535534 
C 0.937635 3.535534 1.836992 3.163008 2.5 2.5 
C 3.163008 1.836992 3.535534 0.937635 3.535534 0 
C 3.535534 -0.937635 3.163008 -1.836992 2.5 -2.5 
C 1.836992 -3.163008 0.937635 -3.535534 0 -3.535534 
C -0.937635 -3.535534 -1.836992 -3.163008 -2.5 -2.5 
C -3.163008 -1.836992 -3.535534 -0.937635 -3.535534 0 
C -3.535534 0.937635 -3.163008 1.836992 -2.5 2.5 
C -1.836992 3.163008 -0.937635 3.535534 0 3.535534 
z
" id="md0f3d47933" style="stroke:#000000;"/>
     </defs>
     <g>
      <use style="fill:#ff0000;stroke:#000000;" x="157.527813" xlink:href="#md0f3d47933" y="114.514531"/>
     </g>
    </g>
    <g id="text_23">
     <!-- training data -->
     <g transform="translate(177.327813 117.402031)scale(0.11 -0.11)">
      <defs>
       <path d="M 2194 1759 
Q 1497 1759 1228 1600 
Q 959 1441 959 1056 
Q 959 750 1161 570 
Q 1363 391 1709 391 
Q 2188 391 2477 730 
Q 2766 1069 2766 1631 
L 2766 1759 
L 2194 1759 
z
M 3341 1997 
L 3341 0 
L 2766 0 
L 2766 531 
Q 2569 213 2275 61 
Q 1981 -91 1556 -91 
Q 1019 -91 701 211 
Q 384 513 384 1019 
Q 384 1609 779 1909 
Q 1175 2209 1959 2209 
L 2766 2209 
L 2766 2266 
Q 2766 2663 2505 2880 
Q 2244 3097 1772 3097 
Q 1472 3097 1187 3025 
Q 903 2953 641 2809 
L 641 3341 
Q 956 3463 1253 3523 
Q 1550 3584 1831 3584 
Q 2591 3584 2966 3190 
Q 3341 2797 3341 1997 
z
" id="DejaVuSans-61" transform="scale(0.015625)"/>
       <path d="M 2906 1791 
Q 2906 2416 2648 2759 
Q 2391 3103 1925 3103 
Q 1463 3103 1205 2759 
Q 947 2416 947 1791 
Q 947 1169 1205 825 
Q 1463 481 1925 481 
Q 2391 481 2648 825 
Q 2906 1169 2906 1791 
z
M 3481 434 
Q 3481 -459 3084 -895 
Q 2688 -1331 1869 -1331 
Q 1566 -1331 1297 -1286 
Q 1028 -1241 775 -1147 
L 775 -588 
Q 1028 -725 1275 -790 
Q 1522 -856 1778 -856 
Q 2344 -856 2625 -561 
Q 2906 -266 2906 331 
L 2906 616 
Q 2728 306 2450 153 
Q 2172 0 1784 0 
Q 1141 0 747 490 
Q 353 981 353 1791 
Q 353 2603 747 3093 
Q 1141 3584 1784 3584 
Q 2172 3584 2450 3431 
Q 2728 3278 2906 2969 
L 2906 3500 
L 3481 3500 
L 3481 434 
z
" id="DejaVuSans-67" transform="scale(0.015625)"/>
      </defs>
      <use xlink:href="#DejaVuSans-74"/>
      <use x="39.208984" xlink:href="#DejaVuSans-72"/>
      <use x="80.322266" xlink:href="#DejaVuSans-61"/>
      <use x="141.601562" xlink:href="#DejaVuSans-69"/>
      <use x="169.384766" xlink:href="#DejaVuSans-6e"/>
      <use x="232.763672" xlink:href="#DejaVuSans-69"/>
      <use x="260.546875" xlink:href="#DejaVuSans-6e"/>
      <use x="323.925781" xlink:href="#DejaVuSans-67"/>
      <use x="387.402344" xlink:href="#DejaVuSans-20"/>
      <use x="419.189453" xlink:href="#DejaVuSans-64"/>
      <use x="482.666016" xlink:href="#DejaVuSans-61"/>
      <use x="543.945312" xlink:href="#DejaVuSans-74"/>
      <use x="583.154297" xlink:href="#DejaVuSans-61"/>
     </g>
    </g>
    <g id="PathCollection_3">
     <g>
      <use style="fill:#ff0000;stroke:#ff0000;stroke-width:8;" x="157.527813" xlink:href="#me8d9280de5" y="130.660469"/>
     </g>
    </g>
    <g id="text_24">
     <!-- recommended datum -->
     <g transform="translate(177.327813 133.547969)scale(0.11 -0.11)">
      <defs>
       <path d="M 3328 2828 
Q 3544 3216 3844 3400 
Q 4144 3584 4550 3584 
Q 5097 3584 5394 3201 
Q 5691 2819 5691 2113 
L 5691 0 
L 5113 0 
L 5113 2094 
Q 5113 2597 4934 2840 
Q 4756 3084 4391 3084 
Q 3944 3084 3684 2787 
Q 3425 2491 3425 1978 
L 3425 0 
L 2847 0 
L 2847 2094 
Q 2847 2600 2669 2842 
Q 2491 3084 2119 3084 
Q 1678 3084 1418 2786 
Q 1159 2488 1159 1978 
L 1159 0 
L 581 0 
L 581 3500 
L 1159 3500 
L 1159 2956 
Q 1356 3278 1631 3431 
Q 1906 3584 2284 3584 
Q 2666 3584 2933 3390 
Q 3200 3197 3328 2828 
z
" id="DejaVuSans-6d" transform="scale(0.015625)"/>
      </defs>
      <use xlink:href="#DejaVuSans-72"/>
      <use x="38.863281" xlink:href="#DejaVuSans-65"/>
      <use x="100.386719" xlink:href="#DejaVuSans-63"/>
      <use x="155.367188" xlink:href="#DejaVuSans-6f"/>
      <use x="216.548828" xlink:href="#DejaVuSans-6d"/>
      <use x="313.960938" xlink:href="#DejaVuSans-6d"/>
      <use x="411.373047" xlink:href="#DejaVuSans-65"/>
      <use x="472.896484" xlink:href="#DejaVuSans-6e"/>
      <use x="536.275391" xlink:href="#DejaVuSans-64"/>
      <use x="599.751953" xlink:href="#DejaVuSans-65"/>
      <use x="661.275391" xlink:href="#DejaVuSans-64"/>
      <use x="724.751953" xlink:href="#DejaVuSans-20"/>
      <use x="756.539062" xlink:href="#DejaVuSans-64"/>
      <use x="820.015625" xlink:href="#DejaVuSans-61"/>
      <use x="881.294922" xlink:href="#DejaVuSans-74"/>
      <use x="920.503906" xlink:href="#DejaVuSans-75"/>
      <use x="983.882812" xlink:href="#DejaVuSans-6d"/>
     </g>
    </g>
   </g>
   <g id="line2d_26">
    <path clip-path="url(#p580786172c)" d="M 69.218182 137.25748 
L 71.985124 137.613131 
L 74.752066 138.599093 
L 77.519008 140.238909 
L 80.28595 142.532904 
L 83.052893 145.456505 
L 85.819835 148.959871 
L 88.586777 152.968964 
L 91.353719 157.388083 
L 94.120661 162.10375 
L 96.887603 166.989753 
L 99.654545 171.913064 
L 102.421488 176.740242 
L 105.18843 181.343919 
L 107.955372 185.608945 
L 110.722314 189.437771 
L 113.489256 192.754739 
L 116.256198 195.508995 
L 119.02314 197.675877 
L 121.790083 199.256715 
L 124.557025 200.277122 
L 127.323967 200.783945 
L 130.090909 200.841139 
L 132.857851 200.524899 
L 135.624793 199.918404 
L 138.391736 199.106553 
L 141.158678 198.171033 
L 143.92562 197.186023 
L 146.692562 196.214755 
L 149.459504 195.3071 
L 152.226446 194.498227 
L 154.993388 193.808336 
L 157.760331 193.24337 
L 160.527273 192.796554 
L 163.294215 192.450582 
L 166.061157 192.180229 
L 168.828099 191.955173 
L 171.595041 191.742818 
L 174.361983 191.51093 
L 177.128926 191.229949 
L 179.895868 190.874857 
L 182.66281 190.426555 
L 185.429752 189.872718 
L 188.196694 189.208156 
L 190.963636 188.434729 
L 193.730579 187.560886 
L 196.497521 186.600935 
L 199.264463 185.574119 
L 202.031405 184.503599 
L 204.798347 183.415438 
L 207.565289 182.337642 
L 210.332231 181.299314 
L 213.099174 180.329955 
L 215.866116 179.458928 
L 218.633058 178.715062 
L 221.4 178.126395 
L 224.166942 177.720001 
L 226.933884 177.521871 
L 229.700826 177.556786 
L 232.467769 177.84815 
L 235.234711 178.417722 
L 238.001653 179.285229 
L 240.768595 180.467821 
L 243.535537 181.979377 
L 246.302479 183.829643 
L 249.069421 186.023243 
L 251.836364 188.558582 
L 254.603306 191.426695 
L 257.370248 194.61008 
L 260.13719 198.081597 
L 262.904132 201.803468 
L 265.671074 205.726476 
L 268.438017 209.789394 
L 271.204959 213.918734 
L 273.971901 218.028866 
L 276.738843 222.022567 
L 279.505785 225.792069 
L 282.272727 229.220643 
L 285.039669 232.184771 
L 287.806612 234.556944 
L 290.573554 236.209082 
L 293.340496 237.016556 
L 296.107438 236.862762 
L 298.87438 235.644126 
L 301.641322 233.275371 
L 304.408264 229.694843 
L 307.175207 224.869588 
L 309.942149 218.799886 
L 312.709091 211.52289 
L 315.476033 203.115006 
L 318.242975 193.692728 
L 321.009917 183.411645 
L 323.77686 172.463477 
L 326.543802 161.071093 
L 329.310744 149.481612 
L 332.077686 137.957846 
L 334.844628 126.768452 
L 337.61157 116.177329 
L 340.378512 106.432836 
L 343.145455 97.757491 
L 345.912397 90.338764 
L 348.679339 84.321554 
L 351.446281 79.802807 
L 354.213223 76.828591 
L 356.980165 75.393785 
L 359.747107 75.444325 
L 362.51405 76.881812 
L 365.280992 79.570088 
L 368.047934 83.343316 
L 370.814876 88.014965 
L 373.581818 93.387139 
" style="fill:none;stroke:#000000;stroke-dasharray:7.4,3.2;stroke-dashoffset:0;stroke-width:2;"/>
   </g>
   <g id="PathCollection_4">
    <g clip-path="url(#p580786172c)">
     <use style="fill:#ff0000;stroke:#000000;" x="83.052893" xlink:href="#md0f3d47933" y="129.399309"/>
     <use style="fill:#ff0000;stroke:#000000;" x="96.887603" xlink:href="#md0f3d47933" y="162.429541"/>
     <use style="fill:#ff0000;stroke:#000000;" x="110.722314" xlink:href="#md0f3d47933" y="193.170209"/>
     <use style="fill:#ff0000;stroke:#000000;" x="124.557025" xlink:href="#md0f3d47933" y="199.248575"/>
     <use style="fill:#ff0000;stroke:#000000;" x="138.391736" xlink:href="#md0f3d47933" y="199.347548"/>
     <use style="fill:#ff0000;stroke:#000000;" x="152.226446" xlink:href="#md0f3d47933" y="191.611971"/>
     <use style="fill:#ff0000;stroke:#000000;" x="166.061157" xlink:href="#md0f3d47933" y="193.66847"/>
     <use style="fill:#ff0000;stroke:#000000;" x="179.895868" xlink:href="#md0f3d47933" y="193.283098"/>
     <use style="fill:#ff0000;stroke:#000000;" x="193.730579" xlink:href="#md0f3d47933" y="188.924027"/>
     <use style="fill:#ff0000;stroke:#000000;" x="318.242975" xlink:href="#md0f3d47933" y="199.289596"/>
     <use style="fill:#ff0000;stroke:#000000;" x="332.077686" xlink:href="#md0f3d47933" y="145.37007"/>
     <use style="fill:#ff0000;stroke:#000000;" x="345.912397" xlink:href="#md0f3d47933" y="78.407322"/>
     <use style="fill:#ff0000;stroke:#000000;" x="348.679339" xlink:href="#md0f3d47933" y="50.938562"/>
     <use style="fill:#ff0000;stroke:#000000;" x="290.573554" xlink:href="#md0f3d47933" y="239.851628"/>
    </g>
   </g>
  </g>
 </g>
 <defs>
  <clipPath id="p580786172c">
   <rect height="217.44" width="334.8" x="54" y="34.56"/>
  </clipPath>
 </defs>
</svg>
