<?xml version="1.0" encoding="utf-8" standalone="no"?>
<!DOCTYPE svg PUBLIC "-//W3C//DTD SVG 1.1//EN"
  "http://www.w3.org/Graphics/SVG/1.1/DTD/svg11.dtd">
<svg height="288pt" version="1.1" viewBox="0 0 432 288" width="432pt" xmlns="http://www.w3.org/2000/svg" xmlns:xlink="http://www.w3.org/1999/xlink">
 <metadata>
  <rdf:RDF xmlns:cc="http://creativecommons.org/ns#" xmlns:dc="http://purl.org/dc/elements/1.1/" xmlns:rdf="http://www.w3.org/1999/02/22-rdf-syntax-ns#">
   <cc:Work>
    <dc:type rdf:resource="http://purl.org/dc/dcmitype/StillImage"/>
    <dc:date>2022-09-04T16:41:54.726577</dc:date>
    <dc:format>image/svg+xml</dc:format>
    <dc:creator>
     <cc:Agent>
      <dc:title>Matplotlib v3.4.3, https://matplotlib.org/</dc:title>
     </cc:Agent>
    </dc:creator>
   </cc:Work>
  </rdf:RDF>
 </metadata>
 <defs>
  <style type="text/css">*{stroke-linecap:butt;stroke-linejoin:round;}</style>
 </defs>
 <g id="figure_1">
  <g id="patch_1">
   <path d="M 0 288 
L 432 288 
L 432 0 
L 0 0 
z
" style="fill:none;"/>
  </g>
  <g id="axes_1">
   <g id="patch_2">
    <path d="M 54 252 
L 388.8 252 
L 388.8 34.56 
L 54 34.56 
z
" style="fill:#ffffff;"/>
   </g>
   <g id="PolyCollection_1">
    <defs>
     <path d="M 69.218182 -170.542112 
L 69.218182 -119.765059 
L 71.985124 -122.62275 
L 74.752066 -124.71921 
L 77.519008 -125.922397 
L 80.28595 -126.143757 
L 83.052893 -125.354614 
L 85.819835 -123.596746 
L 88.586777 -120.981614 
L 91.353719 -117.675928 
L 94.120661 -113.876825 
L 96.887603 -109.783345 
L 99.654545 -105.569738 
L 102.421488 -101.363407 
L 105.18843 -97.231064 
L 107.955372 -93.184551 
L 110.722314 -89.224259 
L 113.489256 -85.409136 
L 116.256198 -81.884594 
L 119.02314 -78.83205 
L 121.790083 -76.40042 
L 124.557025 -74.672714 
L 127.323967 -73.663881 
L 130.090909 -73.331871 
L 132.857851 -73.592464 
L 135.624793 -74.334736 
L 138.391736 -75.435888 
L 141.158678 -76.774273 
L 143.92562 -78.239321 
L 146.692562 -79.737177 
L 149.459504 -81.191504 
L 152.226446 -82.539945 
L 154.993388 -83.728038 
L 157.760331 -84.703954 
L 160.527273 -85.418819 
L 163.294215 -85.837013 
L 166.061157 -85.954924 
L 168.828099 -85.81575 
L 171.595041 -85.505205 
L 174.361983 -85.12764 
L 177.128926 -84.776765 
L 179.895868 -84.513275 
L 182.66281 -84.352644 
L 185.429752 -84.262389 
L 188.196694 -84.169071 
L 190.963636 -83.975998 
L 193.730579 -83.589304 
L 196.497521 -82.943711 
L 199.264463 -82.016759 
L 202.031405 -80.826921 
L 204.798347 -79.420725 
L 207.565289 -77.857361 
L 210.332231 -76.196192 
L 213.099174 -74.48859 
L 215.866116 -72.773538 
L 218.633058 -71.076046 
L 221.4 -69.407656 
L 224.166942 -67.768494 
L 226.933884 -66.15047 
L 229.700826 -64.541174 
L 232.467769 -62.928044 
L 235.234711 -61.30229 
L 238.001653 -59.662102 
L 240.768595 -58.014729 
L 243.535537 -56.377127 
L 246.302479 -54.775065 
L 249.069421 -53.240753 
L 251.836364 -51.809268 
L 254.603306 -50.514197 
L 257.370248 -49.383066 
L 260.13719 -48.433206 
L 262.904132 -47.668782 
L 265.671074 -47.07974 
L 268.438017 -46.643428 
L 271.204959 -46.329487 
L 273.971901 -46.108154 
L 276.738843 -45.96104 
L 279.505785 -45.891787 
L 282.272727 -45.932534 
L 285.039669 -46.142694 
L 287.806612 -46.599967 
L 290.573554 -47.387644 
L 293.340496 -48.583678 
L 296.107438 -50.255067 
L 298.87438 -52.458336 
L 301.641322 -55.24508 
L 304.408264 -58.670112 
L 307.175207 -62.797565 
L 309.942149 -67.698795 
L 312.709091 -73.439134 
L 315.476033 -80.057594 
L 318.242975 -87.547603 
L 321.009917 -95.844474 
L 323.77686 -104.820538 
L 326.543802 -114.286176 
L 329.310744 -123.994728 
L 332.077686 -133.650312 
L 334.844628 -142.919189 
L 337.61157 -151.446806 
L 340.378512 -158.882962 
L 343.145455 -164.914627 
L 345.912397 -169.299693 
L 348.679339 -171.8909 
L 351.446281 -172.643249 
L 354.213223 -171.606996 
L 356.980165 -168.912848 
L 359.747107 -164.754511 
L 362.51405 -159.370846 
L 365.280992 -153.028304 
L 368.047934 -146.004135 
L 370.814876 -138.571012 
L 373.581818 -130.983797 
L 373.581818 -197.150237 
L 373.581818 -197.150237 
L 370.814876 -201.712538 
L 368.047934 -205.709942 
L 365.280992 -208.935926 
L 362.51405 -211.195764 
L 359.747107 -212.319276 
L 356.980165 -212.173011 
L 354.213223 -210.670503 
L 351.446281 -207.778953 
L 348.679339 -203.520579 
L 345.912397 -197.96739 
L 343.145455 -191.230181 
L 340.378512 -183.446182 
L 337.61157 -174.772108 
L 334.844628 -165.385629 
L 332.077686 -155.490368 
L 329.310744 -145.315995 
L 326.543802 -135.109506 
L 323.77686 -125.120036 
L 321.009917 -115.582319 
L 318.242975 -106.703083 
L 315.476033 -98.652459 
L 312.709091 -91.560057 
L 309.942149 -85.513405 
L 307.175207 -80.555909 
L 304.408264 -76.68358 
L 301.641322 -73.844059 
L 298.87438 -71.943802 
L 296.107438 -70.865351 
L 293.340496 -70.489964 
L 290.573554 -70.718196 
L 287.806612 -71.483125 
L 285.039669 -72.753754 
L 282.272727 -74.528092 
L 279.505785 -76.81766 
L 276.738843 -79.628166 
L 273.971901 -82.943136 
L 271.204959 -86.715718 
L 268.438017 -90.869556 
L 265.671074 -95.305844 
L 262.904132 -99.912801 
L 260.13719 -104.574885 
L 257.370248 -109.18047 
L 254.603306 -113.627598 
L 251.836364 -117.827767 
L 249.069421 -121.707851 
L 246.302479 -125.210382 
L 243.535537 -128.292467 
L 240.768595 -130.923754 
L 238.001653 -133.083933 
L 235.234711 -134.760267 
L 232.467769 -135.945622 
L 229.700826 -136.637349 
L 226.933884 -136.837199 
L 224.166942 -136.552286 
L 221.4 -135.796926 
L 218.633058 -134.595056 
L 215.866116 -132.982846 
L 213.099174 -131.011054 
L 210.332231 -128.746642 
L 207.565289 -126.273106 
L 204.798347 -123.688825 
L 202.031405 -121.102494 
L 199.264463 -118.624537 
L 196.497521 -116.353774 
L 193.730579 -114.360675 
L 190.963636 -112.672586 
L 188.196694 -111.269488 
L 185.429752 -110.095517 
L 182.66281 -109.081892 
L 179.895868 -108.170329 
L 177.128926 -107.328542 
L 174.361983 -106.555854 
L 171.595041 -105.880186 
L 168.828099 -105.346923 
L 166.061157 -104.99914 
L 163.294215 -104.852464 
L 160.527273 -104.876761 
L 157.760331 -104.998598 
L 154.993388 -105.12354 
L 152.226446 -105.162634 
L 149.459504 -105.050013 
L 146.692562 -104.749416 
L 143.92562 -104.253323 
L 141.158678 -103.578871 
L 138.391736 -102.763411 
L 135.624793 -101.861228 
L 132.857851 -100.941865 
L 130.090909 -100.089736 
L 127.323967 -99.404353 
L 124.557025 -99.000664 
L 121.790083 -99.009349 
L 119.02314 -99.576969 
L 116.256198 -100.864055 
L 113.489256 -103.03288 
L 110.722314 -106.207862 
L 107.955372 -110.405509 
L 105.18843 -115.487393 
L 102.421488 -121.196437 
L 99.654545 -127.239786 
L 96.887603 -133.348667 
L 94.120661 -139.303028 
L 91.353719 -144.937478 
L 88.586777 -150.138437 
L 85.819835 -154.834639 
L 83.052893 -158.98252 
L 80.28595 -162.551073 
L 77.519008 -165.512301 
L 74.752066 -167.840398 
L 71.985124 -169.517639 
L 69.218182 -170.542112 
z
" id="m8edffa82ee" style="stroke:#add8e6;stroke-opacity:0.2;"/>
    </defs>
    <g clip-path="url(#pd5edc1a7a4)">
     <use style="fill:#add8e6;fill-opacity:0.2;stroke:#add8e6;stroke-opacity:0.2;" x="0" xlink:href="#m8edffa82ee" y="288"/>
    </g>
   </g>
   <g id="PathCollection_1">
    <defs>
     <path d="M 0 0.612372 
C 0.162403 0.612372 0.318176 0.547849 0.433013 0.433013 
C 0.547849 0.318176 0.612372 0.162403 0.612372 0 
C 0.612372 -0.162403 0.547849 -0.318176 0.433013 -0.433013 
C 0.318176 -0.547849 0.162403 -0.612372 0 -0.612372 
C -0.162403 -0.612372 -0.318176 -0.547849 -0.433013 -0.433013 
C -0.547849 -0.318176 -0.612372 -0.162403 -0.612372 0 
C -0.612372 0.162403 -0.547849 0.318176 -0.433013 0.433013 
C -0.318176 0.547849 -0.162403 0.612372 0 0.612372 
z
" id="mfbc7523417" style="stroke:#ff0000;stroke-width:8;"/>
    </defs>
    <g clip-path="url(#pd5edc1a7a4)">
     <use style="fill:#ff0000;stroke:#ff0000;stroke-width:8;" x="246.302479" xlink:href="#mfbc7523417" y="223.653014"/>
    </g>
   </g>
   <g id="matplotlib.axis_1">
    <g id="xtick_1">
     <g id="line2d_1">
      <defs>
       <path d="M 0 0 
L 0 3.5 
" id="ma8a2435635" style="stroke:#000000;stroke-width:0.8;"/>
      </defs>
      <g>
       <use style="stroke:#000000;stroke-width:0.8;" x="69.218182" xlink:href="#ma8a2435635" y="252"/>
      </g>
     </g>
     <g id="text_1">
      <!-- 0 -->
      <g transform="translate(66.036932 266.598437)scale(0.1 -0.1)">
       <defs>
        <path d="M 2034 4250 
Q 1547 4250 1301 3770 
Q 1056 3291 1056 2328 
Q 1056 1369 1301 889 
Q 1547 409 2034 409 
Q 2525 409 2770 889 
Q 3016 1369 3016 2328 
Q 3016 3291 2770 3770 
Q 2525 4250 2034 4250 
z
M 2034 4750 
Q 2819 4750 3233 4129 
Q 3647 3509 3647 2328 
Q 3647 1150 3233 529 
Q 2819 -91 2034 -91 
Q 1250 -91 836 529 
Q 422 1150 422 2328 
Q 422 3509 836 4129 
Q 1250 4750 2034 4750 
z
" id="DejaVuSans-30" transform="scale(0.015625)"/>
       </defs>
       <use xlink:href="#DejaVuSans-30"/>
      </g>
     </g>
    </g>
    <g id="xtick_2">
     <g id="line2d_2">
      <g>
       <use style="stroke:#000000;stroke-width:0.8;" x="124.557025" xlink:href="#ma8a2435635" y="252"/>
      </g>
     </g>
     <g id="text_2">
      <!-- 2 -->
      <g transform="translate(121.375775 266.598437)scale(0.1 -0.1)">
       <defs>
        <path d="M 1228 531 
L 3431 531 
L 3431 0 
L 469 0 
L 469 531 
Q 828 903 1448 1529 
Q 2069 2156 2228 2338 
Q 2531 2678 2651 2914 
Q 2772 3150 2772 3378 
Q 2772 3750 2511 3984 
Q 2250 4219 1831 4219 
Q 1534 4219 1204 4116 
Q 875 4013 500 3803 
L 500 4441 
Q 881 4594 1212 4672 
Q 1544 4750 1819 4750 
Q 2544 4750 2975 4387 
Q 3406 4025 3406 3419 
Q 3406 3131 3298 2873 
Q 3191 2616 2906 2266 
Q 2828 2175 2409 1742 
Q 1991 1309 1228 531 
z
" id="DejaVuSans-32" transform="scale(0.015625)"/>
       </defs>
       <use xlink:href="#DejaVuSans-32"/>
      </g>
     </g>
    </g>
    <g id="xtick_3">
     <g id="line2d_3">
      <g>
       <use style="stroke:#000000;stroke-width:0.8;" x="179.895868" xlink:href="#ma8a2435635" y="252"/>
      </g>
     </g>
     <g id="text_3">
      <!-- 4 -->
      <g transform="translate(176.714618 266.598437)scale(0.1 -0.1)">
       <defs>
        <path d="M 2419 4116 
L 825 1625 
L 2419 1625 
L 2419 4116 
z
M 2253 4666 
L 3047 4666 
L 3047 1625 
L 3713 1625 
L 3713 1100 
L 3047 1100 
L 3047 0 
L 2419 0 
L 2419 1100 
L 313 1100 
L 313 1709 
L 2253 4666 
z
" id="DejaVuSans-34" transform="scale(0.015625)"/>
       </defs>
       <use xlink:href="#DejaVuSans-34"/>
      </g>
     </g>
    </g>
    <g id="xtick_4">
     <g id="line2d_4">
      <g>
       <use style="stroke:#000000;stroke-width:0.8;" x="235.234711" xlink:href="#ma8a2435635" y="252"/>
      </g>
     </g>
     <g id="text_4">
      <!-- 6 -->
      <g transform="translate(232.053461 266.598437)scale(0.1 -0.1)">
       <defs>
        <path d="M 2113 2584 
Q 1688 2584 1439 2293 
Q 1191 2003 1191 1497 
Q 1191 994 1439 701 
Q 1688 409 2113 409 
Q 2538 409 2786 701 
Q 3034 994 3034 1497 
Q 3034 2003 2786 2293 
Q 2538 2584 2113 2584 
z
M 3366 4563 
L 3366 3988 
Q 3128 4100 2886 4159 
Q 2644 4219 2406 4219 
Q 1781 4219 1451 3797 
Q 1122 3375 1075 2522 
Q 1259 2794 1537 2939 
Q 1816 3084 2150 3084 
Q 2853 3084 3261 2657 
Q 3669 2231 3669 1497 
Q 3669 778 3244 343 
Q 2819 -91 2113 -91 
Q 1303 -91 875 529 
Q 447 1150 447 2328 
Q 447 3434 972 4092 
Q 1497 4750 2381 4750 
Q 2619 4750 2861 4703 
Q 3103 4656 3366 4563 
z
" id="DejaVuSans-36" transform="scale(0.015625)"/>
       </defs>
       <use xlink:href="#DejaVuSans-36"/>
      </g>
     </g>
    </g>
    <g id="xtick_5">
     <g id="line2d_5">
      <g>
       <use style="stroke:#000000;stroke-width:0.8;" x="290.573554" xlink:href="#ma8a2435635" y="252"/>
      </g>
     </g>
     <g id="text_5">
      <!-- 8 -->
      <g transform="translate(287.392304 266.598437)scale(0.1 -0.1)">
       <defs>
        <path d="M 2034 2216 
Q 1584 2216 1326 1975 
Q 1069 1734 1069 1313 
Q 1069 891 1326 650 
Q 1584 409 2034 409 
Q 2484 409 2743 651 
Q 3003 894 3003 1313 
Q 3003 1734 2745 1975 
Q 2488 2216 2034 2216 
z
M 1403 2484 
Q 997 2584 770 2862 
Q 544 3141 544 3541 
Q 544 4100 942 4425 
Q 1341 4750 2034 4750 
Q 2731 4750 3128 4425 
Q 3525 4100 3525 3541 
Q 3525 3141 3298 2862 
Q 3072 2584 2669 2484 
Q 3125 2378 3379 2068 
Q 3634 1759 3634 1313 
Q 3634 634 3220 271 
Q 2806 -91 2034 -91 
Q 1263 -91 848 271 
Q 434 634 434 1313 
Q 434 1759 690 2068 
Q 947 2378 1403 2484 
z
M 1172 3481 
Q 1172 3119 1398 2916 
Q 1625 2713 2034 2713 
Q 2441 2713 2670 2916 
Q 2900 3119 2900 3481 
Q 2900 3844 2670 4047 
Q 2441 4250 2034 4250 
Q 1625 4250 1398 4047 
Q 1172 3844 1172 3481 
z
" id="DejaVuSans-38" transform="scale(0.015625)"/>
       </defs>
       <use xlink:href="#DejaVuSans-38"/>
      </g>
     </g>
    </g>
    <g id="xtick_6">
     <g id="line2d_6">
      <g>
       <use style="stroke:#000000;stroke-width:0.8;" x="345.912397" xlink:href="#ma8a2435635" y="252"/>
      </g>
     </g>
     <g id="text_6">
      <!-- 10 -->
      <g transform="translate(339.549897 266.598437)scale(0.1 -0.1)">
       <defs>
        <path d="M 794 531 
L 1825 531 
L 1825 4091 
L 703 3866 
L 703 4441 
L 1819 4666 
L 2450 4666 
L 2450 531 
L 3481 531 
L 3481 0 
L 794 0 
L 794 531 
z
" id="DejaVuSans-31" transform="scale(0.015625)"/>
       </defs>
       <use xlink:href="#DejaVuSans-31"/>
       <use x="63.623047" xlink:href="#DejaVuSans-30"/>
      </g>
     </g>
    </g>
    <g id="text_7">
     <!-- x -->
     <g transform="translate(217.84875 281.79625)scale(0.12 -0.12)">
      <defs>
       <path d="M 3513 3500 
L 2247 1797 
L 3578 0 
L 2900 0 
L 1881 1375 
L 863 0 
L 184 0 
L 1544 1831 
L 300 3500 
L 978 3500 
L 1906 2253 
L 2834 3500 
L 3513 3500 
z
" id="DejaVuSans-78" transform="scale(0.015625)"/>
      </defs>
      <use xlink:href="#DejaVuSans-78"/>
     </g>
    </g>
   </g>
   <g id="matplotlib.axis_2">
    <g id="ytick_1">
     <g id="line2d_7">
      <defs>
       <path d="M 0 0 
L -3.5 0 
" id="m3c04413ab6" style="stroke:#000000;stroke-width:0.8;"/>
      </defs>
      <g>
       <use style="stroke:#000000;stroke-width:0.8;" x="54" xlink:href="#m3c04413ab6" y="252"/>
      </g>
     </g>
     <g id="text_8">
      <!-- 3 -->
      <g transform="translate(40.6375 255.799219)scale(0.1 -0.1)">
       <defs>
        <path d="M 2597 2516 
Q 3050 2419 3304 2112 
Q 3559 1806 3559 1356 
Q 3559 666 3084 287 
Q 2609 -91 1734 -91 
Q 1441 -91 1130 -33 
Q 819 25 488 141 
L 488 750 
Q 750 597 1062 519 
Q 1375 441 1716 441 
Q 2309 441 2620 675 
Q 2931 909 2931 1356 
Q 2931 1769 2642 2001 
Q 2353 2234 1838 2234 
L 1294 2234 
L 1294 2753 
L 1863 2753 
Q 2328 2753 2575 2939 
Q 2822 3125 2822 3475 
Q 2822 3834 2567 4026 
Q 2313 4219 1838 4219 
Q 1578 4219 1281 4162 
Q 984 4106 628 3988 
L 628 4550 
Q 988 4650 1302 4700 
Q 1616 4750 1894 4750 
Q 2613 4750 3031 4423 
Q 3450 4097 3450 3541 
Q 3450 3153 3228 2886 
Q 3006 2619 2597 2516 
z
" id="DejaVuSans-33" transform="scale(0.015625)"/>
       </defs>
       <use xlink:href="#DejaVuSans-33"/>
      </g>
     </g>
    </g>
    <g id="ytick_2">
     <g id="line2d_8">
      <g>
       <use style="stroke:#000000;stroke-width:0.8;" x="54" xlink:href="#m3c04413ab6" y="215.76"/>
      </g>
     </g>
     <g id="text_9">
      <!-- 4 -->
      <g transform="translate(40.6375 219.559219)scale(0.1 -0.1)">
       <use xlink:href="#DejaVuSans-34"/>
      </g>
     </g>
    </g>
    <g id="ytick_3">
     <g id="line2d_9">
      <g>
       <use style="stroke:#000000;stroke-width:0.8;" x="54" xlink:href="#m3c04413ab6" y="179.52"/>
      </g>
     </g>
     <g id="text_10">
      <!-- 5 -->
      <g transform="translate(40.6375 183.319219)scale(0.1 -0.1)">
       <defs>
        <path d="M 691 4666 
L 3169 4666 
L 3169 4134 
L 1269 4134 
L 1269 2991 
Q 1406 3038 1543 3061 
Q 1681 3084 1819 3084 
Q 2600 3084 3056 2656 
Q 3513 2228 3513 1497 
Q 3513 744 3044 326 
Q 2575 -91 1722 -91 
Q 1428 -91 1123 -41 
Q 819 9 494 109 
L 494 744 
Q 775 591 1075 516 
Q 1375 441 1709 441 
Q 2250 441 2565 725 
Q 2881 1009 2881 1497 
Q 2881 1984 2565 2268 
Q 2250 2553 1709 2553 
Q 1456 2553 1204 2497 
Q 953 2441 691 2322 
L 691 4666 
z
" id="DejaVuSans-35" transform="scale(0.015625)"/>
       </defs>
       <use xlink:href="#DejaVuSans-35"/>
      </g>
     </g>
    </g>
    <g id="ytick_4">
     <g id="line2d_10">
      <g>
       <use style="stroke:#000000;stroke-width:0.8;" x="54" xlink:href="#m3c04413ab6" y="143.28"/>
      </g>
     </g>
     <g id="text_11">
      <!-- 6 -->
      <g transform="translate(40.6375 147.079219)scale(0.1 -0.1)">
       <use xlink:href="#DejaVuSans-36"/>
      </g>
     </g>
    </g>
    <g id="ytick_5">
     <g id="line2d_11">
      <g>
       <use style="stroke:#000000;stroke-width:0.8;" x="54" xlink:href="#m3c04413ab6" y="107.04"/>
      </g>
     </g>
     <g id="text_12">
      <!-- 7 -->
      <g transform="translate(40.6375 110.839219)scale(0.1 -0.1)">
       <defs>
        <path d="M 525 4666 
L 3525 4666 
L 3525 4397 
L 1831 0 
L 1172 0 
L 2766 4134 
L 525 4134 
L 525 4666 
z
" id="DejaVuSans-37" transform="scale(0.015625)"/>
       </defs>
       <use xlink:href="#DejaVuSans-37"/>
      </g>
     </g>
    </g>
    <g id="ytick_6">
     <g id="line2d_12">
      <g>
       <use style="stroke:#000000;stroke-width:0.8;" x="54" xlink:href="#m3c04413ab6" y="70.8"/>
      </g>
     </g>
     <g id="text_13">
      <!-- 8 -->
      <g transform="translate(40.6375 74.599219)scale(0.1 -0.1)">
       <use xlink:href="#DejaVuSans-38"/>
      </g>
     </g>
    </g>
    <g id="ytick_7">
     <g id="line2d_13">
      <g>
       <use style="stroke:#000000;stroke-width:0.8;" x="54" xlink:href="#m3c04413ab6" y="34.56"/>
      </g>
     </g>
     <g id="text_14">
      <!-- 9 -->
      <g transform="translate(40.6375 38.359219)scale(0.1 -0.1)">
       <defs>
        <path d="M 703 97 
L 703 672 
Q 941 559 1184 500 
Q 1428 441 1663 441 
Q 2288 441 2617 861 
Q 2947 1281 2994 2138 
Q 2813 1869 2534 1725 
Q 2256 1581 1919 1581 
Q 1219 1581 811 2004 
Q 403 2428 403 3163 
Q 403 3881 828 4315 
Q 1253 4750 1959 4750 
Q 2769 4750 3195 4129 
Q 3622 3509 3622 2328 
Q 3622 1225 3098 567 
Q 2575 -91 1691 -91 
Q 1453 -91 1209 -44 
Q 966 3 703 97 
z
M 1959 2075 
Q 2384 2075 2632 2365 
Q 2881 2656 2881 3163 
Q 2881 3666 2632 3958 
Q 2384 4250 1959 4250 
Q 1534 4250 1286 3958 
Q 1038 3666 1038 3163 
Q 1038 2656 1286 2365 
Q 1534 2075 1959 2075 
z
" id="DejaVuSans-39" transform="scale(0.015625)"/>
       </defs>
       <use xlink:href="#DejaVuSans-39"/>
      </g>
     </g>
    </g>
    <g id="text_15">
     <!-- y -->
     <g transform="translate(34.141875 146.83125)rotate(-90)scale(0.12 -0.12)">
      <defs>
       <path d="M 2059 -325 
Q 1816 -950 1584 -1140 
Q 1353 -1331 966 -1331 
L 506 -1331 
L 506 -850 
L 844 -850 
Q 1081 -850 1212 -737 
Q 1344 -625 1503 -206 
L 1606 56 
L 191 3500 
L 800 3500 
L 1894 763 
L 2988 3500 
L 3597 3500 
L 2059 -325 
z
" id="DejaVuSans-79" transform="scale(0.015625)"/>
      </defs>
      <use xlink:href="#DejaVuSans-79"/>
     </g>
    </g>
   </g>
   <g id="line2d_14">
    <path clip-path="url(#pd5edc1a7a4)" d="M 69.218182 70.8 
L 71.985124 85.083949 
L 74.752066 98.25467 
L 77.519008 110.364828 
L 80.28595 121.465955 
L 83.052893 131.608455 
L 85.819835 140.841599 
L 88.586777 149.213528 
L 91.353719 156.771253 
L 94.120661 163.560654 
L 96.887603 169.62648 
L 99.654545 175.012349 
L 102.421488 179.76075 
L 105.18843 183.913038 
L 107.955372 187.509441 
L 110.722314 190.589055 
L 113.489256 193.189844 
L 116.256198 195.348643 
L 119.02314 197.101155 
L 121.790083 198.481953 
L 124.557025 199.52448 
L 127.323967 200.261047 
L 130.090909 200.722835 
L 132.857851 200.939895 
L 135.624793 200.941145 
L 138.391736 200.754375 
L 141.158678 200.406243 
L 143.92562 199.922276 
L 146.692562 199.326871 
L 149.459504 198.643294 
L 152.226446 197.89368 
L 154.993388 197.099035 
L 157.760331 196.279231 
L 160.527273 195.453014 
L 163.294215 194.637994 
L 166.061157 193.850655 
L 168.828099 193.106347 
L 171.595041 192.419291 
L 174.361983 191.802577 
L 177.128926 191.268164 
L 179.895868 190.82688 
L 182.66281 190.488424 
L 185.429752 190.261362 
L 188.196694 190.153131 
L 190.963636 190.170037 
L 193.730579 190.317255 
L 196.497521 190.598829 
L 199.264463 191.017673 
L 202.031405 191.575569 
L 204.798347 192.273171 
L 207.565289 193.11 
L 210.332231 194.084446 
L 213.099174 195.193771 
L 215.866116 196.434103 
L 218.633058 197.800442 
L 221.4 199.286655 
L 224.166942 200.88548 
L 226.933884 202.588525 
L 229.700826 204.386264 
L 232.467769 206.268045 
L 235.234711 208.22208 
L 238.001653 210.235455 
L 240.768595 212.294122 
L 243.535537 214.382905 
L 246.302479 216.485496 
L 249.069421 218.584455 
L 251.836364 220.661214 
L 254.603306 222.696071 
L 257.370248 224.668198 
L 260.13719 226.555631 
L 262.904132 228.33528 
L 265.671074 229.982921 
L 268.438017 231.4732 
L 271.204959 232.779634 
L 273.971901 233.874607 
L 276.738843 234.729375 
L 279.505785 235.31406 
L 282.272727 235.597656 
L 285.039669 235.548026 
L 287.806612 235.1319 
L 290.573554 234.31488 
L 293.340496 233.061436 
L 296.107438 231.334908 
L 298.87438 229.097505 
L 301.641322 226.310305 
L 304.408264 222.933255 
L 307.175207 218.925173 
L 309.942149 214.243744 
L 312.709091 208.845524 
L 315.476033 202.685938 
L 318.242975 195.71928 
L 321.009917 187.898713 
L 323.77686 179.176271 
L 326.543802 169.502854 
L 329.310744 158.828236 
L 332.077686 147.101055 
L 334.844628 134.268823 
L 337.61157 120.277918 
L 340.378512 105.073589 
L 343.145455 88.599954 
L 345.912397 70.8 
L 348.679339 51.615584 
L 351.446281 30.987432 
L 354.213223 8.855138 
L 355.363895 -1 
" style="fill:none;stroke:#0000ff;stroke-linecap:square;stroke-width:2;"/>
   </g>
   <g id="line2d_15">
    <path clip-path="url(#pd5edc1a7a4)" d="M 69.218182 168.234941 
L 71.985124 165.37725 
L 74.752066 163.28079 
L 77.519008 162.077603 
L 80.28595 161.856243 
L 83.052893 162.645386 
L 85.819835 164.403254 
L 88.586777 167.018386 
L 91.353719 170.324072 
L 94.120661 174.123175 
L 96.887603 178.216655 
L 99.654545 182.430262 
L 102.421488 186.636593 
L 105.18843 190.768936 
L 107.955372 194.815449 
L 110.722314 198.775741 
L 113.489256 202.590864 
L 116.256198 206.115406 
L 119.02314 209.16795 
L 121.790083 211.59958 
L 124.557025 213.327286 
L 127.323967 214.336119 
L 130.090909 214.668129 
L 132.857851 214.407536 
L 135.624793 213.665264 
L 138.391736 212.564112 
L 141.158678 211.225727 
L 143.92562 209.760679 
L 146.692562 208.262823 
L 149.459504 206.808496 
L 152.226446 205.460055 
L 154.993388 204.271962 
L 157.760331 203.296046 
L 160.527273 202.581181 
L 163.294215 202.162987 
L 166.061157 202.045076 
L 168.828099 202.18425 
L 171.595041 202.494795 
L 174.361983 202.87236 
L 177.128926 203.223235 
L 179.895868 203.486725 
L 182.66281 203.647356 
L 185.429752 203.737611 
L 188.196694 203.830929 
L 190.963636 204.024002 
L 193.730579 204.410696 
L 196.497521 205.056289 
L 199.264463 205.983241 
L 202.031405 207.173079 
L 204.798347 208.579275 
L 207.565289 210.142639 
L 210.332231 211.803808 
L 213.099174 213.51141 
L 215.866116 215.226462 
L 218.633058 216.923954 
L 221.4 218.592344 
L 224.166942 220.231506 
L 226.933884 221.84953 
L 229.700826 223.458826 
L 232.467769 225.071956 
L 235.234711 226.69771 
L 238.001653 228.337898 
L 240.768595 229.985271 
L 243.535537 231.622873 
L 246.302479 233.224935 
L 249.069421 234.759247 
L 251.836364 236.190732 
L 254.603306 237.485803 
L 257.370248 238.616934 
L 260.13719 239.566794 
L 262.904132 240.331218 
L 265.671074 240.92026 
L 268.438017 241.356572 
L 271.204959 241.670513 
L 273.971901 241.891846 
L 276.738843 242.03896 
L 279.505785 242.108213 
L 282.272727 242.067466 
L 285.039669 241.857306 
L 287.806612 241.400033 
L 290.573554 240.612356 
L 293.340496 239.416322 
L 296.107438 237.744933 
L 298.87438 235.541664 
L 301.641322 232.75492 
L 304.408264 229.329888 
L 307.175207 225.202435 
L 309.942149 220.301205 
L 312.709091 214.560866 
L 315.476033 207.942406 
L 318.242975 200.452397 
L 321.009917 192.155526 
L 323.77686 183.179462 
L 326.543802 173.713824 
L 329.310744 164.005272 
L 332.077686 154.349688 
L 334.844628 145.080811 
L 337.61157 136.553194 
L 340.378512 129.117038 
L 343.145455 123.085373 
L 345.912397 118.700307 
L 348.679339 116.1091 
L 351.446281 115.356751 
L 354.213223 116.393004 
L 356.980165 119.087152 
L 359.747107 123.245489 
L 362.51405 128.629154 
L 365.280992 134.971696 
L 368.047934 141.995865 
L 370.814876 149.428988 
L 373.581818 157.016203 
" style="fill:none;stroke:#008000;stroke-dasharray:3.7,1.6;stroke-dashoffset:0;"/>
   </g>
   <g id="line2d_16">
    <path clip-path="url(#pd5edc1a7a4)" d="M 69.218182 117.457888 
L 71.985124 118.482361 
L 74.752066 120.159602 
L 77.519008 122.487699 
L 80.28595 125.448927 
L 83.052893 129.01748 
L 85.819835 133.165361 
L 88.586777 137.861563 
L 91.353719 143.062522 
L 94.120661 148.696972 
L 96.887603 154.651333 
L 99.654545 160.760214 
L 102.421488 166.803563 
L 105.18843 172.512607 
L 107.955372 177.594491 
L 110.722314 181.792138 
L 113.489256 184.96712 
L 116.256198 187.135945 
L 119.02314 188.423031 
L 121.790083 188.990651 
L 124.557025 188.999336 
L 127.323967 188.595647 
L 130.090909 187.910264 
L 132.857851 187.058135 
L 135.624793 186.138772 
L 138.391736 185.236589 
L 141.158678 184.421129 
L 143.92562 183.746677 
L 146.692562 183.250584 
L 149.459504 182.949987 
L 152.226446 182.837366 
L 154.993388 182.87646 
L 157.760331 183.001402 
L 160.527273 183.123239 
L 163.294215 183.147536 
L 166.061157 183.00086 
L 168.828099 182.653077 
L 171.595041 182.119814 
L 174.361983 181.444146 
L 177.128926 180.671458 
L 179.895868 179.829671 
L 182.66281 178.918108 
L 185.429752 177.904483 
L 188.196694 176.730512 
L 190.963636 175.327414 
L 193.730579 173.639325 
L 196.497521 171.646226 
L 199.264463 169.375463 
L 202.031405 166.897506 
L 204.798347 164.311175 
L 207.565289 161.726894 
L 210.332231 159.253358 
L 213.099174 156.988946 
L 215.866116 155.017154 
L 218.633058 153.404944 
L 221.4 152.203074 
L 224.166942 151.447714 
L 226.933884 151.162801 
L 229.700826 151.362651 
L 232.467769 152.054378 
L 235.234711 153.239733 
L 238.001653 154.916067 
L 240.768595 157.076246 
L 243.535537 159.707533 
L 246.302479 162.789618 
L 249.069421 166.292149 
L 251.836364 170.172233 
L 254.603306 174.372402 
L 257.370248 178.81953 
L 260.13719 183.425115 
L 262.904132 188.087199 
L 265.671074 192.694156 
L 268.438017 197.130444 
L 271.204959 201.284282 
L 273.971901 205.056864 
L 276.738843 208.371834 
L 279.505785 211.18234 
L 282.272727 213.471908 
L 285.039669 215.246246 
L 287.806612 216.516875 
L 290.573554 217.281804 
L 293.340496 217.510036 
L 296.107438 217.134649 
L 298.87438 216.056198 
L 301.641322 214.155941 
L 304.408264 211.31642 
L 307.175207 207.444091 
L 309.942149 202.486595 
L 312.709091 196.439943 
L 315.476033 189.347541 
L 318.242975 181.296917 
L 321.009917 172.417681 
L 323.77686 162.879964 
L 326.543802 152.890494 
L 329.310744 142.684005 
L 332.077686 132.509632 
L 334.844628 122.614371 
L 337.61157 113.227892 
L 340.378512 104.553818 
L 343.145455 96.769819 
L 345.912397 90.03261 
L 348.679339 84.479421 
L 351.446281 80.221047 
L 354.213223 77.329497 
L 356.980165 75.826989 
L 359.747107 75.680724 
L 362.51405 76.804236 
L 365.280992 79.064074 
L 368.047934 82.290058 
L 370.814876 86.287462 
L 373.581818 90.849763 
" style="fill:none;stroke:#008000;stroke-dasharray:3.7,1.6;stroke-dashoffset:0;"/>
   </g>
   <g id="line2d_17">
    <path clip-path="url(#pd5edc1a7a4)" d="M 69.218182 255.311574 
L 71.985124 255.410477 
L 74.752066 255.691852 
L 77.519008 255.107922 
L 80.28595 255.037226 
L 83.052893 254.518518 
L 85.819835 254.273743 
L 88.586777 254.089193 
L 91.353719 253.673283 
L 94.120661 253.281077 
L 96.887603 252.881841 
L 99.654545 252.467954 
L 102.421488 252.195811 
L 105.18843 251.786873 
L 107.955372 251.450397 
L 110.722314 251.081703 
L 113.489256 251.034881 
L 116.256198 250.956695 
L 119.02314 250.77769 
L 121.790083 250.863476 
L 124.557025 250.805198 
L 127.323967 250.752249 
L 130.090909 250.755379 
L 132.857851 250.816044 
L 135.624793 250.907599 
L 138.391736 250.97624 
L 141.158678 251.032114 
L 143.92562 251.015535 
L 146.692562 251.155319 
L 149.459504 251.110449 
L 152.226446 251.198387 
L 154.993388 251.196012 
L 157.760331 251.209325 
L 160.527273 251.164769 
L 163.294215 251.082667 
L 166.061157 251.066109 
L 168.828099 251.109303 
L 171.595041 251.133968 
L 174.361983 251.220143 
L 177.128926 251.182428 
L 179.895868 251.274833 
L 182.66281 251.322925 
L 185.429752 251.236797 
L 188.196694 251.333431 
L 190.963636 251.248408 
L 193.730579 251.340843 
L 196.497521 251.204895 
L 199.264463 251.4282 
L 202.031405 251.37591 
L 204.798347 251.541195 
L 207.565289 251.661677 
L 210.332231 251.985824 
L 213.099174 252.539355 
L 215.866116 251.295072 
L 218.633058 251.230796 
L 221.4 249.397058 
L 224.166942 250.067397 
L 226.933884 251.163836 
L 229.700826 244.431243 
L 232.467769 247.351354 
L 235.234711 247.435436 
L 238.001653 243.357742 
L 240.768595 238.63702 
L 243.535537 242.723029 
L 246.302479 223.653014 
L 249.069421 234.57329 
L 251.836364 239.329532 
L 254.603306 241.900868 
L 257.370248 236.116397 
L 260.13719 237.154937 
L 262.904132 238.206793 
L 265.671074 234.588088 
L 268.438017 237.147543 
L 271.204959 243.784461 
L 273.971901 245.742352 
L 276.738843 249.04695 
L 279.505785 248.576285 
L 282.272727 250.051672 
L 285.039669 249.418432 
L 287.806612 245.36222 
L 290.573554 245.124416 
L 293.340496 245.124813 
L 296.107438 244.05579 
L 298.87438 248.034131 
L 301.641322 249.942934 
L 304.408264 250.132596 
L 307.175207 248.830502 
L 309.942149 248.246589 
L 312.709091 248.256562 
L 315.476033 250.046683 
L 318.242975 250.840928 
L 321.009917 251.60207 
L 323.77686 251.866937 
L 326.543802 252.192362 
L 329.310744 252.94374 
L 332.077686 254.03804 
L 334.844628 255.119988 
L 337.61157 256.254429 
L 340.378512 257.501093 
L 343.145455 258.930787 
L 345.912397 260.288962 
L 348.679339 261.520913 
L 351.446281 262.601032 
L 354.213223 261.523914 
L 356.980165 261.503626 
L 359.747107 261.961219 
L 362.51405 260.510131 
L 365.280992 261.008111 
L 368.047934 260.42378 
L 370.814876 259.093249 
L 373.581818 257.158571 
" style="fill:none;stroke:#bfbf00;stroke-dasharray:7.4,3.2;stroke-dashoffset:0;stroke-width:2;"/>
   </g>
   <g id="patch_3">
    <path d="M 54 252 
L 54 34.56 
" style="fill:none;stroke:#000000;stroke-linecap:square;stroke-linejoin:miter;stroke-width:0.8;"/>
   </g>
   <g id="patch_4">
    <path d="M 388.8 252 
L 388.8 34.56 
" style="fill:none;stroke:#000000;stroke-linecap:square;stroke-linejoin:miter;stroke-width:0.8;"/>
   </g>
   <g id="patch_5">
    <path d="M 54 252 
L 388.8 252 
" style="fill:none;stroke:#000000;stroke-linecap:square;stroke-linejoin:miter;stroke-width:0.8;"/>
   </g>
   <g id="patch_6">
    <path d="M 54 34.56 
L 388.8 34.56 
" style="fill:none;stroke:#000000;stroke-linecap:square;stroke-linejoin:miter;stroke-width:0.8;"/>
   </g>
   <g id="text_16">
    <!-- Method : KG -->
    <g transform="translate(71.985124 244.752)scale(0.12 -0.12)">
     <defs>
      <path d="M 628 4666 
L 1569 4666 
L 2759 1491 
L 3956 4666 
L 4897 4666 
L 4897 0 
L 4281 0 
L 4281 4097 
L 3078 897 
L 2444 897 
L 1241 4097 
L 1241 0 
L 628 0 
L 628 4666 
z
" id="DejaVuSans-4d" transform="scale(0.015625)"/>
      <path d="M 3597 1894 
L 3597 1613 
L 953 1613 
Q 991 1019 1311 708 
Q 1631 397 2203 397 
Q 2534 397 2845 478 
Q 3156 559 3463 722 
L 3463 178 
Q 3153 47 2828 -22 
Q 2503 -91 2169 -91 
Q 1331 -91 842 396 
Q 353 884 353 1716 
Q 353 2575 817 3079 
Q 1281 3584 2069 3584 
Q 2775 3584 3186 3129 
Q 3597 2675 3597 1894 
z
M 3022 2063 
Q 3016 2534 2758 2815 
Q 2500 3097 2075 3097 
Q 1594 3097 1305 2825 
Q 1016 2553 972 2059 
L 3022 2063 
z
" id="DejaVuSans-65" transform="scale(0.015625)"/>
      <path d="M 1172 4494 
L 1172 3500 
L 2356 3500 
L 2356 3053 
L 1172 3053 
L 1172 1153 
Q 1172 725 1289 603 
Q 1406 481 1766 481 
L 2356 481 
L 2356 0 
L 1766 0 
Q 1100 0 847 248 
Q 594 497 594 1153 
L 594 3053 
L 172 3053 
L 172 3500 
L 594 3500 
L 594 4494 
L 1172 4494 
z
" id="DejaVuSans-74" transform="scale(0.015625)"/>
      <path d="M 3513 2113 
L 3513 0 
L 2938 0 
L 2938 2094 
Q 2938 2591 2744 2837 
Q 2550 3084 2163 3084 
Q 1697 3084 1428 2787 
Q 1159 2491 1159 1978 
L 1159 0 
L 581 0 
L 581 4863 
L 1159 4863 
L 1159 2956 
Q 1366 3272 1645 3428 
Q 1925 3584 2291 3584 
Q 2894 3584 3203 3211 
Q 3513 2838 3513 2113 
z
" id="DejaVuSans-68" transform="scale(0.015625)"/>
      <path d="M 1959 3097 
Q 1497 3097 1228 2736 
Q 959 2375 959 1747 
Q 959 1119 1226 758 
Q 1494 397 1959 397 
Q 2419 397 2687 759 
Q 2956 1122 2956 1747 
Q 2956 2369 2687 2733 
Q 2419 3097 1959 3097 
z
M 1959 3584 
Q 2709 3584 3137 3096 
Q 3566 2609 3566 1747 
Q 3566 888 3137 398 
Q 2709 -91 1959 -91 
Q 1206 -91 779 398 
Q 353 888 353 1747 
Q 353 2609 779 3096 
Q 1206 3584 1959 3584 
z
" id="DejaVuSans-6f" transform="scale(0.015625)"/>
      <path d="M 2906 2969 
L 2906 4863 
L 3481 4863 
L 3481 0 
L 2906 0 
L 2906 525 
Q 2725 213 2448 61 
Q 2172 -91 1784 -91 
Q 1150 -91 751 415 
Q 353 922 353 1747 
Q 353 2572 751 3078 
Q 1150 3584 1784 3584 
Q 2172 3584 2448 3432 
Q 2725 3281 2906 2969 
z
M 947 1747 
Q 947 1113 1208 752 
Q 1469 391 1925 391 
Q 2381 391 2643 752 
Q 2906 1113 2906 1747 
Q 2906 2381 2643 2742 
Q 2381 3103 1925 3103 
Q 1469 3103 1208 2742 
Q 947 2381 947 1747 
z
" id="DejaVuSans-64" transform="scale(0.015625)"/>
      <path id="DejaVuSans-20" transform="scale(0.015625)"/>
      <path d="M 750 794 
L 1409 794 
L 1409 0 
L 750 0 
L 750 794 
z
M 750 3309 
L 1409 3309 
L 1409 2516 
L 750 2516 
L 750 3309 
z
" id="DejaVuSans-3a" transform="scale(0.015625)"/>
      <path d="M 628 4666 
L 1259 4666 
L 1259 2694 
L 3353 4666 
L 4166 4666 
L 1850 2491 
L 4331 0 
L 3500 0 
L 1259 2247 
L 1259 0 
L 628 0 
L 628 4666 
z
" id="DejaVuSans-4b" transform="scale(0.015625)"/>
      <path d="M 3809 666 
L 3809 1919 
L 2778 1919 
L 2778 2438 
L 4434 2438 
L 4434 434 
Q 4069 175 3628 42 
Q 3188 -91 2688 -91 
Q 1594 -91 976 548 
Q 359 1188 359 2328 
Q 359 3472 976 4111 
Q 1594 4750 2688 4750 
Q 3144 4750 3555 4637 
Q 3966 4525 4313 4306 
L 4313 3634 
Q 3963 3931 3569 4081 
Q 3175 4231 2741 4231 
Q 1884 4231 1454 3753 
Q 1025 3275 1025 2328 
Q 1025 1384 1454 906 
Q 1884 428 2741 428 
Q 3075 428 3337 486 
Q 3600 544 3809 666 
z
" id="DejaVuSans-47" transform="scale(0.015625)"/>
     </defs>
     <use xlink:href="#DejaVuSans-4d"/>
     <use x="86.279297" xlink:href="#DejaVuSans-65"/>
     <use x="147.802734" xlink:href="#DejaVuSans-74"/>
     <use x="187.011719" xlink:href="#DejaVuSans-68"/>
     <use x="250.390625" xlink:href="#DejaVuSans-6f"/>
     <use x="311.572266" xlink:href="#DejaVuSans-64"/>
     <use x="375.048828" xlink:href="#DejaVuSans-20"/>
     <use x="406.835938" xlink:href="#DejaVuSans-3a"/>
     <use x="440.527344" xlink:href="#DejaVuSans-20"/>
     <use x="472.314453" xlink:href="#DejaVuSans-4b"/>
     <use x="537.890625" xlink:href="#DejaVuSans-47"/>
    </g>
   </g>
   <g id="text_17">
    <!-- Iter=2 -->
    <g transform="translate(71.985124 226.632)scale(0.12 -0.12)">
     <defs>
      <path d="M 628 4666 
L 1259 4666 
L 1259 0 
L 628 0 
L 628 4666 
z
" id="DejaVuSans-49" transform="scale(0.015625)"/>
      <path d="M 2631 2963 
Q 2534 3019 2420 3045 
Q 2306 3072 2169 3072 
Q 1681 3072 1420 2755 
Q 1159 2438 1159 1844 
L 1159 0 
L 581 0 
L 581 3500 
L 1159 3500 
L 1159 2956 
Q 1341 3275 1631 3429 
Q 1922 3584 2338 3584 
Q 2397 3584 2469 3576 
Q 2541 3569 2628 3553 
L 2631 2963 
z
" id="DejaVuSans-72" transform="scale(0.015625)"/>
      <path d="M 678 2906 
L 4684 2906 
L 4684 2381 
L 678 2381 
L 678 2906 
z
M 678 1631 
L 4684 1631 
L 4684 1100 
L 678 1100 
L 678 1631 
z
" id="DejaVuSans-3d" transform="scale(0.015625)"/>
     </defs>
     <use xlink:href="#DejaVuSans-49"/>
     <use x="29.492188" xlink:href="#DejaVuSans-74"/>
     <use x="68.701172" xlink:href="#DejaVuSans-65"/>
     <use x="130.224609" xlink:href="#DejaVuSans-72"/>
     <use x="171.337891" xlink:href="#DejaVuSans-3d"/>
     <use x="255.126953" xlink:href="#DejaVuSans-32"/>
    </g>
   </g>
   <g id="text_18">
    <!-- (c) -->
    <g transform="translate(71.985124 56.304)scale(0.12 -0.12)">
     <defs>
      <path d="M 1984 4856 
Q 1566 4138 1362 3434 
Q 1159 2731 1159 2009 
Q 1159 1288 1364 580 
Q 1569 -128 1984 -844 
L 1484 -844 
Q 1016 -109 783 600 
Q 550 1309 550 2009 
Q 550 2706 781 3412 
Q 1013 4119 1484 4856 
L 1984 4856 
z
" id="DejaVuSans-28" transform="scale(0.015625)"/>
      <path d="M 3122 3366 
L 3122 2828 
Q 2878 2963 2633 3030 
Q 2388 3097 2138 3097 
Q 1578 3097 1268 2742 
Q 959 2388 959 1747 
Q 959 1106 1268 751 
Q 1578 397 2138 397 
Q 2388 397 2633 464 
Q 2878 531 3122 666 
L 3122 134 
Q 2881 22 2623 -34 
Q 2366 -91 2075 -91 
Q 1284 -91 818 406 
Q 353 903 353 1747 
Q 353 2603 823 3093 
Q 1294 3584 2113 3584 
Q 2378 3584 2631 3529 
Q 2884 3475 3122 3366 
z
" id="DejaVuSans-63" transform="scale(0.015625)"/>
      <path d="M 513 4856 
L 1013 4856 
Q 1481 4119 1714 3412 
Q 1947 2706 1947 2009 
Q 1947 1309 1714 600 
Q 1481 -109 1013 -844 
L 513 -844 
Q 928 -128 1133 580 
Q 1338 1288 1338 2009 
Q 1338 2731 1133 3434 
Q 928 4138 513 4856 
z
" id="DejaVuSans-29" transform="scale(0.015625)"/>
     </defs>
     <use xlink:href="#DejaVuSans-28"/>
     <use x="39.013672" xlink:href="#DejaVuSans-63"/>
     <use x="93.994141" xlink:href="#DejaVuSans-29"/>
    </g>
   </g>
   <g id="legend_1">
    <g id="patch_7">
     <path d="M 144.327812 140.235625 
L 298.472188 140.235625 
Q 300.672188 140.235625 300.672188 138.035625 
L 300.672188 42.26 
Q 300.672188 40.06 298.472188 40.06 
L 144.327812 40.06 
Q 142.127813 40.06 142.127813 42.26 
L 142.127813 138.035625 
Q 142.127813 140.235625 144.327812 140.235625 
z
" style="fill:#ffffff;opacity:0.8;stroke:#cccccc;stroke-linejoin:miter;"/>
    </g>
    <g id="line2d_18">
     <path d="M 146.527813 48.968281 
L 168.527813 48.968281 
" style="fill:none;stroke:#0000ff;stroke-linecap:square;stroke-width:2;"/>
    </g>
    <g id="line2d_19"/>
    <g id="text_19">
     <!-- ture function -->
     <g transform="translate(177.327813 52.818281)scale(0.11 -0.11)">
      <defs>
       <path d="M 544 1381 
L 544 3500 
L 1119 3500 
L 1119 1403 
Q 1119 906 1312 657 
Q 1506 409 1894 409 
Q 2359 409 2629 706 
Q 2900 1003 2900 1516 
L 2900 3500 
L 3475 3500 
L 3475 0 
L 2900 0 
L 2900 538 
Q 2691 219 2414 64 
Q 2138 -91 1772 -91 
Q 1169 -91 856 284 
Q 544 659 544 1381 
z
M 1991 3584 
L 1991 3584 
z
" id="DejaVuSans-75" transform="scale(0.015625)"/>
       <path d="M 2375 4863 
L 2375 4384 
L 1825 4384 
Q 1516 4384 1395 4259 
Q 1275 4134 1275 3809 
L 1275 3500 
L 2222 3500 
L 2222 3053 
L 1275 3053 
L 1275 0 
L 697 0 
L 697 3053 
L 147 3053 
L 147 3500 
L 697 3500 
L 697 3744 
Q 697 4328 969 4595 
Q 1241 4863 1831 4863 
L 2375 4863 
z
" id="DejaVuSans-66" transform="scale(0.015625)"/>
       <path d="M 3513 2113 
L 3513 0 
L 2938 0 
L 2938 2094 
Q 2938 2591 2744 2837 
Q 2550 3084 2163 3084 
Q 1697 3084 1428 2787 
Q 1159 2491 1159 1978 
L 1159 0 
L 581 0 
L 581 3500 
L 1159 3500 
L 1159 2956 
Q 1366 3272 1645 3428 
Q 1925 3584 2291 3584 
Q 2894 3584 3203 3211 
Q 3513 2838 3513 2113 
z
" id="DejaVuSans-6e" transform="scale(0.015625)"/>
       <path d="M 603 3500 
L 1178 3500 
L 1178 0 
L 603 0 
L 603 3500 
z
M 603 4863 
L 1178 4863 
L 1178 4134 
L 603 4134 
L 603 4863 
z
" id="DejaVuSans-69" transform="scale(0.015625)"/>
      </defs>
      <use xlink:href="#DejaVuSans-74"/>
      <use x="39.208984" xlink:href="#DejaVuSans-75"/>
      <use x="102.587891" xlink:href="#DejaVuSans-72"/>
      <use x="141.451172" xlink:href="#DejaVuSans-65"/>
      <use x="202.974609" xlink:href="#DejaVuSans-20"/>
      <use x="234.761719" xlink:href="#DejaVuSans-66"/>
      <use x="269.966797" xlink:href="#DejaVuSans-75"/>
      <use x="333.345703" xlink:href="#DejaVuSans-6e"/>
      <use x="396.724609" xlink:href="#DejaVuSans-63"/>
      <use x="451.705078" xlink:href="#DejaVuSans-74"/>
      <use x="490.914062" xlink:href="#DejaVuSans-69"/>
      <use x="518.697266" xlink:href="#DejaVuSans-6f"/>
      <use x="579.878906" xlink:href="#DejaVuSans-6e"/>
     </g>
    </g>
    <g id="line2d_20">
     <path d="M 146.527813 65.114219 
L 168.527813 65.114219 
" style="fill:none;stroke:#000000;stroke-dasharray:7.4,3.2;stroke-dashoffset:0;stroke-width:2;"/>
    </g>
    <g id="line2d_21"/>
    <g id="text_20">
     <!-- predicted function -->
     <g transform="translate(177.327813 68.964219)scale(0.11 -0.11)">
      <defs>
       <path d="M 1159 525 
L 1159 -1331 
L 581 -1331 
L 581 3500 
L 1159 3500 
L 1159 2969 
Q 1341 3281 1617 3432 
Q 1894 3584 2278 3584 
Q 2916 3584 3314 3078 
Q 3713 2572 3713 1747 
Q 3713 922 3314 415 
Q 2916 -91 2278 -91 
Q 1894 -91 1617 61 
Q 1341 213 1159 525 
z
M 3116 1747 
Q 3116 2381 2855 2742 
Q 2594 3103 2138 3103 
Q 1681 3103 1420 2742 
Q 1159 2381 1159 1747 
Q 1159 1113 1420 752 
Q 1681 391 2138 391 
Q 2594 391 2855 752 
Q 3116 1113 3116 1747 
z
" id="DejaVuSans-70" transform="scale(0.015625)"/>
      </defs>
      <use xlink:href="#DejaVuSans-70"/>
      <use x="63.476562" xlink:href="#DejaVuSans-72"/>
      <use x="102.339844" xlink:href="#DejaVuSans-65"/>
      <use x="163.863281" xlink:href="#DejaVuSans-64"/>
      <use x="227.339844" xlink:href="#DejaVuSans-69"/>
      <use x="255.123047" xlink:href="#DejaVuSans-63"/>
      <use x="310.103516" xlink:href="#DejaVuSans-74"/>
      <use x="349.3125" xlink:href="#DejaVuSans-65"/>
      <use x="410.835938" xlink:href="#DejaVuSans-64"/>
      <use x="474.3125" xlink:href="#DejaVuSans-20"/>
      <use x="506.099609" xlink:href="#DejaVuSans-66"/>
      <use x="541.304688" xlink:href="#DejaVuSans-75"/>
      <use x="604.683594" xlink:href="#DejaVuSans-6e"/>
      <use x="668.0625" xlink:href="#DejaVuSans-63"/>
      <use x="723.042969" xlink:href="#DejaVuSans-74"/>
      <use x="762.251953" xlink:href="#DejaVuSans-69"/>
      <use x="790.035156" xlink:href="#DejaVuSans-6f"/>
      <use x="851.216797" xlink:href="#DejaVuSans-6e"/>
     </g>
    </g>
    <g id="line2d_22">
     <path d="M 146.527813 81.260156 
L 168.527813 81.260156 
" style="fill:none;stroke:#008000;stroke-dasharray:3.7,1.6;stroke-dashoffset:0;"/>
    </g>
    <g id="line2d_23"/>
    <g id="text_21">
     <!--  ± Sn(x) -->
     <g transform="translate(177.327813 85.110156)scale(0.11 -0.11)">
      <defs>
       <path d="M 2944 4013 
L 2944 2803 
L 4684 2803 
L 4684 2272 
L 2944 2272 
L 2944 1063 
L 2419 1063 
L 2419 2272 
L 678 2272 
L 678 2803 
L 2419 2803 
L 2419 4013 
L 2944 4013 
z
M 678 531 
L 4684 531 
L 4684 0 
L 678 0 
L 678 531 
z
" id="DejaVuSans-b1" transform="scale(0.015625)"/>
       <path d="M 3425 4513 
L 3425 3897 
Q 3066 4069 2747 4153 
Q 2428 4238 2131 4238 
Q 1616 4238 1336 4038 
Q 1056 3838 1056 3469 
Q 1056 3159 1242 3001 
Q 1428 2844 1947 2747 
L 2328 2669 
Q 3034 2534 3370 2195 
Q 3706 1856 3706 1288 
Q 3706 609 3251 259 
Q 2797 -91 1919 -91 
Q 1588 -91 1214 -16 
Q 841 59 441 206 
L 441 856 
Q 825 641 1194 531 
Q 1563 422 1919 422 
Q 2459 422 2753 634 
Q 3047 847 3047 1241 
Q 3047 1584 2836 1778 
Q 2625 1972 2144 2069 
L 1759 2144 
Q 1053 2284 737 2584 
Q 422 2884 422 3419 
Q 422 4038 858 4394 
Q 1294 4750 2059 4750 
Q 2388 4750 2728 4690 
Q 3069 4631 3425 4513 
z
" id="DejaVuSans-53" transform="scale(0.015625)"/>
      </defs>
      <use xlink:href="#DejaVuSans-20"/>
      <use x="31.787109" xlink:href="#DejaVuSans-b1"/>
      <use x="115.576172" xlink:href="#DejaVuSans-20"/>
      <use x="147.363281" xlink:href="#DejaVuSans-53"/>
      <use x="210.839844" xlink:href="#DejaVuSans-6e"/>
      <use x="274.21875" xlink:href="#DejaVuSans-28"/>
      <use x="313.232422" xlink:href="#DejaVuSans-78"/>
      <use x="372.412109" xlink:href="#DejaVuSans-29"/>
     </g>
    </g>
    <g id="line2d_24">
     <path d="M 146.527813 97.406094 
L 168.527813 97.406094 
" style="fill:none;stroke:#bfbf00;stroke-dasharray:7.4,3.2;stroke-dashoffset:0;stroke-width:2;"/>
    </g>
    <g id="line2d_25"/>
    <g id="text_22">
     <!-- KG(x) -->
     <g transform="translate(177.327813 101.256094)scale(0.11 -0.11)">
      <use xlink:href="#DejaVuSans-4b"/>
      <use x="65.576172" xlink:href="#DejaVuSans-47"/>
      <use x="143.066406" xlink:href="#DejaVuSans-28"/>
      <use x="182.080078" xlink:href="#DejaVuSans-78"/>
      <use x="241.259766" xlink:href="#DejaVuSans-29"/>
     </g>
    </g>
    <g id="PathCollection_2">
     <defs>
      <path d="M 0 3.535534 
C 0.937635 3.535534 1.836992 3.163008 2.5 2.5 
C 3.163008 1.836992 3.535534 0.937635 3.535534 0 
C 3.535534 -0.937635 3.163008 -1.836992 2.5 -2.5 
C 1.836992 -3.163008 0.937635 -3.535534 0 -3.535534 
C -0.937635 -3.535534 -1.836992 -3.163008 -2.5 -2.5 
C -3.163008 -1.836992 -3.535534 -0.937635 -3.535534 0 
C -3.535534 0.937635 -3.163008 1.836992 -2.5 2.5 
C -1.836992 3.163008 -0.937635 3.535534 0 3.535534 
z
" id="m4c4c8f28d0" style="stroke:#000000;"/>
     </defs>
     <g>
      <use style="fill:#ff0000;stroke:#000000;" x="157.527813" xlink:href="#m4c4c8f28d0" y="114.514531"/>
     </g>
    </g>
    <g id="text_23">
     <!-- training data -->
     <g transform="translate(177.327813 117.402031)scale(0.11 -0.11)">
      <defs>
       <path d="M 2194 1759 
Q 1497 1759 1228 1600 
Q 959 1441 959 1056 
Q 959 750 1161 570 
Q 1363 391 1709 391 
Q 2188 391 2477 730 
Q 2766 1069 2766 1631 
L 2766 1759 
L 2194 1759 
z
M 3341 1997 
L 3341 0 
L 2766 0 
L 2766 531 
Q 2569 213 2275 61 
Q 1981 -91 1556 -91 
Q 1019 -91 701 211 
Q 384 513 384 1019 
Q 384 1609 779 1909 
Q 1175 2209 1959 2209 
L 2766 2209 
L 2766 2266 
Q 2766 2663 2505 2880 
Q 2244 3097 1772 3097 
Q 1472 3097 1187 3025 
Q 903 2953 641 2809 
L 641 3341 
Q 956 3463 1253 3523 
Q 1550 3584 1831 3584 
Q 2591 3584 2966 3190 
Q 3341 2797 3341 1997 
z
" id="DejaVuSans-61" transform="scale(0.015625)"/>
       <path d="M 2906 1791 
Q 2906 2416 2648 2759 
Q 2391 3103 1925 3103 
Q 1463 3103 1205 2759 
Q 947 2416 947 1791 
Q 947 1169 1205 825 
Q 1463 481 1925 481 
Q 2391 481 2648 825 
Q 2906 1169 2906 1791 
z
M 3481 434 
Q 3481 -459 3084 -895 
Q 2688 -1331 1869 -1331 
Q 1566 -1331 1297 -1286 
Q 1028 -1241 775 -1147 
L 775 -588 
Q 1028 -725 1275 -790 
Q 1522 -856 1778 -856 
Q 2344 -856 2625 -561 
Q 2906 -266 2906 331 
L 2906 616 
Q 2728 306 2450 153 
Q 2172 0 1784 0 
Q 1141 0 747 490 
Q 353 981 353 1791 
Q 353 2603 747 3093 
Q 1141 3584 1784 3584 
Q 2172 3584 2450 3431 
Q 2728 3278 2906 2969 
L 2906 3500 
L 3481 3500 
L 3481 434 
z
" id="DejaVuSans-67" transform="scale(0.015625)"/>
      </defs>
      <use xlink:href="#DejaVuSans-74"/>
      <use x="39.208984" xlink:href="#DejaVuSans-72"/>
      <use x="80.322266" xlink:href="#DejaVuSans-61"/>
      <use x="141.601562" xlink:href="#DejaVuSans-69"/>
      <use x="169.384766" xlink:href="#DejaVuSans-6e"/>
      <use x="232.763672" xlink:href="#DejaVuSans-69"/>
      <use x="260.546875" xlink:href="#DejaVuSans-6e"/>
      <use x="323.925781" xlink:href="#DejaVuSans-67"/>
      <use x="387.402344" xlink:href="#DejaVuSans-20"/>
      <use x="419.189453" xlink:href="#DejaVuSans-64"/>
      <use x="482.666016" xlink:href="#DejaVuSans-61"/>
      <use x="543.945312" xlink:href="#DejaVuSans-74"/>
      <use x="583.154297" xlink:href="#DejaVuSans-61"/>
     </g>
    </g>
    <g id="PathCollection_3">
     <g>
      <use style="fill:#ff0000;stroke:#ff0000;stroke-width:8;" x="157.527813" xlink:href="#mfbc7523417" y="130.660469"/>
     </g>
    </g>
    <g id="text_24">
     <!-- recommended datum -->
     <g transform="translate(177.327813 133.547969)scale(0.11 -0.11)">
      <defs>
       <path d="M 3328 2828 
Q 3544 3216 3844 3400 
Q 4144 3584 4550 3584 
Q 5097 3584 5394 3201 
Q 5691 2819 5691 2113 
L 5691 0 
L 5113 0 
L 5113 2094 
Q 5113 2597 4934 2840 
Q 4756 3084 4391 3084 
Q 3944 3084 3684 2787 
Q 3425 2491 3425 1978 
L 3425 0 
L 2847 0 
L 2847 2094 
Q 2847 2600 2669 2842 
Q 2491 3084 2119 3084 
Q 1678 3084 1418 2786 
Q 1159 2488 1159 1978 
L 1159 0 
L 581 0 
L 581 3500 
L 1159 3500 
L 1159 2956 
Q 1356 3278 1631 3431 
Q 1906 3584 2284 3584 
Q 2666 3584 2933 3390 
Q 3200 3197 3328 2828 
z
" id="DejaVuSans-6d" transform="scale(0.015625)"/>
      </defs>
      <use xlink:href="#DejaVuSans-72"/>
      <use x="38.863281" xlink:href="#DejaVuSans-65"/>
      <use x="100.386719" xlink:href="#DejaVuSans-63"/>
      <use x="155.367188" xlink:href="#DejaVuSans-6f"/>
      <use x="216.548828" xlink:href="#DejaVuSans-6d"/>
      <use x="313.960938" xlink:href="#DejaVuSans-6d"/>
      <use x="411.373047" xlink:href="#DejaVuSans-65"/>
      <use x="472.896484" xlink:href="#DejaVuSans-6e"/>
      <use x="536.275391" xlink:href="#DejaVuSans-64"/>
      <use x="599.751953" xlink:href="#DejaVuSans-65"/>
      <use x="661.275391" xlink:href="#DejaVuSans-64"/>
      <use x="724.751953" xlink:href="#DejaVuSans-20"/>
      <use x="756.539062" xlink:href="#DejaVuSans-64"/>
      <use x="820.015625" xlink:href="#DejaVuSans-61"/>
      <use x="881.294922" xlink:href="#DejaVuSans-74"/>
      <use x="920.503906" xlink:href="#DejaVuSans-75"/>
      <use x="983.882812" xlink:href="#DejaVuSans-6d"/>
     </g>
    </g>
   </g>
   <g id="line2d_26">
    <path clip-path="url(#pd5edc1a7a4)" d="M 69.218182 142.846414 
L 71.985124 141.929805 
L 74.752066 141.720196 
L 77.519008 142.282651 
L 80.28595 143.652585 
L 83.052893 145.831433 
L 85.819835 148.784307 
L 88.586777 152.439975 
L 91.353719 156.693297 
L 94.120661 161.410073 
L 96.887603 166.433994 
L 99.654545 171.595238 
L 102.421488 176.720078 
L 105.18843 181.640772 
L 107.955372 186.20497 
L 110.722314 190.283939 
L 113.489256 193.778992 
L 116.256198 196.625675 
L 119.02314 198.795491 
L 121.790083 200.295115 
L 124.557025 201.163311 
L 127.323967 201.465883 
L 130.090909 201.289196 
L 132.857851 200.732835 
L 135.624793 199.902018 
L 138.391736 198.900351 
L 141.158678 197.823428 
L 143.92562 196.753678 
L 146.692562 195.756704 
L 149.459504 194.879241 
L 152.226446 194.148711 
L 154.993388 193.574211 
L 157.760331 193.148724 
L 160.527273 192.85221 
L 163.294215 192.655262 
L 166.061157 192.522968 
L 168.828099 192.418664 
L 171.595041 192.307305 
L 174.361983 192.158253 
L 177.128926 191.947346 
L 179.895868 191.658198 
L 182.66281 191.282732 
L 185.429752 190.821047 
L 188.196694 190.28072 
L 190.963636 189.675708 
L 193.730579 189.025011 
L 196.497521 188.351257 
L 199.264463 187.679352 
L 202.031405 187.035293 
L 204.798347 186.445225 
L 207.565289 185.934766 
L 210.332231 185.528583 
L 213.099174 185.250178 
L 215.866116 185.121808 
L 218.633058 185.164449 
L 221.4 185.397709 
L 224.166942 185.83961 
L 226.933884 186.506166 
L 229.700826 187.410739 
L 232.467769 188.563167 
L 235.234711 189.968722 
L 238.001653 191.626983 
L 240.768595 193.530759 
L 243.535537 195.665203 
L 246.302479 198.007277 
L 249.069421 200.525698 
L 251.836364 203.181483 
L 254.603306 205.929102 
L 257.370248 208.718232 
L 260.13719 211.495954 
L 262.904132 214.209208 
L 265.671074 216.807208 
L 268.438017 219.243508 
L 271.204959 221.477397 
L 273.971901 223.474355 
L 276.738843 225.205397 
L 279.505785 226.645276 
L 282.272727 227.769687 
L 285.039669 228.551776 
L 287.806612 228.958454 
L 290.573554 228.94708 
L 293.340496 228.463179 
L 296.107438 227.439791 
L 298.87438 225.798931 
L 301.641322 223.45543 
L 304.408264 220.323154 
L 307.175207 216.323263 
L 309.942149 211.3939 
L 312.709091 205.500404 
L 315.476033 198.644974 
L 318.242975 190.874657 
L 321.009917 182.286603 
L 323.77686 173.029713 
L 326.543802 163.302159 
L 329.310744 153.344638 
L 332.077686 143.42966 
L 334.844628 133.847591 
L 337.61157 124.890543 
L 340.378512 116.835428 
L 343.145455 109.927596 
L 345.912397 104.366458 
L 348.679339 100.294261 
L 351.446281 97.788899 
L 354.213223 96.86125 
L 356.980165 97.457071 
L 359.747107 99.463107 
L 362.51405 102.716695 
L 365.280992 107.017885 
L 368.047934 112.142962 
L 370.814876 117.858225 
L 373.581818 123.932983 
" style="fill:none;stroke:#000000;stroke-dasharray:7.4,3.2;stroke-dashoffset:0;stroke-width:2;"/>
   </g>
   <g id="PathCollection_4">
    <g clip-path="url(#pd5edc1a7a4)">
     <use style="fill:#ff0000;stroke:#000000;" x="83.052893" xlink:href="#m4c4c8f28d0" y="129.399309"/>
     <use style="fill:#ff0000;stroke:#000000;" x="96.887603" xlink:href="#m4c4c8f28d0" y="162.429541"/>
     <use style="fill:#ff0000;stroke:#000000;" x="110.722314" xlink:href="#m4c4c8f28d0" y="193.170209"/>
     <use style="fill:#ff0000;stroke:#000000;" x="124.557025" xlink:href="#m4c4c8f28d0" y="199.248575"/>
     <use style="fill:#ff0000;stroke:#000000;" x="138.391736" xlink:href="#m4c4c8f28d0" y="199.347548"/>
     <use style="fill:#ff0000;stroke:#000000;" x="152.226446" xlink:href="#m4c4c8f28d0" y="191.611971"/>
     <use style="fill:#ff0000;stroke:#000000;" x="166.061157" xlink:href="#m4c4c8f28d0" y="193.66847"/>
     <use style="fill:#ff0000;stroke:#000000;" x="179.895868" xlink:href="#m4c4c8f28d0" y="193.283098"/>
     <use style="fill:#ff0000;stroke:#000000;" x="193.730579" xlink:href="#m4c4c8f28d0" y="188.924027"/>
     <use style="fill:#ff0000;stroke:#000000;" x="318.242975" xlink:href="#m4c4c8f28d0" y="199.289596"/>
     <use style="fill:#ff0000;stroke:#000000;" x="332.077686" xlink:href="#m4c4c8f28d0" y="145.37007"/>
     <use style="fill:#ff0000;stroke:#000000;" x="345.912397" xlink:href="#m4c4c8f28d0" y="78.407322"/>
     <use style="fill:#ff0000;stroke:#000000;" x="301.641322" xlink:href="#m4c4c8f28d0" y="221.265308"/>
     <use style="fill:#ff0000;stroke:#000000;" x="279.505785" xlink:href="#m4c4c8f28d0" y="236.927334"/>
    </g>
   </g>
  </g>
 </g>
 <defs>
  <clipPath id="pd5edc1a7a4">
   <rect height="217.44" width="334.8" x="54" y="34.56"/>
  </clipPath>
 </defs>
</svg>
