<?xml version="1.0" encoding="utf-8" standalone="no"?>
<!DOCTYPE svg PUBLIC "-//W3C//DTD SVG 1.1//EN"
  "http://www.w3.org/Graphics/SVG/1.1/DTD/svg11.dtd">
<svg height="288pt" version="1.1" viewBox="0 0 432 288" width="432pt" xmlns="http://www.w3.org/2000/svg" xmlns:xlink="http://www.w3.org/1999/xlink">
 <metadata>
  <rdf:RDF xmlns:cc="http://creativecommons.org/ns#" xmlns:dc="http://purl.org/dc/elements/1.1/" xmlns:rdf="http://www.w3.org/1999/02/22-rdf-syntax-ns#">
   <cc:Work>
    <dc:type rdf:resource="http://purl.org/dc/dcmitype/StillImage"/>
    <dc:date>2022-09-04T16:42:08.420920</dc:date>
    <dc:format>image/svg+xml</dc:format>
    <dc:creator>
     <cc:Agent>
      <dc:title>Matplotlib v3.4.3, https://matplotlib.org/</dc:title>
     </cc:Agent>
    </dc:creator>
   </cc:Work>
  </rdf:RDF>
 </metadata>
 <defs>
  <style type="text/css">*{stroke-linecap:butt;stroke-linejoin:round;}</style>
 </defs>
 <g id="figure_1">
  <g id="patch_1">
   <path d="M 0 288 
L 432 288 
L 432 0 
L 0 0 
z
" style="fill:none;"/>
  </g>
  <g id="axes_1">
   <g id="patch_2">
    <path d="M 54 252 
L 388.8 252 
L 388.8 34.56 
L 54 34.56 
z
" style="fill:#ffffff;"/>
   </g>
   <g id="PolyCollection_1">
    <defs>
     <path d="M 69.218182 -169.653761 
L 69.218182 -119.925392 
L 71.985124 -122.425927 
L 74.752066 -124.186173 
L 77.519008 -125.107972 
L 80.28595 -125.132619 
L 83.052893 -124.251279 
L 85.819835 -122.510419 
L 88.586777 -120.009268 
L 91.353719 -116.888386 
L 94.120661 -113.311371 
L 96.887603 -109.443623 
L 99.654545 -105.43183 
L 102.421488 -101.386984 
L 105.18843 -97.375067 
L 107.955372 -93.42441 
L 110.722314 -89.559343 
L 113.489256 -85.847291 
L 116.256198 -82.414789 
L 119.02314 -79.412829 
L 121.790083 -76.968836 
L 124.557025 -75.160201 
L 127.323967 -74.010112 
L 130.090909 -73.494463 
L 132.857851 -73.552548 
L 135.624793 -74.098548 
L 138.391736 -75.032554 
L 141.158678 -76.250273 
L 143.92562 -77.650627 
L 146.692562 -79.140639 
L 149.459504 -80.637339 
L 152.226446 -82.067106 
L 154.993388 -83.36369 
L 157.760331 -84.467216 
L 160.527273 -85.327166 
L 163.294215 -85.911159 
L 166.061157 -86.216655 
L 168.828099 -86.276906 
L 171.595041 -86.15348 
L 174.361983 -85.917323 
L 177.128926 -85.627745 
L 179.895868 -85.316976 
L 182.66281 -84.982787 
L 185.429752 -84.589214 
L 188.196694 -84.075149 
L 190.963636 -83.369853 
L 193.730579 -82.411887 
L 196.497521 -81.165416 
L 199.264463 -79.628432 
L 202.031405 -77.831666 
L 204.798347 -75.831185 
L 207.565289 -73.698833 
L 210.332231 -71.513276 
L 213.099174 -69.352602 
L 215.866116 -67.288428 
L 218.633058 -65.381142 
L 221.4 -63.67596 
L 224.166942 -62.199581 
L 226.933884 -60.957337 
L 229.700826 -59.930859 
L 232.467769 -59.076464 
L 235.234711 -58.324978 
L 238.001653 -57.584673 
L 240.768595 -56.750566 
L 243.535537 -55.724023 
L 246.302479 -54.442587 
L 249.069421 -52.908545 
L 251.836364 -51.195871 
L 254.603306 -49.426934 
L 257.370248 -47.734344 
L 260.13719 -46.22991 
L 262.904132 -44.989662 
L 265.671074 -44.051921 
L 268.438017 -43.422722 
L 271.204959 -43.084618 
L 273.971901 -43.006811 
L 276.738843 -43.155402 
L 279.505785 -43.502814 
L 282.272727 -44.035434 
L 285.039669 -44.758583 
L 287.806612 -45.698275 
L 290.573554 -46.899772 
L 293.340496 -48.423647 
L 296.107438 -50.340606 
L 298.87438 -52.726534 
L 301.641322 -55.658924 
L 304.408264 -59.214749 
L 307.175207 -63.468182 
L 309.942149 -68.485474 
L 312.709091 -74.315381 
L 315.476033 -80.97656 
L 318.242975 -88.445446 
L 321.009917 -96.647726 
L 323.77686 -105.454528 
L 326.543802 -114.682989 
L 329.310744 -124.100451 
L 332.077686 -133.432023 
L 334.844628 -142.372111 
L 337.61157 -150.60134 
L 340.378512 -157.809745 
L 343.145455 -163.724284 
L 345.912397 -168.134519 
L 348.679339 -170.909126 
L 351.446281 -172.000139 
L 354.213223 -171.437444 
L 356.980165 -169.318176 
L 359.747107 -165.794207 
L 362.51405 -161.059043 
L 365.280992 -155.334543 
L 368.047934 -148.857779 
L 370.814876 -141.868536 
L 373.581818 -134.598022 
L 373.581818 -199.265361 
L 373.581818 -199.265361 
L 370.814876 -203.463502 
L 368.047934 -207.029067 
L 365.280992 -209.78205 
L 362.51405 -211.557142 
L 359.747107 -212.213874 
L 356.980165 -211.646059 
L 354.213223 -209.789516 
L 351.446281 -206.626953 
L 348.679339 -202.18876 
L 345.912397 -196.548844 
L 343.145455 -189.815866 
L 340.378512 -182.122667 
L 337.61157 -173.618645 
L 334.844628 -164.468322 
L 332.077686 -154.854214 
L 329.310744 -144.978341 
L 326.543802 -135.058131 
L 323.77686 -125.316794 
L 321.009917 -115.970971 
L 318.242975 -107.218719 
L 315.476033 -99.229685 
L 312.709091 -92.137885 
L 309.942149 -86.036512 
L 307.175207 -80.974015 
L 304.408264 -76.951719 
L 301.641322 -73.924838 
L 298.87438 -71.808992 
L 296.107438 -70.492111 
L 293.340496 -69.848743 
L 290.573554 -69.752849 
L 287.806612 -70.086603 
L 285.039669 -70.744704 
L 282.272727 -71.635144 
L 279.505785 -72.677998 
L 276.738843 -73.803852 
L 273.971901 -74.953101 
L 271.204959 -76.076771 
L 268.438017 -77.13893 
L 265.671074 -78.120431 
L 262.904132 -79.023505 
L 260.13719 -79.876645 
L 257.370248 -80.738865 
L 254.603306 -81.701391 
L 251.836364 -82.882909 
L 249.069421 -84.412649 
L 246.302479 -86.398247 
L 243.535537 -88.887258 
L 240.768595 -91.844216 
L 238.001653 -95.158546 
L 235.234711 -98.674607 
L 232.467769 -102.223465 
L 229.700826 -105.644801 
L 226.933884 -108.798808 
L 224.166942 -111.571905 
L 221.4 -113.879418 
L 218.633058 -115.666765 
L 215.866116 -116.909736 
L 213.099174 -117.61393 
L 210.332231 -117.813213 
L 207.565289 -117.566984 
L 204.798347 -116.955904 
L 202.031405 -116.07569 
L 199.264463 -115.028574 
L 196.497521 -113.912352 
L 193.730579 -112.808073 
L 190.963636 -111.769242 
L 188.196694 -110.816866 
L 185.429752 -109.943608 
L 182.66281 -109.126086 
L 179.895868 -108.340196 
L 177.128926 -107.573729 
L 174.361983 -106.833092 
L 171.595041 -106.143437 
L 168.828099 -105.542154 
L 166.061157 -105.065823 
L 163.294215 -104.733106 
L 160.527273 -104.531014 
L 157.760331 -104.413633 
L 154.993388 -104.314855 
L 152.226446 -104.166871 
L 149.459504 -103.915187 
L 146.692562 -103.52665 
L 143.92562 -102.991748 
L 141.158678 -102.323682 
L 138.391736 -101.556171 
L 135.624793 -100.741083 
L 132.857851 -99.946361 
L 130.090909 -99.254282 
L 127.323967 -98.759947 
L 124.557025 -98.569954 
L 121.790083 -98.80126 
L 119.02314 -99.579942 
L 116.256198 -101.037844 
L 113.489256 -103.300694 
L 110.722314 -106.45722 
L 107.955372 -110.510513 
L 105.18843 -115.346766 
L 102.421488 -120.758604 
L 99.654545 -126.50298 
L 96.887603 -132.348423 
L 94.120661 -138.097844 
L 91.353719 -143.595421 
L 88.586777 -148.725433 
L 85.819835 -153.406055 
L 83.052893 -157.579982 
L 80.28595 -161.204769 
L 77.519008 -164.246352 
L 74.752066 -166.677603 
L 71.985124 -168.481128 
L 69.218182 -169.653761 
z
" id="m4cd474f513" style="stroke:#add8e6;stroke-opacity:0.2;"/>
    </defs>
    <g clip-path="url(#p8d3f7b0ffe)">
     <use style="fill:#add8e6;fill-opacity:0.2;stroke:#add8e6;stroke-opacity:0.2;" x="0" xlink:href="#m4cd474f513" y="288"/>
    </g>
   </g>
   <g id="PathCollection_1">
    <defs>
     <path d="M 0 0.612372 
C 0.162403 0.612372 0.318176 0.547849 0.433013 0.433013 
C 0.547849 0.318176 0.612372 0.162403 0.612372 0 
C 0.612372 -0.162403 0.547849 -0.318176 0.433013 -0.433013 
C 0.318176 -0.547849 0.162403 -0.612372 0 -0.612372 
C -0.162403 -0.612372 -0.318176 -0.547849 -0.433013 -0.433013 
C -0.547849 -0.318176 -0.612372 -0.162403 -0.612372 0 
C -0.612372 0.162403 -0.547849 0.318176 -0.433013 0.433013 
C -0.318176 0.547849 -0.162403 0.612372 0 0.612372 
z
" id="m4ed6bf15fa" style="stroke:#ff0000;stroke-width:8;"/>
    </defs>
    <g clip-path="url(#p8d3f7b0ffe)">
     <use style="fill:#ff0000;stroke:#ff0000;stroke-width:8;" x="260.13719" xlink:href="#m4ed6bf15fa" y="240.288123"/>
    </g>
   </g>
   <g id="matplotlib.axis_1">
    <g id="xtick_1">
     <g id="line2d_1">
      <defs>
       <path d="M 0 0 
L 0 3.5 
" id="m69b60b5d55" style="stroke:#000000;stroke-width:0.8;"/>
      </defs>
      <g>
       <use style="stroke:#000000;stroke-width:0.8;" x="69.218182" xlink:href="#m69b60b5d55" y="252"/>
      </g>
     </g>
     <g id="text_1">
      <!-- 0 -->
      <g transform="translate(66.036932 266.598437)scale(0.1 -0.1)">
       <defs>
        <path d="M 2034 4250 
Q 1547 4250 1301 3770 
Q 1056 3291 1056 2328 
Q 1056 1369 1301 889 
Q 1547 409 2034 409 
Q 2525 409 2770 889 
Q 3016 1369 3016 2328 
Q 3016 3291 2770 3770 
Q 2525 4250 2034 4250 
z
M 2034 4750 
Q 2819 4750 3233 4129 
Q 3647 3509 3647 2328 
Q 3647 1150 3233 529 
Q 2819 -91 2034 -91 
Q 1250 -91 836 529 
Q 422 1150 422 2328 
Q 422 3509 836 4129 
Q 1250 4750 2034 4750 
z
" id="DejaVuSans-30" transform="scale(0.015625)"/>
       </defs>
       <use xlink:href="#DejaVuSans-30"/>
      </g>
     </g>
    </g>
    <g id="xtick_2">
     <g id="line2d_2">
      <g>
       <use style="stroke:#000000;stroke-width:0.8;" x="124.557025" xlink:href="#m69b60b5d55" y="252"/>
      </g>
     </g>
     <g id="text_2">
      <!-- 2 -->
      <g transform="translate(121.375775 266.598437)scale(0.1 -0.1)">
       <defs>
        <path d="M 1228 531 
L 3431 531 
L 3431 0 
L 469 0 
L 469 531 
Q 828 903 1448 1529 
Q 2069 2156 2228 2338 
Q 2531 2678 2651 2914 
Q 2772 3150 2772 3378 
Q 2772 3750 2511 3984 
Q 2250 4219 1831 4219 
Q 1534 4219 1204 4116 
Q 875 4013 500 3803 
L 500 4441 
Q 881 4594 1212 4672 
Q 1544 4750 1819 4750 
Q 2544 4750 2975 4387 
Q 3406 4025 3406 3419 
Q 3406 3131 3298 2873 
Q 3191 2616 2906 2266 
Q 2828 2175 2409 1742 
Q 1991 1309 1228 531 
z
" id="DejaVuSans-32" transform="scale(0.015625)"/>
       </defs>
       <use xlink:href="#DejaVuSans-32"/>
      </g>
     </g>
    </g>
    <g id="xtick_3">
     <g id="line2d_3">
      <g>
       <use style="stroke:#000000;stroke-width:0.8;" x="179.895868" xlink:href="#m69b60b5d55" y="252"/>
      </g>
     </g>
     <g id="text_3">
      <!-- 4 -->
      <g transform="translate(176.714618 266.598437)scale(0.1 -0.1)">
       <defs>
        <path d="M 2419 4116 
L 825 1625 
L 2419 1625 
L 2419 4116 
z
M 2253 4666 
L 3047 4666 
L 3047 1625 
L 3713 1625 
L 3713 1100 
L 3047 1100 
L 3047 0 
L 2419 0 
L 2419 1100 
L 313 1100 
L 313 1709 
L 2253 4666 
z
" id="DejaVuSans-34" transform="scale(0.015625)"/>
       </defs>
       <use xlink:href="#DejaVuSans-34"/>
      </g>
     </g>
    </g>
    <g id="xtick_4">
     <g id="line2d_4">
      <g>
       <use style="stroke:#000000;stroke-width:0.8;" x="235.234711" xlink:href="#m69b60b5d55" y="252"/>
      </g>
     </g>
     <g id="text_4">
      <!-- 6 -->
      <g transform="translate(232.053461 266.598437)scale(0.1 -0.1)">
       <defs>
        <path d="M 2113 2584 
Q 1688 2584 1439 2293 
Q 1191 2003 1191 1497 
Q 1191 994 1439 701 
Q 1688 409 2113 409 
Q 2538 409 2786 701 
Q 3034 994 3034 1497 
Q 3034 2003 2786 2293 
Q 2538 2584 2113 2584 
z
M 3366 4563 
L 3366 3988 
Q 3128 4100 2886 4159 
Q 2644 4219 2406 4219 
Q 1781 4219 1451 3797 
Q 1122 3375 1075 2522 
Q 1259 2794 1537 2939 
Q 1816 3084 2150 3084 
Q 2853 3084 3261 2657 
Q 3669 2231 3669 1497 
Q 3669 778 3244 343 
Q 2819 -91 2113 -91 
Q 1303 -91 875 529 
Q 447 1150 447 2328 
Q 447 3434 972 4092 
Q 1497 4750 2381 4750 
Q 2619 4750 2861 4703 
Q 3103 4656 3366 4563 
z
" id="DejaVuSans-36" transform="scale(0.015625)"/>
       </defs>
       <use xlink:href="#DejaVuSans-36"/>
      </g>
     </g>
    </g>
    <g id="xtick_5">
     <g id="line2d_5">
      <g>
       <use style="stroke:#000000;stroke-width:0.8;" x="290.573554" xlink:href="#m69b60b5d55" y="252"/>
      </g>
     </g>
     <g id="text_5">
      <!-- 8 -->
      <g transform="translate(287.392304 266.598437)scale(0.1 -0.1)">
       <defs>
        <path d="M 2034 2216 
Q 1584 2216 1326 1975 
Q 1069 1734 1069 1313 
Q 1069 891 1326 650 
Q 1584 409 2034 409 
Q 2484 409 2743 651 
Q 3003 894 3003 1313 
Q 3003 1734 2745 1975 
Q 2488 2216 2034 2216 
z
M 1403 2484 
Q 997 2584 770 2862 
Q 544 3141 544 3541 
Q 544 4100 942 4425 
Q 1341 4750 2034 4750 
Q 2731 4750 3128 4425 
Q 3525 4100 3525 3541 
Q 3525 3141 3298 2862 
Q 3072 2584 2669 2484 
Q 3125 2378 3379 2068 
Q 3634 1759 3634 1313 
Q 3634 634 3220 271 
Q 2806 -91 2034 -91 
Q 1263 -91 848 271 
Q 434 634 434 1313 
Q 434 1759 690 2068 
Q 947 2378 1403 2484 
z
M 1172 3481 
Q 1172 3119 1398 2916 
Q 1625 2713 2034 2713 
Q 2441 2713 2670 2916 
Q 2900 3119 2900 3481 
Q 2900 3844 2670 4047 
Q 2441 4250 2034 4250 
Q 1625 4250 1398 4047 
Q 1172 3844 1172 3481 
z
" id="DejaVuSans-38" transform="scale(0.015625)"/>
       </defs>
       <use xlink:href="#DejaVuSans-38"/>
      </g>
     </g>
    </g>
    <g id="xtick_6">
     <g id="line2d_6">
      <g>
       <use style="stroke:#000000;stroke-width:0.8;" x="345.912397" xlink:href="#m69b60b5d55" y="252"/>
      </g>
     </g>
     <g id="text_6">
      <!-- 10 -->
      <g transform="translate(339.549897 266.598437)scale(0.1 -0.1)">
       <defs>
        <path d="M 794 531 
L 1825 531 
L 1825 4091 
L 703 3866 
L 703 4441 
L 1819 4666 
L 2450 4666 
L 2450 531 
L 3481 531 
L 3481 0 
L 794 0 
L 794 531 
z
" id="DejaVuSans-31" transform="scale(0.015625)"/>
       </defs>
       <use xlink:href="#DejaVuSans-31"/>
       <use x="63.623047" xlink:href="#DejaVuSans-30"/>
      </g>
     </g>
    </g>
    <g id="text_7">
     <!-- x -->
     <g transform="translate(217.84875 281.79625)scale(0.12 -0.12)">
      <defs>
       <path d="M 3513 3500 
L 2247 1797 
L 3578 0 
L 2900 0 
L 1881 1375 
L 863 0 
L 184 0 
L 1544 1831 
L 300 3500 
L 978 3500 
L 1906 2253 
L 2834 3500 
L 3513 3500 
z
" id="DejaVuSans-78" transform="scale(0.015625)"/>
      </defs>
      <use xlink:href="#DejaVuSans-78"/>
     </g>
    </g>
   </g>
   <g id="matplotlib.axis_2">
    <g id="ytick_1">
     <g id="line2d_7">
      <defs>
       <path d="M 0 0 
L -3.5 0 
" id="m866917a162" style="stroke:#000000;stroke-width:0.8;"/>
      </defs>
      <g>
       <use style="stroke:#000000;stroke-width:0.8;" x="54" xlink:href="#m866917a162" y="252"/>
      </g>
     </g>
     <g id="text_8">
      <!-- 3 -->
      <g transform="translate(40.6375 255.799219)scale(0.1 -0.1)">
       <defs>
        <path d="M 2597 2516 
Q 3050 2419 3304 2112 
Q 3559 1806 3559 1356 
Q 3559 666 3084 287 
Q 2609 -91 1734 -91 
Q 1441 -91 1130 -33 
Q 819 25 488 141 
L 488 750 
Q 750 597 1062 519 
Q 1375 441 1716 441 
Q 2309 441 2620 675 
Q 2931 909 2931 1356 
Q 2931 1769 2642 2001 
Q 2353 2234 1838 2234 
L 1294 2234 
L 1294 2753 
L 1863 2753 
Q 2328 2753 2575 2939 
Q 2822 3125 2822 3475 
Q 2822 3834 2567 4026 
Q 2313 4219 1838 4219 
Q 1578 4219 1281 4162 
Q 984 4106 628 3988 
L 628 4550 
Q 988 4650 1302 4700 
Q 1616 4750 1894 4750 
Q 2613 4750 3031 4423 
Q 3450 4097 3450 3541 
Q 3450 3153 3228 2886 
Q 3006 2619 2597 2516 
z
" id="DejaVuSans-33" transform="scale(0.015625)"/>
       </defs>
       <use xlink:href="#DejaVuSans-33"/>
      </g>
     </g>
    </g>
    <g id="ytick_2">
     <g id="line2d_8">
      <g>
       <use style="stroke:#000000;stroke-width:0.8;" x="54" xlink:href="#m866917a162" y="215.76"/>
      </g>
     </g>
     <g id="text_9">
      <!-- 4 -->
      <g transform="translate(40.6375 219.559219)scale(0.1 -0.1)">
       <use xlink:href="#DejaVuSans-34"/>
      </g>
     </g>
    </g>
    <g id="ytick_3">
     <g id="line2d_9">
      <g>
       <use style="stroke:#000000;stroke-width:0.8;" x="54" xlink:href="#m866917a162" y="179.52"/>
      </g>
     </g>
     <g id="text_10">
      <!-- 5 -->
      <g transform="translate(40.6375 183.319219)scale(0.1 -0.1)">
       <defs>
        <path d="M 691 4666 
L 3169 4666 
L 3169 4134 
L 1269 4134 
L 1269 2991 
Q 1406 3038 1543 3061 
Q 1681 3084 1819 3084 
Q 2600 3084 3056 2656 
Q 3513 2228 3513 1497 
Q 3513 744 3044 326 
Q 2575 -91 1722 -91 
Q 1428 -91 1123 -41 
Q 819 9 494 109 
L 494 744 
Q 775 591 1075 516 
Q 1375 441 1709 441 
Q 2250 441 2565 725 
Q 2881 1009 2881 1497 
Q 2881 1984 2565 2268 
Q 2250 2553 1709 2553 
Q 1456 2553 1204 2497 
Q 953 2441 691 2322 
L 691 4666 
z
" id="DejaVuSans-35" transform="scale(0.015625)"/>
       </defs>
       <use xlink:href="#DejaVuSans-35"/>
      </g>
     </g>
    </g>
    <g id="ytick_4">
     <g id="line2d_10">
      <g>
       <use style="stroke:#000000;stroke-width:0.8;" x="54" xlink:href="#m866917a162" y="143.28"/>
      </g>
     </g>
     <g id="text_11">
      <!-- 6 -->
      <g transform="translate(40.6375 147.079219)scale(0.1 -0.1)">
       <use xlink:href="#DejaVuSans-36"/>
      </g>
     </g>
    </g>
    <g id="ytick_5">
     <g id="line2d_11">
      <g>
       <use style="stroke:#000000;stroke-width:0.8;" x="54" xlink:href="#m866917a162" y="107.04"/>
      </g>
     </g>
     <g id="text_12">
      <!-- 7 -->
      <g transform="translate(40.6375 110.839219)scale(0.1 -0.1)">
       <defs>
        <path d="M 525 4666 
L 3525 4666 
L 3525 4397 
L 1831 0 
L 1172 0 
L 2766 4134 
L 525 4134 
L 525 4666 
z
" id="DejaVuSans-37" transform="scale(0.015625)"/>
       </defs>
       <use xlink:href="#DejaVuSans-37"/>
      </g>
     </g>
    </g>
    <g id="ytick_6">
     <g id="line2d_12">
      <g>
       <use style="stroke:#000000;stroke-width:0.8;" x="54" xlink:href="#m866917a162" y="70.8"/>
      </g>
     </g>
     <g id="text_13">
      <!-- 8 -->
      <g transform="translate(40.6375 74.599219)scale(0.1 -0.1)">
       <use xlink:href="#DejaVuSans-38"/>
      </g>
     </g>
    </g>
    <g id="ytick_7">
     <g id="line2d_13">
      <g>
       <use style="stroke:#000000;stroke-width:0.8;" x="54" xlink:href="#m866917a162" y="34.56"/>
      </g>
     </g>
     <g id="text_14">
      <!-- 9 -->
      <g transform="translate(40.6375 38.359219)scale(0.1 -0.1)">
       <defs>
        <path d="M 703 97 
L 703 672 
Q 941 559 1184 500 
Q 1428 441 1663 441 
Q 2288 441 2617 861 
Q 2947 1281 2994 2138 
Q 2813 1869 2534 1725 
Q 2256 1581 1919 1581 
Q 1219 1581 811 2004 
Q 403 2428 403 3163 
Q 403 3881 828 4315 
Q 1253 4750 1959 4750 
Q 2769 4750 3195 4129 
Q 3622 3509 3622 2328 
Q 3622 1225 3098 567 
Q 2575 -91 1691 -91 
Q 1453 -91 1209 -44 
Q 966 3 703 97 
z
M 1959 2075 
Q 2384 2075 2632 2365 
Q 2881 2656 2881 3163 
Q 2881 3666 2632 3958 
Q 2384 4250 1959 4250 
Q 1534 4250 1286 3958 
Q 1038 3666 1038 3163 
Q 1038 2656 1286 2365 
Q 1534 2075 1959 2075 
z
" id="DejaVuSans-39" transform="scale(0.015625)"/>
       </defs>
       <use xlink:href="#DejaVuSans-39"/>
      </g>
     </g>
    </g>
    <g id="text_15">
     <!-- y -->
     <g transform="translate(34.141875 146.83125)rotate(-90)scale(0.12 -0.12)">
      <defs>
       <path d="M 2059 -325 
Q 1816 -950 1584 -1140 
Q 1353 -1331 966 -1331 
L 506 -1331 
L 506 -850 
L 844 -850 
Q 1081 -850 1212 -737 
Q 1344 -625 1503 -206 
L 1606 56 
L 191 3500 
L 800 3500 
L 1894 763 
L 2988 3500 
L 3597 3500 
L 2059 -325 
z
" id="DejaVuSans-79" transform="scale(0.015625)"/>
      </defs>
      <use xlink:href="#DejaVuSans-79"/>
     </g>
    </g>
   </g>
   <g id="line2d_14">
    <path clip-path="url(#p8d3f7b0ffe)" d="M 69.218182 70.8 
L 71.985124 85.083949 
L 74.752066 98.25467 
L 77.519008 110.364828 
L 80.28595 121.465955 
L 83.052893 131.608455 
L 85.819835 140.841599 
L 88.586777 149.213528 
L 91.353719 156.771253 
L 94.120661 163.560654 
L 96.887603 169.62648 
L 99.654545 175.012349 
L 102.421488 179.76075 
L 105.18843 183.913038 
L 107.955372 187.509441 
L 110.722314 190.589055 
L 113.489256 193.189844 
L 116.256198 195.348643 
L 119.02314 197.101155 
L 121.790083 198.481953 
L 124.557025 199.52448 
L 127.323967 200.261047 
L 130.090909 200.722835 
L 132.857851 200.939895 
L 135.624793 200.941145 
L 138.391736 200.754375 
L 141.158678 200.406243 
L 143.92562 199.922276 
L 146.692562 199.326871 
L 149.459504 198.643294 
L 152.226446 197.89368 
L 154.993388 197.099035 
L 157.760331 196.279231 
L 160.527273 195.453014 
L 163.294215 194.637994 
L 166.061157 193.850655 
L 168.828099 193.106347 
L 171.595041 192.419291 
L 174.361983 191.802577 
L 177.128926 191.268164 
L 179.895868 190.82688 
L 182.66281 190.488424 
L 185.429752 190.261362 
L 188.196694 190.153131 
L 190.963636 190.170037 
L 193.730579 190.317255 
L 196.497521 190.598829 
L 199.264463 191.017673 
L 202.031405 191.575569 
L 204.798347 192.273171 
L 207.565289 193.11 
L 210.332231 194.084446 
L 213.099174 195.193771 
L 215.866116 196.434103 
L 218.633058 197.800442 
L 221.4 199.286655 
L 224.166942 200.88548 
L 226.933884 202.588525 
L 229.700826 204.386264 
L 232.467769 206.268045 
L 235.234711 208.22208 
L 238.001653 210.235455 
L 240.768595 212.294122 
L 243.535537 214.382905 
L 246.302479 216.485496 
L 249.069421 218.584455 
L 251.836364 220.661214 
L 254.603306 222.696071 
L 257.370248 224.668198 
L 260.13719 226.555631 
L 262.904132 228.33528 
L 265.671074 229.982921 
L 268.438017 231.4732 
L 271.204959 232.779634 
L 273.971901 233.874607 
L 276.738843 234.729375 
L 279.505785 235.31406 
L 282.272727 235.597656 
L 285.039669 235.548026 
L 287.806612 235.1319 
L 290.573554 234.31488 
L 293.340496 233.061436 
L 296.107438 231.334908 
L 298.87438 229.097505 
L 301.641322 226.310305 
L 304.408264 222.933255 
L 307.175207 218.925173 
L 309.942149 214.243744 
L 312.709091 208.845524 
L 315.476033 202.685938 
L 318.242975 195.71928 
L 321.009917 187.898713 
L 323.77686 179.176271 
L 326.543802 169.502854 
L 329.310744 158.828236 
L 332.077686 147.101055 
L 334.844628 134.268823 
L 337.61157 120.277918 
L 340.378512 105.073589 
L 343.145455 88.599954 
L 345.912397 70.8 
L 348.679339 51.615584 
L 351.446281 30.987432 
L 354.213223 8.855138 
L 355.363895 -1 
" style="fill:none;stroke:#0000ff;stroke-linecap:square;stroke-width:2;"/>
   </g>
   <g id="line2d_15">
    <path clip-path="url(#p8d3f7b0ffe)" d="M 69.218182 168.074608 
L 71.985124 165.574073 
L 74.752066 163.813827 
L 77.519008 162.892028 
L 80.28595 162.867381 
L 83.052893 163.748721 
L 85.819835 165.489581 
L 88.586777 167.990732 
L 91.353719 171.111614 
L 94.120661 174.688629 
L 96.887603 178.556377 
L 99.654545 182.56817 
L 102.421488 186.613016 
L 105.18843 190.624933 
L 107.955372 194.57559 
L 110.722314 198.440657 
L 113.489256 202.152709 
L 116.256198 205.585211 
L 119.02314 208.587171 
L 121.790083 211.031164 
L 124.557025 212.839799 
L 127.323967 213.989888 
L 130.090909 214.505537 
L 132.857851 214.447452 
L 135.624793 213.901452 
L 138.391736 212.967446 
L 141.158678 211.749727 
L 143.92562 210.349373 
L 146.692562 208.859361 
L 149.459504 207.362661 
L 152.226446 205.932894 
L 154.993388 204.63631 
L 157.760331 203.532784 
L 160.527273 202.672834 
L 163.294215 202.088841 
L 166.061157 201.783345 
L 168.828099 201.723094 
L 171.595041 201.84652 
L 174.361983 202.082677 
L 177.128926 202.372255 
L 179.895868 202.683024 
L 182.66281 203.017213 
L 185.429752 203.410786 
L 188.196694 203.924851 
L 190.963636 204.630147 
L 193.730579 205.588113 
L 196.497521 206.834584 
L 199.264463 208.371568 
L 202.031405 210.168334 
L 204.798347 212.168815 
L 207.565289 214.301167 
L 210.332231 216.486724 
L 213.099174 218.647398 
L 215.866116 220.711572 
L 218.633058 222.618858 
L 221.4 224.32404 
L 224.166942 225.800419 
L 226.933884 227.042663 
L 229.700826 228.069141 
L 232.467769 228.923536 
L 235.234711 229.675022 
L 238.001653 230.415327 
L 240.768595 231.249434 
L 243.535537 232.275977 
L 246.302479 233.557413 
L 249.069421 235.091455 
L 251.836364 236.804129 
L 254.603306 238.573066 
L 257.370248 240.265656 
L 260.13719 241.77009 
L 262.904132 243.010338 
L 265.671074 243.948079 
L 268.438017 244.577278 
L 271.204959 244.915382 
L 273.971901 244.993189 
L 276.738843 244.844598 
L 279.505785 244.497186 
L 282.272727 243.964566 
L 285.039669 243.241417 
L 287.806612 242.301725 
L 290.573554 241.100228 
L 293.340496 239.576353 
L 296.107438 237.659394 
L 298.87438 235.273466 
L 301.641322 232.341076 
L 304.408264 228.785251 
L 307.175207 224.531818 
L 309.942149 219.514526 
L 312.709091 213.684619 
L 315.476033 207.02344 
L 318.242975 199.554554 
L 321.009917 191.352274 
L 323.77686 182.545472 
L 326.543802 173.317011 
L 329.310744 163.899549 
L 332.077686 154.567977 
L 334.844628 145.627889 
L 337.61157 137.39866 
L 340.378512 130.190255 
L 343.145455 124.275716 
L 345.912397 119.865481 
L 348.679339 117.090874 
L 351.446281 115.999861 
L 354.213223 116.562556 
L 356.980165 118.681824 
L 359.747107 122.205793 
L 362.51405 126.940957 
L 365.280992 132.665457 
L 368.047934 139.142221 
L 370.814876 146.131464 
L 373.581818 153.401978 
" style="fill:none;stroke:#008000;stroke-dasharray:3.7,1.6;stroke-dashoffset:0;"/>
   </g>
   <g id="line2d_16">
    <path clip-path="url(#p8d3f7b0ffe)" d="M 69.218182 118.346239 
L 71.985124 119.518872 
L 74.752066 121.322397 
L 77.519008 123.753648 
L 80.28595 126.795231 
L 83.052893 130.420018 
L 85.819835 134.593945 
L 88.586777 139.274567 
L 91.353719 144.404579 
L 94.120661 149.902156 
L 96.887603 155.651577 
L 99.654545 161.49702 
L 102.421488 167.241396 
L 105.18843 172.653234 
L 107.955372 177.489487 
L 110.722314 181.54278 
L 113.489256 184.699306 
L 116.256198 186.962156 
L 119.02314 188.420058 
L 121.790083 189.19874 
L 124.557025 189.430046 
L 127.323967 189.240053 
L 130.090909 188.745718 
L 132.857851 188.053639 
L 135.624793 187.258917 
L 138.391736 186.443829 
L 141.158678 185.676318 
L 143.92562 185.008252 
L 146.692562 184.47335 
L 149.459504 184.084813 
L 152.226446 183.833129 
L 154.993388 183.685145 
L 157.760331 183.586367 
L 160.527273 183.468986 
L 163.294215 183.266894 
L 166.061157 182.934177 
L 168.828099 182.457846 
L 171.595041 181.856563 
L 174.361983 181.166908 
L 177.128926 180.426271 
L 179.895868 179.659804 
L 182.66281 178.873914 
L 185.429752 178.056392 
L 188.196694 177.183134 
L 190.963636 176.230758 
L 193.730579 175.191927 
L 196.497521 174.087648 
L 199.264463 172.971426 
L 202.031405 171.92431 
L 204.798347 171.044096 
L 207.565289 170.433016 
L 210.332231 170.186787 
L 213.099174 170.38607 
L 215.866116 171.090264 
L 218.633058 172.333235 
L 221.4 174.120582 
L 224.166942 176.428095 
L 226.933884 179.201192 
L 229.700826 182.355199 
L 232.467769 185.776535 
L 235.234711 189.325393 
L 238.001653 192.841454 
L 240.768595 196.155784 
L 243.535537 199.112742 
L 246.302479 201.601753 
L 249.069421 203.587351 
L 251.836364 205.117091 
L 254.603306 206.298609 
L 257.370248 207.261135 
L 260.13719 208.123355 
L 262.904132 208.976495 
L 265.671074 209.879569 
L 268.438017 210.86107 
L 271.204959 211.923229 
L 273.971901 213.046899 
L 276.738843 214.196148 
L 279.505785 215.322002 
L 282.272727 216.364856 
L 285.039669 217.255296 
L 287.806612 217.913397 
L 290.573554 218.247151 
L 293.340496 218.151257 
L 296.107438 217.507889 
L 298.87438 216.191008 
L 301.641322 214.075162 
L 304.408264 211.048281 
L 307.175207 207.025985 
L 309.942149 201.963488 
L 312.709091 195.862115 
L 315.476033 188.770315 
L 318.242975 180.781281 
L 321.009917 172.029029 
L 323.77686 162.683206 
L 326.543802 152.941869 
L 329.310744 143.021659 
L 332.077686 133.145786 
L 334.844628 123.531678 
L 337.61157 114.381355 
L 340.378512 105.877333 
L 343.145455 98.184134 
L 345.912397 91.451156 
L 348.679339 85.81124 
L 351.446281 81.373047 
L 354.213223 78.210484 
L 356.980165 76.353941 
L 359.747107 75.786126 
L 362.51405 76.442858 
L 365.280992 78.21795 
L 368.047934 80.970933 
L 370.814876 84.536498 
L 373.581818 88.734639 
" style="fill:none;stroke:#008000;stroke-dasharray:3.7,1.6;stroke-dashoffset:0;"/>
   </g>
   <g id="line2d_17">
    <path clip-path="url(#p8d3f7b0ffe)" d="M 69.218182 254.364543 
L 71.985124 254.603965 
L 74.752066 253.698676 
L 77.519008 253.245523 
L 80.28595 252.951362 
L 83.052893 252.659321 
L 85.819835 252.581712 
L 88.586777 252.519339 
L 91.353719 252.45422 
L 94.120661 252.382306 
L 96.887603 252.268243 
L 99.654545 252.220227 
L 102.421488 252.160197 
L 105.18843 252.032318 
L 107.955372 251.948403 
L 110.722314 251.934483 
L 113.489256 251.913278 
L 116.256198 251.922541 
L 119.02314 251.853124 
L 121.790083 251.861815 
L 124.557025 251.859459 
L 127.323967 251.956795 
L 130.090909 251.903169 
L 132.857851 251.785825 
L 135.624793 251.867424 
L 138.391736 251.856567 
L 141.158678 251.901097 
L 143.92562 251.974637 
L 146.692562 252.013266 
L 149.459504 251.967766 
L 152.226446 252.014095 
L 154.993388 251.94653 
L 157.760331 251.883014 
L 160.527273 251.90212 
L 163.294215 251.971568 
L 166.061157 251.919137 
L 168.828099 251.851605 
L 171.595041 251.761832 
L 174.361983 252.330699 
L 177.128926 252.144583 
L 179.895868 251.497844 
L 182.66281 251.911111 
L 185.429752 251.846319 
L 188.196694 252.402371 
L 190.963636 251.949168 
L 193.730579 251.97583 
L 196.497521 252.227925 
L 199.264463 252.450237 
L 202.031405 252.636497 
L 204.798347 250.061622 
L 207.565289 248.706777 
L 210.332231 250.968713 
L 213.099174 251.315337 
L 215.866116 251.492987 
L 218.633058 250.517836 
L 221.4 251.305739 
L 224.166942 248.49472 
L 226.933884 250.992458 
L 229.700826 245.091983 
L 232.467769 251.791393 
L 235.234711 251.236001 
L 238.001653 252.551101 
L 240.768595 247.932785 
L 243.535537 253.027728 
L 246.302479 251.648842 
L 249.069421 249.434317 
L 251.836364 250.690816 
L 254.603306 255.003366 
L 257.370248 261.968344 
L 260.13719 240.288123 
L 262.904132 240.658153 
L 265.671074 251.288578 
L 268.438017 255.813404 
L 271.204959 252.341269 
L 273.971901 253.904969 
L 276.738843 267.673226 
L 279.505785 257.578038 
L 282.272727 248.826402 
L 285.039669 246.107564 
L 287.806612 247.465033 
L 290.573554 251.187009 
L 293.340496 248.223376 
L 296.107438 250.560759 
L 298.87438 251.503675 
L 301.641322 253.305147 
L 304.408264 252.365489 
L 307.175207 251.44944 
L 309.942149 249.997316 
L 312.709091 251.381092 
L 315.476033 250.927755 
L 318.242975 251.466613 
L 321.009917 252.739575 
L 323.77686 252.514873 
L 326.543802 252.08882 
L 329.310744 251.578437 
L 332.077686 252.3152 
L 334.844628 253.026119 
L 337.61157 253.529926 
L 340.378512 255.500596 
L 343.145455 256.439003 
L 345.912397 258.78574 
L 348.679339 260.550101 
L 351.446281 262.244887 
L 354.213223 262.943069 
L 356.980165 263.890444 
L 359.747107 261.70907 
L 362.51405 260.285118 
L 365.280992 259.328143 
L 368.047934 258.174633 
L 370.814876 260.833151 
L 373.581818 257.266969 
" style="fill:none;stroke:#bfbf00;stroke-dasharray:7.4,3.2;stroke-dashoffset:0;stroke-width:2;"/>
   </g>
   <g id="patch_3">
    <path d="M 54 252 
L 54 34.56 
" style="fill:none;stroke:#000000;stroke-linecap:square;stroke-linejoin:miter;stroke-width:0.8;"/>
   </g>
   <g id="patch_4">
    <path d="M 388.8 252 
L 388.8 34.56 
" style="fill:none;stroke:#000000;stroke-linecap:square;stroke-linejoin:miter;stroke-width:0.8;"/>
   </g>
   <g id="patch_5">
    <path d="M 54 252 
L 388.8 252 
" style="fill:none;stroke:#000000;stroke-linecap:square;stroke-linejoin:miter;stroke-width:0.8;"/>
   </g>
   <g id="patch_6">
    <path d="M 54 34.56 
L 388.8 34.56 
" style="fill:none;stroke:#000000;stroke-linecap:square;stroke-linejoin:miter;stroke-width:0.8;"/>
   </g>
   <g id="text_16">
    <!-- Method : KG -->
    <g transform="translate(71.985124 244.752)scale(0.12 -0.12)">
     <defs>
      <path d="M 628 4666 
L 1569 4666 
L 2759 1491 
L 3956 4666 
L 4897 4666 
L 4897 0 
L 4281 0 
L 4281 4097 
L 3078 897 
L 2444 897 
L 1241 4097 
L 1241 0 
L 628 0 
L 628 4666 
z
" id="DejaVuSans-4d" transform="scale(0.015625)"/>
      <path d="M 3597 1894 
L 3597 1613 
L 953 1613 
Q 991 1019 1311 708 
Q 1631 397 2203 397 
Q 2534 397 2845 478 
Q 3156 559 3463 722 
L 3463 178 
Q 3153 47 2828 -22 
Q 2503 -91 2169 -91 
Q 1331 -91 842 396 
Q 353 884 353 1716 
Q 353 2575 817 3079 
Q 1281 3584 2069 3584 
Q 2775 3584 3186 3129 
Q 3597 2675 3597 1894 
z
M 3022 2063 
Q 3016 2534 2758 2815 
Q 2500 3097 2075 3097 
Q 1594 3097 1305 2825 
Q 1016 2553 972 2059 
L 3022 2063 
z
" id="DejaVuSans-65" transform="scale(0.015625)"/>
      <path d="M 1172 4494 
L 1172 3500 
L 2356 3500 
L 2356 3053 
L 1172 3053 
L 1172 1153 
Q 1172 725 1289 603 
Q 1406 481 1766 481 
L 2356 481 
L 2356 0 
L 1766 0 
Q 1100 0 847 248 
Q 594 497 594 1153 
L 594 3053 
L 172 3053 
L 172 3500 
L 594 3500 
L 594 4494 
L 1172 4494 
z
" id="DejaVuSans-74" transform="scale(0.015625)"/>
      <path d="M 3513 2113 
L 3513 0 
L 2938 0 
L 2938 2094 
Q 2938 2591 2744 2837 
Q 2550 3084 2163 3084 
Q 1697 3084 1428 2787 
Q 1159 2491 1159 1978 
L 1159 0 
L 581 0 
L 581 4863 
L 1159 4863 
L 1159 2956 
Q 1366 3272 1645 3428 
Q 1925 3584 2291 3584 
Q 2894 3584 3203 3211 
Q 3513 2838 3513 2113 
z
" id="DejaVuSans-68" transform="scale(0.015625)"/>
      <path d="M 1959 3097 
Q 1497 3097 1228 2736 
Q 959 2375 959 1747 
Q 959 1119 1226 758 
Q 1494 397 1959 397 
Q 2419 397 2687 759 
Q 2956 1122 2956 1747 
Q 2956 2369 2687 2733 
Q 2419 3097 1959 3097 
z
M 1959 3584 
Q 2709 3584 3137 3096 
Q 3566 2609 3566 1747 
Q 3566 888 3137 398 
Q 2709 -91 1959 -91 
Q 1206 -91 779 398 
Q 353 888 353 1747 
Q 353 2609 779 3096 
Q 1206 3584 1959 3584 
z
" id="DejaVuSans-6f" transform="scale(0.015625)"/>
      <path d="M 2906 2969 
L 2906 4863 
L 3481 4863 
L 3481 0 
L 2906 0 
L 2906 525 
Q 2725 213 2448 61 
Q 2172 -91 1784 -91 
Q 1150 -91 751 415 
Q 353 922 353 1747 
Q 353 2572 751 3078 
Q 1150 3584 1784 3584 
Q 2172 3584 2448 3432 
Q 2725 3281 2906 2969 
z
M 947 1747 
Q 947 1113 1208 752 
Q 1469 391 1925 391 
Q 2381 391 2643 752 
Q 2906 1113 2906 1747 
Q 2906 2381 2643 2742 
Q 2381 3103 1925 3103 
Q 1469 3103 1208 2742 
Q 947 2381 947 1747 
z
" id="DejaVuSans-64" transform="scale(0.015625)"/>
      <path id="DejaVuSans-20" transform="scale(0.015625)"/>
      <path d="M 750 794 
L 1409 794 
L 1409 0 
L 750 0 
L 750 794 
z
M 750 3309 
L 1409 3309 
L 1409 2516 
L 750 2516 
L 750 3309 
z
" id="DejaVuSans-3a" transform="scale(0.015625)"/>
      <path d="M 628 4666 
L 1259 4666 
L 1259 2694 
L 3353 4666 
L 4166 4666 
L 1850 2491 
L 4331 0 
L 3500 0 
L 1259 2247 
L 1259 0 
L 628 0 
L 628 4666 
z
" id="DejaVuSans-4b" transform="scale(0.015625)"/>
      <path d="M 3809 666 
L 3809 1919 
L 2778 1919 
L 2778 2438 
L 4434 2438 
L 4434 434 
Q 4069 175 3628 42 
Q 3188 -91 2688 -91 
Q 1594 -91 976 548 
Q 359 1188 359 2328 
Q 359 3472 976 4111 
Q 1594 4750 2688 4750 
Q 3144 4750 3555 4637 
Q 3966 4525 4313 4306 
L 4313 3634 
Q 3963 3931 3569 4081 
Q 3175 4231 2741 4231 
Q 1884 4231 1454 3753 
Q 1025 3275 1025 2328 
Q 1025 1384 1454 906 
Q 1884 428 2741 428 
Q 3075 428 3337 486 
Q 3600 544 3809 666 
z
" id="DejaVuSans-47" transform="scale(0.015625)"/>
     </defs>
     <use xlink:href="#DejaVuSans-4d"/>
     <use x="86.279297" xlink:href="#DejaVuSans-65"/>
     <use x="147.802734" xlink:href="#DejaVuSans-74"/>
     <use x="187.011719" xlink:href="#DejaVuSans-68"/>
     <use x="250.390625" xlink:href="#DejaVuSans-6f"/>
     <use x="311.572266" xlink:href="#DejaVuSans-64"/>
     <use x="375.048828" xlink:href="#DejaVuSans-20"/>
     <use x="406.835938" xlink:href="#DejaVuSans-3a"/>
     <use x="440.527344" xlink:href="#DejaVuSans-20"/>
     <use x="472.314453" xlink:href="#DejaVuSans-4b"/>
     <use x="537.890625" xlink:href="#DejaVuSans-47"/>
    </g>
   </g>
   <g id="text_17">
    <!-- Iter=3 -->
    <g transform="translate(71.985124 226.632)scale(0.12 -0.12)">
     <defs>
      <path d="M 628 4666 
L 1259 4666 
L 1259 0 
L 628 0 
L 628 4666 
z
" id="DejaVuSans-49" transform="scale(0.015625)"/>
      <path d="M 2631 2963 
Q 2534 3019 2420 3045 
Q 2306 3072 2169 3072 
Q 1681 3072 1420 2755 
Q 1159 2438 1159 1844 
L 1159 0 
L 581 0 
L 581 3500 
L 1159 3500 
L 1159 2956 
Q 1341 3275 1631 3429 
Q 1922 3584 2338 3584 
Q 2397 3584 2469 3576 
Q 2541 3569 2628 3553 
L 2631 2963 
z
" id="DejaVuSans-72" transform="scale(0.015625)"/>
      <path d="M 678 2906 
L 4684 2906 
L 4684 2381 
L 678 2381 
L 678 2906 
z
M 678 1631 
L 4684 1631 
L 4684 1100 
L 678 1100 
L 678 1631 
z
" id="DejaVuSans-3d" transform="scale(0.015625)"/>
     </defs>
     <use xlink:href="#DejaVuSans-49"/>
     <use x="29.492188" xlink:href="#DejaVuSans-74"/>
     <use x="68.701172" xlink:href="#DejaVuSans-65"/>
     <use x="130.224609" xlink:href="#DejaVuSans-72"/>
     <use x="171.337891" xlink:href="#DejaVuSans-3d"/>
     <use x="255.126953" xlink:href="#DejaVuSans-33"/>
    </g>
   </g>
   <g id="text_18">
    <!-- (d) -->
    <g transform="translate(71.985124 56.304)scale(0.12 -0.12)">
     <defs>
      <path d="M 1984 4856 
Q 1566 4138 1362 3434 
Q 1159 2731 1159 2009 
Q 1159 1288 1364 580 
Q 1569 -128 1984 -844 
L 1484 -844 
Q 1016 -109 783 600 
Q 550 1309 550 2009 
Q 550 2706 781 3412 
Q 1013 4119 1484 4856 
L 1984 4856 
z
" id="DejaVuSans-28" transform="scale(0.015625)"/>
      <path d="M 513 4856 
L 1013 4856 
Q 1481 4119 1714 3412 
Q 1947 2706 1947 2009 
Q 1947 1309 1714 600 
Q 1481 -109 1013 -844 
L 513 -844 
Q 928 -128 1133 580 
Q 1338 1288 1338 2009 
Q 1338 2731 1133 3434 
Q 928 4138 513 4856 
z
" id="DejaVuSans-29" transform="scale(0.015625)"/>
     </defs>
     <use xlink:href="#DejaVuSans-28"/>
     <use x="39.013672" xlink:href="#DejaVuSans-64"/>
     <use x="102.490234" xlink:href="#DejaVuSans-29"/>
    </g>
   </g>
   <g id="legend_1">
    <g id="patch_7">
     <path d="M 144.327812 140.235625 
L 298.472188 140.235625 
Q 300.672188 140.235625 300.672188 138.035625 
L 300.672188 42.26 
Q 300.672188 40.06 298.472188 40.06 
L 144.327812 40.06 
Q 142.127813 40.06 142.127813 42.26 
L 142.127813 138.035625 
Q 142.127813 140.235625 144.327812 140.235625 
z
" style="fill:#ffffff;opacity:0.8;stroke:#cccccc;stroke-linejoin:miter;"/>
    </g>
    <g id="line2d_18">
     <path d="M 146.527813 48.968281 
L 168.527813 48.968281 
" style="fill:none;stroke:#0000ff;stroke-linecap:square;stroke-width:2;"/>
    </g>
    <g id="line2d_19"/>
    <g id="text_19">
     <!-- ture function -->
     <g transform="translate(177.327813 52.818281)scale(0.11 -0.11)">
      <defs>
       <path d="M 544 1381 
L 544 3500 
L 1119 3500 
L 1119 1403 
Q 1119 906 1312 657 
Q 1506 409 1894 409 
Q 2359 409 2629 706 
Q 2900 1003 2900 1516 
L 2900 3500 
L 3475 3500 
L 3475 0 
L 2900 0 
L 2900 538 
Q 2691 219 2414 64 
Q 2138 -91 1772 -91 
Q 1169 -91 856 284 
Q 544 659 544 1381 
z
M 1991 3584 
L 1991 3584 
z
" id="DejaVuSans-75" transform="scale(0.015625)"/>
       <path d="M 2375 4863 
L 2375 4384 
L 1825 4384 
Q 1516 4384 1395 4259 
Q 1275 4134 1275 3809 
L 1275 3500 
L 2222 3500 
L 2222 3053 
L 1275 3053 
L 1275 0 
L 697 0 
L 697 3053 
L 147 3053 
L 147 3500 
L 697 3500 
L 697 3744 
Q 697 4328 969 4595 
Q 1241 4863 1831 4863 
L 2375 4863 
z
" id="DejaVuSans-66" transform="scale(0.015625)"/>
       <path d="M 3513 2113 
L 3513 0 
L 2938 0 
L 2938 2094 
Q 2938 2591 2744 2837 
Q 2550 3084 2163 3084 
Q 1697 3084 1428 2787 
Q 1159 2491 1159 1978 
L 1159 0 
L 581 0 
L 581 3500 
L 1159 3500 
L 1159 2956 
Q 1366 3272 1645 3428 
Q 1925 3584 2291 3584 
Q 2894 3584 3203 3211 
Q 3513 2838 3513 2113 
z
" id="DejaVuSans-6e" transform="scale(0.015625)"/>
       <path d="M 3122 3366 
L 3122 2828 
Q 2878 2963 2633 3030 
Q 2388 3097 2138 3097 
Q 1578 3097 1268 2742 
Q 959 2388 959 1747 
Q 959 1106 1268 751 
Q 1578 397 2138 397 
Q 2388 397 2633 464 
Q 2878 531 3122 666 
L 3122 134 
Q 2881 22 2623 -34 
Q 2366 -91 2075 -91 
Q 1284 -91 818 406 
Q 353 903 353 1747 
Q 353 2603 823 3093 
Q 1294 3584 2113 3584 
Q 2378 3584 2631 3529 
Q 2884 3475 3122 3366 
z
" id="DejaVuSans-63" transform="scale(0.015625)"/>
       <path d="M 603 3500 
L 1178 3500 
L 1178 0 
L 603 0 
L 603 3500 
z
M 603 4863 
L 1178 4863 
L 1178 4134 
L 603 4134 
L 603 4863 
z
" id="DejaVuSans-69" transform="scale(0.015625)"/>
      </defs>
      <use xlink:href="#DejaVuSans-74"/>
      <use x="39.208984" xlink:href="#DejaVuSans-75"/>
      <use x="102.587891" xlink:href="#DejaVuSans-72"/>
      <use x="141.451172" xlink:href="#DejaVuSans-65"/>
      <use x="202.974609" xlink:href="#DejaVuSans-20"/>
      <use x="234.761719" xlink:href="#DejaVuSans-66"/>
      <use x="269.966797" xlink:href="#DejaVuSans-75"/>
      <use x="333.345703" xlink:href="#DejaVuSans-6e"/>
      <use x="396.724609" xlink:href="#DejaVuSans-63"/>
      <use x="451.705078" xlink:href="#DejaVuSans-74"/>
      <use x="490.914062" xlink:href="#DejaVuSans-69"/>
      <use x="518.697266" xlink:href="#DejaVuSans-6f"/>
      <use x="579.878906" xlink:href="#DejaVuSans-6e"/>
     </g>
    </g>
    <g id="line2d_20">
     <path d="M 146.527813 65.114219 
L 168.527813 65.114219 
" style="fill:none;stroke:#000000;stroke-dasharray:7.4,3.2;stroke-dashoffset:0;stroke-width:2;"/>
    </g>
    <g id="line2d_21"/>
    <g id="text_20">
     <!-- predicted function -->
     <g transform="translate(177.327813 68.964219)scale(0.11 -0.11)">
      <defs>
       <path d="M 1159 525 
L 1159 -1331 
L 581 -1331 
L 581 3500 
L 1159 3500 
L 1159 2969 
Q 1341 3281 1617 3432 
Q 1894 3584 2278 3584 
Q 2916 3584 3314 3078 
Q 3713 2572 3713 1747 
Q 3713 922 3314 415 
Q 2916 -91 2278 -91 
Q 1894 -91 1617 61 
Q 1341 213 1159 525 
z
M 3116 1747 
Q 3116 2381 2855 2742 
Q 2594 3103 2138 3103 
Q 1681 3103 1420 2742 
Q 1159 2381 1159 1747 
Q 1159 1113 1420 752 
Q 1681 391 2138 391 
Q 2594 391 2855 752 
Q 3116 1113 3116 1747 
z
" id="DejaVuSans-70" transform="scale(0.015625)"/>
      </defs>
      <use xlink:href="#DejaVuSans-70"/>
      <use x="63.476562" xlink:href="#DejaVuSans-72"/>
      <use x="102.339844" xlink:href="#DejaVuSans-65"/>
      <use x="163.863281" xlink:href="#DejaVuSans-64"/>
      <use x="227.339844" xlink:href="#DejaVuSans-69"/>
      <use x="255.123047" xlink:href="#DejaVuSans-63"/>
      <use x="310.103516" xlink:href="#DejaVuSans-74"/>
      <use x="349.3125" xlink:href="#DejaVuSans-65"/>
      <use x="410.835938" xlink:href="#DejaVuSans-64"/>
      <use x="474.3125" xlink:href="#DejaVuSans-20"/>
      <use x="506.099609" xlink:href="#DejaVuSans-66"/>
      <use x="541.304688" xlink:href="#DejaVuSans-75"/>
      <use x="604.683594" xlink:href="#DejaVuSans-6e"/>
      <use x="668.0625" xlink:href="#DejaVuSans-63"/>
      <use x="723.042969" xlink:href="#DejaVuSans-74"/>
      <use x="762.251953" xlink:href="#DejaVuSans-69"/>
      <use x="790.035156" xlink:href="#DejaVuSans-6f"/>
      <use x="851.216797" xlink:href="#DejaVuSans-6e"/>
     </g>
    </g>
    <g id="line2d_22">
     <path d="M 146.527813 81.260156 
L 168.527813 81.260156 
" style="fill:none;stroke:#008000;stroke-dasharray:3.7,1.6;stroke-dashoffset:0;"/>
    </g>
    <g id="line2d_23"/>
    <g id="text_21">
     <!--  ± Sn(x) -->
     <g transform="translate(177.327813 85.110156)scale(0.11 -0.11)">
      <defs>
       <path d="M 2944 4013 
L 2944 2803 
L 4684 2803 
L 4684 2272 
L 2944 2272 
L 2944 1063 
L 2419 1063 
L 2419 2272 
L 678 2272 
L 678 2803 
L 2419 2803 
L 2419 4013 
L 2944 4013 
z
M 678 531 
L 4684 531 
L 4684 0 
L 678 0 
L 678 531 
z
" id="DejaVuSans-b1" transform="scale(0.015625)"/>
       <path d="M 3425 4513 
L 3425 3897 
Q 3066 4069 2747 4153 
Q 2428 4238 2131 4238 
Q 1616 4238 1336 4038 
Q 1056 3838 1056 3469 
Q 1056 3159 1242 3001 
Q 1428 2844 1947 2747 
L 2328 2669 
Q 3034 2534 3370 2195 
Q 3706 1856 3706 1288 
Q 3706 609 3251 259 
Q 2797 -91 1919 -91 
Q 1588 -91 1214 -16 
Q 841 59 441 206 
L 441 856 
Q 825 641 1194 531 
Q 1563 422 1919 422 
Q 2459 422 2753 634 
Q 3047 847 3047 1241 
Q 3047 1584 2836 1778 
Q 2625 1972 2144 2069 
L 1759 2144 
Q 1053 2284 737 2584 
Q 422 2884 422 3419 
Q 422 4038 858 4394 
Q 1294 4750 2059 4750 
Q 2388 4750 2728 4690 
Q 3069 4631 3425 4513 
z
" id="DejaVuSans-53" transform="scale(0.015625)"/>
      </defs>
      <use xlink:href="#DejaVuSans-20"/>
      <use x="31.787109" xlink:href="#DejaVuSans-b1"/>
      <use x="115.576172" xlink:href="#DejaVuSans-20"/>
      <use x="147.363281" xlink:href="#DejaVuSans-53"/>
      <use x="210.839844" xlink:href="#DejaVuSans-6e"/>
      <use x="274.21875" xlink:href="#DejaVuSans-28"/>
      <use x="313.232422" xlink:href="#DejaVuSans-78"/>
      <use x="372.412109" xlink:href="#DejaVuSans-29"/>
     </g>
    </g>
    <g id="line2d_24">
     <path d="M 146.527813 97.406094 
L 168.527813 97.406094 
" style="fill:none;stroke:#bfbf00;stroke-dasharray:7.4,3.2;stroke-dashoffset:0;stroke-width:2;"/>
    </g>
    <g id="line2d_25"/>
    <g id="text_22">
     <!-- KG(x) -->
     <g transform="translate(177.327813 101.256094)scale(0.11 -0.11)">
      <use xlink:href="#DejaVuSans-4b"/>
      <use x="65.576172" xlink:href="#DejaVuSans-47"/>
      <use x="143.066406" xlink:href="#DejaVuSans-28"/>
      <use x="182.080078" xlink:href="#DejaVuSans-78"/>
      <use x="241.259766" xlink:href="#DejaVuSans-29"/>
     </g>
    </g>
    <g id="PathCollection_2">
     <defs>
      <path d="M 0 3.535534 
C 0.937635 3.535534 1.836992 3.163008 2.5 2.5 
C 3.163008 1.836992 3.535534 0.937635 3.535534 0 
C 3.535534 -0.937635 3.163008 -1.836992 2.5 -2.5 
C 1.836992 -3.163008 0.937635 -3.535534 0 -3.535534 
C -0.937635 -3.535534 -1.836992 -3.163008 -2.5 -2.5 
C -3.163008 -1.836992 -3.535534 -0.937635 -3.535534 0 
C -3.535534 0.937635 -3.163008 1.836992 -2.5 2.5 
C -1.836992 3.163008 -0.937635 3.535534 0 3.535534 
z
" id="meef0fe4bf3" style="stroke:#000000;"/>
     </defs>
     <g>
      <use style="fill:#ff0000;stroke:#000000;" x="157.527813" xlink:href="#meef0fe4bf3" y="114.514531"/>
     </g>
    </g>
    <g id="text_23">
     <!-- training data -->
     <g transform="translate(177.327813 117.402031)scale(0.11 -0.11)">
      <defs>
       <path d="M 2194 1759 
Q 1497 1759 1228 1600 
Q 959 1441 959 1056 
Q 959 750 1161 570 
Q 1363 391 1709 391 
Q 2188 391 2477 730 
Q 2766 1069 2766 1631 
L 2766 1759 
L 2194 1759 
z
M 3341 1997 
L 3341 0 
L 2766 0 
L 2766 531 
Q 2569 213 2275 61 
Q 1981 -91 1556 -91 
Q 1019 -91 701 211 
Q 384 513 384 1019 
Q 384 1609 779 1909 
Q 1175 2209 1959 2209 
L 2766 2209 
L 2766 2266 
Q 2766 2663 2505 2880 
Q 2244 3097 1772 3097 
Q 1472 3097 1187 3025 
Q 903 2953 641 2809 
L 641 3341 
Q 956 3463 1253 3523 
Q 1550 3584 1831 3584 
Q 2591 3584 2966 3190 
Q 3341 2797 3341 1997 
z
" id="DejaVuSans-61" transform="scale(0.015625)"/>
       <path d="M 2906 1791 
Q 2906 2416 2648 2759 
Q 2391 3103 1925 3103 
Q 1463 3103 1205 2759 
Q 947 2416 947 1791 
Q 947 1169 1205 825 
Q 1463 481 1925 481 
Q 2391 481 2648 825 
Q 2906 1169 2906 1791 
z
M 3481 434 
Q 3481 -459 3084 -895 
Q 2688 -1331 1869 -1331 
Q 1566 -1331 1297 -1286 
Q 1028 -1241 775 -1147 
L 775 -588 
Q 1028 -725 1275 -790 
Q 1522 -856 1778 -856 
Q 2344 -856 2625 -561 
Q 2906 -266 2906 331 
L 2906 616 
Q 2728 306 2450 153 
Q 2172 0 1784 0 
Q 1141 0 747 490 
Q 353 981 353 1791 
Q 353 2603 747 3093 
Q 1141 3584 1784 3584 
Q 2172 3584 2450 3431 
Q 2728 3278 2906 2969 
L 2906 3500 
L 3481 3500 
L 3481 434 
z
" id="DejaVuSans-67" transform="scale(0.015625)"/>
      </defs>
      <use xlink:href="#DejaVuSans-74"/>
      <use x="39.208984" xlink:href="#DejaVuSans-72"/>
      <use x="80.322266" xlink:href="#DejaVuSans-61"/>
      <use x="141.601562" xlink:href="#DejaVuSans-69"/>
      <use x="169.384766" xlink:href="#DejaVuSans-6e"/>
      <use x="232.763672" xlink:href="#DejaVuSans-69"/>
      <use x="260.546875" xlink:href="#DejaVuSans-6e"/>
      <use x="323.925781" xlink:href="#DejaVuSans-67"/>
      <use x="387.402344" xlink:href="#DejaVuSans-20"/>
      <use x="419.189453" xlink:href="#DejaVuSans-64"/>
      <use x="482.666016" xlink:href="#DejaVuSans-61"/>
      <use x="543.945312" xlink:href="#DejaVuSans-74"/>
      <use x="583.154297" xlink:href="#DejaVuSans-61"/>
     </g>
    </g>
    <g id="PathCollection_3">
     <g>
      <use style="fill:#ff0000;stroke:#ff0000;stroke-width:8;" x="157.527813" xlink:href="#m4ed6bf15fa" y="130.660469"/>
     </g>
    </g>
    <g id="text_24">
     <!-- recommended datum -->
     <g transform="translate(177.327813 133.547969)scale(0.11 -0.11)">
      <defs>
       <path d="M 3328 2828 
Q 3544 3216 3844 3400 
Q 4144 3584 4550 3584 
Q 5097 3584 5394 3201 
Q 5691 2819 5691 2113 
L 5691 0 
L 5113 0 
L 5113 2094 
Q 5113 2597 4934 2840 
Q 4756 3084 4391 3084 
Q 3944 3084 3684 2787 
Q 3425 2491 3425 1978 
L 3425 0 
L 2847 0 
L 2847 2094 
Q 2847 2600 2669 2842 
Q 2491 3084 2119 3084 
Q 1678 3084 1418 2786 
Q 1159 2488 1159 1978 
L 1159 0 
L 581 0 
L 581 3500 
L 1159 3500 
L 1159 2956 
Q 1356 3278 1631 3431 
Q 1906 3584 2284 3584 
Q 2666 3584 2933 3390 
Q 3200 3197 3328 2828 
z
" id="DejaVuSans-6d" transform="scale(0.015625)"/>
      </defs>
      <use xlink:href="#DejaVuSans-72"/>
      <use x="38.863281" xlink:href="#DejaVuSans-65"/>
      <use x="100.386719" xlink:href="#DejaVuSans-63"/>
      <use x="155.367188" xlink:href="#DejaVuSans-6f"/>
      <use x="216.548828" xlink:href="#DejaVuSans-6d"/>
      <use x="313.960938" xlink:href="#DejaVuSans-6d"/>
      <use x="411.373047" xlink:href="#DejaVuSans-65"/>
      <use x="472.896484" xlink:href="#DejaVuSans-6e"/>
      <use x="536.275391" xlink:href="#DejaVuSans-64"/>
      <use x="599.751953" xlink:href="#DejaVuSans-65"/>
      <use x="661.275391" xlink:href="#DejaVuSans-64"/>
      <use x="724.751953" xlink:href="#DejaVuSans-20"/>
      <use x="756.539062" xlink:href="#DejaVuSans-64"/>
      <use x="820.015625" xlink:href="#DejaVuSans-61"/>
      <use x="881.294922" xlink:href="#DejaVuSans-74"/>
      <use x="920.503906" xlink:href="#DejaVuSans-75"/>
      <use x="983.882812" xlink:href="#DejaVuSans-6d"/>
     </g>
    </g>
   </g>
   <g id="line2d_26">
    <path clip-path="url(#p8d3f7b0ffe)" d="M 69.218182 143.210424 
L 71.985124 142.546472 
L 74.752066 142.568112 
L 77.519008 143.322838 
L 80.28595 144.831306 
L 83.052893 147.08437 
L 85.819835 150.041763 
L 88.586777 153.63265 
L 91.353719 157.758096 
L 94.120661 162.295393 
L 96.887603 167.103977 
L 99.654545 172.032595 
L 102.421488 176.927206 
L 105.18843 181.639083 
L 107.955372 186.032539 
L 110.722314 189.991719 
L 113.489256 193.426008 
L 116.256198 196.273683 
L 119.02314 198.503614 
L 121.790083 200.114952 
L 124.557025 201.134922 
L 127.323967 201.61497 
L 130.090909 201.625627 
L 132.857851 201.250545 
L 135.624793 200.580185 
L 138.391736 199.705637 
L 141.158678 198.713022 
L 143.92562 197.678812 
L 146.692562 196.666355 
L 149.459504 195.723737 
L 152.226446 194.883011 
L 154.993388 194.160728 
L 157.760331 193.559575 
L 160.527273 193.07091 
L 163.294215 192.677867 
L 166.061157 192.358761 
L 168.828099 192.09047 
L 171.595041 191.851541 
L 174.361983 191.624793 
L 177.128926 191.399263 
L 179.895868 191.171414 
L 182.66281 190.945563 
L 185.429752 190.733589 
L 188.196694 190.553992 
L 190.963636 190.430453 
L 193.730579 190.39002 
L 196.497521 190.461116 
L 199.264463 190.671497 
L 202.031405 191.046322 
L 204.798347 191.606456 
L 207.565289 192.367092 
L 210.332231 193.336755 
L 213.099174 194.516734 
L 215.866116 195.900918 
L 218.633058 197.476047 
L 221.4 199.222311 
L 224.166942 201.114257 
L 226.933884 203.121928 
L 229.700826 205.21217 
L 232.467769 207.350035 
L 235.234711 209.500207 
L 238.001653 211.62839 
L 240.768595 213.702609 
L 243.535537 215.69436 
L 246.302479 217.579583 
L 249.069421 219.339403 
L 251.836364 220.96061 
L 254.603306 222.435837 
L 257.370248 223.763395 
L 260.13719 224.946722 
L 262.904132 225.993417 
L 265.671074 226.913824 
L 268.438017 227.719174 
L 271.204959 228.419306 
L 273.971901 229.020044 
L 276.738843 229.520373 
L 279.505785 229.909594 
L 282.272727 230.164711 
L 285.039669 230.248357 
L 287.806612 230.107561 
L 290.573554 229.673689 
L 293.340496 228.863805 
L 296.107438 227.583642 
L 298.87438 225.732237 
L 301.641322 223.208119 
L 304.408264 219.916766 
L 307.175207 215.778901 
L 309.942149 210.739007 
L 312.709091 204.773367 
L 315.476033 197.896877 
L 318.242975 190.167917 
L 321.009917 181.690652 
L 323.77686 172.614339 
L 326.543802 163.12944 
L 329.310744 153.460604 
L 332.077686 143.856882 
L 334.844628 134.579783 
L 337.61157 125.890007 
L 340.378512 118.033794 
L 343.145455 111.229925 
L 345.912397 105.658318 
L 348.679339 101.451057 
L 351.446281 98.686454 
L 354.213223 97.38652 
L 356.980165 97.517882 
L 359.747107 98.995959 
L 362.51405 101.691908 
L 365.280992 105.441704 
L 368.047934 110.056577 
L 370.814876 115.333981 
L 373.581818 121.068309 
" style="fill:none;stroke:#000000;stroke-dasharray:7.4,3.2;stroke-dashoffset:0;stroke-width:2;"/>
   </g>
   <g id="PathCollection_4">
    <g clip-path="url(#p8d3f7b0ffe)">
     <use style="fill:#ff0000;stroke:#000000;" x="83.052893" xlink:href="#meef0fe4bf3" y="129.399309"/>
     <use style="fill:#ff0000;stroke:#000000;" x="96.887603" xlink:href="#meef0fe4bf3" y="162.429541"/>
     <use style="fill:#ff0000;stroke:#000000;" x="110.722314" xlink:href="#meef0fe4bf3" y="193.170209"/>
     <use style="fill:#ff0000;stroke:#000000;" x="124.557025" xlink:href="#meef0fe4bf3" y="199.248575"/>
     <use style="fill:#ff0000;stroke:#000000;" x="138.391736" xlink:href="#meef0fe4bf3" y="199.347548"/>
     <use style="fill:#ff0000;stroke:#000000;" x="152.226446" xlink:href="#meef0fe4bf3" y="191.611971"/>
     <use style="fill:#ff0000;stroke:#000000;" x="166.061157" xlink:href="#meef0fe4bf3" y="193.66847"/>
     <use style="fill:#ff0000;stroke:#000000;" x="179.895868" xlink:href="#meef0fe4bf3" y="193.283098"/>
     <use style="fill:#ff0000;stroke:#000000;" x="193.730579" xlink:href="#meef0fe4bf3" y="188.924027"/>
     <use style="fill:#ff0000;stroke:#000000;" x="318.242975" xlink:href="#meef0fe4bf3" y="199.289596"/>
     <use style="fill:#ff0000;stroke:#000000;" x="332.077686" xlink:href="#meef0fe4bf3" y="145.37007"/>
     <use style="fill:#ff0000;stroke:#000000;" x="345.912397" xlink:href="#meef0fe4bf3" y="78.407322"/>
     <use style="fill:#ff0000;stroke:#000000;" x="301.641322" xlink:href="#meef0fe4bf3" y="221.265308"/>
     <use style="fill:#ff0000;stroke:#000000;" x="279.505785" xlink:href="#meef0fe4bf3" y="236.927334"/>
     <use style="fill:#ff0000;stroke:#000000;" x="246.302479" xlink:href="#meef0fe4bf3" y="222.206311"/>
    </g>
   </g>
  </g>
 </g>
 <defs>
  <clipPath id="p8d3f7b0ffe">
   <rect height="217.44" width="334.8" x="54" y="34.56"/>
  </clipPath>
 </defs>
</svg>
