<?xml version="1.0" encoding="utf-8" standalone="no"?>
<!DOCTYPE svg PUBLIC "-//W3C//DTD SVG 1.1//EN"
  "http://www.w3.org/Graphics/SVG/1.1/DTD/svg11.dtd">
<svg height="288pt" version="1.1" viewBox="0 0 432 288" width="432pt" xmlns="http://www.w3.org/2000/svg" xmlns:xlink="http://www.w3.org/1999/xlink">
 <metadata>
  <rdf:RDF xmlns:cc="http://creativecommons.org/ns#" xmlns:dc="http://purl.org/dc/elements/1.1/" xmlns:rdf="http://www.w3.org/1999/02/22-rdf-syntax-ns#">
   <cc:Work>
    <dc:type rdf:resource="http://purl.org/dc/dcmitype/StillImage"/>
    <dc:date>2022-09-04T16:41:40.894971</dc:date>
    <dc:format>image/svg+xml</dc:format>
    <dc:creator>
     <cc:Agent>
      <dc:title>Matplotlib v3.4.3, https://matplotlib.org/</dc:title>
     </cc:Agent>
    </dc:creator>
   </cc:Work>
  </rdf:RDF>
 </metadata>
 <defs>
  <style type="text/css">*{stroke-linecap:butt;stroke-linejoin:round;}</style>
 </defs>
 <g id="figure_1">
  <g id="patch_1">
   <path d="M 0 288 
L 432 288 
L 432 0 
L 0 0 
z
" style="fill:none;"/>
  </g>
  <g id="axes_1">
   <g id="patch_2">
    <path d="M 54 252 
L 388.8 252 
L 388.8 34.56 
L 54 34.56 
z
" style="fill:#ffffff;"/>
   </g>
   <g id="PolyCollection_1">
    <defs>
     <path d="M 69.218182 -170.170939 
L 69.218182 -118.83002 
L 71.985124 -122.615375 
L 74.752066 -125.650042 
L 77.519008 -127.696944 
L 80.28595 -128.562739 
L 83.052893 -128.13627 
L 85.819835 -126.423878 
L 88.586777 -123.562416 
L 91.353719 -119.796458 
L 94.120661 -115.428116 
L 96.887603 -110.761869 
L 99.654545 -106.058852 
L 102.421488 -101.500775 
L 105.18843 -97.160208 
L 107.955372 -92.990891 
L 110.722314 -88.892035 
L 113.489256 -84.873158 
L 116.256198 -81.143588 
L 119.02314 -77.987739 
L 121.790083 -75.615674 
L 124.557025 -74.117695 
L 127.323967 -73.477161 
L 130.090909 -73.596126 
L 132.857851 -74.321908 
L 135.624793 -75.473805 
L 138.391736 -76.869774 
L 141.158678 -78.350954 
L 143.92562 -79.799826 
L 146.692562 -81.147279 
L 149.459504 -82.366228 
L 152.226446 -83.453867 
L 154.993388 -84.408328 
L 157.760331 -85.206994 
L 160.527273 -85.795098 
L 163.294215 -86.096826 
L 166.061157 -86.058511 
L 168.828099 -85.704977 
L 171.595041 -85.156358 
L 174.361983 -84.584339 
L 177.128926 -84.149192 
L 179.895868 -83.956214 
L 182.66281 -84.034677 
L 185.429752 -84.331077 
L 188.196694 -84.71583 
L 190.963636 -85.010889 
L 193.730579 -85.042613 
L 196.497521 -84.702253 
L 199.264463 -83.97729 
L 202.031405 -82.936916 
L 204.798347 -81.692958 
L 207.565289 -80.364411 
L 210.332231 -79.055984 
L 213.099174 -77.848283 
L 215.866116 -76.795019 
L 218.633058 -75.924116 
L 221.4 -75.241077 
L 224.166942 -74.733607 
L 226.933884 -74.376748 
L 229.700826 -74.137887 
L 232.467769 -73.98109 
L 235.234711 -73.870402 
L 238.001653 -73.771943 
L 240.768595 -73.654902 
L 243.535537 -73.491686 
L 246.302479 -73.257643 
L 249.069421 -72.930779 
L 251.836364 -72.491842 
L 254.603306 -71.924971 
L 257.370248 -71.218949 
L 260.13719 -70.368867 
L 262.904132 -69.377861 
L 265.671074 -68.258514 
L 268.438017 -67.033517 
L 271.204959 -65.735344 
L 273.971901 -64.404868 
L 276.738843 -63.089097 
L 279.505785 -61.838337 
L 282.272727 -60.703188 
L 285.039669 -59.731629 
L 287.806612 -58.966246 
L 290.573554 -58.441219 
L 293.340496 -58.178652 
L 296.107438 -58.185596 
L 298.87438 -58.461005 
L 301.641322 -59.037827 
L 304.408264 -60.07292 
L 307.175207 -61.894529 
L 309.942149 -64.892689 
L 312.709091 -69.353726 
L 315.476033 -75.386874 
L 318.242975 -82.933938 
L 321.009917 -91.808034 
L 323.77686 -101.735367 
L 326.543802 -112.388211 
L 329.310744 -123.402057 
L 332.077686 -134.378385 
L 334.844628 -144.882829 
L 337.61157 -154.450439 
L 340.378512 -162.607964 
L 343.145455 -168.91983 
L 345.912397 -173.053035 
L 348.679339 -174.835217 
L 351.446281 -174.275173 
L 354.213223 -171.541645 
L 356.980165 -166.921566 
L 359.747107 -160.777086 
L 362.51405 -153.508058 
L 365.280992 -145.520179 
L 368.047934 -137.198383 
L 370.814876 -128.885856 
L 373.581818 -120.869315 
L 373.581818 -187.500033 
L 373.581818 -187.500033 
L 370.814876 -192.896835 
L 368.047934 -198.040702 
L 365.280992 -202.663385 
L 362.51405 -206.487756 
L 359.747107 -209.247841 
L 356.980165 -210.710342 
L 354.213223 -210.69497 
L 351.446281 -209.089722 
L 348.679339 -205.855987 
L 345.912397 -201.019094 
L 343.145455 -194.647102 
L 340.378512 -186.834559 
L 337.61157 -177.711393 
L 334.844628 -167.473592 
L 332.077686 -156.407415 
L 329.310744 -144.885314 
L 326.543802 -133.333515 
L 323.77686 -122.183012 
L 321.009917 -111.818612 
L 318.242975 -102.541623 
L 315.476033 -94.558638 
L 312.709091 -87.999137 
L 309.942149 -82.954817 
L 307.175207 -79.527504 
L 304.408264 -77.857458 
L 301.641322 -78.075375 
L 298.87438 -80.166149 
L 296.107438 -83.889642 
L 293.340496 -88.857269 
L 290.573554 -94.647905 
L 287.806612 -100.87157 
L 285.039669 -107.192888 
L 282.272727 -113.339336 
L 279.505785 -119.103738 
L 276.738843 -124.342941 
L 273.971901 -128.972951 
L 271.204959 -132.961066 
L 268.438017 -136.315898 
L 265.671074 -139.076423 
L 262.904132 -141.301187 
L 260.13719 -143.058626 
L 257.370248 -144.419139 
L 254.603306 -145.449179 
L 251.836364 -146.207294 
L 249.069421 -146.741793 
L 246.302479 -147.089562 
L 243.535537 -147.275598 
L 240.768595 -147.312917 
L 238.001653 -147.202685 
L 235.234711 -146.934603 
L 232.467769 -146.487764 
L 229.700826 -145.832253 
L 226.933884 -144.931796 
L 224.166942 -143.747625 
L 221.4 -142.243576 
L 218.633058 -140.392191 
L 215.866116 -138.181399 
L 213.099174 -135.621167 
L 210.332231 -132.749431 
L 207.565289 -129.636474 
L 204.798347 -126.3867 
L 202.031405 -123.136045 
L 199.264463 -120.041851 
L 196.497521 -117.260499 
L 193.730579 -114.910366 
L 190.963636 -113.030507 
L 188.196694 -111.563248 
L 185.429752 -110.382109 
L 182.66281 -109.348515 
L 179.895868 -108.360814 
L 177.128926 -107.378291 
L 174.361983 -106.424904 
L 171.595041 -105.580601 
L 168.828099 -104.959756 
L 166.061157 -104.668783 
L 163.294215 -104.746257 
L 160.527273 -105.124148 
L 157.760331 -105.651437 
L 154.993388 -106.158754 
L 152.226446 -106.510888 
L 149.459504 -106.627616 
L 146.692562 -106.481678 
L 143.92562 -106.085306 
L 141.158678 -105.473043 
L 138.391736 -104.687239 
L 135.624793 -103.771229 
L 132.857851 -102.771683 
L 130.090909 -101.747453 
L 127.323967 -100.780276 
L 124.557025 -99.983651 
L 121.790083 -99.508808 
L 119.02314 -99.549129 
L 116.256198 -100.344159 
L 113.489256 -102.173463 
L 110.722314 -105.297092 
L 107.955372 -109.798758 
L 105.18843 -115.461769 
L 102.421488 -121.867881 
L 99.654545 -128.579781 
L 96.887603 -135.230131 
L 94.120661 -141.541568 
L 91.353719 -147.32892 
L 88.586777 -152.494279 
L 85.819835 -157.008676 
L 83.052893 -160.877975 
L 80.28595 -164.105623 
L 77.519008 -166.673717 
L 74.752066 -168.55093 
L 71.985124 -169.714783 
L 69.218182 -170.170939 
z
" id="m34ac9bb26f" style="stroke:#add8e6;stroke-opacity:0.2;"/>
    </defs>
    <g clip-path="url(#p8ae6467de7)">
     <use style="fill:#add8e6;fill-opacity:0.2;stroke:#add8e6;stroke-opacity:0.2;" x="0" xlink:href="#m34ac9bb26f" y="288"/>
    </g>
   </g>
   <g id="PathCollection_1">
    <defs>
     <path d="M 0 0.612372 
C 0.162403 0.612372 0.318176 0.547849 0.433013 0.433013 
C 0.547849 0.318176 0.612372 0.162403 0.612372 0 
C 0.612372 -0.162403 0.547849 -0.318176 0.433013 -0.433013 
C 0.318176 -0.547849 0.162403 -0.612372 0 -0.612372 
C -0.162403 -0.612372 -0.318176 -0.547849 -0.433013 -0.433013 
C -0.547849 -0.318176 -0.612372 -0.162403 -0.612372 0 
C -0.612372 0.162403 -0.547849 0.318176 -0.433013 0.433013 
C -0.318176 0.547849 -0.162403 0.612372 0 0.612372 
z
" id="mea007c4640" style="stroke:#ff0000;stroke-width:8;"/>
    </defs>
    <g clip-path="url(#p8ae6467de7)">
     <use style="fill:#ff0000;stroke:#ff0000;stroke-width:8;" x="279.505785" xlink:href="#mea007c4640" y="243.871771"/>
    </g>
   </g>
   <g id="matplotlib.axis_1">
    <g id="xtick_1">
     <g id="line2d_1">
      <defs>
       <path d="M 0 0 
L 0 3.5 
" id="md070c82a4f" style="stroke:#000000;stroke-width:0.8;"/>
      </defs>
      <g>
       <use style="stroke:#000000;stroke-width:0.8;" x="69.218182" xlink:href="#md070c82a4f" y="252"/>
      </g>
     </g>
     <g id="text_1">
      <!-- 0 -->
      <g transform="translate(66.036932 266.598437)scale(0.1 -0.1)">
       <defs>
        <path d="M 2034 4250 
Q 1547 4250 1301 3770 
Q 1056 3291 1056 2328 
Q 1056 1369 1301 889 
Q 1547 409 2034 409 
Q 2525 409 2770 889 
Q 3016 1369 3016 2328 
Q 3016 3291 2770 3770 
Q 2525 4250 2034 4250 
z
M 2034 4750 
Q 2819 4750 3233 4129 
Q 3647 3509 3647 2328 
Q 3647 1150 3233 529 
Q 2819 -91 2034 -91 
Q 1250 -91 836 529 
Q 422 1150 422 2328 
Q 422 3509 836 4129 
Q 1250 4750 2034 4750 
z
" id="DejaVuSans-30" transform="scale(0.015625)"/>
       </defs>
       <use xlink:href="#DejaVuSans-30"/>
      </g>
     </g>
    </g>
    <g id="xtick_2">
     <g id="line2d_2">
      <g>
       <use style="stroke:#000000;stroke-width:0.8;" x="124.557025" xlink:href="#md070c82a4f" y="252"/>
      </g>
     </g>
     <g id="text_2">
      <!-- 2 -->
      <g transform="translate(121.375775 266.598437)scale(0.1 -0.1)">
       <defs>
        <path d="M 1228 531 
L 3431 531 
L 3431 0 
L 469 0 
L 469 531 
Q 828 903 1448 1529 
Q 2069 2156 2228 2338 
Q 2531 2678 2651 2914 
Q 2772 3150 2772 3378 
Q 2772 3750 2511 3984 
Q 2250 4219 1831 4219 
Q 1534 4219 1204 4116 
Q 875 4013 500 3803 
L 500 4441 
Q 881 4594 1212 4672 
Q 1544 4750 1819 4750 
Q 2544 4750 2975 4387 
Q 3406 4025 3406 3419 
Q 3406 3131 3298 2873 
Q 3191 2616 2906 2266 
Q 2828 2175 2409 1742 
Q 1991 1309 1228 531 
z
" id="DejaVuSans-32" transform="scale(0.015625)"/>
       </defs>
       <use xlink:href="#DejaVuSans-32"/>
      </g>
     </g>
    </g>
    <g id="xtick_3">
     <g id="line2d_3">
      <g>
       <use style="stroke:#000000;stroke-width:0.8;" x="179.895868" xlink:href="#md070c82a4f" y="252"/>
      </g>
     </g>
     <g id="text_3">
      <!-- 4 -->
      <g transform="translate(176.714618 266.598437)scale(0.1 -0.1)">
       <defs>
        <path d="M 2419 4116 
L 825 1625 
L 2419 1625 
L 2419 4116 
z
M 2253 4666 
L 3047 4666 
L 3047 1625 
L 3713 1625 
L 3713 1100 
L 3047 1100 
L 3047 0 
L 2419 0 
L 2419 1100 
L 313 1100 
L 313 1709 
L 2253 4666 
z
" id="DejaVuSans-34" transform="scale(0.015625)"/>
       </defs>
       <use xlink:href="#DejaVuSans-34"/>
      </g>
     </g>
    </g>
    <g id="xtick_4">
     <g id="line2d_4">
      <g>
       <use style="stroke:#000000;stroke-width:0.8;" x="235.234711" xlink:href="#md070c82a4f" y="252"/>
      </g>
     </g>
     <g id="text_4">
      <!-- 6 -->
      <g transform="translate(232.053461 266.598437)scale(0.1 -0.1)">
       <defs>
        <path d="M 2113 2584 
Q 1688 2584 1439 2293 
Q 1191 2003 1191 1497 
Q 1191 994 1439 701 
Q 1688 409 2113 409 
Q 2538 409 2786 701 
Q 3034 994 3034 1497 
Q 3034 2003 2786 2293 
Q 2538 2584 2113 2584 
z
M 3366 4563 
L 3366 3988 
Q 3128 4100 2886 4159 
Q 2644 4219 2406 4219 
Q 1781 4219 1451 3797 
Q 1122 3375 1075 2522 
Q 1259 2794 1537 2939 
Q 1816 3084 2150 3084 
Q 2853 3084 3261 2657 
Q 3669 2231 3669 1497 
Q 3669 778 3244 343 
Q 2819 -91 2113 -91 
Q 1303 -91 875 529 
Q 447 1150 447 2328 
Q 447 3434 972 4092 
Q 1497 4750 2381 4750 
Q 2619 4750 2861 4703 
Q 3103 4656 3366 4563 
z
" id="DejaVuSans-36" transform="scale(0.015625)"/>
       </defs>
       <use xlink:href="#DejaVuSans-36"/>
      </g>
     </g>
    </g>
    <g id="xtick_5">
     <g id="line2d_5">
      <g>
       <use style="stroke:#000000;stroke-width:0.8;" x="290.573554" xlink:href="#md070c82a4f" y="252"/>
      </g>
     </g>
     <g id="text_5">
      <!-- 8 -->
      <g transform="translate(287.392304 266.598437)scale(0.1 -0.1)">
       <defs>
        <path d="M 2034 2216 
Q 1584 2216 1326 1975 
Q 1069 1734 1069 1313 
Q 1069 891 1326 650 
Q 1584 409 2034 409 
Q 2484 409 2743 651 
Q 3003 894 3003 1313 
Q 3003 1734 2745 1975 
Q 2488 2216 2034 2216 
z
M 1403 2484 
Q 997 2584 770 2862 
Q 544 3141 544 3541 
Q 544 4100 942 4425 
Q 1341 4750 2034 4750 
Q 2731 4750 3128 4425 
Q 3525 4100 3525 3541 
Q 3525 3141 3298 2862 
Q 3072 2584 2669 2484 
Q 3125 2378 3379 2068 
Q 3634 1759 3634 1313 
Q 3634 634 3220 271 
Q 2806 -91 2034 -91 
Q 1263 -91 848 271 
Q 434 634 434 1313 
Q 434 1759 690 2068 
Q 947 2378 1403 2484 
z
M 1172 3481 
Q 1172 3119 1398 2916 
Q 1625 2713 2034 2713 
Q 2441 2713 2670 2916 
Q 2900 3119 2900 3481 
Q 2900 3844 2670 4047 
Q 2441 4250 2034 4250 
Q 1625 4250 1398 4047 
Q 1172 3844 1172 3481 
z
" id="DejaVuSans-38" transform="scale(0.015625)"/>
       </defs>
       <use xlink:href="#DejaVuSans-38"/>
      </g>
     </g>
    </g>
    <g id="xtick_6">
     <g id="line2d_6">
      <g>
       <use style="stroke:#000000;stroke-width:0.8;" x="345.912397" xlink:href="#md070c82a4f" y="252"/>
      </g>
     </g>
     <g id="text_6">
      <!-- 10 -->
      <g transform="translate(339.549897 266.598437)scale(0.1 -0.1)">
       <defs>
        <path d="M 794 531 
L 1825 531 
L 1825 4091 
L 703 3866 
L 703 4441 
L 1819 4666 
L 2450 4666 
L 2450 531 
L 3481 531 
L 3481 0 
L 794 0 
L 794 531 
z
" id="DejaVuSans-31" transform="scale(0.015625)"/>
       </defs>
       <use xlink:href="#DejaVuSans-31"/>
       <use x="63.623047" xlink:href="#DejaVuSans-30"/>
      </g>
     </g>
    </g>
    <g id="text_7">
     <!-- x -->
     <g transform="translate(217.84875 281.79625)scale(0.12 -0.12)">
      <defs>
       <path d="M 3513 3500 
L 2247 1797 
L 3578 0 
L 2900 0 
L 1881 1375 
L 863 0 
L 184 0 
L 1544 1831 
L 300 3500 
L 978 3500 
L 1906 2253 
L 2834 3500 
L 3513 3500 
z
" id="DejaVuSans-78" transform="scale(0.015625)"/>
      </defs>
      <use xlink:href="#DejaVuSans-78"/>
     </g>
    </g>
   </g>
   <g id="matplotlib.axis_2">
    <g id="ytick_1">
     <g id="line2d_7">
      <defs>
       <path d="M 0 0 
L -3.5 0 
" id="m7b9f1d1c55" style="stroke:#000000;stroke-width:0.8;"/>
      </defs>
      <g>
       <use style="stroke:#000000;stroke-width:0.8;" x="54" xlink:href="#m7b9f1d1c55" y="252"/>
      </g>
     </g>
     <g id="text_8">
      <!-- 3 -->
      <g transform="translate(40.6375 255.799219)scale(0.1 -0.1)">
       <defs>
        <path d="M 2597 2516 
Q 3050 2419 3304 2112 
Q 3559 1806 3559 1356 
Q 3559 666 3084 287 
Q 2609 -91 1734 -91 
Q 1441 -91 1130 -33 
Q 819 25 488 141 
L 488 750 
Q 750 597 1062 519 
Q 1375 441 1716 441 
Q 2309 441 2620 675 
Q 2931 909 2931 1356 
Q 2931 1769 2642 2001 
Q 2353 2234 1838 2234 
L 1294 2234 
L 1294 2753 
L 1863 2753 
Q 2328 2753 2575 2939 
Q 2822 3125 2822 3475 
Q 2822 3834 2567 4026 
Q 2313 4219 1838 4219 
Q 1578 4219 1281 4162 
Q 984 4106 628 3988 
L 628 4550 
Q 988 4650 1302 4700 
Q 1616 4750 1894 4750 
Q 2613 4750 3031 4423 
Q 3450 4097 3450 3541 
Q 3450 3153 3228 2886 
Q 3006 2619 2597 2516 
z
" id="DejaVuSans-33" transform="scale(0.015625)"/>
       </defs>
       <use xlink:href="#DejaVuSans-33"/>
      </g>
     </g>
    </g>
    <g id="ytick_2">
     <g id="line2d_8">
      <g>
       <use style="stroke:#000000;stroke-width:0.8;" x="54" xlink:href="#m7b9f1d1c55" y="215.76"/>
      </g>
     </g>
     <g id="text_9">
      <!-- 4 -->
      <g transform="translate(40.6375 219.559219)scale(0.1 -0.1)">
       <use xlink:href="#DejaVuSans-34"/>
      </g>
     </g>
    </g>
    <g id="ytick_3">
     <g id="line2d_9">
      <g>
       <use style="stroke:#000000;stroke-width:0.8;" x="54" xlink:href="#m7b9f1d1c55" y="179.52"/>
      </g>
     </g>
     <g id="text_10">
      <!-- 5 -->
      <g transform="translate(40.6375 183.319219)scale(0.1 -0.1)">
       <defs>
        <path d="M 691 4666 
L 3169 4666 
L 3169 4134 
L 1269 4134 
L 1269 2991 
Q 1406 3038 1543 3061 
Q 1681 3084 1819 3084 
Q 2600 3084 3056 2656 
Q 3513 2228 3513 1497 
Q 3513 744 3044 326 
Q 2575 -91 1722 -91 
Q 1428 -91 1123 -41 
Q 819 9 494 109 
L 494 744 
Q 775 591 1075 516 
Q 1375 441 1709 441 
Q 2250 441 2565 725 
Q 2881 1009 2881 1497 
Q 2881 1984 2565 2268 
Q 2250 2553 1709 2553 
Q 1456 2553 1204 2497 
Q 953 2441 691 2322 
L 691 4666 
z
" id="DejaVuSans-35" transform="scale(0.015625)"/>
       </defs>
       <use xlink:href="#DejaVuSans-35"/>
      </g>
     </g>
    </g>
    <g id="ytick_4">
     <g id="line2d_10">
      <g>
       <use style="stroke:#000000;stroke-width:0.8;" x="54" xlink:href="#m7b9f1d1c55" y="143.28"/>
      </g>
     </g>
     <g id="text_11">
      <!-- 6 -->
      <g transform="translate(40.6375 147.079219)scale(0.1 -0.1)">
       <use xlink:href="#DejaVuSans-36"/>
      </g>
     </g>
    </g>
    <g id="ytick_5">
     <g id="line2d_11">
      <g>
       <use style="stroke:#000000;stroke-width:0.8;" x="54" xlink:href="#m7b9f1d1c55" y="107.04"/>
      </g>
     </g>
     <g id="text_12">
      <!-- 7 -->
      <g transform="translate(40.6375 110.839219)scale(0.1 -0.1)">
       <defs>
        <path d="M 525 4666 
L 3525 4666 
L 3525 4397 
L 1831 0 
L 1172 0 
L 2766 4134 
L 525 4134 
L 525 4666 
z
" id="DejaVuSans-37" transform="scale(0.015625)"/>
       </defs>
       <use xlink:href="#DejaVuSans-37"/>
      </g>
     </g>
    </g>
    <g id="ytick_6">
     <g id="line2d_12">
      <g>
       <use style="stroke:#000000;stroke-width:0.8;" x="54" xlink:href="#m7b9f1d1c55" y="70.8"/>
      </g>
     </g>
     <g id="text_13">
      <!-- 8 -->
      <g transform="translate(40.6375 74.599219)scale(0.1 -0.1)">
       <use xlink:href="#DejaVuSans-38"/>
      </g>
     </g>
    </g>
    <g id="ytick_7">
     <g id="line2d_13">
      <g>
       <use style="stroke:#000000;stroke-width:0.8;" x="54" xlink:href="#m7b9f1d1c55" y="34.56"/>
      </g>
     </g>
     <g id="text_14">
      <!-- 9 -->
      <g transform="translate(40.6375 38.359219)scale(0.1 -0.1)">
       <defs>
        <path d="M 703 97 
L 703 672 
Q 941 559 1184 500 
Q 1428 441 1663 441 
Q 2288 441 2617 861 
Q 2947 1281 2994 2138 
Q 2813 1869 2534 1725 
Q 2256 1581 1919 1581 
Q 1219 1581 811 2004 
Q 403 2428 403 3163 
Q 403 3881 828 4315 
Q 1253 4750 1959 4750 
Q 2769 4750 3195 4129 
Q 3622 3509 3622 2328 
Q 3622 1225 3098 567 
Q 2575 -91 1691 -91 
Q 1453 -91 1209 -44 
Q 966 3 703 97 
z
M 1959 2075 
Q 2384 2075 2632 2365 
Q 2881 2656 2881 3163 
Q 2881 3666 2632 3958 
Q 2384 4250 1959 4250 
Q 1534 4250 1286 3958 
Q 1038 3666 1038 3163 
Q 1038 2656 1286 2365 
Q 1534 2075 1959 2075 
z
" id="DejaVuSans-39" transform="scale(0.015625)"/>
       </defs>
       <use xlink:href="#DejaVuSans-39"/>
      </g>
     </g>
    </g>
    <g id="text_15">
     <!-- y -->
     <g transform="translate(34.141875 146.83125)rotate(-90)scale(0.12 -0.12)">
      <defs>
       <path d="M 2059 -325 
Q 1816 -950 1584 -1140 
Q 1353 -1331 966 -1331 
L 506 -1331 
L 506 -850 
L 844 -850 
Q 1081 -850 1212 -737 
Q 1344 -625 1503 -206 
L 1606 56 
L 191 3500 
L 800 3500 
L 1894 763 
L 2988 3500 
L 3597 3500 
L 2059 -325 
z
" id="DejaVuSans-79" transform="scale(0.015625)"/>
      </defs>
      <use xlink:href="#DejaVuSans-79"/>
     </g>
    </g>
   </g>
   <g id="line2d_14">
    <path clip-path="url(#p8ae6467de7)" d="M 69.218182 70.8 
L 71.985124 85.083949 
L 74.752066 98.25467 
L 77.519008 110.364828 
L 80.28595 121.465955 
L 83.052893 131.608455 
L 85.819835 140.841599 
L 88.586777 149.213528 
L 91.353719 156.771253 
L 94.120661 163.560654 
L 96.887603 169.62648 
L 99.654545 175.012349 
L 102.421488 179.76075 
L 105.18843 183.913038 
L 107.955372 187.509441 
L 110.722314 190.589055 
L 113.489256 193.189844 
L 116.256198 195.348643 
L 119.02314 197.101155 
L 121.790083 198.481953 
L 124.557025 199.52448 
L 127.323967 200.261047 
L 130.090909 200.722835 
L 132.857851 200.939895 
L 135.624793 200.941145 
L 138.391736 200.754375 
L 141.158678 200.406243 
L 143.92562 199.922276 
L 146.692562 199.326871 
L 149.459504 198.643294 
L 152.226446 197.89368 
L 154.993388 197.099035 
L 157.760331 196.279231 
L 160.527273 195.453014 
L 163.294215 194.637994 
L 166.061157 193.850655 
L 168.828099 193.106347 
L 171.595041 192.419291 
L 174.361983 191.802577 
L 177.128926 191.268164 
L 179.895868 190.82688 
L 182.66281 190.488424 
L 185.429752 190.261362 
L 188.196694 190.153131 
L 190.963636 190.170037 
L 193.730579 190.317255 
L 196.497521 190.598829 
L 199.264463 191.017673 
L 202.031405 191.575569 
L 204.798347 192.273171 
L 207.565289 193.11 
L 210.332231 194.084446 
L 213.099174 195.193771 
L 215.866116 196.434103 
L 218.633058 197.800442 
L 221.4 199.286655 
L 224.166942 200.88548 
L 226.933884 202.588525 
L 229.700826 204.386264 
L 232.467769 206.268045 
L 235.234711 208.22208 
L 238.001653 210.235455 
L 240.768595 212.294122 
L 243.535537 214.382905 
L 246.302479 216.485496 
L 249.069421 218.584455 
L 251.836364 220.661214 
L 254.603306 222.696071 
L 257.370248 224.668198 
L 260.13719 226.555631 
L 262.904132 228.33528 
L 265.671074 229.982921 
L 268.438017 231.4732 
L 271.204959 232.779634 
L 273.971901 233.874607 
L 276.738843 234.729375 
L 279.505785 235.31406 
L 282.272727 235.597656 
L 285.039669 235.548026 
L 287.806612 235.1319 
L 290.573554 234.31488 
L 293.340496 233.061436 
L 296.107438 231.334908 
L 298.87438 229.097505 
L 301.641322 226.310305 
L 304.408264 222.933255 
L 307.175207 218.925173 
L 309.942149 214.243744 
L 312.709091 208.845524 
L 315.476033 202.685938 
L 318.242975 195.71928 
L 321.009917 187.898713 
L 323.77686 179.176271 
L 326.543802 169.502854 
L 329.310744 158.828236 
L 332.077686 147.101055 
L 334.844628 134.268823 
L 337.61157 120.277918 
L 340.378512 105.073589 
L 343.145455 88.599954 
L 345.912397 70.8 
L 348.679339 51.615584 
L 351.446281 30.987432 
L 354.213223 8.855138 
L 355.363895 -1 
" style="fill:none;stroke:#0000ff;stroke-linecap:square;stroke-width:2;"/>
   </g>
   <g id="line2d_15">
    <path clip-path="url(#p8ae6467de7)" d="M 69.218182 169.16998 
L 71.985124 165.384625 
L 74.752066 162.349958 
L 77.519008 160.303056 
L 80.28595 159.437261 
L 83.052893 159.86373 
L 85.819835 161.576122 
L 88.586777 164.437584 
L 91.353719 168.203542 
L 94.120661 172.571884 
L 96.887603 177.238131 
L 99.654545 181.941148 
L 102.421488 186.499225 
L 105.18843 190.839792 
L 107.955372 195.009109 
L 110.722314 199.107965 
L 113.489256 203.126842 
L 116.256198 206.856412 
L 119.02314 210.012261 
L 121.790083 212.384326 
L 124.557025 213.882305 
L 127.323967 214.522839 
L 130.090909 214.403874 
L 132.857851 213.678092 
L 135.624793 212.526195 
L 138.391736 211.130226 
L 141.158678 209.649046 
L 143.92562 208.200174 
L 146.692562 206.852721 
L 149.459504 205.633772 
L 152.226446 204.546133 
L 154.993388 203.591672 
L 157.760331 202.793006 
L 160.527273 202.204902 
L 163.294215 201.903174 
L 166.061157 201.941489 
L 168.828099 202.295023 
L 171.595041 202.843642 
L 174.361983 203.415661 
L 177.128926 203.850808 
L 179.895868 204.043786 
L 182.66281 203.965323 
L 185.429752 203.668923 
L 188.196694 203.28417 
L 190.963636 202.989111 
L 193.730579 202.957387 
L 196.497521 203.297747 
L 199.264463 204.02271 
L 202.031405 205.063084 
L 204.798347 206.307042 
L 207.565289 207.635589 
L 210.332231 208.944016 
L 213.099174 210.151717 
L 215.866116 211.204981 
L 218.633058 212.075884 
L 221.4 212.758923 
L 224.166942 213.266393 
L 226.933884 213.623252 
L 229.700826 213.862113 
L 232.467769 214.01891 
L 235.234711 214.129598 
L 238.001653 214.228057 
L 240.768595 214.345098 
L 243.535537 214.508314 
L 246.302479 214.742357 
L 249.069421 215.069221 
L 251.836364 215.508158 
L 254.603306 216.075029 
L 257.370248 216.781051 
L 260.13719 217.631133 
L 262.904132 218.622139 
L 265.671074 219.741486 
L 268.438017 220.966483 
L 271.204959 222.264656 
L 273.971901 223.595132 
L 276.738843 224.910903 
L 279.505785 226.161663 
L 282.272727 227.296812 
L 285.039669 228.268371 
L 287.806612 229.033754 
L 290.573554 229.558781 
L 293.340496 229.821348 
L 296.107438 229.814404 
L 298.87438 229.538995 
L 301.641322 228.962173 
L 304.408264 227.92708 
L 307.175207 226.105471 
L 309.942149 223.107311 
L 312.709091 218.646274 
L 315.476033 212.613126 
L 318.242975 205.066062 
L 321.009917 196.191966 
L 323.77686 186.264633 
L 326.543802 175.611789 
L 329.310744 164.597943 
L 332.077686 153.621615 
L 334.844628 143.117171 
L 337.61157 133.549561 
L 340.378512 125.392036 
L 343.145455 119.08017 
L 345.912397 114.946965 
L 348.679339 113.164783 
L 351.446281 113.724827 
L 354.213223 116.458355 
L 356.980165 121.078434 
L 359.747107 127.222914 
L 362.51405 134.491942 
L 365.280992 142.479821 
L 368.047934 150.801617 
L 370.814876 159.114144 
L 373.581818 167.130685 
" style="fill:none;stroke:#008000;stroke-dasharray:3.7,1.6;stroke-dashoffset:0;"/>
   </g>
   <g id="line2d_16">
    <path clip-path="url(#p8ae6467de7)" d="M 69.218182 117.829061 
L 71.985124 118.285217 
L 74.752066 119.44907 
L 77.519008 121.326283 
L 80.28595 123.894377 
L 83.052893 127.122025 
L 85.819835 130.991324 
L 88.586777 135.505721 
L 91.353719 140.67108 
L 94.120661 146.458432 
L 96.887603 152.769869 
L 99.654545 159.420219 
L 102.421488 166.132119 
L 105.18843 172.538231 
L 107.955372 178.201242 
L 110.722314 182.702908 
L 113.489256 185.826537 
L 116.256198 187.655841 
L 119.02314 188.450871 
L 121.790083 188.491192 
L 124.557025 188.016349 
L 127.323967 187.219724 
L 130.090909 186.252547 
L 132.857851 185.228317 
L 135.624793 184.228771 
L 138.391736 183.312761 
L 141.158678 182.526957 
L 143.92562 181.914694 
L 146.692562 181.518322 
L 149.459504 181.372384 
L 152.226446 181.489112 
L 154.993388 181.841246 
L 157.760331 182.348563 
L 160.527273 182.875852 
L 163.294215 183.253743 
L 166.061157 183.331217 
L 168.828099 183.040244 
L 171.595041 182.419399 
L 174.361983 181.575096 
L 177.128926 180.621709 
L 179.895868 179.639186 
L 182.66281 178.651485 
L 185.429752 177.617891 
L 188.196694 176.436752 
L 190.963636 174.969493 
L 193.730579 173.089634 
L 196.497521 170.739501 
L 199.264463 167.958149 
L 202.031405 164.863955 
L 204.798347 161.6133 
L 207.565289 158.363526 
L 210.332231 155.250569 
L 213.099174 152.378833 
L 215.866116 149.818601 
L 218.633058 147.607809 
L 221.4 145.756424 
L 224.166942 144.252375 
L 226.933884 143.068204 
L 229.700826 142.167747 
L 232.467769 141.512236 
L 235.234711 141.065397 
L 238.001653 140.797315 
L 240.768595 140.687083 
L 243.535537 140.724402 
L 246.302479 140.910438 
L 249.069421 141.258207 
L 251.836364 141.792706 
L 254.603306 142.550821 
L 257.370248 143.580861 
L 260.13719 144.941374 
L 262.904132 146.698813 
L 265.671074 148.923577 
L 268.438017 151.684102 
L 271.204959 155.038934 
L 273.971901 159.027049 
L 276.738843 163.657059 
L 279.505785 168.896262 
L 282.272727 174.660664 
L 285.039669 180.807112 
L 287.806612 187.12843 
L 290.573554 193.352095 
L 293.340496 199.142731 
L 296.107438 204.110358 
L 298.87438 207.833851 
L 301.641322 209.924625 
L 304.408264 210.142542 
L 307.175207 208.472496 
L 309.942149 205.045183 
L 312.709091 200.000863 
L 315.476033 193.441362 
L 318.242975 185.458377 
L 321.009917 176.181388 
L 323.77686 165.816988 
L 326.543802 154.666485 
L 329.310744 143.114686 
L 332.077686 131.592585 
L 334.844628 120.526408 
L 337.61157 110.288607 
L 340.378512 101.165441 
L 343.145455 93.352898 
L 345.912397 86.980906 
L 348.679339 82.144013 
L 351.446281 78.910278 
L 354.213223 77.30503 
L 356.980165 77.289658 
L 359.747107 78.752159 
L 362.51405 81.512244 
L 365.280992 85.336615 
L 368.047934 89.959298 
L 370.814876 95.103165 
L 373.581818 100.499967 
" style="fill:none;stroke:#008000;stroke-dasharray:3.7,1.6;stroke-dashoffset:0;"/>
   </g>
   <g id="line2d_17">
    <path clip-path="url(#p8ae6467de7)" d="M 69.218182 251.921142 
L 71.985124 251.595689 
L 74.752066 251.747095 
L 77.519008 251.649069 
L 80.28595 251.623962 
L 83.052893 251.686757 
L 85.819835 251.737601 
L 88.586777 251.778385 
L 91.353719 251.898372 
L 94.120661 251.911052 
L 96.887603 251.965606 
L 99.654545 252.026697 
L 102.421488 252.018869 
L 105.18843 252.146531 
L 107.955372 252.189835 
L 110.722314 252.272782 
L 113.489256 252.180988 
L 116.256198 252.09583 
L 119.02314 252.140498 
L 121.790083 252.048425 
L 124.557025 252.096426 
L 127.323967 252.043714 
L 130.090909 252.144288 
L 132.857851 252.138986 
L 135.624793 252.178955 
L 138.391736 252.17233 
L 141.158678 252.247312 
L 143.92562 252.241489 
L 146.692562 252.215877 
L 149.459504 252.202891 
L 152.226446 252.212982 
L 154.993388 252.221307 
L 157.760331 252.249593 
L 160.527273 252.204699 
L 163.294215 252.235724 
L 166.061157 252.275791 
L 168.828099 252.236429 
L 171.595041 252.201059 
L 174.361983 252.168125 
L 177.128926 252.140426 
L 179.895868 252.122956 
L 182.66281 252.162332 
L 185.429752 252.177883 
L 188.196694 252.216644 
L 190.963636 252.244294 
L 193.730579 252.249177 
L 196.497521 252.231856 
L 199.264463 252.188041 
L 202.031405 252.142983 
L 204.798347 252.108332 
L 207.565289 252.08046 
L 210.332231 252.029175 
L 213.099174 252.025887 
L 215.866116 251.989955 
L 218.633058 251.97389 
L 221.4 250.98897 
L 224.166942 251.947798 
L 226.933884 251.932363 
L 229.700826 251.923351 
L 232.467769 251.77794 
L 235.234711 251.798426 
L 238.001653 251.852736 
L 240.768595 251.715416 
L 243.535537 251.468767 
L 246.302479 247.371661 
L 249.069421 251.504571 
L 251.836364 250.858497 
L 254.603306 250.358299 
L 257.370248 250.964785 
L 260.13719 250.815973 
L 262.904132 247.438961 
L 265.671074 248.870301 
L 268.438017 246.325931 
L 271.204959 248.049445 
L 273.971901 247.683111 
L 276.738843 245.386872 
L 279.505785 243.871771 
L 282.272727 245.17172 
L 285.039669 248.839543 
L 287.806612 247.798039 
L 290.573554 246.602383 
L 293.340496 248.112452 
L 296.107438 246.331354 
L 298.87438 246.314954 
L 301.641322 249.835707 
L 304.408264 250.40158 
L 307.175207 250.371278 
L 309.942149 249.571495 
L 312.709091 249.881114 
L 315.476033 250.029717 
L 318.242975 250.212567 
L 321.009917 251.412467 
L 323.77686 252.133499 
L 326.543802 251.623363 
L 329.310744 250.783114 
L 332.077686 250.697208 
L 334.844628 250.956779 
L 337.61157 250.426608 
L 340.378512 250.504012 
L 343.145455 250.890894 
L 345.912397 251.184585 
L 348.679339 251.127587 
L 351.446281 250.736178 
L 354.213223 250.507369 
L 356.980165 250.278399 
L 359.747107 250.343176 
L 362.51405 250.64106 
L 365.280992 250.883573 
L 368.047934 251.273665 
L 370.814876 251.282577 
L 373.581818 251.337679 
" style="fill:none;stroke:#bfbf00;stroke-dasharray:7.4,3.2;stroke-dashoffset:0;stroke-width:2;"/>
   </g>
   <g id="patch_3">
    <path d="M 54 252 
L 54 34.56 
" style="fill:none;stroke:#000000;stroke-linecap:square;stroke-linejoin:miter;stroke-width:0.8;"/>
   </g>
   <g id="patch_4">
    <path d="M 388.8 252 
L 388.8 34.56 
" style="fill:none;stroke:#000000;stroke-linecap:square;stroke-linejoin:miter;stroke-width:0.8;"/>
   </g>
   <g id="patch_5">
    <path d="M 54 252 
L 388.8 252 
" style="fill:none;stroke:#000000;stroke-linecap:square;stroke-linejoin:miter;stroke-width:0.8;"/>
   </g>
   <g id="patch_6">
    <path d="M 54 34.56 
L 388.8 34.56 
" style="fill:none;stroke:#000000;stroke-linecap:square;stroke-linejoin:miter;stroke-width:0.8;"/>
   </g>
   <g id="text_16">
    <!-- Method : KG -->
    <g transform="translate(71.985124 244.752)scale(0.12 -0.12)">
     <defs>
      <path d="M 628 4666 
L 1569 4666 
L 2759 1491 
L 3956 4666 
L 4897 4666 
L 4897 0 
L 4281 0 
L 4281 4097 
L 3078 897 
L 2444 897 
L 1241 4097 
L 1241 0 
L 628 0 
L 628 4666 
z
" id="DejaVuSans-4d" transform="scale(0.015625)"/>
      <path d="M 3597 1894 
L 3597 1613 
L 953 1613 
Q 991 1019 1311 708 
Q 1631 397 2203 397 
Q 2534 397 2845 478 
Q 3156 559 3463 722 
L 3463 178 
Q 3153 47 2828 -22 
Q 2503 -91 2169 -91 
Q 1331 -91 842 396 
Q 353 884 353 1716 
Q 353 2575 817 3079 
Q 1281 3584 2069 3584 
Q 2775 3584 3186 3129 
Q 3597 2675 3597 1894 
z
M 3022 2063 
Q 3016 2534 2758 2815 
Q 2500 3097 2075 3097 
Q 1594 3097 1305 2825 
Q 1016 2553 972 2059 
L 3022 2063 
z
" id="DejaVuSans-65" transform="scale(0.015625)"/>
      <path d="M 1172 4494 
L 1172 3500 
L 2356 3500 
L 2356 3053 
L 1172 3053 
L 1172 1153 
Q 1172 725 1289 603 
Q 1406 481 1766 481 
L 2356 481 
L 2356 0 
L 1766 0 
Q 1100 0 847 248 
Q 594 497 594 1153 
L 594 3053 
L 172 3053 
L 172 3500 
L 594 3500 
L 594 4494 
L 1172 4494 
z
" id="DejaVuSans-74" transform="scale(0.015625)"/>
      <path d="M 3513 2113 
L 3513 0 
L 2938 0 
L 2938 2094 
Q 2938 2591 2744 2837 
Q 2550 3084 2163 3084 
Q 1697 3084 1428 2787 
Q 1159 2491 1159 1978 
L 1159 0 
L 581 0 
L 581 4863 
L 1159 4863 
L 1159 2956 
Q 1366 3272 1645 3428 
Q 1925 3584 2291 3584 
Q 2894 3584 3203 3211 
Q 3513 2838 3513 2113 
z
" id="DejaVuSans-68" transform="scale(0.015625)"/>
      <path d="M 1959 3097 
Q 1497 3097 1228 2736 
Q 959 2375 959 1747 
Q 959 1119 1226 758 
Q 1494 397 1959 397 
Q 2419 397 2687 759 
Q 2956 1122 2956 1747 
Q 2956 2369 2687 2733 
Q 2419 3097 1959 3097 
z
M 1959 3584 
Q 2709 3584 3137 3096 
Q 3566 2609 3566 1747 
Q 3566 888 3137 398 
Q 2709 -91 1959 -91 
Q 1206 -91 779 398 
Q 353 888 353 1747 
Q 353 2609 779 3096 
Q 1206 3584 1959 3584 
z
" id="DejaVuSans-6f" transform="scale(0.015625)"/>
      <path d="M 2906 2969 
L 2906 4863 
L 3481 4863 
L 3481 0 
L 2906 0 
L 2906 525 
Q 2725 213 2448 61 
Q 2172 -91 1784 -91 
Q 1150 -91 751 415 
Q 353 922 353 1747 
Q 353 2572 751 3078 
Q 1150 3584 1784 3584 
Q 2172 3584 2448 3432 
Q 2725 3281 2906 2969 
z
M 947 1747 
Q 947 1113 1208 752 
Q 1469 391 1925 391 
Q 2381 391 2643 752 
Q 2906 1113 2906 1747 
Q 2906 2381 2643 2742 
Q 2381 3103 1925 3103 
Q 1469 3103 1208 2742 
Q 947 2381 947 1747 
z
" id="DejaVuSans-64" transform="scale(0.015625)"/>
      <path id="DejaVuSans-20" transform="scale(0.015625)"/>
      <path d="M 750 794 
L 1409 794 
L 1409 0 
L 750 0 
L 750 794 
z
M 750 3309 
L 1409 3309 
L 1409 2516 
L 750 2516 
L 750 3309 
z
" id="DejaVuSans-3a" transform="scale(0.015625)"/>
      <path d="M 628 4666 
L 1259 4666 
L 1259 2694 
L 3353 4666 
L 4166 4666 
L 1850 2491 
L 4331 0 
L 3500 0 
L 1259 2247 
L 1259 0 
L 628 0 
L 628 4666 
z
" id="DejaVuSans-4b" transform="scale(0.015625)"/>
      <path d="M 3809 666 
L 3809 1919 
L 2778 1919 
L 2778 2438 
L 4434 2438 
L 4434 434 
Q 4069 175 3628 42 
Q 3188 -91 2688 -91 
Q 1594 -91 976 548 
Q 359 1188 359 2328 
Q 359 3472 976 4111 
Q 1594 4750 2688 4750 
Q 3144 4750 3555 4637 
Q 3966 4525 4313 4306 
L 4313 3634 
Q 3963 3931 3569 4081 
Q 3175 4231 2741 4231 
Q 1884 4231 1454 3753 
Q 1025 3275 1025 2328 
Q 1025 1384 1454 906 
Q 1884 428 2741 428 
Q 3075 428 3337 486 
Q 3600 544 3809 666 
z
" id="DejaVuSans-47" transform="scale(0.015625)"/>
     </defs>
     <use xlink:href="#DejaVuSans-4d"/>
     <use x="86.279297" xlink:href="#DejaVuSans-65"/>
     <use x="147.802734" xlink:href="#DejaVuSans-74"/>
     <use x="187.011719" xlink:href="#DejaVuSans-68"/>
     <use x="250.390625" xlink:href="#DejaVuSans-6f"/>
     <use x="311.572266" xlink:href="#DejaVuSans-64"/>
     <use x="375.048828" xlink:href="#DejaVuSans-20"/>
     <use x="406.835938" xlink:href="#DejaVuSans-3a"/>
     <use x="440.527344" xlink:href="#DejaVuSans-20"/>
     <use x="472.314453" xlink:href="#DejaVuSans-4b"/>
     <use x="537.890625" xlink:href="#DejaVuSans-47"/>
    </g>
   </g>
   <g id="text_17">
    <!-- Iter=1 -->
    <g transform="translate(71.985124 226.632)scale(0.12 -0.12)">
     <defs>
      <path d="M 628 4666 
L 1259 4666 
L 1259 0 
L 628 0 
L 628 4666 
z
" id="DejaVuSans-49" transform="scale(0.015625)"/>
      <path d="M 2631 2963 
Q 2534 3019 2420 3045 
Q 2306 3072 2169 3072 
Q 1681 3072 1420 2755 
Q 1159 2438 1159 1844 
L 1159 0 
L 581 0 
L 581 3500 
L 1159 3500 
L 1159 2956 
Q 1341 3275 1631 3429 
Q 1922 3584 2338 3584 
Q 2397 3584 2469 3576 
Q 2541 3569 2628 3553 
L 2631 2963 
z
" id="DejaVuSans-72" transform="scale(0.015625)"/>
      <path d="M 678 2906 
L 4684 2906 
L 4684 2381 
L 678 2381 
L 678 2906 
z
M 678 1631 
L 4684 1631 
L 4684 1100 
L 678 1100 
L 678 1631 
z
" id="DejaVuSans-3d" transform="scale(0.015625)"/>
     </defs>
     <use xlink:href="#DejaVuSans-49"/>
     <use x="29.492188" xlink:href="#DejaVuSans-74"/>
     <use x="68.701172" xlink:href="#DejaVuSans-65"/>
     <use x="130.224609" xlink:href="#DejaVuSans-72"/>
     <use x="171.337891" xlink:href="#DejaVuSans-3d"/>
     <use x="255.126953" xlink:href="#DejaVuSans-31"/>
    </g>
   </g>
   <g id="text_18">
    <!-- (b) -->
    <g transform="translate(71.985124 56.304)scale(0.12 -0.12)">
     <defs>
      <path d="M 1984 4856 
Q 1566 4138 1362 3434 
Q 1159 2731 1159 2009 
Q 1159 1288 1364 580 
Q 1569 -128 1984 -844 
L 1484 -844 
Q 1016 -109 783 600 
Q 550 1309 550 2009 
Q 550 2706 781 3412 
Q 1013 4119 1484 4856 
L 1984 4856 
z
" id="DejaVuSans-28" transform="scale(0.015625)"/>
      <path d="M 3116 1747 
Q 3116 2381 2855 2742 
Q 2594 3103 2138 3103 
Q 1681 3103 1420 2742 
Q 1159 2381 1159 1747 
Q 1159 1113 1420 752 
Q 1681 391 2138 391 
Q 2594 391 2855 752 
Q 3116 1113 3116 1747 
z
M 1159 2969 
Q 1341 3281 1617 3432 
Q 1894 3584 2278 3584 
Q 2916 3584 3314 3078 
Q 3713 2572 3713 1747 
Q 3713 922 3314 415 
Q 2916 -91 2278 -91 
Q 1894 -91 1617 61 
Q 1341 213 1159 525 
L 1159 0 
L 581 0 
L 581 4863 
L 1159 4863 
L 1159 2969 
z
" id="DejaVuSans-62" transform="scale(0.015625)"/>
      <path d="M 513 4856 
L 1013 4856 
Q 1481 4119 1714 3412 
Q 1947 2706 1947 2009 
Q 1947 1309 1714 600 
Q 1481 -109 1013 -844 
L 513 -844 
Q 928 -128 1133 580 
Q 1338 1288 1338 2009 
Q 1338 2731 1133 3434 
Q 928 4138 513 4856 
z
" id="DejaVuSans-29" transform="scale(0.015625)"/>
     </defs>
     <use xlink:href="#DejaVuSans-28"/>
     <use x="39.013672" xlink:href="#DejaVuSans-62"/>
     <use x="102.490234" xlink:href="#DejaVuSans-29"/>
    </g>
   </g>
   <g id="legend_1">
    <g id="patch_7">
     <path d="M 144.327812 140.235625 
L 298.472188 140.235625 
Q 300.672188 140.235625 300.672188 138.035625 
L 300.672188 42.26 
Q 300.672188 40.06 298.472188 40.06 
L 144.327812 40.06 
Q 142.127813 40.06 142.127813 42.26 
L 142.127813 138.035625 
Q 142.127813 140.235625 144.327812 140.235625 
z
" style="fill:#ffffff;opacity:0.8;stroke:#cccccc;stroke-linejoin:miter;"/>
    </g>
    <g id="line2d_18">
     <path d="M 146.527813 48.968281 
L 168.527813 48.968281 
" style="fill:none;stroke:#0000ff;stroke-linecap:square;stroke-width:2;"/>
    </g>
    <g id="line2d_19"/>
    <g id="text_19">
     <!-- ture function -->
     <g transform="translate(177.327813 52.818281)scale(0.11 -0.11)">
      <defs>
       <path d="M 544 1381 
L 544 3500 
L 1119 3500 
L 1119 1403 
Q 1119 906 1312 657 
Q 1506 409 1894 409 
Q 2359 409 2629 706 
Q 2900 1003 2900 1516 
L 2900 3500 
L 3475 3500 
L 3475 0 
L 2900 0 
L 2900 538 
Q 2691 219 2414 64 
Q 2138 -91 1772 -91 
Q 1169 -91 856 284 
Q 544 659 544 1381 
z
M 1991 3584 
L 1991 3584 
z
" id="DejaVuSans-75" transform="scale(0.015625)"/>
       <path d="M 2375 4863 
L 2375 4384 
L 1825 4384 
Q 1516 4384 1395 4259 
Q 1275 4134 1275 3809 
L 1275 3500 
L 2222 3500 
L 2222 3053 
L 1275 3053 
L 1275 0 
L 697 0 
L 697 3053 
L 147 3053 
L 147 3500 
L 697 3500 
L 697 3744 
Q 697 4328 969 4595 
Q 1241 4863 1831 4863 
L 2375 4863 
z
" id="DejaVuSans-66" transform="scale(0.015625)"/>
       <path d="M 3513 2113 
L 3513 0 
L 2938 0 
L 2938 2094 
Q 2938 2591 2744 2837 
Q 2550 3084 2163 3084 
Q 1697 3084 1428 2787 
Q 1159 2491 1159 1978 
L 1159 0 
L 581 0 
L 581 3500 
L 1159 3500 
L 1159 2956 
Q 1366 3272 1645 3428 
Q 1925 3584 2291 3584 
Q 2894 3584 3203 3211 
Q 3513 2838 3513 2113 
z
" id="DejaVuSans-6e" transform="scale(0.015625)"/>
       <path d="M 3122 3366 
L 3122 2828 
Q 2878 2963 2633 3030 
Q 2388 3097 2138 3097 
Q 1578 3097 1268 2742 
Q 959 2388 959 1747 
Q 959 1106 1268 751 
Q 1578 397 2138 397 
Q 2388 397 2633 464 
Q 2878 531 3122 666 
L 3122 134 
Q 2881 22 2623 -34 
Q 2366 -91 2075 -91 
Q 1284 -91 818 406 
Q 353 903 353 1747 
Q 353 2603 823 3093 
Q 1294 3584 2113 3584 
Q 2378 3584 2631 3529 
Q 2884 3475 3122 3366 
z
" id="DejaVuSans-63" transform="scale(0.015625)"/>
       <path d="M 603 3500 
L 1178 3500 
L 1178 0 
L 603 0 
L 603 3500 
z
M 603 4863 
L 1178 4863 
L 1178 4134 
L 603 4134 
L 603 4863 
z
" id="DejaVuSans-69" transform="scale(0.015625)"/>
      </defs>
      <use xlink:href="#DejaVuSans-74"/>
      <use x="39.208984" xlink:href="#DejaVuSans-75"/>
      <use x="102.587891" xlink:href="#DejaVuSans-72"/>
      <use x="141.451172" xlink:href="#DejaVuSans-65"/>
      <use x="202.974609" xlink:href="#DejaVuSans-20"/>
      <use x="234.761719" xlink:href="#DejaVuSans-66"/>
      <use x="269.966797" xlink:href="#DejaVuSans-75"/>
      <use x="333.345703" xlink:href="#DejaVuSans-6e"/>
      <use x="396.724609" xlink:href="#DejaVuSans-63"/>
      <use x="451.705078" xlink:href="#DejaVuSans-74"/>
      <use x="490.914062" xlink:href="#DejaVuSans-69"/>
      <use x="518.697266" xlink:href="#DejaVuSans-6f"/>
      <use x="579.878906" xlink:href="#DejaVuSans-6e"/>
     </g>
    </g>
    <g id="line2d_20">
     <path d="M 146.527813 65.114219 
L 168.527813 65.114219 
" style="fill:none;stroke:#000000;stroke-dasharray:7.4,3.2;stroke-dashoffset:0;stroke-width:2;"/>
    </g>
    <g id="line2d_21"/>
    <g id="text_20">
     <!-- predicted function -->
     <g transform="translate(177.327813 68.964219)scale(0.11 -0.11)">
      <defs>
       <path d="M 1159 525 
L 1159 -1331 
L 581 -1331 
L 581 3500 
L 1159 3500 
L 1159 2969 
Q 1341 3281 1617 3432 
Q 1894 3584 2278 3584 
Q 2916 3584 3314 3078 
Q 3713 2572 3713 1747 
Q 3713 922 3314 415 
Q 2916 -91 2278 -91 
Q 1894 -91 1617 61 
Q 1341 213 1159 525 
z
M 3116 1747 
Q 3116 2381 2855 2742 
Q 2594 3103 2138 3103 
Q 1681 3103 1420 2742 
Q 1159 2381 1159 1747 
Q 1159 1113 1420 752 
Q 1681 391 2138 391 
Q 2594 391 2855 752 
Q 3116 1113 3116 1747 
z
" id="DejaVuSans-70" transform="scale(0.015625)"/>
      </defs>
      <use xlink:href="#DejaVuSans-70"/>
      <use x="63.476562" xlink:href="#DejaVuSans-72"/>
      <use x="102.339844" xlink:href="#DejaVuSans-65"/>
      <use x="163.863281" xlink:href="#DejaVuSans-64"/>
      <use x="227.339844" xlink:href="#DejaVuSans-69"/>
      <use x="255.123047" xlink:href="#DejaVuSans-63"/>
      <use x="310.103516" xlink:href="#DejaVuSans-74"/>
      <use x="349.3125" xlink:href="#DejaVuSans-65"/>
      <use x="410.835938" xlink:href="#DejaVuSans-64"/>
      <use x="474.3125" xlink:href="#DejaVuSans-20"/>
      <use x="506.099609" xlink:href="#DejaVuSans-66"/>
      <use x="541.304688" xlink:href="#DejaVuSans-75"/>
      <use x="604.683594" xlink:href="#DejaVuSans-6e"/>
      <use x="668.0625" xlink:href="#DejaVuSans-63"/>
      <use x="723.042969" xlink:href="#DejaVuSans-74"/>
      <use x="762.251953" xlink:href="#DejaVuSans-69"/>
      <use x="790.035156" xlink:href="#DejaVuSans-6f"/>
      <use x="851.216797" xlink:href="#DejaVuSans-6e"/>
     </g>
    </g>
    <g id="line2d_22">
     <path d="M 146.527813 81.260156 
L 168.527813 81.260156 
" style="fill:none;stroke:#008000;stroke-dasharray:3.7,1.6;stroke-dashoffset:0;"/>
    </g>
    <g id="line2d_23"/>
    <g id="text_21">
     <!--  ± Sn(x) -->
     <g transform="translate(177.327813 85.110156)scale(0.11 -0.11)">
      <defs>
       <path d="M 2944 4013 
L 2944 2803 
L 4684 2803 
L 4684 2272 
L 2944 2272 
L 2944 1063 
L 2419 1063 
L 2419 2272 
L 678 2272 
L 678 2803 
L 2419 2803 
L 2419 4013 
L 2944 4013 
z
M 678 531 
L 4684 531 
L 4684 0 
L 678 0 
L 678 531 
z
" id="DejaVuSans-b1" transform="scale(0.015625)"/>
       <path d="M 3425 4513 
L 3425 3897 
Q 3066 4069 2747 4153 
Q 2428 4238 2131 4238 
Q 1616 4238 1336 4038 
Q 1056 3838 1056 3469 
Q 1056 3159 1242 3001 
Q 1428 2844 1947 2747 
L 2328 2669 
Q 3034 2534 3370 2195 
Q 3706 1856 3706 1288 
Q 3706 609 3251 259 
Q 2797 -91 1919 -91 
Q 1588 -91 1214 -16 
Q 841 59 441 206 
L 441 856 
Q 825 641 1194 531 
Q 1563 422 1919 422 
Q 2459 422 2753 634 
Q 3047 847 3047 1241 
Q 3047 1584 2836 1778 
Q 2625 1972 2144 2069 
L 1759 2144 
Q 1053 2284 737 2584 
Q 422 2884 422 3419 
Q 422 4038 858 4394 
Q 1294 4750 2059 4750 
Q 2388 4750 2728 4690 
Q 3069 4631 3425 4513 
z
" id="DejaVuSans-53" transform="scale(0.015625)"/>
      </defs>
      <use xlink:href="#DejaVuSans-20"/>
      <use x="31.787109" xlink:href="#DejaVuSans-b1"/>
      <use x="115.576172" xlink:href="#DejaVuSans-20"/>
      <use x="147.363281" xlink:href="#DejaVuSans-53"/>
      <use x="210.839844" xlink:href="#DejaVuSans-6e"/>
      <use x="274.21875" xlink:href="#DejaVuSans-28"/>
      <use x="313.232422" xlink:href="#DejaVuSans-78"/>
      <use x="372.412109" xlink:href="#DejaVuSans-29"/>
     </g>
    </g>
    <g id="line2d_24">
     <path d="M 146.527813 97.406094 
L 168.527813 97.406094 
" style="fill:none;stroke:#bfbf00;stroke-dasharray:7.4,3.2;stroke-dashoffset:0;stroke-width:2;"/>
    </g>
    <g id="line2d_25"/>
    <g id="text_22">
     <!-- KG(x) -->
     <g transform="translate(177.327813 101.256094)scale(0.11 -0.11)">
      <use xlink:href="#DejaVuSans-4b"/>
      <use x="65.576172" xlink:href="#DejaVuSans-47"/>
      <use x="143.066406" xlink:href="#DejaVuSans-28"/>
      <use x="182.080078" xlink:href="#DejaVuSans-78"/>
      <use x="241.259766" xlink:href="#DejaVuSans-29"/>
     </g>
    </g>
    <g id="PathCollection_2">
     <defs>
      <path d="M 0 3.535534 
C 0.937635 3.535534 1.836992 3.163008 2.5 2.5 
C 3.163008 1.836992 3.535534 0.937635 3.535534 0 
C 3.535534 -0.937635 3.163008 -1.836992 2.5 -2.5 
C 1.836992 -3.163008 0.937635 -3.535534 0 -3.535534 
C -0.937635 -3.535534 -1.836992 -3.163008 -2.5 -2.5 
C -3.163008 -1.836992 -3.535534 -0.937635 -3.535534 0 
C -3.535534 0.937635 -3.163008 1.836992 -2.5 2.5 
C -1.836992 3.163008 -0.937635 3.535534 0 3.535534 
z
" id="mdcb63508a4" style="stroke:#000000;"/>
     </defs>
     <g>
      <use style="fill:#ff0000;stroke:#000000;" x="157.527813" xlink:href="#mdcb63508a4" y="114.514531"/>
     </g>
    </g>
    <g id="text_23">
     <!-- training data -->
     <g transform="translate(177.327813 117.402031)scale(0.11 -0.11)">
      <defs>
       <path d="M 2194 1759 
Q 1497 1759 1228 1600 
Q 959 1441 959 1056 
Q 959 750 1161 570 
Q 1363 391 1709 391 
Q 2188 391 2477 730 
Q 2766 1069 2766 1631 
L 2766 1759 
L 2194 1759 
z
M 3341 1997 
L 3341 0 
L 2766 0 
L 2766 531 
Q 2569 213 2275 61 
Q 1981 -91 1556 -91 
Q 1019 -91 701 211 
Q 384 513 384 1019 
Q 384 1609 779 1909 
Q 1175 2209 1959 2209 
L 2766 2209 
L 2766 2266 
Q 2766 2663 2505 2880 
Q 2244 3097 1772 3097 
Q 1472 3097 1187 3025 
Q 903 2953 641 2809 
L 641 3341 
Q 956 3463 1253 3523 
Q 1550 3584 1831 3584 
Q 2591 3584 2966 3190 
Q 3341 2797 3341 1997 
z
" id="DejaVuSans-61" transform="scale(0.015625)"/>
       <path d="M 2906 1791 
Q 2906 2416 2648 2759 
Q 2391 3103 1925 3103 
Q 1463 3103 1205 2759 
Q 947 2416 947 1791 
Q 947 1169 1205 825 
Q 1463 481 1925 481 
Q 2391 481 2648 825 
Q 2906 1169 2906 1791 
z
M 3481 434 
Q 3481 -459 3084 -895 
Q 2688 -1331 1869 -1331 
Q 1566 -1331 1297 -1286 
Q 1028 -1241 775 -1147 
L 775 -588 
Q 1028 -725 1275 -790 
Q 1522 -856 1778 -856 
Q 2344 -856 2625 -561 
Q 2906 -266 2906 331 
L 2906 616 
Q 2728 306 2450 153 
Q 2172 0 1784 0 
Q 1141 0 747 490 
Q 353 981 353 1791 
Q 353 2603 747 3093 
Q 1141 3584 1784 3584 
Q 2172 3584 2450 3431 
Q 2728 3278 2906 2969 
L 2906 3500 
L 3481 3500 
L 3481 434 
z
" id="DejaVuSans-67" transform="scale(0.015625)"/>
      </defs>
      <use xlink:href="#DejaVuSans-74"/>
      <use x="39.208984" xlink:href="#DejaVuSans-72"/>
      <use x="80.322266" xlink:href="#DejaVuSans-61"/>
      <use x="141.601562" xlink:href="#DejaVuSans-69"/>
      <use x="169.384766" xlink:href="#DejaVuSans-6e"/>
      <use x="232.763672" xlink:href="#DejaVuSans-69"/>
      <use x="260.546875" xlink:href="#DejaVuSans-6e"/>
      <use x="323.925781" xlink:href="#DejaVuSans-67"/>
      <use x="387.402344" xlink:href="#DejaVuSans-20"/>
      <use x="419.189453" xlink:href="#DejaVuSans-64"/>
      <use x="482.666016" xlink:href="#DejaVuSans-61"/>
      <use x="543.945312" xlink:href="#DejaVuSans-74"/>
      <use x="583.154297" xlink:href="#DejaVuSans-61"/>
     </g>
    </g>
    <g id="PathCollection_3">
     <g>
      <use style="fill:#ff0000;stroke:#ff0000;stroke-width:8;" x="157.527813" xlink:href="#mea007c4640" y="130.660469"/>
     </g>
    </g>
    <g id="text_24">
     <!-- recommended datum -->
     <g transform="translate(177.327813 133.547969)scale(0.11 -0.11)">
      <defs>
       <path d="M 3328 2828 
Q 3544 3216 3844 3400 
Q 4144 3584 4550 3584 
Q 5097 3584 5394 3201 
Q 5691 2819 5691 2113 
L 5691 0 
L 5113 0 
L 5113 2094 
Q 5113 2597 4934 2840 
Q 4756 3084 4391 3084 
Q 3944 3084 3684 2787 
Q 3425 2491 3425 1978 
L 3425 0 
L 2847 0 
L 2847 2094 
Q 2847 2600 2669 2842 
Q 2491 3084 2119 3084 
Q 1678 3084 1418 2786 
Q 1159 2488 1159 1978 
L 1159 0 
L 581 0 
L 581 3500 
L 1159 3500 
L 1159 2956 
Q 1356 3278 1631 3431 
Q 1906 3584 2284 3584 
Q 2666 3584 2933 3390 
Q 3200 3197 3328 2828 
z
" id="DejaVuSans-6d" transform="scale(0.015625)"/>
      </defs>
      <use xlink:href="#DejaVuSans-72"/>
      <use x="38.863281" xlink:href="#DejaVuSans-65"/>
      <use x="100.386719" xlink:href="#DejaVuSans-63"/>
      <use x="155.367188" xlink:href="#DejaVuSans-6f"/>
      <use x="216.548828" xlink:href="#DejaVuSans-6d"/>
      <use x="313.960938" xlink:href="#DejaVuSans-6d"/>
      <use x="411.373047" xlink:href="#DejaVuSans-65"/>
      <use x="472.896484" xlink:href="#DejaVuSans-6e"/>
      <use x="536.275391" xlink:href="#DejaVuSans-64"/>
      <use x="599.751953" xlink:href="#DejaVuSans-65"/>
      <use x="661.275391" xlink:href="#DejaVuSans-64"/>
      <use x="724.751953" xlink:href="#DejaVuSans-20"/>
      <use x="756.539062" xlink:href="#DejaVuSans-64"/>
      <use x="820.015625" xlink:href="#DejaVuSans-61"/>
      <use x="881.294922" xlink:href="#DejaVuSans-74"/>
      <use x="920.503906" xlink:href="#DejaVuSans-75"/>
      <use x="983.882812" xlink:href="#DejaVuSans-6d"/>
     </g>
    </g>
   </g>
   <g id="line2d_26">
    <path clip-path="url(#p8ae6467de7)" d="M 69.218182 143.499521 
L 71.985124 141.834921 
L 74.752066 140.899514 
L 77.519008 140.814669 
L 80.28595 141.665819 
L 83.052893 143.492877 
L 85.819835 146.283723 
L 88.586777 149.971652 
L 91.353719 154.437311 
L 94.120661 159.515158 
L 96.887603 165.004 
L 99.654545 170.680684 
L 102.421488 176.315672 
L 105.18843 181.689011 
L 107.955372 186.605176 
L 110.722314 190.905436 
L 113.489256 194.47669 
L 116.256198 197.256126 
L 119.02314 199.231566 
L 121.790083 200.437759 
L 124.557025 200.949327 
L 127.323967 200.871281 
L 130.090909 200.32821 
L 132.857851 199.453205 
L 135.624793 198.377483 
L 138.391736 197.221494 
L 141.158678 196.088002 
L 143.92562 195.057434 
L 146.692562 194.185522 
L 149.459504 193.503078 
L 152.226446 193.017622 
L 154.993388 192.716459 
L 157.760331 192.570785 
L 160.527273 192.540377 
L 163.294215 192.578458 
L 166.061157 192.636353 
L 168.828099 192.667634 
L 171.595041 192.63152 
L 174.361983 192.495379 
L 177.128926 192.236259 
L 179.895868 191.841486 
L 182.66281 191.308404 
L 185.429752 190.643407 
L 188.196694 189.860461 
L 190.963636 188.979302 
L 193.730579 188.02351 
L 196.497521 187.018624 
L 199.264463 185.990429 
L 202.031405 184.963519 
L 204.798347 183.960171 
L 207.565289 182.999557 
L 210.332231 182.097293 
L 213.099174 181.265275 
L 215.866116 180.511791 
L 218.633058 179.841846 
L 221.4 179.257674 
L 224.166942 178.759384 
L 226.933884 178.345728 
L 229.700826 178.01493 
L 232.467769 177.765573 
L 235.234711 177.597498 
L 238.001653 177.512686 
L 240.768595 177.516091 
L 243.535537 177.616358 
L 246.302479 177.826398 
L 249.069421 178.163714 
L 251.836364 178.650432 
L 254.603306 179.312925 
L 257.370248 180.180956 
L 260.13719 181.286254 
L 262.904132 182.660476 
L 265.671074 184.332532 
L 268.438017 186.325292 
L 271.204959 188.651795 
L 273.971901 191.31109 
L 276.738843 194.283981 
L 279.505785 197.528962 
L 282.272727 200.978738 
L 285.039669 204.537741 
L 287.806612 208.081092 
L 290.573554 211.455438 
L 293.340496 214.48204 
L 296.107438 216.962381 
L 298.87438 218.686423 
L 301.641322 219.443399 
L 304.408264 219.034811 
L 307.175207 217.288983 
L 309.942149 214.076247 
L 312.709091 209.323568 
L 315.476033 203.027244 
L 318.242975 195.262219 
L 321.009917 186.186677 
L 323.77686 176.04081 
L 326.543802 165.139137 
L 329.310744 153.856315 
L 332.077686 142.6071 
L 334.844628 131.82179 
L 337.61157 121.919084 
L 340.378512 113.278738 
L 343.145455 106.216534 
L 345.912397 100.963936 
L 348.679339 97.654398 
L 351.446281 96.317553 
L 354.213223 96.881693 
L 356.980165 99.184046 
L 359.747107 102.987536 
L 362.51405 108.002093 
L 365.280992 113.908218 
L 368.047934 120.380458 
L 370.814876 127.108655 
L 373.581818 133.815326 
" style="fill:none;stroke:#000000;stroke-dasharray:7.4,3.2;stroke-dashoffset:0;stroke-width:2;"/>
   </g>
   <g id="PathCollection_4">
    <g clip-path="url(#p8ae6467de7)">
     <use style="fill:#ff0000;stroke:#000000;" x="83.052893" xlink:href="#mdcb63508a4" y="129.399309"/>
     <use style="fill:#ff0000;stroke:#000000;" x="96.887603" xlink:href="#mdcb63508a4" y="162.429541"/>
     <use style="fill:#ff0000;stroke:#000000;" x="110.722314" xlink:href="#mdcb63508a4" y="193.170209"/>
     <use style="fill:#ff0000;stroke:#000000;" x="124.557025" xlink:href="#mdcb63508a4" y="199.248575"/>
     <use style="fill:#ff0000;stroke:#000000;" x="138.391736" xlink:href="#mdcb63508a4" y="199.347548"/>
     <use style="fill:#ff0000;stroke:#000000;" x="152.226446" xlink:href="#mdcb63508a4" y="191.611971"/>
     <use style="fill:#ff0000;stroke:#000000;" x="166.061157" xlink:href="#mdcb63508a4" y="193.66847"/>
     <use style="fill:#ff0000;stroke:#000000;" x="179.895868" xlink:href="#mdcb63508a4" y="193.283098"/>
     <use style="fill:#ff0000;stroke:#000000;" x="193.730579" xlink:href="#mdcb63508a4" y="188.924027"/>
     <use style="fill:#ff0000;stroke:#000000;" x="318.242975" xlink:href="#mdcb63508a4" y="199.289596"/>
     <use style="fill:#ff0000;stroke:#000000;" x="332.077686" xlink:href="#mdcb63508a4" y="145.37007"/>
     <use style="fill:#ff0000;stroke:#000000;" x="345.912397" xlink:href="#mdcb63508a4" y="78.407322"/>
     <use style="fill:#ff0000;stroke:#000000;" x="301.641322" xlink:href="#mdcb63508a4" y="221.265308"/>
    </g>
   </g>
  </g>
 </g>
 <defs>
  <clipPath id="p8ae6467de7">
   <rect height="217.44" width="334.8" x="54" y="34.56"/>
  </clipPath>
 </defs>
</svg>
