<?xml version="1.0" encoding="utf-8" standalone="no"?>
<!DOCTYPE svg PUBLIC "-//W3C//DTD SVG 1.1//EN"
  "http://www.w3.org/Graphics/SVG/1.1/DTD/svg11.dtd">
<svg height="288pt" version="1.1" viewBox="0 0 432 288" width="432pt" xmlns="http://www.w3.org/2000/svg" xmlns:xlink="http://www.w3.org/1999/xlink">
 <metadata>
  <rdf:RDF xmlns:cc="http://creativecommons.org/ns#" xmlns:dc="http://purl.org/dc/elements/1.1/" xmlns:rdf="http://www.w3.org/1999/02/22-rdf-syntax-ns#">
   <cc:Work>
    <dc:type rdf:resource="http://purl.org/dc/dcmitype/StillImage"/>
    <dc:date>2022-09-04T16:15:17.168377</dc:date>
    <dc:format>image/svg+xml</dc:format>
    <dc:creator>
     <cc:Agent>
      <dc:title>Matplotlib v3.4.3, https://matplotlib.org/</dc:title>
     </cc:Agent>
    </dc:creator>
   </cc:Work>
  </rdf:RDF>
 </metadata>
 <defs>
  <style type="text/css">*{stroke-linecap:butt;stroke-linejoin:round;}</style>
 </defs>
 <g id="figure_1">
  <g id="patch_1">
   <path d="M 0 288 
L 432 288 
L 432 0 
L 0 0 
z
" style="fill:none;"/>
  </g>
  <g id="axes_1">
   <g id="patch_2">
    <path d="M 54 252 
L 388.8 252 
L 388.8 34.56 
L 54 34.56 
z
" style="fill:#ffffff;"/>
   </g>
   <g id="PolyCollection_1">
    <defs>
     <path d="M 69.218182 -183.352744 
L 69.218182 -118.210633 
L 71.985124 -121.569691 
L 74.752066 -124.183421 
L 77.519008 -125.824514 
L 80.28595 -126.311859 
L 83.052893 -125.550159 
L 85.819835 -123.564819 
L 88.586777 -120.512521 
L 91.353719 -116.65474 
L 94.120661 -112.303398 
L 96.887603 -107.761444 
L 99.654545 -103.27362 
L 102.421488 -98.988435 
L 105.18843 -94.929335 
L 107.955372 -90.992403 
L 110.722314 -87.028081 
L 113.489256 -83.02425 
L 116.256198 -79.200601 
L 119.02314 -75.87513 
L 121.790083 -73.298129 
L 124.557025 -71.594483 
L 127.323967 -70.772611 
L 130.090909 -70.750466 
L 132.857851 -71.383622 
L 135.624793 -72.493683 
L 138.391736 -73.896547 
L 141.158678 -75.428192 
L 143.92562 -76.963734 
L 146.692562 -78.425103 
L 149.459504 -79.774953 
L 152.226446 -80.998717 
L 154.993388 -82.080561 
L 157.760331 -82.981263 
L 160.527273 -83.628281 
L 163.294215 -83.93164 
L 166.061157 -83.833648 
L 168.828099 -83.368607 
L 171.595041 -82.677794 
L 174.361983 -81.960898 
L 177.128926 -81.406857 
L 179.895868 -81.144118 
L 182.66281 -81.215134 
L 185.429752 -81.567733 
L 188.196694 -82.062938 
L 190.963636 -82.506687 
L 193.730579 -82.708252 
L 196.497521 -82.54536 
L 199.264463 -81.998308 
L 202.031405 -81.136187 
L 204.798347 -80.076117 
L 207.565289 -78.944538 
L 210.332231 -77.852767 
L 213.099174 -76.885429 
L 215.866116 -76.097091 
L 218.633058 -75.513611 
L 221.4 -75.136175 
L 224.166942 -74.946811 
L 226.933884 -74.914485 
L 229.700826 -75.001049 
L 232.467769 -75.166408 
L 235.234711 -75.37248 
L 238.001653 -75.585667 
L 240.768595 -75.77785 
L 243.535537 -75.926078 
L 246.302479 -76.011289 
L 249.069421 -76.016479 
L 251.836364 -75.924723 
L 254.603306 -75.717436 
L 257.370248 -75.373171 
L 260.13719 -74.867218 
L 262.904132 -74.172206 
L 265.671074 -73.259841 
L 268.438017 -72.103869 
L 271.204959 -70.684206 
L 273.971901 -68.992036 
L 276.738843 -67.035487 
L 279.505785 -64.845332 
L 282.272727 -62.480014 
L 285.039669 -60.029248 
L 287.806612 -57.61549 
L 290.573554 -55.392688 
L 293.340496 -53.541875 
L 296.107438 -52.263378 
L 298.87438 -51.765584 
L 301.641322 -52.250318 
L 304.408264 -53.895023 
L 307.175207 -56.831942 
L 309.942149 -61.125082 
L 312.709091 -66.748196 
L 315.476033 -73.575798 
L 318.242975 -81.416749 
L 321.009917 -90.11549 
L 323.77686 -99.649339 
L 326.543802 -110.077404 
L 329.310744 -121.380375 
L 332.077686 -133.360511 
L 334.844628 -145.636182 
L 337.61157 -157.675652 
L 340.378512 -168.838295 
L 343.145455 -178.431076 
L 345.912397 -185.809599 
L 348.679339 -190.520509 
L 351.446281 -192.398307 
L 354.213223 -191.543123 
L 356.980165 -188.231179 
L 359.747107 -182.83783 
L 362.51405 -175.790471 
L 365.280992 -167.537218 
L 368.047934 -158.52104 
L 370.814876 -149.156843 
L 373.581818 -139.812431 
L 373.581818 -221.652776 
L 373.581818 -221.652776 
L 370.814876 -226.848053 
L 368.047934 -231.341646 
L 365.280992 -234.828655 
L 362.51405 -237.023069 
L 359.747107 -237.684101 
L 356.980165 -236.643424 
L 354.213223 -233.829908 
L 351.446281 -229.284471 
L 348.679339 -223.149821 
L 345.912397 -215.6167 
L 343.145455 -206.840796 
L 340.378512 -196.908698 
L 337.61157 -185.905013 
L 334.844628 -174.009456 
L 332.077686 -161.540936 
L 329.310744 -148.950611 
L 326.543802 -136.798995 
L 323.77686 -125.730721 
L 321.009917 -116.420214 
L 318.242975 -109.43673 
L 315.476033 -105.065385 
L 312.709091 -103.25391 
L 309.942149 -103.723227 
L 307.175207 -106.09478 
L 304.408264 -109.959462 
L 301.641322 -114.909158 
L 298.87438 -120.556342 
L 296.107438 -126.550102 
L 293.340496 -132.588956 
L 290.573554 -138.42926 
L 287.806612 -143.888525 
L 285.039669 -148.843776 
L 282.272727 -153.225831 
L 279.505785 -157.01073 
L 276.738843 -160.20973 
L 273.971901 -162.859126 
L 271.204959 -165.010903 
L 268.438017 -166.724841 
L 265.671074 -168.062334 
L 262.904132 -169.081886 
L 260.13719 -169.83607 
L 257.370248 -170.369618 
L 254.603306 -170.718325 
L 251.836364 -170.908463 
L 249.069421 -170.956474 
L 246.302479 -170.868787 
L 243.535537 -170.641669 
L 240.768595 -170.26115 
L 238.001653 -169.703146 
L 235.234711 -168.934017 
L 232.467769 -167.911863 
L 229.700826 -166.588869 
L 226.933884 -164.914928 
L 224.166942 -162.842612 
L 221.4 -160.333363 
L 218.633058 -157.364499 
L 215.866116 -153.936492 
L 213.099174 -150.079769 
L 210.332231 -145.860242 
L 207.565289 -141.382648 
L 204.798347 -136.790501 
L 202.031405 -132.260704 
L 199.264463 -127.989422 
L 196.497521 -124.164689 
L 193.730579 -120.924484 
L 190.963636 -118.312633 
L 188.196694 -116.261716 
L 185.429752 -114.624029 
L 182.66281 -113.233826 
L 179.895868 -111.963303 
L 177.128926 -110.75247 
L 174.361983 -109.615901 
L 171.595041 -108.633995 
L 168.828099 -107.92852 
L 166.061157 -107.61525 
L 163.294215 -107.738626 
L 160.527273 -108.228501 
L 157.760331 -108.921829 
L 154.993388 -109.630278 
L 152.226446 -110.198671 
L 149.459504 -110.529881 
L 146.692562 -110.583554 
L 143.92562 -110.361465 
L 141.158678 -109.888969 
L 138.391736 -109.19971 
L 135.624793 -108.328624 
L 132.857851 -107.314595 
L 130.090909 -106.210152 
L 127.323967 -105.093689 
L 124.557025 -104.08057 
L 121.790083 -103.331838 
L 119.02314 -103.061574 
L 116.256198 -103.542914 
L 113.489256 -105.099746 
L 110.722314 -108.036374 
L 107.955372 -112.465086 
L 105.18843 -118.173529 
L 102.421488 -124.727645 
L 99.654545 -131.670595 
L 96.887603 -138.62643 
L 94.120661 -145.323968 
L 91.353719 -151.596019 
L 88.586777 -157.368724 
L 85.819835 -162.636501 
L 83.052893 -167.421508 
L 80.28595 -171.731337 
L 77.519008 -175.537003 
L 74.752066 -178.780438 
L 71.985124 -181.399558 
L 69.218182 -183.352744 
z
" id="m650ce21bc2" style="stroke:#add8e6;stroke-opacity:0.2;"/>
    </defs>
    <g clip-path="url(#p3fbff4841c)">
     <use style="fill:#add8e6;fill-opacity:0.2;stroke:#add8e6;stroke-opacity:0.2;" x="0" xlink:href="#m650ce21bc2" y="288"/>
    </g>
   </g>
   <g id="PathCollection_1">
    <defs>
     <path d="M 0 0.612372 
C 0.162403 0.612372 0.318176 0.547849 0.433013 0.433013 
C 0.547849 0.318176 0.612372 0.162403 0.612372 0 
C 0.612372 -0.162403 0.547849 -0.318176 0.433013 -0.433013 
C 0.318176 -0.547849 0.162403 -0.612372 0 -0.612372 
C -0.162403 -0.612372 -0.318176 -0.547849 -0.433013 -0.433013 
C -0.547849 -0.318176 -0.612372 -0.162403 -0.612372 0 
C -0.612372 0.162403 -0.547849 0.318176 -0.433013 0.433013 
C -0.318176 0.547849 -0.162403 0.612372 0 0.612372 
z
" id="maf9649c057" style="stroke:#ff0000;stroke-width:8;"/>
    </defs>
    <g clip-path="url(#p3fbff4841c)">
     <use style="fill:#ff0000;stroke:#ff0000;stroke-width:8;" x="290.573554" xlink:href="#maf9649c057" y="208.883085"/>
    </g>
   </g>
   <g id="matplotlib.axis_1">
    <g id="xtick_1">
     <g id="line2d_1">
      <defs>
       <path d="M 0 0 
L 0 3.5 
" id="mbe8f7177fa" style="stroke:#000000;stroke-width:0.8;"/>
      </defs>
      <g>
       <use style="stroke:#000000;stroke-width:0.8;" x="69.218182" xlink:href="#mbe8f7177fa" y="252"/>
      </g>
     </g>
     <g id="text_1">
      <!-- 0 -->
      <g transform="translate(66.036932 266.598437)scale(0.1 -0.1)">
       <defs>
        <path d="M 2034 4250 
Q 1547 4250 1301 3770 
Q 1056 3291 1056 2328 
Q 1056 1369 1301 889 
Q 1547 409 2034 409 
Q 2525 409 2770 889 
Q 3016 1369 3016 2328 
Q 3016 3291 2770 3770 
Q 2525 4250 2034 4250 
z
M 2034 4750 
Q 2819 4750 3233 4129 
Q 3647 3509 3647 2328 
Q 3647 1150 3233 529 
Q 2819 -91 2034 -91 
Q 1250 -91 836 529 
Q 422 1150 422 2328 
Q 422 3509 836 4129 
Q 1250 4750 2034 4750 
z
" id="DejaVuSans-30" transform="scale(0.015625)"/>
       </defs>
       <use xlink:href="#DejaVuSans-30"/>
      </g>
     </g>
    </g>
    <g id="xtick_2">
     <g id="line2d_2">
      <g>
       <use style="stroke:#000000;stroke-width:0.8;" x="124.557025" xlink:href="#mbe8f7177fa" y="252"/>
      </g>
     </g>
     <g id="text_2">
      <!-- 2 -->
      <g transform="translate(121.375775 266.598437)scale(0.1 -0.1)">
       <defs>
        <path d="M 1228 531 
L 3431 531 
L 3431 0 
L 469 0 
L 469 531 
Q 828 903 1448 1529 
Q 2069 2156 2228 2338 
Q 2531 2678 2651 2914 
Q 2772 3150 2772 3378 
Q 2772 3750 2511 3984 
Q 2250 4219 1831 4219 
Q 1534 4219 1204 4116 
Q 875 4013 500 3803 
L 500 4441 
Q 881 4594 1212 4672 
Q 1544 4750 1819 4750 
Q 2544 4750 2975 4387 
Q 3406 4025 3406 3419 
Q 3406 3131 3298 2873 
Q 3191 2616 2906 2266 
Q 2828 2175 2409 1742 
Q 1991 1309 1228 531 
z
" id="DejaVuSans-32" transform="scale(0.015625)"/>
       </defs>
       <use xlink:href="#DejaVuSans-32"/>
      </g>
     </g>
    </g>
    <g id="xtick_3">
     <g id="line2d_3">
      <g>
       <use style="stroke:#000000;stroke-width:0.8;" x="179.895868" xlink:href="#mbe8f7177fa" y="252"/>
      </g>
     </g>
     <g id="text_3">
      <!-- 4 -->
      <g transform="translate(176.714618 266.598437)scale(0.1 -0.1)">
       <defs>
        <path d="M 2419 4116 
L 825 1625 
L 2419 1625 
L 2419 4116 
z
M 2253 4666 
L 3047 4666 
L 3047 1625 
L 3713 1625 
L 3713 1100 
L 3047 1100 
L 3047 0 
L 2419 0 
L 2419 1100 
L 313 1100 
L 313 1709 
L 2253 4666 
z
" id="DejaVuSans-34" transform="scale(0.015625)"/>
       </defs>
       <use xlink:href="#DejaVuSans-34"/>
      </g>
     </g>
    </g>
    <g id="xtick_4">
     <g id="line2d_4">
      <g>
       <use style="stroke:#000000;stroke-width:0.8;" x="235.234711" xlink:href="#mbe8f7177fa" y="252"/>
      </g>
     </g>
     <g id="text_4">
      <!-- 6 -->
      <g transform="translate(232.053461 266.598437)scale(0.1 -0.1)">
       <defs>
        <path d="M 2113 2584 
Q 1688 2584 1439 2293 
Q 1191 2003 1191 1497 
Q 1191 994 1439 701 
Q 1688 409 2113 409 
Q 2538 409 2786 701 
Q 3034 994 3034 1497 
Q 3034 2003 2786 2293 
Q 2538 2584 2113 2584 
z
M 3366 4563 
L 3366 3988 
Q 3128 4100 2886 4159 
Q 2644 4219 2406 4219 
Q 1781 4219 1451 3797 
Q 1122 3375 1075 2522 
Q 1259 2794 1537 2939 
Q 1816 3084 2150 3084 
Q 2853 3084 3261 2657 
Q 3669 2231 3669 1497 
Q 3669 778 3244 343 
Q 2819 -91 2113 -91 
Q 1303 -91 875 529 
Q 447 1150 447 2328 
Q 447 3434 972 4092 
Q 1497 4750 2381 4750 
Q 2619 4750 2861 4703 
Q 3103 4656 3366 4563 
z
" id="DejaVuSans-36" transform="scale(0.015625)"/>
       </defs>
       <use xlink:href="#DejaVuSans-36"/>
      </g>
     </g>
    </g>
    <g id="xtick_5">
     <g id="line2d_5">
      <g>
       <use style="stroke:#000000;stroke-width:0.8;" x="290.573554" xlink:href="#mbe8f7177fa" y="252"/>
      </g>
     </g>
     <g id="text_5">
      <!-- 8 -->
      <g transform="translate(287.392304 266.598437)scale(0.1 -0.1)">
       <defs>
        <path d="M 2034 2216 
Q 1584 2216 1326 1975 
Q 1069 1734 1069 1313 
Q 1069 891 1326 650 
Q 1584 409 2034 409 
Q 2484 409 2743 651 
Q 3003 894 3003 1313 
Q 3003 1734 2745 1975 
Q 2488 2216 2034 2216 
z
M 1403 2484 
Q 997 2584 770 2862 
Q 544 3141 544 3541 
Q 544 4100 942 4425 
Q 1341 4750 2034 4750 
Q 2731 4750 3128 4425 
Q 3525 4100 3525 3541 
Q 3525 3141 3298 2862 
Q 3072 2584 2669 2484 
Q 3125 2378 3379 2068 
Q 3634 1759 3634 1313 
Q 3634 634 3220 271 
Q 2806 -91 2034 -91 
Q 1263 -91 848 271 
Q 434 634 434 1313 
Q 434 1759 690 2068 
Q 947 2378 1403 2484 
z
M 1172 3481 
Q 1172 3119 1398 2916 
Q 1625 2713 2034 2713 
Q 2441 2713 2670 2916 
Q 2900 3119 2900 3481 
Q 2900 3844 2670 4047 
Q 2441 4250 2034 4250 
Q 1625 4250 1398 4047 
Q 1172 3844 1172 3481 
z
" id="DejaVuSans-38" transform="scale(0.015625)"/>
       </defs>
       <use xlink:href="#DejaVuSans-38"/>
      </g>
     </g>
    </g>
    <g id="xtick_6">
     <g id="line2d_6">
      <g>
       <use style="stroke:#000000;stroke-width:0.8;" x="345.912397" xlink:href="#mbe8f7177fa" y="252"/>
      </g>
     </g>
     <g id="text_6">
      <!-- 10 -->
      <g transform="translate(339.549897 266.598437)scale(0.1 -0.1)">
       <defs>
        <path d="M 794 531 
L 1825 531 
L 1825 4091 
L 703 3866 
L 703 4441 
L 1819 4666 
L 2450 4666 
L 2450 531 
L 3481 531 
L 3481 0 
L 794 0 
L 794 531 
z
" id="DejaVuSans-31" transform="scale(0.015625)"/>
       </defs>
       <use xlink:href="#DejaVuSans-31"/>
       <use x="63.623047" xlink:href="#DejaVuSans-30"/>
      </g>
     </g>
    </g>
    <g id="text_7">
     <!-- x -->
     <g transform="translate(217.84875 281.79625)scale(0.12 -0.12)">
      <defs>
       <path d="M 3513 3500 
L 2247 1797 
L 3578 0 
L 2900 0 
L 1881 1375 
L 863 0 
L 184 0 
L 1544 1831 
L 300 3500 
L 978 3500 
L 1906 2253 
L 2834 3500 
L 3513 3500 
z
" id="DejaVuSans-78" transform="scale(0.015625)"/>
      </defs>
      <use xlink:href="#DejaVuSans-78"/>
     </g>
    </g>
   </g>
   <g id="matplotlib.axis_2">
    <g id="ytick_1">
     <g id="line2d_7">
      <defs>
       <path d="M 0 0 
L -3.5 0 
" id="mbc5d2d01aa" style="stroke:#000000;stroke-width:0.8;"/>
      </defs>
      <g>
       <use style="stroke:#000000;stroke-width:0.8;" x="54" xlink:href="#mbc5d2d01aa" y="252"/>
      </g>
     </g>
     <g id="text_8">
      <!-- 3 -->
      <g transform="translate(40.6375 255.799219)scale(0.1 -0.1)">
       <defs>
        <path d="M 2597 2516 
Q 3050 2419 3304 2112 
Q 3559 1806 3559 1356 
Q 3559 666 3084 287 
Q 2609 -91 1734 -91 
Q 1441 -91 1130 -33 
Q 819 25 488 141 
L 488 750 
Q 750 597 1062 519 
Q 1375 441 1716 441 
Q 2309 441 2620 675 
Q 2931 909 2931 1356 
Q 2931 1769 2642 2001 
Q 2353 2234 1838 2234 
L 1294 2234 
L 1294 2753 
L 1863 2753 
Q 2328 2753 2575 2939 
Q 2822 3125 2822 3475 
Q 2822 3834 2567 4026 
Q 2313 4219 1838 4219 
Q 1578 4219 1281 4162 
Q 984 4106 628 3988 
L 628 4550 
Q 988 4650 1302 4700 
Q 1616 4750 1894 4750 
Q 2613 4750 3031 4423 
Q 3450 4097 3450 3541 
Q 3450 3153 3228 2886 
Q 3006 2619 2597 2516 
z
" id="DejaVuSans-33" transform="scale(0.015625)"/>
       </defs>
       <use xlink:href="#DejaVuSans-33"/>
      </g>
     </g>
    </g>
    <g id="ytick_2">
     <g id="line2d_8">
      <g>
       <use style="stroke:#000000;stroke-width:0.8;" x="54" xlink:href="#mbc5d2d01aa" y="215.76"/>
      </g>
     </g>
     <g id="text_9">
      <!-- 4 -->
      <g transform="translate(40.6375 219.559219)scale(0.1 -0.1)">
       <use xlink:href="#DejaVuSans-34"/>
      </g>
     </g>
    </g>
    <g id="ytick_3">
     <g id="line2d_9">
      <g>
       <use style="stroke:#000000;stroke-width:0.8;" x="54" xlink:href="#mbc5d2d01aa" y="179.52"/>
      </g>
     </g>
     <g id="text_10">
      <!-- 5 -->
      <g transform="translate(40.6375 183.319219)scale(0.1 -0.1)">
       <defs>
        <path d="M 691 4666 
L 3169 4666 
L 3169 4134 
L 1269 4134 
L 1269 2991 
Q 1406 3038 1543 3061 
Q 1681 3084 1819 3084 
Q 2600 3084 3056 2656 
Q 3513 2228 3513 1497 
Q 3513 744 3044 326 
Q 2575 -91 1722 -91 
Q 1428 -91 1123 -41 
Q 819 9 494 109 
L 494 744 
Q 775 591 1075 516 
Q 1375 441 1709 441 
Q 2250 441 2565 725 
Q 2881 1009 2881 1497 
Q 2881 1984 2565 2268 
Q 2250 2553 1709 2553 
Q 1456 2553 1204 2497 
Q 953 2441 691 2322 
L 691 4666 
z
" id="DejaVuSans-35" transform="scale(0.015625)"/>
       </defs>
       <use xlink:href="#DejaVuSans-35"/>
      </g>
     </g>
    </g>
    <g id="ytick_4">
     <g id="line2d_10">
      <g>
       <use style="stroke:#000000;stroke-width:0.8;" x="54" xlink:href="#mbc5d2d01aa" y="143.28"/>
      </g>
     </g>
     <g id="text_11">
      <!-- 6 -->
      <g transform="translate(40.6375 147.079219)scale(0.1 -0.1)">
       <use xlink:href="#DejaVuSans-36"/>
      </g>
     </g>
    </g>
    <g id="ytick_5">
     <g id="line2d_11">
      <g>
       <use style="stroke:#000000;stroke-width:0.8;" x="54" xlink:href="#mbc5d2d01aa" y="107.04"/>
      </g>
     </g>
     <g id="text_12">
      <!-- 7 -->
      <g transform="translate(40.6375 110.839219)scale(0.1 -0.1)">
       <defs>
        <path d="M 525 4666 
L 3525 4666 
L 3525 4397 
L 1831 0 
L 1172 0 
L 2766 4134 
L 525 4134 
L 525 4666 
z
" id="DejaVuSans-37" transform="scale(0.015625)"/>
       </defs>
       <use xlink:href="#DejaVuSans-37"/>
      </g>
     </g>
    </g>
    <g id="ytick_6">
     <g id="line2d_12">
      <g>
       <use style="stroke:#000000;stroke-width:0.8;" x="54" xlink:href="#mbc5d2d01aa" y="70.8"/>
      </g>
     </g>
     <g id="text_13">
      <!-- 8 -->
      <g transform="translate(40.6375 74.599219)scale(0.1 -0.1)">
       <use xlink:href="#DejaVuSans-38"/>
      </g>
     </g>
    </g>
    <g id="ytick_7">
     <g id="line2d_13">
      <g>
       <use style="stroke:#000000;stroke-width:0.8;" x="54" xlink:href="#mbc5d2d01aa" y="34.56"/>
      </g>
     </g>
     <g id="text_14">
      <!-- 9 -->
      <g transform="translate(40.6375 38.359219)scale(0.1 -0.1)">
       <defs>
        <path d="M 703 97 
L 703 672 
Q 941 559 1184 500 
Q 1428 441 1663 441 
Q 2288 441 2617 861 
Q 2947 1281 2994 2138 
Q 2813 1869 2534 1725 
Q 2256 1581 1919 1581 
Q 1219 1581 811 2004 
Q 403 2428 403 3163 
Q 403 3881 828 4315 
Q 1253 4750 1959 4750 
Q 2769 4750 3195 4129 
Q 3622 3509 3622 2328 
Q 3622 1225 3098 567 
Q 2575 -91 1691 -91 
Q 1453 -91 1209 -44 
Q 966 3 703 97 
z
M 1959 2075 
Q 2384 2075 2632 2365 
Q 2881 2656 2881 3163 
Q 2881 3666 2632 3958 
Q 2384 4250 1959 4250 
Q 1534 4250 1286 3958 
Q 1038 3666 1038 3163 
Q 1038 2656 1286 2365 
Q 1534 2075 1959 2075 
z
" id="DejaVuSans-39" transform="scale(0.015625)"/>
       </defs>
       <use xlink:href="#DejaVuSans-39"/>
      </g>
     </g>
    </g>
    <g id="text_15">
     <!-- y -->
     <g transform="translate(34.141875 146.83125)rotate(-90)scale(0.12 -0.12)">
      <defs>
       <path d="M 2059 -325 
Q 1816 -950 1584 -1140 
Q 1353 -1331 966 -1331 
L 506 -1331 
L 506 -850 
L 844 -850 
Q 1081 -850 1212 -737 
Q 1344 -625 1503 -206 
L 1606 56 
L 191 3500 
L 800 3500 
L 1894 763 
L 2988 3500 
L 3597 3500 
L 2059 -325 
z
" id="DejaVuSans-79" transform="scale(0.015625)"/>
      </defs>
      <use xlink:href="#DejaVuSans-79"/>
     </g>
    </g>
   </g>
   <g id="line2d_14">
    <path clip-path="url(#p3fbff4841c)" d="M 69.218182 70.8 
L 71.985124 85.083949 
L 74.752066 98.25467 
L 77.519008 110.364828 
L 80.28595 121.465955 
L 83.052893 131.608455 
L 85.819835 140.841599 
L 88.586777 149.213528 
L 91.353719 156.771253 
L 94.120661 163.560654 
L 96.887603 169.62648 
L 99.654545 175.012349 
L 102.421488 179.76075 
L 105.18843 183.913038 
L 107.955372 187.509441 
L 110.722314 190.589055 
L 113.489256 193.189844 
L 116.256198 195.348643 
L 119.02314 197.101155 
L 121.790083 198.481953 
L 124.557025 199.52448 
L 127.323967 200.261047 
L 130.090909 200.722835 
L 132.857851 200.939895 
L 135.624793 200.941145 
L 138.391736 200.754375 
L 141.158678 200.406243 
L 143.92562 199.922276 
L 146.692562 199.326871 
L 149.459504 198.643294 
L 152.226446 197.89368 
L 154.993388 197.099035 
L 157.760331 196.279231 
L 160.527273 195.453014 
L 163.294215 194.637994 
L 166.061157 193.850655 
L 168.828099 193.106347 
L 171.595041 192.419291 
L 174.361983 191.802577 
L 177.128926 191.268164 
L 179.895868 190.82688 
L 182.66281 190.488424 
L 185.429752 190.261362 
L 188.196694 190.153131 
L 190.963636 190.170037 
L 193.730579 190.317255 
L 196.497521 190.598829 
L 199.264463 191.017673 
L 202.031405 191.575569 
L 204.798347 192.273171 
L 207.565289 193.11 
L 210.332231 194.084446 
L 213.099174 195.193771 
L 215.866116 196.434103 
L 218.633058 197.800442 
L 221.4 199.286655 
L 224.166942 200.88548 
L 226.933884 202.588525 
L 229.700826 204.386264 
L 232.467769 206.268045 
L 235.234711 208.22208 
L 238.001653 210.235455 
L 240.768595 212.294122 
L 243.535537 214.382905 
L 246.302479 216.485496 
L 249.069421 218.584455 
L 251.836364 220.661214 
L 254.603306 222.696071 
L 257.370248 224.668198 
L 260.13719 226.555631 
L 262.904132 228.33528 
L 265.671074 229.982921 
L 268.438017 231.4732 
L 271.204959 232.779634 
L 273.971901 233.874607 
L 276.738843 234.729375 
L 279.505785 235.31406 
L 282.272727 235.597656 
L 285.039669 235.548026 
L 287.806612 235.1319 
L 290.573554 234.31488 
L 293.340496 233.061436 
L 296.107438 231.334908 
L 298.87438 229.097505 
L 301.641322 226.310305 
L 304.408264 222.933255 
L 307.175207 218.925173 
L 309.942149 214.243744 
L 312.709091 208.845524 
L 315.476033 202.685938 
L 318.242975 195.71928 
L 321.009917 187.898713 
L 323.77686 179.176271 
L 326.543802 169.502854 
L 329.310744 158.828236 
L 332.077686 147.101055 
L 334.844628 134.268823 
L 337.61157 120.277918 
L 340.378512 105.073589 
L 343.145455 88.599954 
L 345.912397 70.8 
L 348.679339 51.615584 
L 351.446281 30.987432 
L 354.213223 8.855138 
L 355.363895 -1 
" style="fill:none;stroke:#0000ff;stroke-linecap:square;stroke-width:2;"/>
   </g>
   <g id="line2d_15">
    <path clip-path="url(#p3fbff4841c)" d="M 69.218182 169.789367 
L 71.985124 166.430309 
L 74.752066 163.816579 
L 77.519008 162.175486 
L 80.28595 161.688141 
L 83.052893 162.449841 
L 85.819835 164.435181 
L 88.586777 167.487479 
L 91.353719 171.34526 
L 94.120661 175.696602 
L 96.887603 180.238556 
L 99.654545 184.72638 
L 102.421488 189.011565 
L 105.18843 193.070665 
L 107.955372 197.007597 
L 110.722314 200.971919 
L 113.489256 204.97575 
L 116.256198 208.799399 
L 119.02314 212.12487 
L 121.790083 214.701871 
L 124.557025 216.405517 
L 127.323967 217.227389 
L 130.090909 217.249534 
L 132.857851 216.616378 
L 135.624793 215.506317 
L 138.391736 214.103453 
L 141.158678 212.571808 
L 143.92562 211.036266 
L 146.692562 209.574897 
L 149.459504 208.225047 
L 152.226446 207.001283 
L 154.993388 205.919439 
L 157.760331 205.018737 
L 160.527273 204.371719 
L 163.294215 204.06836 
L 166.061157 204.166352 
L 168.828099 204.631393 
L 171.595041 205.322206 
L 174.361983 206.039102 
L 177.128926 206.593143 
L 179.895868 206.855882 
L 182.66281 206.784866 
L 185.429752 206.432267 
L 188.196694 205.937062 
L 190.963636 205.493313 
L 193.730579 205.291748 
L 196.497521 205.45464 
L 199.264463 206.001692 
L 202.031405 206.863813 
L 204.798347 207.923883 
L 207.565289 209.055462 
L 210.332231 210.147233 
L 213.099174 211.114571 
L 215.866116 211.902909 
L 218.633058 212.486389 
L 221.4 212.863825 
L 224.166942 213.053189 
L 226.933884 213.085515 
L 229.700826 212.998951 
L 232.467769 212.833592 
L 235.234711 212.62752 
L 238.001653 212.414333 
L 240.768595 212.22215 
L 243.535537 212.073922 
L 246.302479 211.988711 
L 249.069421 211.983521 
L 251.836364 212.075277 
L 254.603306 212.282564 
L 257.370248 212.626829 
L 260.13719 213.132782 
L 262.904132 213.827794 
L 265.671074 214.740159 
L 268.438017 215.896131 
L 271.204959 217.315794 
L 273.971901 219.007964 
L 276.738843 220.964513 
L 279.505785 223.154668 
L 282.272727 225.519986 
L 285.039669 227.970752 
L 287.806612 230.38451 
L 290.573554 232.607312 
L 293.340496 234.458125 
L 296.107438 235.736622 
L 298.87438 236.234416 
L 301.641322 235.749682 
L 304.408264 234.104977 
L 307.175207 231.168058 
L 309.942149 226.874918 
L 312.709091 221.251804 
L 315.476033 214.424202 
L 318.242975 206.583251 
L 321.009917 197.88451 
L 323.77686 188.350661 
L 326.543802 177.922596 
L 329.310744 166.619625 
L 332.077686 154.639489 
L 334.844628 142.363818 
L 337.61157 130.324348 
L 340.378512 119.161705 
L 343.145455 109.568924 
L 345.912397 102.190401 
L 348.679339 97.479491 
L 351.446281 95.601693 
L 354.213223 96.456877 
L 356.980165 99.768821 
L 359.747107 105.16217 
L 362.51405 112.209529 
L 365.280992 120.462782 
L 368.047934 129.47896 
L 370.814876 138.843157 
L 373.581818 148.187569 
" style="fill:none;stroke:#008000;stroke-dasharray:3.7,1.6;stroke-dashoffset:0;"/>
   </g>
   <g id="line2d_16">
    <path clip-path="url(#p3fbff4841c)" d="M 69.218182 104.647256 
L 71.985124 106.600442 
L 74.752066 109.219562 
L 77.519008 112.462997 
L 80.28595 116.268663 
L 83.052893 120.578492 
L 85.819835 125.363499 
L 88.586777 130.631276 
L 91.353719 136.403981 
L 94.120661 142.676032 
L 96.887603 149.37357 
L 99.654545 156.329405 
L 102.421488 163.272355 
L 105.18843 169.826471 
L 107.955372 175.534914 
L 110.722314 179.963626 
L 113.489256 182.900254 
L 116.256198 184.457086 
L 119.02314 184.938426 
L 121.790083 184.668162 
L 124.557025 183.91943 
L 127.323967 182.906311 
L 130.090909 181.789848 
L 132.857851 180.685405 
L 135.624793 179.671376 
L 138.391736 178.80029 
L 141.158678 178.111031 
L 143.92562 177.638535 
L 146.692562 177.416446 
L 149.459504 177.470119 
L 152.226446 177.801329 
L 154.993388 178.369722 
L 157.760331 179.078171 
L 160.527273 179.771499 
L 163.294215 180.261374 
L 166.061157 180.38475 
L 168.828099 180.07148 
L 171.595041 179.366005 
L 174.361983 178.384099 
L 177.128926 177.24753 
L 179.895868 176.036697 
L 182.66281 174.766174 
L 185.429752 173.375971 
L 188.196694 171.738284 
L 190.963636 169.687367 
L 193.730579 167.075516 
L 196.497521 163.835311 
L 199.264463 160.010578 
L 202.031405 155.739296 
L 204.798347 151.209499 
L 207.565289 146.617352 
L 210.332231 142.139758 
L 213.099174 137.920231 
L 215.866116 134.063508 
L 218.633058 130.635501 
L 221.4 127.666637 
L 224.166942 125.157388 
L 226.933884 123.085072 
L 229.700826 121.411131 
L 232.467769 120.088137 
L 235.234711 119.065983 
L 238.001653 118.296854 
L 240.768595 117.73885 
L 243.535537 117.358331 
L 246.302479 117.131213 
L 249.069421 117.043526 
L 251.836364 117.091537 
L 254.603306 117.281675 
L 257.370248 117.630382 
L 260.13719 118.16393 
L 262.904132 118.918114 
L 265.671074 119.937666 
L 268.438017 121.275159 
L 271.204959 122.989097 
L 273.971901 125.140874 
L 276.738843 127.79027 
L 279.505785 130.98927 
L 282.272727 134.774169 
L 285.039669 139.156224 
L 287.806612 144.111475 
L 290.573554 149.57074 
L 293.340496 155.411044 
L 296.107438 161.449898 
L 298.87438 167.443658 
L 301.641322 173.090842 
L 304.408264 178.040538 
L 307.175207 181.90522 
L 309.942149 184.276773 
L 312.709091 184.74609 
L 315.476033 182.934615 
L 318.242975 178.56327 
L 321.009917 171.579786 
L 323.77686 162.269279 
L 326.543802 151.201005 
L 329.310744 139.049389 
L 332.077686 126.459064 
L 334.844628 113.990544 
L 337.61157 102.094987 
L 340.378512 91.091302 
L 343.145455 81.159204 
L 345.912397 72.3833 
L 348.679339 64.850179 
L 351.446281 58.715529 
L 354.213223 54.170092 
L 356.980165 51.356576 
L 359.747107 50.315899 
L 362.51405 50.976931 
L 365.280992 53.171345 
L 368.047934 56.658354 
L 370.814876 61.151947 
L 373.581818 66.347224 
" style="fill:none;stroke:#008000;stroke-dasharray:3.7,1.6;stroke-dashoffset:0;"/>
   </g>
   <g id="line2d_17">
    <path clip-path="url(#p3fbff4841c)" d="M 69.218182 249.318664 
L 71.985124 253.82185 
L 74.752066 255.88009 
L 77.519008 256.908499 
L 80.28595 258.661626 
L 83.052893 260.102289 
L 85.819835 260.268094 
L 88.586777 258.63755 
L 91.353719 256.99665 
L 94.120661 258.514402 
L 96.887603 251.961949 
L 99.654545 253.51064 
L 102.421488 251.041525 
L 105.18843 251.612276 
L 107.955372 253.365558 
L 110.722314 256.117478 
L 113.489256 250.257048 
L 116.256198 245.505339 
L 119.02314 243.47759 
L 121.790083 244.530799 
L 124.557025 244.400331 
L 127.323967 242.751818 
L 130.090909 247.026848 
L 132.857851 245.792026 
L 135.624793 246.954423 
L 138.391736 251.161135 
L 141.158678 251.318311 
L 143.92562 253.709513 
L 146.692562 249.993769 
L 149.459504 250.235727 
L 152.226446 250.666093 
L 154.993388 250.111359 
L 157.760331 250.953963 
L 160.527273 252.97814 
L 163.294215 254.387054 
L 166.061157 255.792908 
L 168.828099 253.295863 
L 171.595041 250.875365 
L 174.361983 249.481548 
L 177.128926 248.624775 
L 179.895868 249.070781 
L 182.66281 251.812831 
L 185.429752 250.931144 
L 188.196694 253.714806 
L 190.963636 257.12002 
L 193.730579 256.183518 
L 196.497521 256.567144 
L 199.264463 255.59455 
L 202.031405 255.177121 
L 204.798347 253.17043 
L 207.565289 252.616791 
L 210.332231 250.774557 
L 213.099174 252.779183 
L 215.866116 252.134899 
L 218.633058 250.741707 
L 221.4 250.531344 
L 224.166942 251.40725 
L 226.933884 250.827588 
L 229.700826 251.873408 
L 232.467769 252.957963 
L 235.234711 252.659314 
L 238.001653 251.767765 
L 240.768595 249.627977 
L 243.535537 255.457397 
L 246.302479 256.558664 
L 249.069421 252.190004 
L 251.836364 250.859097 
L 254.603306 245.48548 
L 257.370248 255.828162 
L 260.13719 244.344517 
L 262.904132 248.425499 
L 265.671074 238.969587 
L 268.438017 255.576868 
L 271.204959 241.481299 
L 273.971901 225.133756 
L 276.738843 235.04671 
L 279.505785 232.966171 
L 282.272727 248.826915 
L 285.039669 234.09052 
L 287.806612 240.919112 
L 290.573554 208.883085 
L 293.340496 237.436628 
L 296.107438 246.677459 
L 298.87438 235.586286 
L 301.641322 229.580785 
L 304.408264 214.515419 
L 307.175207 236.351471 
L 309.942149 244.807028 
L 312.709091 253.219301 
L 315.476033 251.506533 
L 318.242975 258.236648 
L 321.009917 256.468281 
L 323.77686 250.855434 
L 326.543802 256.907946 
L 329.310744 253.717864 
L 332.077686 262.583334 
L 334.844628 249.45924 
L 337.61157 252.794012 
L 340.378512 247.351353 
L 343.145455 244.397257 
L 345.912397 238.132597 
L 348.679339 231.026853 
L 351.446281 223.781508 
L 354.213223 219.086277 
L 356.980165 222.854719 
L 359.747107 225.978498 
L 362.51405 223.318064 
L 365.280992 222.426211 
L 368.047934 231.017737 
L 370.814876 233.481948 
L 373.581818 237.693492 
" style="fill:none;stroke:#bfbf00;stroke-dasharray:7.4,3.2;stroke-dashoffset:0;stroke-width:2;"/>
   </g>
   <g id="patch_3">
    <path d="M 54 252 
L 54 34.56 
" style="fill:none;stroke:#000000;stroke-linecap:square;stroke-linejoin:miter;stroke-width:0.8;"/>
   </g>
   <g id="patch_4">
    <path d="M 388.8 252 
L 388.8 34.56 
" style="fill:none;stroke:#000000;stroke-linecap:square;stroke-linejoin:miter;stroke-width:0.8;"/>
   </g>
   <g id="patch_5">
    <path d="M 54 252 
L 388.8 252 
" style="fill:none;stroke:#000000;stroke-linecap:square;stroke-linejoin:miter;stroke-width:0.8;"/>
   </g>
   <g id="patch_6">
    <path d="M 54 34.56 
L 388.8 34.56 
" style="fill:none;stroke:#000000;stroke-linecap:square;stroke-linejoin:miter;stroke-width:0.8;"/>
   </g>
   <g id="text_16">
    <!-- Method : KG -->
    <g transform="translate(71.985124 244.752)scale(0.12 -0.12)">
     <defs>
      <path d="M 628 4666 
L 1569 4666 
L 2759 1491 
L 3956 4666 
L 4897 4666 
L 4897 0 
L 4281 0 
L 4281 4097 
L 3078 897 
L 2444 897 
L 1241 4097 
L 1241 0 
L 628 0 
L 628 4666 
z
" id="DejaVuSans-4d" transform="scale(0.015625)"/>
      <path d="M 3597 1894 
L 3597 1613 
L 953 1613 
Q 991 1019 1311 708 
Q 1631 397 2203 397 
Q 2534 397 2845 478 
Q 3156 559 3463 722 
L 3463 178 
Q 3153 47 2828 -22 
Q 2503 -91 2169 -91 
Q 1331 -91 842 396 
Q 353 884 353 1716 
Q 353 2575 817 3079 
Q 1281 3584 2069 3584 
Q 2775 3584 3186 3129 
Q 3597 2675 3597 1894 
z
M 3022 2063 
Q 3016 2534 2758 2815 
Q 2500 3097 2075 3097 
Q 1594 3097 1305 2825 
Q 1016 2553 972 2059 
L 3022 2063 
z
" id="DejaVuSans-65" transform="scale(0.015625)"/>
      <path d="M 1172 4494 
L 1172 3500 
L 2356 3500 
L 2356 3053 
L 1172 3053 
L 1172 1153 
Q 1172 725 1289 603 
Q 1406 481 1766 481 
L 2356 481 
L 2356 0 
L 1766 0 
Q 1100 0 847 248 
Q 594 497 594 1153 
L 594 3053 
L 172 3053 
L 172 3500 
L 594 3500 
L 594 4494 
L 1172 4494 
z
" id="DejaVuSans-74" transform="scale(0.015625)"/>
      <path d="M 3513 2113 
L 3513 0 
L 2938 0 
L 2938 2094 
Q 2938 2591 2744 2837 
Q 2550 3084 2163 3084 
Q 1697 3084 1428 2787 
Q 1159 2491 1159 1978 
L 1159 0 
L 581 0 
L 581 4863 
L 1159 4863 
L 1159 2956 
Q 1366 3272 1645 3428 
Q 1925 3584 2291 3584 
Q 2894 3584 3203 3211 
Q 3513 2838 3513 2113 
z
" id="DejaVuSans-68" transform="scale(0.015625)"/>
      <path d="M 1959 3097 
Q 1497 3097 1228 2736 
Q 959 2375 959 1747 
Q 959 1119 1226 758 
Q 1494 397 1959 397 
Q 2419 397 2687 759 
Q 2956 1122 2956 1747 
Q 2956 2369 2687 2733 
Q 2419 3097 1959 3097 
z
M 1959 3584 
Q 2709 3584 3137 3096 
Q 3566 2609 3566 1747 
Q 3566 888 3137 398 
Q 2709 -91 1959 -91 
Q 1206 -91 779 398 
Q 353 888 353 1747 
Q 353 2609 779 3096 
Q 1206 3584 1959 3584 
z
" id="DejaVuSans-6f" transform="scale(0.015625)"/>
      <path d="M 2906 2969 
L 2906 4863 
L 3481 4863 
L 3481 0 
L 2906 0 
L 2906 525 
Q 2725 213 2448 61 
Q 2172 -91 1784 -91 
Q 1150 -91 751 415 
Q 353 922 353 1747 
Q 353 2572 751 3078 
Q 1150 3584 1784 3584 
Q 2172 3584 2448 3432 
Q 2725 3281 2906 2969 
z
M 947 1747 
Q 947 1113 1208 752 
Q 1469 391 1925 391 
Q 2381 391 2643 752 
Q 2906 1113 2906 1747 
Q 2906 2381 2643 2742 
Q 2381 3103 1925 3103 
Q 1469 3103 1208 2742 
Q 947 2381 947 1747 
z
" id="DejaVuSans-64" transform="scale(0.015625)"/>
      <path id="DejaVuSans-20" transform="scale(0.015625)"/>
      <path d="M 750 794 
L 1409 794 
L 1409 0 
L 750 0 
L 750 794 
z
M 750 3309 
L 1409 3309 
L 1409 2516 
L 750 2516 
L 750 3309 
z
" id="DejaVuSans-3a" transform="scale(0.015625)"/>
      <path d="M 628 4666 
L 1259 4666 
L 1259 2694 
L 3353 4666 
L 4166 4666 
L 1850 2491 
L 4331 0 
L 3500 0 
L 1259 2247 
L 1259 0 
L 628 0 
L 628 4666 
z
" id="DejaVuSans-4b" transform="scale(0.015625)"/>
      <path d="M 3809 666 
L 3809 1919 
L 2778 1919 
L 2778 2438 
L 4434 2438 
L 4434 434 
Q 4069 175 3628 42 
Q 3188 -91 2688 -91 
Q 1594 -91 976 548 
Q 359 1188 359 2328 
Q 359 3472 976 4111 
Q 1594 4750 2688 4750 
Q 3144 4750 3555 4637 
Q 3966 4525 4313 4306 
L 4313 3634 
Q 3963 3931 3569 4081 
Q 3175 4231 2741 4231 
Q 1884 4231 1454 3753 
Q 1025 3275 1025 2328 
Q 1025 1384 1454 906 
Q 1884 428 2741 428 
Q 3075 428 3337 486 
Q 3600 544 3809 666 
z
" id="DejaVuSans-47" transform="scale(0.015625)"/>
     </defs>
     <use xlink:href="#DejaVuSans-4d"/>
     <use x="86.279297" xlink:href="#DejaVuSans-65"/>
     <use x="147.802734" xlink:href="#DejaVuSans-74"/>
     <use x="187.011719" xlink:href="#DejaVuSans-68"/>
     <use x="250.390625" xlink:href="#DejaVuSans-6f"/>
     <use x="311.572266" xlink:href="#DejaVuSans-64"/>
     <use x="375.048828" xlink:href="#DejaVuSans-20"/>
     <use x="406.835938" xlink:href="#DejaVuSans-3a"/>
     <use x="440.527344" xlink:href="#DejaVuSans-20"/>
     <use x="472.314453" xlink:href="#DejaVuSans-4b"/>
     <use x="537.890625" xlink:href="#DejaVuSans-47"/>
    </g>
   </g>
   <g id="text_17">
    <!-- Iter=1 -->
    <g transform="translate(71.985124 226.632)scale(0.12 -0.12)">
     <defs>
      <path d="M 628 4666 
L 1259 4666 
L 1259 0 
L 628 0 
L 628 4666 
z
" id="DejaVuSans-49" transform="scale(0.015625)"/>
      <path d="M 2631 2963 
Q 2534 3019 2420 3045 
Q 2306 3072 2169 3072 
Q 1681 3072 1420 2755 
Q 1159 2438 1159 1844 
L 1159 0 
L 581 0 
L 581 3500 
L 1159 3500 
L 1159 2956 
Q 1341 3275 1631 3429 
Q 1922 3584 2338 3584 
Q 2397 3584 2469 3576 
Q 2541 3569 2628 3553 
L 2631 2963 
z
" id="DejaVuSans-72" transform="scale(0.015625)"/>
      <path d="M 678 2906 
L 4684 2906 
L 4684 2381 
L 678 2381 
L 678 2906 
z
M 678 1631 
L 4684 1631 
L 4684 1100 
L 678 1100 
L 678 1631 
z
" id="DejaVuSans-3d" transform="scale(0.015625)"/>
     </defs>
     <use xlink:href="#DejaVuSans-49"/>
     <use x="29.492188" xlink:href="#DejaVuSans-74"/>
     <use x="68.701172" xlink:href="#DejaVuSans-65"/>
     <use x="130.224609" xlink:href="#DejaVuSans-72"/>
     <use x="171.337891" xlink:href="#DejaVuSans-3d"/>
     <use x="255.126953" xlink:href="#DejaVuSans-31"/>
    </g>
   </g>
   <g id="text_18">
    <!-- (b) -->
    <g transform="translate(71.985124 56.304)scale(0.12 -0.12)">
     <defs>
      <path d="M 1984 4856 
Q 1566 4138 1362 3434 
Q 1159 2731 1159 2009 
Q 1159 1288 1364 580 
Q 1569 -128 1984 -844 
L 1484 -844 
Q 1016 -109 783 600 
Q 550 1309 550 2009 
Q 550 2706 781 3412 
Q 1013 4119 1484 4856 
L 1984 4856 
z
" id="DejaVuSans-28" transform="scale(0.015625)"/>
      <path d="M 3116 1747 
Q 3116 2381 2855 2742 
Q 2594 3103 2138 3103 
Q 1681 3103 1420 2742 
Q 1159 2381 1159 1747 
Q 1159 1113 1420 752 
Q 1681 391 2138 391 
Q 2594 391 2855 752 
Q 3116 1113 3116 1747 
z
M 1159 2969 
Q 1341 3281 1617 3432 
Q 1894 3584 2278 3584 
Q 2916 3584 3314 3078 
Q 3713 2572 3713 1747 
Q 3713 922 3314 415 
Q 2916 -91 2278 -91 
Q 1894 -91 1617 61 
Q 1341 213 1159 525 
L 1159 0 
L 581 0 
L 581 4863 
L 1159 4863 
L 1159 2969 
z
" id="DejaVuSans-62" transform="scale(0.015625)"/>
      <path d="M 513 4856 
L 1013 4856 
Q 1481 4119 1714 3412 
Q 1947 2706 1947 2009 
Q 1947 1309 1714 600 
Q 1481 -109 1013 -844 
L 513 -844 
Q 928 -128 1133 580 
Q 1338 1288 1338 2009 
Q 1338 2731 1133 3434 
Q 928 4138 513 4856 
z
" id="DejaVuSans-29" transform="scale(0.015625)"/>
     </defs>
     <use xlink:href="#DejaVuSans-28"/>
     <use x="39.013672" xlink:href="#DejaVuSans-62"/>
     <use x="102.490234" xlink:href="#DejaVuSans-29"/>
    </g>
   </g>
   <g id="legend_1">
    <g id="patch_7">
     <path d="M 144.327812 140.235625 
L 298.472188 140.235625 
Q 300.672188 140.235625 300.672188 138.035625 
L 300.672188 42.26 
Q 300.672188 40.06 298.472188 40.06 
L 144.327812 40.06 
Q 142.127813 40.06 142.127813 42.26 
L 142.127813 138.035625 
Q 142.127813 140.235625 144.327812 140.235625 
z
" style="fill:#ffffff;opacity:0.8;stroke:#cccccc;stroke-linejoin:miter;"/>
    </g>
    <g id="line2d_18">
     <path d="M 146.527813 48.968281 
L 168.527813 48.968281 
" style="fill:none;stroke:#0000ff;stroke-linecap:square;stroke-width:2;"/>
    </g>
    <g id="line2d_19"/>
    <g id="text_19">
     <!-- ture function -->
     <g transform="translate(177.327813 52.818281)scale(0.11 -0.11)">
      <defs>
       <path d="M 544 1381 
L 544 3500 
L 1119 3500 
L 1119 1403 
Q 1119 906 1312 657 
Q 1506 409 1894 409 
Q 2359 409 2629 706 
Q 2900 1003 2900 1516 
L 2900 3500 
L 3475 3500 
L 3475 0 
L 2900 0 
L 2900 538 
Q 2691 219 2414 64 
Q 2138 -91 1772 -91 
Q 1169 -91 856 284 
Q 544 659 544 1381 
z
M 1991 3584 
L 1991 3584 
z
" id="DejaVuSans-75" transform="scale(0.015625)"/>
       <path d="M 2375 4863 
L 2375 4384 
L 1825 4384 
Q 1516 4384 1395 4259 
Q 1275 4134 1275 3809 
L 1275 3500 
L 2222 3500 
L 2222 3053 
L 1275 3053 
L 1275 0 
L 697 0 
L 697 3053 
L 147 3053 
L 147 3500 
L 697 3500 
L 697 3744 
Q 697 4328 969 4595 
Q 1241 4863 1831 4863 
L 2375 4863 
z
" id="DejaVuSans-66" transform="scale(0.015625)"/>
       <path d="M 3513 2113 
L 3513 0 
L 2938 0 
L 2938 2094 
Q 2938 2591 2744 2837 
Q 2550 3084 2163 3084 
Q 1697 3084 1428 2787 
Q 1159 2491 1159 1978 
L 1159 0 
L 581 0 
L 581 3500 
L 1159 3500 
L 1159 2956 
Q 1366 3272 1645 3428 
Q 1925 3584 2291 3584 
Q 2894 3584 3203 3211 
Q 3513 2838 3513 2113 
z
" id="DejaVuSans-6e" transform="scale(0.015625)"/>
       <path d="M 3122 3366 
L 3122 2828 
Q 2878 2963 2633 3030 
Q 2388 3097 2138 3097 
Q 1578 3097 1268 2742 
Q 959 2388 959 1747 
Q 959 1106 1268 751 
Q 1578 397 2138 397 
Q 2388 397 2633 464 
Q 2878 531 3122 666 
L 3122 134 
Q 2881 22 2623 -34 
Q 2366 -91 2075 -91 
Q 1284 -91 818 406 
Q 353 903 353 1747 
Q 353 2603 823 3093 
Q 1294 3584 2113 3584 
Q 2378 3584 2631 3529 
Q 2884 3475 3122 3366 
z
" id="DejaVuSans-63" transform="scale(0.015625)"/>
       <path d="M 603 3500 
L 1178 3500 
L 1178 0 
L 603 0 
L 603 3500 
z
M 603 4863 
L 1178 4863 
L 1178 4134 
L 603 4134 
L 603 4863 
z
" id="DejaVuSans-69" transform="scale(0.015625)"/>
      </defs>
      <use xlink:href="#DejaVuSans-74"/>
      <use x="39.208984" xlink:href="#DejaVuSans-75"/>
      <use x="102.587891" xlink:href="#DejaVuSans-72"/>
      <use x="141.451172" xlink:href="#DejaVuSans-65"/>
      <use x="202.974609" xlink:href="#DejaVuSans-20"/>
      <use x="234.761719" xlink:href="#DejaVuSans-66"/>
      <use x="269.966797" xlink:href="#DejaVuSans-75"/>
      <use x="333.345703" xlink:href="#DejaVuSans-6e"/>
      <use x="396.724609" xlink:href="#DejaVuSans-63"/>
      <use x="451.705078" xlink:href="#DejaVuSans-74"/>
      <use x="490.914062" xlink:href="#DejaVuSans-69"/>
      <use x="518.697266" xlink:href="#DejaVuSans-6f"/>
      <use x="579.878906" xlink:href="#DejaVuSans-6e"/>
     </g>
    </g>
    <g id="line2d_20">
     <path d="M 146.527813 65.114219 
L 168.527813 65.114219 
" style="fill:none;stroke:#000000;stroke-dasharray:7.4,3.2;stroke-dashoffset:0;stroke-width:2;"/>
    </g>
    <g id="line2d_21"/>
    <g id="text_20">
     <!-- predicted function -->
     <g transform="translate(177.327813 68.964219)scale(0.11 -0.11)">
      <defs>
       <path d="M 1159 525 
L 1159 -1331 
L 581 -1331 
L 581 3500 
L 1159 3500 
L 1159 2969 
Q 1341 3281 1617 3432 
Q 1894 3584 2278 3584 
Q 2916 3584 3314 3078 
Q 3713 2572 3713 1747 
Q 3713 922 3314 415 
Q 2916 -91 2278 -91 
Q 1894 -91 1617 61 
Q 1341 213 1159 525 
z
M 3116 1747 
Q 3116 2381 2855 2742 
Q 2594 3103 2138 3103 
Q 1681 3103 1420 2742 
Q 1159 2381 1159 1747 
Q 1159 1113 1420 752 
Q 1681 391 2138 391 
Q 2594 391 2855 752 
Q 3116 1113 3116 1747 
z
" id="DejaVuSans-70" transform="scale(0.015625)"/>
      </defs>
      <use xlink:href="#DejaVuSans-70"/>
      <use x="63.476562" xlink:href="#DejaVuSans-72"/>
      <use x="102.339844" xlink:href="#DejaVuSans-65"/>
      <use x="163.863281" xlink:href="#DejaVuSans-64"/>
      <use x="227.339844" xlink:href="#DejaVuSans-69"/>
      <use x="255.123047" xlink:href="#DejaVuSans-63"/>
      <use x="310.103516" xlink:href="#DejaVuSans-74"/>
      <use x="349.3125" xlink:href="#DejaVuSans-65"/>
      <use x="410.835938" xlink:href="#DejaVuSans-64"/>
      <use x="474.3125" xlink:href="#DejaVuSans-20"/>
      <use x="506.099609" xlink:href="#DejaVuSans-66"/>
      <use x="541.304688" xlink:href="#DejaVuSans-75"/>
      <use x="604.683594" xlink:href="#DejaVuSans-6e"/>
      <use x="668.0625" xlink:href="#DejaVuSans-63"/>
      <use x="723.042969" xlink:href="#DejaVuSans-74"/>
      <use x="762.251953" xlink:href="#DejaVuSans-69"/>
      <use x="790.035156" xlink:href="#DejaVuSans-6f"/>
      <use x="851.216797" xlink:href="#DejaVuSans-6e"/>
     </g>
    </g>
    <g id="line2d_22">
     <path d="M 146.527813 81.260156 
L 168.527813 81.260156 
" style="fill:none;stroke:#008000;stroke-dasharray:3.7,1.6;stroke-dashoffset:0;"/>
    </g>
    <g id="line2d_23"/>
    <g id="text_21">
     <!--  ± Sn(x) -->
     <g transform="translate(177.327813 85.110156)scale(0.11 -0.11)">
      <defs>
       <path d="M 2944 4013 
L 2944 2803 
L 4684 2803 
L 4684 2272 
L 2944 2272 
L 2944 1063 
L 2419 1063 
L 2419 2272 
L 678 2272 
L 678 2803 
L 2419 2803 
L 2419 4013 
L 2944 4013 
z
M 678 531 
L 4684 531 
L 4684 0 
L 678 0 
L 678 531 
z
" id="DejaVuSans-b1" transform="scale(0.015625)"/>
       <path d="M 3425 4513 
L 3425 3897 
Q 3066 4069 2747 4153 
Q 2428 4238 2131 4238 
Q 1616 4238 1336 4038 
Q 1056 3838 1056 3469 
Q 1056 3159 1242 3001 
Q 1428 2844 1947 2747 
L 2328 2669 
Q 3034 2534 3370 2195 
Q 3706 1856 3706 1288 
Q 3706 609 3251 259 
Q 2797 -91 1919 -91 
Q 1588 -91 1214 -16 
Q 841 59 441 206 
L 441 856 
Q 825 641 1194 531 
Q 1563 422 1919 422 
Q 2459 422 2753 634 
Q 3047 847 3047 1241 
Q 3047 1584 2836 1778 
Q 2625 1972 2144 2069 
L 1759 2144 
Q 1053 2284 737 2584 
Q 422 2884 422 3419 
Q 422 4038 858 4394 
Q 1294 4750 2059 4750 
Q 2388 4750 2728 4690 
Q 3069 4631 3425 4513 
z
" id="DejaVuSans-53" transform="scale(0.015625)"/>
      </defs>
      <use xlink:href="#DejaVuSans-20"/>
      <use x="31.787109" xlink:href="#DejaVuSans-b1"/>
      <use x="115.576172" xlink:href="#DejaVuSans-20"/>
      <use x="147.363281" xlink:href="#DejaVuSans-53"/>
      <use x="210.839844" xlink:href="#DejaVuSans-6e"/>
      <use x="274.21875" xlink:href="#DejaVuSans-28"/>
      <use x="313.232422" xlink:href="#DejaVuSans-78"/>
      <use x="372.412109" xlink:href="#DejaVuSans-29"/>
     </g>
    </g>
    <g id="line2d_24">
     <path d="M 146.527813 97.406094 
L 168.527813 97.406094 
" style="fill:none;stroke:#bfbf00;stroke-dasharray:7.4,3.2;stroke-dashoffset:0;stroke-width:2;"/>
    </g>
    <g id="line2d_25"/>
    <g id="text_22">
     <!-- KG(x) -->
     <g transform="translate(177.327813 101.256094)scale(0.11 -0.11)">
      <use xlink:href="#DejaVuSans-4b"/>
      <use x="65.576172" xlink:href="#DejaVuSans-47"/>
      <use x="143.066406" xlink:href="#DejaVuSans-28"/>
      <use x="182.080078" xlink:href="#DejaVuSans-78"/>
      <use x="241.259766" xlink:href="#DejaVuSans-29"/>
     </g>
    </g>
    <g id="PathCollection_2">
     <defs>
      <path d="M 0 3.535534 
C 0.937635 3.535534 1.836992 3.163008 2.5 2.5 
C 3.163008 1.836992 3.535534 0.937635 3.535534 0 
C 3.535534 -0.937635 3.163008 -1.836992 2.5 -2.5 
C 1.836992 -3.163008 0.937635 -3.535534 0 -3.535534 
C -0.937635 -3.535534 -1.836992 -3.163008 -2.5 -2.5 
C -3.163008 -1.836992 -3.535534 -0.937635 -3.535534 0 
C -3.535534 0.937635 -3.163008 1.836992 -2.5 2.5 
C -1.836992 3.163008 -0.937635 3.535534 0 3.535534 
z
" id="m95932b6ddb" style="stroke:#000000;"/>
     </defs>
     <g>
      <use style="fill:#ff0000;stroke:#000000;" x="157.527813" xlink:href="#m95932b6ddb" y="114.514531"/>
     </g>
    </g>
    <g id="text_23">
     <!-- training data -->
     <g transform="translate(177.327813 117.402031)scale(0.11 -0.11)">
      <defs>
       <path d="M 2194 1759 
Q 1497 1759 1228 1600 
Q 959 1441 959 1056 
Q 959 750 1161 570 
Q 1363 391 1709 391 
Q 2188 391 2477 730 
Q 2766 1069 2766 1631 
L 2766 1759 
L 2194 1759 
z
M 3341 1997 
L 3341 0 
L 2766 0 
L 2766 531 
Q 2569 213 2275 61 
Q 1981 -91 1556 -91 
Q 1019 -91 701 211 
Q 384 513 384 1019 
Q 384 1609 779 1909 
Q 1175 2209 1959 2209 
L 2766 2209 
L 2766 2266 
Q 2766 2663 2505 2880 
Q 2244 3097 1772 3097 
Q 1472 3097 1187 3025 
Q 903 2953 641 2809 
L 641 3341 
Q 956 3463 1253 3523 
Q 1550 3584 1831 3584 
Q 2591 3584 2966 3190 
Q 3341 2797 3341 1997 
z
" id="DejaVuSans-61" transform="scale(0.015625)"/>
       <path d="M 2906 1791 
Q 2906 2416 2648 2759 
Q 2391 3103 1925 3103 
Q 1463 3103 1205 2759 
Q 947 2416 947 1791 
Q 947 1169 1205 825 
Q 1463 481 1925 481 
Q 2391 481 2648 825 
Q 2906 1169 2906 1791 
z
M 3481 434 
Q 3481 -459 3084 -895 
Q 2688 -1331 1869 -1331 
Q 1566 -1331 1297 -1286 
Q 1028 -1241 775 -1147 
L 775 -588 
Q 1028 -725 1275 -790 
Q 1522 -856 1778 -856 
Q 2344 -856 2625 -561 
Q 2906 -266 2906 331 
L 2906 616 
Q 2728 306 2450 153 
Q 2172 0 1784 0 
Q 1141 0 747 490 
Q 353 981 353 1791 
Q 353 2603 747 3093 
Q 1141 3584 1784 3584 
Q 2172 3584 2450 3431 
Q 2728 3278 2906 2969 
L 2906 3500 
L 3481 3500 
L 3481 434 
z
" id="DejaVuSans-67" transform="scale(0.015625)"/>
      </defs>
      <use xlink:href="#DejaVuSans-74"/>
      <use x="39.208984" xlink:href="#DejaVuSans-72"/>
      <use x="80.322266" xlink:href="#DejaVuSans-61"/>
      <use x="141.601562" xlink:href="#DejaVuSans-69"/>
      <use x="169.384766" xlink:href="#DejaVuSans-6e"/>
      <use x="232.763672" xlink:href="#DejaVuSans-69"/>
      <use x="260.546875" xlink:href="#DejaVuSans-6e"/>
      <use x="323.925781" xlink:href="#DejaVuSans-67"/>
      <use x="387.402344" xlink:href="#DejaVuSans-20"/>
      <use x="419.189453" xlink:href="#DejaVuSans-64"/>
      <use x="482.666016" xlink:href="#DejaVuSans-61"/>
      <use x="543.945312" xlink:href="#DejaVuSans-74"/>
      <use x="583.154297" xlink:href="#DejaVuSans-61"/>
     </g>
    </g>
    <g id="PathCollection_3">
     <g>
      <use style="fill:#ff0000;stroke:#ff0000;stroke-width:8;" x="157.527813" xlink:href="#maf9649c057" y="130.660469"/>
     </g>
    </g>
    <g id="text_24">
     <!-- recommended datum -->
     <g transform="translate(177.327813 133.547969)scale(0.11 -0.11)">
      <defs>
       <path d="M 3328 2828 
Q 3544 3216 3844 3400 
Q 4144 3584 4550 3584 
Q 5097 3584 5394 3201 
Q 5691 2819 5691 2113 
L 5691 0 
L 5113 0 
L 5113 2094 
Q 5113 2597 4934 2840 
Q 4756 3084 4391 3084 
Q 3944 3084 3684 2787 
Q 3425 2491 3425 1978 
L 3425 0 
L 2847 0 
L 2847 2094 
Q 2847 2600 2669 2842 
Q 2491 3084 2119 3084 
Q 1678 3084 1418 2786 
Q 1159 2488 1159 1978 
L 1159 0 
L 581 0 
L 581 3500 
L 1159 3500 
L 1159 2956 
Q 1356 3278 1631 3431 
Q 1906 3584 2284 3584 
Q 2666 3584 2933 3390 
Q 3200 3197 3328 2828 
z
" id="DejaVuSans-6d" transform="scale(0.015625)"/>
      </defs>
      <use xlink:href="#DejaVuSans-72"/>
      <use x="38.863281" xlink:href="#DejaVuSans-65"/>
      <use x="100.386719" xlink:href="#DejaVuSans-63"/>
      <use x="155.367188" xlink:href="#DejaVuSans-6f"/>
      <use x="216.548828" xlink:href="#DejaVuSans-6d"/>
      <use x="313.960938" xlink:href="#DejaVuSans-6d"/>
      <use x="411.373047" xlink:href="#DejaVuSans-65"/>
      <use x="472.896484" xlink:href="#DejaVuSans-6e"/>
      <use x="536.275391" xlink:href="#DejaVuSans-64"/>
      <use x="599.751953" xlink:href="#DejaVuSans-65"/>
      <use x="661.275391" xlink:href="#DejaVuSans-64"/>
      <use x="724.751953" xlink:href="#DejaVuSans-20"/>
      <use x="756.539062" xlink:href="#DejaVuSans-64"/>
      <use x="820.015625" xlink:href="#DejaVuSans-61"/>
      <use x="881.294922" xlink:href="#DejaVuSans-74"/>
      <use x="920.503906" xlink:href="#DejaVuSans-75"/>
      <use x="983.882812" xlink:href="#DejaVuSans-6d"/>
     </g>
    </g>
   </g>
   <g id="line2d_26">
    <path clip-path="url(#p3fbff4841c)" d="M 69.218182 137.218312 
L 71.985124 136.515375 
L 74.752066 136.51807 
L 77.519008 137.319241 
L 80.28595 138.978402 
L 83.052893 141.514166 
L 85.819835 144.89934 
L 88.586777 149.059378 
L 91.353719 153.874621 
L 94.120661 159.186317 
L 96.887603 164.806063 
L 99.654545 170.527892 
L 102.421488 176.14196 
L 105.18843 181.448568 
L 107.955372 186.271256 
L 110.722314 190.467772 
L 113.489256 193.938002 
L 116.256198 196.628243 
L 119.02314 198.531648 
L 121.790083 199.685016 
L 124.557025 200.162474 
L 127.323967 200.06685 
L 130.090909 199.519691 
L 132.857851 198.650892 
L 135.624793 197.588847 
L 138.391736 196.451872 
L 141.158678 195.34142 
L 143.92562 194.3374 
L 146.692562 193.495672 
L 149.459504 192.847583 
L 152.226446 192.401306 
L 154.993388 192.14458 
L 157.760331 192.048454 
L 160.527273 192.071609 
L 163.294215 192.164867 
L 166.061157 192.275551 
L 168.828099 192.351436 
L 171.595041 192.344105 
L 174.361983 192.2116 
L 177.128926 191.920337 
L 179.895868 191.44629 
L 182.66281 190.77552 
L 185.429752 189.904119 
L 188.196694 188.837673 
L 190.963636 187.59034 
L 193.730579 186.183632 
L 196.497521 184.644975 
L 199.264463 183.006135 
L 202.031405 181.301555 
L 204.798347 179.566691 
L 207.565289 177.836407 
L 210.332231 176.143495 
L 213.099174 174.517401 
L 215.866116 172.983208 
L 218.633058 171.560945 
L 221.4 170.265231 
L 224.166942 169.105288 
L 226.933884 168.085294 
L 229.700826 167.205041 
L 232.467769 166.460864 
L 235.234711 165.846752 
L 238.001653 165.355594 
L 240.768595 164.9805 
L 243.535537 164.716127 
L 246.302479 164.559962 
L 249.069421 164.513523 
L 251.836364 164.583407 
L 254.603306 164.782119 
L 257.370248 165.128606 
L 260.13719 165.648356 
L 262.904132 166.372954 
L 265.671074 167.338913 
L 268.438017 168.585645 
L 271.204959 170.152445 
L 273.971901 172.074419 
L 276.738843 174.377392 
L 279.505785 177.071969 
L 282.272727 180.147077 
L 285.039669 183.563488 
L 287.806612 187.247993 
L 290.573554 191.089026 
L 293.340496 194.934585 
L 296.107438 198.59326 
L 298.87438 201.839037 
L 301.641322 204.420262 
L 304.408264 206.072758 
L 307.175207 206.536639 
L 309.942149 205.575845 
L 312.709091 202.998947 
L 315.476033 198.679409 
L 318.242975 192.57326 
L 321.009917 184.732148 
L 323.77686 175.30997 
L 326.543802 164.561801 
L 329.310744 152.834507 
L 332.077686 140.549276 
L 334.844628 128.177181 
L 337.61157 116.209667 
L 340.378512 105.126503 
L 343.145455 95.364064 
L 345.912397 87.286851 
L 348.679339 81.164835 
L 351.446281 77.158611 
L 354.213223 75.313484 
L 356.980165 75.562699 
L 359.747107 77.739034 
L 362.51405 81.59323 
L 365.280992 86.817063 
L 368.047934 93.068657 
L 370.814876 99.997552 
L 373.581818 107.267397 
" style="fill:none;stroke:#000000;stroke-dasharray:7.4,3.2;stroke-dashoffset:0;stroke-width:2;"/>
   </g>
   <g id="PathCollection_4">
    <g clip-path="url(#p3fbff4841c)">
     <use style="fill:#ff0000;stroke:#000000;" x="83.052893" xlink:href="#m95932b6ddb" y="129.399309"/>
     <use style="fill:#ff0000;stroke:#000000;" x="96.887603" xlink:href="#m95932b6ddb" y="162.429541"/>
     <use style="fill:#ff0000;stroke:#000000;" x="110.722314" xlink:href="#m95932b6ddb" y="193.170209"/>
     <use style="fill:#ff0000;stroke:#000000;" x="124.557025" xlink:href="#m95932b6ddb" y="199.248575"/>
     <use style="fill:#ff0000;stroke:#000000;" x="138.391736" xlink:href="#m95932b6ddb" y="199.347548"/>
     <use style="fill:#ff0000;stroke:#000000;" x="152.226446" xlink:href="#m95932b6ddb" y="191.611971"/>
     <use style="fill:#ff0000;stroke:#000000;" x="166.061157" xlink:href="#m95932b6ddb" y="193.66847"/>
     <use style="fill:#ff0000;stroke:#000000;" x="179.895868" xlink:href="#m95932b6ddb" y="193.283098"/>
     <use style="fill:#ff0000;stroke:#000000;" x="193.730579" xlink:href="#m95932b6ddb" y="188.924027"/>
     <use style="fill:#ff0000;stroke:#000000;" x="318.242975" xlink:href="#m95932b6ddb" y="199.289596"/>
     <use style="fill:#ff0000;stroke:#000000;" x="332.077686" xlink:href="#m95932b6ddb" y="145.37007"/>
     <use style="fill:#ff0000;stroke:#000000;" x="345.912397" xlink:href="#m95932b6ddb" y="78.407322"/>
     <use style="fill:#ff0000;stroke:#000000;" x="348.679339" xlink:href="#m95932b6ddb" y="50.938562"/>
    </g>
   </g>
  </g>
 </g>
 <defs>
  <clipPath id="p3fbff4841c">
   <rect height="217.44" width="334.8" x="54" y="34.56"/>
  </clipPath>
 </defs>
</svg>
