<?xml version="1.0" encoding="utf-8" standalone="no"?>
<!DOCTYPE svg PUBLIC "-//W3C//DTD SVG 1.1//EN"
  "http://www.w3.org/Graphics/SVG/1.1/DTD/svg11.dtd">
<svg height="288pt" version="1.1" viewBox="0 0 432 288" width="432pt" xmlns="http://www.w3.org/2000/svg" xmlns:xlink="http://www.w3.org/1999/xlink">
 <metadata>
  <rdf:RDF xmlns:cc="http://creativecommons.org/ns#" xmlns:dc="http://purl.org/dc/elements/1.1/" xmlns:rdf="http://www.w3.org/1999/02/22-rdf-syntax-ns#">
   <cc:Work>
    <dc:type rdf:resource="http://purl.org/dc/dcmitype/StillImage"/>
    <dc:date>2022-08-04T11:40:57.518510</dc:date>
    <dc:format>image/svg+xml</dc:format>
    <dc:creator>
     <cc:Agent>
      <dc:title>Matplotlib v3.4.3, https://matplotlib.org/</dc:title>
     </cc:Agent>
    </dc:creator>
   </cc:Work>
  </rdf:RDF>
 </metadata>
 <defs>
  <style type="text/css">*{stroke-linecap:butt;stroke-linejoin:round;}</style>
 </defs>
 <g id="figure_1">
  <g id="patch_1">
   <path d="M 0 288 
L 432 288 
L 432 0 
L 0 0 
z
" style="fill:none;"/>
  </g>
  <g id="axes_1">
   <g id="patch_2">
    <path d="M 54 252 
L 388.8 252 
L 388.8 34.56 
L 54 34.56 
z
" style="fill:#ffffff;"/>
   </g>
   <g id="PolyCollection_1">
    <defs>
     <path d="M 69.218182 -167.505979 
L 69.218182 -113.363669 
L 71.985124 -116.74139 
L 74.752066 -119.601593 
L 77.519008 -121.741202 
L 80.28595 -122.979571 
L 83.052893 -123.182665 
L 85.819835 -122.287679 
L 88.586777 -120.320441 
L 91.353719 -117.396231 
L 94.120661 -113.700709 
L 96.887603 -109.458753 
L 99.654545 -104.903885 
L 102.421488 -100.256366 
L 105.18843 -95.710763 
L 107.955372 -91.430227 
L 110.722314 -87.544435 
L 113.489256 -84.149267 
L 116.256198 -81.307262 
L 119.02314 -79.048673 
L 121.790083 -77.373332 
L 124.557025 -76.253627 
L 127.323967 -75.638745 
L 130.090909 -75.460023 
L 132.857851 -75.637006 
L 135.624793 -76.083668 
L 138.391736 -76.714267 
L 141.158678 -77.448385 
L 143.92562 -78.214918 
L 146.692562 -78.954888 
L 149.459504 -79.623125 
L 152.226446 -80.18898 
L 154.993388 -80.636292 
L 157.760331 -80.962869 
L 160.527273 -81.179624 
L 163.294215 -81.309329 
L 166.061157 -81.384672 
L 168.828099 -81.445059 
L 171.595041 -81.531612 
L 174.361983 -81.680074 
L 177.128926 -81.912058 
L 179.895868 -82.226059 
L 182.66281 -82.590974 
L 185.429752 -82.946118 
L 188.196694 -83.211637 
L 190.963636 -83.309519 
L 193.730579 -83.188104 
L 196.497521 -82.837987 
L 199.264463 -82.291832 
L 202.031405 -81.611231 
L 204.798347 -80.869478 
L 207.565289 -80.137048 
L 210.332231 -79.472083 
L 213.099174 -78.915514 
L 215.866116 -78.489778 
L 218.633058 -78.200113 
L 221.4 -78.037615 
L 224.166942 -77.983302 
L 226.933884 -78.012484 
L 229.700826 -78.098806 
L 232.467769 -78.217473 
L 235.234711 -78.347366 
L 238.001653 -78.471984 
L 240.768595 -78.579342 
L 243.535537 -78.661088 
L 246.302479 -78.711164 
L 249.069421 -78.724303 
L 251.836364 -78.694588 
L 254.603306 -78.614238 
L 257.370248 -78.472723 
L 260.13719 -78.25631 
L 262.904132 -77.948122 
L 265.671074 -77.528866 
L 268.438017 -76.978329 
L 271.204959 -76.27779 
L 273.971901 -75.413364 
L 276.738843 -74.380193 
L 279.505785 -73.187195 
L 282.272727 -71.861883 
L 285.039669 -70.454583 
L 287.806612 -69.04129 
L 290.573554 -67.724384 
L 293.340496 -66.63059 
L 296.107438 -65.905763 
L 298.87438 -65.70645 
L 301.641322 -66.188516 
L 304.408264 -67.493604 
L 307.175207 -69.734684 
L 309.942149 -72.982568 
L 312.709091 -77.255893 
L 315.476033 -82.51744 
L 318.242975 -88.678689 
L 321.009917 -95.610957 
L 323.77686 -103.155981 
L 326.543802 -111.126832 
L 329.310744 -119.297244 
L 332.077686 -127.388707 
L 334.844628 -135.068376 
L 337.61157 -141.965414 
L 340.378512 -147.706131 
L 343.145455 -151.962364 
L 345.912397 -154.500999 
L 348.679339 -155.218256 
L 351.446281 -154.14764 
L 354.213223 -151.443526 
L 356.980165 -147.351084 
L 359.747107 -142.172665 
L 362.51405 -136.236102 
L 365.280992 -129.867125 
L 368.047934 -123.366921 
L 370.814876 -116.995527 
L 373.581818 -110.961416 
L 373.581818 -178.567508 
L 373.581818 -178.567508 
L 370.814876 -182.779669 
L 368.047934 -186.880604 
L 365.280992 -190.656008 
L 362.51405 -193.878283 
L 359.747107 -196.323518 
L 356.980165 -197.790323 
L 354.213223 -198.118167 
L 351.446281 -197.202136 
L 348.679339 -195.000702 
L 345.912397 -191.53418 
L 343.145455 -186.875272 
L 340.378512 -181.138862 
L 337.61157 -174.480406 
L 334.844628 -167.105266 
L 332.077686 -159.280159 
L 329.310744 -151.334135 
L 326.543802 -143.641823 
L 323.77686 -136.588711 
L 321.009917 -130.523865 
L 318.242975 -125.711869 
L 315.476033 -122.299886 
L 312.709091 -120.310389 
L 309.942149 -119.657209 
L 307.175207 -120.173923 
L 304.408264 -121.644456 
L 301.641322 -123.830697 
L 298.87438 -126.495334 
L 296.107438 -129.419446 
L 293.340496 -132.414732 
L 290.573554 -135.330477 
L 287.806612 -138.055754 
L 285.039669 -140.517689 
L 282.272727 -142.676885 
L 279.505785 -144.521204 
L 276.738843 -146.058978 
L 273.971901 -147.312516 
L 271.204959 -148.312431 
L 268.438017 -149.093075 
L 265.671074 -149.689098 
L 262.904132 -150.133025 
L 260.13719 -150.453673 
L 257.370248 -150.675221 
L 254.603306 -150.816719 
L 251.836364 -150.891897 
L 249.069421 -150.909087 
L 246.302479 -150.871165 
L 243.535537 -150.775409 
L 240.768595 -150.613237 
L 238.001653 -150.369884 
L 235.234711 -150.024143 
L 232.467769 -149.548415 
L 229.700826 -148.909359 
L 226.933884 -148.069475 
L 224.166942 -146.98984 
L 221.4 -145.634076 
L 218.633058 -143.973371 
L 215.866116 -141.99213 
L 213.099174 -139.693607 
L 210.332231 -137.104746 
L 207.565289 -134.279359 
L 204.798347 -131.298808 
L 202.031405 -128.269311 
L 199.264463 -125.314873 
L 196.497521 -122.5649 
L 193.730579 -120.136269 
L 190.963636 -118.112406 
L 188.196694 -116.526423 
L 185.429752 -115.357488 
L 182.66281 -114.543888 
L 179.895868 -114.005566 
L 177.128926 -113.664295 
L 174.361983 -113.454516 
L 171.595041 -113.325147 
L 168.828099 -113.236208 
L 166.061157 -113.154111 
L 163.294215 -113.048117 
L 160.527273 -112.889067 
L 157.760331 -112.650425 
L 154.993388 -112.31097 
L 152.226446 -111.858182 
L 149.459504 -111.291412 
L 146.692562 -110.624228 
L 143.92562 -109.885617 
L 141.158678 -109.12001 
L 138.391736 -108.386204 
L 135.624793 -107.755294 
L 132.857851 -107.307705 
L 130.090909 -107.129364 
L 127.323967 -107.307032 
L 124.557025 -107.922829 
L 121.790083 -109.048011 
L 119.02314 -110.736229 
L 116.256198 -113.016705 
L 113.489256 -115.888055 
L 110.722314 -119.313874 
L 107.955372 -123.221376 
L 105.18843 -127.504299 
L 102.421488 -132.030808 
L 99.654545 -136.656123 
L 96.887603 -141.23826 
L 94.120661 -145.653623 
L 91.353719 -149.8076 
L 88.586777 -153.635227 
L 85.819835 -157.090566 
L 83.052893 -160.13083 
L 80.28595 -162.706484 
L 77.519008 -164.764243 
L 74.752066 -166.259672 
L 71.985124 -167.170721 
L 69.218182 -167.505979 
z
" id="m74affe934a" style="stroke:#add8e6;stroke-opacity:0.2;"/>
    </defs>
    <g clip-path="url(#p7cedde2b66)">
     <use style="fill:#add8e6;fill-opacity:0.2;stroke:#add8e6;stroke-opacity:0.2;" x="0" xlink:href="#m74affe934a" y="288"/>
    </g>
   </g>
   <g id="PathCollection_1">
    <defs>
     <path d="M 0 0.612372 
C 0.162403 0.612372 0.318176 0.547849 0.433013 0.433013 
C 0.547849 0.318176 0.612372 0.162403 0.612372 0 
C 0.612372 -0.162403 0.547849 -0.318176 0.433013 -0.433013 
C 0.318176 -0.547849 0.162403 -0.612372 0 -0.612372 
C -0.162403 -0.612372 -0.318176 -0.547849 -0.433013 -0.433013 
C -0.547849 -0.318176 -0.612372 -0.162403 -0.612372 0 
C -0.612372 0.162403 -0.547849 0.318176 -0.433013 0.433013 
C -0.318176 0.547849 -0.162403 0.612372 0 0.612372 
z
" id="m767e41f97b" style="stroke:#ff0000;stroke-width:8;"/>
    </defs>
    <g clip-path="url(#p7cedde2b66)">
     <use style="fill:#ff0000;stroke:#ff0000;stroke-width:8;" x="293.340496" xlink:href="#m767e41f97b" y="214.089109"/>
    </g>
   </g>
   <g id="matplotlib.axis_1">
    <g id="xtick_1">
     <g id="line2d_1">
      <defs>
       <path d="M 0 0 
L 0 3.5 
" id="m3079390c7a" style="stroke:#000000;stroke-width:0.8;"/>
      </defs>
      <g>
       <use style="stroke:#000000;stroke-width:0.8;" x="69.218182" xlink:href="#m3079390c7a" y="252"/>
      </g>
     </g>
     <g id="text_1">
      <!-- 0 -->
      <g transform="translate(66.036932 266.598437)scale(0.1 -0.1)">
       <defs>
        <path d="M 2034 4250 
Q 1547 4250 1301 3770 
Q 1056 3291 1056 2328 
Q 1056 1369 1301 889 
Q 1547 409 2034 409 
Q 2525 409 2770 889 
Q 3016 1369 3016 2328 
Q 3016 3291 2770 3770 
Q 2525 4250 2034 4250 
z
M 2034 4750 
Q 2819 4750 3233 4129 
Q 3647 3509 3647 2328 
Q 3647 1150 3233 529 
Q 2819 -91 2034 -91 
Q 1250 -91 836 529 
Q 422 1150 422 2328 
Q 422 3509 836 4129 
Q 1250 4750 2034 4750 
z
" id="DejaVuSans-30" transform="scale(0.015625)"/>
       </defs>
       <use xlink:href="#DejaVuSans-30"/>
      </g>
     </g>
    </g>
    <g id="xtick_2">
     <g id="line2d_2">
      <g>
       <use style="stroke:#000000;stroke-width:0.8;" x="124.557025" xlink:href="#m3079390c7a" y="252"/>
      </g>
     </g>
     <g id="text_2">
      <!-- 2 -->
      <g transform="translate(121.375775 266.598437)scale(0.1 -0.1)">
       <defs>
        <path d="M 1228 531 
L 3431 531 
L 3431 0 
L 469 0 
L 469 531 
Q 828 903 1448 1529 
Q 2069 2156 2228 2338 
Q 2531 2678 2651 2914 
Q 2772 3150 2772 3378 
Q 2772 3750 2511 3984 
Q 2250 4219 1831 4219 
Q 1534 4219 1204 4116 
Q 875 4013 500 3803 
L 500 4441 
Q 881 4594 1212 4672 
Q 1544 4750 1819 4750 
Q 2544 4750 2975 4387 
Q 3406 4025 3406 3419 
Q 3406 3131 3298 2873 
Q 3191 2616 2906 2266 
Q 2828 2175 2409 1742 
Q 1991 1309 1228 531 
z
" id="DejaVuSans-32" transform="scale(0.015625)"/>
       </defs>
       <use xlink:href="#DejaVuSans-32"/>
      </g>
     </g>
    </g>
    <g id="xtick_3">
     <g id="line2d_3">
      <g>
       <use style="stroke:#000000;stroke-width:0.8;" x="179.895868" xlink:href="#m3079390c7a" y="252"/>
      </g>
     </g>
     <g id="text_3">
      <!-- 4 -->
      <g transform="translate(176.714618 266.598437)scale(0.1 -0.1)">
       <defs>
        <path d="M 2419 4116 
L 825 1625 
L 2419 1625 
L 2419 4116 
z
M 2253 4666 
L 3047 4666 
L 3047 1625 
L 3713 1625 
L 3713 1100 
L 3047 1100 
L 3047 0 
L 2419 0 
L 2419 1100 
L 313 1100 
L 313 1709 
L 2253 4666 
z
" id="DejaVuSans-34" transform="scale(0.015625)"/>
       </defs>
       <use xlink:href="#DejaVuSans-34"/>
      </g>
     </g>
    </g>
    <g id="xtick_4">
     <g id="line2d_4">
      <g>
       <use style="stroke:#000000;stroke-width:0.8;" x="235.234711" xlink:href="#m3079390c7a" y="252"/>
      </g>
     </g>
     <g id="text_4">
      <!-- 6 -->
      <g transform="translate(232.053461 266.598437)scale(0.1 -0.1)">
       <defs>
        <path d="M 2113 2584 
Q 1688 2584 1439 2293 
Q 1191 2003 1191 1497 
Q 1191 994 1439 701 
Q 1688 409 2113 409 
Q 2538 409 2786 701 
Q 3034 994 3034 1497 
Q 3034 2003 2786 2293 
Q 2538 2584 2113 2584 
z
M 3366 4563 
L 3366 3988 
Q 3128 4100 2886 4159 
Q 2644 4219 2406 4219 
Q 1781 4219 1451 3797 
Q 1122 3375 1075 2522 
Q 1259 2794 1537 2939 
Q 1816 3084 2150 3084 
Q 2853 3084 3261 2657 
Q 3669 2231 3669 1497 
Q 3669 778 3244 343 
Q 2819 -91 2113 -91 
Q 1303 -91 875 529 
Q 447 1150 447 2328 
Q 447 3434 972 4092 
Q 1497 4750 2381 4750 
Q 2619 4750 2861 4703 
Q 3103 4656 3366 4563 
z
" id="DejaVuSans-36" transform="scale(0.015625)"/>
       </defs>
       <use xlink:href="#DejaVuSans-36"/>
      </g>
     </g>
    </g>
    <g id="xtick_5">
     <g id="line2d_5">
      <g>
       <use style="stroke:#000000;stroke-width:0.8;" x="290.573554" xlink:href="#m3079390c7a" y="252"/>
      </g>
     </g>
     <g id="text_5">
      <!-- 8 -->
      <g transform="translate(287.392304 266.598437)scale(0.1 -0.1)">
       <defs>
        <path d="M 2034 2216 
Q 1584 2216 1326 1975 
Q 1069 1734 1069 1313 
Q 1069 891 1326 650 
Q 1584 409 2034 409 
Q 2484 409 2743 651 
Q 3003 894 3003 1313 
Q 3003 1734 2745 1975 
Q 2488 2216 2034 2216 
z
M 1403 2484 
Q 997 2584 770 2862 
Q 544 3141 544 3541 
Q 544 4100 942 4425 
Q 1341 4750 2034 4750 
Q 2731 4750 3128 4425 
Q 3525 4100 3525 3541 
Q 3525 3141 3298 2862 
Q 3072 2584 2669 2484 
Q 3125 2378 3379 2068 
Q 3634 1759 3634 1313 
Q 3634 634 3220 271 
Q 2806 -91 2034 -91 
Q 1263 -91 848 271 
Q 434 634 434 1313 
Q 434 1759 690 2068 
Q 947 2378 1403 2484 
z
M 1172 3481 
Q 1172 3119 1398 2916 
Q 1625 2713 2034 2713 
Q 2441 2713 2670 2916 
Q 2900 3119 2900 3481 
Q 2900 3844 2670 4047 
Q 2441 4250 2034 4250 
Q 1625 4250 1398 4047 
Q 1172 3844 1172 3481 
z
" id="DejaVuSans-38" transform="scale(0.015625)"/>
       </defs>
       <use xlink:href="#DejaVuSans-38"/>
      </g>
     </g>
    </g>
    <g id="xtick_6">
     <g id="line2d_6">
      <g>
       <use style="stroke:#000000;stroke-width:0.8;" x="345.912397" xlink:href="#m3079390c7a" y="252"/>
      </g>
     </g>
     <g id="text_6">
      <!-- 10 -->
      <g transform="translate(339.549897 266.598437)scale(0.1 -0.1)">
       <defs>
        <path d="M 794 531 
L 1825 531 
L 1825 4091 
L 703 3866 
L 703 4441 
L 1819 4666 
L 2450 4666 
L 2450 531 
L 3481 531 
L 3481 0 
L 794 0 
L 794 531 
z
" id="DejaVuSans-31" transform="scale(0.015625)"/>
       </defs>
       <use xlink:href="#DejaVuSans-31"/>
       <use x="63.623047" xlink:href="#DejaVuSans-30"/>
      </g>
     </g>
    </g>
    <g id="text_7">
     <!-- x -->
     <g transform="translate(217.84875 281.79625)scale(0.12 -0.12)">
      <defs>
       <path d="M 3513 3500 
L 2247 1797 
L 3578 0 
L 2900 0 
L 1881 1375 
L 863 0 
L 184 0 
L 1544 1831 
L 300 3500 
L 978 3500 
L 1906 2253 
L 2834 3500 
L 3513 3500 
z
" id="DejaVuSans-78" transform="scale(0.015625)"/>
      </defs>
      <use xlink:href="#DejaVuSans-78"/>
     </g>
    </g>
   </g>
   <g id="matplotlib.axis_2">
    <g id="ytick_1">
     <g id="line2d_7">
      <defs>
       <path d="M 0 0 
L -3.5 0 
" id="m8f1ac48166" style="stroke:#000000;stroke-width:0.8;"/>
      </defs>
      <g>
       <use style="stroke:#000000;stroke-width:0.8;" x="54" xlink:href="#m8f1ac48166" y="252"/>
      </g>
     </g>
     <g id="text_8">
      <!-- 3 -->
      <g transform="translate(40.6375 255.799219)scale(0.1 -0.1)">
       <defs>
        <path d="M 2597 2516 
Q 3050 2419 3304 2112 
Q 3559 1806 3559 1356 
Q 3559 666 3084 287 
Q 2609 -91 1734 -91 
Q 1441 -91 1130 -33 
Q 819 25 488 141 
L 488 750 
Q 750 597 1062 519 
Q 1375 441 1716 441 
Q 2309 441 2620 675 
Q 2931 909 2931 1356 
Q 2931 1769 2642 2001 
Q 2353 2234 1838 2234 
L 1294 2234 
L 1294 2753 
L 1863 2753 
Q 2328 2753 2575 2939 
Q 2822 3125 2822 3475 
Q 2822 3834 2567 4026 
Q 2313 4219 1838 4219 
Q 1578 4219 1281 4162 
Q 984 4106 628 3988 
L 628 4550 
Q 988 4650 1302 4700 
Q 1616 4750 1894 4750 
Q 2613 4750 3031 4423 
Q 3450 4097 3450 3541 
Q 3450 3153 3228 2886 
Q 3006 2619 2597 2516 
z
" id="DejaVuSans-33" transform="scale(0.015625)"/>
       </defs>
       <use xlink:href="#DejaVuSans-33"/>
      </g>
     </g>
    </g>
    <g id="ytick_2">
     <g id="line2d_8">
      <g>
       <use style="stroke:#000000;stroke-width:0.8;" x="54" xlink:href="#m8f1ac48166" y="215.76"/>
      </g>
     </g>
     <g id="text_9">
      <!-- 4 -->
      <g transform="translate(40.6375 219.559219)scale(0.1 -0.1)">
       <use xlink:href="#DejaVuSans-34"/>
      </g>
     </g>
    </g>
    <g id="ytick_3">
     <g id="line2d_9">
      <g>
       <use style="stroke:#000000;stroke-width:0.8;" x="54" xlink:href="#m8f1ac48166" y="179.52"/>
      </g>
     </g>
     <g id="text_10">
      <!-- 5 -->
      <g transform="translate(40.6375 183.319219)scale(0.1 -0.1)">
       <defs>
        <path d="M 691 4666 
L 3169 4666 
L 3169 4134 
L 1269 4134 
L 1269 2991 
Q 1406 3038 1543 3061 
Q 1681 3084 1819 3084 
Q 2600 3084 3056 2656 
Q 3513 2228 3513 1497 
Q 3513 744 3044 326 
Q 2575 -91 1722 -91 
Q 1428 -91 1123 -41 
Q 819 9 494 109 
L 494 744 
Q 775 591 1075 516 
Q 1375 441 1709 441 
Q 2250 441 2565 725 
Q 2881 1009 2881 1497 
Q 2881 1984 2565 2268 
Q 2250 2553 1709 2553 
Q 1456 2553 1204 2497 
Q 953 2441 691 2322 
L 691 4666 
z
" id="DejaVuSans-35" transform="scale(0.015625)"/>
       </defs>
       <use xlink:href="#DejaVuSans-35"/>
      </g>
     </g>
    </g>
    <g id="ytick_4">
     <g id="line2d_10">
      <g>
       <use style="stroke:#000000;stroke-width:0.8;" x="54" xlink:href="#m8f1ac48166" y="143.28"/>
      </g>
     </g>
     <g id="text_11">
      <!-- 6 -->
      <g transform="translate(40.6375 147.079219)scale(0.1 -0.1)">
       <use xlink:href="#DejaVuSans-36"/>
      </g>
     </g>
    </g>
    <g id="ytick_5">
     <g id="line2d_11">
      <g>
       <use style="stroke:#000000;stroke-width:0.8;" x="54" xlink:href="#m8f1ac48166" y="107.04"/>
      </g>
     </g>
     <g id="text_12">
      <!-- 7 -->
      <g transform="translate(40.6375 110.839219)scale(0.1 -0.1)">
       <defs>
        <path d="M 525 4666 
L 3525 4666 
L 3525 4397 
L 1831 0 
L 1172 0 
L 2766 4134 
L 525 4134 
L 525 4666 
z
" id="DejaVuSans-37" transform="scale(0.015625)"/>
       </defs>
       <use xlink:href="#DejaVuSans-37"/>
      </g>
     </g>
    </g>
    <g id="ytick_6">
     <g id="line2d_12">
      <g>
       <use style="stroke:#000000;stroke-width:0.8;" x="54" xlink:href="#m8f1ac48166" y="70.8"/>
      </g>
     </g>
     <g id="text_13">
      <!-- 8 -->
      <g transform="translate(40.6375 74.599219)scale(0.1 -0.1)">
       <use xlink:href="#DejaVuSans-38"/>
      </g>
     </g>
    </g>
    <g id="ytick_7">
     <g id="line2d_13">
      <g>
       <use style="stroke:#000000;stroke-width:0.8;" x="54" xlink:href="#m8f1ac48166" y="34.56"/>
      </g>
     </g>
     <g id="text_14">
      <!-- 9 -->
      <g transform="translate(40.6375 38.359219)scale(0.1 -0.1)">
       <defs>
        <path d="M 703 97 
L 703 672 
Q 941 559 1184 500 
Q 1428 441 1663 441 
Q 2288 441 2617 861 
Q 2947 1281 2994 2138 
Q 2813 1869 2534 1725 
Q 2256 1581 1919 1581 
Q 1219 1581 811 2004 
Q 403 2428 403 3163 
Q 403 3881 828 4315 
Q 1253 4750 1959 4750 
Q 2769 4750 3195 4129 
Q 3622 3509 3622 2328 
Q 3622 1225 3098 567 
Q 2575 -91 1691 -91 
Q 1453 -91 1209 -44 
Q 966 3 703 97 
z
M 1959 2075 
Q 2384 2075 2632 2365 
Q 2881 2656 2881 3163 
Q 2881 3666 2632 3958 
Q 2384 4250 1959 4250 
Q 1534 4250 1286 3958 
Q 1038 3666 1038 3163 
Q 1038 2656 1286 2365 
Q 1534 2075 1959 2075 
z
" id="DejaVuSans-39" transform="scale(0.015625)"/>
       </defs>
       <use xlink:href="#DejaVuSans-39"/>
      </g>
     </g>
    </g>
    <g id="text_15">
     <!-- y -->
     <g transform="translate(34.141875 146.83125)rotate(-90)scale(0.12 -0.12)">
      <defs>
       <path d="M 2059 -325 
Q 1816 -950 1584 -1140 
Q 1353 -1331 966 -1331 
L 506 -1331 
L 506 -850 
L 844 -850 
Q 1081 -850 1212 -737 
Q 1344 -625 1503 -206 
L 1606 56 
L 191 3500 
L 800 3500 
L 1894 763 
L 2988 3500 
L 3597 3500 
L 2059 -325 
z
" id="DejaVuSans-79" transform="scale(0.015625)"/>
      </defs>
      <use xlink:href="#DejaVuSans-79"/>
     </g>
    </g>
   </g>
   <g id="line2d_14">
    <path clip-path="url(#p7cedde2b66)" d="M 69.218182 70.8 
L 71.985124 85.083949 
L 74.752066 98.25467 
L 77.519008 110.364828 
L 80.28595 121.465955 
L 83.052893 131.608455 
L 85.819835 140.841599 
L 88.586777 149.213528 
L 91.353719 156.771253 
L 94.120661 163.560654 
L 96.887603 169.62648 
L 99.654545 175.012349 
L 102.421488 179.76075 
L 105.18843 183.913038 
L 107.955372 187.509441 
L 110.722314 190.589055 
L 113.489256 193.189844 
L 116.256198 195.348643 
L 119.02314 197.101155 
L 121.790083 198.481953 
L 124.557025 199.52448 
L 127.323967 200.261047 
L 130.090909 200.722835 
L 132.857851 200.939895 
L 135.624793 200.941145 
L 138.391736 200.754375 
L 141.158678 200.406243 
L 143.92562 199.922276 
L 146.692562 199.326871 
L 149.459504 198.643294 
L 152.226446 197.89368 
L 154.993388 197.099035 
L 157.760331 196.279231 
L 160.527273 195.453014 
L 163.294215 194.637994 
L 166.061157 193.850655 
L 168.828099 193.106347 
L 171.595041 192.419291 
L 174.361983 191.802577 
L 177.128926 191.268164 
L 179.895868 190.82688 
L 182.66281 190.488424 
L 185.429752 190.261362 
L 188.196694 190.153131 
L 190.963636 190.170037 
L 193.730579 190.317255 
L 196.497521 190.598829 
L 199.264463 191.017673 
L 202.031405 191.575569 
L 204.798347 192.273171 
L 207.565289 193.11 
L 210.332231 194.084446 
L 213.099174 195.193771 
L 215.866116 196.434103 
L 218.633058 197.800442 
L 221.4 199.286655 
L 224.166942 200.88548 
L 226.933884 202.588525 
L 229.700826 204.386264 
L 232.467769 206.268045 
L 235.234711 208.22208 
L 238.001653 210.235455 
L 240.768595 212.294122 
L 243.535537 214.382905 
L 246.302479 216.485496 
L 249.069421 218.584455 
L 251.836364 220.661214 
L 254.603306 222.696071 
L 257.370248 224.668198 
L 260.13719 226.555631 
L 262.904132 228.33528 
L 265.671074 229.982921 
L 268.438017 231.4732 
L 271.204959 232.779634 
L 273.971901 233.874607 
L 276.738843 234.729375 
L 279.505785 235.31406 
L 282.272727 235.597656 
L 285.039669 235.548026 
L 287.806612 235.1319 
L 290.573554 234.31488 
L 293.340496 233.061436 
L 296.107438 231.334908 
L 298.87438 229.097505 
L 301.641322 226.310305 
L 304.408264 222.933255 
L 307.175207 218.925173 
L 309.942149 214.243744 
L 312.709091 208.845524 
L 315.476033 202.685938 
L 318.242975 195.71928 
L 321.009917 187.898713 
L 323.77686 179.176271 
L 326.543802 169.502854 
L 329.310744 158.828236 
L 332.077686 147.101055 
L 334.844628 134.268823 
L 337.61157 120.277918 
L 340.378512 105.073589 
L 343.145455 88.599954 
L 345.912397 70.8 
L 348.679339 51.615584 
L 351.446281 30.987432 
L 354.213223 8.855138 
L 355.363895 -1 
" style="fill:none;stroke:#0000ff;stroke-linecap:square;stroke-width:2;"/>
   </g>
   <g id="line2d_15">
    <path clip-path="url(#p7cedde2b66)" d="M 69.218182 174.636331 
L 71.985124 171.25861 
L 74.752066 168.398407 
L 77.519008 166.258798 
L 80.28595 165.020429 
L 83.052893 164.817335 
L 85.819835 165.712321 
L 88.586777 167.679559 
L 91.353719 170.603769 
L 94.120661 174.299291 
L 96.887603 178.541247 
L 99.654545 183.096115 
L 102.421488 187.743634 
L 105.18843 192.289237 
L 107.955372 196.569773 
L 110.722314 200.455565 
L 113.489256 203.850733 
L 116.256198 206.692738 
L 119.02314 208.951327 
L 121.790083 210.626668 
L 124.557025 211.746373 
L 127.323967 212.361255 
L 130.090909 212.539977 
L 132.857851 212.362994 
L 135.624793 211.916332 
L 138.391736 211.285733 
L 141.158678 210.551615 
L 143.92562 209.785082 
L 146.692562 209.045112 
L 149.459504 208.376875 
L 152.226446 207.81102 
L 154.993388 207.363708 
L 157.760331 207.037131 
L 160.527273 206.820376 
L 163.294215 206.690671 
L 166.061157 206.615328 
L 168.828099 206.554941 
L 171.595041 206.468388 
L 174.361983 206.319926 
L 177.128926 206.087942 
L 179.895868 205.773941 
L 182.66281 205.409026 
L 185.429752 205.053882 
L 188.196694 204.788363 
L 190.963636 204.690481 
L 193.730579 204.811896 
L 196.497521 205.162013 
L 199.264463 205.708168 
L 202.031405 206.388769 
L 204.798347 207.130522 
L 207.565289 207.862952 
L 210.332231 208.527917 
L 213.099174 209.084486 
L 215.866116 209.510222 
L 218.633058 209.799887 
L 221.4 209.962385 
L 224.166942 210.016698 
L 226.933884 209.987516 
L 229.700826 209.901194 
L 232.467769 209.782527 
L 235.234711 209.652634 
L 238.001653 209.528016 
L 240.768595 209.420658 
L 243.535537 209.338912 
L 246.302479 209.288836 
L 249.069421 209.275697 
L 251.836364 209.305412 
L 254.603306 209.385762 
L 257.370248 209.527277 
L 260.13719 209.74369 
L 262.904132 210.051878 
L 265.671074 210.471134 
L 268.438017 211.021671 
L 271.204959 211.72221 
L 273.971901 212.586636 
L 276.738843 213.619807 
L 279.505785 214.812805 
L 282.272727 216.138117 
L 285.039669 217.545417 
L 287.806612 218.95871 
L 290.573554 220.275616 
L 293.340496 221.36941 
L 296.107438 222.094237 
L 298.87438 222.29355 
L 301.641322 221.811484 
L 304.408264 220.506396 
L 307.175207 218.265316 
L 309.942149 215.017432 
L 312.709091 210.744107 
L 315.476033 205.48256 
L 318.242975 199.321311 
L 321.009917 192.389043 
L 323.77686 184.844019 
L 326.543802 176.873168 
L 329.310744 168.702756 
L 332.077686 160.611293 
L 334.844628 152.931624 
L 337.61157 146.034586 
L 340.378512 140.293869 
L 343.145455 136.037636 
L 345.912397 133.499001 
L 348.679339 132.781744 
L 351.446281 133.85236 
L 354.213223 136.556474 
L 356.980165 140.648916 
L 359.747107 145.827335 
L 362.51405 151.763898 
L 365.280992 158.132875 
L 368.047934 164.633079 
L 370.814876 171.004473 
L 373.581818 177.038584 
" style="fill:none;stroke:#008000;stroke-dasharray:3.7,1.6;stroke-dashoffset:0;"/>
   </g>
   <g id="line2d_16">
    <path clip-path="url(#p7cedde2b66)" d="M 69.218182 120.494021 
L 71.985124 120.829279 
L 74.752066 121.740328 
L 77.519008 123.235757 
L 80.28595 125.293516 
L 83.052893 127.86917 
L 85.819835 130.909434 
L 88.586777 134.364773 
L 91.353719 138.1924 
L 94.120661 142.346377 
L 96.887603 146.76174 
L 99.654545 151.343877 
L 102.421488 155.969192 
L 105.18843 160.495701 
L 107.955372 164.778624 
L 110.722314 168.686126 
L 113.489256 172.111945 
L 116.256198 174.983295 
L 119.02314 177.263771 
L 121.790083 178.951989 
L 124.557025 180.077171 
L 127.323967 180.692968 
L 130.090909 180.870636 
L 132.857851 180.692295 
L 135.624793 180.244706 
L 138.391736 179.613796 
L 141.158678 178.87999 
L 143.92562 178.114383 
L 146.692562 177.375772 
L 149.459504 176.708588 
L 152.226446 176.141818 
L 154.993388 175.68903 
L 157.760331 175.349575 
L 160.527273 175.110933 
L 163.294215 174.951883 
L 166.061157 174.845889 
L 168.828099 174.763792 
L 171.595041 174.674853 
L 174.361983 174.545484 
L 177.128926 174.335705 
L 179.895868 173.994434 
L 182.66281 173.456112 
L 185.429752 172.642512 
L 188.196694 171.473577 
L 190.963636 169.887594 
L 193.730579 167.863731 
L 196.497521 165.4351 
L 199.264463 162.685127 
L 202.031405 159.730689 
L 204.798347 156.701192 
L 207.565289 153.720641 
L 210.332231 150.895254 
L 213.099174 148.306393 
L 215.866116 146.00787 
L 218.633058 144.026629 
L 221.4 142.365924 
L 224.166942 141.01016 
L 226.933884 139.930525 
L 229.700826 139.090641 
L 232.467769 138.451585 
L 235.234711 137.975857 
L 238.001653 137.630116 
L 240.768595 137.386763 
L 243.535537 137.224591 
L 246.302479 137.128835 
L 249.069421 137.090913 
L 251.836364 137.108103 
L 254.603306 137.183281 
L 257.370248 137.324779 
L 260.13719 137.546327 
L 262.904132 137.866975 
L 265.671074 138.310902 
L 268.438017 138.906925 
L 271.204959 139.687569 
L 273.971901 140.687484 
L 276.738843 141.941022 
L 279.505785 143.478796 
L 282.272727 145.323115 
L 285.039669 147.482311 
L 287.806612 149.944246 
L 290.573554 152.669523 
L 293.340496 155.585268 
L 296.107438 158.580554 
L 298.87438 161.504666 
L 301.641322 164.169303 
L 304.408264 166.355544 
L 307.175207 167.826077 
L 309.942149 168.342791 
L 312.709091 167.689611 
L 315.476033 165.700114 
L 318.242975 162.288131 
L 321.009917 157.476135 
L 323.77686 151.411289 
L 326.543802 144.358177 
L 329.310744 136.665865 
L 332.077686 128.719841 
L 334.844628 120.894734 
L 337.61157 113.519594 
L 340.378512 106.861138 
L 343.145455 101.124728 
L 345.912397 96.46582 
L 348.679339 92.999298 
L 351.446281 90.797864 
L 354.213223 89.881833 
L 356.980165 90.209677 
L 359.747107 91.676482 
L 362.51405 94.121717 
L 365.280992 97.343992 
L 368.047934 101.119396 
L 370.814876 105.220331 
L 373.581818 109.432492 
" style="fill:none;stroke:#008000;stroke-dasharray:3.7,1.6;stroke-dashoffset:0;"/>
   </g>
   <g id="line2d_17">
    <path clip-path="url(#p7cedde2b66)" d="M 69.218182 250.733928 
L 71.985124 251.339389 
L 74.752066 251.680953 
L 77.519008 251.85185 
L 80.28595 251.928744 
L 83.052893 251.960346 
L 85.819835 251.971207 
L 88.586777 251.970533 
L 91.353719 251.957872 
L 94.120661 251.922989 
L 96.887603 251.840263 
L 99.654545 251.661014 
L 102.421488 251.312582 
L 105.18843 250.714804 
L 107.955372 249.814477 
L 110.722314 248.621052 
L 113.489256 247.22001 
L 116.256198 245.753841 
L 119.02314 244.381946 
L 121.790083 243.240525 
L 124.557025 242.417271 
L 127.323967 241.944049 
L 130.090909 241.803252 
L 132.857851 241.941701 
L 135.624793 242.286838 
L 138.391736 242.761536 
L 141.158678 243.29529 
L 143.92562 243.830907 
L 146.692562 244.326965 
L 149.459504 244.757123 
L 152.226446 245.107711 
L 154.993388 245.37493 
L 157.760331 245.562603 
L 160.527273 245.680893 
L 163.294215 245.745856 
L 166.061157 245.779128 
L 168.828099 245.806583 
L 171.595041 245.854653 
L 174.361983 245.943604 
L 177.128926 246.078513 
L 179.895868 246.240697 
L 182.66281 246.383526 
L 185.429752 246.435573 
L 188.196694 246.31071 
L 190.963636 245.921699 
L 193.730579 245.194503 
L 196.497521 244.083597 
L 199.264463 242.587765 
L 202.031405 240.760332 
L 204.798347 238.705962 
L 207.565289 236.562484 
L 210.332231 234.474405 
L 213.099174 232.567653 
L 215.866116 230.932366 
L 218.633058 229.615961 
L 221.4 228.625306 
L 224.166942 227.935038 
L 226.933884 227.498775 
L 229.700826 227.260369 
L 232.467769 227.163238 
L 235.234711 227.156779 
L 238.001653 227.199682 
L 240.768595 227.260626 
L 243.535537 227.317107 
L 246.302479 227.353212 
L 249.069421 227.357011 
L 251.836364 227.318056 
L 254.603306 227.225245 
L 257.370248 227.065204 
L 260.13719 226.821259 
L 262.904132 226.473057 
L 265.671074 225.996972 
L 268.438017 225.367468 
L 271.204959 224.559726 
L 273.971901 223.553881 
L 276.738843 222.341258 
L 279.505785 220.932875 
L 282.272727 219.370127 
L 285.039669 217.736799 
L 287.806612 216.170402 
L 290.573554 214.869134 
L 293.340496 214.089109 
L 296.107438 214.125211 
L 298.87438 215.269409 
L 301.641322 217.744108 
L 304.408264 221.617027 
L 307.175207 226.71872 
L 309.942149 232.60003 
L 312.709091 238.572992 
L 315.476033 243.860803 
L 318.242975 247.838516 
L 321.009917 250.28075 
L 323.77686 251.447119 
L 326.543802 251.863694 
L 329.310744 251.973651 
L 332.077686 251.995696 
L 334.844628 251.999312 
L 337.61157 251.999864 
L 340.378512 251.999956 
L 343.145455 251.99997 
L 345.912397 251.999954 
L 348.679339 251.999862 
L 351.446281 251.99939 
L 354.213223 251.99697 
L 356.980165 251.985966 
L 359.747107 251.944922 
L 362.51405 251.822481 
L 365.280992 251.528152 
L 368.047934 250.944895 
L 370.814876 249.965907 
L 373.581818 248.537379 
" style="fill:none;stroke:#bfbf00;stroke-dasharray:7.4,3.2;stroke-dashoffset:0;stroke-width:2;"/>
   </g>
   <g id="patch_3">
    <path d="M 54 252 
L 54 34.56 
" style="fill:none;stroke:#000000;stroke-linecap:square;stroke-linejoin:miter;stroke-width:0.8;"/>
   </g>
   <g id="patch_4">
    <path d="M 388.8 252 
L 388.8 34.56 
" style="fill:none;stroke:#000000;stroke-linecap:square;stroke-linejoin:miter;stroke-width:0.8;"/>
   </g>
   <g id="patch_5">
    <path d="M 54 252 
L 388.8 252 
" style="fill:none;stroke:#000000;stroke-linecap:square;stroke-linejoin:miter;stroke-width:0.8;"/>
   </g>
   <g id="patch_6">
    <path d="M 54 34.56 
L 388.8 34.56 
" style="fill:none;stroke:#000000;stroke-linecap:square;stroke-linejoin:miter;stroke-width:0.8;"/>
   </g>
   <g id="text_16">
    <!-- Method : AEI -->
    <g transform="translate(71.985124 244.752)scale(0.12 -0.12)">
     <defs>
      <path d="M 628 4666 
L 1569 4666 
L 2759 1491 
L 3956 4666 
L 4897 4666 
L 4897 0 
L 4281 0 
L 4281 4097 
L 3078 897 
L 2444 897 
L 1241 4097 
L 1241 0 
L 628 0 
L 628 4666 
z
" id="DejaVuSans-4d" transform="scale(0.015625)"/>
      <path d="M 3597 1894 
L 3597 1613 
L 953 1613 
Q 991 1019 1311 708 
Q 1631 397 2203 397 
Q 2534 397 2845 478 
Q 3156 559 3463 722 
L 3463 178 
Q 3153 47 2828 -22 
Q 2503 -91 2169 -91 
Q 1331 -91 842 396 
Q 353 884 353 1716 
Q 353 2575 817 3079 
Q 1281 3584 2069 3584 
Q 2775 3584 3186 3129 
Q 3597 2675 3597 1894 
z
M 3022 2063 
Q 3016 2534 2758 2815 
Q 2500 3097 2075 3097 
Q 1594 3097 1305 2825 
Q 1016 2553 972 2059 
L 3022 2063 
z
" id="DejaVuSans-65" transform="scale(0.015625)"/>
      <path d="M 1172 4494 
L 1172 3500 
L 2356 3500 
L 2356 3053 
L 1172 3053 
L 1172 1153 
Q 1172 725 1289 603 
Q 1406 481 1766 481 
L 2356 481 
L 2356 0 
L 1766 0 
Q 1100 0 847 248 
Q 594 497 594 1153 
L 594 3053 
L 172 3053 
L 172 3500 
L 594 3500 
L 594 4494 
L 1172 4494 
z
" id="DejaVuSans-74" transform="scale(0.015625)"/>
      <path d="M 3513 2113 
L 3513 0 
L 2938 0 
L 2938 2094 
Q 2938 2591 2744 2837 
Q 2550 3084 2163 3084 
Q 1697 3084 1428 2787 
Q 1159 2491 1159 1978 
L 1159 0 
L 581 0 
L 581 4863 
L 1159 4863 
L 1159 2956 
Q 1366 3272 1645 3428 
Q 1925 3584 2291 3584 
Q 2894 3584 3203 3211 
Q 3513 2838 3513 2113 
z
" id="DejaVuSans-68" transform="scale(0.015625)"/>
      <path d="M 1959 3097 
Q 1497 3097 1228 2736 
Q 959 2375 959 1747 
Q 959 1119 1226 758 
Q 1494 397 1959 397 
Q 2419 397 2687 759 
Q 2956 1122 2956 1747 
Q 2956 2369 2687 2733 
Q 2419 3097 1959 3097 
z
M 1959 3584 
Q 2709 3584 3137 3096 
Q 3566 2609 3566 1747 
Q 3566 888 3137 398 
Q 2709 -91 1959 -91 
Q 1206 -91 779 398 
Q 353 888 353 1747 
Q 353 2609 779 3096 
Q 1206 3584 1959 3584 
z
" id="DejaVuSans-6f" transform="scale(0.015625)"/>
      <path d="M 2906 2969 
L 2906 4863 
L 3481 4863 
L 3481 0 
L 2906 0 
L 2906 525 
Q 2725 213 2448 61 
Q 2172 -91 1784 -91 
Q 1150 -91 751 415 
Q 353 922 353 1747 
Q 353 2572 751 3078 
Q 1150 3584 1784 3584 
Q 2172 3584 2448 3432 
Q 2725 3281 2906 2969 
z
M 947 1747 
Q 947 1113 1208 752 
Q 1469 391 1925 391 
Q 2381 391 2643 752 
Q 2906 1113 2906 1747 
Q 2906 2381 2643 2742 
Q 2381 3103 1925 3103 
Q 1469 3103 1208 2742 
Q 947 2381 947 1747 
z
" id="DejaVuSans-64" transform="scale(0.015625)"/>
      <path id="DejaVuSans-20" transform="scale(0.015625)"/>
      <path d="M 750 794 
L 1409 794 
L 1409 0 
L 750 0 
L 750 794 
z
M 750 3309 
L 1409 3309 
L 1409 2516 
L 750 2516 
L 750 3309 
z
" id="DejaVuSans-3a" transform="scale(0.015625)"/>
      <path d="M 2188 4044 
L 1331 1722 
L 3047 1722 
L 2188 4044 
z
M 1831 4666 
L 2547 4666 
L 4325 0 
L 3669 0 
L 3244 1197 
L 1141 1197 
L 716 0 
L 50 0 
L 1831 4666 
z
" id="DejaVuSans-41" transform="scale(0.015625)"/>
      <path d="M 628 4666 
L 3578 4666 
L 3578 4134 
L 1259 4134 
L 1259 2753 
L 3481 2753 
L 3481 2222 
L 1259 2222 
L 1259 531 
L 3634 531 
L 3634 0 
L 628 0 
L 628 4666 
z
" id="DejaVuSans-45" transform="scale(0.015625)"/>
      <path d="M 628 4666 
L 1259 4666 
L 1259 0 
L 628 0 
L 628 4666 
z
" id="DejaVuSans-49" transform="scale(0.015625)"/>
     </defs>
     <use xlink:href="#DejaVuSans-4d"/>
     <use x="86.279297" xlink:href="#DejaVuSans-65"/>
     <use x="147.802734" xlink:href="#DejaVuSans-74"/>
     <use x="187.011719" xlink:href="#DejaVuSans-68"/>
     <use x="250.390625" xlink:href="#DejaVuSans-6f"/>
     <use x="311.572266" xlink:href="#DejaVuSans-64"/>
     <use x="375.048828" xlink:href="#DejaVuSans-20"/>
     <use x="406.835938" xlink:href="#DejaVuSans-3a"/>
     <use x="440.527344" xlink:href="#DejaVuSans-20"/>
     <use x="472.314453" xlink:href="#DejaVuSans-41"/>
     <use x="540.722656" xlink:href="#DejaVuSans-45"/>
     <use x="603.90625" xlink:href="#DejaVuSans-49"/>
    </g>
   </g>
   <g id="text_17">
    <!-- Iter=0 -->
    <g transform="translate(71.985124 226.632)scale(0.12 -0.12)">
     <defs>
      <path d="M 2631 2963 
Q 2534 3019 2420 3045 
Q 2306 3072 2169 3072 
Q 1681 3072 1420 2755 
Q 1159 2438 1159 1844 
L 1159 0 
L 581 0 
L 581 3500 
L 1159 3500 
L 1159 2956 
Q 1341 3275 1631 3429 
Q 1922 3584 2338 3584 
Q 2397 3584 2469 3576 
Q 2541 3569 2628 3553 
L 2631 2963 
z
" id="DejaVuSans-72" transform="scale(0.015625)"/>
      <path d="M 678 2906 
L 4684 2906 
L 4684 2381 
L 678 2381 
L 678 2906 
z
M 678 1631 
L 4684 1631 
L 4684 1100 
L 678 1100 
L 678 1631 
z
" id="DejaVuSans-3d" transform="scale(0.015625)"/>
     </defs>
     <use xlink:href="#DejaVuSans-49"/>
     <use x="29.492188" xlink:href="#DejaVuSans-74"/>
     <use x="68.701172" xlink:href="#DejaVuSans-65"/>
     <use x="130.224609" xlink:href="#DejaVuSans-72"/>
     <use x="171.337891" xlink:href="#DejaVuSans-3d"/>
     <use x="255.126953" xlink:href="#DejaVuSans-30"/>
    </g>
   </g>
   <g id="legend_1">
    <g id="patch_7">
     <path d="M 61.7 140.235625 
L 215.844375 140.235625 
Q 218.044375 140.235625 218.044375 138.035625 
L 218.044375 42.26 
Q 218.044375 40.06 215.844375 40.06 
L 61.7 40.06 
Q 59.5 40.06 59.5 42.26 
L 59.5 138.035625 
Q 59.5 140.235625 61.7 140.235625 
z
" style="fill:#ffffff;opacity:0.8;stroke:#cccccc;stroke-linejoin:miter;"/>
    </g>
    <g id="line2d_18">
     <path d="M 63.9 48.968281 
L 85.9 48.968281 
" style="fill:none;stroke:#0000ff;stroke-linecap:square;stroke-width:2;"/>
    </g>
    <g id="line2d_19"/>
    <g id="text_18">
     <!-- ture function -->
     <g transform="translate(94.7 52.818281)scale(0.11 -0.11)">
      <defs>
       <path d="M 544 1381 
L 544 3500 
L 1119 3500 
L 1119 1403 
Q 1119 906 1312 657 
Q 1506 409 1894 409 
Q 2359 409 2629 706 
Q 2900 1003 2900 1516 
L 2900 3500 
L 3475 3500 
L 3475 0 
L 2900 0 
L 2900 538 
Q 2691 219 2414 64 
Q 2138 -91 1772 -91 
Q 1169 -91 856 284 
Q 544 659 544 1381 
z
M 1991 3584 
L 1991 3584 
z
" id="DejaVuSans-75" transform="scale(0.015625)"/>
       <path d="M 2375 4863 
L 2375 4384 
L 1825 4384 
Q 1516 4384 1395 4259 
Q 1275 4134 1275 3809 
L 1275 3500 
L 2222 3500 
L 2222 3053 
L 1275 3053 
L 1275 0 
L 697 0 
L 697 3053 
L 147 3053 
L 147 3500 
L 697 3500 
L 697 3744 
Q 697 4328 969 4595 
Q 1241 4863 1831 4863 
L 2375 4863 
z
" id="DejaVuSans-66" transform="scale(0.015625)"/>
       <path d="M 3513 2113 
L 3513 0 
L 2938 0 
L 2938 2094 
Q 2938 2591 2744 2837 
Q 2550 3084 2163 3084 
Q 1697 3084 1428 2787 
Q 1159 2491 1159 1978 
L 1159 0 
L 581 0 
L 581 3500 
L 1159 3500 
L 1159 2956 
Q 1366 3272 1645 3428 
Q 1925 3584 2291 3584 
Q 2894 3584 3203 3211 
Q 3513 2838 3513 2113 
z
" id="DejaVuSans-6e" transform="scale(0.015625)"/>
       <path d="M 3122 3366 
L 3122 2828 
Q 2878 2963 2633 3030 
Q 2388 3097 2138 3097 
Q 1578 3097 1268 2742 
Q 959 2388 959 1747 
Q 959 1106 1268 751 
Q 1578 397 2138 397 
Q 2388 397 2633 464 
Q 2878 531 3122 666 
L 3122 134 
Q 2881 22 2623 -34 
Q 2366 -91 2075 -91 
Q 1284 -91 818 406 
Q 353 903 353 1747 
Q 353 2603 823 3093 
Q 1294 3584 2113 3584 
Q 2378 3584 2631 3529 
Q 2884 3475 3122 3366 
z
" id="DejaVuSans-63" transform="scale(0.015625)"/>
       <path d="M 603 3500 
L 1178 3500 
L 1178 0 
L 603 0 
L 603 3500 
z
M 603 4863 
L 1178 4863 
L 1178 4134 
L 603 4134 
L 603 4863 
z
" id="DejaVuSans-69" transform="scale(0.015625)"/>
      </defs>
      <use xlink:href="#DejaVuSans-74"/>
      <use x="39.208984" xlink:href="#DejaVuSans-75"/>
      <use x="102.587891" xlink:href="#DejaVuSans-72"/>
      <use x="141.451172" xlink:href="#DejaVuSans-65"/>
      <use x="202.974609" xlink:href="#DejaVuSans-20"/>
      <use x="234.761719" xlink:href="#DejaVuSans-66"/>
      <use x="269.966797" xlink:href="#DejaVuSans-75"/>
      <use x="333.345703" xlink:href="#DejaVuSans-6e"/>
      <use x="396.724609" xlink:href="#DejaVuSans-63"/>
      <use x="451.705078" xlink:href="#DejaVuSans-74"/>
      <use x="490.914062" xlink:href="#DejaVuSans-69"/>
      <use x="518.697266" xlink:href="#DejaVuSans-6f"/>
      <use x="579.878906" xlink:href="#DejaVuSans-6e"/>
     </g>
    </g>
    <g id="line2d_20">
     <path d="M 63.9 65.114219 
L 85.9 65.114219 
" style="fill:none;stroke:#000000;stroke-dasharray:7.4,3.2;stroke-dashoffset:0;stroke-width:2;"/>
    </g>
    <g id="line2d_21"/>
    <g id="text_19">
     <!-- predicted function -->
     <g transform="translate(94.7 68.964219)scale(0.11 -0.11)">
      <defs>
       <path d="M 1159 525 
L 1159 -1331 
L 581 -1331 
L 581 3500 
L 1159 3500 
L 1159 2969 
Q 1341 3281 1617 3432 
Q 1894 3584 2278 3584 
Q 2916 3584 3314 3078 
Q 3713 2572 3713 1747 
Q 3713 922 3314 415 
Q 2916 -91 2278 -91 
Q 1894 -91 1617 61 
Q 1341 213 1159 525 
z
M 3116 1747 
Q 3116 2381 2855 2742 
Q 2594 3103 2138 3103 
Q 1681 3103 1420 2742 
Q 1159 2381 1159 1747 
Q 1159 1113 1420 752 
Q 1681 391 2138 391 
Q 2594 391 2855 752 
Q 3116 1113 3116 1747 
z
" id="DejaVuSans-70" transform="scale(0.015625)"/>
      </defs>
      <use xlink:href="#DejaVuSans-70"/>
      <use x="63.476562" xlink:href="#DejaVuSans-72"/>
      <use x="102.339844" xlink:href="#DejaVuSans-65"/>
      <use x="163.863281" xlink:href="#DejaVuSans-64"/>
      <use x="227.339844" xlink:href="#DejaVuSans-69"/>
      <use x="255.123047" xlink:href="#DejaVuSans-63"/>
      <use x="310.103516" xlink:href="#DejaVuSans-74"/>
      <use x="349.3125" xlink:href="#DejaVuSans-65"/>
      <use x="410.835938" xlink:href="#DejaVuSans-64"/>
      <use x="474.3125" xlink:href="#DejaVuSans-20"/>
      <use x="506.099609" xlink:href="#DejaVuSans-66"/>
      <use x="541.304688" xlink:href="#DejaVuSans-75"/>
      <use x="604.683594" xlink:href="#DejaVuSans-6e"/>
      <use x="668.0625" xlink:href="#DejaVuSans-63"/>
      <use x="723.042969" xlink:href="#DejaVuSans-74"/>
      <use x="762.251953" xlink:href="#DejaVuSans-69"/>
      <use x="790.035156" xlink:href="#DejaVuSans-6f"/>
      <use x="851.216797" xlink:href="#DejaVuSans-6e"/>
     </g>
    </g>
    <g id="line2d_22">
     <path d="M 63.9 81.260156 
L 85.9 81.260156 
" style="fill:none;stroke:#008000;stroke-dasharray:3.7,1.6;stroke-dashoffset:0;"/>
    </g>
    <g id="line2d_23"/>
    <g id="text_20">
     <!--  ± Sn(x) -->
     <g transform="translate(94.7 85.110156)scale(0.11 -0.11)">
      <defs>
       <path d="M 2944 4013 
L 2944 2803 
L 4684 2803 
L 4684 2272 
L 2944 2272 
L 2944 1063 
L 2419 1063 
L 2419 2272 
L 678 2272 
L 678 2803 
L 2419 2803 
L 2419 4013 
L 2944 4013 
z
M 678 531 
L 4684 531 
L 4684 0 
L 678 0 
L 678 531 
z
" id="DejaVuSans-b1" transform="scale(0.015625)"/>
       <path d="M 3425 4513 
L 3425 3897 
Q 3066 4069 2747 4153 
Q 2428 4238 2131 4238 
Q 1616 4238 1336 4038 
Q 1056 3838 1056 3469 
Q 1056 3159 1242 3001 
Q 1428 2844 1947 2747 
L 2328 2669 
Q 3034 2534 3370 2195 
Q 3706 1856 3706 1288 
Q 3706 609 3251 259 
Q 2797 -91 1919 -91 
Q 1588 -91 1214 -16 
Q 841 59 441 206 
L 441 856 
Q 825 641 1194 531 
Q 1563 422 1919 422 
Q 2459 422 2753 634 
Q 3047 847 3047 1241 
Q 3047 1584 2836 1778 
Q 2625 1972 2144 2069 
L 1759 2144 
Q 1053 2284 737 2584 
Q 422 2884 422 3419 
Q 422 4038 858 4394 
Q 1294 4750 2059 4750 
Q 2388 4750 2728 4690 
Q 3069 4631 3425 4513 
z
" id="DejaVuSans-53" transform="scale(0.015625)"/>
       <path d="M 1984 4856 
Q 1566 4138 1362 3434 
Q 1159 2731 1159 2009 
Q 1159 1288 1364 580 
Q 1569 -128 1984 -844 
L 1484 -844 
Q 1016 -109 783 600 
Q 550 1309 550 2009 
Q 550 2706 781 3412 
Q 1013 4119 1484 4856 
L 1984 4856 
z
" id="DejaVuSans-28" transform="scale(0.015625)"/>
       <path d="M 513 4856 
L 1013 4856 
Q 1481 4119 1714 3412 
Q 1947 2706 1947 2009 
Q 1947 1309 1714 600 
Q 1481 -109 1013 -844 
L 513 -844 
Q 928 -128 1133 580 
Q 1338 1288 1338 2009 
Q 1338 2731 1133 3434 
Q 928 4138 513 4856 
z
" id="DejaVuSans-29" transform="scale(0.015625)"/>
      </defs>
      <use xlink:href="#DejaVuSans-20"/>
      <use x="31.787109" xlink:href="#DejaVuSans-b1"/>
      <use x="115.576172" xlink:href="#DejaVuSans-20"/>
      <use x="147.363281" xlink:href="#DejaVuSans-53"/>
      <use x="210.839844" xlink:href="#DejaVuSans-6e"/>
      <use x="274.21875" xlink:href="#DejaVuSans-28"/>
      <use x="313.232422" xlink:href="#DejaVuSans-78"/>
      <use x="372.412109" xlink:href="#DejaVuSans-29"/>
     </g>
    </g>
    <g id="line2d_24">
     <path d="M 63.9 97.406094 
L 85.9 97.406094 
" style="fill:none;stroke:#bfbf00;stroke-dasharray:7.4,3.2;stroke-dashoffset:0;stroke-width:2;"/>
    </g>
    <g id="line2d_25"/>
    <g id="text_21">
     <!-- AEI(x) -->
     <g transform="translate(94.7 101.256094)scale(0.11 -0.11)">
      <use xlink:href="#DejaVuSans-41"/>
      <use x="68.408203" xlink:href="#DejaVuSans-45"/>
      <use x="131.591797" xlink:href="#DejaVuSans-49"/>
      <use x="161.083984" xlink:href="#DejaVuSans-28"/>
      <use x="200.097656" xlink:href="#DejaVuSans-78"/>
      <use x="259.277344" xlink:href="#DejaVuSans-29"/>
     </g>
    </g>
    <g id="PathCollection_2">
     <defs>
      <path d="M 0 3.535534 
C 0.937635 3.535534 1.836992 3.163008 2.5 2.5 
C 3.163008 1.836992 3.535534 0.937635 3.535534 0 
C 3.535534 -0.937635 3.163008 -1.836992 2.5 -2.5 
C 1.836992 -3.163008 0.937635 -3.535534 0 -3.535534 
C -0.937635 -3.535534 -1.836992 -3.163008 -2.5 -2.5 
C -3.163008 -1.836992 -3.535534 -0.937635 -3.535534 0 
C -3.535534 0.937635 -3.163008 1.836992 -2.5 2.5 
C -1.836992 3.163008 -0.937635 3.535534 0 3.535534 
z
" id="mf97a30be6d" style="stroke:#000000;"/>
     </defs>
     <g>
      <use style="fill:#ff0000;stroke:#000000;" x="74.9" xlink:href="#mf97a30be6d" y="114.514531"/>
     </g>
    </g>
    <g id="text_22">
     <!-- training data -->
     <g transform="translate(94.7 117.402031)scale(0.11 -0.11)">
      <defs>
       <path d="M 2194 1759 
Q 1497 1759 1228 1600 
Q 959 1441 959 1056 
Q 959 750 1161 570 
Q 1363 391 1709 391 
Q 2188 391 2477 730 
Q 2766 1069 2766 1631 
L 2766 1759 
L 2194 1759 
z
M 3341 1997 
L 3341 0 
L 2766 0 
L 2766 531 
Q 2569 213 2275 61 
Q 1981 -91 1556 -91 
Q 1019 -91 701 211 
Q 384 513 384 1019 
Q 384 1609 779 1909 
Q 1175 2209 1959 2209 
L 2766 2209 
L 2766 2266 
Q 2766 2663 2505 2880 
Q 2244 3097 1772 3097 
Q 1472 3097 1187 3025 
Q 903 2953 641 2809 
L 641 3341 
Q 956 3463 1253 3523 
Q 1550 3584 1831 3584 
Q 2591 3584 2966 3190 
Q 3341 2797 3341 1997 
z
" id="DejaVuSans-61" transform="scale(0.015625)"/>
       <path d="M 2906 1791 
Q 2906 2416 2648 2759 
Q 2391 3103 1925 3103 
Q 1463 3103 1205 2759 
Q 947 2416 947 1791 
Q 947 1169 1205 825 
Q 1463 481 1925 481 
Q 2391 481 2648 825 
Q 2906 1169 2906 1791 
z
M 3481 434 
Q 3481 -459 3084 -895 
Q 2688 -1331 1869 -1331 
Q 1566 -1331 1297 -1286 
Q 1028 -1241 775 -1147 
L 775 -588 
Q 1028 -725 1275 -790 
Q 1522 -856 1778 -856 
Q 2344 -856 2625 -561 
Q 2906 -266 2906 331 
L 2906 616 
Q 2728 306 2450 153 
Q 2172 0 1784 0 
Q 1141 0 747 490 
Q 353 981 353 1791 
Q 353 2603 747 3093 
Q 1141 3584 1784 3584 
Q 2172 3584 2450 3431 
Q 2728 3278 2906 2969 
L 2906 3500 
L 3481 3500 
L 3481 434 
z
" id="DejaVuSans-67" transform="scale(0.015625)"/>
      </defs>
      <use xlink:href="#DejaVuSans-74"/>
      <use x="39.208984" xlink:href="#DejaVuSans-72"/>
      <use x="80.322266" xlink:href="#DejaVuSans-61"/>
      <use x="141.601562" xlink:href="#DejaVuSans-69"/>
      <use x="169.384766" xlink:href="#DejaVuSans-6e"/>
      <use x="232.763672" xlink:href="#DejaVuSans-69"/>
      <use x="260.546875" xlink:href="#DejaVuSans-6e"/>
      <use x="323.925781" xlink:href="#DejaVuSans-67"/>
      <use x="387.402344" xlink:href="#DejaVuSans-20"/>
      <use x="419.189453" xlink:href="#DejaVuSans-64"/>
      <use x="482.666016" xlink:href="#DejaVuSans-61"/>
      <use x="543.945312" xlink:href="#DejaVuSans-74"/>
      <use x="583.154297" xlink:href="#DejaVuSans-61"/>
     </g>
    </g>
    <g id="PathCollection_3">
     <g>
      <use style="fill:#ff0000;stroke:#ff0000;stroke-width:8;" x="74.9" xlink:href="#m767e41f97b" y="130.660469"/>
     </g>
    </g>
    <g id="text_23">
     <!-- recommended datum -->
     <g transform="translate(94.7 133.547969)scale(0.11 -0.11)">
      <defs>
       <path d="M 3328 2828 
Q 3544 3216 3844 3400 
Q 4144 3584 4550 3584 
Q 5097 3584 5394 3201 
Q 5691 2819 5691 2113 
L 5691 0 
L 5113 0 
L 5113 2094 
Q 5113 2597 4934 2840 
Q 4756 3084 4391 3084 
Q 3944 3084 3684 2787 
Q 3425 2491 3425 1978 
L 3425 0 
L 2847 0 
L 2847 2094 
Q 2847 2600 2669 2842 
Q 2491 3084 2119 3084 
Q 1678 3084 1418 2786 
Q 1159 2488 1159 1978 
L 1159 0 
L 581 0 
L 581 3500 
L 1159 3500 
L 1159 2956 
Q 1356 3278 1631 3431 
Q 1906 3584 2284 3584 
Q 2666 3584 2933 3390 
Q 3200 3197 3328 2828 
z
" id="DejaVuSans-6d" transform="scale(0.015625)"/>
      </defs>
      <use xlink:href="#DejaVuSans-72"/>
      <use x="38.863281" xlink:href="#DejaVuSans-65"/>
      <use x="100.386719" xlink:href="#DejaVuSans-63"/>
      <use x="155.367188" xlink:href="#DejaVuSans-6f"/>
      <use x="216.548828" xlink:href="#DejaVuSans-6d"/>
      <use x="313.960938" xlink:href="#DejaVuSans-6d"/>
      <use x="411.373047" xlink:href="#DejaVuSans-65"/>
      <use x="472.896484" xlink:href="#DejaVuSans-6e"/>
      <use x="536.275391" xlink:href="#DejaVuSans-64"/>
      <use x="599.751953" xlink:href="#DejaVuSans-65"/>
      <use x="661.275391" xlink:href="#DejaVuSans-64"/>
      <use x="724.751953" xlink:href="#DejaVuSans-20"/>
      <use x="756.539062" xlink:href="#DejaVuSans-64"/>
      <use x="820.015625" xlink:href="#DejaVuSans-61"/>
      <use x="881.294922" xlink:href="#DejaVuSans-74"/>
      <use x="920.503906" xlink:href="#DejaVuSans-75"/>
      <use x="983.882812" xlink:href="#DejaVuSans-6d"/>
     </g>
    </g>
   </g>
   <g id="line2d_26">
    <path clip-path="url(#p7cedde2b66)" d="M 69.218182 147.565176 
L 71.985124 146.043945 
L 74.752066 145.069367 
L 77.519008 144.747277 
L 80.28595 145.156973 
L 83.052893 146.343252 
L 85.819835 148.310878 
L 88.586777 151.022166 
L 91.353719 154.398085 
L 94.120661 158.322834 
L 96.887603 162.651494 
L 99.654545 167.219996 
L 102.421488 171.856413 
L 105.18843 176.392469 
L 107.955372 180.674199 
L 110.722314 184.570846 
L 113.489256 187.981339 
L 116.256198 190.838016 
L 119.02314 193.107549 
L 121.790083 194.789329 
L 124.557025 195.911772 
L 127.323967 196.527111 
L 130.090909 196.705307 
L 132.857851 196.527645 
L 135.624793 196.080519 
L 138.391736 195.449764 
L 141.158678 194.715803 
L 143.92562 193.949733 
L 146.692562 193.210442 
L 149.459504 192.542732 
L 152.226446 191.976419 
L 154.993388 191.526369 
L 157.760331 191.193353 
L 160.527273 190.965655 
L 163.294215 190.821277 
L 166.061157 190.730609 
L 168.828099 190.659366 
L 171.595041 190.57162 
L 174.361983 190.432705 
L 177.128926 190.211823 
L 179.895868 189.884187 
L 182.66281 189.432569 
L 185.429752 188.848197 
L 188.196694 188.13097 
L 190.963636 187.289037 
L 193.730579 186.337814 
L 196.497521 185.298556 
L 199.264463 184.196647 
L 202.031405 183.059729 
L 204.798347 181.915857 
L 207.565289 180.791797 
L 210.332231 179.711586 
L 213.099174 178.69544 
L 215.866116 177.759046 
L 218.633058 176.913258 
L 221.4 176.164154 
L 224.166942 175.513429 
L 226.933884 174.95902 
L 229.700826 174.495917 
L 232.467769 174.117056 
L 235.234711 173.814245 
L 238.001653 173.579066 
L 240.768595 173.40371 
L 243.535537 173.281751 
L 246.302479 173.208835 
L 249.069421 173.183305 
L 251.836364 173.206757 
L 254.603306 173.284521 
L 257.370248 173.426028 
L 260.13719 173.645009 
L 262.904132 173.959426 
L 265.671074 174.391018 
L 268.438017 174.964298 
L 271.204959 175.704889 
L 273.971901 176.63706 
L 276.738843 177.780414 
L 279.505785 179.1458 
L 282.272727 180.730616 
L 285.039669 182.513864 
L 287.806612 184.451478 
L 290.573554 186.472569 
L 293.340496 188.477339 
L 296.107438 190.337395 
L 298.87438 191.899108 
L 301.641322 192.990393 
L 304.408264 193.43097 
L 307.175207 193.045697 
L 309.942149 191.680112 
L 312.709091 189.216859 
L 315.476033 185.591337 
L 318.242975 180.804721 
L 321.009917 174.932589 
L 323.77686 168.127654 
L 326.543802 160.615673 
L 329.310744 152.68431 
L 332.077686 144.665567 
L 334.844628 136.913179 
L 337.61157 129.77709 
L 340.378512 123.577503 
L 343.145455 118.581182 
L 345.912397 114.98241 
L 348.679339 112.890521 
L 351.446281 112.325112 
L 354.213223 113.219153 
L 356.980165 115.429297 
L 359.747107 118.751909 
L 362.51405 122.942807 
L 365.280992 127.738433 
L 368.047934 132.876237 
L 370.814876 138.112402 
L 373.581818 143.235538 
" style="fill:none;stroke:#000000;stroke-dasharray:7.4,3.2;stroke-dashoffset:0;stroke-width:2;"/>
   </g>
   <g id="PathCollection_4">
    <g clip-path="url(#p7cedde2b66)">
     <use style="fill:#ff0000;stroke:#000000;" x="83.052893" xlink:href="#mf97a30be6d" y="129.399309"/>
     <use style="fill:#ff0000;stroke:#000000;" x="96.887603" xlink:href="#mf97a30be6d" y="162.429541"/>
     <use style="fill:#ff0000;stroke:#000000;" x="110.722314" xlink:href="#mf97a30be6d" y="193.170209"/>
     <use style="fill:#ff0000;stroke:#000000;" x="124.557025" xlink:href="#mf97a30be6d" y="199.248575"/>
     <use style="fill:#ff0000;stroke:#000000;" x="138.391736" xlink:href="#mf97a30be6d" y="199.347548"/>
     <use style="fill:#ff0000;stroke:#000000;" x="152.226446" xlink:href="#mf97a30be6d" y="191.611971"/>
     <use style="fill:#ff0000;stroke:#000000;" x="166.061157" xlink:href="#mf97a30be6d" y="193.66847"/>
     <use style="fill:#ff0000;stroke:#000000;" x="179.895868" xlink:href="#mf97a30be6d" y="193.283098"/>
     <use style="fill:#ff0000;stroke:#000000;" x="193.730579" xlink:href="#mf97a30be6d" y="188.924027"/>
     <use style="fill:#ff0000;stroke:#000000;" x="318.242975" xlink:href="#mf97a30be6d" y="199.289596"/>
     <use style="fill:#ff0000;stroke:#000000;" x="332.077686" xlink:href="#mf97a30be6d" y="145.37007"/>
     <use style="fill:#ff0000;stroke:#000000;" x="345.912397" xlink:href="#mf97a30be6d" y="78.407322"/>
    </g>
   </g>
  </g>
 </g>
 <defs>
  <clipPath id="p7cedde2b66">
   <rect height="217.44" width="334.8" x="54" y="34.56"/>
  </clipPath>
 </defs>
</svg>
