<?xml version="1.0" encoding="utf-8" standalone="no"?>
<!DOCTYPE svg PUBLIC "-//W3C//DTD SVG 1.1//EN"
  "http://www.w3.org/Graphics/SVG/1.1/DTD/svg11.dtd">
<svg height="288pt" version="1.1" viewBox="0 0 432 288" width="432pt" xmlns="http://www.w3.org/2000/svg" xmlns:xlink="http://www.w3.org/1999/xlink">
 <metadata>
  <rdf:RDF xmlns:cc="http://creativecommons.org/ns#" xmlns:dc="http://purl.org/dc/elements/1.1/" xmlns:rdf="http://www.w3.org/1999/02/22-rdf-syntax-ns#">
   <cc:Work>
    <dc:type rdf:resource="http://purl.org/dc/dcmitype/StillImage"/>
    <dc:date>2022-08-04T11:40:41.857589</dc:date>
    <dc:format>image/svg+xml</dc:format>
    <dc:creator>
     <cc:Agent>
      <dc:title>Matplotlib v3.4.3, https://matplotlib.org/</dc:title>
     </cc:Agent>
    </dc:creator>
   </cc:Work>
  </rdf:RDF>
 </metadata>
 <defs>
  <style type="text/css">*{stroke-linecap:butt;stroke-linejoin:round;}</style>
 </defs>
 <g id="figure_1">
  <g id="patch_1">
   <path d="M 0 288 
L 432 288 
L 432 0 
L 0 0 
z
" style="fill:none;"/>
  </g>
  <g id="axes_1">
   <g id="patch_2">
    <path d="M 54 252 
L 388.8 252 
L 388.8 34.56 
L 54 34.56 
z
" style="fill:#ffffff;"/>
   </g>
   <g id="PolyCollection_1">
    <defs>
     <path d="M 69.218182 -169.918952 
L 69.218182 -123.796651 
L 71.985124 -126.477356 
L 74.752066 -128.46991 
L 77.519008 -129.663705 
L 80.28595 -129.971855 
L 83.052893 -129.341271 
L 85.819835 -127.763774 
L 88.586777 -125.285675 
L 91.353719 -122.01073 
L 94.120661 -118.092036 
L 96.887603 -113.713965 
L 99.654545 -109.070911 
L 102.421488 -104.349738 
L 105.18843 -99.718601 
L 107.955372 -95.321177 
L 110.722314 -91.274333 
L 113.489256 -87.667656 
L 116.256198 -84.563968 
L 119.02314 -82.000401 
L 121.790083 -79.989861 
L 124.557025 -78.52288 
L 127.323967 -77.569917 
L 130.090909 -77.084221 
L 132.857851 -77.005293 
L 135.624793 -77.262873 
L 138.391736 -77.781251 
L 141.158678 -78.483648 
L 143.92562 -79.296364 
L 146.692562 -80.15247 
L 149.459504 -80.994887 
L 152.226446 -81.778745 
L 154.993388 -82.472955 
L 157.760331 -83.060884 
L 160.527273 -83.539969 
L 163.294215 -83.920079 
L 166.061157 -84.220476 
L 168.828099 -84.465348 
L 171.595041 -84.678114 
L 174.361983 -84.874948 
L 177.128926 -85.058359 
L 179.895868 -85.212231 
L 182.66281 -85.300432 
L 185.429752 -85.271484 
L 188.196694 -85.070335 
L 190.963636 -84.654366 
L 193.730579 -84.006657 
L 196.497521 -83.140325 
L 199.264463 -82.0937 
L 202.031405 -80.921074 
L 204.798347 -79.683736 
L 207.565289 -78.44328 
L 210.332231 -77.257084 
L 213.099174 -76.175203 
L 215.866116 -75.238056 
L 218.633058 -74.474543 
L 221.4 -73.90046 
L 224.166942 -73.5172 
L 226.933884 -73.310762 
L 229.700826 -73.251156 
L 232.467769 -73.292273 
L 235.234711 -73.372396 
L 238.001653 -73.415627 
L 240.768595 -73.33482 
L 243.535537 -73.037016 
L 246.302479 -72.432796 
L 249.069421 -71.450467 
L 251.836364 -70.053431 
L 254.603306 -68.254413 
L 257.370248 -66.117736 
L 260.13719 -63.746059 
L 262.904132 -61.257865 
L 265.671074 -58.766459 
L 268.438017 -56.367053 
L 271.204959 -54.13246 
L 273.971901 -52.114923 
L 276.738843 -50.351572 
L 279.505785 -48.871825 
L 282.272727 -47.705536 
L 285.039669 -46.890728 
L 287.806612 -46.479451 
L 290.573554 -46.540259 
L 293.340496 -47.156343 
L 296.107438 -48.419565 
L 298.87438 -50.421781 
L 301.641322 -53.245331 
L 304.408264 -56.954192 
L 307.175207 -61.586692 
L 309.942149 -67.150041 
L 312.709091 -73.616671 
L 315.476033 -80.922215 
L 318.242975 -88.964896 
L 321.009917 -97.60606 
L 323.77686 -106.671612 
L 326.543802 -115.95429 
L 329.310744 -125.217053 
L 332.077686 -134.198499 
L 334.844628 -142.621903 
L 337.61157 -150.209792 
L 340.378512 -156.704527 
L 343.145455 -161.89171 
L 345.912397 -165.619573 
L 348.679339 -167.808346 
L 351.446281 -168.449004 
L 354.213223 -167.595409 
L 356.980165 -165.354028 
L 359.747107 -161.8733 
L 362.51405 -157.333058 
L 365.280992 -151.933961 
L 368.047934 -145.88704 
L 370.814876 -139.403713 
L 373.581818 -132.686724 
L 373.581818 -195.72804 
L 373.581818 -195.72804 
L 370.814876 -199.615774 
L 368.047934 -202.943201 
L 365.280992 -205.551038 
L 362.51405 -207.292283 
L 359.747107 -208.040885 
L 356.980165 -207.699931 
L 354.213223 -206.20859 
L 351.446281 -203.546869 
L 348.679339 -199.737109 
L 345.912397 -194.841136 
L 343.145455 -188.95276 
L 340.378512 -182.187313 
L 337.61157 -174.672499 
L 334.844628 -166.544996 
L 332.077686 -157.953121 
L 329.310744 -149.060701 
L 326.543802 -140.046701 
L 323.77686 -131.098877 
L 321.009917 -122.403351 
L 318.242975 -114.133228 
L 315.476033 -106.438825 
L 312.709091 -99.441022 
L 309.942149 -93.228219 
L 307.175207 -87.856713 
L 304.408264 -83.353743 
L 301.641322 -79.722221 
L 298.87438 -76.946027 
L 296.107438 -74.994733 
L 293.340496 -73.826837 
L 290.573554 -73.390966 
L 287.806612 -73.625303 
L 285.039669 -74.456344 
L 282.272727 -75.798649 
L 279.505785 -77.556975 
L 276.738843 -79.631189 
L 273.971901 -81.923289 
L 271.204959 -84.345343 
L 268.438017 -86.82723 
L 265.671074 -89.323327 
L 262.904132 -91.817216 
L 260.13719 -94.322873 
L 257.370248 -96.87993 
L 254.603306 -99.54058 
L 251.836364 -102.34857 
L 249.069421 -105.316827 
L 246.302479 -108.414366 
L 243.535537 -111.568709 
L 240.768595 -114.680146 
L 238.001653 -117.639012 
L 235.234711 -120.339645 
L 232.467769 -122.689378 
L 229.700826 -124.613548 
L 226.933884 -126.057944 
L 224.166942 -126.989763 
L 221.4 -127.397668 
L 218.633058 -127.291243 
L 215.866116 -126.700003 
L 213.099174 -125.671988 
L 210.332231 -124.271981 
L 207.565289 -122.579304 
L 204.798347 -120.685124 
L 202.031405 -118.689074 
L 199.264463 -116.694831 
L 196.497521 -114.804007 
L 193.730579 -113.107664 
L 190.963636 -111.675445 
L 188.196694 -110.544428 
L 185.429752 -109.712596 
L 182.66281 -109.14182 
L 179.895868 -108.770332 
L 177.128926 -108.528648 
L 174.361983 -108.352123 
L 171.595041 -108.187325 
L 168.828099 -107.993317 
L 166.061157 -107.740237 
L 163.294215 -107.407151 
L 160.527273 -106.980356 
L 157.760331 -106.452631 
L 154.993388 -105.823571 
L 152.226446 -105.100767 
L 149.459504 -104.301434 
L 146.692562 -103.453969 
L 143.92562 -102.598927 
L 141.158678 -101.789052 
L 138.391736 -101.08815 
L 135.624793 -100.568757 
L 132.857851 -100.308699 
L 130.090909 -100.386713 
L 127.323967 -100.877346 
L 124.557025 -101.845448 
L 121.790083 -103.340617 
L 119.02314 -105.392102 
L 116.256198 -108.004747 
L 113.489256 -111.156605 
L 110.722314 -114.798799 
L 107.955372 -118.857988 
L 105.18843 -123.241522 
L 102.421488 -127.844977 
L 99.654545 -132.561294 
L 96.887603 -137.290071 
L 94.120661 -141.944718 
L 91.353719 -146.45465 
L 88.586777 -150.760685 
L 85.819835 -154.805471 
L 83.052893 -158.525059 
L 80.28595 -161.84782 
L 77.519008 -164.701418 
L 74.752066 -167.023225 
L 71.985124 -168.769202 
L 69.218182 -169.918952 
z
" id="mc3b187507d" style="stroke:#add8e6;stroke-opacity:0.2;"/>
    </defs>
    <g clip-path="url(#p3ba1aeae11)">
     <use style="fill:#add8e6;fill-opacity:0.2;stroke:#add8e6;stroke-opacity:0.2;" x="0" xlink:href="#mc3b187507d" y="288"/>
    </g>
   </g>
   <g id="PathCollection_1">
    <defs>
     <path d="M 0 0.612372 
C 0.162403 0.612372 0.318176 0.547849 0.433013 0.433013 
C 0.547849 0.318176 0.612372 0.162403 0.612372 0 
C 0.612372 -0.162403 0.547849 -0.318176 0.433013 -0.433013 
C 0.318176 -0.547849 0.162403 -0.612372 0 -0.612372 
C -0.162403 -0.612372 -0.318176 -0.547849 -0.433013 -0.433013 
C -0.547849 -0.318176 -0.612372 -0.162403 -0.612372 0 
C -0.612372 0.162403 -0.547849 0.318176 -0.433013 0.433013 
C -0.318176 0.547849 -0.162403 0.612372 0 0.612372 
z
" id="m3e52a811c3" style="stroke:#ff0000;stroke-width:8;"/>
    </defs>
    <g clip-path="url(#p3ba1aeae11)">
     <use style="fill:#ff0000;stroke:#ff0000;stroke-width:8;" x="287.806612" xlink:href="#m3e52a811c3" y="237.180374"/>
    </g>
   </g>
   <g id="matplotlib.axis_1">
    <g id="xtick_1">
     <g id="line2d_1">
      <defs>
       <path d="M 0 0 
L 0 3.5 
" id="m7ffb3331c0" style="stroke:#000000;stroke-width:0.8;"/>
      </defs>
      <g>
       <use style="stroke:#000000;stroke-width:0.8;" x="69.218182" xlink:href="#m7ffb3331c0" y="252"/>
      </g>
     </g>
     <g id="text_1">
      <!-- 0 -->
      <g transform="translate(66.036932 266.598437)scale(0.1 -0.1)">
       <defs>
        <path d="M 2034 4250 
Q 1547 4250 1301 3770 
Q 1056 3291 1056 2328 
Q 1056 1369 1301 889 
Q 1547 409 2034 409 
Q 2525 409 2770 889 
Q 3016 1369 3016 2328 
Q 3016 3291 2770 3770 
Q 2525 4250 2034 4250 
z
M 2034 4750 
Q 2819 4750 3233 4129 
Q 3647 3509 3647 2328 
Q 3647 1150 3233 529 
Q 2819 -91 2034 -91 
Q 1250 -91 836 529 
Q 422 1150 422 2328 
Q 422 3509 836 4129 
Q 1250 4750 2034 4750 
z
" id="DejaVuSans-30" transform="scale(0.015625)"/>
       </defs>
       <use xlink:href="#DejaVuSans-30"/>
      </g>
     </g>
    </g>
    <g id="xtick_2">
     <g id="line2d_2">
      <g>
       <use style="stroke:#000000;stroke-width:0.8;" x="124.557025" xlink:href="#m7ffb3331c0" y="252"/>
      </g>
     </g>
     <g id="text_2">
      <!-- 2 -->
      <g transform="translate(121.375775 266.598437)scale(0.1 -0.1)">
       <defs>
        <path d="M 1228 531 
L 3431 531 
L 3431 0 
L 469 0 
L 469 531 
Q 828 903 1448 1529 
Q 2069 2156 2228 2338 
Q 2531 2678 2651 2914 
Q 2772 3150 2772 3378 
Q 2772 3750 2511 3984 
Q 2250 4219 1831 4219 
Q 1534 4219 1204 4116 
Q 875 4013 500 3803 
L 500 4441 
Q 881 4594 1212 4672 
Q 1544 4750 1819 4750 
Q 2544 4750 2975 4387 
Q 3406 4025 3406 3419 
Q 3406 3131 3298 2873 
Q 3191 2616 2906 2266 
Q 2828 2175 2409 1742 
Q 1991 1309 1228 531 
z
" id="DejaVuSans-32" transform="scale(0.015625)"/>
       </defs>
       <use xlink:href="#DejaVuSans-32"/>
      </g>
     </g>
    </g>
    <g id="xtick_3">
     <g id="line2d_3">
      <g>
       <use style="stroke:#000000;stroke-width:0.8;" x="179.895868" xlink:href="#m7ffb3331c0" y="252"/>
      </g>
     </g>
     <g id="text_3">
      <!-- 4 -->
      <g transform="translate(176.714618 266.598437)scale(0.1 -0.1)">
       <defs>
        <path d="M 2419 4116 
L 825 1625 
L 2419 1625 
L 2419 4116 
z
M 2253 4666 
L 3047 4666 
L 3047 1625 
L 3713 1625 
L 3713 1100 
L 3047 1100 
L 3047 0 
L 2419 0 
L 2419 1100 
L 313 1100 
L 313 1709 
L 2253 4666 
z
" id="DejaVuSans-34" transform="scale(0.015625)"/>
       </defs>
       <use xlink:href="#DejaVuSans-34"/>
      </g>
     </g>
    </g>
    <g id="xtick_4">
     <g id="line2d_4">
      <g>
       <use style="stroke:#000000;stroke-width:0.8;" x="235.234711" xlink:href="#m7ffb3331c0" y="252"/>
      </g>
     </g>
     <g id="text_4">
      <!-- 6 -->
      <g transform="translate(232.053461 266.598437)scale(0.1 -0.1)">
       <defs>
        <path d="M 2113 2584 
Q 1688 2584 1439 2293 
Q 1191 2003 1191 1497 
Q 1191 994 1439 701 
Q 1688 409 2113 409 
Q 2538 409 2786 701 
Q 3034 994 3034 1497 
Q 3034 2003 2786 2293 
Q 2538 2584 2113 2584 
z
M 3366 4563 
L 3366 3988 
Q 3128 4100 2886 4159 
Q 2644 4219 2406 4219 
Q 1781 4219 1451 3797 
Q 1122 3375 1075 2522 
Q 1259 2794 1537 2939 
Q 1816 3084 2150 3084 
Q 2853 3084 3261 2657 
Q 3669 2231 3669 1497 
Q 3669 778 3244 343 
Q 2819 -91 2113 -91 
Q 1303 -91 875 529 
Q 447 1150 447 2328 
Q 447 3434 972 4092 
Q 1497 4750 2381 4750 
Q 2619 4750 2861 4703 
Q 3103 4656 3366 4563 
z
" id="DejaVuSans-36" transform="scale(0.015625)"/>
       </defs>
       <use xlink:href="#DejaVuSans-36"/>
      </g>
     </g>
    </g>
    <g id="xtick_5">
     <g id="line2d_5">
      <g>
       <use style="stroke:#000000;stroke-width:0.8;" x="290.573554" xlink:href="#m7ffb3331c0" y="252"/>
      </g>
     </g>
     <g id="text_5">
      <!-- 8 -->
      <g transform="translate(287.392304 266.598437)scale(0.1 -0.1)">
       <defs>
        <path d="M 2034 2216 
Q 1584 2216 1326 1975 
Q 1069 1734 1069 1313 
Q 1069 891 1326 650 
Q 1584 409 2034 409 
Q 2484 409 2743 651 
Q 3003 894 3003 1313 
Q 3003 1734 2745 1975 
Q 2488 2216 2034 2216 
z
M 1403 2484 
Q 997 2584 770 2862 
Q 544 3141 544 3541 
Q 544 4100 942 4425 
Q 1341 4750 2034 4750 
Q 2731 4750 3128 4425 
Q 3525 4100 3525 3541 
Q 3525 3141 3298 2862 
Q 3072 2584 2669 2484 
Q 3125 2378 3379 2068 
Q 3634 1759 3634 1313 
Q 3634 634 3220 271 
Q 2806 -91 2034 -91 
Q 1263 -91 848 271 
Q 434 634 434 1313 
Q 434 1759 690 2068 
Q 947 2378 1403 2484 
z
M 1172 3481 
Q 1172 3119 1398 2916 
Q 1625 2713 2034 2713 
Q 2441 2713 2670 2916 
Q 2900 3119 2900 3481 
Q 2900 3844 2670 4047 
Q 2441 4250 2034 4250 
Q 1625 4250 1398 4047 
Q 1172 3844 1172 3481 
z
" id="DejaVuSans-38" transform="scale(0.015625)"/>
       </defs>
       <use xlink:href="#DejaVuSans-38"/>
      </g>
     </g>
    </g>
    <g id="xtick_6">
     <g id="line2d_6">
      <g>
       <use style="stroke:#000000;stroke-width:0.8;" x="345.912397" xlink:href="#m7ffb3331c0" y="252"/>
      </g>
     </g>
     <g id="text_6">
      <!-- 10 -->
      <g transform="translate(339.549897 266.598437)scale(0.1 -0.1)">
       <defs>
        <path d="M 794 531 
L 1825 531 
L 1825 4091 
L 703 3866 
L 703 4441 
L 1819 4666 
L 2450 4666 
L 2450 531 
L 3481 531 
L 3481 0 
L 794 0 
L 794 531 
z
" id="DejaVuSans-31" transform="scale(0.015625)"/>
       </defs>
       <use xlink:href="#DejaVuSans-31"/>
       <use x="63.623047" xlink:href="#DejaVuSans-30"/>
      </g>
     </g>
    </g>
    <g id="text_7">
     <!-- x -->
     <g transform="translate(217.84875 281.79625)scale(0.12 -0.12)">
      <defs>
       <path d="M 3513 3500 
L 2247 1797 
L 3578 0 
L 2900 0 
L 1881 1375 
L 863 0 
L 184 0 
L 1544 1831 
L 300 3500 
L 978 3500 
L 1906 2253 
L 2834 3500 
L 3513 3500 
z
" id="DejaVuSans-78" transform="scale(0.015625)"/>
      </defs>
      <use xlink:href="#DejaVuSans-78"/>
     </g>
    </g>
   </g>
   <g id="matplotlib.axis_2">
    <g id="ytick_1">
     <g id="line2d_7">
      <defs>
       <path d="M 0 0 
L -3.5 0 
" id="mb7bf84aafb" style="stroke:#000000;stroke-width:0.8;"/>
      </defs>
      <g>
       <use style="stroke:#000000;stroke-width:0.8;" x="54" xlink:href="#mb7bf84aafb" y="252"/>
      </g>
     </g>
     <g id="text_8">
      <!-- 3 -->
      <g transform="translate(40.6375 255.799219)scale(0.1 -0.1)">
       <defs>
        <path d="M 2597 2516 
Q 3050 2419 3304 2112 
Q 3559 1806 3559 1356 
Q 3559 666 3084 287 
Q 2609 -91 1734 -91 
Q 1441 -91 1130 -33 
Q 819 25 488 141 
L 488 750 
Q 750 597 1062 519 
Q 1375 441 1716 441 
Q 2309 441 2620 675 
Q 2931 909 2931 1356 
Q 2931 1769 2642 2001 
Q 2353 2234 1838 2234 
L 1294 2234 
L 1294 2753 
L 1863 2753 
Q 2328 2753 2575 2939 
Q 2822 3125 2822 3475 
Q 2822 3834 2567 4026 
Q 2313 4219 1838 4219 
Q 1578 4219 1281 4162 
Q 984 4106 628 3988 
L 628 4550 
Q 988 4650 1302 4700 
Q 1616 4750 1894 4750 
Q 2613 4750 3031 4423 
Q 3450 4097 3450 3541 
Q 3450 3153 3228 2886 
Q 3006 2619 2597 2516 
z
" id="DejaVuSans-33" transform="scale(0.015625)"/>
       </defs>
       <use xlink:href="#DejaVuSans-33"/>
      </g>
     </g>
    </g>
    <g id="ytick_2">
     <g id="line2d_8">
      <g>
       <use style="stroke:#000000;stroke-width:0.8;" x="54" xlink:href="#mb7bf84aafb" y="215.76"/>
      </g>
     </g>
     <g id="text_9">
      <!-- 4 -->
      <g transform="translate(40.6375 219.559219)scale(0.1 -0.1)">
       <use xlink:href="#DejaVuSans-34"/>
      </g>
     </g>
    </g>
    <g id="ytick_3">
     <g id="line2d_9">
      <g>
       <use style="stroke:#000000;stroke-width:0.8;" x="54" xlink:href="#mb7bf84aafb" y="179.52"/>
      </g>
     </g>
     <g id="text_10">
      <!-- 5 -->
      <g transform="translate(40.6375 183.319219)scale(0.1 -0.1)">
       <defs>
        <path d="M 691 4666 
L 3169 4666 
L 3169 4134 
L 1269 4134 
L 1269 2991 
Q 1406 3038 1543 3061 
Q 1681 3084 1819 3084 
Q 2600 3084 3056 2656 
Q 3513 2228 3513 1497 
Q 3513 744 3044 326 
Q 2575 -91 1722 -91 
Q 1428 -91 1123 -41 
Q 819 9 494 109 
L 494 744 
Q 775 591 1075 516 
Q 1375 441 1709 441 
Q 2250 441 2565 725 
Q 2881 1009 2881 1497 
Q 2881 1984 2565 2268 
Q 2250 2553 1709 2553 
Q 1456 2553 1204 2497 
Q 953 2441 691 2322 
L 691 4666 
z
" id="DejaVuSans-35" transform="scale(0.015625)"/>
       </defs>
       <use xlink:href="#DejaVuSans-35"/>
      </g>
     </g>
    </g>
    <g id="ytick_4">
     <g id="line2d_10">
      <g>
       <use style="stroke:#000000;stroke-width:0.8;" x="54" xlink:href="#mb7bf84aafb" y="143.28"/>
      </g>
     </g>
     <g id="text_11">
      <!-- 6 -->
      <g transform="translate(40.6375 147.079219)scale(0.1 -0.1)">
       <use xlink:href="#DejaVuSans-36"/>
      </g>
     </g>
    </g>
    <g id="ytick_5">
     <g id="line2d_11">
      <g>
       <use style="stroke:#000000;stroke-width:0.8;" x="54" xlink:href="#mb7bf84aafb" y="107.04"/>
      </g>
     </g>
     <g id="text_12">
      <!-- 7 -->
      <g transform="translate(40.6375 110.839219)scale(0.1 -0.1)">
       <defs>
        <path d="M 525 4666 
L 3525 4666 
L 3525 4397 
L 1831 0 
L 1172 0 
L 2766 4134 
L 525 4134 
L 525 4666 
z
" id="DejaVuSans-37" transform="scale(0.015625)"/>
       </defs>
       <use xlink:href="#DejaVuSans-37"/>
      </g>
     </g>
    </g>
    <g id="ytick_6">
     <g id="line2d_12">
      <g>
       <use style="stroke:#000000;stroke-width:0.8;" x="54" xlink:href="#mb7bf84aafb" y="70.8"/>
      </g>
     </g>
     <g id="text_13">
      <!-- 8 -->
      <g transform="translate(40.6375 74.599219)scale(0.1 -0.1)">
       <use xlink:href="#DejaVuSans-38"/>
      </g>
     </g>
    </g>
    <g id="ytick_7">
     <g id="line2d_13">
      <g>
       <use style="stroke:#000000;stroke-width:0.8;" x="54" xlink:href="#mb7bf84aafb" y="34.56"/>
      </g>
     </g>
     <g id="text_14">
      <!-- 9 -->
      <g transform="translate(40.6375 38.359219)scale(0.1 -0.1)">
       <defs>
        <path d="M 703 97 
L 703 672 
Q 941 559 1184 500 
Q 1428 441 1663 441 
Q 2288 441 2617 861 
Q 2947 1281 2994 2138 
Q 2813 1869 2534 1725 
Q 2256 1581 1919 1581 
Q 1219 1581 811 2004 
Q 403 2428 403 3163 
Q 403 3881 828 4315 
Q 1253 4750 1959 4750 
Q 2769 4750 3195 4129 
Q 3622 3509 3622 2328 
Q 3622 1225 3098 567 
Q 2575 -91 1691 -91 
Q 1453 -91 1209 -44 
Q 966 3 703 97 
z
M 1959 2075 
Q 2384 2075 2632 2365 
Q 2881 2656 2881 3163 
Q 2881 3666 2632 3958 
Q 2384 4250 1959 4250 
Q 1534 4250 1286 3958 
Q 1038 3666 1038 3163 
Q 1038 2656 1286 2365 
Q 1534 2075 1959 2075 
z
" id="DejaVuSans-39" transform="scale(0.015625)"/>
       </defs>
       <use xlink:href="#DejaVuSans-39"/>
      </g>
     </g>
    </g>
    <g id="text_15">
     <!-- y -->
     <g transform="translate(34.141875 146.83125)rotate(-90)scale(0.12 -0.12)">
      <defs>
       <path d="M 2059 -325 
Q 1816 -950 1584 -1140 
Q 1353 -1331 966 -1331 
L 506 -1331 
L 506 -850 
L 844 -850 
Q 1081 -850 1212 -737 
Q 1344 -625 1503 -206 
L 1606 56 
L 191 3500 
L 800 3500 
L 1894 763 
L 2988 3500 
L 3597 3500 
L 2059 -325 
z
" id="DejaVuSans-79" transform="scale(0.015625)"/>
      </defs>
      <use xlink:href="#DejaVuSans-79"/>
     </g>
    </g>
   </g>
   <g id="line2d_14">
    <path clip-path="url(#p3ba1aeae11)" d="M 69.218182 70.8 
L 71.985124 85.083949 
L 74.752066 98.25467 
L 77.519008 110.364828 
L 80.28595 121.465955 
L 83.052893 131.608455 
L 85.819835 140.841599 
L 88.586777 149.213528 
L 91.353719 156.771253 
L 94.120661 163.560654 
L 96.887603 169.62648 
L 99.654545 175.012349 
L 102.421488 179.76075 
L 105.18843 183.913038 
L 107.955372 187.509441 
L 110.722314 190.589055 
L 113.489256 193.189844 
L 116.256198 195.348643 
L 119.02314 197.101155 
L 121.790083 198.481953 
L 124.557025 199.52448 
L 127.323967 200.261047 
L 130.090909 200.722835 
L 132.857851 200.939895 
L 135.624793 200.941145 
L 138.391736 200.754375 
L 141.158678 200.406243 
L 143.92562 199.922276 
L 146.692562 199.326871 
L 149.459504 198.643294 
L 152.226446 197.89368 
L 154.993388 197.099035 
L 157.760331 196.279231 
L 160.527273 195.453014 
L 163.294215 194.637994 
L 166.061157 193.850655 
L 168.828099 193.106347 
L 171.595041 192.419291 
L 174.361983 191.802577 
L 177.128926 191.268164 
L 179.895868 190.82688 
L 182.66281 190.488424 
L 185.429752 190.261362 
L 188.196694 190.153131 
L 190.963636 190.170037 
L 193.730579 190.317255 
L 196.497521 190.598829 
L 199.264463 191.017673 
L 202.031405 191.575569 
L 204.798347 192.273171 
L 207.565289 193.11 
L 210.332231 194.084446 
L 213.099174 195.193771 
L 215.866116 196.434103 
L 218.633058 197.800442 
L 221.4 199.286655 
L 224.166942 200.88548 
L 226.933884 202.588525 
L 229.700826 204.386264 
L 232.467769 206.268045 
L 235.234711 208.22208 
L 238.001653 210.235455 
L 240.768595 212.294122 
L 243.535537 214.382905 
L 246.302479 216.485496 
L 249.069421 218.584455 
L 251.836364 220.661214 
L 254.603306 222.696071 
L 257.370248 224.668198 
L 260.13719 226.555631 
L 262.904132 228.33528 
L 265.671074 229.982921 
L 268.438017 231.4732 
L 271.204959 232.779634 
L 273.971901 233.874607 
L 276.738843 234.729375 
L 279.505785 235.31406 
L 282.272727 235.597656 
L 285.039669 235.548026 
L 287.806612 235.1319 
L 290.573554 234.31488 
L 293.340496 233.061436 
L 296.107438 231.334908 
L 298.87438 229.097505 
L 301.641322 226.310305 
L 304.408264 222.933255 
L 307.175207 218.925173 
L 309.942149 214.243744 
L 312.709091 208.845524 
L 315.476033 202.685938 
L 318.242975 195.71928 
L 321.009917 187.898713 
L 323.77686 179.176271 
L 326.543802 169.502854 
L 329.310744 158.828236 
L 332.077686 147.101055 
L 334.844628 134.268823 
L 337.61157 120.277918 
L 340.378512 105.073589 
L 343.145455 88.599954 
L 345.912397 70.8 
L 348.679339 51.615584 
L 351.446281 30.987432 
L 354.213223 8.855138 
L 355.363895 -1 
" style="fill:none;stroke:#0000ff;stroke-linecap:square;stroke-width:2;"/>
   </g>
   <g id="line2d_15">
    <path clip-path="url(#p3ba1aeae11)" d="M 69.218182 164.203349 
L 71.985124 161.522644 
L 74.752066 159.53009 
L 77.519008 158.336295 
L 80.28595 158.028145 
L 83.052893 158.658729 
L 85.819835 160.236226 
L 88.586777 162.714325 
L 91.353719 165.98927 
L 94.120661 169.907964 
L 96.887603 174.286035 
L 99.654545 178.929089 
L 102.421488 183.650262 
L 105.18843 188.281399 
L 107.955372 192.678823 
L 110.722314 196.725667 
L 113.489256 200.332344 
L 116.256198 203.436032 
L 119.02314 205.999599 
L 121.790083 208.010139 
L 124.557025 209.47712 
L 127.323967 210.430083 
L 130.090909 210.915779 
L 132.857851 210.994707 
L 135.624793 210.737127 
L 138.391736 210.218749 
L 141.158678 209.516352 
L 143.92562 208.703636 
L 146.692562 207.84753 
L 149.459504 207.005113 
L 152.226446 206.221255 
L 154.993388 205.527045 
L 157.760331 204.939116 
L 160.527273 204.460031 
L 163.294215 204.079921 
L 166.061157 203.779524 
L 168.828099 203.534652 
L 171.595041 203.321886 
L 174.361983 203.125052 
L 177.128926 202.941641 
L 179.895868 202.787769 
L 182.66281 202.699568 
L 185.429752 202.728516 
L 188.196694 202.929665 
L 190.963636 203.345634 
L 193.730579 203.993343 
L 196.497521 204.859675 
L 199.264463 205.9063 
L 202.031405 207.078926 
L 204.798347 208.316264 
L 207.565289 209.55672 
L 210.332231 210.742916 
L 213.099174 211.824797 
L 215.866116 212.761944 
L 218.633058 213.525457 
L 221.4 214.09954 
L 224.166942 214.4828 
L 226.933884 214.689238 
L 229.700826 214.748844 
L 232.467769 214.707727 
L 235.234711 214.627604 
L 238.001653 214.584373 
L 240.768595 214.66518 
L 243.535537 214.962984 
L 246.302479 215.567204 
L 249.069421 216.549533 
L 251.836364 217.946569 
L 254.603306 219.745587 
L 257.370248 221.882264 
L 260.13719 224.253941 
L 262.904132 226.742135 
L 265.671074 229.233541 
L 268.438017 231.632947 
L 271.204959 233.86754 
L 273.971901 235.885077 
L 276.738843 237.648428 
L 279.505785 239.128175 
L 282.272727 240.294464 
L 285.039669 241.109272 
L 287.806612 241.520549 
L 290.573554 241.459741 
L 293.340496 240.843657 
L 296.107438 239.580435 
L 298.87438 237.578219 
L 301.641322 234.754669 
L 304.408264 231.045808 
L 307.175207 226.413308 
L 309.942149 220.849959 
L 312.709091 214.383329 
L 315.476033 207.077785 
L 318.242975 199.035104 
L 321.009917 190.39394 
L 323.77686 181.328388 
L 326.543802 172.04571 
L 329.310744 162.782947 
L 332.077686 153.801501 
L 334.844628 145.378097 
L 337.61157 137.790208 
L 340.378512 131.295473 
L 343.145455 126.10829 
L 345.912397 122.380427 
L 348.679339 120.191654 
L 351.446281 119.550996 
L 354.213223 120.404591 
L 356.980165 122.645972 
L 359.747107 126.1267 
L 362.51405 130.666942 
L 365.280992 136.066039 
L 368.047934 142.11296 
L 370.814876 148.596287 
L 373.581818 155.313276 
" style="fill:none;stroke:#008000;stroke-dasharray:3.7,1.6;stroke-dashoffset:0;"/>
   </g>
   <g id="line2d_16">
    <path clip-path="url(#p3ba1aeae11)" d="M 69.218182 118.081048 
L 71.985124 119.230798 
L 74.752066 120.976775 
L 77.519008 123.298582 
L 80.28595 126.15218 
L 83.052893 129.474941 
L 85.819835 133.194529 
L 88.586777 137.239315 
L 91.353719 141.54535 
L 94.120661 146.055282 
L 96.887603 150.709929 
L 99.654545 155.438706 
L 102.421488 160.155023 
L 105.18843 164.758478 
L 107.955372 169.142012 
L 110.722314 173.201201 
L 113.489256 176.843395 
L 116.256198 179.995253 
L 119.02314 182.607898 
L 121.790083 184.659383 
L 124.557025 186.154552 
L 127.323967 187.122654 
L 130.090909 187.613287 
L 132.857851 187.691301 
L 135.624793 187.431243 
L 138.391736 186.91185 
L 141.158678 186.210948 
L 143.92562 185.401073 
L 146.692562 184.546031 
L 149.459504 183.698566 
L 152.226446 182.899233 
L 154.993388 182.176429 
L 157.760331 181.547369 
L 160.527273 181.019644 
L 163.294215 180.592849 
L 166.061157 180.259763 
L 168.828099 180.006683 
L 171.595041 179.812675 
L 174.361983 179.647877 
L 177.128926 179.471352 
L 179.895868 179.229668 
L 182.66281 178.85818 
L 185.429752 178.287404 
L 188.196694 177.455572 
L 190.963636 176.324555 
L 193.730579 174.892336 
L 196.497521 173.195993 
L 199.264463 171.305169 
L 202.031405 169.310926 
L 204.798347 167.314876 
L 207.565289 165.420696 
L 210.332231 163.728019 
L 213.099174 162.328012 
L 215.866116 161.299997 
L 218.633058 160.708757 
L 221.4 160.602332 
L 224.166942 161.010237 
L 226.933884 161.942056 
L 229.700826 163.386452 
L 232.467769 165.310622 
L 235.234711 167.660355 
L 238.001653 170.360988 
L 240.768595 173.319854 
L 243.535537 176.431291 
L 246.302479 179.585634 
L 249.069421 182.683173 
L 251.836364 185.65143 
L 254.603306 188.45942 
L 257.370248 191.12007 
L 260.13719 193.677127 
L 262.904132 196.182784 
L 265.671074 198.676673 
L 268.438017 201.17277 
L 271.204959 203.654657 
L 273.971901 206.076711 
L 276.738843 208.368811 
L 279.505785 210.443025 
L 282.272727 212.201351 
L 285.039669 213.543656 
L 287.806612 214.374697 
L 290.573554 214.609034 
L 293.340496 214.173163 
L 296.107438 213.005267 
L 298.87438 211.053973 
L 301.641322 208.277779 
L 304.408264 204.646257 
L 307.175207 200.143287 
L 309.942149 194.771781 
L 312.709091 188.558978 
L 315.476033 181.561175 
L 318.242975 173.866772 
L 321.009917 165.596649 
L 323.77686 156.901123 
L 326.543802 147.953299 
L 329.310744 138.939299 
L 332.077686 130.046879 
L 334.844628 121.455004 
L 337.61157 113.327501 
L 340.378512 105.812687 
L 343.145455 99.04724 
L 345.912397 93.158864 
L 348.679339 88.262891 
L 351.446281 84.453131 
L 354.213223 81.79141 
L 356.980165 80.300069 
L 359.747107 79.959115 
L 362.51405 80.707717 
L 365.280992 82.448962 
L 368.047934 85.056799 
L 370.814876 88.384226 
L 373.581818 92.27196 
" style="fill:none;stroke:#008000;stroke-dasharray:3.7,1.6;stroke-dashoffset:0;"/>
   </g>
   <g id="line2d_17">
    <path clip-path="url(#p3ba1aeae11)" d="M 69.218182 251.996645 
L 71.985124 251.999396 
L 74.752066 251.999917 
L 77.519008 251.999991 
L 80.28595 251.999999 
L 83.052893 252 
L 85.819835 252 
L 88.586777 252 
L 91.353719 252 
L 94.120661 252 
L 96.887603 252 
L 99.654545 251.999998 
L 102.421488 251.999984 
L 105.18843 251.999898 
L 107.955372 251.999483 
L 110.722314 251.997973 
L 113.489256 251.993784 
L 116.256198 251.984784 
L 119.02314 251.96953 
L 121.790083 251.948856 
L 124.557025 251.926396 
L 127.323967 251.907288 
L 130.090909 251.89585 
L 132.857851 251.893831 
L 135.624793 251.900157 
L 138.391736 251.911962 
L 141.158678 251.926014 
L 143.92562 251.939749 
L 146.692562 251.951661 
L 149.459504 251.961183 
L 152.226446 251.968365 
L 154.993388 251.973555 
L 157.760331 251.977191 
L 160.527273 251.979696 
L 163.294215 251.981444 
L 166.061157 251.982748 
L 168.828099 251.983853 
L 171.595041 251.984901 
L 174.361983 251.985892 
L 177.128926 251.986649 
L 179.895868 251.986804 
L 182.66281 251.985725 
L 185.429752 251.982218 
L 188.196694 251.973705 
L 190.963636 251.954368 
L 193.730579 251.911936 
L 196.497521 251.8241 
L 199.264463 251.658245 
L 202.031405 251.378832 
L 204.798347 250.961892 
L 207.565289 250.409452 
L 210.332231 249.755911 
L 213.099174 249.063614 
L 215.866116 248.410428 
L 218.633058 247.874236 
L 221.4 247.518556 
L 224.166942 247.381863 
L 226.933884 247.471804 
L 229.700826 247.764722 
L 232.467769 248.210345 
L 235.234711 248.741003 
L 238.001653 249.283898 
L 240.768595 249.773796 
L 243.535537 250.162386 
L 246.302479 250.420574 
L 249.069421 250.532098 
L 251.836364 250.481037 
L 254.603306 250.239981 
L 257.370248 249.767531 
L 260.13719 249.020899 
L 262.904132 247.979676 
L 265.671074 246.666264 
L 268.438017 245.149468 
L 271.204959 243.530467 
L 273.971901 241.921165 
L 276.738843 240.425949 
L 279.505785 239.132872 
L 282.272727 238.115088 
L 285.039669 237.43994 
L 287.806612 237.180374 
L 290.573554 237.420582 
L 293.340496 238.246105 
L 296.107438 239.711326 
L 298.87438 241.786292 
L 301.641322 244.299965 
L 304.408264 246.917151 
L 307.175207 249.202378 
L 309.942149 250.79839 
L 312.709091 251.630472 
L 315.476033 251.926747 
L 318.242975 251.991676 
L 321.009917 251.999517 
L 323.77686 251.999987 
L 326.543802 252 
L 329.310744 252 
L 332.077686 252 
L 334.844628 252 
L 337.61157 252 
L 340.378512 252 
L 343.145455 252 
L 345.912397 252 
L 348.679339 252 
L 351.446281 252 
L 354.213223 252 
L 356.980165 252 
L 359.747107 251.999999 
L 362.51405 251.999979 
L 365.280992 251.999778 
L 368.047934 251.998411 
L 370.814876 251.991971 
L 373.581818 251.969506 
" style="fill:none;stroke:#bfbf00;stroke-dasharray:7.4,3.2;stroke-dashoffset:0;stroke-width:2;"/>
   </g>
   <g id="patch_3">
    <path d="M 54 252 
L 54 34.56 
" style="fill:none;stroke:#000000;stroke-linecap:square;stroke-linejoin:miter;stroke-width:0.8;"/>
   </g>
   <g id="patch_4">
    <path d="M 388.8 252 
L 388.8 34.56 
" style="fill:none;stroke:#000000;stroke-linecap:square;stroke-linejoin:miter;stroke-width:0.8;"/>
   </g>
   <g id="patch_5">
    <path d="M 54 252 
L 388.8 252 
" style="fill:none;stroke:#000000;stroke-linecap:square;stroke-linejoin:miter;stroke-width:0.8;"/>
   </g>
   <g id="patch_6">
    <path d="M 54 34.56 
L 388.8 34.56 
" style="fill:none;stroke:#000000;stroke-linecap:square;stroke-linejoin:miter;stroke-width:0.8;"/>
   </g>
   <g id="text_16">
    <!-- Method : AEI -->
    <g transform="translate(71.985124 244.752)scale(0.12 -0.12)">
     <defs>
      <path d="M 628 4666 
L 1569 4666 
L 2759 1491 
L 3956 4666 
L 4897 4666 
L 4897 0 
L 4281 0 
L 4281 4097 
L 3078 897 
L 2444 897 
L 1241 4097 
L 1241 0 
L 628 0 
L 628 4666 
z
" id="DejaVuSans-4d" transform="scale(0.015625)"/>
      <path d="M 3597 1894 
L 3597 1613 
L 953 1613 
Q 991 1019 1311 708 
Q 1631 397 2203 397 
Q 2534 397 2845 478 
Q 3156 559 3463 722 
L 3463 178 
Q 3153 47 2828 -22 
Q 2503 -91 2169 -91 
Q 1331 -91 842 396 
Q 353 884 353 1716 
Q 353 2575 817 3079 
Q 1281 3584 2069 3584 
Q 2775 3584 3186 3129 
Q 3597 2675 3597 1894 
z
M 3022 2063 
Q 3016 2534 2758 2815 
Q 2500 3097 2075 3097 
Q 1594 3097 1305 2825 
Q 1016 2553 972 2059 
L 3022 2063 
z
" id="DejaVuSans-65" transform="scale(0.015625)"/>
      <path d="M 1172 4494 
L 1172 3500 
L 2356 3500 
L 2356 3053 
L 1172 3053 
L 1172 1153 
Q 1172 725 1289 603 
Q 1406 481 1766 481 
L 2356 481 
L 2356 0 
L 1766 0 
Q 1100 0 847 248 
Q 594 497 594 1153 
L 594 3053 
L 172 3053 
L 172 3500 
L 594 3500 
L 594 4494 
L 1172 4494 
z
" id="DejaVuSans-74" transform="scale(0.015625)"/>
      <path d="M 3513 2113 
L 3513 0 
L 2938 0 
L 2938 2094 
Q 2938 2591 2744 2837 
Q 2550 3084 2163 3084 
Q 1697 3084 1428 2787 
Q 1159 2491 1159 1978 
L 1159 0 
L 581 0 
L 581 4863 
L 1159 4863 
L 1159 2956 
Q 1366 3272 1645 3428 
Q 1925 3584 2291 3584 
Q 2894 3584 3203 3211 
Q 3513 2838 3513 2113 
z
" id="DejaVuSans-68" transform="scale(0.015625)"/>
      <path d="M 1959 3097 
Q 1497 3097 1228 2736 
Q 959 2375 959 1747 
Q 959 1119 1226 758 
Q 1494 397 1959 397 
Q 2419 397 2687 759 
Q 2956 1122 2956 1747 
Q 2956 2369 2687 2733 
Q 2419 3097 1959 3097 
z
M 1959 3584 
Q 2709 3584 3137 3096 
Q 3566 2609 3566 1747 
Q 3566 888 3137 398 
Q 2709 -91 1959 -91 
Q 1206 -91 779 398 
Q 353 888 353 1747 
Q 353 2609 779 3096 
Q 1206 3584 1959 3584 
z
" id="DejaVuSans-6f" transform="scale(0.015625)"/>
      <path d="M 2906 2969 
L 2906 4863 
L 3481 4863 
L 3481 0 
L 2906 0 
L 2906 525 
Q 2725 213 2448 61 
Q 2172 -91 1784 -91 
Q 1150 -91 751 415 
Q 353 922 353 1747 
Q 353 2572 751 3078 
Q 1150 3584 1784 3584 
Q 2172 3584 2448 3432 
Q 2725 3281 2906 2969 
z
M 947 1747 
Q 947 1113 1208 752 
Q 1469 391 1925 391 
Q 2381 391 2643 752 
Q 2906 1113 2906 1747 
Q 2906 2381 2643 2742 
Q 2381 3103 1925 3103 
Q 1469 3103 1208 2742 
Q 947 2381 947 1747 
z
" id="DejaVuSans-64" transform="scale(0.015625)"/>
      <path id="DejaVuSans-20" transform="scale(0.015625)"/>
      <path d="M 750 794 
L 1409 794 
L 1409 0 
L 750 0 
L 750 794 
z
M 750 3309 
L 1409 3309 
L 1409 2516 
L 750 2516 
L 750 3309 
z
" id="DejaVuSans-3a" transform="scale(0.015625)"/>
      <path d="M 2188 4044 
L 1331 1722 
L 3047 1722 
L 2188 4044 
z
M 1831 4666 
L 2547 4666 
L 4325 0 
L 3669 0 
L 3244 1197 
L 1141 1197 
L 716 0 
L 50 0 
L 1831 4666 
z
" id="DejaVuSans-41" transform="scale(0.015625)"/>
      <path d="M 628 4666 
L 3578 4666 
L 3578 4134 
L 1259 4134 
L 1259 2753 
L 3481 2753 
L 3481 2222 
L 1259 2222 
L 1259 531 
L 3634 531 
L 3634 0 
L 628 0 
L 628 4666 
z
" id="DejaVuSans-45" transform="scale(0.015625)"/>
      <path d="M 628 4666 
L 1259 4666 
L 1259 0 
L 628 0 
L 628 4666 
z
" id="DejaVuSans-49" transform="scale(0.015625)"/>
     </defs>
     <use xlink:href="#DejaVuSans-4d"/>
     <use x="86.279297" xlink:href="#DejaVuSans-65"/>
     <use x="147.802734" xlink:href="#DejaVuSans-74"/>
     <use x="187.011719" xlink:href="#DejaVuSans-68"/>
     <use x="250.390625" xlink:href="#DejaVuSans-6f"/>
     <use x="311.572266" xlink:href="#DejaVuSans-64"/>
     <use x="375.048828" xlink:href="#DejaVuSans-20"/>
     <use x="406.835938" xlink:href="#DejaVuSans-3a"/>
     <use x="440.527344" xlink:href="#DejaVuSans-20"/>
     <use x="472.314453" xlink:href="#DejaVuSans-41"/>
     <use x="540.722656" xlink:href="#DejaVuSans-45"/>
     <use x="603.90625" xlink:href="#DejaVuSans-49"/>
    </g>
   </g>
   <g id="text_17">
    <!-- Iter=3 -->
    <g transform="translate(71.985124 226.632)scale(0.12 -0.12)">
     <defs>
      <path d="M 2631 2963 
Q 2534 3019 2420 3045 
Q 2306 3072 2169 3072 
Q 1681 3072 1420 2755 
Q 1159 2438 1159 1844 
L 1159 0 
L 581 0 
L 581 3500 
L 1159 3500 
L 1159 2956 
Q 1341 3275 1631 3429 
Q 1922 3584 2338 3584 
Q 2397 3584 2469 3576 
Q 2541 3569 2628 3553 
L 2631 2963 
z
" id="DejaVuSans-72" transform="scale(0.015625)"/>
      <path d="M 678 2906 
L 4684 2906 
L 4684 2381 
L 678 2381 
L 678 2906 
z
M 678 1631 
L 4684 1631 
L 4684 1100 
L 678 1100 
L 678 1631 
z
" id="DejaVuSans-3d" transform="scale(0.015625)"/>
     </defs>
     <use xlink:href="#DejaVuSans-49"/>
     <use x="29.492188" xlink:href="#DejaVuSans-74"/>
     <use x="68.701172" xlink:href="#DejaVuSans-65"/>
     <use x="130.224609" xlink:href="#DejaVuSans-72"/>
     <use x="171.337891" xlink:href="#DejaVuSans-3d"/>
     <use x="255.126953" xlink:href="#DejaVuSans-33"/>
    </g>
   </g>
   <g id="legend_1">
    <g id="patch_7">
     <path d="M 144.327812 140.235625 
L 298.472188 140.235625 
Q 300.672188 140.235625 300.672188 138.035625 
L 300.672188 42.26 
Q 300.672188 40.06 298.472188 40.06 
L 144.327812 40.06 
Q 142.127813 40.06 142.127813 42.26 
L 142.127813 138.035625 
Q 142.127813 140.235625 144.327812 140.235625 
z
" style="fill:#ffffff;opacity:0.8;stroke:#cccccc;stroke-linejoin:miter;"/>
    </g>
    <g id="line2d_18">
     <path d="M 146.527813 48.968281 
L 168.527813 48.968281 
" style="fill:none;stroke:#0000ff;stroke-linecap:square;stroke-width:2;"/>
    </g>
    <g id="line2d_19"/>
    <g id="text_18">
     <!-- ture function -->
     <g transform="translate(177.327813 52.818281)scale(0.11 -0.11)">
      <defs>
       <path d="M 544 1381 
L 544 3500 
L 1119 3500 
L 1119 1403 
Q 1119 906 1312 657 
Q 1506 409 1894 409 
Q 2359 409 2629 706 
Q 2900 1003 2900 1516 
L 2900 3500 
L 3475 3500 
L 3475 0 
L 2900 0 
L 2900 538 
Q 2691 219 2414 64 
Q 2138 -91 1772 -91 
Q 1169 -91 856 284 
Q 544 659 544 1381 
z
M 1991 3584 
L 1991 3584 
z
" id="DejaVuSans-75" transform="scale(0.015625)"/>
       <path d="M 2375 4863 
L 2375 4384 
L 1825 4384 
Q 1516 4384 1395 4259 
Q 1275 4134 1275 3809 
L 1275 3500 
L 2222 3500 
L 2222 3053 
L 1275 3053 
L 1275 0 
L 697 0 
L 697 3053 
L 147 3053 
L 147 3500 
L 697 3500 
L 697 3744 
Q 697 4328 969 4595 
Q 1241 4863 1831 4863 
L 2375 4863 
z
" id="DejaVuSans-66" transform="scale(0.015625)"/>
       <path d="M 3513 2113 
L 3513 0 
L 2938 0 
L 2938 2094 
Q 2938 2591 2744 2837 
Q 2550 3084 2163 3084 
Q 1697 3084 1428 2787 
Q 1159 2491 1159 1978 
L 1159 0 
L 581 0 
L 581 3500 
L 1159 3500 
L 1159 2956 
Q 1366 3272 1645 3428 
Q 1925 3584 2291 3584 
Q 2894 3584 3203 3211 
Q 3513 2838 3513 2113 
z
" id="DejaVuSans-6e" transform="scale(0.015625)"/>
       <path d="M 3122 3366 
L 3122 2828 
Q 2878 2963 2633 3030 
Q 2388 3097 2138 3097 
Q 1578 3097 1268 2742 
Q 959 2388 959 1747 
Q 959 1106 1268 751 
Q 1578 397 2138 397 
Q 2388 397 2633 464 
Q 2878 531 3122 666 
L 3122 134 
Q 2881 22 2623 -34 
Q 2366 -91 2075 -91 
Q 1284 -91 818 406 
Q 353 903 353 1747 
Q 353 2603 823 3093 
Q 1294 3584 2113 3584 
Q 2378 3584 2631 3529 
Q 2884 3475 3122 3366 
z
" id="DejaVuSans-63" transform="scale(0.015625)"/>
       <path d="M 603 3500 
L 1178 3500 
L 1178 0 
L 603 0 
L 603 3500 
z
M 603 4863 
L 1178 4863 
L 1178 4134 
L 603 4134 
L 603 4863 
z
" id="DejaVuSans-69" transform="scale(0.015625)"/>
      </defs>
      <use xlink:href="#DejaVuSans-74"/>
      <use x="39.208984" xlink:href="#DejaVuSans-75"/>
      <use x="102.587891" xlink:href="#DejaVuSans-72"/>
      <use x="141.451172" xlink:href="#DejaVuSans-65"/>
      <use x="202.974609" xlink:href="#DejaVuSans-20"/>
      <use x="234.761719" xlink:href="#DejaVuSans-66"/>
      <use x="269.966797" xlink:href="#DejaVuSans-75"/>
      <use x="333.345703" xlink:href="#DejaVuSans-6e"/>
      <use x="396.724609" xlink:href="#DejaVuSans-63"/>
      <use x="451.705078" xlink:href="#DejaVuSans-74"/>
      <use x="490.914062" xlink:href="#DejaVuSans-69"/>
      <use x="518.697266" xlink:href="#DejaVuSans-6f"/>
      <use x="579.878906" xlink:href="#DejaVuSans-6e"/>
     </g>
    </g>
    <g id="line2d_20">
     <path d="M 146.527813 65.114219 
L 168.527813 65.114219 
" style="fill:none;stroke:#000000;stroke-dasharray:7.4,3.2;stroke-dashoffset:0;stroke-width:2;"/>
    </g>
    <g id="line2d_21"/>
    <g id="text_19">
     <!-- predicted function -->
     <g transform="translate(177.327813 68.964219)scale(0.11 -0.11)">
      <defs>
       <path d="M 1159 525 
L 1159 -1331 
L 581 -1331 
L 581 3500 
L 1159 3500 
L 1159 2969 
Q 1341 3281 1617 3432 
Q 1894 3584 2278 3584 
Q 2916 3584 3314 3078 
Q 3713 2572 3713 1747 
Q 3713 922 3314 415 
Q 2916 -91 2278 -91 
Q 1894 -91 1617 61 
Q 1341 213 1159 525 
z
M 3116 1747 
Q 3116 2381 2855 2742 
Q 2594 3103 2138 3103 
Q 1681 3103 1420 2742 
Q 1159 2381 1159 1747 
Q 1159 1113 1420 752 
Q 1681 391 2138 391 
Q 2594 391 2855 752 
Q 3116 1113 3116 1747 
z
" id="DejaVuSans-70" transform="scale(0.015625)"/>
      </defs>
      <use xlink:href="#DejaVuSans-70"/>
      <use x="63.476562" xlink:href="#DejaVuSans-72"/>
      <use x="102.339844" xlink:href="#DejaVuSans-65"/>
      <use x="163.863281" xlink:href="#DejaVuSans-64"/>
      <use x="227.339844" xlink:href="#DejaVuSans-69"/>
      <use x="255.123047" xlink:href="#DejaVuSans-63"/>
      <use x="310.103516" xlink:href="#DejaVuSans-74"/>
      <use x="349.3125" xlink:href="#DejaVuSans-65"/>
      <use x="410.835938" xlink:href="#DejaVuSans-64"/>
      <use x="474.3125" xlink:href="#DejaVuSans-20"/>
      <use x="506.099609" xlink:href="#DejaVuSans-66"/>
      <use x="541.304688" xlink:href="#DejaVuSans-75"/>
      <use x="604.683594" xlink:href="#DejaVuSans-6e"/>
      <use x="668.0625" xlink:href="#DejaVuSans-63"/>
      <use x="723.042969" xlink:href="#DejaVuSans-74"/>
      <use x="762.251953" xlink:href="#DejaVuSans-69"/>
      <use x="790.035156" xlink:href="#DejaVuSans-6f"/>
      <use x="851.216797" xlink:href="#DejaVuSans-6e"/>
     </g>
    </g>
    <g id="line2d_22">
     <path d="M 146.527813 81.260156 
L 168.527813 81.260156 
" style="fill:none;stroke:#008000;stroke-dasharray:3.7,1.6;stroke-dashoffset:0;"/>
    </g>
    <g id="line2d_23"/>
    <g id="text_20">
     <!--  ± Sn(x) -->
     <g transform="translate(177.327813 85.110156)scale(0.11 -0.11)">
      <defs>
       <path d="M 2944 4013 
L 2944 2803 
L 4684 2803 
L 4684 2272 
L 2944 2272 
L 2944 1063 
L 2419 1063 
L 2419 2272 
L 678 2272 
L 678 2803 
L 2419 2803 
L 2419 4013 
L 2944 4013 
z
M 678 531 
L 4684 531 
L 4684 0 
L 678 0 
L 678 531 
z
" id="DejaVuSans-b1" transform="scale(0.015625)"/>
       <path d="M 3425 4513 
L 3425 3897 
Q 3066 4069 2747 4153 
Q 2428 4238 2131 4238 
Q 1616 4238 1336 4038 
Q 1056 3838 1056 3469 
Q 1056 3159 1242 3001 
Q 1428 2844 1947 2747 
L 2328 2669 
Q 3034 2534 3370 2195 
Q 3706 1856 3706 1288 
Q 3706 609 3251 259 
Q 2797 -91 1919 -91 
Q 1588 -91 1214 -16 
Q 841 59 441 206 
L 441 856 
Q 825 641 1194 531 
Q 1563 422 1919 422 
Q 2459 422 2753 634 
Q 3047 847 3047 1241 
Q 3047 1584 2836 1778 
Q 2625 1972 2144 2069 
L 1759 2144 
Q 1053 2284 737 2584 
Q 422 2884 422 3419 
Q 422 4038 858 4394 
Q 1294 4750 2059 4750 
Q 2388 4750 2728 4690 
Q 3069 4631 3425 4513 
z
" id="DejaVuSans-53" transform="scale(0.015625)"/>
       <path d="M 1984 4856 
Q 1566 4138 1362 3434 
Q 1159 2731 1159 2009 
Q 1159 1288 1364 580 
Q 1569 -128 1984 -844 
L 1484 -844 
Q 1016 -109 783 600 
Q 550 1309 550 2009 
Q 550 2706 781 3412 
Q 1013 4119 1484 4856 
L 1984 4856 
z
" id="DejaVuSans-28" transform="scale(0.015625)"/>
       <path d="M 513 4856 
L 1013 4856 
Q 1481 4119 1714 3412 
Q 1947 2706 1947 2009 
Q 1947 1309 1714 600 
Q 1481 -109 1013 -844 
L 513 -844 
Q 928 -128 1133 580 
Q 1338 1288 1338 2009 
Q 1338 2731 1133 3434 
Q 928 4138 513 4856 
z
" id="DejaVuSans-29" transform="scale(0.015625)"/>
      </defs>
      <use xlink:href="#DejaVuSans-20"/>
      <use x="31.787109" xlink:href="#DejaVuSans-b1"/>
      <use x="115.576172" xlink:href="#DejaVuSans-20"/>
      <use x="147.363281" xlink:href="#DejaVuSans-53"/>
      <use x="210.839844" xlink:href="#DejaVuSans-6e"/>
      <use x="274.21875" xlink:href="#DejaVuSans-28"/>
      <use x="313.232422" xlink:href="#DejaVuSans-78"/>
      <use x="372.412109" xlink:href="#DejaVuSans-29"/>
     </g>
    </g>
    <g id="line2d_24">
     <path d="M 146.527813 97.406094 
L 168.527813 97.406094 
" style="fill:none;stroke:#bfbf00;stroke-dasharray:7.4,3.2;stroke-dashoffset:0;stroke-width:2;"/>
    </g>
    <g id="line2d_25"/>
    <g id="text_21">
     <!-- AEI(x) -->
     <g transform="translate(177.327813 101.256094)scale(0.11 -0.11)">
      <use xlink:href="#DejaVuSans-41"/>
      <use x="68.408203" xlink:href="#DejaVuSans-45"/>
      <use x="131.591797" xlink:href="#DejaVuSans-49"/>
      <use x="161.083984" xlink:href="#DejaVuSans-28"/>
      <use x="200.097656" xlink:href="#DejaVuSans-78"/>
      <use x="259.277344" xlink:href="#DejaVuSans-29"/>
     </g>
    </g>
    <g id="PathCollection_2">
     <defs>
      <path d="M 0 3.535534 
C 0.937635 3.535534 1.836992 3.163008 2.5 2.5 
C 3.163008 1.836992 3.535534 0.937635 3.535534 0 
C 3.535534 -0.937635 3.163008 -1.836992 2.5 -2.5 
C 1.836992 -3.163008 0.937635 -3.535534 0 -3.535534 
C -0.937635 -3.535534 -1.836992 -3.163008 -2.5 -2.5 
C -3.163008 -1.836992 -3.535534 -0.937635 -3.535534 0 
C -3.535534 0.937635 -3.163008 1.836992 -2.5 2.5 
C -1.836992 3.163008 -0.937635 3.535534 0 3.535534 
z
" id="me61a6d8f63" style="stroke:#000000;"/>
     </defs>
     <g>
      <use style="fill:#ff0000;stroke:#000000;" x="157.527813" xlink:href="#me61a6d8f63" y="114.514531"/>
     </g>
    </g>
    <g id="text_22">
     <!-- training data -->
     <g transform="translate(177.327813 117.402031)scale(0.11 -0.11)">
      <defs>
       <path d="M 2194 1759 
Q 1497 1759 1228 1600 
Q 959 1441 959 1056 
Q 959 750 1161 570 
Q 1363 391 1709 391 
Q 2188 391 2477 730 
Q 2766 1069 2766 1631 
L 2766 1759 
L 2194 1759 
z
M 3341 1997 
L 3341 0 
L 2766 0 
L 2766 531 
Q 2569 213 2275 61 
Q 1981 -91 1556 -91 
Q 1019 -91 701 211 
Q 384 513 384 1019 
Q 384 1609 779 1909 
Q 1175 2209 1959 2209 
L 2766 2209 
L 2766 2266 
Q 2766 2663 2505 2880 
Q 2244 3097 1772 3097 
Q 1472 3097 1187 3025 
Q 903 2953 641 2809 
L 641 3341 
Q 956 3463 1253 3523 
Q 1550 3584 1831 3584 
Q 2591 3584 2966 3190 
Q 3341 2797 3341 1997 
z
" id="DejaVuSans-61" transform="scale(0.015625)"/>
       <path d="M 2906 1791 
Q 2906 2416 2648 2759 
Q 2391 3103 1925 3103 
Q 1463 3103 1205 2759 
Q 947 2416 947 1791 
Q 947 1169 1205 825 
Q 1463 481 1925 481 
Q 2391 481 2648 825 
Q 2906 1169 2906 1791 
z
M 3481 434 
Q 3481 -459 3084 -895 
Q 2688 -1331 1869 -1331 
Q 1566 -1331 1297 -1286 
Q 1028 -1241 775 -1147 
L 775 -588 
Q 1028 -725 1275 -790 
Q 1522 -856 1778 -856 
Q 2344 -856 2625 -561 
Q 2906 -266 2906 331 
L 2906 616 
Q 2728 306 2450 153 
Q 2172 0 1784 0 
Q 1141 0 747 490 
Q 353 981 353 1791 
Q 353 2603 747 3093 
Q 1141 3584 1784 3584 
Q 2172 3584 2450 3431 
Q 2728 3278 2906 2969 
L 2906 3500 
L 3481 3500 
L 3481 434 
z
" id="DejaVuSans-67" transform="scale(0.015625)"/>
      </defs>
      <use xlink:href="#DejaVuSans-74"/>
      <use x="39.208984" xlink:href="#DejaVuSans-72"/>
      <use x="80.322266" xlink:href="#DejaVuSans-61"/>
      <use x="141.601562" xlink:href="#DejaVuSans-69"/>
      <use x="169.384766" xlink:href="#DejaVuSans-6e"/>
      <use x="232.763672" xlink:href="#DejaVuSans-69"/>
      <use x="260.546875" xlink:href="#DejaVuSans-6e"/>
      <use x="323.925781" xlink:href="#DejaVuSans-67"/>
      <use x="387.402344" xlink:href="#DejaVuSans-20"/>
      <use x="419.189453" xlink:href="#DejaVuSans-64"/>
      <use x="482.666016" xlink:href="#DejaVuSans-61"/>
      <use x="543.945312" xlink:href="#DejaVuSans-74"/>
      <use x="583.154297" xlink:href="#DejaVuSans-61"/>
     </g>
    </g>
    <g id="PathCollection_3">
     <g>
      <use style="fill:#ff0000;stroke:#ff0000;stroke-width:8;" x="157.527813" xlink:href="#m3e52a811c3" y="130.660469"/>
     </g>
    </g>
    <g id="text_23">
     <!-- recommended datum -->
     <g transform="translate(177.327813 133.547969)scale(0.11 -0.11)">
      <defs>
       <path d="M 3328 2828 
Q 3544 3216 3844 3400 
Q 4144 3584 4550 3584 
Q 5097 3584 5394 3201 
Q 5691 2819 5691 2113 
L 5691 0 
L 5113 0 
L 5113 2094 
Q 5113 2597 4934 2840 
Q 4756 3084 4391 3084 
Q 3944 3084 3684 2787 
Q 3425 2491 3425 1978 
L 3425 0 
L 2847 0 
L 2847 2094 
Q 2847 2600 2669 2842 
Q 2491 3084 2119 3084 
Q 1678 3084 1418 2786 
Q 1159 2488 1159 1978 
L 1159 0 
L 581 0 
L 581 3500 
L 1159 3500 
L 1159 2956 
Q 1356 3278 1631 3431 
Q 1906 3584 2284 3584 
Q 2666 3584 2933 3390 
Q 3200 3197 3328 2828 
z
" id="DejaVuSans-6d" transform="scale(0.015625)"/>
      </defs>
      <use xlink:href="#DejaVuSans-72"/>
      <use x="38.863281" xlink:href="#DejaVuSans-65"/>
      <use x="100.386719" xlink:href="#DejaVuSans-63"/>
      <use x="155.367188" xlink:href="#DejaVuSans-6f"/>
      <use x="216.548828" xlink:href="#DejaVuSans-6d"/>
      <use x="313.960938" xlink:href="#DejaVuSans-6d"/>
      <use x="411.373047" xlink:href="#DejaVuSans-65"/>
      <use x="472.896484" xlink:href="#DejaVuSans-6e"/>
      <use x="536.275391" xlink:href="#DejaVuSans-64"/>
      <use x="599.751953" xlink:href="#DejaVuSans-65"/>
      <use x="661.275391" xlink:href="#DejaVuSans-64"/>
      <use x="724.751953" xlink:href="#DejaVuSans-20"/>
      <use x="756.539062" xlink:href="#DejaVuSans-64"/>
      <use x="820.015625" xlink:href="#DejaVuSans-61"/>
      <use x="881.294922" xlink:href="#DejaVuSans-74"/>
      <use x="920.503906" xlink:href="#DejaVuSans-75"/>
      <use x="983.882812" xlink:href="#DejaVuSans-6d"/>
     </g>
    </g>
   </g>
   <g id="line2d_26">
    <path clip-path="url(#p3ba1aeae11)" d="M 69.218182 141.142199 
L 71.985124 140.376721 
L 74.752066 140.253432 
L 77.519008 140.817439 
L 80.28595 142.090163 
L 83.052893 144.066835 
L 85.819835 146.715377 
L 88.586777 149.97682 
L 91.353719 153.76731 
L 94.120661 157.981623 
L 96.887603 162.497982 
L 99.654545 167.183898 
L 102.421488 171.902642 
L 105.18843 176.519938 
L 107.955372 180.910417 
L 110.722314 184.963434 
L 113.489256 188.58787 
L 116.256198 191.715643 
L 119.02314 194.303748 
L 121.790083 196.334761 
L 124.557025 197.815836 
L 127.323967 198.776368 
L 130.090909 199.264533 
L 132.857851 199.343004 
L 135.624793 199.084185 
L 138.391736 198.5653 
L 141.158678 197.86365 
L 143.92562 197.052355 
L 146.692562 196.19678 
L 149.459504 195.351839 
L 152.226446 194.560244 
L 154.993388 193.851737 
L 157.760331 193.243243 
L 160.527273 192.739838 
L 163.294215 192.336385 
L 166.061157 192.019644 
L 168.828099 191.770668 
L 171.595041 191.567281 
L 174.361983 191.386465 
L 177.128926 191.206496 
L 179.895868 191.008719 
L 182.66281 190.778874 
L 185.429752 190.50796 
L 188.196694 190.192618 
L 190.963636 189.835095 
L 193.730579 189.442839 
L 196.497521 189.027834 
L 199.264463 188.605734 
L 202.031405 188.194926 
L 204.798347 187.81557 
L 207.565289 187.488708 
L 210.332231 187.235467 
L 213.099174 187.076404 
L 215.866116 187.03097 
L 218.633058 187.117107 
L 221.4 187.350936 
L 224.166942 187.746518 
L 226.933884 188.315647 
L 229.700826 189.067648 
L 232.467769 190.009174 
L 235.234711 191.14398 
L 238.001653 192.47268 
L 240.768595 193.992517 
L 243.535537 195.697137 
L 246.302479 197.576419 
L 249.069421 199.616353 
L 251.836364 201.798999 
L 254.603306 204.102504 
L 257.370248 206.501167 
L 260.13719 208.965534 
L 262.904132 211.462459 
L 265.671074 213.955107 
L 268.438017 216.402859 
L 271.204959 218.761098 
L 273.971901 220.980894 
L 276.738843 223.00862 
L 279.505785 224.7856 
L 282.272727 226.247907 
L 285.039669 227.326464 
L 287.806612 227.947623 
L 290.573554 228.034388 
L 293.340496 227.50841 
L 296.107438 226.292851 
L 298.87438 224.316096 
L 301.641322 221.516224 
L 304.408264 217.846032 
L 307.175207 213.278297 
L 309.942149 207.81087 
L 312.709091 201.471154 
L 315.476033 194.31948 
L 318.242975 186.450938 
L 321.009917 177.995294 
L 323.77686 169.114755 
L 326.543802 159.999505 
L 329.310744 150.861123 
L 332.077686 141.92419 
L 334.844628 133.416551 
L 337.61157 125.558855 
L 340.378512 118.55408 
L 343.145455 112.577765 
L 345.912397 107.769645 
L 348.679339 104.227272 
L 351.446281 102.002063 
L 354.213223 101.098 
L 356.980165 101.47302 
L 359.747107 103.042908 
L 362.51405 105.687329 
L 365.280992 109.257501 
L 368.047934 113.58488 
L 370.814876 118.490257 
L 373.581818 123.792618 
" style="fill:none;stroke:#000000;stroke-dasharray:7.4,3.2;stroke-dashoffset:0;stroke-width:2;"/>
   </g>
   <g id="PathCollection_4">
    <g clip-path="url(#p3ba1aeae11)">
     <use style="fill:#ff0000;stroke:#000000;" x="83.052893" xlink:href="#me61a6d8f63" y="129.399309"/>
     <use style="fill:#ff0000;stroke:#000000;" x="96.887603" xlink:href="#me61a6d8f63" y="162.429541"/>
     <use style="fill:#ff0000;stroke:#000000;" x="110.722314" xlink:href="#me61a6d8f63" y="193.170209"/>
     <use style="fill:#ff0000;stroke:#000000;" x="124.557025" xlink:href="#me61a6d8f63" y="199.248575"/>
     <use style="fill:#ff0000;stroke:#000000;" x="138.391736" xlink:href="#me61a6d8f63" y="199.347548"/>
     <use style="fill:#ff0000;stroke:#000000;" x="152.226446" xlink:href="#me61a6d8f63" y="191.611971"/>
     <use style="fill:#ff0000;stroke:#000000;" x="166.061157" xlink:href="#me61a6d8f63" y="193.66847"/>
     <use style="fill:#ff0000;stroke:#000000;" x="179.895868" xlink:href="#me61a6d8f63" y="193.283098"/>
     <use style="fill:#ff0000;stroke:#000000;" x="193.730579" xlink:href="#me61a6d8f63" y="188.924027"/>
     <use style="fill:#ff0000;stroke:#000000;" x="318.242975" xlink:href="#me61a6d8f63" y="199.289596"/>
     <use style="fill:#ff0000;stroke:#000000;" x="332.077686" xlink:href="#me61a6d8f63" y="145.37007"/>
     <use style="fill:#ff0000;stroke:#000000;" x="345.912397" xlink:href="#me61a6d8f63" y="78.407322"/>
     <use style="fill:#ff0000;stroke:#000000;" x="298.87438" xlink:href="#me61a6d8f63" y="224.202285"/>
     <use style="fill:#ff0000;stroke:#000000;" x="279.505785" xlink:href="#me61a6d8f63" y="231.698313"/>
     <use style="fill:#ff0000;stroke:#000000;" x="251.836364" xlink:href="#me61a6d8f63" y="202.144577"/>
    </g>
   </g>
  </g>
 </g>
 <defs>
  <clipPath id="p3ba1aeae11">
   <rect height="217.44" width="334.8" x="54" y="34.56"/>
  </clipPath>
 </defs>
</svg>
