<?xml version="1.0" encoding="utf-8" standalone="no"?>
<!DOCTYPE svg PUBLIC "-//W3C//DTD SVG 1.1//EN"
  "http://www.w3.org/Graphics/SVG/1.1/DTD/svg11.dtd">
<svg height="288pt" version="1.1" viewBox="0 0 432 288" width="432pt" xmlns="http://www.w3.org/2000/svg" xmlns:xlink="http://www.w3.org/1999/xlink">
 <metadata>
  <rdf:RDF xmlns:cc="http://creativecommons.org/ns#" xmlns:dc="http://purl.org/dc/elements/1.1/" xmlns:rdf="http://www.w3.org/1999/02/22-rdf-syntax-ns#">
   <cc:Work>
    <dc:type rdf:resource="http://purl.org/dc/dcmitype/StillImage"/>
    <dc:date>2022-08-04T11:40:40.243527</dc:date>
    <dc:format>image/svg+xml</dc:format>
    <dc:creator>
     <cc:Agent>
      <dc:title>Matplotlib v3.4.3, https://matplotlib.org/</dc:title>
     </cc:Agent>
    </dc:creator>
   </cc:Work>
  </rdf:RDF>
 </metadata>
 <defs>
  <style type="text/css">*{stroke-linecap:butt;stroke-linejoin:round;}</style>
 </defs>
 <g id="figure_1">
  <g id="patch_1">
   <path d="M 0 288 
L 432 288 
L 432 0 
L 0 0 
z
" style="fill:none;"/>
  </g>
  <g id="axes_1">
   <g id="patch_2">
    <path d="M 54 252 
L 388.8 252 
L 388.8 34.56 
L 54 34.56 
z
" style="fill:#ffffff;"/>
   </g>
   <g id="PolyCollection_1">
    <defs>
     <path d="M 69.218182 -171.12467 
L 69.218182 -122.169533 
L 71.985124 -125.78048 
L 74.752066 -128.667491 
L 77.519008 -130.636836 
L 80.28595 -131.524636 
L 83.052893 -131.218921 
L 85.819835 -129.684509 
L 88.586777 -126.982653 
L 91.353719 -123.271616 
L 94.120661 -118.781552 
L 96.887603 -113.775069 
L 99.654545 -108.512238 
L 102.421488 -103.229331 
L 105.18843 -98.129439 
L 107.955372 -93.379719 
L 110.722314 -89.111386 
L 113.489256 -85.420453 
L 116.256198 -82.368484 
L 119.02314 -79.983358 
L 121.790083 -78.260509 
L 124.557025 -77.165291 
L 127.323967 -76.636915 
L 130.090909 -76.594037 
L 132.857851 -76.941578 
L 135.624793 -77.578132 
L 138.391736 -78.403139 
L 141.158678 -79.323167 
L 143.92562 -80.256778 
L 146.692562 -81.137774 
L 149.459504 -81.916826 
L 152.226446 -82.561777 
L 154.993388 -83.057014 
L 157.760331 -83.402377 
L 160.527273 -83.611909 
L 163.294215 -83.712459 
L 166.061157 -83.741722 
L 168.828099 -83.745001 
L 171.595041 -83.769928 
L 174.361983 -83.85874 
L 177.128926 -84.038409 
L 179.895868 -84.309862 
L 182.66281 -84.638996 
L 185.429752 -84.954209 
L 188.196694 -85.156612 
L 190.963636 -85.145643 
L 193.730579 -84.851545 
L 196.497521 -84.256487 
L 199.264463 -83.393216 
L 202.031405 -82.327826 
L 204.798347 -81.140156 
L 207.565289 -79.909284 
L 210.332231 -78.704809 
L 213.099174 -77.582172 
L 215.866116 -76.58054 
L 218.633058 -75.722415 
L 221.4 -75.014573 
L 224.166942 -74.450006 
L 226.933884 -74.010568 
L 229.700826 -73.669977 
L 232.467769 -73.396809 
L 235.234711 -73.157198 
L 238.001653 -72.917036 
L 240.768595 -72.643616 
L 243.535537 -72.306796 
L 246.302479 -71.879832 
L 249.069421 -71.340114 
L 251.836364 -70.669948 
L 254.603306 -69.857482 
L 257.370248 -68.897725 
L 260.13719 -67.793513 
L 262.904132 -66.556208 
L 265.671074 -65.205908 
L 268.438017 -63.771023 
L 271.204959 -62.287164 
L 273.971901 -60.795435 
L 276.738843 -59.340312 
L 279.505785 -57.967394 
L 282.272727 -56.721349 
L 285.039669 -55.644467 
L 287.806612 -54.776439 
L 290.573554 -54.156411 
L 293.340496 -53.829107 
L 296.107438 -53.856921 
L 298.87438 -54.337253 
L 301.641322 -55.416953 
L 304.408264 -57.28875 
L 307.175207 -60.161133 
L 309.942149 -64.212599 
L 312.709091 -69.551522 
L 315.476033 -76.194272 
L 318.242975 -84.061415 
L 321.009917 -92.986219 
L 323.77686 -102.72951 
L 326.543802 -112.995899 
L 329.310744 -123.447804 
L 332.077686 -133.715988 
L 334.844628 -143.408817 
L 337.61157 -152.125653 
L 340.378512 -159.481096 
L 343.145455 -165.142682 
L 345.912397 -168.873702 
L 348.679339 -170.563253 
L 351.446281 -170.231076 
L 354.213223 -168.010849 
L 356.980165 -164.123988 
L 359.747107 -158.852458 
L 362.51405 -152.513453 
L 365.280992 -145.43636 
L 368.047934 -137.942333 
L 370.814876 -130.327169 
L 373.581818 -122.8482 
L 373.581818 -189.194778 
L 373.581818 -189.194778 
L 370.814876 -194.056694 
L 368.047934 -198.577743 
L 365.280992 -202.527951 
L 362.51405 -205.676781 
L 359.747107 -207.808833 
L 356.980165 -208.740077 
L 354.213223 -208.33284 
L 351.446281 -206.507168 
L 348.679339 -203.245718 
L 345.912397 -198.589569 
L 343.145455 -192.625354 
L 340.378512 -185.470657 
L 337.61157 -177.269191 
L 334.844628 -168.200134 
L 332.077686 -158.49089 
L 329.310744 -148.418061 
L 326.543802 -138.29148 
L 323.77686 -128.427346 
L 321.009917 -119.120385 
L 318.242975 -110.623186 
L 315.476033 -103.136857 
L 312.709091 -96.812827 
L 309.942149 -91.762356 
L 307.175207 -88.068162 
L 304.408264 -85.790932 
L 301.641322 -84.963262 
L 298.87438 -85.568965 
L 296.107438 -87.518553 
L 293.340496 -90.640442 
L 290.573554 -94.697444 
L 287.806612 -99.418967 
L 285.039669 -104.533133 
L 282.272727 -109.79034 
L 279.505785 -114.977468 
L 276.738843 -119.924797 
L 273.971901 -124.507722 
L 271.204959 -128.644763 
L 268.438017 -132.292928 
L 265.671074 -135.441376 
L 262.904132 -138.104158 
L 260.13719 -140.312809 
L 257.370248 -142.109373 
L 254.603306 -143.540295 
L 251.836364 -144.651416 
L 249.069421 -145.484134 
L 246.302479 -146.072623 
L 243.535537 -146.441987 
L 240.768595 -146.607186 
L 238.001653 -146.572668 
L 235.234711 -146.332714 
L 232.467769 -145.872566 
L 229.700826 -145.170447 
L 226.933884 -144.200507 
L 224.166942 -142.936674 
L 221.4 -141.357196 
L 218.633058 -139.449569 
L 215.866116 -137.215401 
L 213.099174 -134.674738 
L 210.332231 -131.869329 
L 207.565289 -128.864415 
L 204.798347 -125.748585 
L 202.031405 -122.631207 
L 199.264463 -119.636541 
L 196.497521 -116.893068 
L 193.730579 -114.516356 
L 190.963636 -112.586285 
L 188.196694 -111.126336 
L 185.429752 -110.098715 
L 182.66281 -109.422212 
L 179.895868 -109.002044 
L 177.128926 -108.75375 
L 174.361983 -108.612885 
L 171.595041 -108.533438 
L 168.828099 -108.481201 
L 166.061157 -108.426803 
L 163.294215 -108.340948 
L 160.527273 -108.192824 
L 157.760331 -107.951624 
L 154.993388 -107.590323 
L 152.226446 -107.090473 
L 149.459504 -106.446786 
L 146.692562 -105.670627 
L 143.92562 -104.791929 
L 141.158678 -103.859498 
L 138.391736 -102.939796 
L 135.624793 -102.114463 
L 132.857851 -101.476729 
L 130.090909 -101.126889 
L 127.323967 -101.166875 
L 124.557025 -101.693986 
L 121.790083 -102.793819 
L 119.02314 -104.532606 
L 116.256198 -106.949399 
L 113.489256 -110.048942 
L 110.722314 -113.796467 
L 107.955372 -118.115918 
L 105.18843 -122.892949 
L 102.421488 -127.983477 
L 99.654545 -133.22758 
L 96.887603 -138.467251 
L 94.120661 -143.564768 
L 91.353719 -148.416122 
L 88.586777 -152.952377 
L 85.819835 -157.125151 
L 83.052893 -160.883732 
L 80.28595 -164.161217 
L 77.519008 -166.880162 
L 74.752066 -168.970873 
L 71.985124 -170.388912 
L 69.218182 -171.12467 
z
" id="m5d2c54a11a" style="stroke:#add8e6;stroke-opacity:0.2;"/>
    </defs>
    <g clip-path="url(#p72f61f088a)">
     <use style="fill:#add8e6;fill-opacity:0.2;stroke:#add8e6;stroke-opacity:0.2;" x="0" xlink:href="#m5d2c54a11a" y="288"/>
    </g>
   </g>
   <g id="PathCollection_1">
    <defs>
     <path d="M 0 0.612372 
C 0.162403 0.612372 0.318176 0.547849 0.433013 0.433013 
C 0.547849 0.318176 0.612372 0.162403 0.612372 0 
C 0.612372 -0.162403 0.547849 -0.318176 0.433013 -0.433013 
C 0.318176 -0.547849 0.162403 -0.612372 0 -0.612372 
C -0.162403 -0.612372 -0.318176 -0.547849 -0.433013 -0.433013 
C -0.547849 -0.318176 -0.612372 -0.162403 -0.612372 0 
C -0.612372 0.162403 -0.547849 0.318176 -0.433013 0.433013 
C -0.318176 0.547849 -0.162403 0.612372 0 0.612372 
z
" id="ma686600227" style="stroke:#ff0000;stroke-width:8;"/>
    </defs>
    <g clip-path="url(#p72f61f088a)">
     <use style="fill:#ff0000;stroke:#ff0000;stroke-width:8;" x="279.505785" xlink:href="#ma686600227" y="228.961734"/>
    </g>
   </g>
   <g id="matplotlib.axis_1">
    <g id="xtick_1">
     <g id="line2d_1">
      <defs>
       <path d="M 0 0 
L 0 3.5 
" id="meb6c76cbb0" style="stroke:#000000;stroke-width:0.8;"/>
      </defs>
      <g>
       <use style="stroke:#000000;stroke-width:0.8;" x="69.218182" xlink:href="#meb6c76cbb0" y="252"/>
      </g>
     </g>
     <g id="text_1">
      <!-- 0 -->
      <g transform="translate(66.036932 266.598437)scale(0.1 -0.1)">
       <defs>
        <path d="M 2034 4250 
Q 1547 4250 1301 3770 
Q 1056 3291 1056 2328 
Q 1056 1369 1301 889 
Q 1547 409 2034 409 
Q 2525 409 2770 889 
Q 3016 1369 3016 2328 
Q 3016 3291 2770 3770 
Q 2525 4250 2034 4250 
z
M 2034 4750 
Q 2819 4750 3233 4129 
Q 3647 3509 3647 2328 
Q 3647 1150 3233 529 
Q 2819 -91 2034 -91 
Q 1250 -91 836 529 
Q 422 1150 422 2328 
Q 422 3509 836 4129 
Q 1250 4750 2034 4750 
z
" id="DejaVuSans-30" transform="scale(0.015625)"/>
       </defs>
       <use xlink:href="#DejaVuSans-30"/>
      </g>
     </g>
    </g>
    <g id="xtick_2">
     <g id="line2d_2">
      <g>
       <use style="stroke:#000000;stroke-width:0.8;" x="124.557025" xlink:href="#meb6c76cbb0" y="252"/>
      </g>
     </g>
     <g id="text_2">
      <!-- 2 -->
      <g transform="translate(121.375775 266.598437)scale(0.1 -0.1)">
       <defs>
        <path d="M 1228 531 
L 3431 531 
L 3431 0 
L 469 0 
L 469 531 
Q 828 903 1448 1529 
Q 2069 2156 2228 2338 
Q 2531 2678 2651 2914 
Q 2772 3150 2772 3378 
Q 2772 3750 2511 3984 
Q 2250 4219 1831 4219 
Q 1534 4219 1204 4116 
Q 875 4013 500 3803 
L 500 4441 
Q 881 4594 1212 4672 
Q 1544 4750 1819 4750 
Q 2544 4750 2975 4387 
Q 3406 4025 3406 3419 
Q 3406 3131 3298 2873 
Q 3191 2616 2906 2266 
Q 2828 2175 2409 1742 
Q 1991 1309 1228 531 
z
" id="DejaVuSans-32" transform="scale(0.015625)"/>
       </defs>
       <use xlink:href="#DejaVuSans-32"/>
      </g>
     </g>
    </g>
    <g id="xtick_3">
     <g id="line2d_3">
      <g>
       <use style="stroke:#000000;stroke-width:0.8;" x="179.895868" xlink:href="#meb6c76cbb0" y="252"/>
      </g>
     </g>
     <g id="text_3">
      <!-- 4 -->
      <g transform="translate(176.714618 266.598437)scale(0.1 -0.1)">
       <defs>
        <path d="M 2419 4116 
L 825 1625 
L 2419 1625 
L 2419 4116 
z
M 2253 4666 
L 3047 4666 
L 3047 1625 
L 3713 1625 
L 3713 1100 
L 3047 1100 
L 3047 0 
L 2419 0 
L 2419 1100 
L 313 1100 
L 313 1709 
L 2253 4666 
z
" id="DejaVuSans-34" transform="scale(0.015625)"/>
       </defs>
       <use xlink:href="#DejaVuSans-34"/>
      </g>
     </g>
    </g>
    <g id="xtick_4">
     <g id="line2d_4">
      <g>
       <use style="stroke:#000000;stroke-width:0.8;" x="235.234711" xlink:href="#meb6c76cbb0" y="252"/>
      </g>
     </g>
     <g id="text_4">
      <!-- 6 -->
      <g transform="translate(232.053461 266.598437)scale(0.1 -0.1)">
       <defs>
        <path d="M 2113 2584 
Q 1688 2584 1439 2293 
Q 1191 2003 1191 1497 
Q 1191 994 1439 701 
Q 1688 409 2113 409 
Q 2538 409 2786 701 
Q 3034 994 3034 1497 
Q 3034 2003 2786 2293 
Q 2538 2584 2113 2584 
z
M 3366 4563 
L 3366 3988 
Q 3128 4100 2886 4159 
Q 2644 4219 2406 4219 
Q 1781 4219 1451 3797 
Q 1122 3375 1075 2522 
Q 1259 2794 1537 2939 
Q 1816 3084 2150 3084 
Q 2853 3084 3261 2657 
Q 3669 2231 3669 1497 
Q 3669 778 3244 343 
Q 2819 -91 2113 -91 
Q 1303 -91 875 529 
Q 447 1150 447 2328 
Q 447 3434 972 4092 
Q 1497 4750 2381 4750 
Q 2619 4750 2861 4703 
Q 3103 4656 3366 4563 
z
" id="DejaVuSans-36" transform="scale(0.015625)"/>
       </defs>
       <use xlink:href="#DejaVuSans-36"/>
      </g>
     </g>
    </g>
    <g id="xtick_5">
     <g id="line2d_5">
      <g>
       <use style="stroke:#000000;stroke-width:0.8;" x="290.573554" xlink:href="#meb6c76cbb0" y="252"/>
      </g>
     </g>
     <g id="text_5">
      <!-- 8 -->
      <g transform="translate(287.392304 266.598437)scale(0.1 -0.1)">
       <defs>
        <path d="M 2034 2216 
Q 1584 2216 1326 1975 
Q 1069 1734 1069 1313 
Q 1069 891 1326 650 
Q 1584 409 2034 409 
Q 2484 409 2743 651 
Q 3003 894 3003 1313 
Q 3003 1734 2745 1975 
Q 2488 2216 2034 2216 
z
M 1403 2484 
Q 997 2584 770 2862 
Q 544 3141 544 3541 
Q 544 4100 942 4425 
Q 1341 4750 2034 4750 
Q 2731 4750 3128 4425 
Q 3525 4100 3525 3541 
Q 3525 3141 3298 2862 
Q 3072 2584 2669 2484 
Q 3125 2378 3379 2068 
Q 3634 1759 3634 1313 
Q 3634 634 3220 271 
Q 2806 -91 2034 -91 
Q 1263 -91 848 271 
Q 434 634 434 1313 
Q 434 1759 690 2068 
Q 947 2378 1403 2484 
z
M 1172 3481 
Q 1172 3119 1398 2916 
Q 1625 2713 2034 2713 
Q 2441 2713 2670 2916 
Q 2900 3119 2900 3481 
Q 2900 3844 2670 4047 
Q 2441 4250 2034 4250 
Q 1625 4250 1398 4047 
Q 1172 3844 1172 3481 
z
" id="DejaVuSans-38" transform="scale(0.015625)"/>
       </defs>
       <use xlink:href="#DejaVuSans-38"/>
      </g>
     </g>
    </g>
    <g id="xtick_6">
     <g id="line2d_6">
      <g>
       <use style="stroke:#000000;stroke-width:0.8;" x="345.912397" xlink:href="#meb6c76cbb0" y="252"/>
      </g>
     </g>
     <g id="text_6">
      <!-- 10 -->
      <g transform="translate(339.549897 266.598437)scale(0.1 -0.1)">
       <defs>
        <path d="M 794 531 
L 1825 531 
L 1825 4091 
L 703 3866 
L 703 4441 
L 1819 4666 
L 2450 4666 
L 2450 531 
L 3481 531 
L 3481 0 
L 794 0 
L 794 531 
z
" id="DejaVuSans-31" transform="scale(0.015625)"/>
       </defs>
       <use xlink:href="#DejaVuSans-31"/>
       <use x="63.623047" xlink:href="#DejaVuSans-30"/>
      </g>
     </g>
    </g>
    <g id="text_7">
     <!-- x -->
     <g transform="translate(217.84875 281.79625)scale(0.12 -0.12)">
      <defs>
       <path d="M 3513 3500 
L 2247 1797 
L 3578 0 
L 2900 0 
L 1881 1375 
L 863 0 
L 184 0 
L 1544 1831 
L 300 3500 
L 978 3500 
L 1906 2253 
L 2834 3500 
L 3513 3500 
z
" id="DejaVuSans-78" transform="scale(0.015625)"/>
      </defs>
      <use xlink:href="#DejaVuSans-78"/>
     </g>
    </g>
   </g>
   <g id="matplotlib.axis_2">
    <g id="ytick_1">
     <g id="line2d_7">
      <defs>
       <path d="M 0 0 
L -3.5 0 
" id="mf429ccf60a" style="stroke:#000000;stroke-width:0.8;"/>
      </defs>
      <g>
       <use style="stroke:#000000;stroke-width:0.8;" x="54" xlink:href="#mf429ccf60a" y="252"/>
      </g>
     </g>
     <g id="text_8">
      <!-- 3 -->
      <g transform="translate(40.6375 255.799219)scale(0.1 -0.1)">
       <defs>
        <path d="M 2597 2516 
Q 3050 2419 3304 2112 
Q 3559 1806 3559 1356 
Q 3559 666 3084 287 
Q 2609 -91 1734 -91 
Q 1441 -91 1130 -33 
Q 819 25 488 141 
L 488 750 
Q 750 597 1062 519 
Q 1375 441 1716 441 
Q 2309 441 2620 675 
Q 2931 909 2931 1356 
Q 2931 1769 2642 2001 
Q 2353 2234 1838 2234 
L 1294 2234 
L 1294 2753 
L 1863 2753 
Q 2328 2753 2575 2939 
Q 2822 3125 2822 3475 
Q 2822 3834 2567 4026 
Q 2313 4219 1838 4219 
Q 1578 4219 1281 4162 
Q 984 4106 628 3988 
L 628 4550 
Q 988 4650 1302 4700 
Q 1616 4750 1894 4750 
Q 2613 4750 3031 4423 
Q 3450 4097 3450 3541 
Q 3450 3153 3228 2886 
Q 3006 2619 2597 2516 
z
" id="DejaVuSans-33" transform="scale(0.015625)"/>
       </defs>
       <use xlink:href="#DejaVuSans-33"/>
      </g>
     </g>
    </g>
    <g id="ytick_2">
     <g id="line2d_8">
      <g>
       <use style="stroke:#000000;stroke-width:0.8;" x="54" xlink:href="#mf429ccf60a" y="215.76"/>
      </g>
     </g>
     <g id="text_9">
      <!-- 4 -->
      <g transform="translate(40.6375 219.559219)scale(0.1 -0.1)">
       <use xlink:href="#DejaVuSans-34"/>
      </g>
     </g>
    </g>
    <g id="ytick_3">
     <g id="line2d_9">
      <g>
       <use style="stroke:#000000;stroke-width:0.8;" x="54" xlink:href="#mf429ccf60a" y="179.52"/>
      </g>
     </g>
     <g id="text_10">
      <!-- 5 -->
      <g transform="translate(40.6375 183.319219)scale(0.1 -0.1)">
       <defs>
        <path d="M 691 4666 
L 3169 4666 
L 3169 4134 
L 1269 4134 
L 1269 2991 
Q 1406 3038 1543 3061 
Q 1681 3084 1819 3084 
Q 2600 3084 3056 2656 
Q 3513 2228 3513 1497 
Q 3513 744 3044 326 
Q 2575 -91 1722 -91 
Q 1428 -91 1123 -41 
Q 819 9 494 109 
L 494 744 
Q 775 591 1075 516 
Q 1375 441 1709 441 
Q 2250 441 2565 725 
Q 2881 1009 2881 1497 
Q 2881 1984 2565 2268 
Q 2250 2553 1709 2553 
Q 1456 2553 1204 2497 
Q 953 2441 691 2322 
L 691 4666 
z
" id="DejaVuSans-35" transform="scale(0.015625)"/>
       </defs>
       <use xlink:href="#DejaVuSans-35"/>
      </g>
     </g>
    </g>
    <g id="ytick_4">
     <g id="line2d_10">
      <g>
       <use style="stroke:#000000;stroke-width:0.8;" x="54" xlink:href="#mf429ccf60a" y="143.28"/>
      </g>
     </g>
     <g id="text_11">
      <!-- 6 -->
      <g transform="translate(40.6375 147.079219)scale(0.1 -0.1)">
       <use xlink:href="#DejaVuSans-36"/>
      </g>
     </g>
    </g>
    <g id="ytick_5">
     <g id="line2d_11">
      <g>
       <use style="stroke:#000000;stroke-width:0.8;" x="54" xlink:href="#mf429ccf60a" y="107.04"/>
      </g>
     </g>
     <g id="text_12">
      <!-- 7 -->
      <g transform="translate(40.6375 110.839219)scale(0.1 -0.1)">
       <defs>
        <path d="M 525 4666 
L 3525 4666 
L 3525 4397 
L 1831 0 
L 1172 0 
L 2766 4134 
L 525 4134 
L 525 4666 
z
" id="DejaVuSans-37" transform="scale(0.015625)"/>
       </defs>
       <use xlink:href="#DejaVuSans-37"/>
      </g>
     </g>
    </g>
    <g id="ytick_6">
     <g id="line2d_12">
      <g>
       <use style="stroke:#000000;stroke-width:0.8;" x="54" xlink:href="#mf429ccf60a" y="70.8"/>
      </g>
     </g>
     <g id="text_13">
      <!-- 8 -->
      <g transform="translate(40.6375 74.599219)scale(0.1 -0.1)">
       <use xlink:href="#DejaVuSans-38"/>
      </g>
     </g>
    </g>
    <g id="ytick_7">
     <g id="line2d_13">
      <g>
       <use style="stroke:#000000;stroke-width:0.8;" x="54" xlink:href="#mf429ccf60a" y="34.56"/>
      </g>
     </g>
     <g id="text_14">
      <!-- 9 -->
      <g transform="translate(40.6375 38.359219)scale(0.1 -0.1)">
       <defs>
        <path d="M 703 97 
L 703 672 
Q 941 559 1184 500 
Q 1428 441 1663 441 
Q 2288 441 2617 861 
Q 2947 1281 2994 2138 
Q 2813 1869 2534 1725 
Q 2256 1581 1919 1581 
Q 1219 1581 811 2004 
Q 403 2428 403 3163 
Q 403 3881 828 4315 
Q 1253 4750 1959 4750 
Q 2769 4750 3195 4129 
Q 3622 3509 3622 2328 
Q 3622 1225 3098 567 
Q 2575 -91 1691 -91 
Q 1453 -91 1209 -44 
Q 966 3 703 97 
z
M 1959 2075 
Q 2384 2075 2632 2365 
Q 2881 2656 2881 3163 
Q 2881 3666 2632 3958 
Q 2384 4250 1959 4250 
Q 1534 4250 1286 3958 
Q 1038 3666 1038 3163 
Q 1038 2656 1286 2365 
Q 1534 2075 1959 2075 
z
" id="DejaVuSans-39" transform="scale(0.015625)"/>
       </defs>
       <use xlink:href="#DejaVuSans-39"/>
      </g>
     </g>
    </g>
    <g id="text_15">
     <!-- y -->
     <g transform="translate(34.141875 146.83125)rotate(-90)scale(0.12 -0.12)">
      <defs>
       <path d="M 2059 -325 
Q 1816 -950 1584 -1140 
Q 1353 -1331 966 -1331 
L 506 -1331 
L 506 -850 
L 844 -850 
Q 1081 -850 1212 -737 
Q 1344 -625 1503 -206 
L 1606 56 
L 191 3500 
L 800 3500 
L 1894 763 
L 2988 3500 
L 3597 3500 
L 2059 -325 
z
" id="DejaVuSans-79" transform="scale(0.015625)"/>
      </defs>
      <use xlink:href="#DejaVuSans-79"/>
     </g>
    </g>
   </g>
   <g id="line2d_14">
    <path clip-path="url(#p72f61f088a)" d="M 69.218182 70.8 
L 71.985124 85.083949 
L 74.752066 98.25467 
L 77.519008 110.364828 
L 80.28595 121.465955 
L 83.052893 131.608455 
L 85.819835 140.841599 
L 88.586777 149.213528 
L 91.353719 156.771253 
L 94.120661 163.560654 
L 96.887603 169.62648 
L 99.654545 175.012349 
L 102.421488 179.76075 
L 105.18843 183.913038 
L 107.955372 187.509441 
L 110.722314 190.589055 
L 113.489256 193.189844 
L 116.256198 195.348643 
L 119.02314 197.101155 
L 121.790083 198.481953 
L 124.557025 199.52448 
L 127.323967 200.261047 
L 130.090909 200.722835 
L 132.857851 200.939895 
L 135.624793 200.941145 
L 138.391736 200.754375 
L 141.158678 200.406243 
L 143.92562 199.922276 
L 146.692562 199.326871 
L 149.459504 198.643294 
L 152.226446 197.89368 
L 154.993388 197.099035 
L 157.760331 196.279231 
L 160.527273 195.453014 
L 163.294215 194.637994 
L 166.061157 193.850655 
L 168.828099 193.106347 
L 171.595041 192.419291 
L 174.361983 191.802577 
L 177.128926 191.268164 
L 179.895868 190.82688 
L 182.66281 190.488424 
L 185.429752 190.261362 
L 188.196694 190.153131 
L 190.963636 190.170037 
L 193.730579 190.317255 
L 196.497521 190.598829 
L 199.264463 191.017673 
L 202.031405 191.575569 
L 204.798347 192.273171 
L 207.565289 193.11 
L 210.332231 194.084446 
L 213.099174 195.193771 
L 215.866116 196.434103 
L 218.633058 197.800442 
L 221.4 199.286655 
L 224.166942 200.88548 
L 226.933884 202.588525 
L 229.700826 204.386264 
L 232.467769 206.268045 
L 235.234711 208.22208 
L 238.001653 210.235455 
L 240.768595 212.294122 
L 243.535537 214.382905 
L 246.302479 216.485496 
L 249.069421 218.584455 
L 251.836364 220.661214 
L 254.603306 222.696071 
L 257.370248 224.668198 
L 260.13719 226.555631 
L 262.904132 228.33528 
L 265.671074 229.982921 
L 268.438017 231.4732 
L 271.204959 232.779634 
L 273.971901 233.874607 
L 276.738843 234.729375 
L 279.505785 235.31406 
L 282.272727 235.597656 
L 285.039669 235.548026 
L 287.806612 235.1319 
L 290.573554 234.31488 
L 293.340496 233.061436 
L 296.107438 231.334908 
L 298.87438 229.097505 
L 301.641322 226.310305 
L 304.408264 222.933255 
L 307.175207 218.925173 
L 309.942149 214.243744 
L 312.709091 208.845524 
L 315.476033 202.685938 
L 318.242975 195.71928 
L 321.009917 187.898713 
L 323.77686 179.176271 
L 326.543802 169.502854 
L 329.310744 158.828236 
L 332.077686 147.101055 
L 334.844628 134.268823 
L 337.61157 120.277918 
L 340.378512 105.073589 
L 343.145455 88.599954 
L 345.912397 70.8 
L 348.679339 51.615584 
L 351.446281 30.987432 
L 354.213223 8.855138 
L 355.363895 -1 
" style="fill:none;stroke:#0000ff;stroke-linecap:square;stroke-width:2;"/>
   </g>
   <g id="line2d_15">
    <path clip-path="url(#p72f61f088a)" d="M 69.218182 165.830467 
L 71.985124 162.21952 
L 74.752066 159.332509 
L 77.519008 157.363164 
L 80.28595 156.475364 
L 83.052893 156.781079 
L 85.819835 158.315491 
L 88.586777 161.017347 
L 91.353719 164.728384 
L 94.120661 169.218448 
L 96.887603 174.224931 
L 99.654545 179.487762 
L 102.421488 184.770669 
L 105.18843 189.870561 
L 107.955372 194.620281 
L 110.722314 198.888614 
L 113.489256 202.579547 
L 116.256198 205.631516 
L 119.02314 208.016642 
L 121.790083 209.739491 
L 124.557025 210.834709 
L 127.323967 211.363085 
L 130.090909 211.405963 
L 132.857851 211.058422 
L 135.624793 210.421868 
L 138.391736 209.596861 
L 141.158678 208.676833 
L 143.92562 207.743222 
L 146.692562 206.862226 
L 149.459504 206.083174 
L 152.226446 205.438223 
L 154.993388 204.942986 
L 157.760331 204.597623 
L 160.527273 204.388091 
L 163.294215 204.287541 
L 166.061157 204.258278 
L 168.828099 204.254999 
L 171.595041 204.230072 
L 174.361983 204.14126 
L 177.128926 203.961591 
L 179.895868 203.690138 
L 182.66281 203.361004 
L 185.429752 203.045791 
L 188.196694 202.843388 
L 190.963636 202.854357 
L 193.730579 203.148455 
L 196.497521 203.743513 
L 199.264463 204.606784 
L 202.031405 205.672174 
L 204.798347 206.859844 
L 207.565289 208.090716 
L 210.332231 209.295191 
L 213.099174 210.417828 
L 215.866116 211.41946 
L 218.633058 212.277585 
L 221.4 212.985427 
L 224.166942 213.549994 
L 226.933884 213.989432 
L 229.700826 214.330023 
L 232.467769 214.603191 
L 235.234711 214.842802 
L 238.001653 215.082964 
L 240.768595 215.356384 
L 243.535537 215.693204 
L 246.302479 216.120168 
L 249.069421 216.659886 
L 251.836364 217.330052 
L 254.603306 218.142518 
L 257.370248 219.102275 
L 260.13719 220.206487 
L 262.904132 221.443792 
L 265.671074 222.794092 
L 268.438017 224.228977 
L 271.204959 225.712836 
L 273.971901 227.204565 
L 276.738843 228.659688 
L 279.505785 230.032606 
L 282.272727 231.278651 
L 285.039669 232.355533 
L 287.806612 233.223561 
L 290.573554 233.843589 
L 293.340496 234.170893 
L 296.107438 234.143079 
L 298.87438 233.662747 
L 301.641322 232.583047 
L 304.408264 230.71125 
L 307.175207 227.838867 
L 309.942149 223.787401 
L 312.709091 218.448478 
L 315.476033 211.805728 
L 318.242975 203.938585 
L 321.009917 195.013781 
L 323.77686 185.27049 
L 326.543802 175.004101 
L 329.310744 164.552196 
L 332.077686 154.284012 
L 334.844628 144.591183 
L 337.61157 135.874347 
L 340.378512 128.518904 
L 343.145455 122.857318 
L 345.912397 119.126298 
L 348.679339 117.436747 
L 351.446281 117.768924 
L 354.213223 119.989151 
L 356.980165 123.876012 
L 359.747107 129.147542 
L 362.51405 135.486547 
L 365.280992 142.56364 
L 368.047934 150.057667 
L 370.814876 157.672831 
L 373.581818 165.1518 
" style="fill:none;stroke:#008000;stroke-dasharray:3.7,1.6;stroke-dashoffset:0;"/>
   </g>
   <g id="line2d_16">
    <path clip-path="url(#p72f61f088a)" d="M 69.218182 116.87533 
L 71.985124 117.611088 
L 74.752066 119.029127 
L 77.519008 121.119838 
L 80.28595 123.838783 
L 83.052893 127.116268 
L 85.819835 130.874849 
L 88.586777 135.047623 
L 91.353719 139.583878 
L 94.120661 144.435232 
L 96.887603 149.532749 
L 99.654545 154.77242 
L 102.421488 160.016523 
L 105.18843 165.107051 
L 107.955372 169.884082 
L 110.722314 174.203533 
L 113.489256 177.951058 
L 116.256198 181.050601 
L 119.02314 183.467394 
L 121.790083 185.206181 
L 124.557025 186.306014 
L 127.323967 186.833125 
L 130.090909 186.873111 
L 132.857851 186.523271 
L 135.624793 185.885537 
L 138.391736 185.060204 
L 141.158678 184.140502 
L 143.92562 183.208071 
L 146.692562 182.329373 
L 149.459504 181.553214 
L 152.226446 180.909527 
L 154.993388 180.409677 
L 157.760331 180.048376 
L 160.527273 179.807176 
L 163.294215 179.659052 
L 166.061157 179.573197 
L 168.828099 179.518799 
L 171.595041 179.466562 
L 174.361983 179.387115 
L 177.128926 179.24625 
L 179.895868 178.997956 
L 182.66281 178.577788 
L 185.429752 177.901285 
L 188.196694 176.873664 
L 190.963636 175.413715 
L 193.730579 173.483644 
L 196.497521 171.106932 
L 199.264463 168.363459 
L 202.031405 165.368793 
L 204.798347 162.251415 
L 207.565289 159.135585 
L 210.332231 156.130671 
L 213.099174 153.325262 
L 215.866116 150.784599 
L 218.633058 148.550431 
L 221.4 146.642804 
L 224.166942 145.063326 
L 226.933884 143.799493 
L 229.700826 142.829553 
L 232.467769 142.127434 
L 235.234711 141.667286 
L 238.001653 141.427332 
L 240.768595 141.392814 
L 243.535537 141.558013 
L 246.302479 141.927377 
L 249.069421 142.515866 
L 251.836364 143.348584 
L 254.603306 144.459705 
L 257.370248 145.890627 
L 260.13719 147.687191 
L 262.904132 149.895842 
L 265.671074 152.558624 
L 268.438017 155.707072 
L 271.204959 159.355237 
L 273.971901 163.492278 
L 276.738843 168.075203 
L 279.505785 173.022532 
L 282.272727 178.20966 
L 285.039669 183.466867 
L 287.806612 188.581033 
L 290.573554 193.302556 
L 293.340496 197.359558 
L 296.107438 200.481447 
L 298.87438 202.431035 
L 301.641322 203.036738 
L 304.408264 202.209068 
L 307.175207 199.931838 
L 309.942149 196.237644 
L 312.709091 191.187173 
L 315.476033 184.863143 
L 318.242975 177.376814 
L 321.009917 168.879615 
L 323.77686 159.572654 
L 326.543802 149.70852 
L 329.310744 139.581939 
L 332.077686 129.50911 
L 334.844628 119.799866 
L 337.61157 110.730809 
L 340.378512 102.529343 
L 343.145455 95.374646 
L 345.912397 89.410431 
L 348.679339 84.754282 
L 351.446281 81.492832 
L 354.213223 79.66716 
L 356.980165 79.259923 
L 359.747107 80.191167 
L 362.51405 82.323219 
L 365.280992 85.472049 
L 368.047934 89.422257 
L 370.814876 93.943306 
L 373.581818 98.805222 
" style="fill:none;stroke:#008000;stroke-dasharray:3.7,1.6;stroke-dashoffset:0;"/>
   </g>
   <g id="line2d_17">
    <path clip-path="url(#p72f61f088a)" d="M 69.218182 251.976521 
L 71.985124 251.995238 
L 74.752066 251.999303 
L 77.519008 251.999924 
L 80.28595 251.999993 
L 83.052893 251.999999 
L 85.819835 252 
L 88.586777 252 
L 91.353719 252 
L 94.120661 251.999998 
L 96.887603 251.999988 
L 99.654545 251.999911 
L 102.421488 251.999414 
L 105.18843 251.996987 
L 107.955372 251.9881 
L 110.722314 251.963532 
L 113.489256 251.911394 
L 116.256198 251.82492 
L 119.02314 251.711249 
L 121.790083 251.592444 
L 124.557025 251.496163 
L 127.323967 251.442817 
L 130.090909 251.438043 
L 132.857851 251.473648 
L 135.624793 251.534088 
L 138.391736 251.603542 
L 141.158678 251.670297 
L 143.92562 251.72786 
L 146.692562 251.77396 
L 149.459504 251.808887 
L 152.226446 251.834061 
L 154.993388 251.851164 
L 157.760331 251.861745 
L 160.527273 251.867165 
L 163.294215 251.868729 
L 166.061157 251.8679 
L 168.828099 251.866458 
L 171.595041 251.866378 
L 174.361983 251.869293 
L 177.128926 251.875592 
L 179.895868 251.883655 
L 182.66281 251.889738 
L 185.429752 251.888251 
L 188.196694 251.871016 
L 190.963636 251.823652 
L 193.730579 251.718524 
L 196.497521 251.507522 
L 199.264463 251.123551 
L 202.031405 250.498758 
L 204.798347 249.593626 
L 207.565289 248.418463 
L 210.332231 247.034364 
L 213.099174 245.536137 
L 215.866116 244.02827 
L 218.633058 242.603814 
L 221.4 241.330943 
L 224.166942 240.247736 
L 226.933884 239.363487 
L 229.700826 238.664089 
L 232.467769 238.119202 
L 235.234711 237.689406 
L 238.001653 237.332203 
L 240.768595 237.006408 
L 243.535537 236.674942 
L 246.302479 236.306418 
L 249.069421 235.876018 
L 251.836364 235.366174 
L 254.603306 234.767378 
L 257.370248 234.079294 
L 260.13719 233.312079 
L 262.904132 232.487611 
L 265.671074 231.640192 
L 268.438017 230.816222 
L 271.204959 230.072434 
L 273.971901 229.472475 
L 276.738843 229.081886 
L 279.505785 228.961734 
L 282.272727 229.161287 
L 285.039669 229.710144 
L 287.806612 230.610712 
L 290.573554 231.83363 
L 293.340496 233.322378 
L 296.107438 235.016216 
L 298.87438 236.89329 
L 301.641322 239.00727 
L 304.408264 241.456989 
L 307.175207 244.249616 
L 309.942149 247.131874 
L 312.709091 249.588049 
L 315.476033 251.152731 
L 318.242975 251.815696 
L 321.009917 251.978718 
L 323.77686 251.998871 
L 326.543802 251.999975 
L 329.310744 252 
L 332.077686 252 
L 334.844628 252 
L 337.61157 252 
L 340.378512 252 
L 343.145455 252 
L 345.912397 252 
L 348.679339 252 
L 351.446281 252 
L 354.213223 252 
L 356.980165 251.999999 
L 359.747107 251.999964 
L 362.51405 251.999484 
L 365.280992 251.995677 
L 368.047934 251.976663 
L 370.814876 251.91111 
L 373.581818 251.742717 
" style="fill:none;stroke:#bfbf00;stroke-dasharray:7.4,3.2;stroke-dashoffset:0;stroke-width:2;"/>
   </g>
   <g id="patch_3">
    <path d="M 54 252 
L 54 34.56 
" style="fill:none;stroke:#000000;stroke-linecap:square;stroke-linejoin:miter;stroke-width:0.8;"/>
   </g>
   <g id="patch_4">
    <path d="M 388.8 252 
L 388.8 34.56 
" style="fill:none;stroke:#000000;stroke-linecap:square;stroke-linejoin:miter;stroke-width:0.8;"/>
   </g>
   <g id="patch_5">
    <path d="M 54 252 
L 388.8 252 
" style="fill:none;stroke:#000000;stroke-linecap:square;stroke-linejoin:miter;stroke-width:0.8;"/>
   </g>
   <g id="patch_6">
    <path d="M 54 34.56 
L 388.8 34.56 
" style="fill:none;stroke:#000000;stroke-linecap:square;stroke-linejoin:miter;stroke-width:0.8;"/>
   </g>
   <g id="text_16">
    <!-- Method : AEI -->
    <g transform="translate(71.985124 244.752)scale(0.12 -0.12)">
     <defs>
      <path d="M 628 4666 
L 1569 4666 
L 2759 1491 
L 3956 4666 
L 4897 4666 
L 4897 0 
L 4281 0 
L 4281 4097 
L 3078 897 
L 2444 897 
L 1241 4097 
L 1241 0 
L 628 0 
L 628 4666 
z
" id="DejaVuSans-4d" transform="scale(0.015625)"/>
      <path d="M 3597 1894 
L 3597 1613 
L 953 1613 
Q 991 1019 1311 708 
Q 1631 397 2203 397 
Q 2534 397 2845 478 
Q 3156 559 3463 722 
L 3463 178 
Q 3153 47 2828 -22 
Q 2503 -91 2169 -91 
Q 1331 -91 842 396 
Q 353 884 353 1716 
Q 353 2575 817 3079 
Q 1281 3584 2069 3584 
Q 2775 3584 3186 3129 
Q 3597 2675 3597 1894 
z
M 3022 2063 
Q 3016 2534 2758 2815 
Q 2500 3097 2075 3097 
Q 1594 3097 1305 2825 
Q 1016 2553 972 2059 
L 3022 2063 
z
" id="DejaVuSans-65" transform="scale(0.015625)"/>
      <path d="M 1172 4494 
L 1172 3500 
L 2356 3500 
L 2356 3053 
L 1172 3053 
L 1172 1153 
Q 1172 725 1289 603 
Q 1406 481 1766 481 
L 2356 481 
L 2356 0 
L 1766 0 
Q 1100 0 847 248 
Q 594 497 594 1153 
L 594 3053 
L 172 3053 
L 172 3500 
L 594 3500 
L 594 4494 
L 1172 4494 
z
" id="DejaVuSans-74" transform="scale(0.015625)"/>
      <path d="M 3513 2113 
L 3513 0 
L 2938 0 
L 2938 2094 
Q 2938 2591 2744 2837 
Q 2550 3084 2163 3084 
Q 1697 3084 1428 2787 
Q 1159 2491 1159 1978 
L 1159 0 
L 581 0 
L 581 4863 
L 1159 4863 
L 1159 2956 
Q 1366 3272 1645 3428 
Q 1925 3584 2291 3584 
Q 2894 3584 3203 3211 
Q 3513 2838 3513 2113 
z
" id="DejaVuSans-68" transform="scale(0.015625)"/>
      <path d="M 1959 3097 
Q 1497 3097 1228 2736 
Q 959 2375 959 1747 
Q 959 1119 1226 758 
Q 1494 397 1959 397 
Q 2419 397 2687 759 
Q 2956 1122 2956 1747 
Q 2956 2369 2687 2733 
Q 2419 3097 1959 3097 
z
M 1959 3584 
Q 2709 3584 3137 3096 
Q 3566 2609 3566 1747 
Q 3566 888 3137 398 
Q 2709 -91 1959 -91 
Q 1206 -91 779 398 
Q 353 888 353 1747 
Q 353 2609 779 3096 
Q 1206 3584 1959 3584 
z
" id="DejaVuSans-6f" transform="scale(0.015625)"/>
      <path d="M 2906 2969 
L 2906 4863 
L 3481 4863 
L 3481 0 
L 2906 0 
L 2906 525 
Q 2725 213 2448 61 
Q 2172 -91 1784 -91 
Q 1150 -91 751 415 
Q 353 922 353 1747 
Q 353 2572 751 3078 
Q 1150 3584 1784 3584 
Q 2172 3584 2448 3432 
Q 2725 3281 2906 2969 
z
M 947 1747 
Q 947 1113 1208 752 
Q 1469 391 1925 391 
Q 2381 391 2643 752 
Q 2906 1113 2906 1747 
Q 2906 2381 2643 2742 
Q 2381 3103 1925 3103 
Q 1469 3103 1208 2742 
Q 947 2381 947 1747 
z
" id="DejaVuSans-64" transform="scale(0.015625)"/>
      <path id="DejaVuSans-20" transform="scale(0.015625)"/>
      <path d="M 750 794 
L 1409 794 
L 1409 0 
L 750 0 
L 750 794 
z
M 750 3309 
L 1409 3309 
L 1409 2516 
L 750 2516 
L 750 3309 
z
" id="DejaVuSans-3a" transform="scale(0.015625)"/>
      <path d="M 2188 4044 
L 1331 1722 
L 3047 1722 
L 2188 4044 
z
M 1831 4666 
L 2547 4666 
L 4325 0 
L 3669 0 
L 3244 1197 
L 1141 1197 
L 716 0 
L 50 0 
L 1831 4666 
z
" id="DejaVuSans-41" transform="scale(0.015625)"/>
      <path d="M 628 4666 
L 3578 4666 
L 3578 4134 
L 1259 4134 
L 1259 2753 
L 3481 2753 
L 3481 2222 
L 1259 2222 
L 1259 531 
L 3634 531 
L 3634 0 
L 628 0 
L 628 4666 
z
" id="DejaVuSans-45" transform="scale(0.015625)"/>
      <path d="M 628 4666 
L 1259 4666 
L 1259 0 
L 628 0 
L 628 4666 
z
" id="DejaVuSans-49" transform="scale(0.015625)"/>
     </defs>
     <use xlink:href="#DejaVuSans-4d"/>
     <use x="86.279297" xlink:href="#DejaVuSans-65"/>
     <use x="147.802734" xlink:href="#DejaVuSans-74"/>
     <use x="187.011719" xlink:href="#DejaVuSans-68"/>
     <use x="250.390625" xlink:href="#DejaVuSans-6f"/>
     <use x="311.572266" xlink:href="#DejaVuSans-64"/>
     <use x="375.048828" xlink:href="#DejaVuSans-20"/>
     <use x="406.835938" xlink:href="#DejaVuSans-3a"/>
     <use x="440.527344" xlink:href="#DejaVuSans-20"/>
     <use x="472.314453" xlink:href="#DejaVuSans-41"/>
     <use x="540.722656" xlink:href="#DejaVuSans-45"/>
     <use x="603.90625" xlink:href="#DejaVuSans-49"/>
    </g>
   </g>
   <g id="text_17">
    <!-- Iter=1 -->
    <g transform="translate(71.985124 226.632)scale(0.12 -0.12)">
     <defs>
      <path d="M 2631 2963 
Q 2534 3019 2420 3045 
Q 2306 3072 2169 3072 
Q 1681 3072 1420 2755 
Q 1159 2438 1159 1844 
L 1159 0 
L 581 0 
L 581 3500 
L 1159 3500 
L 1159 2956 
Q 1341 3275 1631 3429 
Q 1922 3584 2338 3584 
Q 2397 3584 2469 3576 
Q 2541 3569 2628 3553 
L 2631 2963 
z
" id="DejaVuSans-72" transform="scale(0.015625)"/>
      <path d="M 678 2906 
L 4684 2906 
L 4684 2381 
L 678 2381 
L 678 2906 
z
M 678 1631 
L 4684 1631 
L 4684 1100 
L 678 1100 
L 678 1631 
z
" id="DejaVuSans-3d" transform="scale(0.015625)"/>
     </defs>
     <use xlink:href="#DejaVuSans-49"/>
     <use x="29.492188" xlink:href="#DejaVuSans-74"/>
     <use x="68.701172" xlink:href="#DejaVuSans-65"/>
     <use x="130.224609" xlink:href="#DejaVuSans-72"/>
     <use x="171.337891" xlink:href="#DejaVuSans-3d"/>
     <use x="255.126953" xlink:href="#DejaVuSans-31"/>
    </g>
   </g>
   <g id="legend_1">
    <g id="patch_7">
     <path d="M 144.327812 140.235625 
L 298.472188 140.235625 
Q 300.672188 140.235625 300.672188 138.035625 
L 300.672188 42.26 
Q 300.672188 40.06 298.472188 40.06 
L 144.327812 40.06 
Q 142.127813 40.06 142.127813 42.26 
L 142.127813 138.035625 
Q 142.127813 140.235625 144.327812 140.235625 
z
" style="fill:#ffffff;opacity:0.8;stroke:#cccccc;stroke-linejoin:miter;"/>
    </g>
    <g id="line2d_18">
     <path d="M 146.527813 48.968281 
L 168.527813 48.968281 
" style="fill:none;stroke:#0000ff;stroke-linecap:square;stroke-width:2;"/>
    </g>
    <g id="line2d_19"/>
    <g id="text_18">
     <!-- ture function -->
     <g transform="translate(177.327813 52.818281)scale(0.11 -0.11)">
      <defs>
       <path d="M 544 1381 
L 544 3500 
L 1119 3500 
L 1119 1403 
Q 1119 906 1312 657 
Q 1506 409 1894 409 
Q 2359 409 2629 706 
Q 2900 1003 2900 1516 
L 2900 3500 
L 3475 3500 
L 3475 0 
L 2900 0 
L 2900 538 
Q 2691 219 2414 64 
Q 2138 -91 1772 -91 
Q 1169 -91 856 284 
Q 544 659 544 1381 
z
M 1991 3584 
L 1991 3584 
z
" id="DejaVuSans-75" transform="scale(0.015625)"/>
       <path d="M 2375 4863 
L 2375 4384 
L 1825 4384 
Q 1516 4384 1395 4259 
Q 1275 4134 1275 3809 
L 1275 3500 
L 2222 3500 
L 2222 3053 
L 1275 3053 
L 1275 0 
L 697 0 
L 697 3053 
L 147 3053 
L 147 3500 
L 697 3500 
L 697 3744 
Q 697 4328 969 4595 
Q 1241 4863 1831 4863 
L 2375 4863 
z
" id="DejaVuSans-66" transform="scale(0.015625)"/>
       <path d="M 3513 2113 
L 3513 0 
L 2938 0 
L 2938 2094 
Q 2938 2591 2744 2837 
Q 2550 3084 2163 3084 
Q 1697 3084 1428 2787 
Q 1159 2491 1159 1978 
L 1159 0 
L 581 0 
L 581 3500 
L 1159 3500 
L 1159 2956 
Q 1366 3272 1645 3428 
Q 1925 3584 2291 3584 
Q 2894 3584 3203 3211 
Q 3513 2838 3513 2113 
z
" id="DejaVuSans-6e" transform="scale(0.015625)"/>
       <path d="M 3122 3366 
L 3122 2828 
Q 2878 2963 2633 3030 
Q 2388 3097 2138 3097 
Q 1578 3097 1268 2742 
Q 959 2388 959 1747 
Q 959 1106 1268 751 
Q 1578 397 2138 397 
Q 2388 397 2633 464 
Q 2878 531 3122 666 
L 3122 134 
Q 2881 22 2623 -34 
Q 2366 -91 2075 -91 
Q 1284 -91 818 406 
Q 353 903 353 1747 
Q 353 2603 823 3093 
Q 1294 3584 2113 3584 
Q 2378 3584 2631 3529 
Q 2884 3475 3122 3366 
z
" id="DejaVuSans-63" transform="scale(0.015625)"/>
       <path d="M 603 3500 
L 1178 3500 
L 1178 0 
L 603 0 
L 603 3500 
z
M 603 4863 
L 1178 4863 
L 1178 4134 
L 603 4134 
L 603 4863 
z
" id="DejaVuSans-69" transform="scale(0.015625)"/>
      </defs>
      <use xlink:href="#DejaVuSans-74"/>
      <use x="39.208984" xlink:href="#DejaVuSans-75"/>
      <use x="102.587891" xlink:href="#DejaVuSans-72"/>
      <use x="141.451172" xlink:href="#DejaVuSans-65"/>
      <use x="202.974609" xlink:href="#DejaVuSans-20"/>
      <use x="234.761719" xlink:href="#DejaVuSans-66"/>
      <use x="269.966797" xlink:href="#DejaVuSans-75"/>
      <use x="333.345703" xlink:href="#DejaVuSans-6e"/>
      <use x="396.724609" xlink:href="#DejaVuSans-63"/>
      <use x="451.705078" xlink:href="#DejaVuSans-74"/>
      <use x="490.914062" xlink:href="#DejaVuSans-69"/>
      <use x="518.697266" xlink:href="#DejaVuSans-6f"/>
      <use x="579.878906" xlink:href="#DejaVuSans-6e"/>
     </g>
    </g>
    <g id="line2d_20">
     <path d="M 146.527813 65.114219 
L 168.527813 65.114219 
" style="fill:none;stroke:#000000;stroke-dasharray:7.4,3.2;stroke-dashoffset:0;stroke-width:2;"/>
    </g>
    <g id="line2d_21"/>
    <g id="text_19">
     <!-- predicted function -->
     <g transform="translate(177.327813 68.964219)scale(0.11 -0.11)">
      <defs>
       <path d="M 1159 525 
L 1159 -1331 
L 581 -1331 
L 581 3500 
L 1159 3500 
L 1159 2969 
Q 1341 3281 1617 3432 
Q 1894 3584 2278 3584 
Q 2916 3584 3314 3078 
Q 3713 2572 3713 1747 
Q 3713 922 3314 415 
Q 2916 -91 2278 -91 
Q 1894 -91 1617 61 
Q 1341 213 1159 525 
z
M 3116 1747 
Q 3116 2381 2855 2742 
Q 2594 3103 2138 3103 
Q 1681 3103 1420 2742 
Q 1159 2381 1159 1747 
Q 1159 1113 1420 752 
Q 1681 391 2138 391 
Q 2594 391 2855 752 
Q 3116 1113 3116 1747 
z
" id="DejaVuSans-70" transform="scale(0.015625)"/>
      </defs>
      <use xlink:href="#DejaVuSans-70"/>
      <use x="63.476562" xlink:href="#DejaVuSans-72"/>
      <use x="102.339844" xlink:href="#DejaVuSans-65"/>
      <use x="163.863281" xlink:href="#DejaVuSans-64"/>
      <use x="227.339844" xlink:href="#DejaVuSans-69"/>
      <use x="255.123047" xlink:href="#DejaVuSans-63"/>
      <use x="310.103516" xlink:href="#DejaVuSans-74"/>
      <use x="349.3125" xlink:href="#DejaVuSans-65"/>
      <use x="410.835938" xlink:href="#DejaVuSans-64"/>
      <use x="474.3125" xlink:href="#DejaVuSans-20"/>
      <use x="506.099609" xlink:href="#DejaVuSans-66"/>
      <use x="541.304688" xlink:href="#DejaVuSans-75"/>
      <use x="604.683594" xlink:href="#DejaVuSans-6e"/>
      <use x="668.0625" xlink:href="#DejaVuSans-63"/>
      <use x="723.042969" xlink:href="#DejaVuSans-74"/>
      <use x="762.251953" xlink:href="#DejaVuSans-69"/>
      <use x="790.035156" xlink:href="#DejaVuSans-6f"/>
      <use x="851.216797" xlink:href="#DejaVuSans-6e"/>
     </g>
    </g>
    <g id="line2d_22">
     <path d="M 146.527813 81.260156 
L 168.527813 81.260156 
" style="fill:none;stroke:#008000;stroke-dasharray:3.7,1.6;stroke-dashoffset:0;"/>
    </g>
    <g id="line2d_23"/>
    <g id="text_20">
     <!--  ± Sn(x) -->
     <g transform="translate(177.327813 85.110156)scale(0.11 -0.11)">
      <defs>
       <path d="M 2944 4013 
L 2944 2803 
L 4684 2803 
L 4684 2272 
L 2944 2272 
L 2944 1063 
L 2419 1063 
L 2419 2272 
L 678 2272 
L 678 2803 
L 2419 2803 
L 2419 4013 
L 2944 4013 
z
M 678 531 
L 4684 531 
L 4684 0 
L 678 0 
L 678 531 
z
" id="DejaVuSans-b1" transform="scale(0.015625)"/>
       <path d="M 3425 4513 
L 3425 3897 
Q 3066 4069 2747 4153 
Q 2428 4238 2131 4238 
Q 1616 4238 1336 4038 
Q 1056 3838 1056 3469 
Q 1056 3159 1242 3001 
Q 1428 2844 1947 2747 
L 2328 2669 
Q 3034 2534 3370 2195 
Q 3706 1856 3706 1288 
Q 3706 609 3251 259 
Q 2797 -91 1919 -91 
Q 1588 -91 1214 -16 
Q 841 59 441 206 
L 441 856 
Q 825 641 1194 531 
Q 1563 422 1919 422 
Q 2459 422 2753 634 
Q 3047 847 3047 1241 
Q 3047 1584 2836 1778 
Q 2625 1972 2144 2069 
L 1759 2144 
Q 1053 2284 737 2584 
Q 422 2884 422 3419 
Q 422 4038 858 4394 
Q 1294 4750 2059 4750 
Q 2388 4750 2728 4690 
Q 3069 4631 3425 4513 
z
" id="DejaVuSans-53" transform="scale(0.015625)"/>
       <path d="M 1984 4856 
Q 1566 4138 1362 3434 
Q 1159 2731 1159 2009 
Q 1159 1288 1364 580 
Q 1569 -128 1984 -844 
L 1484 -844 
Q 1016 -109 783 600 
Q 550 1309 550 2009 
Q 550 2706 781 3412 
Q 1013 4119 1484 4856 
L 1984 4856 
z
" id="DejaVuSans-28" transform="scale(0.015625)"/>
       <path d="M 513 4856 
L 1013 4856 
Q 1481 4119 1714 3412 
Q 1947 2706 1947 2009 
Q 1947 1309 1714 600 
Q 1481 -109 1013 -844 
L 513 -844 
Q 928 -128 1133 580 
Q 1338 1288 1338 2009 
Q 1338 2731 1133 3434 
Q 928 4138 513 4856 
z
" id="DejaVuSans-29" transform="scale(0.015625)"/>
      </defs>
      <use xlink:href="#DejaVuSans-20"/>
      <use x="31.787109" xlink:href="#DejaVuSans-b1"/>
      <use x="115.576172" xlink:href="#DejaVuSans-20"/>
      <use x="147.363281" xlink:href="#DejaVuSans-53"/>
      <use x="210.839844" xlink:href="#DejaVuSans-6e"/>
      <use x="274.21875" xlink:href="#DejaVuSans-28"/>
      <use x="313.232422" xlink:href="#DejaVuSans-78"/>
      <use x="372.412109" xlink:href="#DejaVuSans-29"/>
     </g>
    </g>
    <g id="line2d_24">
     <path d="M 146.527813 97.406094 
L 168.527813 97.406094 
" style="fill:none;stroke:#bfbf00;stroke-dasharray:7.4,3.2;stroke-dashoffset:0;stroke-width:2;"/>
    </g>
    <g id="line2d_25"/>
    <g id="text_21">
     <!-- AEI(x) -->
     <g transform="translate(177.327813 101.256094)scale(0.11 -0.11)">
      <use xlink:href="#DejaVuSans-41"/>
      <use x="68.408203" xlink:href="#DejaVuSans-45"/>
      <use x="131.591797" xlink:href="#DejaVuSans-49"/>
      <use x="161.083984" xlink:href="#DejaVuSans-28"/>
      <use x="200.097656" xlink:href="#DejaVuSans-78"/>
      <use x="259.277344" xlink:href="#DejaVuSans-29"/>
     </g>
    </g>
    <g id="PathCollection_2">
     <defs>
      <path d="M 0 3.535534 
C 0.937635 3.535534 1.836992 3.163008 2.5 2.5 
C 3.163008 1.836992 3.535534 0.937635 3.535534 0 
C 3.535534 -0.937635 3.163008 -1.836992 2.5 -2.5 
C 1.836992 -3.163008 0.937635 -3.535534 0 -3.535534 
C -0.937635 -3.535534 -1.836992 -3.163008 -2.5 -2.5 
C -3.163008 -1.836992 -3.535534 -0.937635 -3.535534 0 
C -3.535534 0.937635 -3.163008 1.836992 -2.5 2.5 
C -1.836992 3.163008 -0.937635 3.535534 0 3.535534 
z
" id="maf3983fbce" style="stroke:#000000;"/>
     </defs>
     <g>
      <use style="fill:#ff0000;stroke:#000000;" x="157.527813" xlink:href="#maf3983fbce" y="114.514531"/>
     </g>
    </g>
    <g id="text_22">
     <!-- training data -->
     <g transform="translate(177.327813 117.402031)scale(0.11 -0.11)">
      <defs>
       <path d="M 2194 1759 
Q 1497 1759 1228 1600 
Q 959 1441 959 1056 
Q 959 750 1161 570 
Q 1363 391 1709 391 
Q 2188 391 2477 730 
Q 2766 1069 2766 1631 
L 2766 1759 
L 2194 1759 
z
M 3341 1997 
L 3341 0 
L 2766 0 
L 2766 531 
Q 2569 213 2275 61 
Q 1981 -91 1556 -91 
Q 1019 -91 701 211 
Q 384 513 384 1019 
Q 384 1609 779 1909 
Q 1175 2209 1959 2209 
L 2766 2209 
L 2766 2266 
Q 2766 2663 2505 2880 
Q 2244 3097 1772 3097 
Q 1472 3097 1187 3025 
Q 903 2953 641 2809 
L 641 3341 
Q 956 3463 1253 3523 
Q 1550 3584 1831 3584 
Q 2591 3584 2966 3190 
Q 3341 2797 3341 1997 
z
" id="DejaVuSans-61" transform="scale(0.015625)"/>
       <path d="M 2906 1791 
Q 2906 2416 2648 2759 
Q 2391 3103 1925 3103 
Q 1463 3103 1205 2759 
Q 947 2416 947 1791 
Q 947 1169 1205 825 
Q 1463 481 1925 481 
Q 2391 481 2648 825 
Q 2906 1169 2906 1791 
z
M 3481 434 
Q 3481 -459 3084 -895 
Q 2688 -1331 1869 -1331 
Q 1566 -1331 1297 -1286 
Q 1028 -1241 775 -1147 
L 775 -588 
Q 1028 -725 1275 -790 
Q 1522 -856 1778 -856 
Q 2344 -856 2625 -561 
Q 2906 -266 2906 331 
L 2906 616 
Q 2728 306 2450 153 
Q 2172 0 1784 0 
Q 1141 0 747 490 
Q 353 981 353 1791 
Q 353 2603 747 3093 
Q 1141 3584 1784 3584 
Q 2172 3584 2450 3431 
Q 2728 3278 2906 2969 
L 2906 3500 
L 3481 3500 
L 3481 434 
z
" id="DejaVuSans-67" transform="scale(0.015625)"/>
      </defs>
      <use xlink:href="#DejaVuSans-74"/>
      <use x="39.208984" xlink:href="#DejaVuSans-72"/>
      <use x="80.322266" xlink:href="#DejaVuSans-61"/>
      <use x="141.601562" xlink:href="#DejaVuSans-69"/>
      <use x="169.384766" xlink:href="#DejaVuSans-6e"/>
      <use x="232.763672" xlink:href="#DejaVuSans-69"/>
      <use x="260.546875" xlink:href="#DejaVuSans-6e"/>
      <use x="323.925781" xlink:href="#DejaVuSans-67"/>
      <use x="387.402344" xlink:href="#DejaVuSans-20"/>
      <use x="419.189453" xlink:href="#DejaVuSans-64"/>
      <use x="482.666016" xlink:href="#DejaVuSans-61"/>
      <use x="543.945312" xlink:href="#DejaVuSans-74"/>
      <use x="583.154297" xlink:href="#DejaVuSans-61"/>
     </g>
    </g>
    <g id="PathCollection_3">
     <g>
      <use style="fill:#ff0000;stroke:#ff0000;stroke-width:8;" x="157.527813" xlink:href="#ma686600227" y="130.660469"/>
     </g>
    </g>
    <g id="text_23">
     <!-- recommended datum -->
     <g transform="translate(177.327813 133.547969)scale(0.11 -0.11)">
      <defs>
       <path d="M 3328 2828 
Q 3544 3216 3844 3400 
Q 4144 3584 4550 3584 
Q 5097 3584 5394 3201 
Q 5691 2819 5691 2113 
L 5691 0 
L 5113 0 
L 5113 2094 
Q 5113 2597 4934 2840 
Q 4756 3084 4391 3084 
Q 3944 3084 3684 2787 
Q 3425 2491 3425 1978 
L 3425 0 
L 2847 0 
L 2847 2094 
Q 2847 2600 2669 2842 
Q 2491 3084 2119 3084 
Q 1678 3084 1418 2786 
Q 1159 2488 1159 1978 
L 1159 0 
L 581 0 
L 581 3500 
L 1159 3500 
L 1159 2956 
Q 1356 3278 1631 3431 
Q 1906 3584 2284 3584 
Q 2666 3584 2933 3390 
Q 3200 3197 3328 2828 
z
" id="DejaVuSans-6d" transform="scale(0.015625)"/>
      </defs>
      <use xlink:href="#DejaVuSans-72"/>
      <use x="38.863281" xlink:href="#DejaVuSans-65"/>
      <use x="100.386719" xlink:href="#DejaVuSans-63"/>
      <use x="155.367188" xlink:href="#DejaVuSans-6f"/>
      <use x="216.548828" xlink:href="#DejaVuSans-6d"/>
      <use x="313.960938" xlink:href="#DejaVuSans-6d"/>
      <use x="411.373047" xlink:href="#DejaVuSans-65"/>
      <use x="472.896484" xlink:href="#DejaVuSans-6e"/>
      <use x="536.275391" xlink:href="#DejaVuSans-64"/>
      <use x="599.751953" xlink:href="#DejaVuSans-65"/>
      <use x="661.275391" xlink:href="#DejaVuSans-64"/>
      <use x="724.751953" xlink:href="#DejaVuSans-20"/>
      <use x="756.539062" xlink:href="#DejaVuSans-64"/>
      <use x="820.015625" xlink:href="#DejaVuSans-61"/>
      <use x="881.294922" xlink:href="#DejaVuSans-74"/>
      <use x="920.503906" xlink:href="#DejaVuSans-75"/>
      <use x="983.882812" xlink:href="#DejaVuSans-6d"/>
     </g>
    </g>
   </g>
   <g id="line2d_26">
    <path clip-path="url(#p72f61f088a)" d="M 69.218182 141.352899 
L 71.985124 139.915304 
L 74.752066 139.180818 
L 77.519008 139.241501 
L 80.28595 140.157073 
L 83.052893 141.948674 
L 85.819835 144.59517 
L 88.586777 148.032485 
L 91.353719 152.156131 
L 94.120661 156.82684 
L 96.887603 161.87884 
L 99.654545 167.130091 
L 102.421488 172.393596 
L 105.18843 177.488806 
L 107.955372 182.252182 
L 110.722314 186.546074 
L 113.489256 190.265303 
L 116.256198 193.341058 
L 119.02314 195.742018 
L 121.790083 197.472836 
L 124.557025 198.570362 
L 127.323967 199.098105 
L 130.090909 199.139537 
L 132.857851 198.790846 
L 135.624793 198.153703 
L 138.391736 197.328532 
L 141.158678 196.408668 
L 143.92562 195.475646 
L 146.692562 194.5958 
L 149.459504 193.818194 
L 152.226446 193.173875 
L 154.993388 192.676331 
L 157.760331 192.322999 
L 160.527273 192.097634 
L 163.294215 191.973297 
L 166.061157 191.915737 
L 168.828099 191.886899 
L 171.595041 191.848317 
L 174.361983 191.764187 
L 177.128926 191.60392 
L 179.895868 191.344047 
L 182.66281 190.969396 
L 185.429752 190.473538 
L 188.196694 189.858526 
L 190.963636 189.134036 
L 193.730579 188.31605 
L 196.497521 187.425222 
L 199.264463 186.485121 
L 202.031405 185.520483 
L 204.798347 184.555629 
L 207.565289 183.613151 
L 210.332231 182.712931 
L 213.099174 181.871545 
L 215.866116 181.10203 
L 218.633058 180.414008 
L 221.4 179.814115 
L 224.166942 179.30666 
L 226.933884 178.894462 
L 229.700826 178.579788 
L 232.467769 178.365312 
L 235.234711 178.255044 
L 238.001653 178.255148 
L 240.768595 178.374599 
L 243.535537 178.625609 
L 246.302479 179.023773 
L 249.069421 179.587876 
L 251.836364 180.339318 
L 254.603306 181.301111 
L 257.370248 182.496451 
L 260.13719 183.946839 
L 262.904132 185.669817 
L 265.671074 187.676358 
L 268.438017 189.968025 
L 271.204959 192.534037 
L 273.971901 195.348421 
L 276.738843 198.367445 
L 279.505785 201.527569 
L 282.272727 204.744155 
L 285.039669 207.9112 
L 287.806612 210.902297 
L 290.573554 213.573072 
L 293.340496 215.765225 
L 296.107438 217.312263 
L 298.87438 218.046891 
L 301.641322 217.809892 
L 304.408264 216.460159 
L 307.175207 213.885353 
L 309.942149 210.012523 
L 312.709091 204.817825 
L 315.476033 198.334435 
L 318.242975 190.657699 
L 321.009917 181.946698 
L 323.77686 172.421572 
L 326.543802 162.356311 
L 329.310744 152.067068 
L 332.077686 141.896561 
L 334.844628 132.195524 
L 337.61157 123.302578 
L 340.378512 115.524124 
L 343.145455 109.115982 
L 345.912397 104.268365 
L 348.679339 101.095514 
L 351.446281 99.630878 
L 354.213223 99.828155 
L 356.980165 101.567967 
L 359.747107 104.669355 
L 362.51405 108.904883 
L 365.280992 114.017845 
L 368.047934 119.739962 
L 370.814876 125.808069 
L 373.581818 131.978511 
" style="fill:none;stroke:#000000;stroke-dasharray:7.4,3.2;stroke-dashoffset:0;stroke-width:2;"/>
   </g>
   <g id="PathCollection_4">
    <g clip-path="url(#p72f61f088a)">
     <use style="fill:#ff0000;stroke:#000000;" x="83.052893" xlink:href="#maf3983fbce" y="129.399309"/>
     <use style="fill:#ff0000;stroke:#000000;" x="96.887603" xlink:href="#maf3983fbce" y="162.429541"/>
     <use style="fill:#ff0000;stroke:#000000;" x="110.722314" xlink:href="#maf3983fbce" y="193.170209"/>
     <use style="fill:#ff0000;stroke:#000000;" x="124.557025" xlink:href="#maf3983fbce" y="199.248575"/>
     <use style="fill:#ff0000;stroke:#000000;" x="138.391736" xlink:href="#maf3983fbce" y="199.347548"/>
     <use style="fill:#ff0000;stroke:#000000;" x="152.226446" xlink:href="#maf3983fbce" y="191.611971"/>
     <use style="fill:#ff0000;stroke:#000000;" x="166.061157" xlink:href="#maf3983fbce" y="193.66847"/>
     <use style="fill:#ff0000;stroke:#000000;" x="179.895868" xlink:href="#maf3983fbce" y="193.283098"/>
     <use style="fill:#ff0000;stroke:#000000;" x="193.730579" xlink:href="#maf3983fbce" y="188.924027"/>
     <use style="fill:#ff0000;stroke:#000000;" x="318.242975" xlink:href="#maf3983fbce" y="199.289596"/>
     <use style="fill:#ff0000;stroke:#000000;" x="332.077686" xlink:href="#maf3983fbce" y="145.37007"/>
     <use style="fill:#ff0000;stroke:#000000;" x="345.912397" xlink:href="#maf3983fbce" y="78.407322"/>
     <use style="fill:#ff0000;stroke:#000000;" x="298.87438" xlink:href="#maf3983fbce" y="224.202285"/>
    </g>
   </g>
  </g>
 </g>
 <defs>
  <clipPath id="p72f61f088a">
   <rect height="217.44" width="334.8" x="54" y="34.56"/>
  </clipPath>
 </defs>
</svg>
