<?xml version="1.0" encoding="utf-8" standalone="no"?>
<!DOCTYPE svg PUBLIC "-//W3C//DTD SVG 1.1//EN"
  "http://www.w3.org/Graphics/SVG/1.1/DTD/svg11.dtd">
<svg height="288pt" version="1.1" viewBox="0 0 432 288" width="432pt" xmlns="http://www.w3.org/2000/svg" xmlns:xlink="http://www.w3.org/1999/xlink">
 <metadata>
  <rdf:RDF xmlns:cc="http://creativecommons.org/ns#" xmlns:dc="http://purl.org/dc/elements/1.1/" xmlns:rdf="http://www.w3.org/1999/02/22-rdf-syntax-ns#">
   <cc:Work>
    <dc:type rdf:resource="http://purl.org/dc/dcmitype/StillImage"/>
    <dc:date>2022-08-04T11:40:42.640336</dc:date>
    <dc:format>image/svg+xml</dc:format>
    <dc:creator>
     <cc:Agent>
      <dc:title>Matplotlib v3.4.3, https://matplotlib.org/</dc:title>
     </cc:Agent>
    </dc:creator>
   </cc:Work>
  </rdf:RDF>
 </metadata>
 <defs>
  <style type="text/css">*{stroke-linecap:butt;stroke-linejoin:round;}</style>
 </defs>
 <g id="figure_1">
  <g id="patch_1">
   <path d="M 0 288 
L 432 288 
L 432 0 
L 0 0 
z
" style="fill:none;"/>
  </g>
  <g id="axes_1">
   <g id="patch_2">
    <path d="M 54 252 
L 388.8 252 
L 388.8 34.56 
L 54 34.56 
z
" style="fill:#ffffff;"/>
   </g>
   <g id="PolyCollection_1">
    <defs>
     <path d="M 69.218182 -169.357861 
L 69.218182 -122.747826 
L 71.985124 -125.405781 
L 74.752066 -127.382056 
L 77.519008 -128.575324 
L 80.28595 -128.906881 
L 83.052893 -128.329502 
L 85.819835 -126.837203 
L 88.586777 -124.47376 
L 91.353719 -121.335722 
L 94.120661 -117.565882 
L 96.887603 -113.337613 
L 99.654545 -108.835568 
L 102.421488 -104.238978 
L 105.18843 -99.710492 
L 107.955372 -95.39013 
L 110.722314 -91.39267 
L 113.489256 -87.807001 
L 116.256198 -84.696557 
L 119.02314 -82.100378 
L 121.790083 -80.034571 
L 124.557025 -78.494113 
L 127.323967 -77.454993 
L 130.090909 -76.876761 
L 132.857851 -76.705535 
L 135.624793 -76.87744 
L 138.391736 -77.322376 
L 141.158678 -77.967943 
L 143.92562 -78.743306 
L 146.692562 -79.582797 
L 149.459504 -80.429069 
L 152.226446 -81.23566 
L 154.993388 -81.968801 
L 157.760331 -82.608291 
L 160.527273 -83.147239 
L 163.294215 -83.590498 
L 166.061157 -83.951703 
L 168.828099 -84.248966 
L 171.595041 -84.499498 
L 174.361983 -84.713665 
L 177.128926 -84.889329 
L 179.895868 -85.007878 
L 182.66281 -85.033895 
L 185.429752 -84.920517 
L 188.196694 -84.620851 
L 190.963636 -84.10219 
L 193.730579 -83.356788 
L 196.497521 -82.404421 
L 199.264463 -81.287231 
L 202.031405 -80.061134 
L 204.798347 -78.787655 
L 207.565289 -77.527771 
L 210.332231 -76.337634 
L 213.099174 -75.265528 
L 215.866116 -74.349555 
L 218.633058 -73.615727 
L 221.4 -73.076398 
L 224.166942 -72.729013 
L 226.933884 -72.555262 
L 229.700826 -72.520691 
L 232.467769 -72.574921 
L 235.234711 -72.652647 
L 238.001653 -72.675742 
L 240.768595 -72.557037 
L 243.535537 -72.206656 
L 246.302479 -71.541862 
L 249.069421 -70.500606 
L 251.836364 -69.056536 
L 254.603306 -67.229875 
L 257.370248 -65.087675 
L 260.13719 -62.731619 
L 262.904132 -60.27866 
L 265.671074 -57.842566 
L 268.438017 -55.521413 
L 271.204959 -53.391617 
L 273.971901 -51.506868 
L 276.738843 -49.900326 
L 279.505785 -48.589431 
L 282.272727 -47.583721 
L 285.039669 -46.896257 
L 287.806612 -46.557632 
L 290.573554 -46.627897 
L 293.340496 -47.199403 
L 296.107438 -48.38714 
L 298.87438 -50.310716 
L 301.641322 -53.075821 
L 304.408264 -56.760386 
L 307.175207 -61.406287 
L 309.942149 -67.015328 
L 312.709091 -73.548038 
L 315.476033 -80.924342 
L 318.242975 -89.025538 
L 321.009917 -97.69719 
L 323.77686 -106.752614 
L 326.543802 -115.976808 
L 329.310744 -125.13103 
L 332.077686 -133.95888 
L 334.844628 -142.195415 
L 337.61157 -149.580889 
L 340.378512 -155.879146 
L 343.145455 -160.897332 
L 345.912397 -164.501123 
L 348.679339 -166.621165 
L 351.446281 -167.251078 
L 354.213223 -166.44051 
L 356.980165 -164.286467 
L 359.747107 -160.924349 
L 362.51405 -156.518933 
L 365.280992 -151.255232 
L 368.047934 -145.329339 
L 370.814876 -138.939534 
L 373.581818 -132.278088 
L 373.581818 -196.005614 
L 373.581818 -196.005614 
L 370.814876 -199.759322 
L 368.047934 -202.934014 
L 365.280992 -205.382528 
L 362.51405 -206.970611 
L 359.747107 -207.584481 
L 356.980165 -207.137873 
L 354.213223 -205.577927 
L 351.446281 -202.889172 
L 348.679339 -199.09474 
L 345.912397 -194.253917 
L 343.145455 -188.455716 
L 340.378512 -181.809627 
L 337.61157 -174.436831 
L 334.844628 -166.465777 
L 332.077686 -158.033153 
L 329.310744 -149.286923 
L 326.543802 -140.3867 
L 323.77686 -131.499349 
L 321.009917 -122.790935 
L 318.242975 -114.417655 
L 315.476033 -106.518082 
L 312.709091 -99.208087 
L 309.942149 -92.578923 
L 307.175207 -86.698264 
L 304.408264 -81.613575 
L 301.641322 -77.356922 
L 298.87438 -73.950018 
L 296.107438 -71.407835 
L 293.340496 -69.738644 
L 290.573554 -68.938558 
L 287.806612 -68.980927 
L 285.039669 -69.805399 
L 282.272727 -71.314275 
L 279.505785 -73.380215 
L 276.738843 -75.861904 
L 273.971901 -78.62079 
L 271.204959 -81.534429 
L 268.438017 -84.505574 
L 265.671074 -87.467808 
L 262.904132 -90.388275 
L 260.13719 -93.266953 
L 257.370248 -96.130911 
L 254.603306 -99.021929 
L 251.836364 -101.978072 
L 249.069421 -105.014231 
L 246.302479 -108.109675 
L 243.535537 -111.207887 
L 240.768595 -114.226845 
L 238.001653 -117.073266 
L 235.234711 -119.655266 
L 232.467769 -121.891238 
L 229.700826 -123.71518 
L 226.933884 -125.079506 
L 224.166942 -125.95626 
L 221.4 -126.33731 
L 218.633058 -126.233886 
L 215.866116 -125.675604 
L 213.099174 -124.70908 
L 210.332231 -123.396162 
L 207.565289 -121.811769 
L 204.798347 -120.041299 
L 202.031405 -118.177445 
L 199.264463 -116.316115 
L 196.497521 -114.550922 
L 193.730579 -112.965658 
L 190.963636 -111.624696 
L 188.196694 -110.563008 
L 185.429752 -109.779812 
L 182.66281 -109.240271 
L 179.895868 -108.885906 
L 177.128926 -108.649085 
L 174.361983 -108.465464 
L 171.595041 -108.281157 
L 168.828099 -108.055038 
L 166.061157 -107.758105 
L 163.294215 -107.371744 
L 160.527273 -106.886061 
L 157.760331 -106.298844 
L 154.993388 -105.615352 
L 152.226446 -104.848834 
L 149.459504 -104.021499 
L 146.692562 -103.165521 
L 143.92562 -102.323663 
L 141.158678 -101.549132 
L 138.391736 -100.904448 
L 135.624793 -100.459228 
L 132.857851 -100.286915 
L 130.090909 -100.46063 
L 127.323967 -101.048351 
L 124.557025 -102.107762 
L 121.790083 -103.68117 
L 119.02314 -105.791008 
L 116.256198 -108.436459 
L 113.489256 -111.591779 
L 110.722314 -115.206735 
L 107.955372 -119.209419 
L 105.18843 -123.511395 
L 102.421488 -128.014812 
L 99.654545 -132.620701 
L 96.887603 -137.23703 
L 94.120661 -141.784442 
L 91.353719 -146.197217 
L 88.586777 -150.418315 
L 85.819835 -154.390654 
L 83.052893 -158.050241 
L 80.28595 -161.326129 
L 77.519008 -164.147253 
L 74.752066 -166.451991 
L 71.985124 -168.1962 
L 69.218182 -169.357861 
z
" id="m2f999b3e87" style="stroke:#add8e6;stroke-opacity:0.2;"/>
    </defs>
    <g clip-path="url(#p10fc33ad72)">
     <use style="fill:#add8e6;fill-opacity:0.2;stroke:#add8e6;stroke-opacity:0.2;" x="0" xlink:href="#m2f999b3e87" y="288"/>
    </g>
   </g>
   <g id="PathCollection_1">
    <defs>
     <path d="M 0 0.612372 
C 0.162403 0.612372 0.318176 0.547849 0.433013 0.433013 
C 0.547849 0.318176 0.612372 0.162403 0.612372 0 
C 0.612372 -0.162403 0.547849 -0.318176 0.433013 -0.433013 
C 0.318176 -0.547849 0.162403 -0.612372 0 -0.612372 
C -0.162403 -0.612372 -0.318176 -0.547849 -0.433013 -0.433013 
C -0.547849 -0.318176 -0.612372 -0.162403 -0.612372 0 
C -0.612372 0.162403 -0.547849 0.318176 -0.433013 0.433013 
C -0.318176 0.547849 -0.162403 0.612372 0 0.612372 
z
" id="m7c2af256ff" style="stroke:#ff0000;stroke-width:8;"/>
    </defs>
    <g clip-path="url(#p10fc33ad72)">
     <use style="fill:#ff0000;stroke:#ff0000;stroke-width:8;" x="287.806612" xlink:href="#m7c2af256ff" y="245.307821"/>
    </g>
   </g>
   <g id="matplotlib.axis_1">
    <g id="xtick_1">
     <g id="line2d_1">
      <defs>
       <path d="M 0 0 
L 0 3.5 
" id="maa61be0842" style="stroke:#000000;stroke-width:0.8;"/>
      </defs>
      <g>
       <use style="stroke:#000000;stroke-width:0.8;" x="69.218182" xlink:href="#maa61be0842" y="252"/>
      </g>
     </g>
     <g id="text_1">
      <!-- 0 -->
      <g transform="translate(66.036932 266.598437)scale(0.1 -0.1)">
       <defs>
        <path d="M 2034 4250 
Q 1547 4250 1301 3770 
Q 1056 3291 1056 2328 
Q 1056 1369 1301 889 
Q 1547 409 2034 409 
Q 2525 409 2770 889 
Q 3016 1369 3016 2328 
Q 3016 3291 2770 3770 
Q 2525 4250 2034 4250 
z
M 2034 4750 
Q 2819 4750 3233 4129 
Q 3647 3509 3647 2328 
Q 3647 1150 3233 529 
Q 2819 -91 2034 -91 
Q 1250 -91 836 529 
Q 422 1150 422 2328 
Q 422 3509 836 4129 
Q 1250 4750 2034 4750 
z
" id="DejaVuSans-30" transform="scale(0.015625)"/>
       </defs>
       <use xlink:href="#DejaVuSans-30"/>
      </g>
     </g>
    </g>
    <g id="xtick_2">
     <g id="line2d_2">
      <g>
       <use style="stroke:#000000;stroke-width:0.8;" x="124.557025" xlink:href="#maa61be0842" y="252"/>
      </g>
     </g>
     <g id="text_2">
      <!-- 2 -->
      <g transform="translate(121.375775 266.598437)scale(0.1 -0.1)">
       <defs>
        <path d="M 1228 531 
L 3431 531 
L 3431 0 
L 469 0 
L 469 531 
Q 828 903 1448 1529 
Q 2069 2156 2228 2338 
Q 2531 2678 2651 2914 
Q 2772 3150 2772 3378 
Q 2772 3750 2511 3984 
Q 2250 4219 1831 4219 
Q 1534 4219 1204 4116 
Q 875 4013 500 3803 
L 500 4441 
Q 881 4594 1212 4672 
Q 1544 4750 1819 4750 
Q 2544 4750 2975 4387 
Q 3406 4025 3406 3419 
Q 3406 3131 3298 2873 
Q 3191 2616 2906 2266 
Q 2828 2175 2409 1742 
Q 1991 1309 1228 531 
z
" id="DejaVuSans-32" transform="scale(0.015625)"/>
       </defs>
       <use xlink:href="#DejaVuSans-32"/>
      </g>
     </g>
    </g>
    <g id="xtick_3">
     <g id="line2d_3">
      <g>
       <use style="stroke:#000000;stroke-width:0.8;" x="179.895868" xlink:href="#maa61be0842" y="252"/>
      </g>
     </g>
     <g id="text_3">
      <!-- 4 -->
      <g transform="translate(176.714618 266.598437)scale(0.1 -0.1)">
       <defs>
        <path d="M 2419 4116 
L 825 1625 
L 2419 1625 
L 2419 4116 
z
M 2253 4666 
L 3047 4666 
L 3047 1625 
L 3713 1625 
L 3713 1100 
L 3047 1100 
L 3047 0 
L 2419 0 
L 2419 1100 
L 313 1100 
L 313 1709 
L 2253 4666 
z
" id="DejaVuSans-34" transform="scale(0.015625)"/>
       </defs>
       <use xlink:href="#DejaVuSans-34"/>
      </g>
     </g>
    </g>
    <g id="xtick_4">
     <g id="line2d_4">
      <g>
       <use style="stroke:#000000;stroke-width:0.8;" x="235.234711" xlink:href="#maa61be0842" y="252"/>
      </g>
     </g>
     <g id="text_4">
      <!-- 6 -->
      <g transform="translate(232.053461 266.598437)scale(0.1 -0.1)">
       <defs>
        <path d="M 2113 2584 
Q 1688 2584 1439 2293 
Q 1191 2003 1191 1497 
Q 1191 994 1439 701 
Q 1688 409 2113 409 
Q 2538 409 2786 701 
Q 3034 994 3034 1497 
Q 3034 2003 2786 2293 
Q 2538 2584 2113 2584 
z
M 3366 4563 
L 3366 3988 
Q 3128 4100 2886 4159 
Q 2644 4219 2406 4219 
Q 1781 4219 1451 3797 
Q 1122 3375 1075 2522 
Q 1259 2794 1537 2939 
Q 1816 3084 2150 3084 
Q 2853 3084 3261 2657 
Q 3669 2231 3669 1497 
Q 3669 778 3244 343 
Q 2819 -91 2113 -91 
Q 1303 -91 875 529 
Q 447 1150 447 2328 
Q 447 3434 972 4092 
Q 1497 4750 2381 4750 
Q 2619 4750 2861 4703 
Q 3103 4656 3366 4563 
z
" id="DejaVuSans-36" transform="scale(0.015625)"/>
       </defs>
       <use xlink:href="#DejaVuSans-36"/>
      </g>
     </g>
    </g>
    <g id="xtick_5">
     <g id="line2d_5">
      <g>
       <use style="stroke:#000000;stroke-width:0.8;" x="290.573554" xlink:href="#maa61be0842" y="252"/>
      </g>
     </g>
     <g id="text_5">
      <!-- 8 -->
      <g transform="translate(287.392304 266.598437)scale(0.1 -0.1)">
       <defs>
        <path d="M 2034 2216 
Q 1584 2216 1326 1975 
Q 1069 1734 1069 1313 
Q 1069 891 1326 650 
Q 1584 409 2034 409 
Q 2484 409 2743 651 
Q 3003 894 3003 1313 
Q 3003 1734 2745 1975 
Q 2488 2216 2034 2216 
z
M 1403 2484 
Q 997 2584 770 2862 
Q 544 3141 544 3541 
Q 544 4100 942 4425 
Q 1341 4750 2034 4750 
Q 2731 4750 3128 4425 
Q 3525 4100 3525 3541 
Q 3525 3141 3298 2862 
Q 3072 2584 2669 2484 
Q 3125 2378 3379 2068 
Q 3634 1759 3634 1313 
Q 3634 634 3220 271 
Q 2806 -91 2034 -91 
Q 1263 -91 848 271 
Q 434 634 434 1313 
Q 434 1759 690 2068 
Q 947 2378 1403 2484 
z
M 1172 3481 
Q 1172 3119 1398 2916 
Q 1625 2713 2034 2713 
Q 2441 2713 2670 2916 
Q 2900 3119 2900 3481 
Q 2900 3844 2670 4047 
Q 2441 4250 2034 4250 
Q 1625 4250 1398 4047 
Q 1172 3844 1172 3481 
z
" id="DejaVuSans-38" transform="scale(0.015625)"/>
       </defs>
       <use xlink:href="#DejaVuSans-38"/>
      </g>
     </g>
    </g>
    <g id="xtick_6">
     <g id="line2d_6">
      <g>
       <use style="stroke:#000000;stroke-width:0.8;" x="345.912397" xlink:href="#maa61be0842" y="252"/>
      </g>
     </g>
     <g id="text_6">
      <!-- 10 -->
      <g transform="translate(339.549897 266.598437)scale(0.1 -0.1)">
       <defs>
        <path d="M 794 531 
L 1825 531 
L 1825 4091 
L 703 3866 
L 703 4441 
L 1819 4666 
L 2450 4666 
L 2450 531 
L 3481 531 
L 3481 0 
L 794 0 
L 794 531 
z
" id="DejaVuSans-31" transform="scale(0.015625)"/>
       </defs>
       <use xlink:href="#DejaVuSans-31"/>
       <use x="63.623047" xlink:href="#DejaVuSans-30"/>
      </g>
     </g>
    </g>
    <g id="text_7">
     <!-- x -->
     <g transform="translate(217.84875 281.79625)scale(0.12 -0.12)">
      <defs>
       <path d="M 3513 3500 
L 2247 1797 
L 3578 0 
L 2900 0 
L 1881 1375 
L 863 0 
L 184 0 
L 1544 1831 
L 300 3500 
L 978 3500 
L 1906 2253 
L 2834 3500 
L 3513 3500 
z
" id="DejaVuSans-78" transform="scale(0.015625)"/>
      </defs>
      <use xlink:href="#DejaVuSans-78"/>
     </g>
    </g>
   </g>
   <g id="matplotlib.axis_2">
    <g id="ytick_1">
     <g id="line2d_7">
      <defs>
       <path d="M 0 0 
L -3.5 0 
" id="m6cb0567ff8" style="stroke:#000000;stroke-width:0.8;"/>
      </defs>
      <g>
       <use style="stroke:#000000;stroke-width:0.8;" x="54" xlink:href="#m6cb0567ff8" y="252"/>
      </g>
     </g>
     <g id="text_8">
      <!-- 3 -->
      <g transform="translate(40.6375 255.799219)scale(0.1 -0.1)">
       <defs>
        <path d="M 2597 2516 
Q 3050 2419 3304 2112 
Q 3559 1806 3559 1356 
Q 3559 666 3084 287 
Q 2609 -91 1734 -91 
Q 1441 -91 1130 -33 
Q 819 25 488 141 
L 488 750 
Q 750 597 1062 519 
Q 1375 441 1716 441 
Q 2309 441 2620 675 
Q 2931 909 2931 1356 
Q 2931 1769 2642 2001 
Q 2353 2234 1838 2234 
L 1294 2234 
L 1294 2753 
L 1863 2753 
Q 2328 2753 2575 2939 
Q 2822 3125 2822 3475 
Q 2822 3834 2567 4026 
Q 2313 4219 1838 4219 
Q 1578 4219 1281 4162 
Q 984 4106 628 3988 
L 628 4550 
Q 988 4650 1302 4700 
Q 1616 4750 1894 4750 
Q 2613 4750 3031 4423 
Q 3450 4097 3450 3541 
Q 3450 3153 3228 2886 
Q 3006 2619 2597 2516 
z
" id="DejaVuSans-33" transform="scale(0.015625)"/>
       </defs>
       <use xlink:href="#DejaVuSans-33"/>
      </g>
     </g>
    </g>
    <g id="ytick_2">
     <g id="line2d_8">
      <g>
       <use style="stroke:#000000;stroke-width:0.8;" x="54" xlink:href="#m6cb0567ff8" y="215.76"/>
      </g>
     </g>
     <g id="text_9">
      <!-- 4 -->
      <g transform="translate(40.6375 219.559219)scale(0.1 -0.1)">
       <use xlink:href="#DejaVuSans-34"/>
      </g>
     </g>
    </g>
    <g id="ytick_3">
     <g id="line2d_9">
      <g>
       <use style="stroke:#000000;stroke-width:0.8;" x="54" xlink:href="#m6cb0567ff8" y="179.52"/>
      </g>
     </g>
     <g id="text_10">
      <!-- 5 -->
      <g transform="translate(40.6375 183.319219)scale(0.1 -0.1)">
       <defs>
        <path d="M 691 4666 
L 3169 4666 
L 3169 4134 
L 1269 4134 
L 1269 2991 
Q 1406 3038 1543 3061 
Q 1681 3084 1819 3084 
Q 2600 3084 3056 2656 
Q 3513 2228 3513 1497 
Q 3513 744 3044 326 
Q 2575 -91 1722 -91 
Q 1428 -91 1123 -41 
Q 819 9 494 109 
L 494 744 
Q 775 591 1075 516 
Q 1375 441 1709 441 
Q 2250 441 2565 725 
Q 2881 1009 2881 1497 
Q 2881 1984 2565 2268 
Q 2250 2553 1709 2553 
Q 1456 2553 1204 2497 
Q 953 2441 691 2322 
L 691 4666 
z
" id="DejaVuSans-35" transform="scale(0.015625)"/>
       </defs>
       <use xlink:href="#DejaVuSans-35"/>
      </g>
     </g>
    </g>
    <g id="ytick_4">
     <g id="line2d_10">
      <g>
       <use style="stroke:#000000;stroke-width:0.8;" x="54" xlink:href="#m6cb0567ff8" y="143.28"/>
      </g>
     </g>
     <g id="text_11">
      <!-- 6 -->
      <g transform="translate(40.6375 147.079219)scale(0.1 -0.1)">
       <use xlink:href="#DejaVuSans-36"/>
      </g>
     </g>
    </g>
    <g id="ytick_5">
     <g id="line2d_11">
      <g>
       <use style="stroke:#000000;stroke-width:0.8;" x="54" xlink:href="#m6cb0567ff8" y="107.04"/>
      </g>
     </g>
     <g id="text_12">
      <!-- 7 -->
      <g transform="translate(40.6375 110.839219)scale(0.1 -0.1)">
       <defs>
        <path d="M 525 4666 
L 3525 4666 
L 3525 4397 
L 1831 0 
L 1172 0 
L 2766 4134 
L 525 4134 
L 525 4666 
z
" id="DejaVuSans-37" transform="scale(0.015625)"/>
       </defs>
       <use xlink:href="#DejaVuSans-37"/>
      </g>
     </g>
    </g>
    <g id="ytick_6">
     <g id="line2d_12">
      <g>
       <use style="stroke:#000000;stroke-width:0.8;" x="54" xlink:href="#m6cb0567ff8" y="70.8"/>
      </g>
     </g>
     <g id="text_13">
      <!-- 8 -->
      <g transform="translate(40.6375 74.599219)scale(0.1 -0.1)">
       <use xlink:href="#DejaVuSans-38"/>
      </g>
     </g>
    </g>
    <g id="ytick_7">
     <g id="line2d_13">
      <g>
       <use style="stroke:#000000;stroke-width:0.8;" x="54" xlink:href="#m6cb0567ff8" y="34.56"/>
      </g>
     </g>
     <g id="text_14">
      <!-- 9 -->
      <g transform="translate(40.6375 38.359219)scale(0.1 -0.1)">
       <defs>
        <path d="M 703 97 
L 703 672 
Q 941 559 1184 500 
Q 1428 441 1663 441 
Q 2288 441 2617 861 
Q 2947 1281 2994 2138 
Q 2813 1869 2534 1725 
Q 2256 1581 1919 1581 
Q 1219 1581 811 2004 
Q 403 2428 403 3163 
Q 403 3881 828 4315 
Q 1253 4750 1959 4750 
Q 2769 4750 3195 4129 
Q 3622 3509 3622 2328 
Q 3622 1225 3098 567 
Q 2575 -91 1691 -91 
Q 1453 -91 1209 -44 
Q 966 3 703 97 
z
M 1959 2075 
Q 2384 2075 2632 2365 
Q 2881 2656 2881 3163 
Q 2881 3666 2632 3958 
Q 2384 4250 1959 4250 
Q 1534 4250 1286 3958 
Q 1038 3666 1038 3163 
Q 1038 2656 1286 2365 
Q 1534 2075 1959 2075 
z
" id="DejaVuSans-39" transform="scale(0.015625)"/>
       </defs>
       <use xlink:href="#DejaVuSans-39"/>
      </g>
     </g>
    </g>
    <g id="text_15">
     <!-- y -->
     <g transform="translate(34.141875 146.83125)rotate(-90)scale(0.12 -0.12)">
      <defs>
       <path d="M 2059 -325 
Q 1816 -950 1584 -1140 
Q 1353 -1331 966 -1331 
L 506 -1331 
L 506 -850 
L 844 -850 
Q 1081 -850 1212 -737 
Q 1344 -625 1503 -206 
L 1606 56 
L 191 3500 
L 800 3500 
L 1894 763 
L 2988 3500 
L 3597 3500 
L 2059 -325 
z
" id="DejaVuSans-79" transform="scale(0.015625)"/>
      </defs>
      <use xlink:href="#DejaVuSans-79"/>
     </g>
    </g>
   </g>
   <g id="line2d_14">
    <path clip-path="url(#p10fc33ad72)" d="M 69.218182 70.8 
L 71.985124 85.083949 
L 74.752066 98.25467 
L 77.519008 110.364828 
L 80.28595 121.465955 
L 83.052893 131.608455 
L 85.819835 140.841599 
L 88.586777 149.213528 
L 91.353719 156.771253 
L 94.120661 163.560654 
L 96.887603 169.62648 
L 99.654545 175.012349 
L 102.421488 179.76075 
L 105.18843 183.913038 
L 107.955372 187.509441 
L 110.722314 190.589055 
L 113.489256 193.189844 
L 116.256198 195.348643 
L 119.02314 197.101155 
L 121.790083 198.481953 
L 124.557025 199.52448 
L 127.323967 200.261047 
L 130.090909 200.722835 
L 132.857851 200.939895 
L 135.624793 200.941145 
L 138.391736 200.754375 
L 141.158678 200.406243 
L 143.92562 199.922276 
L 146.692562 199.326871 
L 149.459504 198.643294 
L 152.226446 197.89368 
L 154.993388 197.099035 
L 157.760331 196.279231 
L 160.527273 195.453014 
L 163.294215 194.637994 
L 166.061157 193.850655 
L 168.828099 193.106347 
L 171.595041 192.419291 
L 174.361983 191.802577 
L 177.128926 191.268164 
L 179.895868 190.82688 
L 182.66281 190.488424 
L 185.429752 190.261362 
L 188.196694 190.153131 
L 190.963636 190.170037 
L 193.730579 190.317255 
L 196.497521 190.598829 
L 199.264463 191.017673 
L 202.031405 191.575569 
L 204.798347 192.273171 
L 207.565289 193.11 
L 210.332231 194.084446 
L 213.099174 195.193771 
L 215.866116 196.434103 
L 218.633058 197.800442 
L 221.4 199.286655 
L 224.166942 200.88548 
L 226.933884 202.588525 
L 229.700826 204.386264 
L 232.467769 206.268045 
L 235.234711 208.22208 
L 238.001653 210.235455 
L 240.768595 212.294122 
L 243.535537 214.382905 
L 246.302479 216.485496 
L 249.069421 218.584455 
L 251.836364 220.661214 
L 254.603306 222.696071 
L 257.370248 224.668198 
L 260.13719 226.555631 
L 262.904132 228.33528 
L 265.671074 229.982921 
L 268.438017 231.4732 
L 271.204959 232.779634 
L 273.971901 233.874607 
L 276.738843 234.729375 
L 279.505785 235.31406 
L 282.272727 235.597656 
L 285.039669 235.548026 
L 287.806612 235.1319 
L 290.573554 234.31488 
L 293.340496 233.061436 
L 296.107438 231.334908 
L 298.87438 229.097505 
L 301.641322 226.310305 
L 304.408264 222.933255 
L 307.175207 218.925173 
L 309.942149 214.243744 
L 312.709091 208.845524 
L 315.476033 202.685938 
L 318.242975 195.71928 
L 321.009917 187.898713 
L 323.77686 179.176271 
L 326.543802 169.502854 
L 329.310744 158.828236 
L 332.077686 147.101055 
L 334.844628 134.268823 
L 337.61157 120.277918 
L 340.378512 105.073589 
L 343.145455 88.599954 
L 345.912397 70.8 
L 348.679339 51.615584 
L 351.446281 30.987432 
L 354.213223 8.855138 
L 355.363895 -1 
" style="fill:none;stroke:#0000ff;stroke-linecap:square;stroke-width:2;"/>
   </g>
   <g id="line2d_15">
    <path clip-path="url(#p10fc33ad72)" d="M 69.218182 165.252174 
L 71.985124 162.594219 
L 74.752066 160.617944 
L 77.519008 159.424676 
L 80.28595 159.093119 
L 83.052893 159.670498 
L 85.819835 161.162797 
L 88.586777 163.52624 
L 91.353719 166.664278 
L 94.120661 170.434118 
L 96.887603 174.662387 
L 99.654545 179.164432 
L 102.421488 183.761022 
L 105.18843 188.289508 
L 107.955372 192.60987 
L 110.722314 196.60733 
L 113.489256 200.192999 
L 116.256198 203.303443 
L 119.02314 205.899622 
L 121.790083 207.965429 
L 124.557025 209.505887 
L 127.323967 210.545007 
L 130.090909 211.123239 
L 132.857851 211.294465 
L 135.624793 211.12256 
L 138.391736 210.677624 
L 141.158678 210.032057 
L 143.92562 209.256694 
L 146.692562 208.417203 
L 149.459504 207.570931 
L 152.226446 206.76434 
L 154.993388 206.031199 
L 157.760331 205.391709 
L 160.527273 204.852761 
L 163.294215 204.409502 
L 166.061157 204.048297 
L 168.828099 203.751034 
L 171.595041 203.500502 
L 174.361983 203.286335 
L 177.128926 203.110671 
L 179.895868 202.992122 
L 182.66281 202.966105 
L 185.429752 203.079483 
L 188.196694 203.379149 
L 190.963636 203.89781 
L 193.730579 204.643212 
L 196.497521 205.595579 
L 199.264463 206.712769 
L 202.031405 207.938866 
L 204.798347 209.212345 
L 207.565289 210.472229 
L 210.332231 211.662366 
L 213.099174 212.734472 
L 215.866116 213.650445 
L 218.633058 214.384273 
L 221.4 214.923602 
L 224.166942 215.270987 
L 226.933884 215.444738 
L 229.700826 215.479309 
L 232.467769 215.425079 
L 235.234711 215.347353 
L 238.001653 215.324258 
L 240.768595 215.442963 
L 243.535537 215.793344 
L 246.302479 216.458138 
L 249.069421 217.499394 
L 251.836364 218.943464 
L 254.603306 220.770125 
L 257.370248 222.912325 
L 260.13719 225.268381 
L 262.904132 227.72134 
L 265.671074 230.157434 
L 268.438017 232.478587 
L 271.204959 234.608383 
L 273.971901 236.493132 
L 276.738843 238.099674 
L 279.505785 239.410569 
L 282.272727 240.416279 
L 285.039669 241.103743 
L 287.806612 241.442368 
L 290.573554 241.372103 
L 293.340496 240.800597 
L 296.107438 239.61286 
L 298.87438 237.689284 
L 301.641322 234.924179 
L 304.408264 231.239614 
L 307.175207 226.593713 
L 309.942149 220.984672 
L 312.709091 214.451962 
L 315.476033 207.075658 
L 318.242975 198.974462 
L 321.009917 190.30281 
L 323.77686 181.247386 
L 326.543802 172.023192 
L 329.310744 162.86897 
L 332.077686 154.04112 
L 334.844628 145.804585 
L 337.61157 138.419111 
L 340.378512 132.120854 
L 343.145455 127.102668 
L 345.912397 123.498877 
L 348.679339 121.378835 
L 351.446281 120.748922 
L 354.213223 121.55949 
L 356.980165 123.713533 
L 359.747107 127.075651 
L 362.51405 131.481067 
L 365.280992 136.744768 
L 368.047934 142.670661 
L 370.814876 149.060466 
L 373.581818 155.721912 
" style="fill:none;stroke:#008000;stroke-dasharray:3.7,1.6;stroke-dashoffset:0;"/>
   </g>
   <g id="line2d_16">
    <path clip-path="url(#p10fc33ad72)" d="M 69.218182 118.642139 
L 71.985124 119.8038 
L 74.752066 121.548009 
L 77.519008 123.852747 
L 80.28595 126.673871 
L 83.052893 129.949759 
L 85.819835 133.609346 
L 88.586777 137.581685 
L 91.353719 141.802783 
L 94.120661 146.215558 
L 96.887603 150.76297 
L 99.654545 155.379299 
L 102.421488 159.985188 
L 105.18843 164.488605 
L 107.955372 168.790581 
L 110.722314 172.793265 
L 113.489256 176.408221 
L 116.256198 179.563541 
L 119.02314 182.208992 
L 121.790083 184.31883 
L 124.557025 185.892238 
L 127.323967 186.951649 
L 130.090909 187.53937 
L 132.857851 187.713085 
L 135.624793 187.540772 
L 138.391736 187.095552 
L 141.158678 186.450868 
L 143.92562 185.676337 
L 146.692562 184.834479 
L 149.459504 183.978501 
L 152.226446 183.151166 
L 154.993388 182.384648 
L 157.760331 181.701156 
L 160.527273 181.113939 
L 163.294215 180.628256 
L 166.061157 180.241895 
L 168.828099 179.944962 
L 171.595041 179.718843 
L 174.361983 179.534536 
L 177.128926 179.350915 
L 179.895868 179.114094 
L 182.66281 178.759729 
L 185.429752 178.220188 
L 188.196694 177.436992 
L 190.963636 176.375304 
L 193.730579 175.034342 
L 196.497521 173.449078 
L 199.264463 171.683885 
L 202.031405 169.822555 
L 204.798347 167.958701 
L 207.565289 166.188231 
L 210.332231 164.603838 
L 213.099174 163.29092 
L 215.866116 162.324396 
L 218.633058 161.766114 
L 221.4 161.66269 
L 224.166942 162.04374 
L 226.933884 162.920494 
L 229.700826 164.28482 
L 232.467769 166.108762 
L 235.234711 168.344734 
L 238.001653 170.926734 
L 240.768595 173.773155 
L 243.535537 176.792113 
L 246.302479 179.890325 
L 249.069421 182.985769 
L 251.836364 186.021928 
L 254.603306 188.978071 
L 257.370248 191.869089 
L 260.13719 194.733047 
L 262.904132 197.611725 
L 265.671074 200.532192 
L 268.438017 203.494426 
L 271.204959 206.465571 
L 273.971901 209.37921 
L 276.738843 212.138096 
L 279.505785 214.619785 
L 282.272727 216.685725 
L 285.039669 218.194601 
L 287.806612 219.019073 
L 290.573554 219.061442 
L 293.340496 218.261356 
L 296.107438 216.592165 
L 298.87438 214.049982 
L 301.641322 210.643078 
L 304.408264 206.386425 
L 307.175207 201.301736 
L 309.942149 195.421077 
L 312.709091 188.791913 
L 315.476033 181.481918 
L 318.242975 173.582345 
L 321.009917 165.209065 
L 323.77686 156.500651 
L 326.543802 147.6133 
L 329.310744 138.713077 
L 332.077686 129.966847 
L 334.844628 121.534223 
L 337.61157 113.563169 
L 340.378512 106.190373 
L 343.145455 99.544284 
L 345.912397 93.746083 
L 348.679339 88.90526 
L 351.446281 85.110828 
L 354.213223 82.422073 
L 356.980165 80.862127 
L 359.747107 80.415519 
L 362.51405 81.029389 
L 365.280992 82.617472 
L 368.047934 85.065986 
L 370.814876 88.240678 
L 373.581818 91.994386 
" style="fill:none;stroke:#008000;stroke-dasharray:3.7,1.6;stroke-dashoffset:0;"/>
   </g>
   <g id="line2d_17">
    <path clip-path="url(#p10fc33ad72)" d="M 69.218182 251.998389 
L 71.985124 251.999739 
L 74.752066 251.999968 
L 77.519008 251.999997 
L 80.28595 252 
L 83.052893 252 
L 85.819835 252 
L 88.586777 252 
L 91.353719 252 
L 94.120661 252 
L 96.887603 252 
L 99.654545 252 
L 102.421488 251.999998 
L 105.18843 251.999988 
L 107.955372 251.999932 
L 110.722314 251.999699 
L 113.489256 251.998971 
L 116.256198 251.997218 
L 119.02314 251.993913 
L 121.790083 251.988972 
L 124.557025 251.983085 
L 127.323967 251.977577 
L 130.090909 251.973822 
L 132.857851 251.972601 
L 135.624793 251.973845 
L 138.391736 251.976833 
L 141.158678 251.980624 
L 143.92562 251.984419 
L 146.692562 251.987732 
L 149.459504 251.990374 
L 152.226446 251.992355 
L 154.993388 251.993781 
L 157.760331 251.994783 
L 160.527273 251.995485 
L 163.294215 251.995989 
L 166.061157 251.996374 
L 168.828099 251.996696 
L 171.595041 251.99698 
L 174.361983 251.997217 
L 177.128926 251.997359 
L 179.895868 251.997311 
L 182.66281 251.996898 
L 185.429752 251.995722 
L 188.196694 251.992785 
L 190.963636 251.985515 
L 193.730579 251.967742 
L 196.497521 251.926701 
L 199.264463 251.841146 
L 202.031405 251.68441 
L 204.798347 251.434115 
L 207.565289 251.084504 
L 210.332231 250.654347 
L 213.099174 250.186154 
L 215.866116 249.737468 
L 218.633058 249.36809 
L 221.4 249.127378 
L 224.166942 249.044579 
L 226.933884 249.12381 
L 229.700826 249.344216 
L 232.467769 249.665036 
L 235.234711 250.034503 
L 238.001653 250.400621 
L 240.768595 250.720999 
L 243.535537 250.968619 
L 246.302479 251.13147 
L 249.069421 251.206407 
L 251.836364 251.190214 
L 254.603306 251.072234 
L 257.370248 250.832721 
L 260.13719 250.449724 
L 262.904132 249.913305 
L 265.671074 249.239829 
L 268.438017 248.476798 
L 271.204959 247.694175 
L 273.971901 246.966227 
L 276.738843 246.3521 
L 279.505785 245.882832 
L 282.272727 245.56022 
L 285.039669 245.370115 
L 287.806612 245.307821 
L 290.573554 245.404389 
L 293.340496 245.733131 
L 296.107438 246.377868 
L 298.87438 247.366978 
L 301.641322 248.609405 
L 304.408264 249.886609 
L 307.175207 250.936269 
L 309.942149 251.596352 
L 312.709091 251.894133 
L 315.476033 251.982717 
L 318.242975 251.998437 
L 321.009917 251.99993 
L 323.77686 251.999999 
L 326.543802 252 
L 329.310744 252 
L 332.077686 252 
L 334.844628 252 
L 337.61157 252 
L 340.378512 252 
L 343.145455 252 
L 345.912397 252 
L 348.679339 252 
L 351.446281 252 
L 354.213223 252 
L 356.980165 252 
L 359.747107 252 
L 362.51405 251.999991 
L 365.280992 251.999896 
L 368.047934 251.999195 
L 370.814876 251.995628 
L 373.581818 251.982286 
" style="fill:none;stroke:#bfbf00;stroke-dasharray:7.4,3.2;stroke-dashoffset:0;stroke-width:2;"/>
   </g>
   <g id="patch_3">
    <path d="M 54 252 
L 54 34.56 
" style="fill:none;stroke:#000000;stroke-linecap:square;stroke-linejoin:miter;stroke-width:0.8;"/>
   </g>
   <g id="patch_4">
    <path d="M 388.8 252 
L 388.8 34.56 
" style="fill:none;stroke:#000000;stroke-linecap:square;stroke-linejoin:miter;stroke-width:0.8;"/>
   </g>
   <g id="patch_5">
    <path d="M 54 252 
L 388.8 252 
" style="fill:none;stroke:#000000;stroke-linecap:square;stroke-linejoin:miter;stroke-width:0.8;"/>
   </g>
   <g id="patch_6">
    <path d="M 54 34.56 
L 388.8 34.56 
" style="fill:none;stroke:#000000;stroke-linecap:square;stroke-linejoin:miter;stroke-width:0.8;"/>
   </g>
   <g id="text_16">
    <!-- Method : AEI -->
    <g transform="translate(71.985124 244.752)scale(0.12 -0.12)">
     <defs>
      <path d="M 628 4666 
L 1569 4666 
L 2759 1491 
L 3956 4666 
L 4897 4666 
L 4897 0 
L 4281 0 
L 4281 4097 
L 3078 897 
L 2444 897 
L 1241 4097 
L 1241 0 
L 628 0 
L 628 4666 
z
" id="DejaVuSans-4d" transform="scale(0.015625)"/>
      <path d="M 3597 1894 
L 3597 1613 
L 953 1613 
Q 991 1019 1311 708 
Q 1631 397 2203 397 
Q 2534 397 2845 478 
Q 3156 559 3463 722 
L 3463 178 
Q 3153 47 2828 -22 
Q 2503 -91 2169 -91 
Q 1331 -91 842 396 
Q 353 884 353 1716 
Q 353 2575 817 3079 
Q 1281 3584 2069 3584 
Q 2775 3584 3186 3129 
Q 3597 2675 3597 1894 
z
M 3022 2063 
Q 3016 2534 2758 2815 
Q 2500 3097 2075 3097 
Q 1594 3097 1305 2825 
Q 1016 2553 972 2059 
L 3022 2063 
z
" id="DejaVuSans-65" transform="scale(0.015625)"/>
      <path d="M 1172 4494 
L 1172 3500 
L 2356 3500 
L 2356 3053 
L 1172 3053 
L 1172 1153 
Q 1172 725 1289 603 
Q 1406 481 1766 481 
L 2356 481 
L 2356 0 
L 1766 0 
Q 1100 0 847 248 
Q 594 497 594 1153 
L 594 3053 
L 172 3053 
L 172 3500 
L 594 3500 
L 594 4494 
L 1172 4494 
z
" id="DejaVuSans-74" transform="scale(0.015625)"/>
      <path d="M 3513 2113 
L 3513 0 
L 2938 0 
L 2938 2094 
Q 2938 2591 2744 2837 
Q 2550 3084 2163 3084 
Q 1697 3084 1428 2787 
Q 1159 2491 1159 1978 
L 1159 0 
L 581 0 
L 581 4863 
L 1159 4863 
L 1159 2956 
Q 1366 3272 1645 3428 
Q 1925 3584 2291 3584 
Q 2894 3584 3203 3211 
Q 3513 2838 3513 2113 
z
" id="DejaVuSans-68" transform="scale(0.015625)"/>
      <path d="M 1959 3097 
Q 1497 3097 1228 2736 
Q 959 2375 959 1747 
Q 959 1119 1226 758 
Q 1494 397 1959 397 
Q 2419 397 2687 759 
Q 2956 1122 2956 1747 
Q 2956 2369 2687 2733 
Q 2419 3097 1959 3097 
z
M 1959 3584 
Q 2709 3584 3137 3096 
Q 3566 2609 3566 1747 
Q 3566 888 3137 398 
Q 2709 -91 1959 -91 
Q 1206 -91 779 398 
Q 353 888 353 1747 
Q 353 2609 779 3096 
Q 1206 3584 1959 3584 
z
" id="DejaVuSans-6f" transform="scale(0.015625)"/>
      <path d="M 2906 2969 
L 2906 4863 
L 3481 4863 
L 3481 0 
L 2906 0 
L 2906 525 
Q 2725 213 2448 61 
Q 2172 -91 1784 -91 
Q 1150 -91 751 415 
Q 353 922 353 1747 
Q 353 2572 751 3078 
Q 1150 3584 1784 3584 
Q 2172 3584 2448 3432 
Q 2725 3281 2906 2969 
z
M 947 1747 
Q 947 1113 1208 752 
Q 1469 391 1925 391 
Q 2381 391 2643 752 
Q 2906 1113 2906 1747 
Q 2906 2381 2643 2742 
Q 2381 3103 1925 3103 
Q 1469 3103 1208 2742 
Q 947 2381 947 1747 
z
" id="DejaVuSans-64" transform="scale(0.015625)"/>
      <path id="DejaVuSans-20" transform="scale(0.015625)"/>
      <path d="M 750 794 
L 1409 794 
L 1409 0 
L 750 0 
L 750 794 
z
M 750 3309 
L 1409 3309 
L 1409 2516 
L 750 2516 
L 750 3309 
z
" id="DejaVuSans-3a" transform="scale(0.015625)"/>
      <path d="M 2188 4044 
L 1331 1722 
L 3047 1722 
L 2188 4044 
z
M 1831 4666 
L 2547 4666 
L 4325 0 
L 3669 0 
L 3244 1197 
L 1141 1197 
L 716 0 
L 50 0 
L 1831 4666 
z
" id="DejaVuSans-41" transform="scale(0.015625)"/>
      <path d="M 628 4666 
L 3578 4666 
L 3578 4134 
L 1259 4134 
L 1259 2753 
L 3481 2753 
L 3481 2222 
L 1259 2222 
L 1259 531 
L 3634 531 
L 3634 0 
L 628 0 
L 628 4666 
z
" id="DejaVuSans-45" transform="scale(0.015625)"/>
      <path d="M 628 4666 
L 1259 4666 
L 1259 0 
L 628 0 
L 628 4666 
z
" id="DejaVuSans-49" transform="scale(0.015625)"/>
     </defs>
     <use xlink:href="#DejaVuSans-4d"/>
     <use x="86.279297" xlink:href="#DejaVuSans-65"/>
     <use x="147.802734" xlink:href="#DejaVuSans-74"/>
     <use x="187.011719" xlink:href="#DejaVuSans-68"/>
     <use x="250.390625" xlink:href="#DejaVuSans-6f"/>
     <use x="311.572266" xlink:href="#DejaVuSans-64"/>
     <use x="375.048828" xlink:href="#DejaVuSans-20"/>
     <use x="406.835938" xlink:href="#DejaVuSans-3a"/>
     <use x="440.527344" xlink:href="#DejaVuSans-20"/>
     <use x="472.314453" xlink:href="#DejaVuSans-41"/>
     <use x="540.722656" xlink:href="#DejaVuSans-45"/>
     <use x="603.90625" xlink:href="#DejaVuSans-49"/>
    </g>
   </g>
   <g id="text_17">
    <!-- Iter=4 -->
    <g transform="translate(71.985124 226.632)scale(0.12 -0.12)">
     <defs>
      <path d="M 2631 2963 
Q 2534 3019 2420 3045 
Q 2306 3072 2169 3072 
Q 1681 3072 1420 2755 
Q 1159 2438 1159 1844 
L 1159 0 
L 581 0 
L 581 3500 
L 1159 3500 
L 1159 2956 
Q 1341 3275 1631 3429 
Q 1922 3584 2338 3584 
Q 2397 3584 2469 3576 
Q 2541 3569 2628 3553 
L 2631 2963 
z
" id="DejaVuSans-72" transform="scale(0.015625)"/>
      <path d="M 678 2906 
L 4684 2906 
L 4684 2381 
L 678 2381 
L 678 2906 
z
M 678 1631 
L 4684 1631 
L 4684 1100 
L 678 1100 
L 678 1631 
z
" id="DejaVuSans-3d" transform="scale(0.015625)"/>
     </defs>
     <use xlink:href="#DejaVuSans-49"/>
     <use x="29.492188" xlink:href="#DejaVuSans-74"/>
     <use x="68.701172" xlink:href="#DejaVuSans-65"/>
     <use x="130.224609" xlink:href="#DejaVuSans-72"/>
     <use x="171.337891" xlink:href="#DejaVuSans-3d"/>
     <use x="255.126953" xlink:href="#DejaVuSans-34"/>
    </g>
   </g>
   <g id="legend_1">
    <g id="patch_7">
     <path d="M 144.327812 140.235625 
L 298.472188 140.235625 
Q 300.672188 140.235625 300.672188 138.035625 
L 300.672188 42.26 
Q 300.672188 40.06 298.472188 40.06 
L 144.327812 40.06 
Q 142.127813 40.06 142.127813 42.26 
L 142.127813 138.035625 
Q 142.127813 140.235625 144.327812 140.235625 
z
" style="fill:#ffffff;opacity:0.8;stroke:#cccccc;stroke-linejoin:miter;"/>
    </g>
    <g id="line2d_18">
     <path d="M 146.527813 48.968281 
L 168.527813 48.968281 
" style="fill:none;stroke:#0000ff;stroke-linecap:square;stroke-width:2;"/>
    </g>
    <g id="line2d_19"/>
    <g id="text_18">
     <!-- ture function -->
     <g transform="translate(177.327813 52.818281)scale(0.11 -0.11)">
      <defs>
       <path d="M 544 1381 
L 544 3500 
L 1119 3500 
L 1119 1403 
Q 1119 906 1312 657 
Q 1506 409 1894 409 
Q 2359 409 2629 706 
Q 2900 1003 2900 1516 
L 2900 3500 
L 3475 3500 
L 3475 0 
L 2900 0 
L 2900 538 
Q 2691 219 2414 64 
Q 2138 -91 1772 -91 
Q 1169 -91 856 284 
Q 544 659 544 1381 
z
M 1991 3584 
L 1991 3584 
z
" id="DejaVuSans-75" transform="scale(0.015625)"/>
       <path d="M 2375 4863 
L 2375 4384 
L 1825 4384 
Q 1516 4384 1395 4259 
Q 1275 4134 1275 3809 
L 1275 3500 
L 2222 3500 
L 2222 3053 
L 1275 3053 
L 1275 0 
L 697 0 
L 697 3053 
L 147 3053 
L 147 3500 
L 697 3500 
L 697 3744 
Q 697 4328 969 4595 
Q 1241 4863 1831 4863 
L 2375 4863 
z
" id="DejaVuSans-66" transform="scale(0.015625)"/>
       <path d="M 3513 2113 
L 3513 0 
L 2938 0 
L 2938 2094 
Q 2938 2591 2744 2837 
Q 2550 3084 2163 3084 
Q 1697 3084 1428 2787 
Q 1159 2491 1159 1978 
L 1159 0 
L 581 0 
L 581 3500 
L 1159 3500 
L 1159 2956 
Q 1366 3272 1645 3428 
Q 1925 3584 2291 3584 
Q 2894 3584 3203 3211 
Q 3513 2838 3513 2113 
z
" id="DejaVuSans-6e" transform="scale(0.015625)"/>
       <path d="M 3122 3366 
L 3122 2828 
Q 2878 2963 2633 3030 
Q 2388 3097 2138 3097 
Q 1578 3097 1268 2742 
Q 959 2388 959 1747 
Q 959 1106 1268 751 
Q 1578 397 2138 397 
Q 2388 397 2633 464 
Q 2878 531 3122 666 
L 3122 134 
Q 2881 22 2623 -34 
Q 2366 -91 2075 -91 
Q 1284 -91 818 406 
Q 353 903 353 1747 
Q 353 2603 823 3093 
Q 1294 3584 2113 3584 
Q 2378 3584 2631 3529 
Q 2884 3475 3122 3366 
z
" id="DejaVuSans-63" transform="scale(0.015625)"/>
       <path d="M 603 3500 
L 1178 3500 
L 1178 0 
L 603 0 
L 603 3500 
z
M 603 4863 
L 1178 4863 
L 1178 4134 
L 603 4134 
L 603 4863 
z
" id="DejaVuSans-69" transform="scale(0.015625)"/>
      </defs>
      <use xlink:href="#DejaVuSans-74"/>
      <use x="39.208984" xlink:href="#DejaVuSans-75"/>
      <use x="102.587891" xlink:href="#DejaVuSans-72"/>
      <use x="141.451172" xlink:href="#DejaVuSans-65"/>
      <use x="202.974609" xlink:href="#DejaVuSans-20"/>
      <use x="234.761719" xlink:href="#DejaVuSans-66"/>
      <use x="269.966797" xlink:href="#DejaVuSans-75"/>
      <use x="333.345703" xlink:href="#DejaVuSans-6e"/>
      <use x="396.724609" xlink:href="#DejaVuSans-63"/>
      <use x="451.705078" xlink:href="#DejaVuSans-74"/>
      <use x="490.914062" xlink:href="#DejaVuSans-69"/>
      <use x="518.697266" xlink:href="#DejaVuSans-6f"/>
      <use x="579.878906" xlink:href="#DejaVuSans-6e"/>
     </g>
    </g>
    <g id="line2d_20">
     <path d="M 146.527813 65.114219 
L 168.527813 65.114219 
" style="fill:none;stroke:#000000;stroke-dasharray:7.4,3.2;stroke-dashoffset:0;stroke-width:2;"/>
    </g>
    <g id="line2d_21"/>
    <g id="text_19">
     <!-- predicted function -->
     <g transform="translate(177.327813 68.964219)scale(0.11 -0.11)">
      <defs>
       <path d="M 1159 525 
L 1159 -1331 
L 581 -1331 
L 581 3500 
L 1159 3500 
L 1159 2969 
Q 1341 3281 1617 3432 
Q 1894 3584 2278 3584 
Q 2916 3584 3314 3078 
Q 3713 2572 3713 1747 
Q 3713 922 3314 415 
Q 2916 -91 2278 -91 
Q 1894 -91 1617 61 
Q 1341 213 1159 525 
z
M 3116 1747 
Q 3116 2381 2855 2742 
Q 2594 3103 2138 3103 
Q 1681 3103 1420 2742 
Q 1159 2381 1159 1747 
Q 1159 1113 1420 752 
Q 1681 391 2138 391 
Q 2594 391 2855 752 
Q 3116 1113 3116 1747 
z
" id="DejaVuSans-70" transform="scale(0.015625)"/>
      </defs>
      <use xlink:href="#DejaVuSans-70"/>
      <use x="63.476562" xlink:href="#DejaVuSans-72"/>
      <use x="102.339844" xlink:href="#DejaVuSans-65"/>
      <use x="163.863281" xlink:href="#DejaVuSans-64"/>
      <use x="227.339844" xlink:href="#DejaVuSans-69"/>
      <use x="255.123047" xlink:href="#DejaVuSans-63"/>
      <use x="310.103516" xlink:href="#DejaVuSans-74"/>
      <use x="349.3125" xlink:href="#DejaVuSans-65"/>
      <use x="410.835938" xlink:href="#DejaVuSans-64"/>
      <use x="474.3125" xlink:href="#DejaVuSans-20"/>
      <use x="506.099609" xlink:href="#DejaVuSans-66"/>
      <use x="541.304688" xlink:href="#DejaVuSans-75"/>
      <use x="604.683594" xlink:href="#DejaVuSans-6e"/>
      <use x="668.0625" xlink:href="#DejaVuSans-63"/>
      <use x="723.042969" xlink:href="#DejaVuSans-74"/>
      <use x="762.251953" xlink:href="#DejaVuSans-69"/>
      <use x="790.035156" xlink:href="#DejaVuSans-6f"/>
      <use x="851.216797" xlink:href="#DejaVuSans-6e"/>
     </g>
    </g>
    <g id="line2d_22">
     <path d="M 146.527813 81.260156 
L 168.527813 81.260156 
" style="fill:none;stroke:#008000;stroke-dasharray:3.7,1.6;stroke-dashoffset:0;"/>
    </g>
    <g id="line2d_23"/>
    <g id="text_20">
     <!--  ± Sn(x) -->
     <g transform="translate(177.327813 85.110156)scale(0.11 -0.11)">
      <defs>
       <path d="M 2944 4013 
L 2944 2803 
L 4684 2803 
L 4684 2272 
L 2944 2272 
L 2944 1063 
L 2419 1063 
L 2419 2272 
L 678 2272 
L 678 2803 
L 2419 2803 
L 2419 4013 
L 2944 4013 
z
M 678 531 
L 4684 531 
L 4684 0 
L 678 0 
L 678 531 
z
" id="DejaVuSans-b1" transform="scale(0.015625)"/>
       <path d="M 3425 4513 
L 3425 3897 
Q 3066 4069 2747 4153 
Q 2428 4238 2131 4238 
Q 1616 4238 1336 4038 
Q 1056 3838 1056 3469 
Q 1056 3159 1242 3001 
Q 1428 2844 1947 2747 
L 2328 2669 
Q 3034 2534 3370 2195 
Q 3706 1856 3706 1288 
Q 3706 609 3251 259 
Q 2797 -91 1919 -91 
Q 1588 -91 1214 -16 
Q 841 59 441 206 
L 441 856 
Q 825 641 1194 531 
Q 1563 422 1919 422 
Q 2459 422 2753 634 
Q 3047 847 3047 1241 
Q 3047 1584 2836 1778 
Q 2625 1972 2144 2069 
L 1759 2144 
Q 1053 2284 737 2584 
Q 422 2884 422 3419 
Q 422 4038 858 4394 
Q 1294 4750 2059 4750 
Q 2388 4750 2728 4690 
Q 3069 4631 3425 4513 
z
" id="DejaVuSans-53" transform="scale(0.015625)"/>
       <path d="M 1984 4856 
Q 1566 4138 1362 3434 
Q 1159 2731 1159 2009 
Q 1159 1288 1364 580 
Q 1569 -128 1984 -844 
L 1484 -844 
Q 1016 -109 783 600 
Q 550 1309 550 2009 
Q 550 2706 781 3412 
Q 1013 4119 1484 4856 
L 1984 4856 
z
" id="DejaVuSans-28" transform="scale(0.015625)"/>
       <path d="M 513 4856 
L 1013 4856 
Q 1481 4119 1714 3412 
Q 1947 2706 1947 2009 
Q 1947 1309 1714 600 
Q 1481 -109 1013 -844 
L 513 -844 
Q 928 -128 1133 580 
Q 1338 1288 1338 2009 
Q 1338 2731 1133 3434 
Q 928 4138 513 4856 
z
" id="DejaVuSans-29" transform="scale(0.015625)"/>
      </defs>
      <use xlink:href="#DejaVuSans-20"/>
      <use x="31.787109" xlink:href="#DejaVuSans-b1"/>
      <use x="115.576172" xlink:href="#DejaVuSans-20"/>
      <use x="147.363281" xlink:href="#DejaVuSans-53"/>
      <use x="210.839844" xlink:href="#DejaVuSans-6e"/>
      <use x="274.21875" xlink:href="#DejaVuSans-28"/>
      <use x="313.232422" xlink:href="#DejaVuSans-78"/>
      <use x="372.412109" xlink:href="#DejaVuSans-29"/>
     </g>
    </g>
    <g id="line2d_24">
     <path d="M 146.527813 97.406094 
L 168.527813 97.406094 
" style="fill:none;stroke:#bfbf00;stroke-dasharray:7.4,3.2;stroke-dashoffset:0;stroke-width:2;"/>
    </g>
    <g id="line2d_25"/>
    <g id="text_21">
     <!-- AEI(x) -->
     <g transform="translate(177.327813 101.256094)scale(0.11 -0.11)">
      <use xlink:href="#DejaVuSans-41"/>
      <use x="68.408203" xlink:href="#DejaVuSans-45"/>
      <use x="131.591797" xlink:href="#DejaVuSans-49"/>
      <use x="161.083984" xlink:href="#DejaVuSans-28"/>
      <use x="200.097656" xlink:href="#DejaVuSans-78"/>
      <use x="259.277344" xlink:href="#DejaVuSans-29"/>
     </g>
    </g>
    <g id="PathCollection_2">
     <defs>
      <path d="M 0 3.535534 
C 0.937635 3.535534 1.836992 3.163008 2.5 2.5 
C 3.163008 1.836992 3.535534 0.937635 3.535534 0 
C 3.535534 -0.937635 3.163008 -1.836992 2.5 -2.5 
C 1.836992 -3.163008 0.937635 -3.535534 0 -3.535534 
C -0.937635 -3.535534 -1.836992 -3.163008 -2.5 -2.5 
C -3.163008 -1.836992 -3.535534 -0.937635 -3.535534 0 
C -3.535534 0.937635 -3.163008 1.836992 -2.5 2.5 
C -1.836992 3.163008 -0.937635 3.535534 0 3.535534 
z
" id="m0e8683544c" style="stroke:#000000;"/>
     </defs>
     <g>
      <use style="fill:#ff0000;stroke:#000000;" x="157.527813" xlink:href="#m0e8683544c" y="114.514531"/>
     </g>
    </g>
    <g id="text_22">
     <!-- training data -->
     <g transform="translate(177.327813 117.402031)scale(0.11 -0.11)">
      <defs>
       <path d="M 2194 1759 
Q 1497 1759 1228 1600 
Q 959 1441 959 1056 
Q 959 750 1161 570 
Q 1363 391 1709 391 
Q 2188 391 2477 730 
Q 2766 1069 2766 1631 
L 2766 1759 
L 2194 1759 
z
M 3341 1997 
L 3341 0 
L 2766 0 
L 2766 531 
Q 2569 213 2275 61 
Q 1981 -91 1556 -91 
Q 1019 -91 701 211 
Q 384 513 384 1019 
Q 384 1609 779 1909 
Q 1175 2209 1959 2209 
L 2766 2209 
L 2766 2266 
Q 2766 2663 2505 2880 
Q 2244 3097 1772 3097 
Q 1472 3097 1187 3025 
Q 903 2953 641 2809 
L 641 3341 
Q 956 3463 1253 3523 
Q 1550 3584 1831 3584 
Q 2591 3584 2966 3190 
Q 3341 2797 3341 1997 
z
" id="DejaVuSans-61" transform="scale(0.015625)"/>
       <path d="M 2906 1791 
Q 2906 2416 2648 2759 
Q 2391 3103 1925 3103 
Q 1463 3103 1205 2759 
Q 947 2416 947 1791 
Q 947 1169 1205 825 
Q 1463 481 1925 481 
Q 2391 481 2648 825 
Q 2906 1169 2906 1791 
z
M 3481 434 
Q 3481 -459 3084 -895 
Q 2688 -1331 1869 -1331 
Q 1566 -1331 1297 -1286 
Q 1028 -1241 775 -1147 
L 775 -588 
Q 1028 -725 1275 -790 
Q 1522 -856 1778 -856 
Q 2344 -856 2625 -561 
Q 2906 -266 2906 331 
L 2906 616 
Q 2728 306 2450 153 
Q 2172 0 1784 0 
Q 1141 0 747 490 
Q 353 981 353 1791 
Q 353 2603 747 3093 
Q 1141 3584 1784 3584 
Q 2172 3584 2450 3431 
Q 2728 3278 2906 2969 
L 2906 3500 
L 3481 3500 
L 3481 434 
z
" id="DejaVuSans-67" transform="scale(0.015625)"/>
      </defs>
      <use xlink:href="#DejaVuSans-74"/>
      <use x="39.208984" xlink:href="#DejaVuSans-72"/>
      <use x="80.322266" xlink:href="#DejaVuSans-61"/>
      <use x="141.601562" xlink:href="#DejaVuSans-69"/>
      <use x="169.384766" xlink:href="#DejaVuSans-6e"/>
      <use x="232.763672" xlink:href="#DejaVuSans-69"/>
      <use x="260.546875" xlink:href="#DejaVuSans-6e"/>
      <use x="323.925781" xlink:href="#DejaVuSans-67"/>
      <use x="387.402344" xlink:href="#DejaVuSans-20"/>
      <use x="419.189453" xlink:href="#DejaVuSans-64"/>
      <use x="482.666016" xlink:href="#DejaVuSans-61"/>
      <use x="543.945312" xlink:href="#DejaVuSans-74"/>
      <use x="583.154297" xlink:href="#DejaVuSans-61"/>
     </g>
    </g>
    <g id="PathCollection_3">
     <g>
      <use style="fill:#ff0000;stroke:#ff0000;stroke-width:8;" x="157.527813" xlink:href="#m7c2af256ff" y="130.660469"/>
     </g>
    </g>
    <g id="text_23">
     <!-- recommended datum -->
     <g transform="translate(177.327813 133.547969)scale(0.11 -0.11)">
      <defs>
       <path d="M 3328 2828 
Q 3544 3216 3844 3400 
Q 4144 3584 4550 3584 
Q 5097 3584 5394 3201 
Q 5691 2819 5691 2113 
L 5691 0 
L 5113 0 
L 5113 2094 
Q 5113 2597 4934 2840 
Q 4756 3084 4391 3084 
Q 3944 3084 3684 2787 
Q 3425 2491 3425 1978 
L 3425 0 
L 2847 0 
L 2847 2094 
Q 2847 2600 2669 2842 
Q 2491 3084 2119 3084 
Q 1678 3084 1418 2786 
Q 1159 2488 1159 1978 
L 1159 0 
L 581 0 
L 581 3500 
L 1159 3500 
L 1159 2956 
Q 1356 3278 1631 3431 
Q 1906 3584 2284 3584 
Q 2666 3584 2933 3390 
Q 3200 3197 3328 2828 
z
" id="DejaVuSans-6d" transform="scale(0.015625)"/>
      </defs>
      <use xlink:href="#DejaVuSans-72"/>
      <use x="38.863281" xlink:href="#DejaVuSans-65"/>
      <use x="100.386719" xlink:href="#DejaVuSans-63"/>
      <use x="155.367188" xlink:href="#DejaVuSans-6f"/>
      <use x="216.548828" xlink:href="#DejaVuSans-6d"/>
      <use x="313.960938" xlink:href="#DejaVuSans-6d"/>
      <use x="411.373047" xlink:href="#DejaVuSans-65"/>
      <use x="472.896484" xlink:href="#DejaVuSans-6e"/>
      <use x="536.275391" xlink:href="#DejaVuSans-64"/>
      <use x="599.751953" xlink:href="#DejaVuSans-65"/>
      <use x="661.275391" xlink:href="#DejaVuSans-64"/>
      <use x="724.751953" xlink:href="#DejaVuSans-20"/>
      <use x="756.539062" xlink:href="#DejaVuSans-64"/>
      <use x="820.015625" xlink:href="#DejaVuSans-61"/>
      <use x="881.294922" xlink:href="#DejaVuSans-74"/>
      <use x="920.503906" xlink:href="#DejaVuSans-75"/>
      <use x="983.882812" xlink:href="#DejaVuSans-6d"/>
     </g>
    </g>
   </g>
   <g id="line2d_26">
    <path clip-path="url(#p10fc33ad72)" d="M 69.218182 141.947156 
L 71.985124 141.19901 
L 74.752066 141.082976 
L 77.519008 141.638711 
L 80.28595 142.883495 
L 83.052893 144.810128 
L 85.819835 147.386071 
L 88.586777 150.553962 
L 91.353719 154.23353 
L 94.120661 158.324838 
L 96.887603 162.712678 
L 99.654545 167.271865 
L 102.421488 171.873105 
L 105.18843 176.389057 
L 107.955372 180.700225 
L 110.722314 184.700298 
L 113.489256 188.30061 
L 116.256198 191.433492 
L 119.02314 194.054307 
L 121.790083 196.142129 
L 124.557025 197.699063 
L 127.323967 198.748328 
L 130.090909 199.331304 
L 132.857851 199.503775 
L 135.624793 199.331666 
L 138.391736 198.886588 
L 141.158678 198.241463 
L 143.92562 197.466515 
L 146.692562 196.625841 
L 149.459504 195.774716 
L 152.226446 194.957753 
L 154.993388 194.207924 
L 157.760331 193.546432 
L 160.527273 192.98335 
L 163.294215 192.518879 
L 166.061157 192.145096 
L 168.828099 191.847998 
L 171.595041 191.609672 
L 174.361983 191.410436 
L 177.128926 191.230793 
L 179.895868 191.053108 
L 182.66281 190.862917 
L 185.429752 190.649835 
L 188.196694 190.40807 
L 190.963636 190.136557 
L 193.730579 189.838777 
L 196.497521 189.522328 
L 199.264463 189.198327 
L 202.031405 188.88071 
L 204.798347 188.585523 
L 207.565289 188.33023 
L 210.332231 188.133102 
L 213.099174 188.012696 
L 215.866116 187.98742 
L 218.633058 188.075193 
L 221.4 188.293146 
L 224.166942 188.657363 
L 226.933884 189.182616 
L 229.700826 189.882065 
L 232.467769 190.76692 
L 235.234711 191.846043 
L 238.001653 193.125496 
L 240.768595 194.608059 
L 243.535537 196.292729 
L 246.302479 198.174232 
L 249.069421 200.242582 
L 251.836364 202.482696 
L 254.603306 204.874098 
L 257.370248 207.390707 
L 260.13719 210.000714 
L 262.904132 212.666533 
L 265.671074 215.344813 
L 268.438017 217.986507 
L 271.204959 220.536977 
L 273.971901 222.936171 
L 276.738843 225.118885 
L 279.505785 227.015177 
L 282.272727 228.551002 
L 285.039669 229.649172 
L 287.806612 230.230721 
L 290.573554 230.216773 
L 293.340496 229.530977 
L 296.107438 228.102513 
L 298.87438 225.869633 
L 301.641322 222.783628 
L 304.408264 218.81302 
L 307.175207 213.947725 
L 309.942149 208.202875 
L 312.709091 201.621938 
L 315.476033 194.278788 
L 318.242975 186.278403 
L 321.009917 177.755938 
L 323.77686 168.874018 
L 326.543802 159.818246 
L 329.310744 150.791024 
L 332.077686 142.003983 
L 334.844628 133.669404 
L 337.61157 125.99114 
L 340.378512 119.155614 
L 343.145455 113.323476 
L 345.912397 108.62248 
L 348.679339 105.142048 
L 351.446281 102.929875 
L 354.213223 101.990782 
L 356.980165 102.28783 
L 359.747107 103.745585 
L 362.51405 106.255228 
L 365.280992 109.68112 
L 368.047934 113.868324 
L 370.814876 118.650572 
L 373.581818 123.858149 
" style="fill:none;stroke:#000000;stroke-dasharray:7.4,3.2;stroke-dashoffset:0;stroke-width:2;"/>
   </g>
   <g id="PathCollection_4">
    <g clip-path="url(#p10fc33ad72)">
     <use style="fill:#ff0000;stroke:#000000;" x="83.052893" xlink:href="#m0e8683544c" y="129.399309"/>
     <use style="fill:#ff0000;stroke:#000000;" x="96.887603" xlink:href="#m0e8683544c" y="162.429541"/>
     <use style="fill:#ff0000;stroke:#000000;" x="110.722314" xlink:href="#m0e8683544c" y="193.170209"/>
     <use style="fill:#ff0000;stroke:#000000;" x="124.557025" xlink:href="#m0e8683544c" y="199.248575"/>
     <use style="fill:#ff0000;stroke:#000000;" x="138.391736" xlink:href="#m0e8683544c" y="199.347548"/>
     <use style="fill:#ff0000;stroke:#000000;" x="152.226446" xlink:href="#m0e8683544c" y="191.611971"/>
     <use style="fill:#ff0000;stroke:#000000;" x="166.061157" xlink:href="#m0e8683544c" y="193.66847"/>
     <use style="fill:#ff0000;stroke:#000000;" x="179.895868" xlink:href="#m0e8683544c" y="193.283098"/>
     <use style="fill:#ff0000;stroke:#000000;" x="193.730579" xlink:href="#m0e8683544c" y="188.924027"/>
     <use style="fill:#ff0000;stroke:#000000;" x="318.242975" xlink:href="#m0e8683544c" y="199.289596"/>
     <use style="fill:#ff0000;stroke:#000000;" x="332.077686" xlink:href="#m0e8683544c" y="145.37007"/>
     <use style="fill:#ff0000;stroke:#000000;" x="345.912397" xlink:href="#m0e8683544c" y="78.407322"/>
     <use style="fill:#ff0000;stroke:#000000;" x="298.87438" xlink:href="#m0e8683544c" y="224.202285"/>
     <use style="fill:#ff0000;stroke:#000000;" x="279.505785" xlink:href="#m0e8683544c" y="231.698313"/>
     <use style="fill:#ff0000;stroke:#000000;" x="251.836364" xlink:href="#m0e8683544c" y="202.144577"/>
     <use style="fill:#ff0000;stroke:#000000;" x="287.806612" xlink:href="#m0e8683544c" y="233.905482"/>
    </g>
   </g>
  </g>
 </g>
 <defs>
  <clipPath id="p10fc33ad72">
   <rect height="217.44" width="334.8" x="54" y="34.56"/>
  </clipPath>
 </defs>
</svg>
