<?xml version="1.0" encoding="utf-8" standalone="no"?>
<!DOCTYPE svg PUBLIC "-//W3C//DTD SVG 1.1//EN"
  "http://www.w3.org/Graphics/SVG/1.1/DTD/svg11.dtd">
<svg height="288pt" version="1.1" viewBox="0 0 432 288" width="432pt" xmlns="http://www.w3.org/2000/svg" xmlns:xlink="http://www.w3.org/1999/xlink">
 <metadata>
  <rdf:RDF xmlns:cc="http://creativecommons.org/ns#" xmlns:dc="http://purl.org/dc/elements/1.1/" xmlns:rdf="http://www.w3.org/1999/02/22-rdf-syntax-ns#">
   <cc:Work>
    <dc:type rdf:resource="http://purl.org/dc/dcmitype/StillImage"/>
    <dc:date>2022-08-04T11:44:02.755171</dc:date>
    <dc:format>image/svg+xml</dc:format>
    <dc:creator>
     <cc:Agent>
      <dc:title>Matplotlib v3.4.3, https://matplotlib.org/</dc:title>
     </cc:Agent>
    </dc:creator>
   </cc:Work>
  </rdf:RDF>
 </metadata>
 <defs>
  <style type="text/css">*{stroke-linecap:butt;stroke-linejoin:round;}</style>
 </defs>
 <g id="figure_1">
  <g id="patch_1">
   <path d="M 0 288 
L 432 288 
L 432 0 
L 0 0 
z
" style="fill:none;"/>
  </g>
  <g id="axes_1">
   <g id="patch_2">
    <path d="M 54 252 
L 388.8 252 
L 388.8 34.56 
L 54 34.56 
z
" style="fill:#ffffff;"/>
   </g>
   <g id="PolyCollection_1">
    <defs>
     <path d="M 69.218182 -179.124083 
L 69.218182 -147.070827 
L 71.985124 -151.158444 
L 74.752066 -153.932809 
L 77.519008 -155.142089 
L 80.28595 -154.58475 
L 83.052893 -152.143766 
L 85.819835 -147.897873 
L 88.586777 -142.226519 
L 91.353719 -135.658686 
L 94.120661 -128.651277 
L 96.887603 -121.546082 
L 99.654545 -114.606082 
L 102.421488 -108.046154 
L 105.18843 -102.04924 
L 107.955372 -96.769474 
L 110.722314 -92.323255 
L 113.489256 -88.775574 
L 116.256198 -86.132386 
L 119.02314 -84.344407 
L 121.790083 -83.320281 
L 124.557025 -82.943639 
L 127.323967 -83.088887 
L 130.090909 -83.6326 
L 132.857851 -84.459883 
L 135.624793 -85.466903 
L 138.391736 -86.561335 
L 141.158678 -87.662091 
L 143.92562 -88.699154 
L 146.692562 -89.614105 
L 149.459504 -90.361781 
L 152.226446 -90.913059 
L 154.993388 -91.25786 
L 157.760331 -91.406559 
L 160.527273 -91.388052 
L 163.294215 -91.244086 
L 166.061157 -91.02163 
L 168.828099 -90.766967 
L 171.595041 -90.525596 
L 174.361983 -90.348957 
L 177.128926 -90.302048 
L 179.895868 -90.461197 
L 182.66281 -90.895422 
L 185.429752 -91.631701 
L 188.196694 -92.60436 
L 190.963636 -93.599501 
L 193.730579 -94.281294 
L 196.497521 -94.401008 
L 199.264463 -93.94093 
L 202.031405 -93.008012 
L 204.798347 -91.726966 
L 207.565289 -90.21543 
L 210.332231 -88.583118 
L 213.099174 -86.930189 
L 215.866116 -85.343151 
L 218.633058 -83.890502 
L 221.4 -82.619751 
L 224.166942 -81.556612 
L 226.933884 -80.706455 
L 229.700826 -80.057615 
L 232.467769 -79.585874 
L 235.234711 -79.259305 
L 238.001653 -79.042743 
L 240.768595 -78.901295 
L 243.535537 -78.802594 
L 246.302479 -78.717726 
L 249.069421 -78.621053 
L 251.836364 -78.489281 
L 254.603306 -78.300199 
L 257.370248 -78.031506 
L 260.13719 -77.660092 
L 262.904132 -77.162028 
L 265.671074 -76.513442 
L 268.438017 -75.692333 
L 271.204959 -74.681249 
L 273.971901 -73.470643 
L 276.738843 -72.062603 
L 279.505785 -70.47459 
L 282.272727 -68.742812 
L 285.039669 -66.924884 
L 287.806612 -65.101536 
L 290.573554 -63.377146 
L 293.340496 -61.878958 
L 296.107438 -60.75481 
L 298.87438 -60.169188 
L 301.641322 -60.297288 
L 304.408264 -61.3167 
L 307.175207 -63.396065 
L 309.942149 -66.679735 
L 312.709091 -71.267344 
L 315.476033 -77.190731 
L 318.242975 -84.411965 
L 321.009917 -92.90298 
L 323.77686 -102.74728 
L 326.543802 -114.016351 
L 329.310744 -126.573177 
L 332.077686 -140.060488 
L 334.844628 -153.975105 
L 337.61157 -167.724171 
L 340.378512 -180.641046 
L 343.145455 -191.976542 
L 345.912397 -200.963899 
L 348.679339 -207.051764 
L 351.446281 -210.044976 
L 354.213223 -210.000318 
L 356.980165 -207.126128 
L 359.747107 -201.748574 
L 362.51405 -194.288534 
L 365.280992 -185.230457 
L 368.047934 -175.0858 
L 370.814876 -164.356689 
L 373.581818 -153.504269 
L 373.581818 -211.62881 
L 373.581818 -211.62881 
L 370.814876 -218.293891 
L 368.047934 -224.212213 
L 365.280992 -229.01879 
L 362.51405 -232.363059 
L 359.747107 -233.936373 
L 356.980165 -233.500022 
L 354.213223 -230.912221 
L 351.446281 -226.152998 
L 348.679339 -219.343156 
L 345.912397 -210.733225 
L 343.145455 -200.602813 
L 340.378512 -189.132061 
L 337.61157 -176.495694 
L 334.844628 -163.031013 
L 332.077686 -149.225956 
L 329.310744 -135.629085 
L 326.543802 -122.787874 
L 323.77686 -111.238295 
L 321.009917 -101.529252 
L 318.242975 -94.18129 
L 315.476033 -89.482123 
L 312.709091 -87.375366 
L 309.942149 -87.591638 
L 307.175207 -89.769958 
L 304.408264 -93.504499 
L 301.641322 -98.371812 
L 298.87438 -103.957522 
L 296.107438 -109.881223 
L 293.340496 -115.81616 
L 290.573554 -121.501686 
L 287.806612 -126.748094 
L 285.039669 -131.43454 
L 282.272727 -135.501571 
L 279.505785 -138.940103 
L 276.738843 -141.778766 
L 273.971901 -144.071301 
L 271.204959 -145.885283 
L 268.438017 -147.292964 
L 265.671074 -148.364528 
L 262.904132 -149.163636 
L 260.13719 -149.744856 
L 257.370248 -150.152454 
L 254.603306 -150.419994 
L 251.836364 -150.570293 
L 249.069421 -150.615417 
L 246.302479 -150.556557 
L 243.535537 -150.383805 
L 240.768595 -150.07601 
L 238.001653 -149.60105 
L 235.234711 -148.916884 
L 232.467769 -147.973787 
L 229.700826 -146.717999 
L 226.933884 -145.096821 
L 224.166942 -143.064902 
L 221.4 -140.591186 
L 218.633058 -137.665786 
L 215.866116 -134.305913 
L 213.099174 -130.560041 
L 210.332231 -126.509702 
L 207.565289 -122.268686 
L 204.798347 -117.980092 
L 202.031405 -113.812495 
L 199.264463 -109.957067 
L 196.497521 -106.62375 
L 193.730579 -104.011624 
L 190.963636 -102.195553 
L 188.196694 -101.012179 
L 185.429752 -100.19567 
L 182.66281 -99.579008 
L 179.895868 -99.11397 
L 177.128926 -98.81165 
L 174.361983 -98.691129 
L 171.595041 -98.747585 
L 168.828099 -98.939961 
L 166.061157 -99.197913 
L 163.294215 -99.440412 
L 160.527273 -99.593927 
L 157.760331 -99.602879 
L 154.993388 -99.432188 
L 152.226446 -99.06525 
L 149.459504 -98.50086 
L 146.692562 -97.751257 
L 143.92562 -96.841778 
L 141.158678 -95.811425 
L 138.391736 -94.713542 
L 135.624793 -93.616238 
L 132.857851 -92.602507 
L 130.090909 -91.769752 
L 127.323967 -91.227967 
L 124.557025 -91.095831 
L 121.790083 -91.494609 
L 119.02314 -92.540727 
L 116.256198 -94.338261 
L 113.489256 -96.9719 
L 110.722314 -100.499537 
L 107.955372 -104.942468 
L 105.18843 -110.27123 
L 102.421488 -116.388326 
L 99.654545 -123.115684 
L 96.887603 -130.198856 
L 94.120661 -137.334863 
L 91.353719 -144.222655 
L 88.586777 -150.634338 
L 85.819835 -156.493925 
L 83.052893 -161.874096 
L 80.28595 -166.807491 
L 77.519008 -171.158226 
L 74.752066 -174.737292 
L 71.985124 -177.41157 
L 69.218182 -179.124083 
z
" id="m455f5c7724" style="stroke:#add8e6;stroke-opacity:0.2;"/>
    </defs>
    <g clip-path="url(#pb85f1242f4)">
     <use style="fill:#add8e6;fill-opacity:0.2;stroke:#add8e6;stroke-opacity:0.2;" x="0" xlink:href="#m455f5c7724" y="288"/>
    </g>
   </g>
   <g id="PathCollection_1">
    <defs>
     <path d="M 0 0.612372 
C 0.162403 0.612372 0.318176 0.547849 0.433013 0.433013 
C 0.547849 0.318176 0.612372 0.162403 0.612372 0 
C 0.612372 -0.162403 0.547849 -0.318176 0.433013 -0.433013 
C 0.318176 -0.547849 0.162403 -0.612372 0 -0.612372 
C -0.162403 -0.612372 -0.318176 -0.547849 -0.433013 -0.433013 
C -0.547849 -0.318176 -0.612372 -0.162403 -0.612372 0 
C -0.612372 0.162403 -0.547849 0.318176 -0.433013 0.433013 
C -0.318176 0.547849 -0.162403 0.612372 0 0.612372 
z
" id="m0c9b405a8c" style="stroke:#ff0000;stroke-width:8;"/>
    </defs>
    <g clip-path="url(#pb85f1242f4)">
     <use style="fill:#ff0000;stroke:#ff0000;stroke-width:8;" x="298.87438" xlink:href="#m0c9b405a8c" y="192.969798"/>
    </g>
   </g>
   <g id="matplotlib.axis_1">
    <g id="xtick_1">
     <g id="line2d_1">
      <defs>
       <path d="M 0 0 
L 0 3.5 
" id="mbf61b6f9a4" style="stroke:#000000;stroke-width:0.8;"/>
      </defs>
      <g>
       <use style="stroke:#000000;stroke-width:0.8;" x="69.218182" xlink:href="#mbf61b6f9a4" y="252"/>
      </g>
     </g>
     <g id="text_1">
      <!-- 0 -->
      <g transform="translate(66.036932 266.598437)scale(0.1 -0.1)">
       <defs>
        <path d="M 2034 4250 
Q 1547 4250 1301 3770 
Q 1056 3291 1056 2328 
Q 1056 1369 1301 889 
Q 1547 409 2034 409 
Q 2525 409 2770 889 
Q 3016 1369 3016 2328 
Q 3016 3291 2770 3770 
Q 2525 4250 2034 4250 
z
M 2034 4750 
Q 2819 4750 3233 4129 
Q 3647 3509 3647 2328 
Q 3647 1150 3233 529 
Q 2819 -91 2034 -91 
Q 1250 -91 836 529 
Q 422 1150 422 2328 
Q 422 3509 836 4129 
Q 1250 4750 2034 4750 
z
" id="DejaVuSans-30" transform="scale(0.015625)"/>
       </defs>
       <use xlink:href="#DejaVuSans-30"/>
      </g>
     </g>
    </g>
    <g id="xtick_2">
     <g id="line2d_2">
      <g>
       <use style="stroke:#000000;stroke-width:0.8;" x="124.557025" xlink:href="#mbf61b6f9a4" y="252"/>
      </g>
     </g>
     <g id="text_2">
      <!-- 2 -->
      <g transform="translate(121.375775 266.598437)scale(0.1 -0.1)">
       <defs>
        <path d="M 1228 531 
L 3431 531 
L 3431 0 
L 469 0 
L 469 531 
Q 828 903 1448 1529 
Q 2069 2156 2228 2338 
Q 2531 2678 2651 2914 
Q 2772 3150 2772 3378 
Q 2772 3750 2511 3984 
Q 2250 4219 1831 4219 
Q 1534 4219 1204 4116 
Q 875 4013 500 3803 
L 500 4441 
Q 881 4594 1212 4672 
Q 1544 4750 1819 4750 
Q 2544 4750 2975 4387 
Q 3406 4025 3406 3419 
Q 3406 3131 3298 2873 
Q 3191 2616 2906 2266 
Q 2828 2175 2409 1742 
Q 1991 1309 1228 531 
z
" id="DejaVuSans-32" transform="scale(0.015625)"/>
       </defs>
       <use xlink:href="#DejaVuSans-32"/>
      </g>
     </g>
    </g>
    <g id="xtick_3">
     <g id="line2d_3">
      <g>
       <use style="stroke:#000000;stroke-width:0.8;" x="179.895868" xlink:href="#mbf61b6f9a4" y="252"/>
      </g>
     </g>
     <g id="text_3">
      <!-- 4 -->
      <g transform="translate(176.714618 266.598437)scale(0.1 -0.1)">
       <defs>
        <path d="M 2419 4116 
L 825 1625 
L 2419 1625 
L 2419 4116 
z
M 2253 4666 
L 3047 4666 
L 3047 1625 
L 3713 1625 
L 3713 1100 
L 3047 1100 
L 3047 0 
L 2419 0 
L 2419 1100 
L 313 1100 
L 313 1709 
L 2253 4666 
z
" id="DejaVuSans-34" transform="scale(0.015625)"/>
       </defs>
       <use xlink:href="#DejaVuSans-34"/>
      </g>
     </g>
    </g>
    <g id="xtick_4">
     <g id="line2d_4">
      <g>
       <use style="stroke:#000000;stroke-width:0.8;" x="235.234711" xlink:href="#mbf61b6f9a4" y="252"/>
      </g>
     </g>
     <g id="text_4">
      <!-- 6 -->
      <g transform="translate(232.053461 266.598437)scale(0.1 -0.1)">
       <defs>
        <path d="M 2113 2584 
Q 1688 2584 1439 2293 
Q 1191 2003 1191 1497 
Q 1191 994 1439 701 
Q 1688 409 2113 409 
Q 2538 409 2786 701 
Q 3034 994 3034 1497 
Q 3034 2003 2786 2293 
Q 2538 2584 2113 2584 
z
M 3366 4563 
L 3366 3988 
Q 3128 4100 2886 4159 
Q 2644 4219 2406 4219 
Q 1781 4219 1451 3797 
Q 1122 3375 1075 2522 
Q 1259 2794 1537 2939 
Q 1816 3084 2150 3084 
Q 2853 3084 3261 2657 
Q 3669 2231 3669 1497 
Q 3669 778 3244 343 
Q 2819 -91 2113 -91 
Q 1303 -91 875 529 
Q 447 1150 447 2328 
Q 447 3434 972 4092 
Q 1497 4750 2381 4750 
Q 2619 4750 2861 4703 
Q 3103 4656 3366 4563 
z
" id="DejaVuSans-36" transform="scale(0.015625)"/>
       </defs>
       <use xlink:href="#DejaVuSans-36"/>
      </g>
     </g>
    </g>
    <g id="xtick_5">
     <g id="line2d_5">
      <g>
       <use style="stroke:#000000;stroke-width:0.8;" x="290.573554" xlink:href="#mbf61b6f9a4" y="252"/>
      </g>
     </g>
     <g id="text_5">
      <!-- 8 -->
      <g transform="translate(287.392304 266.598437)scale(0.1 -0.1)">
       <defs>
        <path d="M 2034 2216 
Q 1584 2216 1326 1975 
Q 1069 1734 1069 1313 
Q 1069 891 1326 650 
Q 1584 409 2034 409 
Q 2484 409 2743 651 
Q 3003 894 3003 1313 
Q 3003 1734 2745 1975 
Q 2488 2216 2034 2216 
z
M 1403 2484 
Q 997 2584 770 2862 
Q 544 3141 544 3541 
Q 544 4100 942 4425 
Q 1341 4750 2034 4750 
Q 2731 4750 3128 4425 
Q 3525 4100 3525 3541 
Q 3525 3141 3298 2862 
Q 3072 2584 2669 2484 
Q 3125 2378 3379 2068 
Q 3634 1759 3634 1313 
Q 3634 634 3220 271 
Q 2806 -91 2034 -91 
Q 1263 -91 848 271 
Q 434 634 434 1313 
Q 434 1759 690 2068 
Q 947 2378 1403 2484 
z
M 1172 3481 
Q 1172 3119 1398 2916 
Q 1625 2713 2034 2713 
Q 2441 2713 2670 2916 
Q 2900 3119 2900 3481 
Q 2900 3844 2670 4047 
Q 2441 4250 2034 4250 
Q 1625 4250 1398 4047 
Q 1172 3844 1172 3481 
z
" id="DejaVuSans-38" transform="scale(0.015625)"/>
       </defs>
       <use xlink:href="#DejaVuSans-38"/>
      </g>
     </g>
    </g>
    <g id="xtick_6">
     <g id="line2d_6">
      <g>
       <use style="stroke:#000000;stroke-width:0.8;" x="345.912397" xlink:href="#mbf61b6f9a4" y="252"/>
      </g>
     </g>
     <g id="text_6">
      <!-- 10 -->
      <g transform="translate(339.549897 266.598437)scale(0.1 -0.1)">
       <defs>
        <path d="M 794 531 
L 1825 531 
L 1825 4091 
L 703 3866 
L 703 4441 
L 1819 4666 
L 2450 4666 
L 2450 531 
L 3481 531 
L 3481 0 
L 794 0 
L 794 531 
z
" id="DejaVuSans-31" transform="scale(0.015625)"/>
       </defs>
       <use xlink:href="#DejaVuSans-31"/>
       <use x="63.623047" xlink:href="#DejaVuSans-30"/>
      </g>
     </g>
    </g>
    <g id="text_7">
     <!-- x -->
     <g transform="translate(217.84875 281.79625)scale(0.12 -0.12)">
      <defs>
       <path d="M 3513 3500 
L 2247 1797 
L 3578 0 
L 2900 0 
L 1881 1375 
L 863 0 
L 184 0 
L 1544 1831 
L 300 3500 
L 978 3500 
L 1906 2253 
L 2834 3500 
L 3513 3500 
z
" id="DejaVuSans-78" transform="scale(0.015625)"/>
      </defs>
      <use xlink:href="#DejaVuSans-78"/>
     </g>
    </g>
   </g>
   <g id="matplotlib.axis_2">
    <g id="ytick_1">
     <g id="line2d_7">
      <defs>
       <path d="M 0 0 
L -3.5 0 
" id="mce31a3b49f" style="stroke:#000000;stroke-width:0.8;"/>
      </defs>
      <g>
       <use style="stroke:#000000;stroke-width:0.8;" x="54" xlink:href="#mce31a3b49f" y="252"/>
      </g>
     </g>
     <g id="text_8">
      <!-- 3 -->
      <g transform="translate(40.6375 255.799219)scale(0.1 -0.1)">
       <defs>
        <path d="M 2597 2516 
Q 3050 2419 3304 2112 
Q 3559 1806 3559 1356 
Q 3559 666 3084 287 
Q 2609 -91 1734 -91 
Q 1441 -91 1130 -33 
Q 819 25 488 141 
L 488 750 
Q 750 597 1062 519 
Q 1375 441 1716 441 
Q 2309 441 2620 675 
Q 2931 909 2931 1356 
Q 2931 1769 2642 2001 
Q 2353 2234 1838 2234 
L 1294 2234 
L 1294 2753 
L 1863 2753 
Q 2328 2753 2575 2939 
Q 2822 3125 2822 3475 
Q 2822 3834 2567 4026 
Q 2313 4219 1838 4219 
Q 1578 4219 1281 4162 
Q 984 4106 628 3988 
L 628 4550 
Q 988 4650 1302 4700 
Q 1616 4750 1894 4750 
Q 2613 4750 3031 4423 
Q 3450 4097 3450 3541 
Q 3450 3153 3228 2886 
Q 3006 2619 2597 2516 
z
" id="DejaVuSans-33" transform="scale(0.015625)"/>
       </defs>
       <use xlink:href="#DejaVuSans-33"/>
      </g>
     </g>
    </g>
    <g id="ytick_2">
     <g id="line2d_8">
      <g>
       <use style="stroke:#000000;stroke-width:0.8;" x="54" xlink:href="#mce31a3b49f" y="215.76"/>
      </g>
     </g>
     <g id="text_9">
      <!-- 4 -->
      <g transform="translate(40.6375 219.559219)scale(0.1 -0.1)">
       <use xlink:href="#DejaVuSans-34"/>
      </g>
     </g>
    </g>
    <g id="ytick_3">
     <g id="line2d_9">
      <g>
       <use style="stroke:#000000;stroke-width:0.8;" x="54" xlink:href="#mce31a3b49f" y="179.52"/>
      </g>
     </g>
     <g id="text_10">
      <!-- 5 -->
      <g transform="translate(40.6375 183.319219)scale(0.1 -0.1)">
       <defs>
        <path d="M 691 4666 
L 3169 4666 
L 3169 4134 
L 1269 4134 
L 1269 2991 
Q 1406 3038 1543 3061 
Q 1681 3084 1819 3084 
Q 2600 3084 3056 2656 
Q 3513 2228 3513 1497 
Q 3513 744 3044 326 
Q 2575 -91 1722 -91 
Q 1428 -91 1123 -41 
Q 819 9 494 109 
L 494 744 
Q 775 591 1075 516 
Q 1375 441 1709 441 
Q 2250 441 2565 725 
Q 2881 1009 2881 1497 
Q 2881 1984 2565 2268 
Q 2250 2553 1709 2553 
Q 1456 2553 1204 2497 
Q 953 2441 691 2322 
L 691 4666 
z
" id="DejaVuSans-35" transform="scale(0.015625)"/>
       </defs>
       <use xlink:href="#DejaVuSans-35"/>
      </g>
     </g>
    </g>
    <g id="ytick_4">
     <g id="line2d_10">
      <g>
       <use style="stroke:#000000;stroke-width:0.8;" x="54" xlink:href="#mce31a3b49f" y="143.28"/>
      </g>
     </g>
     <g id="text_11">
      <!-- 6 -->
      <g transform="translate(40.6375 147.079219)scale(0.1 -0.1)">
       <use xlink:href="#DejaVuSans-36"/>
      </g>
     </g>
    </g>
    <g id="ytick_5">
     <g id="line2d_11">
      <g>
       <use style="stroke:#000000;stroke-width:0.8;" x="54" xlink:href="#mce31a3b49f" y="107.04"/>
      </g>
     </g>
     <g id="text_12">
      <!-- 7 -->
      <g transform="translate(40.6375 110.839219)scale(0.1 -0.1)">
       <defs>
        <path d="M 525 4666 
L 3525 4666 
L 3525 4397 
L 1831 0 
L 1172 0 
L 2766 4134 
L 525 4134 
L 525 4666 
z
" id="DejaVuSans-37" transform="scale(0.015625)"/>
       </defs>
       <use xlink:href="#DejaVuSans-37"/>
      </g>
     </g>
    </g>
    <g id="ytick_6">
     <g id="line2d_12">
      <g>
       <use style="stroke:#000000;stroke-width:0.8;" x="54" xlink:href="#mce31a3b49f" y="70.8"/>
      </g>
     </g>
     <g id="text_13">
      <!-- 8 -->
      <g transform="translate(40.6375 74.599219)scale(0.1 -0.1)">
       <use xlink:href="#DejaVuSans-38"/>
      </g>
     </g>
    </g>
    <g id="ytick_7">
     <g id="line2d_13">
      <g>
       <use style="stroke:#000000;stroke-width:0.8;" x="54" xlink:href="#mce31a3b49f" y="34.56"/>
      </g>
     </g>
     <g id="text_14">
      <!-- 9 -->
      <g transform="translate(40.6375 38.359219)scale(0.1 -0.1)">
       <defs>
        <path d="M 703 97 
L 703 672 
Q 941 559 1184 500 
Q 1428 441 1663 441 
Q 2288 441 2617 861 
Q 2947 1281 2994 2138 
Q 2813 1869 2534 1725 
Q 2256 1581 1919 1581 
Q 1219 1581 811 2004 
Q 403 2428 403 3163 
Q 403 3881 828 4315 
Q 1253 4750 1959 4750 
Q 2769 4750 3195 4129 
Q 3622 3509 3622 2328 
Q 3622 1225 3098 567 
Q 2575 -91 1691 -91 
Q 1453 -91 1209 -44 
Q 966 3 703 97 
z
M 1959 2075 
Q 2384 2075 2632 2365 
Q 2881 2656 2881 3163 
Q 2881 3666 2632 3958 
Q 2384 4250 1959 4250 
Q 1534 4250 1286 3958 
Q 1038 3666 1038 3163 
Q 1038 2656 1286 2365 
Q 1534 2075 1959 2075 
z
" id="DejaVuSans-39" transform="scale(0.015625)"/>
       </defs>
       <use xlink:href="#DejaVuSans-39"/>
      </g>
     </g>
    </g>
    <g id="text_15">
     <!-- y -->
     <g transform="translate(34.141875 146.83125)rotate(-90)scale(0.12 -0.12)">
      <defs>
       <path d="M 2059 -325 
Q 1816 -950 1584 -1140 
Q 1353 -1331 966 -1331 
L 506 -1331 
L 506 -850 
L 844 -850 
Q 1081 -850 1212 -737 
Q 1344 -625 1503 -206 
L 1606 56 
L 191 3500 
L 800 3500 
L 1894 763 
L 2988 3500 
L 3597 3500 
L 2059 -325 
z
" id="DejaVuSans-79" transform="scale(0.015625)"/>
      </defs>
      <use xlink:href="#DejaVuSans-79"/>
     </g>
    </g>
   </g>
   <g id="line2d_14">
    <path clip-path="url(#pb85f1242f4)" d="M 69.218182 70.8 
L 71.985124 85.083949 
L 74.752066 98.25467 
L 77.519008 110.364828 
L 80.28595 121.465955 
L 83.052893 131.608455 
L 85.819835 140.841599 
L 88.586777 149.213528 
L 91.353719 156.771253 
L 94.120661 163.560654 
L 96.887603 169.62648 
L 99.654545 175.012349 
L 102.421488 179.76075 
L 105.18843 183.913038 
L 107.955372 187.509441 
L 110.722314 190.589055 
L 113.489256 193.189844 
L 116.256198 195.348643 
L 119.02314 197.101155 
L 121.790083 198.481953 
L 124.557025 199.52448 
L 127.323967 200.261047 
L 130.090909 200.722835 
L 132.857851 200.939895 
L 135.624793 200.941145 
L 138.391736 200.754375 
L 141.158678 200.406243 
L 143.92562 199.922276 
L 146.692562 199.326871 
L 149.459504 198.643294 
L 152.226446 197.89368 
L 154.993388 197.099035 
L 157.760331 196.279231 
L 160.527273 195.453014 
L 163.294215 194.637994 
L 166.061157 193.850655 
L 168.828099 193.106347 
L 171.595041 192.419291 
L 174.361983 191.802577 
L 177.128926 191.268164 
L 179.895868 190.82688 
L 182.66281 190.488424 
L 185.429752 190.261362 
L 188.196694 190.153131 
L 190.963636 190.170037 
L 193.730579 190.317255 
L 196.497521 190.598829 
L 199.264463 191.017673 
L 202.031405 191.575569 
L 204.798347 192.273171 
L 207.565289 193.11 
L 210.332231 194.084446 
L 213.099174 195.193771 
L 215.866116 196.434103 
L 218.633058 197.800442 
L 221.4 199.286655 
L 224.166942 200.88548 
L 226.933884 202.588525 
L 229.700826 204.386264 
L 232.467769 206.268045 
L 235.234711 208.22208 
L 238.001653 210.235455 
L 240.768595 212.294122 
L 243.535537 214.382905 
L 246.302479 216.485496 
L 249.069421 218.584455 
L 251.836364 220.661214 
L 254.603306 222.696071 
L 257.370248 224.668198 
L 260.13719 226.555631 
L 262.904132 228.33528 
L 265.671074 229.982921 
L 268.438017 231.4732 
L 271.204959 232.779634 
L 273.971901 233.874607 
L 276.738843 234.729375 
L 279.505785 235.31406 
L 282.272727 235.597656 
L 285.039669 235.548026 
L 287.806612 235.1319 
L 290.573554 234.31488 
L 293.340496 233.061436 
L 296.107438 231.334908 
L 298.87438 229.097505 
L 301.641322 226.310305 
L 304.408264 222.933255 
L 307.175207 218.925173 
L 309.942149 214.243744 
L 312.709091 208.845524 
L 315.476033 202.685938 
L 318.242975 195.71928 
L 321.009917 187.898713 
L 323.77686 179.176271 
L 326.543802 169.502854 
L 329.310744 158.828236 
L 332.077686 147.101055 
L 334.844628 134.268823 
L 337.61157 120.277918 
L 340.378512 105.073589 
L 343.145455 88.599954 
L 345.912397 70.8 
L 348.679339 51.615584 
L 351.446281 30.987432 
L 354.213223 8.855138 
L 355.363895 -1 
" style="fill:none;stroke:#0000ff;stroke-linecap:square;stroke-width:2;"/>
   </g>
   <g id="line2d_15">
    <path clip-path="url(#pb85f1242f4)" d="M 69.218182 140.929173 
L 71.985124 136.841556 
L 74.752066 134.067191 
L 77.519008 132.857911 
L 80.28595 133.41525 
L 83.052893 135.856234 
L 85.819835 140.102127 
L 88.586777 145.773481 
L 91.353719 152.341314 
L 94.120661 159.348723 
L 96.887603 166.453918 
L 99.654545 173.393918 
L 102.421488 179.953846 
L 105.18843 185.95076 
L 107.955372 191.230526 
L 110.722314 195.676745 
L 113.489256 199.224426 
L 116.256198 201.867614 
L 119.02314 203.655593 
L 121.790083 204.679719 
L 124.557025 205.056361 
L 127.323967 204.911113 
L 130.090909 204.3674 
L 132.857851 203.540117 
L 135.624793 202.533097 
L 138.391736 201.438665 
L 141.158678 200.337909 
L 143.92562 199.300846 
L 146.692562 198.385895 
L 149.459504 197.638219 
L 152.226446 197.086941 
L 154.993388 196.74214 
L 157.760331 196.593441 
L 160.527273 196.611948 
L 163.294215 196.755914 
L 166.061157 196.97837 
L 168.828099 197.233033 
L 171.595041 197.474404 
L 174.361983 197.651043 
L 177.128926 197.697952 
L 179.895868 197.538803 
L 182.66281 197.104578 
L 185.429752 196.368299 
L 188.196694 195.39564 
L 190.963636 194.400499 
L 193.730579 193.718706 
L 196.497521 193.598992 
L 199.264463 194.05907 
L 202.031405 194.991988 
L 204.798347 196.273034 
L 207.565289 197.78457 
L 210.332231 199.416882 
L 213.099174 201.069811 
L 215.866116 202.656849 
L 218.633058 204.109498 
L 221.4 205.380249 
L 224.166942 206.443388 
L 226.933884 207.293545 
L 229.700826 207.942385 
L 232.467769 208.414126 
L 235.234711 208.740695 
L 238.001653 208.957257 
L 240.768595 209.098705 
L 243.535537 209.197406 
L 246.302479 209.282274 
L 249.069421 209.378947 
L 251.836364 209.510719 
L 254.603306 209.699801 
L 257.370248 209.968494 
L 260.13719 210.339908 
L 262.904132 210.837972 
L 265.671074 211.486558 
L 268.438017 212.307667 
L 271.204959 213.318751 
L 273.971901 214.529357 
L 276.738843 215.937397 
L 279.505785 217.52541 
L 282.272727 219.257188 
L 285.039669 221.075116 
L 287.806612 222.898464 
L 290.573554 224.622854 
L 293.340496 226.121042 
L 296.107438 227.24519 
L 298.87438 227.830812 
L 301.641322 227.702712 
L 304.408264 226.6833 
L 307.175207 224.603935 
L 309.942149 221.320265 
L 312.709091 216.732656 
L 315.476033 210.809269 
L 318.242975 203.588035 
L 321.009917 195.09702 
L 323.77686 185.25272 
L 326.543802 173.983649 
L 329.310744 161.426823 
L 332.077686 147.939512 
L 334.844628 134.024895 
L 337.61157 120.275829 
L 340.378512 107.358954 
L 343.145455 96.023458 
L 345.912397 87.036101 
L 348.679339 80.948236 
L 351.446281 77.955024 
L 354.213223 77.999682 
L 356.980165 80.873872 
L 359.747107 86.251426 
L 362.51405 93.711466 
L 365.280992 102.769543 
L 368.047934 112.9142 
L 370.814876 123.643311 
L 373.581818 134.495731 
" style="fill:none;stroke:#008000;stroke-dasharray:3.7,1.6;stroke-dashoffset:0;"/>
   </g>
   <g id="line2d_16">
    <path clip-path="url(#pb85f1242f4)" d="M 69.218182 108.875917 
L 71.985124 110.58843 
L 74.752066 113.262708 
L 77.519008 116.841774 
L 80.28595 121.192509 
L 83.052893 126.125904 
L 85.819835 131.506075 
L 88.586777 137.365662 
L 91.353719 143.777345 
L 94.120661 150.665137 
L 96.887603 157.801144 
L 99.654545 164.884316 
L 102.421488 171.611674 
L 105.18843 177.72877 
L 107.955372 183.057532 
L 110.722314 187.500463 
L 113.489256 191.0281 
L 116.256198 193.661739 
L 119.02314 195.459273 
L 121.790083 196.505391 
L 124.557025 196.904169 
L 127.323967 196.772033 
L 130.090909 196.230248 
L 132.857851 195.397493 
L 135.624793 194.383762 
L 138.391736 193.286458 
L 141.158678 192.188575 
L 143.92562 191.158222 
L 146.692562 190.248743 
L 149.459504 189.49914 
L 152.226446 188.93475 
L 154.993388 188.567812 
L 157.760331 188.397121 
L 160.527273 188.406073 
L 163.294215 188.559588 
L 166.061157 188.802087 
L 168.828099 189.060039 
L 171.595041 189.252415 
L 174.361983 189.308871 
L 177.128926 189.18835 
L 179.895868 188.88603 
L 182.66281 188.420992 
L 185.429752 187.80433 
L 188.196694 186.987821 
L 190.963636 185.804447 
L 193.730579 183.988376 
L 196.497521 181.37625 
L 199.264463 178.042933 
L 202.031405 174.187505 
L 204.798347 170.019908 
L 207.565289 165.731314 
L 210.332231 161.490298 
L 213.099174 157.439959 
L 215.866116 153.694087 
L 218.633058 150.334214 
L 221.4 147.408814 
L 224.166942 144.935098 
L 226.933884 142.903179 
L 229.700826 141.282001 
L 232.467769 140.026213 
L 235.234711 139.083116 
L 238.001653 138.39895 
L 240.768595 137.92399 
L 243.535537 137.616195 
L 246.302479 137.443443 
L 249.069421 137.384583 
L 251.836364 137.429707 
L 254.603306 137.580006 
L 257.370248 137.847546 
L 260.13719 138.255144 
L 262.904132 138.836364 
L 265.671074 139.635472 
L 268.438017 140.707036 
L 271.204959 142.114717 
L 273.971901 143.928699 
L 276.738843 146.221234 
L 279.505785 149.059897 
L 282.272727 152.498429 
L 285.039669 156.56546 
L 287.806612 161.251906 
L 290.573554 166.498314 
L 293.340496 172.18384 
L 296.107438 178.118777 
L 298.87438 184.042478 
L 301.641322 189.628188 
L 304.408264 194.495501 
L 307.175207 198.230042 
L 309.942149 200.408362 
L 312.709091 200.624634 
L 315.476033 198.517877 
L 318.242975 193.81871 
L 321.009917 186.470748 
L 323.77686 176.761705 
L 326.543802 165.212126 
L 329.310744 152.370915 
L 332.077686 138.774044 
L 334.844628 124.968987 
L 337.61157 111.504306 
L 340.378512 98.867939 
L 343.145455 87.397187 
L 345.912397 77.266775 
L 348.679339 68.656844 
L 351.446281 61.847002 
L 354.213223 57.087779 
L 356.980165 54.499978 
L 359.747107 54.063627 
L 362.51405 55.636941 
L 365.280992 58.98121 
L 368.047934 63.787787 
L 370.814876 69.706109 
L 373.581818 76.37119 
" style="fill:none;stroke:#008000;stroke-dasharray:3.7,1.6;stroke-dashoffset:0;"/>
   </g>
   <g id="line2d_17">
    <path clip-path="url(#pb85f1242f4)" d="M 69.218182 251.785891 
L 71.985124 251.950209 
L 74.752066 251.99216 
L 77.519008 251.999158 
L 80.28595 251.999925 
L 83.052893 251.999991 
L 85.819835 251.999997 
L 88.586777 251.999996 
L 91.353719 251.999978 
L 94.120661 251.99981 
L 96.887603 251.99826 
L 99.654545 251.987211 
L 102.421488 251.931208 
L 105.18843 251.731283 
L 107.955372 251.219163 
L 110.722314 250.249274 
L 113.489256 248.841834 
L 116.256198 247.220693 
L 119.02314 245.701958 
L 121.790083 244.549635 
L 124.557025 243.899432 
L 127.323967 243.757613 
L 130.090909 244.038973 
L 132.857851 244.613181 
L 135.624793 245.343751 
L 138.391736 246.113989 
L 141.158678 246.839525 
L 143.92562 247.469832 
L 146.692562 247.982641 
L 149.459504 248.375371 
L 152.226446 248.656743 
L 154.993388 248.840337 
L 157.760331 248.940549 
L 160.527273 248.970863 
L 163.294215 248.944281 
L 166.061157 248.875831 
L 168.828099 248.786591 
L 171.595041 248.707167 
L 174.361983 248.676631 
L 177.128926 248.732531 
L 179.895868 248.891449 
L 182.66281 249.127736 
L 185.429752 249.364671 
L 188.196694 249.486754 
L 190.963636 249.361406 
L 193.730579 248.84799 
L 196.497521 247.802276 
L 199.264463 246.113323 
L 202.031405 243.76805 
L 204.798347 240.885619 
L 207.565289 237.689904 
L 210.332231 234.445208 
L 213.099174 231.394233 
L 215.866116 228.718293 
L 218.633058 226.521788 
L 221.4 224.8353 
L 224.166942 223.630228 
L 226.933884 222.838609 
L 229.700826 222.373118 
L 232.467769 222.143748 
L 235.234711 222.069377 
L 238.001653 222.083882 
L 240.768595 222.137584 
L 243.535537 222.195391 
L 246.302479 222.233095 
L 249.069421 222.233022 
L 251.836364 222.179833 
L 254.603306 222.056905 
L 257.370248 221.843429 
L 260.13719 221.512264 
L 262.904132 221.028562 
L 265.671074 220.349263 
L 268.438017 219.423696 
L 271.204959 218.1957 
L 273.971901 216.60789 
L 276.738843 214.608908 
L 279.505785 212.164711 
L 282.272727 209.274908 
L 285.039669 205.994773 
L 287.806612 202.462493 
L 290.573554 198.92914 
L 293.340496 195.785462 
L 296.107438 193.574275 
L 298.87438 192.969798 
L 301.641322 194.696753 
L 304.408264 199.358615 
L 307.175207 207.162131 
L 309.942149 217.591203 
L 312.709091 229.205808 
L 315.476033 239.83514 
L 318.242975 247.346932 
L 321.009917 250.932687 
L 323.77686 251.879462 
L 326.543802 251.994169 
L 329.310744 251.999889 
L 332.077686 251.999999 
L 334.844628 252 
L 337.61157 252 
L 340.378512 252 
L 343.145455 252 
L 345.912397 252 
L 348.679339 252 
L 351.446281 252 
L 354.213223 252 
L 356.980165 251.999985 
L 359.747107 251.999498 
L 362.51405 251.992967 
L 365.280992 251.948444 
L 368.047934 251.767027 
L 370.814876 251.265426 
L 373.581818 250.230197 
" style="fill:none;stroke:#bfbf00;stroke-dasharray:7.4,3.2;stroke-dashoffset:0;stroke-width:2;"/>
   </g>
   <g id="patch_3">
    <path d="M 54 252 
L 54 34.56 
" style="fill:none;stroke:#000000;stroke-linecap:square;stroke-linejoin:miter;stroke-width:0.8;"/>
   </g>
   <g id="patch_4">
    <path d="M 388.8 252 
L 388.8 34.56 
" style="fill:none;stroke:#000000;stroke-linecap:square;stroke-linejoin:miter;stroke-width:0.8;"/>
   </g>
   <g id="patch_5">
    <path d="M 54 252 
L 388.8 252 
" style="fill:none;stroke:#000000;stroke-linecap:square;stroke-linejoin:miter;stroke-width:0.8;"/>
   </g>
   <g id="patch_6">
    <path d="M 54 34.56 
L 388.8 34.56 
" style="fill:none;stroke:#000000;stroke-linecap:square;stroke-linejoin:miter;stroke-width:0.8;"/>
   </g>
   <g id="text_16">
    <!-- Method : AEI -->
    <g transform="translate(71.985124 244.752)scale(0.12 -0.12)">
     <defs>
      <path d="M 628 4666 
L 1569 4666 
L 2759 1491 
L 3956 4666 
L 4897 4666 
L 4897 0 
L 4281 0 
L 4281 4097 
L 3078 897 
L 2444 897 
L 1241 4097 
L 1241 0 
L 628 0 
L 628 4666 
z
" id="DejaVuSans-4d" transform="scale(0.015625)"/>
      <path d="M 3597 1894 
L 3597 1613 
L 953 1613 
Q 991 1019 1311 708 
Q 1631 397 2203 397 
Q 2534 397 2845 478 
Q 3156 559 3463 722 
L 3463 178 
Q 3153 47 2828 -22 
Q 2503 -91 2169 -91 
Q 1331 -91 842 396 
Q 353 884 353 1716 
Q 353 2575 817 3079 
Q 1281 3584 2069 3584 
Q 2775 3584 3186 3129 
Q 3597 2675 3597 1894 
z
M 3022 2063 
Q 3016 2534 2758 2815 
Q 2500 3097 2075 3097 
Q 1594 3097 1305 2825 
Q 1016 2553 972 2059 
L 3022 2063 
z
" id="DejaVuSans-65" transform="scale(0.015625)"/>
      <path d="M 1172 4494 
L 1172 3500 
L 2356 3500 
L 2356 3053 
L 1172 3053 
L 1172 1153 
Q 1172 725 1289 603 
Q 1406 481 1766 481 
L 2356 481 
L 2356 0 
L 1766 0 
Q 1100 0 847 248 
Q 594 497 594 1153 
L 594 3053 
L 172 3053 
L 172 3500 
L 594 3500 
L 594 4494 
L 1172 4494 
z
" id="DejaVuSans-74" transform="scale(0.015625)"/>
      <path d="M 3513 2113 
L 3513 0 
L 2938 0 
L 2938 2094 
Q 2938 2591 2744 2837 
Q 2550 3084 2163 3084 
Q 1697 3084 1428 2787 
Q 1159 2491 1159 1978 
L 1159 0 
L 581 0 
L 581 4863 
L 1159 4863 
L 1159 2956 
Q 1366 3272 1645 3428 
Q 1925 3584 2291 3584 
Q 2894 3584 3203 3211 
Q 3513 2838 3513 2113 
z
" id="DejaVuSans-68" transform="scale(0.015625)"/>
      <path d="M 1959 3097 
Q 1497 3097 1228 2736 
Q 959 2375 959 1747 
Q 959 1119 1226 758 
Q 1494 397 1959 397 
Q 2419 397 2687 759 
Q 2956 1122 2956 1747 
Q 2956 2369 2687 2733 
Q 2419 3097 1959 3097 
z
M 1959 3584 
Q 2709 3584 3137 3096 
Q 3566 2609 3566 1747 
Q 3566 888 3137 398 
Q 2709 -91 1959 -91 
Q 1206 -91 779 398 
Q 353 888 353 1747 
Q 353 2609 779 3096 
Q 1206 3584 1959 3584 
z
" id="DejaVuSans-6f" transform="scale(0.015625)"/>
      <path d="M 2906 2969 
L 2906 4863 
L 3481 4863 
L 3481 0 
L 2906 0 
L 2906 525 
Q 2725 213 2448 61 
Q 2172 -91 1784 -91 
Q 1150 -91 751 415 
Q 353 922 353 1747 
Q 353 2572 751 3078 
Q 1150 3584 1784 3584 
Q 2172 3584 2448 3432 
Q 2725 3281 2906 2969 
z
M 947 1747 
Q 947 1113 1208 752 
Q 1469 391 1925 391 
Q 2381 391 2643 752 
Q 2906 1113 2906 1747 
Q 2906 2381 2643 2742 
Q 2381 3103 1925 3103 
Q 1469 3103 1208 2742 
Q 947 2381 947 1747 
z
" id="DejaVuSans-64" transform="scale(0.015625)"/>
      <path id="DejaVuSans-20" transform="scale(0.015625)"/>
      <path d="M 750 794 
L 1409 794 
L 1409 0 
L 750 0 
L 750 794 
z
M 750 3309 
L 1409 3309 
L 1409 2516 
L 750 2516 
L 750 3309 
z
" id="DejaVuSans-3a" transform="scale(0.015625)"/>
      <path d="M 2188 4044 
L 1331 1722 
L 3047 1722 
L 2188 4044 
z
M 1831 4666 
L 2547 4666 
L 4325 0 
L 3669 0 
L 3244 1197 
L 1141 1197 
L 716 0 
L 50 0 
L 1831 4666 
z
" id="DejaVuSans-41" transform="scale(0.015625)"/>
      <path d="M 628 4666 
L 3578 4666 
L 3578 4134 
L 1259 4134 
L 1259 2753 
L 3481 2753 
L 3481 2222 
L 1259 2222 
L 1259 531 
L 3634 531 
L 3634 0 
L 628 0 
L 628 4666 
z
" id="DejaVuSans-45" transform="scale(0.015625)"/>
      <path d="M 628 4666 
L 1259 4666 
L 1259 0 
L 628 0 
L 628 4666 
z
" id="DejaVuSans-49" transform="scale(0.015625)"/>
     </defs>
     <use xlink:href="#DejaVuSans-4d"/>
     <use x="86.279297" xlink:href="#DejaVuSans-65"/>
     <use x="147.802734" xlink:href="#DejaVuSans-74"/>
     <use x="187.011719" xlink:href="#DejaVuSans-68"/>
     <use x="250.390625" xlink:href="#DejaVuSans-6f"/>
     <use x="311.572266" xlink:href="#DejaVuSans-64"/>
     <use x="375.048828" xlink:href="#DejaVuSans-20"/>
     <use x="406.835938" xlink:href="#DejaVuSans-3a"/>
     <use x="440.527344" xlink:href="#DejaVuSans-20"/>
     <use x="472.314453" xlink:href="#DejaVuSans-41"/>
     <use x="540.722656" xlink:href="#DejaVuSans-45"/>
     <use x="603.90625" xlink:href="#DejaVuSans-49"/>
    </g>
   </g>
   <g id="text_17">
    <!-- Iter=0 -->
    <g transform="translate(71.985124 226.632)scale(0.12 -0.12)">
     <defs>
      <path d="M 2631 2963 
Q 2534 3019 2420 3045 
Q 2306 3072 2169 3072 
Q 1681 3072 1420 2755 
Q 1159 2438 1159 1844 
L 1159 0 
L 581 0 
L 581 3500 
L 1159 3500 
L 1159 2956 
Q 1341 3275 1631 3429 
Q 1922 3584 2338 3584 
Q 2397 3584 2469 3576 
Q 2541 3569 2628 3553 
L 2631 2963 
z
" id="DejaVuSans-72" transform="scale(0.015625)"/>
      <path d="M 678 2906 
L 4684 2906 
L 4684 2381 
L 678 2381 
L 678 2906 
z
M 678 1631 
L 4684 1631 
L 4684 1100 
L 678 1100 
L 678 1631 
z
" id="DejaVuSans-3d" transform="scale(0.015625)"/>
     </defs>
     <use xlink:href="#DejaVuSans-49"/>
     <use x="29.492188" xlink:href="#DejaVuSans-74"/>
     <use x="68.701172" xlink:href="#DejaVuSans-65"/>
     <use x="130.224609" xlink:href="#DejaVuSans-72"/>
     <use x="171.337891" xlink:href="#DejaVuSans-3d"/>
     <use x="255.126953" xlink:href="#DejaVuSans-30"/>
    </g>
   </g>
   <g id="legend_1">
    <g id="patch_7">
     <path d="M 144.327812 140.235625 
L 298.472188 140.235625 
Q 300.672188 140.235625 300.672188 138.035625 
L 300.672188 42.26 
Q 300.672188 40.06 298.472188 40.06 
L 144.327812 40.06 
Q 142.127813 40.06 142.127813 42.26 
L 142.127813 138.035625 
Q 142.127813 140.235625 144.327812 140.235625 
z
" style="fill:#ffffff;opacity:0.8;stroke:#cccccc;stroke-linejoin:miter;"/>
    </g>
    <g id="line2d_18">
     <path d="M 146.527813 48.968281 
L 168.527813 48.968281 
" style="fill:none;stroke:#0000ff;stroke-linecap:square;stroke-width:2;"/>
    </g>
    <g id="line2d_19"/>
    <g id="text_18">
     <!-- ture function -->
     <g transform="translate(177.327813 52.818281)scale(0.11 -0.11)">
      <defs>
       <path d="M 544 1381 
L 544 3500 
L 1119 3500 
L 1119 1403 
Q 1119 906 1312 657 
Q 1506 409 1894 409 
Q 2359 409 2629 706 
Q 2900 1003 2900 1516 
L 2900 3500 
L 3475 3500 
L 3475 0 
L 2900 0 
L 2900 538 
Q 2691 219 2414 64 
Q 2138 -91 1772 -91 
Q 1169 -91 856 284 
Q 544 659 544 1381 
z
M 1991 3584 
L 1991 3584 
z
" id="DejaVuSans-75" transform="scale(0.015625)"/>
       <path d="M 2375 4863 
L 2375 4384 
L 1825 4384 
Q 1516 4384 1395 4259 
Q 1275 4134 1275 3809 
L 1275 3500 
L 2222 3500 
L 2222 3053 
L 1275 3053 
L 1275 0 
L 697 0 
L 697 3053 
L 147 3053 
L 147 3500 
L 697 3500 
L 697 3744 
Q 697 4328 969 4595 
Q 1241 4863 1831 4863 
L 2375 4863 
z
" id="DejaVuSans-66" transform="scale(0.015625)"/>
       <path d="M 3513 2113 
L 3513 0 
L 2938 0 
L 2938 2094 
Q 2938 2591 2744 2837 
Q 2550 3084 2163 3084 
Q 1697 3084 1428 2787 
Q 1159 2491 1159 1978 
L 1159 0 
L 581 0 
L 581 3500 
L 1159 3500 
L 1159 2956 
Q 1366 3272 1645 3428 
Q 1925 3584 2291 3584 
Q 2894 3584 3203 3211 
Q 3513 2838 3513 2113 
z
" id="DejaVuSans-6e" transform="scale(0.015625)"/>
       <path d="M 3122 3366 
L 3122 2828 
Q 2878 2963 2633 3030 
Q 2388 3097 2138 3097 
Q 1578 3097 1268 2742 
Q 959 2388 959 1747 
Q 959 1106 1268 751 
Q 1578 397 2138 397 
Q 2388 397 2633 464 
Q 2878 531 3122 666 
L 3122 134 
Q 2881 22 2623 -34 
Q 2366 -91 2075 -91 
Q 1284 -91 818 406 
Q 353 903 353 1747 
Q 353 2603 823 3093 
Q 1294 3584 2113 3584 
Q 2378 3584 2631 3529 
Q 2884 3475 3122 3366 
z
" id="DejaVuSans-63" transform="scale(0.015625)"/>
       <path d="M 603 3500 
L 1178 3500 
L 1178 0 
L 603 0 
L 603 3500 
z
M 603 4863 
L 1178 4863 
L 1178 4134 
L 603 4134 
L 603 4863 
z
" id="DejaVuSans-69" transform="scale(0.015625)"/>
      </defs>
      <use xlink:href="#DejaVuSans-74"/>
      <use x="39.208984" xlink:href="#DejaVuSans-75"/>
      <use x="102.587891" xlink:href="#DejaVuSans-72"/>
      <use x="141.451172" xlink:href="#DejaVuSans-65"/>
      <use x="202.974609" xlink:href="#DejaVuSans-20"/>
      <use x="234.761719" xlink:href="#DejaVuSans-66"/>
      <use x="269.966797" xlink:href="#DejaVuSans-75"/>
      <use x="333.345703" xlink:href="#DejaVuSans-6e"/>
      <use x="396.724609" xlink:href="#DejaVuSans-63"/>
      <use x="451.705078" xlink:href="#DejaVuSans-74"/>
      <use x="490.914062" xlink:href="#DejaVuSans-69"/>
      <use x="518.697266" xlink:href="#DejaVuSans-6f"/>
      <use x="579.878906" xlink:href="#DejaVuSans-6e"/>
     </g>
    </g>
    <g id="line2d_20">
     <path d="M 146.527813 65.114219 
L 168.527813 65.114219 
" style="fill:none;stroke:#000000;stroke-dasharray:7.4,3.2;stroke-dashoffset:0;stroke-width:2;"/>
    </g>
    <g id="line2d_21"/>
    <g id="text_19">
     <!-- predicted function -->
     <g transform="translate(177.327813 68.964219)scale(0.11 -0.11)">
      <defs>
       <path d="M 1159 525 
L 1159 -1331 
L 581 -1331 
L 581 3500 
L 1159 3500 
L 1159 2969 
Q 1341 3281 1617 3432 
Q 1894 3584 2278 3584 
Q 2916 3584 3314 3078 
Q 3713 2572 3713 1747 
Q 3713 922 3314 415 
Q 2916 -91 2278 -91 
Q 1894 -91 1617 61 
Q 1341 213 1159 525 
z
M 3116 1747 
Q 3116 2381 2855 2742 
Q 2594 3103 2138 3103 
Q 1681 3103 1420 2742 
Q 1159 2381 1159 1747 
Q 1159 1113 1420 752 
Q 1681 391 2138 391 
Q 2594 391 2855 752 
Q 3116 1113 3116 1747 
z
" id="DejaVuSans-70" transform="scale(0.015625)"/>
      </defs>
      <use xlink:href="#DejaVuSans-70"/>
      <use x="63.476562" xlink:href="#DejaVuSans-72"/>
      <use x="102.339844" xlink:href="#DejaVuSans-65"/>
      <use x="163.863281" xlink:href="#DejaVuSans-64"/>
      <use x="227.339844" xlink:href="#DejaVuSans-69"/>
      <use x="255.123047" xlink:href="#DejaVuSans-63"/>
      <use x="310.103516" xlink:href="#DejaVuSans-74"/>
      <use x="349.3125" xlink:href="#DejaVuSans-65"/>
      <use x="410.835938" xlink:href="#DejaVuSans-64"/>
      <use x="474.3125" xlink:href="#DejaVuSans-20"/>
      <use x="506.099609" xlink:href="#DejaVuSans-66"/>
      <use x="541.304688" xlink:href="#DejaVuSans-75"/>
      <use x="604.683594" xlink:href="#DejaVuSans-6e"/>
      <use x="668.0625" xlink:href="#DejaVuSans-63"/>
      <use x="723.042969" xlink:href="#DejaVuSans-74"/>
      <use x="762.251953" xlink:href="#DejaVuSans-69"/>
      <use x="790.035156" xlink:href="#DejaVuSans-6f"/>
      <use x="851.216797" xlink:href="#DejaVuSans-6e"/>
     </g>
    </g>
    <g id="line2d_22">
     <path d="M 146.527813 81.260156 
L 168.527813 81.260156 
" style="fill:none;stroke:#008000;stroke-dasharray:3.7,1.6;stroke-dashoffset:0;"/>
    </g>
    <g id="line2d_23"/>
    <g id="text_20">
     <!--  ± Sn(x) -->
     <g transform="translate(177.327813 85.110156)scale(0.11 -0.11)">
      <defs>
       <path d="M 2944 4013 
L 2944 2803 
L 4684 2803 
L 4684 2272 
L 2944 2272 
L 2944 1063 
L 2419 1063 
L 2419 2272 
L 678 2272 
L 678 2803 
L 2419 2803 
L 2419 4013 
L 2944 4013 
z
M 678 531 
L 4684 531 
L 4684 0 
L 678 0 
L 678 531 
z
" id="DejaVuSans-b1" transform="scale(0.015625)"/>
       <path d="M 3425 4513 
L 3425 3897 
Q 3066 4069 2747 4153 
Q 2428 4238 2131 4238 
Q 1616 4238 1336 4038 
Q 1056 3838 1056 3469 
Q 1056 3159 1242 3001 
Q 1428 2844 1947 2747 
L 2328 2669 
Q 3034 2534 3370 2195 
Q 3706 1856 3706 1288 
Q 3706 609 3251 259 
Q 2797 -91 1919 -91 
Q 1588 -91 1214 -16 
Q 841 59 441 206 
L 441 856 
Q 825 641 1194 531 
Q 1563 422 1919 422 
Q 2459 422 2753 634 
Q 3047 847 3047 1241 
Q 3047 1584 2836 1778 
Q 2625 1972 2144 2069 
L 1759 2144 
Q 1053 2284 737 2584 
Q 422 2884 422 3419 
Q 422 4038 858 4394 
Q 1294 4750 2059 4750 
Q 2388 4750 2728 4690 
Q 3069 4631 3425 4513 
z
" id="DejaVuSans-53" transform="scale(0.015625)"/>
       <path d="M 1984 4856 
Q 1566 4138 1362 3434 
Q 1159 2731 1159 2009 
Q 1159 1288 1364 580 
Q 1569 -128 1984 -844 
L 1484 -844 
Q 1016 -109 783 600 
Q 550 1309 550 2009 
Q 550 2706 781 3412 
Q 1013 4119 1484 4856 
L 1984 4856 
z
" id="DejaVuSans-28" transform="scale(0.015625)"/>
       <path d="M 513 4856 
L 1013 4856 
Q 1481 4119 1714 3412 
Q 1947 2706 1947 2009 
Q 1947 1309 1714 600 
Q 1481 -109 1013 -844 
L 513 -844 
Q 928 -128 1133 580 
Q 1338 1288 1338 2009 
Q 1338 2731 1133 3434 
Q 928 4138 513 4856 
z
" id="DejaVuSans-29" transform="scale(0.015625)"/>
      </defs>
      <use xlink:href="#DejaVuSans-20"/>
      <use x="31.787109" xlink:href="#DejaVuSans-b1"/>
      <use x="115.576172" xlink:href="#DejaVuSans-20"/>
      <use x="147.363281" xlink:href="#DejaVuSans-53"/>
      <use x="210.839844" xlink:href="#DejaVuSans-6e"/>
      <use x="274.21875" xlink:href="#DejaVuSans-28"/>
      <use x="313.232422" xlink:href="#DejaVuSans-78"/>
      <use x="372.412109" xlink:href="#DejaVuSans-29"/>
     </g>
    </g>
    <g id="line2d_24">
     <path d="M 146.527813 97.406094 
L 168.527813 97.406094 
" style="fill:none;stroke:#bfbf00;stroke-dasharray:7.4,3.2;stroke-dashoffset:0;stroke-width:2;"/>
    </g>
    <g id="line2d_25"/>
    <g id="text_21">
     <!-- AEI(x) -->
     <g transform="translate(177.327813 101.256094)scale(0.11 -0.11)">
      <use xlink:href="#DejaVuSans-41"/>
      <use x="68.408203" xlink:href="#DejaVuSans-45"/>
      <use x="131.591797" xlink:href="#DejaVuSans-49"/>
      <use x="161.083984" xlink:href="#DejaVuSans-28"/>
      <use x="200.097656" xlink:href="#DejaVuSans-78"/>
      <use x="259.277344" xlink:href="#DejaVuSans-29"/>
     </g>
    </g>
    <g id="PathCollection_2">
     <defs>
      <path d="M 0 3.535534 
C 0.937635 3.535534 1.836992 3.163008 2.5 2.5 
C 3.163008 1.836992 3.535534 0.937635 3.535534 0 
C 3.535534 -0.937635 3.163008 -1.836992 2.5 -2.5 
C 1.836992 -3.163008 0.937635 -3.535534 0 -3.535534 
C -0.937635 -3.535534 -1.836992 -3.163008 -2.5 -2.5 
C -3.163008 -1.836992 -3.535534 -0.937635 -3.535534 0 
C -3.535534 0.937635 -3.163008 1.836992 -2.5 2.5 
C -1.836992 3.163008 -0.937635 3.535534 0 3.535534 
z
" id="md8b435bf6b" style="stroke:#000000;"/>
     </defs>
     <g>
      <use style="fill:#ff0000;stroke:#000000;" x="157.527813" xlink:href="#md8b435bf6b" y="114.514531"/>
     </g>
    </g>
    <g id="text_22">
     <!-- training data -->
     <g transform="translate(177.327813 117.402031)scale(0.11 -0.11)">
      <defs>
       <path d="M 2194 1759 
Q 1497 1759 1228 1600 
Q 959 1441 959 1056 
Q 959 750 1161 570 
Q 1363 391 1709 391 
Q 2188 391 2477 730 
Q 2766 1069 2766 1631 
L 2766 1759 
L 2194 1759 
z
M 3341 1997 
L 3341 0 
L 2766 0 
L 2766 531 
Q 2569 213 2275 61 
Q 1981 -91 1556 -91 
Q 1019 -91 701 211 
Q 384 513 384 1019 
Q 384 1609 779 1909 
Q 1175 2209 1959 2209 
L 2766 2209 
L 2766 2266 
Q 2766 2663 2505 2880 
Q 2244 3097 1772 3097 
Q 1472 3097 1187 3025 
Q 903 2953 641 2809 
L 641 3341 
Q 956 3463 1253 3523 
Q 1550 3584 1831 3584 
Q 2591 3584 2966 3190 
Q 3341 2797 3341 1997 
z
" id="DejaVuSans-61" transform="scale(0.015625)"/>
       <path d="M 2906 1791 
Q 2906 2416 2648 2759 
Q 2391 3103 1925 3103 
Q 1463 3103 1205 2759 
Q 947 2416 947 1791 
Q 947 1169 1205 825 
Q 1463 481 1925 481 
Q 2391 481 2648 825 
Q 2906 1169 2906 1791 
z
M 3481 434 
Q 3481 -459 3084 -895 
Q 2688 -1331 1869 -1331 
Q 1566 -1331 1297 -1286 
Q 1028 -1241 775 -1147 
L 775 -588 
Q 1028 -725 1275 -790 
Q 1522 -856 1778 -856 
Q 2344 -856 2625 -561 
Q 2906 -266 2906 331 
L 2906 616 
Q 2728 306 2450 153 
Q 2172 0 1784 0 
Q 1141 0 747 490 
Q 353 981 353 1791 
Q 353 2603 747 3093 
Q 1141 3584 1784 3584 
Q 2172 3584 2450 3431 
Q 2728 3278 2906 2969 
L 2906 3500 
L 3481 3500 
L 3481 434 
z
" id="DejaVuSans-67" transform="scale(0.015625)"/>
      </defs>
      <use xlink:href="#DejaVuSans-74"/>
      <use x="39.208984" xlink:href="#DejaVuSans-72"/>
      <use x="80.322266" xlink:href="#DejaVuSans-61"/>
      <use x="141.601562" xlink:href="#DejaVuSans-69"/>
      <use x="169.384766" xlink:href="#DejaVuSans-6e"/>
      <use x="232.763672" xlink:href="#DejaVuSans-69"/>
      <use x="260.546875" xlink:href="#DejaVuSans-6e"/>
      <use x="323.925781" xlink:href="#DejaVuSans-67"/>
      <use x="387.402344" xlink:href="#DejaVuSans-20"/>
      <use x="419.189453" xlink:href="#DejaVuSans-64"/>
      <use x="482.666016" xlink:href="#DejaVuSans-61"/>
      <use x="543.945312" xlink:href="#DejaVuSans-74"/>
      <use x="583.154297" xlink:href="#DejaVuSans-61"/>
     </g>
    </g>
    <g id="PathCollection_3">
     <g>
      <use style="fill:#ff0000;stroke:#ff0000;stroke-width:8;" x="157.527813" xlink:href="#m0c9b405a8c" y="130.660469"/>
     </g>
    </g>
    <g id="text_23">
     <!-- recommended datum -->
     <g transform="translate(177.327813 133.547969)scale(0.11 -0.11)">
      <defs>
       <path d="M 3328 2828 
Q 3544 3216 3844 3400 
Q 4144 3584 4550 3584 
Q 5097 3584 5394 3201 
Q 5691 2819 5691 2113 
L 5691 0 
L 5113 0 
L 5113 2094 
Q 5113 2597 4934 2840 
Q 4756 3084 4391 3084 
Q 3944 3084 3684 2787 
Q 3425 2491 3425 1978 
L 3425 0 
L 2847 0 
L 2847 2094 
Q 2847 2600 2669 2842 
Q 2491 3084 2119 3084 
Q 1678 3084 1418 2786 
Q 1159 2488 1159 1978 
L 1159 0 
L 581 0 
L 581 3500 
L 1159 3500 
L 1159 2956 
Q 1356 3278 1631 3431 
Q 1906 3584 2284 3584 
Q 2666 3584 2933 3390 
Q 3200 3197 3328 2828 
z
" id="DejaVuSans-6d" transform="scale(0.015625)"/>
      </defs>
      <use xlink:href="#DejaVuSans-72"/>
      <use x="38.863281" xlink:href="#DejaVuSans-65"/>
      <use x="100.386719" xlink:href="#DejaVuSans-63"/>
      <use x="155.367188" xlink:href="#DejaVuSans-6f"/>
      <use x="216.548828" xlink:href="#DejaVuSans-6d"/>
      <use x="313.960938" xlink:href="#DejaVuSans-6d"/>
      <use x="411.373047" xlink:href="#DejaVuSans-65"/>
      <use x="472.896484" xlink:href="#DejaVuSans-6e"/>
      <use x="536.275391" xlink:href="#DejaVuSans-64"/>
      <use x="599.751953" xlink:href="#DejaVuSans-65"/>
      <use x="661.275391" xlink:href="#DejaVuSans-64"/>
      <use x="724.751953" xlink:href="#DejaVuSans-20"/>
      <use x="756.539062" xlink:href="#DejaVuSans-64"/>
      <use x="820.015625" xlink:href="#DejaVuSans-61"/>
      <use x="881.294922" xlink:href="#DejaVuSans-74"/>
      <use x="920.503906" xlink:href="#DejaVuSans-75"/>
      <use x="983.882812" xlink:href="#DejaVuSans-6d"/>
     </g>
    </g>
   </g>
   <g id="line2d_26">
    <path clip-path="url(#pb85f1242f4)" d="M 69.218182 124.902545 
L 71.985124 123.714993 
L 74.752066 123.664949 
L 77.519008 124.849843 
L 80.28595 127.30388 
L 83.052893 130.991069 
L 85.819835 135.804101 
L 88.586777 141.569571 
L 91.353719 148.05933 
L 94.120661 155.00693 
L 96.887603 162.127531 
L 99.654545 169.139117 
L 102.421488 175.78276 
L 105.18843 181.839765 
L 107.955372 187.144029 
L 110.722314 191.588604 
L 113.489256 195.126263 
L 116.256198 197.764676 
L 119.02314 199.557433 
L 121.790083 200.592555 
L 124.557025 200.980265 
L 127.323967 200.841573 
L 130.090909 200.298824 
L 132.857851 199.468805 
L 135.624793 198.45843 
L 138.391736 197.362561 
L 141.158678 196.263242 
L 143.92562 195.229534 
L 146.692562 194.317319 
L 149.459504 193.56868 
L 152.226446 193.010845 
L 154.993388 192.654976 
L 157.760331 192.495281 
L 160.527273 192.509011 
L 163.294215 192.657751 
L 166.061157 192.890228 
L 168.828099 193.146536 
L 171.595041 193.36341 
L 174.361983 193.479957 
L 177.128926 193.443151 
L 179.895868 193.212417 
L 182.66281 192.762785 
L 185.429752 192.086315 
L 188.196694 191.191731 
L 190.963636 190.102473 
L 193.730579 188.853541 
L 196.497521 187.487621 
L 199.264463 186.051002 
L 202.031405 184.589746 
L 204.798347 183.146471 
L 207.565289 181.757942 
L 210.332231 180.45359 
L 213.099174 179.254885 
L 215.866116 178.175468 
L 218.633058 177.221856 
L 221.4 176.394532 
L 224.166942 175.689243 
L 226.933884 175.098362 
L 229.700826 174.612193 
L 232.467769 174.22017 
L 235.234711 173.911905 
L 238.001653 173.678104 
L 240.768595 173.511347 
L 243.535537 173.406801 
L 246.302479 173.362858 
L 249.069421 173.381765 
L 251.836364 173.470213 
L 254.603306 173.639903 
L 257.370248 173.90802 
L 260.13719 174.297526 
L 262.904132 174.837168 
L 265.671074 175.561015 
L 268.438017 176.507352 
L 271.204959 177.716734 
L 273.971901 179.229028 
L 276.738843 181.079316 
L 279.505785 183.292654 
L 282.272727 185.877809 
L 285.039669 188.820288 
L 287.806612 192.075185 
L 290.573554 195.560584 
L 293.340496 199.152441 
L 296.107438 202.681983 
L 298.87438 205.936645 
L 301.641322 208.66545 
L 304.408264 210.589401 
L 307.175207 211.416989 
L 309.942149 210.864314 
L 312.709091 208.678645 
L 315.476033 204.663573 
L 318.242975 198.703372 
L 321.009917 190.783884 
L 323.77686 181.007212 
L 326.543802 169.597887 
L 329.310744 156.898869 
L 332.077686 143.356778 
L 334.844628 129.496941 
L 337.61157 115.890068 
L 340.378512 103.113446 
L 343.145455 91.710323 
L 345.912397 82.151438 
L 348.679339 74.80254 
L 351.446281 69.901013 
L 354.213223 67.543731 
L 356.980165 67.686925 
L 359.747107 70.157527 
L 362.51405 74.674203 
L 365.280992 80.875377 
L 368.047934 88.350994 
L 370.814876 96.67471 
L 373.581818 105.43346 
" style="fill:none;stroke:#000000;stroke-dasharray:7.4,3.2;stroke-dashoffset:0;stroke-width:2;"/>
   </g>
   <g id="PathCollection_4">
    <g clip-path="url(#pb85f1242f4)">
     <use style="fill:#ff0000;stroke:#000000;" x="83.052893" xlink:href="#md8b435bf6b" y="129.399309"/>
     <use style="fill:#ff0000;stroke:#000000;" x="96.887603" xlink:href="#md8b435bf6b" y="162.429541"/>
     <use style="fill:#ff0000;stroke:#000000;" x="110.722314" xlink:href="#md8b435bf6b" y="193.170209"/>
     <use style="fill:#ff0000;stroke:#000000;" x="124.557025" xlink:href="#md8b435bf6b" y="199.248575"/>
     <use style="fill:#ff0000;stroke:#000000;" x="138.391736" xlink:href="#md8b435bf6b" y="199.347548"/>
     <use style="fill:#ff0000;stroke:#000000;" x="152.226446" xlink:href="#md8b435bf6b" y="191.611971"/>
     <use style="fill:#ff0000;stroke:#000000;" x="166.061157" xlink:href="#md8b435bf6b" y="193.66847"/>
     <use style="fill:#ff0000;stroke:#000000;" x="179.895868" xlink:href="#md8b435bf6b" y="193.283098"/>
     <use style="fill:#ff0000;stroke:#000000;" x="193.730579" xlink:href="#md8b435bf6b" y="188.924027"/>
     <use style="fill:#ff0000;stroke:#000000;" x="318.242975" xlink:href="#md8b435bf6b" y="199.289596"/>
     <use style="fill:#ff0000;stroke:#000000;" x="332.077686" xlink:href="#md8b435bf6b" y="145.37007"/>
     <use style="fill:#ff0000;stroke:#000000;" x="345.912397" xlink:href="#md8b435bf6b" y="78.407322"/>
    </g>
   </g>
  </g>
 </g>
 <defs>
  <clipPath id="pb85f1242f4">
   <rect height="217.44" width="334.8" x="54" y="34.56"/>
  </clipPath>
 </defs>
</svg>
