<?xml version="1.0" encoding="utf-8" standalone="no"?>
<!DOCTYPE svg PUBLIC "-//W3C//DTD SVG 1.1//EN"
  "http://www.w3.org/Graphics/SVG/1.1/DTD/svg11.dtd">
<svg height="288pt" version="1.1" viewBox="0 0 432 288" width="432pt" xmlns="http://www.w3.org/2000/svg" xmlns:xlink="http://www.w3.org/1999/xlink">
 <metadata>
  <rdf:RDF xmlns:cc="http://creativecommons.org/ns#" xmlns:dc="http://purl.org/dc/elements/1.1/" xmlns:rdf="http://www.w3.org/1999/02/22-rdf-syntax-ns#">
   <cc:Work>
    <dc:type rdf:resource="http://purl.org/dc/dcmitype/StillImage"/>
    <dc:date>2022-08-11T20:25:23.902515</dc:date>
    <dc:format>image/svg+xml</dc:format>
    <dc:creator>
     <cc:Agent>
      <dc:title>Matplotlib v3.4.3, https://matplotlib.org/</dc:title>
     </cc:Agent>
    </dc:creator>
   </cc:Work>
  </rdf:RDF>
 </metadata>
 <defs>
  <style type="text/css">*{stroke-linecap:butt;stroke-linejoin:round;}</style>
 </defs>
 <g id="figure_1">
  <g id="patch_1">
   <path d="M 0 288 
L 432 288 
L 432 0 
L 0 0 
z
" style="fill:none;"/>
  </g>
  <g id="axes_1">
   <g id="patch_2">
    <path d="M 54 252 
L 388.8 252 
L 388.8 34.56 
L 54 34.56 
z
" style="fill:#ffffff;"/>
   </g>
   <g id="PolyCollection_1">
    <defs>
     <path d="M 69.218182 -176.909634 
L 69.218182 -137.583286 
L 71.985124 -140.380921 
L 74.752066 -142.215981 
L 77.519008 -142.967774 
L 80.28595 -142.549041 
L 83.052893 -140.919427 
L 85.819835 -138.104729 
L 88.586777 -134.215937 
L 91.353719 -129.450367 
L 94.120661 -124.063112 
L 96.887603 -118.32381 
L 99.654545 -112.48362 
L 102.421488 -106.760265 
L 105.18843 -101.334711 
L 107.955372 -96.352262 
L 110.722314 -91.924537 
L 113.489256 -88.131188 
L 116.256198 -85.021073 
L 119.02314 -82.612994 
L 121.790083 -80.896413 
L 124.557025 -79.832877 
L 127.323967 -79.358861 
L 130.090909 -79.390362 
L 132.857851 -79.829125 
L 135.624793 -80.569867 
L 138.391736 -81.507667 
L 141.158678 -82.544629 
L 143.92562 -83.595167 
L 146.692562 -84.589509 
L 149.459504 -85.475468 
L 152.226446 -86.218772 
L 154.993388 -86.802471 
L 157.760331 -87.22588 
L 160.527273 -87.503308 
L 163.294215 -87.662387 
L 166.061157 -87.741452 
L 168.828099 -87.785301 
L 171.595041 -87.838867 
L 174.361983 -87.938861 
L 177.128926 -88.103966 
L 179.895868 -88.32478 
L 182.66281 -88.555953 
L 185.429752 -88.715476 
L 188.196694 -88.698113 
L 190.963636 -88.405079 
L 193.730579 -87.776899 
L 196.497521 -86.808187 
L 199.264463 -85.539158 
L 202.031405 -84.037724 
L 204.798347 -82.384796 
L 207.565289 -80.665326 
L 210.332231 -78.96275 
L 213.099174 -77.354578 
L 215.866116 -75.9081 
L 218.633058 -74.675974 
L 221.4 -73.691797 
L 224.166942 -72.965823 
L 226.933884 -72.480912 
L 229.700826 -72.188712 
L 232.467769 -72.006176 
L 235.234711 -71.813483 
L 238.001653 -71.457587 
L 240.768595 -70.772009 
L 243.535537 -69.625704 
L 246.302479 -67.988492 
L 249.069421 -65.955581 
L 251.836364 -63.696966 
L 254.603306 -61.381767 
L 257.370248 -59.134079 
L 260.13719 -57.023615 
L 262.904132 -55.072608 
L 265.671074 -53.267083 
L 268.438017 -51.56882 
L 271.204959 -49.927857 
L 273.971901 -48.296449 
L 276.738843 -46.644963 
L 279.505785 -44.978414 
L 282.272727 -43.349083 
L 285.039669 -41.859074 
L 287.806612 -40.65026 
L 290.573554 -39.886196 
L 293.340496 -39.733866 
L 296.107438 -40.350265 
L 298.87438 -41.874227 
L 301.641322 -44.421584 
L 304.408264 -48.081623 
L 307.175207 -52.91357 
L 309.942149 -58.942688 
L 312.709091 -66.156249 
L 315.476033 -74.500071 
L 318.242975 -83.876313 
L 321.009917 -94.14293 
L 323.77686 -105.114654 
L 326.543802 -116.56493 
L 329.310744 -128.228158 
L 332.077686 -139.801974 
L 334.844628 -150.950497 
L 337.61157 -161.312008 
L 340.378512 -170.517993 
L 343.145455 -178.229047 
L 345.912397 -184.17942 
L 348.679339 -188.206901 
L 351.446281 -190.254536 
L 354.213223 -190.354736 
L 356.980165 -188.611454 
L 359.747107 -185.185896 
L 362.51405 -180.284375 
L 365.280992 -174.146309 
L 368.047934 -167.031713 
L 370.814876 -159.208504 
L 373.581818 -150.940348 
L 373.581818 -211.693245 
L 373.581818 -211.693245 
L 370.814876 -216.226167 
L 368.047934 -219.957874 
L 365.280992 -222.695229 
L 362.51405 -224.265014 
L 359.747107 -224.524596 
L 356.980165 -223.371927 
L 354.213223 -220.754001 
L 351.446281 -216.672548 
L 348.679339 -211.184868 
L 345.912397 -204.396699 
L 343.145455 -196.444983 
L 340.378512 -187.475735 
L 337.61157 -177.633002 
L 334.844628 -167.070192 
L 332.077686 -155.971528 
L 329.310744 -144.561857 
L 326.543802 -133.098352 
L 323.77686 -121.851431 
L 321.009917 -111.083493 
L 318.242975 -101.030416 
L 315.476033 -91.887842 
L 312.709091 -83.802651 
L 309.942149 -76.869226 
L 307.175207 -71.129724 
L 304.408264 -66.577656 
L 301.641322 -63.164302 
L 298.87438 -60.807609 
L 296.107438 -59.403117 
L 293.340496 -58.836046 
L 290.573554 -58.993106 
L 287.806612 -59.771916 
L 285.039669 -61.08532 
L 282.272727 -62.858253 
L 279.505785 -65.017351 
L 276.738843 -67.478249 
L 273.971901 -70.138562 
L 271.204959 -72.881334 
L 268.438017 -75.586733 
L 265.671074 -78.146162 
L 262.904132 -80.474616 
L 260.13719 -82.520288 
L 257.370248 -84.272277 
L 254.603306 -85.767553 
L 251.836364 -87.097328 
L 249.069421 -88.409351 
L 246.302479 -89.894446 
L 243.535537 -91.738908 
L 240.768595 -94.046174 
L 238.001653 -96.784444 
L 235.234711 -99.810349 
L 232.467769 -102.934494 
L 229.700826 -105.971361 
L 226.933884 -108.760986 
L 224.166942 -111.17512 
L 221.4 -113.118316 
L 218.633058 -114.527948 
L 215.866116 -115.373994 
L 213.099174 -115.658409 
L 210.332231 -115.413819 
L 207.565289 -114.701363 
L 204.798347 -113.60763 
L 202.031405 -112.240606 
L 199.264463 -110.724318 
L 196.497521 -109.191127 
L 193.730579 -107.7695 
L 190.963636 -106.565129 
L 188.196694 -105.638186 
L 185.429752 -104.989725 
L 182.66281 -104.571473 
L 179.895868 -104.31428 
L 177.128926 -104.154384 
L 174.361983 -104.044806 
L 171.595041 -103.954274 
L 168.828099 -103.860842 
L 166.061157 -103.745185 
L 163.294215 -103.585916 
L 160.527273 -103.357823 
L 157.760331 -103.033197 
L 154.993388 -102.585767 
L 152.226446 -101.996137 
L 149.459504 -101.2574 
L 146.692562 -100.379694 
L 143.92562 -99.392935 
L 141.158678 -98.347462 
L 138.391736 -97.312742 
L 135.624793 -96.374483 
L 132.857851 -95.630558 
L 130.090909 -95.186066 
L 127.323967 -95.147686 
L 124.557025 -95.617394 
L 121.790083 -96.685548 
L 119.02314 -98.423482 
L 116.256198 -100.876028 
L 113.489256 -104.054771 
L 110.722314 -107.933223 
L 107.955372 -112.445258 
L 105.18843 -117.487854 
L 102.421488 -122.928629 
L 99.654545 -128.617977 
L 96.887603 -134.404893 
L 94.120661 -140.154482 
L 91.353719 -145.76252 
L 88.586777 -151.158619 
L 85.819835 -156.290358 
L 83.052893 -161.095065 
L 80.28595 -165.483197 
L 77.519008 -169.347581 
L 74.752066 -172.586361 
L 71.985124 -175.121858 
L 69.218182 -176.909634 
z
" id="mba95be2a31" style="stroke:#add8e6;stroke-opacity:0.2;"/>
    </defs>
    <g clip-path="url(#p14032ef9b8)">
     <use style="fill:#add8e6;fill-opacity:0.2;stroke:#add8e6;stroke-opacity:0.2;" x="0" xlink:href="#mba95be2a31" y="288"/>
    </g>
   </g>
   <g id="PathCollection_1">
    <defs>
     <path d="M 0 0.612372 
C 0.162403 0.612372 0.318176 0.547849 0.433013 0.433013 
C 0.547849 0.318176 0.612372 0.162403 0.612372 0 
C 0.612372 -0.162403 0.547849 -0.318176 0.433013 -0.433013 
C 0.318176 -0.547849 0.162403 -0.612372 0 -0.612372 
C -0.162403 -0.612372 -0.318176 -0.547849 -0.433013 -0.433013 
C -0.547849 -0.318176 -0.612372 -0.162403 -0.612372 0 
C -0.612372 0.162403 -0.547849 0.318176 -0.433013 0.433013 
C -0.318176 0.547849 -0.162403 0.612372 0 0.612372 
z
" id="mfcd5490fcc" style="stroke:#ff0000;stroke-width:8;"/>
    </defs>
    <g clip-path="url(#p14032ef9b8)">
     <use style="fill:#ff0000;stroke:#ff0000;stroke-width:8;" x="293.340496" xlink:href="#mfcd5490fcc" y="251.792436"/>
    </g>
   </g>
   <g id="matplotlib.axis_1">
    <g id="xtick_1">
     <g id="line2d_1">
      <defs>
       <path d="M 0 0 
L 0 3.5 
" id="m01324ad9bc" style="stroke:#000000;stroke-width:0.8;"/>
      </defs>
      <g>
       <use style="stroke:#000000;stroke-width:0.8;" x="69.218182" xlink:href="#m01324ad9bc" y="252"/>
      </g>
     </g>
     <g id="text_1">
      <!-- 0 -->
      <g transform="translate(66.036932 266.598437)scale(0.1 -0.1)">
       <defs>
        <path d="M 2034 4250 
Q 1547 4250 1301 3770 
Q 1056 3291 1056 2328 
Q 1056 1369 1301 889 
Q 1547 409 2034 409 
Q 2525 409 2770 889 
Q 3016 1369 3016 2328 
Q 3016 3291 2770 3770 
Q 2525 4250 2034 4250 
z
M 2034 4750 
Q 2819 4750 3233 4129 
Q 3647 3509 3647 2328 
Q 3647 1150 3233 529 
Q 2819 -91 2034 -91 
Q 1250 -91 836 529 
Q 422 1150 422 2328 
Q 422 3509 836 4129 
Q 1250 4750 2034 4750 
z
" id="DejaVuSans-30" transform="scale(0.015625)"/>
       </defs>
       <use xlink:href="#DejaVuSans-30"/>
      </g>
     </g>
    </g>
    <g id="xtick_2">
     <g id="line2d_2">
      <g>
       <use style="stroke:#000000;stroke-width:0.8;" x="124.557025" xlink:href="#m01324ad9bc" y="252"/>
      </g>
     </g>
     <g id="text_2">
      <!-- 2 -->
      <g transform="translate(121.375775 266.598437)scale(0.1 -0.1)">
       <defs>
        <path d="M 1228 531 
L 3431 531 
L 3431 0 
L 469 0 
L 469 531 
Q 828 903 1448 1529 
Q 2069 2156 2228 2338 
Q 2531 2678 2651 2914 
Q 2772 3150 2772 3378 
Q 2772 3750 2511 3984 
Q 2250 4219 1831 4219 
Q 1534 4219 1204 4116 
Q 875 4013 500 3803 
L 500 4441 
Q 881 4594 1212 4672 
Q 1544 4750 1819 4750 
Q 2544 4750 2975 4387 
Q 3406 4025 3406 3419 
Q 3406 3131 3298 2873 
Q 3191 2616 2906 2266 
Q 2828 2175 2409 1742 
Q 1991 1309 1228 531 
z
" id="DejaVuSans-32" transform="scale(0.015625)"/>
       </defs>
       <use xlink:href="#DejaVuSans-32"/>
      </g>
     </g>
    </g>
    <g id="xtick_3">
     <g id="line2d_3">
      <g>
       <use style="stroke:#000000;stroke-width:0.8;" x="179.895868" xlink:href="#m01324ad9bc" y="252"/>
      </g>
     </g>
     <g id="text_3">
      <!-- 4 -->
      <g transform="translate(176.714618 266.598437)scale(0.1 -0.1)">
       <defs>
        <path d="M 2419 4116 
L 825 1625 
L 2419 1625 
L 2419 4116 
z
M 2253 4666 
L 3047 4666 
L 3047 1625 
L 3713 1625 
L 3713 1100 
L 3047 1100 
L 3047 0 
L 2419 0 
L 2419 1100 
L 313 1100 
L 313 1709 
L 2253 4666 
z
" id="DejaVuSans-34" transform="scale(0.015625)"/>
       </defs>
       <use xlink:href="#DejaVuSans-34"/>
      </g>
     </g>
    </g>
    <g id="xtick_4">
     <g id="line2d_4">
      <g>
       <use style="stroke:#000000;stroke-width:0.8;" x="235.234711" xlink:href="#m01324ad9bc" y="252"/>
      </g>
     </g>
     <g id="text_4">
      <!-- 6 -->
      <g transform="translate(232.053461 266.598437)scale(0.1 -0.1)">
       <defs>
        <path d="M 2113 2584 
Q 1688 2584 1439 2293 
Q 1191 2003 1191 1497 
Q 1191 994 1439 701 
Q 1688 409 2113 409 
Q 2538 409 2786 701 
Q 3034 994 3034 1497 
Q 3034 2003 2786 2293 
Q 2538 2584 2113 2584 
z
M 3366 4563 
L 3366 3988 
Q 3128 4100 2886 4159 
Q 2644 4219 2406 4219 
Q 1781 4219 1451 3797 
Q 1122 3375 1075 2522 
Q 1259 2794 1537 2939 
Q 1816 3084 2150 3084 
Q 2853 3084 3261 2657 
Q 3669 2231 3669 1497 
Q 3669 778 3244 343 
Q 2819 -91 2113 -91 
Q 1303 -91 875 529 
Q 447 1150 447 2328 
Q 447 3434 972 4092 
Q 1497 4750 2381 4750 
Q 2619 4750 2861 4703 
Q 3103 4656 3366 4563 
z
" id="DejaVuSans-36" transform="scale(0.015625)"/>
       </defs>
       <use xlink:href="#DejaVuSans-36"/>
      </g>
     </g>
    </g>
    <g id="xtick_5">
     <g id="line2d_5">
      <g>
       <use style="stroke:#000000;stroke-width:0.8;" x="290.573554" xlink:href="#m01324ad9bc" y="252"/>
      </g>
     </g>
     <g id="text_5">
      <!-- 8 -->
      <g transform="translate(287.392304 266.598437)scale(0.1 -0.1)">
       <defs>
        <path d="M 2034 2216 
Q 1584 2216 1326 1975 
Q 1069 1734 1069 1313 
Q 1069 891 1326 650 
Q 1584 409 2034 409 
Q 2484 409 2743 651 
Q 3003 894 3003 1313 
Q 3003 1734 2745 1975 
Q 2488 2216 2034 2216 
z
M 1403 2484 
Q 997 2584 770 2862 
Q 544 3141 544 3541 
Q 544 4100 942 4425 
Q 1341 4750 2034 4750 
Q 2731 4750 3128 4425 
Q 3525 4100 3525 3541 
Q 3525 3141 3298 2862 
Q 3072 2584 2669 2484 
Q 3125 2378 3379 2068 
Q 3634 1759 3634 1313 
Q 3634 634 3220 271 
Q 2806 -91 2034 -91 
Q 1263 -91 848 271 
Q 434 634 434 1313 
Q 434 1759 690 2068 
Q 947 2378 1403 2484 
z
M 1172 3481 
Q 1172 3119 1398 2916 
Q 1625 2713 2034 2713 
Q 2441 2713 2670 2916 
Q 2900 3119 2900 3481 
Q 2900 3844 2670 4047 
Q 2441 4250 2034 4250 
Q 1625 4250 1398 4047 
Q 1172 3844 1172 3481 
z
" id="DejaVuSans-38" transform="scale(0.015625)"/>
       </defs>
       <use xlink:href="#DejaVuSans-38"/>
      </g>
     </g>
    </g>
    <g id="xtick_6">
     <g id="line2d_6">
      <g>
       <use style="stroke:#000000;stroke-width:0.8;" x="345.912397" xlink:href="#m01324ad9bc" y="252"/>
      </g>
     </g>
     <g id="text_6">
      <!-- 10 -->
      <g transform="translate(339.549897 266.598437)scale(0.1 -0.1)">
       <defs>
        <path d="M 794 531 
L 1825 531 
L 1825 4091 
L 703 3866 
L 703 4441 
L 1819 4666 
L 2450 4666 
L 2450 531 
L 3481 531 
L 3481 0 
L 794 0 
L 794 531 
z
" id="DejaVuSans-31" transform="scale(0.015625)"/>
       </defs>
       <use xlink:href="#DejaVuSans-31"/>
       <use x="63.623047" xlink:href="#DejaVuSans-30"/>
      </g>
     </g>
    </g>
    <g id="text_7">
     <!-- x -->
     <g transform="translate(217.84875 281.79625)scale(0.12 -0.12)">
      <defs>
       <path d="M 3513 3500 
L 2247 1797 
L 3578 0 
L 2900 0 
L 1881 1375 
L 863 0 
L 184 0 
L 1544 1831 
L 300 3500 
L 978 3500 
L 1906 2253 
L 2834 3500 
L 3513 3500 
z
" id="DejaVuSans-78" transform="scale(0.015625)"/>
      </defs>
      <use xlink:href="#DejaVuSans-78"/>
     </g>
    </g>
   </g>
   <g id="matplotlib.axis_2">
    <g id="ytick_1">
     <g id="line2d_7">
      <defs>
       <path d="M 0 0 
L -3.5 0 
" id="m1c08749eb5" style="stroke:#000000;stroke-width:0.8;"/>
      </defs>
      <g>
       <use style="stroke:#000000;stroke-width:0.8;" x="54" xlink:href="#m1c08749eb5" y="252"/>
      </g>
     </g>
     <g id="text_8">
      <!-- 3 -->
      <g transform="translate(40.6375 255.799219)scale(0.1 -0.1)">
       <defs>
        <path d="M 2597 2516 
Q 3050 2419 3304 2112 
Q 3559 1806 3559 1356 
Q 3559 666 3084 287 
Q 2609 -91 1734 -91 
Q 1441 -91 1130 -33 
Q 819 25 488 141 
L 488 750 
Q 750 597 1062 519 
Q 1375 441 1716 441 
Q 2309 441 2620 675 
Q 2931 909 2931 1356 
Q 2931 1769 2642 2001 
Q 2353 2234 1838 2234 
L 1294 2234 
L 1294 2753 
L 1863 2753 
Q 2328 2753 2575 2939 
Q 2822 3125 2822 3475 
Q 2822 3834 2567 4026 
Q 2313 4219 1838 4219 
Q 1578 4219 1281 4162 
Q 984 4106 628 3988 
L 628 4550 
Q 988 4650 1302 4700 
Q 1616 4750 1894 4750 
Q 2613 4750 3031 4423 
Q 3450 4097 3450 3541 
Q 3450 3153 3228 2886 
Q 3006 2619 2597 2516 
z
" id="DejaVuSans-33" transform="scale(0.015625)"/>
       </defs>
       <use xlink:href="#DejaVuSans-33"/>
      </g>
     </g>
    </g>
    <g id="ytick_2">
     <g id="line2d_8">
      <g>
       <use style="stroke:#000000;stroke-width:0.8;" x="54" xlink:href="#m1c08749eb5" y="215.76"/>
      </g>
     </g>
     <g id="text_9">
      <!-- 4 -->
      <g transform="translate(40.6375 219.559219)scale(0.1 -0.1)">
       <use xlink:href="#DejaVuSans-34"/>
      </g>
     </g>
    </g>
    <g id="ytick_3">
     <g id="line2d_9">
      <g>
       <use style="stroke:#000000;stroke-width:0.8;" x="54" xlink:href="#m1c08749eb5" y="179.52"/>
      </g>
     </g>
     <g id="text_10">
      <!-- 5 -->
      <g transform="translate(40.6375 183.319219)scale(0.1 -0.1)">
       <defs>
        <path d="M 691 4666 
L 3169 4666 
L 3169 4134 
L 1269 4134 
L 1269 2991 
Q 1406 3038 1543 3061 
Q 1681 3084 1819 3084 
Q 2600 3084 3056 2656 
Q 3513 2228 3513 1497 
Q 3513 744 3044 326 
Q 2575 -91 1722 -91 
Q 1428 -91 1123 -41 
Q 819 9 494 109 
L 494 744 
Q 775 591 1075 516 
Q 1375 441 1709 441 
Q 2250 441 2565 725 
Q 2881 1009 2881 1497 
Q 2881 1984 2565 2268 
Q 2250 2553 1709 2553 
Q 1456 2553 1204 2497 
Q 953 2441 691 2322 
L 691 4666 
z
" id="DejaVuSans-35" transform="scale(0.015625)"/>
       </defs>
       <use xlink:href="#DejaVuSans-35"/>
      </g>
     </g>
    </g>
    <g id="ytick_4">
     <g id="line2d_10">
      <g>
       <use style="stroke:#000000;stroke-width:0.8;" x="54" xlink:href="#m1c08749eb5" y="143.28"/>
      </g>
     </g>
     <g id="text_11">
      <!-- 6 -->
      <g transform="translate(40.6375 147.079219)scale(0.1 -0.1)">
       <use xlink:href="#DejaVuSans-36"/>
      </g>
     </g>
    </g>
    <g id="ytick_5">
     <g id="line2d_11">
      <g>
       <use style="stroke:#000000;stroke-width:0.8;" x="54" xlink:href="#m1c08749eb5" y="107.04"/>
      </g>
     </g>
     <g id="text_12">
      <!-- 7 -->
      <g transform="translate(40.6375 110.839219)scale(0.1 -0.1)">
       <defs>
        <path d="M 525 4666 
L 3525 4666 
L 3525 4397 
L 1831 0 
L 1172 0 
L 2766 4134 
L 525 4134 
L 525 4666 
z
" id="DejaVuSans-37" transform="scale(0.015625)"/>
       </defs>
       <use xlink:href="#DejaVuSans-37"/>
      </g>
     </g>
    </g>
    <g id="ytick_6">
     <g id="line2d_12">
      <g>
       <use style="stroke:#000000;stroke-width:0.8;" x="54" xlink:href="#m1c08749eb5" y="70.8"/>
      </g>
     </g>
     <g id="text_13">
      <!-- 8 -->
      <g transform="translate(40.6375 74.599219)scale(0.1 -0.1)">
       <use xlink:href="#DejaVuSans-38"/>
      </g>
     </g>
    </g>
    <g id="ytick_7">
     <g id="line2d_13">
      <g>
       <use style="stroke:#000000;stroke-width:0.8;" x="54" xlink:href="#m1c08749eb5" y="34.56"/>
      </g>
     </g>
     <g id="text_14">
      <!-- 9 -->
      <g transform="translate(40.6375 38.359219)scale(0.1 -0.1)">
       <defs>
        <path d="M 703 97 
L 703 672 
Q 941 559 1184 500 
Q 1428 441 1663 441 
Q 2288 441 2617 861 
Q 2947 1281 2994 2138 
Q 2813 1869 2534 1725 
Q 2256 1581 1919 1581 
Q 1219 1581 811 2004 
Q 403 2428 403 3163 
Q 403 3881 828 4315 
Q 1253 4750 1959 4750 
Q 2769 4750 3195 4129 
Q 3622 3509 3622 2328 
Q 3622 1225 3098 567 
Q 2575 -91 1691 -91 
Q 1453 -91 1209 -44 
Q 966 3 703 97 
z
M 1959 2075 
Q 2384 2075 2632 2365 
Q 2881 2656 2881 3163 
Q 2881 3666 2632 3958 
Q 2384 4250 1959 4250 
Q 1534 4250 1286 3958 
Q 1038 3666 1038 3163 
Q 1038 2656 1286 2365 
Q 1534 2075 1959 2075 
z
" id="DejaVuSans-39" transform="scale(0.015625)"/>
       </defs>
       <use xlink:href="#DejaVuSans-39"/>
      </g>
     </g>
    </g>
    <g id="text_15">
     <!-- y -->
     <g transform="translate(34.141875 146.83125)rotate(-90)scale(0.12 -0.12)">
      <defs>
       <path d="M 2059 -325 
Q 1816 -950 1584 -1140 
Q 1353 -1331 966 -1331 
L 506 -1331 
L 506 -850 
L 844 -850 
Q 1081 -850 1212 -737 
Q 1344 -625 1503 -206 
L 1606 56 
L 191 3500 
L 800 3500 
L 1894 763 
L 2988 3500 
L 3597 3500 
L 2059 -325 
z
" id="DejaVuSans-79" transform="scale(0.015625)"/>
      </defs>
      <use xlink:href="#DejaVuSans-79"/>
     </g>
    </g>
   </g>
   <g id="line2d_14">
    <path clip-path="url(#p14032ef9b8)" d="M 69.218182 70.8 
L 71.985124 85.083949 
L 74.752066 98.25467 
L 77.519008 110.364828 
L 80.28595 121.465955 
L 83.052893 131.608455 
L 85.819835 140.841599 
L 88.586777 149.213528 
L 91.353719 156.771253 
L 94.120661 163.560654 
L 96.887603 169.62648 
L 99.654545 175.012349 
L 102.421488 179.76075 
L 105.18843 183.913038 
L 107.955372 187.509441 
L 110.722314 190.589055 
L 113.489256 193.189844 
L 116.256198 195.348643 
L 119.02314 197.101155 
L 121.790083 198.481953 
L 124.557025 199.52448 
L 127.323967 200.261047 
L 130.090909 200.722835 
L 132.857851 200.939895 
L 135.624793 200.941145 
L 138.391736 200.754375 
L 141.158678 200.406243 
L 143.92562 199.922276 
L 146.692562 199.326871 
L 149.459504 198.643294 
L 152.226446 197.89368 
L 154.993388 197.099035 
L 157.760331 196.279231 
L 160.527273 195.453014 
L 163.294215 194.637994 
L 166.061157 193.850655 
L 168.828099 193.106347 
L 171.595041 192.419291 
L 174.361983 191.802577 
L 177.128926 191.268164 
L 179.895868 190.82688 
L 182.66281 190.488424 
L 185.429752 190.261362 
L 188.196694 190.153131 
L 190.963636 190.170037 
L 193.730579 190.317255 
L 196.497521 190.598829 
L 199.264463 191.017673 
L 202.031405 191.575569 
L 204.798347 192.273171 
L 207.565289 193.11 
L 210.332231 194.084446 
L 213.099174 195.193771 
L 215.866116 196.434103 
L 218.633058 197.800442 
L 221.4 199.286655 
L 224.166942 200.88548 
L 226.933884 202.588525 
L 229.700826 204.386264 
L 232.467769 206.268045 
L 235.234711 208.22208 
L 238.001653 210.235455 
L 240.768595 212.294122 
L 243.535537 214.382905 
L 246.302479 216.485496 
L 249.069421 218.584455 
L 251.836364 220.661214 
L 254.603306 222.696071 
L 257.370248 224.668198 
L 260.13719 226.555631 
L 262.904132 228.33528 
L 265.671074 229.982921 
L 268.438017 231.4732 
L 271.204959 232.779634 
L 273.971901 233.874607 
L 276.738843 234.729375 
L 279.505785 235.31406 
L 282.272727 235.597656 
L 285.039669 235.548026 
L 287.806612 235.1319 
L 290.573554 234.31488 
L 293.340496 233.061436 
L 296.107438 231.334908 
L 298.87438 229.097505 
L 301.641322 226.310305 
L 304.408264 222.933255 
L 307.175207 218.925173 
L 309.942149 214.243744 
L 312.709091 208.845524 
L 315.476033 202.685938 
L 318.242975 195.71928 
L 321.009917 187.898713 
L 323.77686 179.176271 
L 326.543802 169.502854 
L 329.310744 158.828236 
L 332.077686 147.101055 
L 334.844628 134.268823 
L 337.61157 120.277918 
L 340.378512 105.073589 
L 343.145455 88.599954 
L 345.912397 70.8 
L 348.679339 51.615584 
L 351.446281 30.987432 
L 354.213223 8.855138 
L 355.363895 -1 
" style="fill:none;stroke:#0000ff;stroke-linecap:square;stroke-width:2;"/>
   </g>
   <g id="line2d_15">
    <path clip-path="url(#p14032ef9b8)" d="M 69.218182 150.416714 
L 71.985124 147.619079 
L 74.752066 145.784019 
L 77.519008 145.032226 
L 80.28595 145.450959 
L 83.052893 147.080573 
L 85.819835 149.895271 
L 88.586777 153.784063 
L 91.353719 158.549633 
L 94.120661 163.936888 
L 96.887603 169.67619 
L 99.654545 175.51638 
L 102.421488 181.239735 
L 105.18843 186.665289 
L 107.955372 191.647738 
L 110.722314 196.075463 
L 113.489256 199.868812 
L 116.256198 202.978927 
L 119.02314 205.387006 
L 121.790083 207.103587 
L 124.557025 208.167123 
L 127.323967 208.641139 
L 130.090909 208.609638 
L 132.857851 208.170875 
L 135.624793 207.430133 
L 138.391736 206.492333 
L 141.158678 205.455371 
L 143.92562 204.404833 
L 146.692562 203.410491 
L 149.459504 202.524532 
L 152.226446 201.781228 
L 154.993388 201.197529 
L 157.760331 200.77412 
L 160.527273 200.496692 
L 163.294215 200.337613 
L 166.061157 200.258548 
L 168.828099 200.214699 
L 171.595041 200.161133 
L 174.361983 200.061139 
L 177.128926 199.896034 
L 179.895868 199.67522 
L 182.66281 199.444047 
L 185.429752 199.284524 
L 188.196694 199.301887 
L 190.963636 199.594921 
L 193.730579 200.223101 
L 196.497521 201.191813 
L 199.264463 202.460842 
L 202.031405 203.962276 
L 204.798347 205.615204 
L 207.565289 207.334674 
L 210.332231 209.03725 
L 213.099174 210.645422 
L 215.866116 212.0919 
L 218.633058 213.324026 
L 221.4 214.308203 
L 224.166942 215.034177 
L 226.933884 215.519088 
L 229.700826 215.811288 
L 232.467769 215.993824 
L 235.234711 216.186517 
L 238.001653 216.542413 
L 240.768595 217.227991 
L 243.535537 218.374296 
L 246.302479 220.011508 
L 249.069421 222.044419 
L 251.836364 224.303034 
L 254.603306 226.618233 
L 257.370248 228.865921 
L 260.13719 230.976385 
L 262.904132 232.927392 
L 265.671074 234.732917 
L 268.438017 236.43118 
L 271.204959 238.072143 
L 273.971901 239.703551 
L 276.738843 241.355037 
L 279.505785 243.021586 
L 282.272727 244.650917 
L 285.039669 246.140926 
L 287.806612 247.34974 
L 290.573554 248.113804 
L 293.340496 248.266134 
L 296.107438 247.649735 
L 298.87438 246.125773 
L 301.641322 243.578416 
L 304.408264 239.918377 
L 307.175207 235.08643 
L 309.942149 229.057312 
L 312.709091 221.843751 
L 315.476033 213.499929 
L 318.242975 204.123687 
L 321.009917 193.85707 
L 323.77686 182.885346 
L 326.543802 171.43507 
L 329.310744 159.771842 
L 332.077686 148.198026 
L 334.844628 137.049503 
L 337.61157 126.687992 
L 340.378512 117.482007 
L 343.145455 109.770953 
L 345.912397 103.82058 
L 348.679339 99.793099 
L 351.446281 97.745464 
L 354.213223 97.645264 
L 356.980165 99.388546 
L 359.747107 102.814104 
L 362.51405 107.715625 
L 365.280992 113.853691 
L 368.047934 120.968287 
L 370.814876 128.791496 
L 373.581818 137.059652 
" style="fill:none;stroke:#008000;stroke-dasharray:3.7,1.6;stroke-dashoffset:0;"/>
   </g>
   <g id="line2d_16">
    <path clip-path="url(#p14032ef9b8)" d="M 69.218182 111.090366 
L 71.985124 112.878142 
L 74.752066 115.413639 
L 77.519008 118.652419 
L 80.28595 122.516803 
L 83.052893 126.904935 
L 85.819835 131.709642 
L 88.586777 136.841381 
L 91.353719 142.23748 
L 94.120661 147.845518 
L 96.887603 153.595107 
L 99.654545 159.382023 
L 102.421488 165.071371 
L 105.18843 170.512146 
L 107.955372 175.554742 
L 110.722314 180.066777 
L 113.489256 183.945229 
L 116.256198 187.123972 
L 119.02314 189.576518 
L 121.790083 191.314452 
L 124.557025 192.382606 
L 127.323967 192.852314 
L 130.090909 192.813934 
L 132.857851 192.369442 
L 135.624793 191.625517 
L 138.391736 190.687258 
L 141.158678 189.652538 
L 143.92562 188.607065 
L 146.692562 187.620306 
L 149.459504 186.7426 
L 152.226446 186.003863 
L 154.993388 185.414233 
L 157.760331 184.966803 
L 160.527273 184.642177 
L 163.294215 184.414084 
L 166.061157 184.254815 
L 168.828099 184.139158 
L 171.595041 184.045726 
L 174.361983 183.955194 
L 177.128926 183.845616 
L 179.895868 183.68572 
L 182.66281 183.428527 
L 185.429752 183.010275 
L 188.196694 182.361814 
L 190.963636 181.434871 
L 193.730579 180.2305 
L 196.497521 178.808873 
L 199.264463 177.275682 
L 202.031405 175.759394 
L 204.798347 174.39237 
L 207.565289 173.298637 
L 210.332231 172.586181 
L 213.099174 172.341591 
L 215.866116 172.626006 
L 218.633058 173.472052 
L 221.4 174.881684 
L 224.166942 176.82488 
L 226.933884 179.239014 
L 229.700826 182.028639 
L 232.467769 185.065506 
L 235.234711 188.189651 
L 238.001653 191.215556 
L 240.768595 193.953826 
L 243.535537 196.261092 
L 246.302479 198.105554 
L 249.069421 199.590649 
L 251.836364 200.902672 
L 254.603306 202.232447 
L 257.370248 203.727723 
L 260.13719 205.479712 
L 262.904132 207.525384 
L 265.671074 209.853838 
L 268.438017 212.413267 
L 271.204959 215.118666 
L 273.971901 217.861438 
L 276.738843 220.521751 
L 279.505785 222.982649 
L 282.272727 225.141747 
L 285.039669 226.91468 
L 287.806612 228.228084 
L 290.573554 229.006894 
L 293.340496 229.163954 
L 296.107438 228.596883 
L 298.87438 227.192391 
L 301.641322 224.835698 
L 304.408264 221.422344 
L 307.175207 216.870276 
L 309.942149 211.130774 
L 312.709091 204.197349 
L 315.476033 196.112158 
L 318.242975 186.969584 
L 321.009917 176.916507 
L 323.77686 166.148569 
L 326.543802 154.901648 
L 329.310744 143.438143 
L 332.077686 132.028472 
L 334.844628 120.929808 
L 337.61157 110.366998 
L 340.378512 100.524265 
L 343.145455 91.555017 
L 345.912397 83.603301 
L 348.679339 76.815132 
L 351.446281 71.327452 
L 354.213223 67.245999 
L 356.980165 64.628073 
L 359.747107 63.475404 
L 362.51405 63.734986 
L 365.280992 65.304771 
L 368.047934 68.042126 
L 370.814876 71.773833 
L 373.581818 76.306755 
" style="fill:none;stroke:#008000;stroke-dasharray:3.7,1.6;stroke-dashoffset:0;"/>
   </g>
   <g id="line2d_17">
    <path clip-path="url(#p14032ef9b8)" d="M 69.218182 252 
L 71.985124 252 
L 74.752066 252 
L 77.519008 252 
L 80.28595 252 
L 83.052893 252 
L 85.819835 252 
L 88.586777 252 
L 91.353719 252 
L 94.120661 252 
L 96.887603 252 
L 99.654545 252 
L 102.421488 252 
L 105.18843 252 
L 107.955372 252 
L 110.722314 252 
L 113.489256 252 
L 116.256198 252 
L 119.02314 252 
L 121.790083 252 
L 124.557025 252 
L 127.323967 252 
L 130.090909 252 
L 132.857851 252 
L 135.624793 252 
L 138.391736 252 
L 141.158678 252 
L 143.92562 252 
L 146.692562 252 
L 149.459504 252 
L 152.226446 252 
L 154.993388 252 
L 157.760331 252 
L 160.527273 252 
L 163.294215 252 
L 166.061157 252 
L 168.828099 252 
L 171.595041 252 
L 174.361983 252 
L 177.128926 252 
L 179.895868 252 
L 182.66281 252 
L 185.429752 252 
L 188.196694 252 
L 190.963636 252 
L 193.730579 252 
L 196.497521 252 
L 199.264463 252 
L 202.031405 251.999996 
L 204.798347 251.999945 
L 207.565289 251.999635 
L 210.332231 251.998604 
L 213.099174 251.996483 
L 215.866116 251.993605 
L 218.633058 251.991124 
L 221.4 251.990326 
L 224.166942 251.991683 
L 226.933884 251.994452 
L 229.700826 251.997222 
L 232.467769 251.998993 
L 235.234711 251.999735 
L 238.001653 251.999942 
L 240.768595 251.999984 
L 243.535537 251.999991 
L 246.302479 251.999984 
L 249.069421 251.999936 
L 251.836364 251.999685 
L 254.603306 251.998713 
L 257.370248 251.996169 
L 260.13719 251.991614 
L 262.904132 251.985728 
L 265.671074 251.979919 
L 268.438017 251.9752 
L 271.204959 251.971439 
L 273.971901 251.96732 
L 276.738843 251.960553 
L 279.505785 251.947852 
L 282.272727 251.924969 
L 285.039669 251.888575 
L 287.806612 251.841973 
L 290.573554 251.801461 
L 293.340496 251.792436 
L 296.107438 251.829678 
L 298.87438 251.897871 
L 301.641322 251.95963 
L 304.408264 251.990957 
L 307.175207 251.999071 
L 309.942149 251.999967 
L 312.709091 252 
L 315.476033 252 
L 318.242975 252 
L 321.009917 252 
L 323.77686 252 
L 326.543802 252 
L 329.310744 252 
L 332.077686 252 
L 334.844628 252 
L 337.61157 252 
L 340.378512 252 
L 343.145455 252 
L 345.912397 252 
L 348.679339 252 
L 351.446281 252 
L 354.213223 252 
L 356.980165 252 
L 359.747107 252 
L 362.51405 252 
L 365.280992 252 
L 368.047934 252 
L 370.814876 252 
L 373.581818 251.999995 
" style="fill:none;stroke:#bfbf00;stroke-dasharray:7.4,3.2;stroke-dashoffset:0;stroke-width:2;"/>
   </g>
   <g id="patch_3">
    <path d="M 54 252 
L 54 34.56 
" style="fill:none;stroke:#000000;stroke-linecap:square;stroke-linejoin:miter;stroke-width:0.8;"/>
   </g>
   <g id="patch_4">
    <path d="M 388.8 252 
L 388.8 34.56 
" style="fill:none;stroke:#000000;stroke-linecap:square;stroke-linejoin:miter;stroke-width:0.8;"/>
   </g>
   <g id="patch_5">
    <path d="M 54 252 
L 388.8 252 
" style="fill:none;stroke:#000000;stroke-linecap:square;stroke-linejoin:miter;stroke-width:0.8;"/>
   </g>
   <g id="patch_6">
    <path d="M 54 34.56 
L 388.8 34.56 
" style="fill:none;stroke:#000000;stroke-linecap:square;stroke-linejoin:miter;stroke-width:0.8;"/>
   </g>
   <g id="text_16">
    <!-- Method : PI -->
    <g transform="translate(71.985124 244.752)scale(0.12 -0.12)">
     <defs>
      <path d="M 628 4666 
L 1569 4666 
L 2759 1491 
L 3956 4666 
L 4897 4666 
L 4897 0 
L 4281 0 
L 4281 4097 
L 3078 897 
L 2444 897 
L 1241 4097 
L 1241 0 
L 628 0 
L 628 4666 
z
" id="DejaVuSans-4d" transform="scale(0.015625)"/>
      <path d="M 3597 1894 
L 3597 1613 
L 953 1613 
Q 991 1019 1311 708 
Q 1631 397 2203 397 
Q 2534 397 2845 478 
Q 3156 559 3463 722 
L 3463 178 
Q 3153 47 2828 -22 
Q 2503 -91 2169 -91 
Q 1331 -91 842 396 
Q 353 884 353 1716 
Q 353 2575 817 3079 
Q 1281 3584 2069 3584 
Q 2775 3584 3186 3129 
Q 3597 2675 3597 1894 
z
M 3022 2063 
Q 3016 2534 2758 2815 
Q 2500 3097 2075 3097 
Q 1594 3097 1305 2825 
Q 1016 2553 972 2059 
L 3022 2063 
z
" id="DejaVuSans-65" transform="scale(0.015625)"/>
      <path d="M 1172 4494 
L 1172 3500 
L 2356 3500 
L 2356 3053 
L 1172 3053 
L 1172 1153 
Q 1172 725 1289 603 
Q 1406 481 1766 481 
L 2356 481 
L 2356 0 
L 1766 0 
Q 1100 0 847 248 
Q 594 497 594 1153 
L 594 3053 
L 172 3053 
L 172 3500 
L 594 3500 
L 594 4494 
L 1172 4494 
z
" id="DejaVuSans-74" transform="scale(0.015625)"/>
      <path d="M 3513 2113 
L 3513 0 
L 2938 0 
L 2938 2094 
Q 2938 2591 2744 2837 
Q 2550 3084 2163 3084 
Q 1697 3084 1428 2787 
Q 1159 2491 1159 1978 
L 1159 0 
L 581 0 
L 581 4863 
L 1159 4863 
L 1159 2956 
Q 1366 3272 1645 3428 
Q 1925 3584 2291 3584 
Q 2894 3584 3203 3211 
Q 3513 2838 3513 2113 
z
" id="DejaVuSans-68" transform="scale(0.015625)"/>
      <path d="M 1959 3097 
Q 1497 3097 1228 2736 
Q 959 2375 959 1747 
Q 959 1119 1226 758 
Q 1494 397 1959 397 
Q 2419 397 2687 759 
Q 2956 1122 2956 1747 
Q 2956 2369 2687 2733 
Q 2419 3097 1959 3097 
z
M 1959 3584 
Q 2709 3584 3137 3096 
Q 3566 2609 3566 1747 
Q 3566 888 3137 398 
Q 2709 -91 1959 -91 
Q 1206 -91 779 398 
Q 353 888 353 1747 
Q 353 2609 779 3096 
Q 1206 3584 1959 3584 
z
" id="DejaVuSans-6f" transform="scale(0.015625)"/>
      <path d="M 2906 2969 
L 2906 4863 
L 3481 4863 
L 3481 0 
L 2906 0 
L 2906 525 
Q 2725 213 2448 61 
Q 2172 -91 1784 -91 
Q 1150 -91 751 415 
Q 353 922 353 1747 
Q 353 2572 751 3078 
Q 1150 3584 1784 3584 
Q 2172 3584 2448 3432 
Q 2725 3281 2906 2969 
z
M 947 1747 
Q 947 1113 1208 752 
Q 1469 391 1925 391 
Q 2381 391 2643 752 
Q 2906 1113 2906 1747 
Q 2906 2381 2643 2742 
Q 2381 3103 1925 3103 
Q 1469 3103 1208 2742 
Q 947 2381 947 1747 
z
" id="DejaVuSans-64" transform="scale(0.015625)"/>
      <path id="DejaVuSans-20" transform="scale(0.015625)"/>
      <path d="M 750 794 
L 1409 794 
L 1409 0 
L 750 0 
L 750 794 
z
M 750 3309 
L 1409 3309 
L 1409 2516 
L 750 2516 
L 750 3309 
z
" id="DejaVuSans-3a" transform="scale(0.015625)"/>
      <path d="M 1259 4147 
L 1259 2394 
L 2053 2394 
Q 2494 2394 2734 2622 
Q 2975 2850 2975 3272 
Q 2975 3691 2734 3919 
Q 2494 4147 2053 4147 
L 1259 4147 
z
M 628 4666 
L 2053 4666 
Q 2838 4666 3239 4311 
Q 3641 3956 3641 3272 
Q 3641 2581 3239 2228 
Q 2838 1875 2053 1875 
L 1259 1875 
L 1259 0 
L 628 0 
L 628 4666 
z
" id="DejaVuSans-50" transform="scale(0.015625)"/>
      <path d="M 628 4666 
L 1259 4666 
L 1259 0 
L 628 0 
L 628 4666 
z
" id="DejaVuSans-49" transform="scale(0.015625)"/>
     </defs>
     <use xlink:href="#DejaVuSans-4d"/>
     <use x="86.279297" xlink:href="#DejaVuSans-65"/>
     <use x="147.802734" xlink:href="#DejaVuSans-74"/>
     <use x="187.011719" xlink:href="#DejaVuSans-68"/>
     <use x="250.390625" xlink:href="#DejaVuSans-6f"/>
     <use x="311.572266" xlink:href="#DejaVuSans-64"/>
     <use x="375.048828" xlink:href="#DejaVuSans-20"/>
     <use x="406.835938" xlink:href="#DejaVuSans-3a"/>
     <use x="440.527344" xlink:href="#DejaVuSans-20"/>
     <use x="472.314453" xlink:href="#DejaVuSans-50"/>
     <use x="532.617188" xlink:href="#DejaVuSans-49"/>
    </g>
   </g>
   <g id="text_17">
    <!-- Iter=3 -->
    <g transform="translate(71.985124 226.632)scale(0.12 -0.12)">
     <defs>
      <path d="M 2631 2963 
Q 2534 3019 2420 3045 
Q 2306 3072 2169 3072 
Q 1681 3072 1420 2755 
Q 1159 2438 1159 1844 
L 1159 0 
L 581 0 
L 581 3500 
L 1159 3500 
L 1159 2956 
Q 1341 3275 1631 3429 
Q 1922 3584 2338 3584 
Q 2397 3584 2469 3576 
Q 2541 3569 2628 3553 
L 2631 2963 
z
" id="DejaVuSans-72" transform="scale(0.015625)"/>
      <path d="M 678 2906 
L 4684 2906 
L 4684 2381 
L 678 2381 
L 678 2906 
z
M 678 1631 
L 4684 1631 
L 4684 1100 
L 678 1100 
L 678 1631 
z
" id="DejaVuSans-3d" transform="scale(0.015625)"/>
     </defs>
     <use xlink:href="#DejaVuSans-49"/>
     <use x="29.492188" xlink:href="#DejaVuSans-74"/>
     <use x="68.701172" xlink:href="#DejaVuSans-65"/>
     <use x="130.224609" xlink:href="#DejaVuSans-72"/>
     <use x="171.337891" xlink:href="#DejaVuSans-3d"/>
     <use x="255.126953" xlink:href="#DejaVuSans-33"/>
    </g>
   </g>
   <g id="text_18">
    <!-- (d) -->
    <g transform="translate(71.985124 56.304)scale(0.12 -0.12)">
     <defs>
      <path d="M 1984 4856 
Q 1566 4138 1362 3434 
Q 1159 2731 1159 2009 
Q 1159 1288 1364 580 
Q 1569 -128 1984 -844 
L 1484 -844 
Q 1016 -109 783 600 
Q 550 1309 550 2009 
Q 550 2706 781 3412 
Q 1013 4119 1484 4856 
L 1984 4856 
z
" id="DejaVuSans-28" transform="scale(0.015625)"/>
      <path d="M 513 4856 
L 1013 4856 
Q 1481 4119 1714 3412 
Q 1947 2706 1947 2009 
Q 1947 1309 1714 600 
Q 1481 -109 1013 -844 
L 513 -844 
Q 928 -128 1133 580 
Q 1338 1288 1338 2009 
Q 1338 2731 1133 3434 
Q 928 4138 513 4856 
z
" id="DejaVuSans-29" transform="scale(0.015625)"/>
     </defs>
     <use xlink:href="#DejaVuSans-28"/>
     <use x="39.013672" xlink:href="#DejaVuSans-64"/>
     <use x="102.490234" xlink:href="#DejaVuSans-29"/>
    </g>
   </g>
   <g id="legend_1">
    <g id="patch_7">
     <path d="M 144.327812 140.235625 
L 298.472188 140.235625 
Q 300.672188 140.235625 300.672188 138.035625 
L 300.672188 42.26 
Q 300.672188 40.06 298.472188 40.06 
L 144.327812 40.06 
Q 142.127813 40.06 142.127813 42.26 
L 142.127813 138.035625 
Q 142.127813 140.235625 144.327812 140.235625 
z
" style="fill:#ffffff;opacity:0.8;stroke:#cccccc;stroke-linejoin:miter;"/>
    </g>
    <g id="line2d_18">
     <path d="M 146.527813 48.968281 
L 168.527813 48.968281 
" style="fill:none;stroke:#0000ff;stroke-linecap:square;stroke-width:2;"/>
    </g>
    <g id="line2d_19"/>
    <g id="text_19">
     <!-- ture function -->
     <g transform="translate(177.327813 52.818281)scale(0.11 -0.11)">
      <defs>
       <path d="M 544 1381 
L 544 3500 
L 1119 3500 
L 1119 1403 
Q 1119 906 1312 657 
Q 1506 409 1894 409 
Q 2359 409 2629 706 
Q 2900 1003 2900 1516 
L 2900 3500 
L 3475 3500 
L 3475 0 
L 2900 0 
L 2900 538 
Q 2691 219 2414 64 
Q 2138 -91 1772 -91 
Q 1169 -91 856 284 
Q 544 659 544 1381 
z
M 1991 3584 
L 1991 3584 
z
" id="DejaVuSans-75" transform="scale(0.015625)"/>
       <path d="M 2375 4863 
L 2375 4384 
L 1825 4384 
Q 1516 4384 1395 4259 
Q 1275 4134 1275 3809 
L 1275 3500 
L 2222 3500 
L 2222 3053 
L 1275 3053 
L 1275 0 
L 697 0 
L 697 3053 
L 147 3053 
L 147 3500 
L 697 3500 
L 697 3744 
Q 697 4328 969 4595 
Q 1241 4863 1831 4863 
L 2375 4863 
z
" id="DejaVuSans-66" transform="scale(0.015625)"/>
       <path d="M 3513 2113 
L 3513 0 
L 2938 0 
L 2938 2094 
Q 2938 2591 2744 2837 
Q 2550 3084 2163 3084 
Q 1697 3084 1428 2787 
Q 1159 2491 1159 1978 
L 1159 0 
L 581 0 
L 581 3500 
L 1159 3500 
L 1159 2956 
Q 1366 3272 1645 3428 
Q 1925 3584 2291 3584 
Q 2894 3584 3203 3211 
Q 3513 2838 3513 2113 
z
" id="DejaVuSans-6e" transform="scale(0.015625)"/>
       <path d="M 3122 3366 
L 3122 2828 
Q 2878 2963 2633 3030 
Q 2388 3097 2138 3097 
Q 1578 3097 1268 2742 
Q 959 2388 959 1747 
Q 959 1106 1268 751 
Q 1578 397 2138 397 
Q 2388 397 2633 464 
Q 2878 531 3122 666 
L 3122 134 
Q 2881 22 2623 -34 
Q 2366 -91 2075 -91 
Q 1284 -91 818 406 
Q 353 903 353 1747 
Q 353 2603 823 3093 
Q 1294 3584 2113 3584 
Q 2378 3584 2631 3529 
Q 2884 3475 3122 3366 
z
" id="DejaVuSans-63" transform="scale(0.015625)"/>
       <path d="M 603 3500 
L 1178 3500 
L 1178 0 
L 603 0 
L 603 3500 
z
M 603 4863 
L 1178 4863 
L 1178 4134 
L 603 4134 
L 603 4863 
z
" id="DejaVuSans-69" transform="scale(0.015625)"/>
      </defs>
      <use xlink:href="#DejaVuSans-74"/>
      <use x="39.208984" xlink:href="#DejaVuSans-75"/>
      <use x="102.587891" xlink:href="#DejaVuSans-72"/>
      <use x="141.451172" xlink:href="#DejaVuSans-65"/>
      <use x="202.974609" xlink:href="#DejaVuSans-20"/>
      <use x="234.761719" xlink:href="#DejaVuSans-66"/>
      <use x="269.966797" xlink:href="#DejaVuSans-75"/>
      <use x="333.345703" xlink:href="#DejaVuSans-6e"/>
      <use x="396.724609" xlink:href="#DejaVuSans-63"/>
      <use x="451.705078" xlink:href="#DejaVuSans-74"/>
      <use x="490.914062" xlink:href="#DejaVuSans-69"/>
      <use x="518.697266" xlink:href="#DejaVuSans-6f"/>
      <use x="579.878906" xlink:href="#DejaVuSans-6e"/>
     </g>
    </g>
    <g id="line2d_20">
     <path d="M 146.527813 65.114219 
L 168.527813 65.114219 
" style="fill:none;stroke:#000000;stroke-dasharray:7.4,3.2;stroke-dashoffset:0;stroke-width:2;"/>
    </g>
    <g id="line2d_21"/>
    <g id="text_20">
     <!-- predicted function -->
     <g transform="translate(177.327813 68.964219)scale(0.11 -0.11)">
      <defs>
       <path d="M 1159 525 
L 1159 -1331 
L 581 -1331 
L 581 3500 
L 1159 3500 
L 1159 2969 
Q 1341 3281 1617 3432 
Q 1894 3584 2278 3584 
Q 2916 3584 3314 3078 
Q 3713 2572 3713 1747 
Q 3713 922 3314 415 
Q 2916 -91 2278 -91 
Q 1894 -91 1617 61 
Q 1341 213 1159 525 
z
M 3116 1747 
Q 3116 2381 2855 2742 
Q 2594 3103 2138 3103 
Q 1681 3103 1420 2742 
Q 1159 2381 1159 1747 
Q 1159 1113 1420 752 
Q 1681 391 2138 391 
Q 2594 391 2855 752 
Q 3116 1113 3116 1747 
z
" id="DejaVuSans-70" transform="scale(0.015625)"/>
      </defs>
      <use xlink:href="#DejaVuSans-70"/>
      <use x="63.476562" xlink:href="#DejaVuSans-72"/>
      <use x="102.339844" xlink:href="#DejaVuSans-65"/>
      <use x="163.863281" xlink:href="#DejaVuSans-64"/>
      <use x="227.339844" xlink:href="#DejaVuSans-69"/>
      <use x="255.123047" xlink:href="#DejaVuSans-63"/>
      <use x="310.103516" xlink:href="#DejaVuSans-74"/>
      <use x="349.3125" xlink:href="#DejaVuSans-65"/>
      <use x="410.835938" xlink:href="#DejaVuSans-64"/>
      <use x="474.3125" xlink:href="#DejaVuSans-20"/>
      <use x="506.099609" xlink:href="#DejaVuSans-66"/>
      <use x="541.304688" xlink:href="#DejaVuSans-75"/>
      <use x="604.683594" xlink:href="#DejaVuSans-6e"/>
      <use x="668.0625" xlink:href="#DejaVuSans-63"/>
      <use x="723.042969" xlink:href="#DejaVuSans-74"/>
      <use x="762.251953" xlink:href="#DejaVuSans-69"/>
      <use x="790.035156" xlink:href="#DejaVuSans-6f"/>
      <use x="851.216797" xlink:href="#DejaVuSans-6e"/>
     </g>
    </g>
    <g id="line2d_22">
     <path d="M 146.527813 81.260156 
L 168.527813 81.260156 
" style="fill:none;stroke:#008000;stroke-dasharray:3.7,1.6;stroke-dashoffset:0;"/>
    </g>
    <g id="line2d_23"/>
    <g id="text_21">
     <!--  ± Sn(x) -->
     <g transform="translate(177.327813 85.110156)scale(0.11 -0.11)">
      <defs>
       <path d="M 2944 4013 
L 2944 2803 
L 4684 2803 
L 4684 2272 
L 2944 2272 
L 2944 1063 
L 2419 1063 
L 2419 2272 
L 678 2272 
L 678 2803 
L 2419 2803 
L 2419 4013 
L 2944 4013 
z
M 678 531 
L 4684 531 
L 4684 0 
L 678 0 
L 678 531 
z
" id="DejaVuSans-b1" transform="scale(0.015625)"/>
       <path d="M 3425 4513 
L 3425 3897 
Q 3066 4069 2747 4153 
Q 2428 4238 2131 4238 
Q 1616 4238 1336 4038 
Q 1056 3838 1056 3469 
Q 1056 3159 1242 3001 
Q 1428 2844 1947 2747 
L 2328 2669 
Q 3034 2534 3370 2195 
Q 3706 1856 3706 1288 
Q 3706 609 3251 259 
Q 2797 -91 1919 -91 
Q 1588 -91 1214 -16 
Q 841 59 441 206 
L 441 856 
Q 825 641 1194 531 
Q 1563 422 1919 422 
Q 2459 422 2753 634 
Q 3047 847 3047 1241 
Q 3047 1584 2836 1778 
Q 2625 1972 2144 2069 
L 1759 2144 
Q 1053 2284 737 2584 
Q 422 2884 422 3419 
Q 422 4038 858 4394 
Q 1294 4750 2059 4750 
Q 2388 4750 2728 4690 
Q 3069 4631 3425 4513 
z
" id="DejaVuSans-53" transform="scale(0.015625)"/>
      </defs>
      <use xlink:href="#DejaVuSans-20"/>
      <use x="31.787109" xlink:href="#DejaVuSans-b1"/>
      <use x="115.576172" xlink:href="#DejaVuSans-20"/>
      <use x="147.363281" xlink:href="#DejaVuSans-53"/>
      <use x="210.839844" xlink:href="#DejaVuSans-6e"/>
      <use x="274.21875" xlink:href="#DejaVuSans-28"/>
      <use x="313.232422" xlink:href="#DejaVuSans-78"/>
      <use x="372.412109" xlink:href="#DejaVuSans-29"/>
     </g>
    </g>
    <g id="line2d_24">
     <path d="M 146.527813 97.406094 
L 168.527813 97.406094 
" style="fill:none;stroke:#bfbf00;stroke-dasharray:7.4,3.2;stroke-dashoffset:0;stroke-width:2;"/>
    </g>
    <g id="line2d_25"/>
    <g id="text_22">
     <!-- PI(x) -->
     <g transform="translate(177.327813 101.256094)scale(0.11 -0.11)">
      <use xlink:href="#DejaVuSans-50"/>
      <use x="60.302734" xlink:href="#DejaVuSans-49"/>
      <use x="89.794922" xlink:href="#DejaVuSans-28"/>
      <use x="128.808594" xlink:href="#DejaVuSans-78"/>
      <use x="187.988281" xlink:href="#DejaVuSans-29"/>
     </g>
    </g>
    <g id="PathCollection_2">
     <defs>
      <path d="M 0 3.535534 
C 0.937635 3.535534 1.836992 3.163008 2.5 2.5 
C 3.163008 1.836992 3.535534 0.937635 3.535534 0 
C 3.535534 -0.937635 3.163008 -1.836992 2.5 -2.5 
C 1.836992 -3.163008 0.937635 -3.535534 0 -3.535534 
C -0.937635 -3.535534 -1.836992 -3.163008 -2.5 -2.5 
C -3.163008 -1.836992 -3.535534 -0.937635 -3.535534 0 
C -3.535534 0.937635 -3.163008 1.836992 -2.5 2.5 
C -1.836992 3.163008 -0.937635 3.535534 0 3.535534 
z
" id="m5b4bc775a0" style="stroke:#000000;"/>
     </defs>
     <g>
      <use style="fill:#ff0000;stroke:#000000;" x="157.527813" xlink:href="#m5b4bc775a0" y="114.514531"/>
     </g>
    </g>
    <g id="text_23">
     <!-- training data -->
     <g transform="translate(177.327813 117.402031)scale(0.11 -0.11)">
      <defs>
       <path d="M 2194 1759 
Q 1497 1759 1228 1600 
Q 959 1441 959 1056 
Q 959 750 1161 570 
Q 1363 391 1709 391 
Q 2188 391 2477 730 
Q 2766 1069 2766 1631 
L 2766 1759 
L 2194 1759 
z
M 3341 1997 
L 3341 0 
L 2766 0 
L 2766 531 
Q 2569 213 2275 61 
Q 1981 -91 1556 -91 
Q 1019 -91 701 211 
Q 384 513 384 1019 
Q 384 1609 779 1909 
Q 1175 2209 1959 2209 
L 2766 2209 
L 2766 2266 
Q 2766 2663 2505 2880 
Q 2244 3097 1772 3097 
Q 1472 3097 1187 3025 
Q 903 2953 641 2809 
L 641 3341 
Q 956 3463 1253 3523 
Q 1550 3584 1831 3584 
Q 2591 3584 2966 3190 
Q 3341 2797 3341 1997 
z
" id="DejaVuSans-61" transform="scale(0.015625)"/>
       <path d="M 2906 1791 
Q 2906 2416 2648 2759 
Q 2391 3103 1925 3103 
Q 1463 3103 1205 2759 
Q 947 2416 947 1791 
Q 947 1169 1205 825 
Q 1463 481 1925 481 
Q 2391 481 2648 825 
Q 2906 1169 2906 1791 
z
M 3481 434 
Q 3481 -459 3084 -895 
Q 2688 -1331 1869 -1331 
Q 1566 -1331 1297 -1286 
Q 1028 -1241 775 -1147 
L 775 -588 
Q 1028 -725 1275 -790 
Q 1522 -856 1778 -856 
Q 2344 -856 2625 -561 
Q 2906 -266 2906 331 
L 2906 616 
Q 2728 306 2450 153 
Q 2172 0 1784 0 
Q 1141 0 747 490 
Q 353 981 353 1791 
Q 353 2603 747 3093 
Q 1141 3584 1784 3584 
Q 2172 3584 2450 3431 
Q 2728 3278 2906 2969 
L 2906 3500 
L 3481 3500 
L 3481 434 
z
" id="DejaVuSans-67" transform="scale(0.015625)"/>
      </defs>
      <use xlink:href="#DejaVuSans-74"/>
      <use x="39.208984" xlink:href="#DejaVuSans-72"/>
      <use x="80.322266" xlink:href="#DejaVuSans-61"/>
      <use x="141.601562" xlink:href="#DejaVuSans-69"/>
      <use x="169.384766" xlink:href="#DejaVuSans-6e"/>
      <use x="232.763672" xlink:href="#DejaVuSans-69"/>
      <use x="260.546875" xlink:href="#DejaVuSans-6e"/>
      <use x="323.925781" xlink:href="#DejaVuSans-67"/>
      <use x="387.402344" xlink:href="#DejaVuSans-20"/>
      <use x="419.189453" xlink:href="#DejaVuSans-64"/>
      <use x="482.666016" xlink:href="#DejaVuSans-61"/>
      <use x="543.945312" xlink:href="#DejaVuSans-74"/>
      <use x="583.154297" xlink:href="#DejaVuSans-61"/>
     </g>
    </g>
    <g id="PathCollection_3">
     <g>
      <use style="fill:#ff0000;stroke:#ff0000;stroke-width:8;" x="157.527813" xlink:href="#mfcd5490fcc" y="130.660469"/>
     </g>
    </g>
    <g id="text_24">
     <!-- recommended datum -->
     <g transform="translate(177.327813 133.547969)scale(0.11 -0.11)">
      <defs>
       <path d="M 3328 2828 
Q 3544 3216 3844 3400 
Q 4144 3584 4550 3584 
Q 5097 3584 5394 3201 
Q 5691 2819 5691 2113 
L 5691 0 
L 5113 0 
L 5113 2094 
Q 5113 2597 4934 2840 
Q 4756 3084 4391 3084 
Q 3944 3084 3684 2787 
Q 3425 2491 3425 1978 
L 3425 0 
L 2847 0 
L 2847 2094 
Q 2847 2600 2669 2842 
Q 2491 3084 2119 3084 
Q 1678 3084 1418 2786 
Q 1159 2488 1159 1978 
L 1159 0 
L 581 0 
L 581 3500 
L 1159 3500 
L 1159 2956 
Q 1356 3278 1631 3431 
Q 1906 3584 2284 3584 
Q 2666 3584 2933 3390 
Q 3200 3197 3328 2828 
z
" id="DejaVuSans-6d" transform="scale(0.015625)"/>
      </defs>
      <use xlink:href="#DejaVuSans-72"/>
      <use x="38.863281" xlink:href="#DejaVuSans-65"/>
      <use x="100.386719" xlink:href="#DejaVuSans-63"/>
      <use x="155.367188" xlink:href="#DejaVuSans-6f"/>
      <use x="216.548828" xlink:href="#DejaVuSans-6d"/>
      <use x="313.960938" xlink:href="#DejaVuSans-6d"/>
      <use x="411.373047" xlink:href="#DejaVuSans-65"/>
      <use x="472.896484" xlink:href="#DejaVuSans-6e"/>
      <use x="536.275391" xlink:href="#DejaVuSans-64"/>
      <use x="599.751953" xlink:href="#DejaVuSans-65"/>
      <use x="661.275391" xlink:href="#DejaVuSans-64"/>
      <use x="724.751953" xlink:href="#DejaVuSans-20"/>
      <use x="756.539062" xlink:href="#DejaVuSans-64"/>
      <use x="820.015625" xlink:href="#DejaVuSans-61"/>
      <use x="881.294922" xlink:href="#DejaVuSans-74"/>
      <use x="920.503906" xlink:href="#DejaVuSans-75"/>
      <use x="983.882812" xlink:href="#DejaVuSans-6d"/>
     </g>
    </g>
   </g>
   <g id="line2d_26">
    <path clip-path="url(#p14032ef9b8)" d="M 69.218182 130.75354 
L 71.985124 130.24861 
L 74.752066 130.598829 
L 77.519008 131.842322 
L 80.28595 133.983881 
L 83.052893 136.992754 
L 85.819835 140.802456 
L 88.586777 145.312722 
L 91.353719 150.393556 
L 94.120661 155.891203 
L 96.887603 161.635649 
L 99.654545 167.449201 
L 102.421488 173.155553 
L 105.18843 178.588718 
L 107.955372 183.60124 
L 110.722314 188.07112 
L 113.489256 191.907021 
L 116.256198 195.051449 
L 119.02314 197.481762 
L 121.790083 199.20902 
L 124.557025 200.274864 
L 127.323967 200.746727 
L 130.090909 200.711786 
L 132.857851 200.270159 
L 135.624793 199.527825 
L 138.391736 198.589796 
L 141.158678 197.553955 
L 143.92562 196.505949 
L 146.692562 195.515398 
L 149.459504 194.633566 
L 152.226446 193.892546 
L 154.993388 193.305881 
L 157.760331 192.870462 
L 160.527273 192.569435 
L 163.294215 192.375848 
L 166.061157 192.256681 
L 168.828099 192.176928 
L 171.595041 192.103429 
L 174.361983 192.008167 
L 177.128926 191.870825 
L 179.895868 191.68047 
L 182.66281 191.436287 
L 185.429752 191.1474 
L 188.196694 190.83185 
L 190.963636 190.514896 
L 193.730579 190.2268 
L 196.497521 190.000343 
L 199.264463 189.868262 
L 202.031405 189.860835 
L 204.798347 190.003787 
L 207.565289 190.316655 
L 210.332231 190.811715 
L 213.099174 191.493506 
L 215.866116 192.358953 
L 218.633058 193.398039 
L 221.4 194.594943 
L 224.166942 195.929528 
L 226.933884 197.379051 
L 229.700826 198.919963 
L 232.467769 200.529665 
L 235.234711 202.188084 
L 238.001653 203.878984 
L 240.768595 205.590908 
L 243.535537 207.317694 
L 246.302479 209.058531 
L 249.069421 210.817534 
L 251.836364 212.602853 
L 254.603306 214.42534 
L 257.370248 216.296822 
L 260.13719 218.228048 
L 262.904132 220.226388 
L 265.671074 222.293377 
L 268.438017 224.422224 
L 271.204959 226.595404 
L 273.971901 228.782494 
L 276.738843 230.938394 
L 279.505785 233.002118 
L 282.272727 234.896332 
L 285.039669 236.527803 
L 287.806612 237.788912 
L 290.573554 238.560349 
L 293.340496 238.715044 
L 296.107438 238.123309 
L 298.87438 236.659082 
L 301.641322 234.207057 
L 304.408264 230.670361 
L 307.175207 225.978353 
L 309.942149 220.094043 
L 312.709091 213.02055 
L 315.476033 204.806043 
L 318.242975 195.546635 
L 321.009917 185.386789 
L 323.77686 174.516957 
L 326.543802 163.168359 
L 329.310744 151.604993 
L 332.077686 140.113249 
L 334.844628 128.989656 
L 337.61157 118.527495 
L 340.378512 109.003136 
L 343.145455 100.662985 
L 345.912397 93.71194 
L 348.679339 88.304116 
L 351.446281 84.536458 
L 354.213223 82.445631 
L 356.980165 82.008309 
L 359.747107 83.144754 
L 362.51405 85.725305 
L 365.280992 89.579231 
L 368.047934 94.505207 
L 370.814876 100.282664 
L 373.581818 106.683204 
" style="fill:none;stroke:#000000;stroke-dasharray:7.4,3.2;stroke-dashoffset:0;stroke-width:2;"/>
   </g>
   <g id="PathCollection_4">
    <g clip-path="url(#p14032ef9b8)">
     <use style="fill:#ff0000;stroke:#000000;" x="83.052893" xlink:href="#m5b4bc775a0" y="129.399309"/>
     <use style="fill:#ff0000;stroke:#000000;" x="96.887603" xlink:href="#m5b4bc775a0" y="162.429541"/>
     <use style="fill:#ff0000;stroke:#000000;" x="110.722314" xlink:href="#m5b4bc775a0" y="193.170209"/>
     <use style="fill:#ff0000;stroke:#000000;" x="124.557025" xlink:href="#m5b4bc775a0" y="199.248575"/>
     <use style="fill:#ff0000;stroke:#000000;" x="138.391736" xlink:href="#m5b4bc775a0" y="199.347548"/>
     <use style="fill:#ff0000;stroke:#000000;" x="152.226446" xlink:href="#m5b4bc775a0" y="191.611971"/>
     <use style="fill:#ff0000;stroke:#000000;" x="166.061157" xlink:href="#m5b4bc775a0" y="193.66847"/>
     <use style="fill:#ff0000;stroke:#000000;" x="179.895868" xlink:href="#m5b4bc775a0" y="193.283098"/>
     <use style="fill:#ff0000;stroke:#000000;" x="193.730579" xlink:href="#m5b4bc775a0" y="188.924027"/>
     <use style="fill:#ff0000;stroke:#000000;" x="318.242975" xlink:href="#m5b4bc775a0" y="199.289596"/>
     <use style="fill:#ff0000;stroke:#000000;" x="332.077686" xlink:href="#m5b4bc775a0" y="145.37007"/>
     <use style="fill:#ff0000;stroke:#000000;" x="345.912397" xlink:href="#m5b4bc775a0" y="78.407322"/>
     <use style="fill:#ff0000;stroke:#000000;" x="298.87438" xlink:href="#m5b4bc775a0" y="238.401268"/>
     <use style="fill:#ff0000;stroke:#000000;" x="276.738843" xlink:href="#m5b4bc775a0" y="232.104967"/>
     <use style="fill:#ff0000;stroke:#000000;" x="243.535537" xlink:href="#m5b4bc775a0" y="208.737818"/>
    </g>
   </g>
  </g>
 </g>
 <defs>
  <clipPath id="p14032ef9b8">
   <rect height="217.44" width="334.8" x="54" y="34.56"/>
  </clipPath>
 </defs>
</svg>
