<?xml version="1.0" encoding="utf-8" standalone="no"?>
<!DOCTYPE svg PUBLIC "-//W3C//DTD SVG 1.1//EN"
  "http://www.w3.org/Graphics/SVG/1.1/DTD/svg11.dtd">
<svg height="288pt" version="1.1" viewBox="0 0 432 288" width="432pt" xmlns="http://www.w3.org/2000/svg" xmlns:xlink="http://www.w3.org/1999/xlink">
 <metadata>
  <rdf:RDF xmlns:cc="http://creativecommons.org/ns#" xmlns:dc="http://purl.org/dc/elements/1.1/" xmlns:rdf="http://www.w3.org/1999/02/22-rdf-syntax-ns#">
   <cc:Work>
    <dc:type rdf:resource="http://purl.org/dc/dcmitype/StillImage"/>
    <dc:date>2022-08-11T20:25:23.145220</dc:date>
    <dc:format>image/svg+xml</dc:format>
    <dc:creator>
     <cc:Agent>
      <dc:title>Matplotlib v3.4.3, https://matplotlib.org/</dc:title>
     </cc:Agent>
    </dc:creator>
   </cc:Work>
  </rdf:RDF>
 </metadata>
 <defs>
  <style type="text/css">*{stroke-linecap:butt;stroke-linejoin:round;}</style>
 </defs>
 <g id="figure_1">
  <g id="patch_1">
   <path d="M 0 288 
L 432 288 
L 432 0 
L 0 0 
z
" style="fill:none;"/>
  </g>
  <g id="axes_1">
   <g id="patch_2">
    <path d="M 54 252 
L 388.8 252 
L 388.8 34.56 
L 54 34.56 
z
" style="fill:#ffffff;"/>
   </g>
   <g id="PolyCollection_1">
    <defs>
     <path d="M 69.218182 -177.609862 
L 69.218182 -137.099964 
L 71.985124 -140.029788 
L 74.752066 -141.990641 
L 77.519008 -142.851327 
L 80.28595 -142.514802 
L 83.052893 -140.933113 
L 85.819835 -138.128923 
L 88.586777 -134.216657 
L 91.353719 -129.40307 
L 94.120661 -123.954825 
L 96.887603 -118.151348 
L 99.654545 -112.250457 
L 102.421488 -106.473913 
L 105.18843 -101.005038 
L 107.955372 -95.990558 
L 110.722314 -91.543061 
L 113.489256 -87.74292 
L 116.256198 -84.639442 
L 119.02314 -82.251371 
L 121.790083 -80.567325 
L 124.557025 -79.547028 
L 127.323967 -79.124154 
L 130.090909 -79.211128 
L 132.857851 -79.705678 
L 135.624793 -80.498457 
L 138.391736 -81.480801 
L 141.158678 -82.551708 
L 143.92562 -83.623303 
L 146.692562 -84.624416 
L 149.459504 -85.502253 
L 152.226446 -86.222515 
L 154.993388 -86.768523 
L 157.760331 -87.139946 
L 160.527273 -87.351524 
L 163.294215 -87.431792 
L 166.061157 -87.421303 
L 168.828099 -87.36952 
L 171.595041 -87.329592 
L 174.361983 -87.350647 
L 177.128926 -87.467796 
L 179.895868 -87.690528 
L 182.66281 -87.991169 
L 185.429752 -88.29759 
L 188.196694 -88.498585 
L 190.963636 -88.470343 
L 193.730579 -88.11725 
L 196.497521 -87.399854 
L 199.264463 -86.331985 
L 202.031405 -84.95956 
L 204.798347 -83.341187 
L 207.565289 -81.537279 
L 210.332231 -79.605189 
L 213.099174 -77.597053 
L 215.866116 -75.558637 
L 218.633058 -73.528656 
L 221.4 -71.538544 
L 224.166942 -69.612715 
L 226.933884 -67.769322 
L 229.700826 -66.021393 
L 232.467769 -64.378147 
L 235.234711 -62.846237 
L 238.001653 -61.430633 
L 240.768595 -60.13496 
L 243.535537 -58.961157 
L 246.302479 -57.908479 
L 249.069421 -56.971958 
L 251.836364 -56.140574 
L 254.603306 -55.3954 
L 257.370248 -54.708019 
L 260.13719 -54.039468 
L 262.904132 -53.33991 
L 265.671074 -52.549373 
L 268.438017 -51.600374 
L 271.204959 -50.424705 
L 273.971901 -48.96885 
L 276.738843 -47.222184 
L 279.505785 -45.250867 
L 282.272727 -43.210819 
L 285.039669 -41.318945 
L 287.806612 -39.802325 
L 290.573554 -38.861544 
L 293.340496 -38.659105 
L 296.107438 -39.322863 
L 298.87438 -40.953618 
L 301.641322 -43.631414 
L 304.408264 -47.418514 
L 307.175207 -52.358468 
L 309.942149 -58.471545 
L 312.709091 -65.747785 
L 315.476033 -74.139678 
L 318.242975 -83.556578 
L 321.009917 -93.862098 
L 323.77686 -104.874488 
L 326.543802 -116.368918 
L 329.310744 -128.080252 
L 332.077686 -139.705412 
L 334.844628 -150.906022 
L 337.61157 -161.314964 
L 340.378512 -170.554531 
L 343.145455 -178.273246 
L 345.912397 -184.194011 
L 348.679339 -188.148209 
L 351.446281 -190.079056 
L 354.213223 -190.024616 
L 356.980165 -188.098177 
L 359.747107 -184.472517 
L 362.51405 -179.366635 
L 365.280992 -173.032762 
L 368.047934 -165.742926 
L 370.814876 -157.775428 
L 373.581818 -149.40202 
L 373.581818 -211.966167 
L 373.581818 -211.966167 
L 370.814876 -216.529324 
L 368.047934 -220.301481 
L 365.280992 -223.08313 
L 362.51405 -224.694912 
L 359.747107 -224.988983 
L 356.980165 -223.859647 
L 354.213223 -221.252321 
L 351.446281 -217.169462 
L 348.679339 -211.671144 
L 345.912397 -204.866865 
L 343.145455 -196.896364 
L 340.378512 -187.905746 
L 337.61157 -178.036928 
L 334.844628 -167.441768 
L 332.077686 -156.305558 
L 329.310744 -144.85627 
L 326.543802 -133.354207 
L 323.77686 -122.071095 
L 321.009917 -111.268135 
L 318.242975 -101.178151 
L 315.476033 -91.993595 
L 312.709091 -83.860055 
L 309.942149 -76.87391 
L 307.175207 -71.082599 
L 304.408264 -66.486659 
L 301.641322 -63.043675 
L 298.87438 -60.67494 
L 296.107438 -59.275574 
L 293.340496 -58.728138 
L 290.573554 -58.919043 
L 287.806612 -59.756428 
L 285.039669 -61.187023 
L 282.272727 -63.206408 
L 279.505785 -65.851853 
L 276.738843 -69.167987 
L 273.971901 -73.156614 
L 271.204959 -77.747343 
L 268.438017 -82.809185 
L 265.671074 -88.182711 
L 262.904132 -93.706486 
L 260.13719 -99.230903 
L 257.370248 -104.623699 
L 254.603306 -109.771661 
L 251.836364 -114.580735 
L 249.069421 -118.975304 
L 246.302479 -122.896845 
L 243.535537 -126.302099 
L 240.768595 -129.160933 
L 238.001653 -131.454151 
L 235.234711 -133.171544 
L 232.467769 -134.31045 
L 229.700826 -134.875005 
L 226.933884 -134.876185 
L 224.166942 -134.332548 
L 221.4 -133.271523 
L 218.633058 -131.73097 
L 215.866116 -129.760703 
L 213.099174 -127.42369 
L 210.332231 -124.796693 
L 207.565289 -121.970191 
L 204.798347 -119.0475 
L 202.031405 -116.142892 
L 199.264463 -113.378107 
L 196.497521 -110.875492 
L 193.730579 -108.744472 
L 190.963636 -107.058985 
L 188.196694 -105.832746 
L 185.429752 -105.01275 
L 182.66281 -104.503814 
L 179.895868 -104.206535 
L 177.128926 -104.041798 
L 174.361983 -103.955416 
L 171.595041 -103.911544 
L 168.828099 -103.883436 
L 166.061157 -103.845763 
L 163.294215 -103.770036 
L 160.527273 -103.623581 
L 157.760331 -103.371865 
L 154.993388 -102.983317 
L 152.226446 -102.435285 
L 149.459504 -101.719679 
L 146.692562 -100.847179 
L 143.92562 -99.849434 
L 141.158678 -98.779185 
L 138.391736 -97.708557 
L 135.624793 -96.725935 
L 132.857851 -95.931813 
L 130.090909 -95.433902 
L 127.323967 -95.341602 
L 124.557025 -95.75983 
L 121.790083 -96.782157 
L 119.02314 -98.483326 
L 116.256198 -100.911523 
L 113.489256 -104.081172 
L 110.722314 -107.967522 
L 107.955372 -112.504494 
L 105.18843 -117.587073 
L 102.421488 -123.078883 
L 99.654545 -128.824819 
L 96.887603 -134.667868 
L 94.120661 -140.468048 
L 91.353719 -146.118697 
L 88.586777 -151.551004 
L 85.819835 -156.717566 
L 83.052893 -161.560925 
L 80.28595 -165.993517 
L 77.519008 -169.906538 
L 74.752066 -173.19491 
L 71.985124 -175.778062 
L 69.218182 -177.609862 
z
" id="mc966d03061" style="stroke:#add8e6;stroke-opacity:0.2;"/>
    </defs>
    <g clip-path="url(#pd1d0081aa4)">
     <use style="fill:#add8e6;fill-opacity:0.2;stroke:#add8e6;stroke-opacity:0.2;" x="0" xlink:href="#mc966d03061" y="288"/>
    </g>
   </g>
   <g id="PathCollection_1">
    <defs>
     <path d="M 0 0.612372 
C 0.162403 0.612372 0.318176 0.547849 0.433013 0.433013 
C 0.547849 0.318176 0.612372 0.162403 0.612372 0 
C 0.612372 -0.162403 0.547849 -0.318176 0.433013 -0.433013 
C 0.318176 -0.547849 0.162403 -0.612372 0 -0.612372 
C -0.162403 -0.612372 -0.318176 -0.547849 -0.433013 -0.433013 
C -0.547849 -0.318176 -0.612372 -0.162403 -0.612372 0 
C -0.612372 0.162403 -0.547849 0.318176 -0.433013 0.433013 
C -0.318176 0.547849 -0.162403 0.612372 0 0.612372 
z
" id="mfb9e42d0bf" style="stroke:#ff0000;stroke-width:8;"/>
    </defs>
    <g clip-path="url(#pd1d0081aa4)">
     <use style="fill:#ff0000;stroke:#ff0000;stroke-width:8;" x="243.535537" xlink:href="#mfb9e42d0bf" y="251.184541"/>
    </g>
   </g>
   <g id="matplotlib.axis_1">
    <g id="xtick_1">
     <g id="line2d_1">
      <defs>
       <path d="M 0 0 
L 0 3.5 
" id="m0f918cdef3" style="stroke:#000000;stroke-width:0.8;"/>
      </defs>
      <g>
       <use style="stroke:#000000;stroke-width:0.8;" x="69.218182" xlink:href="#m0f918cdef3" y="252"/>
      </g>
     </g>
     <g id="text_1">
      <!-- 0 -->
      <g transform="translate(66.036932 266.598437)scale(0.1 -0.1)">
       <defs>
        <path d="M 2034 4250 
Q 1547 4250 1301 3770 
Q 1056 3291 1056 2328 
Q 1056 1369 1301 889 
Q 1547 409 2034 409 
Q 2525 409 2770 889 
Q 3016 1369 3016 2328 
Q 3016 3291 2770 3770 
Q 2525 4250 2034 4250 
z
M 2034 4750 
Q 2819 4750 3233 4129 
Q 3647 3509 3647 2328 
Q 3647 1150 3233 529 
Q 2819 -91 2034 -91 
Q 1250 -91 836 529 
Q 422 1150 422 2328 
Q 422 3509 836 4129 
Q 1250 4750 2034 4750 
z
" id="DejaVuSans-30" transform="scale(0.015625)"/>
       </defs>
       <use xlink:href="#DejaVuSans-30"/>
      </g>
     </g>
    </g>
    <g id="xtick_2">
     <g id="line2d_2">
      <g>
       <use style="stroke:#000000;stroke-width:0.8;" x="124.557025" xlink:href="#m0f918cdef3" y="252"/>
      </g>
     </g>
     <g id="text_2">
      <!-- 2 -->
      <g transform="translate(121.375775 266.598437)scale(0.1 -0.1)">
       <defs>
        <path d="M 1228 531 
L 3431 531 
L 3431 0 
L 469 0 
L 469 531 
Q 828 903 1448 1529 
Q 2069 2156 2228 2338 
Q 2531 2678 2651 2914 
Q 2772 3150 2772 3378 
Q 2772 3750 2511 3984 
Q 2250 4219 1831 4219 
Q 1534 4219 1204 4116 
Q 875 4013 500 3803 
L 500 4441 
Q 881 4594 1212 4672 
Q 1544 4750 1819 4750 
Q 2544 4750 2975 4387 
Q 3406 4025 3406 3419 
Q 3406 3131 3298 2873 
Q 3191 2616 2906 2266 
Q 2828 2175 2409 1742 
Q 1991 1309 1228 531 
z
" id="DejaVuSans-32" transform="scale(0.015625)"/>
       </defs>
       <use xlink:href="#DejaVuSans-32"/>
      </g>
     </g>
    </g>
    <g id="xtick_3">
     <g id="line2d_3">
      <g>
       <use style="stroke:#000000;stroke-width:0.8;" x="179.895868" xlink:href="#m0f918cdef3" y="252"/>
      </g>
     </g>
     <g id="text_3">
      <!-- 4 -->
      <g transform="translate(176.714618 266.598437)scale(0.1 -0.1)">
       <defs>
        <path d="M 2419 4116 
L 825 1625 
L 2419 1625 
L 2419 4116 
z
M 2253 4666 
L 3047 4666 
L 3047 1625 
L 3713 1625 
L 3713 1100 
L 3047 1100 
L 3047 0 
L 2419 0 
L 2419 1100 
L 313 1100 
L 313 1709 
L 2253 4666 
z
" id="DejaVuSans-34" transform="scale(0.015625)"/>
       </defs>
       <use xlink:href="#DejaVuSans-34"/>
      </g>
     </g>
    </g>
    <g id="xtick_4">
     <g id="line2d_4">
      <g>
       <use style="stroke:#000000;stroke-width:0.8;" x="235.234711" xlink:href="#m0f918cdef3" y="252"/>
      </g>
     </g>
     <g id="text_4">
      <!-- 6 -->
      <g transform="translate(232.053461 266.598437)scale(0.1 -0.1)">
       <defs>
        <path d="M 2113 2584 
Q 1688 2584 1439 2293 
Q 1191 2003 1191 1497 
Q 1191 994 1439 701 
Q 1688 409 2113 409 
Q 2538 409 2786 701 
Q 3034 994 3034 1497 
Q 3034 2003 2786 2293 
Q 2538 2584 2113 2584 
z
M 3366 4563 
L 3366 3988 
Q 3128 4100 2886 4159 
Q 2644 4219 2406 4219 
Q 1781 4219 1451 3797 
Q 1122 3375 1075 2522 
Q 1259 2794 1537 2939 
Q 1816 3084 2150 3084 
Q 2853 3084 3261 2657 
Q 3669 2231 3669 1497 
Q 3669 778 3244 343 
Q 2819 -91 2113 -91 
Q 1303 -91 875 529 
Q 447 1150 447 2328 
Q 447 3434 972 4092 
Q 1497 4750 2381 4750 
Q 2619 4750 2861 4703 
Q 3103 4656 3366 4563 
z
" id="DejaVuSans-36" transform="scale(0.015625)"/>
       </defs>
       <use xlink:href="#DejaVuSans-36"/>
      </g>
     </g>
    </g>
    <g id="xtick_5">
     <g id="line2d_5">
      <g>
       <use style="stroke:#000000;stroke-width:0.8;" x="290.573554" xlink:href="#m0f918cdef3" y="252"/>
      </g>
     </g>
     <g id="text_5">
      <!-- 8 -->
      <g transform="translate(287.392304 266.598437)scale(0.1 -0.1)">
       <defs>
        <path d="M 2034 2216 
Q 1584 2216 1326 1975 
Q 1069 1734 1069 1313 
Q 1069 891 1326 650 
Q 1584 409 2034 409 
Q 2484 409 2743 651 
Q 3003 894 3003 1313 
Q 3003 1734 2745 1975 
Q 2488 2216 2034 2216 
z
M 1403 2484 
Q 997 2584 770 2862 
Q 544 3141 544 3541 
Q 544 4100 942 4425 
Q 1341 4750 2034 4750 
Q 2731 4750 3128 4425 
Q 3525 4100 3525 3541 
Q 3525 3141 3298 2862 
Q 3072 2584 2669 2484 
Q 3125 2378 3379 2068 
Q 3634 1759 3634 1313 
Q 3634 634 3220 271 
Q 2806 -91 2034 -91 
Q 1263 -91 848 271 
Q 434 634 434 1313 
Q 434 1759 690 2068 
Q 947 2378 1403 2484 
z
M 1172 3481 
Q 1172 3119 1398 2916 
Q 1625 2713 2034 2713 
Q 2441 2713 2670 2916 
Q 2900 3119 2900 3481 
Q 2900 3844 2670 4047 
Q 2441 4250 2034 4250 
Q 1625 4250 1398 4047 
Q 1172 3844 1172 3481 
z
" id="DejaVuSans-38" transform="scale(0.015625)"/>
       </defs>
       <use xlink:href="#DejaVuSans-38"/>
      </g>
     </g>
    </g>
    <g id="xtick_6">
     <g id="line2d_6">
      <g>
       <use style="stroke:#000000;stroke-width:0.8;" x="345.912397" xlink:href="#m0f918cdef3" y="252"/>
      </g>
     </g>
     <g id="text_6">
      <!-- 10 -->
      <g transform="translate(339.549897 266.598437)scale(0.1 -0.1)">
       <defs>
        <path d="M 794 531 
L 1825 531 
L 1825 4091 
L 703 3866 
L 703 4441 
L 1819 4666 
L 2450 4666 
L 2450 531 
L 3481 531 
L 3481 0 
L 794 0 
L 794 531 
z
" id="DejaVuSans-31" transform="scale(0.015625)"/>
       </defs>
       <use xlink:href="#DejaVuSans-31"/>
       <use x="63.623047" xlink:href="#DejaVuSans-30"/>
      </g>
     </g>
    </g>
    <g id="text_7">
     <!-- x -->
     <g transform="translate(217.84875 281.79625)scale(0.12 -0.12)">
      <defs>
       <path d="M 3513 3500 
L 2247 1797 
L 3578 0 
L 2900 0 
L 1881 1375 
L 863 0 
L 184 0 
L 1544 1831 
L 300 3500 
L 978 3500 
L 1906 2253 
L 2834 3500 
L 3513 3500 
z
" id="DejaVuSans-78" transform="scale(0.015625)"/>
      </defs>
      <use xlink:href="#DejaVuSans-78"/>
     </g>
    </g>
   </g>
   <g id="matplotlib.axis_2">
    <g id="ytick_1">
     <g id="line2d_7">
      <defs>
       <path d="M 0 0 
L -3.5 0 
" id="mb611cb7515" style="stroke:#000000;stroke-width:0.8;"/>
      </defs>
      <g>
       <use style="stroke:#000000;stroke-width:0.8;" x="54" xlink:href="#mb611cb7515" y="252"/>
      </g>
     </g>
     <g id="text_8">
      <!-- 3 -->
      <g transform="translate(40.6375 255.799219)scale(0.1 -0.1)">
       <defs>
        <path d="M 2597 2516 
Q 3050 2419 3304 2112 
Q 3559 1806 3559 1356 
Q 3559 666 3084 287 
Q 2609 -91 1734 -91 
Q 1441 -91 1130 -33 
Q 819 25 488 141 
L 488 750 
Q 750 597 1062 519 
Q 1375 441 1716 441 
Q 2309 441 2620 675 
Q 2931 909 2931 1356 
Q 2931 1769 2642 2001 
Q 2353 2234 1838 2234 
L 1294 2234 
L 1294 2753 
L 1863 2753 
Q 2328 2753 2575 2939 
Q 2822 3125 2822 3475 
Q 2822 3834 2567 4026 
Q 2313 4219 1838 4219 
Q 1578 4219 1281 4162 
Q 984 4106 628 3988 
L 628 4550 
Q 988 4650 1302 4700 
Q 1616 4750 1894 4750 
Q 2613 4750 3031 4423 
Q 3450 4097 3450 3541 
Q 3450 3153 3228 2886 
Q 3006 2619 2597 2516 
z
" id="DejaVuSans-33" transform="scale(0.015625)"/>
       </defs>
       <use xlink:href="#DejaVuSans-33"/>
      </g>
     </g>
    </g>
    <g id="ytick_2">
     <g id="line2d_8">
      <g>
       <use style="stroke:#000000;stroke-width:0.8;" x="54" xlink:href="#mb611cb7515" y="215.76"/>
      </g>
     </g>
     <g id="text_9">
      <!-- 4 -->
      <g transform="translate(40.6375 219.559219)scale(0.1 -0.1)">
       <use xlink:href="#DejaVuSans-34"/>
      </g>
     </g>
    </g>
    <g id="ytick_3">
     <g id="line2d_9">
      <g>
       <use style="stroke:#000000;stroke-width:0.8;" x="54" xlink:href="#mb611cb7515" y="179.52"/>
      </g>
     </g>
     <g id="text_10">
      <!-- 5 -->
      <g transform="translate(40.6375 183.319219)scale(0.1 -0.1)">
       <defs>
        <path d="M 691 4666 
L 3169 4666 
L 3169 4134 
L 1269 4134 
L 1269 2991 
Q 1406 3038 1543 3061 
Q 1681 3084 1819 3084 
Q 2600 3084 3056 2656 
Q 3513 2228 3513 1497 
Q 3513 744 3044 326 
Q 2575 -91 1722 -91 
Q 1428 -91 1123 -41 
Q 819 9 494 109 
L 494 744 
Q 775 591 1075 516 
Q 1375 441 1709 441 
Q 2250 441 2565 725 
Q 2881 1009 2881 1497 
Q 2881 1984 2565 2268 
Q 2250 2553 1709 2553 
Q 1456 2553 1204 2497 
Q 953 2441 691 2322 
L 691 4666 
z
" id="DejaVuSans-35" transform="scale(0.015625)"/>
       </defs>
       <use xlink:href="#DejaVuSans-35"/>
      </g>
     </g>
    </g>
    <g id="ytick_4">
     <g id="line2d_10">
      <g>
       <use style="stroke:#000000;stroke-width:0.8;" x="54" xlink:href="#mb611cb7515" y="143.28"/>
      </g>
     </g>
     <g id="text_11">
      <!-- 6 -->
      <g transform="translate(40.6375 147.079219)scale(0.1 -0.1)">
       <use xlink:href="#DejaVuSans-36"/>
      </g>
     </g>
    </g>
    <g id="ytick_5">
     <g id="line2d_11">
      <g>
       <use style="stroke:#000000;stroke-width:0.8;" x="54" xlink:href="#mb611cb7515" y="107.04"/>
      </g>
     </g>
     <g id="text_12">
      <!-- 7 -->
      <g transform="translate(40.6375 110.839219)scale(0.1 -0.1)">
       <defs>
        <path d="M 525 4666 
L 3525 4666 
L 3525 4397 
L 1831 0 
L 1172 0 
L 2766 4134 
L 525 4134 
L 525 4666 
z
" id="DejaVuSans-37" transform="scale(0.015625)"/>
       </defs>
       <use xlink:href="#DejaVuSans-37"/>
      </g>
     </g>
    </g>
    <g id="ytick_6">
     <g id="line2d_12">
      <g>
       <use style="stroke:#000000;stroke-width:0.8;" x="54" xlink:href="#mb611cb7515" y="70.8"/>
      </g>
     </g>
     <g id="text_13">
      <!-- 8 -->
      <g transform="translate(40.6375 74.599219)scale(0.1 -0.1)">
       <use xlink:href="#DejaVuSans-38"/>
      </g>
     </g>
    </g>
    <g id="ytick_7">
     <g id="line2d_13">
      <g>
       <use style="stroke:#000000;stroke-width:0.8;" x="54" xlink:href="#mb611cb7515" y="34.56"/>
      </g>
     </g>
     <g id="text_14">
      <!-- 9 -->
      <g transform="translate(40.6375 38.359219)scale(0.1 -0.1)">
       <defs>
        <path d="M 703 97 
L 703 672 
Q 941 559 1184 500 
Q 1428 441 1663 441 
Q 2288 441 2617 861 
Q 2947 1281 2994 2138 
Q 2813 1869 2534 1725 
Q 2256 1581 1919 1581 
Q 1219 1581 811 2004 
Q 403 2428 403 3163 
Q 403 3881 828 4315 
Q 1253 4750 1959 4750 
Q 2769 4750 3195 4129 
Q 3622 3509 3622 2328 
Q 3622 1225 3098 567 
Q 2575 -91 1691 -91 
Q 1453 -91 1209 -44 
Q 966 3 703 97 
z
M 1959 2075 
Q 2384 2075 2632 2365 
Q 2881 2656 2881 3163 
Q 2881 3666 2632 3958 
Q 2384 4250 1959 4250 
Q 1534 4250 1286 3958 
Q 1038 3666 1038 3163 
Q 1038 2656 1286 2365 
Q 1534 2075 1959 2075 
z
" id="DejaVuSans-39" transform="scale(0.015625)"/>
       </defs>
       <use xlink:href="#DejaVuSans-39"/>
      </g>
     </g>
    </g>
    <g id="text_15">
     <!-- y -->
     <g transform="translate(34.141875 146.83125)rotate(-90)scale(0.12 -0.12)">
      <defs>
       <path d="M 2059 -325 
Q 1816 -950 1584 -1140 
Q 1353 -1331 966 -1331 
L 506 -1331 
L 506 -850 
L 844 -850 
Q 1081 -850 1212 -737 
Q 1344 -625 1503 -206 
L 1606 56 
L 191 3500 
L 800 3500 
L 1894 763 
L 2988 3500 
L 3597 3500 
L 2059 -325 
z
" id="DejaVuSans-79" transform="scale(0.015625)"/>
      </defs>
      <use xlink:href="#DejaVuSans-79"/>
     </g>
    </g>
   </g>
   <g id="line2d_14">
    <path clip-path="url(#pd1d0081aa4)" d="M 69.218182 70.8 
L 71.985124 85.083949 
L 74.752066 98.25467 
L 77.519008 110.364828 
L 80.28595 121.465955 
L 83.052893 131.608455 
L 85.819835 140.841599 
L 88.586777 149.213528 
L 91.353719 156.771253 
L 94.120661 163.560654 
L 96.887603 169.62648 
L 99.654545 175.012349 
L 102.421488 179.76075 
L 105.18843 183.913038 
L 107.955372 187.509441 
L 110.722314 190.589055 
L 113.489256 193.189844 
L 116.256198 195.348643 
L 119.02314 197.101155 
L 121.790083 198.481953 
L 124.557025 199.52448 
L 127.323967 200.261047 
L 130.090909 200.722835 
L 132.857851 200.939895 
L 135.624793 200.941145 
L 138.391736 200.754375 
L 141.158678 200.406243 
L 143.92562 199.922276 
L 146.692562 199.326871 
L 149.459504 198.643294 
L 152.226446 197.89368 
L 154.993388 197.099035 
L 157.760331 196.279231 
L 160.527273 195.453014 
L 163.294215 194.637994 
L 166.061157 193.850655 
L 168.828099 193.106347 
L 171.595041 192.419291 
L 174.361983 191.802577 
L 177.128926 191.268164 
L 179.895868 190.82688 
L 182.66281 190.488424 
L 185.429752 190.261362 
L 188.196694 190.153131 
L 190.963636 190.170037 
L 193.730579 190.317255 
L 196.497521 190.598829 
L 199.264463 191.017673 
L 202.031405 191.575569 
L 204.798347 192.273171 
L 207.565289 193.11 
L 210.332231 194.084446 
L 213.099174 195.193771 
L 215.866116 196.434103 
L 218.633058 197.800442 
L 221.4 199.286655 
L 224.166942 200.88548 
L 226.933884 202.588525 
L 229.700826 204.386264 
L 232.467769 206.268045 
L 235.234711 208.22208 
L 238.001653 210.235455 
L 240.768595 212.294122 
L 243.535537 214.382905 
L 246.302479 216.485496 
L 249.069421 218.584455 
L 251.836364 220.661214 
L 254.603306 222.696071 
L 257.370248 224.668198 
L 260.13719 226.555631 
L 262.904132 228.33528 
L 265.671074 229.982921 
L 268.438017 231.4732 
L 271.204959 232.779634 
L 273.971901 233.874607 
L 276.738843 234.729375 
L 279.505785 235.31406 
L 282.272727 235.597656 
L 285.039669 235.548026 
L 287.806612 235.1319 
L 290.573554 234.31488 
L 293.340496 233.061436 
L 296.107438 231.334908 
L 298.87438 229.097505 
L 301.641322 226.310305 
L 304.408264 222.933255 
L 307.175207 218.925173 
L 309.942149 214.243744 
L 312.709091 208.845524 
L 315.476033 202.685938 
L 318.242975 195.71928 
L 321.009917 187.898713 
L 323.77686 179.176271 
L 326.543802 169.502854 
L 329.310744 158.828236 
L 332.077686 147.101055 
L 334.844628 134.268823 
L 337.61157 120.277918 
L 340.378512 105.073589 
L 343.145455 88.599954 
L 345.912397 70.8 
L 348.679339 51.615584 
L 351.446281 30.987432 
L 354.213223 8.855138 
L 355.363895 -1 
" style="fill:none;stroke:#0000ff;stroke-linecap:square;stroke-width:2;"/>
   </g>
   <g id="line2d_15">
    <path clip-path="url(#pd1d0081aa4)" d="M 69.218182 150.900036 
L 71.985124 147.970212 
L 74.752066 146.009359 
L 77.519008 145.148673 
L 80.28595 145.485198 
L 83.052893 147.066887 
L 85.819835 149.871077 
L 88.586777 153.783343 
L 91.353719 158.59693 
L 94.120661 164.045175 
L 96.887603 169.848652 
L 99.654545 175.749543 
L 102.421488 181.526087 
L 105.18843 186.994962 
L 107.955372 192.009442 
L 110.722314 196.456939 
L 113.489256 200.25708 
L 116.256198 203.360558 
L 119.02314 205.748629 
L 121.790083 207.432675 
L 124.557025 208.452972 
L 127.323967 208.875846 
L 130.090909 208.788872 
L 132.857851 208.294322 
L 135.624793 207.501543 
L 138.391736 206.519199 
L 141.158678 205.448292 
L 143.92562 204.376697 
L 146.692562 203.375584 
L 149.459504 202.497747 
L 152.226446 201.777485 
L 154.993388 201.231477 
L 157.760331 200.860054 
L 160.527273 200.648476 
L 163.294215 200.568208 
L 166.061157 200.578697 
L 168.828099 200.63048 
L 171.595041 200.670408 
L 174.361983 200.649353 
L 177.128926 200.532204 
L 179.895868 200.309472 
L 182.66281 200.008831 
L 185.429752 199.70241 
L 188.196694 199.501415 
L 190.963636 199.529657 
L 193.730579 199.88275 
L 196.497521 200.600146 
L 199.264463 201.668015 
L 202.031405 203.04044 
L 204.798347 204.658813 
L 207.565289 206.462721 
L 210.332231 208.394811 
L 213.099174 210.402947 
L 215.866116 212.441363 
L 218.633058 214.471344 
L 221.4 216.461456 
L 224.166942 218.387285 
L 226.933884 220.230678 
L 229.700826 221.978607 
L 232.467769 223.621853 
L 235.234711 225.153763 
L 238.001653 226.569367 
L 240.768595 227.86504 
L 243.535537 229.038843 
L 246.302479 230.091521 
L 249.069421 231.028042 
L 251.836364 231.859426 
L 254.603306 232.6046 
L 257.370248 233.291981 
L 260.13719 233.960532 
L 262.904132 234.66009 
L 265.671074 235.450627 
L 268.438017 236.399626 
L 271.204959 237.575295 
L 273.971901 239.03115 
L 276.738843 240.777816 
L 279.505785 242.749133 
L 282.272727 244.789181 
L 285.039669 246.681055 
L 287.806612 248.197675 
L 290.573554 249.138456 
L 293.340496 249.340895 
L 296.107438 248.677137 
L 298.87438 247.046382 
L 301.641322 244.368586 
L 304.408264 240.581486 
L 307.175207 235.641532 
L 309.942149 229.528455 
L 312.709091 222.252215 
L 315.476033 213.860322 
L 318.242975 204.443422 
L 321.009917 194.137902 
L 323.77686 183.125512 
L 326.543802 171.631082 
L 329.310744 159.919748 
L 332.077686 148.294588 
L 334.844628 137.093978 
L 337.61157 126.685036 
L 340.378512 117.445469 
L 343.145455 109.726754 
L 345.912397 103.805989 
L 348.679339 99.851791 
L 351.446281 97.920944 
L 354.213223 97.975384 
L 356.980165 99.901823 
L 359.747107 103.527483 
L 362.51405 108.633365 
L 365.280992 114.967238 
L 368.047934 122.257074 
L 370.814876 130.224572 
L 373.581818 138.59798 
" style="fill:none;stroke:#008000;stroke-dasharray:3.7,1.6;stroke-dashoffset:0;"/>
   </g>
   <g id="line2d_16">
    <path clip-path="url(#pd1d0081aa4)" d="M 69.218182 110.390138 
L 71.985124 112.221938 
L 74.752066 114.80509 
L 77.519008 118.093462 
L 80.28595 122.006483 
L 83.052893 126.439075 
L 85.819835 131.282434 
L 88.586777 136.448996 
L 91.353719 141.881303 
L 94.120661 147.531952 
L 96.887603 153.332132 
L 99.654545 159.175181 
L 102.421488 164.921117 
L 105.18843 170.412927 
L 107.955372 175.495506 
L 110.722314 180.032478 
L 113.489256 183.918828 
L 116.256198 187.088477 
L 119.02314 189.516674 
L 121.790083 191.217843 
L 124.557025 192.24017 
L 127.323967 192.658398 
L 130.090909 192.566098 
L 132.857851 192.068187 
L 135.624793 191.274065 
L 138.391736 190.291443 
L 141.158678 189.220815 
L 143.92562 188.150566 
L 146.692562 187.152821 
L 149.459504 186.280321 
L 152.226446 185.564715 
L 154.993388 185.016683 
L 157.760331 184.628135 
L 160.527273 184.376419 
L 163.294215 184.229964 
L 166.061157 184.154237 
L 168.828099 184.116564 
L 171.595041 184.088456 
L 174.361983 184.044584 
L 177.128926 183.958202 
L 179.895868 183.793465 
L 182.66281 183.496186 
L 185.429752 182.98725 
L 188.196694 182.167254 
L 190.963636 180.941015 
L 193.730579 179.255528 
L 196.497521 177.124508 
L 199.264463 174.621893 
L 202.031405 171.857108 
L 204.798347 168.9525 
L 207.565289 166.029809 
L 210.332231 163.203307 
L 213.099174 160.57631 
L 215.866116 158.239297 
L 218.633058 156.26903 
L 221.4 154.728477 
L 224.166942 153.667452 
L 226.933884 153.123815 
L 229.700826 153.124995 
L 232.467769 153.68955 
L 235.234711 154.828456 
L 238.001653 156.545849 
L 240.768595 158.839067 
L 243.535537 161.697901 
L 246.302479 165.103155 
L 249.069421 169.024696 
L 251.836364 173.419265 
L 254.603306 178.228339 
L 257.370248 183.376301 
L 260.13719 188.769097 
L 262.904132 194.293514 
L 265.671074 199.817289 
L 268.438017 205.190815 
L 271.204959 210.252657 
L 273.971901 214.843386 
L 276.738843 218.832013 
L 279.505785 222.148147 
L 282.272727 224.793592 
L 285.039669 226.812977 
L 287.806612 228.243572 
L 290.573554 229.080957 
L 293.340496 229.271862 
L 296.107438 228.724426 
L 298.87438 227.32506 
L 301.641322 224.956325 
L 304.408264 221.513341 
L 307.175207 216.917401 
L 309.942149 211.12609 
L 312.709091 204.139945 
L 315.476033 196.006405 
L 318.242975 186.821849 
L 321.009917 176.731865 
L 323.77686 165.928905 
L 326.543802 154.645793 
L 329.310744 143.14373 
L 332.077686 131.694442 
L 334.844628 120.558232 
L 337.61157 109.963072 
L 340.378512 100.094254 
L 343.145455 91.103636 
L 345.912397 83.133135 
L 348.679339 76.328856 
L 351.446281 70.830538 
L 354.213223 66.747679 
L 356.980165 64.140353 
L 359.747107 63.011017 
L 362.51405 63.305088 
L 365.280992 64.91687 
L 368.047934 67.698519 
L 370.814876 71.470676 
L 373.581818 76.033833 
" style="fill:none;stroke:#008000;stroke-dasharray:3.7,1.6;stroke-dashoffset:0;"/>
   </g>
   <g id="line2d_17">
    <path clip-path="url(#pd1d0081aa4)" d="M 69.218182 252 
L 71.985124 252 
L 74.752066 252 
L 77.519008 252 
L 80.28595 252 
L 83.052893 252 
L 85.819835 252 
L 88.586777 252 
L 91.353719 252 
L 94.120661 252 
L 96.887603 252 
L 99.654545 252 
L 102.421488 252 
L 105.18843 252 
L 107.955372 252 
L 110.722314 252 
L 113.489256 252 
L 116.256198 252 
L 119.02314 252 
L 121.790083 252 
L 124.557025 252 
L 127.323967 252 
L 130.090909 252 
L 132.857851 252 
L 135.624793 252 
L 138.391736 252 
L 141.158678 252 
L 143.92562 252 
L 146.692562 252 
L 149.459504 252 
L 152.226446 252 
L 154.993388 252 
L 157.760331 252 
L 160.527273 252 
L 163.294215 252 
L 166.061157 252 
L 168.828099 252 
L 171.595041 252 
L 174.361983 252 
L 177.128926 252 
L 179.895868 252 
L 182.66281 252 
L 185.429752 252 
L 188.196694 252 
L 190.963636 252 
L 193.730579 252 
L 196.497521 252 
L 199.264463 251.999999 
L 202.031405 251.999976 
L 204.798347 251.99963 
L 207.565289 251.997269 
L 210.332231 251.988256 
L 213.099174 251.965613 
L 215.866116 251.923377 
L 218.633058 251.859643 
L 221.4 251.777089 
L 224.166942 251.681556 
L 226.933884 251.580182 
L 229.700826 251.480022 
L 232.467769 251.387345 
L 235.234711 251.307441 
L 238.001653 251.244702 
L 240.768595 251.202757 
L 243.535537 251.184541 
L 246.302479 251.19221 
L 249.069421 251.226853 
L 251.836364 251.288011 
L 254.603306 251.373035 
L 257.370248 251.476427 
L 260.13719 251.58949 
L 262.904132 251.700837 
L 265.671074 251.798384 
L 268.438017 251.872846 
L 271.204959 251.921077 
L 273.971901 251.946168 
L 276.738843 251.95311 
L 279.505785 251.942958 
L 282.272727 251.909666 
L 285.039669 251.844892 
L 287.806612 251.755249 
L 290.573554 251.676563 
L 293.340496 251.657773 
L 296.107438 251.720427 
L 298.87438 251.833143 
L 301.641322 251.933591 
L 304.408264 251.984668 
L 307.175207 251.998313 
L 309.942149 251.999931 
L 312.709091 251.999999 
L 315.476033 252 
L 318.242975 252 
L 321.009917 252 
L 323.77686 252 
L 326.543802 252 
L 329.310744 252 
L 332.077686 252 
L 334.844628 252 
L 337.61157 252 
L 340.378512 252 
L 343.145455 252 
L 345.912397 252 
L 348.679339 252 
L 351.446281 252 
L 354.213223 252 
L 356.980165 252 
L 359.747107 252 
L 362.51405 252 
L 365.280992 252 
L 368.047934 252 
L 370.814876 251.999999 
L 373.581818 251.999988 
" style="fill:none;stroke:#bfbf00;stroke-dasharray:7.4,3.2;stroke-dashoffset:0;stroke-width:2;"/>
   </g>
   <g id="patch_3">
    <path d="M 54 252 
L 54 34.56 
" style="fill:none;stroke:#000000;stroke-linecap:square;stroke-linejoin:miter;stroke-width:0.8;"/>
   </g>
   <g id="patch_4">
    <path d="M 388.8 252 
L 388.8 34.56 
" style="fill:none;stroke:#000000;stroke-linecap:square;stroke-linejoin:miter;stroke-width:0.8;"/>
   </g>
   <g id="patch_5">
    <path d="M 54 252 
L 388.8 252 
" style="fill:none;stroke:#000000;stroke-linecap:square;stroke-linejoin:miter;stroke-width:0.8;"/>
   </g>
   <g id="patch_6">
    <path d="M 54 34.56 
L 388.8 34.56 
" style="fill:none;stroke:#000000;stroke-linecap:square;stroke-linejoin:miter;stroke-width:0.8;"/>
   </g>
   <g id="text_16">
    <!-- Method : PI -->
    <g transform="translate(71.985124 244.752)scale(0.12 -0.12)">
     <defs>
      <path d="M 628 4666 
L 1569 4666 
L 2759 1491 
L 3956 4666 
L 4897 4666 
L 4897 0 
L 4281 0 
L 4281 4097 
L 3078 897 
L 2444 897 
L 1241 4097 
L 1241 0 
L 628 0 
L 628 4666 
z
" id="DejaVuSans-4d" transform="scale(0.015625)"/>
      <path d="M 3597 1894 
L 3597 1613 
L 953 1613 
Q 991 1019 1311 708 
Q 1631 397 2203 397 
Q 2534 397 2845 478 
Q 3156 559 3463 722 
L 3463 178 
Q 3153 47 2828 -22 
Q 2503 -91 2169 -91 
Q 1331 -91 842 396 
Q 353 884 353 1716 
Q 353 2575 817 3079 
Q 1281 3584 2069 3584 
Q 2775 3584 3186 3129 
Q 3597 2675 3597 1894 
z
M 3022 2063 
Q 3016 2534 2758 2815 
Q 2500 3097 2075 3097 
Q 1594 3097 1305 2825 
Q 1016 2553 972 2059 
L 3022 2063 
z
" id="DejaVuSans-65" transform="scale(0.015625)"/>
      <path d="M 1172 4494 
L 1172 3500 
L 2356 3500 
L 2356 3053 
L 1172 3053 
L 1172 1153 
Q 1172 725 1289 603 
Q 1406 481 1766 481 
L 2356 481 
L 2356 0 
L 1766 0 
Q 1100 0 847 248 
Q 594 497 594 1153 
L 594 3053 
L 172 3053 
L 172 3500 
L 594 3500 
L 594 4494 
L 1172 4494 
z
" id="DejaVuSans-74" transform="scale(0.015625)"/>
      <path d="M 3513 2113 
L 3513 0 
L 2938 0 
L 2938 2094 
Q 2938 2591 2744 2837 
Q 2550 3084 2163 3084 
Q 1697 3084 1428 2787 
Q 1159 2491 1159 1978 
L 1159 0 
L 581 0 
L 581 4863 
L 1159 4863 
L 1159 2956 
Q 1366 3272 1645 3428 
Q 1925 3584 2291 3584 
Q 2894 3584 3203 3211 
Q 3513 2838 3513 2113 
z
" id="DejaVuSans-68" transform="scale(0.015625)"/>
      <path d="M 1959 3097 
Q 1497 3097 1228 2736 
Q 959 2375 959 1747 
Q 959 1119 1226 758 
Q 1494 397 1959 397 
Q 2419 397 2687 759 
Q 2956 1122 2956 1747 
Q 2956 2369 2687 2733 
Q 2419 3097 1959 3097 
z
M 1959 3584 
Q 2709 3584 3137 3096 
Q 3566 2609 3566 1747 
Q 3566 888 3137 398 
Q 2709 -91 1959 -91 
Q 1206 -91 779 398 
Q 353 888 353 1747 
Q 353 2609 779 3096 
Q 1206 3584 1959 3584 
z
" id="DejaVuSans-6f" transform="scale(0.015625)"/>
      <path d="M 2906 2969 
L 2906 4863 
L 3481 4863 
L 3481 0 
L 2906 0 
L 2906 525 
Q 2725 213 2448 61 
Q 2172 -91 1784 -91 
Q 1150 -91 751 415 
Q 353 922 353 1747 
Q 353 2572 751 3078 
Q 1150 3584 1784 3584 
Q 2172 3584 2448 3432 
Q 2725 3281 2906 2969 
z
M 947 1747 
Q 947 1113 1208 752 
Q 1469 391 1925 391 
Q 2381 391 2643 752 
Q 2906 1113 2906 1747 
Q 2906 2381 2643 2742 
Q 2381 3103 1925 3103 
Q 1469 3103 1208 2742 
Q 947 2381 947 1747 
z
" id="DejaVuSans-64" transform="scale(0.015625)"/>
      <path id="DejaVuSans-20" transform="scale(0.015625)"/>
      <path d="M 750 794 
L 1409 794 
L 1409 0 
L 750 0 
L 750 794 
z
M 750 3309 
L 1409 3309 
L 1409 2516 
L 750 2516 
L 750 3309 
z
" id="DejaVuSans-3a" transform="scale(0.015625)"/>
      <path d="M 1259 4147 
L 1259 2394 
L 2053 2394 
Q 2494 2394 2734 2622 
Q 2975 2850 2975 3272 
Q 2975 3691 2734 3919 
Q 2494 4147 2053 4147 
L 1259 4147 
z
M 628 4666 
L 2053 4666 
Q 2838 4666 3239 4311 
Q 3641 3956 3641 3272 
Q 3641 2581 3239 2228 
Q 2838 1875 2053 1875 
L 1259 1875 
L 1259 0 
L 628 0 
L 628 4666 
z
" id="DejaVuSans-50" transform="scale(0.015625)"/>
      <path d="M 628 4666 
L 1259 4666 
L 1259 0 
L 628 0 
L 628 4666 
z
" id="DejaVuSans-49" transform="scale(0.015625)"/>
     </defs>
     <use xlink:href="#DejaVuSans-4d"/>
     <use x="86.279297" xlink:href="#DejaVuSans-65"/>
     <use x="147.802734" xlink:href="#DejaVuSans-74"/>
     <use x="187.011719" xlink:href="#DejaVuSans-68"/>
     <use x="250.390625" xlink:href="#DejaVuSans-6f"/>
     <use x="311.572266" xlink:href="#DejaVuSans-64"/>
     <use x="375.048828" xlink:href="#DejaVuSans-20"/>
     <use x="406.835938" xlink:href="#DejaVuSans-3a"/>
     <use x="440.527344" xlink:href="#DejaVuSans-20"/>
     <use x="472.314453" xlink:href="#DejaVuSans-50"/>
     <use x="532.617188" xlink:href="#DejaVuSans-49"/>
    </g>
   </g>
   <g id="text_17">
    <!-- Iter=2 -->
    <g transform="translate(71.985124 226.632)scale(0.12 -0.12)">
     <defs>
      <path d="M 2631 2963 
Q 2534 3019 2420 3045 
Q 2306 3072 2169 3072 
Q 1681 3072 1420 2755 
Q 1159 2438 1159 1844 
L 1159 0 
L 581 0 
L 581 3500 
L 1159 3500 
L 1159 2956 
Q 1341 3275 1631 3429 
Q 1922 3584 2338 3584 
Q 2397 3584 2469 3576 
Q 2541 3569 2628 3553 
L 2631 2963 
z
" id="DejaVuSans-72" transform="scale(0.015625)"/>
      <path d="M 678 2906 
L 4684 2906 
L 4684 2381 
L 678 2381 
L 678 2906 
z
M 678 1631 
L 4684 1631 
L 4684 1100 
L 678 1100 
L 678 1631 
z
" id="DejaVuSans-3d" transform="scale(0.015625)"/>
     </defs>
     <use xlink:href="#DejaVuSans-49"/>
     <use x="29.492188" xlink:href="#DejaVuSans-74"/>
     <use x="68.701172" xlink:href="#DejaVuSans-65"/>
     <use x="130.224609" xlink:href="#DejaVuSans-72"/>
     <use x="171.337891" xlink:href="#DejaVuSans-3d"/>
     <use x="255.126953" xlink:href="#DejaVuSans-32"/>
    </g>
   </g>
   <g id="text_18">
    <!-- (c) -->
    <g transform="translate(71.985124 56.304)scale(0.12 -0.12)">
     <defs>
      <path d="M 1984 4856 
Q 1566 4138 1362 3434 
Q 1159 2731 1159 2009 
Q 1159 1288 1364 580 
Q 1569 -128 1984 -844 
L 1484 -844 
Q 1016 -109 783 600 
Q 550 1309 550 2009 
Q 550 2706 781 3412 
Q 1013 4119 1484 4856 
L 1984 4856 
z
" id="DejaVuSans-28" transform="scale(0.015625)"/>
      <path d="M 3122 3366 
L 3122 2828 
Q 2878 2963 2633 3030 
Q 2388 3097 2138 3097 
Q 1578 3097 1268 2742 
Q 959 2388 959 1747 
Q 959 1106 1268 751 
Q 1578 397 2138 397 
Q 2388 397 2633 464 
Q 2878 531 3122 666 
L 3122 134 
Q 2881 22 2623 -34 
Q 2366 -91 2075 -91 
Q 1284 -91 818 406 
Q 353 903 353 1747 
Q 353 2603 823 3093 
Q 1294 3584 2113 3584 
Q 2378 3584 2631 3529 
Q 2884 3475 3122 3366 
z
" id="DejaVuSans-63" transform="scale(0.015625)"/>
      <path d="M 513 4856 
L 1013 4856 
Q 1481 4119 1714 3412 
Q 1947 2706 1947 2009 
Q 1947 1309 1714 600 
Q 1481 -109 1013 -844 
L 513 -844 
Q 928 -128 1133 580 
Q 1338 1288 1338 2009 
Q 1338 2731 1133 3434 
Q 928 4138 513 4856 
z
" id="DejaVuSans-29" transform="scale(0.015625)"/>
     </defs>
     <use xlink:href="#DejaVuSans-28"/>
     <use x="39.013672" xlink:href="#DejaVuSans-63"/>
     <use x="93.994141" xlink:href="#DejaVuSans-29"/>
    </g>
   </g>
   <g id="legend_1">
    <g id="patch_7">
     <path d="M 144.327812 140.235625 
L 298.472188 140.235625 
Q 300.672188 140.235625 300.672188 138.035625 
L 300.672188 42.26 
Q 300.672188 40.06 298.472188 40.06 
L 144.327812 40.06 
Q 142.127813 40.06 142.127813 42.26 
L 142.127813 138.035625 
Q 142.127813 140.235625 144.327812 140.235625 
z
" style="fill:#ffffff;opacity:0.8;stroke:#cccccc;stroke-linejoin:miter;"/>
    </g>
    <g id="line2d_18">
     <path d="M 146.527813 48.968281 
L 168.527813 48.968281 
" style="fill:none;stroke:#0000ff;stroke-linecap:square;stroke-width:2;"/>
    </g>
    <g id="line2d_19"/>
    <g id="text_19">
     <!-- ture function -->
     <g transform="translate(177.327813 52.818281)scale(0.11 -0.11)">
      <defs>
       <path d="M 544 1381 
L 544 3500 
L 1119 3500 
L 1119 1403 
Q 1119 906 1312 657 
Q 1506 409 1894 409 
Q 2359 409 2629 706 
Q 2900 1003 2900 1516 
L 2900 3500 
L 3475 3500 
L 3475 0 
L 2900 0 
L 2900 538 
Q 2691 219 2414 64 
Q 2138 -91 1772 -91 
Q 1169 -91 856 284 
Q 544 659 544 1381 
z
M 1991 3584 
L 1991 3584 
z
" id="DejaVuSans-75" transform="scale(0.015625)"/>
       <path d="M 2375 4863 
L 2375 4384 
L 1825 4384 
Q 1516 4384 1395 4259 
Q 1275 4134 1275 3809 
L 1275 3500 
L 2222 3500 
L 2222 3053 
L 1275 3053 
L 1275 0 
L 697 0 
L 697 3053 
L 147 3053 
L 147 3500 
L 697 3500 
L 697 3744 
Q 697 4328 969 4595 
Q 1241 4863 1831 4863 
L 2375 4863 
z
" id="DejaVuSans-66" transform="scale(0.015625)"/>
       <path d="M 3513 2113 
L 3513 0 
L 2938 0 
L 2938 2094 
Q 2938 2591 2744 2837 
Q 2550 3084 2163 3084 
Q 1697 3084 1428 2787 
Q 1159 2491 1159 1978 
L 1159 0 
L 581 0 
L 581 3500 
L 1159 3500 
L 1159 2956 
Q 1366 3272 1645 3428 
Q 1925 3584 2291 3584 
Q 2894 3584 3203 3211 
Q 3513 2838 3513 2113 
z
" id="DejaVuSans-6e" transform="scale(0.015625)"/>
       <path d="M 603 3500 
L 1178 3500 
L 1178 0 
L 603 0 
L 603 3500 
z
M 603 4863 
L 1178 4863 
L 1178 4134 
L 603 4134 
L 603 4863 
z
" id="DejaVuSans-69" transform="scale(0.015625)"/>
      </defs>
      <use xlink:href="#DejaVuSans-74"/>
      <use x="39.208984" xlink:href="#DejaVuSans-75"/>
      <use x="102.587891" xlink:href="#DejaVuSans-72"/>
      <use x="141.451172" xlink:href="#DejaVuSans-65"/>
      <use x="202.974609" xlink:href="#DejaVuSans-20"/>
      <use x="234.761719" xlink:href="#DejaVuSans-66"/>
      <use x="269.966797" xlink:href="#DejaVuSans-75"/>
      <use x="333.345703" xlink:href="#DejaVuSans-6e"/>
      <use x="396.724609" xlink:href="#DejaVuSans-63"/>
      <use x="451.705078" xlink:href="#DejaVuSans-74"/>
      <use x="490.914062" xlink:href="#DejaVuSans-69"/>
      <use x="518.697266" xlink:href="#DejaVuSans-6f"/>
      <use x="579.878906" xlink:href="#DejaVuSans-6e"/>
     </g>
    </g>
    <g id="line2d_20">
     <path d="M 146.527813 65.114219 
L 168.527813 65.114219 
" style="fill:none;stroke:#000000;stroke-dasharray:7.4,3.2;stroke-dashoffset:0;stroke-width:2;"/>
    </g>
    <g id="line2d_21"/>
    <g id="text_20">
     <!-- predicted function -->
     <g transform="translate(177.327813 68.964219)scale(0.11 -0.11)">
      <defs>
       <path d="M 1159 525 
L 1159 -1331 
L 581 -1331 
L 581 3500 
L 1159 3500 
L 1159 2969 
Q 1341 3281 1617 3432 
Q 1894 3584 2278 3584 
Q 2916 3584 3314 3078 
Q 3713 2572 3713 1747 
Q 3713 922 3314 415 
Q 2916 -91 2278 -91 
Q 1894 -91 1617 61 
Q 1341 213 1159 525 
z
M 3116 1747 
Q 3116 2381 2855 2742 
Q 2594 3103 2138 3103 
Q 1681 3103 1420 2742 
Q 1159 2381 1159 1747 
Q 1159 1113 1420 752 
Q 1681 391 2138 391 
Q 2594 391 2855 752 
Q 3116 1113 3116 1747 
z
" id="DejaVuSans-70" transform="scale(0.015625)"/>
      </defs>
      <use xlink:href="#DejaVuSans-70"/>
      <use x="63.476562" xlink:href="#DejaVuSans-72"/>
      <use x="102.339844" xlink:href="#DejaVuSans-65"/>
      <use x="163.863281" xlink:href="#DejaVuSans-64"/>
      <use x="227.339844" xlink:href="#DejaVuSans-69"/>
      <use x="255.123047" xlink:href="#DejaVuSans-63"/>
      <use x="310.103516" xlink:href="#DejaVuSans-74"/>
      <use x="349.3125" xlink:href="#DejaVuSans-65"/>
      <use x="410.835938" xlink:href="#DejaVuSans-64"/>
      <use x="474.3125" xlink:href="#DejaVuSans-20"/>
      <use x="506.099609" xlink:href="#DejaVuSans-66"/>
      <use x="541.304688" xlink:href="#DejaVuSans-75"/>
      <use x="604.683594" xlink:href="#DejaVuSans-6e"/>
      <use x="668.0625" xlink:href="#DejaVuSans-63"/>
      <use x="723.042969" xlink:href="#DejaVuSans-74"/>
      <use x="762.251953" xlink:href="#DejaVuSans-69"/>
      <use x="790.035156" xlink:href="#DejaVuSans-6f"/>
      <use x="851.216797" xlink:href="#DejaVuSans-6e"/>
     </g>
    </g>
    <g id="line2d_22">
     <path d="M 146.527813 81.260156 
L 168.527813 81.260156 
" style="fill:none;stroke:#008000;stroke-dasharray:3.7,1.6;stroke-dashoffset:0;"/>
    </g>
    <g id="line2d_23"/>
    <g id="text_21">
     <!--  ± Sn(x) -->
     <g transform="translate(177.327813 85.110156)scale(0.11 -0.11)">
      <defs>
       <path d="M 2944 4013 
L 2944 2803 
L 4684 2803 
L 4684 2272 
L 2944 2272 
L 2944 1063 
L 2419 1063 
L 2419 2272 
L 678 2272 
L 678 2803 
L 2419 2803 
L 2419 4013 
L 2944 4013 
z
M 678 531 
L 4684 531 
L 4684 0 
L 678 0 
L 678 531 
z
" id="DejaVuSans-b1" transform="scale(0.015625)"/>
       <path d="M 3425 4513 
L 3425 3897 
Q 3066 4069 2747 4153 
Q 2428 4238 2131 4238 
Q 1616 4238 1336 4038 
Q 1056 3838 1056 3469 
Q 1056 3159 1242 3001 
Q 1428 2844 1947 2747 
L 2328 2669 
Q 3034 2534 3370 2195 
Q 3706 1856 3706 1288 
Q 3706 609 3251 259 
Q 2797 -91 1919 -91 
Q 1588 -91 1214 -16 
Q 841 59 441 206 
L 441 856 
Q 825 641 1194 531 
Q 1563 422 1919 422 
Q 2459 422 2753 634 
Q 3047 847 3047 1241 
Q 3047 1584 2836 1778 
Q 2625 1972 2144 2069 
L 1759 2144 
Q 1053 2284 737 2584 
Q 422 2884 422 3419 
Q 422 4038 858 4394 
Q 1294 4750 2059 4750 
Q 2388 4750 2728 4690 
Q 3069 4631 3425 4513 
z
" id="DejaVuSans-53" transform="scale(0.015625)"/>
      </defs>
      <use xlink:href="#DejaVuSans-20"/>
      <use x="31.787109" xlink:href="#DejaVuSans-b1"/>
      <use x="115.576172" xlink:href="#DejaVuSans-20"/>
      <use x="147.363281" xlink:href="#DejaVuSans-53"/>
      <use x="210.839844" xlink:href="#DejaVuSans-6e"/>
      <use x="274.21875" xlink:href="#DejaVuSans-28"/>
      <use x="313.232422" xlink:href="#DejaVuSans-78"/>
      <use x="372.412109" xlink:href="#DejaVuSans-29"/>
     </g>
    </g>
    <g id="line2d_24">
     <path d="M 146.527813 97.406094 
L 168.527813 97.406094 
" style="fill:none;stroke:#bfbf00;stroke-dasharray:7.4,3.2;stroke-dashoffset:0;stroke-width:2;"/>
    </g>
    <g id="line2d_25"/>
    <g id="text_22">
     <!-- PI(x) -->
     <g transform="translate(177.327813 101.256094)scale(0.11 -0.11)">
      <use xlink:href="#DejaVuSans-50"/>
      <use x="60.302734" xlink:href="#DejaVuSans-49"/>
      <use x="89.794922" xlink:href="#DejaVuSans-28"/>
      <use x="128.808594" xlink:href="#DejaVuSans-78"/>
      <use x="187.988281" xlink:href="#DejaVuSans-29"/>
     </g>
    </g>
    <g id="PathCollection_2">
     <defs>
      <path d="M 0 3.535534 
C 0.937635 3.535534 1.836992 3.163008 2.5 2.5 
C 3.163008 1.836992 3.535534 0.937635 3.535534 0 
C 3.535534 -0.937635 3.163008 -1.836992 2.5 -2.5 
C 1.836992 -3.163008 0.937635 -3.535534 0 -3.535534 
C -0.937635 -3.535534 -1.836992 -3.163008 -2.5 -2.5 
C -3.163008 -1.836992 -3.535534 -0.937635 -3.535534 0 
C -3.535534 0.937635 -3.163008 1.836992 -2.5 2.5 
C -1.836992 3.163008 -0.937635 3.535534 0 3.535534 
z
" id="m9e7cbc990d" style="stroke:#000000;"/>
     </defs>
     <g>
      <use style="fill:#ff0000;stroke:#000000;" x="157.527813" xlink:href="#m9e7cbc990d" y="114.514531"/>
     </g>
    </g>
    <g id="text_23">
     <!-- training data -->
     <g transform="translate(177.327813 117.402031)scale(0.11 -0.11)">
      <defs>
       <path d="M 2194 1759 
Q 1497 1759 1228 1600 
Q 959 1441 959 1056 
Q 959 750 1161 570 
Q 1363 391 1709 391 
Q 2188 391 2477 730 
Q 2766 1069 2766 1631 
L 2766 1759 
L 2194 1759 
z
M 3341 1997 
L 3341 0 
L 2766 0 
L 2766 531 
Q 2569 213 2275 61 
Q 1981 -91 1556 -91 
Q 1019 -91 701 211 
Q 384 513 384 1019 
Q 384 1609 779 1909 
Q 1175 2209 1959 2209 
L 2766 2209 
L 2766 2266 
Q 2766 2663 2505 2880 
Q 2244 3097 1772 3097 
Q 1472 3097 1187 3025 
Q 903 2953 641 2809 
L 641 3341 
Q 956 3463 1253 3523 
Q 1550 3584 1831 3584 
Q 2591 3584 2966 3190 
Q 3341 2797 3341 1997 
z
" id="DejaVuSans-61" transform="scale(0.015625)"/>
       <path d="M 2906 1791 
Q 2906 2416 2648 2759 
Q 2391 3103 1925 3103 
Q 1463 3103 1205 2759 
Q 947 2416 947 1791 
Q 947 1169 1205 825 
Q 1463 481 1925 481 
Q 2391 481 2648 825 
Q 2906 1169 2906 1791 
z
M 3481 434 
Q 3481 -459 3084 -895 
Q 2688 -1331 1869 -1331 
Q 1566 -1331 1297 -1286 
Q 1028 -1241 775 -1147 
L 775 -588 
Q 1028 -725 1275 -790 
Q 1522 -856 1778 -856 
Q 2344 -856 2625 -561 
Q 2906 -266 2906 331 
L 2906 616 
Q 2728 306 2450 153 
Q 2172 0 1784 0 
Q 1141 0 747 490 
Q 353 981 353 1791 
Q 353 2603 747 3093 
Q 1141 3584 1784 3584 
Q 2172 3584 2450 3431 
Q 2728 3278 2906 2969 
L 2906 3500 
L 3481 3500 
L 3481 434 
z
" id="DejaVuSans-67" transform="scale(0.015625)"/>
      </defs>
      <use xlink:href="#DejaVuSans-74"/>
      <use x="39.208984" xlink:href="#DejaVuSans-72"/>
      <use x="80.322266" xlink:href="#DejaVuSans-61"/>
      <use x="141.601562" xlink:href="#DejaVuSans-69"/>
      <use x="169.384766" xlink:href="#DejaVuSans-6e"/>
      <use x="232.763672" xlink:href="#DejaVuSans-69"/>
      <use x="260.546875" xlink:href="#DejaVuSans-6e"/>
      <use x="323.925781" xlink:href="#DejaVuSans-67"/>
      <use x="387.402344" xlink:href="#DejaVuSans-20"/>
      <use x="419.189453" xlink:href="#DejaVuSans-64"/>
      <use x="482.666016" xlink:href="#DejaVuSans-61"/>
      <use x="543.945312" xlink:href="#DejaVuSans-74"/>
      <use x="583.154297" xlink:href="#DejaVuSans-61"/>
     </g>
    </g>
    <g id="PathCollection_3">
     <g>
      <use style="fill:#ff0000;stroke:#ff0000;stroke-width:8;" x="157.527813" xlink:href="#mfb9e42d0bf" y="130.660469"/>
     </g>
    </g>
    <g id="text_24">
     <!-- recommended datum -->
     <g transform="translate(177.327813 133.547969)scale(0.11 -0.11)">
      <defs>
       <path d="M 3328 2828 
Q 3544 3216 3844 3400 
Q 4144 3584 4550 3584 
Q 5097 3584 5394 3201 
Q 5691 2819 5691 2113 
L 5691 0 
L 5113 0 
L 5113 2094 
Q 5113 2597 4934 2840 
Q 4756 3084 4391 3084 
Q 3944 3084 3684 2787 
Q 3425 2491 3425 1978 
L 3425 0 
L 2847 0 
L 2847 2094 
Q 2847 2600 2669 2842 
Q 2491 3084 2119 3084 
Q 1678 3084 1418 2786 
Q 1159 2488 1159 1978 
L 1159 0 
L 581 0 
L 581 3500 
L 1159 3500 
L 1159 2956 
Q 1356 3278 1631 3431 
Q 1906 3584 2284 3584 
Q 2666 3584 2933 3390 
Q 3200 3197 3328 2828 
z
" id="DejaVuSans-6d" transform="scale(0.015625)"/>
      </defs>
      <use xlink:href="#DejaVuSans-72"/>
      <use x="38.863281" xlink:href="#DejaVuSans-65"/>
      <use x="100.386719" xlink:href="#DejaVuSans-63"/>
      <use x="155.367188" xlink:href="#DejaVuSans-6f"/>
      <use x="216.548828" xlink:href="#DejaVuSans-6d"/>
      <use x="313.960938" xlink:href="#DejaVuSans-6d"/>
      <use x="411.373047" xlink:href="#DejaVuSans-65"/>
      <use x="472.896484" xlink:href="#DejaVuSans-6e"/>
      <use x="536.275391" xlink:href="#DejaVuSans-64"/>
      <use x="599.751953" xlink:href="#DejaVuSans-65"/>
      <use x="661.275391" xlink:href="#DejaVuSans-64"/>
      <use x="724.751953" xlink:href="#DejaVuSans-20"/>
      <use x="756.539062" xlink:href="#DejaVuSans-64"/>
      <use x="820.015625" xlink:href="#DejaVuSans-61"/>
      <use x="881.294922" xlink:href="#DejaVuSans-74"/>
      <use x="920.503906" xlink:href="#DejaVuSans-75"/>
      <use x="983.882812" xlink:href="#DejaVuSans-6d"/>
     </g>
    </g>
   </g>
   <g id="line2d_26">
    <path clip-path="url(#pd1d0081aa4)" d="M 69.218182 130.645087 
L 71.985124 130.096075 
L 74.752066 130.407225 
L 77.519008 131.621068 
L 80.28595 133.745841 
L 83.052893 136.752981 
L 85.819835 140.576756 
L 88.586777 145.11617 
L 91.353719 150.239117 
L 94.120661 155.788564 
L 96.887603 161.590392 
L 99.654545 167.462362 
L 102.421488 173.223602 
L 105.18843 178.703945 
L 107.955372 183.752474 
L 110.722314 188.244709 
L 113.489256 192.087954 
L 116.256198 195.224517 
L 119.02314 197.632651 
L 121.790083 199.325259 
L 124.557025 200.346571 
L 127.323967 200.767122 
L 130.090909 200.677485 
L 132.857851 200.181255 
L 135.624793 199.387804 
L 138.391736 198.405321 
L 141.158678 197.334554 
L 143.92562 196.263632 
L 146.692562 195.264203 
L 149.459504 194.389034 
L 152.226446 193.6711 
L 154.993388 193.12408 
L 157.760331 192.744095 
L 160.527273 192.512448 
L 163.294215 192.399086 
L 166.061157 192.366467 
L 168.828099 192.373522 
L 171.595041 192.379432 
L 174.361983 192.346968 
L 177.128926 192.245203 
L 179.895868 192.051469 
L 182.66281 191.752508 
L 185.429752 191.34483 
L 188.196694 190.834334 
L 190.963636 190.235336 
L 193.730579 189.569139 
L 196.497521 188.862327 
L 199.264463 188.144954 
L 202.031405 187.448774 
L 204.798347 186.805657 
L 207.565289 186.246265 
L 210.332231 185.799059 
L 213.099174 185.489628 
L 215.866116 185.34033 
L 218.633058 185.370187 
L 221.4 185.594967 
L 224.166942 186.027368 
L 226.933884 186.677246 
L 229.700826 187.551801 
L 232.467769 188.655702 
L 235.234711 189.991109 
L 238.001653 191.557608 
L 240.768595 193.352054 
L 243.535537 195.368372 
L 246.302479 197.597338 
L 249.069421 200.026369 
L 251.836364 202.639345 
L 254.603306 205.41647 
L 257.370248 208.334141 
L 260.13719 211.364815 
L 262.904132 214.476802 
L 265.671074 217.633958 
L 268.438017 220.795221 
L 271.204959 223.913976 
L 273.971901 226.937268 
L 276.738843 229.804915 
L 279.505785 232.44864 
L 282.272727 234.791386 
L 285.039669 236.747016 
L 287.806612 238.220624 
L 290.573554 239.109706 
L 293.340496 239.306379 
L 296.107438 238.700782 
L 298.87438 237.185721 
L 301.641322 234.662456 
L 304.408264 231.047413 
L 307.175207 226.279467 
L 309.942149 220.327272 
L 312.709091 213.19608 
L 315.476033 204.933364 
L 318.242975 195.632635 
L 321.009917 185.434884 
L 323.77686 174.527208 
L 326.543802 163.138437 
L 329.310744 151.531739 
L 332.077686 139.994515 
L 334.844628 128.826105 
L 337.61157 118.324054 
L 340.378512 108.769862 
L 343.145455 100.415195 
L 345.912397 93.469562 
L 348.679339 88.090323 
L 351.446281 84.375741 
L 354.213223 82.361532 
L 356.980165 82.021088 
L 359.747107 83.26925 
L 362.51405 85.969227 
L 365.280992 89.942054 
L 368.047934 94.977797 
L 370.814876 100.847624 
L 373.581818 107.315906 
" style="fill:none;stroke:#000000;stroke-dasharray:7.4,3.2;stroke-dashoffset:0;stroke-width:2;"/>
   </g>
   <g id="PathCollection_4">
    <g clip-path="url(#pd1d0081aa4)">
     <use style="fill:#ff0000;stroke:#000000;" x="83.052893" xlink:href="#m9e7cbc990d" y="129.399309"/>
     <use style="fill:#ff0000;stroke:#000000;" x="96.887603" xlink:href="#m9e7cbc990d" y="162.429541"/>
     <use style="fill:#ff0000;stroke:#000000;" x="110.722314" xlink:href="#m9e7cbc990d" y="193.170209"/>
     <use style="fill:#ff0000;stroke:#000000;" x="124.557025" xlink:href="#m9e7cbc990d" y="199.248575"/>
     <use style="fill:#ff0000;stroke:#000000;" x="138.391736" xlink:href="#m9e7cbc990d" y="199.347548"/>
     <use style="fill:#ff0000;stroke:#000000;" x="152.226446" xlink:href="#m9e7cbc990d" y="191.611971"/>
     <use style="fill:#ff0000;stroke:#000000;" x="166.061157" xlink:href="#m9e7cbc990d" y="193.66847"/>
     <use style="fill:#ff0000;stroke:#000000;" x="179.895868" xlink:href="#m9e7cbc990d" y="193.283098"/>
     <use style="fill:#ff0000;stroke:#000000;" x="193.730579" xlink:href="#m9e7cbc990d" y="188.924027"/>
     <use style="fill:#ff0000;stroke:#000000;" x="318.242975" xlink:href="#m9e7cbc990d" y="199.289596"/>
     <use style="fill:#ff0000;stroke:#000000;" x="332.077686" xlink:href="#m9e7cbc990d" y="145.37007"/>
     <use style="fill:#ff0000;stroke:#000000;" x="345.912397" xlink:href="#m9e7cbc990d" y="78.407322"/>
     <use style="fill:#ff0000;stroke:#000000;" x="298.87438" xlink:href="#m9e7cbc990d" y="238.401268"/>
     <use style="fill:#ff0000;stroke:#000000;" x="276.738843" xlink:href="#m9e7cbc990d" y="232.104967"/>
    </g>
   </g>
  </g>
 </g>
 <defs>
  <clipPath id="pd1d0081aa4">
   <rect height="217.44" width="334.8" x="54" y="34.56"/>
  </clipPath>
 </defs>
</svg>
